<?xml version="1.0" encoding="UTF-8"?>
<!DOCTYPE svg PUBLIC "-//W3C//DTD SVG 1.1//EN" "https://www.w3.org/Graphics/SVG/1.1/DTD/svg11.dt">
<svg version="1.1" xmlns="http://www.w3.org/2000/svg" xmlns:xlink="http://www.w3.org/1999/xlink" x="0" y="0" width="320" height="310" viewBox="0, 0, 320, 310">
  <g id="レイヤー_8">
    <path d="M94.146,76.641 L94.146,95.301 L76,100 L78.667,119.624 L63.5,128.465 L70,146 L59,159.206 L69.5,173.5 L61.5,189.254 L75.5,198.79 L73,217.5 L90.5,225.877 L92,241.707 L111.229,245.218 L244.725,237.123 L286.229,225.877 L282,206.178 L297,198.79 L290,179.875 L301.5,169.086 L290,152.957 L297.5,136.999 L284,122.254 L286.229,107.912 L269.94,99 L267.5,84.25 L246.25,80 L113.5,75.309 L94.146,76.641 z" fill="#D33833"/>
    <path d="M183.039,42.657 L197.668,55.128 L215.509,47.971 L226.329,63.609 L245.554,61.155 L251.829,78.895 L271.128,81.312 L272.429,99.943 L290.488,107.067 L286.727,125.321 L302.313,136.665 L293.746,153.298 L305.799,168.089 L293.011,181.967 L300.708,199.198 L284.569,209.375 L287.387,227.871 L268.997,233.655 L266.743,252.155 L247.356,253.15 L240.183,270.395 L221.12,266.534 L209.518,281.348 L192.078,272.894 L176.837,284.266 L162.208,271.795 L144.368,278.953 L133.547,263.315 L114.322,265.768 L108.048,248.029 L88.748,245.612 L87.447,226.98 L69.389,219.857 L73.15,201.603 L57.563,190.259 L66.13,173.626 L54.077,158.835 L66.866,144.957 L59.168,127.726 L75.307,117.548 L72.49,99.052 L90.879,93.269 L93.134,74.768 L112.521,73.773 L119.693,56.528 L138.756,60.389 L150.358,45.576 L167.799,54.03 L183.039,42.657 z M182.876,48.998 L168.436,59.774 L151.911,51.763 L140.918,65.799 L122.855,62.141 L116.059,78.481 L97.69,79.423 L95.554,96.953 L78.129,102.433 L80.799,119.958 L65.507,129.601 L72.801,145.928 L60.683,159.078 L72.103,173.093 L63.986,188.852 L78.755,199.601 L75.191,216.897 L92.302,223.646 L93.535,241.3 L111.821,243.59 L117.766,260.398 L135.982,258.074 L146.235,272.891 L163.139,266.109 L177,277.925 L191.441,267.15 L207.965,275.16 L218.958,261.124 L237.021,264.782 L243.817,248.443 L262.186,247.5 L264.322,229.97 L281.747,224.49 L279.077,206.965 L294.369,197.322 L287.076,180.996 L299.193,167.846 L287.773,153.831 L295.89,138.071 L281.121,127.323 L284.685,110.027 L267.574,103.277 L266.342,85.624 L248.055,83.333 L242.11,66.525 L223.894,68.85 L213.642,54.033 L196.737,60.814 L182.876,48.998 z" fill="#231F20"/>
    <path d="M151.804,260.421 L143.003,233.472 L113.389,241.102 L117.412,213.431 L92.993,209.415 L99.18,195.667 L76.408,170.954 L101.894,155.493 L81.847,138.794 L106.743,133.239 L92.993,107.912 L139.667,117.25 L145.998,79.906 L170.55,97.301 L189.252,75.309 L204.026,100.11 L231.134,87.051 L233.576,114.971 L264.403,113.104 L254.091,139.315 L283.306,148.961 L265.667,169.086 L284.576,188.424 L260.396,203.374 L265,218.333 L234.562,230.458 L236.421,251.427 L208.492,238.968 L195.323,264.074 L175.22,242.505 z" fill="#F0DC00"/>
  </g>
  <g id="レイヤー_9">
    <path d="M49.667,206.178 L40.333,212.164 L41,217.555 L56,219.826 L78,223.449 L94.146,225.841 L92,217.555 L49.667,206.178 z" fill="#9C9A99"/>
    <path d="M128.333,162.333 L108.315,144 L98,124 L94.146,110.667 L88.667,106.333 L70,109.333 L65,119.624 L46.667,122.254 L33,133.239 L23.667,144.333 L25.667,166.711 L14,179.875 L9,196.669 L13.667,201.667 L43.667,205.079 L73.333,209.415 L91.667,217.555 L128.333,162.333 z" fill="#FFFFFF"/>
    <path d="M90.667,215.667 L58.333,206.178 L21,200.082 L10.333,201.667 L9,183.374 L31.333,186.667 L52.333,192.712 L76,203.374 L90.667,209.415 L90.667,215.667 z" fill="#DCD9D8"/>
    <path d="M24.667,152.957 L40.333,149.914 L62.667,152.958 L75,164.333 L83.333,175 L64,165 L38.667,161 L27.667,165 L24.667,152.957 z" fill="#DCD9D8"/>
    <path d="M79,109.333 L77,117.25 L80.667,130 L64.333,122.254 L69,109.333 L79,109.333 z" fill="#DCD9D8"/>
    <path d="M149.146,169.086 C155.8,169.623 171.6,170.456 182.81,169.623 C189.634,178.283 216.938,224.6 215.255,230.458 C203.2,229.917 189,221.4 179.831,213" fill="#81B0C4" id="path128"/>
    <path d="M225.814,165.04 L209.146,167.54 L186.646,170.04 L172.062,170.456 L157.896,170.04 L147.062,166.706 L137.479,156.29 L129.979,135.04 L128.312,130.456 L118.312,127.124 L112.478,117.54 L108.312,103.79 L112.896,91.706 L123.728,87.956 L132.479,92.124 L136.646,101.29 L141.646,100.456 L143.312,98.374 L141.646,88.79 L141.229,76.706 L143.729,60.04 L143.631,50.52 L151.229,38.374 L164.562,28.79 L187.896,18.79 L213.729,22.54 L236.229,38.79 L246.646,55.456 L253.312,67.54 L254.979,97.54 L249.979,123.374 L240.812,146.29 L232.062,158.374" fill="#F0D6B7" id="path28"/>
    <path d="M211.646,237.122 L152.062,239.622 L152.062,249.622 L166,284.266 L154.562,287.54 L112.896,273.372 L109.979,268.372 L100.667,221.667 L96.23,192.956 L94.146,186.29 L127.479,163.374 L137.896,159.206 L147.062,170.456 L154.979,177.54 L173.312,203.372 L177.062,207.956 L181.2,216.2 L216.229,234.622 L211.646,237.122" fill="#1B4F9A" id="path30"/>
    <path d="M207.481,119.624 C207.481,119.624 208.452,106.994 211.854,107.965 C215.255,108.936 215.255,112.337 215.255,112.337 C215.255,112.337 206.995,117.681 207.481,119.624" fill="#F7E4CD" id="path40"/>
    <path d="M147.062,170.456 L111.229,185 C111.229,185 104.333,185.667 100,189.254 C96.667,195 100.333,214.667 103,223.333 C105.667,232 114.333,268.333 126,277.54 L109.979,270.457 L103.25,243.849 L88.667,209.415 L91.333,183.374 L134.979,158.791 L147.062,170.456" fill="#0A7ABE" id="path54"/>
    <path d="M151.089,206.178 L156.646,212.958 L156.646,237.958 L149.979,237.958 C149.979,237.958 149.146,220.458 149.146,218.374 C149.146,216.29 149.979,208.79 149.979,208.79" fill="#317BBE" id="path56"/>
    <path d="M151.229,241.708 L132.479,242.54 L137.896,246.29 L151.229,248.373" fill="#317BBE" id="path58"/>
    <path d="M219.562,237.54 L242.896,236.29 C242.896,236.29 252.479,212.124 252.479,210.874 C252.479,209.624 260.812,175.874 260.812,175.874 L242.062,156.291 L238.312,152.958 L228.312,162.958 L228.312,201.708 L219.562,237.54" fill="#1B4F9A" id="path62"/>
    <path d="M230.396,161.707 L259.562,183.374 L260.396,173.374 L238.312,152.957 L230.396,161.707" fill="#317BBE" id="path66"/>
    <path d="M238.2,198.79 C236.8,209.6 227.6,225 219.562,232.6 C224.202,224.2 222.404,166.6 224.202,165 C226,163.4 233.927,158.791 233.927,158.791 C233.927,158.791 241,184.2 238.2,198.79 z" fill="#81B0C4" id="path116"/>
    <path d="M218.605,234.211 L209.439,210.878 L199.855,197.128 C199.855,197.128 201.938,191.294 204.855,191.294 C207.772,191.294 214.439,191.294 214.439,191.294 L223.605,194.628 L222.772,210.044 L218.605,234.211" fill="#FFFFFF" id="path76"/>
    <path d="M220.396,226.29 C220.396,226.29 208.729,203.791 208.729,200.458 C208.729,200.458 210.811,195.458 213.729,196.708 C216.646,197.958 222.896,201.29 222.896,201.29 L222.896,193.374 L208.729,190.456 L199.146,191.706 L215.396,230.04 L218.729,230.458" fill="#DCD9D8" id="path78"/>
    <path d="M234.562,194 C227.493,193.792 220.848,192.871 215.255,191.294 C215.635,189.001 215.846,185.545 216.417,183.894 C220.908,181.524 217.606,181.621 215.255,182.2 C215.2,180.609 213.62,178.288 213.188,177.043 C217.162,175.624 228.696,166.138 233.975,169.218 C236.49,170.683 238.661,179.305 238.856,183.374 C239.018,186.749 237.375,192.012 236,193.8" fill="#D33833" id="path84"/>
    <path d="M203.2,181.6 C203.705,189.441 204.374,191.652 204.321,193 C200.275,195.77 194.364,199.802 189.6,202.4 C187.348,203.628 180.396,207.759 178,207.2 C176.644,206.885 174.542,205.186 174,203.6 C172.845,200.204 169.832,193.312 169.6,188.2 C169.305,181.742 169.241,167.888 176.2,169.218 C181.814,170.289 187.253,172.625 191.6,175 C194.256,176.452 198.97,179.565 203,179.875" fill="#D33833" id="path88"/>
    <path d="M205.438,188.86 C204.82,185.342 204.106,184.339 204.383,181.27 C213.764,175.015 215.525,192.014 205.438,188.86" fill="#D33833" id="path92"/>
    <path d="M205.438,188.86 C204.82,185.342 204.106,184.339 204.383,181.27 C213.764,175.015 215.525,192.014 205.438,188.86 z" fill-opacity="0" stroke="#D33833" stroke-width="2.5" id="path94"/>
    <path d="M219.021,191.711 C219.021,191.711 216.104,187.544 218.188,186.294 C220.271,185.044 222.355,186.295 223.605,184.211 C224.855,182.127 223.605,180.877 224.021,178.377 C224.438,175.877 226.522,175.46 228.605,175.044 C230.688,174.627 236.522,173.794 237.355,175.877 L234.855,168.377 L229.855,166.711 L214.021,175.877 L213.188,180.461 L213.188,189.627" fill="#EF3D3A" id="path96"/>
    <path d="M175.271,205.461 C174.771,198.959 174.241,192.465 173.652,185.969 C172.77,176.269 175.982,177.961 184.39,177.961 C185.674,177.961 192.298,179.493 192.771,180.461 C195.044,185.103 188.971,184.071 195.389,187.571 C200.806,190.525 210.376,185.777 208.188,179.211 C206.962,177.751 201.805,178.756 199.956,177.798 C196.701,176.11 193.446,174.423 190.191,172.735 C186.049,170.586 176.477,167.454 172.062,170.456 C160.874,178.065 172.768,197.076 176.759,205.014" fill="#EF3D3A" id="path98"/>
    <path d="M218,171.453 C215.034,173.389 213.449,174.932 210.6,177 C204.283,177.312 200.2,175.923 195.559,172.295 C195.635,172.004 196.107,170.814 196.125,170.456 C202.888,173.47 213.895,169.696 220.724,169.086" fill="#DCD9D8" id="path126"/>
    <path d="M180.114,129.431 C180.662,128.701 183.677,127.592 187.896,129.624 C187.896,129.624 182.896,130.458 183.312,138.794 L181.229,138.376 C181.229,138.376 179.075,130.818 180.114,129.431" fill="#F7E4CD" id="path132"/>
    <path d="M252.669,75.309 L216.938,85.456 L179.831,85.456 L158.856,95.358 L162.264,110.083 C162.264,110.083 164.753,124.378 167.378,131.128 C170.003,137.878 177.628,149.378 181.253,152.628 C184.878,155.878 191.878,160.378 195.503,161.003 C199.128,161.628 209.289,160.696 214.878,159.253 C222.628,157.253 223.874,156.503 227.378,154.503 C230.882,152.503 238.128,146.753 238.128,146.753 L222.899,165.71 L206.182,170.456 L170.53,171.453 L152.065,168.089 L142.058,161.003 C142.058,161.003 135.967,154.167 132.482,145.67 C128.676,136.391 129.366,126.017 128.67,127.469 C127.336,130.249 114.565,123.211 114.565,123.211 L108.315,100.293 L113.003,89.249 L112.67,69.263 L119.581,50.748 L129.003,37.916 L154.67,22.944 L172.676,16.249 L199,16.6 L218.309,21.543 L234.531,32.582 L247.67,50.093 L252.669,75.309 z" fill="#1B4F9A"/>
    <path d="M121.6,86.8 C121.6,86.8 120.2,76 121.8,66.4 C124.8,56.706 127.224,54.018 130.812,49.565 C134.4,45.112 139.158,40.526 145,36 C150.938,31.4 153.6,29.8 164.562,23.941 C174.701,19.941 187.045,17.6 187.045,17.6 L168.312,18.79 L140.4,31.2 L122.5,47.853 L114.8,59.613 L111.229,80 L116.238,88.79 L121.6,86.8 z" fill="#317BBE"/>
    <path d="M132.442,98 C132.442,98 117.904,91.582 116.238,100.75 C114.572,109.916 112.061,116.291 119.979,125.874 L114.562,124.207 L109.562,111.291 L107.896,98.791 L117.479,88.79 L128.312,89.624 L132.442,93.25" fill="#317BBE" id="path46"/>
    <path d="M130.812,127.54 L136.268,122.254 C136.268,122.254 138.73,122.54 139.146,125.456 C139.562,128.374 140.812,154.624 158.729,168.791 C160.363,170.084 145.396,166.706 145.396,166.706 L132.062,145.874" fill="#317BBE" id="path38"/>
    <path d="M245.625,198.25 L241.625,202.125 L240.438,206.178 L240.625,209 L248.375,205.25 L251.25,202.25 L250.875,198.812 L248.75,197.812 L245.625,198.25 z" fill="#FFFFFF"/>
    <path d="M222.312,219.826 L233.975,256.535 C233.975,256.535 226.726,262.65 224.202,261.8 C221.678,260.95 207.322,223.449 207.322,223.449 L222.312,219.826 z" fill="#1B4F9A"/>
    <path d="M220.975,217.555 L225.186,227.308 C225.186,227.308 217.61,235.741 211.792,234.425 L207.322,223.449 L220.975,217.555 z" fill="#317BBE"/>
    <path d="M207.322,223.449 C207.322,223.449 215.694,248.15 222.896,260.4 C229.359,262.329 237.989,262.884 243.695,259.613 C252.162,253.999 253.785,251.877 255.318,249.768 C260.721,247.658 273.834,244.247 277.5,244 C280.6,244.4 284.2,245.6 284.576,255.92 C281,271.4 243.8,275.8 201.977,289.82 C182,293.5 164.43,288.824 160.09,281.662 C155.75,274.5 150.507,257.296 150.507,257.296 L147.062,240.25 L151.229,237.958 L183.566,228.518 L207.322,223.449 z" fill="#FFFFFF"/>
    <path d="M149.146,245.218 L153.5,246.75 C153.5,246.75 167.387,272.333 179.831,280.333 C190.265,283.187 225.412,274.571 238.856,271.667 C260.396,269 280.247,259.667 284.576,253.667 C291.649,263.027 266.748,273.667 234.562,277.54 C214.354,287.54 185.57,293.934 179.831,293 C160.5,294.25 149.146,245.218 149.146,245.218 z" fill="#DCD9D8"/>
    <path d="M266.969,200.082 L280.247,222.387 L278.718,237.198 L248.911,245.258 C248.911,245.258 231.395,254.833 230.671,256.772 C230.477,238.541 218.998,220.073 218.998,220.073 L227.055,216.688 L233.956,216.491 L245.165,207.714 L257.336,200.858 L266.969,200.082 z" fill="#FFFFFF"/>
    <path d="M272.228,212.164 L279.492,224.248 L281.463,231.496 L277.029,242.667 L270.041,245.861 L257.729,248.06 L250.557,249.768 L240.438,254.75 L232.07,256.772 L230.396,249.768 C230.396,249.768 245.265,242.504 247.087,242.75 C247.087,242.75 237.168,217.175 233.793,215.722 C233.977,214.442 234.495,214.263 235.537,213.583 C236.725,213.271 237.627,213.171 238.819,213.324 C238.819,213.324 250.036,239.262 250.557,241.708 C250.557,241.708 270.212,235.058 272.25,234.624 C272.25,234.624 275.536,221.683 272.228,212.164 z" fill="#DCD9D8"/>
    <path d="M255.318,249.768 C254.358,251.723 252.894,254.545 251.25,255.875 C240.131,262.253 234.562,264.074 229.867,263 C219.25,260.572 245.752,252.15 247.182,251.518 L255.318,249.768 z" fill="#9C9A99"/>
  </g>
  <g id="レイヤー_5">
    <path d="M193.231,14.184 L197.88,14.484 C208.868,15.405 219.247,18.458 228.376,24.656 C235.067,29.716 245.76,40.4 249.585,48.135 C259.688,68.556 258.97,102.685 251.904,127.526 C250.954,130.861 249.577,135.764 247.653,139.77 C246.312,142.567 242.143,148.165 242.649,150.635 C243.17,153.189 252.154,160.01 254.08,161.867 C257.549,165.214 264.139,169.655 264.673,173.877 C265.247,178.371 262.693,184.519 261.399,188.855 C260.58,191.627 259.752,194.397 258.886,197.155 C260.701,196.671 262.587,196.75 264.448,196.669 L264.448,196.669 C268.13,197.011 270.645,198.973 273.065,201.546 C276.394,205.942 280.838,213.624 283.097,218.412 C286.287,225.166 287.047,237.763 280.247,241.707 C291.333,253.667 288.42,264.622 274.667,273.667 C256.839,276.333 255.318,277.54 237.355,281 C221.657,285.772 216.646,287.54 204.321,293.153 C199.067,296.661 193.077,299.197 186.628,298.387 C181.458,297.737 177.031,295.256 172.654,292.636 L170.529,293.089 C156.741,294.563 129.243,283.68 118.73,278.817 C115.09,277.13 111.027,274.897 109.667,272 C108.348,269.195 103.882,256.32 102.25,251.5 C98.25,239.689 100.092,247.007 96.667,233.726 C95.368,229.885 96.258,232.176 93.665,226.991 C81.089,224.47 68.474,222.202 55.667,221.333 C44,221.333 41,221.667 37,217.555 C34,210.667 44.853,206.418 44.853,206.418 C40.673,205.639 36.462,205.042 32.246,204.491 C14.649,202.238 8.796,203.766 8.796,203.766 C8.796,203.766 6.231,204.304 5.644,189.83 C9.097,177.683 23.57,166.12 23.57,166.12 C10.345,143.909 29.958,132.408 29.958,132.408 C37.903,125.228 42.82,116.744 62.601,117.739 C63.335,111.878 64.481,108.081 72.907,105.541 C75.859,104.525 79.016,104.531 82.1,104.448 L82.099,104.448 L83.703,104.573 C87.417,104.891 90.82,106.35 94.146,107.912 C98.479,112.667 101.572,127.194 107.647,137.439 C114.432,144.865 120.601,152.922 128.383,159.371 C130.003,158.301 132.079,157.506 133.203,155.836 C134.805,152.58 130.454,147.989 129.291,145.436 C127.451,141.4 126.492,137.971 126.228,133.989 C119.576,132.937 114.534,128.979 111.488,124.515 C106.45,117.127 102.955,103.46 107.315,93.064 C107.657,92.245 109.362,90.635 109.613,89.377 C110.2,89.4 108.679,83.609 108.591,80.975 C108.133,67.462 113,54.8 119,47 C126.4,36.6 133.4,32.6 142.6,27.4 C147.064,24.769 155.901,20.95 161.2,19 C167.647,16.673 177.67,14.815 184.501,14.349 C190.32,14.169 187.409,14.223 193.233,14.186 L193.231,14.184 z M206.179,225 L206.179,225 C199.649,226.041 195.869,227.524 189.657,228.591 L189.656,228.589 L189.656,228.589 C175.495,231.497 161.803,236.25 148.447,241.717 C156.802,267.06 167.714,283.5 187.045,289.82 C206.179,289.82 206.179,284.266 227.364,277.54 C250.557,271 243.467,271.667 264.756,269 C285.493,264.074 283.5,243.95 276.25,245.218 C273,247.125 264.756,249 258.125,249.768 L251.25,251 C251.25,251 233.5,258.125 228.861,261.662 C233.83,264.654 238.974,261.696 242.625,260 L248,258.25 C244.725,261.375 236.951,264.868 232.245,264.957 C225.586,264.591 219.058,259.8 216.229,255.8 C213.4,251.8 206.179,225 206.179,225 L206.179,225 z M136.153,163.231 C122.288,168.702 103.333,179.875 96.333,183.374 C88.599,187.983 91.552,200.335 94.146,213.998 C96.761,227.772 108.315,255.515 114.03,267.842 C128.822,274.459 144.076,280.898 160.194,283.395 C152.568,272.174 150.34,258.65 146.613,245.884 C146.501,244.602 146.596,245.469 146.2,243.301 C146.061,241.642 146.07,242.447 146.151,240.885 C143.474,238.817 140.63,237.03 137.5,235.75 C137.466,230.884 143.983,237.896 144.5,234.623 C144.889,232.148 139.762,230.897 141,227 C144.157,228.147 143.695,229.506 147.062,230.458 C149.146,223.699 148.148,216.812 148.592,211.187 C148.823,209.57 148.819,207.278 150.346,206.237 C150.81,206.09 150.571,206.142 151.063,206.083 L151.484,206.177 C153.578,206.922 151.365,218.93 151.595,224.254 C151.736,227.47 151.802,230.843 153.49,233.7 C164.302,229.867 175.328,226.634 186.424,223.732 C182.995,221.467 179.948,218.666 176.878,215.949 C172.433,211.332 171.75,208.875 165.442,200.514 C160.625,194 150.875,179.375 146.001,173.598 C144.868,172.791 137.205,162.82 136.155,163.234 L136.153,163.231 z M219.524,222.04 C216.492,222.719 215.063,222.166 212.249,223.827 C214.475,235.002 218.25,250.75 223.896,258.75 C226.447,262.364 226.582,260.089 230.396,258 C230.25,249.978 225.904,233.17 221.248,224.23 L219.524,222.04 z M235.036,216.865 L231.178,218.148 C227.466,219.103 225.14,220.138 222.569,220.837 C227.736,231.282 233.514,254.284 233.5,255.5 C233.486,256.716 245.092,250.788 247.5,249.768 C245.85,241.37 239.691,223.21 235.037,216.866 L235.036,216.865 z M259.781,200.549 C258.198,201.362 255.171,202.175 254.174,203.022 C248.267,207.689 240.328,211.216 236.685,215.826 C240.762,222.241 247.58,239.425 250.422,248.373 C265,247.25 268.885,244.381 273.277,242.269 C279.311,239.367 281.65,230.72 278.163,223.096 C275.822,217.971 271.535,208.296 268.524,205.341 C266.729,203.703 264.627,201 262.172,200.805 L259.781,200.549 z M264.197,233.64 C266.56,233.532 268.896,233.617 271.215,234.056 C265.464,235.414 258.259,236.83 252.669,237.54 C255.318,234.129 260.303,234.042 264.197,233.64 L264.197,233.64 z M263.636,225.841 C266.119,225.934 265.084,225.851 266.748,226.015 C261.723,227.654 255.862,229.774 250.557,230.458 C253.004,226.069 259.285,226.069 263.636,225.841 L263.636,225.841 z M262.485,213.226 L262.486,213.226 L262.485,213.226 C256.659,215.848 253.56,222.447 247.087,223.827 C249.809,217.562 256.32,214.94 262.485,213.226 L262.485,213.226 z M50.997,207.603 L50.997,207.603 C50.998,207.603 40,210.609 42,216 C46.667,219.778 52,215.667 60,217.555 C70.623,218.99 81.156,221.002 91.629,223.274 C90.093,220.491 90.932,222.102 89.19,218.401 C76.909,213.372 63.889,210.558 50.998,207.603 L50.997,207.603 z M198.948,199.379 C184.591,209.167 185.438,208.687 184.038,209.24 C182.506,209.601 180.964,209.922 179.397,210.075 L182.809,213.997 C186.677,216.872 190.883,219.25 195.164,221.447 L196.573,221.079 C201.056,220.622 205.662,220.61 210.01,219.294 C207.224,212.187 203.324,205.61 198.95,199.381 L198.948,199.379 z M212.987,192.105 C210.4,191.829 208.203,195.084 204.837,193.676 C204.065,194.529 203.364,195.452 202.578,196.285 C207.821,202.741 210.952,210.525 214.251,218.075 L214.9,217.907 C218.472,217.096 216.334,217.56 221.323,216.573 C222.129,209.832 222.241,203.029 222.539,196.251 C218.305,196.52 215.957,192.422 212.989,192.107 L212.987,192.105 z M216.645,209.415 C217.911,209.415 218.938,210.442 218.938,211.708 C218.938,212.973 217.911,213.999 216.645,213.999 C215.38,213.999 214.354,212.973 214.354,211.708 C214.354,210.442 215.38,209.415 216.645,209.415 L216.645,209.415 z M214.354,198.79 C215.62,198.79 216.646,199.818 216.646,201.083 C216.646,202.348 215.62,203.374 214.354,203.374 C213.089,203.374 212.062,202.348 212.062,201.083 C212.062,199.818 213.089,198.79 214.354,198.79 L214.354,198.79 z M236.829,195.65 L233.713,196.507 C226.597,196.259 227.889,195.856 225.759,196.645 C225.62,203.097 224.891,209.516 224.124,215.919 C226.427,215.39 228.719,214.868 230.814,213.666 C233.357,209.052 234.983,204.045 236.4,199 C236.678,197.055 236.528,198.17 236.831,195.651 L236.829,195.65 z M81.56,108.392 C77.284,108.59 73.505,110.313 69.952,112.569 C65.497,118.793 68.385,122.497 68.385,122.497 C68.385,122.497 83.467,128.741 91.669,139.32 C97.969,149.043 95.747,149.799 95.747,149.799 C95.747,149.799 90.174,143.287 81.99,135.813 C70.464,127.157 56.908,123.128 56.908,123.127 C56.908,123.128 42.005,122.209 34.114,134.164 C18.7,141.564 28.024,163.15 28.024,163.15 C31.632,160.968 33.141,158.576 44.017,156.8 C56.146,157.541 63.644,163.495 69.614,167.228 C60.38,165.685 45.118,158.645 32.115,164.618 C24.941,167.651 24.891,168.942 16.261,179.139 C7.424,194.465 11.971,199.461 11.971,199.461 C11.971,199.461 34.412,198.957 59.642,205.899 C68.952,208.362 78.229,210.891 87.409,213.801 L87,212.333 C85.643,206.904 83,198.79 86.333,185.667 C89,173.333 103.16,174.862 107.896,171.453 C115.218,166.182 115.037,167.211 122.967,162.454 C123.645,162.049 124.339,161.67 125.029,161.285 C118.067,154.997 111.519,148.288 105.131,141.426 C99.231,131.482 96,117.25 92.333,111 C88.581,108.809 85.814,108.486 81.561,108.392 z M237.807,157.188 C236.587,158.723 237.302,157.939 235.604,159.487 C237.552,161.903 238.246,165.099 238.8,168.077 C241.775,173.675 241.809,185.095 240.131,191.111 C239.364,196.688 238.423,202.267 236.761,207.66 L235.66,210.703 L237.077,209.804 L237.097,209.745 L237.675,208.399 C237.675,208.399 239.506,205.195 240.375,202.875 C241.244,200.555 243.5,198.375 246.625,196.875 C249.925,196.438 251.062,197.438 251.062,197.438 C252.669,198.79 252.669,198.79 253.25,199.5 L253.699,199.236 C254.993,195.246 255.903,191.138 256.884,187.062 C257.347,184.756 258.607,179.731 258.324,177.679 C257.82,174.004 252.834,171.279 250.298,169.006 C245.625,164.809 242.683,161.115 237.809,157.19 L237.807,157.188 z M248,198.79 C244.725,200.082 243.975,200.936 242.6,203.374 C241.912,205.872 241.062,207.25 241.062,207.25 C246.59,203.373 246.548,202.839 250.557,200.5 C250.488,199.158 249.177,199.171 248,198.79 L248,198.79 z M175.882,171.451 C175.234,171.632 174.519,171.652 173.937,171.989 C169.887,174.331 170.929,183.802 171.089,187.515 C171.321,192.627 173.98,198.034 175.135,201.43 C175.677,203.016 175.799,204.699 177.155,205.013 C179.551,205.572 187.456,202.411 189.709,201.182 C194.473,198.585 198.169,194.46 202.215,191.69 C202.268,190.342 202.319,188.996 202.373,187.649 C199.94,186.436 197.129,185.576 193.558,185.42 C195.98,184.201 199.544,184.219 201.752,182.769 C201.773,182.229 201.795,181.69 201.814,181.155 C197.784,180.845 196.248,179.05 193.592,177.597 C189.245,175.222 182.715,172.636 177.101,171.565 L175.882,171.451 z M152.073,170.054 C161.357,185.404 163.813,187.6 165.4,190.456 C166.875,192.706 168.478,194.875 170.047,197.061 C168.259,190.921 169.126,194.215 167.518,187.159 C167.062,183.794 166.927,181.202 167,179 C167.619,171.687 167.656,173.701 167.613,172.815 C164.757,172.376 165.012,172.482 164.2,172.4 L164.086,172.41 C164.087,172.411 155.662,172.236 152.075,170.056 L152.073,170.054 z M230.184,169.681 L230.184,169.681 C224.278,170.684 220.188,175.56 214.888,177.883 C215.32,179.129 216.034,180.115 216.089,181.706 C218.44,181.127 221.303,181.524 223.34,182.525 C220.984,182.789 218.372,182.771 216.813,183.894 C216.242,185.545 216.953,187.795 216.573,190.087 C222.165,191.665 228.553,192.505 235.623,192.712 C236.998,190.925 237.467,187.52 237.304,184.145 C237.109,180.076 236.04,171.709 233.525,170.244 C231.781,169.507 232.864,169.826 230.186,169.683 L230.184,169.681 z M208.599,179.873 L208.599,179.873 C207.173,179.902 205.962,180.552 204.778,181.27 C204.502,184.339 205.215,185.342 205.833,188.86 C212.632,191.816 215.792,180.919 208.601,179.875 L208.599,179.873 z M218.7,169.936 C211.873,170.549 203.277,174.79 196.514,171.776 C196.497,172.134 196.03,172.004 195.954,172.295 C200.595,175.922 204.043,176.672 210.36,176.36 C213.209,174.292 215.735,171.875 218.702,169.939 L218.7,169.936 z M189.851,18.385 C180.924,19.131 184.731,18.641 178.4,19.6 C165.6,21.8 161,24.6 154.8,27.2 C148.6,29.8 137.228,35.159 129.6,42.954 C124.028,47.959 119.4,54.6 115.8,65.2 C113.2,73 115.225,79.387 115.891,87.462 C120.399,84.775 124.032,85.046 128.8,87.4 C129.938,88.125 130.962,89.085 131,90 C127.408,91.549 127.509,91.356 126.001,91.09 C117.51,90.161 111.302,97.189 110.916,104.532 C110.459,113.169 117.549,127.482 127.598,126.489 C131.48,126.105 132.433,122.214 136.663,122.254 C138.955,126.827 133.127,128.264 132.527,131.535 C132.371,132.38 133.011,135.682 133.383,137.231 C135.208,144.772 139.277,154.532 143.282,160.274 C148.365,167.556 158.351,168.654 169.095,169.367 C171.013,165.234 178.082,165.574 182.688,166.655 C177.168,164.469 170.878,160.816 166.625,156.125 C161.74,150.742 158.011,147.91 157.761,140.875 C166.993,153.682 174.558,160.279 191.346,165.912 C204.048,170.172 218.883,163.96 228.643,157.106 C232.693,154.257 235.11,149.737 237.989,145.6 C246.547,133.016 250.891,118.093 252.259,103.043 C247.983,101.081 243.223,101.417 238.638,101.381 C237.589,101.384 236.529,101.337 235.483,101.431 L237.077,103.231 C238.545,104.836 240.961,106.376 241.23,107.438 C242.005,110.524 239.214,114.221 239.537,116.274 C231.39,121.507 222.305,127.199 208.955,125.879 C206.102,123.399 205.015,117.88 207.786,114.235 C209.229,116.715 208.322,121.276 212.342,121.962 C219.917,123.259 228.734,117.329 234.182,115.256 C237.561,109.56 233.891,107.465 230.847,103.799 C227.756,100.08 229.353,102.041 226.067,97.907 L224.202,96.354 C224.202,96.354 219.278,99.332 216.229,101.301 C213.391,103.134 210.8,105.4 210.8,105.4 C210.8,105.4 201.926,106.479 196.493,107.369 C192.001,108.105 186.872,109.2 179.831,111 C173.222,112.689 162.5,117.25 162.5,117.25 L158.546,102.433 C158.546,102.433 157.554,94.07 157.8,87.8 C158.046,81.53 159.786,67.986 159.786,67.986 C159.786,67.986 163.586,68.586 187.896,73.5 C194.884,74.833 210.586,76.186 219.562,76.767 C221.246,76.638 222.479,76.786 225.186,76.386 C235.188,74.48 242.399,69.783 249.949,63.16 C249.296,60.454 248.816,57.661 247.625,55.125 C247.13,53.546 245.2,49.6 243.6,47.2 C242,44.8 237.136,38.536 236.6,38 C231,32.4 227.031,30.278 223.6,27.8 C216.4,22.6 208.2,20.4 201.4,19 C197.172,18.627 199.736,18.832 193.701,18.451 L189.851,18.385 z M190.059,133.239 C194.967,145.562 211.837,144.144 226.064,143.804 C225.437,145.404 224.08,147.294 222.392,147.977 C217.834,149.833 205.26,151.24 198.931,147.879 C194.917,145.745 192.339,140.924 190.14,138.098 C189.078,136.732 183.789,133.246 190.059,133.239 z M191.408,126.279 C198.506,130.011 211.551,130.412 221.199,130.13 C221.716,132.244 221.704,134.855 221.724,137.432 C209.322,138.051 194.66,134.982 191.408,126.279 z M244.725,121.599 C240.932,128.817 235.568,136.767 224.439,136.999 C224.212,134.667 224.039,131.12 224.451,129.716 C232.959,128.899 238.211,124.569 244.725,121.599 z M233.168,161.465 C231.964,162.313 230.908,163.308 229.975,164.44 C231.34,163.998 231.525,163.855 233.223,163.821 C233.53,163.815 233.825,163.944 234.126,164.005 C233.339,161.767 233.718,162.587 233.169,161.466 L233.168,161.465 z" fill="#231F20"/>
  </g>
  <g id="レイヤー_6">
    <path d="M206.179,92.6 L206.179,89.6 L199.146,87.4 L189.4,86 L187.045,87.2 L194,94.25 L201.978,95.301 L206.179,92.6 z" fill="#FFFFFF"/>
    <path d="M246.2,86 L245.8,82.6 L238.856,84.8 L234.562,87.6 L235.6,90.6 L240.4,91.8 L246.2,86 z" fill="#FFFFFF"/>
    <g>
      <path d="M226.416,46.611 L230.513,47.374 L232.07,50.945 L226.465,51.88 L230.232,58.726 L230.513,62.157 L227.94,65.601 L220.391,67.763 L213.383,67.95 L207.886,65.708 L204.916,61.036 L206.971,58.981 L212.391,58.07 L213.557,61.106 L216.498,62.157 L221.476,62.157 L223.115,58.653 L218.931,52.464 L210.062,54.099 L206.15,55.15 L202.86,53.188 L201.977,50.945 L207.886,49.077 L226.416,46.611 z" fill="#DCD9D8"/>
      <path d="M225.333,47.374 L229.69,47.902 L231.34,50.245 L225.022,51.634 L228.71,58.092 L229.559,61.456 L227.825,64.843 L219.164,67.062 L212.157,66.946 L207.886,64.61 L206.311,60.136 L208.42,58.77 L211.573,58.77 L212.741,62.157 L216.498,63.208 L223.115,62.157 L224.168,59.121 L219.326,51.937 L210.864,53.027 L206.311,54.515 L204.493,53.192 L203.711,51.208 L208.939,49.555 L225.333,47.374 z" fill="#FFFFFF"/>
    </g>
  </g>
</svg>
