<svg width="1281" height="162" viewBox="0 0 1281 162" fill="none" xmlns="http://www.w3.org/2000/svg">
<path d="M1258.76 136.214C1255.19 136.214 1251.88 135.321 1248.84 133.536C1245.79 131.75 1243.32 129.335 1241.43 126.289C1239.65 123.243 1238.75 119.882 1238.75 116.206V77.1361H1229.14V55.0805H1240.17L1249.62 33.8125H1264.27V55.0805H1278.93V70.8345L1273.25 77.1361H1264.27V108.329C1264.27 109.589 1264.59 110.535 1265.22 111.165C1265.85 111.795 1266.74 112.11 1267.9 112.11H1280.03V136.214H1258.76Z" fill="#1C1C3F"/>
<path d="M1163.68 136.211V114.156H1193.61C1194.77 114.156 1195.61 113.893 1196.13 113.368C1196.76 112.738 1197.08 111.95 1197.08 111.005V110.06C1197.08 109.114 1196.76 108.379 1196.13 107.854C1195.61 107.329 1194.66 106.856 1193.3 106.436L1179.28 102.183C1175.81 101.027 1172.92 99.7146 1170.61 98.2442C1168.41 96.6688 1166.67 94.7258 1165.41 92.4152C1164.26 89.9996 1163.68 87.1639 1163.68 83.908V75.0858C1163.68 71.4098 1164.57 68.049 1166.36 65.0032C1168.25 61.9574 1170.72 59.5418 1173.76 57.7563C1176.81 55.9709 1180.12 55.0781 1183.69 55.0781H1220.39V70.8322L1214.72 77.1338H1193.14C1191.98 77.1338 1191.09 77.3964 1190.46 77.9215C1189.94 78.3416 1189.67 79.0243 1189.67 79.9695V80.7572C1189.67 81.5974 1189.99 82.3326 1190.62 82.9628C1191.25 83.5929 1192.19 84.0656 1193.45 84.3806L1207.63 88.7918C1211.1 89.842 1213.94 91.1549 1216.14 92.7303C1218.45 94.2007 1220.18 96.0911 1221.34 98.4017C1222.49 100.712 1223.07 103.496 1223.07 106.751V116.204C1223.07 119.88 1222.18 123.241 1220.39 126.286C1218.61 129.332 1216.19 131.748 1213.15 133.533C1210.1 135.319 1206.74 136.211 1203.06 136.211H1163.68Z" fill="#1C1C3F"/>
<path d="M1107.41 136.217C1103.73 136.217 1100.37 135.324 1097.32 133.538C1094.28 131.753 1091.86 129.337 1090.08 126.291C1088.29 123.246 1087.4 119.885 1087.4 116.209V73.5154C1087.4 69.8395 1088.29 66.4786 1090.08 63.4329C1091.86 60.3871 1094.28 57.9715 1097.32 56.186C1100.37 54.4005 1103.73 53.5078 1107.41 53.5078H1132.3C1135.87 53.5078 1139.18 54.4005 1142.22 56.186C1145.27 57.9715 1147.68 60.3871 1149.47 63.4329C1151.36 66.4786 1152.31 69.8395 1152.31 73.5154V104.708H1112.92V111.483C1112.92 112.743 1113.24 113.688 1113.87 114.318C1114.5 114.949 1115.39 115.264 1116.54 115.264H1148.52V136.217H1107.41ZM1112.29 87.6941H1127.26V77.9266C1127.26 76.6663 1126.94 75.7735 1126.31 75.2484C1125.79 74.6182 1124.89 74.3032 1123.63 74.3032H1116.07C1114.81 74.3032 1113.87 74.6182 1113.24 75.2484C1112.6 75.7735 1112.29 76.6663 1112.29 77.9266V87.6941Z" fill="#1C1C3F"/>
<path d="M1035.13 45.1561C1035.13 41.4801 1036.02 38.1193 1037.8 35.0735C1039.59 32.0277 1042.01 29.6121 1045.05 27.8266C1048.1 26.0412 1051.46 25.1484 1055.13 25.1484H1084.28V47.2041H1064.27C1063.12 47.2041 1062.22 47.5192 1061.59 48.1493C1060.96 48.6745 1060.65 49.5672 1060.65 50.8275V62.9581H1077.98V78.3971L1074.98 85.0138H1060.65V136.214H1035.13V45.1561Z" fill="#1C1C3F"/>
<path d="M976.34 136.217V55.0832H992.409L996.032 63.7479H996.82C998.08 61.1223 1000.08 58.7592 1002.81 56.6586C1005.54 54.5581 1008.69 53.5078 1012.26 53.5078H1024.86V79.1869H1006.27C1005.22 79.1869 1004.38 79.397 1003.75 79.8171C1003.12 80.1321 1002.65 80.6048 1002.33 81.2349C1002.02 81.8651 1001.86 82.7053 1001.86 83.7556V136.217H976.34Z" fill="#1C1C3F"/>
<path d="M918.172 136.217C914.496 136.217 911.135 135.324 908.089 133.538C905.043 131.753 902.628 129.337 900.842 126.291C899.057 123.246 898.164 119.885 898.164 116.209V73.5154C898.164 69.8395 899.057 66.4786 900.842 63.4329C902.628 60.3871 905.043 57.9715 908.089 56.186C911.135 54.4005 914.496 53.5078 918.172 53.5078H943.063C946.634 53.5078 949.942 54.4005 952.988 56.186C956.034 57.9715 958.45 60.3871 960.235 63.4329C962.125 66.4786 963.071 69.8395 963.071 73.5154V104.708H923.686V111.483C923.686 112.743 924.001 113.688 924.631 114.318C925.261 114.949 926.154 115.264 927.309 115.264H959.29V136.217H918.172ZM923.055 87.6941H938.022V77.9266C938.022 76.6663 937.707 75.7735 937.077 75.2484C936.551 74.6182 935.659 74.3032 934.398 74.3032H926.836C925.576 74.3032 924.631 74.6182 924.001 75.2484C923.37 75.7735 923.055 76.6663 923.055 77.9266V87.6941Z" fill="#1C1C3F"/>
<path d="M819.895 136.209V26.7188H845.416V63.4257H846.204C847.359 60.905 849.25 58.6469 851.875 56.6514C854.606 54.5509 857.757 53.5006 861.328 53.5006H866.054C869.73 53.5006 873.038 54.3408 875.979 56.0213C878.92 57.7017 881.23 60.0648 882.911 63.1106C884.696 66.0513 885.589 69.3072 885.589 72.8781V116.202C885.589 119.878 884.644 123.239 882.753 126.284C880.968 129.33 878.552 131.746 875.506 133.531C872.461 135.317 869.152 136.209 865.581 136.209H819.895ZM856.917 112.578C858.177 112.578 859.07 112.263 859.595 111.633C860.225 111.003 860.54 110.11 860.54 108.955V80.7551C860.54 79.4948 860.225 78.6021 859.595 78.0769C859.07 77.4468 858.177 77.1317 856.917 77.1317H850.93C849.46 77.1317 848.304 77.3417 847.464 77.7618C846.624 78.182 845.941 78.8646 845.416 79.8099C844.996 80.6501 844.786 81.7529 844.786 83.1182V112.578H856.917Z" fill="#1C1C3F"/>
<path d="M760.016 137.792C756.34 137.792 752.98 136.899 749.934 135.114C746.888 133.328 744.472 130.913 742.687 127.867C740.902 124.821 740.009 121.46 740.009 117.784V73.5154C740.009 69.8395 740.902 66.4786 742.687 63.4329C744.472 60.3871 746.888 57.9715 749.934 56.186C752.98 54.4005 756.34 53.5078 760.016 53.5078H785.696C789.266 53.5078 792.575 54.4005 795.621 56.186C798.666 57.9715 801.082 60.3871 802.867 63.4329C804.758 66.4786 805.703 69.8395 805.703 73.5154V117.784C805.703 121.46 804.758 124.821 802.867 127.867C801.082 130.913 798.666 133.328 795.621 135.114C792.575 136.899 789.266 137.792 785.696 137.792H760.016ZM777.031 114.161C778.291 114.161 779.184 113.846 779.709 113.216C780.339 112.585 780.654 111.693 780.654 110.537V80.7623C780.654 79.502 780.339 78.6093 779.709 78.0841C779.184 77.454 778.291 77.1389 777.031 77.1389H768.681C767.421 77.1389 766.476 77.454 765.845 78.0841C765.215 78.6093 764.9 79.502 764.9 80.7623V110.537C764.9 111.693 765.215 112.585 765.845 113.216C766.476 113.846 767.421 114.161 768.681 114.161H777.031Z" fill="#1C1C3F"/>
<path d="M709.215 136.214C705.644 136.214 702.336 135.321 699.29 133.536C696.244 131.75 693.776 129.335 691.886 126.289C690.1 123.243 689.208 119.882 689.208 116.206V77.1361H679.598V55.0805H690.625L700.078 33.8125H714.729V55.0805H729.38V70.8345L723.709 77.1361H714.729V108.329C714.729 109.589 715.044 110.535 715.674 111.165C716.305 111.795 717.197 112.11 718.353 112.11H730.483V136.214H709.215Z" fill="#1C1C3F"/>
<path d="M607.892 136.209V26.7188H633.413V83.9059H639.4L650.112 55.076H673.271V66.8916L660.983 94.7762L674.374 124.394V136.209H650.428L639.4 107.064H633.413V136.209H607.892Z" fill="#1C1C3F"/>
<path d="M560.169 136.211C556.493 136.211 553.132 135.319 550.086 133.533C547.04 131.748 544.625 129.332 542.839 126.286C541.054 123.241 540.161 119.88 540.161 116.204V75.0858C540.161 71.4098 541.054 68.049 542.839 65.0032C544.625 61.9574 547.04 59.5418 550.086 57.7563C553.132 55.9709 556.493 55.0781 560.169 55.0781H595.3V73.5104L590.101 79.1818H569.306C568.151 79.1818 567.258 79.4969 566.628 80.1271C565.998 80.7572 565.683 81.7025 565.683 82.9628V108.327C565.683 109.587 565.998 110.532 566.628 111.163C567.258 111.793 568.151 112.108 569.306 112.108H595.3V136.211H560.169Z" fill="#1C1C3F"/>
<path d="M481.956 137.787C478.28 137.787 474.972 136.947 472.031 135.266C469.09 133.586 466.727 131.275 464.942 128.334C463.261 125.289 462.421 121.98 462.421 118.409V105.964C462.421 102.393 463.261 99.1369 464.942 96.1962C466.727 93.1504 469.09 90.7873 472.031 89.1069C474.972 87.4264 478.28 86.5862 481.956 86.5862H501.333V79.4969C501.333 78.2366 501.018 77.3438 500.388 76.8187C499.863 76.1886 498.97 75.8735 497.71 75.8735H469.51V55.0781H507.32C510.996 55.0781 514.304 55.9183 517.245 57.5988C520.186 59.2792 522.496 61.6423 524.177 64.6881C525.962 67.6288 526.855 70.8847 526.855 74.4556V136.211H510.786L507.162 127.547H506.375C505.114 130.172 503.066 132.536 500.231 134.636C497.5 136.737 494.349 137.787 490.778 137.787H481.956ZM495.819 117.307C497.08 117.307 498.13 117.097 498.97 116.676C499.916 116.151 500.598 115.469 501.018 114.628C501.543 113.683 501.806 112.58 501.806 111.32V103.601H490.621C489.36 103.601 488.415 103.916 487.785 104.546C487.155 105.176 486.84 106.121 486.84 107.382V113.683C486.84 114.838 487.155 115.731 487.785 116.361C488.415 116.992 489.36 117.307 490.621 117.307H495.819Z" fill="#1C1C3F"/>
<path d="M382.379 136.216V25.9375H408.688V68.4734H422.552V25.9375H448.861V136.216H422.552V92.8922H408.688V136.216H382.379Z" fill="#1C1C3F"/>
<rect x="171.059" y="150.484" width="10.6894" height="10.6894" fill="#A0A0FF"/>
<rect x="181.749" y="150.484" width="10.6894" height="10.6894" fill="#A0A0FF"/>
<rect x="181.749" y="139.789" width="10.6894" height="10.6894" fill="#5A5AB5"/>
<rect x="192.438" y="129.102" width="10.6894" height="10.6894" fill="#A0A0FF"/>
<rect x="192.438" y="118.414" width="10.6894" height="10.6894" fill="#5A5AB5"/>
<rect width="10.6894" height="10.6894" transform="matrix(1 0 0 -1 171.059 11.5234)" fill="#A0A0FF"/>
<rect width="10.6894" height="10.6894" transform="matrix(1 0 0 -1 181.749 11.5234)" fill="#A0A0FF"/>
<rect width="10.6894" height="10.6894" transform="matrix(1 0 0 -1 181.749 22.2031)" fill="#5A5AB5"/>
<rect width="10.6894" height="10.6894" transform="matrix(1 0 0 -1 192.438 32.8984)" fill="#A0A0FF"/>
<rect width="10.6894" height="10.6894" transform="matrix(1 0 0 -1 192.438 43.5859)" fill="#5A5AB5"/>
<rect width="10.6894" height="10.6894" transform="matrix(-1 0 0 1 160.37 150.484)" fill="#A0A0FF"/>
<rect width="10.6894" height="10.6894" transform="matrix(-1 0 0 1 149.68 150.484)" fill="#A0A0FF"/>
<rect width="10.6894" height="10.6894" transform="matrix(-1 0 0 1 149.68 139.789)" fill="#5A5AB5"/>
<rect width="10.6894" height="10.6894" transform="matrix(-1 0 0 1 138.991 129.102)" fill="#A0A0FF"/>
<rect width="10.6894" height="10.6894" transform="matrix(-1 0 0 1 138.991 118.414)" fill="#5A5AB5"/>
<rect x="160.37" y="11.5234" width="10.6894" height="10.6894" transform="rotate(180 160.37 11.5234)" fill="#A0A0FF"/>
<rect x="149.68" y="11.5234" width="10.6894" height="10.6894" transform="rotate(180 149.68 11.5234)" fill="#A0A0FF"/>
<rect x="149.68" y="22.2031" width="10.6894" height="10.6894" transform="rotate(180 149.68 22.2031)" fill="#5A5AB5"/>
<rect x="138.991" y="32.8984" width="10.6894" height="10.6894" transform="rotate(180 138.991 32.8984)" fill="#A0A0FF"/>
<rect x="138.991" y="43.5859" width="10.6894" height="10.6894" transform="rotate(180 138.991 43.5859)" fill="#5A5AB5"/>
<rect x="192.438" y="0.828125" width="10.6894" height="10.6894" fill="#5A5AB5"/>
<rect x="203.127" y="11.5234" width="10.6894" height="10.6894" fill="#A0A0FF"/>
<rect x="213.816" y="11.5234" width="10.6894" height="10.6894" fill="#5A5AB5"/>
<rect x="224.506" y="22.2031" width="10.6894" height="10.6894" fill="#5A5AB5"/>
<rect x="235.196" y="32.8984" width="10.6894" height="10.6894" fill="#5A5AB5"/>
<rect x="245.885" y="43.5859" width="10.6894" height="10.6894" fill="#5A5AB5"/>
<rect x="245.885" y="54.2812" width="10.6894" height="10.6894" fill="#5A5AB5"/>
<rect x="256.573" y="64.9609" width="10.6894" height="10.6894" fill="#5A5AB5"/>
<rect width="10.6894" height="10.6894" transform="matrix(1 0 0 -1 192.438 161.164)" fill="#5A5AB5"/>
<rect width="10.6894" height="10.6894" transform="matrix(1 0 0 -1 203.127 150.484)" fill="#A0A0FF"/>
<rect width="10.6894" height="10.6894" transform="matrix(1 0 0 -1 213.816 150.484)" fill="#5A5AB5"/>
<rect width="10.6894" height="10.6894" transform="matrix(1 0 0 -1 224.506 139.789)" fill="#5A5AB5"/>
<rect width="10.6894" height="10.6894" transform="matrix(1 0 0 -1 235.196 129.102)" fill="#5A5AB5"/>
<rect width="10.6894" height="10.6894" transform="matrix(1 0 0 -1 245.885 118.414)" fill="#5A5AB5"/>
<rect width="10.6894" height="10.6894" transform="matrix(1 0 0 -1 245.885 107.719)" fill="#5A5AB5"/>
<rect width="10.6894" height="10.6894" transform="matrix(1 0 0 -1 256.573 97.0312)" fill="#5A5AB5"/>
<rect width="10.6894" height="10.6894" transform="matrix(-1 0 0 1 138.991 0.828125)" fill="#5A5AB5"/>
<rect width="10.6894" height="10.6894" transform="matrix(-1 0 0 1 128.302 11.5234)" fill="#A0A0FF"/>
<rect width="10.6894" height="10.6894" transform="matrix(-1 0 0 1 117.611 11.5234)" fill="#5A5AB5"/>
<rect width="10.6894" height="10.6894" transform="matrix(-1 0 0 1 106.923 22.2031)" fill="#5A5AB5"/>
<rect width="10.6894" height="10.6894" transform="matrix(-1 0 0 1 96.2324 32.8984)" fill="#5A5AB5"/>
<rect width="10.6894" height="10.6894" transform="matrix(-1 0 0 1 85.5439 43.5859)" fill="#5A5AB5"/>
<rect width="10.6894" height="10.6894" transform="matrix(-1 0 0 1 85.5439 54.2812)" fill="#5A5AB5"/>
<rect width="10.6894" height="10.6894" transform="matrix(-1 0 0 1 74.8545 64.9609)" fill="#5A5AB5"/>
<rect x="138.991" y="161.164" width="10.6894" height="10.6894" transform="rotate(180 138.991 161.164)" fill="#5A5AB5"/>
<rect x="128.302" y="150.484" width="10.6894" height="10.6894" transform="rotate(180 128.302 150.484)" fill="#A0A0FF"/>
<rect x="117.611" y="150.484" width="10.6894" height="10.6894" transform="rotate(180 117.611 150.484)" fill="#5A5AB5"/>
<rect x="106.923" y="139.789" width="10.6894" height="10.6894" transform="rotate(180 106.923 139.789)" fill="#5A5AB5"/>
<rect x="96.2324" y="129.102" width="10.6894" height="10.6894" transform="rotate(180 96.2324 129.102)" fill="#5A5AB5"/>
<rect x="85.5439" y="118.414" width="10.6894" height="10.6894" transform="rotate(180 85.5439 118.414)" fill="#5A5AB5"/>
<rect x="85.5439" y="107.719" width="10.6894" height="10.6894" transform="rotate(180 85.5439 107.719)" fill="#5A5AB5"/>
<rect x="74.8545" y="97.0312" width="10.6894" height="10.6894" transform="rotate(180 74.8545 97.0312)" fill="#5A5AB5"/>
<rect x="213.816" y="0.828125" width="10.6894" height="10.6894" fill="#A0A0FF"/>
<rect x="224.506" y="11.5234" width="10.6894" height="10.6894" fill="#A0A0FF"/>
<rect x="224.506" y="0.828125" width="10.6894" height="10.6894" fill="#5A5AB5"/>
<rect x="235.196" y="11.5234" width="10.6894" height="10.6894" fill="#5A5AB5"/>
<rect x="245.885" y="22.2031" width="10.6894" height="10.6894" fill="#5A5AB5"/>
<rect x="245.885" y="11.5234" width="10.6894" height="10.6894" fill="#A0A0FF"/>
<rect x="256.573" y="22.2031" width="10.6894" height="10.6894" fill="#A0A0FF"/>
<rect x="267.264" y="32.8984" width="10.6894" height="10.6894" fill="#5A5AB5"/>
<rect x="277.953" y="43.5859" width="10.6894" height="10.6894" fill="#5A5AB5"/>
<rect x="288.642" y="54.2812" width="10.6894" height="10.6894" fill="#5A5AB5"/>
<rect x="288.642" y="64.9609" width="10.6894" height="10.6894" fill="#A0A0FF"/>
<rect x="203.127" y="0.828125" width="10.6894" height="10.6894" fill="#A0A0FF"/>
<rect width="10.6894" height="10.6894" transform="matrix(1 0 0 -1 213.816 161.164)" fill="#A0A0FF"/>
<rect width="10.6894" height="10.6894" transform="matrix(1 0 0 -1 203.127 161.164)" fill="#A0A0FF"/>
<rect width="10.6894" height="10.6894" transform="matrix(1 0 0 -1 224.506 150.484)" fill="#A0A0FF"/>
<rect width="10.6894" height="10.6894" transform="matrix(1 0 0 -1 224.506 161.164)" fill="#5A5AB5"/>
<rect width="10.6894" height="10.6894" transform="matrix(1 0 0 -1 235.196 150.484)" fill="#5A5AB5"/>
<rect width="10.6894" height="10.6894" transform="matrix(1 0 0 -1 245.885 139.789)" fill="#5A5AB5"/>
<rect width="10.6894" height="10.6894" transform="matrix(1 0 0 -1 245.885 150.484)" fill="#A0A0FF"/>
<rect width="10.6894" height="10.6894" transform="matrix(1 0 0 -1 256.573 139.789)" fill="#A0A0FF"/>
<rect width="10.6894" height="10.6894" transform="matrix(1 0 0 -1 267.264 129.102)" fill="#5A5AB5"/>
<rect width="10.6894" height="10.6894" transform="matrix(1 0 0 -1 277.953 118.414)" fill="#5A5AB5"/>
<rect width="10.6894" height="10.6894" transform="matrix(1 0 0 -1 288.642 107.719)" fill="#5A5AB5"/>
<rect width="10.6894" height="10.6894" transform="matrix(1 0 0 -1 288.642 97.0312)" fill="#A0A0FF"/>
<rect width="10.6894" height="10.6894" transform="matrix(-1 0 0 1 117.611 0.828125)" fill="#A0A0FF"/>
<rect width="10.6894" height="10.6894" transform="matrix(-1 0 0 1 106.923 11.5234)" fill="#A0A0FF"/>
<rect width="10.6894" height="10.6894" transform="matrix(-1 0 0 1 106.923 0.828125)" fill="#5A5AB5"/>
<rect width="10.6894" height="10.6894" transform="matrix(-1 0 0 1 96.2324 11.5234)" fill="#5A5AB5"/>
<rect width="10.6894" height="10.6894" transform="matrix(-1 0 0 1 85.5439 22.2031)" fill="#5A5AB5"/>
<rect width="10.6894" height="10.6894" transform="matrix(-1 0 0 1 85.5439 11.5234)" fill="#A0A0FF"/>
<rect width="10.6894" height="10.6894" transform="matrix(-1 0 0 1 74.8545 22.2031)" fill="#A0A0FF"/>
<rect width="10.6894" height="10.6894" transform="matrix(-1 0 0 1 64.165 32.8984)" fill="#5A5AB5"/>
<rect width="10.6894" height="10.6894" transform="matrix(-1 0 0 1 53.4756 43.5859)" fill="#5A5AB5"/>
<rect width="10.6894" height="10.6894" transform="matrix(-1 0 0 1 42.7871 54.2812)" fill="#5A5AB5"/>
<rect width="10.6894" height="10.6894" transform="matrix(-1 0 0 1 42.7871 64.9609)" fill="#A0A0FF"/>
<rect width="10.6894" height="10.6894" transform="matrix(-1 0 0 1 128.302 0.828125)" fill="#A0A0FF"/>
<rect x="117.611" y="161.164" width="10.6894" height="10.6894" transform="rotate(180 117.611 161.164)" fill="#A0A0FF"/>
<rect x="128.302" y="161.164" width="10.6894" height="10.6894" transform="rotate(180 128.302 161.164)" fill="#A0A0FF"/>
<rect x="106.923" y="150.484" width="10.6894" height="10.6894" transform="rotate(180 106.923 150.484)" fill="#A0A0FF"/>
<rect x="106.923" y="161.164" width="10.6894" height="10.6894" transform="rotate(180 106.923 161.164)" fill="#5A5AB5"/>
<rect x="96.2324" y="150.484" width="10.6894" height="10.6894" transform="rotate(180 96.2324 150.484)" fill="#5A5AB5"/>
<rect x="85.5439" y="139.789" width="10.6894" height="10.6894" transform="rotate(180 85.5439 139.789)" fill="#5A5AB5"/>
<rect x="85.5439" y="150.484" width="10.6894" height="10.6894" transform="rotate(180 85.5439 150.484)" fill="#A0A0FF"/>
<rect x="74.8545" y="139.789" width="10.6894" height="10.6894" transform="rotate(180 74.8545 139.789)" fill="#A0A0FF"/>
<rect x="64.165" y="129.102" width="10.6894" height="10.6894" transform="rotate(180 64.165 129.102)" fill="#5A5AB5"/>
<rect x="53.4756" y="118.414" width="10.6894" height="10.6894" transform="rotate(180 53.4756 118.414)" fill="#5A5AB5"/>
<rect x="42.7871" y="107.719" width="10.6894" height="10.6894" transform="rotate(180 42.7871 107.719)" fill="#5A5AB5"/>
<rect x="42.7871" y="97.0312" width="10.6894" height="10.6894" transform="rotate(180 42.7871 97.0312)" fill="#A0A0FF"/>
<rect x="256.573" y="11.5234" width="10.6894" height="10.6894" fill="#5A5AB5"/>
<rect x="267.264" y="11.5234" width="10.6894" height="10.6894" fill="#5A5AB5"/>
<rect x="267.264" y="22.2031" width="10.6894" height="10.6894" fill="#A0A0FF"/>
<rect x="277.953" y="22.2031" width="10.6894" height="10.6894" fill="#5A5AB5"/>
<rect x="288.642" y="22.2031" width="10.6894" height="10.6894" fill="#5A5AB5"/>
<rect x="288.642" y="32.8984" width="10.6894" height="10.6894" fill="#A0A0FF"/>
<rect x="299.332" y="32.8984" width="10.6894" height="10.6894" fill="#5A5AB5"/>
<rect x="299.332" y="43.5859" width="10.6894" height="10.6894" fill="#A0A0FF"/>
<rect x="310.021" y="43.5859" width="10.6894" height="10.6894" fill="#5A5AB5"/>
<rect x="320.711" y="54.2812" width="10.6894" height="10.6894" fill="#5A5AB5"/>
<rect x="320.711" y="64.9609" width="10.6894" height="10.6894" fill="#5A5AB5"/>
<rect width="10.6894" height="10.6894" transform="matrix(1 0 0 -1 256.573 150.484)" fill="#5A5AB5"/>
<rect width="10.6894" height="10.6894" transform="matrix(1 0 0 -1 267.264 150.484)" fill="#5A5AB5"/>
<rect width="10.6894" height="10.6894" transform="matrix(1 0 0 -1 267.264 139.789)" fill="#A0A0FF"/>
<rect width="10.6894" height="10.6894" transform="matrix(1 0 0 -1 277.953 139.789)" fill="#5A5AB5"/>
<rect width="10.6894" height="10.6894" transform="matrix(1 0 0 -1 288.642 139.789)" fill="#5A5AB5"/>
<rect width="10.6894" height="10.6894" transform="matrix(1 0 0 -1 288.642 129.102)" fill="#A0A0FF"/>
<rect width="10.6894" height="10.6894" transform="matrix(1 0 0 -1 299.332 129.102)" fill="#5A5AB5"/>
<rect width="10.6894" height="10.6894" transform="matrix(1 0 0 -1 299.332 118.414)" fill="#A0A0FF"/>
<rect width="10.6894" height="10.6894" transform="matrix(1 0 0 -1 310.021 118.414)" fill="#5A5AB5"/>
<rect width="10.6894" height="10.6894" transform="matrix(1 0 0 -1 320.711 107.719)" fill="#5A5AB5"/>
<rect width="10.6894" height="10.6894" transform="matrix(1 0 0 -1 320.711 97.0312)" fill="#5A5AB5"/>
<rect width="10.6894" height="10.6894" transform="matrix(-1 0 0 1 74.8545 11.5234)" fill="#5A5AB5"/>
<rect width="10.6894" height="10.6894" transform="matrix(-1 0 0 1 64.165 11.5234)" fill="#5A5AB5"/>
<rect width="10.6894" height="10.6894" transform="matrix(-1 0 0 1 64.165 22.2031)" fill="#A0A0FF"/>
<rect width="10.6894" height="10.6894" transform="matrix(-1 0 0 1 53.4756 22.2031)" fill="#5A5AB5"/>
<rect width="10.6894" height="10.6894" transform="matrix(-1 0 0 1 42.7871 22.2031)" fill="#5A5AB5"/>
<rect width="10.6894" height="10.6894" transform="matrix(-1 0 0 1 42.7871 32.8984)" fill="#A0A0FF"/>
<rect width="10.6894" height="10.6894" transform="matrix(-1 0 0 1 32.0967 32.8984)" fill="#5A5AB5"/>
<rect width="10.6894" height="10.6894" transform="matrix(-1 0 0 1 32.0967 43.5859)" fill="#A0A0FF"/>
<rect width="10.6894" height="10.6894" transform="matrix(-1 0 0 1 21.4082 43.5859)" fill="#5A5AB5"/>
<rect width="10.6894" height="10.6894" transform="matrix(-1 0 0 1 10.7178 54.2812)" fill="#5A5AB5"/>
<rect width="10.6894" height="10.6894" transform="matrix(-1 0 0 1 10.7178 64.9609)" fill="#5A5AB5"/>
<rect x="74.8545" y="150.484" width="10.6894" height="10.6894" transform="rotate(180 74.8545 150.484)" fill="#5A5AB5"/>
<rect x="64.165" y="150.484" width="10.6894" height="10.6894" transform="rotate(180 64.165 150.484)" fill="#5A5AB5"/>
<rect x="64.165" y="139.789" width="10.6894" height="10.6894" transform="rotate(180 64.165 139.789)" fill="#A0A0FF"/>
<rect x="53.4756" y="139.789" width="10.6894" height="10.6894" transform="rotate(180 53.4756 139.789)" fill="#5A5AB5"/>
<rect x="42.7871" y="139.789" width="10.6894" height="10.6894" transform="rotate(180 42.7871 139.789)" fill="#5A5AB5"/>
<rect x="42.7871" y="129.102" width="10.6894" height="10.6894" transform="rotate(180 42.7871 129.102)" fill="#A0A0FF"/>
<rect x="32.0967" y="129.102" width="10.6894" height="10.6894" transform="rotate(180 32.0967 129.102)" fill="#5A5AB5"/>
<rect x="32.0967" y="118.414" width="10.6894" height="10.6894" transform="rotate(180 32.0967 118.414)" fill="#A0A0FF"/>
<rect x="21.4082" y="118.414" width="10.6894" height="10.6894" transform="rotate(180 21.4082 118.414)" fill="#5A5AB5"/>
<rect x="10.7178" y="107.719" width="10.6894" height="10.6894" transform="rotate(180 10.7178 107.719)" fill="#5A5AB5"/>
<rect x="10.7178" y="97.0312" width="10.6894" height="10.6894" transform="rotate(180 10.7178 97.0312)" fill="#5A5AB5"/>
<rect x="160.37" y="139.789" width="10.6894" height="10.6894" fill="#A0A0FF"/>
<rect x="160.37" y="118.414" width="10.6894" height="10.6894" fill="#A0A0FF"/>
<rect x="160.37" y="22.2031" width="10.6894" height="10.6894" fill="#5A5AB5"/>
<rect x="160.37" y="0.828125" width="10.6894" height="10.6894" fill="#5A5AB5"/>
<rect x="160.37" y="150.484" width="10.6894" height="10.6894" fill="#5A5AB5"/>
<rect x="160.37" y="129.102" width="10.6894" height="10.6894" fill="#5A5AB5"/>
<rect x="160.37" y="32.8984" width="10.6894" height="10.6894" fill="#A0A0FF"/>
<rect x="160.37" y="11.5234" width="10.6894" height="10.6894" fill="#A0A0FF"/>
<rect x="64.165" y="75.6562" width="10.6894" height="10.6894" transform="rotate(90 64.165 75.6562)" fill="#5A5AB5"/>
<rect x="42.7871" y="75.6562" width="10.6894" height="10.6894" transform="rotate(90 42.7871 75.6562)" fill="#5A5AB5"/>
<rect x="267.264" y="75.6562" width="10.6894" height="10.6894" transform="rotate(90 267.264 75.6562)" fill="#A0A0FF"/>
<rect x="85.5439" y="75.6562" width="10.6894" height="10.6894" transform="rotate(90 85.5439 75.6562)" fill="#5A5AB5"/>
<rect x="288.642" y="75.6562" width="10.6894" height="10.6894" transform="rotate(90 288.642 75.6562)" fill="#A0A0FF"/>
<rect x="245.885" y="75.6562" width="10.6894" height="10.6894" transform="rotate(90 245.885 75.6562)" fill="#A0A0FF"/>
<rect x="310.021" y="75.6562" width="10.6894" height="10.6894" transform="rotate(90 310.021 75.6562)" fill="#A0A0FF"/>
<rect x="320.711" y="75.6562" width="10.6894" height="10.6894" transform="rotate(90 320.711 75.6562)" fill="#5A5AB5"/>
<rect x="331.399" y="75.6562" width="10.6894" height="10.6894" transform="rotate(90 331.399 75.6562)" fill="#5A5AB5"/>
<rect x="106.923" y="75.6562" width="10.6894" height="10.6894" transform="rotate(90 106.923 75.6562)" fill="#5A5AB5"/>
<rect x="53.4756" y="75.6562" width="10.6894" height="10.6894" transform="rotate(90 53.4756 75.6562)" fill="#A0A0FF"/>
<rect x="32.0967" y="75.6562" width="10.6894" height="10.6894" transform="rotate(90 32.0967 75.6562)" fill="#A0A0FF"/>
<rect x="21.4082" y="75.6562" width="10.6894" height="10.6894" transform="rotate(90 21.4082 75.6562)" fill="#5A5AB5"/>
<rect x="10.7178" y="75.6562" width="10.6894" height="10.6894" transform="rotate(90 10.7178 75.6562)" fill="#5A5AB5"/>
<rect x="96.2324" y="75.6562" width="10.6894" height="10.6894" transform="rotate(90 96.2324 75.6562)" fill="#A0A0FF"/>
<rect x="256.573" y="75.6562" width="10.6894" height="10.6894" transform="rotate(90 256.573 75.6562)" fill="#5A5AB5"/>
<rect x="74.8545" y="75.6562" width="10.6894" height="10.6894" transform="rotate(90 74.8545 75.6562)" fill="#A0A0FF"/>
<rect x="277.953" y="75.6562" width="10.6894" height="10.6894" transform="rotate(90 277.953 75.6562)" fill="#5A5AB5"/>
<rect x="235.196" y="75.6562" width="10.6894" height="10.6894" transform="rotate(90 235.196 75.6562)" fill="#5A5AB5"/>
<rect x="299.332" y="75.6562" width="10.6894" height="10.6894" transform="rotate(90 299.332 75.6562)" fill="#5A5AB5"/>
<rect x="106.923" y="129.102" width="10.6894" height="10.6894" fill="#A0A0FF"/>
<rect x="213.816" y="129.102" width="10.6894" height="10.6894" fill="#A0A0FF"/>
<rect width="10.6894" height="10.6894" transform="matrix(1 0 0 -1 106.923 32.8984)" fill="#A0A0FF"/>
<rect width="10.6894" height="10.6894" transform="matrix(1 0 0 -1 213.816 32.8984)" fill="#A0A0FF"/>
<path d="M173.772 101.737V60.2734H211.09V67.9738L206.943 72.1202H186.804V77.4512H203.982V89.298H186.804V101.737H173.772Z" fill="#5A5AB5"/>
<path d="M124.615 101.737V60.2734H137.647V75.0819H155.417V60.2734H168.448V101.737H155.417V86.9286H137.647V101.737H124.615Z" fill="#5A5AB5"/>
</svg>
