<?xml version="1.0" encoding="UTF-8" standalone="no"?>
<!DOCTYPE svg PUBLIC "-//W3C//DTD SVG 1.1//EN" "http://www.w3.org/Graphics/SVG/1.1/DTD/svg11.dtd">
<svg width="100%" height="100%" viewBox="0 0 612 794" version="1.1" xmlns="http://www.w3.org/2000/svg" xmlns:xlink="http://www.w3.org/1999/xlink" xml:space="preserve" xmlns:serif="http://www.serif.com/" style="fill-rule:evenodd;clip-rule:evenodd;stroke-linejoin:round;stroke-miterlimit:2;">
    <g transform="matrix(1,0,0,1,0,50)">
        <g>
            <g transform="matrix(-2.25712,0,0,1.88258,910.147,423.365)">
                <path d="M216.519,44.849L218.303,48.842C218.779,49.909 218.283,51.113 217.192,51.536L192.772,59.979L192.167,60.213L190.218,55.852L190.795,55.557L213.768,43.875C214.811,43.344 216.041,43.782 216.519,44.849Z" style="fill:rgb(232,177,112);fill-rule:nonzero;"/>
                <path d="M191.606,56.943L191.233,56.109C191.188,56.009 191.133,55.916 191.069,55.832L214.071,44.55C214.434,44.37 214.81,44.285 215.162,44.285C215.825,44.285 216.402,44.588 216.647,45.138L217.132,46.224C216.966,45.853 216.535,45.659 215.998,45.659C215.605,45.659 215.154,45.763 214.709,45.978L191.606,56.943Z" style="fill:rgb(236,199,155);fill-rule:nonzero;"/>
                <path d="M187.651,59.615C188.039,60.481 187.586,61.596 186.576,62.604C185.93,63.255 185.053,63.855 184.021,64.316L181.392,65.491C178.751,66.671 176.101,66.478 175.467,65.06C174.835,63.644 176.458,61.537 179.098,60.358L181.727,59.183C182.759,58.722 183.793,58.473 184.709,58.426C186.132,58.341 187.266,58.752 187.651,59.615Z" style="fill:rgb(232,177,112);fill-rule:nonzero;"/>
                <path d="M178.083,63.128L177.525,61.88C178.043,61.492 178.645,61.135 179.313,60.837L181.941,59.663C182.93,59.221 183.919,58.971 184.804,58.906C184.812,58.927 184.821,58.948 184.831,58.97L185.333,60.094C184.48,60.231 183.51,60.522 182.522,60.963L179.893,62.138C179.226,62.436 178.615,62.774 178.083,63.128Z" style="fill:rgb(236,199,155);fill-rule:nonzero;"/>
                <path d="M179.116,66.475L169.988,69.749L168.32,66.016L176.848,61.4C177.054,61.289 177.297,61.372 177.393,61.585L179.341,65.945C179.437,66.159 179.336,66.396 179.116,66.475Z" style="fill:rgb(249,186,97);fill-rule:nonzero;"/>
                <path d="M172.025,66.188C171.976,66.065 171.927,65.941 171.88,65.817C171.747,65.474 171.623,65.126 171.505,64.772L177.02,61.787C177.082,61.753 177.148,61.737 177.212,61.737C177.36,61.737 177.499,61.823 177.565,61.972L178.154,63.288L178.214,63.422L172.025,66.188Z" style="fill:rgb(247,205,147);fill-rule:nonzero;"/>
                <path d="M191.568,60.948L188.212,62.448C187.572,62.734 186.821,62.446 186.535,61.806L185.275,58.987C184.989,58.347 185.275,57.596 185.917,57.31L189.272,55.811C189.913,55.524 190.664,55.811 190.95,56.452L192.209,59.27C192.496,59.911 192.209,60.662 191.568,60.948Z" style="fill:rgb(232,177,112);fill-rule:nonzero;"/>
                <path d="M185.876,60.333L185.453,59.384C185.187,58.79 185.491,58.077 186.131,57.79L189.486,56.29C189.666,56.21 189.854,56.172 190.036,56.172C190.503,56.172 190.936,56.421 191.127,56.849L191.551,57.797C191.425,57.516 191.104,57.363 190.721,57.363C190.504,57.363 190.266,57.412 190.034,57.516L186.679,59.016C186.038,59.302 185.679,59.892 185.876,60.333Z" style="fill:rgb(236,199,155);fill-rule:nonzero;"/>
            </g>
            <g transform="matrix(1,0,0,1,22.6667,-4)">
                <g transform="matrix(-2.39739,0,0,1.96593,914.362,420.571)">
                    <g>
                        <path d="M182.066,84.774C182.038,85.023 181.998,85.281 181.95,85.542C181.043,90.353 172.087,95.682 172.087,95.682L154.175,95.682C154.175,95.682 145.219,90.353 144.313,85.542C144.265,85.281 144.225,85.023 144.196,84.774C144.116,84.122 144.101,83.506 144.144,82.914C144.177,82.507 144.233,82.113 144.317,81.727C144.35,81.573 144.39,81.429 144.43,81.28L144.43,81.276C144.471,81.13 144.511,80.994 144.563,80.853C144.607,80.712 144.655,80.571 144.711,80.435C144.837,80.104 144.982,79.783 145.15,79.46C145.364,79.041 145.609,78.623 145.891,78.204C146.218,77.713 146.584,77.218 146.994,76.715C147.099,76.586 147.207,76.454 147.321,76.321C147.678,75.894 148.065,75.459 148.476,75.013L148.612,74.863L148.758,74.71C148.866,74.589 148.979,74.469 149.095,74.349C149.977,73.414 150.831,72.348 151.623,71.168C152.69,69.57 153.64,67.771 154.385,65.819C154.602,65.255 154.799,64.676 154.98,64.084C155.173,63.452 155.278,62.771 155.31,62.059C155.359,61.118 155.282,60.131 155.122,59.149L155.122,59.145C155.073,58.843 155.017,58.545 154.953,58.243C154.919,58.09 154.884,57.934 154.848,57.78C154.767,57.446 154.683,57.116 154.586,56.794C153.938,54.552 152.992,52.604 152.263,51.71L173.999,51.71C173.27,52.604 172.325,54.552 171.677,56.794C171.581,57.116 171.496,57.446 171.415,57.78C171.379,57.934 171.343,58.09 171.311,58.243C171.246,58.545 171.19,58.843 171.142,59.145L171.142,59.149C170.98,60.131 170.904,61.118 170.953,62.059C170.985,62.771 171.089,63.452 171.282,64.084C171.464,64.676 171.662,65.255 171.878,65.819C172.623,67.771 173.573,69.57 174.64,71.168C175.433,72.348 176.286,73.414 177.167,74.349C177.284,74.469 177.397,74.589 177.51,74.71L177.65,74.863L177.783,75.004C178.193,75.456 178.58,75.89 178.943,76.321C179.056,76.454 179.164,76.586 179.269,76.715C179.68,77.218 180.046,77.713 180.372,78.204C180.654,78.623 180.899,79.041 181.112,79.46C181.281,79.783 181.427,80.104 181.55,80.435C181.607,80.571 181.656,80.712 181.7,80.853C181.752,80.994 181.792,81.13 181.833,81.276L181.833,81.28C181.874,81.429 181.914,81.573 181.945,81.727C182.03,82.113 182.087,82.507 182.118,82.914C182.163,83.506 182.147,84.122 182.066,84.774Z" style="fill:rgb(98,49,33);fill-rule:nonzero;stroke:rgb(98,49,33);stroke-width:0.46px;"/>
                        <path d="M163.133,58.902C161.314,58.902 157.437,58.773 154.849,57.778C154.885,57.931 154.921,58.088 154.954,58.242C157.614,59.179 161.345,59.304 163.133,59.304C164.92,59.304 168.652,59.179 171.312,58.242C171.344,58.088 171.38,57.931 171.417,57.778C168.829,58.773 164.952,58.902 163.133,58.902Z" style="fill:rgb(245,215,196);fill-rule:nonzero;"/>
                        <path d="M177.783,75.004C176.898,75.503 175.976,76.397 175.417,77.443L175.308,77.649L175.122,77.512C174.43,77.009 173.375,76.82 172.441,77.029C171.75,77.186 171.222,77.537 170.957,78.019L170.885,78.148L170.739,78.116C169.701,77.903 168.928,78.056 168.151,78.619C167.624,79.001 166.468,79.303 165.507,79.118C165.087,79.038 164.753,78.869 164.524,78.627C164.065,79.058 163.533,79.331 163.131,79.331C162.729,79.331 162.202,79.058 161.743,78.627C161.513,78.869 161.175,79.038 160.756,79.118C159.802,79.303 158.644,79.001 158.116,78.619C157.339,78.056 156.566,77.903 155.523,78.116L155.379,78.148L155.31,78.019C155.045,77.537 154.518,77.186 153.825,77.029C152.892,76.82 151.836,77.009 151.145,77.512L150.955,77.649L150.846,77.443C150.287,76.401 149.361,75.508 148.476,75.013L148.612,74.863L148.758,74.71C149.695,75.193 150.484,75.987 151.096,77.061C151.873,76.59 152.951,76.421 153.914,76.639C154.659,76.804 155.246,77.178 155.584,77.697C156.663,77.504 157.52,77.689 158.353,78.293C158.804,78.623 159.871,78.877 160.684,78.724C161.099,78.643 161.393,78.474 161.554,78.217L161.694,77.995L161.872,78.185C162.347,78.696 162.858,78.929 163.131,78.929C163.405,78.929 163.916,78.696 164.395,78.185L164.573,77.995L164.714,78.217C164.874,78.474 165.168,78.643 165.583,78.724C166.396,78.88 167.463,78.623 167.913,78.293C168.743,77.689 169.6,77.504 170.683,77.697C171.017,77.178 171.604,76.804 172.353,76.639C173.315,76.421 174.395,76.59 175.17,77.061C175.783,75.987 176.572,75.193 177.51,74.71L177.65,74.863L177.783,75.004Z" style="fill:rgb(245,215,196);fill-rule:nonzero;"/>
                        <path d="M179.27,76.713L179.145,77.297L177.849,77.494L177.273,78.665L175.974,78.601L175.217,79.656L173.945,79.406L173.067,80.36L171.832,79.986L170.882,80.855L169.682,80.388L168.676,81.193L167.508,80.654L166.461,81.399L165.323,80.803L164.24,81.491L163.133,80.847L162.026,81.491L160.943,80.803L159.808,81.399L158.757,80.654L157.586,81.193L156.58,80.388L155.38,80.855L154.426,79.986L153.19,80.36L152.317,79.406L151.049,79.651L150.289,78.601L148.988,78.665L148.417,77.494L147.12,77.297L146.996,76.713C147.1,76.584 147.209,76.452 147.322,76.319L147.455,76.938L148.686,77.128L149.233,78.25L150.489,78.186L151.223,79.209L152.462,78.967L153.32,79.901L154.53,79.535L155.469,80.388L156.652,79.93L157.646,80.722L158.802,80.191L159.836,80.928L160.963,80.336L162.038,81.02L163.133,80.38L164.232,81.02L165.303,80.336L166.43,80.928L167.464,80.191L168.619,80.722L169.609,79.93L170.793,80.392L171.731,79.535L172.942,79.901L173.8,78.967L175.04,79.209L175.776,78.186L177.028,78.25L177.58,77.128L178.812,76.938L178.944,76.319C179.057,76.452 179.165,76.584 179.27,76.713Z" style="fill:rgb(206,138,95);fill-rule:nonzero;"/>
                        <path d="M172.089,95.68C172.089,96.193 168.079,97.5 163.133,97.5C158.186,97.5 154.177,96.221 154.177,95.68C154.177,95.164 158.186,93.86 163.133,93.86C168.079,93.86 172.089,95.192 172.089,95.68Z" style="fill:rgb(98,49,33);fill-rule:nonzero;stroke:rgb(98,49,33);stroke-width:0.46px;"/>
                        <path d="M155.808,53.123C157.732,52.684 160.305,52.331 163.133,52.331C165.935,52.331 168.488,52.686 170.408,53.122C172.574,52.633 173.934,52.036 173.934,51.708C173.934,51.119 169.098,49.513 163.133,49.513C157.167,49.513 152.333,51.086 152.333,51.708C152.333,52.051 153.67,52.641 155.808,53.123Z" style="fill:rgb(148,119,90);fill-rule:nonzero;"/>
                    </g>
                    <path d="M173.934,51.708C173.934,52.327 169.098,53.904 163.133,53.904C157.167,53.904 152.333,52.361 152.333,51.708C152.333,51.086 157.167,49.513 163.133,49.513C169.098,49.513 173.934,51.119 173.934,51.708Z" style="fill:rgb(136,105,70);fill-rule:nonzero;"/>
                </g>
                <g transform="matrix(-2.40861,0,0,1.88258,916.192,424.699)">
                    <path d="M163.133,49.714C157.316,49.714 152.742,51.226 152.53,51.728C152.718,52.194 157.26,53.702 163.133,53.702C168.855,53.702 173.385,52.234 173.723,51.711C173.36,51.185 168.8,49.714 163.133,49.714ZM163.133,54.105C157.675,54.105 152.13,52.71 152.13,51.708C152.13,50.807 157.459,49.311 163.133,49.311C168.806,49.311 174.135,50.807 174.135,51.708C174.135,52.61 168.806,54.105 163.133,54.105Z" style="fill:rgb(98,49,33);fill-rule:nonzero;"/>
                </g>
            </g>
        </g>
        <g transform="matrix(1,0,0,1,8,16)">
            <path d="M342.29,505.62L233.28,510L233.28,528.38L242.47,592.3L238.1,597.55L161.93,571.72L156.67,562.53L149.23,476.29L131.72,424.19L127.78,411.93L188.63,369.91L207.89,362.46L224.46,378.7L333.88,396.03L392.56,348.29L406.33,362.46L429.54,389.23L395.27,500.68L342.29,505.62Z" style="fill:white;fill-rule:nonzero;"/>
        </g>
        <g transform="matrix(1,0,0,1,8,16)">
            <path d="M365.68,372.47L325.5,417.1L296.7,408.16L234.86,390.47L221.16,380.35L202.65,353.58L189.08,314.62L186.01,306.3L167.63,300.17L157.12,282.66L149.68,257.27L158,234.95L177.69,227.94L193.89,235.38L201.34,252.02L210.53,250.71L213.59,246.77L210.53,229.25L209.65,206.93L214.03,176.28L214.03,158.77L228.04,136.45L252.56,118.94L295.46,100.55L342.74,107.55L383.89,137.32L403.15,167.97L415.41,190.29L418.47,245.45L409.28,292.73L392.64,334.76L376.44,357.08L365.68,372.47Z" style="fill:rgb(237,212,183);fill-rule:nonzero;"/>
        </g>
        <g transform="matrix(1,0,0,1,8,16)">
            <path d="M157.56,235.82L177.26,228.82L193.46,236.26L200.9,252.9L210.09,251.58L212.28,242.39L207.9,224.88L212.28,182.85L208.34,160.09L221.91,143.89L251.68,120.25L243.36,108.87L201.34,129.44L183.82,143.01L173.76,164.47L158.43,185.04L154.06,209.56L157.56,235.82Z" style="fill:rgb(14,13,13);fill-rule:nonzero;"/>
        </g>
        <g transform="matrix(1,0,0,1,8,16)">
            <path d="M190.39,301.49L200.46,291.86C200.46,291.86 204.84,292.3 205.71,297.55C206.58,302.8 208.78,350.96 241.61,376.79C244.67,378.98 217.09,372.85 217.09,372.85L192.58,334.76" style="fill:rgb(245,226,204);fill-rule:nonzero;"/>
        </g>
        <g transform="matrix(1,0,0,1,8,16)">
            <path d="M330.48,287C330.48,287 332.23,263.8 338.36,265.55C341.895,266.554 344.386,269.757 344.49,273.43C344.594,277.103 329.61,283.5 330.49,287" style="fill:rgb(245,226,204);fill-rule:nonzero;"/>
        </g>
        <g transform="matrix(1,0,0,1,8,16)">
            <path d="M394,202.55C394,202.55 381.3,205.18 380.43,216.12C379.12,227.06 394,218.31 396.63,217.43" style="fill:rgb(245,226,204);fill-rule:nonzero;"/>
        </g>
        <g transform="matrix(1,0,0,1,8,16)">
            <path d="M301.59,203.43C301.59,203.43 285,205.62 285,216.56C285,227.07 304.26,226.63 309.51,221.81" style="fill:rgb(245,226,204);fill-rule:nonzero;"/>
        </g>
        <g transform="matrix(1,0,0,1,8,16)">
            <path d="M197.83,252.89C197.83,252.89 168.94,235.38 165.83,252.01C162.72,268.64 155.76,280.9 170.21,298.41L160.14,295.34L151,271.72L147.93,249L165.44,230.61L185.14,231.92L196.52,241.11L197.83,252.93" style="fill:rgb(245,226,204);fill-rule:nonzero;"/>
        </g>
        <g transform="matrix(1,0,0,1,8,16)">
            <path d="M211.4,204.74C211.4,204.74 224.53,137.74 290.2,124.63C344.05,114.12 372.5,126.82 383.45,139.08C383.45,139.08 335.29,81.73 289.77,99.24C243.77,116.75 210.53,148.71 210.97,169.24C212.28,204.7 211.41,204.7 211.41,204.7" style="fill:rgb(245,226,204);fill-rule:nonzero;"/>
        </g>
        <g transform="matrix(1,0,0,1,11,16)">
            <path d="M388.7,146.52C388.7,146.52 366.37,145.64 365.94,165.78C366.003,167.886 366.447,169.963 367.25,171.91C368.053,173.857 384.76,152.21 395.71,162.72" style="fill-rule:nonzero;"/>
        </g>
        <g transform="matrix(1,0,0,1,8,16)">
            <path d="M292,174.1C292,174.1 288,143.45 262.19,161.4C245.55,172.78 246.86,189 249.93,192C253,195 252.12,201.19 254.31,196.82C256.5,192.45 256.06,178.87 264.38,174.93C272.7,170.99 286.27,167.05 291.96,174.05" style="fill:rgb(245,226,204);fill-rule:nonzero;"/>
        </g>
        <g transform="matrix(1,0,0,1,8,16)">
            <path d="M254.31,653.46L238.55,589.54L230.67,542.26L229.35,507.24L300.71,503.3L345.36,503.3L341.42,583.41L348.43,645.14L347.55,656.52L289.77,660.9L254.31,653.46Z" style="fill:rgb(175,16,23);fill-rule:nonzero;"/>
        </g>
        <g transform="matrix(1,0,0,1,8,16)">
            <path d="M292,174.1C271,169.29 260.92,182.86 254.35,196.86C248.66,195.55 250.85,187.67 252.6,183.73C256.54,173.66 271.42,159.65 283.68,161.84C288.5,162.72 295.94,167.53 292,174.1" style="fill-rule:nonzero;"/>
        </g>
        <g transform="matrix(1,0,0,1,8,16)">
            <path d="M393.08,197.74L394,197.74C398.82,207.37 402.76,217.88 408.88,226.63C404.94,235.82 378.67,244.14 379.11,227.51C384.8,224.88 394.43,227.07 399.69,224.01C396.62,215.69 392.69,209.13 393.12,197.74" style="fill-rule:nonzero;"/>
        </g>
        <g transform="matrix(1,0,0,1,8,16)">
            <path d="M302.46,197.74C306.84,206.06 308.59,214.38 314.72,220.5C317.78,223.13 323.04,226.63 320.41,234.5C319.97,236.25 315.16,240.19 312.53,241.07C302.46,244.13 279.7,241.51 287.14,229.25C295.46,229.69 306.4,234.5 312.53,228.81C307.71,221.37 299.4,206.48 302.46,197.73" style="fill-rule:nonzero;"/>
        </g>
        <g transform="matrix(1,0,0,1,8,16)">
            <path d="M389.58,280.91C374.7,290.54 358.06,301.05 333.58,298.42C328.33,294.04 326.58,283.97 331.39,276.97C334.02,281.35 332.27,289.66 339.71,290.97C353.71,293.16 369.92,282.65 379.55,278.71C385.68,268.2 379.11,264.26 373.42,257.71C362.04,244.14 346.72,227.07 347.15,206.49C351.97,202.99 351.97,211.74 352.84,213.06C358.97,227.06 373.84,245.06 384.84,256.84C387.47,259.9 391.84,262.53 392.28,264.72C394.03,270.41 388.78,277.42 389.65,280.92" style="fill-rule:nonzero;"/>
        </g>
        <g transform="matrix(1,0,0,1,8,16)">
            <path d="M192.58,270.84C187.76,268.21 186.89,256.39 181.2,255.96C173.32,255.52 174.63,271.28 174.63,280.48C169.38,275.66 168.06,260.34 172.44,252.9C168.06,250.71 165.87,255.53 163.25,256.84C166.75,233.64 197.83,245.9 192.58,270.84" style="fill:rgb(32,22,0);fill-rule:nonzero;"/>
        </g>
        <g transform="matrix(1,0,0,1,8,16)">
            <path d="M299,312C308.19,334.76 338.84,332.14 365.1,331.26C363.79,334.33 361.6,337.83 358.53,338.7C350.21,342.2 327.01,344.83 315.63,338.7C308.19,334.76 303.37,326 299.43,320.75C296.8,318.56 287.17,311.99 298.99,311.99" style="fill-rule:nonzero;"/>
        </g>
        <g transform="matrix(1,0,0,1,8,16)">
            <path d="M445.18,501.55C433.36,503.74 425.04,515.55 413.66,514.68C419.79,505.92 430.73,501.98 445.18,501.55" style="fill:rgb(32,22,0);fill-rule:nonzero;"/>
        </g>
        <g transform="matrix(1,0,0,1,8,16)">
            <path d="M218,377.68L149.12,408.34C147.447,409.082 146.534,410.93 146.96,412.71C151.33,430.85 172.88,524.29 161.96,560.78C161.476,562.384 159.988,563.488 158.313,563.488C157.851,563.488 157.392,563.404 156.96,563.24L152.53,561.58C151.07,561.032 150.087,559.64 150.06,558.08L149.24,515.98C149.233,515.717 149.2,515.456 149.14,515.2L129.58,430.43C129.548,430.291 129.508,430.154 129.46,430.02L122.19,409.37C121.618,407.736 122.225,405.908 123.66,404.94L193.49,357.94C194.987,356.935 197.001,357.12 198.29,358.38L218,377.68" style="fill:rgb(201,200,200);fill-rule:nonzero;"/>
        </g>
        <g transform="matrix(1,0,0,1,8,16)">
            <path d="M225.48,446.67L234.68,457.87C235.241,458.552 235.548,459.407 235.55,460.29L235.55,501.07C235.55,503.166 233.826,504.89 231.73,504.89L227,504.89C224.969,504.892 223.275,503.269 223.19,501.24C222.85,492.74 222.03,472.11 222.03,469C222.03,465.06 223.34,451.49 223.34,451.49" style="fill:rgb(201,200,200);fill-rule:nonzero;"/>
        </g>
        <g transform="matrix(1,0,0,1,8,16)">
            <path d="M225.48,510.64L202.72,511.52C200.698,511.62 199.088,513.311 199.088,515.335C199.088,517.187 200.435,518.786 202.26,519.1L225.92,522.9" style="fill:rgb(201,200,200);fill-rule:nonzero;"/>
        </g>
        <g transform="matrix(1,0,0,1,8,16)">
            <path d="M346.82,504.68L375.27,503.8L382.28,573.85L353.38,577.79L346.82,504.68Z" style="fill:white;fill-rule:nonzero;"/>
        </g>
        <g transform="matrix(1,0,0,1,8,16)">
            <path d="M369.95,497.51L346.95,502.04C344.923,502.45 343.579,504.436 343.95,506.47L346.79,521.92C347.073,523.441 348.269,524.637 349.79,524.92C359.88,526.71 373.94,516.72 373.94,516.72" style="fill:rgb(201,200,200);fill-rule:nonzero;"/>
        </g>
        <g transform="matrix(1,0,0,1,8,16)">
            <path d="M388.45,364.94C390.87,366.74 425.32,403.63 425.54,400.63L426.23,386.03C426.31,384.875 425.86,383.745 425.01,382.96L392.65,349.59L388.45,364.94Z" style="fill:rgb(201,200,200);fill-rule:nonzero;"/>
        </g>
        <g transform="matrix(1,0,0,1,8,16)">
            <path d="M450.43,519.94C440.8,520.82 429.43,522.57 419.79,521.69C424.17,514.69 442.12,517.31 450.43,519.94" style="fill:rgb(32,22,0);fill-rule:nonzero;"/>
        </g>
        <g transform="matrix(1,0,0,1,8,16)">
            <path d="M453.49,536.14C441.956,536.509 430.41,536.215 418.91,535.26C425.04,528.69 446.49,532.63 453.49,536.14" style="fill:rgb(32,22,0);fill-rule:nonzero;"/>
        </g>
        <g transform="matrix(1,0,0,1,8,16)">
            <path d="M368.13,579.91C369.88,593.48 375.13,607.05 374.26,621.91C368.13,624.1 364.63,625.85 356.75,625.85C356.31,613.16 354.56,593.85 355,581.64C358.94,582.08 364.63,579.01 368.13,579.89" style="fill:rgb(153,76,69);fill-rule:nonzero;"/>
        </g>
        <g transform="matrix(1.06863,0,0,1.18792,-17.0267,-96.9417)">
            <path d="M368.13,579.91C369.88,593.48 375.13,607.05 374.26,621.91C368.13,624.1 364.63,625.85 356.75,625.85C356.31,613.16 354.56,593.85 355,581.64C358.94,582.08 364.63,579.01 368.13,579.89" style="fill-rule:nonzero;"/>
        </g>
        <g transform="matrix(1,0,0,1,8,16)">
            <path d="M335.29,502.43C335.29,502.43 331.35,581.67 342.73,638.14C342.73,638.14 319.97,652.59 286.26,656.53L350.17,654.34L357.61,649.96L348.42,524.76L346.24,498" style="fill:rgb(156,3,4);fill-rule:nonzero;"/>
        </g>
        <g transform="matrix(1,0,0,1,8,16)">
            <path d="M355,581.66C354.56,593.92 356.31,613.18 356.75,625.88C364.63,625.88 368.13,624.13 374.26,621.94C375.14,607.06 369.44,593.48 368.13,579.94C364.63,578.63 358.94,581.69 355,581.69M230.23,512.93C235.48,561.52 243.36,602.24 257.37,645.58C288.45,655.21 326.1,655.65 353.68,647.33C348.43,623.25 350.61,593.48 347.99,567.65C345.8,548.39 347.11,528.65 344.05,508.55C310.34,501.55 263.05,506.8 230.23,512.93M350.75,506.75C350.31,527.75 353.18,554.75 354.93,575.37C362.13,574.17 374.27,575.3 376.18,564.55C378.55,551.21 375.18,511.95 369.35,508.14C364.21,504.8 356.44,504.57 350.75,506.76M391.75,505.33C382.44,505.76 377.743,521.997 378.213,527.997C379.213,541.067 393.383,543.817 394.943,555.997C395.563,560.837 402.66,504.82 391.76,505.33M451.003,532.463C448.813,522.393 462.54,510.573 458.16,504.003C455.1,499.183 434.007,513.397 427.437,517.767C416.497,524.767 410.13,496.29 402.25,505.05C406.19,518.62 407.43,534.57 407.43,557.59C421.43,558.47 430.997,542.473 446.387,544.4M358.49,495.46C369.552,496.278 380.652,494.479 390.89,490.21C394.83,488.9 397.46,479.7 400.52,472.7C408.4,453.44 417.16,428.92 420.66,410.1C421.54,405.72 423.73,396.53 423.29,393.03C422.42,386.46 402.49,361.75 393.73,354.74C383.678,346.696 349.85,391.74 348.33,393.07C338.44,401.87 333.85,411.96 325.7,416.14C321.811,418.135 251.4,396.07 218.39,384.95C212.23,382.88 201.33,366.31 199.58,367.18C174.19,377.25 150.58,394.32 129.1,410.96C149.24,454.3 157.56,507.71 158.87,558.96C182.07,569.9 202.21,585.23 233.73,586.96C230.23,561.13 226.73,538.37 224.54,513.85C216.66,510.35 205.28,513.85 197.84,512.97C197.84,504.21 209.22,509.03 210.1,502.9C211,498.49 204,498 206.15,491C211.84,493.19 214.9,497.57 221.03,499.32C226.72,487.06 221.03,465.17 221.91,454.67C221.91,452.92 222.79,444.16 227.16,445.48C231.1,446.79 226.72,468.68 227.16,478.75C227.6,487.94 226.28,496.26 229.79,501.95C260,498.01 291.08,494.95 323.91,494.07L358.49,495.38M168.94,181.54C158.87,192.48 161.06,213.54 162.37,228.38C180.76,217 204.83,229.26 204.37,248.96C213.13,248.52 207.44,238.01 206.12,231.45C200.87,209.12 214.87,184.61 206.56,164.45C197.081,164.648 187.922,167.408 180.006,172.314C175.937,174.835 172.197,177.923 168.91,181.52M241.14,117.17C218.38,123.74 189.04,140.37 179.85,160.95C187.29,160.08 192.11,156.13 199.11,155.7C201.74,155.7 205.24,157.01 208.3,156.14C214.43,154.39 219.68,140.82 224.5,135.56C228.88,130.31 234.57,128.56 238.5,123.74C241.13,122.43 244.63,122.87 244.63,118.92C243.32,117.61 242.44,116.73 241.13,117.17M376.4,357.08C365.63,364.08 344.5,378.8 321.24,379.79C307.32,380.39 291.24,374.51 285.24,371.49C274.71,366.25 264.81,359.27 257.37,350.49C248.61,340.42 239.42,329.91 238.98,317.22C256.05,340.86 270.06,361 300.71,371.5C323.91,379.38 351.05,368 369,355.3C376.44,350.05 380.82,341.73 386.07,334.3C405.77,305.84 414.96,265.57 412.77,226.17C411.89,209.97 410.39,195.44 406.64,182.83C402.43,170.22 402.43,170.22 395.57,157.44C387.8,142.96 373.37,130.74 359.8,123.29C336.16,109.72 295.88,99.65 270.93,112.35C250.79,122.42 223.21,139.05 213.58,160.51C222.34,181.09 210.95,199.91 210.08,220.51C209.64,231.46 215.33,241.09 215.77,253.34C212.7,258.16 203.51,259.03 197.38,258.59C195.19,248.08 191.69,235.83 180.31,234.51C164.55,232.76 153.17,245.89 152.73,259.03C151.85,274.79 164.99,301.03 183.37,299.3C190.37,298.42 192.13,291.42 200.01,291.42C204.39,299.74 193.44,302.36 192.57,308.49C192.13,310.24 193.45,315.93 194.32,319C197.82,333 205.26,350.52 212.27,361C220.15,372.82 221.125,397.25 271.945,402.12C280.755,402.96 314.41,413.38 325.7,416.14M400.333,493.753C417.302,489.423 403.917,502.246 444.689,496.909C449.301,496.313 453.982,496.581 458.496,497.699C472.875,501.202 479.121,506.611 480.815,512.72C482.391,518.56 479.787,524.722 474.501,527.663C465.361,532.787 469.675,538.326 460.1,549.903C449.439,562.794 437.159,568.841 411.903,568.44C400.701,568.262 392.668,560.871 385.841,562.352C379.723,563.679 381.233,573.368 378.96,574.2C375.46,588.65 387.4,611.47 384.78,624.2C383.03,633.39 371.65,635.14 362.89,636.9C362.45,642.15 363.33,646.53 363.77,650.9C362.02,657.9 353.26,661.84 344.95,663.16C317.81,666.23 277.09,667.98 251.27,658.34C243.83,640.83 238.14,618.94 232.45,598.8C207.06,601.43 186.92,587.86 167.66,579.1C161.09,576.04 151.9,574.28 149.27,569.03C146.64,563.78 147.96,554.14 147.08,544.95C145.77,521.31 144.45,498.11 137.89,474.03C135.23,463 130,453.4 126.91,442.89C123.85,433.26 118.15,421 116.84,411.37C114.66,396.92 128.23,396 137,389.92C150.57,380.29 161.08,375.04 175.52,366.28C179.9,363.65 192.59,357.09 194.34,354.02C197.4,347.89 189.09,339.57 187.34,334.76C183.84,327.32 182.09,321.19 181.65,313.76C169.39,312.01 160.2,304.57 154.51,296.25C145.32,282.68 138.75,257.73 147.07,238.46C147.51,237.15 151.01,234.08 151.45,231.89C152.33,227.51 149.7,221.38 149.7,216.57C148.82,191.57 154.08,170.57 170.7,163.16C177.27,136.02 201.78,127.26 224.55,113.69C232.87,108.87 242.5,105.37 252.13,101.87C287.13,89.17 340.56,91.36 369.45,113.25C381.71,122.44 401.45,142.14 408.45,156.15C426.84,193.36 425.52,255.96 412.83,301.49C411.08,307.62 408.45,316.37 404.95,323.82C402.32,329.07 394.88,339.14 395.76,343.52C396.64,348.34 413.27,360.59 416.76,364.1C423.33,370.23 435.15,378.55 436.02,385.99C436.9,394.31 432.52,405.69 429.89,413.57C420.7,440.71 413.25,464.79 404.06,488.43" style="fill-rule:nonzero;"/>
        </g>
        <g transform="matrix(1,0,0,1,8,16)">
            <path d="M280.57,305C281.45,303.69 287.14,301.5 295.02,305.44C295.02,305.44 285.83,306.75 286.7,322.08L282.76,321.21C282.76,321.65 278.82,307.64 280.57,305.01" style="fill:rgb(245,226,204);fill-rule:nonzero;"/>
        </g>
        <g transform="matrix(1.03701,0,0,0.990131,1.86342,22.1945)">
            <g>
                <g transform="matrix(4.33893,-1.86108,1.86108,4.33893,-1798.48,-1012.25)">
                    <path d="M327.251,398.86L277.991,398.86L282.607,363.785L322.635,363.785L327.251,398.86Z" style="fill:rgb(175,16,23);fill-rule:nonzero;"/>
                </g>
                <g transform="matrix(4.33893,-1.86108,1.86108,4.33893,-1798.48,-1012.25)">
                    <path d="M327.251,398.86C327.251,400.049 316.224,403.782 302.621,403.782C289.019,403.782 277.991,400.049 277.991,398.86C277.991,397.672 289.019,393.939 302.621,393.939C316.224,393.939 327.251,397.672 327.251,398.86Z" style="fill:rgb(175,16,23);fill-rule:nonzero;"/>
                </g>
                <g transform="matrix(4.33893,-1.86108,1.86108,4.33893,-1798.48,-1012.25)">
                    <path d="M322.635,363.785C322.635,365.513 313.674,366.913 302.62,366.913C291.568,366.913 282.607,365.513 282.607,363.785C282.607,362.058 291.568,360.655 302.62,360.655C313.674,360.655 322.635,362.058 322.635,363.785Z" style="fill:rgb(179,24,29);fill-rule:nonzero;"/>
                </g>
            </g>
            <g>
                <g transform="matrix(4.67425,-1.63592,2.35108,6.71765,-2077.91,-1945.09)">
                    <path d="M304.685,363.785C304.685,364.013 303.761,364.196 302.621,364.196C301.481,364.196 300.558,364.013 300.558,363.785C300.558,363.558 301.481,363.374 302.621,363.374C303.761,363.374 304.685,363.558 304.685,363.785Z" style="fill:rgb(35,31,32);fill-rule:nonzero;"/>
                </g>
                <g transform="matrix(4.33893,-1.86108,1.86108,4.33893,-1798.48,-1012.25)">
                    <path d="M301.48,359.322L303.762,359.322L317.893,365.807C317.893,365.807 314.371,366.464 310.615,366.653C307.696,364.658 301.48,359.322 301.48,359.322Z" style="fill:rgb(35,31,32);fill-rule:nonzero;"/>
                </g>
                <g transform="matrix(4.33893,-1.86108,1.86108,4.33893,-1798.48,-1012.25)">
                    <path d="M304.685,363.785L300.558,363.785L301.48,359.322L303.762,359.322L304.685,363.785Z" style="fill:rgb(35,31,32);fill-rule:nonzero;"/>
                </g>
                <g transform="matrix(4.33893,-1.86108,1.86108,4.33893,-1798.48,-1012.25)">
                    <path d="M310.615,366.653L313.929,395.896C313.929,395.896 319.954,396.588 322.635,394.587C322.007,390.202 317.893,365.807 317.893,365.807L310.615,366.653Z" style="fill:rgb(35,31,32);fill-rule:nonzero;"/>
                </g>
            </g>
        </g>
        <g transform="matrix(0.273885,3.44464,-3.90079,0.310153,467.789,356.027)">
            <path d="M62.178,55.774C57.939,56.952 54.501,53.869 54.501,49.616C54.501,45.39 57.939,41.597 62.178,40.42C64.43,39.816 66.448,40.172 67.853,41.297C66.13,39.048 63.074,38.192 59.587,38.997C54.206,40.318 49.844,44.399 49.844,49.756C49.844,55.162 54.206,59.806 59.587,58.484C63.074,57.679 66.13,54.869 67.853,51.613C66.448,53.575 64.43,55.171 62.178,55.774Z" style="fill:white;fill-rule:nonzero;"/>
        </g>
        <g transform="matrix(0.273885,3.44464,-3.90079,0.310153,467.789,356.027)">
            <path d="M69.898,41.457C70.614,42.123 71.33,42.795 72.045,43.474C73.101,42.77 74.156,42.084 75.212,41.427C74.599,42.523 73.985,43.628 73.372,44.741C74.087,45.431 74.803,46.13 75.518,46.843C74.423,46.805 73.329,46.799 72.234,46.811C71.621,47.933 71.008,49.06 70.395,50.191C70.331,49.079 70.268,47.966 70.205,46.854C69.11,46.885 68.016,46.926 66.921,46.965C67.977,46.239 69.032,45.511 70.088,44.792C70.025,43.681 69.961,42.568 69.898,41.457Z" style="fill:white;fill-rule:nonzero;"/>
        </g>
        <g transform="matrix(1,0,0,1,8,16)">
            <path d="M159.615,388.381L199.948,364.381C199.948,364.381 282.281,432.048 297.281,495.048L227.948,503.714C227.948,503.714 223.281,481.048 227.615,447.381C227.615,447.381 200.615,401.381 159.615,388.381Z" style="fill:rgb(228,62,35);stroke:black;stroke-width:4.51px;stroke-linecap:round;stroke-miterlimit:1.5;"/>
        </g>
        <g transform="matrix(1,0,0,1,8,16)">
            <path d="M370.051,367.694C379.051,357.694 338.051,426.694 346.051,494.694C346.051,494.694 365.051,503.027 396.718,489.694C396.718,489.694 420.051,421.694 431.384,388.027L389.051,347.694C389.051,347.694 361.051,377.694 370.051,367.694Z" style="fill:rgb(228,62,35);stroke:black;stroke-width:4.17px;stroke-linecap:round;stroke-miterlimit:1.5;"/>
        </g>
        <g transform="matrix(25.6951,4.44765,-3.95024,22.8214,-8933.89,-7222.64)">
            <path d="M401.585,252.932C401.282,252.795 400.499,252.154 400.499,252.154L400.021,252.256L399.651,252.183C399.651,252.183 398.759,252.795 398.456,252.932C398.154,253.066 397.526,253.006 396.892,252.785C397.579,254.154 399.63,253.469 400.021,252.945C400.411,253.469 402.462,254.154 403.149,252.785C402.515,253.006 401.888,253.066 401.585,252.932Z" style="fill:rgb(14,13,13);fill-rule:nonzero;stroke:rgb(14,13,13);stroke-width:0.04px;"/>
        </g>
        <g transform="matrix(3.84521,0,0,2.96626,-2.69693,190.737)">
            <path d="M101.46,122.74C101.46,122.74 102.51,131.39 111.31,131.39C117.78,131.39 119.76,127.06 119.76,127.06C120.485,126.353 121.107,125.549 121.61,124.67C122.41,123.1 122.03,122.32 122.03,122.32C122.761,121.818 123.342,121.127 123.71,120.32C124.01,119.659 124.18,118.946 124.21,118.22C124.24,117.494 124.61,118.22 125.86,117.22C127.054,116.244 127.312,114.499 126.45,113.22C125.45,111.37 124.27,110.6 119.76,110.65C117.76,110.65 113.38,112.33 113.38,112.33C112.504,111.522 111.545,110.808 110.52,110.2C108.473,108.862 105.748,109.129 104,110.84C103.072,111.58 102.478,112.66 102.35,113.84C102.178,115.461 101.703,117.035 100.95,118.48L101.46,122.74Z" style="fill:rgb(245,226,204);fill-rule:nonzero;"/>
            <g>
                <path id="path118" d="M115.71,119.42C112.87,119.99 110.87,122.75 108.1,122.57C109.62,120.42 112.29,119.52 115.71,119.42" style="fill:rgb(237,212,183);fill-rule:nonzero;"/>
                <path id="path120" d="M115.87,124.42C113.501,125.117 111.075,125.603 108.62,125.87C109.48,124.03 113.81,124.01 115.87,124.42" style="fill:rgb(237,212,183);fill-rule:nonzero;"/>
                <path id="path122" d="M115.09,127.77C112.674,127.697 110.256,127.774 107.85,128C109.31,129.76 113.41,128.65 115.09,127.77" style="fill:rgb(237,212,183);fill-rule:nonzero;"/>
            </g>
        </g>
        <g transform="matrix(1,0,0,1,0,-50)">
            <path d="M400.815,419.363C400.815,419.363 394.815,421.363 399.481,428.696C404.148,436.029 398.815,433.363 392.815,436.696C386.815,440.029 394.148,441.363 396.148,448.029C398.148,454.696 384.148,448.029 382.815,455.363C381.481,462.696 392.148,460.696 390.815,468.029C389.481,475.363 374.148,469.363 376.148,476.029C378.148,482.696 394.815,486.696 388.148,492.696C381.481,498.696 363.481,489.363 368.815,498.029C374.148,506.696 390.148,508.029 379.481,513.363C368.815,518.696 357.481,518.696 366.148,526.029C374.815,533.363 385.481,535.363 374.148,538.696C362.815,542.029 356.815,545.363 365.481,550.696C374.148,556.029 372.815,562.696 365.481,564.696" style="fill:none;stroke:rgb(14,13,13);stroke-width:0.83px;stroke-linecap:round;stroke-miterlimit:1.5;"/>
        </g>
        <g transform="matrix(-0.912932,0.408111,0.425785,0.952468,384.535,-176.023)">
            <path d="M400.815,419.363C400.815,419.363 394.815,421.363 399.481,428.696C404.148,436.029 398.815,433.363 392.815,436.696C386.815,440.029 394.148,441.363 396.148,448.029C398.148,454.696 384.148,448.029 382.815,455.363C381.481,462.696 392.148,460.696 390.815,468.029C389.481,475.363 374.148,469.363 376.148,476.029C378.148,482.696 394.815,486.696 388.148,492.696C381.481,498.696 363.481,489.363 368.815,498.029C374.148,506.696 390.148,508.029 379.481,513.363C368.815,518.696 357.481,518.696 366.148,526.029C374.815,533.363 385.481,535.363 374.148,538.696C362.815,542.029 356.815,545.363 365.481,550.696C374.148,556.029 372.815,562.696 365.481,564.696" style="fill:none;stroke:rgb(14,13,13);stroke-width:0.81px;stroke-linecap:round;stroke-miterlimit:1.5;"/>
        </g>
    </g>
</svg>
