<?xml version="1.0" encoding="UTF-8"?>
<!DOCTYPE svg PUBLIC "-//W3C//DTD SVG 1.1//EN" "https://www.w3.org/Graphics/SVG/1.1/DTD/svg11.dt">
<svg version="1.1" xmlns="http://www.w3.org/2000/svg" xmlns:xlink="http://www.w3.org/1999/xlink" x="0" y="0" width="139.437" height="190.285" viewBox="0, 0, 139.437, 190.285">
  <g id="レイヤー_1">
    <path d="M137.338,91.687 Q137.338,105.576 132.024,118.259 Q126.891,130.51 117.533,139.959 Q108.174,149.407 96.039,154.589 Q83.476,159.954 69.719,159.954 Q55.962,159.954 43.399,154.589 Q31.265,149.407 21.906,139.959 Q12.547,130.51 7.415,118.259 Q2.101,105.576 2.101,91.687 Q2.101,77.798 7.415,65.114 Q12.547,52.862 21.906,43.414 Q31.265,33.965 43.399,28.783 Q55.962,23.418 69.719,23.418 Q83.476,23.418 96.039,28.783 Q108.174,33.965 117.533,43.414 Q126.891,52.862 132.024,65.114 Q137.338,77.798 137.338,91.687" fill="#358F7F"/>
    <path d="M4.856,108.594 Q4.837,108.316 4.818,107.794 Q4.778,106.75 4.776,105.531 Q4.772,103.824 4.843,102.011 Q4.931,99.744 5.13,97.439 Q5.365,94.714 5.749,92.02 Q6.188,88.942 6.812,85.962 Q8.281,78.95 10.716,72.744 Q13.594,65.411 17.736,59.432 Q22.469,52.598 28.764,47.668 Q35.799,42.158 44.695,39.099 Q54.479,35.734 66.421,35.369 L61.785,27.741 L25.722,39.691 L15.418,51.387 L6.402,68.422 L1.25,88.254 L2.795,101.475" fill="#74C14A"/>
    <path d="M23.406,45.116 Q14.33,54.282 9.355,66.159 Q4.201,78.461 4.201,91.941 L4.201,91.941 Q4.201,105.42 9.355,117.722 Q14.331,129.599 23.406,138.763 L23.406,138.763 Q32.483,147.924 44.232,152.941 Q56.393,158.134 69.718,158.134 L69.718,158.134 Q83.044,158.134 95.206,152.941 Q106.955,147.924 116.031,138.763 L116.031,138.763 Q125.106,129.599 130.082,117.722 Q135.237,105.419 135.237,91.941 L135.237,91.941 Q135.237,78.462 130.082,66.159 Q125.106,54.282 116.031,45.116 L116.031,45.116 Q106.955,35.957 95.206,30.94 Q83.044,25.747 69.718,25.745 L69.718,25.745 Q56.393,25.747 44.232,30.94 Q32.483,35.957 23.406,45.116 L23.406,45.116 M20.403,141.661 Q10.762,131.929 5.473,119.304 Q0,106.239 0,91.941 L0,91.941 Q0,77.642 5.473,64.577 Q10.762,51.953 20.403,42.22 L20.403,42.22 Q30.046,32.481 42.565,27.135 Q55.53,21.599 69.718,21.601 L69.718,21.601 Q83.906,21.599 96.872,27.135 Q109.392,32.482 119.033,42.22 L119.033,42.22 Q128.675,51.953 133.964,64.577 Q139.438,77.643 139.437,91.941 L139.437,91.941 Q139.438,106.239 133.964,119.304 Q128.675,131.929 119.033,141.661 L119.033,141.661 Q109.392,151.398 96.872,156.745 Q83.907,162.281 69.718,162.281 L69.718,162.281 Q55.53,162.281 42.565,156.745 Q30.046,151.398 20.403,141.661 L20.403,141.661" fill="#231F20"/>
    <path d="M98.026,91.339 L87.721,92.864 L73.811,94.39 L64.795,94.644 L56.037,94.39 L49.339,92.356 L43.414,85.999 L38.777,73.032 L37.747,70.235 L31.565,68.202 L27.958,62.354 L25.383,53.963 L28.217,46.59 L34.914,44.301 L40.323,46.844 L42.9,52.438 L45.991,51.929 L47.021,50.658 L45.991,44.81 L45.733,37.436 L47.278,27.266 L47.218,21.457 L51.915,14.045 L60.158,8.197 L74.584,2.095 L90.554,4.383 L104.464,14.299 L110.905,24.469 L115.026,31.843 L116.056,50.149 L112.965,65.914 L107.298,79.897 L101.889,87.271" fill="#F0D6B7"/>
    <path d="M89.424,136.051 L52.588,137.576 L52.588,143.678 L55.679,165.036 L54.133,166.816 L28.374,158.171 L26.571,155.12 L23.995,126.39 L18.071,109.1 L16.782,105.032 L37.39,91.048 L43.83,88.505 L49.497,95.37 L54.391,99.693 L60.058,101.472 L62.634,102.235 L65.725,115.456 L68.043,118.253 L73.969,116.219 L69.846,124.101 L92.257,134.525 L89.424,136.051" fill="#335061"/>
    <path d="M28.374,47.316 L35.071,45.027 L40.481,47.571 L43.057,53.164 L46.148,52.655 L46.921,49.604 L45.375,43.757 L46.921,29.772 L45.633,22.144 L50.269,16.805 L60.316,8.923 L57.482,5.11 L43.314,11.974 L37.389,16.551 L34.041,23.67 L28.889,30.535 L27.343,38.671 L28.374,47.316" fill="#6D6B6D"/>
    <path d="M38.935,23.416 Q39.177,22.828 39.78,21.875 Q40.988,19.968 42.799,18.14 Q45.335,15.582 48.716,13.548 Q52.942,11.005 58.255,9.432 Q67.914,6.572 64.437,6.063 Q63.35,5.904 61.08,5.999 Q59.945,6.047 59.027,6.126 L42.284,12.483 L35.844,18.839 L33.011,23.925 L38.935,23.416" fill="#DCD9D8"/>
    <path d="M31.207,45.536 Q31.123,45.258 31.015,44.766 Q30.8,43.783 30.684,42.715 Q30.314,39.299 31.078,36.319 Q32.149,32.148 35.337,29.446 Q39.322,26.069 46.405,25.195 L45.633,22.144 L31.465,25.45 L27.343,38.671 L28.374,47.316 L31.207,45.536" fill="#DCD9D8"/>
    <path d="M39.45,69.182 L42.823,65.956 Q43.204,66 43.616,66.266 Q44.442,66.798 44.603,67.91 Q44.604,67.922 44.742,69.203 Q44.876,70.447 45.045,71.578 Q45.591,75.237 46.599,78.558 Q47.99,83.145 50.181,86.825 Q52.886,91.37 56.709,94.354 Q57.341,94.847 52.967,94.014 Q51.6,93.753 49.897,93.392 Q49.045,93.211 48.467,93.082 L40.223,80.37" fill="#F7E4CD"/>
    <path d="M86.849,64.351 Q86.887,63.87 86.976,63.156 Q87.154,61.73 87.413,60.572 Q88.238,56.867 89.553,57.237 Q90.867,57.607 91.393,58.793 Q91.655,59.386 91.655,59.905 Q91.336,60.109 90.862,60.433 Q89.914,61.082 89.14,61.684 Q86.662,63.611 86.849,64.351" fill="#F7E4CD"/>
    <path d="M42.026,52.91 Q41.414,52.544 40.481,52.084 Q38.613,51.162 37.003,50.685 Q31.851,49.16 31.207,52.656 Q31.049,53.514 30.777,54.688 Q30.719,54.941 30.548,55.663 Q30.406,56.264 30.326,56.617 Q29.815,58.866 29.758,60.315 Q29.597,64.395 32.753,68.165 L29.404,67.148 L26.313,59.267 L25.283,51.639 L31.207,45.536 L37.905,46.045 L41.769,49.096 L42.026,52.91" fill="#F7E4CD"/>
    <path d="M46.663,36.892 Q46.731,36.542 46.894,35.922 Q47.22,34.681 47.693,33.328 Q48.355,31.434 49.217,29.584 Q50.293,27.273 51.622,25.164 Q53.191,22.672 55.065,20.542 Q57.206,18.106 59.704,16.19 Q65.58,11.681 73.196,10.195 Q79.695,8.927 85.293,8.876 Q90.279,8.832 94.396,9.75 Q98.007,10.556 100.755,12.054 Q103.141,13.355 104.622,15.026 Q104.368,14.728 103.894,14.218 Q102.947,13.198 101.845,12.137 Q100.302,10.653 98.672,9.3 Q96.634,7.61 94.576,6.222 Q89.335,2.691 84.409,1.403 Q78.251,-0.206 72.938,1.804 Q61.577,6.103 53.779,13.119 Q46.208,19.931 46.405,25.195 Q46.556,29.214 46.631,31.955 Q46.69,34.148 46.699,35.428 Q46.708,36.891 46.663,36.892" fill="#F7E4CD"/>
    <path d="M49.497,95.37 L25.283,106.049 Q25.44,106.665 25.705,107.766 Q26.234,109.969 26.772,112.397 Q27.526,115.797 28.19,119.162 Q29.02,123.368 29.662,127.279 Q30.421,131.902 30.893,135.969 Q31.432,140.617 31.586,144.45 Q31.948,153.468 30.177,157.663 L26.57,156.392 L26.313,141.391 L19.616,112.915 L16.782,105.032 L42.026,88.252 L49.497,95.37" fill="#49728B"/>
    <path d="M51.986,117.168 L55.422,121.305 L55.422,136.56 L51.3,136.56 Q51.267,135.893 51.219,134.872 Q51.123,132.829 51.042,131.062 Q50.93,128.586 50.865,127.014 Q50.785,125.047 50.785,124.61 Q50.785,123.815 51.042,121.209 Q51.123,120.395 51.219,119.497 Q51.267,119.048 51.3,118.762" fill="#49728B"/>
    <path d="M52.072,138.849 L40.481,139.357 L43.83,141.645 L52.072,142.916" fill="#49728B"/>
    <path d="M91.743,136.306 L101.273,136.051 L103.592,159.443 L93.803,160.714 L91.743,136.306" fill="#335061"/>
    <path d="M94.318,136.306 L108.744,135.543 Q108.837,135.312 108.999,134.908 Q109.324,134.095 109.67,133.227 Q110.781,130.438 111.706,128.074 Q113.002,124.765 113.743,122.778 Q114.668,120.296 114.668,120.033 Q114.668,119.771 115.473,116.374 Q116.117,113.657 117.244,109.069 Q117.687,107.267 118.19,105.232 Q118.591,103.611 119.015,101.906 Q119.321,100.675 119.599,99.562 Q119.74,98.998 119.82,98.676 L108.229,86.726 L105.91,84.692 L99.728,90.794 L99.728,114.44 L94.318,136.306" fill="#335061"/>
    <path d="M100.758,134.526 L91.743,136.306 L93.03,143.425 Q95.123,144.379 98.794,142.726 Q99.941,142.209 101.108,141.494 Q101.692,141.136 102.046,140.882" fill="#49728B"/>
    <path d="M101.016,90.031 L119.048,103.253 L119.563,97.15 L105.91,84.692 L101.016,90.031" fill="#49728B"/>
    <path d="M61.012,186.396 L55.679,165.036 L53.026,149.275 L52.588,137.576 L76.725,136.308 L91.743,136.306 L90.377,163.005 L92.696,183.6 L92.438,187.413 L72.862,188.939 L61.012,186.396" fill="#FFFFFF"/>
    <path d="M88.393,136.051 Q88.373,136.465 88.346,137.224 Q88.29,138.744 88.253,140.477 Q88.2,142.903 88.19,145.41 Q88.177,148.544 88.233,151.625 Q88.298,155.266 88.457,158.721 Q88.638,162.67 88.937,166.3 Q89.642,174.841 90.97,181.309 Q90.487,181.611 89.585,182.084 Q87.782,183.029 85.689,183.883 Q82.759,185.079 79.668,185.921 Q75.804,186.974 71.907,187.411 L93.546,186.648 L96.121,185.123 L93.03,143.425 L92.257,134.525" fill="#DCD9D8"/>
    <path d="M104.031,157.411 L114.077,154.614 L133.138,153.597 L135.972,144.953 L130.82,129.952 L124.896,129.189 L116.653,131.731 L108.744,135.543 L104.545,134.782 L101.273,136.051" fill="#FFFFFF"/>
    <path d="M103.849,152.324 Q104.268,152.133 104.912,151.851 Q106.2,151.287 107.326,150.83 Q110.933,149.369 111.577,149.527 L108.744,135.543 L112.092,134.272 Q112.237,135.098 112.455,136.362 Q112.889,138.888 113.252,141.073 Q113.759,144.132 114.049,146.071 Q114.411,148.494 114.411,149.018 Q114.636,149.03 115.033,149.051 Q115.827,149.093 116.685,149.138 Q119.43,149.281 121.784,149.4 Q125.081,149.567 127.125,149.662 Q129.681,149.781 130.124,149.781 Q130.317,149.416 130.595,148.772 Q131.15,147.485 131.573,146.094 Q132.164,144.148 132.406,142.273 Q132.708,139.929 132.442,137.831 L135.276,145.967 L135.533,150.544 L131.412,156.646 L126.775,157.663 L119.048,157.409 L116.472,154.104 L107.456,155.375 L104.622,156.392" fill="#DCD9D8"/>
    <path d="M93.726,134.274 L88.06,120.036 L82.135,111.645 Q82.457,110.755 83.004,109.865 Q84.099,108.085 85.226,108.085 Q87.045,108.085 88.865,108.085 Q89.672,108.085 90.479,108.085 Q90.893,108.085 91.151,108.085 L96.818,110.12 L96.303,119.527 L93.726,134.274" fill="#FFFFFF"/>
    <path d="M94.834,129.441 Q94.721,129.226 94.524,128.847 Q94.13,128.088 93.707,127.264 Q92.354,124.626 91.227,122.322 Q89.649,119.096 88.748,116.998 Q87.621,114.376 87.621,113.677 Q87.943,112.915 88.49,112.247 Q89.585,110.912 90.712,111.389 Q91.839,111.866 94.222,113.073 Q94.967,113.451 95.747,113.856 Q96.138,114.058 96.379,114.185 L96.379,109.355 L87.621,107.574 L81.697,108.337 L91.743,131.729 L93.803,131.984" fill="#DCD9D8"/>
    <path d="M63.331,95.882 L56.194,95.116 L49.497,93.082 L49.497,95.37 L52.769,98.932 L63.073,103.509" fill="#FFFFFF"/>
    <path d="M51.816,96.644 Q52.315,96.851 53.104,97.149 Q54.682,97.745 56.131,98.201 Q60.768,99.664 62.378,99.187 L62.634,102.235 L55.423,100.713 L51.043,97.661 L51.816,96.644" fill="#DCD9D8"/>
    <path d="M104.003,108.951 Q97.279,108.756 92.226,107.349 Q92.334,106.703 92.256,105.313 Q92.187,104.103 92.374,103.57 Q92.988,103.134 94.207,102.956 Q94.612,102.897 95.3,102.837 Q96.176,102.76 96.41,102.735 Q94.227,101.676 91.927,102.235 Q91.906,101.641 91.643,100.99 Q91.593,100.866 91.408,100.451 Q91.26,100.119 91.184,99.902 Q91.894,99.653 93.562,98.544 Q93.76,98.413 94.288,98.059 Q94.765,97.739 95.049,97.551 Q95.96,96.949 96.643,96.542 Q100.731,94.103 102.706,95.24 Q103.739,95.834 104.412,98.886 Q104.919,101.185 105.042,103.723 Q105.221,107.388 104.003,108.951" fill="#D33833"/>
    <g>
      <path d="M104.503,109.451 Q97.779,109.256 92.726,107.849 Q92.834,107.203 92.756,105.813 Q92.687,104.603 92.874,104.07 Q93.488,103.634 94.707,103.456 Q95.112,103.397 95.8,103.337 Q96.676,103.26 96.91,103.235 Q94.727,102.176 92.427,102.735 Q92.406,102.141 92.143,101.49 Q92.093,101.366 91.908,100.951 Q91.76,100.619 91.684,100.402 Q92.394,100.153 94.062,99.044 Q94.26,98.913 94.788,98.559 Q95.265,98.239 95.549,98.051 Q96.46,97.449 97.143,97.042 Q101.231,94.603 103.206,95.74 Q104.239,96.334 104.912,99.386 Q105.419,101.685 105.542,104.223 Q105.721,107.888 104.503,109.451" fill="#02735F"/>
      <path d="M104.503,109.451 Q97.779,109.256 92.726,107.849 Q92.834,107.203 92.756,105.813 Q92.687,104.603 92.874,104.07 Q93.488,103.634 94.707,103.456 Q95.112,103.397 95.8,103.337 Q96.676,103.26 96.91,103.235 Q94.727,102.176 92.427,102.735 Q92.406,102.141 92.143,101.49 Q92.093,101.366 91.908,100.951 Q91.76,100.619 91.684,100.402 Q92.394,100.153 94.062,99.044 Q94.26,98.913 94.788,98.559 Q95.265,98.239 95.549,98.051 Q96.46,97.449 97.143,97.042 Q101.231,94.603 103.206,95.74 Q104.239,96.334 104.912,99.386 Q105.419,101.685 105.542,104.223 Q105.721,107.888 104.503,109.451" fill-opacity="0" stroke="#02735F" stroke-width="2" stroke-linejoin="round"/>
    </g>
    <path d="M83.101,101.899 Q83.096,102.043 83.063,102.883 Q82.331,103.358 80.58,103.745 Q78.669,104.168 77.997,104.501 Q80.941,104.628 83.447,105.861 Q83.427,106.359 83.398,107.094 Q83.397,107.121 83.374,107.711 Q83.359,108.082 83.349,108.327 Q82.551,108.867 81.5,109.723 Q81.145,110.012 80.58,110.485 Q79.824,111.119 79.65,111.263 Q77.293,113.218 75.618,114.12 Q74.225,114.87 71.77,115.698 Q68.844,116.685 67.856,116.457 Q67.322,116.335 66.607,114.271 Q66.439,113.782 65.936,112.508 Q65.414,111.189 65.143,110.418 Q64.196,107.723 64.106,105.78 Q64.002,103.521 64.005,102.482 Q64.012,100.469 64.283,99.131 Q65.016,95.517 67.823,96.047 Q73.001,97.022 78.018,99.728 Q78.438,99.955 79.155,100.414 Q79.874,100.876 80.241,101.075 Q81.545,101.78 83.101,101.899" fill="#D33833"/>
    <g>
      <path d="M83.601,102.399 Q83.596,102.543 83.563,103.383 Q82.831,103.858 81.08,104.245 Q79.169,104.668 78.497,105.001 Q81.441,105.128 83.947,106.361 Q83.927,106.859 83.898,107.594 Q83.897,107.621 83.874,108.211 Q83.859,108.582 83.849,108.827 Q83.051,109.367 82,110.223 Q81.645,110.512 81.08,110.985 Q80.324,111.619 80.15,111.763 Q77.793,113.718 76.118,114.62 Q74.725,115.37 72.27,116.198 Q69.344,117.185 68.356,116.957 Q67.822,116.835 67.107,114.771 Q66.939,114.282 66.436,113.008 Q65.914,111.689 65.643,110.918 Q64.696,108.223 64.606,106.28 Q64.502,104.021 64.505,102.982 Q64.512,100.969 64.783,99.631 Q65.516,96.017 68.323,96.547 Q73.501,97.522 78.518,100.228 Q78.938,100.455 79.655,100.914 Q80.374,101.376 80.741,101.575 Q82.045,102.28 83.601,102.399" fill="#02735F"/>
      <path d="M83.601,102.399 Q83.596,102.543 83.563,103.383 Q82.831,103.858 81.08,104.245 Q79.169,104.668 78.497,105.001 Q81.441,105.128 83.947,106.361 Q83.927,106.859 83.898,107.594 Q83.897,107.621 83.874,108.211 Q83.859,108.582 83.849,108.827 Q83.051,109.367 82,110.223 Q81.645,110.512 81.08,110.985 Q80.324,111.619 80.15,111.763 Q77.793,113.718 76.118,114.62 Q74.725,115.37 72.27,116.198 Q69.344,117.185 68.356,116.957 Q67.822,116.835 67.107,114.771 Q66.939,114.282 66.436,113.008 Q65.914,111.689 65.643,110.918 Q64.696,108.223 64.606,106.28 Q64.502,104.021 64.505,102.982 Q64.512,100.969 64.783,99.631 Q65.516,96.017 68.323,96.547 Q73.501,97.522 78.518,100.228 Q78.938,100.455 79.655,100.914 Q80.374,101.376 80.741,101.575 Q82.045,102.28 83.601,102.399" fill-opacity="0" stroke="#02735F" stroke-width="2" stroke-linejoin="round"/>
    </g>
    <path d="M85.586,106.6 Q85.474,105.97 85.299,105.234 Q85.081,104.317 85.053,104.182 Q84.829,103.112 84.934,101.969 Q86.938,100.65 88.359,101.353 Q89.586,101.959 89.773,103.575 Q89.96,105.185 88.931,106.152 Q87.743,107.266 85.586,106.6" fill="#D33833"/>
    <g>
      <path d="M86.086,107.1 Q85.974,106.47 85.799,105.734 Q85.581,104.817 85.553,104.682 Q85.329,103.612 85.434,102.469 Q87.438,101.15 88.859,101.853 Q90.086,102.459 90.273,104.075 Q90.46,105.685 89.431,106.652 Q88.243,107.766 86.086,107.1" fill="#02735F"/>
      <path d="M86.086,107.1 Q85.974,106.47 85.799,105.734 Q85.581,104.817 85.553,104.682 Q85.329,103.612 85.434,102.469 Q87.438,101.15 88.859,101.853 Q90.086,102.459 90.273,104.075 Q90.46,105.685 89.431,106.652 Q88.243,107.766 86.086,107.1" fill-opacity="0" stroke="#02735F" stroke-width="2" stroke-linejoin="round"/>
    </g>
    <path d="M93.984,108.34 Q93.533,107.704 93.243,106.973 Q92.663,105.511 93.468,105.034 Q93.966,104.74 95.336,104.59 Q96.385,104.475 96.818,103.764 Q97.255,103.044 97.14,102.079 Q96.982,100.756 97.075,100.204 Q97.332,98.678 99.909,98.169 Q101.519,97.852 102.903,97.852 Q104.984,97.852 105.318,98.678 L103.773,94.102 L100.682,93.085 L90.893,98.678 L90.377,101.475 L90.377,107.069" fill="#74C14A"/>
    <path d="M66.936,116.731 Q66.422,110.128 65.935,104.836 Q65.569,100.858 67.101,100.173 Q67.771,99.874 69.267,99.881 Q69.642,99.883 70.774,99.917 Q71.857,99.95 72.574,99.95 Q73.312,99.95 75.352,100.491 Q77.557,101.076 77.755,101.475 Q78.207,102.386 78.043,103.048 Q78.002,103.214 77.603,103.906 Q77.184,104.635 79.374,105.814 Q82.003,107.229 85.093,105.442 Q88.264,103.608 87.286,100.713 Q86.873,100.226 84.886,100.166 Q82.686,100.1 82.197,99.85 Q80.512,98.988 79.179,98.305 Q77.435,97.413 76.16,96.761 Q73.636,95.468 70.62,94.887 Q66.777,94.146 64.952,95.37 Q62.539,96.99 62.141,99.943 Q61.809,102.408 62.885,105.839 Q63.689,108.401 65.389,111.772 Q65.905,112.796 66.739,114.351 Q67.611,115.976 67.856,116.457" fill="#74C14A"/>
    <path d="M77.472,31.431 Q72.69,32.229 69.318,30.392 Q66.758,28.997 64.834,25.925 Q63.589,26.141 63.61,27.258 Q63.623,27.975 64.17,29.051 Q65.198,31.077 68.319,32.811 Q71.708,34.694 74.629,34.378 Q76.232,34.205 77.224,33.428 Q78.391,32.514 77.472,31.431" fill="#231F20"/>
    <path d="M112.215,48.799 Q112.162,48.824 112.047,48.88 Q111.931,48.936 111.879,48.962 Q111.049,48.563 109.433,47.747 Q107.797,46.922 106.988,46.532 Q104.118,45.149 101.94,44.474 Q101.682,41.906 105.663,39.107 Q109.775,36.216 111.692,39.081 Q111.028,39.811 108.486,41.292 Q106.124,42.67 105.531,43.546 Q105.978,43.82 107.324,44.572 Q108.451,45.202 109.101,45.636 Q111.106,46.974 112.215,48.799" fill="#231F20"/>
    <path d="M106.668,62.307 Q104.186,63.88 102.749,64.684 Q100.469,65.958 98.42,66.737 Q93.253,68.704 87.761,68.168 Q86.375,66.979 86.095,64.882 Q85.801,62.669 87.038,61.063 Q87.303,61.514 87.505,62.379 Q87.821,63.739 87.849,63.831 Q88.359,65.526 89.855,65.779 Q92.759,66.269 97.099,64.503 Q98.275,64.025 100.485,62.97 Q102.509,62.005 103.357,61.686 Q104.71,59.435 103.815,57.726 Q103.49,57.105 102.705,56.242 Q102.704,56.241 102.01,55.495 Q101.577,55.03 101.295,54.695 Q101.076,54.434 100.559,53.822 Q100.074,53.248 99.802,52.924 Q98.907,51.858 98.263,51.05 Q96.5,48.836 95.364,46.986 Q92.34,42.06 92.463,37.568 Q93.435,36.873 93.921,38.065 Q94.066,38.421 94.203,39.063 Q94.338,39.69 94.378,39.782 Q95.735,42.916 99.131,47.316 Q100.509,49.101 102.188,51.048 Q103.586,52.668 105.147,54.348 Q105.422,54.646 106.708,55.756 Q107.618,56.542 107.714,56.915 Q107.98,57.96 107.295,59.848 Q106.587,61.802 106.668,62.307" fill="#231F20"/>
    <path d="M40.263,58.945 Q39.584,58.562 38.462,56.194 Q37.465,54.087 36.455,54.027 Q34.751,53.924 34.38,56.891 Q34.25,57.934 34.26,59.585 Q34.262,60.049 34.281,60.937 Q34.299,61.794 34.3,62.174 Q32.953,60.967 32.712,57.906 Q32.474,54.895 33.495,52.926 Q32.553,52.469 31.713,53.125 Q31.503,53.289 31.06,53.742 Q30.668,54.143 30.44,54.291 Q31.269,48.349 36.413,50.589 Q41.551,52.826 40.263,58.945" fill="#231F20"/>
    <path d="M109.875,65.557 Q108.838,67.505 107.893,68.863 Q106.663,70.634 105.305,71.854 Q101.96,74.859 97.333,74.954 Q97.006,71.633 97.341,70.51 Q100.587,70.202 104.07,68.526 Q104.906,68.123 106.957,67.025 Q108.773,66.053 109.875,65.557" fill="#231F20"/>
    <path d="M76.913,68.412 Q79.88,69.953 85.53,70.506 Q87.838,70.732 90.553,70.788 Q92.82,70.835 95.33,70.762 Q95.541,71.613 95.608,72.884 Q95.641,73.527 95.655,75.219 Q89.243,75.534 84.162,73.949 Q78.318,72.125 76.913,68.412" fill="#231F20"/>
    <path d="M106.301,114.141 Q105.779,115.023 104.971,116.404 Q104.861,116.593 104.64,116.971 Q104.443,117.306 104.308,117.537 Q103.922,118.198 103.644,118.67 Q102.06,121.368 100.954,123.163 Q97.831,128.232 95.108,131.654 Q96.32,128.137 97.07,122.034 Q97.667,117.182 97.905,111.351 Q100.47,110.166 102.923,111.202 Q105,112.079 106.301,114.141" fill="#81B0C4"/>
    <path d="M125.463,135.777 Q124.165,136.033 122.66,136.826 Q122.103,137.119 121.358,137.57 Q121.128,137.709 120.721,137.96 Q120.277,138.233 120.088,138.348 Q116.912,140.278 114.786,140.144 Q117.764,136 125.463,135.777" fill="#231F20"/>
    <path d="M127.222,141.935 Q126.777,141.982 125.979,142.069 Q125.062,142.169 124.696,142.208 Q123.151,142.373 122.058,142.458 Q118.986,142.699 116.86,142.526 Q117.91,140.943 121.58,140.992 Q124.571,141.033 127.222,141.935" fill="#231F20"/>
    <path d="M128.348,147.245 Q121.778,147.386 116.685,146.964 Q118.065,145.501 122.398,145.88 Q126.077,146.201 128.348,147.245" fill="#231F20"/>
    <path d="M99.43,161.775 Q99.594,163.191 100.013,165.187 Q100.134,165.762 100.389,166.91 Q100.647,168.07 100.769,168.65 Q101.2,170.698 101.383,172.194 Q101.622,174.145 101.544,175.847 Q101.246,175.946 100.822,176.094 Q100.231,176.301 100.153,176.328 Q99.392,176.589 98.859,176.729 Q97.418,177.106 95.659,177.104 Q95.606,175.921 95.462,173.598 Q95.451,173.409 95.433,173.123 Q95.425,172.999 95.418,172.884 Q95.411,172.767 95.403,172.643 Q95.367,172.066 95.343,171.669 Q95.275,170.542 95.228,169.694 Q94.964,164.89 95.068,162.432 Q95.686,162.472 97.347,162.031 Q98.866,161.627 99.43,161.775" fill="#DCD9D8"/>
    <path d="M93.542,95.054 Q92.516,95.715 90.936,96.983 Q89.747,97.938 89.676,97.994 Q88.953,98.566 88.385,98.973 Q83.033,99.234 79.479,96.492 Q79.5,96.411 79.665,96.349 Q79.819,96.292 79.825,96.176 Q82.349,97.286 86.668,96.444 Q87.402,96.301 88.449,96.058 Q88.697,96 89.332,95.85 Q89.888,95.718 90.205,95.645 Q92.296,95.164 93.542,95.054" fill="#F0D6B7"/>
    <path d="M71.594,123.184 Q72.347,119.964 75.361,117.274 Q76.502,116.255 78.247,115.059 Q78.851,114.645 79.786,114.033 Q79.937,113.934 80.174,113.779 Q80.493,113.571 80.561,113.527 Q81.02,113.226 81.331,113.021 Q84.066,116.446 86.658,121.862 Q87.601,123.831 88.84,126.724 Q89.155,127.458 89.89,129.192 Q90.561,130.779 90.941,131.66 Q86.224,130.256 80.958,127.902 Q76.371,125.851 71.594,123.184" fill="#81B0C4"/>
    <path d="M77.701,0 L80.503,0.161 Q92.449,1.12 99.523,6.401 Q103.002,8.998 106.743,12.952 Q110.986,17.437 112.635,20.728 Q114.907,25.261 116.108,31.423 Q117.236,37.207 117.332,43.939 Q117.521,57.192 114.068,69.174 Q113.738,70.32 113.577,70.856 Q113.266,71.897 112.98,72.756 Q112.219,75.044 111.44,76.645 Q111.207,77.125 110.563,78.189 Q109.731,79.563 109.465,80.035 Q108.156,82.355 108.347,83.275 Q108.545,84.235 111.555,86.861 Q112.335,87.543 113.853,88.799 Q115.113,89.843 115.414,90.129 Q115.929,90.62 117.295,91.773 Q118.682,92.944 119.369,93.593 Q121.757,95.85 121.962,97.458 Q122.187,99.19 121.383,102.064 Q121.128,102.976 120.642,104.439 Q120.082,106.123 119.939,106.597 Q118.855,110.176 117.938,113.101 Q116.884,116.461 115.916,119.389 Q113.737,125.975 111.624,131.463 Q113.046,130.765 114.196,130.244 Q115.74,129.545 117.123,129.009 Q120.629,127.65 123.421,127.219 Q126.872,126.686 129.281,127.554 Q132.09,128.566 133.468,131.474 Q135.858,136.508 137.359,142.816 Q138.24,146.508 136.605,151.547 Q134.829,157.025 131.592,158.067 Q125.851,159.917 117.833,158.327 Q116.883,157.547 116.16,156.16 Q110.171,155.931 106.59,157.771 Q106.764,159.463 105.737,160.284 Q105.204,160.71 103.451,161.272 Q103.042,162.874 103.304,165.075 Q103.476,166.513 104.105,169.113 Q104.487,170.695 104.584,171.122 Q104.838,172.24 104.97,173.072 Q105.306,175.199 105.016,176.638 Q104.609,178.659 102.18,179.665 Q101.284,180.037 99.939,180.342 Q99.477,180.446 98.787,180.583 Q97.719,180.793 97.682,180.801 Q97.621,181.936 97.733,183.211 Q97.787,183.825 98,185.422 Q97.066,188.818 91.673,189.461 Q87.965,189.901 84.127,190.112 Q79.743,190.353 75.731,190.259 Q71.181,190.154 67.399,189.623 Q63.167,189.029 60.048,187.922 Q59.191,185.847 58.306,183.28 Q57.557,181.11 56.699,178.321 Q56.118,176.433 55.169,173.204 Q55.099,172.968 54.98,172.562 Q54.81,171.983 54.791,171.919 Q54.567,171.156 54.414,170.637 Q53.983,169.179 53.656,168.092 Q50.658,168.407 47.548,167.857 Q44.907,167.389 41.937,166.242 Q39.813,165.422 36.705,163.903 Q36.24,163.675 35.442,163.281 Q34.542,162.836 34.195,162.666 Q32.739,161.951 31.736,161.494 Q31.124,161.213 29.936,160.782 Q28.608,160.3 28.106,160.088 Q26.052,159.221 25.532,158.128 Q25.037,157.089 24.96,154.603 Q24.951,154.28 24.926,152.368 Q24.908,150.944 24.848,150.037 Q24.831,149.77 24.8,149.296 Q24.767,148.781 24.752,148.556 Q24.696,147.691 24.655,147.08 Q24.544,145.411 24.449,144.141 Q24.202,140.859 23.913,138.281 Q23.181,131.762 21.775,126.383 Q21.239,124.331 19.97,121.158 Q19.938,121.078 19.459,119.888 Q19.151,119.123 18.953,118.617 Q18.382,117.157 18.011,116.033 Q17.696,115.076 17.094,113.477 Q17.004,113.238 16.842,112.81 Q16.662,112.337 16.587,112.137 Q16.286,111.34 16.082,110.779 Q14.883,107.489 14.588,105.532 Q14.14,102.552 16.612,100.939 Q17.258,100.518 18.977,99.705 Q20.593,98.94 21.374,98.385 Q24.169,96.399 27.724,94.319 Q28.393,93.927 29.287,93.414 Q29.462,93.313 30.896,92.493 Q32.994,91.294 34.356,90.487 Q34.686,90.291 35.887,89.634 Q37.164,88.936 37.878,88.521 Q40.375,87.072 40.684,86.449 Q41.294,85.225 40.116,83.115 Q39.824,82.591 39.086,81.472 Q38.457,80.516 38.266,80.103 Q36.599,76.492 36.372,73.117 Q30.637,72.223 27.259,67.336 Q24.682,63.606 23.791,58.429 Q22.787,52.599 24.679,48.144 Q24.745,47.989 25.411,47.12 Q26.011,46.336 26.1,45.895 Q26.274,45.037 25.92,43.367 Q25.487,41.332 25.468,40.767 Q25.238,34.069 26.772,29.69 Q28.521,24.692 32.505,22.931 Q33.313,19.753 35.222,17.205 Q36.874,14.999 39.551,13.026 Q41.545,11.556 44.895,9.694 Q45.479,9.369 46.32,8.911 Q46.525,8.799 47.039,8.519 Q47.504,8.267 47.761,8.126 Q49.527,7.163 50.658,6.508 Q52.538,5.418 55.172,4.367 Q56.16,3.973 57.55,3.465 Q57.994,3.303 58.761,3.027 Q59.647,2.707 59.984,2.585 C63.942,1.155 68.104,0.347 72.301,0.075 C74.098,-0.041 75.901,0.025 77.702,0 z M79.652,137 C73.753,137.086 76.308,136.99 71.984,137.205 Q67.199,137.494 61.996,138.167 Q57.452,138.755 52.94,139.588 Q54.33,152.194 56.386,162.349 Q58.604,173.303 62.048,183.719 Q79.426,188.927 94.544,184.302 Q93.962,181.543 93.658,177.95 Q93.435,175.311 93.299,171.218 Q93.276,170.531 93.245,169.508 Q93.243,169.462 93.219,168.652 Q93.204,168.14 93.193,167.796 Q93.13,165.738 93.072,164.384 Q92.905,160.5 92.585,157.727 Q92.34,155.609 92.194,152.852 Q92.14,151.821 92.084,150.407 Q92.066,149.955 92.037,149.182 Q92.003,148.287 91.99,147.956 Q91.872,144.928 91.733,143.037 Q91.534,140.328 91.186,138.087 Q87.158,137.26 82.012,137.059 L79.652,137 z M99.088,161.735 C97.809,161.892 98.387,161.782 97.347,162.031 Q95.686,162.472 95.068,162.432 Q94.964,164.89 95.228,169.694 Q95.275,170.542 95.343,171.669 Q95.367,172.066 95.403,172.643 Q95.411,172.767 95.418,172.884 Q95.425,172.999 95.433,173.123 Q95.451,173.409 95.462,173.598 Q95.606,175.921 95.659,177.104 Q97.418,177.106 98.859,176.729 Q99.392,176.589 100.153,176.328 Q100.231,176.301 100.822,176.094 Q101.246,175.946 101.544,175.847 Q101.622,174.145 101.383,172.194 Q101.2,170.698 100.769,168.65 Q100.647,168.07 100.389,166.91 Q100.134,165.762 100.013,165.187 Q99.594,163.191 99.43,161.775 L99.088,161.735 z M42.509,90.963 Q36.716,93.218 30.104,97.45 Q27.377,99.196 24.284,101.419 Q21.902,103.131 18.757,105.528 Q23.611,115.809 26.172,129.181 Q27.339,135.272 28.011,141.926 Q28.641,148.154 28.831,154.796 Q30.126,155.394 31.729,156.213 Q32.596,156.656 34.593,157.707 Q36.441,158.678 37.479,159.203 Q39.091,160.017 40.44,160.628 Q43.789,162.144 46.809,162.974 Q50.426,163.968 54.143,164.159 Q54.094,163.816 53.914,162.561 Q53.771,161.561 53.688,160.982 Q53.431,159.185 53.247,157.876 Q52.762,154.432 52.42,151.815 Q51.559,145.206 51.096,139.847 Q49.573,139.213 46.536,139.407 Q46.269,139.424 45.343,139.493 Q44.617,139.546 44.188,139.567 Q42.9,139.629 42.105,139.503 Q42.093,137.888 44.043,137.49 Q46.099,137.07 46.237,136.206 Q46.332,135.605 45.368,134.53 Q44.467,133.525 44.892,132.203 Q45.794,132.526 47.373,133.661 Q48.849,134.723 49.95,135.03 Q50.604,133.62 50.753,131.467 Q50.869,129.794 50.684,127.375 Q50.623,126.564 50.5,125.335 Q50.334,123.661 50.311,123.409 Q50.115,121.266 50.198,120.225 Q50.293,119.046 50.563,118.262 Q51.053,116.84 51.986,117.168 Q52.75,117.436 52.453,121.635 Q52.408,122.268 52.312,123.4 Q52.202,124.693 52.166,125.168 Q52.011,127.197 52.054,128.198 Q52.089,128.993 52.071,130.41 Q52.052,131.889 52.073,132.5 Q52.152,134.797 52.916,135.966 Q68.849,133.826 84.7,133.396 Q84.068,133.129 82.786,132.618 Q81.4,132.066 80.715,131.781 Q78.15,130.712 76.177,129.614 Q75.73,129.365 74.323,128.722 Q72.671,127.967 71.888,127.574 Q68.826,126.038 68.52,125.042 Q68.065,123.566 69.325,121.826 Q69.449,121.655 69.854,121.125 Q70.189,120.688 70.373,120.417 Q70.938,119.587 71.095,118.886 Q67.723,120.701 65.905,118.111 Q65.234,117.156 64.628,115.391 Q64.425,114.802 64.139,113.851 Q63.761,112.599 63.681,112.345 Q62.085,107.309 61.667,104.204 Q61.236,104.002 59.982,103.415 Q58.918,102.917 58.282,102.617 Q56.312,101.685 54.899,100.968 Q51.101,99.043 48.596,97.288 L48.596,97.288 Q48.379,97.135 47.441,96.056 Q47.203,95.783 46.534,95.003 Q45.902,94.268 45.534,93.846 Q42.89,90.815 42.509,90.963 L42.509,90.963 z M99.378,137.578 Q97.312,137.597 96.612,137.653 Q95.113,137.771 93.849,138.189 Q93.784,142.996 94.039,148.572 Q94.15,151.004 94.329,153.756 Q94.481,156.1 94.702,158.961 Q97.249,158.583 98.301,158.408 Q100.061,158.115 101.756,157.749 Q101.508,155.718 101.274,152.603 Q101.233,152.063 101.177,151.295 Q101.162,151.078 101.13,150.64 Q101.099,150.204 101.083,149.984 Q100.968,148.389 100.884,147.373 Q100.639,144.393 100.336,142.288 Q99.952,139.627 99.378,137.578 L99.378,137.578 z M125.203,130.527 C124.756,130.513 124.375,130.765 123.985,130.949 Q122.772,131.715 120.746,132.469 Q120.012,132.743 118.923,133.106 Q118.65,133.197 117.994,133.414 Q117.4,133.61 117.068,133.721 Q114.829,134.473 113.58,135.067 Q111.84,135.894 110.912,136.868 Q111.797,139.776 112.393,144.609 Q112.607,146.343 112.857,148.919 Q112.912,149.49 113.064,151.095 Q113.192,152.457 113.271,153.252 Q114.721,153.341 116.936,153.201 Q117.505,153.164 118.834,153.063 Q120.058,152.97 120.729,152.931 Q125.31,152.663 127.597,153.635 Q126.729,153.912 125.439,154.158 Q125.002,154.241 124.305,154.36 Q123.353,154.523 123.164,154.557 Q120.342,155.057 119.009,155.776 Q120.379,156.429 123.299,156.396 Q126.003,156.365 128.346,155.804 Q131.38,155.077 132.989,151.905 Q134.611,148.708 133.772,144.984 Q133.724,144.77 133.624,144.321 Q133.514,143.831 133.462,143.6 Q133.261,142.701 133.103,142.022 Q132.652,140.076 132.259,138.619 Q131.164,134.549 130.234,133.161 Q129.259,131.705 127.574,130.913 L126.589,130.558 C125.689,130.554 126.151,130.564 125.203,130.527 z M106.672,136.952 L105.546,136.956 Q105.312,136.969 104.528,137.028 Q103.915,137.074 103.566,137.081 Q103.755,138.942 104.125,141.427 Q104.267,142.377 104.47,143.657 Q104.54,144.101 104.65,144.781 Q104.672,144.922 104.695,145.063 Q104.701,145.098 104.706,145.133 Q104.712,145.169 104.718,145.204 Q104.729,145.275 104.74,145.345 Q104.8,145.716 104.831,145.91 Q105.286,148.748 105.521,150.446 Q105.867,152.945 106.033,154.951 Q107.151,154.985 108.435,154.516 Q110.134,153.895 110.581,153.81 Q110.658,149.101 110.063,145.103 Q109.307,140.016 107.57,137.068 L106.672,136.952 z M105.354,87.275 Q104.714,88.208 102.85,89.612 Q100.981,91.018 100.512,91.699 Q103.023,90.497 104.798,92.335 Q106.342,93.932 107.055,97.458 Q108.603,105.107 106.142,109.693 Q106.375,110.531 107.341,111.528 Q108.4,112.621 108.671,113.244 Q107.322,115.628 105.611,118.455 Q104.424,120.416 102.461,123.571 Q102.297,123.834 101.668,124.844 Q101.17,125.645 100.875,126.118 Q99.964,127.584 99.295,128.671 Q97.52,131.559 96.19,133.836 Q97.801,132.846 101.443,132.799 Q103.567,132.771 104.316,132.707 Q105.928,132.569 107.097,132.112 Q107.932,131.786 108.83,129.903 Q109.14,129.253 109.589,128.138 Q109.66,127.962 109.774,127.676 Q109.93,127.283 109.958,127.215 Q110.176,126.668 110.326,126.311 Q112.509,121.097 114.278,115.796 Q116.247,109.898 117.147,105.503 Q117.185,105.317 117.432,104.191 Q117.644,103.222 117.765,102.582 Q118.148,100.567 118.038,99.777 Q117.843,98.38 116.028,96.81 Q115.514,96.366 114.468,95.582 Q113.458,94.824 113.075,94.485 Q112.146,93.661 111.074,92.615 Q110.698,92.247 110.158,91.71 Q110.102,91.655 109.709,91.262 Q109.438,90.993 109.262,90.818 Q107.045,88.618 105.355,87.275 L105.354,87.275 z M81.331,113.02 Q81.02,113.226 80.561,113.527 Q80.493,113.571 80.174,113.779 Q79.937,113.934 79.786,114.033 Q78.851,114.645 78.247,115.059 Q76.502,116.255 75.361,117.274 Q72.347,119.964 71.594,123.184 Q76.371,125.851 80.958,127.902 Q86.224,130.256 90.941,131.66 Q90.561,130.779 89.89,129.192 Q89.155,127.458 88.84,126.724 Q87.601,123.832 86.658,121.862 Q84.066,116.446 81.331,113.021 L81.331,113.02 z M101.69,110.823 C98.729,110.91 99.969,110.617 97.905,111.351 Q97.667,117.182 97.07,122.034 Q96.32,128.137 95.108,131.654 Q97.831,128.232 100.954,123.164 Q102.06,121.368 103.644,118.67 Q103.922,118.198 104.308,117.537 Q104.445,117.303 104.64,116.971 Q104.861,116.593 104.971,116.404 Q105.779,115.023 106.301,114.141 Q105,112.079 102.923,111.202 L101.69,110.823 z M90.01,108.582 Q89.411,108.518 87.67,109.319 Q86.141,110.022 84.97,109.539 Q84.765,109.763 84.275,110.34 Q83.838,110.854 83.574,111.131 Q85.156,113.013 86.613,115.605 Q87.741,117.611 89.084,120.597 Q89.488,121.497 90.222,123.182 Q90.999,124.965 91.359,125.769 Q92.706,128.785 93.809,130.781 Q94.478,128.615 94.883,126.051 Q95.223,123.894 95.419,121.158 Q95.545,119.389 95.676,116.158 Q95.753,114.276 95.781,113.637 Q95.845,112.216 95.914,111.111 Q94.456,111.202 92.669,109.98 Q90.735,108.658 90.01,108.582 L90.01,108.582 z M67.154,95.979 C65.299,96.138 64.699,97.511 64.283,99.131 Q64.012,100.468 64.005,102.482 Q64.002,103.521 64.106,105.78 Q64.196,107.723 65.143,110.418 Q65.414,111.189 65.936,112.508 Q66.439,113.782 66.607,114.271 Q67.322,116.335 67.856,116.457 Q68.844,116.685 71.77,115.698 Q74.224,114.87 75.618,114.12 Q77.293,113.218 79.65,111.263 Q79.824,111.119 80.58,110.485 Q81.145,110.012 81.5,109.723 Q82.551,108.867 83.35,108.327 Q83.359,108.082 83.374,107.711 Q83.397,107.121 83.398,107.094 Q83.427,106.359 83.447,105.861 Q80.941,104.628 77.997,104.501 Q78.669,104.168 80.58,103.745 Q82.331,103.358 83.063,102.883 Q83.096,102.04 83.101,101.899 Q81.545,101.78 80.241,101.075 Q79.874,100.876 79.155,100.414 Q78.438,99.955 78.018,99.728 L78.018,99.728 Q73.001,97.022 67.823,96.047 L67.154,95.979 z M100.927,94.89 C99.358,95.043 97.99,95.787 96.643,96.542 Q95.96,96.949 95.049,97.551 Q94.765,97.739 94.288,98.059 Q93.759,98.414 93.562,98.544 Q91.894,99.653 91.184,99.902 Q91.26,100.119 91.408,100.451 Q91.593,100.866 91.643,100.99 Q91.906,101.641 91.927,102.235 Q94.227,101.676 96.41,102.735 Q96.176,102.76 95.3,102.837 Q94.612,102.897 94.207,102.956 Q92.988,103.134 92.374,103.57 Q92.187,104.103 92.256,105.313 Q92.334,106.703 92.226,107.349 Q97.279,108.756 104.003,108.951 Q105.221,107.388 105.042,103.723 Q104.919,101.185 104.412,98.886 Q103.739,95.834 102.706,95.24 C101.795,94.845 102.37,95.03 100.927,94.89 z M87.612,101.128 C85.537,101.501 86.407,101.155 84.934,101.969 Q84.829,103.112 85.053,104.182 Q85.081,104.317 85.299,105.234 Q85.474,105.97 85.586,106.6 Q87.743,107.266 88.931,106.152 Q89.96,105.185 89.773,103.575 Q89.586,101.959 88.359,101.353 L87.612,101.128 z M52.351,95.126 Q50.861,96.62 54.98,98.625 Q58.646,100.41 61.308,100.571 Q61.301,99.879 61.69,98.541 Q62.043,97.327 61.957,96.809 Q60.997,96.643 59.409,96.522 Q59.146,96.502 58.746,96.474 Q58.131,96.43 58.082,96.426 Q57.289,96.369 56.768,96.32 Q53.661,96.024 52.351,95.126 L52.351,95.126 z M93.542,95.054 Q92.296,95.164 90.205,95.645 Q89.888,95.718 89.332,95.85 Q88.699,95.999 88.449,96.058 Q87.402,96.301 86.668,96.444 Q82.349,97.286 79.825,96.176 Q79.819,96.292 79.665,96.349 Q79.5,96.411 79.479,96.492 Q83.033,99.234 88.385,98.973 Q88.953,98.566 89.676,97.994 Q89.747,97.938 90.936,96.983 Q92.516,95.715 93.542,95.054 L93.542,95.054 z M75.743,4.219 L73.841,4.305 Q69.735,4.63 66.682,6.132 Q63.76,7.57 61.215,9.07 Q58.121,10.891 55.641,12.769 Q49.506,17.413 47.375,22.183 Q48.396,24.545 48.482,27.222 Q48.549,29.33 48.015,32.163 Q47.839,33.099 47.496,34.634 Q47.068,36.551 46.949,37.124 Q46.33,40.1 46.255,42.221 Q46.212,43.462 46.478,44.922 Q46.652,45.875 47.106,47.566 Q47.611,49.45 47.785,50.272 Q48.114,51.829 48.162,53.157 Q47.481,54.266 45.465,54.685 Q43.948,55.001 41.922,54.894 Q41.24,51.525 40.198,49.734 Q38.73,47.21 36.232,46.94 Q32.448,46.531 29.69,49.148 Q27.094,51.611 26.906,55.143 Q26.668,59.589 29.627,64.045 Q32.892,68.963 37.219,68.541 Q38.342,68.431 39.94,67.151 Q41.449,65.943 42.823,65.956 Q43.643,67.57 42.215,69.086 Q42.042,69.27 41.612,69.687 Q41.219,70.067 41.022,70.285 Q40.383,70.991 40.266,71.62 Q40.128,72.356 40.795,75.096 Q42.823,83.367 46.915,89.157 Q49.037,92.157 53.582,93.434 Q55.465,93.963 58.02,94.28 Q59.866,94.509 62.873,94.706 Q63.676,92.999 66.452,92.685 Q68.633,92.438 71.277,93.051 Q68.985,92.154 66.376,89.908 Q64.586,88.367 62.063,85.62 Q60.656,84.09 59.836,83.103 Q58.656,81.683 57.871,80.448 Q55.932,77.397 55.829,74.519 Q56.009,74.766 56.361,75.249 Q56.715,75.735 56.889,75.972 Q57.502,76.812 57.935,77.399 Q59.113,78.992 60.027,80.158 Q62.37,83.143 64.478,85.2 Q69.708,90.305 76.63,92.597 Q82.039,94.388 88.841,92.454 Q94.439,90.862 99.688,87.224 Q101.278,86.12 102.848,84.008 Q103.361,83.319 104.164,82.12 Q105.138,80.667 105.466,80.203 Q110.378,73.229 112.761,63.547 Q115.071,54.163 114.549,44.173 Q114.512,43.466 114.453,42.155 Q114.391,40.775 114.36,40.158 Q114.242,37.849 114.08,36.312 Q113.638,32.132 112.446,29.774 C111.793,28.619 112.168,29.13 111.349,28.221 C110.24,29.459 110.885,28.843 109.365,30.018 Q106.46,32.052 103.777,32.03 Q102.305,32.018 101.332,31.398 Q100.187,30.667 100.923,29.592 Q105.34,29.885 108.234,27.895 C109.532,26.85 109.003,27.397 109.883,26.315 L110.159,25.003 L109.366,23.671 L108.068,21.765 Q107.507,20.819 106.72,19.795 Q105.848,18.663 105.471,18.179 Q103.973,16.258 102.843,14.977 Q99.693,11.404 96.724,9.75 Q89.979,5.994 81.894,4.701 C78.438,4.239 80.483,4.452 75.743,4.219 z M45,23.244 Q37.181,23.83 32.261,29.176 Q30.031,31.598 29.69,36.49 Q29.562,38.328 29.685,40.738 Q29.732,41.643 29.822,42.795 Q29.844,43.077 29.982,44.726 Q34.564,41.881 39.438,44.257 Q44.28,46.617 44.222,51.525 Q46.086,51.477 45.806,49.401 Q45.715,48.725 45.337,47.496 Q44.875,45.994 44.788,45.622 Q44.217,43.167 44.47,39.938 Q44.568,38.696 44.808,37.062 Q44.895,36.466 45.03,35.626 Q45.066,35.397 45.145,34.909 Q45.221,34.441 45.261,34.194 Q45.836,30.593 45.867,28.569 Q45.914,25.542 45,23.244 L45,23.244 z M56.874,7.703 L56.614,7.723 Q50.21,9.514 44.539,13.226 Q38.086,17.449 35.868,22.237 Q36.982,22.077 39.166,21.3 Q41.15,20.594 42.44,20.514 Q42.756,20.493 43.97,20.649 Q45.004,20.781 45.602,20.634 Q46.837,20.332 48.515,17.654 Q48.765,17.254 49.178,16.561 Q49.651,15.768 49.82,15.493 Q50.555,14.296 51.042,13.765 Q51.796,12.94 53.472,11.74 Q55.053,10.609 55.698,9.827 Q55.903,9.73 56.357,9.589 Q56.814,9.446 57.017,9.351 Q57.732,9.014 57.761,8.261 C57.293,7.829 57.576,8.033 56.875,7.703 z" fill="#231F20"/>
    <path d="M92.515,114.059 Q92.515,115.457 91.098,115.457 Q89.682,115.457 89.682,114.059 Q89.682,112.66 91.098,112.66 Q92.515,112.66 92.515,114.059" fill="#1D1919"/>
    <path d="M93.932,120.542 Q93.932,121.94 92.515,121.94 Q91.098,121.94 91.098,120.542 Q91.098,119.143 92.515,119.143 Q93.932,119.143 93.932,120.542" fill="#1D1919"/>
    <path d="M69.194,60.354 Q69.597,61.394 67.978,62.326 Q66.04,63.365 63.668,63.536 Q61.003,64.255 59.268,63.565 Q56.942,63.198 56.86,62.051 Q56.457,59.943 58.076,59.011 Q60.897,58.167 63.269,57.997 Q65.641,57.826 67.376,58.516 Q69.111,59.207 69.194,60.354 L69.194,60.354 z" fill="#FFB570"/>
    <path d="M112.948,53.951 Q111.739,54.154 110.119,54.271 Q108.891,54.476 107.702,53.953 Q106.464,53.973 106.402,53.116 Q105.996,51.629 107.098,50.941 Q108.2,50.252 109.82,50.136 Q111.596,49.43 112.785,49.952 C112.785,49.952 114.22,50.726 114.31,51.973 C114.399,53.22 112.948,53.951 112.948,53.951 z" fill="#FFB570"/>
    <path d="M64.005,46.967 L67.222,55.547 C67.222,55.547 68.409,56.025 70.222,55.996 C72.034,55.967 73.302,55.592 74.2,55.155 C75.097,54.717 76.659,53.028 77.284,51.779 C77.909,50.53 78.01,48.636 78.167,47.316 C78.325,45.995 78.425,42.717 78.167,41.842 C77.909,40.967 77.472,39.717 77.472,39.717 L72.159,37.655 L66.847,41.28 L64.005,46.967 z" fill="#FFFFFF"/>
    <path d="M68.866,40.048 C70.477,40.048 71.85,40.866 72.954,42.452 C74.03,43.999 74.566,45.86 74.566,48.022 C74.566,50.184 74.03,52.046 72.954,53.592 C71.85,55.179 70.477,55.996 68.866,55.996 C67.256,55.996 65.883,55.179 64.779,53.593 C63.703,52.046 63.167,50.184 63.167,48.022 C63.167,45.86 63.703,43.999 64.779,42.452 C65.883,40.866 67.256,40.048 68.866,40.048 z" fill="#231F20"/>
    <path d="M72.719,46.758 Q74.389,46.146 75.433,46.396 Q76.072,46.889 76.283,47.612 Q76.429,48.684 75.683,49.456 Q75.001,49.879 73.736,50.248 Q72.47,50.616 71.426,50.366 Q70.382,50.116 70.172,49.393 Q69.961,48.67 70.707,47.898 Q71.453,47.126 72.719,46.758 L72.719,46.758 z" fill="#FFFFFF"/>
    <path d="M77.746,40.081 Q72.766,38.991 69.254,41.5 Q66.587,43.404 64.584,47.6 Q63.287,47.305 63.308,45.78 Q63.322,44.801 63.892,43.331 Q64.963,40.564 68.213,38.196 Q71.743,35.625 74.785,36.056 Q76.454,36.292 77.487,37.353 Q78.703,38.602 77.746,40.081" fill="#231F20"/>
    <path d="M79.691,72.061 C80.441,72.498 80.816,72.717 81.159,73.592 C81.503,74.467 81.847,76.155 82.003,77.155 C82.159,78.155 83.097,80.405 83.097,80.405 C83.097,80.405 85.132,80.921 87.197,81.187 C92.027,81.51 96.379,80.53 101.016,77.655 C101.016,77.655 102.222,76.78 102.347,77.155 C102.472,77.53 102.046,78.405 100.097,79.726 C98.267,80.967 92.371,83.538 87.063,83.182 C80.972,82.373 76.566,79.186 74.666,76.679 C74.316,76.03 74.441,74.954 74.441,74.954 C74.441,74.954 74.582,73.689 75.034,73.03 C75.487,72.37 76.503,71.873 77.503,71.748 C77.503,71.748 78.941,71.623 79.691,72.061 z" fill="#231F20"/>
    <path d="M75.191,75.271 C75.191,75.271 75.034,74.248 75.691,73.405 C76.191,72.905 76.152,72.905 77.253,72.561 C77.985,72.416 78.891,72.498 79.479,72.905 C80.066,73.311 80.534,73.717 80.816,74.748 C81.097,75.78 81.347,77.123 81.441,77.655 C81.534,78.186 82.197,80.092 82.135,80.061 C82.072,80.03 78.288,78.123 77.038,77.155 C75.788,76.186 75.191,75.271 75.191,75.271 z" fill="#EA6B66"/>
  </g>
</svg>
