<svg xmlns="http://www.w3.org/2000/svg" xmlns:xlink="http://www.w3.org/1999/xlink" width="96" height="96" viewBox="0 0 94 96"><mask id="a" fill="#fff"><path fill="#fff" fill-rule="evenodd" d="m0 .06105838h84.5294935v84.52968642h-84.5294935z"/></mask><mask id="b" fill="#fff"><path fill="#fff" fill-rule="evenodd" d="m.52611009.12162145h68.04432981v94.76072655h-68.04432981z"/></mask><mask id="c" fill="#fff"><path fill="#fff" fill-rule="evenodd" d="m.02527219.12166662h25.34723441v25.34742738h-25.34723441z"/></mask><g fill="none" fill-rule="evenodd"><path fill="#7fddff" d="m82.8569954 47.7337513c0 22.4179754-18.1737909 40.5917664-40.5927309 40.5917664-22.4179755 0-40.59176643-18.173791-40.59176643-40.5917664 0-22.4179755 18.17379093-40.5917664 40.59176643-40.5917664 22.41894 0 40.5927309 18.1737909 40.5927309 40.5917664"/><path fill="#241f20" d="m42.2651326 3.40624744c-21.4611048 0-38.92013646 17.45999626-38.92013646 38.92013646s17.45903166 38.9191719 38.92013646 38.9191719c21.4601402 0 38.9191719-17.4590317 38.9191719-38.9191719s-17.4590317-38.92013646-38.9191719-38.92013646m0 81.18449736c-23.3053959 0-42.26532552-18.9599297-42.26532552-42.2643609 0-23.3053959 18.95992962-42.26532552 42.26532552-42.26532552 23.3053958 0 42.2643609 18.95992962 42.2643609 42.26532552 0 23.3044312-18.9589651 42.2643609-42.2643609 42.2643609" mask="url(#a)" transform="translate(0 5.407657)"/><path fill="#fefefe" d="m46.569025 77.9354647c-.2681552-.0154334-.5363105-.0395481-.8054304-.0463002-2.693128-.0704149-5.3804685.0289376-8.0600922.2768365 3.4377894-.1707319 6.4010019-.2305363 8.8655226-.2305363"/><path fill="#e9eff2" d="m25.5497013 80.6050567c.9404727.2131738 2.0217752.3819766 3.2111114.5112313-.0009646-.0067521-.0019292-.0125396-.0019292-.0192917-1.070692-.1610861-2.1452423-.3028805-3.2091822-.4919396"/><path fill="#e9eff2" d="m17.3945008 88.3207912c2.0005542 1.0938421 4.0020731 2.1828613 6.099086 3.0915026-2.136561-1.0581524-4.2142823-2.1992593-6.0932985-3.1214048-.0028937.0096459-.0038583.0202563-.0057875.0299022"/><path fill="#e9eff2" d="m44.1369144 74.2759166c-2.8677183-4.6174799-5.7315782-9.2368888-8.6079778-13.8485811-.3626849-.5806816-.6482027-1.2240614-1.2124864-1.6619841-2.7268885-2.113411-5.3515308-4.3416078-7.8324495-6.7405367-.463002-.4494977-.949154-.8758453-1.5356232-1.4140851.0472648.2343948.0578753.3096326.0781316.3829412 1.0716566 4.0165419 2.9825042 7.6511072 5.0881985 11.2007888.2768366.4658957.5459564.5285938 1.0031709.3279597.8652348-.3800475 1.7449385-.7263343 2.615961-1.091913.3800474-.1601215.4813291-.0983879.3983745.3433932-.3819766 2.0265981-.7272988 4.0589837-1.0938421 6.0884755-.0569106.3173493-.0125396.5691066.2536865.7880679.5777879.474577 1.1382131.9713395 1.7073197 1.456527 2.1732154 1.8520078 4.3445016 3.7059447 6.5215753 5.5531296.2054571.1736257.4099497.3568973.7244051.3512434.827616-.015567 1.6561966-.0136378 2.4847772-.0020628.4012683.0057875.3752244-.1630153.2122092-.425383-.2700845-.4350289-.535346-.8729516-.8054305-1.3079805"/><path fill="#fff" d="m17.3945008 88.3207912c.0019292-.0096459.0028938-.0202563.0057875-.0299022-.3096325-.1514402-.612513-.2961283-.9105705-.4340643.1321485.1880945.3829412.2806949.904783.4639665"/><path fill="#fff" d="m17.8519081 84.12146c.0694503-1.9040955-.1630152-3.7985451-.3241013-5.6968531-.1697674-1.9928375-.4321352-3.9712063-.7523782-5.9408937-.624088-3.8284473-1.4218018-7.6240987-2.2947534-11.4033521-.1118921-.4832583.0289376-.7128301.4668603-.9038184 2.4153268-1.054294 4.8132911-2.1471715 7.2334408-3.190855.8816329-.3790829 1.711178-.8903142 2.6574383-1.1140985-.3723308-1.0774441-.778422-2.1442777-1.0986651-3.2381198-.1350422-.4562499-.3231367-.4533561-.6578486-.2913054-.7263343.3511098-1.4555623.6973967-2.1770737 1.0571878-3.5091689 1.7507261-6.6546884 4.0531962-9.7587306 6.4202936-.3048096.231501-.4003037.4398519-.2179967.8353327.6183005 1.3407765 1.1468944 2.7191718 1.622436 4.1178235 1.4526686 4.2769805 2.3728849 8.6716406 2.9738229 13.1444324.39741 2.9661062.5922566 5.944752.7871033 8.925327.0356897.551744.0491939.8285806.1784486 1.0137814.297093.1389006.600938.2826241.9105705.4340643.3202431-1.3706787.4012684-2.7731887.4514269-4.1689467"/><path fill="#00aa8e" d="m52.0080439 66.5017281c-.2257134-.8613766-.4552852-1.7208239-.6916091-2.6121027-1.2636095.9636228-1.4208372.9674812-3.240049.0926004-.0569107 1.3687495-.1032109 2.6854113-.1678382 4.0020731-.126361 2.5793067-.1610861 5.1595779-.0887421 7.7417783.0096459.3462869.0626982.5247356.4851875.5276293 1.8124597.0135043 3.6239548.060769 5.4364145.1138214.3916225.0106104.4822937-.0665566.408985-.4890458-.5498148-3.1648113-1.330166-6.2736764-2.1423486-9.376754"/><path fill="#7fddff" d="m46.127244 56.9095817c-3.0008313.1688028-5.9871939.0376189-8.9214687-.6742466-1.9040955-.4630019-3.6471049-1.3378827-5.3901143-2.2031176-.2015988-.1012816-.3954809-.271049-.6983613-.1070692.8874204.738874 1.760372 1.4661729 2.6333236 2.190578 3.0558128 2.5359002 6.2997202 4.7824243 9.9024541 6.4829918.4080204.1929175.5951504.1678382.7793866-.2845533.6665299-1.6397985 1.3687495-3.2631991 2.0767566-4.8846705.1996696-.4543206.1360069-.5488502-.3819766-.5199126"/><path fill="#f5d5b3" d="m73.7617081 80.1764905c-.0009646 1.2751846-.3327827 2.4876709-.7485199 3.675078-.4340643 1.2394948-.458179 1.1883716-1.7459031 1.1681153-2.3574516-.0385835-4.7023635-.2951637-7.0578859-.3617203-.3839058-.011575-.5064084-.1639798-.5257002-.5343814-.0260438-.507373-.1032108-1.0118522-.1832716-1.5144022-.2913054-1.8172826-.5922566-3.6326361-.8903141-5.4489541-.8430494.4736124-.8382265.4755416-.6192651 1.3552452.1099629.4388873.1977404.8835621.2816595 1.3282369.4215247 2.2320552.5662128 4.4969064.7871033 6.7521117.0366543.3771537.1697674.4321351.5015854.4311705 1.2047697-.0057875 2.4037518-.0964587 3.6046631-.1784486 1.2404594-.0839191 2.4703083-.0665566 3.7676783.364614-1.5520211.5160543-3.1677049.4089851-4.6406299 1.2703616 1.6397986.4437102 3.1368382.2363239 4.6348424.0067521 2.0497482-.3134909 3.106936-1.634011 3.5554691-3.5381065.4205601-1.7844867-.1755549-3.4647979-.6096192-5.1566842-.126361.1012817-.1118921.2440406-.1118921.381012"/><path fill="#7fddff" d="m44.5311413 64.8937609c-2.0593941-.9462602-4.0647713-1.9899438-6.0016627-3.167705-.0270085.0318314-.0540169.0626982-.08199.093565.049194.1070692.0858483.2189613.1475819.3183138 2.0574649 3.3094994 4.1158944 6.6189987 6.1752884 9.928498.3954809.6346985.7919263 1.2674678 1.2809721 2.0507128-.0405127-4.0638067.2498281-7.9289083.3048096-11.8036559-.3877641.7543074-.7379093 1.5047564-1.0195689 2.2783554-.1726611.4736125-.364614.5044792-.8054304.3019159"/><path fill="#e9eff2" d="m39.6304586 76.2983669c-.2691199-.2208905-.4224893-.3404993-.5710357-.4668603-1.6446215-1.4034746-3.2853847-2.8117722-4.9338645-4.2133177-.9877375-.8401556-1.9860854-1.666807-2.9796104-2.5002105-.0077167 2.6854113-.0154334 5.369858-.0221856 8.0543047 2.7674013-.3655786 5.5492713-.5990088 8.5066962-.8739162"/><path fill="#e9eff2" d="m61.1052605 64.045985c.0752378-.2507927.0520877-.4456393-.0559461-.6723174-.4649311-.9790562-.916358-1.9638999-1.3697141-2.9487436-.3520744-.766847-.3501452-.7697407.4456394-.9028538.2324656-.0385835.4687895-.0945296.7002905-.0858483.4803645.0154334.6009379-.1688028.4273122-.6096192-.2681553-.6771404-.5160543-1.362962-.7726345-2.0458899-.3173493-.8430493-.6346985-1.6860987-.9616936-2.5561565-.2170322.1118921-.2025634.2179967-.2093155.3125263-.1813424 2.4703083-.4398519 4.9338645-.7051134 7.3974207-.2160676 2.0121292-.4012683 4.0290815-.6163713 6.0421753-.2691199 2.5204669-.556567 5.0409337-.8362973 7.560436-.0144688.1282901-.1176797.2835887.0829545.3462868.1726612.0549815.3134909-.0183271.3839058-.1861653.0598044-.1446881.1041754-.2970929.1485465-.4485332 1.1112046-3.7348823 2.2175864-7.4707293 3.3384369-11.2027179"/><path fill="#7fddff" d="m57.0500387 58.4863927c-.3212076.9694103-.6472382 1.9378561-.9549415 2.9120893-.1215381.385835-.2305364.5189481-.6067255.1861654-.6973967-.6163713-1.4410936-1.1796904-2.2079405-1.7999201-.1620507.4388873-.2662262.8198993-.4388873 1.1681154-.2517573.50255-.2488635.9790562-.10514 1.5211543.6935383 2.6217485 1.3571744 5.2502491 2.0111647 7.8816435.271049 1.0919129.4919395 2.1954009.7350156 3.2950305.0463002-.0019292.0916358-.0048229.1369714-.0067521.5584961-5.2000906 1.1160276-10.4001812 1.6735591-15.6002718-.1234672.1360068-.1909883.2864825-.243076.4427456"/><path fill="#e9eff2" d="m62.0386917 55.8752547c-.0231501.1861653.065592.3414639.1292547.5073729.4755416 1.2491407.9414373 2.5021397 1.4208372 3.7493512.1745904.4523915.2015988.7678116-.4437102.7350156-.2884116-.0144688-.5816461.0926004-.8739161.1022463-.3646141.0125396-.3906579.1591569-.2498282.4475685.2835887.58454.5449919 1.1796904.8305098 1.7623012.1292547.2642969.1408297.5083375.0549815.79482-.9038184 3.0104772-1.8018493 6.021919-2.6844467 9.0391484-.1919529.6539902-.4408165 1.3002638-.5411336 2.1191984.5700712-.4678248.7707054-1.0070292.9906313-1.5172959 1.7632657-4.1052839 3.2776679-8.2964161 4.2692638-12.6621386.2035279-.8970663.5363105-1.7690533.5247355-2.7085614-.9395081-.6838925-1.88191-1.362962-2.8156306-2.0555357-.1900237-.1398652-.3675078-.2864825-.6115484-.3134909"/><path fill="#7fddff" d="m61.4372715 82.9459174c-.2015988-1.6031443-.5160543-3.1792801-1.2713262-4.6319487-.1080338-.2083508-.1929175-.425383-.4996563-.4167017-.5314876.0135042-1.0629753.0067521-1.5944629-.0019292-.2527219-.0048229-.3578619.0858483-.3134909.3482161.0395481.2315009.0434064.469754.0790962.7031842.3443577 2.3333369.6935383 4.6657092 1.0417543 6.999046.8961017-.3144554 1.793168-.6279463 2.6902343-.9424018.0472647-.6916092-.0463002-1.3755016-.1321485-2.0574649"/><path fill="#00aa8e" d="m49.4684783 62.7734049c.2208905.1446881.4012683.1244318.5623544-.0868129.8777745-1.1517173 1.2829012-2.5146793 1.7295052-3.8573849.0762024-.2498282-.0964587-.3646141-.2498281-.4900104-.5816462-.4716832-1.1603987-.9462602-1.7449386-1.4140851-.4562498-.3646141-1.0687628-.2295718-1.3060513.3077034-.4215247.9539769-.8198993 1.9185643-1.2269552 2.8792933-.0694503.1620507-.149511.3154201-.0038583.4919396.6665298.806395 1.3542807 1.5877108 2.2397719 2.169357"/><path fill="#7fddff" d="m50.9459368 55.6708586c1.4063684 1.1411069 2.7384636 2.2204802 4.1265048 3.3461536.8121826-2.5754483 1.6320819-5.0418982 2.1847904-7.6173465-1.5578086 2.2040821-3.9335873 3.1599882-6.3112952 4.2711929"/><path fill="#fff" d="m30.3773647 68.1492433c-.0810253-.0704149-.1466173-.1572277-.2073863-.2488635-.0511231-.0762024-.0983879-.1533694-.149511-.2286072-.1331131-.198705-.2864825-.3752245-.5768233-.4031976.0038584.6279464.08199 1.2665033-.0019291 1.8828746-.2884117 2.124986-.3607557 4.2567242-.3327827 6.3971436.0048229.3983746.077167.7803512.154334 1.1632924.0848837.4244184.2980575.7147592.8131472.6067254.3443577-.0713794.6983612-.0993525 1.0465773-.1466173.0077167-2.6844467.0154334-5.3688934.0221855-8.0543046-.0135042-.1080338-.0279731-.2179968-.0424419-.3269952-.348216-.0974233-.4832582-.4311705-.7253697-.6414506"/><path fill="#e9eff2" d="m30.0208532 67.6716761c-.133113-.198705-.2864824-.3752245-.5777878-.4031975.2903408.027973.4446748.2044925.5777878.4031975"/><path fill="#e9eff2" d="m30.0208532 67.6716761c.0501586.0752378.0983879.1524048.1485465.2286072-.0501586-.0762024-.0983879-.1533694-.1485465-.2286072"/><path fill="#fff" d="m62.6505295 56.1889385c.9337206.6925737 1.8761225 1.3716432 2.8156306 2.0555357.0819899-1.042719.0376189-2.0275627-.9105705-2.7471449-1.3407765-1.0176397-2.6072797-2.1269152-3.8072264-3.3085347-.0144688.0144688-.0289377.0289376-.0443711.0434064.297093 1.2684324.8343681 2.450052 1.334989 3.6432466.2440406.0270084.4215247.1726611.6115484.3134909"/><path fill="#fff" d="m24.7612476 80.4684711c.2604386.0569107.5257001.0897067.7880679.1369714-.4658957-.1061046-.9009246-.2208905-1.2906179-.3491806.1581923.0945296.3221721.1736257.50255.2122092"/><path fill="#009de7" d="m58.8788964 85.9460735c.0636627.5459565.1340776 1.0919129.1861653 1.638834.0212209.2199259.0366543.3626848.3356764.3385702.7379094-.0626982 1.3812892-.4437102 2.0941192-.5835754.1716966-.0337606.1649445-.1977404.1630153-.336641-.0067521-.6684591.0289376-1.3369181-.088742-2.0005542-.8970663.31542-1.793168.6289109-2.6902342.9433664"/><path fill="#003676" d="m60.7482667 52.1883123c-.0221855-.0212209-.0598044-.0646274-.0646273-.060769-.065592.0453356-.0183272.0752378.0212209.10514.0144688-.0154334.0289376-.0289376.0434064-.044371"/><path fill="#fbe4ca" d="m72.7160953 76.0986009c-.3134909-.6520611-.8121826-1.1603986-1.4381998-1.528871-.7861387-.4620374-1.5655253-.5411335-2.3863892-.0299022-.8035013.4996562-1.7082842.7861387-2.5976338 1.1005942-1.2539636.4437102-2.5619441.7572011-3.6837592 1.5201897.2980575 1.8153535.5990087 3.6307069.8903141 5.4489542.0800608.50255.1572278 1.0070292.1832716 1.5134376.0192918.3704015.1417944.5228063.5257002.5343814 2.3555224.0665565 4.7004343.3241013 7.0578859.3617202 1.2877241.021221 1.3118388.0713795 1.7459031-1.1681153.4157372-1.1864425.7475553-2.3989288.7485199-3.6741133 0-.1369714-.0144689-.2797304.1118921-.3810121-.2170322-1.2848304-.5922567-2.5243251-1.1575049-3.6972634"/><path fill="#6e848f" d="m19.4537019 25.0885191c3.3181807-1.6214714 7.3868103.6231234 7.3462976 4.0773108 1.6205068-.0434064.6057609-2.0246689.3125263-3.300818-.8623411-3.7541741 1.1276027-7.7977244.4408164-11.3493352-9.023715 1.3571745-8.5211649 8.2954515-8.0996403 10.5728424"/><path fill="#6e848f" d="m24.7236287 12.0373623c.3443577-.1012816.7002904-.1832716 1.0928775-.2093154.5044792-.032796 1.1652215.2122092 1.7449386.0684857 1.1555757-.2864825 2.1298089-2.87736419 3.0017959-3.84098698.6973967-.77359909 1.5018626-1.19415919 2.157782-1.79123878-4.5268086 1.74397399-6.8929415 4.22682196-7.997394 5.77305546"/><path fill="#cdd4d8" d="m32.7210227 6.26401746c.1417943-.13021929.2864824-.25658024.4118788-.40994964.4485331-.21606757 1.1121693-.20159876 1.1372485-.87584534-.193882-.20835088-.3993391-.36654321-.6318047-.30095127-4.2519012 1.20573424-9.7008553 4.29530763-11.4477231 8.11507369.9539769-.1389006 1.7063551-.5141251 2.5330065-.7552719 1.1044525-1.545269 3.4705854-4.02811696 7.997394-5.77305554"/><path fill="#cdd4d8" d="m19.4537019 25.0885191c-.4215246-2.2773909-.9240747-9.2156679 8.0996403-10.5728424-.0762024-.392587-.1755549-.7813158-.3241013-1.1603986-2.9072664.2199259-5.2965494 1.4082976-7.0289483 3.3152868-1.8780517 2.0671108-1.4854646 5.9389646-1.257822 8.6938262.1678382-.1051401.3395348-.1909884.5112313-.275872"/><path fill="#fbe4ca" d="m52.9735959 33.8498663s0-1.1603986-1.1603986-1.4912521c-.6771404-.1938821-1.070692 1.1912654-1.2819366 2.3796371.100317.2565802.1639798.546921.2276426.8430493.750449-.7793866 2.2146926-1.7314343 2.2146926-1.7314343"/><path fill="#fbe4ca" d="m59.559895 23.1169989c-.2160675 2.064217 2.5580858.425383 2.985398.2845533l-.1022463-.6771404c-.2353593-.6385568-.4234538-1.3205201-.4813291-2.1230568-.5150896.1475819-2.2185509.7639532-2.4018226 2.5156439"/><path fill="#fbe4ca" d="m41.7922919 23.1169989c0 1.8905913 3.2033947 1.8549015 4.3772975 1.1160276-.5729649-1.0620107-1.1189214-2.3381598-1.2057342-3.427179l-.044371-.10514s-3.1271923.4263476-3.1271923 2.4162914"/><path fill="#fbe4ca" d="m42.7874567 6.0596214c6.6614404-1.3156972 11.2191158-.69932586 14.1244531.52570012-.3675078-.28358869-.7436969-.54885022-1.1420715-.77359908-4.0088252-2.26292201-10.536188-4.00400224-15.2182952-2.54940446l-2.0420315.87488075c-2.9091956 1.50475633-6.391356 3.67604253-8.5452797 6.34794957l-1.4246955 2.2764263c.8652349 2.0275626.6752111 3.9654187.2864824 5.916779 1.3484932-3.7281303 5.0447921-10.85546646 13.9614379-12.6187322"/><path fill="#fbe4ca" d="m56.8597256 13.7358078s0 .568142.2835887 1.1372485c0 0 .2073863-.2343947.5488502-.5536731.0839191-1.7053905 2.0159876-2.6796238 4.2682992-2.0102001-.5179834-.6684591-1.0456127-1.3745371-1.5915692-2.0767567-1.1960884.1581924-3.4059581.811218-3.5091689 3.5033814"/><path fill="#fbe4ca" d="m35.489485 18.9110121c-.1649445-.551744.0684857-1.3388473.2450051-1.8221056.6935384-1.9060247 3.487948-4.4448187 5.7711264-4.1014256.3019158.0453356.6327693.1697674.9308268.3453223-.6973967-1.2626449-2.1095526-2.3593807-4.9078206-.4504623-3.1271923 2.1327027-2.842639 5.1181007-2.2744971 5.6862426.1003171.1003171.1726612.219926.2353594.3424286"/><path fill="#fbe4ca" d="m40.9859933 39.6816652c-.3549682.4726478.3800474 3.0509899.3800474 3.0509899l.7109009.1427589c-.1417944-2.8445682 1.5635961-3.1291215 1.5635961-3.1291215-1.4391643-.6916091-2.4674145-.3144555-2.6545444-.0646273"/><path fill="#fff" d="m55.59274 78.661799c-.0424418-.203528-.0829545-.4157372-.3916224-.418631 0 0-3.0114419-.3077033-8.6320926-.3077033-2.4645207 0-5.4277332.0598044-8.8655226.2305363-3.8091556.1900238-8.1922407.5160543-13.1106718 1.0494711-.1861653.0125396-.3713661.0347252-.5556023.0781316-.1639799.0385835-.3048096-.0540169-.3993392-.198705-.1562631.0067521-.3183138-.0086813-.4678249.0260439-.1398651.0308667-.2044925.1639798-.0675211.254651.3983746.2652616.7514136.6375923 1.1565403.8806683.3887287.1282901.8247222.243076 1.2906179.3491806 1.0639399.1890592 2.1384902.3298889 3.2091822.490975 0 .0067521.0009646.0135042.0019292.0202564.3752245.0405126.7610595.0781315 1.1555757.1109275 5.8955581.5015854 13.7878121.2093155 19.3399771-.121538.68968-.0414773 1.3427056-.0819899 1.9513603-.1234672.4369581-.0289376.8498015-.0569107 1.2375656-.0858483 2.1635695-.154334 3.5246023-.2797303 3.5246023-.2797303-.1244318-.6510965-.2411468-1.3050867-.3771537-1.9552186"/><path fill="#e9eff2" d="m56.7024014 88.7682633c-.0115751-.2932346-.0848837-.5826108-.10514-.8758454-.1688028-2.428831-.2787658-4.8615204-.6269819-7.274918 0 0-1.3610328.1253963-3.5246023.2797303-.3877641.0279731-.8006075.0559461-1.2375656.0858483-.6096192.0414773-1.2616803.0819899-1.9513603.1234672-5.552165.3298889-13.4444189.6221588-19.3399771.121538-.3954808-.0337606-.7803512-.0713795-1.1555756-.1118921-1.1903009-.1292548-2.2706388-.2980575-3.2111115-.5112314-.2623677-.0472647-.5285938-.0800607-.7890324-.1360068-.1794133-.0395481-.3443577-.1186442-.5015855-.2122092-.4051267-.243076-.7581657-.6163713-1.1565403-.8806683-.1379359-.0916358-.072344-.2247488.0665566-.2556156.1504756-.0337606.3125263-.0183272.4687894-.0250793.0858483-.9144289.832439-.9298623 1.472925-1.0639399.8845266-.1842362 1.098665-.7514136.5064084-1.4266247-.1958113-.2228197-.4080205-.4244185-.4755416-.7292281-.0482294-.215103-.1225026-.4543207.0684857-.6076901.1929175-.1533694.3665432.0453356.5218418.1446881.5449918.3511099 1.0861254.7109009 1.6214714 1.0764796.4003037.2729782.6375922.254651.7880679-.2797304.3559327-1.2558928.3009512-2.5310773.2218551-3.8052972-.0762025-1.2308135-.2208906-2.4596978-.2961284-3.6914759-.027973-.4649312.0540169-.9414373.2372885-1.3812892.1032109-.2507927.2170322-.5237709.5488502-.5556023.3568974-.0347252.4359935.2778012.5893629.4929041.2913054.0279731.4446748.2044926.5777879.4031976.0501585.0752378.0983879.1524048.1485464.2286072.0617336.0916358.1273256.1784486.2073863.2488635.2430761.2102801.3771537.5440273.7263343.6414506.264297-1.4227664.5218418-2.8464973.799643-4.2673346.0781316-.4003037-.1070692-.408985-.3839058-.3057742-.3501452.1292547-.7118655.2450052-1.0330731.4273122-.5420981.3096326-.8295451.159157-1.1526819-.3665432-1.6639133-2.7143489-3.1869967-5.502971-4.4949772-8.406379-.9462603.2237842-1.7758054.734051-2.6574383 1.1140984-2.4191852 1.0436836-4.818114 2.1365611-7.2334408 3.1898905-.4379227.1919529-.5787524.4215247-.4668603.904783.8729516 3.7792533 1.6706654 7.5739401 2.2947534 11.4023875.320243 1.9696874.5826108 3.9490207.7523782 5.9408937.161086 1.8983079.3935516 3.7937222.3241013 5.6978177-.0501585 1.3957579-.1311839 2.798268-.4514269 4.1689466 1.8790162.9221456 3.9567375 2.064217 6.0932985 3.1214048 1.1382132.4938688 2.3053639.8594474 3.4947001 1.1449652 1.0407898.1716966 2.1028005.2122093 3.2583762.1678383.4794-.0192918.9809854-.0540169 1.4989688-.0974234 2.1568174-.1794132 4.6830718-.5334168 7.9809961-.7928908 3.3394015-.2633324 6.7820139-.7041488 9.6883157-1.131461.8440139-.1244318 1.6397985-.2469344 2.3748141-.3636495.4369581-.0694502.8517307-.1379359 1.2404594-.2015987 2.1886488-.3636495 3.5950172-.6327693 3.5950172-.6327693.0964587-.1225026.093565-.3308535.077167-.7369448"/><path fill="#fbe4ca" d="m29.3228778 47.3013268c-1.8182472-4.1901676-2.2233739-8.3465747-2.312116-8.9764502.004823.039548.0115751.0945295.0183272.1581923.0028937.0299022.0077167.0694503.0106104.1041754.0057876.0520877.0125397.1089984.0183272.1726612.0067521.0655919.0144688.1408297.0231501.2189613.0048229.0424418.0096459.088742.0144688.1340776.0077167.0713795.016398.1485465.0260439.2276427.0057875.0501585.011575.1012816.0183271.1533694.0096459.0810253.0202564.1688028.032796.2565802.0067521.0588398.0144688.1167151.0221855.1784487.0144688.1003171.0289376.2073863.044371.31542.0086813.0530524.0154334.1051401.0241147.1610861.0221855.1495111.0472648.3057742.0742733.4678249.0028937.0192918.0057875.0385835.0096458.0578753.0299022.1832716.0646274.3723307.1012817.5671774.0096459.0540168.0221855.1118921.032796.165909.027973.1417943.055946.2855178.0877774.4321351.0154334.077167.0337606.1562632.0501586.2334302.0299022.1321485.0598044.2662261.0916358.4022329.0202563.0868129.0424418.1745903.0636627.2623678.032796.1321485.0665566.2662261.1022463.4012683.0241147.0926004.049194.1861654.0752378.2787658.0376189.1389006.0781316.2778012.1186443.4186309.0270084.0926004.0540169.1852008.0829545.2787658.0453356.149511.0945295.3009512.1446881.453356.027973.0858483.0549815.1726612.0848837.2594741.0636627.1871299.1321484.3771536.2015987.5671773.0192918.0530523.0366544.1041755.0569107.1572278.0057875.016398.0135042.0318314.0183272.0482294.1900237.497727.4138079.9809853.6549548 1.4545977z"/><path fill="#241f20" d="m66.766038 84.7206617c-.4475685 1.9040955-1.5057209 3.2246156-3.5545045 3.5381065-1.4980042.2295718-2.9960084.4369581-4.6348424-.0067521 1.472925-.8613765 3.0876443-.7543073 4.6396654-1.2703616-1.2964055-.4321351-2.5262544-.4485331-3.7667138-.364614-1.2009113.0819899-2.400858.1726611-3.6056276.1774841-.3318181.0009646-.4639666-.0530523-.5015855-.430206-.2208905-2.2552053-.364614-4.5200565-.7861387-6.7521117-.0839191-.4446748-.1716966-.8893496-.2816595-1.3282368-.2189614-.8797037-.2247489-.8816329.6183005-1.3552453 1.1218151-.7629886 2.4307602-1.0755149 3.6837592-1.5192251.8893496-.3144555 1.7941326-.600938 2.5976339-1.1015588.8208638-.5112313 1.601215-.4321352 2.3873537.0299022.6250527.3684724 1.1237443.8777745 1.4372352 1.528871.5652483 1.1729382.9404727 2.412433 1.1575049 3.6972634.4350289 1.6918863 1.0301793 3.371233.6096192 5.1566842m-12.9881691 2.3883184c-.7128301.1389006-1.3562099.5208772-2.0941192.5826108-.2980575.0241146-.3144555-.1186443-.3347119-.3385702-.0530523-.5469211-.1234671-1.0919129-.1871299-1.638834-.3472515-2.3333369-.6964321-4.6657092-1.0417544-7.0000107-.0347251-.2324655-.0395481-.4707186-.0781316-.7022196-.044371-.2633323.0598045-.353039.3134909-.348216.5314877.0086813 1.0629753.0154334 1.5934984.0019292.3077034-.0086813.3916225.2083508.4996563.4167017.7562365 1.4526686 1.070692 3.0288044 1.2722907 4.6319486.0848837.6819633.1794133 1.3658558.1311839 2.0574649.1176797.6626716.0819899 1.3320952.0897066 1.9995897.0019292.1398652.0077167.3028804-.1639798.3376056m-4.2605825-11.4564044c-.1996696-.0636628-.0964587-.2189614-.0829545-.3472515.2806949-2.5195022.5671774-5.0390045.8362972-7.5604359.2160676-2.0130939.4003038-4.0290815.6163714-6.0421754.2652615-2.4635562.5247355-4.9271124.7051134-7.3974207.0067521-.0945295-.0067521-.2006341.2093154-.3115617.3279597.8690932.6443444 1.7121426.9616936 2.555192.2565803.6829279.5044793 1.3687495.7726345 2.0458898.1745904.4408165.0540169.6250527-.4263476.6096193-.2324655-.0086813-.4687894.0472648-.7002904.0858483-.7967492.133113-.7977138.1360068-.4456394.9028537.4533561.9848438.9038184 1.9696875 1.3697141 2.9487437.1080338.226678.1302193.4215247.0549815.6723174-1.119886 3.7319886-2.2272323 7.4678355-3.338437 11.2027179-.044371.1524048-.0877774.303845-.1485464.4485331-.0704149.1678382-.2112447.2411469-.3839058.18713m-1.6147193-2.2407365c-.0453356.0019292-.0906712.0048229-.1360068.0067521-.2440406-1.098665-.4649311-2.2031176-.7359802-3.2950305-.6539902-2.6304298-1.3176264-5.259895-2.0111647-7.8816435-.1427589-.5411336-.1456527-1.0176397.10514-1.5211544.1736258-.3472514.2768366-.729228.4388873-1.1681153.766847.6211943 1.5105438 1.1845133 2.2089051 1.7999201.3752245.3327826.4842229.1996696.6067255-.1861654.3067388-.9742332.6327693-1.942679.9539769-2.9111247.0520877-.1572278.1196088-.3077034.243076-.4427456-.5575315 5.199126-1.115063 10.4001812-1.6735591 15.5993072m1.0060647 15.861675s-1.4063685.2691198-3.5950172.6327693c-.3896933.0636628-.8035013.1321485-1.2404594.2015988-.7359802.116715-1.5308002.2392176-2.3748142.3636494-2.9063018.4273122-6.3489141.8681286-9.6883157 1.131461-3.2979242.259474-5.8241786.6134776-7.980996.7928908-.5179834.0434065-1.0195689.0781316-1.4989688.0974234-1.1565403.044371-2.2175864.0048229-3.2583762-.1678382-1.1893362-.2855179-2.356487-.6510965-3.4947001-1.1449653-2.097013-.9086413-4.0985318-1.9976604-6.09908604-3.0915025-.52184177-.1832716-.77263449-.275872-.90478296-.4639666-.12925471-.1861653-.14275894-.4630019-.17844867-1.0137813-.19484665-2.980575-.3896933-5.9601855-.78710331-8.9253271-.60093794-4.4737563-1.52115431-8.8674518-2.97382291-13.1444323-.47554158-1.3986517-1.00413547-2.7780117-1.62243598-4.1178236-.18230702-.3964454-.08681287-.6038317.21799675-.8362972 3.10404221-2.3670975 6.24956167-4.668603 9.75873062-6.4193291.7215113-.3597911 1.4507394-.706078 2.1770737-1.0581524.3347118-.1620506.5228064-.1649444.6578486.29227.320243 1.0938421.7263343 2.1597112 1.098665 3.2381199 1.3079805 2.903408 2.831064 5.6920301 4.4949772 8.4063791.3231368.5257001.6105839.6761757 1.152682.3665432.3212076-.1823071.6829278-.2980575 1.0330731-.4273123.2768365-.1032108.4610727-.0945295.3829412.3057742-.2768366 1.4208373-.5343815 2.8455328-.7986784 4.2673346.0135042.1089984.027973.2189614.0424418.3269952.9935251.8334035 1.991873 1.6610194 2.9805751 2.5011751 1.6475152 1.4005808 3.2882784 2.8088784 4.9328999 4.2123531.1485464.1273255.3019158.2469343.5710357.4668603-2.9574249.2749074-5.739295.5093021-8.5066962.8748807-.3491806.0463002-.7022196.0742733-1.0465773.1456527-.5160542.1080338-.729228-.182307-.8141117-.6067254-.0762024-.3819766-.1495111-.7649178-.154334-1.1632924-.0270085-2.1404194.044371-4.2721576.3337472-6.3971436.0829545-.6163713.0057875-1.2549282.0009646-1.8828745-.154334-.215103-.2324656-.5276293-.5893629-.4929042-.331818.0318314-.4456394.3048096-.5498148.5556023-.182307.4398519-.2642969.916358-.2363239 1.3812892.0752378 1.2317781.2189613 2.4606624.2951637 3.6914759.0800608 1.2742199.1350423 2.5494045-.2208905 3.8062618-.1504756.5334168-.3877641.551744-.7880679.2787658-.5363106-.3655786-1.0764795-.7253697-1.6214714-1.0764795-.1552985-.0993525-.3289243-.2980575-.5228063-.1446882-.1900237.1533694-.1157505.3925871-.0675211.6076901.0675211.3048096.2797303.5064084.4755415.7292281.5922567.6752111.3771537 1.2423885-.5073729 1.4266247-.6395215.1340777-1.3870767.1495111-1.4719604 1.0639399.093565.1437235.2343948.2372885.3993392.198705.1842362-.0434064.3684724-.0665565.5556023-.0781316 4.9174665-.5343814 9.3015162-.8604119 13.1106718-1.0494711 2.6796237-.2478989 5.3659996-.348216 8.0600922-.2768365.2681553.0067521.5363106.0308668.8054305.0463002 5.6196861 0 8.6311279.3077033 8.6311279.3077033.3086679.0028938.3501452.215103.3925871.418631.1350422.6491673.2527218 1.3031575.3771536 1.9552186.3472515 2.4133976.458179 4.846087.6269818 7.2749181.0202564.2932345.093565.5826107.10514.8758453.0154334.4060913.0192918.6144422-.0771669.7369448m-30.1414267-37.4809721c2.4809188 2.3998934 5.105561 4.6280903 7.8324496 6.7415012.5642836.4379227.8498015 1.0813025 1.2124863 1.6610195 2.8763996 4.6116923 5.7402596 9.2320659 8.6079779 13.8495457.2700844.4350289.535346.8729516.8054304 1.3079805.1630153.2623678.1890592.430206-.2122092.425383-.8285806-.011575-1.6571611-.0135042-2.4847771.0010989-.3144555.0056533-.518948-.1766538-.7244051-.3512441-2.1770738-1.8471848-4.34836-3.7011218-6.5215753-5.5531296-.568142-.4851874-1.1295319-.9809853-1.7073197-1.4555623-.2662261-.2189614-.3105972-.4716833-.2536865-.7890325.3665432-2.0285273.7118655-4.0618775 1.0938421-6.087511.0829545-.441781-.0183272-.5044792-.3983746-.3443577-.8710224.3665432-1.7507261.7128301-2.615961 1.0928775-.4572144.2006342-.7263343.137936-1.0031709-.3289243-2.1056942-3.548717-4.0165418-7.1832823-5.0881984-11.1998241-.0192918-.0733087-.0308668-.1485465-.0781316-.3839058.5864691.5392043 1.0726212.9645874 1.5356231 1.4140851m17.9490421 10.2892536c-.1842362.4533561-.3713662.4774708-.7793866.2855179-3.6036985-1.7005675-6.8466413-3.9480562-9.9024541-6.4839564-.8739162-.7234405-1.7459032-1.4507394-2.6342882-2.1896134.3028805-.1639798.4967625.0057876.6983613.1061046 1.743974.8661995 3.4869834 1.7410803 5.3910789 2.2040822 2.9342748.7118655 5.9206374.8430494 8.9214687.6742466.5179835-.0299022.5806816.065592.3819766.5199126-.7089717 1.6205068-1.4111913 3.244872-2.0767566 4.8837059m-5.9032748-.5874337c1.9368915 1.1777612 3.941304 2.2214448 6.0016627 3.167705.4408164.2025634.6318047.1716966.8054305-.3019158.2816595-.7735991.6318047-1.5230835 1.0195688-2.2783555-.0549814 3.8747476-.3453222 7.7398492-.3057742 11.8036559-.4880812-.783245-.8854912-1.4160143-1.2800074-2.0507128-2.0593941-3.3094993-4.1187882-6.6189986-6.1762531-9.928498-.060769-.0993525-.0983879-.2112446-.1466172-.3173492.0270084-.0318314.0549814-.0626982.0819899-.0945296m12.4161688-6.054715c2.3777079-1.1121693 4.7534867-2.0671108 6.3122599-4.2711929-.5536732 2.5754483-1.3735725 5.0409336-2.185755 7.616382-1.3880413-1.1256735-2.7201365-2.2050468-4.1265049-3.3451891m-3.7175198 4.9328999c-.1456527-.1765195-.0646273-.3298889.0038584-.4919396.4070559-.960729.8054305-1.9253164 1.2269551-2.8792933.2382531-.5372752.8507661-.673282 1.3060514-.308668.5845399.4687895 1.1632923.9433665 1.7449385 1.4150497.1533694.1253964.3260306.2401823.2507928.4900104-.4475686 1.3427056-.8517307 2.7056676-1.7304698 3.857385-.1610861.2112446-.3404994.2315009-.5623545.0868128-.8854912-.5816462-1.573242-1.3629619-2.2397719-2.169357m.6809987 7.3800581c.0646274-1.3166618.109963-2.6333236.1678382-4.0020731 1.8182473.8748808 1.975475.8710224 3.2390845-.0926004.2363239.8912788.4658957 1.7507261.6916091 2.6121027.8121826 3.1030776 1.5934984 6.2119427 2.1423486 9.376754.0733087.4224892-.0173626.4996562-.408985.4890458-1.8114951-.0530523-3.6239548-.1003171-5.4364145-.1138213-.4224893-.0028938-.4755416-.1813425-.4851875-.5276293-.0723441-2.5822005-.0376189-5.1624717.0897066-7.7417784m-23.0005862-25.6425911c-.1263609-.5285939-.3443577-1.6542674-.2913054-1.9417144.2044925-1.1169922 2.1925071-1.6070026 1.4111914-3.167705-1.4430228-.0125396-1.7680887 1.3147326-3.0924672 1.4449519-1.2665032.1253964-2.3941059-.4649311-3.3066056-1.4044392-1.5558794-1.6031442-2.48284789-4.2277865-2.38445998-6.0846172.13118388-2.5059981 2.24941778-4.9029977 5.14607368-4.5866131 1.5963921.1745904 2.3670975 1.5751712 2.8185244 3.1242986.1273255.4369581.2343947.8854912.3212076 1.3224493 1.1806549.0636628 2.8850808-.0501585 3.4435769-.9713395-.0800607-2.246524-1.1237443-4.0483733-1.0523648-6.1135549.0636628-1.8201764.5613899-3.5583628.9038184-5.2849742.3887287-1.9513603.579717-3.8892164-.2855179-5.9167791.3501452-.7938554.8401556-1.5520211 1.423731-2.2764262 2.1548882-2.67190707 5.6360841-4.84319327 8.5452797-6.3479496.2315009-.12057342.4610727-.23632391.6838924-.34918063.4292414-.21317381.8874204-.38004743 1.358139-.52570013 4.6821072-1.45459777 11.2094701.28648246 15.2192598 2.54940447.39741.22474886.7735991.49001039 1.1411069.77359908 1.2935117.99738336 2.4153268 2.3092222 3.4570812 3.64710491.5459565.7022196 1.0735858 1.4082976 1.5915692 2.0757921-2.2523116-.6684591-4.1843801.3057742-4.2682992 2.0111647-.0086813.1890591-.0125396.3800474.0260439.5855045 2.0941192-1.9185643 5.6708092-.0212209 6.727997 2.1008713 1.0118521 2.0285273 1.0051 5.033217 1.1603986 8.0494818.3761891 7.3115724-1.3378827 14.8565749-5.0119961 20.1415492-.9829145 1.4111913-1.8066721 2.9535666-3.1889259 3.9249061-.0897066.0636627-.1852007.1244317-.2768365.1880945-.799643.5430627-1.688028 1.0687628-2.6391111 1.5356231-1.865512.916358-3.9577021 1.5954275-6.0450692 1.727576-.2421114.0144688-.4832583.0221855-.7244051.0221855-.0347251 0-.0684857-.0009646-.1032108-.0009646-.9954542-.0106104-1.9831917-.1485464-2.9352395-.4678248-3.9731354-1.3330598-6.4415145-3.5795838-8.6320925-6.2891098-.9674811-1.1951238-1.8809454-2.4799542-2.8445682-3.8178369 0 0 1.5491274 4.2422554 5.0399691 7.7012657 1.5240481 1.2838658 3.4966293 2.665155 4.8846705 3.3442245.9896667.4176663 2.0651816.7234405 3.2207573.8932079.8642703.126361 1.771947.1774841 2.7317115.1282901 1.2192384-.0617336 2.5137147-.2749074 3.8911455-.6800341 0 0-2.494423 2.4683791-9.6834928 2.4683791-3.3133576 0-6.6122465-.8980308-9.3294892-2.0835087-.0106104-.0048229-.0202563-.0086813-.0308668-.0135042.0038584.0038583.0077167.0077167.0125397.0106104 0 .0009646 0 .0009646.0009646.0009646-.0009646 0-.0009646 0-.0009646-.0009646-1.0967359-.4494977-2.1925072-1.0118521-3.1744571-1.6349756-.1745903-.109963-.353039-.2189613-.518948-.3347118-.6279464-.4321352-1.1777612-.8912788-1.6369048-1.362962-.1331131-.1302193-.2488636-.2565802-.3568974-.3819766-.0144688-.0173626-.0308667-.0337606-.044371-.0511231-.1813424-.215103-.3376056-.4234539-.4359935-.6144422-.2401822-.4060913-.4668603-.8362973-.6906445-1.2713262-.0019292-.0028937-.0038584-.0067521-.0057876-.0106104-.0028937-.0077167-.0077167-.0144688-.011575-.0221855-.1649445-.3221722-.3067388-.6703883-.4601082-1.0060647-.4890458-1.0600815-.9298622-2.141384-1.2713262-3.2583762-.0038583-.0135042-.0067521-.0260438-.0106104-.0395481-.0019292-.0048229-.0038584-.0106104-.0057876-.0163979-.1552985-.4948334-.2980575-.98195-.4099496-1.4420582m-4.708151-25.6705641c1.7323989-1.9079538 4.1216819-3.0953609 7.0289483-3.3162514.1485464.3800474.2478989.7678115.3241013 1.1613632.6867862 3.5506461-1.3031575 7.5951611-.4408164 11.3483706.2932345 1.2761491 1.3079805 3.2574116-.3125263 3.300818.0405126-3.4532228-4.028117-5.6978177-7.3462976-4.0773109-.1726611.0848837-.3443577.170732-.5121959.2768366-.226678-2.7558261-.6202297-6.6276799 1.2587866-8.6938261m13.4376669-11.99367956c.2324655-.06559194.4379226.09260039.6327693.30095126-.0260439.67424659-.68968.65881319-1.1382131.87584535-.1253964.1533694-.2691199.27973034-.4118789.40994964-.6559194.59707959-1.4603853 1.01860428-2.1577819 1.79123878-.871987.9636228-1.8462203 3.55450453-3.001796 3.84098693-.579717.1437236-1.2404594-.1012816-1.7449386-.0684857-.392587.0260439-.7485198.1080338-1.0928775.2093155-.8266514.2411468-1.5790295.6163713-2.5330065.7543073 1.7468678-3.81976602 7.195822-6.90837483 11.4477232-8.11410906m27.0451011 47.44998266c.0048229-.0038583.0424418.0395481.0646273.0607691-.0135042.0154334-.0289376.0289376-.0434064.044371.0144688-.0154334.0299022-.0289376.044371-.044371 1.1999467 1.1825841 2.4654854 2.290895 3.8062619 3.3094993.9481894.7195822.9925604 1.7034613.9105704 2.7471449.0125397.9385435-.3212076 1.8105305-.5247355 2.7075967-.9906312 4.3666871-2.505998 8.5568547-4.2692638 12.6621387-.2189613.5102667-.4205601 1.049471-.9906312 1.5172959.1003171-.8179701.3501452-1.4642436.5411335-2.1191985.8825975-3.0172293 1.7806283-6.0286711 2.6854113-9.0391484.0848837-.2864824.0733086-.530523-.0559461-.7938554-.2855178-.5835753-.546921-1.1787258-.8305097-1.7623011-.1398652-.2884117-.1147859-.4359935.2498281-.4475686.29227-.0106104.5855046-.1167151.8739162-.1032108.6462735.0327959.6183005-.2826241.4446748-.734051-.4803645-1.2472115-.9462602-2.5002105-1.4218018-3.7493512-.0636628-.165909-.1524048-.3212076-.1292547-.5083376-.5006209-1.1931946-1.0378961-2.3738495-1.3340244-3.6422819-.0395481-.0299022-.0868129-.0588399-.0212209-.1051401m14.9578566 27.7994085-.1552986-.5835753c-.259474-1.4835354-.7031842-2.8850809-1.3214847-4.1679821-.4842229-1.0041355-1.2703616-1.8471849-2.2735325-2.4365478-1.5230835-.8980308-3.1522715-.8989954-4.5875776-.0038583-.5102667.3183138-1.1681153.546921-1.8635828.789997l-.3212076.1128568c-.2652615.0935649-.5334168.1813424-.8025367.2700844-.7263343.2372885-1.5201897.5025501-2.3092222.8912788.0366543-.08199.077167-.1716966.1089984-.2450052l.0424418-.1012817c2.0709691-4.8200432 3.4657625-8.9600522 4.3888726-13.0296464.049194-.2160676.1080338-.4321352.165909-.6482027.1919529-.7137947.4080205-1.5192252.4128434-2.4510166.0742733-.9694103.1765195-3.0538836-1.7516907-4.5190919-1.2211676-.9269685-2.4326893-1.9812625-3.5795837-3.1098297-.7272989-.7610595-1.942679-.9115351-2.803091-.303845-.088742.0617335-.1601215.1389005-.2372885.2122092-.0617336-.1514402-.1437235-.2903408-.2372885-.4244185 2.2609929-2.3121159 5.021642-6.237022 5.3737163-6.9701084.6568841-1.3668204 1.1266381-3.0394149 1.4497749-4.1766634 2.4105039-8.4748648 2.6555091-20.1174345-.7899971-27.0836846-1.3050867-2.63911113-4.9531562-6.28332228-7.23537-8.00896911-5.3823976-4.07152336-15.3321165-4.52102108-21.8180021-2.1336673-1.8076367.66460071-3.5573982 1.26071571-5.1451091 2.19250713-4.2480428 2.49442298-8.7574889 4.16315916-10.01724 9.18190728-3.1030776 1.3899705-4.03872737 5.3611767-3.8834288 9.9709399.0308668.8980308.51798343 2.0217751.34918063 2.8657891-.08584827.430206-.66749447.9790562-.78420954 1.2578219-1.48642916 3.5467879-.29419915 8.2096033 1.42373098 10.7291055 1.03886063 1.5230835 2.75968453 2.8735059 5.02839403 3.2323324.0549815.8276159 1.533694 4.5239148 2.6786592 7.2826347.0154334.0385835.0376189.0733087.0540169.1118922-.5700712-.2064217-1.2115218-.1832716-1.7613366.1282901-.546921.3077034-.8970663.8382264-1.0195689 1.4266247-.2392176.0511232-.4822936.1234672-.729228.2440406l-.6375923.3057742c-.5228063.2527219-1.0456127.5044793-1.5635961.7629887-3.74066992 1.865512-7.03955878 4.2982014-10.09633621 6.6296091-1.12856724.8604119-1.45073942 2.1375256-.86041194 3.4165685.53631058 1.1623278 1.0398252 2.4413707 1.53948146 3.9114019 1.30122839 3.8323056 2.24363027 8.0002877 2.87929335 12.7441285.37425991 2.7905513.56910656 5.6727384.75816569 8.565536.00578752.0945296.01253963.1880945.01929175.2826241.07909616 1.2211676.34628687 1.9581124 1.0012417 2.5002105.33181806.275872.75623651.5035146 1.32052014.7147593 1.85875986 1.0157105 3.95287906 2.1539236 6.13188206 3.0992192 1.0764795.4668603 2.2069759.8449786 3.4001705 1.1536465.8777745.2276427 1.7950971.4128434 2.7548616.5584961 1.2144155.0926004 2.4905646.0125397 3.9287644-.1456527 1.6426923-.1803778 3.4956647-.458179 5.746047-.7002904 2.8233473-.303845 7.5064191-.9838791 11.5162089-1.5934984.8314743-.1263609 1.6330464-.2488635 2.38446-.3655786 2.9410269-.4552852 5.0930214-.8025367 5.0930214-.8025367.652061-.3183138 1.0552586-.8083242 1.2394948-1.5076501.2122092.0549815.4292413.0906712.6453089.0906712.0742733 0 .1466173-.0038583.2179968-.0096458.6993258-.0578753 1.2761491-.264297 1.7401156-.4292414.1938821-.0694503.385835-.1456527.5893629-.1861654.303845-.0598044.6038317-.1919529.8758454-.3819766.243076.0646274.497727.1089984.7745636.1089984.2257135 0 .4794-.0067521.7166885-.0125397.2189613.6742466.7649178 1.2057343 1.4661728 1.3947934.9192518.2498281 1.7941325.336641 2.6121026.336641 1.0697274 0 2.0449253-.149511 2.9005143-.2797303 1.9349623-.297093 4.4255269-1.4314477 5.3013723-5.1518613.4871166-2.0671107-.0086813-3.8978976-.4446748-5.5126169" mask="url(#b)" transform="translate(7.716699 .231597)"/><path fill="#241f20" d="m35.5978081 19.1531235c.10514.1591569.2614032.2845533.50255.3424285 1.1748675-2.6169256 3.0992193-5.1412508 6.9739668-4.238397.5150897-.8459431.0308668-1.5308001-.6385568-1.9243518-.2970929-.1755549-.6279464-.2999867-.9298622-.3453223-2.284143-.3433931-5.0785526 2.1954009-5.7711264 4.1014256-.1765195.4832583-.4109142 1.2703616-.2450052 1.8221056.0260439.0868128.0598044.1688028.1080338.2421114"/><path fill="#241f20" d="m64.8717813 25.0272678c-1.1044525-1.606038-1.8626182-3.532319-2.737499-5.3515309-.060769-.0019291-.1234672-.0048229-.1842362-.0067521-.0192917.3327827-.0106104.6375923.0115751.9317914.0578752.8025367.2459698 1.4845.4813291 2.1230569.2228197.6028671.4803645 1.1719737.7002904 1.7758054-.9317914.5874337-2.7471448.2218551-3.7985451.6809987-.0752378 3.0943963 4.7872472 1.5693836 5.5270857-.1533694"/><path fill="#241f20" d="m42.201084 25.6376587c-1.456527 2.30247 2.8445682 2.7346052 4.6907884 2.1896133.5054438-.149511 1.3803246-.9067121 1.500898-1.2462469.5121959-1.4420581-.5218418-2.0728983-1.0533294-2.5908817-1.180655-1.1507527-1.4507394-2.7510032-2.2822138-4.2740867-.1128567.3221722-.1253963.6973967-.0935649 1.0890192.0877774 1.0899837.6327693 2.3651682 1.2057342 3.4281435.2642969.4900104.5295585.9337206.7514136 1.2877242-1.1411069 1.1083109-3.1927843.1880945-4.7197261.1167151"/><path fill="#241f20" d="m61.2573759 35.1931507c-.1109275-.701255.8420848-1.9619708.5777879-3.0143356-.0926004-.3626849-.916358-.8874204-1.4169789-1.435306-2.0391377-2.223374-4.8325828-5.5454129-5.9418583-8.1440113-.1234672-.2864825-.1977404-1.8597245-1.0571878-1.2366011-.1032108 3.8361641 2.7481095 7.0125503 4.8740601 9.5744944 1.037896 1.2510699 2.2899304 1.9648645 1.1372485 3.9085081-1.8587599.7070426-4.8663433 2.7297823-7.4504729 2.2880013-.8825975-.1514402-1.0687629-.8488369-1.2211677-1.5529857-.0636627-.2951637-.1273255-.5855045-.2276426-.8430494-.0318314-.0829545-.0626982-.1678382-.10514-.2411468-.9452957 1.2433531-.5748941 3.1271923.3983746 3.9721708 4.553817.4504624 7.6530363-1.4902875 10.4329771-3.2757387"/><path fill="#241f20" d="m22.1887895 28.5408738c-.6134776-.1967759-1.2423886-.1880946-1.7690533.0945295-.1369714.0723441-.2642969.1668737-.3848704.275872-.4147725.3742599-.7234405.9607291-.839191 1.7999201.0993525-.0646274.1948467-.1581923.2913054-.2565803.3568973-.364614.7311573-.8314743 1.3947934-.5064083-.7398386 1.4439873-.5623545 4.2567241.4437102 5.1692238-.0057876-1.7121426-.2729783-4.6425591 1.1893362-4.5538171 1.0224626.0617336 1.2298489 2.2523116 2.1008713 2.7490741.5150897-2.4770604-.9057475-4.2846972-2.4269018-4.7718138"/><path fill="#241f20" d="m56.1065757 42.2627081c3.796616-.0790962 5.6264383-2.7915159 6.91995-5.2531429-2.2214448 1.0128167-4.0136482 2.4905646-6.9160916 2.7693304-.1408298.4784353-.0810253 1.6889925-.0038584 2.4838125"/><path fill="#241f20" d="m55.180186 42.4105793c-.0067521-.8787391-.0019292-1.7700178-.1794132-2.4905646-3.2911722.0964587-7.7408138-.0405127-10.1619281-1.313768 1.1092754 2.969 6.110661 4.0155773 10.3413413 3.8043326"/><path fill="#241f20" d="m44.3785436 40.980675c-2.1384903.0019292-.3347119 1.1912654.0270084 1.6571611.750449.9645874 1.6301527 2.6092089 2.9998668 3.3365078 2.1587465 1.1468944 6.4482666.6665299 8.0031815.0337606.5758587-.2334302 1.0388606-.8777746 1.2520344-1.423731-4.8528391.1157505-10.6075674.5990087-12.2820911-3.6036985"/><path fill="#f5d5b3" d="m24.6157878 33.3129769c-.8710224-.497727-1.0784087-2.6873404-2.1008713-2.7500386-1.4623145-.0877774-1.1951238 2.842639-1.1893363 4.5547816-1.0070292-.9124996-1.1835487-3.7252364-.4446748-5.1692238-.6626715-.3250659-1.0369314.1417944-1.3938287.5064084-.0964588.0983879-.1919529.1909883-.2913054.2565803.1147859-.8391911.4244184-1.4256602.8382264-1.7999201.1205734-.109963.2488636-.2035279.385835-.2768366.5266647-.2826241 1.1555757-.2903408 1.7690532-.093565 1.5211543.4871167 2.9419916 2.2947534 2.4269019 4.7718138zm12.9129313-20.4309254c2.7982681-1.9079538 4.210424-.811218 4.9078207.4504623.668459.3935517 1.1526819 1.0784087.6375922 1.9243519-3.8737829-.9018892-5.7990993 1.6214714-6.9730022 4.2393615-.2411468-.0588398-.39741-.1842362-.5035146-.3433931-.0482294-.0733086-.0819899-.1552986-.1080338-.2421114-.0626982-.1225026-.1350422-.2421114-.2353593-.3424285-.5691066-.568142-.8526953-3.55354 2.274497-5.6862427zm7.5286046 6.8341017c.8314743 1.5230834 1.1005942 3.1233339 2.2822138 4.2740867.5314876.5179834 1.5655253 1.1488235 1.0533294 2.5908817-.1205734.3395347-.9954542 1.0967358-1.500898 1.2462469-1.8462203.5449919-6.1473154.1128567-4.6907885-2.1896134 1.5269419.0713795 3.5786192.9915959 4.7197261-.1167151-.2218551-.3540035-.4871166-.7977137-.7514135-1.2877241-1.1739029.7388739-4.3772976.7745637-4.3772976-1.1160276 0-1.9909084 3.1271923-2.4162914 3.1271923-2.4162914l.044371.1041754c-.0318314-.3916225-.0192917-.766847.093565-1.0890191zm9.9439314 20.2042473c.1765195.7205468.1726611 1.6118256.1794132 2.4905647-4.2306803.21028-9.2330304-.8362973-10.3423059-3.8052973 2.4220789 1.27422 6.8717205 1.4102268 10.1628927 1.3147326zm-4.575038-5.4229102c.0424418.0733086.072344.1581923.10514.2411468.2112447-1.1883717.6047963-2.5735191 1.2819366-2.3796371 1.1603987.3308535 1.1603987 1.4912521 1.1603987 1.4912521s-1.4642437.9520478-2.2146927 1.7314344c.1524048.7031842.3385702 1.4015455 1.2211677 1.5520211 2.5841296.441781 5.591713-1.5809587 7.4504729-2.2880013 1.152682-1.9436436-.0993525-2.6574382-1.1372485-3.9085081-2.1269152-2.5619441-4.9782355-5.7383303-4.8740601-9.5744944.8594474-.6231234.9337206.9510832 1.0571878 1.2375656 1.1092755 2.5976339 3.9027206 5.9196728 5.9418583 8.1430468.5006209.5478856 1.3243785 1.0726211 1.4160143 1.435306.264297 1.0523648-.6877508 2.3140451-.5768233 3.0143356-2.7799408 1.7854512-5.8791601 3.726201-10.4329771 3.2767033-.9732687-.8459431-1.3446348-2.7288177-.3983746-3.9721708zm12.1190759-11.0956487c-.4273122.1408297-3.2014655 1.7786991-2.985398-.2845533.1832717-1.7526553 1.886733-2.3680621 2.4018226-2.5166085-.0221855-.2932346-.0308668-.5990088-.011575-.9317914.060769.0019291.1234672.0048229.1842362.0067521.8748807 1.8192118 1.6330464 3.7454928 2.737499 5.3515308-.7398385 1.7227531-5.6023236 3.2477657-5.5280503.1533694 1.0523648-.4591436 2.8677183-.0926004 3.7995097-.6809987-.2199259-.6038317-.4774708-1.1729383-.7002905-1.7758054zm-6.4386208 18.8605771c-.077167-.79482-.1369714-2.0053772.0038584-2.4838125 2.9024434-.2787658 4.6946468-1.755549 6.9160915-2.7693304-1.2935117 2.4625916-3.1233339 5.1740468-6.9199499 5.2531429zm-.6983613 3.7454928c-1.5549148.6327694-5.8444349 1.1131339-8.0031815-.0337605-1.3687495-.7272989-2.2494178-2.3719204-2.9989022-3.3365078-.3626848-.4649311-2.1664633-1.6552319-.027973-1.6571611 1.6745237 4.2036718 7.429252 3.7204135 12.2830558 3.604663-.2141384.5449919-.6771404 1.1893363-1.2529991 1.4227664zm-13.3315622-3.1329798-.7109009-.1417943s-.734051-2.5783421-.3800475-3.0509899c.18713-.2498282 1.2153801-.6279464 2.6545445.0646273 0 0-1.7053905.2845533-1.5635961 3.1281569zm-15.066855-4.5499587c.0897066.6298756.4948333 4.7862826 2.3130806 8.9764502l-.0077167.0106105c.177484.3491806.359791.6964321.5594606 1.0340377.7282635 1.2337072 1.9320686 3.2332969 2.3873538 3.7647845.0057875.0077167.0125397.0144688.0192918.0221855.0260438.0299023.0530523.0588399.0790961.0897067.170732.1948466.3347119.3954808.5160543.5816462.3327826.3414639.6829279.6665298 1.0533294.9732686.0106105.004823.0202563.0096459.0308668.0135043 2.7162781 1.1854779 6.0161315 2.0844733 9.3294892 2.0844733 7.1890698 0 9.6834928-2.4693437 9.6834928-2.4693437-1.3774308.4051267-2.6728717.6183005-3.8911455.6800341-.9597645.049194-1.8674412-.0019292-2.7317115-.1282901-1.1555757-.1688028-2.2310906-.4755416-3.2217219-.8922434-1.3880412-.6800341-3.3606224-2.0613232-4.8846705-3.345189-3.4898772-3.4590104-5.0399691-7.7012657-5.0399691-7.7012657.9645874 1.3378827 1.8780516 2.6227131 2.8455328 3.8178369 2.1905779 2.7095259 4.6589571 4.95605 8.6320925 6.2891097.9520478.3192785 1.9388206.458179 2.9352394.4678249.0337606 0 .0684857.0009646.1032109.0009646.2411468 0 .4822937-.0077167.7244051-.0221855 2.0873671-.1321485 4.1795571-.811218 6.0450691-1.727576.9510832-.4668603 1.8385036-.9925604 2.6391111-1.5356231.0916358-.0626982.18713-.1244318.2768366-.18713 1.3812892-.9723041 2.2060114-2.5146793 3.1879613-3.9258707 3.6741134-5.2849742 5.3891498-12.8290122 5.0129607-20.1415492-.1562632-3.0162647-.1495111-6.0209544-1.1613632-8.0494817-1.0571878-2.1211277-4.6338778-4.0194356-6.7279971-2.1008713-.0385835-.2054571-.0337605-.3964454-.0250792-.58454-.341464.3183139-.5488503.5527086-.5488503.5527086-.2845532-.5691066-.2835886-1.1372485-.2835886-1.1372485.1032108-2.6921634 2.3130805-3.3451891 3.5082043-3.5033814-1.0407898-1.33691815-2.1626049-2.64972158-3.4570812-3.64710494-2.9043726-1.22502598-7.462048-1.84139732-14.1234885-.52570012-8.9166458 1.76326574-12.6129447 8.89060196-13.9614379 12.61873216-.3433931 1.7266114-.8401556 3.4647979-.9038183 5.2859389-.0713795 2.064217.9723041 3.8660662 1.0523648 6.1135549-.5584961.9211809-2.2638866 1.0340376-3.443577.9703749-.0877774-.4369581-.193882-.8854913-.3212076-1.3224493-.4523914-1.5491274-1.2221322-2.9487437-2.8185243-3.1242986-2.8966559-.3163846-5.0148898 2.080615-5.1460737 4.586613-.0983879 1.8577953.8285806 4.481473 2.38446 6.0846173.9115351.9395081 2.0391377 1.5298356 3.305641 1.4054038 1.3243785-.1311839 1.650409-1.4584561 3.0924671-1.4459165 0 0 .8401557.0983879.98195 1.0928775z"/><path fill="#f5d5b3" d="m39.1934041 3.78850039c-.2228197.11189214-.4523915.22764263-.6838925.34821605l2.0420315-.87488076c-.4707186.1456527-.9288977.31252631-1.358139.52666471"/><path fill="#f5d5b3" d="m28.5400187 12.7617675 1.4246955-2.2764263c-.5835753.7244052-1.0745503 1.4825709-1.4246955 2.2764263"/><path fill="#f5d5b3" d="m27.9885641 49.7410576c.0675211.0926004.1408297.1852008.2218551.2816596-.1668737-.203528-.3144555-.4089851-.4359935-.6144422.0713794.1186442.1427589.2199259.2141384.3327826"/><path fill="#f5d5b3" d="m27.7742327 49.4085644c.0993525.1900237.2556157.3993391.4359935.6144421-.0800607-.0964587-.1543339-.1900237-.2218551-.2816595-.0713794-.1128567-.1427589-.2141384-.2141384-.3327826"/><path fill="#f5d5b3" d="m30.2992331 51.806818c-.6800341-.4620374-1.248176-.9192518-1.6870633-1.3504224.4591436.4707187 1.0089584.9298623 1.6359402 1.362962.1668736.1147859.3443577.2237843.5199126.3337473.98195.6231234 2.0777212 1.1854779 3.1734925 1.6359402 0 .0009646.0009646.0009646.0009646.0009646s0 0 0-.0009646c-.0048229-.0028938-.0086813-.0077167-.0125396-.0115751-1.091913-.4774707-2.0844734-.9993125-2.9468145-1.5317647-.2372885-.1456527-.4668603-.2932346-.6838925-.4388873"/><g fill="#fbe4ca"><path d="m25.9646668 45.6048105c.1070692.2787657.2179968.5507794.3337472.822793.098388.231501.2073863.4475686.3096326.6752112.1572277.3404993.2990221.68968.4707186 1.0234272.2257135.4379227.4533561.8729516.6954675 1.2819366.1215381.2054572.2691199.4109143.4359935.6144422.0144689.0173626.0299023.0337606.0443711.0511231.1080337.1253964.2237842.2517573.3578619.3819766.4379227.4321352 1.0070292.888385 1.6870633 1.351387.2160676.1456527.446604.2922699.6838925.4388872.8613765.5324523 1.8539369 1.054294 2.9458499 1.5317648-.369437-.3067388-.7205468-.6327693-1.0523649-.9732687-.1813424-.1861653-.3453223-.3877641-.5170188-.5826108-.0250793-.0299022-.0530523-.0588398-.0790962-.088742-.0057875-.0077167-.0125396-.0144688-.0192917-.0221855-.6713529-.7842096-1.2645741-1.6243652-1.7758054-2.5002105-.5478856-.5093022-1.0928775-1.0639399-1.6330465-1.6697008l.4369581-.5941858c-.2334301-.4986917-.441781-.9973834-.6289109-1.4893229-.0028938-.0086813-.0067522-.016398-.0106105-.0250793-.0028938-.0067521-.0057875-.0154334-.0086813-.0231501-.0192917-.0530523-.0366543-.1041754-.0559461-.1572277-.0704148-.1900238-.137936-.3790829-.2025633-.5671774-.0289376-.0877775-.0559461-.1736258-.0848837-.2604386-.049194-.1514402-.0983879-.3028805-.1437235-.4523915-.0289376-.093565-.0559461-.18713-.0829545-.2787658-.0414773-.1408297-.0810254-.2797303-.1196089-.4186309-.0250793-.093565-.0501585-.1861654-.0752378-.2787657-.0356897-.1360069-.0684857-.2681553-.1022463-.4012684-.0212209-.088742-.0424418-.1765195-.0626981-.2633324-.032796-.1360068-.0626982-.2691198-.0916358-.4022329-.0173626-.0781316-.0347252-.1562631-.0511232-.2324656-.0318314-.1475818-.0598044-.2903408-.0877774-.4321351-.0096459-.0559461-.0221855-.1118921-.0318314-.165909-.0376189-.1948467-.0713795-.3839058-.1022463-.5671774-.0028937-.0192918-.0057875-.0385835-.0096458-.0578753-.0260439-.1620506-.0511232-.3183138-.0742733-.4687894-.0086813-.0549815-.0154334-.1061046-.0231501-.1610861-.0154334-.1070692-.0308668-.2131738-.044371-.3144555-.0086813-.0617336-.0154334-.1196088-.0231501-.1784487-.011575-.088742-.0221855-.1745903-.032796-.2565802-.0057875-.0540169-.011575-.1022463-.0183271-.1533694-.0086813-.0800608-.0173626-.1552986-.0250793-.2276426-.0057875-.0472648-.0106105-.0906713-.0144688-.1340777-.0096459-.0800607-.016398-.1514402-.0231501-.2199259-.0077167-.0646274-.0125396-.1186443-.0183272-.1716966-.0038583-.0356897-.0077167-.0742732-.0106104-.1041754-.0077167-.0636628-.0135042-.1186442-.0192918-.1581923-.1417943-.9944896-.9819499-1.0928775-.9819499-1.0928775.7813158 1.5607024-1.2066988 2.0507127-1.4102268 3.1677049-.0540169.2874471.1639799 1.4131206.2913054 1.9417144.1196088.4938688.2671907.9771271.4147726 1.4584562.1890591.6183005.4118788 1.2144155.640486 1.804743"/><path d="m26.298607 46.4272177c-.1157505-.2710491-.2266781-.5430627-.3337473-.8227931.1977404.5141251.4157372 1.0051001.6414506 1.4931813 0 .0019292.0009646.0028938.0019292.0048229-.1022463-.226678-.2112446-.4437101-.3096325-.6752111"/><path d="m27.0837811 48.1368524c.2237843.4350289.4504623.8652348.6906446 1.2713261-.2421115-.408985-.4697541-.8440139-.6954675-1.2819366.0019291.0038583.0028937.0077167.0048229.0106105"/><path d="m25.9646668 45.6048105c-.2286072-.5903275-.4514269-1.1864425-.640486-1.804743.1890591.6183005.4118788 1.2144155.640486 1.804743"/><path d="m25.9646668 45.6048105c-.2286072-.5903275-.4514269-1.1864425-.640486-1.804743.0038583.0135042.0067521.0260438.011575.0395481.341464 1.1169921.7822804 2.1982946 1.2703616 3.2583761-.2247488-.4880812-.4427456-.9800207-.6414506-1.4931812"/><path d="m27.0960314 39.1127515c-.004823-.0453356-.0106105-.0916358-.0144689-.1340776.0038584.0434064.0096459.0868128.0144689.1340776"/><path d="m27.4812876 41.6645675c-.0106105-.0549815-.0221856-.1118922-.032796-.1659091.0106104.0540169.0221855.109963.032796.1659091"/><path d="m27.1398236 39.4942458c-.0057875-.0530523-.0125396-.1032108-.0183271-.1533694.0057875.0511232.0125396.0993525.0183271.1533694"/><path d="m27.774715 42.994637c-.0212209-.0877774-.0434064-.1765195-.0636627-.2623678.0202563.0858483.0424418.1736258.0636627.2623678"/><path d="m27.6197058 42.329554c-.0173625-.077167-.0347251-.1562632-.0511231-.2324656.016398.0762024.0337606.154334.0511231.2324656"/><path d="m27.347017 40.931674c-.0028938-.0202564-.0057875-.0385835-.0096459-.0588399.0038584.0202564.0067521.0385835.0096459.0588399"/><path d="m27.2631943 40.4051057c-.0086812-.0559461-.0154334-.1070692-.0231501-.1610861.0077167.0549815.0144689.10514.0231501.1610861"/><path d="m27.1953839 39.9294677c-.0077167-.0617336-.0154334-.1196089-.0231501-.1794133.0077167.0598044.0144688.1176797.0231501.1794133"/><path d="m28.6417826 45.809303c-.0202563-.0530523-.0376189-.1041754-.0569106-.1572277.0192917.0530523.0366543.1041754.0569106.1572277"/><path d="m27.029089 38.4834547c-.0067521-.0636628-.0135042-.1186442-.0192918-.1581923.0057876.0395481.0125397.0945295.0192918.1581923"/><path d="m28.6605921 45.8573395c.1871299.4929041.3954808.9906312.628911 1.4893229l.0250792-.0347252c-.2401822-.4736124-.4639665-.9568707-.6539902-1.4545977"/><path d="m27.058316 38.7595196c-.0067521-.0626982-.0125397-.1205734-.0183272-.1726611.0057875.0540169.0115751.1080338.0183272.1726611"/><path d="m27.9518133 43.6747676c-.0250793-.093565-.0501586-.1861654-.0752378-.2787658.0250792.0926004.0501585.1852008.0752378.2787658"/><path d="m28.3831768 45.0848979c-.0299022-.0868129-.0569107-.1736258-.0848837-.2604386.027973.0868128.0549815.1726611.0848837.2604386"/><path d="m28.1537979 44.3717784c-.0289376-.093565-.0559461-.1861653-.0829545-.2787657.0270084.0926004.0540169.1852007.0829545.2787657"/><path d="m29.3148717 47.3117443-.0250793.0347252-.436958.5941858c.5401689.6057609 1.0851608 1.1603986 1.6330464 1.6706653.5112313.8748808 1.103488 1.7150364 1.7758054 2.5002105-.4552853-.5314876-1.6590903-2.5310773-2.3863892-3.7657491-.1996696-.336641-.3829412-.6848571-.5604253-1.0340377"/></g><path fill="#00aa8e" d="m92.6803534 38.9064263h-6.3084015v-6.3074369h-10.3741374v6.3074369h-6.3084015v10.3751019h6.3084015v6.3084015h10.3741374v-6.3084015h6.3084015z"/><path fill="#241f20" d="m8.68919609 23.1135716h8.01957951v-6.3084015h6.3084015v-8.01957957h-6.3084015v-6.30840151h-8.01957951v6.30840151h-6.3084015v8.01957957h6.3084015zm10.37510191 2.3555224h-12.7306243v-6.3084015h-6.30840151v-12.73062437h6.30840151v-6.30840151h12.7306243v6.30840151h6.3084015v12.73062437h-6.3084015z" mask="url(#c)" transform="translate(68.485704 31.29879)"/></g></svg>