<?xml version="1.0" encoding="utf-8"?>
<!-- Generator: Adobe Illustrator 21.0.2, SVG Export Plug-In . SVG Version: 6.00 Build 0)  -->
<svg version="1.1" xmlns="http://www.w3.org/2000/svg" xmlns:xlink="http://www.w3.org/1999/xlink" x="0px" y="0px"
	 viewBox="0 0 308.4 440.7" style="enable-background:new 0 0 308.4 440.7;" xml:space="preserve">
<style type="text/css">
	.st0{fill:#D33833;}
	.st1{fill:#EF3D3A;}
	.st2{fill:#007101;stroke:#000000;stroke-width:3.1033;stroke-miterlimit:10;}
	.st3{fill:#F0D6B7;}
	.st4{fill:#6D6B6D;}
	.st5{fill:#DCD9D8;}
	.st6{fill:#F7E4CD;}
	.st7{fill:#81B0C4;}
	.st8{fill:#FFFFFF;}
	.st9{fill:#02068D;}
	.st10{fill:#76562F;}
	.st11{fill:#4F3A20;}
	.st12{fill:#7B99A6;}
	.st13{fill:#335061;stroke:#000000;stroke-width:4;stroke-linejoin:round;stroke-miterlimit:10;}
	.st14{fill:#263C49;}
	.st15{fill:#335061;stroke:#000000;stroke-width:4;stroke-miterlimit:10;}
	.st16{fill:#231F20;}
	.st17{font-family:'Georgia-Bold';}
	.st18{font-size:72px;}
	.st19{fill:none;stroke:#000000;stroke-width:4;stroke-miterlimit:10;}
	.st20{fill:#442200;stroke:#000000;stroke-width:4;stroke-miterlimit:10;}
	.st21{fill:#D33833;stroke:#000000;stroke-width:4;stroke-miterlimit:10;}
</style>
<g id="svg2" inkscape:version="0.48.1 r9760" sodipodi:docname="logo above title.svg" xmlns:cc="https://creativecommons.org/ns#" xmlns:dc="https://purl.org/dc/elements/1.1/" xmlns:inkscape="https://www.inkscape.org/namespaces/inkscape" xmlns:rdf="http://www.w3.org/1999/02/22-rdf-syntax-ns#" xmlns:sodipodi="https://sodipodi.sourceforge.net/DTD/sodipodi-0.dtd" xmlns:svg="http://www.w3.org/2000/svg">
	<g>
		<path id="path22" inkscape:connector-curvature="0" class="st0" d="M115.1,62c0,29.1-23.1,52.8-51.6,52.8
			C35,114.7,11.9,91.1,11.9,62C11.9,32.9,35,9.2,63.5,9.2C92,9.2,115.1,32.9,115.1,62"/>
		<path id="path24" inkscape:connector-curvature="0" class="st1" d="M15.4,74.1c0,0-3.7-55,47-56.6l-3.5-5.9l-27.5,9.2l-7.9,9
			L16.6,43l-3.9,15.3l1.2,10.2"/>
		<path id="path26" inkscape:connector-curvature="0" d="M27.7,25.8c-9,9.3-14.6,22-14.6,36.2l0,0c0,14.1,5.6,26.9,14.6,36.2l0,0
			c9.1,9.3,21.5,15,35.3,15l0,0c13.8,0,26.3-5.7,35.3-15l0,0c9-9.3,14.6-22,14.6-36.2l0,0c0-14.1-5.6-26.9-14.6-36.2l0,0
			c-9.1-9.3-21.5-15-35.3-15l0,0C49.3,10.8,36.8,16.5,27.7,25.8L27.7,25.8z M25.5,100.4C15.8,90.6,9.9,77,9.9,62l0,0
			c0-15,5.9-28.6,15.6-38.4l0,0c9.6-9.8,22.9-15.9,37.6-15.9l0,0c14.7,0,28,6.1,37.6,15.9l0,0c9.6,9.8,15.6,23.4,15.6,38.4l0,0
			c0,15-5.9,28.6-15.6,38.4l0,0c-9.6,9.8-22.9,15.9-37.6,15.9l0,0C48.4,116.3,35.1,110.2,25.5,100.4L25.5,100.4"/>
	</g>
	<g>
		<path class="st2" d="M41.8,315.8l2.2-86.4c0,0-23.9-10.5-31.9-31.2c-6.7-17.2-13.3-64.4-2-78.5c2.7-3.4,9.9-0.8,11.6,1.7
			c7.2,10.6,3.7,39.6,8.7,51.6c1.8,4.3,12.8,15.4,12.8,15.4s-0.3-76.4-2.4-101.8c-1.4-16.4-9.4-65.7,14-64.1
			c14.8,1,14.4,68.2,14.4,68.2l2.4,108c0,0,7-1.2,8.9-5.6c5.9-13.6,1.2-72.2,17.3-68.2c22,5.5,12.8,69,4.7,85.7
			C96.6,222.6,72.9,241,72.9,241l3.1,70.3c0,0-6.8,9.2-17.7,2.9C51.5,310.4,41.8,315.8,41.8,315.8z"/>
		<g>
			<path d="M10.9,125.2c0.2,8.9,0.7,17.8,1.4,26.6c0.4,4.4,0.8,8.8,1.5,13.2c0.6,4.4,1.3,8.7,2.2,13c0.9,4.3,2,8.6,3.3,12.7
				c1.3,4.2,3,8.2,5.1,12c2.1,3.8,4.7,7.3,8,10.1c3.3,2.8,7.4,4.7,11.7,5.5c-4.5-0.1-8.9-1.7-12.7-4.3c-3.7-2.6-6.8-6.2-9.2-10.1
				c-4.8-7.8-7.5-16.5-9.4-25.3c-1.8-8.8-2.7-17.7-3.1-26.7C9.6,143,9.8,134.1,10.9,125.2z"/>
		</g>
		<g>
			<path d="M15.7,121.5c1.7,1,2.9,2.8,3.7,4.5c0.8,1.8,1.4,3.7,1.9,5.6c0.9,3.8,1.4,7.7,1.7,11.6c0.7,7.7,1,15.5,1.7,23.1
				c0.3,3.8,0.7,7.6,1.4,11.4c0.6,3.8,1.5,7.5,2.7,11c1.3,3.5,3,6.9,5.5,9.7c2.5,2.8,5.9,4.8,9.6,5.8c-3.9-0.4-7.7-2-10.7-4.7
				c-3-2.7-5.2-6.2-6.7-9.9c-3.1-7.4-4.2-15.3-4.9-23c-0.3-3.9-0.5-7.8-0.7-11.6l-0.3-11.6c-0.2-3.8-0.3-7.7-0.8-11.5
				c-0.2-1.9-0.6-3.8-1.2-5.6c-0.3-0.9-0.6-1.8-1.1-2.6C17,122.9,16.4,122.1,15.7,121.5z"/>
		</g>
		<g>
			<path d="M51.1,33.7c-0.6,0.2-1.1,0.7-1.4,1.3c-0.3,0.6-0.6,1.3-0.8,1.9c-0.4,1.4-0.7,2.8-0.9,4.2c-0.4,2.8-0.6,5.7-0.7,8.6
				c-0.3,5.8-0.3,11.6-0.2,17.4c0.2,11.6,0.6,23.2,1.1,34.8c0.9,23.2,1.6,46.4,2.3,69.7c0.8,23.2,1.6,46.5,1.9,69.7
				c0.2,11.6,0.2,23.3,0.1,34.9c-0.2,11.6-0.5,23.3-1.3,34.9l-0.4,0c0.6-11.6,0.6-23.2,0.5-34.8c-0.1-11.6-0.4-23.2-0.9-34.8
				c-0.8-23.2-1.9-46.4-3.1-69.7c-1.2-23.2-2.7-46.4-3.1-69.7c-0.2-11.6-0.3-23.3,0.1-34.9c0.2-5.8,0.5-11.7,1.1-17.5
				c0.3-2.9,0.7-5.8,1.4-8.7c0.3-1.4,0.7-2.9,1.2-4.3c0.3-0.7,0.6-1.4,1-2c0.4-0.6,1-1.2,1.9-1.4L51.1,33.7z"/>
		</g>
		<g>
			<path d="M56,30.4c0.3-0.1,0.5,0.1,0.7,0.2c0.2,0.1,0.3,0.3,0.4,0.5c0.2,0.3,0.4,0.7,0.5,1c0.3,0.7,0.5,1.4,0.7,2.1
				c0.4,1.4,0.6,2.9,0.9,4.3c0.5,2.9,0.9,5.8,1.2,8.7c0.6,5.8,1.1,11.7,1.5,17.5c0.9,11.7,1.4,23.4,1.8,35.1
				c0.9,23.4,0.8,46.9,1,70.3c0.2,23.4,0.4,46.8,0.9,70.2c0.2,11.7,0.4,23.4,0.8,35.1c0.4,11.7,0.8,23.4,1.9,35.1l-0.4,0
				c-1.4-11.6-2.1-23.3-2.7-35c-0.6-11.7-1.1-23.4-1.6-35.1c-0.8-23.4-1.4-46.8-2.1-70.2c-0.6-23.4-1.5-46.8-1.8-70.2L59,65
				c-0.1-5.8-0.3-11.7-0.6-17.5c-0.1-2.9-0.3-5.8-0.5-8.7c-0.1-1.5-0.3-2.9-0.5-4.3c-0.1-0.7-0.2-1.4-0.4-2.1
				c-0.1-0.3-0.2-0.7-0.4-1c-0.1-0.3-0.4-0.6-0.6-0.5L56,30.4z"/>
		</g>
		<g>
			<path d="M74.2,215.1c1.7-0.7,3.1-1.8,4.2-3.2c1.1-1.4,2.1-2.9,2.8-4.5c1.5-3.2,2.5-6.6,3.4-10.1c0.8-3.5,1.5-7,2-10.6
				c0.6-3.6,1-7.1,1.4-10.7c0.5-3.6,0.8-7.2,1.2-10.8c0.4-3.6,0.8-7.2,1.2-10.8c0.4-3.6,0.9-7.2,1.6-10.8c0.4-1.8,0.7-3.6,1.3-5.4
				c0.3-0.9,0.6-1.8,1-2.6c0.4-0.8,0.9-1.7,1.8-2.1c-0.8,0.5-1.1,1.4-1.3,2.2c-0.3,0.9-0.4,1.7-0.6,2.6c-0.3,1.8-0.5,3.6-0.6,5.4
				c-0.3,3.6-0.5,7.2-0.7,10.8c-0.2,3.6-0.5,7.2-0.7,10.9c-0.3,3.6-0.7,7.2-1.1,10.9c-0.9,7.2-2,14.5-4.2,21.5
				c-1.1,3.5-2.4,7-4.4,10.2c-1,1.6-2.1,3.1-3.5,4.3c-0.7,0.6-1.5,1.2-2.3,1.6C76,214.6,75.1,214.9,74.2,215.1z"/>
		</g>
		<g>
			<path d="M70.8,231.3c4-2.2,7.8-4.8,11.1-7.9l2.4-2.4c0.8-0.8,1.5-1.7,2.2-2.6c0.8-0.8,1.4-1.8,2-2.7l1-1.4l0.9-1.4
				c1.2-1.9,2.2-3.9,3.3-5.9l1.4-3.1c0.5-1,0.8-2.1,1.2-3.1c1.6-4.2,2.9-8.5,3.8-13c1.9-8.8,2.8-17.9,3.2-27
				c0.3-9.1,0.1-18.2-0.6-27.4c2,9,2.9,18.2,3.1,27.4c0.1,4.6-0.1,9.2-0.5,13.9c-0.4,4.6-1.1,9.2-2.1,13.8c-1,4.5-2.3,9-4.1,13.4
				c-0.5,1.1-0.9,2.2-1.4,3.2l-1.5,3.2l-1.7,3.1c-0.3,0.5-0.6,1-0.9,1.5l-1,1.5c-2.7,3.8-5.8,7.4-9.5,10.3
				C79.2,227.5,75.1,229.8,70.8,231.3z"/>
		</g>
	</g>
	
		<sodipodi:namedview  bordercolor="#666666" borderopacity="1" fit-margin-bottom="10" fit-margin-left="10" fit-margin-right="10" fit-margin-top="10" gridtolerance="10" guidetolerance="10" id="namedview4" inkscape:current-layer="g10" inkscape:cx="68.62908" inkscape:cy="265.90962" inkscape:pageopacity="0" inkscape:pageshadow="2" inkscape:window-height="1190" inkscape:window-maximized="0" inkscape:window-width="1881" inkscape:window-x="2091" inkscape:window-y="175" inkscape:zoom="1" objecttolerance="10" pagecolor="#ffffff" showgrid="false">
		</sodipodi:namedview>
	<path id="path28" inkscape:connector-curvature="0" class="st3" d="M200.3,197.9l-16.7,2.5l-22.5,2.5l-14.6,0.4l-14.2-0.4
		l-10.8-3.3l-9.6-10.4l-7.5-21.2l-1.7-4.6l-10-3.3l-5.8-9.6l-4.2-13.8l4.6-12.1l10.8-3.8l8.8,4.2l4.2,9.2l5-0.8l1.7-2.1l-1.7-9.6
		l-0.4-12.1l2.5-16.7l-0.1-9.5l7.6-12.1l13.3-9.6l23.3-10l25.8,3.8l22.5,16.2l10.4,16.7l6.7,12.1l1.7,30l-5,25.8l-9.2,22.9
		l-8.8,12.1"/>
	<path id="path32" inkscape:connector-curvature="0" class="st4" d="M87.3,124.5l10.8-3.8l8.8,4.2l4.2,9.2l5-0.8l1.2-5l-2.5-9.6
		l2.5-22.9l-2.1-12.5l7.5-8.8L139,61.6l-4.6-6.2l-22.9,11.2l-9.6,7.5l-5.4,11.7L88.2,97l-2.5,13.3L87.3,124.5"/>
	<path id="path34" inkscape:connector-curvature="0" class="st5" d="M104.4,85.4c0,0,6.2-15.4,31.2-22.9s1.2-5.4,1.2-5.4l-27.1,10.4
		L99.4,77.9l-4.6,8.3L104.4,85.4"/>
	<path id="path36" inkscape:connector-curvature="0" class="st5" d="M91.9,121.6c0,0-8.8-29.2,24.6-33.3l-1.2-5l-22.9,5.4l-6.7,21.7
		l1.7,14.2L91.9,121.6"/>
	<path id="path38" inkscape:connector-curvature="0" class="st6" d="M105.3,160.4l5.5-5.3c0,0,2.5,0.3,2.9,3.2
		c0.4,2.9,1.7,29.2,19.6,43.3c1.6,1.3-13.3-2.1-13.3-2.1l-13.3-20.8"/>
	<path id="path40" inkscape:connector-curvature="0" class="st6" d="M181.9,152.4c0,0,1-12.6,4.4-11.7c3.4,1,3.4,4.4,3.4,4.4
		S181.4,150.5,181.9,152.4"/>
	<path id="path42" inkscape:connector-curvature="0" class="st6" d="M216.5,106.2c0,0-6.9,1.5-7.5,7.5c-0.6,6.1,7.5,1.2,8.8,0.8"/>
	<path id="path44" inkscape:connector-curvature="0" class="st6" d="M166.1,106.6c0,0-9.2,1.2-9.2,7.1c0,5.8,10.4,5.4,13.3,2.9"/>
	<path id="path46" inkscape:connector-curvature="0" class="st6" d="M109.4,133.7c0,0-15.8-9.6-17.5-0.4c-1.7,9.2-5.4,15.8,2.5,25.4
		L89,157l-5-12.9l-1.7-12.5l9.6-10l10.8,0.8l6.2,5L109.4,133.7"/>
	<path id="path48" inkscape:connector-curvature="0" class="st6" d="M116.9,107.4c0,0,7.1-36.7,42.9-43.8c29.5-5.8,45,1.3,50.8,7.9
		c0,0-26.2-31.2-51.3-21.7c-25,9.6-43.3,27.1-42.9,38.3C117.2,107.4,116.9,107.4,116.9,107.4"/>
	<path id="path50" inkscape:connector-curvature="0" class="st6" d="M213.6,75.8c0,0-12.1-0.4-12.5,10.4c0,0,0,1.7,0.8,3.3
		c0,0,9.6-10.8,15.4-5"/>
	<path id="path52" inkscape:connector-curvature="0" class="st6" d="M160.7,90.7c0,0-2.1-16.6-16.3-7c-9.2,6.2-8.3,15-6.7,16.7
		c1.7,1.7,1.2,5,2.5,2.7c1.3-2.3,0.9-9.8,5.4-11.9C150.3,89.1,157.8,86.8,160.7,90.7"/>
	<path class="st7" d="M109.4,192c0,0-40.3,24.8-40.3,24.8c3.8,15.2,8.7,30,12,45.3c3,13.8,3.5,27.2,3.8,41.2
		c12.5,5.9,25.1,10.9,38.2,15.2l86.3-10.7l-7.1-40.4c0,0,15.2-2.6,15.2-2.6c2.1-0.4,8.3-20.6,9.2-23c3.9-10.6,6.8-21.5,8.9-32.6
		c-7.6-8-15.6-15.5-23.5-23.2c-3.5,4.9-6.9,10-10.6,14.8c-5.2,6.7-12.7,8.2-20.8,9.2c-10.5,1.3-20.6,3-31.2,1.3
		c-9.3-1.5-20.8-4-29.2-8.5C119,202,109.4,192,109.4,192z"/>
	<path id="path68" inkscape:connector-curvature="0" class="st8" d="M140.1,352.4l-8.6-35l-4.3-25.8l-0.7-19.2l39-2.1l24.3,0
		l3.8,43.8l-2.2,33.7l-0.4,6.2l-31.7,2.5L140.1,352.4"/>
	<path id="path68_1_" inkscape:connector-curvature="0" class="st9" d="M140.8,352.1l-9.3-35l61.5-3.3l3,33.7l-0.4,6.2l-34.1,2.5
		L140.8,352.1"/>
	<path id="path68_2_" inkscape:connector-curvature="0" class="st0" d="M132.3,312.3l-4.3-19.8l-0.7-19.2l39-2.1l24.3,0l1.8,37.8
		L132.3,312.3z"/>
	<path id="path72" inkscape:connector-curvature="0" class="st10" d="M209.7,304.9l16.2-4.6l30.8-1.7l4.6-14.2l-8.3-24.6l-9.6-1.2
		l-13.3,4.2l-12.8,6.2l-6.8-1.2l-5.3,2.1L209.7,304.9z"/>
	<path id="path74" inkscape:connector-curvature="0" class="st11" d="M209.4,296.6c0,0,10.8-5,12.5-4.6l-4.6-22.9l5.4-2.1
		c0,0,3.8,21.7,3.8,24.2c0,0,23.3,1.2,25.4,1.2c0,0,5-9.6,3.8-19.6l4.6,13.3l0.4,7.5l-6.7,10l-7.5,1.7l-12.5-0.4l-4.2-5.4l-14.6,2.1
		l-4.6,1.7L209.4,296.6z"/>
	<path id="path100" inkscape:connector-curvature="0" d="M160.7,90.7c-11.4-2.6-17,4.8-20.4,12.4c-3.1-0.7-1.9-4.9-1.1-7.1
		c2-5.6,10.2-13,16.9-12C159,84.4,162.9,87.1,160.7,90.7"/>
	<path id="path102" inkscape:connector-curvature="0" d="M216,103.6c0.2,0,0.4,0,0.5,0c2.6,5.3,4.8,11,8,15.7
		c-2.2,5.1-16.4,9.5-16.2,0.5c3.1-1.3,8.4-0.3,11.1-2C217.9,113.4,215.6,109.7,216,103.6"/>
	<path id="path104" inkscape:connector-curvature="0" d="M166.5,103.7c2.4,4.5,3.2,9.2,6.7,12.5c1.6,1.5,4.6,3.4,3.1,7.6
		c-0.4,1-2.9,3.2-4.4,3.7c-5.4,1.6-18,0.3-13.8-6.4c4.5,0.2,10.5,2.9,13.8-0.3C169.4,116.6,164.8,108.5,166.5,103.7"/>
	<path id="path106" inkscape:connector-curvature="0" d="M214,149.1c-8.1,5.2-17.2,10.9-30.6,9.6c-2.9-2.5-3.9-8-1.2-11.6
		c1.4,2.5,0.5,7,4.6,7.7c7.6,1.3,16.4-4.6,21.8-6.7c3.4-5.7-0.3-7.8-3.3-11.5c-6.2-7.5-14.6-16.8-14.3-28.1c2.5-1.8,2.7,2.8,3.1,3.6
		c3.3,7.6,11.4,17.4,17.4,23.9c1.5,1.6,3.9,3.1,4.2,4.2C216.4,143.3,213.7,147,214,149.1"/>
	<path id="path108" inkscape:connector-curvature="0" d="M106.6,143.6c-2.6-1.5-3.2-7.9-6.2-8.1c-4.3-0.3-3.5,8.3-3.5,13.4
		c-2.9-2.7-3.5-10.9-1.3-15.2c-2.5-1.2-3.6,1.3-4.9,2.2C92.4,123.2,109.4,130,106.6,143.6"/>
	<path id="path110" inkscape:connector-curvature="0" d="M219.2,154.4c-3.8,7.2-9.2,15.2-20.3,15.4c-0.2-2.3-0.4-5.9,0-7.3
		C207.4,161.7,212.7,157.4,219.2,154.4"/>
	<path id="path112" inkscape:connector-curvature="0" d="M165.8,159.1c7.1,3.7,20.1,4.1,29.8,3.9c0.5,2.1,0.5,4.7,0.5,7.3
		C183.8,170.9,169.1,167.8,165.8,159.1"/>
	<path id="path54_2_" inkscape:connector-curvature="0" class="st12" d="M83.2,221.2c0,0,16.2,64.6,7.9,84.6l-5.8-2.1l-0.4-24.6
		L74,232.4l-4.6-12.9"/>
	<path class="st12" d="M164.6,260.9c0,0,12.4,1.9,12.5,1.9c-0.6-0.1-5.6-9.5-7-19.1c-1.3-8.8-0.9-11.6,0.4-11.6
		c19.2,0.1,22.7,24.6,21.9,22c0,0,13.8-6.8,13.8-9.6l-8.1-11.3l-15.2-7.8l-15.2-3.9l-4.1,13.3L164.6,260.9z"/>
	<path class="st12" d="M117.8,230c-0.5,4.5-13.3,9.3-13.3,9.3c1,1.1,18.5,5.3,22.9,3.2C127.3,242.5,118.2,226.1,117.8,230z"/>
	<path id="path114" inkscape:connector-curvature="0" d="M164.5,166.1c4.9,12.3,21.8,10.9,36,10.6c-0.6,1.6-2,3.5-3.7,4.2
		c-4.6,1.9-17.1,3.3-23.5-0.1c-4-2.1-6.6-7-8.8-9.8C163.5,169.5,158.2,166.1,164.5,166.1"/>
	<path class="st13" d="M158.9,214.8l4.3,52.6l-36.7,5c0,0-2.1-24.5-1-33.4c1.8-14.1-55.4-21.2-55.4-21.2l39.3-25.8l17.1,17.6
		L158.9,214.8z"/>
	<path id="path54_1_" inkscape:connector-curvature="0" class="st14" d="M121.4,202.5c0,0,12.2,20.7,7.6,18.5
		c-16.3-7.8-38.4-1.8-38.4-1.8l-15.1-2.6l33.7-25.8L121.4,202.5"/>
	<path id="path118" inkscape:connector-curvature="0" d="M244.4,269.5c-6.4,1.3-11,7.6-17.3,7.2
		C230.6,271.8,236.6,269.7,244.4,269.5"/>
	<path class="st15" d="M207.7,206.3l4.2-16.3l24.8,19.2l-17.1,55.6c0,0-19.7,6.4-19.2,2.6C203.7,240.5,207.7,206.3,207.7,206.3z"/>
	<path id="path120" inkscape:connector-curvature="0" d="M247.2,279.6c-5.3,0.6-11.4,1.4-16.8,1C233,276.7,242.7,278,247.2,279.6"/>
	<path id="path66_1_" inkscape:connector-curvature="0" class="st14" d="M206.5,245c0,0,12.2-7,20-21.1c1.2-2.2,7.6-17.2,7.6-17.2
		l-22.1-20.4l-6.8,55.6L206.5,245z"/>
	<path id="path122" inkscape:connector-curvature="0" d="M249,288.3c-5.9,0.1-13.2,0-18.9-0.5C233.5,284.3,245.2,286.5,249,288.3"/>
	<path id="path124" inkscape:connector-curvature="0" class="st9" d="M202.3,312.1c0.8,7.4,3.8,14.9,3.4,23.1
		c-3.3,1.1-5.1,2.1-9.5,2.1c-0.3-6.9-1.2-17.5-1-24C197.4,313.3,200.5,311.6,202.3,312.1"/>
	<path id="path126" inkscape:connector-curvature="0" class="st3" d="M192.7,202.8c-3,1.9-5.5,4.4-8.3,6.4
		c-6.3,0.3-9.8-0.4-14.4-4.1c0.1-0.3,0.5-0.2,0.6-0.5C177.3,207.6,185.9,203.4,192.7,202.8"/>
	<path id="path56_1_" inkscape:connector-curvature="0" class="st14" d="M127.3,238.6c0,0,17.9-15.1,18.4-13.7
		c1.9,5.1,14.8,33,14.8,33l0.1,1.7c-19.9-7.3-20.3-24.4-20.3-24.4s-1.8,2-6.4,5c-2.5,1.6-6.5,2.3-6.5,2.3L127.3,238.6z"/>
	<path id="path58_1_" inkscape:connector-curvature="0" class="st12" d="M126.7,274.2L108,275l5.4,3.8l13.3,2.1"/>
	<path id="path64_1_" inkscape:connector-curvature="0" class="st12" d="M205.5,267.1l-14.6,2.9l2.1,11.7c5.4,2.5,14.6-4.2,14.6-4.2
		"/>
	<path id="path130" inkscape:connector-curvature="0" d="M195.2,313.2c-0.3,6.6,0.6,17.1,1,24c4.4,0,6.3-1,9.5-2.1
		c0.4-8.1-2.6-15.6-3.4-23.1C200.5,311.6,197.4,313.3,195.2,313.2z M127.1,275.7c2.9,26.5,7.1,48.8,14.7,72.3
		c17,5.2,37.5,5.6,52.6,1c-2.8-13.3-1.6-29.4-3.2-43.5c-1.2-10.6-0.6-21.3-2.3-32.2C170.7,269.5,145,272.4,127.1,275.7z
		 M193.2,273.4c-0.2,11.4,0.5,22.6,1.4,34c4.4-0.7,7.3-1.1,11.4-2c-1.3-11-1.2-23.3-3.8-33.1C199.1,272.5,196.3,272.4,193.2,273.4z
		 M215.4,271.6c-2.1-0.5-4.5,0-6.5,0c0.9,9.3,3.2,19.5,4,29.3c3.1,0.1,4.8-1.4,7.4-1.9C220.4,290.5,219.6,278.7,215.4,271.6
		L215.4,271.6z M249,302.3c6.5-1.6,10.6-9.5,8.8-17.7c-1.2-5.5-3.4-15.9-5.7-19.4c-1.7-2.6-6.4-6-10.1-3.6c-6.1,3.9-16.7,5-21.1,9.7
		c2.2,7.4,2.9,17.5,3.8,26.8c7.6,0.5,16.9-2.1,23.2,0.6c-4.4,1.4-10.1,1.4-13.9,3.5C237,303.8,244.3,303.5,249,302.3L249,302.3z
		 M170.6,204.6c0,0.4-0.5,0.2-0.6,0.5c4.6,3.6,8.1,4.4,14.4,4.1c2.8-2.1,5.4-4.5,8.3-6.4C185.9,203.4,177.3,207.6,170.6,204.6z
		 M152.4,215c-8,0.1-26.2-4.2-32.4-8.6l0,0c-1.1-0.8-8.8-10.8-9.8-10.4c-13.9,5.5-26.8,14.9-38.4,23.9c11,23.7,15.5,52.7,16.3,80.7
		c12.7,5.9,23.8,14.5,40.9,15.3c-2-14.1-3.8-26.6-4.9-39.8c-4.3-1.8-10.5,0.1-14.5-0.6c0-4.9,6.2-2.1,6.7-5.4
		c0.4-2.5-3.4-2.7-2.2-6.6c3.2,1.1,4.8,3.7,8.2,4.6c3.1-6.7,0-18.6,0.4-24.3c0.1-1.1,0.5-5.9,2.9-5c2.1,0.7-0.1,12.8,0.1,18.1
		c0.2,4.9-0.6,9.7,1.4,12.7c16.6-2.3,33.5-3.7,51.4-4.2c0,0,30.5,0.2,36.2-2.1c2.1-0.8,3.6-5.7,5.2-9.5c4.4-10.6,9-24,11-34.1
		c0.5-2.3,1.7-7.3,1.4-9.4c-0.5-3.7-5.5-6.4-8-8.7c-4.7-4.2-7.6-7.9-12.5-11.8c-2,2.9-6.2,4.9-7.8,7.2h0
		C204,197.3,213.7,213.8,152.4,215z M93.6,94.8c-5.5,6.1-4.4,17.4-3.7,25.5c10-6.3,23.2,0.5,23,11.1c4.8-0.1,1.8-5.9,0.9-9.7
		c-2.8-12.2,4.7-25.5,0.3-36.7C105.7,85.7,98.7,89.2,93.6,94.8L93.6,94.8z M133,59.6c-12.5,3.5-28.4,12.6-33.6,23.8
		c4-0.6,6.7-2.6,10.6-2.8c1.5-0.1,3.4,0.6,5.1,0.2c3.4-0.8,6.2-8.4,8.8-11.3c2.5-2.8,5.5-3.9,7.5-6.5c1.3-0.6,3.3-0.6,3.3-2.6
		C134.3,59.9,133.7,59.4,133,59.6z M197.9,63c-12.9-7.3-34.8-12.8-48.6-5.9c-11.1,5.5-26.1,14.7-31.2,26.3
		c4.8,11.2-1.4,21.5-1.8,32.8c-0.2,6.1,2.8,11.3,3.1,17.9c-1.6,2.7-6.6,3-10.1,2.8c-1.2-5.8-3.2-12.4-9.2-13
		C91.6,123,85.3,130,85,137.3c-0.5,8.6,6.6,22.9,16.7,22c3.9-0.4,4.8-4.3,9.1-4.2c2.3,4.6-3.5,6-4.1,9.3c-0.2,0.8,0.5,4.1,0.9,5.7
		c1.8,7.5,5.9,17.3,9.9,23c5.1,7.3,15.1,8.4,25.8,9.1c1.9-4.1,9-3.8,13.6-2.7c-5.5-2.2-10.7-7.5-14.9-12.2
		c-4.9-5.4-9.8-11.2-10.1-18.2c9.2,12.8,16.9,24,33.6,29.6c12.7,4.3,27.5-2,37.3-8.8c4.1-2.8,6.5-7.4,9.3-11.5
		c10.8-15.5,15.8-37.6,14.7-59c-0.5-8.8-0.4-17.6-3.4-23.6c-3.1-6.2-13.6-11.8-19.7-6.2c-1.1-6,5.1-9.8,12.4-7.6
		C210.8,75.3,205.3,67.2,197.9,63L197.9,63z M222,262.4c10.1-5,29-13.5,35.3,0c2.3,5,5.1,13.4,6.3,18.6c1.7,7.3-1.9,22.6-9.3,25
		c-6.6,2.2-14.3,2-22.3,0.4c-0.9-0.8-2-2.1-2.7-3.6c-5.7-0.2-11,0.3-15.5,2.6c0.4,4.2-2.4,4.9-5.1,5.7c-2,7.8,3.9,18,2.5,25.2
		c-1,5.1-7.3,5.9-11.9,6.8c-0.2,2.8,0.2,5.2,0.5,7.6c-1.1,3.9-5.8,6.1-10.2,6.6c-14.7,1.8-37,2.6-51.2-2.5
		c-3.9-9.7-7.1-21.4-10.3-32.5c-13.8,1.5-24.9-5.9-35.5-10.8c-3.6-1.7-8.7-2.6-10-5.5c-1.3-2.8-0.8-8.2-1.1-13.3
		c-0.8-13-1.5-25.5-5-38.8c-1.5-6-4.2-11.2-6.1-17c-1.7-5.3-4.7-11.9-5.5-17.2c-1.2-7.9,6.2-8.3,11-11.7c7.3-5.3,13.1-8.2,21-12.9
		c2.3-1.4,9.4-5,10.2-6.6c1.6-3.3-2.7-7.8-3.9-10.4c-1.8-4-2.8-7.5-3.1-11.4c-6.7-1.1-11.7-5-14.7-9.5c-5-7.4-8.5-21.1-4.2-31.5
		c0.3-0.8,2-2.4,2.3-3.7c0.5-2.5-0.9-5.8-1-8.4c-0.5-13.5,2.3-25.2,11.4-29.2c3.7-14.7,16.9-19.6,29.4-26.9
		c4.7-2.7,9.8-4.5,15.1-6.4c19-7,48.2-5.7,64,6.3c6.7,5.1,17.4,15.7,21.2,23.5c10.1,20.4,9.4,54.6,2.3,79.4
		c-0.9,3.3-2.3,8.2-4.3,12.2c-1.3,2.8-5.5,8.4-5,10.9c0.5,2.6,9.5,9.4,11.4,11.2c3.5,3.3,10.1,7.8,10.6,12c0.6,4.5-2,10.6-3.3,15
		C231.1,236.1,226.9,249.5,222,262.4"/>
	<path id="path132" inkscape:connector-curvature="0" class="st6" d="M154.6,162.2c0.5-0.7,3.6-1.8,7.8,0.2c0,0-5,0.8-4.6,9.2
		l-2.1-0.4C155.7,171.2,153.5,163.6,154.6,162.2"/>
	<text transform="matrix(1 0 0 1 9.4023 429.3587)" class="st16 st17 st18">Jenkins</text>
	<polygon class="st8" points="162.5,287.6 168.5,306.8 188.5,305.7 172.2,317.3 179.4,336.1 163.3,324.1 147.7,336.8 154.1,317.7 
		137.2,306.8 157.3,307.1 	"/>
</g>
<g id="Слой_3">
	<g>
		<path class="st10" d="M269.2,43.3c-1-3.1-3.8-6.2-7.1-6.6c-3.4-0.4-7.4-0.6-10.7,0.6c-3.9,1.4-7.4,4.6-11.1,6.6
			c-8,4.5-16.4,8.1-25.2,10.7c-2.1,0.6-4.6,1.4-6.7,0.9c-2.3-0.5-2.8-2-4-3.9c-2.4-4-4-8.3-4.8-12.8C197.5,28,195.8,13,183.1,9.5
			c-6.8-1.9-13.4-0.3-19.9,1.6c-12.9,3.6-25.1-4.7-37.9-0.7c-6.6,2-12.3,6.6-16.4,12.1c-4.3,5.8-6.1,12.2-8.2,18.9
			c-0.2,0.5-1.3,3.8-2.4,6.8c-7-1.6-14-2.7-21.1-2.9c-9.6-0.3-21.6,1.3-30.2,5.8c-6.5,3.4-13,8.3-17.1,14.4
			c-10.5,15.6-3.4,40.4,9.8,53.4c14.7,14.5,29.6,22.6,47.3,31.4c-1.6-6.2-5.1-13.9-5-20.4c0.2-15.2,11.4-30.1,24.6-38.3
			c5.2-3.2,11.2-5.2,17-7.1c12.2-3.9,25.7-3.4,37.9,0.3c12.4,3.7,22.9,11,35.8,13.6c7.3,1.5,14.1,0.9,20.8-0.6
			c7.8-1.7,16.2-4,22.9-8.3c12.7-8.3,23-20,27.6-34.7C269.6,51,270.4,47,269.2,43.3z"/>
		<path class="st11" d="M32.4,98.5c3.5,10,10.5,18.6,18.6,25.2c5.5,4.5,11.5,8.2,17.7,11.8c2.8,1.7,5.8,3,8.8,4.5
			c0.5,0.2,4.8,1.9,4.8,2.5c-0.7-6.4-1.8-12.4-0.6-18.9c1.9-10,8-17.3,14.2-25c7.1-5.2,13.6-9.8,21.8-13c4.6-1.9,9-3.8,14-4.4
			c5.3-0.7,10.6-0.6,15.9-0.2c7.3,0.6,13.3,2.6,19.9,5.4c-5.4-2.2-10.8-6.4-15.9-9.4c-8.5-5-17.4-9-26.5-12.9
			c-5.4-2.3-10.8-4.6-16.3-6.7c-3.8-1.5-7.6-2.9-11.5-4c-13.8-3.9-27-3-40.8,0c-5.9,2.3-11.8,4.3-16.5,8.6
			c-6.2,5.7-9.7,14.1-10,22.4C30,89.1,30.8,93.9,32.4,98.5z"/>
		<path class="st11" d="M108.4,22.5c0.4-1,5.7-2.3,6.9-2.7c2.1-0.7,4.4-1.5,6.6-1.9c10.1-1.7,22.1,7.7,22.1,17
			c0,21.9,6.8,26.9,6.3,26.9c-5.5-0.3-16.7-0.3-22-2c-2.6-0.8-5.1-2.1-7.6-3.3c-7.3-3.5-14.9-5.8-22.6-8.3
			C98.3,48.2,108.4,22.5,108.4,22.5z"/>
		<path class="st19" d="M268.6,43.4c-3.6-10.1-15.6-7.1-22.6-3.1c-10.2,5.8-20,11.1-31.3,14.4c-2.1,0.6-4.6,1.4-6.7,0.9
			c-2.3-0.5-2.8-2-4-3.9c-2.4-4-4-8.3-4.8-12.8C197,28,195.4,13,182.7,9.5c-6.8-1.9-13.4-0.3-19.9,1.6c-12.9,3.6-25.1-4.7-37.9-0.7
			c-6.6,2-12.3,6.6-16.4,12.1c-4.3,5.8-6.1,12.2-8.2,18.9c-0.2,0.5-1.3,3.8-2.4,6.8c-7-1.6-14-2.7-21.1-2.9
			c-9.6-0.3-21.6,1.3-30.2,5.8c-6.5,3.4-13,8.3-17.1,14.4c-10.5,15.6-3.1,40.1,9.8,53.4c14.6,15.1,27.8,21.1,45.5,29.9
			c-1.6-6.2-2.9-12.4-2.8-18.9c0.2-15.2,10.9-31.1,24.2-39.3c5.2-3.2,11.2-5.2,17-7.1c12.2-3.9,25.7-3.4,37.9,0.3
			c12.4,3.7,22.9,12,35.8,14.6c7.3,1.5,14.1,0.9,20.8-0.6c7.8-1.7,16.2-3.9,22.9-8.3c9.5-6.2,18.9-14.2,24.7-24.2
			C268.3,59.8,271,50.1,268.6,43.4z"/>
		<polyline class="st19" points="162.3,76.9 142.3,65.8 121,55.9 107.6,51 94.8,47.6 		"/>
		<g>
			<path d="M76.9,74.8c11.7-1.2,23.6-0.8,35.4,0.2c11.8,1,23.5,2.7,35.1,4.1l-0.6,4c-11.6-2-23.2-4.4-34.8-6.1
				C100.4,75.3,88.7,74.3,76.9,74.8z"/>
		</g>
		<g>
			<path d="M206,51.6c1.5,3,3.2,5.7,5.6,7.8c2.4,2,5.7,3.3,8.9,5.2c1.6,0.9,3.2,2,4.6,3.4c1.4,1.5,2.2,3.3,2.6,5.2
				c0.3,1.9,0.2,3.7-0.1,5.5c-0.3,1.8-0.9,3.5-1.5,5.2c0.7-3.5,1.2-7.1,0.2-10.4c-0.5-1.6-1.4-2.9-2.7-4c-1.2-1-2.8-1.7-4.3-2.4
				c-3.2-1.3-6.7-2.1-10.2-4.2c-3.4-2.1-6.1-5.2-8.2-8.3L206,51.6z"/>
		</g>
		<g>
			<path d="M160.7,24.5c2.2,0.5,4.2,1.5,6.1,2.4c1.9,0.9,3.6,1.7,5.4,2.1c1.7,0.4,3.5,0.5,5.5,0.4c2-0.1,4.2-0.3,6.5-0.1
				c-1.8,1.3-3.7,2.4-5.9,3.1c-2.1,0.7-4.6,1-7.1,0.4c-2.4-0.6-4.4-1.9-6.1-3.3C163.3,28,161.9,26.4,160.7,24.5z"/>
		</g>
		<g>
			<path d="M145.8,51.7c-0.8-3.6-1.3-7.1-2-10.6c-0.7-3.4-1.6-6.7-2.9-9.8c-1.3-3-3.2-5.8-5.6-7.9c-0.6-0.5-1.3-1-2-1.4
				c-0.7-0.4-1.4-0.7-2.2-0.9c-1.6-0.4-3.5-0.4-5.3-0.7c1.7-0.6,3.4-1.2,5.4-1.3c1-0.1,2.1,0.1,3,0.4c1,0.3,1.9,0.7,2.7,1.2
				c3.5,2.1,5.9,5.3,7.5,8.9c1.5,3.6,2.2,7.3,2.3,11C147,44.4,146.7,48.1,145.8,51.7z"/>
		</g>
		<g>
			<path d="M114.6,27.9c-2.3,3.5-3.8,7.5-4.3,11.5c-0.5,4-0.2,8.1,0.4,12.1l-4,0.3c0.1-4.3,0.4-8.7,1.7-12.8
				C109.6,34.8,111.8,31,114.6,27.9z"/>
		</g>
		<path class="st20" d="M131.5,60.4c18,2,35.8,3.5,53.9,0.8c7-1,12.8-3.2,18-8.1l3.4,5.1c0,0,5.5,5.1,5.5,5.1c1,1.4-6.7,7.5-7.7,8.2
			c-5.7,4-12.1,5.7-18.8,7.2c-3.9,0.9-16.2,1.8-16.2,1.8S131.5,60.4,131.5,60.4z"/>
		<g>
			<path d="M161.8,74.3c2.6,1.9,5.3,3.8,8.1,5.5c2.7,1.8,5.5,3.5,8.4,5.1c2.9,1.6,5.8,3.1,8.8,4.3c3,1.2,6.2,2.3,9.5,2.3
				c-3.3,0.3-6.6-0.5-9.8-1.4c-3.2-0.9-6.3-2.1-9.4-3.5c-3.1-1.3-6.1-2.8-9-4.3c-3-1.5-5.9-3.1-8.8-4.8c-1-0.6-1.3-1.8-0.7-2.7
				s1.8-1.3,2.7-0.7C161.7,74.2,161.7,74.2,161.8,74.3L161.8,74.3z"/>
		</g>
	</g>
	<g>
		<g>
			<path class="st21" d="M90.6,214.9c14.6-5.5,39.4,1.9,39.3,3.1c0,0,3.5-12.6,3.5-12.6S93,182,90.6,214.9z"/>
			<path class="st21" d="M111.2,186.7c0,0-12.4-2.4-25.5,8.8c19.6,19.8,54,17.6,54,17.6s-5.8-9.6-5.8-9.6
				C118.5,202.8,111.2,186.7,111.2,186.7z"/>
			<path class="st21" d="M194.4,247.7c26.6-13.3,22.3-58.6,22.3-58.6s-36.5,20-52.3,21.7c-4.4,0.5-9.4,9.2-13.9,9.7
				c0,0,13.3,4,22.4,6.5C190.6,231.9,194.4,247.7,194.4,247.7z"/>
			<path class="st1" d="M170,220.6c9.3,3.2,23.4,10.8,27.8,18.6c2.1-2.4,9.3-8,7.5-10.7C200.1,220.1,184.4,209.2,170,220.6z"/>
			<path class="st21" d="M148.2,216.7c0,0,45.6-3.4,59.9,23.5c17.3-15.2,22.7-29.9,22.1-39.7c-0.7-11.3-16.8-13.9-16.8-13.9
				c-5,7.2-26.4,16.1-29.7,16.7c-10.6,2-15.6,1.8-24.1,1.7c-5.2-0.1-6.2,2.8-11.4,2.5L148.2,216.7z"/>
			<g>
				<path d="M159.5,206.8c1.5-0.2,2.8-0.2,4.2-0.1c1.4,0.1,2.7,0.3,4,0.5c1.3,0.3,2.6,0.6,3.8,1.1c1.2,0.4,2.4,1,3.5,1.6
					c-1.3-0.3-2.5-0.5-3.8-0.6c-1.3-0.1-2.5-0.1-3.7,0c-1.2,0.1-2.4,0.3-3.6,0.6c-1.2,0.3-2.4,0.6-3.3,1L159.5,206.8z"/>
			</g>
			<g>
				<path d="M134.2,209.4c-1.5-0.1-2.7-0.3-4.1-0.5c-1.3-0.2-2.6-0.5-3.9-0.9c-1.3-0.3-2.5-0.7-3.7-1.2c-1.2-0.4-2.4-1-3.5-1.6
					c1.3,0.2,2.5,0.4,3.8,0.5c1.3,0.1,2.5,0.1,3.8,0.1c1.2,0,2.5-0.1,3.7-0.2c1.2-0.1,2.5-0.3,3.5-0.6L134.2,209.4z"/>
			</g>
			<g>
				<path d="M171.6,213.3c-2.6-0.2-5.1-0.4-7.8-0.8l0,0c-0.9-0.1-1.6-1-1.4-1.9c0.1-0.9,1-1.6,1.9-1.4c0.2,0,0.5,0.1,0.7,0.3
					C167.1,210.8,169.4,212,171.6,213.3z"/>
			</g>
			<path class="st1" d="M109.4,190.6c-1.7-1.5-14.3,3.9-15,4.3c6.4,5.9,14.5,10.4,22.6,13.5c-3.5-5.9-0.4-5.4,4.1-5.2
				C115.8,202.9,112,192.8,109.4,190.6z"/>
			<path class="st1" d="M175,215.3c28.3-2.4,33.3,14.8,33.3,14.8s14-13,16.2-19.5c2.2-6.5-3.3-12.6-8.1-17
				C206.2,213.5,184.4,200.3,175,215.3z"/>
		</g>
		<g>
			<path class="st21" d="M146.6,202.5c-5.7,0-11.3,1.9-15.5,5.8c-3.3,3.1-5,7.3-6.4,11.5c-1.6,4.7-3.9,9.1-6.8,13.2
				c-1.9,2.6-4.1,3.9-6.8,5.4c4.9,1,9.3,1.4,14.3,0.9c2.3-0.2,4.7-0.6,6.7-1.7c5.9-3.1,8.9-9.8,11.7-15.5c1.3-2.6,2.6-5.2,3.9-7.8
				c0.5-1,3-4.3,2.8-5.5c0,0-1.1-6.3-1.1-6.3S146.6,202.5,146.6,202.5z"/>
			<path class="st21" d="M160.2,207.6c0.7,0,2.5,2.7,2.9,3.3c1,1.6,1.8,3.4,2.4,5.3c1.2,4.3,0.5,8.2-0.5,12.4
				c-2,8.6,1.4,22.1,5.1,29.5c-3.7-0.8-7.4-1.6-11-2.8c-1.2-0.4-2.4-0.9-3.5-1.5c-7.9-4.6-12-14.1-12.3-22.9
				c-0.2-4.9,0.6-9.8,1.9-14.5c0.2-0.7,2.1-8.8,2.9-8.8C148,207.6,160,207.6,160.2,207.6z"/>
			<g>
				<path d="M144.7,210.1c0-0.1-0.2-0.2-0.4-0.3c-0.2-0.1-0.3-0.2-0.5-0.3c-0.3-0.2-0.7-0.3-1.1-0.4c-0.8-0.2-1.6-0.3-2.4-0.1
					c-0.8,0.2-1.7,0.4-2.5,1c-0.4,0.2-0.7,0.6-1.1,0.9c-0.4,0.3-0.7,0.7-1,1.1c0.2-0.5,0.4-0.9,0.6-1.4c0.3-0.4,0.5-0.9,0.8-1.3
					c0.6-0.9,1.4-1.6,2.4-2.2c1-0.6,2.2-1,3.3-1.1c0.6-0.1,1.2-0.1,1.8,0c0.3,0,0.6,0.1,0.9,0.1c0.3,0.1,0.6,0.1,1,0.2L144.7,210.1z
					"/>
			</g>
			<g>
				<path d="M134.4,224.4c0-1.7,0.3-3.5,0.8-5.1c0.5-1.7,1.3-3.3,2.2-4.8c0.9-1.5,2-3,3.2-4.3c1.2-1.4,2.4-2.6,3.9-3.9l2.4,3.7
					c-1.3,0.7-2.7,1.6-4,2.6c-1.3,1-2.5,2.1-3.7,3.3c-1.1,1.2-2.1,2.5-3,4C135.4,221.2,134.8,222.8,134.4,224.4z"/>
			</g>
			<g>
				<path d="M158.5,230.4c0.3-1.4,0.2-2.9,0-4.3c-0.3-1.4-0.8-2.7-1.4-3.9c-0.6-1.2-1.4-2.4-2.2-3.5c-0.8-1.1-1.8-2.2-2.7-3l3.4-2.8
					c0.9,1.4,1.6,2.8,2.2,4.2c0.6,1.4,1.1,2.9,1.4,4.4c0.3,1.5,0.5,3.1,0.4,4.6C159.5,227.6,159.1,229,158.5,230.4z"/>
			</g>
			<g>
				<path d="M149.9,234.4c-0.5-1.6-1-3.2-1.2-4.9c-0.3-1.7-0.3-3.4-0.3-5.1c0.1-1.7,0.3-3.5,0.7-5.2c0.2-0.9,0.5-1.7,0.8-2.6
					c0.3-0.9,0.6-1.6,1.1-2.6l3.6,2.5c-0.4,0.4-0.9,1.1-1.3,1.7c-0.4,0.6-0.8,1.3-1.1,2c-0.7,1.4-1.3,2.9-1.7,4.4
					c-0.4,1.5-0.7,3.1-0.8,4.7C149.7,231.1,149.8,232.8,149.9,234.4z"/>
			</g>
			<path class="st21" d="M150,216.2c0.3,0.3,0.5,0.6,0.8,0.7c4.4,2.3,9.5-1.5,11.6-5.3c0.6-1.2,1-2.5,0.7-3.8
				c-1-4.3-6.9-6.7-10.9-6.9c-5.9-0.3-9.1,5.5-8.3,10.9c0.4,2.7,2.5,2.5,4.6,2.9C149,214.9,149.5,215.6,150,216.2z"/>
			<g>
				<path d="M161.7,222.3c0.1-1.7,0-3.3-0.4-4.8c-0.2-0.7-0.5-1.4-0.9-1.8c-0.4-0.4-0.8-0.6-1.2-0.7l2.4-3.6c1,0.9,1.6,2,1.8,3.1
					c0.3,1.1,0.2,2.1,0.1,3C163.2,219.3,162.6,220.8,161.7,222.3z"/>
			</g>
			<path class="st1" d="M154.3,204.3c0.1-0.1-2.3-2.4-5.1,0c-2.5,2.2-4.3,7.6,3.7,10.2c1.3,0.4,6-0.8,5.1-4c-0.9-3.4-5-1.1-5.6-2.7
				C152.1,206.9,154.2,204.4,154.3,204.3z"/>
			<g>
				<path d="M152.5,207.9c0.1-1.3,0.6-2.6,1.6-3.7c0.5-0.5,1.1-1,1.8-1.3c0.7-0.4,1.4-0.6,2.2-0.7l0,0c0.9-0.2,1.8,0.4,2,1.3
					c0.2,0.9-0.4,1.8-1.3,2c-0.3,0.1-0.5,0-0.8,0c-0.5-0.1-1-0.2-1.5-0.2c-0.5,0-1,0.1-1.5,0.3C154,206,153.1,206.8,152.5,207.9z"/>
			</g>
			<path class="st1" d="M165.6,255c-1.6-0.7-9-5.1-10.4-6.1c-2.1-1.6-3.9-3.6-5.2-5.8c-0.5-0.9-1.6-2.9-0.8-3.8
				c0.3-0.3,0.8-0.4,1.2-0.3c0.5,0.2,1,0.6,1.3,1c0.3,0.3,0.5,0.7,0.5,1.1c-0.1-1-0.5-2-0.8-3c-0.3-1-0.3-2.1-0.3-3.1
				c0-2.2,0.6-4.3,1.6-6.2c0.6-1.1,1.3-1.8,2.3-2.5c0.3,0.9,0,2,0,3c0,1.5,0.2,3.2,1.2,4.3c0.1,0.1,0.2,0.3,0.4,0.3
				c0.7,0.2,2.1-1.9,2.4-2.4c0.7-1.1,1.4-2.2,2-3.3c-0.4,1.5,0.1,3.2-0.3,4.6c-0.8,2.9-0.2,6,0.3,9
				C161.2,242.9,164.8,255.1,165.6,255z"/>
			<path class="st1" d="M123.2,234.9c2.6,0.4,5.1,0.5,7.7-0.6c0.7-0.3,1.3-0.7,1.9-1.1c4.1-2.7,5.8-6.9,6.9-11.5
				c-0.3,1.1-2,2.7-2.6,3.7c-0.9,1.4-1.5,2.9-2.3,4.3c-0.8-0.8-1.6-2.1-1.9-3.2c-0.2-0.9-0.4-1.8-0.5-2.8c-0.1-1.8,0.4-3.3,1.5-4.7
				c-0.8-0.4-1.2-0.8-1.4-1.7c-0.2-1.2,0.2-2.2,0.6-3.3c0,0.1-0.6,0.3-0.7,0.4c-0.6,0.3-1.1,1-1.5,1.6c-1.8,2.6-2.2,6-2.5,9.1
				c0,0.3-0.1,0.6-0.1,0.8c-0.3,2.3-0.7,4.7-2.1,6.6C125.4,233.7,124.4,234.2,123.2,234.9z"/>
		</g>
	</g>
</g>
</svg>
