<svg id="Слой_1" data-name="Слой 1" xmlns="http://www.w3.org/2000/svg" viewBox="0 0 321 451"><defs><style>.cls-1{isolation:isolate;font-size:72px;fill:#231f20;font-family:Georgia-Bold, Georgia;font-weight:700;}.cls-2{fill:#e7d35d;}.cls-3{fill:#b16728;}.cls-10,.cls-21,.cls-4,.cls-6,.cls-9{fill:none;}.cls-10,.cls-21,.cls-23,.cls-24,.cls-26,.cls-4,.cls-5,.cls-6,.cls-7,.cls-9{stroke:#000;stroke-miterlimit:10;}.cls-4{stroke-width:4.5px;}.cls-5{fill:#bfbfbf;}.cls-24,.cls-5,.cls-6,.cls-7{stroke-width:4px;}.cls-7{fill:#404040;}.cls-8{fill:#63412b;}.cls-23,.cls-9{stroke-width:3px;}.cls-10,.cls-21{stroke-width:5px;}.cls-11{fill:#f0d6b7;}.cls-12{fill:#6d6b6d;}.cls-13{fill:#dcd9d8;}.cls-14{fill:#f7e4cd;}.cls-15{fill:#335061;}.cls-16,.cls-23{fill:#fff;}.cls-17{fill:#d49b66;}.cls-18{fill:#a36c46;}.cls-19{fill:#49728b;}.cls-20{fill:#dfa46d;}.cls-21{stroke-linecap:round;}.cls-22{fill:#a36a47;}.cls-24,.cls-26{fill:#d33833;}.cls-25{fill:#ef3d3a;}.cls-26{stroke-width:2.13px;}</style></defs><title>logoМонтажная область 1</title><text class="cls-1" transform="translate(14.82 436.93)">Jenkins</text><path class="cls-2" d="M111.06,302a134.79,134.79,0,0,0-12.85-37.22A146.12,146.12,0,0,0,88,247.92c-3.44-4.91-6.76-11.24-12.65-11.45-8.28-.3-16.55-.84-24.83-1.31-13.1-.74-21.32,16.19-25.56,28.2-2.29,6.5-4.55,13-6.45,19.68-1.43,5-3.7,6.25-6.62,10-3.64,4.72-5.59,12.4-7.69,18.18C.51,321.42,4.94,324.2,12.32,327c13.27,5.1,26,4.37,39.65,1.79,14.66-2.78,29.09-.65,43.8-1,10.12-.25,18-7.07,16.23-19.93Q111.6,304.93,111.06,302Z"/><path class="cls-3" d="M40.76,252.41c-.52.79-.09,3.09-.07,4q.07,2.76-.06,5.53c-.3,6.85-1.34,13.26-4.25,19.32-1.53,3.19-5.84,5-8.61,6a38.25,38.25,0,0,1-7.29,1.67c-1,.15-5.44,0-6,1.13,3.39-6.82,6.29-14.44,11.69-19.42,1.27-1.18,2.64-2.21,3.92-3.38C34.43,263.26,37.42,257.48,40.76,252.41Z"/><path d="M41,247.79c.62,4.58,1,9.11,1.21,13.69.08,2.29.11,4.59,0,6.9a32.54,32.54,0,0,1-.94,7.15,21.71,21.71,0,0,1-3,6.86,15.89,15.89,0,0,1-5.7,5.16,18.53,18.53,0,0,1-7.12,2c-1.19.11-2.36.16-3.51.18l-3.44,0,.08,0c-1.36.13-2.72.26-4.09.32,1.24-.6,2.5-1.12,3.76-1.65l.08,0,3.34-.83c1.1-.25,2.19-.51,3.23-.83a19.62,19.62,0,0,0,5.66-2.51c3.31-2.19,5.29-5.81,6.4-9.82a40.65,40.65,0,0,0,1.12-6.31l.73-6.72A106.18,106.18,0,0,1,41,247.79Z"/><path class="cls-3" d="M96.56,294.68c-4.75-1.74-9.22-.43-32.15,11.73-10.53,5.58-31.9,2.91-42.55,1C9,305.13,9,326.07,16.38,328.9c13.27,5.1,22,2.5,35.59-.08,14.66-2.78,29.09-.65,43.8-1,10.12-.25,12.42-7.39,10.69-20.25C106.19,305.6,103.3,297.15,96.56,294.68Z"/><path d="M105.49,303.58c-1.44-1.49-2.84-3-4.33-4.37a19.63,19.63,0,0,0-4.79-3.39,10.75,10.75,0,0,0-2.6-.85,8.49,8.49,0,0,0-2.64,0,18.27,18.27,0,0,0-5.34,1.73,77.78,77.78,0,0,0-10,6.54c-.84.61-1.73,1.19-2.62,1.76l-1.43.85c-.49.26-1,.52-1.48.77a33.42,33.42,0,0,1-6.2,2.2,51.39,51.39,0,0,1-12.73,1.31c-1.08,0-2,0-3,0s-2,.07-3,.13c-2,.15-4,.33-6.12.46a50.55,50.55,0,0,1-6.34.09,27,27,0,0,1-6.35-1.13c-1.06-.35-2-.74-2.9-1a15.16,15.16,0,0,0-2.86-.61,20.56,20.56,0,0,0-6,.57,17.37,17.37,0,0,1,6-1.82,13.88,13.88,0,0,1,3.24.16c1.07.17,2.11.43,3,.59,3.85.7,7.79.26,11.79-.31,2-.31,4-.65,6.12-.89,1-.12,2.1-.23,3.17-.31.53,0,1.08-.05,1.62-.08l1.52-.05a56,56,0,0,0,11.69-1.42,30,30,0,0,0,5.4-1.85l1.27-.62,1.23-.69,2.55-1.59c3.43-2.14,6.88-4.65,11-6.22A19.67,19.67,0,0,1,90.89,292a11.27,11.27,0,0,1,3.47.43,12.41,12.41,0,0,1,3.09,1.44C101.16,296.45,103.4,300.05,105.49,303.58Z"/><path class="cls-4" d="M111.06,302a134.79,134.79,0,0,0-12.85-37.22A146.12,146.12,0,0,0,88,247.92c-3.44-4.91-6.76-11.24-12.65-11.45-8.28-.3-16.55-.84-24.83-1.31-13.1-.74-21.32,16.19-25.56,28.2-2.29,6.5-4.55,13-6.45,19.68-1.43,5-3.7,6.25-6.62,10-3.64,4.72-5.59,12.4-7.69,18.18C.51,321.42,4.94,324.2,12.32,327c13.27,5.1,26,4.37,39.65,1.79,14.66-2.78,29.09-.65,43.8-1,10.12-.25,18-7.07,16.23-19.93Q111.6,304.93,111.06,302Z"/><path class="cls-5" d="M282.69,227.78l-2.38-6.55L288,211.08s29.14,19,29.95,44.82a11.58,11.58,0,0,1-.33,3.64,15.11,15.11,0,0,1-.66,2.75C298.93,233.19,285.34,229.57,282.69,227.78Z"/><path class="cls-6" d="M317,262.29c-2.53-14.21-19-34.67-36.68-41.05"/><polygon class="cls-7" points="262.93 215.32 258.51 222.94 260.82 226.95 273.85 235.34 277.98 235.14 290.56 213.1 276.98 203.08 262.93 215.32"/><path class="cls-5" d="M258.74,223.49l0-.09c-.06-.35,4.36-.33,4.73-.3a17.1,17.1,0,0,1,12.61,8,4,4,0,0,1,.82,2.49c-.19,1.83-4.65-.6-5.1-.84-2.54-1.35-5.19-2.48-7.68-3.92C262,227.66,259.21,226.11,258.74,223.49Z"/><path class="cls-5" d="M261.57,215l7.75,0L277,203.08s-31-23.19-58.26-14.18a12.88,12.88,0,0,0-3.68,1.73,16.81,16.81,0,0,0-2.62,1.73C249.72,200.13,258.69,213,261.57,215Z"/><path class="cls-6" d="M212.43,192.37c15.81-2.78,43.47,6.6,56.89,22.65"/><path class="cls-8" d="M198,316l63.16-89.5a16.22,16.22,0,0,1,4.21.37,14.05,14.05,0,0,1,4.89,3c.47.42,3.8,4.13,3.49,4.64l-57.37,93.79c-.48.78-2.69.19-3.33,0a26.64,26.64,0,0,1-8.5-4.71,27.74,27.74,0,0,1-3.71-3.55C200.53,319.62,197.74,316.35,198,316Z"/><path class="cls-6" d="M198,316l63.16-89.5a16.22,16.22,0,0,1,4.21.37,14.05,14.05,0,0,1,4.89,3c.47.42,3.8,4.13,3.49,4.64l-57.37,93.79c-.48.78-2.69.19-3.33,0a26.64,26.64,0,0,1-8.5-4.71,27.74,27.74,0,0,1-3.71-3.55C200.53,319.62,197.74,316.35,198,316Z"/><path d="M208.45,323.67a45.31,45.31,0,0,1,3.2-8.18,69.95,69.95,0,0,1,9.67-14.64,52.65,52.65,0,0,1,6.21-6.21c-1.62,2.45-3.34,4.78-5,7.17s-3.28,4.75-4.86,7.16-3.14,4.84-4.68,7.28Z"/><path d="M223.64,302.48c2.39-3.35,4.75-6.68,7-10.06s4.47-6.8,6.54-10.3,4.07-7,5.92-10.65,3.53-7.32,5-11.15a54.59,54.59,0,0,1-3.62,11.81,89.12,89.12,0,0,1-5.62,11,101.54,101.54,0,0,1-7,10.19A78.72,78.72,0,0,1,223.64,302.48Z"/><path d="M242.87,262.29a9.8,9.8,0,0,1,.48-4.08,23.7,23.7,0,0,1,1.58-3.81,47.72,47.72,0,0,1,4.41-6.87,70.13,70.13,0,0,1,5.31-6.13,52.71,52.71,0,0,1,6-5.42c-3.16,4.41-6.54,8.53-9.76,12.77-1.63,2.1-3.19,4.24-4.66,6.44a38.52,38.52,0,0,0-2,3.39A13.18,13.18,0,0,0,242.87,262.29Z"/><path d="M253.55,254.35c1.48-1.59,3-3,4.32-4.63a51.33,51.33,0,0,0,3.79-4.9,57.37,57.37,0,0,0,3.29-5.26c1-1.82,2-3.68,2.87-5.64a20.08,20.08,0,0,1-1.45,6.3,31,31,0,0,1-1.35,3c-.54.94-1.09,1.88-1.71,2.78s-1.32,1.73-2,2.57a26.14,26.14,0,0,1-2.33,2.29A21.47,21.47,0,0,1,253.55,254.35Z"/><path class="cls-2" d="M286.86,286.67c-1.57-1.52-5.48-6.61-4.6-7.82a10.38,10.38,0,0,0,1.79-2.91c.59-2-1.14-3.36,0-5.08,2.6-3.77,5.55-7.53,9.67-9.45,3.46-1.61,11.09,5.83,13.26,8.2,1.33,1.45,2.61,3.27,2.39,5.21-.46,3.93-8.21,5.79-11.15,7.18C296.85,282.68,287.64,287.42,286.86,286.67Z"/><path class="cls-3" d="M286.86,286.67c-1.57-1.52-5.51-1.62-4-3.19,5.23-5.59,5,2.59,22.78-12,1.49-1.22,4.05,1.38,3.83,3.32-.46,3.93-8.21,5.79-11.15,7.18C296.85,282.68,287.64,287.42,286.86,286.67Z"/><path class="cls-9" d="M282.26,278.85a10.38,10.38,0,0,0,1.79-2.91c.59-2-1.14-3.36,0-5.08,2.6-3.77,5.55-7.53,9.67-9.45,3.46-1.61,11.09,5.83,13.26,8.2,1.33,1.45,2.61,3.27,2.39,5.21-.46,3.93-8.56,5.21-11.15,7.18C283.09,293.59,281.39,280.06,282.26,278.85Z"/><path d="M290.79,283.93a4,4,0,0,1-.34-1.42,2.63,2.63,0,0,1,.57-1.58,16.51,16.51,0,0,1,2-2,41,41,0,0,1,4.21-3.37,10.63,10.63,0,0,0,1.74-1.45,3.6,3.6,0,0,0,.53-.73,4.9,4.9,0,0,0,.33-1c.35-1.47.17-3.41.68-5.25a15.5,15.5,0,0,1,1.67,5.42,5.79,5.79,0,0,1-.19,1.67,5.31,5.31,0,0,1-.78,1.6,9.38,9.38,0,0,1-2.24,2.13,48.12,48.12,0,0,1-4.57,2.83L292,282a1.71,1.71,0,0,0-.77.69A7.59,7.59,0,0,0,290.79,283.93Z"/><path d="M296,281.06a7.72,7.72,0,0,1,1.76-3.27,5.48,5.48,0,0,1,1.65-1.18l.52-.2c.16-.05.42-.11.49-.13s.46-.11.66-.19a4.89,4.89,0,0,0,2.22-1.39,9.63,9.63,0,0,0,.94-1.27,5.28,5.28,0,0,1,1.13-1.43c-.09.6,0,1.15,0,1.76a5.83,5.83,0,0,1-.34,1.88,5.37,5.37,0,0,1-1.09,1.78,6.17,6.17,0,0,1-1.7,1.24,6.82,6.82,0,0,1-.94.4c-.19.07-.2.1-.32.13l-.27.12c-.37.17-.76.39-1.22.63A7.87,7.87,0,0,1,296,281.06Z"/><path class="cls-2" d="M263.64,299.65c-7.87-3.62-2.43-28.46,6.31-21.4,4,3.25,6.71,8.05,2.9,12.67C271.71,292.3,264.57,300.08,263.64,299.65Z"/><path class="cls-3" d="M263.64,299.65c-4.77-2.19-3.32-6.81-2-8.49,6.59-8.45,11.88-7.28,11.93-7.22C277.73,289.78,265.68,300.59,263.64,299.65Z"/><path class="cls-9" d="M263.64,299.65c-7.87-3.62-.48-34.41,8.78-18,3.14,5.54,4.23,4.7.42,9.32C271.71,292.3,272.84,296.68,263.64,299.65Z"/><path d="M261.21,289.55a14.67,14.67,0,0,0,3.73.22,9,9,0,0,0,3.24-.92,13.55,13.55,0,0,0,2.77-2.09c.43-.43.83-.9,1.29-1.35a17.39,17.39,0,0,1,1.31-1.46,14.89,14.89,0,0,1-.47,2,14,14,0,0,1-.91,1.82,8.57,8.57,0,0,1-3.07,2.89,7.14,7.14,0,0,1-4.22.7A6.39,6.39,0,0,1,261.21,289.55Z"/><path class="cls-2" d="M291.34,320a26,26,0,0,0,1.54-8.57,31.82,31.82,0,0,0-.25-4.53c-.18-1.39-.16-3-1.41-3.93-1.76-1.28-3.49-2.61-5.24-3.92-2.76-2.08-6.51-.27-8.82,1.25-1.25.82-2.5,1.65-3.69,2.57-.89.69-1.53.57-2.6.81a13.45,13.45,0,0,0-3.78,2.11c-2,1.27-1.34,2.43-.07,4a22.48,22.48,0,0,0,8.39,6.2c3.5,1.68,6.39,4.2,9.62,6.32,2.22,1.46,4.72,1.4,5.84-1.16Q291.12,320.57,291.34,320Z"/><path class="cls-3" d="M281.85,300.67c-.21.06-.38.54-.48.7q-.31.5-.65,1a8.59,8.59,0,0,1-3.17,2.83A3.93,3.93,0,0,1,275,305a11.91,11.91,0,0,1-1.78-.78c-.24-.12-1.18-.81-1.44-.69,1.53-.72,3-1.65,4.79-1.74.41,0,.83,0,1.24,0A16.43,16.43,0,0,0,281.85,300.67Z"/><path d="M282.44,299.87a12.19,12.19,0,0,1-.9,3.19,9.7,9.7,0,0,1-.79,1.47,5.33,5.33,0,0,1-1.38,1.41,4.55,4.55,0,0,1-2,.79,4.41,4.41,0,0,1-2.11-.24,6.49,6.49,0,0,1-2.74-2.14l0,0a8.41,8.41,0,0,1-.77-.87,8.41,8.41,0,0,1,1.16-.06l0,0c1.13.15,2.12.45,2.89.47a3.13,3.13,0,0,0,1.84-.48,5.89,5.89,0,0,0,.91-.69c.33-.31.71-.68,1.09-1A11,11,0,0,1,282.44,299.87Z"/><path class="cls-3" d="M289,316.51c-.83-1-2-1.44-8.34-2.67-2.93-.56-7.26-4.21-9.35-6.13-2.53-2.32-5,1.43-3.69,3,2.29,2.88,4.48,3.71,7.73,5.27,3.5,1.68,6.39,4.2,9.62,6.32,2.22,1.46,3.55.52,4.67-2A4.24,4.24,0,0,0,289,316.51Z"/><path d="M290,319.43a8.81,8.81,0,0,0-1.55-2.57,2.38,2.38,0,0,0-1-.59,7,7,0,0,0-1.29-.27c-.9-.11-1.88-.08-3-.14a9.39,9.39,0,0,1-1.79-.25,10.91,10.91,0,0,1-1.71-.6,15.77,15.77,0,0,1-2.91-1.77c-.76-.59-1.6-1.11-2.5-1.75a10.23,10.23,0,0,1-2.48-2.37,9.25,9.25,0,0,0-.85-1.24,7.49,7.49,0,0,0-1.19-1,4.57,4.57,0,0,1,1.66.32,7.54,7.54,0,0,1,1.44.91,13.58,13.58,0,0,0,2.59,1.34,21.24,21.24,0,0,1,2.93,1.45,23.57,23.57,0,0,0,2.54,1.38,9,9,0,0,0,1.25.48,8.21,8.21,0,0,0,1.31.29,18.7,18.7,0,0,1,3.26.68,6.6,6.6,0,0,1,1.65.83,4,4,0,0,1,1.3,1.5A6,6,0,0,1,290,319.43Z"/><path class="cls-9" d="M291.34,320a26,26,0,0,0,1.54-8.57,31.82,31.82,0,0,0-.25-4.53c-.18-1.39-.16-3-1.41-3.93-1.76-1.28-3.49-2.61-5.24-3.92-2.76-2.08-6.51-.27-8.82,1.25-1.25.82-2.5,1.65-3.69,2.57-.89.69-1.53.57-2.6.81a13.45,13.45,0,0,0-3.78,2.11c-2,1.27-1.34,2.43-.07,4a22.48,22.48,0,0,0,8.39,6.2c3.5,1.68,6.39,4.2,9.62,6.32,2.22,1.46,4.72,1.4,5.84-1.16Q291.12,320.57,291.34,320Z"/><path class="cls-2" d="M36.27,240.41C33.08,231,30.48,223.64,29,218.26c-4.45-15.66,6.33-29.26,11.14-29.34,8.51-.15.37-16.57,6.19-21.89C59,155.4,72.85,144.49,88.2,143.61c12.88-.74,28.29,45.25,32.37,59.39,2.51,8.69,4.41,18.85,1.38,26.86C115.84,246,89,240.1,78,240.81,72.7,241.16,37.84,245.06,36.27,240.41Z"/><path class="cls-3" d="M36.27,240.41c-3.19-9.44-15.55-17-9-21.08,23.25-14.72,12.8,20.21,86.52-10.75,6.16-2.59,11.23,13.27,8.2,21.28C115.84,246,89,243.1,78,243.81,72.7,244.16,37.84,245.06,36.27,240.41Z"/><path class="cls-10" d="M31,198.26c3.22-2.8,6.76-5.17,9.14-9.34,4.21-7.4.37-16.57,6.19-21.89C59,155.4,72.85,144.49,88.2,143.61c12.88-.74,28.29,45.25,32.37,59.39,2.51,8.69,4.41,18.85,1.38,26.86-6.11,16.18-33.36,7.09-43.91,11C16.06,263.53,26.74,201.93,31,198.26Z"/><path d="M35.06,217a3.16,3.16,0,0,1,.27-1.2,1.85,1.85,0,0,1,1-1,4.63,4.63,0,0,1,2.67,0,34.9,34.9,0,0,1,4.55,1.72,60,60,0,0,0,8.5,3.24,18.61,18.61,0,0,0,8.24.51,16.13,16.13,0,0,0,3.82-1.24c.61-.3,1.21-.62,1.8-1l.53-.32c.21-.13.41-.23.62-.35.41-.21.82-.41,1.22-.59a50.16,50.16,0,0,1,9.49-2.69L87,212.44a56.13,56.13,0,0,0,8.84-2.35,17,17,0,0,0,4-2.07,8.23,8.23,0,0,0,2.84-3.51,7.77,7.77,0,0,1-2,4.44,15.93,15.93,0,0,1-3.82,3.18,31.31,31.31,0,0,1-4.37,2.22c-1.49.65-3,1.2-4.53,1.7-3,1-6.11,1.82-9.11,2.64a62.25,62.25,0,0,0-8.53,2.76c-.31.14-.61.29-.89.44l-.4.23-.47.29a19.38,19.38,0,0,1-2.34,1.26,18.33,18.33,0,0,1-5.15,1.52,20.19,20.19,0,0,1-10.32-1.4,40.27,40.27,0,0,1-8.48-4.87c-1.29-.9-2.53-1.87-3.81-2.6a3.7,3.7,0,0,0-1.91-.64C35.91,215.66,35.38,216.32,35.06,217Z"/><path d="M71.78,232.53c1.7-1.37,3.28-2.66,5-3.88a31,31,0,0,1,5.53-3.26,15.8,15.8,0,0,1,6.86-1.47,11.08,11.08,0,0,1,1.86.19l1.39.21a16.33,16.33,0,0,0,2.64.09,11.73,11.73,0,0,0,5-1.35,16.92,16.92,0,0,0,4.33-3.41,52,52,0,0,0,3.76-4.68c.61-.83,1.24-1.66,1.9-2.49a10.54,10.54,0,0,1,2.26-2.21,33.58,33.58,0,0,0-2.55,5.61,33.92,33.92,0,0,1-2.9,5.7,17.59,17.59,0,0,1-4.68,4.92,13.51,13.51,0,0,1-3.16,1.66,14.09,14.09,0,0,1-3.48.86,18,18,0,0,1-3.52.1l-1.67-.18c-.4,0-.81-.06-1.21-.06a19.94,19.94,0,0,0-5.19.87c-1.82.51-3.73,1.18-5.75,1.75A22.75,22.75,0,0,1,71.78,232.53Z"/><path class="cls-2" d="M106.13,324.36c-12.69,24.18-86.5-.68-56.9-35.06,10.54-12.24,15.69-12,30,2C83.55,295.53,107.63,321.5,106.13,324.36Z"/><path class="cls-3" d="M106.13,324.36c-7.68,14.64-22.34,8.25-27.57,3.4-26.33-24.43-13-48.84-6.81-43.31C77.49,289.6,99.34,298.09,106.13,324.36Z"/><path class="cls-6" d="M106.13,324.36C93.45,348.53,17.65,323,49.23,289.3c13.66-14.58,15.69-12,30,2C83.55,295.53,97.79,293.47,106.13,324.36Z"/><path d="M68.41,282.21A76.69,76.69,0,0,0,66.29,293a46.53,46.53,0,0,0-.11,10.57,40.25,40.25,0,0,0,.94,5.14,42.37,42.37,0,0,0,1.68,5,58.71,58.71,0,0,0,5.32,9.57A25,25,0,0,1,66,315.16a28,28,0,0,1-2.52-5.34A29.5,29.5,0,0,1,62.21,304a30.59,30.59,0,0,1,1-11.63A27.71,27.71,0,0,1,68.41,282.21Z"/><path id="path28" class="cls-11" d="M189.89,205.43l-16.7,2.5-22.5,2.5-14.6.4-14.2-.4-10.8-3.3-9.6-10.4L94,175.53l-1.7-4.6-10-3.3-5.8-9.6-4.2-13.8,4.6-12.1,10.8-3.8,8.8,4.2,4.2,9.2,5-.8,1.7-2.1-1.7-9.6-.4-12.1,2.5-16.7-.1-9.5,7.6-12.1,13.3-9.6,23.3-10,25.8,3.8,22.5,16.2,10.4,16.7,6.7,12.1,1.7,30-5,25.8-9.2,22.9-8.8,12.1"/><path id="path32" class="cls-12" d="M76.89,132.13l10.8-3.8,8.8,4.2,4.2,9.2,5-.8,1.2-5-2.5-9.6,2.5-22.9-2.1-12.5,7.5-8.8,16.3-13-4.6-6.2-22.9,11.2-9.6,7.5-5.4,11.7-8.3,11.2-2.5,13.3,1.6,14.3"/><path id="path34" class="cls-13" d="M94,92.93s6.2-15.4,31.2-22.9,1.2-5.4,1.2-5.4L99.29,75,89,85.43l-4.6,8.3,9.6-.8"/><path id="path36" class="cls-13" d="M81.49,129.13s-8.8-29.2,24.6-33.3l-1.2-5L82,96.23l-6.7,21.7,1.7,14.2,4.5-3"/><path id="path38" class="cls-14" d="M94.89,167.93l5.5-5.3a3.53,3.53,0,0,1,2.9,3.2c.4,2.9,1.7,29.2,19.6,43.3,1.6,1.3-13.3-2.1-13.3-2.1l-13.3-20.8"/><path id="path40" class="cls-14" d="M171.49,160s1-12.6,4.4-11.7a4.73,4.73,0,0,1,3.4,4.4s-8.3,5.3-7.8,7.3"/><path id="path42" class="cls-14" d="M206.09,113.73s-6.9,1.5-7.5,7.5,7.5,1.2,8.8.8"/><path id="path44" class="cls-14" d="M155.69,114.13s-9.2,1.2-9.2,7.1,10.4,5.4,13.3,2.9"/><path id="path46" class="cls-14" d="M99,141.23s-15.8-9.6-17.5-.4-5.4,15.8,2.5,25.4l-5.4-1.7-5-12.9-1.7-12.5,9.6-10,10.8.8,6.2,5,.5,6.3"/><path id="path48" class="cls-14" d="M106.49,115s7.1-36.7,42.9-43.8c29.5-5.8,45,1.2,50.8,7.9,0,0-26.2-31.2-51.3-21.7s-43.3,27.1-42.9,38.3c.8,19.3.5,19.3.5,19.3"/><path id="path50" class="cls-14" d="M203.19,83.33s-12.1-.4-12.5,10.4a8.27,8.27,0,0,0,.8,3.3s9.6-10.8,15.4-5"/><path id="path52" class="cls-14" d="M150.29,98.23s-2.1-16.6-16.3-7c-9.2,6.2-8.3,15-6.7,16.7s1.2,5,2.5,2.7.9-9.8,5.4-11.9c4.7-2.1,12.2-4.4,15.1-.5"/><path class="cls-15" d="M99,199.53l-40.3,24.8c3.8,15.2,8.7,30,12,45.3,3,13.8,3.5,27.2,3.8,41.2a330.11,330.11,0,0,0,38.2,15.2l86.3-10.7-7.1-40.4,15.2-2.6c2.1-.4,8.3-20.6,9.2-23a204.11,204.11,0,0,0,8.9-32.6c-7.6-8-15.6-15.5-23.5-23.2-3.5,4.9-6.9,10-10.6,14.8-5.2,6.7-12.7,8.2-20.8,9.2-10.5,1.3-20.6,3-31.2,1.3-9.3-1.5-20.8-4-29.2-8.5C108.59,209.63,99,199.53,99,199.53Z"/><path id="path68" class="cls-16" d="M129.69,360l-8.6-35-4.3-25.8-.7-19.2,39-2.1h24.3l-2.2,43.8,3.8,33.7-.4,6.2-31.7,2.5-19.2-4.1"/><path id="path70" class="cls-13" d="M174,277.53s-2.1,43.3,4.2,74.2a79.91,79.91,0,0,1-30.8,10l35-1.2,4.2-2.5-5-68.3-1.2-14.6"/><path id="path72" class="cls-17" d="M199.29,312.53l16.2-4.6,30.8-1.7,4.6-14.2-8.3-24.5-9.6-1.2-13.3,4.2-12.8,6.2-6.8-1.2-5.3,2.1Z"/><path id="path74" class="cls-18" d="M199,304.13s10.8-5,12.5-4.6l-4.6-22.9,5.4-2.1s3.8,21.7,3.8,24.2c0,0,23.3,1.2,25.4,1.2,0,0,5-9.6,3.8-19.6l4.6,13.3.4,7.5-6.7,10-7.5,1.7-12.5-.3-4.2-5.4-14.6,2.1-4.6,1.7Z"/><path id="path100" d="M150.29,98.23c-11.4-2.6-17,4.8-20.4,12.4-3.1-.7-1.9-4.9-1.1-7.1,2-5.6,10.2-13,16.9-12,2.9.5,6.8,3.1,4.6,6.7"/><path id="path102" d="M205.59,111.13h.5c2.6,5.3,4.8,11,8,15.7-2.2,5.1-16.4,9.5-16.2.5,3.1-1.3,8.4-.3,11.1-2-1.5-4.4-3.8-8-3.4-14.2"/><path id="path104" d="M156.09,111.33c2.4,4.5,3.2,9.2,6.7,12.5,1.6,1.5,4.6,3.4,3.1,7.6a10.26,10.26,0,0,1-4.4,3.7c-5.4,1.6-18,.3-13.8-6.4,4.5.2,10.5,2.9,13.8-.3-2.5-4.2-7.1-12.4-5.4-17.1"/><path id="path106" d="M203.59,156.63c-8.1,5.2-17.2,10.9-30.6,9.6a9,9,0,0,1-1.2-11.6c1.4,2.5.5,7,4.6,7.7,7.6,1.3,16.4-4.6,21.8-6.7,3.4-5.7-.3-7.8-3.3-11.5-6.2-7.5-14.6-16.8-14.3-28.1,2.5-1.8,2.7,2.8,3.1,3.6,3.3,7.6,11.4,17.4,17.4,23.9,1.5,1.6,3.9,3.1,4.2,4.2.7,3.2-2,6.9-1.7,8.9"/><path id="path108" d="M96.19,151.13c-2.6-1.5-3.2-7.9-6.2-8.1-4.3-.3-3.5,8.3-3.5,13.4-2.9-2.7-3.5-10.9-1.3-15.2-2.5-1.2-3.6,1.3-4.9,2.2,1.7-12.7,18.7-5.8,15.9,7.7"/><path id="path110" d="M208.79,162c-3.8,7.2-9.2,15.2-20.3,15.4-.2-2.3-.4-5.9,0-7.3,8.5-.8,13.8-5.2,20.3-8.1"/><path id="path112" d="M155.39,166.63c7.1,3.7,20.1,4.1,29.8,3.9a33.51,33.51,0,0,1,.5,7.3c-12.3.6-27-2.5-30.3-11.2"/><path id="path58" class="cls-19" d="M116.29,281.73l-18.7.8,5.4,3.8,13.3,2.1"/><path id="path64" class="cls-19" d="M195.09,274.63l-14.6,2.9,2.1,11.7c5.4,2.5,14.6-4.2,14.6-4.2"/><path id="path114" d="M154.09,173.63c4.9,12.3,21.8,10.9,36,10.6a7.62,7.62,0,0,1-3.7,4.2c-4.6,1.9-17.1,3.3-23.5-.1-4-2.1-6.6-7-8.8-9.8-1-1.4-6.3-4.9,0-4.9"/><path id="path118" d="M234,277c-6.4,1.3-11,7.6-17.3,7.2,3.5-4.9,9.5-6.9,17.3-7.2"/><path id="path120" d="M236.79,287.13c-5.3.6-11.4,1.4-16.8,1,2.6-3.9,12.3-2.5,16.8-1"/><path id="path122" d="M238.59,295.83c-5.9.1-13.2,0-18.9-.5,3.4-3.5,15.1-1.3,18.9.5"/><path id="path124" class="cls-13" d="M191.89,319.63c.8,7.4,3.8,14.9,3.4,23.1-3.3,1.1-5.1,2.1-9.5,2.1-.3-6.9-1.2-17.5-1-24,2.2.1,5.3-1.6,7.1-1.2"/><path class="cls-19" d="M99.77,200.35s23.41,30.38,18.81,28.18c-16.3-7.8-45.8.2-45.8.2s16.2,64.6,7.9,84.6l-5.8-2.1-.4-24.6L63.59,240,59,227.13Z"/><path id="path126" class="cls-11" d="M182.29,210.33c-3,1.9-5.5,4.4-8.3,6.4-6.3.3-9.8-.4-14.4-4.1.1-.3.5-.2.6-.5,6.7,3,15.3-1.2,22.1-1.8"/><path id="path56" class="cls-19" d="M117.08,247.7l5.56,6.78v25H116s-.83-17.5-.83-19.58.83-9.58.83-9.58"/><path id="path130" d="M184.79,320.73c-.3,6.6.6,17.1,1,24,4.4,0,6.3-1,9.5-2.1.4-8.1-2.6-15.6-3.4-23.1C190.09,319.23,187,320.93,184.79,320.73Zm-68.1-37.4c2.9,26.5,7.1,48.8,14.7,72.3,17,5.2,37.5,5.6,52.6,1-2.8-13.3-1.6-29.4-3.2-43.5-1.2-10.6-.6-21.3-2.3-32.2C160.29,277,134.59,279.93,116.69,283.33Zm66.1-2.3c-.2,11.4.5,22.6,1.4,34,4.4-.7,7.3-1.1,11.4-2-1.3-11-1.2-23.3-3.8-33.1C188.69,280,185.89,279.93,182.79,281Zm22.2-1.9c-2.1-.5-4.5,0-6.5,0,.9,9.3,3.2,19.5,4,29.3,3.1.1,4.8-1.4,7.4-1.9.1-8.5-.7-20.3-4.9-27.4Zm33.6,30.7c6.5-1.6,10.6-9.5,8.8-17.7-1.2-5.5-3.4-15.9-5.7-19.4-1.7-2.6-6.4-6-10.1-3.6-6.1,3.9-16.7,5-21.1,9.7,2.2,7.4,2.9,17.5,3.8,26.8,7.6.5,16.9-2.1,23.2.6-4.4,1.4-10.1,1.4-13.9,3.5,3,1.6,10.3,1.3,15,.1Zm-78.4-97.7c0,.4-.5.2-.6.5,4.6,3.6,8.1,4.4,14.4,4.1,2.8-2.1,5.4-4.5,8.3-6.4C175.49,210.93,166.89,215.13,160.19,212.13ZM142,222.53c-8,.1-26.2-4.2-32.4-8.6h0c-1.1-.8-8.8-10.8-9.8-10.4-13.9,5.6-26.8,15-38.4,24,11,23.7,15.5,52.7,16.3,80.7,12.7,5.9,23.8,14.5,40.9,15.3-2-14.1-3.8-26.6-4.9-39.8-4.3-1.8-10.5.1-14.5-.6,0-4.9,6.2-2.1,6.7-5.4.4-2.5-3.4-2.7-2.2-6.6,3.2,1.1,4.8,3.7,8.2,4.6,3.1-6.7,0-18.6.4-24.3.1-1.1.5-5.9,2.9-5,2.1.7-.1,12.8.1,18.1.2,4.9-.6,9.7,1.4,12.7a466.85,466.85,0,0,1,51.4-4.2s30.5.2,36.2-2.1c2.1-.8,3.6-5.7,5.2-9.5,4.4-10.6,9-24,11-34.1.5-2.3,1.7-7.3,1.4-9.4-.5-3.7-5.5-6.4-8-8.7-4.7-4.2-7.6-7.9-12.5-11.8-2,2.9-6.2,4.9-7.8,7.3h0C193.59,204.83,203.29,221.43,142,222.53Zm-58.8-120.2c-5.5,6.1-4.4,17.4-3.7,25.5,10-6.3,23.2.5,23,11.1,4.8-.1,1.8-5.9.9-9.7-2.8-12.2,4.7-25.5.3-36.7-8.4.8-15.4,4.2-20.5,9.8Zm39.4-35.1c-12.5,3.5-28.4,12.6-33.6,23.8,4-.6,6.7-2.6,10.6-2.8,1.5-.1,3.4.6,5.1.2,3.4-.8,6.2-8.4,8.8-11.3s5.5-3.9,7.5-6.5c1.3-.6,3.3-.6,3.3-2.6A1.54,1.54,0,0,0,122.59,67.23Zm64.9,3.3c-12.9-7.3-34.8-12.8-48.6-5.9-11.1,5.5-26.1,14.7-31.2,26.3,4.8,11.2-1.4,21.5-1.8,32.8-.2,6.1,2.8,11.3,3.1,17.9-1.6,2.7-6.6,3-10.1,2.8-1.2-5.8-3.2-12.4-9.2-13-8.5-.9-14.8,6.1-15.1,13.5-.5,8.6,6.6,22.9,16.7,22,3.9-.4,4.8-4.3,9.1-4.2,2.3,4.6-3.5,6-4.1,9.3-.2.8.5,4.1.9,5.7,1.8,7.5,5.9,17.3,9.9,23,5.1,7.3,15.1,8.4,25.8,9.1,10.9,1.56,13.5.61,17.8.6-4.49-1-14.9-10.8-19.1-15.5-4.9-5.4-9.8-11.2-10.1-18.2,9.2,12.8,16.9,24,33.6,29.6,12.7,4.3,27.5-2,37.3-8.8,4.1-2.8,6.5-7.4,9.3-11.5,10.8-15.5,15.8-37.6,14.7-59-.5-8.8-.4-17.6-3.4-23.6-3.1-6.2-13.6-11.8-19.7-6.2-1.1-6,5.1-9.8,12.4-7.6-5.3-6.8-10.8-14.9-18.2-19.1ZM211.59,270c10.1-5,29-13.5,35.3,0a116.43,116.43,0,0,1,6.3,18.6c1.7,7.3-1.9,22.6-9.3,25-6.6,2.2-14.3,2-22.3.4a11.69,11.69,0,0,1-2.7-3.6c-5.7-.2-11,.3-15.5,2.6.4,4.2-2.4,4.9-5.1,5.7-2,7.8,3.9,18,2.5,25.2-1,5.1-7.3,5.9-11.9,6.8a36.87,36.87,0,0,0,.5,7.6c-1.1,3.9-5.8,6.1-10.2,6.6-14.7,1.8-37,2.6-51.2-2.5-3.9-9.7-7.1-21.4-10.3-32.5-13.8,1.5-24.9-5.9-35.5-10.8-3.6-1.7-8.7-2.6-10-5.5s-.8-8.2-1.1-13.3c-.8-13-1.5-25.5-5-38.8-1.5-6-4.2-11.2-6.1-17-1.7-5.3-4.7-11.9-5.5-17.2-1.2-7.9,6.2-8.3,11-11.7,7.3-5.3,13.1-8.2,21-12.9,2.3-1.4,9.4-5,10.2-6.6,1.6-3.3-2.7-7.8-3.9-10.4a33,33,0,0,1-3.1-11.4,21.85,21.85,0,0,1-14.7-9.5c-5-7.4-8.5-21.1-4.2-31.5.3-.8,2-2.4,2.3-3.7.5-2.5-.9-5.8-1-8.4-.3-13.4,2.4-25,11.5-29.1,3.7-14.7,16.9-19.6,29.4-26.9,4.7-2.7,9.8-4.5,15.1-6.4,19-7,48.2-5.7,64,6.3,6.7,5.1,17.4,15.7,21.2,23.5,10.1,20.4,9.4,54.5,2.3,79.4a69.22,69.22,0,0,1-4.3,12.2c-1.3,2.8-5.5,8.4-5,10.9s9.5,9.4,11.4,11.2c3.5,3.3,10.1,7.8,10.6,12,.6,4.5-2,10.6-3.3,15-4.3,14.4-8.5,27.8-13.4,40.7"/><path id="path132" class="cls-14" d="M144.19,169.83c.5-.7,3.6-1.8,7.8.2,0,0-5,.8-4.6,9.2l-2.1-.4c0-.1-2.2-7.6-1.1-9"/><path class="cls-20" d="M101.94,54.57c.07-1.52-21.3-3.62-23.46-3.63-5,0-17,.42-19.87,5.49-1.06,1.89-.5,6.5.78,8.31a13.05,13.05,0,0,0,3.47,3c-.74-.51-5.76-.27-6.68,0-2.3.7-6,2.82-6,9.51,0,4.66,26.08,50,25.88,50.52l25-53.7Z"/><path class="cls-18" d="M64,52.73c-.24,2.44-.8,5-.26,7.42a33.47,33.47,0,0,0,2.61,8c1.77,3.43,3.34,6.23,2.25,10.21-1.34,2.34-3.78,1.19-6,1.84C58.62,81.5,60,84,62,85.91a33.08,33.08,0,0,0,10.74,6.22c1.34.52,17.43,5.89,17.9,4.91L87,104.69l-11,23.14-11.2-21.1-8-15.1c-2.67-5-7.14-10.9-6.48-16.93.39-3.57,3.18-5,5.82-6.9l4.4-1.51c-1.55-3.23-2.9-5.47-2-9.19a8.4,8.4,0,0,1,1.32-2.64C60.8,53,62.42,53.05,64,52.73Z"/><path class="cls-8" d="M64.17,101.1a31.47,31.47,0,0,0,11.69,4.55c1.19.18,7.63,1.24,9.58-.1-.3,1.7-.52,3.43-.9,5.11-1.06,4.63-4.26,8.54-6.38,12.72-.38.74-2.52,3.68-2.1,4.46l-7.23-13.4-8-15.34C61.93,99.73,63,100.42,64.17,101.1Z"/><path class="cls-21" d="M101.94,54.57c.07-1.52-21.3-3.62-23.46-3.63-5,0-17,.42-19.87,5.49-1.06,1.89-.5,6.5.78,8.31a13.05,13.05,0,0,0,3.47,3c-.74-.51-5.76-.27-6.68,0-2.3.7-6,2.82-6,9.51,0,4.66,24.08,48,23.88,48.52l27-51.7Z"/><path d="M62.56,79.57a10.41,10.41,0,0,0,2.45.34,3.28,3.28,0,0,0,2.08-.63,2.27,2.27,0,0,0,.79-1.68,5.33,5.33,0,0,0-.29-2.06,9.13,9.13,0,0,0-2.28-3.63,5.93,5.93,0,0,0-3.24-1.75A2.54,2.54,0,1,1,63.4,65.3l.25.11a10.41,10.41,0,0,1,4.65,4.23,12.22,12.22,0,0,1,1.76,5.47A7.41,7.41,0,0,1,69.71,78,4.56,4.56,0,0,1,69,79.4a3.44,3.44,0,0,1-1.24,1,4.23,4.23,0,0,1-2.79.17A10.7,10.7,0,0,1,62.56,79.57Z"/><path class="cls-17" d="M216.4,104.75s6.15-8.62,7.43-15.38c1.73-9.14,2.72-18.64.59-27.69C221.64,49.92,213.85,40,205.32,31.41c-7-7-14.71-13.44-23.62-17.76s-19.11-6.4-28.83-4.52a15.28,15.28,0,0,1-.36,18.65,15.28,15.28,0,0,1-18.32,3.51A15.28,15.28,0,0,1,127,14.1,86.41,86.41,0,0,0,86.78,82.23c-.51,10.45.68,21.86-5.28,30.47-9.1,13.14-31.08,13.91-37.4,28.59-2.61,6.06-1.62,13.34,1.87,18.93,4.07,6.54,12.1,12.22,20,12.21a23.82,23.82,0,0,0,11.24-2.9c.87-.47-6.09-11.47-7.26-16.72s-3.28-14.58,3.13-21.19c11.3-11.63,25.58-1.83,25.58-1.83s11.35-16.46,18.36-24c6.83-7.3,14.63-13.89,23.75-18C200.19,61.1,216.4,104.75,216.4,104.75Z"/><path class="cls-22" d="M107,47.5s-1-1.86,4.69-11.38C112.47,34.8,115,31,115,31l5.66-3.05s1.78,10.8,12.32,12.76c10.79,2,20.79-5.37,20.79-5.37S147.5,45.88,135,44.53C120.88,43,117.42,33.67,117.42,33.67a29.58,29.58,0,0,0-5,5.25C108.11,44.36,107,47.5,107,47.5Z"/><path class="cls-22" d="M213,72.87s-2.55-18.3-21.42-37c-10.73-10.62-30.1-17.19-30.1-17.19l-3-3.73s22.89,3.59,39.1,20.35C213.24,51.49,213,72.87,213,72.87Z"/><path class="cls-18" d="M96.66,128.79c-9-.47,1.61-4.37,9-18.27,20.84-39.28,50.13-47,67.73-44.69,42.35,5.61,43.89,34.12,45,37.91-.54-1.8-13-17.52-22.38-20.1-10.4-2.86-12.55-8.2-30.47-3.91C120.45,90.55,96.66,128.79,96.66,128.79Z"/><path class="cls-18" d="M43.06,152.82c15.35,14.3,27,.15,26.9,0l7.26,16.72L66,172.44l-14.46-3.55Z"/><path class="cls-18" d="M51.93,150.67s-2.18-13.95,17.91-22.84c9.07-4,25.69-19,25.69-19s-9.44,14.6-23.24,20.27C54.12,136.6,51.93,150.67,51.93,150.67Z"/><path class="cls-10" d="M216.4,104.75s6.15-8.62,7.43-15.38c1.73-9.14,2.72-18.64.59-27.69C221.64,49.92,213.85,40,205.32,31.41c-7-7-14.71-13.44-23.62-17.76s-19.11-6.4-28.83-4.52a15.28,15.28,0,0,1-.36,18.65,15.28,15.28,0,0,1-18.32,3.51A15.28,15.28,0,0,1,127,14.1,86.41,86.41,0,0,0,86.78,82.23c-.51,10.45.68,21.86-5.28,30.47-9.1,13.14-31.08,13.91-37.4,28.59-2.61,6.06-1.62,13.34,1.87,18.93,4.07,6.54,12.1,12.22,20,12.21a23.82,23.82,0,0,0,11.24-2.9c.87-.47-6.09-11.47-7.26-16.72s-3.28-14.58,3.13-21.19c11.3-11.63,25.58-1.83,25.58-1.83s11.35-16.46,18.36-24c6.83-7.3,14.63-13.89,23.75-18C200.19,61.1,216.4,104.75,216.4,104.75Z"/><path class="cls-23" d="M198.51,52.76c-2.43.56-2.76,4.24-1.89,6.77,2.55,7.42,14.29,4.52,8.11-2.55C204.29,56.47,200.35,52.34,198.51,52.76Z"/><path d="M158.44,15a54.29,54.29,0,0,1,17.4,3.31,58.73,58.73,0,0,1,15.72,8.51,62.78,62.78,0,0,1,6.7,6,59.29,59.29,0,0,1,5.65,7,56.76,56.76,0,0,1,7.68,16A99.12,99.12,0,0,0,202,41.11a71,71,0,0,0-12.3-11.95,62.7,62.7,0,0,0-7.12-4.78A77.93,77.93,0,0,0,175,20.43,90.81,90.81,0,0,0,158.44,15Z"/><path d="M94.47,108.86a24.44,24.44,0,0,1-4.59,6.43,49.47,49.47,0,0,1-6,5.19c-4.22,3.17-8.73,5.81-13.12,8.55-2.21,1.33-4.39,2.7-6.5,4.14a55.57,55.57,0,0,0-6,4.6,24.36,24.36,0,0,0-4.81,5.7,16.64,16.64,0,0,0-2.29,7.21,14.51,14.51,0,0,1,1-7.86,22.41,22.41,0,0,1,4.49-6.72c3.71-3.93,8.18-6.85,12.6-9.62l6.72-4c2.25-1.28,4.46-2.61,6.65-3.95C86.9,115.81,91.15,112.92,94.47,108.86Z"/><path class="cls-22" d="M121.68,72.29c0,3.43-1.78,7.21-5.21,7.21s-7.21-3.78-7.21-7.21,2.78-5.21,6.21-5.21S121.68,68.86,121.68,72.29Z"/><path class="cls-22" d="M130.59,65.43c0,1.44-3.17.61-4.61.61a2.61,2.61,0,0,1,0-5.22C127.42,60.82,130.59,64,130.59,65.43Z"/><path class="cls-22" d="M108.82,80.72c0,.78-.64,2.42-1.42,2.42S106,81.51,106,80.72a1.42,1.42,0,1,1,2.84,0Z"/><path d="M159.11,15.91A14.91,14.91,0,0,1,162.83,21a10.9,10.9,0,0,1,.82,6.63,8.68,8.68,0,0,1-4,5.52,10.3,10.3,0,0,1-6.19,1.46,23.17,23.17,0,0,0,4.77-3.35,8.51,8.51,0,0,0,2.52-4.29,13.21,13.21,0,0,0-.13-5.25C160.23,19.84,159.63,17.95,159.11,15.91Z"/><path class="cls-24" d="M100.79,194.33s-12.4-2.4-25.5,8.8c19.6,19.8,54,17.6,54,17.6l-5.8-9.6C108.09,210.43,100.79,194.33,100.79,194.33Z"/><path class="cls-24" d="M177.38,256.84c26.6-13.3,28.91-60.11,28.91-60.11s-36.5,20-52.3,21.7c-4.4.5-44.4-11.4-40.47.51,0,0,32.77,13.76,41.87,16.26C173.09,240,177.38,256.84,177.38,256.84Z"/><path class="cls-25" d="M153.59,226.23c-.63-.22,25.33,14.22,27.8,18.6,2.1-2.4,9.3-8,7.5-10.7C183.69,225.73,168,214.73,153.59,226.23Z"/><path class="cls-24" d="M113.51,218.94s69.87,1.89,84.17,28.79c17.3-15.2,22.7-29.9,22.1-39.7-.7-11.3-16.8-13.9-16.8-13.9-5,7.2-26.4,16.1-29.7,16.7-10.6,2-15.6,1.8-24.1,1.7-5.2-.1-27.76-5.19-33-5.49Z"/><path d="M118.91,208.61a19.82,19.82,0,0,1,4.08,1c1.32.47,2.52,1,3.72,1.54a23.76,23.76,0,0,1,3.37,2.07,22.13,22.13,0,0,1,2.95,2.47,25,25,0,0,0-3.5-1.59,22.84,22.84,0,0,0-3.57-1,22.54,22.54,0,0,0-3.63-.38,21.66,21.66,0,0,0-3.45.09Z"/><path d="M130.48,216.78c-2.41,1-6.1.6-8.8.2h0a1.67,1.67,0,1,1,.5-3.3,1.08,1.08,0,0,1,.7.3C125,215.28,126.24,216.79,130.48,216.78Z"/><path class="cls-25" d="M99,198.13c-1.7-1.5-14.3,3.9-15,4.3a71.14,71.14,0,0,0,22.6,13.5c-3.5-5.9-.4-5.4,4.1-5.2C105.39,210.43,101.59,200.33,99,198.13Z"/><path class="cls-25" d="M135.92,215.25c27.77,4.18,62,21.37,62,21.37s14-13,16.2-19.5-3.3-12.6-8.1-17C195.79,220.13,163,215.93,135.92,215.25Z"/><path class="cls-24" d="M105.56,200.24A22.63,22.63,0,0,0,89.11,202c-4,2.19-6.83,3.52-10,6.57-8.94,8.51-12.53,3.38-18.31,6.91,2.08,6.24,10.21,14.41,15.18,15.16a17,17,0,0,0,6.91,0c6.48-1.55,11-7.31,15.16-12.14l5.7-6.6c.73-.85,4-3.43,4.07-4.64l.49-6.38Z"/><path class="cls-24" d="M117.51,208.44c.68.17,1.76,3.23,2,3.91a23.2,23.2,0,0,1,1,5.73c.1,4.46-1.54,8.07-3.54,11.89-4.06,7.84-4.09,21.76-2.32,29.85a104.24,104.24,0,0,1-10-5.42,21.69,21.69,0,0,1-3-2.32c-6.52-6.4-8.16-16.62-6.28-25.22a47.39,47.39,0,0,1,5.41-13.59c.37-.63,4.2-8,5-7.81Z"/><path d="M101.87,207c0-.1-.14-.24-.31-.39s-.24-.27-.41-.41a3.58,3.58,0,0,0-1-.66,4.89,4.89,0,0,0-2.3-.69,6.57,6.57,0,0,0-2.67.35,8.71,8.71,0,0,0-1.29.6,5.24,5.24,0,0,0-1.24.82c.32-.44.61-.77.93-1.21s.71-.75,1.1-1.06a7.28,7.28,0,0,1,2.87-1.54,8.06,8.06,0,0,1,3.47-.25,5.44,5.44,0,0,1,1.74.44c.29.07.56.24.85.32s.56.24.92.44Z"/><path d="M88.34,218.46a17.53,17.53,0,0,1,2-4.75,20.88,20.88,0,0,1,3.31-4.11,26.66,26.66,0,0,1,4.16-3.38,35.89,35.89,0,0,1,4.74-2.82l1.41,4.18a30.19,30.19,0,0,0-4.52,1.53,38,38,0,0,0-4.4,2.29,24.56,24.56,0,0,0-3.89,3.14A14.13,14.13,0,0,0,88.34,218.46Z"/><path d="M110.24,230.11a12.42,12.42,0,0,0,1.06-4.17,16.42,16.42,0,0,0-.4-4.12,25.64,25.64,0,0,0-1.27-3.93,19.78,19.78,0,0,0-1.88-3.57l4-1.88a28.23,28.23,0,0,1,1.1,4.61,22.53,22.53,0,0,1,.27,4.61,17.91,17.91,0,0,1-.75,4.56A12.4,12.4,0,0,1,110.24,230.11Z"/><path d="M100.9,232a27,27,0,0,1,0-5,29.11,29.11,0,0,1,1-5,30.92,30.92,0,0,1,2-4.87,25.82,25.82,0,0,1,1.42-2.32,18.28,18.28,0,0,1,1.71-2.25l2.87,3.31a12.55,12.55,0,0,0-1.68,1.33,12.81,12.81,0,0,0-1.56,1.67,23.54,23.54,0,0,0-2.73,3.85A24.3,24.3,0,0,0,102,227C101.52,228.72,101.22,230.3,100.9,232Z"/><path class="cls-24" d="M105.48,214.35c.22.36.34.7.6.88,3.7,3.31,9.58.89,12.55-2.28a5.68,5.68,0,0,0,1.61-3.51c.09-4.41-5-8.19-8.86-9.37-5.64-1.74-10.17,3.09-10.73,8.52-.28,2.72,1.81,3,3.74,3.94C104.86,212.75,105.14,213.65,105.48,214.35Z"/><path d="M115.34,223.05a15.11,15.11,0,0,0,.79-4.75,4.35,4.35,0,0,0-.43-2,2.52,2.52,0,0,0-1-1l3.21-2.9a5.54,5.54,0,0,1,1,3.45,7.69,7.69,0,0,1-.64,2.93A12.6,12.6,0,0,1,115.34,223.05Z"/><path class="cls-25" d="M112.58,203.88c.12-.07-1.64-2.89-4.94-1.26-3,1.52-6,6.31,1.07,10.8,1.16.71,6,.7,5.93-2.62,0-3.52-4.57-2.3-4.76-4C109.83,205.76,112.48,203.86,112.58,203.88Z"/><path d="M110,206.83a6.15,6.15,0,0,1,2.46-3.19,5.94,5.94,0,0,1,2.06-.82,5.68,5.68,0,0,1,2.3-.14h0a1.69,1.69,0,1,1-.13,3.37,2.15,2.15,0,0,1-.78-.2,7.72,7.72,0,0,0-1.4-.56,4,4,0,0,0-1.53-.08A5.53,5.53,0,0,0,110,206.83Z"/><path class="cls-25" d="M111,255.8c-1.38-1.07-7.47-7.16-8.58-8.47a20.49,20.49,0,0,1-3.61-6.9c-.26-1-.84-3.2.16-3.88a1.31,1.31,0,0,1,1.24,0,3.25,3.25,0,0,1,1,1.29,1.61,1.61,0,0,1,.21,1.19,16.66,16.66,0,0,0,0-3.1,10.88,10.88,0,0,1,.47-3.08,13.3,13.3,0,0,1,3.08-5.61,6.91,6.91,0,0,1,2.85-1.86,10,10,0,0,1-.74,2.91,6.4,6.4,0,0,0,.1,4.46c.07.12.12.34.31.39.63.37,2.5-1.32,2.92-1.73.95-.89,1.9-1.79,2.75-2.71-.76,1.36-.69,3.13-1.42,4.38-1.49,2.61-1.67,5.77-1.93,8.8C109.76,243,110.24,255.7,111,255.8Z"/><path class="cls-25" d="M74.9,225.88c2.42,1,4.82,2.74,7.61,2.32.75-.12,1.43-1.36,2.11-1.6,4.64-1.61,7.32-5.26,9.52-9.45-.56,1-2.6,2.12-3.43,2.95-1.22,1.14-2.17,2.44-3.29,3.6a8,8,0,0,1-1.05-3.57,23.26,23.26,0,0,1,.21-2.84,6.65,6.65,0,0,1,2.61-4.19,2.22,2.22,0,0,1-.94-2,6.28,6.28,0,0,1,1.39-3.05c0,.1-.66.14-.78.22A4.63,4.63,0,0,0,87,209.46c-2.39,2.08-3.61,5.27-4.66,8.2-.07.29-.24.56-.29.75-.86,2.16-1.84,4.38-3.66,5.88A8.85,8.85,0,0,1,74.9,225.88Z"/><path d="M114.13,32.33c.93-1,1.91-1.87,2.91-2.75.49-.45,1-.87,1.51-1.3s1-.86,1.53-1.26l1.2,1.81a1,1,0,0,0,.46-.67v-.08a.68.68,0,0,0,0-.11c0-.09,0,0,0-.06s0,0,0,0l.06.17.16.39c.12.27.25.54.39.82.29.54.58,1.08.91,1.61a24.72,24.72,0,0,0,2.15,3A18.16,18.16,0,0,0,131,38.42a16.68,16.68,0,0,0,7,1.79,32.5,32.5,0,0,0,7.68-.7A19,19,0,0,1,138,42.23,15.69,15.69,0,0,1,129.75,41a17.35,17.35,0,0,1-6.58-5.28A20.39,20.39,0,0,1,121,32.19a17.57,17.57,0,0,1-.82-1.92c-.12-.33-.23-.67-.32-1l-.14-.54-.06-.31,0-.21a1.74,1.74,0,0,1,0-.19,1.6,1.6,0,0,1,0-.18l0-.1a1.15,1.15,0,0,1,.47-.71l.05,0a1.09,1.09,0,0,1,1.21,1.81l-.06,0c-.57.33-1.16.64-1.74.94s-1.16.62-1.76.91C116.58,31.27,115.38,31.84,114.13,32.33Z"/><path class="cls-22" d="M242.19,281.64c0,1.44-3.17.61-4.61.61a2.61,2.61,0,1,1,0-5.22C239,277,242.19,280.2,242.19,281.64Z"/><path class="cls-22" d="M235.73,285.89c-.56-.45.76-1.43,1.21-2a1.3,1.3,0,0,1,2,1.63A3.67,3.67,0,0,1,235.73,285.89Z"/><path class="cls-22" d="M203.42,299.66c-.56-.45.76-1.43,1.21-2a1.3,1.3,0,1,1,2,1.63A3.67,3.67,0,0,1,203.42,299.66Z"/><path class="cls-22" d="M201.61,292.86c.51-.7,1.5.64,2.08,1.06a1.6,1.6,0,0,1-1.85,2.54C201.26,296,201.1,293.56,201.61,292.86Z"/><path class="cls-26" d="M163.56,310.68,147.24,312l-.62-6.08,19.3-1.59s.4-.12,1.35.54a8.65,8.65,0,0,1,2.91,3.39l6.29-.87-3.58-9.77-34.54,3.42-1.19,5.19,3.28,1.93.36,4.37-4,.33-3.56-2.48-1-12.64,3.09-3.26,23.79-2,3.13,2.87,6.3-.75-.61-4.58-6.45-3.86-29.88,2.46-6.28,6.65a49.48,49.48,0,0,1,1.75,8.31c1,8.36-.29,9.5-.29,9.5l7.51,5.51,7-.55,1.57,19.07-4.48.35-2.79-3-1-9.17-6.77.67,1.59,12.25,7.07,5.78,6.89-.57.33,4a1.9,1.9,0,0,1-.9,1.69,31,31,0,0,1-3,1.52l2.5,5.12,11.26-.93,1.4-5.55a22,22,0,0,1-3.39-1.11c-.9-.53-1-2.11-1-2.11l-.33-3.21,16-1.32,6.12-7.21-1.47-17.81Zm-.72,24.93-13.3,1-.73-7a21.54,21.54,0,0,1,6.25-1.1,18.12,18.12,0,0,1,5.78,1l-.69-7a16.48,16.48,0,0,1-5.55,1.92,25,25,0,0,1-6.1-.15l-.68-6.71,13-1,3.76,3.45,1,11.78Z"/></svg>