<?xml version="1.0" encoding="utf-8"?>
<!-- Generator: Adobe Illustrator 23.0.6, SVG Export Plug-In . SVG Version: 6.00 Build 0)  -->
<svg version="1.1" id="Layer_1" xmlns="http://www.w3.org/2000/svg" xmlns:xlink="http://www.w3.org/1999/xlink" x="0px" y="0px"
	 viewBox="0 0 612 792" style="enable-background:new 0 0 612 792;" xml:space="preserve">
<style type="text/css">
	.st0{fill:#A7A9AC;}
	.st1{fill:#D1D3D4;}
	.st2{fill:#93CA63;}
	.st3{fill:#F0EA42;}
	.st4{fill:#221F1F;}
	.st5{fill:none;stroke:#221F1F;stroke-miterlimit:10;}
	.st6{fill:#F0E6DE;}
	.st7{fill:#D33933;}
	.st8{fill:#F1F2F2;}
	.st9{fill:#ECEFA6;}
	.st10{opacity:0.42;fill:#F1F2F2;enable-background:new    ;}
	.st11{opacity:0.46;fill:#F1F2F2;enable-background:new    ;}
	.st12{opacity:0.53;fill:#F1F2F2;enable-background:new    ;}
	.st13{opacity:0.63;fill:#F1F2F2;enable-background:new    ;}
	.st14{opacity:0.36;fill:#FFFFFF;enable-background:new    ;}
	.st15{fill:none;stroke:#E9E853;stroke-width:2;stroke-linecap:round;stroke-miterlimit:10;}
	.st16{opacity:0.53;fill:#221F1F;enable-background:new    ;}
</style>
<g id="Layer_3">
	<g>
		<path class="st0" d="M161.8,468.8c0,0,8.6,25.4,15.6,41.3c7,15.9,56.1,29.4,56.1,29.4s73.6,12,115.2-1.9
			c43.4-14.6,70.4-44.8,70.4-44.8s2.2-8.4,5.1-36.9c1.2-11.5-26.4-2.2-26.4-2.2S187.9,488.5,161.8,468.8z"/>
		<path class="st1" d="M225.9,421.9c0,0-48.3,24.3-56.1,33.4c0,0-11.6,8.4-7,14.6c0,0,60.4,50.4,128.9,45.3
			c0,0,105.7-3.2,132.1-58.2c0,0,4.3-5.9-16.2-22.1l-25.3-15.9c0,0-13.2,9.2-30.5,17.8c-16.2,8.1-72.5,7-72.5,7
			S241,441.3,225.9,421.9z"/>
	</g>
	<g>
		<path class="st2" d="M184.7,514.1c0,0,4.8,82.9,20.2,82.5s47.7,23.5,76,9.7l26.7-68C300.8,543.7,197.8,542.1,184.7,514.1z"/>
		<path class="st3" d="M300.4,538.8l-21.8,65.9l101.1-15.9l-12.5-53.3C367.1,535.6,323.4,538,300.4,538.8z"/>
		<path class="st1" d="M371.6,536.8l0.2,1.3L379,583c0,0,21.2-4.2,27.3-1.7c6.1,2.4,22.3,18.6,36.4,2.4c14.2-16.2,2.4-42.1,2.4-42.1
			s-2-23.1-35.6-16.2L371.6,536.8z"/>
	</g>
	<polygon class="st2" points="396.8,516 377,539.8 359.8,529.6 391.7,515.8 	"/>
	<path class="st4" d="M409,434.2l-25.6-15.9c0,0-13.3,9.2-30.8,17.8c-16.3,8.1-73.3,7-73.3,7s-38.7-2.4-54-21.8
		c0,0-48.8,24.3-56.7,33.4c0,0-11,7.8-7.5,14c-0.2-0.2-0.5-0.3-0.7-0.5c0,0,8.7,25.4,15.8,41.3s63.1,31.8,63.1,31.8s32.8-2.2,67.5-4
		c16.4-0.8,33.9,3.3,47.3-1.2c43.9-14.6,66.3-43.8,66.3-43.8s2.2-8.2,5.1-36.3C426.1,454.2,426.5,447.9,409,434.2z M222.5,429.6
		c81.5,59.1,162.5-3.2,162.5-3.2s36.2,22.6,33.8,28.8c-2.4,6.1-10.9,14.7-10.9,14.7s-56.7,44.8-126.5,39.9s-111.9-45.7-111.9-45.7
		C174.9,451.1,222.5,429.6,222.5,429.6z M418.8,482c0.2,8.6-5.8,12.2-5.8,12.2s-20.5,20-51.2,33.4c-30.7,13.5-85.4,11.9-85.4,11.9
		c-38.3,2.3-82.5-21.6-82.5-21.6c-10.4-1.8-13.8-14.7-13.8-14.7l-10.2-28c14.1,11.4,39.9,25.2,39.9,25.2
		c62.7,26.3,113.6,16.3,154.9,2.8c42.1-13.8,55.5-38.4,55.5-38.4L418.8,482z"/>
	<path class="st5" d="M420.6,479.1c0.7-10.9-4.8-11.1-4.8-11.1l-8.1,8.4c8.8,3.2,9,13.9,8.6,17.8c-0.4,3.9-5.1,3.5-5.1,3.5
		c-1.9-11.9-15.1-12.1-15.1-12.1l-6.2,3.8c12.4,7,7.8,20.5,7.8,20.5l-5.4,2.7c-1.5-12.7-17.5-17.5-17.5-17.5s-15.2-1.4-8.4,4.6
		s6.7,22.4,5.1,26.7c-1.6,4.3-6.5,2.4-6.5,2.4s-6.7-17.3-14-23.2s-10-0.3-10-0.3c12.3,18.3,1.3,32.4,1.3,32.4l-10.5-2.2
		c0,0-0.3-19.8-7.8-23.7c-7.5-3.9-8.1,1.1-8.1,1.1c3.1,14.2-5.4,24.5-5.4,24.5l-7,0.3c0,0-0.3-18.9-5.1-23.2
		c-4.8-4.3-6.7,0.8-6.7,0.8c0.9,13.2-10.5,23.5-10.5,23.5l-7,1.3c0,0,4-20.2-1.6-26.7c-5.7-6.5-7.5-0.3-7.5-0.3s-5.9,21-11.3,26.4
		c-5.4,5.4-5.9-1.1-5.9-1.1s3.6-22-0.5-28.8c-4.2-6.9-5.9-1.9-5.9-1.9s-4.3,25.3-8.9,27.8c-4.6,2.4-4.3-1.6-4.3-1.6
		c2-26.8-5.9-31-5.9-31s1.5,24.4-4,28.3c-5.5,3.9-7.8-3.2-7.8-3.2s3-19.3-6.5-35.1l-11.6-4.3c0,0,9.3,29.4,6.5,34
		c-2.8,4.6-9.7-4.6-9.7-4.6s-9.6-35.9-14.3-42.3s-2.4,17.3-2.4,17.3"/>
	<path class="st4" d="M453.8,550.8c1.1-11.9-12.4-27.5-12.4-27.5s-4.3-7-21-4.3c-10.6,1.7-20.3,6.7-26,10.1
		c2.5-7.2,3.4-11.8,5.9-18.7c0.9-2.5-8.9,5.8-8.9,5.8s-2.2,8.7-9.7,16.4c-4.3,0.6-6.8,2.3-8.3,3.9c-0.7-3.8-1.1-6.2-1.1-6.2
		s-110.3,1.3-129.4,9.2c0,0-9.7-0.3-15.1,4.9l44.2-2.7c0,0,75-4.9,93.8-0.5l5.4,46.9c0,0-97.1,10.5-102.5,15.1
		c-5.4,4.6-31.3-1.6-31.3-1.6s-32.9-20.2-42.1-19.4c0,0-0.7-25.8-3.8-42.6c-1.8-9.7-0.7-16.6-0.7-16.6s-4-4.3-12.3-10
		c0,0,9.2,26.8,8.1,64.8c0,0-1.9,14.6,7,16.7c0,0,14.3,3,19.4,8.1s28,10.3,28,10.3s10.8,1.6,13.5,0.5c0,0,61.2-10.8,102.5-14
		c0,0,13.2-0.8,17.8-2.2c4.6-1.4,6.5-2.7,6.5-8.6c0-0.1,0-0.2,0-0.4c7.2-2.3,21.1-6.1,22.7-2.3c2.2,5.1,11.3,6.5,11.3,6.5
		s34,3.5,36.7-14C454.9,560.8,453.8,550.8,453.8,550.8z M391.2,579.9c-4.8,0.8-8.1,1.8-10.3,2.8c-1.4-10.1-4.7-29.9-6.8-42l10.1,0.4
		C393.1,549.2,391.2,579.9,391.2,579.9z M448.9,567.3c0,0-1.2,13.3-13.4,16.4c-12.2,3.1-20.2-0.3-20.2-0.3s-0.9-2.6,7.9-3.6
		c8.8-1,10.3-2.9,10.3-2.9h-31.9c0-6.4-2.9-22.7-4.1-29.1s1.4-7.9,1.4-7.9c9.6-6.7,29.5-11.1,29.5-11.1c11.2,1.3,13.7,7.9,13.7,7.9
		C451.5,551.9,448.9,567.3,448.9,567.3z"/>
	<path class="st6" d="M206.5,325.6c0,0-44.9,27.5,0.8,55.8c0,0,14.6,0.4,17,26.7c2.4,26.3,38,34.8,38,34.8s68.4,14.6,105.2-9.7
		c36.8-24.3,37.2-107.6,37.2-107.6s2.8-58.7-38-82.5c-40.8-23.9-87.4-11.3-87.4-11.3s-35.2,20.2-41.3,38
		C232,287.6,206.5,325.6,206.5,325.6z"/>
	<path class="st7" d="M291.6,375.9c0,0,13.1,14.6,28.4,35.7c0,0,8.1,15.3,34,2.4c0,0,8.7-8.3,18.7-10.1c0,0-40.3,0.5-56.8-11.5
		L291.6,375.9z"/>
	<path class="st7" d="M362.9,337.8l12.6,13.1c0,0,6.7,6.1,2,11.8c-4.7,5.7-18.1,9-18.1,9S340,351.8,362.9,337.8z"/>
	<path class="st8" d="M273.9,294.9c0,0,6.8-21.2,29.1-20.2c0,0,2.4-6.2-11-5.1s-19.7,17.7-19.7,17.7S270.6,294.8,273.9,294.9z"/>
	<path class="st4" d="M274.5,298.7c0,0,2.1-8.5,15-14.8c0,0,9.5-2.6,14.7-1.9c4.8,0.6,0.3-6.6,0.3-6.6s-7.3-4.8-17.5-1
		c0,0-5.8,1.5-10.8,11.8C276.1,286.2,272.2,291.8,274.5,298.7z"/>
	<path class="st4" d="M368.9,279.8c0,0,9.4-7.5,21.6,2.7s11.3,22.6,11.3,22.6s3.6,46.2-6.7,75.6c0,0-10.3,26.3-24.6,40.9
		c-13.8,14-33.1,16.3-33.1,16.3s-18.3,4.7-40.3-8.2c-21.5-12.6-33.4-34.5-33.4-34.5s-3,14,19.4,31.3c22.4,17.3,34,17.8,34,17.8
		s28.8,3.8,46.4-8.1s24.8-24.3,24.8-24.3s7-11.3,12.4-30.2s7-37.8,7-37.8s0-26.7,1.1-35.6s-7.6-46.9-28.6-60.9
		c0,0-18.9-21-46.4-25.3c-27.5-4.3-57.7,2.7-57.7,2.7s-37.2,13.8-50.7,23.7s-16.2,22.7-16.2,22.7s-13.8,9.2-16.7,22.1s0,32.4,0,32.4
		s-10.8,10.5-6.5,20c0,0-3.8,19.4,15.6,38.3c0,0,8.6,7.5,17.3,5.4s12.9-12.9,12.9-12.9l-5.9-2.2c0,0-1.3,5.9-12.9,5.4
		c-11.6-0.5-18.3-18.3-18.3-18.3s-7-19.7,7-28c14-8.4,22.7,1.6,22.7,1.6s4.8,5.9,3.2,12.4c0,0,10.3,4.3,15.6-2.7
		c0,0-5.4-17-3.2-37.2c0,0,8.1-17.8,2.2-37.8c0,0,18.1-23.7,46.4-35.6c28.3-11.9,66.9,6.5,66.9,6.5s14.3,3.8,30.7,29.1
		C386.1,269.6,371.8,267.1,368.9,279.8z"/>
	<path class="st4" d="M300.4,324.6c0,0-2.2,4.8,2.7,8.6s18.9,2.2,18.9,2.2s11.9-6.5,4.3-13.5c0,0-4.8-1.4-11.9-20.5
		c0,0-3.5,2.7,2.7,16.7l4.8,7C321.9,325.1,316.3,329.4,300.4,324.6z"/>
	<path class="st4" d="M374.8,321.6c0,0-1.5,4.3,2.8,7.3c4.3,2.9,15.9,0.6,15.9,0.6s9.5-6.3,2.7-11.9c0,0-4.1-0.9-11.3-16.9
		c0,0-2.8,2.6,3.4,14.2l4.5,5.7C392.9,320.7,388.5,324.8,374.8,321.6z"/>
	<path class="st4" d="M353.2,321.9c0,0,6.7,19.7,23.2,30.7c0,0,6.7,6.2-3.8,12.9c0,0-11.9,7.6-24.8,8.6
		c-12.9,1.1-10.8-11.3-10.8-11.3s-4.6,2.2-2.2,8.1c2.4,5.9,5.1,7.5,12.4,8.1c7.3,0.5,14-2.2,14-2.2s17.5-5.9,22.7-10.3l2.2-14.8
		c0,0-13.2-7.5-26.4-29.1c0,0-5.7-8.9-7-15.4S348.4,315.1,353.2,321.9z"/>
	<path class="st4" d="M355.4,385.5v8.6c0,0-29.4,5.7-42.1-14C313.3,380.1,321.1,386.6,355.4,385.5z"/>
	<path class="st4" d="M361.9,385v8.1c0,0,17.8,3.5,26.4-17.8C388.3,375.3,379.4,383.6,361.9,385z"/>
	<path class="st4" d="M210.8,362.3c0,0-3.2-12.9,3.8-15.1c7-2.2,7.5,7.5,7.5,7.5s7.3-4.9-4.3-15.6c0,0-11.1-5.9-15.1,4.9
		c0,0,3.8-2.7,7-1.1C209.8,342.9,201.7,353.4,210.8,362.3z"/>
	<path class="st4" d="M307.9,393.6c0,0,9.2,15.4,19.2,17.5c10,2.2,17.5,1.9,17.5,1.9s15.1,0.5,17.8-8.6l-31.3-0.5
		c0,0-14.3-1.1-24.3-17.3L307.9,393.6z"/>
	<path class="st4" d="M278.8,446.5c2.4-0.8-24.7-3-38.5-16.7c0,0-19-23.3-17.6-47c0,0-11.3-0.5-9.2,7c0,0-1.9,13.2,11.3,32.9
		c13.2,19.7,30.2,22.6,30.2,22.6S269.8,449.6,278.8,446.5z"/>
	<path class="st4" d="M370.3,241.4c0,0,17.3-34.3,37.7,2.4c0,0,45.6-48.2,32.9,18.9c0,0,82.2-35.9,31.7,38.2
		c0,0,28.2,40.4-19.9,37.6c0,0,24.2,55.4-28,28.5c0,0-5.3,32.4-22.5,0.3C402.3,367.3,422,282.7,370.3,241.4z"/>
	<path class="st4" d="M258,247.2c0,0,22.7-63.9-30.7-35.9l-14.8,8.4c0,0-24.5-27.9-46.7-24.5c0,0-12.1,4.5-7.8,23.7l1.3,5.7
		c0,0-37.1-14-52.8-2.4c-15.8,11.6-3.5,31.6-3.5,31.6s9.2,15.1,13.5,18.1c0,0-24.3,40-9.7,50.4c14.6,10.4,33.4,3.2,33.4,3.2
		s8.4-3.1,10-4.6s-18.1,18.2-11.3,39.6s34.3,19.1,34.3,19.1s20.8-0.7,25.6-3.2c0,0-22.4-39.1,9.7-49.3s32.1-38,32.1-38l-2.2-16.4
		l2.4-15.4L258,247.2z"/>
	<path class="st3" d="M250.2,248.8c0,0,26.3-72.8-37.6-18.6c0,0-60.3-63.5-46.9,2.8c0,0-100.3-34.8-39.6,38.8
		c0,0-54.2,79.7,38.4,36.8c0,0-60.3,74,28.3,59.9c0,0-12.1-25.5,1.6-37.2s32-9.3,36.4,7.3l6.5-0.8c0,0-7.7-19-0.8-40.5
		c6.9-21.4-2.4-25.9-2.4-25.9S240.1,267,250.2,248.8z"/>
	<path class="st2" d="M376.8,245.6c0,0,12.9-25.9,30.3,6.9c0,0,44.9-51.4,23.9,19.8c0,0,88.6-38.4,31.2,29.5
		c0,0,33.6,33.6-17.4,30.7c0,0,26.7,55.8-23.9,26.3c0,0,0.1,36.9-16.6,3.3C404.3,362.1,422.8,291,376.8,245.6z"/>
	<path class="st7" d="M372,304.2c0,0,8.9-11.8,20.4-6.1c0,0-9.3-5.1-14.5-20.1C377.9,277.9,378,296.7,372,304.2z"/>
	<path class="st7" d="M401.5,334.7c0,0-9.9,11-20.8,4.4c0,0,8.8,5.9,12.7,21.3C393.3,360.4,395,341.7,401.5,334.7z"/>
	<path class="st7" d="M304.9,300.8c0,0,13-8,21.9,1.8c0,0-7-8.4-6.2-25C320.6,277.6,313.4,295.8,304.9,300.8z"/>
	<path class="st7" d="M321.5,341.4c0,0-13.6,6.9-21.6-3.6c0,0,6.2,9,4,25.4C303.8,363.2,312.6,345.7,321.5,341.4z"/>
	<path class="st9" d="M164.5,308.7c0,0-28.2,14.2-43.7,12.7c-15.5-1.5-9.3-20.2-9.3-20.2s4-14.3,14.5-29.3c0,0-18.5-21.4-19.3-34.1
		c-0.8-12.7,14.6-12.9,14.6-12.9s19.3-0.4,34.3,5.4l10.1,2.8c0,0-7.5-28.2,6.1-30.3s40.8,27.5,40.8,27.5s-25.9-22.4-37.9-21
		c0,0-6.9,0.9-4.3,11.6c0,0,0.4,9.3,3.2,19.7l-11.9-3.2c0,0-50.3-15.5-49.3,1.1c0,0,9.2,22,19.2,28c10,6.1,4,3,4,3
		s-24.6,30.4-16.4,43.3c0,0,2.8,5.4,20-0.2l32-9.4c0,0-15,20.1-18,30.6s-3.6,16.9-3.6,16.9s0.2,13.8,14.7,14
		c14.6,0.3,25.7-2.3,25.7-2.3l2.6,6.3c0,0-21,4.5-35.2,0c-14.1-4.5-13.5-18-13.5-18s1.2-12.7,9-25.2
		C161,312.9,164.5,308.7,164.5,308.7z"/>
	<path class="st8" d="M284.6,381.3c0,0,1.6,2.2,3.6,0c0,0-2.3-9.5,5.4-9.4c0,0,2.2-3.2-2.9-4.7s-8.3,1.8-8.3,1.8
		S278.8,376.4,284.6,381.3z"/>
	<path class="st8" d="M339.2,356.5c0,0-3.2,5.9-1.1,12.2c0,0-1.3-3.1,4.7-4s3.2-7.6,3.2-7.6S343.5,354.1,339.2,356.5z"/>
	<path class="st8" d="M313.2,307.8c0,0,1.3,9.1,5.9,13.8c0,0-12.8,4.8-16.7-0.5s-0.4-8.8-0.4-8.8S305.3,307.7,313.2,307.8z"/>
	<path class="st8" d="M384.8,305.9c0,0,1.5,7.9,5.6,11.9c0,0-10.7,4.7-14.2,0.2s-0.7-7.7-0.7-7.7S378.1,306.1,384.8,305.9z"/>
	<path class="st8" d="M231.9,376.5c0,0-5.3,10-9.1,11.1c0,0,0.8,25.4,18.5,43.8c0,0,10.3,8.2,21,9.6
		C262.3,441.1,240,423.9,231.9,376.5z"/>
	<path class="st8" d="M208.8,329.4c0,0-12.9,1.3-15.3,15.3c-2.3,14,6.5,26.1,6.5,26.1s-5-21.1,0-27c4.9-5.9,9-6.5,9-6.5
		s5.4-1.4,12,2.2c6.7,3.5,6.6,7,6.6,7S229.6,328.3,208.8,329.4z"/>
	<path class="st8" d="M243.9,270.4c0,0,2.3,10,1.4,21.4c0,0,21.8-44.1,59.9-48.5c38.1-4.4,57.9,1.8,57.9,1.8s-19.2-16.4-52.3-16
		s-62.7,34.9-62.7,34.9L243.9,270.4z"/>
	<path class="st10" d="M191,522.8l9.2,3.9c0,0,6.2,16.7,3.9,57.4c0,0-4.6-1.8-8.9-1.9c0,0,0.2-12-0.9-25.5
		C193.2,544,188.9,529.8,191,522.8z"/>
	<path class="st11" d="M227,544.3c0,0,25.1,12.4,50.2,10.8c0,0,70.5,1.5,89.7-4.2l-0.7-9.6c0,0-24.7-4.3-67-0.8
		C299.2,540.6,247.5,542.6,227,544.3z"/>
	<path class="st12" d="M400.7,566.5l41,1.6l5.7-18.9c0,0,6.9,28-9.4,33.4c-17.5,5.8-22.7,0-22.7,0s-0.8-3.3,18.5-5.7
		c5.4-0.7-31.4-0.3-31.4-0.3L400.7,566.5z"/>
	<path class="st13" d="M379.8,572.9l1.2,9.2l10.4-2.2l0.1-9.7C391.5,570.2,385.2,570.8,379.8,572.9z"/>
	<path class="st14" d="M405.7,354.9l-1.1,7.5c0,0,3.2,10.3,10.1,13.8c0,0,5.5,3,6.2-17.3c0,0,22.3,14.4,28,6.5c0,0,8.4-3.9-4.2-32.8
		c0,0,25.7,2.6,28.6-9.7c0,0,0.6-8.4-11.2-21.1c0,0,6.7,13.1,5.4,19.8s-32.1,4.3-32.1,4.3s14.8,27.9,8.2,34c0,0-10.7,4.2-26-8.9
		c0,0,2.4,11.5-2.8,15.2C414.8,366.2,412.1,369.3,405.7,354.9z"/>
	<path class="st4" d="M297.5,491.3c0,0-24.3,24.4-52.5-4.7c0,0,8.3-23.4-12.2-8.3c0,0-23,12-39.9-14.7c0,0,15.3-20.5-17.6-14.7
		c0,0-12.2-4.7-6.1-16.2l4.3-3.6c0,0,12.4,7.4,28,2.2c0,0,53.2,35.1,92.8,33.1c39.6-2,87.4-28.4,87.4-28.4s10.6-8.1,15.1-12.9
		c0,0,13.8,6.8,29.5-1.4c0,0,1.3,0,1.8,4c0.5,4-0.9,18.2-5.8,23.7c0,0-30.7-12.2-14.4,7.2c0,0-9.9,23.7-34.9,19.8
		c0,0-24.6-22.5-19.4,6.1c0,0-20.3,22.5-42.1,10.1C311.5,492.4,301.8,463.4,297.5,491.3z"/>
	<path class="st7" d="M199,435.6c0,0,57,32.9,93.1,31.6c36.1-1.3,90.2-23.9,105-38.5c0,0,18,3.4,24.8-0.7c6.8-4.1-2.2,16.5-2.2,16.5
		s-35.6-13.5-18.3,12.2c0,0-6.5,18.2-27.7,16.5c0,0-27.9-29.7-24.8,8.3c0,0-20.5,15.1-35.1,7.4c0,0-11.2-37-21,1.3
		c0,0-25.3,14.7-42.4-6.1c0,0,7.9-30-20.8-7.9c0,0-23.9,4.7-31.6-14.7c0,0,14-19.1-18.7-15.8c0,0-7.9-2-6.1-12.2
		C173.1,433.4,189.5,441.3,199,435.6z"/>
	<path class="st15" d="M425.2,578c0,0-10.9,1.5-4.8,35.9c6.1,34.4-12.4,56.4-12.4,56.4"/>
	<path class="st4" d="M380.2,156c0,0-21.3,23.6-9.8,57.6c0,0,4.1,28.4,30.7,40.8c0,0,12.4,6,21.2,6l-2.7,22.7l36.8-7.5l-12.2-18.2
		c0,0,28-5.1,30.6-42.8c2.6-37.7-8.3-51.4-8.3-51.4s-10.1-24.1-40.3-24.4C426.2,138.8,396.1,136.2,380.2,156z"/>
	<path class="st15" d="M428.7,518.2c0,0-9.2-22.6-0.8-41s15.6-42.6,15.6-42.6s11.6-36.7,13.2-53.1c1.6-16.4-1.9-55.7-7-67.3
		c-4.2-9.4-14.6-45.2-14.6-45.2"/>
	<path class="st7" d="M439.8,255.5l10.8,17.5l-26.2,5.4l1.9-20.5c0,0-45.8,0.9-53.9-52.3c-8.1-53.3,38.8-62,38.8-62
		s52.6-14.1,59.9,48.8C476.6,240.3,453.3,253.1,439.8,255.5z"/>
	
		<image style="overflow:visible;enable-background:new    ;" width="196" height="261" xlink:href="6A89AB42.jpg"  transform="matrix(3.2745 0 0 3.1839 1038.1693 -337.9606)">
	</image>
	<path class="st16" d="M406.4,171.7l37.4-7.1l1.1,5.8c0,0-7.4-0.2-8.2,5.9l7.1,37.3c0,0,3,22.9-19.2,25.4c0,0-15.8,5.2-22.7-3.9
		s-1.4-15.2-1.4-15.2s8.4-7.9,15.1,1c6.7,8.8-4.7,12.7-4.7,12.7s2.5,7.4,11.5,2.2c0,0,4.5-3,5.8-8l-9.1-48.2c0,0-0.7-5.3-12.1-3.3
		L406.4,171.7z"/>
</g>
</svg>
