<svg id="Слой_1" data-name="Слой 1" xmlns="http://www.w3.org/2000/svg" viewBox="0 0 145 198"><defs><style>.cls-1{isolation:isolate;}.cls-14,.cls-2{fill:#6a8aad;}.cls-10,.cls-11,.cls-12,.cls-15,.cls-16,.cls-17,.cls-18,.cls-19,.cls-2,.cls-20,.cls-21,.cls-23,.cls-27,.cls-29,.cls-30,.cls-9{stroke:#000;}.cls-15,.cls-2,.cls-23,.cls-27,.cls-9{stroke-miterlimit:10;}.cls-2,.cls-21,.cls-23{stroke-width:2.38px;}.cls-3{fill:#d33833;}.cls-12,.cls-4{fill:#ef3d3a;}.cls-5{fill:#f0d6b7;}.cls-6{fill:#04632b;}.cls-7{fill:#f7e4cd;}.cls-8{fill:#14502a;}.cls-15,.cls-18,.cls-9{stroke-width:1.91px;}.cls-10,.cls-11,.cls-21,.cls-24{fill:#fff;}.cls-10,.cls-20{stroke-linecap:round;}.cls-10{stroke-linejoin:round;}.cls-10,.cls-11,.cls-12{stroke-width:1.97px;}.cls-13,.cls-27{fill:#456d99;}.cls-15,.cls-18,.cls-20,.cls-23{fill:none;}.cls-16,.cls-30{fill:#ba7500;}.cls-16{stroke-width:1.03px;}.cls-17{fill:#ffe25f;}.cls-17,.cls-20{stroke-width:1.19px;}.cls-17,.cls-20,.cls-27{fill-rule:evenodd;}.cls-19{stroke-width:1.43px;}.cls-22,.cls-29{fill:#9e2a26;}.cls-25{fill:#333;}.cls-26{fill:#dbdada;opacity:0.5;}.cls-27,.cls-29{stroke-width:0.95px;}.cls-28{fill:#b52a2a;}.cls-30{stroke-width:0.7px;}</style></defs><title>logoМонтажная область 1</title><g id="text5675" class="cls-1"><g class="cls-1"><path d="M22,169.29q-.67.08-1.14.17t-1.06.23a1.2,1.2,0,0,0-.88.65,2.81,2.81,0,0,0-.19,1.07v13.11a7.53,7.53,0,0,1-.73,3.32,7.24,7.24,0,0,1-2,2.53,9.24,9.24,0,0,1-2.88,1.52,11.06,11.06,0,0,1-3.4.51,7.94,7.94,0,0,1-5.05-1.51,5,5,0,0,1-1.92-4.14,3.81,3.81,0,0,1,.88-2.58,3,3,0,0,1,2.42-1,3.15,3.15,0,0,1,2.32.85,2.85,2.85,0,0,1,.86,2.11,3.08,3.08,0,0,1-.75,2,11.55,11.55,0,0,1-1.7,1.68V190a1.25,1.25,0,0,0,.66.57,2.4,2.4,0,0,0,1,.23,3.83,3.83,0,0,0,3.17-1.44A6.91,6.91,0,0,0,12.79,185V171.59a2.41,2.41,0,0,0-.19-1,1.63,1.63,0,0,0-.89-.7,6.49,6.49,0,0,0-1.22-.37q-.72-.15-1.19-.22V168H22Z"/><path d="M41.87,187.75a10.2,10.2,0,0,1-1.42,1.8A8.59,8.59,0,0,1,38.57,191a10.34,10.34,0,0,1-2.27,1,9.66,9.66,0,0,1-2.64.33,11.75,11.75,0,0,1-4.28-.7,8.39,8.39,0,0,1-3-1.89,7.58,7.58,0,0,1-1.75-2.81,10.35,10.35,0,0,1-.58-3.51,8.81,8.81,0,0,1,2.41-6.06,8.54,8.54,0,0,1,2.87-1.93,9.82,9.82,0,0,1,3.88-.74,11,11,0,0,1,3.85.57,6.82,6.82,0,0,1,2.5,1.57A5.71,5.71,0,0,1,41,179a8.5,8.5,0,0,1,.44,2.72v1.09H30.09a8.72,8.72,0,0,0,1.32,5.23,4.88,4.88,0,0,0,4.21,1.79,4.89,4.89,0,0,0,2.83-.86,8.08,8.08,0,0,0,2.14-2.19Zm-6.4-6.37q0-1-.1-2.06A6.86,6.86,0,0,0,35,177.6a2.66,2.66,0,0,0-.78-1.19A1.91,1.91,0,0,0,33,176a2.32,2.32,0,0,0-2.06,1.31,8.88,8.88,0,0,0-.84,4.14Z"/><path d="M65.59,191.76H55.52v-1.22l.77-.08a2.12,2.12,0,0,0,.69-.17,1.07,1.07,0,0,0,.5-.54,2.76,2.76,0,0,0,.15-1v-7.84A4.35,4.35,0,0,0,57,178.3a2.15,2.15,0,0,0-1.86-.86,3.79,3.79,0,0,0-1.25.2,4.68,4.68,0,0,0-1.13.59,3.85,3.85,0,0,0-.78.69q-.29.35-.5.62v9a2.51,2.51,0,0,0,.17,1,1.17,1.17,0,0,0,.55.59,3.21,3.21,0,0,0,.67.27,5.23,5.23,0,0,0,.79.17v1.22H43.48v-1.22l.85-.09a4.09,4.09,0,0,0,.73-.16,1.23,1.23,0,0,0,.74-.57,2.17,2.17,0,0,0,.2-1V179a2.15,2.15,0,0,0-.27-1,2.4,2.4,0,0,0-.7-.82,2.77,2.77,0,0,0-.76-.34,5.37,5.37,0,0,0-1-.18v-1.22l8-.44.25.25v2.43h.07l1.14-1a11,11,0,0,1,1.24-1,6,6,0,0,1,1.63-.69,7.83,7.83,0,0,1,2.14-.28,5.17,5.17,0,0,1,4.1,1.55,6,6,0,0,1,1.37,4.11v8.21a2.23,2.23,0,0,0,.18,1,1.3,1.3,0,0,0,.69.59,5.84,5.84,0,0,0,.66.23,4.84,4.84,0,0,0,.9.17Z"/><path d="M88.64,191.76h-7.9q-1.46-2.56-2.66-4.34t-2.28-3.3l-1,.83v3.65a2.39,2.39,0,0,0,.18,1,1.12,1.12,0,0,0,.68.57,4.32,4.32,0,0,0,.7.23,5,5,0,0,0,.8.13v1.22H66.78v-1.22l.84-.09a4.61,4.61,0,0,0,.74-.16,1.2,1.2,0,0,0,.73-.57,2.24,2.24,0,0,0,.19-1V170a3,3,0,0,0-.24-1.15,1.86,1.86,0,0,0-.71-.9,3,3,0,0,0-1-.34,8.24,8.24,0,0,0-1.16-.17v-1.22l8.34-.44.25.27v17.29q1.24-1.11,2.79-2.56t2.49-2.41a2.19,2.19,0,0,0,.61-.86,2.78,2.78,0,0,0,.06-.36q0-.3-.53-.5a7.91,7.91,0,0,0-1.59-.35v-1.19h8.51v1.16a17.56,17.56,0,0,0-2.55.88,15.15,15.15,0,0,0-1.91,1.1q-.69.45-1.33.95t-1.48,1.24l3,4.4q1.39,2,2.91,4.29a2.54,2.54,0,0,0,1.29,1.05,6.34,6.34,0,0,0,1.54.34Z"/><path d="M99.42,191.76H88.83v-1.22l.85-.08a3,3,0,0,0,.72-.17,1.39,1.39,0,0,0,.75-.58,2,2,0,0,0,.22-1V179a2,2,0,0,0-.27-1,2.22,2.22,0,0,0-.67-.71,3.56,3.56,0,0,0-.91-.39,6,6,0,0,0-1.11-.23v-1.22l8.21-.44.25.25v13.3a1.87,1.87,0,0,0,.25,1,1.52,1.52,0,0,0,.72.61,5.66,5.66,0,0,0,.74.27,5.06,5.06,0,0,0,.84.17ZM97,168.91a2.83,2.83,0,0,1-1,2.17,3.47,3.47,0,0,1-4.66,0,2.9,2.9,0,0,1,0-4.35,3.46,3.46,0,0,1,4.67,0A2.87,2.87,0,0,1,97,168.91Z"/><path d="M123.07,191.76H113v-1.22l.77-.08a2.12,2.12,0,0,0,.69-.17,1.07,1.07,0,0,0,.5-.54,2.76,2.76,0,0,0,.15-1v-7.84a4.35,4.35,0,0,0-.63-2.57,2.15,2.15,0,0,0-1.86-.86,3.79,3.79,0,0,0-1.25.2,4.68,4.68,0,0,0-1.13.59,3.86,3.86,0,0,0-.78.69q-.29.35-.5.62v9a2.51,2.51,0,0,0,.17,1,1.17,1.17,0,0,0,.55.59,3.21,3.21,0,0,0,.67.27,5.23,5.23,0,0,0,.79.17v1.22H101v-1.22l.85-.09a4.09,4.09,0,0,0,.73-.16,1.23,1.23,0,0,0,.74-.57,2.17,2.17,0,0,0,.2-1V179a2.15,2.15,0,0,0-.27-1,2.4,2.4,0,0,0-.7-.82,2.77,2.77,0,0,0-.76-.34,5.37,5.37,0,0,0-1-.18v-1.22l8-.44.25.25v2.43H109l1.14-1a11,11,0,0,1,1.24-1A6,6,0,0,1,113,175a7.83,7.83,0,0,1,2.14-.28,5.17,5.17,0,0,1,4.1,1.55,6,6,0,0,1,1.37,4.11v8.21a2.23,2.23,0,0,0,.18,1,1.3,1.3,0,0,0,.69.59,5.84,5.84,0,0,0,.66.23,4.84,4.84,0,0,0,.9.17Z"/><path d="M132.39,192.33a10.72,10.72,0,0,1-3.17-.48,10.39,10.39,0,0,1-2.4-1l-.5,1.14H125l-.22-6.25H126a8.31,8.31,0,0,0,.84,1.7,9.37,9.37,0,0,0,1.34,1.7,7.59,7.59,0,0,0,1.8,1.27,4.69,4.69,0,0,0,2.17.52,3.6,3.6,0,0,0,2.27-.59,2.2,2.2,0,0,0,.75-1.83,1.76,1.76,0,0,0-.34-1.11,2.86,2.86,0,0,0-.92-.75,8.51,8.51,0,0,0-1.43-.57l-1.92-.57a18.45,18.45,0,0,1-2-.68,6.69,6.69,0,0,1-1.68-1.08,4.73,4.73,0,0,1-1.66-3.77,4.52,4.52,0,0,1,2-3.82,8.58,8.58,0,0,1,5.2-1.46,11.93,11.93,0,0,1,2.81.31,14.13,14.13,0,0,1,2.15.68l.35-1H139l.27,5.71h-1.17a6.92,6.92,0,0,0-2-3,4.54,4.54,0,0,0-3.07-1.26,3.39,3.39,0,0,0-2,.54,1.74,1.74,0,0,0-.74,1.49,1.93,1.93,0,0,0,1.08,1.84,14.42,14.42,0,0,0,3,1.07,9.84,9.84,0,0,1,4.38,2.1,4.5,4.5,0,0,1,1.39,3.39,4.89,4.89,0,0,1-2.15,4.26A9.6,9.6,0,0,1,132.39,192.33Z"/></g></g><path class="cls-2" d="M70.46,127.58A142.65,142.65,0,0,1,79,156.41s-7.43-.64-18.55,3.27c-6.47,2.27-10-3.3-10-3.3S68,121.47,70.46,127.58Z"/><path id="path22" class="cls-3" d="M123.59,81.14c0,29.44-23.34,53.31-52.12,53.31S19.35,110.59,19.35,81.14,42.69,27.83,71.47,27.83s52.12,23.87,52.12,53.31"/><path id="path24" class="cls-4" d="M21.48,94.35S17.7,38.75,68.93,37.16l-3.57-6-27.8,9.33-7.94,9.13L22.67,63l-4,15.49,1.19,10.32"/><path id="path26" d="M35.77,44.77A52.14,52.14,0,0,0,21,81.34h0a52.14,52.14,0,0,0,14.8,36.56h0A49.75,49.75,0,0,0,71.47,133h0a49.75,49.75,0,0,0,35.7-15.13h0A52.14,52.14,0,0,0,122,81.34h0a52.15,52.15,0,0,0-14.8-36.57h0a49.76,49.76,0,0,0-35.7-15.13h0a49.77,49.77,0,0,0-35.7,15.13Zm-2.31,75.4A55.38,55.38,0,0,1,17.73,81.34h0A55.39,55.39,0,0,1,33.46,42.51h0a53,53,0,0,1,38-16.1h0a53,53,0,0,1,38,16.1h0a55.38,55.38,0,0,1,15.73,38.83h0a55.38,55.38,0,0,1-15.73,38.83h0a53,53,0,0,1-38,16.1h0a53,53,0,0,1-38-16.1h0"/><path id="path28" class="cls-5" d="M93.41,81.44l-7.47,6.49L77,88.17l-10.22-.7-6.35-2.61-4.57-2.64-4.57-5L47.74,67.14,47,65l-4.77-1.59L39.4,58.8l-2-6.55,2.18-5.76,5.16-1.79,4.17,2,2,4.37,2.38-.4.79-1L53.3,45.1l-.2-5.76L54.3,31.4l0-4.54,3.62-5.79,6.35-4.57,11.12-4.77,12.31,1.79,10.72,7.74,5,7.94L106.52,35l.79,14.3-2.38,12.31L100.56,72.5l-4.17,5.76Z"/><path id="path30" class="cls-6" d="M95.8,115.79l1.38,14.46-37.72,9.56L39.6,133.06l-1.39-2.38-2-22.44-4.57-13.5-1-3.18L46.55,80.64l5-2L55.89,84s22.83,6.18,30.06,3.91c4.33-1.36,13.43-12.25,13.43-12.25L111.14,86.3l-10,28.1-14.48,1.39"/><path id="path38" class="cls-7" d="M48.14,63.57,50.74,61a1.67,1.67,0,0,1,1.37,1.53c.2,1.39.79,13.9,9.33,20.65.78.62-6.35-1-6.35-1L48.74,72.3"/><path id="path40" class="cls-7" d="M84.68,59.79s.46-6,2.08-5.56a2.23,2.23,0,0,1,1.62,2.08s-3.94,2.55-3.7,3.47"/><path id="path42" class="cls-7" d="M101.16,37.75s-3.27.69-3.57,3.57,3.57.6,4.17.4"/><path id="path44" class="cls-7" d="M77.13,38s-4.37.6-4.37,3.38,5,2.58,6.35,1.39"/><path id="path46" class="cls-7" d="M50.13,50.86s-7.55-4.57-8.34-.2S39.21,58.21,43,62.77L40.4,62,38,55.82l-.79-6,4.57-4.77,5.16.4,3,2.38.2,3"/><path id="path48" class="cls-7" d="M53.7,38.35S57.08,20.88,74.15,17.5c14.06-2.78,21.44.6,24.22,3.77,0,0-12.51-14.89-24.42-10.32S53.3,23.86,53.5,29.22c.34,9.13.2,9.13.2,9.13"/><path id="path50" class="cls-7" d="M99.77,23.26s-5.76-.2-6,5a4,4,0,0,0,.4,1.59s4.57-5.16,7.35-2.38"/><path id="path52" class="cls-7" d="M74.55,30.35s-1-7.92-7.75-3.32c-4.37,3-4,7.15-3.18,7.94s.58,2.39,1.18,1.3.41-4.67,2.59-5.66,5.76-2.1,7.15-.26"/><path id="path54" class="cls-8" d="M55.89,84,37.22,92.36S45,123.13,41,132.66l-2.78-1L38,120,32.85,97.72l-2.18-6.16,19.46-13.1L55.89,84"/><path id="path56" class="cls-8" d="M57.8,101l2.65,3.23v11.91H57.28s-.4-8.34-.4-9.33.4-4.57.4-4.57"/><path class="cls-8" d="M96,119.56s-25.78.69-34.38,1c-.94,0-2.83.17-3.77.11a18.3,18.3,0,0,1-4.92-.52,15.84,15.84,0,0,1-2.58-1.79l45.43-2.58Z"/><path id="path66" class="cls-8" d="M95.6,79.85l13.9,10.32.4-4.77L99.37,75.68,95.6,79.85"/><path id="path100" d="M74.55,30.35c-5.41-1.26-8.1,2.26-9.74,5.92-1.46-.36-.88-2.35-.51-3.36,1-2.66,4.87-6.21,8.06-5.73,1.37.21,3.23,1.46,2.19,3.17"/><path id="path102" d="M100.92,36.51h.26A56,56,0,0,0,105,44c-1,2.41-7.83,4.54-7.72.22,1.47-.64,4-.13,5.31-1-.75-2.07-1.84-3.83-1.67-6.75"/><path id="path104" d="M77.32,36.58c1.16,2.13,1.54,4.36,3.19,6,.74.72,2.19,1.61,1.47,3.62a4.59,4.59,0,0,1-2.1,1.74c-2.58.76-8.59.16-6.55-3.06,2.13.1,5,1.38,6.59-.16-1.22-2-3.41-5.83-2.6-8.11"/><path id="path106" d="M100,58.2c-3.88,2.49-8.21,5.21-14.57,4.58a4.31,4.31,0,0,1-.56-5.55c.69,1.18.26,3.36,2.17,3.68,3.61.62,7.81-2.21,10.41-3.2C99,55,97.26,54,95.81,52.25c-3-3.58-7-8-6.81-13.37,1.2-.87,1.3,1.33,1.48,1.73C92,44.24,95.93,48.88,98.78,52c.7.76,1.85,1.5,2,2,.37,1.47-1,3.23-.81,4.21"/><path id="path108" d="M48.77,55.57c-1.22-.69-1.51-3.75-2.94-3.84-2-.12-1.67,4-1.66,6.36-1.41-1.28-1.65-5.2-.62-7.22-1.18-.58-1.7.64-2.35,1.07.84-6.09,8.91-2.83,7.57,3.63"/><path id="path114" d="M76.37,66.28c2.34,5.87,10.38,5.2,17.16,5a3.63,3.63,0,0,1-1.75,2c-2.17.88-8.16,1.55-11.18,0-1.91-1-3.14-3.31-4.19-4.66-.51-.65-3-2.31,0-2.32"/><path class="cls-8" d="M46.87,78.94S59.76,89.78,65.15,96.72c6.14,7.9,15.39,19.55,15.39,19.55L65,117.36S54.63,101.88,50.24,97.55L37.5,84.93Z"/><path id="path130" d="M100.65,116.58a13,13,0,0,0-3.09,0c.44,4.43,1.52,9.31,1.9,14,1.49,0,2.28-.66,3.51-.89.07-4.08-.36-9.7-2.32-13.07Zm-43.53,2.17a34.63,34.63,0,0,1-6.93-.27c0-2.32,2.94-1,3.18-2.57.19-1.18-1.63-1.27-1-3.13,1.5.55,2.29,1.75,3.9,2.21,1.47-3.21,0-8.88.19-11.56,0-.5.25-2.79,1.38-2.39s-.06,6.08.05,8.61c.1,2.34-.28,4.6.66,6.07,8.24.46,15.94-.82,24.5-1.05,0,0,14.52-.39,17.26-1.48,1-.4,1.73-3.17,2.49-5A98.52,98.52,0,0,0,108,91.93a20.56,20.56,0,0,0,.69-4.47c-.24-1.75-2.62-3-3.82-4.13-2.23-2-3.63-3.76-6-5.63-.94,1.39-2.89,2.51-3.73,3.45-3.41,3.81-7.43,7.2-12,7.59C60.45,90.7,51,80.38,50.5,80.58,43.89,83.18,37.71,87.69,32.19,92c5.26,11.3,7.39,25.14,7.77,38.48,6,2.82,12.75,7.15,20.94,6.83,7.88-.3,29.83-3.58,29.83-3.58,2.08-.31,4.89-12.07,3.6-16.7-1.48,0-2.71-.07-4.26,0C81.16,117.38,65.56,118.2,57.12,118.75ZM42.6,32.33c-2.62,2.89-2.07,8.3-1.76,12.14,4.74-3,11,.24,11,5.31,2.26-.06.85-2.83.44-4.61-1.34-5.82,2.25-12.15.16-17.48a14.39,14.39,0,0,0-9.82,4.63ZM61.37,15.57c-5.94,1.68-13.55,6-16,11.33,1.89-.27,3.2-1.23,5.07-1.35a12.46,12.46,0,0,0,2.44.09c1.61-.4,3-4,4.19-5.36s2.61-1.88,3.59-3.07c.63-.3,1.55-.28,1.59-1.22C62,15.7,61.7,15.48,61.37,15.57ZM85.86,86.83c1.58-.56,4-3.09,5.4-4-3.2,1-7,2.27-12,1.35-2.9-.53-4.95-1.81-6.59-2.44a19.74,19.74,0,0,1-7.1-5.33c-2.33-2.56-4.69-5.32-4.81-8.67,4.4,6.1,8,11.43,16,14.12,6.05,2,13.12-.93,17.77-4.2,1.93-1.36,3.08-3.51,4.45-5.48,5.13-7.38,7.53-17.92,7-28.14-.22-4.21-.21-8.41-1.62-11.25s-6.47-5.61-9.4-2.93c-.54-2.88,2.43-4.66,5.93-3.63-2.49-3.21-5.11-7.08-8.65-9.08h0c-6.16-3.48-16.6-6.09-23.16-2.83-5.29,2.64-12.44,7-14.88,12.53,2.28,5.34-.67,10.23-.86,15.65-.1,2.88,1.36,5.4,1.47,8.54-.78,1.29-3.16,1.44-4.81,1.36-.55-2.78-1.53-5.9-4.39-6.21a6.64,6.64,0,0,0-7.19,6.41c-.22,4.12,3.16,10.94,7.95,10.46,1.85-.18,2.3-2,4.32-2,1.09,2.18-1.69,2.86-2,4.42a12.52,12.52,0,0,0,.41,2.71,37,37,0,0,0,4.72,11c2.42,3.47,10.46,7,17.58,7.7C72,86.91,83,87.83,85.86,86.83Zm17.91,25.37c-4.33,1.8,0,17.41-.35,16.74-2.71-.1-4.11,1.4-6.24,2.51.2,2-30.38,9.32-39,8.88-6.6-.34-10.93-2.36-15.94-4.68-1.73-.8-4.13-1.25-4.78-2.63s-.37-3.9-.53-6.32c-.4-6.18-.74-12.14-2.37-18.47-.73-2.84-2-5.35-2.9-8.08-.82-2.54-2.26-5.67-2.64-8.2-.56-3.75,3-4,5.23-5.58,3.49-2.51,6.23-3.9,10-6.17,1.12-.67,4.49-2.37,4.88-3.15.76-1.55-1.31-3.74-1.86-5a14.91,14.91,0,0,1-1.46-5.46,10.52,10.52,0,0,1-7-4.51c-2.4-3.52-4.07-10-2-15,.16-.39,1-1.16,1.1-1.76.24-1.18-.44-2.75-.49-4-.22-6.44,1.09-12,5.42-13.93,1.76-7,8.06-9.34,14-12.83A44,44,0,0,1,64,11.56c9.06-3.33,23-2.71,30.48,3,3.19,2.41,8.28,7.5,10.11,11.19,4.81,9.73,4.47,26,1.1,37.83a38.08,38.08,0,0,1-2,5.83c-.64,1.33-2.63,4-2.38,5.18s4.53,4.47,5.45,5.35c1.65,1.59,4.79,3.71,5,5.72s-.94,5.07-1.56,7.14c-2.06,6.9-4.07,13.27-6.41,19.42"/><path id="path132" class="cls-7" d="M71.64,64.47c.26-.35,1.7-.88,3.71.09,0,0-2.38.4-2.18,4.37l-1-.2s-1-3.6-.53-4.26"/><path class="cls-9" d="M91.9,24.21c-4.6-.09-13.37-4.33-18.18-2.86A27.48,27.48,0,0,0,56.84,35.08c-1.73,3.21-2,16-2,16l-3.67.42s-1.12-7.69-7.88-6.2c-4.6,1-5.89,3.43-5.89,7C37.42,64.73,47,65,47,65l4.61,13s-15.09-.22-15.62-3.75C35.31,70,30.41,62.37,30,58.09c-.29-3.28,1.9-9.72,2.27-13,.47-4.2,1.4-11.17,3.24-15,3.31-6.85,9.42-9.8,13.08-13s5.25-7.25,13.3-10S85.36,5.06,93,8.62c3.05,1.43,7,4.86,8.22,8,.92,2.34,2.41,9.11,2.41,9.11s-3-2.73-4.31-2.94C97.8,22.55,93.78,24.25,91.9,24.21Z"/><path class="cls-10" d="M85.85,92.32c.3.11,8.7-8.41,9.52-9.27,2.2-2.31,3.5-5,4.9-7.86-4.13,3.11-9.1,5.29-13.1,8.45-1.81,1.43-2,1.25-2.26,3.52C84.83,87.76,85.24,92.1,85.85,92.32Z"/><path class="cls-11" d="M85.66,93c-1.47.87-7.71-2.93-9.78-3.24-3.6-.55-6.77-.72-10.22-2.06a49.12,49.12,0,0,1-10.21-4.85,11.76,11.76,0,0,1-3.88-4c-.52-1-.85-4.25-1.62-4.76,7.88,5.21,14.27,8.33,23.73,9.77,2.92.44,8.14-.15,10.57,1.93C85.36,86.66,87.72,91.75,85.66,93Z"/><path class="cls-12" d="M100.14,74.74c2.62,1.14-14.7,14-15,15.68-1,6.06,4.21,1.29,7-1.72C100.31,79.7,100.63,75,100.14,74.74Z"/><path class="cls-12" d="M86,93.33a2.07,2.07,0,0,1-.39.18,3.55,3.55,0,0,1-2.34-.15,81.48,81.48,0,0,0-12.85-3.64c-4.15-.79-8.42-1.78-12.08-4A19.14,19.14,0,0,1,56,84.06c-.78-.65-6.54-5.93-5.06-6.89-.06.3,2.2,2,2.46,2.18a22.88,22.88,0,0,0,4.18,3c7.83,4.34,17.07,3.78,25.43,6.42,1.35.43,3.86,1.27,4,3A1.81,1.81,0,0,1,86,93.33Z"/><path class="cls-13" d="M50.13,78.46S63,89.3,68.41,96.24c6.14,7.9,15.39,19.55,15.39,19.55l-15.59,1.09S57.89,101.41,53.5,97.07L40.76,84.45Z"/><path class="cls-14" d="M50.13,78.46S63,89.3,68.41,96.24c6.14,7.9,15.39,19.55,15.39,19.55l-5.58.14A97.2,97.2,0,0,0,63.51,96.12C51.34,83.37,47,80.64,47,80.64Z"/><path class="cls-15" d="M50.6,77.79s12.19,12,17.81,18.73C80,110.43,83.8,116.07,83.8,116.07l-15.59,1.09S57.89,101.69,53.5,97.35L40.76,84.73Z"/><path class="cls-8" d="M81.8,103.73a3.05,3.05,0,0,1,2.49-3c1.07,0,4,2.83,4,4.06s-2.93,1.2-4,1.2A2.59,2.59,0,0,1,81.8,103.73Z"/><path class="cls-8" d="M93.55,100.64c0-1.23-.08-3.26,1-3.26a3.36,3.36,0,0,1,2.63,3.26c-.13,2.53-3.62,3.26-4.69,3.26S93.55,101.87,93.55,100.64Z"/><path class="cls-8" d="M83.57,110.29a1.8,1.8,0,0,1,1.55-2c.86,0,6.63,2.39,6.63,3.48s-3.56,3-6.63,1.42A3,3,0,0,1,83.57,110.29Z"/><path class="cls-8" d="M96.17,108c0-1.58-.89-2.86.56-2.86s3,1.32,2.62,2.86c-1.16,5.17-5.54,3.58-6.74,2.86S96.17,109.62,96.17,108Z"/><path class="cls-16" d="M83.1,103.65c-.46-1,.53-3,1.5-3s1.18,1.25,2.53,2.26c2.34,1.74,5.22.18,5.24.28S84.81,107.53,83.1,103.65Z"/><path class="cls-8" d="M99.88,107a1.8,1.8,0,0,0-2.11-1.36c-.81.28-5.48,4.43-5.12,5.46s4.36,1.72,6.73-.83A3,3,0,0,0,99.88,107Z"/><path class="cls-16" d="M93,101.29c.7-1.82,0-3.35.64-3.69s2.44.93,2.53,2.26c.17,2.52-5.82,4.56-5.93,4.32A6.24,6.24,0,0,0,93,101.29Z"/><path class="cls-16" d="M84.26,110.52a2.23,2.23,0,0,1,1.15-2.72c.67-.17,1.14.13,2.27,1a13.85,13.85,0,0,0,6,2.63,5.2,5.2,0,0,0,4.11-1.17,4.38,4.38,0,0,0,1.15-3.2c-.22-1.23-1.89-2.29-2.58-2.07s-.4,1.14-1.15,2.72A10.1,10.1,0,0,1,93.62,110C91.23,112.54,85.91,113.87,84.26,110.52Z"/><path class="cls-8" d="M91,93.47c0-.94.67-2.5,1.49-2.5a2.57,2.57,0,0,1,2,2.5C94.36,97,90.83,96.92,90,96.92S91,94.42,91,93.47Z"/><path class="cls-16" d="M90.83,94.63c.55-1.41,0-2.53.47-2.82s2,.58,2.14,1.57c.33,3.42-4.91,3.5-4.87,3.58A5.31,5.31,0,0,0,90.83,94.63Z"/><path class="cls-8" d="M80.57,96.4a1.49,1.49,0,0,1,1.29-1.63c.71,0,4.22,1.58,4.22,2.49s-.55,1.12-2.51,1.62C82.88,99,80.57,98.41,80.57,96.4Z"/><path class="cls-16" d="M82.12,97.41c-.47-.71.39-2.26,1.2-2.38s1,.89,2.14,1.57c2,1.19,4.36-.25,4.37-.18C90,97.17,84.3,100.7,82.12,97.41Z"/><path class="cls-17" d="M141.53,87.44a1.12,1.12,0,0,0-1.12,1.12,1.11,1.11,0,0,0,.37.82l-3.25,6.23h-6.84l-.08-3.11a4.38,4.38,0,0,1,1.6.55c1.47.69,1.78-.64,3.86-.56a2.59,2.59,0,0,0,2.62-1.79h-2.42c-.55-1.07-2.95-6.21-.25-10.33l.1-.15s.14-.18.1-.14-3.55.1-6.58.16v-8a1,1,0,0,0,.48-.86,1,1,0,1,0-1.46,1v.33h-6.24l.9,1.1h0s-3.05.09-6.21.16v-9a1.43,1.43,0,0,0,.74-1.24,1.44,1.44,0,1,0-2.89,0,1.42,1.42,0,0,0,.73,1.23v.62h-5.86L112,68.18l-2.17,2.41h5.39V74l-5.15.11a9.86,9.86,0,0,0-2.53,6.08l-4.53.1v-8a1,1,0,0,0,.48-.86,1,1,0,1,0-1.46,1v.33H95.79L98,75.32l-2.17,2.41h5.29v2.53c-1.83,0-2.32.06-2.32.06a8.56,8.56,0,0,0-1.4,10.86H95.78s.68,2.15,2.23,2.33a4.83,4.83,0,0,0,4-.87v3h-1.91v2.16c-2.58-1.91-8.5-7.76-8.5-7.76l.32,3.5L96.36,98c-.57,2.33,2,3.22,4.09,5.63a21.92,21.92,0,0,1,2.57,3.93l10.64,0,1,3.13c-1,.31-.34,1.25-.34,2.37a2.49,2.49,0,1,0,5,0c0-1.12.21-2.06-.81-2.37l.48-3.13,8.66,0,8.11,0a2.52,2.52,0,0,0,.77-1.26,4.52,4.52,0,0,0,.11-.9c-3.29-2.73,3.12-6.9,3.12-6.9l1.87-8.75a1.12,1.12,0,0,0,0-2.24Zm-8.87,1.78c.81,0,1.47,1.47,1.47,1.47h-2.94S131.85,89.22,132.66,89.22Zm-34.12.91s.66-1.47,1.47-1.47,1.47,1.47,1.47,1.47Zm15.06-4.49c.81,0,1.47,1.47,1.47,1.47h-2.94S112.79,85.64,113.6,85.64Zm-7.65,3c.81,0,1.47,1.47,1.47,1.47h-2.94S105.13,88.66,105.94,88.66Zm9.28,7H104V92.5c.48,0,.46.31,1.13.55,2.65,1,2.32-.63,4.34-.09a2.23,2.23,0,0,0,3.1-1.79h-2.42c.23-.41.65-1.09.44-1.61a3.88,3.88,0,0,0,1.57,0c1.89-.27,1.59-.88,3.1-.63Zm7.86-21.49a1.74,1.74,0,0,0,.13-.19l.12-.17,1.27,1.55-2.17,2.41h5.29v2.53c-1.83,0-2.32.06-2.32.06s-2.43,1-2,6C123.41,86.29,118.11,79.62,123.08,74.13Zm5.12,16.56h-2.94s.66-1.47,1.47-1.47S128.2,90.69,128.2,90.69Zm-8.67-5.05c.81,0,1.47,1.47,1.47,1.47h-2.94S118.72,85.64,119.53,85.64Zm5.89,10h-8.31V89.57l.12.08c2.26,1.57,2.77-1.55,4.94-.21a2.64,2.64,0,0,0,1.82.09,16.07,16.07,0,0,1,0,1.66h-2.05s1.64,2.61,3.19,2.81c2,.26,3.06-1.17,3.55-1.34l.1,2.86C127.06,95.63,125.42,95.63,125.42,95.63Z"/><path class="cls-18" d="M86.23,90.48s6,11.6,5.79,24.65"/><rect class="cls-19" x="104.06" y="101.4" width="1.97" height="0.91"/><rect class="cls-19" x="108.14" y="101.4" width="1.97" height="0.91"/><rect class="cls-19" x="112.23" y="101.4" width="1.97" height="0.91"/><rect class="cls-19" x="106.03" y="98.65" width="1.97" height="0.91"/><rect class="cls-19" x="110.11" y="98.65" width="1.97" height="0.91"/><rect class="cls-19" x="114.2" y="98.65" width="1.97" height="0.91"/><rect class="cls-19" x="126.39" y="101.4" width="1.97" height="0.91"/><rect class="cls-19" x="130.47" y="101.4" width="1.97" height="0.91"/><rect class="cls-19" x="124.27" y="98.65" width="1.97" height="0.91"/><rect class="cls-19" x="128.36" y="98.65" width="1.97" height="0.91"/><rect class="cls-19" x="132.44" y="98.65" width="1.97" height="0.91"/><path class="cls-20" d="M107.55,80.15c0,4.71.61,7.38,3,9.42"/><path d="M102.09,61.63a9,9,0,0,0,0,3.31c.45,4.38-5.19,2.34-9.39,2.43-.11-1.27-.8-3-.21-2.93,4.18.74,6.64-1.29,9.61-2.81"/><path class="cls-5" d="M101.46,122.74s1.05,8.65,9.85,8.65c6.47,0,8.45-4.33,8.45-4.33a10.89,10.89,0,0,0,1.85-2.39c.8-1.57.42-2.35.42-2.35a4.88,4.88,0,0,0,1.68-2,5.64,5.64,0,0,0,.5-2.1,18,18,0,0,0,2.12-1c1.2-.61,1.23-2.84.59-4-1-1.85-.52-2.72-5.74-2.57a56.48,56.48,0,0,0-7.81,1.68s-1.75-1.61-2.25-2c-2.41-2-6.52,0-6.52,0a8.12,8.12,0,0,0-1.73,2.42,36.07,36.07,0,0,0-1.93,5.71Z"/><path class="cls-7" d="M101.52,123.1a10.4,10.4,0,0,0,9.79,8.29c8.79.55,10.72-7.63,10.72-7.63s-2.94,2.52-10.79,3.23C105.47,127.52,101.52,123.1,101.52,123.1Z"/><path d="M116.31,127.52A12.79,12.79,0,0,0,118,127a6.18,6.18,0,0,0,.76-.35,3.24,3.24,0,0,0,.33-.21l.13-.11s.1-.09,0-.07l1,1.61a1.27,1.27,0,0,1-.38.12l-.29,0h-.52a7.42,7.42,0,0,1-1-.09A13.29,13.29,0,0,1,116.31,127.52Z"/><path d="M116.87,123.59c.85-.3,1.7-.61,2.52-.95.41-.17.81-.35,1.2-.54.19-.1.38-.2.56-.3l.25-.16c.06,0,.19-.13.11-.11l1.05,1.59a1.9,1.9,0,0,1-.49.17l-.38.08c-.24,0-.48.07-.72.1-.47.05-.93.08-1.39.1C118.68,123.6,117.78,123.6,116.87,123.59Z"/><path class="cls-7" d="M123.1,116.13c-1.68.14-6.25,2.72-6.25,2.72a18.94,18.94,0,0,1,6.84-1,11.3,11.3,0,0,0,2.45-.11S127.71,115.74,123.1,116.13Z"/><path class="cls-7" d="M110,109.87c-2.48,6.11,3.31,2.9,3.31,2.9l-1.56-2.49S110.35,108.95,110,109.87Z"/><path d="M123.77,119a2.48,2.48,0,0,0-.65-.32,6.21,6.21,0,0,0-.84-.24,8.79,8.79,0,0,0-1.83-.16,12.61,12.61,0,0,0-1.9.17,18.59,18.59,0,0,0-1.9.44,18.84,18.84,0,0,1,1.77-.89,13.34,13.34,0,0,1,1.91-.66,10,10,0,0,1,2.06-.32,7.81,7.81,0,0,1,1.09,0,4.29,4.29,0,0,1,1.21.27Z"/><path class="cls-15" d="M101.46,122.74s1.05,8.65,9.85,8.65c6.47,0,8.45-4.33,8.45-4.33a10.89,10.89,0,0,0,1.85-2.39c.8-1.57.42-2.35.42-2.35a4.88,4.88,0,0,0,1.68-2,5.64,5.64,0,0,0,.5-2.1s.4,0,1.65-1a3,3,0,0,0,.59-4c-1-1.85-2.18-2.62-6.69-2.57-2,0-6.38,1.68-6.38,1.68a17,17,0,0,0-2.86-2.13,5.23,5.23,0,0,0-6.52.64,4.45,4.45,0,0,0-1.65,3,13,13,0,0,1-1.4,4.64Z"/><path d="M109.94,113.48a1.5,1.5,0,0,0,1-.14,4.15,4.15,0,0,0,.83-.51,8.52,8.52,0,0,0,.74-.65,7.91,7.91,0,0,0,.65-.71l1.15,1.52a10.15,10.15,0,0,1-2.16.71,4.81,4.81,0,0,1-1.13.11A1.73,1.73,0,0,1,109.94,113.48Z"/><path id="path118" d="M115.71,119.42c-2.84.57-4.84,3.33-7.61,3.15,1.52-2.15,4.19-3.05,7.61-3.15"/><path id="path120" d="M115.87,124.42a41.64,41.64,0,0,1-7.25,1.45c.86-1.84,5.19-1.86,7.25-1.45"/><path id="path122" d="M115.09,127.77a58.53,58.53,0,0,0-7.24.23c1.46,1.76,5.56.65,7.24-.23"/><path d="M79.09,62.85c4.52,2.88,7.49,1.37,12,1.68A13.2,13.2,0,0,1,91,67.6c-4.78-.25-9.63,3.21-11.91.32-.9-1-1.41-4.87-1.58-5.65A10.08,10.08,0,0,1,79.09,62.85Z"/><path class="cls-21" d="M103.66,130.21l-4.78.16L96.27,115l5.63-1.13a43,43,0,0,1,1.84,8.29A50.41,50.41,0,0,1,103.66,130.21Z"/><path class="cls-3" d="M67,116.31s.54,10.4,2,14.1c3.28,8.14,7.88,9.73,7.88,9.73l21.95-9.77.53-8.27-4.09-7.62Z"/><path class="cls-22" d="M79.12,134.36c-3.68.1-9.11-1.56-9.11-1.56l6.93,7.83,21.95-9.77.24-5.32S88.42,134.11,79.12,134.36Z"/><path class="cls-23" d="M67,115.35s.54,11.35,2,15.06a26.37,26.37,0,0,0,2.13,4.22q.4.64.8,1.19c2.56,3.5,4.94,4.32,4.94,4.32l21.95-9.77a23.64,23.64,0,0,0,.32-8.27A59,59,0,0,0,96.74,115Z"/><path d="M47,18.36C50.39,14.12,54.71,32,52.64,35c-2.67,3.93,2.6,14-.08,15.06s-3.2-2.21-3.2-2.21L46.5,43.17c-.13,2.56-5.5,1.75-7,4.38a12,12,0,0,0,0,12.32c2.29,4,7.83,5,7.53,6.09-.41,1.47,5.71,11.31,1.85,13.57C41,84.07,41.63,83,41.63,83c-2.4,2.14-14.25-1.76-12-11.84.54-2.38,5.5-4.53,1.07-13.62-3.41-7,2.95-14.3,3.27-16.33.38-2.4,2.22-6.68,3.18-9.25.79-2.13,2.21-3,3-5.1C41.31,24.09,45,20.85,47,18.36Z"/><path class="cls-24" d="M60.09,117.16l3.91.2s.53,9.53,3,15.64c6.45,15.71,3.26,28.83,3.26,28.83s-4.57-.64-15.69,3.27c-6.47,2.27-14.33-1.87-14.33-1.87s9.87-17.35,10.15-22.6C51.52,120.16,60.09,117.16,60.09,117.16Z"/><path class="cls-25" d="M78.18,9.22a36.47,36.47,0,0,0-8,.65,19.72,19.72,0,0,0-6.85,2.93,25.06,25.06,0,0,0-5.37,5.12c-.8,1-1.53,2-2.25,3.11-.36.54-.69,1.09-1,1.65l-.65,1a11.73,11.73,0,0,1-.82,1,13.74,13.74,0,0,1-3.9,2.87c-1.32.7-2.55,1.23-3.7,1.81A14.3,14.3,0,0,0,40,34a17.6,17.6,0,0,0-1.84,3.29c-.24.6-.49,1.2-.68,1.83s-.41,1.26-.6,1.9a71.55,71.55,0,0,0-1.59,8,36.64,36.64,0,0,1-.35-8.36,21.44,21.44,0,0,1,2.24-8.42,16.65,16.65,0,0,1,6.37-6.45c2.5-1.52,4.93-2.59,6.18-4.13a7.17,7.17,0,0,0,.44-.59c.13-.22.24-.38.43-.74.35-.63.73-1.24,1.11-1.86a31.84,31.84,0,0,1,2.58-3.54A23,23,0,0,1,61.2,9.24a18,18,0,0,1,8.69-2A20,20,0,0,1,78.18,9.22Z"/><path class="cls-25" d="M33,58.09a9.34,9.34,0,0,1,3.61,1.56,7.78,7.78,0,0,1,2.64,3.43,9.07,9.07,0,0,1,.46,4.43,20.41,20.41,0,0,1-.93,3.81c-.38,1.14-.77,2.19-1,3.1a5.8,5.8,0,0,0-.22,2.42,6,6,0,0,0,1.27,2.51c.67.9,1.57,1.71,2.44,2.69a10,10,0,0,1-1.93-.22c-.32-.06-.64-.15-1-.23l-.94-.36a7.07,7.07,0,0,1-3.32-2.93,7.73,7.73,0,0,1-.79-4.65,19.54,19.54,0,0,1,.94-3.83C35,67.56,35.71,65.75,35.6,64a7.43,7.43,0,0,0-.78-2.82A31.47,31.47,0,0,0,33,58.09Z"/><path class="cls-26" d="M57.59,118.75s1.32,4.31,2.72,4.83c.61.23,1.95-.48,1.95-.48s7.21,26.17,3.36,32.55c-3.4,5.63-25.34,7.56-25.34,7.56l11.9,1.7,18.33-3.85-.26-14.38-4.87-17-1.65-12.64-5.06-.2Z"/><path class="cls-27" d="M60.74,145.44A111.29,111.29,0,0,0,67,134l-2.41-6.12a45.54,45.54,0,0,1-5.92,13.56,80.7,80.7,0,0,1-5.5-17.33s-1.72,4.48-1.78,6.31c-.13,4,1.93,8,4.66,14.6-4.19,5-13.77,14.12-13.77,14.12l-1.86,3.38,2.8,1.18s9.41-7.73,14.82-14.48A137.33,137.33,0,0,0,67,161.21l3.48-.14.38-3.1A51.06,51.06,0,0,1,60.74,145.44Z"/><path class="cls-23" d="M60.3,116.88l3.43.2s.06,9.05,2.56,15.17c6.45,15.71,4.21,28.83,4.21,28.83s-4.57-.64-15.69,3.27c-6.47,2.27-14.33-1.87-14.33-1.87s9.87-17.35,10.15-22.6C51.72,119.4,60.3,116.88,60.3,116.88Z"/><path d="M62.29,118c.1-.1,0,0,0,0l-.15.1a1.85,1.85,0,0,0-.29.34,3.79,3.79,0,0,0-.46.95,9.13,9.13,0,0,0-.42,2.3,9.62,9.62,0,0,1-.53-2.41,5,5,0,0,1,.07-1.34,3.5,3.5,0,0,1,.22-.72,2.89,2.89,0,0,1,.2-.37,1.53,1.53,0,0,1,.39-.43Z"/><ellipse class="cls-28" cx="77.62" cy="135.15" rx="2.43" ry="2.38"/><path class="cls-29" d="M78.21,133.71c.18-.27.6-.23,1.39-.23a23.32,23.32,0,0,0,2.77-.17c-.7.52-1.34.94-1.85,1.25-1.06.65-1.35.71-1.62.63C78.32,135,78,134.1,78.21,133.71Z"/><ellipse class="cls-30" cx="77.81" cy="134.65" rx="1.99" ry="1.96"/><path class="cls-22" d="M71.52,126.9a2.43,2.43,0,1,1,2.21,2.58A2.41,2.41,0,0,1,71.52,126.9Z"/><path class="cls-29" d="M74.66,125.72c.2-.25.62-.17,1.4-.11a23.33,23.33,0,0,0,2.78.07c-.75.46-1.41.82-2,1.09-1.11.56-1.41.6-1.67.48A1.2,1.2,0,0,1,74.66,125.72Z"/><path class="cls-30" d="M72.19,126.46A2,2,0,1,1,74,128.57,2,2,0,0,1,72.19,126.46Z"/><path class="cls-22" d="M69.91,118.57a2.44,2.44,0,0,1,3.19-1.24,2.37,2.37,0,0,1,1.27,3.13,2.44,2.44,0,0,1-3.19,1.24A2.37,2.37,0,0,1,69.91,118.57Z"/><path class="cls-29" d="M73.26,118.43c.27-.18.65,0,1.36.33a23.2,23.2,0,0,0,2.61.93c-.86.21-1.61.34-2.2.43-1.24.18-1.53.13-1.74-.06A1.19,1.19,0,0,1,73.26,118.43Z"/><path class="cls-30" d="M70.68,118.36a2,2,0,0,1,2.62-1,2,2,0,0,1,1,2.57,2,2,0,0,1-2.62,1A2,2,0,0,1,70.68,118.36Z"/></svg>