<svg id="Слой_1" data-name="Слой 1" xmlns="http://www.w3.org/2000/svg" xmlns:xlink="http://www.w3.org/1999/xlink" viewBox="0 0 573.71 687.46"><defs><style>.cls-1,.cls-15,.cls-25,.cls-26,.cls-28,.cls-3,.cls-30{fill:none;}.cls-2,.cls-34,.cls-35,.cls-6{fill:#ccc;}.cls-11,.cls-12,.cls-15,.cls-16,.cls-17,.cls-18,.cls-19,.cls-2,.cls-20,.cls-21,.cls-22,.cls-25,.cls-26,.cls-28,.cls-3,.cls-30,.cls-33,.cls-34,.cls-35,.cls-36,.cls-39,.cls-4,.cls-40,.cls-41,.cls-42,.cls-43{stroke:#000;}.cls-11,.cls-12,.cls-15,.cls-16,.cls-17,.cls-18,.cls-19,.cls-2,.cls-20,.cls-21,.cls-22,.cls-26,.cls-3,.cls-30,.cls-33,.cls-34,.cls-36,.cls-39,.cls-4,.cls-40,.cls-41,.cls-42,.cls-43{stroke-miterlimit:10;}.cls-2{stroke-width:7.73px;}.cls-3{stroke-width:9.67px;}.cls-19,.cls-31,.cls-4{fill:#f0c05d;}.cls-4{stroke-width:4px;}.cls-21,.cls-43,.cls-5{fill:#fff;}.cls-7{fill:#f0d6b7;}.cls-8{fill:#6d6b6d;}.cls-9{fill:#dcd9d8;}.cls-10{fill:#f7e4cd;}.cls-11,.cls-12,.cls-13,.cls-33{fill:#cc2529;}.cls-11{stroke-width:3.08px;}.cls-12{stroke-width:7.19px;}.cls-14{fill:#8f221d;}.cls-15,.cls-22,.cls-28,.cls-30,.cls-33,.cls-36{stroke-width:8px;}.cls-16{stroke-width:1.27px;}.cls-17{stroke-width:3.29px;}.cls-18{stroke-width:1.65px;}.cls-19,.cls-21,.cls-40{stroke-width:3.87px;}.cls-20{stroke-width:2.55px;}.cls-22,.cls-24{fill:#666;}.cls-22,.cls-25,.cls-26,.cls-28,.cls-30,.cls-35{stroke-linecap:round;}.cls-23,.cls-37,.cls-38{fill:#999;}.cls-25,.cls-28,.cls-35{stroke-linejoin:round;}.cls-25{stroke-width:4.21px;}.cls-26{stroke-width:8.6px;}.cls-27{fill:#4d4d4d;}.cls-29{fill:#717171;}.cls-32,.cls-36{fill:#d1a34a;}.cls-34,.cls-35{stroke-width:7px;}.cls-37{opacity:0.3;}.cls-38{opacity:0.55;}.cls-39{stroke-width:1.49px;}.cls-41{stroke-width:1.93px;}.cls-42{stroke-width:2.99px;}.cls-43{stroke-width:5.8px;}.cls-44{clip-path:url(#clip-path);}</style><clipPath id="clip-path" transform="translate(-12.54 -16.65)"><path class="cls-1" d="M246.25,426h0c-66,0-90.76-24.61-107.13-40.89-7.67-7.62-11.93-11.64-16.85-11.74-3.23.6-16.75,7.33-24.28,14.25a9.67,9.67,0,1,1-13.09-14.23c7.85-7.22,26.49-19.35,37.2-19.35,13.2,0,21.68,8.44,30.65,17.37,15,14.88,35.45,35.25,93.5,35.25,91.86,0,123.66-52.79,125.05-55.53a9.66,9.66,0,0,1,17.28,8.66C387,362.92,350.42,426,246.25,426Z"/></clipPath></defs><title>beekeeper</title><path class="cls-2" d="M532,422.43" transform="translate(-12.54 -16.65)"/><path class="cls-3" d="M312.23,587.34" transform="translate(-12.54 -16.65)"/><path class="cls-3" d="M327.12,625.21" transform="translate(-12.54 -16.65)"/><path class="cls-3" d="M335.59,584.27" transform="translate(-12.54 -16.65)"/><polygon class="cls-4" points="68 185.77 76.64 191.24 94.06 181.18 93.67 165.24 68 185.77"/><polygon class="cls-4" points="111.47 151.02 94.06 161.07 94.06 181.18 111.47 191.24 128.89 181.18 128.89 161.07 111.47 151.02"/><polygon class="cls-4" points="111.47 150.92 128.89 160.98 146.3 150.92 146.02 135.47 111.47 150.92"/><polygon class="cls-4" points="167.58 131.36 149.1 137.52 146.3 150.92 163.72 160.98 181.14 150.92 181.14 130.81 167.58 131.36"/><polygon class="cls-4" points="146.3 150.82 128.89 160.88 128.89 180.99 146.3 191.04 163.72 180.99 163.72 160.88 146.3 150.82"/><polygon class="cls-4" points="181.14 150.82 163.72 160.88 163.72 180.99 181.14 191.04 198.55 180.99 198.55 160.88 181.14 150.82"/><polygon class="cls-4" points="69.03 187.82 55.68 200.14 46.44 212.46 59.22 221.56 76.64 211.5 76.64 191.39 69.03 187.82"/><polygon class="cls-4" points="94.06 181.34 76.64 191.39 76.64 211.5 94.06 221.56 111.47 211.5 111.47 191.39 94.06 181.34"/><polygon class="cls-4" points="76.64 211.4 59.22 221.45 59.22 241.56 76.64 251.62 94.06 241.56 94.06 221.45 76.64 211.4"/><polygon class="cls-4" points="111.47 211.4 94.06 221.45 94.06 241.56 111.47 251.62 128.89 241.56 128.89 221.45 111.47 211.4"/><polygon class="cls-4" points="128.89 181.14 111.47 191.19 111.47 211.3 128.89 221.36 146.3 211.3 146.3 191.19 128.89 181.14"/><polygon class="cls-4" points="163.72 181.14 146.3 191.19 146.3 211.3 163.72 221.36 181.14 211.3 181.14 191.19 163.72 181.14"/><polygon class="cls-4" points="146.3 211.2 128.89 221.25 128.89 241.37 146.3 251.42 163.72 241.37 163.72 221.25 146.3 211.2"/><polygon class="cls-4" points="181.14 211.2 163.72 221.25 163.72 241.37 181.14 251.42 198.55 241.37 198.55 221.25 181.14 211.2"/><polygon class="cls-4" points="199.4 128.28 181.04 130.94 181.04 151.05 198.46 161.11 215.87 151.05 215.87 130.94 199.4 128.28"/><polygon class="cls-4" points="233.28 126.23 215.87 130.94 215.87 151.05 233.29 161.11 250.7 151.05 250.7 130.94 233.28 126.23"/><polygon class="cls-4" points="215.87 150.95 198.46 161 198.46 181.11 215.87 191.17 233.29 181.11 233.29 161 215.87 150.95"/><polygon class="cls-4" points="250.7 150.95 233.29 161 233.29 181.11 250.7 191.17 268.12 181.11 268.12 161 250.7 150.95"/><polygon class="cls-4" points="250.7 130.74 250.7 150.85 268.12 160.91 285.54 150.85 285.54 133.82 250.7 130.74"/><polygon class="cls-4" points="285.54 133.82 285.54 150.85 302.95 160.91 320.37 150.85 285.54 133.82"/><polygon class="cls-4" points="285.54 150.75 268.12 160.81 268.12 180.92 285.54 190.97 302.95 180.92 302.95 160.81 285.54 150.75"/><polygon class="cls-4" points="320.37 150.75 302.95 160.81 302.95 180.92 320.37 190.97 337.78 180.92 337.78 160.81 320.37 150.75"/><polygon class="cls-4" points="198.46 181.26 181.04 191.32 181.04 211.43 198.46 221.49 215.87 211.43 215.87 191.32 198.46 181.26"/><polygon class="cls-4" points="233.29 181.26 215.87 191.32 215.87 211.43 233.29 221.49 250.7 211.43 250.7 191.32 233.29 181.26"/><polygon class="cls-4" points="215.87 211.33 198.46 221.38 198.46 241.49 215.87 251.55 233.29 241.49 233.29 221.38 215.87 211.33"/><polygon class="cls-4" points="250.7 211.33 233.29 221.38 233.29 241.49 250.7 251.55 268.12 241.49 268.12 221.38 250.7 211.33"/><polygon class="cls-4" points="268.12 181.07 250.7 191.12 250.7 211.23 268.12 221.29 285.54 211.23 285.54 191.12 268.12 181.07"/><polygon class="cls-4" points="302.95 181.07 285.54 191.12 285.54 211.23 302.95 221.29 320.37 211.23 320.37 191.12 302.95 181.07"/><polygon class="cls-4" points="285.54 211.13 268.12 221.19 268.12 241.29 285.54 251.35 302.95 241.29 302.95 221.19 285.54 211.13"/><polygon class="cls-4" points="320.37 211.13 302.95 221.19 302.95 241.29 320.37 251.35 337.78 241.29 337.78 221.19 320.37 211.13"/><polygon class="cls-4" points="94.35 241.82 76.93 251.88 76.93 271.99 94.35 282.05 111.76 271.99 111.76 251.88 94.35 241.82"/><polygon class="cls-4" points="129.18 241.82 111.76 251.88 111.76 271.99 129.18 282.05 146.59 271.99 146.59 251.88 129.18 241.82"/><polygon class="cls-4" points="111.76 271.89 94.35 281.94 94.35 302.05 111.76 312.11 129.18 302.05 129.18 281.94 111.76 271.89"/><polygon class="cls-4" points="146.59 271.89 129.18 281.94 129.18 302.05 146.59 312.11 164.01 302.05 164.01 281.94 146.59 271.89"/><polygon class="cls-4" points="164.01 241.63 146.59 251.68 146.59 271.79 164.01 281.85 181.43 271.79 181.43 251.68 164.01 241.63"/><polygon class="cls-4" points="198.84 241.63 181.43 251.68 181.43 271.79 198.84 281.85 216.26 271.79 216.26 251.68 198.84 241.63"/><polygon class="cls-4" points="181.43 271.69 164.01 281.75 164.01 301.86 181.43 311.91 198.84 301.86 198.84 281.75 181.43 271.69"/><polygon class="cls-4" points="216.26 271.69 198.84 281.75 198.84 301.86 216.26 311.91 233.68 301.86 233.68 281.75 216.26 271.69"/><polygon class="cls-4" points="94.35 302.2 76.93 312.26 76.93 332.37 94.35 342.43 111.76 332.37 111.76 312.26 94.35 302.2"/><polygon class="cls-4" points="129.18 302.2 111.76 312.26 111.76 332.37 129.18 342.43 146.59 332.37 146.59 312.26 129.18 302.2"/><polygon class="cls-4" points="111.76 332.27 94.35 342.32 94.35 362.43 111.76 372.49 129.18 362.43 129.18 342.32 111.76 332.27"/><polygon class="cls-4" points="146.59 332.27 129.18 342.32 129.18 362.43 146.59 372.49 164.01 362.43 164.01 342.32 146.59 332.27"/><polygon class="cls-4" points="164.01 302.01 146.59 312.06 146.59 332.17 164.01 342.23 181.43 332.17 181.43 312.06 164.01 302.01"/><polygon class="cls-4" points="198.84 302.01 181.43 312.06 181.43 332.17 198.84 342.23 216.26 332.17 216.26 312.06 198.84 302.01"/><polygon class="cls-4" points="181.43 332.07 164.01 342.12 164.01 362.24 181.43 372.29 198.84 362.24 198.84 342.12 181.43 332.07"/><polygon class="cls-4" points="216.26 332.07 198.84 342.12 198.84 362.24 216.26 372.29 233.68 362.24 233.68 342.12 216.26 332.07"/><polygon class="cls-4" points="233.58 241.75 216.16 251.81 216.16 271.92 233.58 281.98 250.99 271.92 250.99 251.81 233.58 241.75"/><polygon class="cls-4" points="268.41 241.75 250.99 251.81 250.99 271.92 268.41 281.98 285.83 271.92 285.83 251.81 268.41 241.75"/><polygon class="cls-4" points="250.99 271.82 233.58 281.87 233.58 301.98 250.99 312.04 268.41 301.98 268.41 281.87 250.99 271.82"/><polygon class="cls-4" points="285.83 271.82 268.41 281.87 268.41 301.98 285.83 312.04 303.24 301.98 303.24 281.87 285.83 271.82"/><polygon class="cls-4" points="303.24 241.56 285.83 251.61 285.83 271.72 303.24 281.78 320.66 271.72 320.66 251.61 303.24 241.56"/><polygon class="cls-4" points="338.07 241.56 320.66 251.61 320.66 271.72 338.07 281.78 355.49 271.72 355.49 251.61 338.07 241.56"/><polygon class="cls-4" points="320.66 271.62 303.24 281.68 303.24 301.79 320.66 311.84 338.07 301.79 338.07 281.68 320.66 271.62"/><polygon class="cls-4" points="355.49 271.62 338.07 281.68 338.07 301.79 355.49 311.84 372.91 301.79 372.91 281.68 355.49 271.62"/><polygon class="cls-4" points="233.58 302.13 216.16 312.19 216.16 332.3 233.58 342.36 250.99 332.3 250.99 312.19 233.58 302.13"/><polygon class="cls-4" points="268.41 302.13 250.99 312.19 250.99 332.3 268.41 342.36 285.83 332.3 285.83 312.19 268.41 302.13"/><polygon class="cls-4" points="250.99 332.2 233.58 342.25 233.58 362.36 250.99 372.42 268.41 362.36 268.41 342.25 250.99 332.2"/><polygon class="cls-4" points="285.83 332.2 268.41 342.25 268.41 362.36 285.83 372.42 303.24 362.36 303.24 342.25 285.83 332.2"/><polygon class="cls-4" points="303.24 301.94 285.83 311.99 285.83 332.1 303.24 342.16 320.66 332.1 320.66 311.99 303.24 301.94"/><polygon class="cls-4" points="338.07 301.94 320.66 311.99 320.66 332.1 338.07 342.16 355.49 332.1 355.49 311.99 338.07 301.94"/><polygon class="cls-4" points="320.66 332 303.24 342.05 303.24 362.16 320.66 372.22 338.07 362.16 338.07 342.05 320.66 332"/><polygon class="cls-4" points="355.49 332 338.07 342.05 338.07 362.16 355.49 372.22 372.91 362.16 372.91 342.05 355.49 332"/><polygon class="cls-4" points="337.43 160.05 337.43 180.16 354.85 190.21 365.71 183.72 337.43 160.05"/><polygon class="cls-4" points="337.43 180.31 320.01 190.36 320.01 210.47 337.43 220.53 354.85 210.47 354.85 190.36 337.43 180.31"/><polygon class="cls-4" points="365.71 183.72 354.85 190.36 354.85 210.47 372.26 220.53 389.68 210.47 365.71 183.72"/><polygon class="cls-4" points="354.85 210.37 337.43 220.43 337.43 240.54 354.85 250.59 372.26 240.54 372.26 220.43 354.85 210.37"/><polygon class="cls-4" points="389.68 210.37 372.26 220.43 372.26 240.54 389.68 250.59 407.09 240.54 389.68 210.37"/><polygon class="cls-4" points="372.55 240.8 355.14 250.85 355.14 270.96 372.55 281.02 389.97 270.96 389.97 250.85 372.55 240.8"/><polygon class="cls-4" points="407.38 240.8 389.97 250.85 389.97 270.96 407.38 281.02 420.12 274.06 407.38 240.8"/><polygon class="cls-4" points="389.97 270.86 372.55 280.92 372.55 301.03 389.97 311.08 407.38 301.03 407.38 280.92 389.97 270.86"/><polygon class="cls-4" points="420.12 274.06 407.38 280.92 407.38 301.03 424.8 311.08 420.12 274.06"/><polygon class="cls-4" points="372.55 301.18 355.14 311.23 355.14 331.34 372.55 341.4 389.97 331.34 389.97 311.23 372.55 301.18"/><polygon class="cls-4" points="407.38 301.18 389.97 311.23 389.97 331.34 407.38 341.4 424.8 331.34 424.8 311.23 407.38 301.18"/><polygon class="cls-4" points="389.97 331.24 372.55 341.3 372.55 361.41 389.97 371.46 407.38 361.41 407.38 341.3 389.97 331.24"/><polygon class="cls-4" points="424.8 331.24 407.38 341.3 407.38 361.41 424.8 371.46 424.8 331.24"/><polygon class="cls-4" points="163.94 363.23 146.52 373.29 146.52 393.4 163.94 403.45 181.35 393.4 181.35 373.29 163.94 363.23"/><polygon class="cls-4" points="198.77 363.23 181.35 373.29 181.35 393.4 198.77 403.45 216.18 393.4 216.18 373.29 198.77 363.23"/><polygon class="cls-4" points="181.35 393.29 163.94 403.35 163.94 423.46 181.35 433.51 198.77 423.46 198.77 403.35 181.35 393.29"/><polygon class="cls-4" points="216.18 393.29 198.77 403.35 198.77 423.46 216.18 433.51 233.6 423.46 233.6 403.35 216.18 393.29"/><polygon class="cls-4" points="233.6 363.03 216.18 373.09 216.18 393.2 233.6 403.25 251.02 393.2 251.02 373.09 233.6 363.03"/><polygon class="cls-4" points="268.43 363.03 251.02 373.09 251.02 393.2 268.43 403.25 285.85 393.2 285.85 373.09 268.43 363.03"/><polygon class="cls-4" points="251.02 393.1 233.6 403.15 233.6 423.26 251.02 433.32 268.43 423.26 268.43 403.15 251.02 393.1"/><polygon class="cls-4" points="285.85 393.1 268.43 403.15 268.43 423.26 285.85 433.32 303.26 423.26 303.26 403.15 285.85 393.1"/><polygon class="cls-4" points="163.94 423.61 146.52 433.67 146.52 453.78 163.94 463.83 181.35 453.78 181.35 433.67 163.94 423.61"/><polygon class="cls-4" points="198.77 423.61 181.35 433.67 181.35 453.78 198.77 463.83 216.18 453.78 216.18 433.67 198.77 423.61"/><polygon class="cls-4" points="181.35 453.67 163.94 463.73 163.94 483.84 181.35 493.89 198.77 483.84 198.77 463.73 181.35 453.67"/><polygon class="cls-4" points="216.18 453.67 198.77 463.73 198.77 483.84 216.18 493.89 233.6 483.84 233.6 463.73 216.18 453.67"/><polygon class="cls-4" points="233.6 423.41 216.18 433.47 216.18 453.58 233.6 463.63 251.02 453.58 251.02 433.47 233.6 423.41"/><polygon class="cls-4" points="268.43 423.41 251.02 433.47 251.02 453.58 268.43 463.63 285.85 453.58 285.85 433.47 268.43 423.41"/><polygon class="cls-4" points="251.02 453.48 233.6 463.53 233.6 483.64 251.02 493.7 268.43 483.64 268.43 463.53 251.02 453.48"/><polygon class="cls-4" points="285.85 453.48 268.43 463.53 268.43 483.64 285.85 493.7 303.26 483.64 303.26 463.53 285.85 453.48"/><polygon class="cls-4" points="303.17 363.16 285.75 373.22 285.75 393.33 303.17 403.38 320.58 393.33 320.58 373.22 303.17 363.16"/><polygon class="cls-4" points="338 363.16 320.58 373.22 320.58 393.33 338 403.38 355.42 393.33 355.42 373.22 338 363.16"/><polygon class="cls-4" points="320.58 393.22 303.17 403.28 303.17 423.39 320.58 433.44 338 423.39 338 403.28 320.58 393.22"/><polygon class="cls-4" points="355.42 393.22 338 403.28 338 423.39 355.42 433.44 372.83 423.39 372.83 403.28 355.42 393.22"/><polygon class="cls-4" points="372.83 361.96 355.42 372.02 355.42 393.13 372.83 403.18 390.25 393.13 390.25 372.02 372.83 361.96"/><polygon class="cls-4" points="407.66 361.96 390.25 372.02 390.25 393.13 407.66 403.18 425.08 393.13 425.08 372.02 407.66 361.96"/><polygon class="cls-4" points="390.25 393.03 372.83 403.08 372.83 423.19 390.25 433.25 407.66 423.19 407.66 403.08 390.25 393.03"/><polygon class="cls-4" points="425.08 393.03 407.66 403.08 407.66 423.19 425.08 393.03"/><polygon class="cls-4" points="303.17 423.54 285.75 433.6 285.75 453.7 303.17 463.76 320.58 453.7 320.58 433.6 303.17 423.54"/><polygon class="cls-4" points="338 423.54 320.58 433.6 320.58 453.7 338 463.76 355.42 453.7 355.42 433.6 338 423.54"/><polygon class="cls-4" points="320.58 453.6 303.17 463.66 303.17 483.77 320.58 493.82 338 483.77 338 463.66 320.58 453.6"/><polygon class="cls-4" points="355.42 453.6 338 463.66 338 483.77 355.42 493.82 372.83 483.77 372.83 463.66 355.42 453.6"/><polygon class="cls-4" points="372.83 423.34 355.42 433.4 355.42 453.51 372.83 463.56 390.25 453.51 390.25 433.4 372.83 423.34"/><polygon class="cls-4" points="394.36 451.35 372.83 463.46 372.83 483.57 394.36 451.35"/><polygon class="cls-4" points="407.66 423.34 390.25 433.4 390.25 453.51 407.66 423.34"/><polygon class="cls-4" points="199.06 484.1 181.64 494.16 181.64 514.27 199.06 524.32 216.47 514.27 216.47 494.16 199.06 484.1"/><polygon class="cls-4" points="233.89 484.1 216.47 494.16 216.47 514.27 233.89 524.32 251.31 514.27 251.31 494.16 233.89 484.1"/><polygon class="cls-4" points="216.47 514.16 199.06 524.22 199.06 544.33 216.47 554.38 233.89 544.33 233.89 524.22 216.47 514.16"/><polygon class="cls-4" points="251.31 514.16 233.89 524.22 233.89 544.33 251.31 554.38 268.72 544.33 268.72 524.22 251.31 514.16"/><polygon class="cls-4" points="268.72 483.9 251.31 493.96 251.31 514.07 268.72 524.12 286.14 514.07 286.14 493.96 268.72 483.9"/><polygon class="cls-4" points="303.56 483.9 286.14 493.96 286.14 514.07 303.56 524.12 320.97 514.07 320.97 493.96 303.56 483.9"/><polygon class="cls-4" points="286.14 513.97 268.72 524.02 268.72 544.13 303.56 544.13 303.56 524.02 286.14 513.97"/><polygon class="cls-4" points="320.97 513.97 303.56 524.02 303.56 544.13 338.39 524.02 320.97 513.97"/><polygon class="cls-4" points="199.06 544.48 181.64 554.53 216.47 554.53 199.06 544.48"/><polygon class="cls-4" points="233.89 544.48 216.47 554.53 251.31 554.53 233.89 544.48"/><polygon class="cls-4" points="338.29 484.03 320.87 494.08 320.87 514.2 338.29 524.25 355.71 511.12 355.71 494.08 338.29 484.03"/><polygon class="cls-4" points="373.12 484.03 355.71 494.08 356.73 509.06 373.12 484.03"/><polygon class="cls-4" points="23.93 362.16 6.52 372.22 9.6 393.33 23.93 403.38 41.35 393.33 41.35 372.22 23.93 362.16"/><polygon class="cls-4" points="58.77 362.16 41.35 372.22 41.35 393.33 58.77 403.38 76.18 393.33 76.18 372.22 58.77 362.16"/><polygon class="cls-4" points="41.35 393.22 23.93 403.28 23.93 423.39 41.35 433.44 58.77 423.39 58.77 403.28 41.35 393.22"/><polygon class="cls-4" points="76.18 393.22 58.77 403.28 58.77 423.39 76.18 433.44 93.6 423.39 93.6 403.28 76.18 393.22"/><polygon class="cls-4" points="93.6 362.96 76.18 373.02 76.18 393.13 93.6 403.18 111.02 393.13 111.02 373.02 93.6 362.96"/><polygon class="cls-4" points="128.43 362.96 111.02 373.02 111.02 393.13 128.43 403.18 145.85 393.13 145.85 373.02 128.43 362.96"/><polygon class="cls-4" points="111.02 393.03 93.6 403.08 93.6 423.19 111.02 433.25 128.43 423.19 128.43 403.08 111.02 393.03"/><polygon class="cls-4" points="145.85 393.03 128.43 403.08 128.43 423.19 145.85 433.25 163.26 423.19 163.26 403.08 145.85 393.03"/><polygon class="cls-4" points="23.93 423.54 41.35 453.7 41.35 433.6 23.93 423.54"/><polygon class="cls-4" points="58.77 423.54 41.35 433.6 41.35 453.7 58.77 463.76 76.18 453.7 76.18 433.6 58.77 423.54"/><polygon class="cls-4" points="41.35 453.6 58.77 483.77 58.77 463.66 41.35 453.6"/><polygon class="cls-4" points="76.18 453.6 58.77 463.66 58.77 483.77 76.18 493.82 93.6 483.77 93.6 463.66 76.18 453.6"/><polygon class="cls-4" points="93.6 423.34 76.18 433.4 76.18 453.51 93.6 463.56 111.02 453.51 111.02 433.4 93.6 423.34"/><polygon class="cls-4" points="128.43 423.34 111.02 433.4 111.02 453.51 128.43 463.56 145.85 453.51 145.85 433.4 128.43 423.34"/><polygon class="cls-4" points="111.02 453.4 93.6 463.46 93.6 483.57 111.02 493.63 128.43 483.57 128.43 463.46 111.02 453.4"/><polygon class="cls-4" points="145.85 453.4 128.43 463.46 128.43 483.57 145.85 493.63 163.26 483.57 163.26 463.46 145.85 453.4"/><polygon class="cls-4" points="93.89 484.03 76.47 494.08 100.05 522.2 111.31 514.2 111.31 494.08 93.89 484.03"/><polygon class="cls-4" points="111.31 514.09 95.94 524.15 128.72 542.21 128.72 524.15 111.31 514.09"/><polygon class="cls-4" points="128.72 483.83 111.31 493.89 111.31 514 128.72 524.05 146.14 514 146.14 493.89 128.72 483.83"/><polygon class="cls-4" points="163.56 483.83 146.14 493.89 146.14 514 163.56 524.05 180.97 514 180.97 493.89 163.56 483.83"/><polygon class="cls-4" points="146.14 513.89 128.72 523.95 127.7 540.98 163.56 544.06 163.56 523.95 146.14 513.89"/><polygon class="cls-4" points="180.97 513.89 163.56 523.95 163.56 544.06 180.97 554.12 198.39 544.06 198.39 523.95 180.97 513.89"/><polygon class="cls-4" points="48.5 214.51 27.96 242.23 41.14 250.32 58.55 240.27 58.55 220.16 48.5 214.51"/><polygon class="cls-4" points="15.64 276.11 6.59 311.01 24.01 300.96 24.01 280.85 15.64 276.11"/><polygon class="cls-4" points="28.99 243.26 15.64 276.11 24.01 280.75 41.43 270.7 41.43 250.59 28.99 243.26"/><polygon class="cls-4" points="58.84 240.53 41.43 250.59 41.43 270.7 58.84 280.75 76.26 270.7 76.26 250.59 58.84 240.53"/><polygon class="cls-4" points="41.43 270.59 24.01 280.65 24.01 300.76 41.43 310.81 58.84 300.76 58.84 280.65 41.43 270.59"/><polygon class="cls-4" points="76.26 270.59 58.84 280.65 58.84 300.76 76.26 310.81 93.67 300.76 93.67 280.65 76.26 270.59"/><polygon class="cls-4" points="6.59 331.17 6.59 372.39 24.01 362.34 24.01 341.23 6.59 331.17"/><polygon class="cls-4" points="24.01 300.91 6.59 310.96 6.59 331.07 24.01 341.13 41.43 331.07 41.43 310.96 24.01 300.91"/><polygon class="cls-4" points="58.84 300.91 41.43 310.96 41.43 331.07 58.84 341.13 76.26 331.07 76.26 310.96 58.84 300.91"/><polygon class="cls-4" points="41.43 330.97 24.01 341.03 24.01 362.14 41.43 372.19 58.84 362.14 58.84 341.03 41.43 330.97"/><polygon class="cls-4" points="76.26 330.97 58.84 341.03 58.84 362.14 76.26 372.19 93.67 362.14 93.67 341.03 76.26 330.97"/><path id="path26" d="M85.73,210.45A211.54,211.54,0,0,0,25.67,358.8h0A211.53,211.53,0,0,0,85.73,507.14h0c37.11,38,88.27,61.37,144.82,61.37h0c56.55,0,107.71-23.42,144.82-61.37h0A211.53,211.53,0,0,0,435.43,358.8h0a211.54,211.54,0,0,0-60.06-148.35h0c-37.11-37.94-88.27-61.36-144.82-61.37h0c-56.55,0-107.71,23.43-144.82,61.37ZM76.34,516.32A224.67,224.67,0,0,1,12.54,358.8h0a224.7,224.7,0,0,1,63.8-157.53h0c39.42-40.33,94-65.33,154.21-65.32h0c60.23,0,114.8,25,154.21,65.32h0a224.67,224.67,0,0,1,63.8,157.53h0a224.63,224.63,0,0,1-63.8,157.52h0c-39.41,40.33-94,65.32-154.21,65.32h0c-60.23,0-114.79-25-154.21-65.32h0" transform="translate(-12.54 -16.65)"/><polygon class="cls-5" points="133.4 333.37 51.1 387.12 75.62 461.56 84.35 553.33 136.76 572.22 236.2 570.2 330.26 554.13 317.72 481.85 342.99 478.83 376.67 364.94 328.92 322.95 287.64 362.93 253.78 372.44 201.23 367.99 161.23 359.12 133.4 333.37"/><path class="cls-6" d="M145.94,350l19.19,18.1s-22.8,19-46.32,28.54c-24.45,10-29.22,18-29.22,18s13.89,27.54,23,69.45c4.2,19.26,5.64,82.63,5.64,82.63s66.12,18.92,97.27,11.54c7.72-1.83,19.31,8.89,19.31,8.89l-77.32,1.73L99.44,573.29l-4.57-59.83L84.31,457.14l-19-57Z" transform="translate(-12.54 -16.65)"/><path id="path28" class="cls-7" d="M320.59,363,287.93,384.5,224.52,387l-41.86-9.12-14.31-11.69L149.82,346,135.32,305l-3.22-8.86-19.33-6.45-11.28-18.52-8.06-26.59,8.87-23.36,20.94-7.25L140.15,222l8.06,17.72,9.67-1.61,3.22-4-3.22-18.52-.81-23.36L161.9,160l-.19-18.41,14.69-23.48,25.78-18.53,45.11-19.33,49.94,7.25,43.5,31.41,20.14,32.22,12.88,23.36,3.22,58-9.66,49.94-17.72,44.31-16.92,23.36Z" transform="translate(-12.54 -16.65)"/><path id="path32" class="cls-8" d="M102.3,221.18l20.94-7.25L140.15,222l8.06,17.72,9.67-1.61,2.41-9.67-4.83-18.52,4.83-44.31-4-24.16,14.5-16.92,31.42-25-8.86-12.08L149,109.22l-18.52,14.5L120,146.27,103.9,168,99.07,193.8l3.23,27.38" transform="translate(-12.54 -16.65)"/><path id="path34" class="cls-9" d="M135.32,145.47s12.08-29.81,60.41-44.31,2.42-10.47,2.42-10.47l-52.36,20.14L125.65,131l-8.86,16.11,18.53-1.61" transform="translate(-12.54 -16.65)"/><path id="path36" class="cls-9" d="M111.15,215.55s-16.91-56.39,47.53-64.45l-2.42-9.66L112,151.91,99.07,193.8l3.23,27.38,8.85-5.63" transform="translate(-12.54 -16.65)"/><path id="path38" class="cls-10" d="M136.93,290.46l10.55-10.22s4.76.55,5.56,6.19,11.31,65.49,46,92.88c3.16,2.5-33.86-13.13-33.86-13.13L139.35,325.9" transform="translate(-12.54 -16.65)"/><path id="path40" class="cls-10" d="M285.15,275.15s1.88-24.41,8.45-22.53a9,9,0,0,1,6.58,8.45s-16,10.33-15,14.08" transform="translate(-12.54 -16.65)"/><path id="path42" class="cls-10" d="M352,185.74s-13.27,2.81-14.49,14.5,14.49,2.42,16.91,1.61" transform="translate(-12.54 -16.65)"/><path id="path44" class="cls-10" d="M254.54,186.55s-17.73,2.42-17.73,13.69,20.14,10.48,25.78,5.64" transform="translate(-12.54 -16.65)"/><path id="path46" class="cls-10" d="M145,238.91s-30.61-18.53-33.84-.81-10.47,30.61,4.84,49.14L105.52,284l-9.67-25-3.22-24.17,18.52-19.33,20.95,1.61,12.08,9.66.81,12.09" transform="translate(-12.54 -16.65)"/><path id="path50" class="cls-10" d="M346.37,126.94s-23.36-.81-24.17,20.14a16,16,0,0,0,1.61,6.44s18.53-20.94,29.81-9.67" transform="translate(-12.54 -16.65)"/><path id="path52" class="cls-10" d="M244.08,155.7s-4-32.14-31.43-13.46c-17.72,12.09-16.11,29-12.89,32.22s2.35,9.72,4.8,5.26,1.64-18.95,10.51-23,23.38-8.52,29-1" transform="translate(-12.54 -16.65)"/><path id="path100" d="M244.08,155.7c-22-5.11-32.87,9.19-39.52,24-5.94-1.44-3.58-9.52-2.08-13.64,3.93-10.8,19.77-25.19,32.71-23.24,5.57.84,13.1,5.93,8.89,12.86" transform="translate(-12.54 -16.65)"/><path id="path102" d="M351.05,180.7l1,.05c5,10.3,9.26,21.22,15.52,30.32-4.2,9.76-31.75,18.4-31.33.87,6-2.6,16.25-.53,21.53-3.86-3.05-8.38-7.46-15.52-6.76-27.38" transform="translate(-12.54 -16.65)"/><path id="path104" d="M255.32,181c4.71,8.63,6.24,17.7,12.93,24.22,3,2.94,8.87,6.52,6,14.68-.68,1.93-5.64,6.22-8.51,7.07-10.46,3.08-34.83.63-26.58-12.41,8.65.4,20.28,5.62,26.75-.66-5-7.94-13.82-23.64-10.56-32.9" transform="translate(-12.54 -16.65)"/><path id="path106" d="M347.12,268.68C331.37,278.8,313.81,289.8,288,287.25c-5.51-4.8-7.62-15.47-2.26-22.51,2.79,4.79,1,13.61,8.81,14.94,14.64,2.5,31.69-9,42.22-13,6.53-11-.56-15.06-6.45-22.15-12-14.52-28.2-32.52-27.62-54.26,4.87-3.53,5.29,5.39,6,7,6.29,14.72,22.12,33.54,33.68,46.14,2.83,3.11,7.51,6.08,8,8.14,1.49,6-3.9,13.11-3.28,17.08" transform="translate(-12.54 -16.65)"/><path id="path108" d="M139.47,258c-4.93-2.82-6.11-15.23-11.9-15.59-8.29-.5-6.78,16.11-6.74,25.82-5.71-5.18-6.71-21.12-2.52-29.3-4.77-2.35-6.91,2.58-9.55,4.32,3.4-24.72,36.16-11.47,30.71,14.75" transform="translate(-12.54 -16.65)"/><path id="path110" d="M357.15,279c-7.33,14-17.7,29.33-39.22,29.77-.43-4.5-.77-11.36,0-14.07,16.44-1.58,26.6-10,39.19-15.7" transform="translate(-12.54 -16.65)"/><path id="path112" d="M254.08,288c13.72,7.22,38.94,8,57.59,7.45,1,4.08,1,9.13,1,14.11-24,1.2-52.32-4.73-58.6-21.56" transform="translate(-12.54 -16.65)"/><path class="cls-6" d="M389.2,381.59s-3.15,26.15-5.44,22c-10.37-18.83-48.41-42.2-48.41-42.2l11-19.34Z" transform="translate(-12.54 -16.65)"/><path id="path114" d="M251.47,301.48c9.49,23.82,42.1,21.08,69.61,20.42-1.22,3.09-3.84,6.75-7.1,8.07-8.82,3.59-33.12,6.31-45.36-.19-7.76-4.13-12.74-13.45-17-18.91-2.06-2.64-12.28-9.38-.16-9.39" transform="translate(-12.54 -16.65)"/><path id="path130" d="M205.28,389.9m73-.36c-34.62,5-87.13.15-110.81-13.91-5.69-3.37-18.93-17-21-16.17C119.69,370,94.62,388.32,72.22,405.61c21.36,45.82,30,109.7,31.5,163.82,24.47,11.44,42.58,16.88,86.89,16.13,62.86-1.06,85.75-5.44,115.23-10.67a181.62,181.62,0,0,0,27.86-7.71c-2.56-21.23-11.17-30.22-16.37-49-6,.06-153.29-.22-172.1-4.94-.06-9.4,11.92-4.12,12.92-10.44.75-4.79-6.59-5.15-4.2-12.68,6.1,2.21,9.31,7.11,15.81,8.95,6-13-.08-36,.78-46.9.16-2,1-11.31,5.59-9.69,4.05,1.44-.23,24.66.21,34.95.41,9.48-1,22.75,2.89,28.7,34.15,2.47,99.47,7.73,134.18,6.78,0,0,23.92-18.67,35.06-23.08,4.07-1.61,7-10.93,10.09-18.38,8.48-20.5,17.38-46.35,21.33-65.92.9-4.46,3.33-14.17,2.79-18.14-1-7.11-10.62-12.37-15.52-16.77-9-8.11-14.72-15.25-24.14-22.84C339.2,353.42,316.65,384,278.27,389.54ZM114.45,163.72c-10.64,11.71-8.42,33.65-7.13,49.26,19.24-12.1,44.77,1,44.53,21.54,9.19-.24,3.43-11.47,1.77-18.7-5.43-23.63,9.15-49.29.66-70.9-16.47,1.25-30,8-39.83,18.8Zm76.15-68c-24.09,6.83-55,24.34-64.87,46,7.66-1.11,13-5,20.55-5.46,2.86-.18,6.6,1.2,9.89.38,6.54-1.62,12.07-16.3,17-21.76s10.6-7.61,14.56-12.47c2.54-1.23,6.3-1.15,6.45-5C193.09,96.27,191.92,95.37,190.6,95.75ZM277.5,383c14.13-2.36,22.84-8.76,28.58-12.51-13.1,4.87-50.07,5.61-67.69-4.41-10-5.68-22.53-14.48-30.75-23.54-9.44-10.41-19-21.57-19.49-35.17,17.84,24.76,32.59,46.38,65,57.27,24.56,8.24,53.24.09,72.11-13.16,7.83-5.5,14.43-18.11,20-26.11,20.74-35.11,28.61-72.7,26.47-114.14-.88-17.09-.84-34.12-6.58-45.62-6-12-26.26-22.78-38.12-11.91-2.2-11.69,9.86-18.92,24-14.71C341,126,330.39,110.28,316,102.17h0c-25-14.11-67.34-24.72-93.94-11.46-21.47,10.7-50.48,28.41-60.38,50.85,9.24,21.66-2.73,41.5-3.5,63.48-.4,11.7,5.51,21.91,6,34.65-3.16,5.22-12.82,5.86-19.51,5.5-2.25-11.26-6.19-23.93-17.79-25.2-16.42-1.79-28.42,11.79-29.17,26-.88,16.7,12.83,44.37,32.25,42.45,7.51-.75,9.35-8.27,17.53-8.19,4.43,8.84-6.84,11.62-8,17.94-.3,1.64.94,8,1.66,11,3.53,14.58,11.39,33.45,19.13,44.55,9.83,14.08,18.81,20.29,39.38,23.47C220.7,380.47,258.25,386.21,277.5,383Zm59.58,120.35c-4.12,7.5,16.22,62.95,3.66,69.69-14.89,6.13-172.39,38.47-227.93,9.87-7-3.26-16.77-5.06-19.4-10.66-2.55-5.42-1.51-15.81-2.14-25.63-1.61-25.08-3-49.27-9.61-74.94-3-11.52-8.16-21.69-11.77-32.79-3.34-10.29-9.18-23-10.7-33.27C56.93,390.41,71.25,389.57,80.4,383c14.16-10.19,25.27-15.83,40.6-25,4.54-2.73,18.23-9.62,19.79-12.8,1.13-5.56-10-34.29-13.48-42.23a42.74,42.74,0,0,1-28.5-18.32c-9.74-14.28-16.5-40.7-8.07-60.8.66-1.58,4-4.7,4.44-7.13,1-4.79-1.8-11.15-2-16.24-.89-26.13,4.42-48.63,22-56.51,7.14-28.44,32.69-37.9,56.77-52,9-5.28,18.92-8.66,29.16-12.43,36.75-13.53,93.14-11,123.64,12.09,12.94,9.78,33.61,30.44,41,45.39,19.53,39.48,18.15,105.46,4.49,153.48-1.84,6.45-4.5,15.93-8.22,23.67-2.6,5.41-10.65,16.23-9.68,21s18.38,18.12,22.1,21.71c6.71,6.47,19.45,15.06,20.48,23.22,1.11,8.69-3.83,20.57-6.33,29-8.36,28-19.52,62.74-29,87.69Z" transform="translate(-12.54 -16.65)"/><path id="path132" class="cls-10" d="M232.24,294.12c1.06-1.42,6.89-3.56,15,.37,0,0-9.67,1.61-8.86,17.72l-4-.8s-4.16-14.62-2.16-17.29" transform="translate(-12.54 -16.65)"/><path d="M218.12,466.7q-3.84.36-7.68.63t-7.69.51c-2.56.15-5.13.32-7.69.43l-7.68.36,1.92-2.11c.71,4.92,1.68,9.89,2.78,14.74a86.84,86.84,0,0,0,4.28,14.05,21,21,0,0,0,3.34,5.74,14.65,14.65,0,0,0,5.31,3.2,47.65,47.65,0,0,0,14,2.93,37.12,37.12,0,0,0,7.08-.1,13.36,13.36,0,0,0,5.95-1.9c1.37-.92,2.49-3,3.29-5.21a49.94,49.94,0,0,0,1.86-7A134.94,134.94,0,0,0,239,478q.54-7.56.76-15.2.6,3.78.94,7.59c.25,2.54.44,5.09.53,7.65a103.67,103.67,0,0,1-.35,15.44,45.1,45.1,0,0,1-1.48,7.81,22.7,22.7,0,0,1-1.52,3.93A11.55,11.55,0,0,1,235,509a13.21,13.21,0,0,1-4.08,2.19,24.15,24.15,0,0,1-4.12,1,42.87,42.87,0,0,1-8.12.48,57.46,57.46,0,0,1-8-.93,47,47,0,0,1-7.81-2.16,24,24,0,0,1-3.85-1.82,16.77,16.77,0,0,1-1.9-1.29,12,12,0,0,1-1.75-1.67,26.35,26.35,0,0,1-4.24-7.39,54.91,54.91,0,0,1-2.39-7.58c-.64-2.54-1.16-5.08-1.61-7.63s-.77-5.1-1.07-7.66-.53-5.1-.65-7.71l-.11-2.19,2,.09,7.68.36c2.56.11,5.13.28,7.69.43s5.12.31,7.69.51S215.56,466.46,218.12,466.7Z" transform="translate(-12.54 -16.65)"/><path d="M324.78,455.1c2.56-.24,5.12-.46,7.69-.63s5.12-.37,7.68-.51,5.13-.32,7.69-.43l7.69-.36,1.94-.09v2.11a135.61,135.61,0,0,1-.92,14.54,85,85,0,0,1-2.88,14.49,32.94,32.94,0,0,1-3.08,7.2l-.57.89-.64.87a15.93,15.93,0,0,1-1.5,1.63,26.73,26.73,0,0,1-3.09,2.51,38.64,38.64,0,0,1-14.09,6.2,20.71,20.71,0,0,1-8.21.15,12.29,12.29,0,0,1-4.18-1.76,8.34,8.34,0,0,1-.94-.72,9.55,9.55,0,0,1-.86-.82,12.21,12.21,0,0,1-1.35-1.77,25.92,25.92,0,0,1-2.9-7.3,60.12,60.12,0,0,1-1.34-7.29,114,114,0,0,1-.79-14.5,135.81,135.81,0,0,1,.75-14.41,240.57,240.57,0,0,0,3.78,28.27,64.53,64.53,0,0,0,1.8,6.7,22.44,22.44,0,0,0,2.73,5.83,6,6,0,0,0,1.86,1.77,7,7,0,0,0,2.45.83,15.7,15.7,0,0,0,6-.41,31.25,31.25,0,0,0,6.18-2.2,35.25,35.25,0,0,0,5.73-3.3,23.86,23.86,0,0,0,2.49-2,9.58,9.58,0,0,0,.94-1l.42-.56.4-.63a29.34,29.34,0,0,0,2.66-5.91,97.44,97.44,0,0,0,3.27-13.5c.82-4.62,1.49-9.33,2-14l1.93,2-7.69-.36c-2.56-.11-5.12-.28-7.69-.43s-5.12-.31-7.68-.51S327.34,455.34,324.78,455.1Z" transform="translate(-12.54 -16.65)"/><path class="cls-11" d="M218.08,481.94c-10.15,0-21.18-4-22.4-4.5a2.9,2.9,0,0,1,1-5.61,3,3,0,0,1,1,.18c4.11,1.55,13.05,4.16,20.45,4.16,5.38,0,8.85-1.35,10.29-4a2.9,2.9,0,1,1,5.1,2.77C231,479.58,225.83,481.94,218.08,481.94Z" transform="translate(-12.54 -16.65)"/><path class="cls-11" d="M232.13,476.45a3.66,3.66,0,1,0-2.27,0l-2.7,6.77,3.84,9.63,3.84-9.63Z" transform="translate(-12.54 -16.65)"/><path class="cls-11" d="M334.62,472.1c10.12-.86,13.34-4.77,14.23-5.72,1.44-1.53,2.06-2.42,1.38-3.86-.52-1.09-1.84-2.34-2.87-1.64-.29.19-5.94,4.86-13.32,5.48-5.36.46-8.93-.59-10.59-3.11a2.91,2.91,0,0,0-2.67-1.3,3,3,0,0,0-1.35.47,2.91,2.91,0,0,0-.82,4C321.52,470.85,326.9,472.76,334.62,472.1Z" transform="translate(-12.54 -16.65)"/><path class="cls-11" d="M320.15,467.83a3.67,3.67,0,1,1,2.27-.2l3.27,6.52-3,9.92L318,474.8Z" transform="translate(-12.54 -16.65)"/><path class="cls-12" d="M140.48,331.78l.64,20.58s23.47,33.66,79.53,40.43c29.56,3.56,59.07,2.38,84.41-11.18,32.25-17.27,41-43.78,41-43.78s-33.51,29-45.88,34c-22.68,9.22-56.76,7.74-77.63,4.89C164.06,368.76,140.48,331.78,140.48,331.78Z" transform="translate(-12.54 -16.65)"/><path class="cls-6" d="M197.1,430.35s61.79,12.31,82.39,12.73c31.36.64,43.52-26.67,43.52-26.67s-5.68,38.08-32.43,42.72C254.05,465.47,197.1,430.35,197.1,430.35Z" transform="translate(-12.54 -16.65)"/><path d="M215.53,439.93c9.35,3.8,18.63,7.38,28,10.42a147.57,147.57,0,0,0,28.39,6.6,71.31,71.31,0,0,0,7.12.47,57,57,0,0,0,7.05-.27,40,40,0,0,0,13.31-3.61,33.71,33.71,0,0,0,11-8.53,45.63,45.63,0,0,0,4.3-5.89l1-1.59.88-1.64c.65-1.08,1.12-2.23,1.73-3.35A40.2,40.2,0,0,1,313.23,447a33.42,33.42,0,0,1-11.15,11.35A40.33,40.33,0,0,1,287,463.74a61.87,61.87,0,0,1-15.79.16,102.89,102.89,0,0,1-29.58-8.43,135,135,0,0,1-13.54-7c-2.17-1.3-4.32-2.64-6.41-4.07S217.48,441.54,215.53,439.93Z" transform="translate(-12.54 -16.65)"/><path class="cls-13" d="M207.62,511.42l-13.82,0s-3.33-4.65-5.07-5.1c-23.65-6-59.21,17.5-62.65,74.88C124.24,611.73,102.26,699,102.26,699l106.87-11.9s-8-73-15.77-95.58C177.26,544.94,207.62,511.42,207.62,511.42Z" transform="translate(-12.54 -16.65)"/><polygon class="cls-14" points="195.5 653.45 226.71 645.99 194.9 573.82 181.31 573.93 195.5 653.45"/><polygon class="cls-15" points="181.13 654.89 225.68 645.38 194.9 574.23 173.09 575.37 181.13 654.89"/><path class="cls-14" d="M176.8,510.68c-9.67,8.71-5.8,32.15-5.8,32.15l20.38-20.13s-18.52,16.43-18.7,51.27c-.1,19.77,8.53,68.93,5.52,77.5-6.08,17.33-46,44.52-46,44.52L210,688.21l-17.7-95.58-3.74-41.84,14.73-36.57S182.46,505.58,176.8,510.68Z" transform="translate(-12.54 -16.65)"/><path class="cls-15" d="M207.62,511.9l-13.82,0s-3.33-4.65-5.07-5.09c-23.65-6-59.21,17.49-62.65,74.88-1.84,30.49-23.82,117.78-23.82,117.78L209.13,687.6s-8-73-15.77-95.59C177.26,545.42,207.62,511.9,207.62,511.9Z" transform="translate(-12.54 -16.65)"/><path d="M173.85,537.69a42.34,42.34,0,0,1,1.29-8.69,37.74,37.74,0,0,1,3.24-8.45,27.6,27.6,0,0,1,5.85-7.5,25.35,25.35,0,0,1,8.67-5l1.8,7.8a18,18,0,0,0-6.95,2.09,22.32,22.32,0,0,0-6.07,4.91A34.27,34.27,0,0,0,177,529.7,41.41,41.41,0,0,0,173.85,537.69Z" transform="translate(-12.54 -16.65)"/><circle class="cls-16" cx="155.31" cy="601.05" r="2.21"/><circle class="cls-16" cx="166.41" cy="609.52" r="2.21"/><circle class="cls-17" cx="174.69" cy="602.62" r="1.88"/><circle class="cls-17" cx="160.04" cy="591.37" r="1.95"/><path class="cls-18" d="M172,618.93a.63.63,0,0,1-.29-.2.62.62,0,0,1,.07-.89c.17-.15,4.19-3.68.29-9.47a.63.63,0,0,1,.17-.88.64.64,0,0,1,.89.17c4.55,6.76-.48,11.11-.53,11.15A.63.63,0,0,1,172,618.93Z" transform="translate(-12.54 -16.65)"/><path class="cls-18" d="M177.1,622.75l-.14-.07a.63.63,0,0,1-.21-.87s3.29-5.19,10.64-3.16a.64.64,0,0,1-.34,1.23c-6.4-1.77-9.1,2.42-9.21,2.6A.66.66,0,0,1,177.1,622.75Z" transform="translate(-12.54 -16.65)"/><ellipse class="cls-19" cx="155.29" cy="645.6" rx="19.73" ry="13.49" transform="translate(-452.43 334.54) rotate(-50.16)"/><circle class="cls-16" cx="156.68" cy="611" r="9.78"/><polygon class="cls-20" points="125.27 650.25 131.92 645.29 128.83 642.81 125.27 650.25"/><path d="M151.94,630.92l18.47,15.42a22.39,22.39,0,0,0,1.07-3.71L155.39,629.2A22.18,22.18,0,0,0,151.94,630.92Z" transform="translate(-12.54 -16.65)"/><path d="M150.73,662.75l-11.81-9.85a10.13,10.13,0,0,0,11.81,9.85Z" transform="translate(-12.54 -16.65)"/><path d="M140.39,645h0a21.36,21.36,0,0,0-1,3.71l16,13.37a22.66,22.66,0,0,0,3.47-1.7Z" transform="translate(-12.54 -16.65)"/><path d="M141.52,641.66l19.85,16.57a29.4,29.4,0,0,0,2.63-2.41l-20.59-17.18A26.46,26.46,0,0,0,141.52,641.66Z" transform="translate(-12.54 -16.65)"/><path d="M146.15,635.81,166.78,653a28.58,28.58,0,0,0,1.95-3l-20-16.7A28.11,28.11,0,0,0,146.15,635.81Z" transform="translate(-12.54 -16.65)"/><path class="cls-21" d="M155.68,634.9c-.63-1.94-11.71-4.41-18.4-2.64-3.89,1-13.86,4-12,11.31,1.47,5.81,12.18,4.2,16,2.78C145.56,644.73,156.72,638.15,155.68,634.9Z" transform="translate(-12.54 -16.65)"/><path class="cls-21" d="M165.37,642.36c2,.13,7.14,10.28,7.06,17.2,0,4-.33,14.05-7.35,14.37-6,.28-7.72-10.75-7.27-14.78C158.32,654.58,162,642.14,165.37,642.36Z" transform="translate(-12.54 -16.65)"/><polygon class="cls-22" points="375.76 567.41 342.55 555.57 371.84 471.93 405.12 483.58 375.76 567.41"/><polygon class="cls-23" points="345.84 457.18 379.5 450.05 331.75 590.83 313.26 584.36 322.17 441.38 345.84 457.18"/><path class="cls-24" d="M422.72,485.75l-42,120.48s5.91,20,29.31,28.25c18.57,6.53,39.16-3.81,39.16-3.81l42.14-120.89S467,508.07,455,503.52C437.71,497,422.72,485.75,422.72,485.75Z" transform="translate(-12.54 -16.65)"/><path class="cls-23" d="M427.45,462.88l94.91-29.29,9.12,13.77-30.77,41.17s-15.79-.24-37.68-7.9C445.08,474.34,427.45,462.88,427.45,462.88Z" transform="translate(-12.54 -16.65)"/><path class="cls-13" d="M427.45,462.88s-.07,10.15-.94,12.05c-.7,1.55-9.19,7-9.19,7s18.13,14.61,37.7,21.57c18,6.39,41.36,6.34,41.36,6.34s-1.51-10-1.05-11.47c.51-1.64,5.38-9.86,5.38-9.86a180.26,180.26,0,0,1-37.68-7.9C446,475.13,427.45,462.88,427.45,462.88Z" transform="translate(-12.54 -16.65)"/><rect class="cls-25" x="527.02" y="432.23" width="5.28" height="12.54" transform="translate(-164.67 332.54) rotate(-32.16)"/><polyline class="cls-26" points="323.94 431.45 317.12 568.89 335.61 575.37 381.66 443.89"/><path class="cls-27" d="M429.17,563.84c-5.75,34.25-2.95,71.18-2.95,71.18s-29-4.3-34.21-8.53c-5-4-13.22-22.19-13.22-22.19l43.93-118.55,28.36,12.68S437.71,513,429.17,563.84Z" transform="translate(-12.54 -16.65)"/><path class="cls-28" d="M422.72,485.75l-42,120.48s5.91,20,29.31,28.25c18.57,6.53,39.16-3.81,39.16-3.81l42.14-120.89S467,508.07,455,503.52C437.71,497,422.72,485.75,422.72,485.75Z" transform="translate(-12.54 -16.65)"/><path class="cls-27" d="M463,519.09a445,445,0,0,1-25,87.2" transform="translate(-12.54 -16.65)"/><path class="cls-5" d="M463,519.09a131.9,131.9,0,0,1-2.11,22.83,202.53,202.53,0,0,1-5.1,22.29,196.27,196.27,0,0,1-7.5,21.6A141.09,141.09,0,0,1,438,606.29c1.53-7.54,3.57-14.81,5.49-22.12s4-14.51,6.1-21.74,4.2-14.45,6.38-21.67S460.4,526.33,463,519.09Z" transform="translate(-12.54 -16.65)"/><path class="cls-14" d="M446.94,501.44,417.32,482l9.19-7,.94-12.05,25.17,14.74s-5.92,2.13-5.47,9.77C448,501.42,446.94,501.44,446.94,501.44Z" transform="translate(-12.54 -16.65)"/><path class="cls-28" d="M427.45,462.88s-.07,10.15-.94,12.05c-.7,1.55-9.19,7-9.19,7s18.13,14.61,37.7,21.57c18,6.39,41.36,6.34,41.36,6.34s-1.51-10-1.05-11.47c.51-1.64,5.38-9.86,5.38-9.86a180.26,180.26,0,0,1-37.68-7.9C446,475.13,427.45,462.88,427.45,462.88Z" transform="translate(-12.54 -16.65)"/><path class="cls-29" d="M450.47,475.47l-23-12.59,92.6-24.38s-44.29,16.12-55.44,24.71A145.35,145.35,0,0,0,450.47,475.47Z" transform="translate(-12.54 -16.65)"/><path class="cls-28" d="M427.45,462.88l94.91-29.29,9.12,13.77-30.77,41.17s-15.79-.24-37.68-7.9C445.08,474.34,427.45,462.88,427.45,462.88Z" transform="translate(-12.54 -16.65)"/><path class="cls-29" d="M334.54,462.92l-8.75,140,18.49,6.47,40.09-120.83s-25.44,23.56-34.74,18.75c-10.83-5.61,14.07-15.53-2.93-34.8C342.29,467.52,334.54,462.92,334.54,462.92Z" transform="translate(-12.54 -16.65)"/><polygon class="cls-30" points="345.84 457.18 379.5 450.05 331.75 594.7 313.26 588.22 324.1 443.31 345.84 457.18"/><path class="cls-31" d="M399.89,511.27c-.45-4.44-3.32-14.11-13.08-12.15-5.58,1.12-12.26,12.3-17.45,14.64-18.69,8.41-37.95-2.68-37.95-2.68s22.25-30.34,1.68-38.13c-11.42-4.33-18.57,12.61-21,20.25-3.49,10.72-19.33,20.47-23.69,23l-54.22-13.7s-25.82,15.06-31.51,44.79C196.54,579,210.91,602,210.91,602l83.49-18.24s10.29-.11,13.59.71c10.58,2.65,28.63,13.4,42.12,11.4,30.3-4.49,30.47-24.48,30.47-24.48s5.38-5.94,6.23-8.41a19.24,19.24,0,0,0,0-12.16s6.39-4.81,8.41-11.52a14.08,14.08,0,0,0-1.45-11.87S400.87,520.85,399.89,511.27Z" transform="translate(-12.54 -16.65)"/><path class="cls-32" d="M201.12,561.4l3.15,24.4L210.91,602l83.49-18.24,13.59.71,30.7,12.12s37.44-5.58,38.58-13.48-35.43-6.32-35.43-6.32,12.89,3.91,2.72,8.83c-11.18,5.41-23.85-12.39-37.42-11.82-21.64.91-41-12.41-41-12.41s6.94,17.22-8.45,20.72C217.41,591.28,201.12,561.4,201.12,561.4Z" transform="translate(-12.54 -16.65)"/><path class="cls-33" d="M232.2,502.49l18.23,5.08s-22.56,8.1-31.37,37.85c-9.45,31.9,5.71,53.06,5.71,53.06L210.91,602s-12.39-23.78-8.89-51.18C205.65,522.35,232.2,502.49,232.2,502.49Z" transform="translate(-12.54 -16.65)"/><path class="cls-32" d="M230.49,502c59,18.52,52.23,27.84,52.23,27.84s2.24-5.62,3.86-9.15a76.92,76.92,0,0,0,2.92-7.82Z" transform="translate(-12.54 -16.65)"/><path class="cls-32" d="M398.07,509.06s-4.36,9.07-15.62,17.82c-14,10.87-36,11.33-36,11.33s21.95,3.91,37.95-1.45C403.33,530.4,398.07,509.06,398.07,509.06Z" transform="translate(-12.54 -16.65)"/><path d="M282.72,529.82a41,41,0,0,1,1.47-8.91,38.49,38.49,0,0,1,1.58-4.43c.3-.74.65-1.47,1-2.2.19-.36.39-.73.61-1.1.1-.18.21-.37.34-.56a5.37,5.37,0,0,1,.44-.63,4,4,0,1,1,5.51,5.8s-.19.08-.31.14l-.38.24c-.26.16-.52.35-.79.53-.52.39-1.05.8-1.55,1.24a32.07,32.07,0,0,0-3,2.88,37.74,37.74,0,0,0-2.66,3.31A41.86,41.86,0,0,0,282.72,529.82Z" transform="translate(-12.54 -16.65)"/><path class="cls-32" d="M393.65,530.88S389.29,538,378,546.76c-14,10.88-33.67,12.12-33.67,12.12s20.73,3.9,36.08-3.12C398.1,547.69,393.65,530.88,393.65,530.88Z" transform="translate(-12.54 -16.65)"/><path class="cls-32" d="M385.31,553.3s-.95,5.78-9.65,11.56c-14.77,9.82-33.82,11.94-33.82,11.94s21.17,4.69,36.23-2.93C387.66,569,385.31,553.3,385.31,553.3Z" transform="translate(-12.54 -16.65)"/><path class="cls-32" d="M323.2,476.39s9.13,2,8.93,13.19c-.24,14-3.87,22.26-3.87,22.26s22.11-22.71,11.65-35.44C331.79,466.52,323.2,476.39,323.2,476.39Z" transform="translate(-12.54 -16.65)"/><path class="cls-15" d="M399.89,511.27c-.45-4.44-3.32-14.11-13.08-12.15-5.58,1.12-12.26,12.3-17.45,14.64-18.69,8.41-37.95-2.68-37.95-2.68s22.25-30.34,1.68-38.13c-11.42-4.33-18.57,12.61-21,20.25-3.49,10.72-19.33,20.47-23.69,23l-56.15-13.7s-23.89,15.06-29.58,44.79C196.54,579,210.91,602,210.91,602l83.49-18.24s10.29-.11,13.59.71c10.58,2.65,28.63,13.4,42.12,11.4,30.3-4.49,30.47-24.48,30.47-24.48s5.38-5.94,6.23-8.41a19.24,19.24,0,0,0,0-12.16s6.39-4.81,8.41-11.52a14.08,14.08,0,0,0-1.45-11.87S400.87,520.85,399.89,511.27Z" transform="translate(-12.54 -16.65)"/><path d="M346.43,538.21l3.14.32,1.56.15.78.08.79,0a59,59,0,0,0,6.24-.08c1-.08,2.06-.13,3.08-.24l3-.49a25.36,25.36,0,0,0,3-.63c1-.27,2-.43,2.95-.79l2.88-.95,2.79-1.15a49.18,49.18,0,0,0,10.19-6.08c.74-.63,1.51-1.22,2.2-1.88.36-.32.7-.64,1-1,.17-.16.34-.33.48-.49a5,5,0,0,0,.37-.42,4.06,4.06,0,0,1,6.71,4.56,4.2,4.2,0,0,1-.65.74l-.41.37c-.32.28-.54.44-.79.64s-.48.36-.72.53c-.48.35-1,.69-1.44,1-1,.65-1.95,1.2-2.93,1.78a55.28,55.28,0,0,1-6.09,2.87,56.78,56.78,0,0,1-6.31,2.08l-3.21.76-3.25.53c-1.07.21-2.17.22-3.25.33a29.36,29.36,0,0,1-3.25.17h-3.23c-1.08-.05-2.15-.17-3.22-.25a58,58,0,0,1-6.32-.93l-.79-.14-.77-.2-1.53-.41Z" transform="translate(-12.54 -16.65)"/><path d="M344.36,558.88l2.77.19c.93,0,1.84.15,2.76.11a52.82,52.82,0,0,0,5.49-.21A54,54,0,0,0,366,557a53,53,0,0,0,9.9-3.88c1.57-.79,3.08-1.67,4.54-2.59.72-.49,1.44-1,2.12-1.46.34-.25.67-.5,1-.76s.33-.25.47-.38a3.63,3.63,0,0,0,.38-.34A4.06,4.06,0,0,1,390.5,553a4.12,4.12,0,0,1-.8.71l-.49.32c-.31.2-.52.31-.76.45l-.69.38c-.46.24-.91.48-1.37.69-.9.45-1.82.83-2.72,1.23-1.84.73-3.68,1.4-5.56,2A57.94,57.94,0,0,1,366.75,561a57,57,0,0,1-11.39,0,54.51,54.51,0,0,1-5.57-.8,26.16,26.16,0,0,1-2.73-.61Z" transform="translate(-12.54 -16.65)"/><path d="M381.54,576.2l-.25.2-.19.12-.35.23-.66.38c-.45.26-.87.44-1.3.66a26.22,26.22,0,0,1-2.56,1,35.62,35.62,0,0,1-5.13,1.35,45.88,45.88,0,0,1-10.15.6c-.84-.06-1.67-.09-2.49-.16l-2.46-.3-1.22-.16-1.21-.23-2.41-.46c-1.59-.35-3.15-.79-4.72-1.18l-4.6-1.47,4.78.49c1.6.05,3.18.16,4.76.17l2.37,0,1.18,0,1.17-.09,2.33-.2,2.3-.34a39.72,39.72,0,0,0,8.73-2.38,29,29,0,0,0,3.86-1.93c.61-.36,1.17-.76,1.71-1.15.24-.21.53-.4.74-.61l.32-.29.13-.14,0,0h0a4,4,0,1,1,5.29,6Z" transform="translate(-12.54 -16.65)"/><path d="M266.14,561.4c1.46,3.64,4.41,6.26,7.51,8.35a50,50,0,0,0,10.14,5A93.21,93.21,0,0,0,294.66,578c3.65.88,7.46,1.63,11,2.12h.05a4,4,0,0,1-1.07,8A5.58,5.58,0,0,1,304,588a116.06,116.06,0,0,1-11.27-4.25,99.56,99.56,0,0,1-10.68-5.36,53.26,53.26,0,0,1-9.66-7,27.2,27.2,0,0,1-3.9-4.54A15.21,15.21,0,0,1,266.14,561.4Z" transform="translate(-12.54 -16.65)"/><path class="cls-2" d="M480.91,322.66" transform="translate(-12.54 -16.65)"/><path class="cls-34" d="M529.14,423.81c.24,2.81-4-4-2.68-19.07.83-9.61,5.67-18.65,4.39-28.49a21.27,21.27,0,0,0-17.17-17.9c-5.15-.87-10.59.19-15.55-1.44-14.62-4.78-18.88-24.11-15.15-37.24,1.76-6.18,5.8-11.94,11.64-14.62s13.52-1.65,17.67,3.26c1.77,2.09,2.82,4.69,4.44,6.91,4.59,6.29,13.31,1.75,18.24,7,8.44,9-3,20.27,3.3,30.16,2.6,4.08,7.25,6.79,8.93,11.33,1.1,3,.73,6.3,0,9.39a61.54,61.54,0,0,1-6.12,15.59c-2.62,4.88-6.55,9.33-8.88,14.31-2.75,5.88-3.64,14.34-3.09,20.82" transform="translate(-12.54 -16.65)"/><path class="cls-35" d="M540.65,420.54c3.35-4.54,12-12.35,15.08-15.63,7.68-8.08,20.45-16.14,25.29-26.47,2.33-5,4.57-16.37-9.52-26.94-4-3-5-13-12.78-15.81-5.92-2.14-10,4.08-9.63,8.48.48,6.06,6.51,9.95,9.53,15.23,7.41,13-6.62,29.47-12,40.68C543.49,406.47,540.65,420.54,540.65,420.54Z" transform="translate(-12.54 -16.65)"/><path class="cls-35" d="M492.16,378.35a16,16,0,0,0-5.5,4.19,13.52,13.52,0,0,0-2.7,12.12,9.26,9.26,0,0,0,6.26,6.45c5.74,1.47,9.79-2.48,14.7.21,4.1,2.25,7.1,14.27,7.1,14.27,2-3.59,8-14.59,4.85-26.24a18,18,0,0,0-7.57-10.18,16,16,0,0,0-9.08-2.59A19.16,19.16,0,0,0,492.16,378.35Z" transform="translate(-12.54 -16.65)"/><path class="cls-5" d="M494,325.83a17.25,17.25,0,0,0-.46,9.62,19.39,19.39,0,0,0,4.23,8.13,14.11,14.11,0,0,0,1.57,1.53,5,5,0,0,0,.74.53,6.21,6.21,0,0,0,.82.39,15.28,15.28,0,0,0,4.22.81c3.13.25,6.56.19,10.06.56a30.22,30.22,0,0,1,10.46,2.81,23,23,0,0,1,8.33,7.1,26,26,0,0,1,4.38,9.67,21.23,21.23,0,0,1-.07,10.3,26,26,0,0,0-2-9.64,30.76,30.76,0,0,0-2.21-4.27,28,28,0,0,0-2.88-3.75,21,21,0,0,0-7.4-5.28,31,31,0,0,0-9-2c-3.2-.29-6.52-.3-10.09-.73a17.8,17.8,0,0,1-5.56-1.51,10.3,10.3,0,0,1-1.38-.83,9.37,9.37,0,0,1-1.23-1,16.34,16.34,0,0,1-1.82-2.2,19.91,19.91,0,0,1-3.57-10.25A15.26,15.26,0,0,1,494,325.83Z" transform="translate(-12.54 -16.65)"/><path class="cls-5" d="M554.56,398.91c2.67-4,5.48-7.72,8.19-11.51a99.61,99.61,0,0,0,7.45-11.48,17.59,17.59,0,0,0,1.19-2.88c.13-.43.22-1,.32-1.49s.16-1,.17-1.55a11,11,0,0,0-1.15-5.9,23.37,23.37,0,0,0-4.05-5.27,24.76,24.76,0,0,1-2.32-2.81,5,5,0,0,1-1-3.51,5,5,0,0,0,1.78,2.81,31.09,31.09,0,0,0,2.76,2.08,21.09,21.09,0,0,1,5.43,5.11,13.23,13.23,0,0,1,2.26,7.59,18.58,18.58,0,0,1-.11,2,16.93,16.93,0,0,1-.35,2,17.8,17.8,0,0,1-1.4,3.67,52.92,52.92,0,0,1-8.56,11.71A71.76,71.76,0,0,1,554.56,398.91Z" transform="translate(-12.54 -16.65)"/><path class="cls-5" d="M492,390.08a7.36,7.36,0,0,1,1.15-3.94,7.23,7.23,0,0,1,3.34-2.89,8.69,8.69,0,0,1,4.43-.53,11.54,11.54,0,0,1,4.15,1.37,13.25,13.25,0,0,1,5.36,6.41,19.57,19.57,0,0,1,1.49,7.83,33,33,0,0,0-3.16-7,13.05,13.05,0,0,0-5-4.93,10,10,0,0,0-3.23-1,8.23,8.23,0,0,0-3.25.13C495.23,386.07,493.42,387.81,492,390.08Z" transform="translate(-12.54 -16.65)"/><path class="cls-36" d="M330.33,115.78c13.28-14.13,36.91-34.41,54.83-40.25,19.37-6.31,21.35,7.12,22.69,23.75C410.89,137,331.84,137.63,330.33,115.78Z" transform="translate(-12.54 -16.65)"/><path class="cls-31" d="M300.31,29c-42.4-18.9-142.71-13.15-186.08,40.12-7.59,9.32-17.33,52-4.41,54.3,41.22,7.43,95.86,9.47,137.46,8.38,27.4-.72,35.89,1,63-2.42,4.32-.55,45.07,2.2,47.77-.5C363.08,123.84,325.86,40.36,300.31,29Z" transform="translate(-12.54 -16.65)"/><path class="cls-32" d="M176.88,122.07s-38.49,0-41.08-26.75c-3.56-36.76,76.32-31.19,104-56.19,6.65-6-7.07-12.45-14.87-13.36-26-3-79.91.36-108.72,39.46-10.47,14.2-13.27,77.05-13.27,77.05Z" transform="translate(-12.54 -16.65)"/><path class="cls-33" d="M345.52,92.59l12.93,24.8S315,136,247,140.92c-41.44,3-142.3,11.89-142.3,11.89l-4.49-27.64s78.76,1.41,134.88-8.08C318.35,103,345.52,92.59,345.52,92.59Z" transform="translate(-12.54 -16.65)"/><path class="cls-15" d="M300.73,29.84c-29.16-13-117.17-16.38-168,18.21-23.09,15.73-28.82,52-27.5,83.79.58,14,100.81,1.89,142.42.79,27.39-.72,35.88,1,63-2.41,4.31-.55,45.07,2.19,47.76-.5C363.49,124.7,326.27,41.22,300.73,29.84Z" transform="translate(-12.54 -16.65)"/><path class="cls-32" d="M368.37,83.67c17.25-14.25,51.49-24.35,57.06,10.79,3.77,23.75-21.47,38.68-43.68,47.9-50.62,21-111.5,9.9-164.94,15.83-23.64,2.63-47.23,7.94-68.28,19.38a136.67,136.67,0,0,0-29.86,22c-3.4,3.29-23.46,31.85-25.18,31.71-23-1.92-40.13-17.77-46.68-39.57-4-13.27-4.09-28.25,2.6-40.37,7.88-14.28,23.66-22.34,39.28-27,52.61-15.77,101.83,3.28,154.41,4.2,42.52.75,88.15,1.58,127.79-15.19C401.76,100.3,424.2,57.89,368.37,83.67Z" transform="translate(-12.54 -16.65)"/><path class="cls-31" d="M401.54,74.47c9.46,1.53,24.53,24.69-34,52.24C333,143,274.56,143.11,227.75,141c-27.26-1.21-50-5.47-77.22-7.21C122,132,94.38,131.48,72.3,153.45c-8.19,8.14-15.37,17-15.24,28.56.11,10.32,5.26,19.67,12,27.18,5.15,5.74,20.19,19.8,28.13,21.15C43,233,29,158.25,63.46,137.13c47.12-28.85,117-9.76,161.62-5.84,15.35,1.35,42.7,1.55,60.26.55,29.6-1.67,56.67-4.85,78.5-13.67C409,99.93,405.54,81.27,401.54,74.47Z" transform="translate(-12.54 -16.65)"/><path class="cls-28" d="M367.37,84.67c17.25-14.25,53.21-24.58,57.06,10.79C427,119,403,134.14,380.75,143.36c-50.62,21-111.5,9.9-164.94,15.83-23.64,2.63-47.23,7.94-68.28,19.38a136.67,136.67,0,0,0-29.86,22c-3.4,3.29-23.46,31.85-25.18,31.71-23-1.92-40.13-17.77-46.68-39.57-4-13.27-4.09-28.25,2.6-40.37,7.88-14.28,23.66-22.34,39.28-27,52.61-15.77,101.83,3.28,154.41,4.2,42.52.75,88.15,1.58,127.79-15.19C400.76,101.3,423.2,58.89,367.37,84.67Z" transform="translate(-12.54 -16.65)"/><path d="M205.94,32.19c2.64-.34,5.28-.58,7.92-.76s5.29-.31,7.94-.37,5.32,0,8,.1q2,.09,4.08.33a28.55,28.55,0,0,1,4.29.79c.37.09.79.25,1.18.38l.64.28.33.15.36.21a5,5,0,0,1,.76.51l.41.35a3,3,0,0,1,.42.47c.15.19.29.38.42.58a4.05,4.05,0,0,1,.35.78,4.25,4.25,0,0,1,.24,1.78,5.38,5.38,0,0,1-.37,1.52,8.07,8.07,0,0,1-.57,1q-.27.38-.57.72c-.18.2-.35.36-.54.54a15.77,15.77,0,0,1-2,1.58,51.42,51.42,0,0,1-7.49,3.92c-5,2.18-9.93,4-14.93,5.7-10,3.41-20.07,6.36-30.22,9.08s-20.38,5.15-30.84,7a296.07,296.07,0,0,1,29-12.76c9.81-3.8,19.72-7.25,29.6-10.61q3.72-1.25,7.38-2.54c2.45-.83,4.88-1.72,7.26-2.61a57.76,57.76,0,0,0,6.67-2.93,8.66,8.66,0,0,0,1.17-.74l.17-.13.07,0a.34.34,0,0,0-.07.17,1.27,1.27,0,0,0-.12.57A2,2,0,0,0,237,38a1.54,1.54,0,0,0,.17.32.76.76,0,0,0,.12.19l.11.1a.05.05,0,0,0,0,0c.07,0,0,0-.05,0l0-.06-.11-.06-.25-.15c-.22-.09-.41-.2-.67-.3a27.34,27.34,0,0,0-3.36-1c-1.21-.3-2.45-.56-3.71-.81-2.52-.5-5.09-.94-7.67-1.36C216.37,34,211.16,33.2,205.94,32.19Z" transform="translate(-12.54 -16.65)"/><path class="cls-37" d="M396.94,72.74S446,57,441.87,177.54c-2.16,63-38.53,139.84-64.45,169.71-20.78,24-18.74,53.43-107.36,67.58-81.93,13.07-144.69-53.72-144.69-53.72L90.11,378.52s12.4-37.7,11.28-50.61c-3.16-36.35-90.25-123.62-52-178.78,33.92-48.91,135.89-21.8,191.68-19.58,62.52,2.49,92.65-5.31,116.35-12.16C412.52,101.47,396.94,72.74,396.94,72.74Z" transform="translate(-12.54 -16.65)"/><path d="M406.22,160.54a48.78,48.78,0,0,1,6.5,17.92,86.86,86.86,0,0,1,1.06,19.11,118.57,118.57,0,0,1-2.51,18.9,99.22,99.22,0,0,1-5.56,18.16c.91-6.27,1.78-12.47,2.53-18.66s1.31-12.4,1.61-18.59a143.19,143.19,0,0,0-.16-18.53A81.37,81.37,0,0,0,406.22,160.54Z" transform="translate(-12.54 -16.65)"/><path d="M412.73,160.54a48.61,48.61,0,0,1,6.51,17.92,86.25,86.25,0,0,1,1.05,19.11,116.32,116.32,0,0,1-2.51,18.9,99.22,99.22,0,0,1-5.56,18.16c.91-6.27,1.79-12.47,2.54-18.66s1.31-12.4,1.6-18.59a145,145,0,0,0-.15-18.53A81.39,81.39,0,0,0,412.73,160.54Z" transform="translate(-12.54 -16.65)"/><path d="M400.62,178.25c2.45-.34,4.77-.47,7.07-.58s4.56-.18,6.77-.33a47.51,47.51,0,0,0,6.5-.75,14.57,14.57,0,0,0,6.1-2.57,7.05,7.05,0,0,1-1.91,3.27,11.62,11.62,0,0,1-3.17,2.22,19.73,19.73,0,0,1-7.27,1.76,27.94,27.94,0,0,1-7.26-.53A22.46,22.46,0,0,1,400.62,178.25Z" transform="translate(-12.54 -16.65)"/><path d="M400.62,184.4c2.45-.34,4.77-.47,7.07-.58s4.56-.18,6.77-.33a47.51,47.51,0,0,0,6.5-.75,14.57,14.57,0,0,0,6.1-2.57,7.05,7.05,0,0,1-1.91,3.27,11.84,11.84,0,0,1-3.17,2.22,19.73,19.73,0,0,1-7.27,1.76,28.38,28.38,0,0,1-7.26-.53A22.46,22.46,0,0,1,400.62,184.4Z" transform="translate(-12.54 -16.65)"/><path d="M397.22,203.31c2.44-.35,4.77-.48,7.07-.59s4.56-.18,6.77-.32a49.13,49.13,0,0,0,6.5-.76,14.57,14.57,0,0,0,6.1-2.57,7.05,7.05,0,0,1-1.91,3.27,11.62,11.62,0,0,1-3.17,2.22,19.58,19.58,0,0,1-7.27,1.76,27.48,27.48,0,0,1-7.26-.53A22.61,22.61,0,0,1,397.22,203.31Z" transform="translate(-12.54 -16.65)"/><path class="cls-38" d="M174.86,397.21S143.05,369,128.19,367.74c-9.67-.84-34.1,10.85-34.1,10.85s12.08-56.87,5.1-67.79C0,155.57,45,151,71,129c9.25-7.83,47.31-10.49,47.31-10.49S49.35,188.69,94,243.58C175,343.37,174.86,397.21,174.86,397.21Z" transform="translate(-12.54 -16.65)"/><path class="cls-15" d="M396.94,71.92S435,59,441.09,136.16c6.31,80-20.61,151.16-61.74,215C362.3,377.57,358.68,398.86,270.06,413c-81.93,13.08-144.69-53.72-144.69-53.72L90.11,376.71s12.4-37.7,11.28-50.62c-3.16-36.35-89.25-120.62-51-175.78,33.92-48.91,134.89-22.8,190.68-20.58,62.52,2.49,93.28-2.42,116.35-11.16C425,93,396.94,71.92,396.94,71.92Z" transform="translate(-12.54 -16.65)"/><circle class="cls-39" cx="123.14" cy="87.51" r="2.59"/><circle class="cls-39" cx="133.36" cy="74.71" r="2.59"/><circle class="cls-40" cx="125.48" cy="64.81" r="2.21"/><circle class="cls-40" cx="111.89" cy="81.7" r="2.29"/><path class="cls-41" d="M137.22,99.33a.67.67,0,0,1-.24.34.75.75,0,0,1-1-.11c-.17-.21-4.2-5-11.1-.58a.75.75,0,1,1-.8-1.26c8-5.17,13,.84,13.06.9A.74.74,0,0,1,137.22,99.33Z" transform="translate(-12.54 -16.65)"/><path class="cls-41" d="M141.83,93.42a.65.65,0,0,1-.08.17.75.75,0,0,1-1,.22c-.06,0-6-4-3.42-12.56a.73.73,0,0,1,.93-.5.74.74,0,0,1,.5.93c-2.25,7.46,2.6,10.74,2.8,10.87A.75.75,0,0,1,141.83,93.42Z" transform="translate(-12.54 -16.65)"/><ellipse class="cls-19" cx="168.08" cy="119.62" rx="15.83" ry="23.15" transform="translate(-45.11 150.91) rotate(-48.88)"/><circle class="cls-39" cx="134.84" cy="86.16" r="11.48"/><polygon class="cls-42" points="180.06 124.04 174.42 116.1 171.43 119.66 180.06 124.04"/><path d="M150.76,123.16l18.57-21.27a25.26,25.26,0,0,0-4.32-1.35l-16.17,18.52A25.24,25.24,0,0,0,150.76,123.16Z" transform="translate(-12.54 -16.65)"/><path d="M188.07,125.41,176.21,139a11.89,11.89,0,0,0,11.86-13.59Z" transform="translate(-12.54 -16.65)"/><path d="M167,137.08h0a26.36,26.36,0,0,0,4.32,1.33L187.41,120a26.24,26.24,0,0,0-1.91-4.12Z" transform="translate(-12.54 -16.65)"/><path d="M163.09,135.67,183,112.81a33.32,33.32,0,0,0-2.75-3.15l-20.7,23.71A32.9,32.9,0,0,0,163.09,135.67Z" transform="translate(-12.54 -16.65)"/><path d="M156.35,130.08l20.74-23.75a33,33,0,0,0-3.44-2.37l-20.11,23A33.57,33.57,0,0,0,156.35,130.08Z" transform="translate(-12.54 -16.65)"/><path class="cls-43" d="M155.53,118.88c-2.29.68-5.48,13.62-3.58,21.51,1.11,4.6,4.33,16.36,13,14.38,6.86-1.58,5.25-14.18,3.68-18.66C166.8,131,159.37,117.74,155.53,118.88Z" transform="translate(-12.54 -16.65)"/><path class="cls-43" d="M164.54,107.7c.2-2.38,12.24-8.11,20.35-7.84,4.72.16,16.48.77,16.67,9,.17,7-12.81,8.79-17.52,8.16C178.68,116.3,164.19,111.69,164.54,107.7Z" transform="translate(-12.54 -16.65)"/><g class="cls-44"><path class="cls-13" d="M246.25,426h0c-66,0-90.76-24.61-107.13-40.89-7.67-7.62-11.93-11.64-16.85-11.74-3.23.6-16.75,7.33-24.28,14.25a9.67,9.67,0,1,1-13.09-14.23c7.85-7.22,26.49-19.35,37.2-19.35,13.2,0,21.68,8.44,30.65,17.37,15,14.88,35.45,35.25,93.5,35.25,91.86,0,123.66-52.79,125.05-55.53a9.66,9.66,0,0,1,17.28,8.66C387,362.92,350.42,426,246.25,426Z" transform="translate(-12.54 -16.65)"/><path class="cls-14" d="M213.22,423.94c-37.56-1.87-57.42-22.17-73.78-38.45-7.67-7.63-11.94-11.65-16.86-11.74-3.22.59-16.75,7.33-24.28,14.24a9.66,9.66,0,0,1-13.09-14.22c7.86-7.23,26.49-19.35,37.2-19.35,13.2,0,24.42,6.34,30.66,17.36,10.7,18.91,24.87,13.9,26.29,24.24C181,407.75,213.22,423.94,213.22,423.94Z" transform="translate(-12.54 -16.65)"/></g><path class="cls-15" d="M246.83,426.91h0c-66,0-90.76-24.6-107.13-40.88-7.66-7.62-11.93-11.64-16.85-11.74-3.23.6-16.75,7.33-24.28,14.25a9.67,9.67,0,1,1-13.09-14.23C93.32,367.08,112,355,122.67,355c13.2,0,21.68,8.43,30.66,17.37,14.95,14.88,35.44,35.25,93.49,35.25,91.87,0,123.66-52.79,125.05-55.54a9.67,9.67,0,0,1,17.28,8.67C387.57,363.89,351,426.91,246.83,426.91Z" transform="translate(-12.54 -16.65)"/><path d="M101.66,313.87c.4,1,1,2.17,1.53,3.25s1.18,2.19,1.82,3.28a71.78,71.78,0,0,0,4.17,6.27,60.64,60.64,0,0,0,10.42,10.94,47.25,47.25,0,0,0,6.25,4.32,43.28,43.28,0,0,0,6.9,3.3,45.29,45.29,0,0,0,15.18,2.88,46.27,46.27,0,0,1-15.69-1.24,44.58,44.58,0,0,1-7.56-2.64,50.49,50.49,0,0,1-7.09-3.83A64.45,64.45,0,0,1,105.23,330a76.26,76.26,0,0,1-5.23-6.23c-.81-1.09-1.61-2.2-2.36-3.35s-1.47-2.25-2.21-3.62a3.45,3.45,0,0,1,6.06-3.29,2.72,2.72,0,0,1,.16.35Z" transform="translate(-12.54 -16.65)"/><path d="M97.89,305.09c1.84,2.54,3.94,5.12,6.06,7.56s4.39,4.83,6.76,7.06a52.79,52.79,0,0,0,7.62,6.06c2.73,1.7,5.75,3.21,9.11,3.22a13.33,13.33,0,0,1-5-.16,27.43,27.43,0,0,1-4.86-1.53,54.72,54.72,0,0,1-9-4.89,101.22,101.22,0,0,1-8.21-6c-2.65-2.16-5.18-4.35-7.71-6.8a3.45,3.45,0,0,1,4.8-5,4,4,0,0,1,.39.44Z" transform="translate(-12.54 -16.65)"/></svg>