<?xml version="1.0" encoding="utf-8"?>
<!-- Generator: Adobe Illustrator 24.0.0, SVG Export Plug-In . SVG Version: 6.00 Build 0)  -->
<svg version="1.1" id="Layer_1" xmlns="http://www.w3.org/2000/svg" xmlns:xlink="http://www.w3.org/1999/xlink" x="0px" y="0px"
	 viewBox="0 0 353 512" style="enable-background:new 0 0 353 512;" xml:space="preserve">
<style type="text/css">
	.st0{fill:#4D3827;}
	.st1{opacity:0.29;}
	.st2{fill:#6F5038;}
	.st3{fill:none;stroke:#000105;stroke-width:2.7567;stroke-linejoin:round;stroke-miterlimit:10;}
	.st4{fill:#000105;}
	.st5{fill:#ECD3B6;}
	.st6{fill:#FFFFFF;}
	.st7{fill:#ECD3B6;stroke:#000105;stroke-width:3.2918;stroke-miterlimit:10;}
	.st8{fill:none;stroke:#000105;stroke-width:2.8792;stroke-linejoin:round;stroke-miterlimit:10;}
	.st9{fill:#932724;}
	.st10{fill:#D33833;}
	.st11{fill:none;stroke:#000105;stroke-width:2.8792;stroke-linecap:round;stroke-linejoin:round;stroke-miterlimit:10;}
	.st12{fill:#F4E1CB;}
	.st13{fill:#6F5038;stroke:#000000;stroke-width:2.8792;stroke-miterlimit:10;}
	.st14{fill:#000105;stroke:#000105;stroke-width:0.9597;stroke-linecap:round;stroke-linejoin:round;stroke-miterlimit:10;}
	.st15{fill:none;stroke:#000000;stroke-width:2.8792;stroke-miterlimit:10;}
	.st16{fill:#FFFFFF;stroke:#201600;stroke-width:2.8792;stroke-linecap:round;stroke-linejoin:round;stroke-miterlimit:10;}
	.st17{fill:#FFFFFF;stroke:#201600;stroke-width:2.8792;stroke-miterlimit:10;}
	.st18{fill:#BCBCBC;}
	.st19{fill:#344151;}
	.st20{fill:#AD4C12;}
	.st21{fill:#D1591C;}
	.st22{fill:none;stroke:#000000;stroke-width:1.8342;stroke-miterlimit:10;}
	.st23{fill:none;stroke:#000000;stroke-width:1.8342;stroke-linecap:round;stroke-linejoin:round;stroke-miterlimit:10;}
	.st24{fill:#ECD3B6;stroke:#000105;stroke-width:2.8792;stroke-linecap:round;stroke-miterlimit:10;}
	.st25{fill:none;stroke:#000105;stroke-width:2.8792;stroke-miterlimit:10;}
	.st26{fill:#225231;}
	.st27{fill:#203719;}
	.st28{fill:#37854F;}
	.st29{fill:#201600;}
	.st30{fill:#95EE9F;}
	.st31{fill:none;stroke:#201600;stroke-width:3.8389;stroke-miterlimit:10;}
	.st32{fill:none;stroke:#000000;stroke-width:2.3911;stroke-miterlimit:10;}
	.st33{fill:#FFFFFF;stroke:#201600;stroke-width:2.7362;stroke-miterlimit:10;}
	.st34{opacity:0.5;fill:#E8BF4D;stroke:#000000;stroke-width:0.9597;stroke-miterlimit:10;}
	.st35{fill:#EBCB4D;}
	.st36{fill:none;stroke:#000000;stroke-width:2.8792;stroke-linecap:round;stroke-linejoin:round;stroke-miterlimit:10;}
	.st37{fill:#BF983E;}
	.st38{fill:#ECD3B6;stroke:#000000;stroke-width:2.8792;stroke-linecap:round;stroke-linejoin:round;stroke-miterlimit:10;}
	.st39{fill:none;stroke:#000000;stroke-width:2.7567;stroke-linecap:round;stroke-linejoin:round;stroke-miterlimit:10;}
</style>
<g>
	<path class="st0" d="M117.1,452.5c-1.2,15.8,5.7,25.1,5.1,33.6c-0.2,2.4-2,7.5-2,7.5s-7.9,7.5-28.5,6.6
		c-12.2-0.6-21.1-4.7-21.1-4.7s-5.6-7.6-0.7-15c2.4-3.7,1.5-2.8,5.4-7.9c6-7.6,5.9-19.6,5.4-22.3c-0.4-1.9-2.3-3.8-1.6-7.8
		c1-5.1,8-6.2,8-6.2h29.7c0,0,2.8,4.9,2.7,7C119.5,445.6,117.3,450.3,117.1,452.5z"/>
	<path class="st1" d="M91.6,455.7c-7.4,10.2-25,41.4,30.5,30.5c2.3-0.5-10,15-30.5,14.1c-12.2-0.6-21.1-4.7-21.1-4.7
		s-5.6-7.6-0.7-15c2.4-3.7,1.5-2.8,5.4-7.9c6-7.6,5.9-19.6,5.4-22.3c-0.4-1.9-2.3-3.8-1.6-7.8c1-5.1,9.8-6.2,9.8-6.2
		s-1.5,8.2-0.8,10.8C88.9,449.4,92.9,453.9,91.6,455.7z"/>
	<path class="st2" d="M122.2,485.2l-2,8.4c0,0-7.9,7.5-28.5,6.6c-12.2-0.6-21.1-4.7-21.1-4.7s-4.2-4.4-2.5-8.2
		c1-2.2,4.4,8.5,25.4,8.3C114.8,495.4,122.2,485.2,122.2,485.2z"/>
	<path class="st3" d="M117.1,452.5c-1.2,15.8,5.7,25.1,5.1,33.6c-0.2,2.4-2,7.5-2,7.5s-7.9,7.5-28.5,6.6
		c-12.2-0.6-21.1-4.7-21.1-4.7s-5.6-7.6-0.7-15c2.4-3.7,1.5-2.8,5.4-7.9c6-7.6,5.9-19.6,5.4-22.3c-0.4-1.9-2.3-3.8-1.6-7.8
		c1-5.1,8-6.2,8-6.2h29.7c0,0,2.8,4.9,2.7,7C119.5,445.6,117.2,450.3,117.1,452.5z"/>
	<g>
		<path class="st4" d="M78.4,475.8c2.9-1.6,6.1-2.6,9.3-3.2c3.3-0.6,6.6-0.8,9.9-0.5c1.7,0.1,3.3,0.4,4.9,0.8
			c1.6,0.5,3.2,0.8,4.8,1.5c3.1,1.1,6,2.9,8.5,4.9c-3.1-1-6.1-2.2-9.2-2.9c-1.5-0.4-3.1-0.7-4.6-1c-0.8-0.1-1.6-0.2-2.3-0.3
			c-0.8-0.1-1.6-0.2-2.3-0.2c-3.1-0.3-6.3-0.3-9.4-0.2C84.8,474.9,81.6,475.3,78.4,475.8z"/>
	</g>
	<path class="st3" d="M67.9,487.3c0,0,10.5,9.5,29.2,8.4c23-1.3,24.9-12.6,24.9-12.6"/>
	<g>
		<path class="st4" d="M109.6,440.6c0.7,1.2,1.1,2.7,1.3,4.2c0.1,1.5,0,3-0.2,4.4c-0.3,1.4-0.7,2.9-1.2,4.2c-0.5,1.4-1.1,2.6-1.9,4
			l-2.1-1.7c0.9-0.8,1.7-1.5,2.6-2.2c0.9-0.6,1.9-1.2,2.9-1.7c1-0.5,2.1-0.9,3.2-1.1c1.1-0.2,2.3-0.3,3.3-0.1
			c-1.1,0.3-2,0.7-2.9,1.2c-0.9,0.5-1.8,1.1-2.6,1.7c-0.8,0.6-1.6,1.3-2.4,1.9c-0.8,0.7-1.5,1.4-2.2,2.1c-0.5,0.5-1.4,0.6-1.9,0.1
			c-0.5-0.4-0.5-1.1-0.2-1.7l0-0.1c0.6-1.1,1.2-2.4,1.8-3.6c0.5-1.2,1-2.5,1.4-3.7c0.4-1.3,0.7-2.6,1-3.9
			C109.6,443.4,109.7,442,109.6,440.6z"/>
	</g>
	<g>
		<path class="st4" d="M88.4,439.7c-0.1,1.4,0,2.8,0.1,4.1c0.2,1.3,0.6,2.6,1,3.9c0.4,1.3,0.9,2.5,1.4,3.7c0.5,1.2,1.1,2.5,1.8,3.6
			l0,0.1c0.4,0.7,0.1,1.5-0.5,1.8c-0.6,0.3-1.2,0.2-1.7-0.2c-0.7-0.7-1.4-1.4-2.2-2.1c-0.8-0.7-1.6-1.3-2.4-1.9
			c-0.8-0.6-1.7-1.2-2.6-1.7c-0.9-0.5-1.9-0.9-2.9-1.2c1.1-0.2,2.2-0.1,3.3,0.1c1.1,0.2,2.2,0.6,3.2,1.1c1,0.5,2,1.1,2.9,1.7
			c0.9,0.7,1.8,1.3,2.6,2.2l-2.1,1.7c-0.8-1.3-1.4-2.6-1.9-4c-0.5-1.4-0.9-2.8-1.2-4.2c-0.2-1.5-0.3-2.9-0.2-4.4
			C87.3,442.3,87.7,440.9,88.4,439.7z"/>
	</g>
	<path class="st5" d="M90.6,369.7c0.5,2.9-1.2,3.8-2.3,6.6c-0.8,2-6.1,13-7,16c-1.2,3.9-0.5,8,0.7,12c0.8,2.7,1.9,5.3,2.9,7.9
		c0.3,0.9,0.4,2.9,1.3,3.6c0.8,0.7,3.3,1,4.4,1.2c6.8,1.5,14.1,1.5,21.2,1.4c0.6,0,1.3,0,1.9,0c1.1-5,1.6-10.2,4.7-14.8
		c2.9-4.3,0.5-7.8,2.1-12.5c2.1-6.2,6.4-14.6,7.5-19.2C115.5,371.1,103.1,370.4,90.6,369.7z"/>
	<path class="st3" d="M90.9,370.1c-2.3,0.8-4.2,6.2-5.1,8.2c-2,4.3-3.5,8.9-4.3,13.5c-1.4,8.1,1.6,14.2,3.7,21.8
		c0.2,0.7,0.4,1.5,0.9,2c0.6,0.6,1.5,0.9,2.4,1c8,1.6,16.1,2.1,24.3,1.6c0.3,0,0.6,0,0.9-0.2c0.4-0.3,0.4-0.8,0.5-1.3
		c0.3-5.1,2.8-9.8,4.2-14.6c1.5-5.2,2-10.7,3.8-15.8c1.7-4.9,5-9.2,5.7-14.4c-11.3-0.6-22.6-1.3-34-1.9c-0.7,0-1.3-0.1-2,0
		C91.5,369.9,91.2,370,90.9,370.1z"/>
	<path class="st5" d="M182.4,372.1c-0.7,2.7-1.3,5.5-2,8.2c-1.7,6.9-0.8,14.2-1.4,21.1c-0.2,2.7-0.4,5.4-0.7,8.1
		c0,0.3,0,3.9-0.3,3.9c0,0-7,1.9-12.6,1.9c-9.3,0-14.9-1.4-14.9-1.4s-4.4-9.5-4.4-16.4c0-6.9,2.4-10.9,3.1-14.3
		c0.6-3.2-1.5-12-1.5-12S182.4,372.1,182.4,372.1z"/>
	<path class="st6" d="M85.7,414.4c-2-0.7-5.5-0.2-5.5,5.3c0,2.7,4.6,8,4.6,8s-2,2.4-1.8,4.7c0.2,2.7,4.1,6.5,4.1,6.5s4.7-1.4,11-1.1
		c4.6,0.2,11,2.8,11,2.8s6-2.7,6.4-5.6c0.5-3.6-1.8-7.5-1.8-7.5s2.5-2.9,2.1-5.7c-0.7-3.9-2.5-4.9-2.5-4.9S95.6,418.1,85.7,414.4z"
		/>
	<path class="st1" d="M86.3,415c-2.1,0.3-5.5-0.2-5.5,5.3c0,2.7,4.6,8,4.6,8s-2,2.4-1.8,4.7c0.2,2.7,4.1,6.5,4.1,6.5
		s12.2-0.3,11-1.1c-6.4-4.2,0-9.6,0-9.6s-14.9-6.3-6.5-12C93.3,416,91.3,414.4,86.3,415z"/>
	<path class="st3" d="M182.4,372.1c-0.7,2.7-1.3,5.5-2,8.2c-1.7,6.9-0.8,14.2-1.4,21.1c-0.2,2.7-0.4,5.4-0.7,8.1
		c0,0.3,0,3.9-0.3,3.9c0,0-7,1.9-12.6,1.9c-9.3,0-14.9-1.4-14.9-1.4s-4.4-9.5-4.4-16.4c0-6.9,2.4-10.9,3.1-14.3
		c0.6-3.2-1.5-12-1.5-12S182.4,372.1,182.4,372.1z"/>
	<g>
		<path class="st4" d="M97.3,374.4c-0.1,1.2-0.2,2.2-0.2,3.2c0,1,0.1,1.9,0.3,2.7c0.2,0.9,0.5,1.8,0.8,2.7c0.2,0.5,0.4,0.9,0.6,1.4
			c0.2,0.5,0.5,1,0.6,1.6c-0.6-0.2-1.1-0.4-1.7-0.7c-0.5-0.3-1-0.7-1.4-1.2c-0.8-0.9-1.4-2-1.7-3.3c-0.3-1.2-0.2-2.6,0.3-3.7
			C95.4,376,96.2,375,97.3,374.4z"/>
	</g>
	<g>
		<path class="st4" d="M165.7,375.4c-0.1,1.2-0.2,2.2-0.2,3.2c0,1,0.1,1.9,0.3,2.7c0.2,0.9,0.5,1.8,0.8,2.7c0.2,0.5,0.4,0.9,0.6,1.4
			c0.2,0.5,0.5,1,0.6,1.6c-0.6-0.2-1.1-0.4-1.7-0.7c-0.5-0.3-1-0.7-1.4-1.2c-0.8-0.9-1.4-2-1.7-3.3c-0.3-1.2-0.2-2.6,0.3-3.7
			C163.8,377,164.6,376,165.7,375.4z"/>
	</g>
	<g>
		<path class="st4" d="M115.3,376.2c0.8,1,1,2.4,0.9,3.7c-0.1,1.3-0.6,2.6-1.4,3.6c-0.8,1.1-1.8,1.9-2.9,2.5
			c-0.6,0.3-1.1,0.5-1.7,0.7c-0.6,0.1-1.2,0.2-1.9,0.2c0.4-0.5,0.8-1,1.2-1.4c0.4-0.5,0.8-0.8,1.1-1.2c0.7-0.8,1.4-1.6,2-2.4
			c0.6-0.8,1.1-1.6,1.5-2.5C114.5,378.4,114.9,377.4,115.3,376.2z"/>
	</g>
	<path class="st6" d="M148.8,433.9c0.4,0.3,0.9,0.5,1.4,0.8c3.9,1.8,8.6,4,13.1,4.2c3.1,0.2,10.4-0.6,13-2.1c1.9-1,2-4.3,2.3-5.9
		c0.3-1.6,0.5-3.4,0.3-5.1c-0.3-1.9-1.2-3.9-0.7-5.8c0.3-1.3,1.3-2.5,1.7-3.8c0.8-2.5-1-4.2-4.4-3.7c-7.2,1.1-14.6,1.2-21.8,0.3
		c-2.6-0.3-6-0.6-7.4,1.1c-2.1,2.5,0.5,6.8,2.6,8.8c-0.1-0.1-2.4,3.5-2.5,3.9C145.4,429.4,146.1,432.1,148.8,433.9z"/>
	<path class="st1" d="M149.3,434.6c0.4,0.3,0.9,0.5,1.4,0.8c3.9,1.8,16.6,7.2,13.1,4.2c-8.3-7.2,2.8-16,2.8-16s-11.8-3.4-12.5-10
		c-0.3-2.6-6-0.6-7.4,1.1c-2.1,2.5,0.5,6.8,2.6,8.8c-0.1-0.1-2.4,3.5-2.5,3.9C146,430,146.7,432.7,149.3,434.6z"/>
	<path class="st7" d="M72.2,98.2c0.3-7.1-8.6-8.9-8.6-8.9l-0.4,6.4C63.2,95.7,71.9,103.3,72.2,98.2z"/>
	<path class="st7" d="M71.7,108.3c0,0,2.6-2.4,1.8-5.5c-0.9-3.1-5.8-5.9-9.7-6.3c-3.1-0.4-10.6,3.4-11.2,6.5
		C50.8,110.8,71.7,108.3,71.7,108.3z"/>
	<path class="st5" d="M182.8,263.7c2.8,9.3,14.7,20.7,14.7,20.7s2.9,7.2,5.4,8.4c6.1,2.8,13.4-2.3,13.4-2.3s10.1-1.9,19.4-14.2
		C243.9,265.6,251,237,251,237l-9.3-12.9l-2-16.6c0,0,10-8.1,7.8-17.5c-0.7-3-8.1-7.8-10.8-6.2c-6.1,3.4,0.1,8-7.8,26.9
		c-3.2,7.5,4.3,15.9,4.3,15.9l-16.3,17.9l-6.9-8.8"/>
	<path class="st8" d="M182.8,263.7c2.8,9.3,14.7,20.7,14.7,20.7s2.9,7.2,5.4,8.4c6.1,2.8,13.4-2.3,13.4-2.3s10.1-1,19.4-13.2
		c8.1-10.7,15.2-40.2,15.2-40.2s-9-10.8-10.5-15.2c-1.2-3.4-0.9-14.3-0.9-14.3s9.9-8.3,7.8-17.5c-0.8-3.4-7.4-7.3-10.8-6.2
		c-5.7,1.8,1.4,3.4-7.8,26.9c-3.2,8.2,4.4,15.9,4.4,15.9L215,248.3l-5-12.7"/>
	<path class="st6" d="M191.9,233.8c3.8-1,12-14.4,17.1-11.5c2,1.2,0.7,5.9,0.7,5.9s6.5,1.4,7,3.3c2.2,8.1-4.8,17.8-9.1,24.5
		c-2.3,3.6-8.6,17.5-26.5,18.9l2.3-13.2l8.6-16.3L191.9,233.8z"/>
	<path class="st6" d="M187.2,253.2c0,0-4.2,11.6-6.3,12.7c0,0,1.5,27-2,29.7c-7.8,6-29.2,4.1-39,3.6c-17-0.9-32.4-8.2-32.4-8.2
		s1.7-20.8-3.3-24.3c-12-8.5-21.8-24.3-21.8-24.3L71.9,255c0,0-0.2-9.3-10.6-22.8c-7.7-9.9-17.8-12.5-17.8-12.5s14.3-22,21.8-26.1
		c2.8-1.5,12.5-1.5,12.5-1.5s14.6-6.6,19.8-6.7c10.3-0.3,39.8,10.7,39.8,10.7l13.7,16.6l15.9-19.1c0,0,13.6,1,25.8,12.6
		c6,5.8,8.2,18.7,8.2,18.7"/>
	<path class="st1" d="M155.6,300.3c0.2-9.8,11.6-31.5,8.2-36.7c-3.1-4.8-18.8-5.9-22.7-1.7c-6.4,7,11.1,29.6,5.8,37.5
		c-1.5,2.2-10.8,0.1-10.8,0.1l-10.4-50.1l52.5-2c0,0,7.8,38.5,0.6,48.2C175.3,300.3,155.6,302.2,155.6,300.3z"/>
	<path class="st1" d="M90.6,369c0.5,2.9-1.2,3.8-2.3,6.6c-0.8,2-6.1,13-7,16c-1.2,3.9-0.5,8,0.7,12c0.8,2.7,1.9,5.3,2.9,7.9
		c0.3,0.9,0.4,2.9,1.3,3.6c0.8,0.7,3.3,1,4.4,1.2c6.8,1.5-10.7-15.7-1.1-31.9c2.7-4.5,34.1,0.6,35.6-4.1c2.1-6.2,1.7-4.5,2.8-9.1
		C115.5,370.4,103.1,369.7,90.6,369z"/>
	<path class="st1" d="M182.4,371.4c-0.7,2.7-0.4,3.6-1.1,6.4c-1.7,6.9-24.9,2.1-26.7,5.2c-8.6,15,3.3,30.8-2.3,30.8
		c-1.7,0-1.7-0.4-1.7-0.4s-4.4-9.5-4.4-16.4c0-6.9,2.4-10.9,3.1-14.3c0.6-3.2-1.5-12-1.5-12S182.4,371.4,182.4,371.4z"/>
	<path class="st1" d="M91.3,229.9c0,0-1.7,7-7.9,10.5c-3.4,1.9,7.9,14.8,7.9,14.8s11.8,8.2,14.3,14.3c2,4.9,3.9,15.7,3.5,21
		c0,0,5,3.6,5,3.6c0.8-11.5,4.9-28-4.6-32.9C93.5,252.9,91.3,229.9,91.3,229.9z"/>
	<path class="st2" d="M82.8,193.2c0,0,9.9,13.1,13.5,17.8c24.8,32.3,22.6,80.3,28.8,86.6c2.4,2.5,13.8,2.6,13.8,2.6
		s-5.8-80.1-28.4-94.2c-6.2-3.9-17.6-17.5-17.6-17.5s-4.8-0.3-6.2,0.4C85.4,189.5,82.8,193.2,82.8,193.2z"/>
	<path class="st2" d="M96.5,378.3c23.1,4,35.3-4.1,35.3-4.1l9.1-35l-1.1,33.5c0,0,11.2,5.2,28.2,5.2c10.9,0,19-6.7,19-6.7l-9-57.1
		c0,0,4.4-3.2,4.3-4.8s-4.8-4.3-4.8-4.3l1.5-9c0,0-6.8,6.8-44.3,3.7c-22.8-1.9-35.2-7.4-35.2-7.4l-13,48.1l-10.3,30.7
		C76.2,371.2,84.3,376.2,96.5,378.3z"/>
	<path class="st1" d="M147.9,347.6c0-8.3,4.2-7,4.2-7s0-1.4-1.4-2.8c-1.7-1.7-8.5-6.3-8.5-6.3l-0.4,18.6c-0.1,4.8-1.5,21.9-1.5,21.9
		l8.2,3.4C148.5,375.4,147.9,355.2,147.9,347.6z"/>
	<path class="st1" d="M178,314.3c0,0,8.5,44.9,8.5,55.8c0,2-4.2,3.8-4.2,3.8l-5.3-59.5L178,314.3z"/>
	<path class="st3" d="M96.5,378.4c23.1,4,35.3-4.1,35.3-4.1l9.1-35l-1.1,33.5c0,0,11.2,5.2,28.2,5.2c10.9,0,19-6.7,19-6.7l-9-57.1
		c0,0,4.4-3.2,4.3-4.8s-4.8-4.3-4.8-4.3l1.5-9c0,0-6.8,6.8-44.3,3.7c-22.8-1.9-35.2-7.4-35.2-7.4l-13,48.1l-10.3,30.7
		C76.2,371.3,84.3,376.3,96.5,378.4z"/>
	<path class="st2" d="M160.8,300.1c0,0,8-0.1,10.1-2.6c3.5-4.2,20.7-56.9,7.8-91.6c-2.3-6.1-6.7-7.9-6.7-7.9l-14.8-5.3
		c0,0,3.6,7,7.3,18.1C176.9,248.3,160.8,300.1,160.8,300.1z"/>
	<g>
		<path class="st9" d="M107.4,292.5c1,1.4,2.3,2.4,3.7,3.3c0.7,0.4,1.4,0.9,2.1,1.3c0.7,0.4,1.5,0.8,2.2,1.1c3,1.4,6.1,2.5,9.2,3.5
			c6.3,2,12.7,3.4,19.2,4.2c6.5,0.8,13.1,1.1,19.4,0c3.2-0.6,6.3-1.5,9-3.1c2.8-1.6,5.1-4,6.7-7c-0.7,3.3-2.8,6.3-5.6,8.5
			c-2.8,2.2-6.1,3.6-9.4,4.5c-6.8,1.7-13.8,1.7-20.5,0.8c-6.8-0.9-13.4-2.6-19.7-5.2c-3.2-1.3-6.2-2.8-9.1-4.7
			c-0.7-0.5-1.4-1-2.1-1.5c-0.7-0.5-1.3-1.1-2-1.7C109.2,295.4,108,294.1,107.4,292.5z"/>
	</g>
	<g>
		<path class="st10" d="M107.4,292.5c2.7,1.7,5.6,2.8,8.6,3.8c3,1,6,1.8,9.1,2.5c6.1,1.4,12.3,2.5,18.5,3.2
			c6.2,0.7,12.4,1.1,18.6,0.6c3.1-0.3,6.1-0.7,9-1.7c2.9-1,5.6-2.5,7.7-5c-1.3,3-4,5.2-6.9,6.8c-3,1.5-6.2,2.4-9.4,3
			c-6.5,1.1-13,1-19.4,0.2c-6.4-0.8-12.7-2.1-18.9-4.2c-3.1-1-6.1-2.2-9-3.6C112.5,296.5,109.6,294.9,107.4,292.5z"/>
	</g>
	<g>
		<path class="st9" d="M84.8,188.9c2.4,1.1,4.7,2.4,6.8,3.9c2.2,1.5,4.3,3.1,6.3,4.8c4,3.5,7.6,7.3,10.9,11.5
			c3.3,4.2,6.1,8.7,8.7,13.3c2.5,4.7,4.6,9.6,6.4,14.6c1.8,5,3.2,10.1,4.3,15.3c0.5,2.6,1,5.2,1.4,7.8c0.2,1.3,0.4,2.6,0.6,3.9
			l0.4,3.9c0.9,10.5,0.7,21.1-0.7,31.5c-0.2-10.5-0.8-20.9-2.3-31.1c-1.5-10.2-3.7-20.4-7.2-30c-3.4-9.7-8.1-18.9-13.9-27.4
			c-3-4.2-6.2-8.2-9.8-11.9c-1.8-1.9-3.7-3.7-5.6-5.4C89,191.9,87,190.3,84.8,188.9z"/>
	</g>
	<path class="st1" d="M140.4,295.5c-8.6-5.6-20.1-5.7-29.4-2c-1.1,0.4-2.1,0.9-3.1,1.4l-8.4-2.5c-0.2,2.9-0.8,6.5-1.7,10.3
		c-2.1,2.4-3.9,5-5.2,7.9c-3.1,6.5-3.9,14-3.3,21.2c-1,3.3-2,6.3-2.7,8.8c-0.4,1.4-9.4,30.7-9.4,30.7l9.3,4.5l6.1-30.3
		c2.6,6.4,6.8,12,12.7,15.2c1.2,0.6,2.4,1.2,3.7,1.6c3.7,1.3,7.9,1.8,11.6,1.6c4-0.2,7.5-1.3,10.4-3.4c-2.8,8.7-4.8,16.2-4.8,16.2
		l6.1-2.5l5.4-23.3c0-0.1,0-0.1,0.1-0.2c0.3-0.9,0.5-1.8,0.6-2.7l2.5-11c0,0,0.2-0.7,0.1-0.5c-0.6,0.8-1.3,1.9-2,3.3
		c0-0.6,0-1.2,0-1.8c0-0.6,0-1.2,0.2-1.7c0.3-0.6,0.9-1,1.5-1.4c4.3-2.6,8.2-6.2,10.3-10.8C155.4,313.8,149.4,301.3,140.4,295.5z
		 M118.2,320.9c-1.4,0.1-2.9,0.3-4.3,0.7c0.7-1.8,1.2-3.3,1.5-4.4c0.3-0.9,0.4-1.7,0.6-2.5C116.9,318.1,117.9,320.9,118.2,320.9z
		 M114.3,302.4c0.4-0.2,1.8-1.2,2.2-1.2c0.4,0.1-1.1,1.4-1.4,5.2c-0.5-1.2-1.2-2.3-1.9-3.4C113.5,302.9,113.9,302.6,114.3,302.4z
		 M123.1,352.1c-10.4,4.4-18.2-5.6-18.2-5.6s2.5-1.8,3.7-4.3c2.1-4.6,2.9-8.7,5-10.5c2.6-2.1,8.6-1.9,12.5,0.9
		C131.8,336.7,134.9,347.1,123.1,352.1z M135.8,326.5c-2.5-3.1-6.4-4.5-10.3-5.1c-1.1-3.3-1.5-6.9-1.1-10.4c0.5-4,1.9-7.9,3.1-11.8
		c0,0,0.1,0,0.1,0c1.1,0,13.4,4.3,14.5,14.8C142.5,319.2,136.2,327.1,135.8,326.5z"/>
	<g>
		<path class="st10" d="M84.4,189c4.4,2.7,8.3,6.2,12,9.9c3.6,3.7,7,7.7,10.1,11.9c3.1,4.2,5.8,8.7,8.3,13.3
			c2.5,4.6,4.6,9.4,6.5,14.2c1.8,4.9,3.4,9.9,4.7,14.9c1.2,5.1,2.3,10.2,2.9,15.3c1.3,10.3,1.6,20.7,0.6,31
			c-0.6-10.3-1.7-20.5-3.6-30.6c-1.9-10-4.6-19.9-8.2-29.4c-1.8-4.8-3.9-9.4-6.1-13.9c-2.2-4.6-4.8-9-7.5-13.3
			c-2.8-4.3-5.8-8.4-9-12.3C91.8,196.2,88.3,192.4,84.4,189z"/>
	</g>
	<path class="st1" d="M57.5,217.6c-5.3-11.7,22.2-19.2,22.2-19.2l6.1-2.2c0,0-1.9-4.2-6.8-4.5c-13-0.9-21.8,7.3-26.3,13.2
		c-1.9,2.6-6.5,11-6.5,11l27.9,34.2l6.7-4.8c0,0-11.2-14.8-14.8-19C63.1,222.9,57.9,218.5,57.5,217.6z"/>
	<path class="st1" d="M130.4,209.9c-2.5,2.1-5.1,4.1-7.6,6.2c-10.3-9.7-21.5-19.7-33.7-27.2c0.3,2.4,3,5.7,4.3,8
		c1.7,2.9,3.4,5.8,5.1,8.7c3.4,5.6,6.8,11.2,10.3,16.7c1.7,2.6,3.4,5.3,5.7,7.3c3.3-5.7,9.9-8.8,16.5-9.1c6.5-0.3,13,1.9,18.9,4.8
		C143.4,220.1,136.9,215,130.4,209.9z"/>
	<path class="st11" d="M180.9,266.2c0,0,1.5,27-2,29.7c-7.8,6-29.2,4.1-39,3.6c-17-0.9-32.4-8.2-32.4-8.2s1.8-20.9-3.3-24.3
		c-10.4-7.1-21.8-24.3-21.8-24.3l-10.6,12.6c0,0-0.2-9.3-10.6-22.8c-7.7-9.9-17.8-12.5-17.8-12.5s14.3-22,21.8-26.1
		c2.8-1.5,12.5-1.5,12.5-1.5s14.6-6.6,19.8-6.7c10.3-0.3,39.8,10.7,39.8,10.7l13.7,16.6l13-19.1c0,0,16.5,1,28.6,12.6
		c6,5.8,8.2,18.7,8.2,18.7"/>
	<path class="st5" d="M32.2,234.5c-4.4,5.9-7.5,11.5-7.9,16.1c-0.8,9.2,14.3,28.7,20.8,35.9c6.1,6.8,19.2,16.5,24.2,23.3
		c3.3,4.5,6.1,15.1,11.6,20c3.1,2.8,10.8,7.9,14.9,7.3c2.6-0.3,5.8-6.6,5.8-6.6s2.6,0.1,4.1-0.3c5.1-1.3,5.5-10.7,5.5-10.7
		s5.7-2.9,6.9-5.6c1.8-4.2,1.4-9,0.3-11.4c-1.1-2.7-8.7-7.7-8.7-7.7s2.1-7.8-13.1-10.1c-1.4-0.2-2.8,0.1-4,0.9
		c-4.9,3.4-5.8,6.6-5.8,6.6s-8.9-20-11.8-24.1c-2.8-3.9-10.8-7.6-10.8-7.6"/>
	<path class="st5" d="M150.9,209.9c7.9-24.5,2.2-21.3,2.2-21.3c14.5-6,24.2-26.3,26.6-33.6c9.1-27.9,5-50,2.5-58.4
		c-4.2-14.3-17.5-20.8-36.6-18.2c-38.6,5.1-36.9,17.4-49.4,22.6c-2.6,1.1-8.8,2.7-11.3,4.1c-4.6,2.6-12.5,13.4-12.5,13.4
		c-5.7-4.8-16.9,0-19.4,6.4c-2.5,6.4,1,15.5,4.8,20.8c14.7,20.4,25.3,10.5,25.3,10.5s2,8.1,4.5,14.1c3.5,8.6,7.2,16.1,7.2,16.1
		l54,38L150.9,209.9z"/>
	<g>
		<path id="path100_2_" class="st4" d="M126.8,95.7c-12.5-3.2-19,4.8-23,13.2c-3.4-0.9-1.9-5.5-1-7.9c2.4-6.1,11.7-14.2,19.1-12.9
			C125,88.7,129.3,91.8,126.8,95.7"/>
		<path id="path100_1_" class="st4" d="M155.3,91.7c12.4-8.3,21.2-0.1,26.1,4.9c2.9-2,0-5.8-1.7-7.7c-4.3-5-15.7-9.5-22.3-5.9
			C154.7,84.5,151.7,88.8,155.3,91.7"/>
		<path id="path44_1_" class="st12" d="M126.5,107.6c0,0-7.9,1.2-7.8,6.2c0.1,5,9,4.5,11.5,2.3"/>
		<path id="path104_2_" class="st4" d="M125.1,102.2c1.5,2.2,2.3,4.8,3.7,7c1.4,2.3,3.3,4.2,5.2,6c0.8,0.7,1.5,1.5,2,2.5
			c1.6,3.2-1.5,6.1-4.2,7.2c-3,1.2-6.5,1.2-9.6,0.6c-1.2-0.2-2.5-0.6-3.5-1.4c-1.4-1.2-1.2-3-0.4-4.5c0.7-1.3,5.5,0.3,6.6,0.5
			c2.3,0.2,5.2,0,6.8-1.8C128.9,114.5,123.8,107,125.1,102.2"/>
		<path id="path106_1_" class="st4" d="M141.6,154.9c-3.6-0.5-5.7-7.7-3.3-11.4c1.6,2.3,1,6.8,5,7.2c7.4,0.7,15.4-4.4,19.4-8.3
			c6.5-6.4,0.9-8-2.4-11.1c-7-6.5-15.8-14.8-16.4-25.8c2.3-2,2.5,1.5,3.3,3.3c6.6,15,21.9,23.9,23,25.6c1.7,2.6,0.5,4.5-0.6,6.2
			C165.5,147.5,149.4,155.9,141.6,154.9z"/>
		<path id="path110_1_" class="st2" d="M174.8,147.9c-3.1,7.3-7.8,15.4-18.5,16.5c-0.4-2.2-0.8-5.7-0.5-7.1
			C163.9,155.9,168.7,151.3,174.8,147.9"/>
		<path id="path112_1_" class="st2" d="M123.4,156.4c7.2,3.1,19.9,2.5,29.2,1.5c0.7,2,0.8,4.5,1.1,7
			C141.6,166.5,127.2,164.6,123.4,156.4"/>
		<path id="path114_1_" class="st4" d="M123,160.8c5.7,11.6,22,9,35.7,7.6c-0.5,1.6-1.7,3.5-3.3,4.3c-4.3,2.1-16.4,4.4-22.8,1.7
			c-4.1-1.8-6.9-6.3-9.3-8.8C122.3,164.2,116.9,161.3,123,160.8"/>
		<path class="st13" d="M72.5,118.4c0,0,5.9,3.5,7.8,7.7c2.2,4.9,0.9,10.4,3,13.3c1.2,1.6,10.5-5.1,9.9-9.3
			c-0.5-3.4-2.3-1.7-5.2-11.8c-1.1-3.7,1.2-14.7-1.7-13.1C79.3,108.9,72.5,118.4,72.5,118.4z"/>
		<path id="path42_1_" class="st12" d="M168.7,103.4c0,0-7.6-0.4-7.1,4.8c0.6,5.2,9.7,4,10.7,3.5"/>
		<path id="path104_1_" class="st4" d="M167.1,98.9c1.3,2,2.1,4.3,3.3,6.3c1.2,2,3,3.7,4.6,5.4c0.7,0.7,1.4,1.4,1.8,2.2
			c1.4,2.8-1.4,5.5-3.8,6.4c-2.7,1.1-5.8,1.1-8.6,0.6c-1.1-0.2-2.3-0.5-3.1-1.3c-1.2-1.1-1-2.7-0.3-4c0.6-1.1,4.9,0.3,5.9,0.4
			c2,0.2,4.6,0,6.1-1.6C170.5,109.9,166,103.2,167.1,98.9"/>
		<path id="path40_1_" class="st12" d="M137.7,144.4c0,0,2.3-9.7,4.9-8.5c2.5,1.2,2.1,3.8,2.1,3.8S137.6,142.9,137.7,144.4"/>
		<path id="path132_2_" class="st12" d="M116.2,157.8c0.5-0.5,3-1,6,1.1c0,0-4,0-4.7,6.6l-1.6-0.6
			C116,164.9,115.3,158.8,116.2,157.8"/>
		<path id="path132_1_" class="st12" d="M53.9,121.8c1.2-1.4,11.5-6.4,18.2-1c0,0-21.7-0.8-9.5,26.9c0,0-6.9-5-8.6-10.4
			c-0.8-2.5-3.2-7.9-0.9-10.4L53.9,121.8z"/>
		<path class="st14" d="M58.8,131.6c0,0-0.6-5.9,5.4-6.5c14.4-1.5,10.2,17.5,10.2,17.5s0-9-3.6-10c-5.7-1.6-6.5,2.3-6.5,2.3
			s-1.2-0.9-0.1-3c1.2-2.1,3.9-1.1,3.9-1.1s-0.3-2.7-4.6-3.1C60.2,127.5,58.8,131.6,58.8,131.6z"/>
		<g>
			<path class="st4" d="M83.1,148.4c0.7,1.1,1.1,2.5,1.3,3.9c0.1,0.7,0.2,1.4,0.2,2.1c0,0.7,0,1.4-0.1,2.2l-2.7-0.9
				c0.3-0.5,0.5-1.1,0.7-1.6c0.2-0.6,0.4-1.2,0.5-1.8C83.2,151,83.3,149.7,83.1,148.4z"/>
		</g>
	</g>
	<path class="st11" d="M46.3,217.6c-11,11.5-21.1,24.4-21.9,33c-0.8,9.2,8.6,25.2,20.9,38c13.2,13.6,19.1,14.5,24,21.2"/>
	<path class="st11" d="M153.1,188.6c14.5-6,24-26.3,26.6-33.6c9.1-25,5-51.5,2.5-59.4c-4.5-14.2-17.5-19.8-36.6-17.3
		c-38.6,5.1-36.9,17.4-49.4,22.6c-2.6,1.1-8.8,2.7-11.3,4.1c-4.6,2.6-12.5,13.4-12.5,13.4c-5.7-4.8-16.9,0-19.4,6.4
		c-2.5,6.4,1,15.5,4.8,20.8c14.7,20.4,25.3,10.5,25.3,10.5s2,8.1,4.5,14.1c3.5,8.6,7.2,16.1,7.2,16.1"/>
	<path class="st11" d="M86.9,292.2c0,0-7.3-18.1-12-24.3c-5.4-7.2-10.7-7.4-10.7-7.4"/>
	<g>
		<path class="st9" d="M166.3,195c0.9,0.7,1.6,1.5,2.3,2.4c0.3,0.5,0.7,0.9,1,1.4l0.8,1.5c0.6,1,1,2,1.5,3c0.5,1,0.8,2.1,1.2,3.1
			c0.8,2.1,1.3,4.3,1.8,6.5c0.3,1.1,0.4,2.2,0.6,3.3l0.5,3.3c0.3,2.2,0.5,4.4,0.6,6.7c0.1,1.1,0.1,2.2,0.1,3.3l0.1,3.3
			c0,1.1,0.1,2.2,0,3.3l-0.1,3.3c-0.1,2.2-0.1,4.4-0.3,6.7l-0.7,6.6l-0.3,3.3c-0.1,1.1-0.3,2.2-0.5,3.3l-1.1,6.6
			c-0.2,1.1-0.3,2.2-0.5,3.3l-0.7,3.2c-1,4.3-1.8,8.7-3,12.9c-1.2,4.3-2.4,8.5-3.8,12.7c0.5-4.4,1.2-8.7,1.9-13.1
			c0.4-2.2,0.7-4.3,1-6.5c0.3-2.2,0.6-4.3,0.9-6.5c1.2-8.7,2.2-17.4,3-26.1c0.2-2.2,0.3-4.4,0.4-6.5l0.2-3.3c0.1-1.1,0-2.2,0-3.3
			l0-3.3c0-1.1,0.1-2.2,0-3.3l-0.3-6.5c-0.2-2.1-0.4-4.3-0.7-6.5c-0.3-2.1-0.6-4.3-1.2-6.4c-0.2-1.1-0.4-2.1-0.8-3.1
			c-0.3-1-0.6-2.1-1-3.1l-0.6-1.5c-0.2-0.5-0.5-1-0.7-1.5C167.6,196.7,167,195.8,166.3,195z"/>
	</g>
	<g>
		<path class="st10" d="M166,195.1c0.5,0.3,0.9,0.7,1.3,1.1l1.2,1.2c0.8,0.8,1.5,1.7,2.2,2.6c0.6,0.9,1.3,1.9,1.9,2.8l1.7,3
			c1.9,4.1,3.6,8.5,4.5,12.9l0.7,3.4c0.1,0.6,0.2,1.1,0.3,1.7l0.2,1.7c0.2,2.3,0.6,4.5,0.6,6.8c0.1,2.3,0.1,4.6,0.1,6.8l-0.4,6.8
			c-0.1,2.3-0.5,4.5-0.8,6.8c-0.3,2.2-0.6,4.5-1,6.7l-1.5,6.6l-0.8,3.3l-0.4,1.6l-0.5,1.6c-1.3,4.3-2.6,8.7-4.2,12.9
			c-1.7,4.2-3.3,8.4-5.1,12.5c1-4.4,2.2-8.7,3.3-13l0.4-1.6l0.4-1.6l0.7-3.3c0.5-2.2,1-4.3,1.5-6.5l0.4-1.6l0.3-1.6l0.6-3.3l1.2-6.6
			l0.9-6.6c0.3-2.2,0.6-4.4,0.7-6.6l0.5-6.6c0-2.2,0-4.4,0-6.6c0.1-2.2-0.2-4.4-0.3-6.6c-0.1-1.1-0.1-2.2-0.3-3.3l-0.5-3.3
			c-0.6-4.4-1.8-8.6-3.3-12.8l-1.3-3.1c-0.5-1-1-2-1.5-3C168.7,198.7,167.5,196.7,166,195.1z"/>
	</g>
	<path class="st1" d="M167.7,196.2l-7.9,6.7c0,0-9,21.2-9,21.2c2.8-5.1,6.4-11,12.7-11.7c4.2-0.5,9.2,2.5,13.1,3.9
		C176.7,204.5,167.7,196.2,167.7,196.2z"/>
	<path class="st15" d="M82.8,192.3c0,0,9.9,13.1,13.5,17.8c24.8,32.3,22.6,80.3,28.8,86.6c2.4,2.5,13.8,2.6,13.8,2.6
		s-5.8-80.1-28.4-94.2c-6.2-3.9-17.6-17.5-17.6-17.5s-4.8-0.3-6.2,0.4C85.4,188.5,82.8,192.3,82.8,192.3z"/>
	<path class="st15" d="M160.8,299.2c0,0,8-0.1,10.1-2.6c3.5-4.2,20.7-56.9,7.8-91.6c-2.3-6.1-6.7-7.9-6.7-7.9l-14.8-5.3
		c0,0,3.6,7,7.3,18.1C176.9,247.3,160.8,299.2,160.8,299.2z"/>
	<path class="st2" d="M115.7,248.4c-2.7,2.2,16.6,6.8,16.6,6.8l36.5-0.3c0,0,16-5.1,13.6-7.1C168,235.3,128.3,237.8,115.7,248.4z"/>
	<path class="st15" d="M115.7,248.4c-2.7,2.2,16.6,6.8,16.6,6.8l36.5-0.3c0,0,16-5.1,13.6-7.1C168,235.3,128.3,237.8,115.7,248.4z"
		/>
	<g>
		<path class="st4" d="M106.6,177.3c1.6,1.3,3.4,2.4,5.2,3.3c1.8,0.9,3.7,1.7,5.7,2.5c1.9,0.8,3.9,1.5,5.7,2.3
			c1.9,0.8,3.8,1.4,5.8,2c3.9,1.1,8,1.8,12,1.9c4,0.1,8-0.4,11.5-2l1.1,2.7c-4.1,1.6-8.6,1.9-12.8,1.5c-4.2-0.3-8.3-1.3-12.3-2.6
			c-2-0.7-3.9-1.4-5.8-2.3c-1.9-0.9-3.7-1.8-5.6-2.7c-1.9-0.9-3.7-1.8-5.5-2.9C109.9,179.9,108.1,178.7,106.6,177.3z"/>
	</g>
	<path class="st16" d="M115.6,222.2c0,0-4.6-8-10.6-15c-3.8-4.5-14.2-18.6-14.2-18.6l2-6.2c0,0,7.2,7.2,23.2,13
		c7.4,2.6,18.8,6.7,18.8,6.7l14,22.3L130,209.7L115.6,222.2z"/>
	<path class="st17" d="M40.9,216.5c-2.4,1-1.7,6.3-1.7,6.3s-7.3,0.6-8.1,2.6c-3.6,8.5,9.3,21,14,26c4.4,4.6,17.1,12,23.1,9.8
		c1.3-0.5,2.1-3.1,2.1-3.1s2.3-0.4,4-2.3c3.9-4.4-5.4-15.9-14-26C53.6,221.9,46.9,214.1,40.9,216.5z"/>
	<path class="st18" d="M70.3,258.1l-2.9,3.4c0,0-3.2-1-3.4-5.1c-0.1-2.1-0.3-4.1-0.3-4.1L70.3,258.1z"/>
	<path class="st18" d="M35,223.2c0,0-1,3,2.4,6c4.4,3.9,10.5,3.5,10.5,3.5s-2.1,0.1-6.6-5.8c-0.8-1.1-1.7-3.9-1.7-3.9L35,223.2z"/>
	<g>
		<path class="st4" d="M40.5,222.6c0.2,1,0.6,2,1,3c0.4,1,0.9,2,1.5,2.9c0.6,0.9,1.3,1.8,2.1,2.5c0.8,0.7,1.8,1.3,2.9,1.8
			c-1.1-0.2-2.3-0.6-3.3-1.2c-1-0.6-2-1.3-2.8-2.2c-0.8-0.9-1.6-1.8-2.3-2.8c-0.7-1-1.3-2-1.8-3.2L40.5,222.6z"/>
	</g>
	<path class="st8" d="M40.9,216.5c-2.4,1-1.7,6.3-1.7,6.3s-7.3,0.6-8.1,2.6c-3.6,8.5,7.5,20.2,14,26c4.8,4.2,17.1,12,23.1,9.8
		c1.3-0.5,2.1-3.1,2.1-3.1s2.3-0.4,4-2.3c3.9-4.4-5.4-15.9-14-26C53.6,221.9,46.9,214.1,40.9,216.5z"/>
	<g>
		<path class="st19" d="M151.2,337c-0.4-2.2-3.9-8.3-8.2-9"/>
		<path class="st4" d="M151.2,337c-0.8-0.9-1.5-1.6-2.2-2.4c-0.7-0.8-1.3-1.5-1.9-2.3c-0.6-0.7-1.2-1.5-1.9-2.2
			c-0.6-0.7-1.3-1.4-2.2-2.2c1.2-0.4,2.4-0.1,3.5,0.4c1.1,0.5,2,1.3,2.7,2.2c0.7,0.9,1.3,1.9,1.7,3
			C151.3,334.7,151.5,335.8,151.2,337z"/>
	</g>
	<g>
		<path class="st4" d="M135.5,333.1c1.7-0.8,3.5-1.2,5.4-1.3c1.9-0.1,3.8,0.1,5.7,0.8c1.8,0.6,3.6,1.7,4.9,3.2
			c0.6,0.7,1.2,1.6,1.5,2.5c0.2,0.5,0.3,0.9,0.4,1.4c0,0.2,0.1,0.5,0.1,0.7l0,0.2l0,0.1l0,0c0,0,0,0,0,0c0,0,0,0-0.1,0.1
			c-0.2,0-0.1,0-0.1,0l0,0c0,0,0,0,0,0c0,0,0,0,0-0.1c0-0.1,0-0.2,0-0.4c0.1,0.1,0.1,0.2,0.2,0.3c0,0,0,0,0,0c0,0,0,0,0,0l0,0
			c0,0,0,0-0.1,0c-0.1,0.1-0.1,0.1-0.1,0.1c0,0,0,0,0,0c0,0,0,0,0,0l0,0l-0.1-0.1c-0.1-0.2-0.2-0.4-0.4-0.5c-0.3-0.3-0.5-0.7-0.9-1
			c-0.6-0.6-1.2-1.2-1.9-1.6c-1.3-1-2.8-1.7-4.3-2.2c-1.5-0.5-3.2-0.9-4.8-1.2C139.1,333.7,137.4,333.5,135.5,333.1z"/>
	</g>
	<g>
		<path class="st4" d="M69.7,259.4c-0.8-0.5-1.4-1-2-1.5c-0.6-0.5-1.1-1.1-1.7-1.7c-0.5-0.6-1-1.2-1.4-1.9c-0.4-0.6-0.7-1.3-1-2
			c0.5,0.6,1,1.1,1.6,1.6c0.6,0.5,1.1,0.9,1.8,1.3c0.6,0.4,1.2,0.7,1.9,1c0.6,0.3,1.3,0.5,1.9,0.7L69.7,259.4z"/>
	</g>
	<g>
		<path class="st20" d="M107.9,356c1.2,0.6,2.4,1.2,3.7,1.6c3.7,1.3,7.9,1.8,11.6,1.6c8.4-0.3,14.8-5,17.1-13.2
			c1.2-4.1,1.3-8.5,1.2-12.8c0-0.6,0-1.2,0.2-1.7c0.3-0.6,0.9-1,1.5-1.4c4.3-2.6,8.2-6.2,10.3-10.8c4.6-10.4-1.5-22.8-10.4-28.6
			c-8.6-5.6-20.1-5.7-29.4-2c-8,3.1-14.8,9.3-18.5,17.1c-3.4,7.1-4,15.3-3.1,23.1C93.5,339.7,98.4,350.8,107.9,356z M130.2,294.3
			C130.2,294.3,130.3,294.3,130.2,294.3c1.2,0,13.5,4.2,14.5,14.8c0.5,5.3-5.7,13.2-6.2,12.6c-2.5-3.1-6.4-4.5-10.3-5.1
			c-1.1-3.3-1.5-6.9-1.1-10.4C127.6,302.1,129.1,298.2,130.2,294.3z M102.5,316.1c0.7-3.7,1.9-7.4,4.2-10.4c0.7-1,1.6-1.9,2.5-2.8
			c2.3-2.1,5-3.8,7.8-5.3c0.4-0.2,1.8-1.2,2.2-1.2c0.6,0.1-1.5,2.7-0.6,12.6c0.1,1.3,0.5,2.5,0.9,3.7c0.1,0.4,1.1,3.4,1.4,3.4
			c-3.8,0.2-7.5,1.6-10.7,3.6c-3.2,2.1-6,4.8-8.5,7.7C101.8,323.7,101.9,319.9,102.5,316.1z M107.6,341.7c0,0,2.5-1.8,3.7-4.3
			c2.1-4.6,2.9-8.7,5-10.5c2.6-2.1,8.6-1.9,12.5,0.9c5.7,4.1,8.8,14.5-3,19.5C115.5,351.8,107.6,341.7,107.6,341.7z"/>
		<g>
			<path class="st21" d="M132.3,329.6c2-0.4,3.8-1.1,5.5-2.1c1.7-1,3.3-2.2,4.6-3.5c1.4-1.4,2.5-2.9,3.5-4.6c1-1.7,1.8-3.4,2.3-5.2
				c0.9-3.6,0.2-7.5-1.6-10.7c-1.8-3.3-4.4-6.1-7.5-8.2c-3.1-2.1-6.6-3.7-10.2-3.9c-3.7-0.3-7.4,0.4-10.9,1.8
				c-7,2.7-13.2,7.9-16.7,14.4c-1.7,3.2-2.5,7-2.8,10.8c-0.3,3.8-0.2,7.7,0.3,11.5c0.5,3.8,1.3,7.6,2.7,11.1
				c1.4,3.5,3.7,6.5,6.7,8.6c3,2.1,6.7,3.3,10.5,3.6c1.9,0.2,3.8,0.2,5.7-0.1c1.9-0.3,3.7-0.9,5.4-1.7c1.7-0.8,3.2-2,4.4-3.4
				c1.2-1.4,2.1-3.2,2.5-5c0.5-1.9,0.6-3.8,0.4-5.8c-0.2-2-0.6-3.9-1.3-5.8c1.7,3.6,2.6,7.7,1.9,11.7c-0.3,2-1.2,4-2.4,5.7
				c-1.2,1.7-2.9,3.1-4.7,4.1c-1.8,1.1-3.8,1.8-5.8,2.2c-2.1,0.4-4.2,0.5-6.2,0.4c-4.1-0.2-8.3-1.3-11.9-3.7
				c-1.8-1.2-3.4-2.6-4.8-4.2c-1.4-1.7-2.4-3.5-3.3-5.4c-1.7-3.8-2.6-7.9-3.2-11.9c-0.6-4-0.8-8.1-0.5-12.3
				c0.4-4.1,1.2-8.3,3.1-12.1c2-3.8,4.8-7,8-9.7c3.2-2.7,6.8-4.8,10.7-6.3c3.9-1.5,8.2-2.2,12.5-1.7c2.1,0.2,4.3,0.8,6.2,1.6
				c1.9,0.8,3.8,1.9,5.4,3.2c3.3,2.5,6.2,5.7,8,9.5c0.9,1.9,1.5,4,1.8,6.1c0.2,2.1,0,4.3-0.6,6.3c-0.3,1-0.7,2-1.2,2.9
				c-0.5,0.9-1,1.8-1.6,2.6c-1.2,1.7-2.5,3.2-4.1,4.6C140.1,327.4,136.2,329.2,132.3,329.6z"/>
		</g>
		<path class="st22" d="M111.6,357.6c-1.3-0.4-2.5-1-3.7-1.6c-9.5-5.2-14.5-16.3-15.8-27c-0.9-7.8-0.3-16,3.1-23.1
			c3.7-7.8,10.5-13.9,18.5-17.1c9.4-3.7,20.8-3.6,29.4,2c9,5.8,15,18.3,10.4,28.6c-2,4.6-5.9,8.2-10.3,10.8
			c-0.6,0.4-1.2,0.7-1.5,1.4c-0.3,0.5-0.2,1.1-0.2,1.7c0.1,4.3,0,8.7-1.2,12.8c-2.3,8.2-8.7,12.9-17.1,13.2
			C119.5,359.4,115.3,358.9,111.6,357.6z"/>
		<path class="st23" d="M121,316.2c-0.3,0-1.4-3.4-2.4-7.1c-2.5-9.6,1.2-12.5,0.6-12.6c-0.4-0.1-1.8,0.9-2.2,1.2
			c-2.8,1.5-5.5,3.1-7.8,5.3c-0.9,0.8-1.8,1.8-2.5,2.8c-2.3,3-3.6,6.7-4.2,10.4c-0.7,3.7-0.7,7.5-0.8,11.3c2.5-2.9,5.3-5.6,8.5-7.7
			C113.4,317.8,117.1,316.3,121,316.2z"/>
		<path class="st22" d="M138.5,321.7c0.5,0.6,6.7-7.3,6.2-12.6c-1-10.6-13.4-14.8-14.5-14.8c0,0-0.1,0-0.1,0
			c-1.1,3.9-2.6,7.8-3.1,11.8c-0.4,3.5,0,7.1,1.1,10.4C132.1,317.2,136.1,318.7,138.5,321.7z"/>
		<path class="st22" d="M107.6,341.7c0,0,2.5-1.8,3.7-4.3c2.1-4.6,2.9-8.7,5-10.5c2.6-2.1,8.6-1.9,12.5,0.9c5.7,4.1,8.8,14.5-3,19.5
			C115.5,351.8,107.6,341.7,107.6,341.7z"/>
		<path class="st23" d="M101.7,327.5c-2.5,3-3.8,8.6-1.5,12.1c1.8,2.7,4.6,3.2,7.4,2.2"/>
		<g>
			<path class="st21" d="M123.8,296c-0.6,0.7-1.1,1.4-1.5,2.2c-0.4,0.8-0.7,1.6-0.8,2.5c-0.3,1.7-0.2,3.4,0.1,5.1
				c0.4,1.7,1,3.3,1.7,4.8c0.7,1.5,1.7,3.1,2.6,4.3l-3.1,2c-0.9-1.8-1.6-3.5-2.1-5.3c-0.5-1.8-0.9-3.7-1-5.6
				c-0.1-1.9,0.1-3.8,0.8-5.6c0.3-0.9,0.8-1.7,1.3-2.4C122.4,297.2,123.1,296.6,123.8,296z"/>
		</g>
		<path class="st22" d="M119.2,296.5c4-7.6,9.8-6.1,11-2.2"/>
		<g>
			<path class="st21" d="M103.9,337.7c-0.7-0.6-1.5-1.2-1.9-2.1c-0.4-0.9-0.5-1.9-0.3-2.8c0.4-1.9,1.6-3.5,2.8-5
				c2.6-2.9,5.8-5.1,9.2-6.8c1.7-0.9,3.5-1.6,5.4-2.1c1.9-0.5,3.8-0.9,5.9-0.9c2,0,4.1,0.3,6.1,1.2c2,0.9,3.7,2.5,4.8,4.4l-3.2,1.8
				c-0.7-1.4-1.8-2.5-3.1-3.3c-1.4-0.8-3-1.2-4.7-1.3c-3.4-0.2-7.1,0.5-10.4,1.9c-3.4,1.3-6.6,3.2-9.3,5.7c-1.3,1.3-2.5,2.7-3,4.5
				c-0.3,0.9-0.3,1.8,0,2.7C102.5,336.4,103.2,337,103.9,337.7z"/>
		</g>
		<path class="st22" d="M128.2,316.6c0,0-2.9-1.1-7.2-0.4"/>
		<path class="st22" d="M138.5,321.7c-2.4,3.4-9.7,6.2-9.7,6.2c7.9,6.5,14.5,2.4,14.5,2.4"/>
		<g>
			<path class="st21" d="M105.7,337.1c0.2-0.1,0.5-0.4,0.8-0.7c0.2-0.3,0.5-0.6,0.7-1c0.4-0.7,0.6-1.5,0.7-2.4
				c0.1-0.9-0.1-1.8-0.3-2.6c-0.1-0.4-0.3-0.9-0.4-1.3l-0.6-1.3l0.9,1.1c0.3,0.4,0.5,0.8,0.8,1.2c0.5,0.9,0.9,1.8,1,2.8
				c0.2,1,0.2,2.1-0.1,3.2c-0.1,0.5-0.3,1.1-0.6,1.6c-0.3,0.5-0.5,1-1,1.5l-0.1,0.1c-0.6,0.6-1.5,0.6-2.1,0.1
				c-0.6-0.6-0.6-1.5-0.1-2.1C105.3,337.3,105.5,337.2,105.7,337.1z"/>
		</g>
		<g>
			<path class="st21" d="M126.1,292.9c0.5,0.6,0.6,1.1,0.9,1.6c0.2,0.5,0.3,1.1,0.4,1.6c0.2,1.1,0,2.2-0.2,3.2
				c-0.3,1-0.8,1.9-1.3,2.7c-0.3,0.4-0.6,0.8-0.9,1.1l-1,1l0.7-1.2c0.2-0.4,0.4-0.8,0.6-1.3c0.3-0.9,0.5-1.7,0.6-2.6
				c0-0.9-0.1-1.7-0.4-2.4c-0.1-0.4-0.4-0.7-0.6-1c-0.2-0.3-0.5-0.6-0.7-0.7c-0.7-0.4-0.9-1.3-0.5-2s1.3-0.9,2-0.5
				c0.2,0.1,0.3,0.2,0.4,0.4L126.1,292.9z"/>
		</g>
		<polygon class="st6" points="146.9,319.6 148.9,318 151.1,319.2 149.2,320.8 		"/>
		<polygon class="st6" points="125.6,354.4 127.6,352.8 129.9,354 127.9,355.6 		"/>
		<polygon class="st6" points="120.2,305.4 122.2,303.8 124.4,305 122.4,306.6 		"/>
		<polygon class="st6" points="109.8,328.5 111.2,327.4 112.7,328.3 111.3,329.3 		"/>
		<polygon class="st6" points="99.5,308.9 100.9,307.8 102.6,308.7 101.1,309.8 		"/>
		<polygon class="st6" points="124.9,320.6 125.9,322 125,323.4 124,322 		"/>
		<polygon class="st6" points="148.1,299.5 149.1,300.8 148.2,302.3 147.2,300.9 		"/>
		<polygon class="st6" points="143,298.6 144.6,299.2 144.6,300.9 143,300.3 		"/>
		<polygon class="st6" points="121.9,350.7 123.6,350.7 124.2,352.3 122.5,352.3 		"/>
		<polygon class="st6" points="118.2,354.3 119.6,353.4 121,354.4 119.6,355.3 		"/>
		<polygon class="st6" points="95.5,313.7 96.7,312.5 98.3,313.3 97,314.4 		"/>
		<polygon class="st6" points="95.2,318.9 95.6,317.2 97.3,317 96.9,318.6 		"/>
		<polygon class="st6" points="107.2,333.6 108.2,335 107.3,336.4 106.3,335 		"/>
		<polygon class="st6" points="102.1,332.8 103.7,333.4 103.7,335.1 102.1,334.5 		"/>
		<polygon class="st6" points="125.9,298.6 126.9,300 126,301.5 125,300.1 		"/>
		<polygon class="st6" points="120.8,297.8 122.4,298.4 122.4,300.1 120.9,299.5 		"/>
		<polygon class="st6" points="112.4,294.3 114.4,292.7 116.6,294 114.6,295.5 		"/>
	</g>
	<g>
		<path class="st4" d="M81.5,241.5c1-0.7,1.9-1.6,2.9-2.4c0.9-0.9,1.8-1.8,2.6-2.8c0.8-1,1.6-2,2.3-3.1c0.7-1.1,1.4-2.2,1.9-3.4
			c-0.4,1.3-0.8,2.5-1.3,3.7c-0.5,1.2-1.1,2.4-1.8,3.5c-0.7,1.2-1.4,2.3-2.2,3.4c-0.8,1.1-1.6,2.1-2.6,3.2L81.5,241.5z"/>
	</g>
	<path class="st24" d="M69.4,309.6c3.3,4.4,6.1,15,11.6,19.7c3.1,2.7,8.7,7.6,14.9,7.3c6.2-0.4,5.8-6.5,5.8-6.5s8.4,1.5,10-4.7
		c1.2-4.4-0.4-6.1-0.4-6.1s4.1-0.3,6.9-5.5c2.1-4.1-0.4-10.7-1.8-13.2c-2.3-3.9-6.6-5.7-6.6-5.7s1.3-12-13.1-10
		c-8.1,1.1-9.8,7.4-9.8,7.4"/>
	<g>
		<path class="st4" d="M94.8,320.6c0.2,1,0.7,1.9,1.3,2.7c0.6,0.8,1.2,1.6,1.9,2.3c0.7,0.7,1.4,1.4,2.2,2c0.8,0.6,1.6,1.3,2.3,1.8
			l-1.9,2.2c-0.7-0.8-1.4-1.6-2-2.5c-0.6-0.8-1.2-1.7-1.8-2.6c-0.5-0.9-1-1.8-1.4-2.8C95.1,322.7,94.8,321.7,94.8,320.6z"/>
	</g>
	<g>
		<path class="st4" d="M102.4,312.7c0.3,0.9,1,1.6,1.7,2.1c0.8,0.5,1.6,1,2.4,1.4c0.9,0.4,1.7,0.8,2.6,1.1c0.9,0.3,1.8,0.6,2.7,0.9
			l-1.1,2.6c-0.9-0.5-1.7-1.1-2.5-1.6c-0.8-0.6-1.6-1.2-2.4-1.8c-0.8-0.6-1.5-1.3-2.1-2.1C103.1,314.6,102.5,313.7,102.4,312.7z"/>
	</g>
	<polygon class="st16" points="148.8,224.3 155.7,189.8 165.6,194.3 172.8,211.8 159.2,203 	"/>
	<g>
		<path class="st4" d="M103.5,293.2c1.1,2.2,2.2,3.5,3.5,4.6c0.7,0.5,1.5,1,2.3,1.5c0.4,0.2,0.9,0.5,1.4,0.7c0.5,0.2,1,0.5,1.5,0.9
			c-0.6,0.3-1.1,0.4-1.7,0.5c-0.6,0.1-1.2,0.1-1.8,0c-1.2-0.1-2.4-0.6-3.5-1.4c-1-0.8-1.8-2-2.1-3.2
			C102.8,295.6,102.8,294.3,103.5,293.2z"/>
	</g>
	<path class="st25" d="M105.8,298.7c6-4,3.6-10,1.4-11.9"/>
	<path class="st3" d="M149.1,434.2c0.4,0.3,0.9,0.5,1.4,0.8c3.9,1.8,8.6,4,13.1,4.2c3.1,0.2,10.4-0.6,13-2.1c1.9-1,2-4.3,2.3-5.9
		c0.3-1.6,0.5-3.4,0.3-5.1c-0.3-1.9-1.2-3.9-0.7-5.8c0.3-1.3,1.3-2.5,1.7-3.8c0.8-2.5-1-4.2-4.4-3.7c-7.2,1.1-14.6,1.2-21.8,0.3
		c-2.6-0.3-6-0.6-7.4,1.1c-2.1,2.5,0.5,6.8,2.6,8.8c-0.1-0.1-2.4,3.5-2.5,3.9C145.8,429.6,146.4,432.4,149.1,434.2z"/>
	<g>
		<path class="st4" d="M77,98.5c1.6,1.5,3.5,2.8,5.4,3.7c1,0.4,2,0.8,3,1c1,0.2,2,0.3,3,0.2l-0.3,3.3c-1.2-0.3-2.4-0.6-3.5-1.2
			c-1.1-0.5-2.1-1.2-3-1.9C79.7,102.1,78.2,100.4,77,98.5z"/>
	</g>
	<path class="st0" d="M143.1,448c-0.2,2.7-2.3,4-3.2,10.2c-0.8,5.2,2.1,10.6,2.1,10.6l9.8,2.2c0,0,2.1-3.7,5-2.8
		c5.8,1.9,26.2,13.6,32.3,14.5c15.7,2.2,32.7-4.2,32.7-4.2s2.7-8.6-3.3-14.3c-4.8-4.6-15.5-4.1-24.7-8.9
		c-3.5-1.8-11.6-10.2-11.6-10.2s1.5-5,0-10.2c-0.4-1.5-1.3-3.3-2.4-3.8c-3.3-1.4-12.2,3.4-12.2,3.4s0,3.4-1,4
		c-4,2.7-19.8-4.1-19.8-4.1s-4.4,2.9-4.7,6.7C141.9,444.3,143.3,446.2,143.1,448z"/>
	<path class="st1" d="M143.3,447.7c-0.2,2.7-2.3,4-3.2,10.2c-0.8,5.2,2.1,10.6,2.1,10.6l9.8,2.2c0,0,2.4-4.4,5-2.8
		c17.9,11.5,32.3,14.5,32.3,14.5c-8.9-4.9-18.6-10.7-25.2-18.5c-4.1-4.9-5.3-13.3-3.2-19.3c0.7-2.2,2.1-4.2,4-5.5
		c0.5-0.3,1.8-0.8,2-0.9c-4,2.7-19.8-4.1-19.8-4.1s-4.4,2.9-4.7,6.7C142.2,444,143.5,445.9,143.3,447.7z"/>
	<g>
		<path class="st12" d="M31.8,253.2c2.9,4.4,5.8,8.7,8.8,12.9c3,4.2,6.2,8.3,9.5,12.2c3.2,4,6.8,7.8,10.4,11.5
			c0.9,0.9,1.8,1.8,2.8,2.7c0.9,0.9,1.9,1.7,2.9,2.6l1.4,1.3l1.5,1.3c1,0.8,2,1.7,3,2.6c-1.1-0.6-2.3-1.3-3.4-1.9
			c-0.6-0.3-1.1-0.7-1.7-1l-1.6-1.1c-1.1-0.8-2.2-1.5-3.2-2.3c-1-0.8-2-1.7-3-2.5c-1-0.8-2-1.7-2.9-2.6c-0.9-0.9-1.9-1.8-2.8-2.8
			l-2.7-2.9c-0.9-1-1.7-2-2.6-3c-0.9-1-1.7-2-2.5-3.1c-0.8-1.1-1.6-2.1-2.4-3.2c-1.5-2.2-3-4.3-4.3-6.6
			C36,262.8,33.6,258.2,31.8,253.2z"/>
	</g>
	<path class="st26" d="M126.3,11.7c-15.6-1.1-24.6,9.5-32.7,11.1c-7.5,1.5-22.7-1.4-28.3,3.8c-8.9,8.2-6.9,48-6.9,48
		s-15.4-0.4-17.9,4c-3.8,6.7,1.2,25.9,12.1,31.4c31.8,16,130-2.5,143.8-31.8c7-15-22.8-17-22.8-17S142,12.8,126.3,11.7"/>
	<path class="st27" d="M112.7,19c7.6-4.3,15.4,2.9,15.4,2.9s-4.3,10.7-14.7,11.6c-8,0.7-37.6-12.1-30-10.1
		C101.1,28,107.1,22.2,112.7,19"/>
	<path class="st28" d="M65.5,89.5c0,0-3.4-49.8,9.7-55.6c7.1-3.1,22,9.7,29.8,9.5c11.1-0.2,19.3-9.8,26.9-10.5
		c19.3-1.7,18.2,38.9,18.2,38.9L108.9,91L65.5,89.5z"/>
	<path class="st9" d="M72.3,101.2c17.5-1.2,48.2-4.6,71.3-13.9c30.2-12.2,29.5-26.8,29.5-26.8l-7-8.2c0,0-6.3,18.1-52,28.4
		c-28.6,6.5-54.7,4-54.7,4s1.7,3.2-3,9.4C53.9,97.3,72.3,101.2,72.3,101.2z"/>
	<path class="st27" d="M39.2,81.9c1.2,14.8,4,36.1,49.6,34c77.2-3.5,101.3-29.4,101.3-29.4c-10.3,6.4-21.9,10.9-33.4,14.3
		c-25.6,7.6-54.2,9.1-79.9,1.5c-5.3-1.6-34.2-10.4-31-20.5c1.6-5,8-6.6,12.1-7.1c0.2,0,0.4-0.1,0.6-0.1
		C58.5,74.7,38.4,72.9,39.2,81.9z"/>
	<path class="st10" d="M73.7,96.5c17.5-1.2,42-0.1,69.3-15.6c31.7-18,25.8-27.4,25.8-27.4l-1.1-4.1c0,0-7.9,21-53.6,31.4
		c-28.6,6.5-54.2,3.9-54.2,3.9s0.3,3.1-1.9,6.8C55.8,94.8,73.7,96.5,73.7,96.5z"/>
	<g>
		<path class="st29" d="M56.9,93.9c0.5-1.6,1-3.2,1.2-4.8c0.3-1.6,0.4-3.2,0.3-4.8c0-1.6-0.2-3.2-0.6-4.7c-0.2-0.8-0.4-1.5-0.6-2.2
			c-0.1-0.4-0.3-0.7-0.4-1c-0.1-0.3-0.3-0.7-0.4-0.9l4.1-1.7c0.2,0.6,0.2,1,0.3,1.5c0.1,0.5,0.1,0.9,0.2,1.4
			c0.1,0.9,0.1,1.8,0.1,2.7c0,1.8-0.2,3.5-0.5,5.2c-0.4,1.7-0.8,3.3-1.5,4.9C58.5,91,57.7,92.5,56.9,93.9z"/>
	</g>
	<g>
		<path class="st30" d="M128.1,21.9c-1,2.5-2.1,4.9-3.8,7.1c-1.6,2.2-3.8,4-6.3,5.1c-2.6,1.1-5.4,1.4-8.2,1.2
			c-2.8-0.2-5.4-0.8-8.1-1.5c-5.2-1.5-10.2-3.5-15.3-5c-5-1.6-10.1-2.8-15-2.5l-0.2-4.5c2.9,0,5.8,0.5,8.5,1.2
			c2.7,0.7,5.3,1.6,7.8,2.6c5,2,9.9,4.3,14.8,6.1c2.5,0.9,5,1.6,7.6,2c2.6,0.4,5.2,0.3,7.6-0.5c2.4-0.8,4.6-2.4,6.3-4.4
			C125.6,26.7,127,24.4,128.1,21.9z"/>
	</g>
	<g>
		<path class="st29" d="M173.4,58.6c0.1,2.4-0.6,4.9-1.5,7.1c-0.9,2.3-2.3,4.4-3.8,6.3c-3.1,3.9-6.9,7.1-11,9.8
			c-8.2,5.4-17.5,8.8-26.9,11.5c-4.7,1.3-9.4,2.4-14.2,3.4c-4.8,0.9-9.6,1.7-14.4,2.3c-9.6,1.2-19.3,2-29,2
			c9.6-1.3,19.1-2.6,28.6-4.3c9.5-1.7,18.9-3.6,28.1-6.3c9.2-2.6,18.3-5.8,26.5-10.6c4.1-2.4,7.9-5.3,11.1-8.8
			c1.6-1.8,3-3.7,4.1-5.8C172.3,63.3,173.2,61,173.4,58.6z"/>
	</g>
	<g>
		<path class="st30" d="M190.1,86.6c-6.1,3.8-12.5,7.1-19.2,9.8c-6.7,2.7-13.5,5-20.5,6.9c-13.9,3.7-28.4,5.6-42.9,5.2
			c-7.2-0.2-14.5-0.9-21.6-2.3c-7.1-1.4-14.1-3.5-21-6c-3.4-1.3-6.8-2.7-10.1-4.4c-1.6-0.9-3.3-1.8-4.8-2.9c-1.6-1.1-3.1-2.3-4.4-4
			C45,88,44.4,87,44,85.9c-0.4-1.1-0.6-2.4-0.4-3.6c0.4-2.4,1.8-4.4,3.5-5.8c1.7-1.4,3.6-2.2,5.4-2.8c1.9-0.6,3.8-1,5.7-1.2l0.5,4.4
			c-3.3,0.4-6.7,1.2-9,2.9c-0.6,0.4-1,0.9-1.4,1.5c-0.3,0.5-0.6,1.2-0.7,1.7c-0.2,1,0.2,2.3,1.1,3.5c0.9,1.2,2.2,2.3,3.5,3.3
			c1.4,1,2.8,1.9,4.3,2.8c3,1.7,6.3,3.2,9.6,4.5c6.6,2.6,13.4,4.8,20.3,6.4c6.9,1.6,14,2.5,21.1,2.8c14.2,0.7,28.6-0.8,42.5-4.1
			c7-1.7,13.8-3.8,20.6-6.3C177.4,93.3,183.9,90.3,190.1,86.6z"/>
	</g>
	<path class="st31" d="M126.3,11.7c-15.6-1.1-24.6,9.5-32.7,11.1c-7.5,1.5-22.7-1.4-28.3,3.8c-8.9,8.2-6.9,48-6.9,48
		s-15.4-0.4-17.9,4c-3.8,6.7,1.2,25.9,12.1,31.4c31.8,16,130-2.5,143.8-31.8c7-15-22.8-17-22.8-17S142,12.8,126.3,11.7"/>
	<g>
		<path class="st29" d="M128.1,21.8c-1.1,2.3-2.3,4.6-4,6.6c-1.6,2-3.8,3.7-6.2,4.7c-2.5,1-5.2,1.3-7.8,1.1
			c-2.6-0.2-5.2-0.8-7.7-1.4c-5-1.4-9.8-3.3-14.6-4.8c-4.8-1.5-9.7-2.6-14.5-2.3l-0.2-3.8c5.6-0.1,10.7,1.5,15.6,3.4
			c4.9,1.8,9.5,4,14.3,5.7c2.4,0.8,4.8,1.5,7.3,1.8c2.5,0.3,5,0.2,7.3-0.6c2.4-0.8,4.5-2.2,6.2-4.1
			C125.5,26.2,126.9,24.1,128.1,21.8z"/>
	</g>
	
		<ellipse transform="matrix(0.9963 -8.563027e-02 8.563027e-02 0.9963 -7.3238 7.7223)" class="st9" cx="86.4" cy="89.2" rx="9.3" ry="8.5"/>
	<path class="st26" d="M82.5,85.6c0,0,5.7-2.8,5.4-6.2c-0.3-3.4,2.6-8.6,2.6-8.6l-7.2,2.6c0,0,1.1-4.8,0.5-6.2
		c-1-2.6-2.7-2.5-7.6-7.9c-3.3-3.6-7.9-6.4-7.9-6.4l0.1,7.2L82.5,85.6z"/>
	<g>
		<path class="st29" d="M166.5,51.3c-0.9,2.3-2.3,4.3-3.8,6.2c-1.6,1.9-3.3,3.6-5.2,5.2c-3.7,3.2-7.9,5.9-12.2,8.2
			c-8.6,4.7-18,7.8-27.4,10.2c-4.7,1.2-9.5,2.1-14.4,2.9c-4.8,0.7-9.7,1.3-14.5,1.5c-9.7,0.5-19.5,0.4-29.1-1
			c9.7,0.2,19.4-0.3,28.9-1.3c9.6-1,19.1-2.6,28.4-5c4.7-1.1,9.3-2.5,13.8-4c4.5-1.5,9-3.3,13.3-5.4c2.2-1,4.3-2.2,6.3-3.4
			c2.1-1.2,4.1-2.5,6-3.9c1.9-1.4,3.8-3,5.4-4.7C163.8,55.3,165.4,53.4,166.5,51.3z"/>
	</g>
	<g>
		<path class="st9" d="M84.3,79.7c-0.3-3.4,2.6-8.6,2.6-8.6l-7.2,2.6c0,0,1.1-4.8,0.5-6.2c-1-2.6-2.7-2.5-7.6-7.9
			c-3.3-3.6-7.9-6.4-7.9-6.4l0.1,7.2l-4-9.2c0,0-5.3-4.8-11.3-6.6c-5.7-1.7-10-5.7-10-5.7l-1.6,2.7l-0.8-4l-10-7.9l-2.5,2.5l-2.1-5
			l-9.8-6.2c0,0-0.3,5.7,0.6,10.5c0.8,5-0.3,7.7-0.3,7.7l6.6,2.1l-5.1,1c0,0,0.5,4.1,1.3,4.2c4.6,0.5,4.1,6.8,4.1,6.8l10.4,3.3
			l-6.1,1.3l14.3,12.2l7.2-2.9l-4.5,5.1l6.9,6.2l4.3-2.3l-2.8,3.6l2.1,2.3c0,0,0.7-4.8,7.2-4.2c3.4,0.3,14.9,2.6,14.9,2.6l5.2,5.5
			C79,85.9,84.6,83.1,84.3,79.7z"/>
		<path class="st10" d="M76.9,77.4c-1.8-1.6-1.2-9.5-1.2-9.5l-8.7-8.6c0,0,1.8,11-0.2,11c-2.8-0.1-6.1-13.6-6.1-13.6
			s-7.9-6.8-12.3-8.1c-4.1-1.2-7.3-4.1-7.3-4.1s-2.9,6.2-4.2,5.3c-0.8-0.6-3.7-10.6-3.7-10.6s-7,0.5-9-0.6
			c-2.7-1.5-7.3-10.1-7.3-10.1L16.7,37c0,0,9.4,3.9,9.8,5.9c0.3,1.6-6.3,3.1-5.3,3.3c4.7,1.3,4.8,5.5,4.8,5.5s12.6,3.9,13.1,4.8
			c0.7,1.1-7.7,2.9-7.7,2.9l7.7,5.9c0,0,10.6-4.9,12.3-2.3c1.5,2.2-5.8,8.8-5.8,8.8l3.4,3c0,0,8.5-5.8,10.1-4.7
			c1.4,1-2.5,4.8-2.5,4.8L76,80.9l5.4-3.5C81.5,77.4,77.7,78.1,76.9,77.4z"/>
		<g>
			<path d="M82.1,92.4c-1.8-2.6-4-5.3-6.2-7.8c-2.2-2.5-4.6-4.9-7-7.3c-1.2-1.2-2.5-2.3-3.8-3.4c-1.3-1.1-2.6-2.1-4-3.1
				c-2.7-2-5.5-3.9-8.3-5.9c-5.6-3.9-11.3-7.8-16.5-12.2c-5.2-4.4-10-9.4-13.6-15.2c3.8,5.7,8.8,10.4,14.2,14.6
				c5.4,4.2,11.1,7.8,16.9,11.4c2.9,1.8,5.8,3.6,8.6,5.6c2.9,1.9,5.6,4,8.3,6.1c2.7,2.1,5.4,4.4,7.9,6.7c2.6,2.4,5,4.8,7.3,7.6
				L82.1,92.4z"/>
		</g>
		<path class="st32" d="M84.2,79.6c-0.3-3.4,2.6-8.6,2.6-8.6l-7.2,2.6c0,0,1.1-4.8,0.5-6.2c-1-2.6-2.7-2.5-7.6-7.9
			c-3.3-3.6-7.9-6.4-7.9-6.4l0.1,7.2l-4-9.2c0,0-5.3-4.8-11.3-6.6c-5.7-1.7-10-5.7-10-5.7l-1.6,2.7l-0.8-4l-10-7.9l-2.5,2.5l-2.1-5
			l-9.8-6.2c0,0-0.3,5.7,0.6,10.5c0.8,5-0.3,7.7-0.3,7.7l6.6,2.1l-5.1,1c0,0,0.5,4.1,1.3,4.2c4.6,0.5,4.1,6.8,4.1,6.8l10.4,3.3
			L24,58l14.3,12.2l7.2-2.9L41,72.4l6.9,6.2l4.3-2.3l-2.8,3.6l2.1,2.3c0,0,0.7-4.8,7.2-4.2c3.4,0.3,14.9,2.6,14.9,2.6l5.2,5.5
			C78.8,85.9,84.5,83.1,84.2,79.6z"/>
	</g>
	
		<ellipse transform="matrix(0.9963 -8.563027e-02 8.563027e-02 0.9963 -7.2232 7.4789)" class="st33" cx="83.6" cy="87.9" rx="9.3" ry="8.5"/>
	
		<ellipse transform="matrix(0.9963 -8.563027e-02 8.563027e-02 0.9963 -7.1845 7.3924)" class="st9" cx="82.6" cy="87.4" rx="6.1" ry="5.6"/>
	<path class="st18" d="M213.3,228.1c0,0,1.3,1-0.3,3.4c-3.5,5.3-10.4,4.3-10.4,4.3s3.8-0.2,8.1-6.2l-0.4-2.1L213.3,228.1z"/>
	<g>
		<path class="st4" d="M211.6,228.3c-0.6,0.9-1.2,1.7-1.8,2.5c-0.6,0.8-1.3,1.5-2,2.3c-0.7,0.7-1.5,1.4-2.4,1.9
			c-0.9,0.5-1.8,1-2.8,0.9c1-0.2,1.7-0.8,2.4-1.4c0.6-0.7,1.2-1.4,1.7-2.2c0.5-0.8,0.9-1.6,1.3-2.5c0.4-0.8,0.7-1.7,1-2.6
			L211.6,228.3z"/>
	</g>
	
		<ellipse transform="matrix(0.9963 -8.563027e-02 8.563027e-02 0.9963 -7.113 7.3119)" class="st10" cx="81.7" cy="86.6" rx="4.4" ry="4"/>
	<path class="st11" d="M197.8,229.2c3.7-4.6,8.2-8.8,11.6-6.9c2,1.2,0.7,5.9,0.7,5.9s4.9,0.5,7,4.2c4.9,8.9-22.7,49.9-36,42.4"/>
	<g>
		<path class="st4" d="M192,245.2c-0.3-1.4-0.5-2.9-0.3-4.4c0.1-1.5,0.5-3,1-4.4c1-2.9,2.4-5.5,4-8.1c0.4-0.7,1.3-0.9,2-0.5
			s0.9,1.3,0.5,2c0,0.1-0.1,0.1-0.1,0.2l0,0c-1.9,2.2-3.6,4.4-5,6.9c-0.7,1.3-1.2,2.6-1.6,4C192.1,242.3,191.9,243.8,192,245.2z"/>
	</g>
	<g>
		<path class="st4" d="M187.2,219c1.5,4.1,2.8,8.2,3.8,12.4c0.5,2.1,1,4.2,1.4,6.4c0.4,2.2,0.7,4.3,0.6,6.7c0,1.2-0.4,2.4-0.7,3.4
			c-0.3,1.1-0.7,2.1-1.1,3.1c-0.8,2-1.7,4-2.7,6c-1.9,3.9-3.9,7.8-6,11.6c-0.4,0.7-1.3,0.9-2,0.6c-0.7-0.4-0.9-1.3-0.6-2
			c0,0,0,0,0,0l0,0c2.2-3.7,4.3-7.4,6.3-11.3c1-1.9,1.9-3.8,2.8-5.8c0.8-1.9,1.7-3.9,1.9-5.8c0.2-2,0.1-4.2-0.1-6.3
			c-0.2-2.1-0.5-4.3-0.8-6.4C189.3,227.4,188.3,223.1,187.2,219z"/>
	</g>
	<g>
		<path class="st4" d="M199.5,276.1c-0.4,1.5-0.6,3-0.7,4.5c0,0.7,0,1.5,0,2.2c0,0.4,0.1,0.7,0.1,1c0.1,0.3,0.2,0.6,0.3,0.7
			l-2.7,0.9c-0.1-0.7-0.1-1.1,0-1.6c0.1-0.4,0.1-0.9,0.2-1.3c0.2-0.8,0.4-1.6,0.7-2.3C197.9,278.8,198.6,277.4,199.5,276.1z"/>
	</g>
	<g>
		<path class="st4" d="M210.9,261.5c-0.1-1.2-0.2-2.4-0.1-3.5c0.1-1.2,0.2-2.4,0.5-3.6c0.2-1.2,0.6-2.4,1-3.5
			c0.4-1.2,0.9-2.2,1.6-3.4l2.3,1.7c-0.7,0.7-1.3,1.7-1.9,2.6c-0.6,1-1.1,2-1.6,3c-0.5,1-0.9,2.1-1.1,3.2
			C211.2,259.2,211.1,260.3,210.9,261.5z"/>
	</g>
	<g>
		<path class="st12" d="M214.8,285.7c0.9-0.9,2-1.4,2.9-2.1c1-0.7,1.9-1.4,2.8-2.1c0.4-0.4,0.9-0.8,1.3-1.1c0.4-0.4,0.8-0.8,1.2-1.2
			c0.9-0.8,1.6-1.7,2.4-2.5c3-3.4,5.8-7.2,8-11.3l0.8-1.5c0.3-0.5,0.5-1,0.8-1.6l1.4-3.2c0.5-1.1,0.8-2.2,1.3-3.3l1.2-3.3
			c0.7-2.3,1.4-4.5,2-6.8l1.7-6.9l0.3,0l-1.1,7.1c-0.5,2.3-1,4.7-1.5,7l-1,3.4c-0.4,1.1-0.6,2.3-1.1,3.4l-1.3,3.4
			c-0.2,0.6-0.4,1.1-0.7,1.7l-0.8,1.6c-0.5,1.1-1,2.2-1.6,3.3c-0.6,1.1-1.1,2.2-1.8,3.2c-0.7,1-1.3,2.1-2.1,3
			c-0.8,0.9-1.6,1.9-2.5,2.8c-1.8,1.7-3.7,3.3-5.9,4.5c-1.1,0.6-2.2,1.1-3.3,1.6c-1.1,0.5-2.3,0.8-3.4,1.2L214.8,285.7z"/>
	</g>
	<g>
		<path class="st4" d="M105.8,266.3c0.8,0.5,1.4,1,2.1,1.5c0.7,0.5,1.3,1,1.9,1.5c1.3,1,2.5,2.1,3.7,3.2c-1.5-0.7-2.9-1.4-4.4-2
			c-0.7-0.3-1.5-0.6-2.2-0.9c-0.7-0.3-1.5-0.6-2.2-0.7L105.8,266.3z"/>
	</g>
	<g>
		<path class="st10" d="M122.2,249.7c3.9-2.7,8.6-4.1,13.2-5.1c4.6-1,9.4-1.4,14.1-1.4c4.7,0,9.4,0.3,14.1,1.3
			c1.2,0.2,2.3,0.5,3.5,0.8c1.1,0.3,2.3,0.6,3.4,1.1l1.7,0.6c0.5,0.3,1.1,0.5,1.6,0.8c1.1,0.5,2,1.2,3,1.9l-1.7-0.5
			c-0.5-0.2-1.1-0.3-1.7-0.4c-0.6-0.1-1.1-0.2-1.7-0.4l-1.7-0.2c-0.6-0.1-1.1-0.2-1.7-0.3l-1.7-0.2c-1.1-0.1-2.3-0.2-3.4-0.3
			c-4.5-0.3-9.1-0.4-13.7-0.4c-4.6,0-9.1,0.2-13.7,0.6C131.3,248,126.8,248.5,122.2,249.7z"/>
	</g>
	<g>
		<path class="st9" d="M122.2,249.7c4.5-1.2,9-1.8,13.5-2.3c4.5-0.5,9.1-0.7,13.7-0.7c4.6,0,9.1,0.2,13.7,0.6
			c4.5,0.5,9.1,1.1,13.5,2.4c-4.6,0.3-9.1,0.5-13.6,0.6c-4.5,0.1-9,0.2-13.6,0.2c-4.5,0-9,0-13.6-0.1
			C131.3,250.3,126.8,250.1,122.2,249.7z"/>
	</g>
	<path class="st1" d="M191.3,238.5c3.8-1,9.3-20.3,18.1-16.3c2.1,1-17.5,9.4-14.5,29.2c0.6,4.3,4.6,24.7-13.4,23.3l2.3-13.2
		l8.6-16.3L191.3,238.5z"/>
	<circle class="st34" cx="277.1" cy="244.8" r="1.5"/>
	<g>
		<path class="st6" d="M320.7,194.6c0,0,2.9,42,0,48.3c-3.6,7.7-16.3,8.9-22.4,9.4c-8,0.7-26.4-0.4-31.3-6.4
			c-6.1-7.4,3.5-63.8,3.5-63.8l17.8-3.7L320.7,194.6z"/>
		<path class="st35" d="M280,181.7c-1.2-0.1-2.3,0.6-2.6,1.8c-2.3,7.6-10.8,48.5-4.5,55.6c7,7.7,34.7,8.9,41,0.6
			c6.2-8.1-1.2-54.8-1.2-54.8L280,181.7z"/>
		<path class="st36" d="M320.7,195.2c0,0,2.9,42,0,48.3c-3.6,7.7-16.3,8.9-22.4,9.4c-8,0.7-26.4-0.4-31.3-6.4
			c-6.1-7.4,3.5-63.8,3.5-63.8"/>
		<path class="st37" d="M288.4,244.9c-7.3-13-1-55.9-1-55.9s-1.2,0-1.4,0c-1.8,0.4-5.4,40.5-5.4,40.3c-0.5-15.3,2.9-39.7,2.8-40.5
			c0,0,0.6,0,0.6-0.1c-0.1-0.2-1.2-0.9-2.2-0.2c-5.6,3.7-9.8,47.5-9.2,49.5c1.2,3.9,8.4,5.8,10.5,6.3
			C283.1,244.6,289.1,246.3,288.4,244.9z"/>
		<path class="st6" d="M304.5,211.1c-1.8,1,3.5,25.1,3.5,25.1c0,0.1,0.2,0.1,0.2,0c0,0-0.7-22.2,0.4-26.3
			C309,208.8,305.4,210.6,304.5,211.1z"/>
		<path class="st1" d="M320.7,197.1c0,0,2.5-7.2-15.8-16.9c-3.9-2.1-12.8,2.9-19.1,7c0.4-5.4,0.7-8.8,0.7-8.8l-15.3,3.7
			c0,0-10.5,56.4-4.5,63.8c4.9,6,26.1,8.3,18.6,5.4c-12.2-4.6-5.8-40-4.6-61.2c0.1,0,5,1.8,5.2,1.8c1.1,0.4,0.1,1.9,1.9,3
			c1.6,1,4.2-0.8,5.2,0c3.3,2.6-0.5,12.1,4.3,16.2c4.6,4,11.3,1,14.1-1.9c3.9-4,0.6-11.7,2.2-13.9c0.4-0.6,3.6,0.3,4.7,1.2
			C319.2,204.5,320.6,197.1,320.7,197.1z"/>
		<g>
			<path d="M312.6,185.9c-7.9-0.5-15.8-1.1-23.7-1.6l-5.9-0.5l-3-0.2c-0.7-0.1-1.3,0.3-1.6,0.8c-0.1,0.2-0.1,0.2-0.2,0.5l-0.2,0.7
				l-0.3,1.4l-0.7,2.9c-0.4,1.9-0.8,3.9-1.2,5.8c-1.5,7.8-2.7,15.6-3.4,23.4c-0.3,3.9-0.6,7.8-0.4,11.7c0.1,1.9,0.3,3.8,0.9,5.5
				c0.3,0.9,0.6,1.5,1.1,2.1c0.6,0.6,1.3,1.1,2,1.6c3.1,1.9,6.9,2.9,10.7,3.5c3.8,0.6,7.7,0.8,11.5,0.6c7.4-0.5,16.6-2.2,16.5-10.9
				c0.5-3.8,0.6-7.8,0.6-11.7c0-3.9-0.2-7.9-0.5-11.8C314.3,201.6,313.4,193.7,312.6,185.9c0.8,3.9,1.4,7.8,2,11.7
				c0.6,3.9,1.1,7.9,1.6,11.8c0.8,7.9,1.5,15.8,0.7,23.9c-0.3,2-0.6,4.1-1.6,6.1c-1.2,2.1-3.1,3.4-5,4.4c-1.9,0.9-3.9,1.5-5.9,2
				c-2,0.4-4,0.7-6.1,0.8c-4.1,0.3-8.1,0.1-12.2-0.5c-4-0.7-8-1.7-11.8-3.9c-0.9-0.6-1.8-1.3-2.6-2.1c-0.8-0.9-1.4-2.1-1.7-3.1
				c-0.7-2.1-0.9-4.2-1-6.2c-0.2-4.1,0.1-8.1,0.5-12.1c0.9-8,2.2-15.8,3.9-23.6c0.4-1.9,0.9-3.9,1.4-5.8l0.7-2.9l0.4-1.4l0.2-0.7
				c0.1-0.2,0.2-0.6,0.4-0.9c0.4-0.6,0.9-1.1,1.5-1.3c0.6-0.3,1.4-0.4,1.9-0.3l3,0.4l5.9,0.7C296.8,183.8,304.7,184.8,312.6,185.9z"
				/>
		</g>
		<path class="st6" d="M270.3,192.5c-4.1-5.1-20.1-8.6-25.8-5.4c-12.2,6.7-6.8,37.9,0.9,45.2c4.4,4.1,19.1,7.5,22,3.1
			c0.7-1,0.4-3.6-0.7-4.1c-3.8-1.8-10.8,1.2-17.5-4.2c-5.8-4.7-9-27,0.9-30c8.1-2.5,14.6,10.7,19.5,8.8
			C273.1,204.4,272.7,195.5,270.3,192.5z"/>
		<path class="st1" d="M268.4,197.3c-4.1-5.1-15.1-9.5-21.1-6.8c-10,4.5-8.4,33.4-0.6,40.7c4.4,4.1,17.9,4.6,20.7,0.3
			c0.7-1,0.4,0.3-0.7-0.2c-3.8-1.8-10.8,1.2-17.5-4.2c-5.8-4.7-9-27,0.9-30c8.1-2.5,14.6,10.7,19.5,8.8
			C273.1,204.4,270.7,200.3,268.4,197.3z"/>
		<g>
			<path d="M255.7,190.2c-2.3,0.1-4.6,0.4-6.6,1.2c-2,0.8-3.8,2.1-5,3.9c-1.3,1.7-2.1,3.8-2.7,6c-0.6,2.2-0.9,4.4-1.1,6.8
				c-0.6-2.3-0.6-4.7-0.3-7.1c0.3-2.4,1.1-4.7,2.6-6.8c0.7-1,1.6-1.9,2.7-2.6c1-0.7,2.2-1.2,3.4-1.5
				C251,189.4,253.4,189.6,255.7,190.2z"/>
		</g>
		<path class="st6" d="M278.4,163.2c-4.4,1.5-13.4-2.6-16.1,9.3c-3.2,14.2,14.6,9.7,15.4,10.9c1.1,1.7-1,5.5,3,6.7
			c4,1.2,5.1-0.8,7-0.1c1.1,0.4,0.1,1.9,1.9,3c1.6,1,4.2-0.8,5.2,0c3.3,2.6-0.5,12.1,4.3,16.2c4.6,4,11.3,1,14.1-1.9
			c3.9-4,0.6-11.7,2.2-13.9c0.9-1.2,4.1,3,7.1,1.7c5.7-2.5,13.9-10.2,11.7-20.6c-3.1-14.4-16.9-8.1-22.2-11.4
			c-3.6-2.3-2.6-8.7-13.8-9.8C288,152.4,283.7,161.4,278.4,163.2z"/>
		<path class="st1" d="M296.6,187c-2.9-0.1-2.4-1.5-5.9-3.8c-4.6-3-8.3,1.5-11.2-3.2c-2.9-4.8-10.2-3.5-13.9,1.8
			c-1.1,1.7,11.4,0.4,12.2,1.6c1.1,1.7-1,5.5,3,6.7c4,1.2,5.1-0.8,7-0.1c1.1,0.4,0.1,1.9,1.9,3c1.6,1,4.2-0.8,5.2,0
			c3.3,2.6-0.5,12.1,4.3,16.2c4.6,4,11.3,1,14.1-1.9c3.9-4,0.6-11.7,2.2-13.9c0.9-1.2,4.1,3,7.1,1.7c5.7-2.5,13.9-10.2,11.7-20.6
			c-3.1-14.4,5.3,23.7-21,14.4c-4-1.4,2.4,15.5-3.4,15.3c-6.8-0.2-10.7-2.6-9.3-5.9C303.1,192.6,304.8,187.3,296.6,187z"/>
		<path class="st36" d="M278.4,163.2c-4.4,1.5-13.4-2.6-16.1,9.3c-3.2,14.2,14.6,9.7,15.4,10.9c1.1,1.7-1,5.5,3,6.7
			c4,1.2,5.1-0.8,7-0.1c1.1,0.4,0.1,1.9,1.9,3c1.6,1,4.2-0.8,5.2,0c3.3,2.6-0.5,12.1,4.3,16.2c4.6,4,11.3,1,14.1-1.9
			c3.9-4,0.6-11.7,2.2-13.9c0.9-1.2,4.1,3,7.1,1.7c5.7-2.5,13.9-10.2,11.7-20.6c-3.1-14.4-16.9-8.1-22.2-11.4
			c-3.6-2.3-2.6-8.7-13.8-9.8C288,152.4,283.7,161.4,278.4,163.2z"/>
		<g>
			<path d="M303.4,174.6c-0.2,0.9-0.4,1.7-0.2,2.5c0.2,0.7,0.6,1.3,1.2,1.8c1.2,0.9,2.9,1.2,4.5,1.6c0.8,0.2,1.7,0.3,2.5,0.3
				c0.8,0,1.7-0.1,2.1-0.9c0.4-0.7,0.5-1.6,0.3-2.4c-0.1-0.4-0.1-0.9-0.2-1.4c0-0.5-0.1-1,0.3-1.7c0.2-0.3,0.6-0.5,1-0.6
				c0.4-0.1,0.7,0,1,0.1c0.6,0.2,1,0.6,1.3,0.8c0.7,0.5,1.4,0.8,2.1,1c0.7,0.2,1.4,0.2,2.1,0.1c0.7-0.1,1.5-0.5,2.2-0.8
				c1.4-0.7,2.5-2,2.3-3.3c-0.1-0.6-0.6-1.3-1.3-1.7c-0.7-0.4-1.5-0.6-2.4-0.8c-0.1,0-0.1-0.1-0.1-0.1c0,0,0-0.1,0.1-0.1
				c0.9-0.1,1.8-0.1,2.8,0.2c0.9,0.3,1.9,1,2.3,2.1c0.4,1.1,0.2,2.3-0.4,3.2c-0.6,0.9-1.3,1.6-2.2,2.1c-0.4,0.3-0.9,0.5-1.3,0.7
				c-0.4,0.2-0.9,0.4-1.4,0.5c-1,0.2-2.2,0.2-3.1-0.2c-1-0.4-1.8-0.9-2.5-1.5c-0.4-0.3-0.6-0.5-0.9-0.7c-0.3-0.1-0.3-0.2-0.4-0.1
				c-0.2,0.1-0.3,0.5-0.3,0.9c-0.1,0.4-0.1,0.9-0.1,1.3c0,0.9-0.1,1.9-0.6,2.8c-0.2,0.4-0.6,0.8-1.1,1.1c-0.5,0.2-0.9,0.4-1.4,0.5
				c-0.9,0.2-1.9,0.3-2.8,0.3c-0.9,0-1.9-0.2-2.8-0.5c-0.9-0.3-1.8-0.8-2.6-1.5c-0.8-0.7-1.3-1.8-1.2-2.8c0-1,0.5-1.9,1-2.6
				c0,0,0.1,0,0.1,0C303.4,174.5,303.4,174.6,303.4,174.6z"/>
		</g>
		<g>
			<path d="M295.2,186.8c1.2-0.6,2.7-0.8,4.1-0.4c0.7,0.2,1.4,0.5,2,0.9c0.6,0.4,1.1,1.1,1.4,1.7c0.6,1.4,0.5,2.9,0.3,4.2
				c-0.1,0.7-0.3,1.3-0.5,2c-0.1,0.3-0.2,0.7-0.3,1l-0.2,0.5c0,0.1-0.1,0.2-0.1,0.4c-0.2,1-0.1,2.2,0.3,3.2c0.4,1,1.1,2,1.9,2.7
				c0.8,0.7,1.8,1.2,3,1.4c1.2,0.2,2.4,0.1,3.7-0.1c0.1,0,0.1,0,0.1,0.1c0,0,0,0.1,0,0.1c-1.1,0.8-2.4,1.3-3.8,1.4
				c-1.4,0.1-3-0.3-4.2-1.2c-1.2-0.9-2.1-2.2-2.5-3.6c-0.4-1.4-0.5-3,0.2-4.4c0.1-0.2,0.2-0.3,0.3-0.5l0.3-0.4
				c0.2-0.2,0.4-0.5,0.5-0.8c0.3-0.5,0.6-1.1,0.7-1.7c0.3-1.2-0.2-2.5-1-3.3c-0.8-0.8-1.6-1.5-2.7-1.9c-1.1-0.5-2.3-0.7-3.6-0.8
				C295.2,186.9,295.1,186.9,295.2,186.8C295.1,186.8,295.1,186.8,295.2,186.8z"/>
		</g>
		<path class="st36" d="M270.3,192.5c-4.1-5.1-20.1-8.6-25.8-5.4c-12.2,6.7-6.8,37.9,0.9,45.2c4.4,4.1,19.1,7.5,22,3.1
			c0.7-1,0.4-3.6-0.7-4.1c-3.8-1.8-10.8,1.2-17.5-4.2c-5.8-4.7-9-27,0.9-30c8.1-2.5,14.6,10.7,19.5,8.8
			C273.1,204.4,272.7,195.5,270.3,192.5z"/>
		<g class="st1">
			<path d="M303.4,175.2c-0.1,0.9-0.2,1.8,0,2.4c0.2,0.7,0.6,1.1,1.2,1.5c1.1,0.8,2.7,1.1,4.3,1.4c0.8,0.2,1.6,0.3,2.5,0.4
				c0.8,0.1,1.5,0,2-0.6c0.4-0.6,0.5-1.5,0.4-2.3l-0.2-1.4c0-0.5-0.1-1.1,0.3-1.8c0.2-0.3,0.6-0.6,1.1-0.7c0.4-0.1,0.8,0,1.1,0.1
				c0.3,0.1,0.6,0.2,0.8,0.4l0.6,0.4c0.7,0.4,1.4,0.8,2,0.9c0.7,0.1,1.3,0.1,1.9,0c0.3-0.1,0.6-0.2,1-0.4c0.3-0.2,0.7-0.3,1-0.5
				c1.3-0.7,2.2-1.7,2.1-2.6c0-0.5-0.4-1.1-1-1.5c-0.6-0.4-1.4-0.7-2.3-1v-0.3c0.9-0.2,1.9-0.3,2.9,0c1,0.3,2.1,1,2.6,2.2
				c0.2,0.6,0.3,1.3,0.2,1.9l-0.1,0.5l-0.2,0.4c-0.1,0.3-0.2,0.6-0.4,0.8c-0.6,1-1.4,1.8-2.3,2.3c-0.4,0.3-0.9,0.5-1.4,0.7
				c-0.5,0.2-1,0.4-1.6,0.5c-1.1,0.2-2.3,0.1-3.4-0.3c-2-0.7-3.7-2.9-3.6-2.6c-0.1,0-0.3,0.4-0.3,0.8c-0.1,0.4-0.1,0.9-0.1,1.3
				c0,0.9-0.1,1.9-0.6,2.8c-0.2,0.5-0.6,0.9-1.1,1.2c-0.5,0.3-1,0.4-1.4,0.6c-0.9,0.3-1.9,0.4-2.9,0.4c-1,0-1.9-0.2-2.9-0.5
				c-0.9-0.3-1.9-0.8-2.7-1.6c-0.8-0.8-1.3-1.9-1.3-3.1c0-1.1,0.6-2,1.2-2.7L303.4,175.2z"/>
		</g>
		<g class="st1">
			<path d="M269.3,177.1c-0.2-1-0.3-2-0.1-3c0.1-1,0.4-2.1,0.9-3c0.5-1,1.2-1.9,2.2-2.5c1-0.7,2.1-1,3.1-1.1c1.1-0.1,2.1,0,3.1,0.2
				c1,0.2,2,0.4,2.9,0.7c0.9,0.3,1.9,0.4,2.7,0.3c0.9-0.1,1.4-0.6,1.8-1.4c0.4-0.8,0.6-1.7,1.1-2.6c0.2-0.5,0.7-1,1-1.4
				c0.4-0.4,0.8-0.8,1.2-1.1c1.7-1.4,4.1-2.1,6.3-1.9c4.4,0.3,8.3,3.2,9.7,6.9l-0.2,0.2c-2.9-2.5-6.3-4-9.6-4
				c-1.6,0-3.2,0.3-4.6,1.1c-0.4,0.2-0.7,0.4-1,0.7c-0.4,0.3-0.5,0.5-0.8,0.8c-0.5,0.7-1.1,1.5-1.8,2.3c-0.4,0.4-0.8,0.8-1.3,1.1
				c-0.5,0.3-1.1,0.4-1.7,0.4c-1.1,0-2-0.3-3-0.4c-0.5-0.1-0.9-0.1-1.4-0.1c-0.4,0-0.9,0-1.4,0.1c-0.9,0.1-1.8,0.3-2.6,0.6
				c-0.8,0.2-1.6,0.5-2.2,0.9c-0.6,0.4-1.2,0.9-1.7,1.6c-1,1.3-1.7,3.1-2.4,4.9L269.3,177.1z"/>
		</g>
		<g>
			<path d="M269.3,176.5c-0.2-2,0.1-4,1.1-5.9c0.5-0.9,1.2-1.8,2.2-2.4c1-0.6,2-0.9,3-1.1c1-0.1,2-0.1,3,0.1c1,0.1,2,0.3,2.9,0.6
				c0.9,0.2,1.9,0.4,2.8,0.4c0.9,0,1.5-0.7,2-1.4c0.4-0.8,0.7-1.7,1.2-2.6c0.2-0.5,0.6-1,1-1.3c0.4-0.4,0.8-0.7,1.2-1
				c1.7-1.3,3.9-1.9,6-1.8c4.2,0.3,8,2.9,9.7,6.5c0,0,0,0.1,0,0.1c0,0-0.1,0-0.1,0c-2.7-2.7-6.1-4.4-9.6-4.5
				c-1.7-0.1-3.4,0.3-4.9,1.2c-0.4,0.2-0.7,0.5-1,0.8c-0.4,0.3-0.6,0.5-0.8,0.9c-0.5,0.7-1,1.6-1.7,2.4c-0.3,0.4-0.7,0.8-1.2,1.1
				c-0.5,0.3-1.1,0.4-1.6,0.4c-1,0-2-0.2-2.9-0.4c-0.5-0.1-0.9-0.2-1.4-0.2c-0.5,0-0.9,0-1.4,0c-0.9,0.1-1.8,0.2-2.7,0.4
				c-0.9,0.2-1.7,0.5-2.4,0.9c-0.7,0.4-1.3,1-1.8,1.7c-1,1.4-1.7,3.2-2.1,5.1l0,0C269.5,176.5,269.4,176.6,269.3,176.5
				C269.3,176.5,269.3,176.5,269.3,176.5z"/>
		</g>
	</g>
	<path class="st38" d="M266.3,214.7c-0.9,5.5-4.5,13.1-7.6,14.6c-2.7,1.3-6.1,1.5-8.7,0c-2.6-1.5-4.1-5-2.9-7.8
		c-2.6-0.7-4.6-3.1-4.8-5.8c-0.3-2.7,1.2-5.4,3.6-6.6c-0.6,0.3-1.8-3.8-1.8-4.2c-0.2-1.7,0-3.4,0.7-5c1.4-3,7.6-3.7,13-3.7
		c3.5,0,6.6,0.3,8.2,3.5C267.5,202.9,267,210.8,266.3,214.7z"/>
	<g>
		<path class="st4" d="M257.9,216.4c-0.6,0.9-1.6,1.5-2.5,2.1c-0.9,0.6-1.9,1.1-2.8,1.6c-1.9,1-3.9,1.8-5.9,2.6l-0.7-2.8
			c2-0.3,4.1-0.7,6.1-1.2c1-0.2,2-0.5,3-0.9C256.2,217.4,257.1,217.1,257.9,216.4z"/>
	</g>
	<g>
		<path class="st4" d="M256.8,206c-0.6,0.7-1.5,1.2-2.4,1.6c-0.9,0.4-1.8,0.8-2.7,1.1c-1.8,0.7-3.6,1.2-5.5,1.7
			c-0.8,0.2-1.6-0.3-1.8-1c-0.2-0.8,0.3-1.6,1-1.8c0.1,0,0.2,0,0.4,0l0,0c1.8,0,3.7-0.1,5.5-0.3c0.9-0.1,1.8-0.2,2.8-0.4
			C255.1,206.8,256,206.6,256.8,206z"/>
	</g>
	<path class="st3" d="M86.1,414.7c-2-0.7-5.5-0.2-5.5,5.3c0,2.7,4.6,8,4.6,8s-2,2.4-1.8,4.7c0.2,2.7,4.1,6.5,4.1,6.5s4.7-1.4,11-1.1
		c4.6,0.2,11,2.8,11,2.8s6-2.7,6.4-5.6c0.5-3.6-1.8-7.5-1.8-7.5s2.5-2.9,2.1-5.7c-0.7-3.9-2.5-4.9-2.5-4.9S95.9,418.3,86.1,414.7z"
		/>
	<g>
		<path class="st4" d="M95.3,429.1l-1.3,0.4c-0.5,0.1-0.9,0.2-1.4,0.3c-0.9,0.2-1.9,0.3-2.9,0.4c-1,0-2,0-3-0.2
			c-0.5-0.1-1-0.2-1.5-0.4c-0.5-0.2-1-0.3-1.6-0.7l1.7-2.1c0.1,0.2,0.5,0.5,0.8,0.7c0.3,0.2,0.7,0.4,1.1,0.6
			c0.8,0.3,1.6,0.6,2.5,0.8c0.9,0.2,1.8,0.3,2.7,0.3c0.5,0,0.9,0,1.4,0L95.3,429.1z"/>
	</g>
	<path class="st2" d="M139.9,463.6l2.1,5l9.8,2.2c0,0,2.1-3.7,5-2.8c5.8,1.9,26.2,13.6,32.3,14.5c15.7,2.2,32.7-4.2,32.7-4.2
		l0.6-5.3c0,0-11.6,8.4-33.3,4.2c-11.4-2.2-19.2-5.5-29.5-8.9C151.9,465.8,139.9,463.6,139.9,463.6z"/>
	<g>
		<path class="st4" d="M159.1,423.6l-1.3,0.4c-0.5,0.1-0.9,0.2-1.4,0.3c-0.9,0.2-1.9,0.3-2.9,0.4c-1,0-2,0-3-0.2
			c-0.5-0.1-1-0.2-1.5-0.4c-0.5-0.2-1-0.3-1.6-0.7l1.7-2.1c0.1,0.2,0.5,0.5,0.8,0.7c0.3,0.2,0.7,0.4,1.1,0.6
			c0.8,0.3,1.6,0.6,2.5,0.8c0.9,0.2,1.8,0.3,2.7,0.3c0.5,0,0.9,0,1.4,0L159.1,423.6z"/>
	</g>
	<path class="st3" d="M143.1,448c-0.2,2.7-2.3,4-3.2,10.2c-0.8,5.2,2.1,10.6,2.1,10.6l10.3,2.3c0,0,2.6-2.9,5.5-2
		c5.8,1.9,25.3,12.7,31.4,13.5c15.7,2.2,32.7-4.2,32.7-4.2s2.7-8.6-3.3-14.3c-4.8-4.6-15.5-4.1-24.7-8.9
		c-3.5-1.8-11.6-10.2-11.6-10.2s1.5-5,0-10.2c-0.4-1.5-1.3-3.3-2.4-3.8c-3.3-1.4-12.2,3.4-12.2,3.4s0,3.4-1,4
		c-4,2.7-19.8-4.1-19.8-4.1s-4.4,2.9-4.7,6.7C141.9,444.3,143.2,446.2,143.1,448z"/>
	<g>
		<path class="st4" d="M143.1,448c2.3,0.2,4.6,0.4,6.8,0.4c1.1,0,2.2,0.1,3.3,0c1.1,0,2.2-0.1,3.3-0.2c2.2-0.2,4.3-0.6,6.3-1.3
			c1-0.3,2-0.7,3-1.2c0.5-0.2,0.9-0.5,1.4-0.8c0.4-0.3,0.9-0.6,1.2-0.8l0.2-0.1c0.2-0.1,0.4-0.2,0.6-0.2c0.8,0.1,1.5,0.2,2.2,0.4
			c0.7,0.2,1.4,0.4,2,0.8c0.6,0.3,1.3,0.7,1.8,1.2c0.5,0.5,0.9,1.1,1.2,1.7c-0.5-0.5-1-0.9-1.6-1.2c-0.6-0.3-1.2-0.5-1.8-0.6
			c-0.6-0.1-1.2-0.2-1.9-0.3c-0.6,0-1.3-0.1-1.9,0l0.7-0.3c-0.9,1-1.8,1.7-2.9,2.4c-1,0.6-2.1,1.2-3.3,1.6c-2.3,0.8-4.6,1.3-7,1.4
			c-1.2,0-2.4,0-3.5-0.1c-1.2-0.1-2.3-0.3-3.5-0.5C147.4,449.7,145.2,449,143.1,448z"/>
	</g>
	<path class="st3" d="M166.7,438.5c0,0,0,4.2,2.3,6.4"/>
	<path class="st3" d="M140.2,464.1c0,0,21.9,4.6,28.8,7.1c6,2.1,15.1,6.4,24.1,7.4c17.7,1.9,29.3-5.5,29.3-5.5"/>
	<path class="st39" d="M89.8,468.7c0,0,9-4,16.6,0.9"/>
	<path class="st39" d="M89.7,464.4c0,0,9-4,16.6,0.9"/>
	<path class="st39" d="M90,459.7c0,0,9-4,16.6,0.9"/>
	<path class="st39" d="M174.7,452.9c3.2-5.1,10.7-4.7,10.7-4.7"/>
	<path class="st39" d="M178.2,456.6c3.2-5.1,10.7-4.7,10.7-4.7"/>
	<path class="st39" d="M182.3,459.7c3.2-5.1,10.7-4.7,10.7-4.7"/>
	<g>
		<path class="st4" d="M109,428.8c0.9-0.2,1.7-0.5,2.4-0.9c0.4-0.2,0.7-0.4,1.1-0.6c0.3-0.2,0.7-0.5,0.9-0.7l1.3,2.4
			c-0.6,0.2-1,0.2-1.5,0.2c-0.5,0-1,0-1.4,0C110.8,429.1,109.9,429,109,428.8z"/>
	</g>
	<g>
		<path class="st4" d="M173.1,422c0.9-0.2,1.7-0.5,2.4-0.9c0.4-0.2,0.7-0.4,1.1-0.6c0.3-0.2,0.7-0.5,0.9-0.7l1.3,2.4
			c-0.6,0.2-1,0.2-1.5,0.2c-0.5,0-1,0-1.4,0C174.9,422.4,174,422.2,173.1,422z"/>
	</g>
</g>
</svg>
