<?xml version="1.0" encoding="UTF-8"?>
<svg width="6706px" height="2740px" viewBox="0 0 6706 2740" version="1.1" xmlns="http://www.w3.org/2000/svg" xmlns:xlink="http://www.w3.org/1999/xlink">
    <title>Slice</title>
    <g id="Page-1" stroke="none" stroke-width="1" fill="none" fill-rule="evenodd">
        <g id="planet-outline" transform="translate(5337.003209, 1362.000000) scale(-1, 1) translate(-5337.003209, -1362.000000) translate(5097.000000, 1202.000000)" stroke="#000000" stroke-width="28">
            <path d="M397.482481,188.46 C456.352481,235.7 489.092481,277.46 477.792481,297.01 C459.942481,327.86 339.012481,291.53 207.692481,215.86 C76.3724807,140.19 -15.6275193,53.84 2.21248069,23 C13.3724807,3.72 64.7924807,10.68 133.852481,37.09" id="Path"></path>
            <circle id="Oval" cx="240.002481" cy="160" r="160"></circle>
        </g>
        <g id="pizza-outline" transform="translate(2537.000000, 1194.000000)">
            <path d="M277.075809,61.0012507 C239.441422,45.6458726 199.949248,39 156.392657,39 C112.836066,39 70.3178889,46.3120848 35.5959279,60.6762692 C29.0409408,63.3573669 23.2160885,67.988354 27.4265319,76.5191196 C30.8419398,83.449351 113.395836,265.674629 144.759177,330.670938 C146.914934,335.151603 151.442523,338 156.408882,338 C161.375241,338 165.90283,335.151603 168.058587,330.670938 L284.920701,77.0065919 C287.508623,71.4006602 285.650836,64.4948023 277.075809,61.0012507 Z" id="Path" stroke="#000000" stroke-width="26"></path>
            <path d="M302.557819,28.0459562 C260.251127,11.3865935 208.137602,0 155.999703,0 C103.861803,0 52.5282752,10.3352745 9.32783702,27.5607321 C5.51722849,29.1134494 -1.62461563,32.6960211 0.333500904,38.7208877 L8.1984669,58.2268987 C11.4484528,64.8582955 15.2428114,64.8582955 20.434664,64.8582955 C21.8890327,64.8582955 23.9202739,64.0495886 26.3496384,63.0953144 C67.691759,47.1119478 111.648437,38.8809217 155.999703,38.8179325 C202.117003,38.8179325 249.363674,48.5224156 285.674142,63.0791403 C288.591005,64.21133 290.215998,64.8421214 291.589117,64.8421214 C296.935343,64.8421214 300.02283,66.6131896 303.776564,58.2915953 L311.714655,38.8179325 C313.347773,33.9656909 307.660297,30.0677235 302.557819,28.0459562 Z" id="Path" stroke="#000000" stroke-width="26"></path>
            <circle id="Oval" fill="#000000" fill-rule="nonzero" cx="104" cy="117" r="26"></circle>
            <circle id="Oval" fill="#000000" fill-rule="nonzero" cx="208" cy="130" r="26"></circle>
            <circle id="Oval" fill="#000000" fill-rule="nonzero" cx="156" cy="221" r="26"></circle>
        </g>
        <g id="play-outline" transform="translate(1243.000000, 1221.000000)" stroke="#000000" stroke-width="28">
            <path d="M0,20.4010787 L0,277.598921 C0,293.066267 15.052606,302.892999 27.4488698,295.478606 L246.951283,163.890868 C257.682906,157.460922 257.682906,140.539078 246.951283,134.109132 L27.4488698,2.52139421 C15.052606,-4.89299877 0,4.9337326 0,20.4010787 Z" id="Path"></path>
        </g>
        <g id="person-circle-outline" transform="translate(535.000000, 1187.000000)" fill="#000000" fill-rule="nonzero">
            <path d="M174.406032,0.015980513 C77.6770222,-1.29043502 -1.29049705,77.6732888 0.0159812811,174.397649 C1.30592191,267.161421 76.8418683,342.693737 169.610099,343.983615 C266.355646,345.306568 345.306627,266.342844 343.983611,169.618484 C342.710208,76.8381751 267.174262,1.30585914 174.406032,0.015980513 Z M278.940836,270.601097 C278.273994,271.322187 277.321151,271.709624 276.340291,271.658507 C275.359432,271.607389 274.452028,271.123006 273.863762,270.336507 C266.46768,260.660295 257.410179,252.375949 247.114031,245.870155 C226.061539,232.359503 199.386228,224.917896 172.008065,224.917896 C144.629902,224.917896 117.954591,232.359503 96.9020989,245.870155 C86.6063248,252.373063 77.5487986,260.654631 70.1523685,270.328238 C69.5641026,271.114738 68.6566979,271.599121 67.6758387,271.650238 C66.6949794,271.701355 65.7421357,271.313919 65.0752945,270.592829 C40.8117991,244.401404 27.0674829,210.177699 26.4763019,174.480334 C25.1284793,94.0200199 91.155248,26.6734722 171.652505,26.4745787 C252.149761,26.2765865 317.53987,91.6387055 317.53987,171.999798 C317.567558,208.557995 303.780638,243.776742 278.940836,270.601097 Z" id="Shape"></path>
            <path d="M171.994254,79 C155.753236,79 141.068787,85.1070139 130.634016,96.2054167 C120.199245,107.303819 114.985977,122.649861 116.163698,139.119792 C118.552083,171.555556 143.597181,198 171.994254,198 C200.391327,198 225.38701,171.555556 227.82481,139.128056 C229.043709,122.815139 223.871621,107.609583 213.263898,96.3045833 C202.787947,85.1483333 188.128206,79 171.994254,79 Z" id="Path"></path>
        </g>
        <g id="lock-closed-outline" transform="translate(4551.000000, 1188.000000)" stroke="#000000" stroke-linecap="round" stroke-linejoin="round" stroke-width="32">
            <path d="M188,137 L188,62.6285714 C188,28.0397665 160.017797,0 125.5,0 C90.9822031,0 63,28.0397665 63,62.6285714 L63,137" id="Path"></path>
            <rect id="Rectangle" x="0" y="137" width="250" height="212" rx="48"></rect>
        </g>
        <g id="leaf-outline" transform="translate(5982.500000, 2028.000000) scale(-1, 1) translate(-5982.500000, -2028.000000) translate(5808.000000, 1868.000000)" stroke="#000000" stroke-linecap="round" stroke-linejoin="round" stroke-width="32">
            <path d="M228.751493,89.6108194 C154.507774,41.7090104 77.6664855,76.0962024 6.67181688,1.01499705 C-9.86576475,-16.5039509 -0.260603703,197.477484 88.6080167,278.565186 C153.580667,337.795915 253.90031,331.188769 287.727181,273.626511 C321.554053,216.064254 302.995211,137.504286 228.751493,89.6108194 Z" id="Path"></path>
            <path d="M105,157 C176.863014,224.77551 251.232877,264.938776 349,280" id="Path"></path>
        </g>
        <g id="heart-outline" transform="translate(548.000000, 552.000000)" stroke="#000000" stroke-linecap="round" stroke-linejoin="round" stroke-width="28">
            <path d="M244.524395,0 C189.581982,0 162.500078,54.1816268 162.500078,54.1816268 C162.500078,54.1816268 135.418174,0 80.4757604,0 C35.8244708,0 0.465659613,37.3683907 0.00865247928,81.9581764 C-0.922287979,174.515634 73.4090761,240.337844 154.883292,295.653899 C159.479706,298.782034 165.520449,298.782034 170.116863,295.653899 C251.582617,240.337844 325.913981,174.515634 324.991503,81.9581764 C324.534496,37.3683907 289.175685,0 244.524395,0 Z" id="Path"></path>
        </g>
        <g id="happy-outline" transform="translate(5843.000000, 543.000000)">
            <circle id="Oval" fill="#000000" fill-rule="nonzero" cx="102" cy="139" r="18"></circle>
            <path d="M157.533997,254 C123.220016,254 94.3606131,231.852751 85.2268388,201.628093 C84.7088697,199.804296 85.0891963,197.844776 86.2527059,196.342615 C87.4162156,194.840454 89.226152,193.972212 91.1347061,194.000679 L223.865294,194.000679 C225.773848,193.972212 227.583784,194.840454 228.747294,196.342615 C229.910804,197.844776 230.29113,199.804296 229.773161,201.628093 C220.714935,231.852751 191.847978,254 157.533997,254 Z" id="Path" fill="#000000" fill-rule="nonzero"></path>
            <circle id="Oval" fill="#000000" fill-rule="nonzero" cx="212" cy="139" r="18"></circle>
            <circle id="Oval" stroke="#000000" stroke-width="28" cx="157" cy="157" r="157"></circle>
        </g>
        <g id="flask-outline" transform="translate(2579.000000, 540.000000)" stroke="#000000" stroke-linecap="round" stroke-width="28">
            <line x1="88.5" y1="0.658333546" x2="214.5" y2="0.658333546" id="Path"></line>
            <line x1="42.5" y1="201.476659" x2="260.5" y2="201.476659" id="Path"></line>
            <path d="M113.625048,0 L113.625048,73.7053846 C113.62389,83.2437626 110.921086,92.5870414 105.829121,100.655 L7.26744973,256.636346 C-12.3091659,287.615 9.96604003,328 46.6179464,328 L256.382054,328 C293.03396,328 315.309166,287.615 295.73255,256.636346 L197.162989,100.655 C192.073799,92.5862083 189.373748,83.242988 189.374952,73.7053846 L189.374952,0" id="Path"></path>
        </g>
        <g id="finger-print-outline" transform="translate(1872.000000, 1845.000000)" fill="#000000" fill-rule="nonzero" stroke="#000000" stroke-width="5">
            <path d="M264.221252,45.6958105 C262.778194,45.6994421 261.360604,45.3161103 260.116399,44.5858132 C225.873287,26.270859 196.267424,18.5008784 160.774337,18.5008784 C125.458717,18.5008784 91.9254664,27.1958567 61.4245601,44.5858132 C57.1113786,47.0216405 51.7951315,45.3258114 49.2951837,40.8549892 C46.9793551,36.3765942 48.5427509,30.8712869 52.86764,28.2750207 C85.7633332,9.63613153 122.956277,-0.109295633 160.774337,0.000924651791 C198.759655,0.000924651791 231.937975,8.69590292 268.326104,28.1208544 C272.742157,30.546601 274.405291,36.0552469 272.06831,40.5158234 C270.689014,43.6247112 267.624823,45.6474398 264.221252,45.6958105 L264.221252,45.6958105 Z M8.98738343,142.820568 C7.13417732,142.807414 5.32968044,142.226237 3.81773829,141.155572 C-0.270850002,138.12001 -1.21911281,132.395126 1.67272135,128.205604 C19.3343896,102.305669 41.7953403,81.9557198 68.5617568,67.7107554 C124.563674,37.7716636 196.267424,37.5558308 252.446806,67.5257559 C279.205507,81.7707203 301.674173,101.93567 319.335841,127.650606 C322.215065,131.842935 321.26838,137.558295 317.190824,140.600573 C315.266434,142.037425 312.832388,142.614062 310.467092,142.193458 C308.101796,141.772855 306.016421,140.392561 304.706517,138.380579 C288.65747,115.070637 268.326104,96.7556829 244.244817,83.9907148 C193.057614,56.7957827 127.596018,56.7957827 76.5862806,84.1757143 C52.3275278,97.1256819 31.9961622,115.625636 15.9471146,138.904744 C14.5366144,141.401421 11.85569,142.909817 8.98738343,142.820568 Z M120.458821,366.146224 C118.073777,366.168771 115.796219,365.156267 114.216668,363.37085 C98.7000163,347.245057 90.2896981,336.85425 78.3686507,314.500139 C66.0232295,291.745196 59.6421899,263.995265 59.6421899,234.210339 C59.6421899,179.265477 104.94217,134.495589 160.596872,134.495589 C216.251574,134.495589 261.582418,179.265477 261.582418,234.210339 C261.677973,237.454968 259.999857,240.494831 257.202011,242.14533 C254.404164,243.79583 250.929253,243.79583 248.131407,242.14533 C245.333561,240.494831 243.655445,237.454968 243.751,234.210339 C243.751,189.440451 206.467828,152.995542 160.635451,152.995542 C114.803075,152.995542 77.4813236,189.440451 77.4813236,234.210339 C77.4813236,260.850273 83.183365,285.455211 94.0627675,305.435161 C105.482282,326.710108 113.352488,335.775086 127.063622,350.205049 C130.432188,353.924922 130.432188,359.58931 127.063622,363.309183 C125.312994,365.07382 122.945129,366.090782 120.458821,366.146224 Z M248.349669,331.920928 C227.123261,331.920928 208.3968,326.370942 193.057614,315.45597 C166.537709,296.885789 150.709772,266.59498 150.620229,234.241173 C150.483971,230.969234 152.153601,227.885864 154.969432,226.209332 C157.785263,224.532799 161.294327,224.532799 164.110159,226.209332 C166.92599,227.885864 168.59562,230.969234 168.459362,234.241173 C168.520173,260.525129 181.440075,285.119082 203.057405,300.101008 C215.719178,308.980986 230.525967,313.205142 248.365101,313.205142 C254.578033,313.094863 260.77147,312.476127 266.883233,311.355147 C271.697947,310.430149 276.335196,313.760141 277.222523,318.940128 C278.163818,323.91748 274.8954,328.717026 269.915577,329.670101 C262.810787,331.072489 255.591427,331.81565 248.349669,331.890095 L248.349669,331.920928 Z M212.493937,370 C211.710524,369.967474 210.933631,369.843293 210.17917,369.630001 C181.815565,361.490021 163.266569,350.575049 143.822531,330.780098 C118.846201,305.065162 105.119635,270.840248 105.119635,234.210339 C105.119635,204.240414 129.733319,179.820475 160.049044,179.820475 C190.364769,179.820475 214.986168,204.240414 214.986168,234.210339 C214.986168,254.00529 231.575328,270.10025 252.084159,270.10025 C272.59299,270.10025 289.18215,254.00529 289.18215,234.210339 C289.18215,164.465514 231.212681,107.855655 159.871579,107.855655 C109.216772,107.855655 62.8442835,137.085582 41.9805217,182.410469 C35.0362222,197.395431 31.4560501,214.970387 31.4560501,234.210339 C31.4560501,248.640303 32.6983081,271.395246 43.4002451,300.995172 C45.1903312,305.80516 42.8678488,311.170147 38.2306,312.835143 C36.0037303,313.682351 33.5273138,313.585582 31.373488,312.567193 C29.2196622,311.548803 27.5747566,309.696895 26.8188012,307.439323 C18.2130163,283.981395 13.8043783,259.194104 13.7943818,234.210339 C13.7943818,212.010395 17.8992344,191.814612 25.9237582,174.270489 C49.6501146,122.624785 102.264757,89.1707018 159.871579,89.1707018 C241.027291,89.1707018 307.021284,154.10554 307.021284,234.02534 C307.021284,263.995265 282.4076,288.415204 252.084159,288.415204 C221.760718,288.415204 197.147035,263.995265 197.147035,234.02534 C197.154751,214.230389 180.565591,198.104596 160.05676,198.104596 C139.547929,198.104596 122.958769,214.199556 122.958769,233.994507 C122.958769,265.598594 134.733215,295.229354 156.314554,317.429298 C173.289508,334.819255 189.492874,344.408397 214.638953,351.654213 C219.453668,352.949209 222.131081,358.129196 220.881107,362.939184 C220.078911,366.960685 216.597115,369.891867 212.493937,370 Z" id="Shape"></path>
        </g>
        <g id="extension-puzzle-outline" transform="translate(1199.000000, 525.000000)" stroke="#000000" stroke-linecap="round" stroke-linejoin="round" stroke-width="26">
            <path d="M309.404615,167.622036 L286,167.622036 C285.065364,167.622036 284.307692,166.86436 284.307692,165.929719 L284.307692,100.572427 C284.307692,82.412352 269.586126,67.6907027 251.426154,67.6907027 L186.069231,67.6907027 C185.134595,67.6907027 184.376923,66.9330265 184.376923,65.9983855 L184.376923,42.5936379 C184.376923,19.6288929 166.184615,0.404169007 143.22,0.006474454 C131.980715,-0.190976772 121.133242,4.13490316 113.114153,12.0124297 C105.095064,19.8899562 100.576651,30.6587056 100.573846,41.8997879 L100.573846,65.9983855 C100.573846,66.9330265 99.8161742,67.6907027 98.8815385,67.6907027 L33.5246154,67.6907027 C15.0326253,67.7464581 0.0557551236,82.7234129 0,101.215507 L0,160.768151 C0,161.702792 0.757671962,162.460468 1.69230769,162.460468 L24.4623077,162.460468 C49.3138462,162.460468 69.8838462,184.02059 70.2307692,208.872269 C70.5861538,234.147027 50.3376923,257.230234 25.1392308,257.230234 L1.69230769,257.230234 C0.757671962,257.230234 0,257.98791 0,258.922551 L0,318.475195 C0.0557551236,336.96729 15.0326253,351.944245 33.5246154,352 L93.0769231,352 C94.0115588,352 94.7692308,351.242324 94.7692308,350.307683 L94.7692308,332.597583 C94.7692308,306.9759 115.711538,284.916544 141.307692,284.315772 C166.776923,283.723461 189.538462,301.501253 189.538462,326.860627 L189.538462,350.307683 C189.538462,351.242324 190.296134,352 191.230769,352 L251.426154,352 C269.586126,352 284.307692,337.278351 284.307692,319.118276 L284.307692,253.117903 C284.307692,252.183262 285.065364,251.425586 286,251.425586 L310.098462,251.425586 C333.477692,251.425586 352,232.24317 352,208.779191 C352,185.315213 332.369231,167.622036 309.404615,167.622036 Z" id="Path"></path>
        </g>
        <g id="download-outline" transform="translate(3233.750000, 1867.520292)" stroke="#000000" stroke-linecap="round" stroke-linejoin="round" stroke-width="28">
            <path d="M179.25,95.4594155 L209.125,95.4594155 C225.624507,95.4594155 239,108.82869 239,125.320527 L239,280.598304 C239,297.090141 225.624507,310.459415 209.125,310.459415 L29.875,310.459415 C13.3754931,310.459415 0,297.090141 0,280.598304 L0,125.320527 C0,108.82869 13.3754931,95.4594155 29.875,95.4594155 L59.75,95.4594155" id="Path"></path>
            <polyline id="Path" points="60.3535534 166.241901 119.853553 226.241901 179.353553 166.241901"></polyline>
            <line x1="120.207107" y1="0" x2="120.207107" y2="215" id="Path"></line>
        </g>
        <g id="cloudy-outline" transform="translate(3839.000000, 1246.000000)" stroke="#000000" stroke-linejoin="round" stroke-width="32">
            <path d="M61.0305,105.26275 C66.0102241,104.516141 69.9322757,100.629291 70.72375,95.6565 C80.185,35.95275 123.4965,0 174,0 C220.90025,0 252.14775,30.711 264.567,63.075 C266.054984,66.9843867 269.520012,69.7995494 273.65125,70.4555 C314.186,76.8935 348,103.82725 348,150.8 C348,198.65 308.85,232 261,232 L72.5,232 C32.625,232 0,212.106 0,168.2 C0,128.73825 31.82025,109.61275 61.0305,105.26275 Z" id="Path"></path>
        </g>
        <g id="analytics-outline" transform="translate(4452.000000, 587.000000)" stroke="#000000" stroke-linecap="round" stroke-linejoin="round" stroke-width="26">
            <line x1="312" y1="136" x2="400" y2="48" id="Path"></line>
            <line x1="200" y1="72" x2="264" y2="136" id="Path"></line>
            <line x1="48" y1="176" x2="152" y2="72" id="Path"></line>
            <circle id="Oval" cx="424" cy="24" r="24"></circle>
            <circle id="Oval" cx="288" cy="160" r="24"></circle>
            <circle id="Oval" cx="176" cy="48" r="24"></circle>
            <circle id="Oval" cx="24" cy="200" r="24"></circle>
        </g>
        <g id="albums-outline" transform="translate(1861.000000, 1205.000000)" stroke="#000000" stroke-width="24">
            <rect id="Rectangle" stroke-linejoin="round" x="0" y="87" width="344" height="229" rx="28.87"></rect>
            <line x1="72" y1="0.5" x2="273" y2="0.5" id="Path" fill="#000000" fill-rule="nonzero" stroke-linecap="round"></line>
            <line x1="43" y1="43.5" x2="301" y2="43.5" id="Path" fill="#000000" fill-rule="nonzero" stroke-linecap="round"></line>
        </g>
        <g id="airplane-outline" transform="translate(5336.500000, 2028.000000) scale(1, -1) translate(-5336.500000, -2028.000000) translate(5144.000000, 1863.000000)" stroke="#000000" stroke-linecap="round" stroke-linejoin="round" stroke-width="28">
            <path d="M322.884731,137.5 C319.962873,137.5 310.174648,137.585938 307.41607,137.757812 L251.642952,139.21875 C251.051828,139.254968 250.49048,138.956023 250.190617,138.445312 L138.833443,3.059375 C137.466445,1.24978467 135.374108,0.131352031 133.110039,0 L110.001577,0 L172.735593,138.359375 C173.040016,139.003704 172.982325,139.760779 172.583784,140.35154 C172.185244,140.9423 171.504857,141.279285 170.793416,141.238281 L66.2166723,142.785156 C64.0094916,142.852007 61.9027057,141.862451 60.5448299,140.121094 L28.7481373,101.449219 C26.170027,98.0976563 21.3403673,96.2929688 17.1380476,96.2929688 L0.930328077,96.2929688 C-0.178259314,96.2929688 -0.0149790007,97.3328125 0.285800524,98.38125 L17.3357027,159.757812 C18.6244983,163.044851 18.6244983,166.697337 17.3357027,169.984375 L0.268613123,231.171875 C-0.238415219,232.847656 -0.178259314,233.75 1.78969815,233.75 L17.1896098,233.75 C24.1848822,233.75 25.138783,232.839063 28.7137625,228.335938 L61.1120141,189.0625 C62.4812273,187.335401 64.5804093,186.349416 66.7838566,186.398438 L170.492637,188.71875 C171.259269,188.736181 171.967778,189.131259 172.385571,189.774285 C172.803363,190.417312 172.876476,191.22523 172.580906,191.932812 L110.001577,330 L132.895196,330 C135.15476,329.868267 137.243229,328.753364 138.610007,326.949219 L250.199211,191.640625 C250.534365,191.125 251.917951,190.867188 252.510916,190.867188 L307.424664,192.328125 C310.260585,192.5 319.962873,192.585938 322.893325,192.585938 C360.937638,192.585938 385,182.127344 385,165 C385,147.872656 361.040762,137.5 322.884731,137.5 Z" id="Path"></path>
        </g>
        <g id="sparkles-outline" transform="translate(2502.000000, 1831.000000)" stroke="#000000" stroke-linecap="round" stroke-linejoin="round" stroke-width="26">
            <path d="M195.59526,197.262839 L160.729587,106.621705 C159.658544,103.837276 156.983317,102 154,102 C151.016683,102 148.341456,103.837276 147.270413,106.621705 L112.40474,197.262839 C111.67237,199.167346 110.167346,200.67237 108.262839,201.40474 L17.6217053,236.270413 C14.8372762,237.341456 13,240.016683 13,243 C13,245.983317 14.8372762,248.658544 17.6217053,249.729587 L108.262839,284.59526 C110.167346,285.32763 111.67237,286.832654 112.40474,288.737161 L147.270413,379.378295 C148.341456,382.162724 151.016683,384 154,384 C156.983317,384 159.658544,382.162724 160.729587,379.378295 L195.59526,288.737161 C196.32763,286.832654 197.832654,285.32763 199.737161,284.59526 L290.378295,249.729587 C293.162724,248.658544 295,245.983317 295,243 C295,240.016683 293.162724,237.341456 290.378295,236.270413 L199.737161,201.40474 C197.832654,200.67237 196.32763,199.167346 195.59526,197.262839 Z" id="Path"></path>
            <polygon id="Path" points="73.4722222 41.5277778 57.5 0 41.5277778 41.5277778 0 57.5 41.5277778 73.4722222 57.5 115 73.4722222 73.4722222 115 57.5"></polygon>
            <polygon id="Path" points="328.391563 80.6084375 307 25 285.608437 80.6084375 230 102 285.608437 123.391562 307 179 328.391563 123.391562 384 102"></polygon>
        </g>
        <g id="star-outline" transform="translate(1826.000000, 516.000000)" stroke="#000000" stroke-linejoin="round" stroke-width="26">
            <polygon id="Path" points="416 142.307692 256.285714 142.307692 208 0 159.714286 142.307692 0 142.307692 130 227.692308 79.8571429 370 208 281.057692 336.142857 370 286 227.692308"></polygon>
        </g>
        <g id="sunny-outline" transform="translate(535.000000, 1853.000000)" stroke="#000000" stroke-linecap="round" stroke-width="32">
            <line x1="175.5" y1="0" x2="175.5" y2="40" id="Path"></line>
            <line x1="175.5" y1="310" x2="175.5" y2="350" id="Path"></line>
            <line x1="299" y1="51" x2="270" y2="80" id="Path"></line>
            <line x1="80" y1="270" x2="51" y2="299" id="Path"></line>
            <line x1="350" y1="175.5" x2="310" y2="175.5" id="Path"></line>
            <line x1="40" y1="175.5" x2="0" y2="175.5" id="Path"></line>
            <line x1="299" y1="299" x2="270" y2="270" id="Path"></line>
            <line x1="80" y1="80" x2="51" y2="51" id="Path"></line>
            <circle id="Oval" cx="175.5" cy="175.5" r="67.5"></circle>
        </g>
        <g id="terminal-outline" transform="translate(1225.000000, 1899.000000)" stroke="#000000" stroke-linejoin="round" stroke-width="28">
            <rect id="Rectangle" x="0" y="-1.13686838e-13" width="291" height="270" rx="48"></rect>
            <polyline id="Path" stroke-linecap="round" points="41.7182541 41.881205 93.7182541 83.381205 41.7182541 124.881205"></polyline>
            <line x1="103.286797" y1="124.393398" x2="145.286797" y2="124.393398" id="Path" stroke-linecap="round"></line>
        </g>
        <g id="toggle-outline" transform="translate(3838.000000, 1935.000000)" stroke="#000000" stroke-linejoin="round" stroke-width="28">
            <circle id="Oval" cx="255" cy="93" r="93"></circle>
            <rect id="Rectangle" x="0" y="0" width="349" height="186" rx="93"></rect>
        </g>
        <g id="tv-outline" transform="translate(4504.000000, 1905.000000)" stroke="#000000" stroke-width="28">
            <rect id="Rectangle" stroke-linejoin="round" x="0" y="0" width="344" height="209" rx="32.14"></rect>
            <line x1="74" y1="245.5" x2="270" y2="245.5" id="Path" fill="#000000" fill-rule="nonzero" stroke-linecap="round"></line>
        </g>
        <g id="water-outline" transform="translate(5867.000000, 1178.000000)" stroke="#000000" stroke-width="32">
            <path d="M262,239.435791 C262,319.560507 211.392153,370 131,370 C50.6078472,370 0,319.560507 0,239.435791 C0,153.453819 93.910625,37.3786109 122.712431,3.80366189 C124.786433,1.38958916 127.815787,0 131.004549,0 C134.19331,0 137.222664,1.38958916 139.296667,3.80366189 C168.089375,37.3786109 262,153.453819 262,239.435791 Z" id="Path"></path>
            <path d="M210.876154,247.252309 C210.876154,283.150817 181.774663,312.252309 145.876154,312.252309" id="Path" stroke-linecap="round" stroke-linejoin="round"></path>
        </g>
        <g id="shield-outline" transform="translate(5187.000000, 552.000000)" stroke="#000000" stroke-linecap="round" stroke-linejoin="round" stroke-width="28">
            <path d="M297.355909,46.1112019 C233.299968,34.6210096 206.81654,26.1108173 149,0 C91.1834601,26.1108173 64.700032,34.6210096 0.644090976,46.1112019 C-10.9607653,230.04024 137.953896,293.55149 149,298 C160.046104,293.55149 308.960765,230.04024 297.355909,46.1112019 Z" id="Path"></path>
        </g>
        <g id="search-outline" transform="translate(4015.000000, 699.000000) scale(-1, 1) translate(-4015.000000, -699.000000) translate(3884.000000, 568.000000)" stroke="#000000" stroke-width="32">
            <path d="M107,0 C47.9055318,0 0,47.9055318 0,107 C0,166.094468 47.9055318,214 107,214 C166.094468,214 214,166.094468 214,107 C213.996239,47.9070898 166.09291,0.00376136408 107,0 Z" id="Path"></path>
            <line x1="187" y1="187" x2="262" y2="262" id="Path" stroke-linecap="round"></line>
        </g>
        <g id="rocket-outline" transform="translate(3192.000000, 1208.000000)" stroke="#000000" stroke-linecap="round" stroke-linejoin="round" stroke-width="28">
            <path d="M322.293243,4.38994046 C322.022791,3.08383762 321.020263,2.05312137 319.72298,1.74740977 C277.368153,-8.62004105 179.52679,28.3208232 126.462533,81.3896992 C117.00531,90.7769749 108.381897,100.969777 100.6898,111.852855 C84.3335776,110.371791 67.9773555,111.619003 54.0512007,117.699162 C14.7261695,135.004231 3.28460273,180.20008 0.0912450802,199.602024 C-0.259440025,201.756834 0.412202778,203.952221 1.90821912,205.541134 C3.40423547,207.130048 5.55408856,207.931361 7.72414873,207.708903 L70.8669547,200.771285 C70.9106378,205.537746 71.1965922,210.298896 71.7237092,215.036274 C72.0532412,218.310649 73.5129972,221.367629 75.8517081,223.681013 L100.300366,248.149756 C102.613856,250.492014 105.671355,251.9531 108.945797,252.281146 C113.650827,252.806307 118.379426,253.092493 123.113401,253.138604 L116.189267,316.278718 C115.970175,318.447687 116.771003,320.595339 118.356343,322.090356 C119.941682,323.585372 122.131359,324.257846 124.281703,323.910097 C143.675509,320.792067 188.927724,309.341101 206.117334,269.991558 C212.192502,256.038372 213.438691,239.754459 212.036729,223.462751 C222.942945,215.771443 233.156436,207.140617 242.560555,197.668845 C295.819529,144.662329 332.49641,48.8920282 322.293243,4.38994046 Z M195.220975,129.002022 C185.707773,119.483186 182.860993,105.166127 188.008199,92.7274489 C193.155405,80.2887703 205.282833,72.1783215 218.734991,72.1783215 C232.187149,72.1783215 244.314578,80.2887703 249.461784,92.7274489 C254.60899,105.166127 251.762209,119.483186 242.249008,129.002022 C236.017283,135.25208 227.557322,138.764439 218.734991,138.764439 C209.912661,138.764439 201.4527,135.25208 195.220975,129.002022 L195.220975,129.002022 Z" id="Shape"></path>
            <path d="M47.65625,237 C39.8680764,237.956043 32.6225611,241.486685 27.0703125,247.03125 C13.3046875,260.84375 12,312 12,312 C12,312 63.1875,310.695312 76.9609375,296.914062 C82.527949,291.37059 86.0645794,284.112929 87,276.3125" id="Path"></path>
        </g>
        <g id="pricetag-outline" transform="translate(3208.000000, 558.000000)">
            <path d="M271.849743,0 L185.562738,0 C182.879764,0 180.305096,1.05795876 178.401409,2.94809625 L5.89760872,175.410559 C-1.96586957,183.310761 -1.96586957,196.07862 5.89760872,203.978822 L88.0422753,286.103805 C95.9443712,293.965398 108.71529,293.965398 116.617386,286.103805 L289.050977,113.711534 C290.941567,111.808303 292,109.234252 292,106.55192 L292,20.2154002 C292.025941,14.8581352 289.913662,9.71171206 286.131145,5.91692595 C282.348629,2.12213984 277.208351,-0.00752106705 271.849743,0 Z" id="Path" stroke="#000000" stroke-width="30" stroke-linecap="round" stroke-linejoin="round"></path>
            <path d="M235.5,79 C223.073593,79 213,68.9264069 213,56.5 C213,44.0735931 223.073593,34 235.5,34 C247.926407,34 258,44.0735931 258,56.5 C258,62.467371 255.629471,68.1903341 251.409903,72.4099026 C247.190334,76.6294711 241.467371,79 235.5,79 Z" id="Path" fill="#000000" fill-rule="nonzero"></path>
        </g>
    </g>
</svg>