<?xml version="1.0" encoding="utf-8"?>
<!-- Generator: Adobe Illustrator 22.1.0, SVG Export Plug-In . SVG Version: 6.00 Build 0)  -->
<svg version="1.1" id="root" xmlns="http://www.w3.org/2000/svg" xmlns:xlink="http://www.w3.org/1999/xlink" x="0px" y="0px"
	 viewBox="0 0 499.8 478.1" style="enable-background:new 0 0 499.8 478.1;" xml:space="preserve">
<style type="text/css">
	.st0{fill:#5D7404;}
	.st1{fill:#9ACC9A;}
	.st2{fill:#231F20;}
	.st3{fill:#DBB928;}
	.st4{fill:#DDBE22;}
	.st5{fill:#DCD9D8;}
	.st6{enable-background:new    ;}
	.st7{fill:#C14669;stroke:#DCD9D8;stroke-width:0.75;stroke-linecap:round;stroke-miterlimit:10;}
	.st8{fill:#F0D6B7;}
	.st9{fill:#01748A;}
	.st10{fill:#6D6B6D;}
	.st11{fill:#F7E4CD;}
	.st12{fill:#8BC2C9;}
	.st13{fill:#49728B;}
	.st14{fill:#FFFFFF;}
	.st15{fill:#D4E8E2;}
	.st16{fill:#F70612;}
	.st17{fill:#EF929C;}
	.st18{display:none;fill:#81B0C4;}
	.st19{fill:#E4F2F4;}
	.st20{fill:#CE281F;}
</style>
<g id="base">
	<path id="path22" inkscape:connector-curvature="0" class="st0" d="M316,246c0,61.8-49,111.9-109.4,111.9S97.2,307.8,97.2,246
		s49-111.9,109.4-111.9S316,184.2,316,246"/>
	<path id="path24" inkscape:connector-curvature="0" class="st1" d="M103.1,273.2c0,0-7.9-116.6,99.6-120l-7.5-12.5l-58.4,19.6
		l-16.6,19.1l-14.6,28L97.2,240l2.5,21.6"/>
	<path id="path26" inkscape:connector-curvature="0" class="st2" d="M133.1,169.2C113.9,188.9,102,216,102,246l0,0
		c0,30,11.9,57.1,31.1,76.8l0,0c19.1,19.6,45.6,31.8,74.9,31.8l0,0c29.2,0,55.8-12.1,74.9-31.8l0,0C302.1,303.1,314,276,314,246l0,0
		c0-30-11.9-57.1-31.1-76.8l0,0c-19.2-19.6-45.6-31.8-74.9-31.8l0,0C178.8,137.5,152.2,149.6,133.1,169.2L133.1,169.2z M128.2,327.5
		c-20.4-20.9-33-49.8-33-81.5l0,0c0-31.8,12.6-60.6,33-81.5l0,0c20.4-20.9,48.6-33.8,79.8-33.8l0,0c31.1,0,59.4,12.9,79.8,33.8l0,0
		c20.4,20.9,33,49.6,33,81.5l0,0c0,31.8-12.6,60.6-33,81.5l0,0c-20.4,20.9-48.6,33.8-79.7,33.8l0,0
		C176.9,361.2,148.6,348.4,128.2,327.5L128.2,327.5"/>
	<path class="st3" d="M100.2,260c3.1,4.3,18.3-10.9,18.3-10.9s-11.4,6.9-13.2,5c-3.2-3.2,6.9-16.3,6.9-16.3S97,255.5,100.2,260z"/>
	<path class="st4" d="M185.2,260c0-6.6-3.1-35.5-9.7-35.5l-44.5,0.3c0,0-27.5,8.3-31.9,35.2c-3.3,20.3-4,45.5-4,45.5
		c0,6.6,4.3,35.6,21.4,41l61.4,5.5c-3.9-5.4,7.3-6.7,7.3-13.3"/>
	<path id="tank-shape" class="st5" d="M124.2,343.9c19.9,2.1-26.5-25.5-1.8-80.7c2-4.5-7.4,13.8-19.2,2.8
		C101.3,264.2,86.4,339.9,124.2,343.9z"/>
	<g>
		<g>
			<g class="st6">
				<g>
					<path class="st2" d="M130.9,221l5.2,5.6c-0.1-0.1-0.1-0.1-0.2-0.2c-1.3-0.9-4.7,0.5-9.1,3.8c-3.1,2.4-6.8,5.7-10.5,9.9
						c-4.1,4.6-7.4,9.3-9.3,13.1c-1.6,3.3-2.1,5.7-1.2,6.6l-5.2-5.6c-0.9-0.9-0.4-3.3,1.2-6.6c1.9-3.9,5.2-8.5,9.3-13.1
						c3.7-4.2,7.4-7.5,10.5-9.9c4.4-3.3,7.8-4.7,9.1-3.8C130.7,220.9,130.8,221,130.9,221z"/>
				</g>
				<g>
					<path class="st4" d="M121.5,224.6c4.4-3.3,7.8-4.7,9.1-3.8c1.1,0.8,0.8,3.2-1,6.8c-1.9,3.9-5.2,8.5-9.3,13.1
						c-3.5,3.9-7.2,7.4-10.5,9.9c-0.6,0.4-1.2,0.9-1.7,1.2c-3.5,2.4-6.2,3.3-7.3,2.6c-1.1-0.8-0.8-3.2,1-6.8
						c1.9-3.9,5.2-8.5,9.3-13.1C114.8,230.4,118.4,227,121.5,224.6z"/>
				</g>
				<g>
					<path class="st4" d="M106,260.2c-0.1-0.1-0.2-0.1-0.2-0.2l-5.2-5.6c0.1,0.1,0.1,0.1,0.2,0.2c1.1,0.8,3.8-0.2,7.3-2.6
						c0.6-0.4,1.1-0.8,1.7-1.2c3.4-2.5,7.1-6,10.5-9.9c4.1-4.6,7.4-9.3,9.3-13.1c1.6-3.3,2.1-5.7,1.2-6.6l5.2,5.6
						c0.9,0.9,0.4,3.3-1.2,6.6c-1.9,3.9-5.2,8.5-9.3,13.1c-3.5,3.9-7.2,7.4-10.5,9.9c-0.6,0.4-1.2,0.9-1.7,1.2
						C109.8,260,107.2,260.9,106,260.2z"/>
				</g>
				<g>
					<path class="st2" d="M132,219.4c1.6,1.1,1.4,4.1-0.8,8.4c-2,4.1-5.5,9-9.7,13.8c-3.6,4.1-7.4,7.7-11,10.3
						c-0.6,0.5-1.3,0.9-1.9,1.3c-4.3,2.9-7.5,3.9-9.2,2.8c-1.6-1.1-1.3-4.1,0.8-8.4c2-4.1,5.5-9,9.7-13.8c3.7-4.2,7.5-7.7,10.9-10.3
						C125.9,219.8,130.1,218.1,132,219.4z M129.7,227.7c1.8-3.6,2.1-6.1,1-6.8c-1.3-0.9-4.7,0.5-9.1,3.8c-3.1,2.4-6.8,5.7-10.5,9.9
						c-4.1,4.6-7.4,9.3-9.3,13.1c-1.8,3.6-2.1,6-1,6.8c1.1,0.8,3.8-0.2,7.3-2.6c0.6-0.4,1.1-0.8,1.7-1.2c3.4-2.5,7.1-6,10.5-9.9
						C124.5,236.2,127.8,231.5,129.7,227.7"/>
				</g>
				<g>
					<path class="st2" d="M132.3,219.7l5.2,5.6c1.2,1.3,0.8,4.1-1.2,8.1c-2,4.1-5.5,9-9.7,13.8c-3.6,4.1-7.4,7.7-11,10.3
						c-0.6,0.5-1.3,0.9-1.9,1.3c-4.3,2.9-7.5,3.9-9.2,2.8c-0.1-0.1-0.3-0.2-0.4-0.3l-5.2-5.6c0.1,0.1,0.2,0.2,0.4,0.3
						c1.6,1.1,4.9,0.1,9.2-2.8c0.6-0.4,1.2-0.9,1.9-1.3c3.5-2.7,7.4-6.3,11-10.3c4.2-4.8,7.7-9.7,9.7-13.8
						C133.1,223.8,133.5,221,132.3,219.7z"/>
				</g>
			</g>
		</g>
	</g>
	<path class="st5" d="M103.2,262.6c7.4,8.8,28.7-18.8,28.7-18.8s-7.6,17.1-17.6,22.8C107.5,270.5,101,260,103.2,262.6z"/>
	<polygon class="st2" points="135.8,224.8 155.9,224.6 157,226 136.6,226.6 	"/>
	<line class="st7" x1="105.8" y1="255.9" x2="109.1" y2="259.5"/>
	<line class="st7" x1="113.5" y1="250.2" x2="116.9" y2="253.9"/>
	<line class="st7" x1="121.1" y1="242.8" x2="124.5" y2="246.4"/>
	<line class="st7" x1="127.6" y1="235.1" x2="131" y2="238.8"/>
	<line class="st7" x1="132.6" y1="226.8" x2="136" y2="230.4"/>
	<path class="st2" d="M101.9,258.4l-2.4-3.5c0,0-27.1,103.5,38.1,96.2c1.1-0.1,0.1-4.2-1-4.1C76.1,352,101.9,258.4,101.9,258.4z"/>
	<path id="path28" inkscape:connector-curvature="0" class="st8" d="M254,246.2l-16.6,2.5l-22.5,2.5l-14.6,0.4l-14.1-0.4l-10.9-3.4
		l-9.6-10.4l-7.5-21.2l-1.6-4.6l-10-3.4l-5.9-9.6l-4.1-13.8l4.6-12.1L152,169l8.8,4.1l4.1,9.1l5-0.9l1.6-2.1l-3.3-9.8l1.2-12
		l2.5-16.6l-0.1-9.5l7.6-12.1l13.4-9.6l23.4-10l25.9,3.8l22.5,16.2l10.4,16.6l6.6,12.1l1.6,30l-5,25.9l-9.1,22.9l-8.8,12.1"/>
	<polygon id="nek-skin" class="st8" points="203.5,297.9 273.1,297.9 266.1,234.4 203.5,232.9 	"/>
	<path id="path30" inkscape:connector-curvature="0" class="st9" d="M239.9,318.2l-59.6,2.5v10l5,35l-2.5,2.9l-41.6-14.1l-2.9-5
		l-7.6-46.2l-6.1-29.1l-2.1-6.6l33.4-23l10.4-4.1l10.1,9.9l7.9,2.4l7.9,3.6l5.8,3.5l22-5.1l10.4,4.2l7.4,6.4l4.6,10.5l2.4,40
		L239.9,318.2"/>
	<path id="path32" inkscape:connector-curvature="0" class="st10" d="M141.1,172.9l10.9-3.8l8.8,4.1l4.1,9.1l5-0.9l1.2-5l-2.5-9.6
		l2.5-22.9l-2.1-12.5l7.5-8.7l16.2-12.9l-4.6-6.2l-22.9,11.2l-9.6,7.5l-5.4,11.6l-8.4,11.2l-2.5,13.4L141.1,172.9"/>
	<path id="path34" inkscape:connector-curvature="0" class="st5" d="M158.2,133.8c0,0,6.2-15.4,31.2-22.9s1.2-5.4,1.2-5.4
		l-27.1,10.4l-10.4,10.4l-4.6,8.4L158.2,133.8"/>
	<path id="path38" inkscape:connector-curvature="0" class="st11" d="M159,208.8l5.5-5.2c0,0,2.5,0.2,2.9,3.2
		c0.4,2.9,1.6,29.1,19.6,43.4c1.6,1.2-13.4-2.1-13.4-2.1l-13.4-21"/>
	<path id="path40" inkscape:connector-curvature="0" class="st11" d="M235.8,200.8c0,0,1-12.6,4.4-11.6c3.4,1,3.4,4.4,3.4,4.4
		S235.2,198.9,235.8,200.8"/>
	<path id="path42" inkscape:connector-curvature="0" class="st11" d="M270.2,154.5c0,0-6.9,1.5-7.5,7.5s7.5,1.2,8.8,0.9"/>
	<path id="path44" inkscape:connector-curvature="0" class="st11" d="M219.9,155c0,0-9.1,1.2-9.1,7.1s10.4,5.4,13.4,2.9"/>
	<path id="path46" inkscape:connector-curvature="0" class="st11" d="M163.2,182c0,0-15.9-9.6-17.5-0.4c-1.6,9.1-5.4,15.9,2.5,25.4
		l-5.4-1.6l-5-12.9l-1.6-12.5l9.6-10l10.9,0.9l6.2,5L163.2,182"/>
	<path id="path48" inkscape:connector-curvature="0" class="st11" d="M170.8,155.8c0,0,7.1-36.6,42.9-43.8c29.5-5.9,45,1.2,50.9,7.9
		c0,0-26.2-31.2-51.2-21.6s-43.4,27.1-42.9,38.4C171,155.8,170.8,155.8,170.8,155.8"/>
	<path id="path50" inkscape:connector-curvature="0" class="st11" d="M267.4,124.1c0,0-12.1-0.4-12.5,10.4c0,0,0,1.6,0.9,3.4
		c0,0,9.6-10.9,15.4-5"/>
	<path id="path52" inkscape:connector-curvature="0" class="st11" d="M214.5,139c0,0-2.1-16.6-16.2-7c-9.1,6.2-8.4,15-6.6,16.6
		c1.6,1.6,1.2,5,2.5,2.8s0.9-9.8,5.4-11.9C204,137.5,211.6,135.1,214.5,139"/>
	<path id="path54" inkscape:connector-curvature="0" class="st12" d="M171.2,248.6c0,0-49.1,9.8-38.1,40.2c-1.1,10.4,0.5,22,1.9,26
		s9,21.8,9.1,23.2s-0.5,10.1-2.9,15.5l-3.8-3.2l-0.8-14.2l-4.9-9.1l-6.8-15.6l0.5-14.6l-6.8-17.2l3.1-14.6c1.1-10.2,38.5-25,38.5-25
		l13.4,9.2"/>
	<path id="path56" inkscape:connector-curvature="0" class="st12" d="M178.9,287.4c0,0,4.4,5.2,6,6.8c6.6,6.2,0,25,0,25h-6.6
		c0,0,0.9-17.6,0.9-19.8s-0.9-9.5-0.9-9.5"/>
	<path id="path58" inkscape:connector-curvature="0" class="st13" d="M179.5,322.9l-18.8,0.9l5.4,3.8l13.4,2.1"/>
	<path id="path62" inkscape:connector-curvature="0" class="st9" d="M245.9,318.8l23.4-1.2c0,0,11.5-23.1,11.5-24.4
		c0-0.5,2.4-8,3.5-15.9c1-3.1,3.9-7.6,4.6-10.6c1.5-6.1-1.5-9.8-1.5-9.8l-18.8-19.6l-3.8-3.4l-12.9,9.6l-11.1,34.9l-6.2,36.8"/>
	<path id="path64" inkscape:connector-curvature="0" class="st13" d="M258.2,315.8l-14.6,2.9l2.1,11.6c5.4,2.5,14.6-4.1,14.6-4.1"/>
	<path id="path66" inkscape:connector-curvature="0" class="st12" d="M259.6,248.2c0,0,26.8,0.8,29.8,19.2c0.2,1.4-1.4,3.6,0.2-2.4
		c1.2-4.6,0.2-9.8,0.2-9.8L264.5,232l-6.2,8.4"/>
	<path id="path68" inkscape:connector-curvature="0" class="st14" d="M194,400.8l-8.6-35l-4.2-25.9l-0.9-19.1l39-2.1h24.2l-2.2,43.8
		l3.8,33.8l-0.4,6.2l-31.6,2.5L194,400.8"/>
	<g id="stick">
		<path class="st15" d="M306.6,260.1l-2.4,7.6c0,0,0.1,0,0.1,0l-0.1,0L306.6,260.1z"/>
		<path class="st15" d="M320.5,237.8c0-0.2-0.1-0.5-0.1-0.7l0,0C320.4,237.2,320.5,237.6,320.5,237.8
			C320.5,237.8,320.5,237.8,320.5,237.8z"/>
		<path class="st15" d="M323.2,241.9c-1.4-1-2.4-2.5-2.8-4.1c0,0.2,0.2,0.7,0.2,0.7l-7.1,3.9l-7.4,25.4l-0.1,0
			c0.2,0,0.5,0.1,0.7,0.2c1.6,0.5,2.8,1.1,3.7,1.9l7.7-24.4L323.2,241.9z"/>
		<polygon class="st16" points="299.6,271.6 297.6,277.7 299.6,271.6 		"/>
		<path class="st16" d="M306.4,269c-0.8-0.2-1.5-0.3-2.2-0.2l-17.1,51.1l9.7,3.2l15.2-48.5C312.1,274,311.6,270.4,306.4,269z"/>
		<path class="st15" d="M328.6,231.2c-0.7-0.2-1.4-0.3-2.1-0.2c-0.7,0.1-1.5,0.3-2.1,0.6c-1.3,0.7-2.3,1.9-2.7,3.3
			c-0.9,2.9,0.8,6.1,3.7,7c1.4,0.4,2.9,0.3,4.2-0.4c1.3-0.7,2.3-1.9,2.7-3.3c0.4-1.4,0.3-2.9-0.4-4.2
			C331.2,232.6,330,231.6,328.6,231.2z M329,241c-3.1,1.4-6-1.7-6-1.7s3.1,0.7,5-0.2c1.7-0.8,3.7-3.8,3.7-3.8S332.1,239.6,329,241z"
			/>
		<path class="st2" d="M332.7,233.4c-0.8-1.6-2.2-2.7-3.9-3.2c-1.7-0.5-3.5-0.3-5,0.5c-1.6,0.8-2.7,2.2-3.2,3.9
			c-0.1,0.4-0.2,0.9-0.3,1.3l-9.1,5.7l-8.2,26.3c-3,0.7-4.5,3.3-4.5,3.3l-16,48.3l14.9,4.9l15.5-49.5l0-0.2c0,0-0.1-2.1-1.8-4
			l7.7-24.5l5.3-3.6c0.3,0.1,0.5,0.2,0.8,0.3c0.8,0.3,1.7,0.3,2.5,0.3c0.9-0.1,1.7-0.3,2.5-0.7c1.6-0.8,2.7-2.2,3.2-3.9
			C333.7,236.7,333.6,234.9,332.7,233.4z M332.3,238.1c-0.4,1.4-1.4,2.6-2.7,3.3c-1.3,0.7-2.8,0.8-4.2,0.4c-2.9-0.9-4.6-4-3.7-7
			c0.4-1.4,1.4-2.6,2.7-3.3c0.7-0.4,1.4-0.6,2.1-0.6c0.7-0.1,1.4,0,2.1,0.2c1.4,0.4,2.6,1.4,3.3,2.7
			C332.6,235.2,332.7,236.7,332.3,238.1z M312.1,274.6l-15.2,48.5l-9.7-3.2l0,0l-3.2-1.1l13.7-41.1l2-6.1c0,0,0,0,0,0l0,0
			c0,0,0.4-0.7,1.3-1.5c0.6-0.5,1.4-0.9,1.8-1.1c0.6-0.2,1.6-0.3,1.6-0.3l0,0c0.7,0,1.4,0,2.2,0.2
			C311.6,270.4,312.1,274,312.1,274.6z M306.7,268c-0.2-0.1-0.5-0.1-0.7-0.2l-1.7-0.1c0,0-0.1,0-0.1,0l2.4-7.6l5.6-17.9l8.2-5.2
			c0,0,0,0,0,0l0,0c0,0.3,0.1,0.5,0.1,0.7c0,0,0,0,0,0c0.3,1.7,1.3,3.2,2.8,4.1l-5.1,3.6l-7.7,24.4
			C309.6,269.1,308.3,268.4,306.7,268z"/>
		<path class="st14" d="M313.6,242.4l7.1-3.9c0,0-0.1-0.5-0.2-0.7c0,0,0,0,0,0c0,0,0,0,0,0c0-0.1-0.1-0.6-0.1-0.7c0,0,0,0,0,0
			l-8.2,5.2l-5.6,17.9l-2.4,7.6l0.1,0l1.7,0.1l0.1,0L313.6,242.4z"/>
		<path class="st14" d="M328,239.1c-1.9,0.9-5,0.2-5,0.2s2.8,3.2,6,1.7c3.2-1.4,2.8-5.8,2.8-5.8S329.7,238.3,328,239.1z"/>
		<path class="st17" d="M304.3,268.7L304.3,268.7c0,0-0.9,0-1.6,0.3c-0.4,0.2-1.2,0.6-1.8,1.1c-1,0.8-1.3,1.5-1.3,1.5l0,0l-2,6.1
			l-13.7,41.1l3.2,1.1l0,0L304.3,268.7z"/>
	</g>
	<path id="path70" inkscape:connector-curvature="0" class="st5" d="M238.2,318.2c0,0-2.1,43.4,4.1,74.1c0,0-12.5,7.9-30.9,10
		l35-1.2l4.1-2.5l-5-68.4l-1.2-14.6"/>
	<path id="path72" inkscape:connector-curvature="0" class="st5" d="M248.1,360.8c0.4,3.9,31.2-13.1,31.2-13.1l30.9-1.6l4.6-14.1
		l-8.4-24.6l-12.1-2.2l-11.5,3.5l-12.1,7.9c0,0,3.2,3.4-6.8-1.2c-10.1-4.6-20.1,0.9-19.1,4.1"/>
	<path id="path74" inkscape:connector-curvature="0" class="st4" d="M247,349.5c0,0,27.1-9.5,28.8-9.1l-4.6-22.9l5.4-2.1
		c0,0,3.8,21.6,3.8,24.1c0,0,23.4,1.2,25.4,1.2c0,0,5-9.6,3.8-19.6l4.6,13.4l0.4,7.5l-6.6,10l-7.5,1.6l-12.5-0.4l-4.1-5.4l-13.5,5.5
		l-21.7,9"/>
	<path id="path82_1_" inkscape:connector-curvature="0" class="st5" d="M179.1,253.8"/>
	<path id="path100" inkscape:connector-curvature="0" class="st2" d="M214.5,139c-11.4-2.6-17,4.8-20.5,12.4c-3.1-0.8-1.9-4.9-1.1-7
		c2-5.6,10.2-13,16.9-12C212.8,132.8,216.6,135.4,214.5,139"/>
	<path id="path102" inkscape:connector-curvature="0" class="st2" d="M269.9,151.9c0.1,0,0.4,0,0.5,0c2.6,5.4,4.8,11,8,15.6
		c-2.1,5-16.4,9.5-16.2,0.5c3.1-1.4,8.4-0.2,11.1-2C271.8,161.8,269.5,158,269.9,151.9"/>
	<path id="path104" inkscape:connector-curvature="0" class="st2" d="M220.2,152.1c2.4,4.5,3.2,9.1,6.7,12.5
		c1.5,1.5,4.6,3.4,3.1,7.6c-0.4,1-2.9,3.2-4.4,3.6c-5.4,1.6-18,0.4-13.8-6.4c4.5,0.2,10.5,2.9,13.9-0.4
		C223.2,165,218.6,156.9,220.2,152.1"/>
	<path id="path106" inkscape:connector-curvature="0" class="st2" d="M267.8,197.4c-8.1,5.2-17.2,10.9-30.6,9.6
		c-2.9-2.5-4-8-1.1-11.6c1.5,2.5,0.5,7,4.5,7.8c7.6,1.2,16.4-4.6,21.9-6.8c3.4-5.7-0.2-7.7-3.4-11.5c-6.2-7.5-14.6-16.9-14.2-28.1
		c2.5-1.9,2.7,2.7,3.1,3.6c3.2,7.6,11.5,17.4,17.4,23.9c1.5,1.6,3.9,3.1,4.1,4.2C270.2,191.6,267.5,195.4,267.8,197.4"/>
	<path id="path108" inkscape:connector-curvature="0" class="st2" d="M160.4,191.9c-2.5-1.5-3.1-7.9-6.1-8
		c-4.2-0.2-3.5,8.4-3.5,13.4c-3-2.6-3.5-10.9-1.2-15.1c-2.5-1.2-3.6,1.4-5,2.2C146.2,171.5,163.2,178.4,160.4,191.9"/>
	<path id="path110" inkscape:connector-curvature="0" class="st2" d="M273,202.8c-3.8,7.2-9.1,15.1-20.2,15.4
		c-0.2-2.4-0.4-5.9,0-7.2C261.2,210,266.5,205.8,273,202.8"/>
	<path id="path112" inkscape:connector-curvature="0" class="st2" d="M219.6,207.4c7.1,3.8,20.1,4.1,29.8,3.9
		c0.5,2.1,0.5,4.8,0.5,7.2C237.6,219.2,222.9,216.1,219.6,207.4"/>
	<path id="path114" inkscape:connector-curvature="0" class="st2" d="M218.2,214.4c4.9,12.4,21.8,10.9,36,10.6
		c-0.6,1.6-2,3.5-3.6,4.1c-4.5,1.9-17.1,3.2-23.5-0.1c-4-2.1-6.6-7-8.8-9.8C217.4,217.9,212,214.4,218.2,214.4"/>
	<path id="path116" inkscape:connector-curvature="0" class="st18" d="M267.2,282.4c-5.8,9.9-11.2,20-18.1,28.8
		c2.9-8.4,4.1-22.5,4.5-33.2C259.6,275,264.8,278.4,267.2,282.4"/>
	<path id="path124" inkscape:connector-curvature="0" class="st5" d="M256.1,360.4c0.9,7.4,3.8,14.9,3.4,23c-3.3,1.1-5.1,2.1-9.5,2
		c-0.2-6.9-1.2-17.5-1-24C251.1,361.6,254.4,360,256.1,360.4"/>
	<path id="path128" inkscape:connector-curvature="0" class="st18" d="M211,297.2c1.9-8,9.1-12.2,15.8-16.6
		c6.9,8.6,11,19.8,15.5,30.5C231.5,307.9,220.5,302.5,211,297.2"/>
	<path id="path130" inkscape:connector-curvature="0" class="st2" d="M248,364.5c-0.1,6,0.6,12.8,1,19c0,0.5,0.5,1,1,0.9
		c3.4-0.1,5.2-0.9,7.9-1.9c0.4-0.1,0.6-0.5,0.6-0.9c0.1-7.4-2.1-12.5-3-19.2c-0.1-0.5-0.5-1-1.1-0.9c-1.6,0.2-3.9,1.6-5.6,1.9
		C248.4,363.8,248,364.1,248,364.5z M180,324c2.9,26,7,47.9,14.5,70.9c0.1,0.4,0.4,0.6,0.6,0.6c16.6,4.9,36.4,5.4,51.2,1
		c0.5-0.1,0.8-0.6,0.6-1.1c-2.5-13.1-1.4-28.9-3-42.6c-1.2-10.4-0.6-20.9-2.1-31.5c0-0.4-0.4-0.8-0.8-0.9
		c-17.9-3.5-42.6-0.8-60.2,2.4C180.4,323,180,323.5,180,324z M301.9,349.6c6.5-1.6,10.6-9.5,8.8-17.8c-1.2-5.5-3.4-15.9-5.8-19.4
		c-1.6-2.5-3.4-6.5-8.5-6.5c-0.1,0-0.1,0-0.2,0c-2.5,0.5-8.1,2.6-11.9,4c-3.1,1.1-9.4,6.5-13.6,7.6h-0.1c-10.1,1.2-22.4-2-24.2,2.1
		c-1.9,4.4,1.2,30.4,2.5,39.5c0.1,0.6,0.6,0.9,1.1,0.8c4.6-1,19.4-7.4,25.5-11.1c10-6.1,17.5-5.5,22.1-4.1c1,0.2,0.9,1.8-0.1,1.9
		c-2.6,0.5-5.5,0.9-7.9,1.6c-1,0.2-0.9,1.8,0.1,1.9C293.4,350.9,298.4,350.5,301.9,349.6L301.9,349.6z M226.2,252
		c0,0,15.3,10.1,14.8,15.2c0,0.6,3.2-15,3.2-15s7.7-8.1,5.8-6.2C240,255,226.2,252,226.2,252z M158.1,247.1
		c-4.5-2.8,2.4-7.1,2.4-7.1l-6.6,3.9c0,0-4.9,2.6-5,2.6c-17.9,7.8-31.8,24.2-26.5,38c2.3,6,5,3.6,4.6,7.1c-0.6,5-3.6,18.5,5.6,31.8
		c4,5.8,8.2,21.6,8.6,27.5c0,0.4,0.2,0.6,0.6,0.9c12.1,5.6,22.8,10.6,39,11.8c0.6,0,1.1-0.5,1-1.1c-1.9-13.4-3.6-25.4-4.8-38
		c0-0.4-0.2-0.8-0.6-0.9c-3.9-1.2-9.1,0-12.9-0.2c-0.6,0-1.1-0.6-0.9-1.2c0.9-3.2,6.1-1.2,6.5-4.2c0.4-2.1-2.4-2.6-2.4-5.1
		c0-0.8,0.8-1.2,1.4-0.9c2.1,1.1,3.6,2.9,6,3.8c0.5,0.2,1,0,1.2-0.4c3.6-6.1,2-18,0.1-23.5c0.1-1,0.5-5.9,2.9-5
		c0.9,1,0,1.4,1.6,18.1c0.2,4.6-2,8.9-0.5,12c0.1,0.4,0.6,0.6,1,0.5c15-2,30.1-3.4,46.1-4c1,0,13.5-0.5,13.5-0.5
		s12.5-54.4-19.5-53.4c-3.4-0.9-8.6,11-8.6,11S182.4,262.5,158.1,247.1z M262.3,256.4c0.5,2.1-10.8-1.6-10.8-1.6s-8.3,16.5-8.1,16.8
		c4.2,8.2-1.5,40.9-1.5,40.9s9.6,0.2,10.5,0c4.6-1.2,14-1.2,18.7-3.1c15.4-25.4,8.6-42,8.6-42l3.9,7.9c5.9-5.4,9.6-28-12.1-31.2
		c-0.2,0,1.6,2.1,1.5,2c-4.2-3.9-3.2-4.5-7.6-8.1c-0.4-0.4-3.6-0.6-4-0.2C259.5,240.2,260.7,249,262.3,256.4z M146.5,142.1
		c-5.1,5.6-3.1,25.1-2.5,24.8c9.4-4.8,21,1.2,21.7,10.8c0,0.6,0.8,1.1,1.2,0.9c2.9-1.1,0.5-6.1-0.4-9.5c-1.4-5.7-0.4-11.8,0.6-17.6
		c1-6.4,2-12.6,0-18.4c-0.1-0.4-0.6-0.8-1-0.6C158.1,133.2,151.4,136.8,146.5,142.1L146.5,142.1z M185.9,107
		c-11.8,3.4-26.6,11.6-32.6,21.9c-0.5,0.8,0.2,1.6,1.1,1.4c2.9-0.8,5.4-2.1,8.5-2.4c1.5-0.1,3.4,0.6,5.1,0.2
		c3.4-0.9,6.2-8.4,8.8-11.2c2.4-2.8,5.4-3.9,7.4-6.2c0.1-0.1,0.2-0.2,0.4-0.2c1.1-0.5,2.6-0.6,3-1.9c0.1-0.4,0-0.8-0.2-1
		C186.9,107.1,186.4,106.9,185.9,107z M250.8,110.4c-12.9-7.3-34.9-12.8-48.6-5.9c-11,5.5-25.8,14.5-31,25.9c-0.1,0.2-0.1,0.5,0,0.8
		c4.5,11-1.6,21.2-2,32.4c-0.2,6,2.8,11.1,3.1,17.6c0,0.2,0,0.5-0.1,0.6c-1.6,2.2-5.9,2.6-9.1,2.6c-0.5,0-0.9-0.4-1-0.8
		c-1.2-5.6-3.2-11.6-9-12.2c-8.5-0.9-14.8,6.1-15.1,13.5c-0.5,8.6,6.6,23,16.6,22c3.6-0.4,4.8-3.8,8.2-4.2c0.5,0,0.9,0.2,1.1,0.6
		c1.4,4-3.9,5.5-4.4,8.6c-0.1,0.9,0.5,4.1,0.9,5.8c1.9,7.5,5.9,17.2,9.9,23c5,7.1,42.5,10.9,45.9,11c1,0-10.2-6.6-11-7.1
		c-3.8-2.6-7.2-6.4-10.4-9.8c-3.9-4.2-7.8-8.8-9.4-13.9c-0.4-1.1,1.1-1.8,1.7-0.9c8.3,11.4,15.9,21,31.1,26.1
		c12.7,4.2,27.5-2,37.2-8.8c4-2.9,6.5-7.4,9.4-11.5c10.8-15.5,15.8-37.6,14.8-59c-0.5-8.9-0.4-17.6-3.4-23.6
		c-2.9-5.8-12.1-11-18.4-7.2c-0.8,0.4-1.5-0.1-1.5-1c0.4-4.2,4.6-6.8,10-6.1c0.9,0.1,1.5-0.9,0.9-1.6
		C262.5,121,257.5,114.1,250.8,110.4L250.8,110.4z M274.9,309.8c0,0,26-18.1,35.4,0c2.4,5,5.1,13.4,6.2,18.6
		c1.8,7.2-1.9,22.5-9.4,25c-6.5,2.1-14.1,2-22,0.5c-0.1,0-0.4-0.1-0.5-0.2c-0.8-0.8-1.6-1.8-2.2-2.9c-0.1-0.4-0.5-0.5-0.9-0.5
		c-5.6,0.2-16.2,6.9-19.5,8.2c-0.2,0.1-0.5,0.4-0.6,0.6c-1.6,7.8,4,17.8,2.6,24.6c-1,4.8-6.6,5.8-11.1,6.6c-0.5,0.1-0.8,0.5-0.8,1
		c0,2.4,0.2,4.5,0.5,6.6c0,0.1,0,0.2,0,0.5c-1.1,3.8-5.8,5.9-10.1,6.4c-14.5,1.8-36.6,2.5-50.7-2.4c-0.2-0.1-0.5-0.2-0.6-0.6
		c-3.8-9.4-6.8-20.6-10-31.4c-0.1-0.5-0.6-0.8-1-0.8c-13.4,1.1-23.5-7-33.9-11.8c-3.6-1.6-7.2-2.5-8.6-5.4
		c-1.9-5.1-1.9-5.1-2.1-10.1v-0.1c-1.5-8.4-1.5-7.4-2.6-9.2s-20.9-25.2-11.4-39.6c0.2-0.4,0.2-0.9,0-1.1c-9.8-12.5-6.1-22.2-1.6-31
		c1.9-3.5,5.8-6.5,7.5-8l0,0c7.3-5.2,14.5-6,22.4-10.8c2.4-1.4,9.4-5,10.2-6.6c1.6-3.2-2.7-7.9-3.9-10.4c-1.8-3.8-2.6-7-3-10.8
		c0-0.5-0.4-0.8-0.7-0.9c-6.2-1.2-11.1-5-14-9.4c-5-7.4-8.5-21-4.1-31.5c0.4-0.9,2-2.4,2.2-3.6c0.5-2.5-0.9-5.8-1-8.4
		c-0.5-13.2,2.2-24.8,11-29c0.2-0.1,0.5-0.4,0.5-0.6c3.9-14.4,16.9-19.2,29.2-26.5c4.6-2.8,9.8-4.5,15.1-6.4c19-7,48.1-5.6,64,6.2
		c6.8,5,17.4,15.8,21.2,23.5c10.1,20.4,9.4,54.5,2.4,79.4c-1,3.4-2.4,8.2-4.2,12.3c-1.4,2.7-5.5,8.4-5,10.9s7,13.1,8.8,13.6
		c7.1,2.4,21.6,14.4,6.8,31.9C285.1,283.6,281.4,296.9,274.9,309.8"/>
	<path id="path132" inkscape:connector-curvature="0" class="st11" d="M208.4,210.6c0.5-0.8,3.6-1.9,7.8,0.2c0,0-5,0.9-4.6,9.1
		l-2.1-0.4C209.5,219.5,207.4,212,208.4,210.6"/>
	<path class="st5" d="M109,249.9l17.8-27.6c0,0-17.7,11.9-24.3,26.4C98.4,257.6,109,249.9,109,249.9z"/>
</g>
<g id="cap">
	<path class="st9" d="M220.8,93c0,0-29.4,0.7-57.5,16.2c-36.5,18.8-27.9,62.2-27.9,62.2l36.6-24.1c0,0,13.5-38.4,17.2-43.7
		C189.3,103.5,220.8,93,220.8,93z"/>
	<path class="st19" d="M172,147.3l52.1-24l49-2.8c0,0-9.5-16.9-25.7-22.6c-7.8-2.8-26.3-6.5-26.3-6.5s-27.5,7.9-31.8,12.2
		C181,112,172,147.3,172,147.3z"/>
	<path class="st9" d="M172,147.3c48.2-42.2,91.9-28.7,111.8-25.1c6.9,1.2,5.6,7.7,6.5,14.9c0.4,3.2-10.4-0.5-10.4-0.5
		s-4.6-12.2-6.1-12.4c-12-1.2-30.3,3.7-59.2,19.8C206.9,148.1,172,147.3,172,147.3z"/>
	<path id="path56_1_" inkscape:connector-curvature="0" class="st12" d="M163.3,110.2c-23.2,25.4-18.1,52.8-18.1,52.8l-7.7,5
		c0,0-4.4-32.4,12.5-48.5"/>
	<path id="lines-1" class="st2" d="M203.2,95.1c-85,12.8-67.6,77.6-67.6,77.6l36.2-25c0,0,32.1,0.5,41.9-3.5
		c2.7-1.1,40.5-17.8,41.7-18.1c24.4-6.1,33.1,4.7,33.1,4.7s-0.2-5.8-4.2-6.6c-5.2-1.1-15.8-2.6-30.3-0.4c-2.9,0.4-38.4,17-40.6,17.5
		c-18.7,3.9-35.8,2.7-35.6,2.5c7.9-6.6,31.4-20.8,56.2-25c11.9-2,41.2,2.8,51.4,4.9c4.5,0.9,4.6,11,4.4,14
		c-0.1,0.8-10.2-1.6-10.2-1.6l0.5,1.6c0,0,9.5,2.8,10.1,1c0.9-2.7,0.7-15.3-4.9-16.2c-8.9-2.2-35.7-7.5-53-4.9
		c-33.5,5.1-57.4,25.9-57.4,25.9s8.6-32.4,16.9-38.5c3.9-2.9,22.2-12.6,30.1-12.8c33.2-1,49.5,27.9,49.5,27.9l1.4,0.4
		c0,0-12.7-31.6-51.6-29c-8.3,0.5-25.9,7.1-32.1,11.9c-8.9,6.8-16.6,40.3-16.6,40.3L138.4,167c0,0-12.3-59.4,66.4-71.3
		c10-1.5,6.4-2.1,6.4-2.1S203.7,95,203.2,95.1z"/>
</g>
<g id="pest">
	<path id="insect" class="st2" d="M219.7,361.5c0.1-0.9,0-1.8-0.2-2.8l3.8-1.4c0.6-0.2,0.9-0.9,0.7-1.5c-0.2-0.6-0.9-0.9-1.5-0.7
		l-3.7,1.4c-0.5-1-1-1.8-1.7-2.5c1.7-1.1,3.4-3.4,1.6-8.2c-0.2-0.6-0.9-0.9-1.5-0.6c-0.6,0.2-0.9,0.9-0.7,1.5c1.5,4,0.1,5.2-1.1,5.8
		c-0.1,0-0.2,0.1-0.2,0.2c-0.5-0.3-1.1-0.5-1.6-0.6c0.1-0.4,0.1-0.9,0-1.3c-0.3-1-1.2-1.6-2.2-1.7c-0.2-1.1-0.1-2.2,0.5-3.2
		c0.6-1.1,1.7-2,2.9-2.3c0.2,0,0.3-0.3,0.3-0.5c-0.1-0.2-0.3-0.3-0.5-0.2c-1.5,0.4-2.7,1.4-3.4,2.7c-0.6,1.1-0.8,2.3-0.6,3.5
		c-0.2,0-0.4,0.1-0.6,0.1c-0.3,0.1-0.6,0.3-0.9,0.4c-0.5-1.1-1.5-2-2.6-2.6c-1.4-0.6-2.9-0.7-4.3-0.2c-0.2,0.1-0.3,0.3-0.2,0.5
		c0.1,0.2,0.3,0.3,0.5,0.2c1.2-0.4,2.6-0.4,3.7,0.1c1.1,0.5,1.9,1.3,2.3,2.4c-0.6,0.7-0.8,1.6-0.6,2.4c0.1,0.5,0.4,0.8,0.8,1.1
		c-0.4,0.4-0.8,1-1.1,1.5c-0.1,0-0.2,0-0.4,0c-1.3,0.3-3.2,0.1-4.3-4c-0.2-0.6-0.8-1-1.4-0.8c-0.6,0.2-1,0.8-0.8,1.4
		c1.4,5.1,4.2,5.8,6.2,5.7c-0.1,1-0.2,2,0,3l-3.8,1.1c-0.6,0.2-1,0.8-0.8,1.4c0.2,0.6,0.8,1,1.4,0.8l3.9-1.1
		c0.4,0.9,0.9,1.7,1.5,2.3c-2.7,1.4-4.3,4.5-3.5,7.5c0.2,0.6,0.8,1,1.4,0.8c0,0,0,0,0.1,0c0.6-0.2,0.9-0.8,0.8-1.4
		c-0.6-2.2,0.8-4.6,3.1-5.2c0,0,0.1,0,0.1,0c1.3,0.8,2.8,1.1,4.2,0.8l-4-12.1l1.2-0.4l4,12.1c1.3-0.6,2.3-1.7,2.9-3.1
		c1.1-0.4,2.2-0.4,3.3,0c1.1,0.4,1.9,1.3,2.3,2.3c0.2,0.6,0.9,0.9,1.5,0.7c0,0,0,0,0.1,0c0.6-0.2,0.9-0.9,0.7-1.5
		C225.8,362.6,222.7,361,219.7,361.5z"/>
	<path id="signal" class="st20" d="M212.2,334.8c-12.7,0-23,10.3-23,23c0,12.7,10.3,23,23,23c12.7,0,23-10.3,23-23
		C235.2,345.1,224.9,334.8,212.2,334.8z M193.5,358c0-4.3,1.4-8.2,3.8-11.3l28.1,25c-3.4,3.2-7.9,5.2-13,5.2
		C201.9,376.9,193.5,368.4,193.5,358z M226.9,370l-28.2-25.1c3.4-3.6,8.2-5.8,13.6-5.8c10.4,0,18.9,8.5,18.9,18.9
		C231.3,362.6,229.6,366.7,226.9,370z"/>
</g>
</svg>
