<svg id="root" xmlns="http://www.w3.org/2000/svg" viewBox="0 0 239.61 314.82"><defs><style>.cls-1{fill:#5d7404;}.cls-2{fill:#9acc9a;}.cls-3{fill:#231f20;}.cls-4{fill:#dbb928;}.cls-5{fill:#ddbe22;}.cls-6{fill:#dcd9d8;}.cls-7{isolation:isolate;}.cls-8{fill:#c14669;stroke:#dcd9d8;stroke-linecap:round;stroke-miterlimit:10;stroke-width:0.75px;}.cls-9{fill:#f0d6b7;}.cls-10{fill:#01748a;}.cls-11{fill:#6d6b6d;}.cls-12{fill:#f7e4cd;}.cls-13{fill:#8bc2c9;}.cls-14{fill:#49728b;}.cls-15{fill:#fff;}.cls-16{fill:#d4e8e2;}.cls-17{fill:#f70612;}.cls-18{fill:#ef929c;}.cls-19{fill:#e4f2f4;}.cls-20{fill:#ce281f;}</style></defs><title>pest-control</title><g id="base"><path id="path22" class="cls-1" d="M224.51,156.19c0,61.75-49,111.87-109.37,111.87S5.76,217.94,5.76,156.19s49-111.88,109.38-111.88S224.51,94.44,224.51,156.19" transform="translate(-2.42 -1.58)"/><path id="path24" class="cls-2" d="M11.64,183.44s-7.88-116.63,99.62-120l-7.5-12.5L45.39,70.56,28.76,89.69l-14.62,28-8.38,32.5,2.5,21.62" transform="translate(-2.42 -1.58)"/><path id="path26" class="cls-3" d="M41.64,79.44a109.21,109.21,0,0,0-31.13,76.75h0a109.23,109.23,0,0,0,31.13,76.75h0a104.23,104.23,0,0,0,74.87,31.75h0a104.27,104.27,0,0,0,74.88-31.75h0a109.22,109.22,0,0,0,31.12-76.75h0a109.2,109.2,0,0,0-31.12-76.75h0a104.44,104.44,0,0,0-74.88-31.75h0A104.19,104.19,0,0,0,41.64,79.44ZM36.76,237.69a116.5,116.5,0,0,1-33-81.5h0a116.48,116.48,0,0,1,33-81.5h0a111.13,111.13,0,0,1,79.75-33.75h0a111.09,111.09,0,0,1,79.75,33.75h0a116.21,116.21,0,0,1,33,81.5h0a116.46,116.46,0,0,1-33,81.5h0a111.13,111.13,0,0,1-79.75,33.75h0a111.17,111.17,0,0,1-79.75-33.75h0" transform="translate(-2.42 -1.58)"/><path class="cls-4" d="M8.72,170.21C11.82,174.56,27,159.33,27,159.33s-11.37,6.88-13.25,5C10.53,161.08,20.72,148,20.72,148S5.47,165.65,8.72,170.21Z" transform="translate(-2.42 -1.58)"/><path class="cls-5" d="M93.68,170.19c0-6.6-3.07-35.5-9.67-35.5l-44.5.33S12,143.31,7.64,170.19c-3.31,20.3-4,45.5-4,45.5,0,6.6,4.27,35.62,21.37,41l61.38,5.5c-3.9-5.38,7.29-6.74,7.29-13.34" transform="translate(-2.42 -1.58)"/><path id="tank-shape" class="cls-6" d="M32.76,254.06c19.86,2.1-26.5-25.52-1.75-80.69,2-4.47-7.37,13.82-19.25,2.82C9.79,174.36-5.11,250.06,32.76,254.06Z" transform="translate(-2.42 -1.58)"/><g class="cls-7"><path class="cls-3" d="M39.39,131.21l5.23,5.65a.79.79,0,0,0-.22-.19c-1.32-.88-4.73.51-9.12,3.81a74.79,74.79,0,0,0-10.5,9.92,63.7,63.7,0,0,0-9.29,13.14c-1.63,3.31-2.05,5.69-1.18,6.62l-5.24-5.65c-.86-.93-.44-3.3,1.19-6.61a63,63,0,0,1,9.28-13.15,74.08,74.08,0,0,1,10.51-9.91c4.38-3.31,7.8-4.7,9.12-3.82Z" transform="translate(-2.42 -1.58)"/><path class="cls-5" d="M30.05,134.84c4.38-3.31,7.8-4.7,9.12-3.82,1.14.76.79,3.24-1,6.82A63.7,63.7,0,0,1,28.91,151a75.13,75.13,0,0,1-10.54,9.92c-.59.44-1.16.86-1.73,1.24-3.53,2.39-6.2,3.32-7.35,2.56s-.79-3.24,1-6.8a63,63,0,0,1,9.28-13.15A74.08,74.08,0,0,1,30.05,134.84Z" transform="translate(-2.42 -1.58)"/><path class="cls-5" d="M14.53,170.35a1,1,0,0,1-.22-.19l-5.24-5.65a1,1,0,0,0,.22.19c1.15.76,3.82-.17,7.35-2.56.57-.38,1.14-.8,1.73-1.24A75.13,75.13,0,0,0,28.91,151a63.7,63.7,0,0,0,9.29-13.14c1.63-3.32,2-5.7,1.19-6.63l5.23,5.65c.87.93.45,3.31-1.19,6.62a63.74,63.74,0,0,1-9.29,13.15,75.69,75.69,0,0,1-10.53,9.92c-.59.44-1.17.85-1.73,1.24C18.35,170.18,15.67,171.11,14.53,170.35Z" transform="translate(-2.42 -1.58)"/><path class="cls-3" d="M40.48,129.54c1.63,1.08,1.35,4.06-.79,8.4A66.26,66.26,0,0,1,30,151.7,79.05,79.05,0,0,1,19,162c-.64.47-1.26.92-1.88,1.34-4.28,2.91-7.54,3.9-9.17,2.82s-1.35-4.06.79-8.4A66.35,66.35,0,0,1,18.47,144a76.91,76.91,0,0,1,10.92-10.28C34.38,130,38.56,128.26,40.48,129.54Zm-2.28,8.3c1.76-3.58,2.11-6.06,1-6.82-1.32-.88-4.74.51-9.12,3.82a74.08,74.08,0,0,0-10.51,9.91,63,63,0,0,0-9.28,13.15c-1.76,3.56-2.11,6-1,6.8s3.82-.17,7.35-2.56c.57-.38,1.14-.8,1.73-1.24A75.13,75.13,0,0,0,28.91,151a63.7,63.7,0,0,0,9.29-13.14" transform="translate(-2.42 -1.58)"/><path class="cls-3" d="M40.86,129.86l5.24,5.65c1.19,1.28.78,4.11-1.17,8.08a66.58,66.58,0,0,1-9.71,13.75,77.37,77.37,0,0,1-11,10.33c-.63.48-1.26.93-1.87,1.34-4.29,2.91-7.54,3.91-9.17,2.83a2.38,2.38,0,0,1-.38-.32l-5.24-5.65a2,2,0,0,0,.38.32c1.63,1.08,4.89.09,9.17-2.82.62-.42,1.24-.87,1.88-1.34A79.05,79.05,0,0,0,30,151.7a66.26,66.26,0,0,0,9.7-13.76C41.65,134,42.05,131.14,40.86,129.86Z" transform="translate(-2.42 -1.58)"/></g><path class="cls-6" d="M11.76,172.78C19.14,181.53,40.47,154,40.47,154s-7.62,17.08-17.62,22.75C16,180.64,9.56,170.17,11.76,172.78Z" transform="translate(-2.42 -1.58)"/><polygon class="cls-3" points="41.91 133.42 62 133.17 63.09 134.61 42.68 135.19 41.91 133.42"/><line class="cls-8" x1="11.84" y1="164.49" x2="15.22" y2="168.11"/><line class="cls-8" x1="19.59" y1="158.86" x2="22.97" y2="162.49"/><line class="cls-8" x1="27.22" y1="151.36" x2="30.59" y2="154.99"/><line class="cls-8" x1="33.72" y1="143.74" x2="37.09" y2="147.36"/><line class="cls-8" x1="38.72" y1="135.36" x2="42.09" y2="138.99"/><path class="cls-3" d="M10.39,168.56,8,165.06s-27.12,103.5,38.11,96.25c1.05-.11.07-4.21-1-4.12C-15.36,262.19,10.39,168.56,10.39,168.56Z" transform="translate(-2.42 -1.58)"/><path id="path28" class="cls-9" d="M162.51,156.44l-16.62,2.5-22.5,2.5-14.63.37-14.12-.37-10.88-3.38-9.62-10.37-7.5-21.25L65,121.81l-10-3.37-5.87-9.63L45,95.06l4.63-12.12,10.87-3.75,8.75,4.12,4.13,9.13,5-.88L80,89.44l-3.25-9.75,1.25-12,2.5-16.63-.12-9.5L88,29.44l13.38-9.63,23.37-10,25.88,3.75,22.5,16.25,10.37,16.63,6.63,12.12,1.62,30-5,25.88-9.12,22.87-8.75,12.13" transform="translate(-2.42 -1.58)"/><polygon id="nek-skin" class="cls-9" points="109.59 206.49 179.22 206.49 172.22 142.99 109.59 141.49 109.59 206.49"/><path id="path30" class="cls-10" d="M148.39,228.44l-59.63,2.5v10l5,35-2.5,2.87L49.64,264.69l-2.88-5-7.62-46.25L33,184.31l-2.12-6.62,33.37-23,10.38-4.13,10.12,9.88,7.88,2.37,7.87,3.63,5.75,3.5,22-5.13,10.38,4.25,7.37,6.38,4.63,10.5,2.37,40-4.62,2.5" transform="translate(-2.42 -1.58)"/><path id="path32" class="cls-11" d="M49.64,83.06l10.87-3.75,8.75,4.13,4.13,9.12,5-.87,1.25-5-2.5-9.63,2.5-22.87-2.13-12.5L85,32.94l16.25-12.88-4.62-6.25L73.76,25.06l-9.62,7.5L58.76,44.19,50.39,55.44l-2.5,13.37,1.75,14.25" transform="translate(-2.42 -1.58)"/><path id="path34" class="cls-6" d="M66.76,43.94S73,28.56,98,21.06s1.25-5.37,1.25-5.37L72.14,26.06,61.76,36.44l-4.62,8.37,9.62-.87" transform="translate(-2.42 -1.58)"/><path id="path38" class="cls-12" d="M67.51,118.94l5.5-5.25a3.45,3.45,0,0,1,2.88,3.25c.37,2.87,1.62,29.12,19.62,43.37,1.63,1.25-13.37-2.12-13.37-2.12l-13.38-21" transform="translate(-2.42 -1.58)"/><path id="path40" class="cls-12" d="M144.26,110.94s1-12.63,4.38-11.63a4.71,4.71,0,0,1,3.37,4.38s-8.25,5.37-7.75,7.25" transform="translate(-2.42 -1.58)"/><path id="path42" class="cls-12" d="M178.76,64.69s-6.87,1.5-7.5,7.5,7.5,1.25,8.75.87" transform="translate(-2.42 -1.58)"/><path id="path44" class="cls-12" d="M128.39,65.19s-9.13,1.25-9.13,7.12,10.38,5.38,13.38,2.88" transform="translate(-2.42 -1.58)"/><path id="path46" class="cls-12" d="M71.76,92.19s-15.87-9.63-17.5-.38-5.37,15.88,2.5,25.38l-5.37-1.63-5-12.87-1.63-12.5,9.63-10,10.87.87,6.25,5,.25,6.13" transform="translate(-2.42 -1.58)"/><path id="path48" class="cls-12" d="M79.26,65.94s7.13-36.63,42.88-43.75c29.5-5.88,45,1.25,50.87,7.87,0,0-26.25-31.25-51.25-21.62S78.39,35.56,78.89,46.81c.62,19.13.37,19.13.37,19.13" transform="translate(-2.42 -1.58)"/><path id="path50" class="cls-12" d="M175.89,34.31s-12.13-.37-12.5,10.38a8.39,8.39,0,0,0,.87,3.37s9.63-10.87,15.38-5" transform="translate(-2.42 -1.58)"/><path id="path52" class="cls-12" d="M123,49.19s-2.12-16.63-16.25-7c-9.12,6.25-8.37,15-6.62,16.62s1.25,5,2.5,2.75.87-9.75,5.37-11.87,12.13-4.38,15-.5" transform="translate(-2.42 -1.58)"/><path id="path54" class="cls-13" d="M79.76,158.81s-49.12,9.75-38.12,40.25c-1.13,10.38.5,22,1.87,26s9,21.75,9.13,23.25-.5,10.13-2.88,15.5L46,260.56l-.75-14.25-4.87-9.12-6.75-15.63.5-14.62-6.75-17.25,3.12-14.63c1.13-10.25,38.5-25,38.5-25l13.38,9.25" transform="translate(-2.42 -1.58)"/><path id="path56" class="cls-13" d="M87.39,197.56s4.37,5.25,6,6.75c6.62,6.25,0,25,0,25H86.76s.88-17.62.88-19.75-.88-9.5-.88-9.5" transform="translate(-2.42 -1.58)"/><path id="path58" class="cls-14" d="M88,233.06l-18.75.88,5.38,3.75L88,239.81" transform="translate(-2.42 -1.58)"/><path id="path62" class="cls-10" d="M154.39,228.94l23.37-1.25s11.5-23.13,11.5-24.38a157.48,157.48,0,0,0,3.5-15.87c1-3.13,3.88-7.63,4.63-10.63,1.5-6.12-1.5-9.75-1.5-9.75l-18.75-19.62-3.75-3.38-12.94,9.56-11.06,34.94-6.25,36.75" transform="translate(-2.42 -1.58)"/><path id="path64" class="cls-14" d="M166.76,225.94l-14.62,2.87,2.12,11.63c5.38,2.5,14.63-4.13,14.63-4.13" transform="translate(-2.42 -1.58)"/><path id="path66" class="cls-13" d="M168.14,158.44s26.75.75,29.75,19.25c.25,1.37-1.38,3.62.25-2.38a24.72,24.72,0,0,0,.25-9.75L173,142.19l-6.25,8.37" transform="translate(-2.42 -1.58)"/><path id="path68" class="cls-15" d="M102.51,310.94l-8.62-35-4.25-25.88-.88-19.12,39-2.13H152l-2.25,43.75,3.75,33.75-.37,6.25-31.63,2.5-19-4.12" transform="translate(-2.42 -1.58)"/><g id="stick"><path class="cls-16" d="M215.14,170.26l-2.38,7.64h0Z" transform="translate(-2.42 -1.58)"/><path class="cls-16" d="M229,148a6,6,0,0,1-.1-.74h0c0,.12.09.6.11.74Z" transform="translate(-2.42 -1.58)"/><path class="cls-16" d="M231.76,152.11A6.58,6.58,0,0,1,229,148c0,.22.17.69.17.69l-7.1,3.93L214.64,178h-.13a7.1,7.1,0,0,1,.71.16A9.94,9.94,0,0,1,219,180l7.66-24.38Z" transform="translate(-2.42 -1.58)"/><polygon class="cls-17" points="205.67 180.22 203.65 186.3 205.67 180.21 205.67 180.22"/><path class="cls-17" d="M215,179.14a6.53,6.53,0,0,0-2.16-.25L195.65,230l9.74,3.22,15.21-48.49C220.57,184.2,220.14,180.59,215,179.14Z" transform="translate(-2.42 -1.58)"/><path class="cls-16" d="M237.08,141.34a5.7,5.7,0,0,0-2.12-.23A5.58,5.58,0,0,0,233.82,152a5.57,5.57,0,1,0,3.26-10.66Zm.39,9.86c-3.14,1.43-6-1.74-6-1.74s3.11.68,5-.18c1.71-.76,3.69-3.85,3.69-3.85S240.63,149.75,237.47,151.2Z" transform="translate(-2.42 -1.58)"/><path class="cls-3" d="M241.25,143.58A6.58,6.58,0,0,0,228.9,146l-9.05,5.71L211.67,178a7.47,7.47,0,0,0-4.47,3.3l-16,48.26L206,234.53,221.58,185l0-.15a6.75,6.75,0,0,0-1.83-4l7.7-24.51,5.26-3.64a6.18,6.18,0,0,0,.79.31,6.59,6.59,0,0,0,5-.48,6.6,6.6,0,0,0,3.21-3.89A6.53,6.53,0,0,0,241.25,143.58Zm-.47,4.72a5.57,5.57,0,1,1-5.82-7.19,5.7,5.7,0,0,1,2.12.23,5.57,5.57,0,0,1,3.7,7ZM220.6,184.77l-15.21,48.49L195.65,230h0L192.41,229l13.66-41.09,2-6.09h0v0a6.31,6.31,0,0,1,1.34-1.52,6.68,6.68,0,0,1,1.78-1.07,6.41,6.41,0,0,1,1.57-.29h0a6.53,6.53,0,0,1,2.16.25C220.14,180.59,220.57,184.2,220.6,184.77Zm-5.38-6.59a7.1,7.1,0,0,0-.71-.16l-1.66-.13h-.09l2.38-7.64,5.55-17.88,8.2-5.17v0h0a6,6,0,0,0,.1.74h0a6.58,6.58,0,0,0,2.75,4.13l-5.13,3.55L219,180A9.94,9.94,0,0,0,215.22,178.18Z" transform="translate(-2.42 -1.58)"/><path class="cls-15" d="M222.08,152.6l7.1-3.93s-.13-.47-.17-.69h0c0-.14-.09-.62-.11-.74v0l-8.2,5.17-5.55,17.88-2.38,7.63h.09l1.66.13h.13Z" transform="translate(-2.42 -1.58)"/><path class="cls-15" d="M236.53,149.28c-1.91.86-5,.18-5,.18s2.82,3.17,6,1.74,2.75-5.77,2.75-5.77S238.24,148.52,236.53,149.28Z" transform="translate(-2.42 -1.58)"/><path class="cls-18" d="M212.79,178.89h0a6.41,6.41,0,0,0-1.57.29,6.68,6.68,0,0,0-1.78,1.07,6.31,6.31,0,0,0-1.34,1.52v0l-2,6.09L192.41,229l3.24,1.08h0Z" transform="translate(-2.42 -1.58)"/></g><path id="path70" class="cls-6" d="M146.76,228.44s-2.12,43.37,4.13,74.12a80.38,80.38,0,0,1-30.88,10l35-1.25,4.13-2.5-5-68.37-1.25-14.63" transform="translate(-2.42 -1.58)"/><path id="path72" class="cls-6" d="M156.64,270.94c.37,3.87,31.25-13.13,31.25-13.13l30.87-1.62,4.63-14.13L215,217.44l-12.12-2.25-11.5,3.5-12.13,7.87s3.25,3.38-6.75-1.25-20.12.88-19.12,4.13" transform="translate(-2.42 -1.58)"/><path id="path74" class="cls-5" d="M155.51,259.69s27.13-9.5,28.75-9.13l-4.62-22.87,5.37-2.13s3.75,21.63,3.75,24.13c0,0,23.38,1.25,25.38,1.25,0,0,5-9.63,3.75-19.63l4.62,13.38.38,7.5-6.63,10-7.5,1.62-12.5-.37-4.12-5.38-13.5,5.5-21.75,9" transform="translate(-2.42 -1.58)"/><path id="path82" class="cls-6" d="M87.64,163.94" transform="translate(-2.42 -1.58)"/><path id="path100" class="cls-3" d="M123,49.19c-11.37-2.63-17,4.75-20.5,12.37-3.12-.75-1.87-4.87-1.12-7,2-5.62,10.25-13,16.87-12,3,.38,6.88,3,4.75,6.63" transform="translate(-2.42 -1.58)"/><path id="path102" class="cls-3" d="M178.39,62.06h.5c2.62,5.38,4.75,11,8,15.63-2.13,5-16.38,9.5-16.25.5,3.12-1.38,8.37-.25,11.12-2-1.5-4.25-3.75-8-3.37-14.13" transform="translate(-2.42 -1.58)"/><path id="path104" class="cls-3" d="M128.76,62.31c2.38,4.5,3.25,9.13,6.75,12.5,1.5,1.5,4.63,3.38,3.13,7.63a9.17,9.17,0,0,1-4.38,3.62c-5.37,1.63-18,.38-13.75-6.37,4.5.25,10.5,2.87,13.88-.38-2.63-4.12-7.25-12.25-5.63-17" transform="translate(-2.42 -1.58)"/><path id="path106" class="cls-3" d="M176.26,107.56c-8.12,5.25-17.25,10.88-30.62,9.63-2.88-2.5-4-8-1.13-11.63,1.5,2.5.5,7,4.5,7.75,7.63,1.25,16.38-4.62,21.88-6.75,3.37-5.75-.25-7.75-3.38-11.5-6.25-7.5-14.62-16.87-14.25-28.12,2.5-1.88,2.75,2.75,3.13,3.62,3.25,7.63,11.5,17.38,17.37,23.88,1.5,1.62,3.88,3.12,4.13,4.25.87,3.12-1.88,6.87-1.63,8.87" transform="translate(-2.42 -1.58)"/><path id="path108" class="cls-3" d="M68.89,102.06c-2.5-1.5-3.13-7.87-6.13-8-4.25-.25-3.5,8.38-3.5,13.38-3-2.63-3.5-10.88-1.25-15.13-2.5-1.25-3.62,1.38-5,2.25,1.75-12.87,18.75-6,15.88,7.5" transform="translate(-2.42 -1.58)"/><path id="path110" class="cls-3" d="M181.51,112.94c-3.75,7.25-9.12,15.12-20.25,15.37a28.08,28.08,0,0,1,0-7.25c8.5-.87,13.75-5.12,20.25-8.12" transform="translate(-2.42 -1.58)"/><path id="path112" class="cls-3" d="M128.14,117.56c7.12,3.75,20.12,4.13,29.75,3.88a33.59,33.59,0,0,1,.5,7.25c-12.25.75-27-2.38-30.25-11.13" transform="translate(-2.42 -1.58)"/><path id="path114" class="cls-3" d="M126.76,124.56c4.88,12.38,21.75,10.88,36,10.63a7.37,7.37,0,0,1-3.62,4.12c-4.5,1.88-17.13,3.25-23.5-.12-4-2.13-6.63-7-8.75-9.75-1-1.38-6.38-4.88-.13-4.88" transform="translate(-2.42 -1.58)"/><path id="path124" class="cls-6" d="M164.64,270.56c.87,7.38,3.75,14.88,3.37,23-3.25,1.13-5.12,2.13-9.5,2-.25-6.87-1.25-17.5-1-24,2.13.25,5.38-1.37,7.13-1" transform="translate(-2.42 -1.58)"/><path id="path130" class="cls-3" d="M156.51,274.69c-.12,6,.63,12.75,1,19a.88.88,0,0,0,1,.87,21.38,21.38,0,0,0,7.88-1.87,1,1,0,0,0,.62-.88c.13-7.37-2.12-12.5-3-19.25a1,1,0,0,0-1.12-.87c-1.63.25-3.88,1.62-5.63,1.87C156.89,273.94,156.51,274.31,156.51,274.69Zm-68-40.5c2.88,26,7,47.87,14.5,70.87.13.38.38.63.63.63,16.62,4.87,36.37,5.37,51.25,1a.9.9,0,0,0,.62-1.13c-2.5-13.12-1.37-28.87-3-42.62-1.25-10.38-.62-20.88-2.12-31.5a1.09,1.09,0,0,0-.75-.88c-17.88-3.5-42.63-.75-60.25,2.38A1.51,1.51,0,0,0,88.51,234.19Zm121.88,25.62c6.5-1.62,10.62-9.5,8.75-17.75-1.25-5.5-3.38-15.87-5.75-19.37-1.63-2.5-3.38-6.5-8.5-6.5h-.25c-2.5.5-8.13,2.62-11.88,4-3.12,1.12-9.37,6.5-13.62,7.62H179c-10.12,1.25-22.37-2-24.25,2.13-1.87,4.37,1.25,30.37,2.5,39.5a.9.9,0,0,0,1.13.75c4.62-1,19.37-7.38,25.5-11.13,10-6.12,17.5-5.5,22.12-4.12a1,1,0,0,1-.12,1.87,73.08,73.08,0,0,0-7.88,1.63,1,1,0,0,0,.13,1.87,30.88,30.88,0,0,0,12.25-.5Zm-75.63-97.62s15.25,10.12,14.75,15.25c0,.62,3.25-15,3.25-15s7.75-8.13,5.75-6.25C148.51,165.19,134.76,162.19,134.76,162.19Zm-68.12-4.88c-4.48-2.84,2.37-7.12,2.37-7.12l-6.62,3.87s-4.88,2.63-5,2.63c-17.88,7.75-31.75,24.25-26.5,38,2.25,6,5,3.62,4.62,7.12-.62,5-3.62,18.5,5.63,31.75,4,5.75,8.25,21.63,8.62,27.5,0,.38.25.63.63.88,12.12,5.62,22.75,10.62,39,11.75a1,1,0,0,0,1-1.13c-1.88-13.37-3.63-25.37-4.75-38a.93.93,0,0,0-.63-.87c-3.87-1.25-9.12,0-12.87-.25a.93.93,0,0,1-.88-1.25c.88-3.25,6.13-1.25,6.5-4.25.38-2.13-2.37-2.63-2.37-5.13a.92.92,0,0,1,1.37-.87c2.13,1.12,3.63,2.87,6,3.75a1,1,0,0,0,1.25-.38c3.63-6.12,2-18,.13-23.5.12-1,.5-5.87,2.87-5,.88,1,0,1.38,1.63,18.13.25,4.62-2,8.87-.5,12a.86.86,0,0,0,1,.5c15-2,30.12-3.38,46.12-4,1,0,13.5-.5,13.5-.5s12.5-54.38-19.5-53.38c-3.37-.87-8.62,11-8.62,11S90.89,172.69,66.64,157.31Zm104.21,9.29c.5,2.13-10.75-1.58-10.75-1.58s-8.34,16.54-8.09,16.79c4.25,8.25-1.5,40.88-1.5,40.88s9.63.25,10.5,0c4.63-1.25,14-1.25,18.75-3.13,15.38-25.37,8.63-42,8.63-42l3.87,7.88c5.88-5.38,9.63-28-12.12-31.25-.25,0,1.62,2.12,1.5,2-4.25-3.88-3.25-4.5-7.63-8.13-.37-.37-3.62-.62-4-.25C168,150.44,169.22,159.23,170.85,166.6ZM55,52.31c-5.12,5.63-3.12,25.13-2.5,24.75,9.38-4.75,21,1.25,21.75,10.75a1,1,0,0,0,1.25.88c2.88-1.13.5-6.13-.37-9.5-1.38-5.75-.38-11.75.62-17.63,1-6.37,2-12.62,0-18.37a.93.93,0,0,0-1-.63A30.61,30.61,0,0,0,55,52.31ZM94.39,17.19C82.64,20.56,67.76,28.81,61.76,39.06a.94.94,0,0,0,1.13,1.38c2.87-.75,5.37-2.13,8.5-2.38,1.5-.12,3.37.63,5.12.25,3.38-.87,6.25-8.37,8.75-11.25s5.38-3.87,7.38-6.25c.12-.12.25-.25.37-.25,1.13-.5,2.63-.62,3-1.87a1,1,0,0,0-.25-1A1.45,1.45,0,0,0,94.39,17.19Zm64.87,3.37c-12.87-7.25-34.87-12.75-48.62-5.87-11,5.5-25.75,14.5-31,25.87a.77.77,0,0,0,0,.75c4.5,11-1.63,21.25-2,32.38-.25,6,2.75,11.12,3.12,17.62a1,1,0,0,1-.12.63c-1.63,2.25-5.88,2.62-9.13,2.62a1.09,1.09,0,0,1-1-.75c-1.25-5.62-3.25-11.62-9-12.25-8.5-.87-14.75,6.13-15.12,13.5-.5,8.63,6.62,23,16.62,22,3.63-.37,4.75-3.75,8.25-4.25a1.31,1.31,0,0,1,1.13.63c1.37,4-3.88,5.5-4.38,8.62a29.26,29.26,0,0,0,.88,5.75c1.87,7.5,5.87,17.25,9.87,23,5,7.13,42.5,10.88,45.88,11,1,0-10.25-6.62-11-7.12-3.75-2.63-7.25-6.38-10.38-9.75-3.87-4.25-7.75-8.75-9.37-13.88a1,1,0,0,1,1.75-.87c8.25,11.37,15.87,21,31.12,26.12,12.75,4.25,27.5-2,37.25-8.75,4-2.87,6.5-7.37,9.38-11.5,10.75-15.5,15.75-37.62,14.75-59-.5-8.87-.38-17.62-3.38-23.62-2.87-5.75-12.12-11-18.37-7.25a1,1,0,0,1-1.5-1c.37-4.25,4.62-6.75,10-6.13a1,1,0,0,0,.87-1.62C171,31.19,166,24.31,159.26,20.56Zm24.13,199.38s26-18.13,35.37,0A101.16,101.16,0,0,1,225,238.56c1.75,7.25-1.87,22.5-9.37,25-6.5,2.13-14.13,2-22,.5a.88.88,0,0,1-.5-.25,13.45,13.45,0,0,1-2.25-2.87.84.84,0,0,0-.88-.5c-5.62.25-16.25,6.87-19.5,8.25a1.43,1.43,0,0,0-.62.62c-1.63,7.75,4,17.75,2.62,24.63-1,4.75-6.62,5.75-11.12,6.62a1,1,0,0,0-.75,1,55,55,0,0,0,.5,6.63v.5c-1.13,3.75-5.75,5.87-10.13,6.37-14.5,1.75-36.62,2.5-50.75-2.37a1,1,0,0,1-.62-.63c-3.75-9.37-6.75-20.62-10-31.37a1.06,1.06,0,0,0-1-.75c-13.38,1.12-23.5-7-33.88-11.75-3.62-1.63-7.25-2.5-8.62-5.38-1.88-5.12-1.88-5.12-2.13-10.12v-.13c-1.5-8.37-1.5-7.37-2.62-9.25S20.51,218.06,30,203.69a.94.94,0,0,0,0-1.13c-9.75-12.5-6.12-22.25-1.62-31,1.87-3.5,5.75-6.5,7.5-8h0c7.25-5.25,14.5-6,22.37-10.75,2.38-1.37,9.38-5,10.25-6.62,1.63-3.25-2.75-7.88-3.87-10.38a31.47,31.47,0,0,1-3-10.75.93.93,0,0,0-.75-.87,21.92,21.92,0,0,1-14-9.38c-5-7.37-8.5-21-4.13-31.5.38-.87,2-2.37,2.25-3.62.5-2.5-.87-5.75-1-8.38-.5-13.25,2.25-24.75,11-29a.82.82,0,0,0,.5-.62c3.88-14.38,16.88-19.25,29.25-26.5,4.63-2.75,9.75-4.5,15.13-6.38,19-7,48.12-5.62,64,6.25,6.75,5,17.37,15.75,21.25,23.5,10.12,20.38,9.37,54.5,2.37,79.38a89.57,89.57,0,0,1-4.25,12.25c-1.37,2.75-5.5,8.37-5,10.87s7,13.13,8.75,13.63c7.13,2.37,21.63,14.37,6.75,31.87-.12,7.25-3.87,20.5-10.37,33.38" transform="translate(-2.42 -1.58)"/><path id="path132" class="cls-12" d="M116.89,120.81c.5-.75,3.62-1.87,7.75.25,0,0-5,.88-4.63,9.13l-2.12-.38c.12-.12-2-7.62-1-9" transform="translate(-2.42 -1.58)"/><path class="cls-6" d="M17.51,160.12,35.26,132.5S17.58,144.44,11,158.92C6.93,167.74,17.51,160.12,17.51,160.12Z" transform="translate(-2.42 -1.58)"/></g><g id="cap"><path class="cls-10" d="M129.31,3.19s-29.4.7-57.5,16.2c-36.5,18.8-27.9,62.2-27.9,62.2l36.6-24.1s13.5-38.4,17.2-43.7C97.81,13.69,129.31,3.19,129.31,3.19Z" transform="translate(-2.42 -1.58)"/><path class="cls-19" d="M80.51,57.49l52.1-24,49-2.8s-9.5-16.9-25.7-22.6c-7.8-2.8-26.31-6.49-26.31-6.49S102.11,9.49,97.81,13.79C89.51,22.19,80.51,57.49,80.51,57.49Z" transform="translate(-2.42 -1.58)"/><path class="cls-10" d="M80.51,57.49c48.2-42.2,91.9-28.7,111.8-25.1,6.9,1.2,5.6,7.7,6.5,14.9.4,3.2-10.4-.5-10.4-.5s-4.6-12.2-6.1-12.4c-12-1.2-30.3,3.7-59.2,19.8C115.41,58.29,80.51,57.49,80.51,57.49Z" transform="translate(-2.42 -1.58)"/><path id="path56-2" data-name="path56" class="cls-13" d="M71.83,20.44C48.58,45.85,53.76,73.27,53.76,73.27l-7.66,5s-4.4-32.4,12.48-48.46" transform="translate(-2.42 -1.58)"/><path id="lines-1" class="cls-3" d="M111.76,5.25C26.76,18,44.14,82.81,44.14,82.81l36.21-25s32.06.54,41.86-3.46c2.7-1.1,40.5-17.8,41.7-18.1C188.33,30.19,197,41,197,41s-.2-5.8-4.2-6.6c-5.2-1.1-15.8-2.6-30.3-.4-2.9.4-38.4,17-40.6,17.5-18.7,3.9-35.8,2.7-35.6,2.5,7.9-6.6,31.4-20.8,56.2-25,11.9-2,41.2,2.8,51.4,4.9,4.5.9,4.6,11,4.4,14-.1.8-10.2-1.6-10.2-1.6l.5,1.6s9.5,2.8,10.1,1c.9-2.7.7-15.3-4.9-16.2-8.92-2.21-35.7-7.5-53-4.9-33.5,5.1-57.38,25.9-57.38,25.9s8.58-32.4,16.88-38.5c3.9-2.9,22.18-12.55,30.08-12.75,33.2-1,49.52,27.85,49.52,27.85l1.4.4s-12.69-31.56-51.59-29c-8.3.5-25.91,7.06-32.11,11.86C88.71,20.39,81,53.85,81,53.85L46.93,77.19s-12.29-59.4,66.4-71.32c10-1.5,6.37-2.06,6.37-2.06S112.18,5.19,111.76,5.25Z" transform="translate(-2.42 -1.58)"/></g><g id="pest"><path id="insect" class="cls-3" d="M128.23,271.69a10.18,10.18,0,0,0-.23-2.77l3.8-1.43a1.14,1.14,0,1,0-.81-2.14l-3.72,1.39a9.17,9.17,0,0,0-1.72-2.5c1.68-1.09,3.45-3.43,1.56-8.25a1.15,1.15,0,0,0-1.51-.64,1.16,1.16,0,0,0-.69,1.49c1.55,4,.1,5.19-1.12,5.76a1.4,1.4,0,0,0-.24.15,6.65,6.65,0,0,0-1.63-.59,2.39,2.39,0,0,0,0-1.35,2.58,2.58,0,0,0-2.21-1.73,4.57,4.57,0,0,1,.5-3.16,5,5,0,0,1,2.93-2.34.38.38,0,1,0-.22-.73,5.85,5.85,0,0,0-3.39,2.71,5.24,5.24,0,0,0-.62,3.51,2.83,2.83,0,0,0-.63.13,3.13,3.13,0,0,0-.88.43,5.29,5.29,0,0,0-2.64-2.55,5.81,5.81,0,0,0-4.34-.17.39.39,0,0,0-.24.49.38.38,0,0,0,.5.23,5,5,0,0,1,3.74.14,4.5,4.5,0,0,1,2.35,2.41,2.53,2.53,0,0,0-.58,2.41,2.34,2.34,0,0,0,.77,1.12,6.32,6.32,0,0,0-1.08,1.55,1.54,1.54,0,0,0-.37,0c-1.32.27-3.21.15-4.32-4a1.18,1.18,0,0,0-2.28.63c1.36,5.05,4.22,5.84,6.22,5.7a9.42,9.42,0,0,0,0,3l-3.82,1.08a1.17,1.17,0,0,0-.83,1.43A1.16,1.16,0,0,0,112,274l3.88-1.1a8.64,8.64,0,0,0,1.52,2.35,6.6,6.6,0,0,0-3.46,7.52,1.17,1.17,0,0,0,1.44.8l.06,0a1.17,1.17,0,0,0,.79-1.4,4.29,4.29,0,0,1,3.08-5.2.43.43,0,0,0,.12-.05,6.27,6.27,0,0,0,4.23.79l-4-12.1,1.18-.36,4,12.1a5.56,5.56,0,0,0,2.85-3.09,4.38,4.38,0,0,1,3.3.05,4.1,4.1,0,0,1,2.26,2.31,1.16,1.16,0,0,0,1.46.66l.06,0a1.16,1.16,0,0,0,.69-1.49A6.6,6.6,0,0,0,128.23,271.69Z" transform="translate(-2.42 -1.58)"/><path id="signal" class="cls-20" d="M120.73,245a23,23,0,1,0,23,23A23,23,0,0,0,120.73,245ZM102,268.18a18.75,18.75,0,0,1,3.79-11.31l28.06,25A18.87,18.87,0,0,1,102,268.18Zm33.46,12L107.3,255.08a18.88,18.88,0,0,1,28.16,25.12Z" transform="translate(-2.42 -1.58)"/></g></svg>