<?xml version="1.0" encoding="utf-8"?>
<!-- Generator: Adobe Illustrator 22.1.0, SVG Export Plug-In . SVG Version: 6.00 Build 0)  -->
<svg version="1.1" id="root" xmlns="http://www.w3.org/2000/svg" xmlns:xlink="http://www.w3.org/1999/xlink" x="0px" y="0px"
	 viewBox="0 0 243.6 318.9" style="enable-background:new 0 0 243.6 318.9;" xml:space="preserve">
<style type="text/css">
	.st0{fill:#5D7404;}
	.st1{fill:#9ACC9A;}
	.st2{fill:#231F20;}
	.st3{fill:#DBB928;}
	.st4{fill:#DDBE22;}
	.st5{fill:#DCD9D8;}
	.st6{enable-background:new    ;}
	.st7{fill:#C14669;stroke:#DCD9D8;stroke-width:0.75;stroke-linecap:round;stroke-miterlimit:10;}
	.st8{fill:#F0D6B7;}
	.st9{fill:#01748A;}
	.st10{fill:#6D6B6D;}
	.st11{fill:#F7E4CD;}
	.st12{fill:#8BC2C9;}
	.st13{fill:#49728B;}
	.st14{fill:#FFFFFF;}
	.st15{fill:#D4E8E2;}
	.st16{fill:#F70612;}
	.st17{fill:#EF929C;}
	.st18{display:none;fill:#81B0C4;}
	.st19{fill:#E4F2F4;}
	.st20{fill:#CE281F;}
</style>
<g id="base">
	<path id="path22" inkscape:connector-curvature="0" class="st0" d="M224.5,156.2c0,61.8-49,111.9-109.4,111.9S5.8,217.9,5.8,156.2
		s49-111.9,109.4-111.9S224.5,94.4,224.5,156.2"/>
	<path id="path24" inkscape:connector-curvature="0" class="st1" d="M11.6,183.4c0,0-7.9-116.6,99.6-120l-7.5-12.5L45.4,70.6
		L28.8,89.7l-14.6,28l-8.4,32.5l2.5,21.6"/>
	<path id="path26" inkscape:connector-curvature="0" class="st2" d="M41.6,79.4c-19.3,19.6-31.1,46.7-31.1,76.8l0,0
		c0,30,11.9,57.1,31.1,76.8l0,0c19.1,19.6,45.6,31.7,74.9,31.7l0,0c29.2,0,55.8-12.1,74.9-31.8l0,0c19.2-19.6,31.1-46.8,31.1-76.8
		l0,0c0-30-11.9-57.1-31.1-76.8l0,0c-19.2-19.6-45.6-31.8-74.9-31.8l0,0C87.3,47.7,60.8,59.8,41.6,79.4L41.6,79.4z M36.8,237.7
		c-20.4-20.9-33-49.8-33-81.5l0,0c0-31.8,12.6-60.6,33-81.5l0,0c20.4-20.9,48.6-33.8,79.8-33.8l0,0c31.1,0,59.4,12.9,79.8,33.8l0,0
		c20.4,20.9,33,49.6,33,81.5l0,0c0,31.8-12.6,60.6-33,81.5l0,0c-20.4,20.9-48.6,33.8-79.8,33.8l0,0
		C85.4,271.4,57.1,258.6,36.8,237.7L36.8,237.7"/>
	<path class="st3" d="M8.7,170.2c3.1,4.3,18.3-10.9,18.3-10.9s-11.4,6.9-13.2,5c-3.2-3.2,6.9-16.3,6.9-16.3S5.5,165.6,8.7,170.2z"/>
	<path class="st4" d="M93.7,170.2c0-6.6-3.1-35.5-9.7-35.5L39.5,135c0,0-27.5,8.3-31.9,35.2c-3.3,20.3-4,45.5-4,45.5
		c0,6.6,4.3,35.6,21.4,41l61.4,5.5c-3.9-5.4,7.3-6.7,7.3-13.3"/>
	<path id="tank-shape" class="st5" d="M32.8,254.1c19.9,2.1-26.5-25.5-1.8-80.7c2-4.5-7.4,13.8-19.2,2.8
		C9.8,174.4-5.1,250.1,32.8,254.1z"/>
	<g>
		<g>
			<g class="st6">
				<g>
					<path class="st2" d="M39.4,131.2l5.2,5.6c-0.1-0.1-0.1-0.1-0.2-0.2c-1.3-0.9-4.7,0.5-9.1,3.8c-3.1,2.4-6.8,5.7-10.5,9.9
						c-4.1,4.6-7.4,9.3-9.3,13.1c-1.6,3.3-2.1,5.7-1.2,6.6l-5.2-5.6c-0.9-0.9-0.4-3.3,1.2-6.6c1.9-3.9,5.2-8.5,9.3-13.1
						c3.7-4.2,7.4-7.5,10.5-9.9c4.4-3.3,7.8-4.7,9.1-3.8C39.2,131.1,39.3,131.1,39.4,131.2z"/>
				</g>
				<g>
					<path class="st4" d="M30,134.8c4.4-3.3,7.8-4.7,9.1-3.8c1.1,0.8,0.8,3.2-1,6.8c-1.9,3.9-5.2,8.5-9.3,13.1
						c-3.5,3.9-7.2,7.4-10.5,9.9c-0.6,0.4-1.2,0.9-1.7,1.2c-3.5,2.4-6.2,3.3-7.3,2.6c-1.1-0.8-0.8-3.2,1-6.8
						c1.9-3.9,5.2-8.5,9.3-13.1C23.3,140.6,26.9,137.2,30,134.8z"/>
				</g>
				<g>
					<path class="st4" d="M14.5,170.3c-0.1-0.1-0.2-0.1-0.2-0.2l-5.2-5.6c0.1,0.1,0.1,0.1,0.2,0.2c1.1,0.8,3.8-0.2,7.3-2.6
						c0.6-0.4,1.1-0.8,1.7-1.2c3.4-2.5,7.1-6,10.5-9.9c4.1-4.6,7.4-9.3,9.3-13.1c1.6-3.3,2.1-5.7,1.2-6.6l5.2,5.6
						c0.9,0.9,0.4,3.3-1.2,6.6c-1.9,3.9-5.2,8.5-9.3,13.1c-3.5,3.9-7.2,7.4-10.5,9.9c-0.6,0.4-1.2,0.9-1.7,1.2
						C18.3,170.2,15.7,171.1,14.5,170.3z"/>
				</g>
				<g>
					<path class="st2" d="M40.5,129.5c1.6,1.1,1.4,4.1-0.8,8.4c-2,4.1-5.5,9-9.7,13.8c-3.6,4.1-7.4,7.7-11,10.3
						c-0.6,0.5-1.3,0.9-1.9,1.3c-4.3,2.9-7.5,3.9-9.2,2.8s-1.3-4.1,0.8-8.4c2-4.1,5.5-9,9.7-13.8c3.7-4.2,7.5-7.7,10.9-10.3
						C34.4,130,38.6,128.3,40.5,129.5z M38.2,137.8c1.8-3.6,2.1-6.1,1-6.8c-1.3-0.9-4.7,0.5-9.1,3.8c-3.1,2.4-6.8,5.7-10.5,9.9
						c-4.1,4.6-7.4,9.3-9.3,13.1c-1.8,3.6-2.1,6-1,6.8c1.1,0.8,3.8-0.2,7.3-2.6c0.6-0.4,1.1-0.8,1.7-1.2c3.4-2.5,7.1-6,10.5-9.9
						C33,146.4,36.3,141.7,38.2,137.8"/>
				</g>
				<g>
					<path class="st2" d="M40.9,129.9l5.2,5.6c1.2,1.3,0.8,4.1-1.2,8.1c-2,4.1-5.5,9-9.7,13.8c-3.6,4.1-7.4,7.7-11,10.3
						c-0.6,0.5-1.3,0.9-1.9,1.3c-4.3,2.9-7.5,3.9-9.2,2.8c-0.1-0.1-0.3-0.2-0.4-0.3l-5.2-5.6c0.1,0.1,0.2,0.2,0.4,0.3
						c1.6,1.1,4.9,0.1,9.2-2.8c0.6-0.4,1.2-0.9,1.9-1.3c3.5-2.7,7.4-6.3,11-10.3c4.2-4.8,7.7-9.7,9.7-13.8
						C41.6,134,42,131.1,40.9,129.9z"/>
				</g>
			</g>
		</g>
	</g>
	<path class="st5" d="M11.8,172.8c7.4,8.8,28.7-18.8,28.7-18.8s-7.6,17.1-17.6,22.8C16,180.6,9.6,170.2,11.8,172.8z"/>
	<polygon class="st2" points="44.3,135 64.4,134.7 65.5,136.2 45.1,136.8 	"/>
	<line class="st7" x1="14.3" y1="166.1" x2="17.6" y2="169.7"/>
	<line class="st7" x1="22" y1="160.4" x2="25.4" y2="164.1"/>
	<line class="st7" x1="29.6" y1="152.9" x2="33" y2="156.6"/>
	<line class="st7" x1="36.1" y1="145.3" x2="39.5" y2="148.9"/>
	<line class="st7" x1="41.1" y1="136.9" x2="44.5" y2="140.6"/>
	<path class="st2" d="M10.4,168.6L8,165.1c0,0-27.1,103.5,38.1,96.2c1.1-0.1,0.1-4.2-1-4.1C-15.4,262.2,10.4,168.6,10.4,168.6z"/>
	<path id="path28" inkscape:connector-curvature="0" class="st8" d="M162.5,156.4l-16.6,2.5l-22.5,2.5l-14.6,0.4l-14.1-0.4
		l-10.9-3.4l-9.6-10.4l-7.5-21.3l-1.6-4.6l-10-3.4l-5.9-9.6L45,95.1l4.6-12.1l10.9-3.8l8.8,4.1l4.1,9.1l5-0.9l1.6-2.1l-3.3-9.8
		l1.2-12l2.5-16.6l-0.1-9.5L88,29.4l13.4-9.6l23.4-10l25.9,3.8l22.5,16.2l10.4,16.6l6.6,12.1l1.6,30l-5,25.9l-9.1,22.9l-8.8,12.1"/>
	<polygon id="nek-skin" class="st8" points="112,208.1 181.6,208.1 174.6,144.6 112,143.1 	"/>
	<path id="path30" inkscape:connector-curvature="0" class="st9" d="M148.4,228.4l-59.6,2.5v10l5,35l-2.5,2.9l-41.6-14.1l-2.9-5
		l-7.6-46.2L33,184.3l-2.1-6.6l33.4-23l10.4-4.1l10.1,9.9l7.9,2.4l7.9,3.6l5.8,3.5l22-5.1l10.4,4.2l7.4,6.4l4.6,10.5l2.4,40
		L148.4,228.4"/>
	<path id="path32" inkscape:connector-curvature="0" class="st10" d="M49.6,83.1l10.9-3.8l8.8,4.1l4.1,9.1l5-0.9l1.2-5l-2.5-9.6
		l2.5-22.9l-2.1-12.5l7.5-8.8l16.2-12.9l-4.6-6.3L73.8,25.1l-9.6,7.5l-5.4,11.6l-8.4,11.2l-2.5,13.4L49.6,83.1"/>
	<path id="path34" inkscape:connector-curvature="0" class="st5" d="M66.8,43.9c0,0,6.3-15.4,31.3-22.9s1.2-5.4,1.2-5.4L72.1,26.1
		L61.8,36.4l-4.6,8.4L66.8,43.9"/>
	<path id="path38" inkscape:connector-curvature="0" class="st11" d="M67.5,118.9l5.5-5.2c0,0,2.5,0.2,2.9,3.2
		c0.4,2.9,1.6,29.1,19.6,43.4c1.6,1.2-13.4-2.1-13.4-2.1l-13.4-21"/>
	<path id="path40" inkscape:connector-curvature="0" class="st11" d="M144.3,110.9c0,0,1-12.6,4.4-11.6c3.4,1,3.4,4.4,3.4,4.4
		S143.8,109.1,144.3,110.9"/>
	<path id="path42" inkscape:connector-curvature="0" class="st11" d="M178.8,64.7c0,0-6.9,1.5-7.5,7.5c-0.6,6,7.5,1.2,8.8,0.9"/>
	<path id="path44" inkscape:connector-curvature="0" class="st11" d="M128.4,65.2c0,0-9.1,1.2-9.1,7.1c0,5.9,10.4,5.4,13.4,2.9"/>
	<path id="path46" inkscape:connector-curvature="0" class="st11" d="M71.8,92.2c0,0-15.9-9.6-17.5-0.4c-1.6,9.1-5.4,15.9,2.5,25.4
		l-5.4-1.6l-5-12.9l-1.6-12.5l9.6-10l10.9,0.9l6.2,5L71.8,92.2"/>
	<path id="path48" inkscape:connector-curvature="0" class="st11" d="M79.3,65.9c0,0,7.1-36.6,42.9-43.8c29.5-5.9,45,1.2,50.9,7.9
		c0,0-26.2-31.2-51.2-21.6S78.4,35.6,78.9,46.8C79.5,65.9,79.3,65.9,79.3,65.9"/>
	<path id="path50" inkscape:connector-curvature="0" class="st11" d="M175.9,34.3c0,0-12.1-0.4-12.5,10.4c0,0,0,1.6,0.9,3.4
		c0,0,9.6-10.9,15.4-5"/>
	<path id="path52" inkscape:connector-curvature="0" class="st11" d="M123,49.2c0,0-2.1-16.6-16.2-7c-9.1,6.2-8.4,15-6.6,16.6
		c1.6,1.6,1.2,5,2.5,2.7s0.9-9.8,5.4-11.9C112.5,47.7,120.1,45.3,123,49.2"/>
	<path id="path54" inkscape:connector-curvature="0" class="st12" d="M79.8,158.8c0,0-49.1,9.8-38.1,40.2c-1.1,10.4,0.5,22,1.9,26
		c1.4,4,9,21.8,9.1,23.2c0.1,1.5-0.5,10.1-2.9,15.5l-3.8-3.2l-0.7-14.2l-4.9-9.1l-6.8-15.6l0.5-14.6l-6.8-17.2l3.1-14.6
		c1.1-10.2,38.5-25,38.5-25l13.4,9.3"/>
	<path id="path56" inkscape:connector-curvature="0" class="st12" d="M87.4,197.6c0,0,4.4,5.2,6,6.8c6.6,6.2,0,25,0,25h-6.6
		c0,0,0.9-17.6,0.9-19.8s-0.9-9.5-0.9-9.5"/>
	<path id="path58" inkscape:connector-curvature="0" class="st13" d="M88,233.1l-18.8,0.9l5.4,3.8l13.4,2.1"/>
	<path id="path62" inkscape:connector-curvature="0" class="st9" d="M154.4,228.9l23.4-1.2c0,0,11.5-23.1,11.5-24.4
		c0-0.5,2.4-8,3.5-15.9c1-3.1,3.9-7.6,4.6-10.6c1.5-6.1-1.5-9.8-1.5-9.8l-18.8-19.6l-3.8-3.4l-12.9,9.6l-11.1,34.9l-6.2,36.8"/>
	<path id="path64" inkscape:connector-curvature="0" class="st13" d="M166.8,225.9l-14.6,2.9l2.1,11.6c5.4,2.5,14.6-4.1,14.6-4.1"/>
	<path id="path66" inkscape:connector-curvature="0" class="st12" d="M168.1,158.4c0,0,26.8,0.8,29.8,19.3c0.2,1.4-1.4,3.6,0.2-2.4
		c1.2-4.6,0.2-9.7,0.2-9.7L173,142.2l-6.2,8.4"/>
	<path id="path68" inkscape:connector-curvature="0" class="st14" d="M102.5,310.9l-8.6-35l-4.2-25.9l-0.9-19.1l39-2.1H152
		l-2.2,43.8l3.8,33.8l-0.4,6.2l-31.6,2.5L102.5,310.9"/>
	<g id="stick">
		<path class="st15" d="M215.1,170.3l-2.4,7.6c0,0,0.1,0,0.1,0l-0.1,0L215.1,170.3z"/>
		<path class="st15" d="M229,148c0-0.2-0.1-0.5-0.1-0.7l0,0C228.9,147.4,229,147.8,229,148C229,148,229,148,229,148z"/>
		<path class="st15" d="M231.8,152.1c-1.4-1-2.4-2.5-2.8-4.1c0,0.2,0.2,0.7,0.2,0.7l-7.1,3.9l-7.4,25.4l-0.1,0
			c0.2,0,0.5,0.1,0.7,0.2c1.6,0.5,2.8,1.1,3.7,1.9l7.7-24.4L231.8,152.1z"/>
		<polygon class="st16" points="208.1,181.8 206.1,187.9 208.1,181.8 		"/>
		<path class="st16" d="M215,179.1c-0.8-0.2-1.5-0.3-2.2-0.2L195.7,230l9.7,3.2l15.2-48.5C220.6,184.2,220.1,180.6,215,179.1z"/>
		<path class="st15" d="M237.1,141.3c-0.7-0.2-1.4-0.3-2.1-0.2c-0.7,0.1-1.5,0.3-2.1,0.6c-1.3,0.7-2.3,1.9-2.7,3.3
			c-0.9,2.9,0.8,6.1,3.7,7c1.4,0.4,2.9,0.3,4.2-0.4c1.3-0.7,2.3-1.9,2.7-3.3c0.4-1.4,0.3-2.9-0.4-4.2
			C239.7,142.7,238.5,141.8,237.1,141.3z M237.5,151.2c-3.1,1.4-6-1.7-6-1.7s3.1,0.7,5-0.2c1.7-0.8,3.7-3.8,3.7-3.8
			S240.6,149.7,237.5,151.2z"/>
		<path class="st2" d="M241.3,143.6c-0.8-1.6-2.2-2.7-3.9-3.2c-1.7-0.5-3.5-0.3-5,0.5c-1.6,0.8-2.7,2.2-3.2,3.9
			c-0.1,0.4-0.2,0.9-0.3,1.3l-9.1,5.7l-8.2,26.3c-3,0.7-4.5,3.3-4.5,3.3l-16,48.3l14.9,4.9l15.5-49.5l0-0.2c0,0-0.1-2.1-1.8-4
			l7.7-24.5l5.3-3.6c0.3,0.1,0.5,0.2,0.8,0.3c0.8,0.3,1.7,0.3,2.5,0.3c0.9-0.1,1.7-0.3,2.5-0.7c1.6-0.8,2.7-2.2,3.2-3.9
			S242.1,145.1,241.3,143.6z M240.8,148.3c-0.4,1.4-1.4,2.6-2.7,3.3c-1.3,0.7-2.8,0.8-4.2,0.4c-2.9-0.9-4.6-4-3.7-7
			c0.4-1.4,1.4-2.6,2.7-3.3c0.7-0.4,1.4-0.6,2.1-0.6c0.7-0.1,1.4,0,2.1,0.2c1.4,0.4,2.6,1.4,3.3,2.7
			C241.1,145.4,241.2,146.9,240.8,148.3z M220.6,184.8l-15.2,48.5l-9.7-3.2l0,0l-3.2-1.1l13.7-41.1l2-6.1c0,0,0,0,0,0l0,0
			c0,0,0.4-0.7,1.3-1.5c0.6-0.5,1.4-0.9,1.8-1.1c0.6-0.2,1.6-0.3,1.6-0.3l0,0c0.7,0,1.4,0,2.2,0.2
			C220.1,180.6,220.6,184.2,220.6,184.8z M215.2,178.2c-0.2-0.1-0.5-0.1-0.7-0.2l-1.7-0.1c0,0-0.1,0-0.1,0l2.4-7.6l5.6-17.9l8.2-5.2
			c0,0,0,0,0,0l0,0c0,0.3,0.1,0.5,0.1,0.7c0,0,0,0,0,0c0.3,1.7,1.3,3.2,2.8,4.1l-5.1,3.6L219,180
			C218.1,179.3,216.9,178.6,215.2,178.2z"/>
		<path class="st14" d="M222.1,152.6l7.1-3.9c0,0-0.1-0.5-0.2-0.7c0,0,0,0,0,0c0,0,0,0,0,0c0-0.1-0.1-0.6-0.1-0.7c0,0,0,0,0,0
			l-8.2,5.2l-5.6,17.9l-2.4,7.6l0.1,0l1.7,0.1l0.1,0L222.1,152.6z"/>
		<path class="st14" d="M236.5,149.3c-1.9,0.9-5,0.2-5,0.2s2.8,3.2,6,1.7c3.2-1.4,2.8-5.8,2.8-5.8S238.2,148.5,236.5,149.3z"/>
		<path class="st17" d="M212.8,178.9L212.8,178.9c0,0-0.9,0-1.6,0.3c-0.4,0.2-1.2,0.6-1.8,1.1c-1,0.8-1.3,1.5-1.3,1.5l0,0l-2,6.1
			L192.4,229l3.2,1.1l0,0L212.8,178.9z"/>
	</g>
	<path id="path70" inkscape:connector-curvature="0" class="st5" d="M146.8,228.4c0,0-2.1,43.4,4.1,74.1c0,0-12.5,7.9-30.9,10
		l35-1.2l4.1-2.5l-5-68.4l-1.2-14.6"/>
	<path id="path72" inkscape:connector-curvature="0" class="st5" d="M156.6,270.9c0.4,3.9,31.2-13.1,31.2-13.1l30.9-1.6l4.6-14.1
		l-8.4-24.6l-12.1-2.2l-11.5,3.5l-12.1,7.9c0,0,3.2,3.4-6.8-1.2c-10.1-4.6-20.1,0.9-19.1,4.1"/>
	<path id="path74" inkscape:connector-curvature="0" class="st4" d="M155.5,259.7c0,0,27.1-9.5,28.8-9.1l-4.6-22.9l5.4-2.1
		c0,0,3.8,21.6,3.8,24.1c0,0,23.4,1.2,25.4,1.2c0,0,5-9.6,3.8-19.6l4.6,13.4l0.4,7.5l-6.6,10l-7.5,1.6l-12.5-0.4l-4.1-5.4l-13.5,5.5
		l-21.8,9"/>
	<path id="path82_1_" inkscape:connector-curvature="0" class="st5" d="M87.6,163.9"/>
	<path id="path100" inkscape:connector-curvature="0" class="st2" d="M123,49.2c-11.4-2.6-17,4.8-20.5,12.4c-3.1-0.8-1.9-4.9-1.1-7
		c2-5.6,10.2-13,16.9-12C121.3,42.9,125.1,45.6,123,49.2"/>
	<path id="path102" inkscape:connector-curvature="0" class="st2" d="M178.4,62.1c0.1,0,0.4,0,0.5,0c2.6,5.4,4.8,11,8,15.6
		c-2.1,5-16.4,9.5-16.2,0.5c3.1-1.4,8.4-0.2,11.1-2C180.3,71.9,178,68.2,178.4,62.1"/>
	<path id="path104" inkscape:connector-curvature="0" class="st2" d="M128.8,62.3c2.4,4.5,3.3,9.1,6.8,12.5c1.5,1.5,4.6,3.4,3.1,7.6
		c-0.4,1-2.9,3.2-4.4,3.6c-5.4,1.6-18,0.4-13.8-6.4c4.5,0.2,10.5,2.9,13.9-0.4C131.8,75.2,127.1,67.1,128.8,62.3"/>
	<path id="path106" inkscape:connector-curvature="0" class="st2" d="M176.3,107.6c-8.1,5.2-17.2,10.9-30.6,9.6
		c-2.9-2.5-4-8-1.1-11.6c1.5,2.5,0.5,7,4.5,7.8c7.6,1.2,16.4-4.6,21.9-6.8c3.4-5.8-0.2-7.8-3.4-11.5c-6.2-7.5-14.6-16.9-14.2-28.1
		c2.5-1.9,2.8,2.8,3.1,3.6c3.2,7.6,11.5,17.4,17.4,23.9c1.5,1.6,3.9,3.1,4.1,4.2C178.8,101.8,176,105.6,176.3,107.6"/>
	<path id="path108" inkscape:connector-curvature="0" class="st2" d="M68.9,102.1c-2.5-1.5-3.1-7.9-6.1-8c-4.3-0.2-3.5,8.4-3.5,13.4
		c-3-2.6-3.5-10.9-1.2-15.1c-2.5-1.2-3.6,1.4-5,2.2C54.8,81.7,71.8,88.6,68.9,102.1"/>
	<path id="path110" inkscape:connector-curvature="0" class="st2" d="M181.5,112.9c-3.8,7.2-9.1,15.1-20.2,15.4
		c-0.2-2.4-0.4-5.9,0-7.3C169.8,120.2,175,115.9,181.5,112.9"/>
	<path id="path112" inkscape:connector-curvature="0" class="st2" d="M128.1,117.6c7.1,3.8,20.1,4.1,29.8,3.9
		c0.5,2.1,0.5,4.8,0.5,7.3C146.1,129.4,131.4,126.3,128.1,117.6"/>
	<path id="path114" inkscape:connector-curvature="0" class="st2" d="M126.8,124.6c4.9,12.4,21.7,10.9,36,10.6
		c-0.6,1.6-2,3.5-3.6,4.1c-4.5,1.9-17.1,3.2-23.5-0.1c-4-2.1-6.6-7-8.7-9.8C125.9,128.1,120.5,124.6,126.8,124.6"/>
	<path id="path116" inkscape:connector-curvature="0" class="st18" d="M175.8,192.6c-5.8,9.9-11.2,20-18.1,28.8
		c2.9-8.4,4.1-22.5,4.5-33.2C168.1,185.2,173.3,188.6,175.8,192.6"/>
	<path id="path124" inkscape:connector-curvature="0" class="st5" d="M164.6,270.6c0.9,7.4,3.8,14.9,3.4,23c-3.3,1.1-5.1,2.1-9.5,2
		c-0.2-6.9-1.2-17.5-1-24C159.6,271.8,162.9,270.2,164.6,270.6"/>
	<path id="path128" inkscape:connector-curvature="0" class="st18" d="M119.5,207.4c1.9-8,9.1-12.2,15.8-16.6
		c6.9,8.6,11,19.8,15.5,30.5C140,218.1,129,212.7,119.5,207.4"/>
	<path id="path130" inkscape:connector-curvature="0" class="st2" d="M156.5,274.7c-0.1,6,0.6,12.8,1,19c0,0.5,0.5,1,1,0.9
		c3.4-0.1,5.2-0.9,7.9-1.9c0.4-0.1,0.6-0.5,0.6-0.9c0.1-7.4-2.1-12.5-3-19.2c-0.1-0.5-0.5-1-1.1-0.9c-1.6,0.2-3.9,1.6-5.6,1.9
		C156.9,273.9,156.5,274.3,156.5,274.7z M88.5,234.2c2.9,26,7,47.9,14.5,70.9c0.1,0.4,0.4,0.6,0.6,0.6c16.6,4.9,36.4,5.4,51.2,1
		c0.5-0.1,0.8-0.6,0.6-1.1c-2.5-13.1-1.4-28.9-3-42.6c-1.2-10.4-0.6-20.9-2.1-31.5c0-0.4-0.4-0.8-0.8-0.9
		c-17.9-3.5-42.6-0.8-60.2,2.4C88.9,233.2,88.5,233.7,88.5,234.2z M210.4,259.8c6.5-1.6,10.6-9.5,8.8-17.8
		c-1.2-5.5-3.4-15.9-5.8-19.4c-1.6-2.5-3.4-6.5-8.5-6.5c-0.1,0-0.1,0-0.2,0c-2.5,0.5-8.1,2.6-11.9,4c-3.1,1.1-9.4,6.5-13.6,7.6H179
		c-10.1,1.2-22.4-2-24.2,2.1c-1.9,4.4,1.2,30.4,2.5,39.5c0.1,0.6,0.6,0.9,1.1,0.8c4.6-1,19.4-7.4,25.5-11.1
		c10-6.1,17.5-5.5,22.1-4.1c1,0.2,0.9,1.7-0.1,1.9c-2.6,0.5-5.5,0.9-7.9,1.6c-1,0.2-0.9,1.8,0.1,1.9
		C201.9,261.1,206.9,260.7,210.4,259.8L210.4,259.8z M134.8,162.2c0,0,15.3,10.1,14.8,15.2c0,0.6,3.2-15,3.2-15s7.8-8.1,5.8-6.2
		C148.5,165.2,134.8,162.2,134.8,162.2z M66.6,157.3c-4.5-2.8,2.4-7.1,2.4-7.1l-6.6,3.9c0,0-4.9,2.6-5,2.6
		c-17.9,7.8-31.8,24.2-26.5,38c2.3,6,5,3.6,4.6,7.1c-0.6,5-3.6,18.5,5.6,31.7c4,5.8,8.2,21.6,8.6,27.5c0,0.4,0.2,0.6,0.6,0.9
		c12.1,5.6,22.7,10.6,39,11.8c0.6,0,1.1-0.5,1-1.1c-1.9-13.4-3.6-25.4-4.8-38c0-0.4-0.2-0.8-0.6-0.9c-3.9-1.2-9.1,0-12.9-0.2
		c-0.6,0-1.1-0.6-0.9-1.2c0.9-3.2,6.1-1.2,6.5-4.2c0.4-2.1-2.4-2.6-2.4-5.1c0-0.8,0.8-1.2,1.4-0.9c2.1,1.1,3.6,2.9,6,3.8
		c0.5,0.2,1,0,1.2-0.4c3.6-6.1,2-18,0.1-23.5c0.1-1,0.5-5.9,2.9-5c0.9,1,0,1.4,1.6,18.1c0.2,4.6-2,8.9-0.5,12c0.1,0.4,0.6,0.6,1,0.5
		c15-2,30.1-3.4,46.1-4c1,0,13.5-0.5,13.5-0.5s12.5-54.4-19.5-53.4c-3.4-0.9-8.6,11-8.6,11S90.9,172.7,66.6,157.3z M170.8,166.6
		c0.5,2.1-10.8-1.6-10.8-1.6s-8.3,16.5-8.1,16.8c4.2,8.2-1.5,40.9-1.5,40.9s9.6,0.2,10.5,0c4.6-1.2,14-1.2,18.8-3.1
		c15.4-25.4,8.6-42,8.6-42l3.9,7.9c5.9-5.4,9.6-28-12.1-31.2c-0.2,0,1.6,2.1,1.5,2c-4.2-3.9-3.2-4.5-7.6-8.1c-0.4-0.4-3.6-0.6-4-0.3
		C168,150.4,169.2,159.2,170.8,166.6z M55,52.3c-5.1,5.6-3.1,25.1-2.5,24.8c9.4-4.8,21,1.2,21.7,10.8c0,0.6,0.8,1.1,1.2,0.9
		c2.9-1.1,0.5-6.1-0.4-9.5c-1.4-5.8-0.4-11.8,0.6-17.6c1-6.4,2-12.6,0-18.4c-0.1-0.4-0.6-0.8-1-0.6C66.6,43.4,59.9,46.9,55,52.3
		L55,52.3z M94.4,17.2c-11.7,3.4-26.6,11.6-32.6,21.9c-0.5,0.8,0.2,1.6,1.1,1.4c2.9-0.8,5.4-2.1,8.5-2.4c1.5-0.1,3.4,0.6,5.1,0.2
		c3.4-0.9,6.2-8.4,8.8-11.2c2.4-2.7,5.4-3.9,7.4-6.2c0.1-0.1,0.2-0.2,0.4-0.2c1.1-0.5,2.6-0.6,3-1.9c0.1-0.4,0-0.8-0.2-1
		C95.4,17.3,94.9,17.1,94.4,17.2z M159.3,20.6c-12.9-7.3-34.9-12.7-48.6-5.9c-11,5.5-25.8,14.5-31,25.9c-0.1,0.2-0.1,0.5,0,0.8
		c4.5,11-1.6,21.2-2,32.4c-0.2,6,2.8,11.1,3.1,17.6c0,0.2,0,0.5-0.1,0.6c-1.6,2.3-5.9,2.6-9.1,2.6c-0.5,0-0.9-0.4-1-0.8
		c-1.2-5.6-3.2-11.6-9-12.2c-8.5-0.9-14.8,6.1-15.1,13.5c-0.5,8.6,6.6,23,16.6,22c3.6-0.4,4.8-3.8,8.2-4.2c0.5,0,0.9,0.2,1.1,0.6
		c1.4,4-3.9,5.5-4.4,8.6c-0.1,0.9,0.5,4.1,0.9,5.8c1.9,7.5,5.9,17.2,9.9,23c5,7.1,42.5,10.9,45.9,11c1,0-10.2-6.6-11-7.1
		c-3.8-2.6-7.3-6.4-10.4-9.7c-3.9-4.2-7.7-8.8-9.4-13.9c-0.4-1.1,1.1-1.8,1.7-0.9c8.3,11.4,15.9,21,31.1,26.1
		c12.8,4.2,27.5-2,37.2-8.8c4-2.9,6.5-7.4,9.4-11.5c10.8-15.5,15.8-37.6,14.8-59c-0.5-8.9-0.4-17.6-3.4-23.6
		c-2.9-5.8-12.1-11-18.4-7.3c-0.8,0.4-1.5-0.1-1.5-1c0.4-4.2,4.6-6.7,10-6.1c0.9,0.1,1.5-0.9,0.9-1.6C171,31.2,166,24.3,159.3,20.6
		L159.3,20.6z M183.4,219.9c0,0,26-18.1,35.4,0c2.4,5,5.1,13.4,6.2,18.6c1.8,7.2-1.9,22.5-9.4,25c-6.5,2.1-14.1,2-22,0.5
		c-0.1,0-0.4-0.1-0.5-0.2c-0.8-0.8-1.6-1.8-2.2-2.9c-0.1-0.4-0.5-0.5-0.9-0.5c-5.6,0.2-16.2,6.9-19.5,8.2c-0.2,0.1-0.5,0.4-0.6,0.6
		c-1.6,7.8,4,17.8,2.6,24.6c-1,4.8-6.6,5.8-11.1,6.6c-0.5,0.1-0.8,0.5-0.8,1c0,2.4,0.2,4.5,0.5,6.6c0,0.1,0,0.2,0,0.5
		c-1.1,3.8-5.8,5.9-10.1,6.4c-14.5,1.8-36.6,2.5-50.7-2.4c-0.2-0.1-0.5-0.2-0.6-0.6c-3.8-9.4-6.7-20.6-10-31.4
		c-0.1-0.5-0.6-0.8-1-0.8c-13.4,1.1-23.5-7-33.9-11.8c-3.6-1.6-7.3-2.5-8.6-5.4c-1.9-5.1-1.9-5.1-2.1-10.1v-0.1
		c-1.5-8.4-1.5-7.4-2.6-9.2c-1.1-1.9-20.9-25.3-11.4-39.6c0.2-0.4,0.2-0.9,0-1.1c-9.8-12.5-6.1-22.2-1.6-31c1.9-3.5,5.8-6.5,7.5-8
		l0,0c7.3-5.2,14.5-6,22.4-10.8c2.4-1.4,9.4-5,10.2-6.6c1.6-3.2-2.7-7.9-3.9-10.4c-1.8-3.8-2.6-7-3-10.8c0-0.5-0.4-0.7-0.8-0.9
		c-6.2-1.2-11.1-5-14-9.4c-5-7.4-8.5-21-4.1-31.5c0.4-0.9,2-2.4,2.3-3.6c0.5-2.5-0.9-5.8-1-8.4c-0.5-13.2,2.3-24.7,11-29
		c0.2-0.1,0.5-0.4,0.5-0.6c3.9-14.4,16.9-19.2,29.3-26.5c4.6-2.7,9.8-4.5,15.1-6.4c19-7,48.1-5.6,64,6.2c6.7,5,17.4,15.8,21.2,23.5
		c10.1,20.4,9.4,54.5,2.4,79.4c-1,3.4-2.4,8.2-4.2,12.2c-1.4,2.8-5.5,8.4-5,10.9c0.5,2.5,7,13.1,8.8,13.6
		c7.1,2.4,21.6,14.4,6.7,31.9C193.6,193.8,189.9,207.1,183.4,219.9"/>
	<path id="path132" inkscape:connector-curvature="0" class="st11" d="M116.9,120.8c0.5-0.8,3.6-1.9,7.8,0.2c0,0-5,0.9-4.6,9.1
		l-2.1-0.4C118,129.7,115.9,122.2,116.9,120.8"/>
	<path class="st5" d="M17.5,160.1l17.8-27.6c0,0-17.7,11.9-24.3,26.4C6.9,167.7,17.5,160.1,17.5,160.1z"/>
</g>
<g id="cap">
	<path class="st9" d="M129.3,3.2c0,0-29.4,0.7-57.5,16.2C35.3,38.2,43.9,81.6,43.9,81.6l36.6-24.1c0,0,13.5-38.4,17.2-43.7
		C97.8,13.7,129.3,3.2,129.3,3.2z"/>
	<path class="st19" d="M80.5,57.5l52.1-24l49-2.8c0,0-9.5-16.9-25.7-22.6c-7.8-2.8-26.3-6.5-26.3-6.5s-27.5,7.9-31.8,12.2
		C89.5,22.2,80.5,57.5,80.5,57.5z"/>
	<path class="st9" d="M80.5,57.5c48.2-42.2,91.9-28.7,111.8-25.1c6.9,1.2,5.6,7.7,6.5,14.9c0.4,3.2-10.4-0.5-10.4-0.5
		s-4.6-12.2-6.1-12.4c-12-1.2-30.3,3.7-59.2,19.8C115.4,58.3,80.5,57.5,80.5,57.5z"/>
	<path id="path56_1_" inkscape:connector-curvature="0" class="st12" d="M71.8,20.4C48.6,45.9,53.8,73.3,53.8,73.3l-7.7,5
		c0,0-4.4-32.4,12.5-48.5"/>
	<path id="lines-1" class="st2" d="M111.8,5.2C26.8,18,44.1,82.8,44.1,82.8l36.2-25c0,0,32.1,0.5,41.9-3.5
		c2.7-1.1,40.5-17.8,41.7-18.1C188.3,30.2,197,41,197,41s-0.2-5.8-4.2-6.6c-5.2-1.1-15.8-2.6-30.3-0.4c-2.9,0.4-38.4,17-40.6,17.5
		c-18.7,3.9-35.8,2.7-35.6,2.5c7.9-6.6,31.4-20.8,56.2-25c11.9-2,41.2,2.8,51.4,4.9c4.5,0.9,4.6,11,4.4,14
		c-0.1,0.8-10.2-1.6-10.2-1.6l0.5,1.6c0,0,9.5,2.8,10.1,1c0.9-2.7,0.7-15.3-4.9-16.2c-8.9-2.2-35.7-7.5-53-4.9
		c-33.5,5.1-57.4,25.9-57.4,25.9s8.6-32.4,16.9-38.5c3.9-2.9,22.2-12.6,30.1-12.8c33.2-1,49.5,27.9,49.5,27.9l1.4,0.4
		c0,0-12.7-31.6-51.6-29c-8.3,0.5-25.9,7.1-32.1,11.9C88.7,20.4,81,53.9,81,53.9L46.9,77.2c0,0-12.3-59.4,66.4-71.3
		c10-1.5,6.4-2.1,6.4-2.1S112.2,5.2,111.8,5.2z"/>
</g>
<g id="pest">
	<path id="insect" class="st2" d="M128.2,271.7c0.1-0.9,0-1.8-0.2-2.8l3.8-1.4c0.6-0.2,0.9-0.9,0.7-1.5c-0.2-0.6-0.9-0.9-1.5-0.7
		l-3.7,1.4c-0.5-1-1-1.8-1.7-2.5c1.7-1.1,3.4-3.4,1.6-8.2c-0.2-0.6-0.9-0.9-1.5-0.6c-0.6,0.2-0.9,0.9-0.7,1.5c1.5,4,0.1,5.2-1.1,5.8
		c-0.1,0-0.2,0.1-0.2,0.2c-0.5-0.3-1.1-0.5-1.6-0.6c0.1-0.4,0.1-0.9,0-1.3c-0.3-1-1.2-1.6-2.2-1.7c-0.2-1.1-0.1-2.2,0.5-3.2
		c0.6-1.1,1.7-2,2.9-2.3c0.2,0,0.3-0.3,0.3-0.5c-0.1-0.2-0.3-0.3-0.5-0.2c-1.5,0.4-2.7,1.4-3.4,2.7c-0.6,1.1-0.8,2.3-0.6,3.5
		c-0.2,0-0.4,0.1-0.6,0.1c-0.3,0.1-0.6,0.3-0.9,0.4c-0.5-1.1-1.5-2-2.6-2.6c-1.4-0.6-2.9-0.7-4.3-0.2c-0.2,0.1-0.3,0.3-0.2,0.5
		c0.1,0.2,0.3,0.3,0.5,0.2c1.2-0.4,2.6-0.4,3.7,0.1c1.1,0.5,1.9,1.3,2.3,2.4c-0.6,0.7-0.8,1.6-0.6,2.4c0.1,0.5,0.4,0.8,0.8,1.1
		c-0.4,0.4-0.8,1-1.1,1.5c-0.1,0-0.2,0-0.4,0c-1.3,0.3-3.2,0.1-4.3-4c-0.2-0.6-0.8-1-1.4-0.8c-0.6,0.2-1,0.8-0.8,1.4
		c1.4,5.1,4.2,5.8,6.2,5.7c-0.1,1-0.2,2,0,3l-3.8,1.1c-0.6,0.2-1,0.8-0.8,1.4c0.2,0.6,0.8,1,1.4,0.8l3.9-1.1
		c0.4,0.9,0.9,1.7,1.5,2.3c-2.7,1.4-4.3,4.5-3.5,7.5c0.2,0.6,0.8,1,1.4,0.8c0,0,0,0,0.1,0c0.6-0.2,0.9-0.8,0.8-1.4
		c-0.6-2.2,0.8-4.6,3.1-5.2c0,0,0.1,0,0.1-0.1c1.3,0.8,2.8,1.1,4.2,0.8l-4-12.1l1.2-0.4l4,12.1c1.3-0.6,2.3-1.7,2.9-3.1
		c1.1-0.4,2.2-0.4,3.3,0c1.1,0.4,1.9,1.3,2.3,2.3c0.2,0.6,0.9,0.9,1.5,0.7c0,0,0,0,0.1,0c0.6-0.2,0.9-0.9,0.7-1.5
		C134.3,272.8,131.2,271.2,128.2,271.7z"/>
	<path id="signal" class="st20" d="M120.7,245c-12.7,0-23,10.3-23,23c0,12.7,10.3,23,23,23c12.7,0,23-10.3,23-23
		C143.8,255.3,133.5,245,120.7,245z M102,268.2c0-4.3,1.4-8.2,3.8-11.3l28.1,25c-3.4,3.2-7.9,5.2-13,5.2
		C110.5,287.1,102,278.6,102,268.2z M135.5,280.2l-28.2-25.1c3.4-3.6,8.2-5.8,13.6-5.8c10.4,0,18.9,8.5,18.9,18.9
		C139.8,272.7,138.2,276.9,135.5,280.2z"/>
</g>
</svg>
