<?xml version="1.0" encoding="UTF-8" standalone="no"?>
<svg
   xmlns:dc="http://purl.org/dc/elements/1.1/"
   xmlns:cc="http://creativecommons.org/ns#"
   xmlns:rdf="http://www.w3.org/1999/02/22-rdf-syntax-ns#"
   xmlns:svg="http://www.w3.org/2000/svg"
   xmlns="http://www.w3.org/2000/svg"
   xmlns:sodipodi="http://sodipodi.sourceforge.net/DTD/sodipodi-0.dtd"
   xmlns:inkscape="http://www.inkscape.org/namespaces/inkscape"
   version="1.1"
   x="0px"
   y="0px"
   width="310.73874"
   height="449.56067"
   viewBox="0 0 310.73874 449.56066"
   id="svg2"
   inkscape:version="0.48.4 r9939"
   sodipodi:docname="ninjenkins.svg">
  <metadata
     id="metadata160">
    <rdf:RDF>
      <cc:Work
         rdf:about="">
        <dc:format>image/svg+xml</dc:format>
        <dc:type
           rdf:resource="http://purl.org/dc/dcmitype/StillImage" />
      </cc:Work>
    </rdf:RDF>
  </metadata>
  <sodipodi:namedview
     pagecolor="#ffffff"
     bordercolor="#666666"
     borderopacity="1"
     objecttolerance="10"
     gridtolerance="10"
     guidetolerance="10"
     inkscape:pageopacity="0"
     inkscape:pageshadow="2"
     inkscape:window-width="1200"
     inkscape:window-height="1259"
     id="namedview158"
     showgrid="false"
     fit-margin-top="0"
     fit-margin-left="0"
     fit-margin-right="0"
     fit-margin-bottom="0"
     inkscape:zoom="0.28032165"
     inkscape:cx="197.87675"
     inkscape:cy="70.176"
     inkscape:window-x="10"
     inkscape:window-y="34"
     inkscape:window-maximized="0"
     inkscape:current-layer="svg2" />
  <g
     id="Layer 1"
     display="none"
     style="display:none"
     transform="translate(-99.761251,-41.560324)">
    <path
       d="m 379.744,497.824 -12.286,-3.6 -20.94,-78.919 8.408,-12.586 -1.33,-0.012 c -4.088,0.059 -8.005,1.358 -11.859,2.589 -1.026,2.711 -3.173,4.6 -5.417,6.304 l 0.067,0.272 c 3.631,16.494 0.002,33.39 -13.647,44.081 4.055,19.321 -9.979,23.194 -26.557,23.591 -4.704,-0.015 -2.352,-0.003 -7.055,-0.035 -5.308,0.035 -2.654,0.021 -7.961,0.042 l -5.196,-0.025 c -4.784,0.025 -2.392,0.018 -7.176,0.02 -12.988,0.067 -25.664,-3.161 -38.241,-6.025 -5.775,-14.196 -9.955,-28.963 -14.206,-43.666 -16.446,-0.343 -31.022,-8.548 -45.72,-14.954 -6.73,-2.934 -13.614,-3.966 -17.602,-10.691 -3.823,-8.851 -2.789,-18.71 -2.59,-28.092 -5.224,-4.85 -2.648,-2.387 -7.727,-7.39 l -0.102,-0.104 c -38.443,-40.47 -51.809,-97.761 -42.324,-151.935 -2.512,-2.398 -1.259,-1.196 -3.761,-3.605 -3.992,-13.768 3.048,-26.215 15.785,-31.775 9.337,-20.228 23.88,-37.335 40.2,-52.272 -0.473,-1.832 -0.866,-3.688 -1.486,-5.478 -10.826,-4.146 -18.025,-13.462 -24.838,-22.383 5.492,-6.972 10.283,-14.534 16.609,-20.813 25.048,-24.864 62.631,-33.394 96.092,-39.264 35.313,-6.194 75.173,-4.849 102.224,21.491 19.408,18.899 22.222,47.487 25.089,72.898 37.834,36.156 51.649,89.942 46.261,140.918 -1.218,11.526 -2.717,23.369 -6.758,34.301 -2.015,5.45 -4.903,10.513 -7.581,15.653 1,2.815 0.516,5.814 0.091,8.688 14.782,19.089 20.507,46.574 4.928,66.692 -1.902,2.366 -4.703,3.6 -7.392,4.838 l 5.439,8.288 -2.127,17.287 z"
       id="path5"
       inkscape:connector-curvature="0"
       style="fill:#dbd9d8" />
  </g>
  <g
     id="Layer 1 Copy"
     transform="translate(-99.761251,-41.560324)">
    <path
       d="m 405.34,252.259 c 0,84.807 -67.214,153.557 -150.127,153.557 -82.912,0 -150.126,-68.75 -150.126,-153.557 0,-84.809 67.214,-153.561 150.126,-153.561 82.913,0 150.127,68.752 150.127,153.561"
       id="path8"
       inkscape:connector-curvature="0"
       style="fill:#bb9e2e;stroke:#000000;stroke-width:1;stroke-opacity:0" />
    <path
       d="m 111.204,290.29 c 0,0 -10.868,-160.135 136.687,-164.711 l -10.294,-17.158 -80.068,26.881 -22.877,26.307 -20.016,38.32 -11.439,44.609 3.431,29.739"
       id="path10"
       inkscape:connector-curvature="0"
       style="fill:#ffe755;stroke:#000000;stroke-width:1;stroke-opacity:0" />
    <path
       d="m 152.389,147.504 c -26.34,26.951 -42.64,64.162 -42.64,105.328 l 0,0 c 0,41.157 16.3,78.373 42.64,105.319 l 0,0 c 26.353,26.946 62.671,43.573 102.822,43.573 l 0,0 c 40.152,0 76.472,-16.627 102.823,-43.573 l 0,0 c 26.338,-26.946 42.641,-64.162 42.641,-105.319 l 0,0 c 0,-41.166 -16.303,-78.377 -42.641,-105.328 l 0,0 c -26.351,-26.94 -62.671,-43.567 -102.823,-43.571 l 0,0 c -40.151,0.004 -76.469,16.631 -102.822,43.571 l 0,0 z m -6.668,217.165 C 117.728,336.041 100.422,296.475 100.422,252.832 l 0,0 c 0,-43.65 17.306,-83.212 45.299,-111.842 l 0,0 c 27.987,-28.636 66.728,-46.385 109.49,-46.38 l 0,0 c 42.761,-0.005 81.506,17.744 109.488,46.38 l 0,0 c 27.996,28.63 45.304,68.195 45.301,111.842 l 0,0 c 0.003,43.643 -17.305,83.209 -45.301,111.837 l 0,0 c -27.982,28.634 -66.727,46.382 -109.488,46.382 l 0,0 c -42.762,0 -81.503,-17.748 -109.49,-46.382 l 0,0"
       id="path12"
       inkscape:connector-curvature="0"
       style="fill:#231f20;stroke:#000000;stroke-width:1;stroke-opacity:0" />
    <path
       d="m 108.901,191.073 -5.548,13.134 12.048,11.116 14.5,-14.25 4.25,-10.75 -16.25,-2.25"
       id="path14"
       inkscape:connector-curvature="0"
       style="fill:#959595;stroke:#000000;stroke-width:1;stroke-opacity:0" />
    <path
       d="m 136.276,191.573 -6.5,12.5 -13.742,13.02 19.216,19.306 24.665,17.426 12.598,-12.263 3.263,-11.489"
       id="path16"
       inkscape:connector-curvature="0"
       style="fill:#404040;stroke:#000000;stroke-width:1;stroke-opacity:0" />
    <path
       d="m 145.776,245.073 -13,15.5 2.5,8.5 13.5,3.5 20.5,-12 26.176,-23.101 -13.497,-27.351 -9.177,10.4 5.643,10.639 -13.164,18.774 -10.048,0.684"
       id="path18"
       inkscape:connector-curvature="0"
       style="fill:#959595;stroke:#000000;stroke-width:1;stroke-opacity:0" />
    <path
       d="m 132.395,209.876 12.871,-3.265 -3.99,11.843 -12.871,3.265 z"
       id="path20"
       inkscape:connector-curvature="0"
       style="fill:#959595" />
    <path
       d="m 127.46,223.033 3.388,-14.828 15.212,-4.12 -3.236,16.04 z m 6.483,-11.486 -2.47,7.331 8.946,-0.532 1.78,-8.893 z"
       id="path22"
       inkscape:connector-curvature="0"
       style="fill:#231f20" />
    <path
       d="m 144.277,221.063 12.872,-3.265 -3.991,11.842 -12.871,3.265 z"
       id="path24"
       inkscape:connector-curvature="0"
       style="fill:#959595" />
    <path
       d="m 139.881,235.314 2.849,-15.922 14.824,-4.154 -1.812,15.017 z m 5.944,-12.581 -2.47,7.331 9.189,-2.746 1.462,-7.122 z"
       id="path26"
       inkscape:connector-curvature="0"
       style="fill:#231f20" />
    <path
       d="m 156.327,231.093 12.871,-3.265 -3.99,11.843 -12.871,3.265 z"
       id="path28"
       inkscape:connector-curvature="0"
       style="fill:#959595" />
    <path
       d="m 151.392,244.25 5.221,-14.318 13.379,-4.63 -4.014,15.891 z m 6.483,-11.486 -2.47,7.33 8.413,-2.767 2.313,-6.657 z"
       id="path30"
       inkscape:connector-curvature="0"
       style="fill:#231f20" />
    <g
       id="g32">
      <path
         d="m 150.229,275.79 -14.547,-3.067 c -7.943,-9.57 -7.783,-10.326 -7.463,-11.005 l 13.133,-16.538 -6.201,-5.094 -0.074,-0.062 -21.499,-18.499 -0.043,-0.038 c 0,0 -6.329,-4.947 -12.999,-11.499 -2.152,-10.434 0.684,-13.497 2.387,-18.059 6.231,-6.288 14.362,-7.611 14.362,-7.611 0.845,-0.403 1.795,-0.331 2.701,-0.264 l 14.998,3 c 1.466,0.527 0.767,0.192 2.096,1.004 l 21.499,18.499 0.088,0.078 11.261,10.047 10,-8.845 c 0,0 1.433,6.11 1.433,6.11 l -6.072,7.121 6.74,9.831 -2.323,8.365 c -8.374,7.867 -11.586,12.152 -18.212,15.857 -8.231,0.972 -11.659,-3.015 -16.557,-6.996 l -11.67,14.696 4.685,6.248 11.884,2.546 4.667,-2.667 -14.28,-3.808 c -0.504,-2.509 1.028,-2.328 2.352,-2.206 l 15.001,4 0.262,0.108 25.081,-14.331 c 4.84,1.877 4.336,2.312 3.862,2.708 z m 3.526,-29.411 6.12,1.611 c 0,0 8.743,-6.12 12.291,-11.444 2.67,-3.773 1.802,-6.486 1.802,-6.486 -12.326,-11.371 -24.769,-22.608 -37.433,-33.601 l -0.04,-0.033 -4.626,8.876 c -0.313,0.465 -0.141,0.244 -0.516,0.662 l -12.228,11.131 c 14.264,12.306 7.124,6.162 21.419,18.432 z M 115.076,213.52 c 3.465,-3.64 7.628,-6.099 11.204,-10.086 3.663,-4.498 3.793,-6.937 5.532,-10.477 -2.716,-1.102 -4.182,-2.97 -11.696,-2.14 -9.371,-0.426 -11.326,4.587 -11.326,4.587 0,0 -4.694,3.424 -1.155,11.53"
         id="path34"
         inkscape:connector-curvature="0"
         style="fill:#231f20" />
      <path
         d=""
         id="path36"
         inkscape:connector-curvature="0"
         style="fill:#000000;fill-opacity:0" />
    </g>
    <path
       d="m 386.358,319.944 c 5.748,5.402 5.748,14.162 0,19.565 -5.748,5.403 -15.067,5.403 -20.814,0 -5.748,-5.403 -5.748,-14.163 0,-19.565 5.747,-5.403 15.066,-5.403 20.814,0"
       id="path38"
       inkscape:connector-curvature="0"
       style="fill:#404040" />
    <path
       d="m 374.781,340.454 3.693,-1.31 c 6.609,-1.012 9.106,-3.722 9.106,-10.502 -1.038,-5.943 -3.773,-9.376 -9.485,-10.411 l -5.163,-0.181 c -6.609,1.013 -8.309,6.436 -8.309,13.216 0.7,4.922 3.513,7.108 7.924,8.783 z m -0.554,5.974 c -10.424,-1.815 -15.455,-9.222 -15.455,-20.012 1.955,-10.474 7.273,-13.685 17.667,-13.685 10.424,1.816 17.163,9.654 17.163,20.444 -1.565,9.104 -7.214,11.646 -16,13.253 z"
       id="path40"
       inkscape:connector-curvature="0"
       style="fill:#231f20" />
    <path
       d="m 379.202,325.393 c 1.79,1.666 1.464,5.061 -0.325,6.727 -1.79,1.666 -4.366,0.972 -6.156,-0.694 -1.789,-1.666 -0.971,-4.727 0.819,-6.393 1.789,-1.666 3.872,-1.306 5.662,0.36"
       id="path42"
       inkscape:connector-curvature="0"
       style="fill:#231f20" />
    <path
       d="m 234.808,260.633 c -17.893,-0.155 -31.126,-10.064 -39.954,-24.972 6.179,-3.758 5.271,-11.186 5.394,-17.452 0.073,-3.773 1.237,-7.399 1.331,-11.18 0.159,-6.327 -2.406,-12.782 -3.575,-18.951 l 0,-0.184 -5.028,0.001 c 0.416,-17.801 10.936,-33.141 13.715,-50.49 2.324,0.125 4.688,-0.225 6.867,-1.047 3.647,-1.375 7.076,-3.207 10.842,-4.267 10.347,-2.911 27.212,-1.63 39.183,-3.756 16.136,-2.865 31.905,-7.535 48.324,-8.694 14.749,-1.041 30.402,7.095 43.68,-2.534 6.627,34.149 4.858,71.647 -12.256,102.676 -6.759,12.254 -18.426,28.843 -18.426,28.843 0,0 8.504,3.495 -3.125,9.403 -7.186,7.175 -35.362,9.153 -41.853,8.103 -5.601,-0.454 -34.49,1.02 -42.152,-5.511 -7.663,-6.531 -2.967,0.012 -2.967,0.012 z"
       id="path44"
       inkscape:connector-curvature="0"
       style="fill:#f0d6b7;stroke:#000000;stroke-width:1;stroke-opacity:0" />
    <path
       d="m 220.609,421.253 -57.191,-19.447 c -2.772,-3 -3.817,-6.845 -4.495,-10.762 -3.406,-19.686 -1.345,-40.228 -5.057,-60.178 -3.13,-16.822 -10.396,-32.587 -16.184,-48.589 13.899,-7.751 24.793,-19.688 38.423,-27.857 6.731,-4.033 14.331,-6.544 21.628,-9.317 37.625,29.646 37.425,17.979 40.744,20.019 3.318,2.041 15.784,25.066 23.49,37.506 l 17.714,16.449 c 17.643,19.394 24.222,20.563 28.829,22.45 l -9.548,10.523 -81.785,3.431 0,13.726 6.863,48.041 z"
       id="path46"
       inkscape:connector-curvature="0"
       style="fill:#27416b;stroke:#000000;stroke-width:1;stroke-opacity:0" />
    <path
       d="m 225.472,258.654 c -5.885,-0.662 -11.668,-1.985 -17.444,-3.257 l -12.799,-19.996 c 3.447,-2.297 5.539,-6.071 5.333,-10.255 -0.065,-1.331 -0.802,-2.529 -0.736,-3.876 0.025,-0.515 0.514,-5.708 0.593,-6.137 0.16,-0.881 0.687,-1.656 0.959,-2.508 l 0.033,0.193 c 3.382,17.871 11.547,33.101 24.917,45.441 l 0.145,0.148 -0.079,0.191 z"
       id="path48"
       inkscape:connector-curvature="0"
       style="fill:#f7e4cd;stroke:#000000;stroke-width:1;stroke-opacity:0" />
    <path
       d="m 293.246,190.772 c 0.084,-1.317 0.259,-2.664 0.451,-3.98 0.528,-3.621 1.021,-7.997 3.263,-11.041 1.669,-2.267 4.671,-0.224 5.816,1.503 0.691,1.043 1.084,2.275 1.14,3.517 -2.608,1.768 -5.248,3.541 -7.588,5.665 -1.067,0.969 -2.9,2.45 -3.066,4.142 z"
       id="path50"
       inkscape:connector-curvature="0"
       style="fill:#f7e4cd;stroke:#000000;stroke-width:1;stroke-opacity:0" />
    <path
       d="m 210.314,260.544 -53.758,24.021 c 0,0 22.304,88.647 10.865,116.099 l -8.007,-2.859 -0.572,-33.744 -14.868,-64.053 -6.292,-17.73 56.047,-37.745 16.585,16.011"
       id="path52"
       inkscape:connector-curvature="0"
       style="fill:#4b69a8;stroke:#000000;stroke-width:1;stroke-opacity:0" />
    <path
       d="m 215.842,309.575 7.627,9.306 0,34.315 -9.151,0 c 0,0 -1.143,-24.02 -1.143,-26.881 0,-2.86 1.143,-13.154 1.143,-13.154"
       id="path54"
       inkscape:connector-curvature="0"
       style="fill:#4b69a8;stroke:#000000;stroke-width:1;stroke-opacity:0" />
    <path
       d="m 216.033,358.343 -25.736,1.143 7.436,5.147 18.3,2.86"
       id="path56"
       inkscape:connector-curvature="0"
       style="fill:#4b69a8;stroke:#000000;stroke-width:1;stroke-opacity:0" />
    <path
       d="m 304.11,352.623 21.16,-0.572 5.147,52.617 -21.733,2.859 -4.574,-54.904"
       id="path58"
       inkscape:connector-curvature="0"
       style="fill:#27416b;stroke:#000000;stroke-width:1;stroke-opacity:0" />
    <path
       d="m 281.982,351.171 c 0.447,-1.84 36.129,-36.182 36.829,-37.941 9.446,-23.731 8.789,-26.299 9.446,-30.01 l -3.256,-39.931 10.563,-6.763 c 11.064,9.698 31.899,16.798 30.884,31.454 -0.947,13.657 -5.075,20.458 -7.979,33.176 -0.857,3.754 -4.016,15.003 -5.236,18.667 -3.792,11.388 -6.885,19.959 -11.377,31.084 z"
       id="path60"
       inkscape:connector-curvature="0"
       style="fill:#27416b;stroke:#000000;stroke-width:1;stroke-opacity:0" />
    <path
       d="m 324.125,348.62 -20.015,4.003 2.858,16.015 c 7.434,3.431 20.018,-5.721 20.018,-5.721"
       id="path62"
       inkscape:connector-curvature="0"
       style="fill:#4b69a8;stroke:#000000;stroke-width:1;stroke-opacity:0" />
    <path
       d="m 364.732,278.275 -40.034,-29.739 10.866,-12.01 30.312,28.023 z"
       id="path64"
       inkscape:connector-curvature="0"
       style="fill:#4b6aa8;stroke:#000000;stroke-width:1;stroke-opacity:0" />
    <path
       d="m 235.881,465.296 -11.841,-48.048 -5.889,-35.452 -0.974,-26.315 53.591,-2.853 33.342,-0.005 -3.032,60.056 5.147,46.325 -0.571,8.579 -43.464,3.431 -26.309,-5.718"
       id="path66"
       inkscape:connector-curvature="0"
       style="fill:#ffffff;stroke:#000000;stroke-width:1;stroke-opacity:0" />
    <path
       d="m 296.674,352.051 c 0,0 -2.859,59.48 5.72,101.801 0,0 -17.158,10.867 -42.323,13.726 l 48.041,-1.716 5.719,-3.432 -6.863,-93.792 -1.716,-20.02"
       id="path68"
       inkscape:connector-curvature="0"
       style="fill:#dcd9d8;stroke:#000000;stroke-width:1;stroke-opacity:0" />
    <path
       d="m 331.392,400.097 22.304,-6.291 42.321,-2.287 6.291,-19.445 -11.438,-33.743 -13.153,-1.716 -18.302,5.719 -17.559,8.573 -9.322,-1.71 -7.264,2.854"
       id="path70"
       inkscape:connector-curvature="0"
       style="fill:#ffffff;stroke:#000000;stroke-width:1;stroke-opacity:0" />
    <path
       d="m 330.988,388.653 c 0,0 14.869,-6.861 17.158,-6.289 l -6.29,-31.457 7.434,-2.858 c 0,0 5.147,29.738 5.147,33.17 0,0 32.026,1.716 34.887,1.716 0,0 6.863,-13.155 5.147,-26.881 l 6.291,18.302 0.572,10.294 -9.15,13.726 -10.295,2.288 -17.157,-0.572 -5.719,-7.434 -20.017,2.858 -6.292,2.289"
       id="path72"
       inkscape:connector-curvature="0"
       style="fill:#dcd9d8;stroke:#000000;stroke-width:1;stroke-opacity:0" />
    <path
       d="m 343.988,222.155 c -12.062,-4.176 -20.546,-5.267 -30.172,-4.895 -2.356,-3.504 -0.499,-5.758 -0.104,-10.355 5.509,-3.736 17.012,1.104 26.488,5.566 1.652,1.6 3.932,4.619 5.503,6.299 z"
       id="path74"
       inkscape:connector-curvature="0"
       style="fill:#231f20;stroke:#000000;stroke-width:1;stroke-opacity:0" />
    <path
       d="m 266.626,215.516 c 20.723,-7.786 28.557,-7.487 43.123,-8.843 2.062,3.28 0.697,7.079 -0.871,10.681 -4.599,2.02 -23.46,0.835 -39.54,7.252 -6.659,2.799 -9.643,4.035 -15.753,3.517 -2.441,-4.916 1.398,-6.382 13.041,-12.607 z"
       id="path76"
       inkscape:connector-curvature="0"
       style="fill:#231f20;stroke:#000000;stroke-width:1;stroke-opacity:0" />
    <path
       d="m 378.976,351.434 c -8.852,1.772 -15.071,10.375 -23.706,9.823 4.745,-6.691 13.062,-9.511 23.706,-9.823"
       id="path78"
       inkscape:connector-curvature="0"
       style="fill:#231f20;stroke:#000000;stroke-width:1;stroke-opacity:0" />
    <path
       d="m 382.881,365.287 c -7.215,0.762 -15.689,1.93 -23.006,1.328 3.464,-5.291 16.81,-3.466 23.006,-1.328"
       id="path80"
       inkscape:connector-curvature="0"
       style="fill:#231f20;stroke:#000000;stroke-width:1;stroke-opacity:0" />
    <path
       d="m 385.381,377.23 c -8.109,0.175 -18.187,0.014 -25.894,-0.633 4.559,-4.896 20.635,-1.817 25.894,0.633"
       id="path82"
       inkscape:connector-curvature="0"
       style="fill:#231f20;stroke:#000000;stroke-width:1;stroke-opacity:0" />
    <path
       d="m 321.176,409.913 c 1.163,10.183 5.2,20.501 4.694,31.654 -4.483,1.512 -7.058,2.834 -13.065,2.826 -0.424,-9.478 -1.692,-23.967 -1.313,-33.003 2.955,0.196 7.311,-2.11 9.684,-1.477"
       id="path84"
       inkscape:connector-curvature="0"
       style="fill:#dcd9d8;stroke:#000000;stroke-width:1;stroke-opacity:0" />
    <path
       d="m 277.078,263.213 -0.197,-0.145 c 0.382,-0.372 0.165,-0.221 0.653,-0.45 l 0.115,-0.262 1.078,0.336 -1.366,0.304 z"
       id="path86"
       inkscape:connector-curvature="0"
       style="fill:#f0d6b7;stroke:#000000;stroke-width:1;stroke-opacity:0" />
    <path
       d="m 256.225,169.723 c -17.771,-1.446 -16.454,-3.003 -26.35,-5.214 -9.896,-2.211 -21.481,-8.078 -30.626,-11.613 1.372,-4.043 3.416,-0.047 5.211,-6.004 9.981,-1.713 19.952,-3.49 29.938,-5.173 4.779,-0.794 9.551,-1.626 14.335,-2.382 16.672,-2.633 20.825,-3.334 36.014,-5.056 22.897,-2.597 45.99,-3.142 68.978,-4.331 0.594,2.576 1.299,5.128 1.25,7.799 -0.247,13.521 -15.229,18.828 -25.848,20.102 l -10.902,-0.346 c -4.113,-7.389 -6.475,-11.249 -12,-17.157 -18.02,17.893 -18.979,19.361 -28.75,24.956 -9.711,3.615 -21.25,4.419 -21.25,4.419 z"
       id="path88"
       inkscape:connector-curvature="0"
       style="fill:#a1917c;stroke:#000000;stroke-width:1;stroke-opacity:0" />
    <path
       d="m 298.637,199.587 -3.369,-0.23 c -4.419,-4.162 -4.943,-11.03 -1.604,-15.982 1.722,2.892 0.893,7.334 3.798,9.57 2.219,1.709 5.967,1.397 8.443,1.092 8.623,-1.061 16.097,-6.05 23.99,-9.26 1.079,-1.856 1.967,-3.897 1.835,-6.098 -0.247,-4.146 -7.082,-10.345 -9.727,-13.611 -8.339,-10.291 -16.018,-20.787 -16.294,-34.541 0.909,-0.549 0.378,-0.324 1.633,-0.57 0.789,0.384 0.946,0.31 1.372,1.182 0.635,1.304 0.724,2.293 1.063,3.719 0.512,2.158 2.35,5.149 3.345,6.787 5.464,8.986 12.186,17.076 19.176,24.899 1.396,1.563 6.992,6.156 7.271,7.501 0.907,4.378 -2.592,7.924 -2.323,12.129 -10.46,7.242 -19.735,11.383 -32.258,13.255 z"
       id="path90"
       inkscape:connector-curvature="0"
       style="fill:#231f20;stroke:#000000;stroke-width:1;stroke-opacity:0" />
    <path
       d="m 236.491,263.94 c 0,0 34.096,4.341 51.75,2.212 18.639,1.357 33.417,-3.998 40.931,-11.703 1.292,-4.607 2.328,30.491 -1.796,42.125 -7.728,21.802 -26.396,41.725 -26.396,41.725 0,0 -39.578,-31.511 -48.36,-52.359 -5.945,-14.111 -16.129,-22 -16.129,-22 z"
       id="path92"
       inkscape:connector-curvature="0"
       style="fill:#dbd9d8;stroke:#000000;stroke-width:1;stroke-opacity:0" />
    <path
       d="m 270.557,464.818 c 13.416,1.106 26.685,-1.672 39.772,-4.234 -1.544,-9.862 -1.725,-10.032 -2.59,-22.438 -0.874,-12.532 -0.789,-25.109 -1.479,-37.649 -0.805,-14.646 -2.122,-29.255 -3.387,-43.866 -8.48,-1.857 -17.194,-2.082 -25.834,-2.447 l -7.437,0 c -17.353,0.382 -34.519,3.215 -51.642,5.822 2.478,33.808 11.489,66.655 20.221,99.268 7.443,2.413 15.218,3.52 22.924,4.734 z m 42.248,-20.425 1.702,0 c 3.926,-0.253 7.662,-1.592 11.363,-2.826 -0.195,-10.709 -2.545,-21.209 -4.694,-31.654 l -0.976,-0.11 c -5.803,1.068 -2.901,0.539 -8.708,1.587 -0.198,9.758 0.501,19.503 1.119,29.234 z m -2.954,-52.518 0.83,11.707 c 10.449,-1.764 5.229,-0.855 15.659,-2.726 -0.679,-15.229 -3.057,-30.31 -5.279,-45.371 l -3.111,0 c -3.098,0.089 -6.137,0.759 -9.163,1.374 l 0.039,11.696 z m 25.489,-2.358 0.497,5.046 c 3.504,-0.168 6.82,-1.42 10.097,-2.567 0.849,-12.94 -2.928,-25.445 -6.684,-37.657 l -2.209,-0.279 c -2.229,0.077 -4.455,0.194 -6.682,0.306 1.06,8.34 2.342,16.648 3.602,24.959 z m 35.839,8.225 c 10.856,0.392 23.05,-4.673 26.359,-15.912 1.619,-5.496 0.17,-11.236 -1.262,-16.603 -3.124,-11.71 -6.816,-19.581 -17.606,-25.716 -0.699,0.158 -1.334,0.273 -2.004,0.539 -2.819,1.123 -5.457,2.645 -8.193,3.948 -7.199,3.429 -14.544,6.599 -21.804,9.89 3.213,12.03 4.129,24.498 5.238,36.853 10.586,-1.284 21.247,-0.106 31.806,0.862 -6.457,1.169 -12.762,3.025 -19.067,4.816 1.367,0.657 2.889,0.85 4.372,1.075 z m -73.481,-66.454 0.972,0.996 3.375,-3.372 -4.869,-1.538 c -1.81,1.028 -1.076,0.662 -2.161,1.181 l 0.454,0.459 z m 6.565,-6.884 1.437,0.365 c 3.177,-3.764 1.647,-1.835 4.588,-5.787 l -7.618,4.876 z m -23.572,149.647 -5.271,-0.025 c -4.772,0.026 -2.386,0.02 -7.158,0.02 -11.718,0.087 -23.168,-2.752 -34.522,-5.319 -5.704,-14.54 -9.883,-29.611 -14.191,-44.606 l -3.507,0.24 c -16.294,-0.345 -30.59,-8.819 -45.159,-15.081 -4.698,-2.019 -11.285,-2.35 -13.775,-7.569 -3.712,-7.783 -1.429,-16.61 -1.946,-24.852 -0.98,-15.627 -2.337,-31.38 -6.394,-46.556 -2.35,-8.789 -5.471,-17.332 -8.93,-25.738 -3.487,-8.477 -11.381,-18.363 -6.269,-27.795 2.841,-5.243 9.473,-6.761 14.307,-9.443 11.496,-6.379 36.844,-19.043 43.19,-30.438 2.244,-0.182 4.036,-1.61 5.774,-2.904 6.991,14.875 25.772,25.083 42.017,24.909 0.573,0.924 0.206,0.329 1.098,1.787 l 1.184,0.215 c 5.369,1.065 10.52,2.787 15.952,3.753 9.098,1.616 18.658,1.224 27.849,1.174 8.98,-0.049 17.624,-0.042 26.334,-2.402 4.72,-1.37 8.611,-4.5 12.849,-6.858 -0.469,-3.678 -0.276,-2.255 -0.554,-4.273 -11.38,5.768 -22.896,10.623 -35.768,10.9 -31.621,-1.035 -51.054,-22.078 -63.428,-49.547 15.326,22.383 40.686,43.995 69.736,40.445 22.04,-2.693 38.583,-19.674 48.851,-38.196 16.025,-28.906 13.119,-64.834 8.724,-96.238 2.696,-0.979 4.403,-3.347 6.086,-5.534 2.908,15.188 4.36,30.554 3.938,46.015 -0.446,16.337 -4.561,32.787 -9.778,48.166 -2.75,8.107 -11.528,17.831 -11.093,24.225 0.561,8.245 24.277,20.318 29.186,28.563 6.204,10.42 -2.02,22.256 -5.534,32.089 -3.616,10.117 -6.892,20.348 -10.191,30.572 1.224,-3.486 2.408,-6.986 3.597,-10.484 l -1.196,3.529 -0.072,0.21 c -5.247,15.482 -2.455,7.241 -8.377,24.725 5.408,-2.447 10.755,-5.034 16.27,-7.236 7.213,-2.881 15.261,-4.912 22.714,-1.841 18.611,7.668 27.047,54.186 10.129,66.551 -6.061,4.43 -13.504,4.389 -20.725,4.514 -4.911,0.054 -9.768,-0.794 -14.602,-1.56 -1.566,-1.346 -2.631,-3.144 -3.716,-4.874 -1.758,-0.054 -3.517,-0.063 -5.275,-0.078 -5.529,0.08 -10.785,1.977 -15.971,3.7 -0.135,4.024 -3.817,6.15 -6.969,7.875 4.212,16.937 3.849,34.871 -12.81,43.928 -0.718,3.603 1.142,7.124 0.91,10.711 -0.683,10.574 -14.659,10.557 -22.521,10.624 -4.732,-0.015 -2.366,-0.003 -7.097,-0.035 l -1.679,0.014 z m -84.036,-304.643 0.017,-0.051 0.045,0.041 z m 98,151.745 1.513,0.585 c 5.722,-3.665 2.898,-1.777 8.472,-5.662 -3.296,-0.603 -6.378,-1.863 -9.306,-3.451 -4.567,2.986 -2.318,1.442 -6.746,4.633 2.35,1.695 1.165,0.862 3.556,2.5 z m -11.532,-7.885 0.486,0.353 c 2.243,-1.245 4.363,-2.681 6.497,-4.1 l -9.416,-5.59 -6.75,2.872 c 3.825,2.652 1.916,1.321 5.726,3.994 z m 23.169,-1.621 3.165,0.874 c 3.98,-3.151 2.013,-1.547 5.901,-4.813 l -7.773,-3.235 c -0.198,0.191 -0.565,0.561 -0.798,0.713 -2.184,1.428 -4.442,2.734 -6.615,4.186 l 1.693,0.739 z m -17.693,-8.324 5.916,3.222 c 4.63,-3.201 2.34,-1.566 6.872,-4.906 l -8.189,-4.861 -7.464,4.777 z m 23.059,-2.487 7.292,2.903 c 0.844,-1.842 1.618,-3.703 2.292,-5.613 l -4.688,-1.662 z m -43.935,1.758 0.816,0.648 c 2.172,-1.01 4.473,-1.676 6.699,-2.548 l -2.991,-1.776 c -0.02,-0.011 -0.04,-0.021 -0.061,-0.032 -0.096,-0.07 -0.193,-0.139 -0.29,-0.209 l -2.933,-2.315 -4.748,2.02 c 1.806,2.354 0.858,1.177 2.849,3.526 z m 37.903,-4.491 0.197,0.093 c 3.742,-3.034 1.891,-1.493 5.552,-4.623 l -7.122,-4.229 -2.525,1.961 -0.199,0.141 -3.771,2.413 c 4.617,2.556 2.297,1.3 6.961,3.768 z m -30.976,-4.161 5.756,4.214 c 5.148,-2.876 2.596,-1.401 7.657,-4.427 l -6.023,-3.576 -2.805,1.795 c -0.278,0.158 -0.137,0.084 -0.425,0.223 z m -16.003,-3.481 2.387,3.485 c 1.043,-0.571 2.212,-0.834 3.331,-1.215 l -5.01,-3.955 -1.415,0.603 z m 62.482,2.446 1.725,0.562 0.99,-3.516 -3.111,2.778 z M 216.9,414.621 l 3.731,0.654 c -2.852,-18.15 -4.767,-36.428 -6.766,-54.686 -2.373,-0.918 -4.948,-0.981 -7.457,-1.108 -3.431,0.216 -6.865,0.362 -10.299,0.52 l -2.206,-0.186 c 1.722,-3.843 5.583,-5.486 9.201,-7.081 -1.385,-2.977 -2.176,-6.178 -3.012,-9.34 7.481,4.251 3.738,2.131 11.23,6.36 2.331,-13.255 1.293,-26.768 2.958,-40.097 0.934,-0.132 0.466,-0.076 1.405,-0.167 5.795,8.484 -0.337,18.055 -0.163,27.14 0.1,5.197 1.253,10.183 2.385,15.23 21.495,-3.28 43.238,-4.356 64.928,-5.487 l 0.037,-0.028 c 7.55,-6.186 3.908,-3.029 10.938,-9.458 -8.157,-6.478 -16.53,-15.863 -22.237,-21.868 -5.706,-6.005 -12.859,-12.368 -20.199,-22.717 -8.958,-15.112 -10.568,-18.936 -12.689,-22.476 -15.008,-5.712 -31.53,-7.949 -43.723,-19.208 l -0.161,0.013 c -19.339,7.778 -36.118,20.436 -52.735,32.762 15.842,34.783 19.031,73.252 22.366,110.823 13.914,8.773 29.271,14.569 45.082,18.816 z m 71.205,-126.579 4.377,2.794 c 4.453,-2.966 2.252,-1.446 6.602,-4.56 l -5.699,-3.384 -6.621,4.237 z m -23.253,-1.605 5.084,3.931 0.48,-0.204 6.403,-3.279 -5.229,-3.944 -2.733,1.749 c -0.278,0.158 -0.136,0.084 -0.424,0.223 z m 46.917,1.766 3.568,1.887 c 1.875,-1.619 3.701,-3.293 5.533,-4.96 -2.323,-0.911 -4.398,-2.325 -6.506,-3.638 l -6.127,4.759 z m -32.244,-5.998 2.437,1.658 c 2.263,-1.289 4.38,-2.815 6.547,-4.256 l -5.32,-4.089 -6.822,4.366 z m -23.426,-2.613 4.052,3.21 c 2.375,-0.911 4.589,-2.134 6.814,-3.35 -1.631,-1.207 -3.209,-2.48 -4.795,-3.745 z m -5.44,-4.428 0.948,0.773 c 2.082,-1.329 4.187,-2.622 6.289,-3.919 -3.364,-3.671 -8.852,-3.833 -13.467,-4.493 l -0.341,-0.065 c 2.051,3.353 0.899,1.478 3.464,5.622 l 0.663,0.316 z m 19.825,0.396 1.287,0.945 c 4.572,-2.986 2.292,-1.484 6.842,-4.505 L 277,270.761 c -2.517,-0.1 -5.035,-0.158 -7.553,-0.222 -0.796,0.895 -1.763,1.555 -2.739,2.231 l 1.887,1.404 z m 31.829,7.163 0.8,0.548 c 2.134,-1.553 4.219,-3.171 6.311,-4.78 l -5.226,-3.174 -6.145,4.421 2.883,2.044 z m 19.375,-2.854 3.191,1.452 0.747,-0.687 c 0.318,-4.38 0.273,-2.187 0.134,-6.579 l -1.082,-0.573 -6.071,4.715 z m -33.723,-7.543 5.364,4.02 5.741,-4.144 -2.361,-1.435 -7.386,0.271 -0.611,0.711 z m 22.094,0.411 3.579,2.371 c 3.723,-2.992 1.876,-1.478 5.541,-4.542 l -0.786,0.096 c -1.755,-0.163 -3.078,-1.376 -4.321,-2.508 l -0.167,0.179 -5.037,3.624 z m 11.979,-6.61 1.444,0.909 1.659,-1.239 c -0.075,-1.099 -0.211,-2.191 -0.334,-3.285 -0.967,0.593 -1.904,1.232 -2.849,1.858 l 0.024,0.014 c -0.563,0.357 -0.109,0.072 -1.381,0.822 z m -23.15,81.167 15.096,-0.227 c 7.36,-4.811 16.512,-0.054 24.273,-3.68 6.39,-2.986 6.808,-11.729 8.742,-17.485 3.003,-8.936 6.222,-18.121 9.423,-26.988 3.284,-9.097 10.233,-20.367 5.601,-30.283 -2.166,-4.637 -6.948,-6.791 -10.55,-10.077 -8.761,-7.991 -8.62,-7.976 -17.142,-16.219 -3.059,3.135 -1.613,1.751 -4.293,4.199 l 0.107,-0.051 c 1.405,8.328 2.873,18.044 3.127,25.133 0.254,7.088 -1.221,19.075 -3.346,24.224 -1.019,3.915 -11.746,26.859 -15.796,32.174 -8.111,9.178 -13.481,14.273 -19.187,18.952 l 0.306,0.039 z"
       id="path94"
       inkscape:connector-curvature="0"
       style="fill:#231f20;stroke:#000000;stroke-width:1;stroke-opacity:0" />
    <path
       d="m 351.725,101.45 0.003,0.031 -21.253,-36.781 -38.25,-15 -38.5,-1.5 -46.75,10 -50.5,22.75 -16.75,15.75 -1.25,5 21.25,16.5 6.75,36.75 11,39.5 13,34.5 10,17.25 9,6 25.327,9.008 1.173,-12.008 -18.25,-23 -13.25,-18.5 -3.75,-34.25 0.5,-52.25 55,-16 57.25,-7.5 38.25,3.75 z"
       id="path96"
       inkscape:connector-curvature="0"
       style="fill:#27406b;stroke:#990000;stroke-width:1" />
    <path
       d="m 355.285,135.527 -50.976,9.804 -42.131,4.472 -35.703,1.208 -25.5,0.865 -0.011,-32.922 c 0,0 26.877,-10.801 37.912,-13.635 11.036,-3.865 36.599,-7.947 36.599,-7.947 0,0 17.211,-3.202 26.75,-4.326 9.539,-1.123 26,-0.576 26,-0.576 l 19.75,1.441 6.466,13.873 1.594,22.837 -0.75,4.906 z"
       id="path98"
       inkscape:connector-curvature="0"
       style="fill:#231f20;stroke:#000000;stroke-width:1;stroke-opacity:0" />
    <path
       d="m 272.975,108.2 c -1.17,6.344 1.61,20.822 4.082,29.418 4.942,5.223 23.455,2.171 23.455,2.171 0,0 24.422,-0.812 29.407,-8.346 2.484,-3.754 1.246,-6.936 0.806,-11.743 -0.47,-5.132 -2.5,-11.5 -2.5,-11.5 0,0 -0.016,-2.448 -3.348,-7.634 C 316.326,98.134 302.475,99.7 302.475,99.7 l -20.5,3.5 c 0,0 -4.437,0.413 -9,5 z"
       id="path100"
       inkscape:connector-curvature="0"
       style="fill:#959595;stroke:#000000;stroke-width:1;stroke-opacity:0" />
    <path
       d="m 224.826,127.257 c 2.112,1.762 3.215,5.584 1.104,7.347 -2.112,1.762 -7.145,3.293 -9.257,1.531 -2.112,-1.763 -3.257,-5.171 -1.146,-6.934 2.112,-1.762 6.944,-3.878 9.056,-2.115"
       id="path102"
       inkscape:connector-curvature="0"
       style="fill:#959595;stroke:#000000;stroke-width:1;stroke-opacity:0" />
    <path
       d="m 251.688,123.298 c 2.11,1.987 2.606,7.662 0.496,9.649 -2.111,1.988 -7.077,3.113 -9.188,1.125 -2.11,-1.987 -1.742,-7.3 0.368,-9.288 2.111,-1.987 5.963,-3.647 8.074,-1.66"
       id="path104"
       inkscape:connector-curvature="0"
       style="fill:#959595;stroke:#000000;stroke-width:1;stroke-opacity:0" />
    <path
       d="m 352.605,112.662 c 1.607,1.851 -0.348,4.722 -1.955,6.573 -1.607,1.852 -7.609,2.615 -9.215,0.764 -1.607,-1.851 -1.281,-8.135 0.326,-9.986 1.607,-1.851 7.827,-2.501 9.434,-0.65"
       id="path106"
       inkscape:connector-curvature="0"
       style="fill:#959595;stroke:#000000;stroke-width:1;stroke-opacity:0" />
    <path
       d="m 237.229,49.55 -48.5,15.5 -32,15.5 -16.5,16.5 9.5,11.5 10.5,7 10,61.5 22,58 10,15 -2,-16 -11.664,-29.211 -12.193,-43.209 -3.932,-33.619 8.459,-23.742 -10.416,5.035 -15.146,-14.092 16.277,-12.346 55.562,-21.16 47.053,-12.156"
       id="path108"
       inkscape:connector-curvature="0"
       style="fill:#4b69a8;stroke:#000000;stroke-width:1;stroke-opacity:0" />
    <path
       d="m 254.317,266.593 c -10.135,-1.865 -34.239,-5.851 -46.6,-9.111 -2.919,-0.77 -6.075,-5.115 -8.742,-6.532 -18.242,-30.292 -31.598,-65.411 -38.75,-98.75 -2.866,-15.95 -1.733,-22.707 -5.75,-33 -16.458,-7.307 -16.688,-11.03 -22.5,-18.5 3.25,-4.583 7.933,-11.126 15.031,-18.373 17.941,-13.624 26.621,-17.463 45.683,-24.845 10.567,-4.091 22.624,-7.829 33.786,-9.782 39.769,-6.96 61.316,-10.411 96.25,7.5 8.043,4.124 15.062,10.53 20.5,17.75 16.536,21.954 13.761,32.718 16.25,59 l -5.463,0.517 c 0,0 -5.866,-34.71 -5.866,-34.71 0,0 -7.248,-17.06 -12.171,-22.557 -12.89,-14.394 -36.864,-21.863 -52.5,-25.25 -10.885,-0.727 -35.693,-1.556 -80.25,13.25 -32.644,10.848 -57.904,30.864 -60.174,35.876 7.044,5.408 5.589,6.544 19.424,16.374 3.744,11.612 3.648,23.936 6.25,35.75 6.152,27.929 15.572,65.497 31,90 2.076,3.297 2.931,4.793 7.75,8.75 5.59,2.926 20.012,7.342 24.146,8.282 4.134,0.94 -0.435,-7.741 -0.435,-7.741 -7.118,-8.855 -23.823,-25.56 -32.461,-48.791 -4.286,-19.082 -2.032,-68.474 -2.032,-79.631 l 5.275,-3.452 c -0.872,31.448 1.198,73.72 5.507,87.583 3.493,9.231 25.15,35.02 26.25,36.5 z"
       id="path110"
       inkscape:connector-curvature="0"
       style="fill:#231f20;stroke:#231f20;stroke-width:1" />
    <path
       d="m 356.697,414.85 16.732,-20.046 18.621,24.138 -14.867,58.075 -5.392,6.601 z"
       id="path112"
       inkscape:connector-curvature="0"
       style="fill:#404040" />
    <path
       d="m 371.068,489.718 -19.639,-74.013 16.32,-24.428 12.068,0.406 15.682,23.893 -1.854,15.059 -17.789,60.486 -4.788,-1.403 z M 360,413.825 l 5.617,35.595 8.694,28.351 13.966,-58.505 -8.757,-16.103 -7.257,-3.763 z"
       id="path114"
       inkscape:connector-curvature="0"
       style="fill:#231f20" />
    <path
       d="m 363.104,414.9 8.52,-0.183 6.596,0.497 5.908,3.191 -6.004,2.14 -4.02,42.855 -4,-43.75 -7,-4.75 z"
       id="path116"
       inkscape:connector-curvature="0"
       style="fill:#959595;stroke:#000000;stroke-width:1;stroke-opacity:0" />
    <path
       d="m 331.33,291.093 c -8.852,0.028 -17.549,-1.688 -26.148,-3.603 0.179,-2.836 0.1,-5.668 0.329,-8.502 2.714,-1.572 5.913,-1.654 8.96,-1.878 -1.886,-0.999 -4.04,-1.217 -6.123,-1.48 -2.567,0.102 -1.29,-0.017 -3.83,0.356 -0.099,-1.86 -0.924,-3.564 -1.649,-5.247 6.212,-2.683 16.5,-13.226 24.013,-11.127 3.303,0.923 4.363,4.422 5.026,7.433 1.72,7.82 2.121,15.235 0.072,23.028 z"
       id="path118"
       inkscape:connector-curvature="0"
       style="fill:#d33833;stroke:#000000;stroke-width:1;stroke-opacity:0" />
    <path
       d="m 331.33,291.093 c -8.852,0.028 -17.549,-1.688 -26.148,-3.603 0.179,-2.836 0.1,-5.668 0.329,-8.502 2.714,-1.572 5.913,-1.654 8.96,-1.878 -1.886,-0.999 -4.04,-1.217 -6.123,-1.48 -2.567,0.102 -1.29,-0.017 -3.83,0.356 -0.099,-1.86 -0.924,-3.564 -1.649,-5.247 6.212,-2.683 16.5,-13.226 24.013,-11.127 3.303,0.923 4.363,4.422 5.026,7.433 1.72,7.82 2.121,15.235 0.072,23.028 z"
       id="path120"
       inkscape:connector-curvature="0"
       style="fill:#000000;fill-opacity:0;stroke:#d33833;stroke-width:2" />
    <path
       d="m 251.778,308.063 c -3.671,-1.478 -4.863,-8.358 -5.932,-12.035 -2.182,-7.501 -3.63,-14.937 -3.319,-22.785 0.167,-4.213 1.528,-10.638 6.642,-11.351 3.393,-0.473 6.744,0.929 9.867,2.059 4.133,1.496 8.194,3.166 12.13,5.129 4.527,2.258 8.894,4.682 13.758,6.149 -0.07,1.839 -0.041,1.1 -0.086,2.215 -3.59,1.654 -7.449,2.593 -11.246,3.639 4.232,-0.011 8.205,1.586 12.099,3.06 -0.162,4.137 -0.09,2.288 -0.216,5.547 -8.874,8.858 -20.094,14.329 -31.851,18.231 z"
       id="path122"
       inkscape:connector-curvature="0"
       style="fill:#d33833;stroke:#000000;stroke-width:1;stroke-opacity:0" />
    <path
       d="m 251.778,308.063 c -3.671,-1.478 -4.863,-8.358 -5.932,-12.035 -2.182,-7.501 -3.63,-14.937 -3.319,-22.785 0.167,-4.213 1.528,-10.638 6.642,-11.351 3.393,-0.473 6.744,0.929 9.867,2.059 4.133,1.496 8.194,3.166 12.13,5.129 4.527,2.258 8.894,4.682 13.758,6.149 -0.07,1.839 -0.041,1.1 -0.086,2.215 -3.59,1.654 -7.449,2.593 -11.246,3.639 4.232,-0.011 8.205,1.586 12.099,3.06 -0.162,4.137 -0.09,2.288 -0.216,5.547 -8.874,8.858 -20.094,14.329 -31.851,18.231 z"
       id="path124"
       inkscape:connector-curvature="0"
       style="fill:#000000;fill-opacity:0;stroke:#d33833;stroke-width:2" />
    <path
       d="m 293.91,286.342 c -1.193,-0.016 -3.975,0.141 -5.12,-0.162 -0.916,-3.417 -0.964,-10.058 -1.007,-13.587 1.239,-0.743 5.604,-1.242 7.204,-1.629 7.024,-1.699 6.887,9.771 2.823,13.895 -0.558,0.566 -1.341,0.858 -2.048,1.177 z"
       id="path126"
       inkscape:connector-curvature="0"
       style="fill:#d33833;stroke:#000000;stroke-width:1;stroke-opacity:0" />
    <path
       d="m 293.91,286.342 c -1.193,-0.016 -2.324,-0.234 -3.47,-0.537 -0.916,-3.417 -1.405,-6.888 -1.448,-10.418 1.239,-0.743 1.922,-1.23 3.523,-1.618 7.023,-1.699 9.359,6.966 5.295,11.09 -0.558,0.566 -1.341,0.858 -2.048,1.177 z"
       id="path128"
       inkscape:connector-curvature="0"
       style="fill:#000000;fill-opacity:0;stroke:#d33833;stroke-width:2" />
    <path
       d="m 309.085,289.719 -8.007,-2.86 0,-12.582 1.144,-6.292 21.734,-12.581 6.863,2.287 3.431,10.294 c -0.977,-1.493 -2.746,-1.642 -4.367,-1.837 -4.279,0.275 -12.824,-0.664 -13.935,5.269 -0.475,2.535 1.251,6.37 -0.895,8.452 -2.114,2.05 -5.524,1.452 -7.883,3.234 -0.626,2.412 0.674,4.558 1.871,6.551 z"
       id="path130"
       inkscape:connector-curvature="0"
       style="fill:#ef3d3a;stroke:#000000;stroke-width:1;stroke-opacity:0" />
    <path
       d="m 249.035,308.592 c -0.009,-2.606 0.128,-2.905 -0.827,-5.971 -1.011,-3.242 -2.893,-6.102 -4.429,-9.096 -1.967,-3.833 -3.598,-7.811 -4.756,-11.964 -3.422,-12.268 2.626,-24.577 16.464,-22.61 5.848,0.832 11.166,3.265 16.355,6.005 2.897,1.529 5.978,3.649 9.122,4.792 4.293,1.561 8.755,2.157 13.251,2.813 0.463,7.637 -6.821,10.568 -12.928,12.694 -3.369,-0.314 -6.097,-2.415 -8.748,-4.328 3.317,-10.273 -8.4,-10.203 -15.352,-10.229 -2.122,0.005 -0.928,0 -3.579,0.019 l -0.834,-0.004 c -7.511,2.889 -6.015,11.434 -5.158,17.875 0.868,6.525 1.958,12.979 3.461,19.389 z"
       id="path132"
       inkscape:connector-curvature="0"
       style="fill:#ef3d3a;stroke:#000000;stroke-width:1;stroke-opacity:0" />
    <path
       d="m 251.948,314.122 c -4.844,-3.164 -8.691,-8.566 -10.884,-14.776 -2.041,-5.778 -2.464,-13.97 -3.729,-19.93 -0.502,-5.565 0.042,-10.931 0.605,-16.277 l 0.068,-0.102 c 1.655,-3.505 0.811,-1.76 2.533,-5.233 l 0.027,-0.059 c 1.368,-1.531 2.847,-2.99 4.59,-3.324 11.328,-2.176 18.489,0.491 32.186,8.106 5.894,3.846 12.458,6.011 19.311,5.121 4.991,-1.176 1.575,-0.859 2.26,-1.392 3.474,-2.7 6.395,-6.088 10.302,-8.21 5.308,-2.883 9.67,-5.008 15.368,-6.942 4.233,-0.58 4.884,0.239 7.185,1.498 2.652,2.242 6.444,3.236 7.522,16.953 1.017,4.988 0.271,12.913 -3.09,21.672 -1.712,3.413 -3.709,3.479 -7.94,3.267 -4.231,-0.212 -12.344,-0.986 -15.29,-2.061 -2.946,-1.074 -8.642,-2.467 -12.709,-3.17 -3.005,0.548 -5.878,1.619 -8.746,2.639 -0.824,-0.121 -1.632,-0.307 -2.444,-0.486 -1.258,1.465 -0.54,0.632 -2.156,2.497 -3.354,1.477 -4.504,3.509 -6.151,4.621 -3.136,2.116 -5.235,3.441 -8.54,6.028 -3.306,2.586 -9.786,5.74 -15.549,8.642 z m 75.787,-24.177 c 0,0 1.253,0.477 3.595,0.148 3.457,-8.572 2.13,-13.897 1.559,-22.561 -0.341,-1.929 -1.668,-5.586 -3.56,-6.925 -1.839,-1.301 -3.316,-1.548 -5.462,-2.124 -7.593,2.521 -14.299,6.995 -20.998,11.256 0.807,1.657 1.213,3.467 1.649,5.247 3.361,-0.442 6.694,0.397 9.953,1.124 -3.077,0.067 -6.034,1.014 -8.96,1.878 -0.401,5.661 -0.291,2.827 -0.329,8.502 5.098,1.499 10.386,2.169 15.634,2.909 z m -37.295,-5.14 c 1.343,0.456 2.834,0.215 4.178,-0.118 1.512,-0.375 2.914,-1.137 3.926,-2.331 0.923,-1.09 0.855,-3.242 0.733,-4.408 -0.1,-0.959 -0.335,-1.907 -0.645,-2.82 -0.717,-2.111 -1.702,-2.504 -3.651,-2.664 -2.155,-0.022 -4.099,1.011 -5.989,1.923 0.149,4.389 -0.046,1.766 0.905,7.84 z m -40.169,21.967 c 2.73,1.125 7.618,-1.224 7.618,-1.224 13.376,-2.017 16.981,-9.027 27.586,-16.859 0.161,-4.16 0.089,-2.311 0.216,-5.547 -3.791,-1.809 -7.995,-2.39 -12.099,-3.059 3.757,-1.186 7.501,-2.415 11.246,-3.639 0.073,-1.846 0.045,-1.107 0.086,-2.215 -1.537,-0.169 -3.13,-0.317 -4.531,-1.025 -3.112,-1.574 -5.902,-3.728 -9.124,-5.089 -6.861,-2.898 -14.018,-5.001 -21.131,-7.172 -10.013,4.435 -9.418,16.574 -6.592,28.043 1.494,3.866 4.49,14.227 6.725,17.786 z"
       id="path134"
       inkscape:connector-curvature="0"
       style="fill:#231f20;stroke:#000000;stroke-width:1;stroke-opacity:0" />
    <g
       id="g136">
      <path
         d="m 297.493,127.472 c 0.754,-9.045 6.259,-7.376 8.425,-7.9 4.989,-1.208 7.424,-3.109 8.003,-7.921 0.545,-4.522 -2.232,-1.762 -2.306,-6.097 6.654,3.219 7.839,4.662 9.373,12.414 0.095,0.994 0,1.996 0,2.994 -0.92,6.32 -4.836,11.615 -11.101,13.479 -0.96,0.286 -1.901,1.097 -5.868,0.291 -4.29,-2.764 -5.031,-3.337 -6.526,-7.26 z"
         id="path138"
         inkscape:connector-curvature="0"
         style="fill:#31538d;stroke:#000000;stroke-width:1;stroke-opacity:0" />
      <path
         d="m 304.129,134.676 c -7.354,-1.091 -13.276,-6.396 -14.012,-14.043 -0.096,-0.994 0,-1.997 0,-2.995 3.423,-12.271 8.326,-12.192 14.887,-13.537 3.707,0.088 5.981,1.407 7.074,2.8 1.093,1.394 2.693,4.557 1.071,7.552 -1.622,2.996 -5.533,3.151 -8.045,4.871 -4.14,1.433 -7.58,2.15 -7.738,7.239 -0.037,2.504 3.1,6.609 6.885,6.846 z"
         id="path140"
         inkscape:connector-curvature="0"
         style="fill:#d03133;stroke:#000000;stroke-width:1;stroke-opacity:0" />
      <path
         d="m 308.341,111.357 c 0.141,1.278 -0.629,1.209 -0.629,1.209 0,0 -2.077,0.761 -2.798,0.114 -0.721,-0.648 -0.534,-1.811 0.187,-2.459 0.721,-0.647 2.456,0.178 2.456,0.178"
         id="path142"
         inkscape:connector-curvature="0"
         style="fill:#ffffff;stroke:#000000;stroke-width:1;stroke-opacity:0" />
      <path
         d="m 308.41,126.563 c 0.721,0.648 1.035,1.745 0.314,2.392 -0.721,0.648 -2.203,0.601 -2.924,-0.047 -0.721,-0.647 -0.983,-1.839 -0.262,-2.486 0.721,-0.648 2.151,-0.506 2.872,0.141"
         id="path144"
         inkscape:connector-curvature="0"
         style="fill:#ffffff;stroke:#000000;stroke-width:1;stroke-opacity:0" />
      <path
         d="m 300.694,136.289 c -4.926,-0.804 -9.407,-3.157 -11.561,-7.853 -1.444,-3.146 -1.71,-6.624 -1.887,-10.024 -0.866,-16.691 18.753,-20.871 30.059,-12.261 5.184,3.949 6.32,10.471 5.144,16.521 -0.553,2.85 -1.064,5.971 -2.883,8.361 -1.954,2.568 -4.952,3.677 -7.915,4.615 z m 2.56,-3.922 4.888,0 c 6.38,-2.014 10.249,-6.236 10.249,-12.993 0,-2.901 -0.762,-5.604 -2.33,-8.109 -0.554,-0.887 -1.375,-1.576 -2.062,-2.364 l -0.053,-0.03 c 1.387,4.031 -0.787,8.968 -4.975,10.335 -2.663,0.87 -6.514,1.253 -8.863,2.942 -2.657,1.91 -3.208,7.051 0.077,9.234 z m -6.889,-3.57 0.951,0.65 c -0.279,-1.014 -0.66,-3.458 -0.687,-4.509 -0.207,-7.981 8.755,-5.706 13.327,-8.651 2.13,-1.373 3.828,-4.314 2.669,-6.642 -0.382,-0.767 -0.569,-1.466 -1.089,-2.148 -0.606,-0.795 -1.806,-0.859 -2.735,-1.227 -4.691,0.406 -11.414,0.29 -14.581,4.85 -2.162,3.113 -1.797,6.219 -1.374,9.696 0.158,1.302 0.139,2.904 0.676,4.143 0.333,0.769 0.79,1.478 1.185,2.218 z"
         id="path146"
         inkscape:connector-curvature="0"
         style="fill:#231f20" />
    </g>
    <path
       d="m 341.741,108.71 c 0,0 -1.02,24.418 -5.379,32.71 -7.244,2.954 -16.718,3.735 -16.718,3.735 0,0 11.616,1.836 16.094,6.722 5.719,6.726 4.344,22.119 4.344,22.119 0,0 -0.393,-15.907 4.795,-21.393 5.697,-6.024 14.75,-7.254 14.75,-7.254 0,0 -7.404,-0.08 -13.601,-4.569 -3.432,-8.094 -4.285,-32.07 -4.285,-32.07 z"
       id="path148"
       inkscape:connector-curvature="0"
       style="fill:#ffe755" />
    <path
       d="m 340.032,157.963 c 0.126,1.161 -0.291,13.914 -0.291,13.914 1.024,-4.784 1.439,-11.329 4.115,-23.74 4.862,-0.493 7.261,-2.67 15.139,-2.531 -2.829,-0.464 -11.881,-1.28 -14.207,-2.965 -2.009,-4.968 -2.789,-19.176 -3.407,-24.459 -0.851,5.303 -2.678,19.08 -4.365,24.667 -3.153,2.052 -7.781,1.734 -11.261,2.354 9.619,2.615 12.747,5.637 12.747,5.637 0,0 1.404,5.963 1.53,7.123 z m -0.103,19.821 c -2.585,-6.626 -0.595,-19.864 -5.296,-24.894 -3.653,-3.907 -9.93,-5.955 -15.548,-7.989 7.386,-3.139 11.777,-2.156 16.179,-4.672 l 6.617,-33.179 c 1.068,10.523 1.579,23.537 5.35,33.617 l 17.146,4.859 c -6.179,0.981 -14.16,2.858 -18.465,7.908 -1.438,1.687 -2.29,7.197 -2.752,9.297 z"
       id="path150"
       inkscape:connector-curvature="0"
       style="fill:#6f5f00" />
    <path
       d="m 264.568,113.248 c 0,0 -0.13,28.898 -9.938,37.85 -9.88,6.998 -22.175,4.849 -22.175,4.849 0,0 17.575,4.163 23.165,7.455 4.212,12.08 5.952,44.89 5.952,44.89 0,0 -0.054,-42.919 7.585,-46.972 7.638,-4.053 20.075,-5.286 20.075,-5.286 0,0 -15.42,0.728 -21.506,-6.829 -5.001,-11.742 -3.158,-35.957 -3.158,-35.957 z"
       id="path152"
       inkscape:connector-curvature="0"
       style="fill:#ffe755" />
    <path
       d="m 260.158,183.253 0.781,10.948 c 1.047,-6.845 2.025,-25.924 5.536,-33.591 2.197,-2.018 11.568,-3.841 14.555,-4.597 -12.836,-2.987 -11.77,-2.298 -16.274,-6.354 l -0.451,-23.556 c 0,0 -2.064,10.102 -3.821,17.723 -1.756,7.621 1.147,4.595 -4.843,8.38 -8.802,1.714 -9.752,3.477 -14.764,4.12 4.433,1.592 12.028,3.082 15.951,5.694 2.986,2.919 1.432,9.144 2.605,12.936 z m -3.571,-7.278 c -0.699,-2.85 -0.139,-8.768 -2.525,-10.948 -4.041,-3.691 -18.541,-7.044 -24.053,-8.601 6.622,-2.057 15.792,-4.08 24.808,-7.699 3.161,-8.231 6.091,-14.881 7.973,-29.263 l 0.012,-0.189 2.162,-7.548 c 2.072,8.65 0.121,28.782 3.573,37.901 l 21.545,7.045 c -4.3,0.585 -18.052,3.452 -20.687,6.303 -3.421,3.703 -3.875,10.57 -4.515,15.265 -1.356,9.94 -1.423,14.262 -3.604,30.609"
       id="path154"
       inkscape:connector-curvature="0"
       style="fill:#6f5f00" />
  </g>
  <defs
     id="defs156" />
</svg>
