<?xml version="1.0" standalone="no"?>
<!DOCTYPE svg PUBLIC "-//W3C//DTD SVG 20010904//EN"
 "http://www.w3.org/TR/2001/REC-SVG-20010904/DTD/svg10.dtd">
<svg version="1.0" xmlns="http://www.w3.org/2000/svg"
 width="1248.000000pt" height="1248.000000pt" viewBox="0 0 1248.000000 1248.000000"
 preserveAspectRatio="xMidYMid meet">
<metadata>
Created by potrace 1.11, written by Peter Selinger 2001-2013
</metadata>
<g transform="translate(0.000000,1248.000000) scale(0.100000,-0.100000)"
fill="#000000" stroke="none">
<path d="M6355 12459 c-386 -35 -733 -130 -1160 -316 -97 -42 -699 -378 -799
-446 -291 -195 -450 -382 -536 -623 l-36 -104 -60 -36 c-228 -136 -354 -409
-390 -843 -7 -82 -8 -84 -47 -120 -499 -444 -845 -893 -1122 -1456 -300 -609
-452 -1224 -481 -1940 -8 -203 7 -473 41 -743 103 -814 432 -1605 937 -2250
141 -180 263 -315 443 -490 l165 -160 10 -125 c6 -69 15 -237 20 -373 5 -137
14 -266 20 -287 25 -85 106 -141 315 -217 50 -18 191 -83 315 -144 355 -176
507 -239 693 -287 126 -32 283 -51 402 -47 l110 3 48 -165 c162 -556 255 -849
327 -1034 46 -118 16 -98 240 -156 298 -77 793 -113 1230 -91 238 12 505 34
630 52 150 22 290 95 354 186 32 46 31 39 21 239 l-8 142 74 12 c41 7 108 23
149 36 151 48 226 112 250 216 17 70 7 216 -25 353 -65 277 -86 392 -88 490
-1 55 1 116 6 136 7 33 12 38 52 49 101 28 155 87 155 169 0 35 4 43 32 57
112 58 295 94 480 94 l116 0 25 -43 c45 -75 77 -98 161 -113 300 -52 622 -38
821 37 121 45 236 198 304 405 51 158 65 245 66 409 0 144 -2 156 -37 280 -69
239 -177 542 -234 656 -37 75 -99 144 -168 190 l-65 42 30 51 c45 77 156 298
201 401 422 964 509 2034 248 3060 -203 798 -608 1514 -1196 2115 l-93 95 -16
175 c-51 561 -190 1013 -400 1305 -194 270 -569 643 -801 798 -249 165 -606
287 -984 337 -187 25 -575 35 -745 19z m486 -269 c347 -35 688 -132 1004 -285
72 -35 164 -86 206 -114 95 -63 255 -214 361 -340 100 -120 291 -371 286 -376
-2 -2 -21 0 -43 5 -62 15 -183 12 -244 -6 -77 -21 -145 -73 -174 -131 -28 -55
-41 -115 -32 -143 6 -18 11 -17 73 18 60 33 75 37 158 40 133 6 252 -34 379
-128 162 -120 243 -284 279 -570 44 -342 56 -1012 23 -1280 -61 -501 -164
-885 -337 -1256 -127 -273 -437 -734 -557 -830 -192 -153 -501 -309 -763 -384
-152 -44 -266 -60 -430 -60 -200 0 -322 29 -543 126 -375 165 -643 409 -1032
939 l-118 160 6 -55 c9 -74 47 -184 93 -266 80 -144 267 -367 485 -580 139
-135 201 -184 315 -250 l79 -45 -60 8 c-33 4 -109 8 -170 7 -137 -1 -205 -23
-262 -88 l-38 -42 -115 8 c-379 26 -645 103 -804 234 -192 158 -471 771 -536
1179 -17 104 -10 122 80 221 92 101 110 141 91 204 -12 40 -13 41 -49 34 -50
-9 -83 -27 -168 -91 -82 -61 -114 -73 -201 -73 -216 0 -428 190 -550 494 -47
119 -64 189 -70 303 -7 128 7 204 57 308 65 135 169 232 305 285 50 20 79 24
175 24 101 1 121 -2 162 -22 120 -59 212 -213 259 -436 l13 -59 115 6 c133 5
210 29 256 77 27 28 28 32 22 102 -4 40 -22 136 -42 213 -98 387 -98 445 0
905 55 257 65 333 65 475 0 123 -16 229 -49 314 l-20 55 41 74 c147 266 442
535 868 789 119 71 322 179 404 214 193 82 475 116 747 89z m-1403 -236 c45
-31 16 -79 -65 -110 -26 -10 -57 -27 -69 -38 -11 -12 -73 -61 -138 -110 -138
-105 -159 -129 -266 -306 -95 -156 -137 -211 -191 -247 -37 -25 -40 -25 -161
-18 l-124 7 -119 -41 c-147 -51 -252 -81 -259 -74 -19 19 122 219 231 329 241
242 626 469 1013 595 99 33 118 34 148 13z m-783 -1064 c17 -48 19 -82 19
-275 0 -196 -3 -238 -27 -380 -75 -434 -75 -610 -2 -861 54 -182 45 -255 -32
-270 -33 -6 -33 -6 -33 33 0 217 -205 435 -460 489 -140 30 -322 3 -417 -62
-28 -19 -39 -22 -44 -12 -4 7 -12 103 -19 213 -18 314 6 507 85 674 64 135
258 306 449 395 131 62 341 117 426 113 33 -2 36 -5 55 -57z m-1255 -1310 c15
-90 8 -121 -46 -200 -162 -240 -164 -694 -4 -1083 125 -306 321 -503 583 -587
138 -45 131 -39 139 -105 21 -166 93 -360 183 -499 78 -119 95 -160 95 -232 0
-91 11 -83 -460 -354 -350 -202 -532 -313 -688 -417 -85 -57 -213 -134 -285
-171 -161 -81 -227 -140 -251 -222 -9 -30 -16 -71 -16 -93 0 -67 47 -255 101
-402 28 -77 61 -169 74 -205 54 -153 117 -325 170 -460 80 -205 120 -334 165
-538 35 -158 101 -571 100 -626 -1 -17 -14 -7 -67 49 -645 682 -1038 1527
-1170 2510 -22 165 -25 788 -5 960 120 1029 540 1917 1241 2628 63 64 119 117
122 117 4 0 12 -31 19 -70z m6106 -395 c322 -400 572 -863 735 -1360 123 -374
191 -742 211 -1142 36 -721 -82 -1369 -371 -2031 -45 -104 -161 -330 -223
-434 -40 -68 -41 -68 -85 -68 -131 0 -428 -94 -706 -224 -54 -25 -100 -46
-103 -46 -2 0 8 30 22 67 71 187 230 653 314 923 93 298 110 350 150 485 23
77 59 194 80 260 66 207 82 276 87 381 10 194 -13 222 -592 720 -141 122 -236
216 -269 267 -37 56 -16 116 120 353 104 179 177 381 267 734 90 351 143 706
169 1129 l12 204 39 -44 c21 -24 86 -102 143 -174z m-905 -2492 c30 -26 137
-128 239 -228 102 -100 239 -225 306 -278 176 -140 204 -182 203 -304 0 -43
-4 -86 -7 -96 -6 -15 -69 28 -392 268 -270 200 -395 299 -420 332 -42 56 -88
89 -144 104 -22 6 -51 19 -63 29 l-23 18 82 65 c46 36 99 81 117 101 19 20 38
36 42 36 4 0 31 -21 60 -47z m-4041 -260 c87 -92 233 -263 228 -268 -6 -6
-110 -53 -528 -240 -1022 -456 -904 -400 -896 -428 3 -12 33 -141 65 -287 254
-1132 375 -2099 331 -2635 -9 -108 -36 -294 -44 -302 -2 -2 -30 9 -63 24 l-60
28 -7 65 c-3 36 -6 99 -6 140 0 126 -29 490 -60 770 -92 824 -273 1548 -539
2159 -23 52 -41 96 -41 97 0 2 96 75 214 163 391 293 698 490 1000 643 201
102 316 149 336 138 8 -4 40 -34 70 -67z m3786 -199 c74 -35 122 -178 149
-444 20 -194 10 -330 -32 -417 l-15 -32 -112 5 c-193 9 -432 43 -606 85 l-35
8 0 114 c0 76 4 119 12 129 18 21 74 36 166 44 42 4 77 10 77 14 0 24 -151 52
-229 43 l-46 -5 -20 63 c-10 35 -21 69 -23 76 -2 6 6 14 17 18 11 3 95 56 188
116 231 152 329 197 426 198 27 1 64 -6 83 -15z m-3198 -14 c67 -32 155 -49
352 -65 102 -9 195 -18 208 -21 28 -6 29 -39 2 -136 -11 -40 -20 -83 -20 -95
0 -28 -11 -29 -115 -4 -238 57 -470 184 -491 267 -6 21 8 74 19 74 2 0 22 -9
45 -20z m2587 -3 c-16 -12 -91 -71 -165 -131 l-135 -108 -120 5 c-66 3 -147
13 -180 21 -116 31 -284 130 -260 155 7 7 24 5 55 -6 62 -21 211 -28 311 -14
46 7 149 27 229 46 164 39 234 52 270 54 l25 0 -30 -22z m-1472 -83 c204 -59
432 -156 564 -240 84 -54 150 -84 209 -96 50 -10 54 -13 54 -39 0 -36 -10 -41
-172 -84 -73 -20 -137 -40 -142 -45 -5 -5 12 -11 40 -15 73 -9 172 -33 237
-56 l57 -21 0 -79 c0 -76 -1 -78 -32 -101 -18 -12 -87 -68 -153 -123 -219
-184 -286 -228 -450 -294 -139 -56 -268 -91 -331 -91 -61 0 -72 10 -97 95 -9
28 -36 104 -62 170 -25 66 -60 167 -77 225 -29 100 -31 116 -35 322 -7 282 13
393 80 467 56 60 115 61 310 5z m1149 -304 c72 -20 116 -107 103 -207 -13
-102 -98 -158 -212 -138 l-39 6 -23 97 c-13 58 -21 119 -19 152 l3 55 55 22
c62 25 80 27 132 13z m187 -490 c24 -11 64 -35 90 -54 67 -49 145 -86 197 -93
l45 -6 -5 -86 c-4 -47 -11 -189 -16 -316 -11 -236 -33 -494 -51 -600 -18 -105
-62 -275 -71 -275 -12 0 -113 212 -242 507 -163 373 -272 580 -376 712 -22 28
-40 54 -40 58 0 4 19 30 41 56 l42 48 51 -6 c44 -5 64 0 146 34 109 46 129 48
189 21z m756 -147 c63 -22 131 -71 190 -136 l55 -60 -32 -56 c-74 -132 -308
-527 -385 -652 -90 -144 -292 -433 -298 -427 -3 2 3 26 11 53 18 58 56 242 78
370 29 173 76 676 76 816 l0 70 38 16 c80 33 182 36 267 6z m-1313 -210 c156
-217 354 -616 539 -1086 l19 -49 -32 7 c-73 16 -343 118 -538 202 -128 56
-497 239 -602 300 l-76 44 10 37 c16 61 84 183 137 248 67 80 183 177 343 285
73 49 135 89 138 89 4 0 32 -35 62 -77z m-1822 -354 l90 -110 0 -465 c0 -363
-3 -466 -12 -469 -7 -3 -47 -6 -88 -7 l-75 -3 -19 55 c-29 82 -34 432 -11 725
9 121 15 259 13 307 -1 47 0 84 5 81 4 -2 48 -54 97 -114z m4730 -726 c91 -32
178 -110 223 -200 50 -99 121 -347 187 -657 29 -133 32 -161 27 -265 -6 -145
-29 -223 -98 -326 -116 -173 -261 -229 -594 -230 -162 0 -256 12 -270 36 -10
15 114 52 305 90 235 48 238 48 218 60 -28 16 -190 39 -272 39 -44 0 -180 -7
-301 -15 -257 -17 -295 -18 -314 -6 -11 7 -22 80 -42 283 -34 335 -61 522 -96
675 l-27 116 42 38 c54 47 174 106 327 159 271 95 324 115 419 163 139 70 167
75 266 40z m-2716 -423 c193 -18 385 -52 391 -69 12 -39 35 -354 50 -666 14
-320 29 -545 40 -625 11 -82 26 -351 40 -735 17 -453 37 -726 65 -885 11 -57
17 -106 15 -108 -8 -9 -142 -44 -239 -63 -538 -107 -1118 -89 -1690 53 -198
49 -167 12 -255 305 -176 589 -294 1115 -395 1763 -48 306 -117 863 -108 872
9 9 230 47 475 83 279 40 654 75 957 89 117 5 542 -4 654 -14z m1444 11 c43
-27 139 -334 167 -534 15 -110 35 -390 35 -499 l0 -66 -107 -36 c-60 -19 -127
-38 -150 -42 l-41 -6 -6 43 c-24 198 -63 474 -86 619 -27 164 -70 475 -70 505
0 8 12 16 28 18 51 8 217 7 230 -2z m-508 -133 c12 -51 24 -116 27 -145 l6
-51 -52 -26 c-92 -47 -224 -86 -290 -86 l-61 0 0 179 c0 110 4 182 10 186 24
15 153 33 242 34 l96 1 22 -92z m-3725 -28 c4 -7 84 -8 239 -4 170 5 245 4
283 -5 58 -14 57 -12 68 -138 l7 -73 -28 5 c-16 3 -126 21 -245 40 l-217 34
-88 61 c-127 88 -128 90 -72 90 26 0 50 -5 53 -10z m3720 -1517 c3 -32 22
-132 41 -222 63 -293 75 -374 81 -513 l6 -136 -99 -32 c-98 -32 -267 -60 -280
-47 -11 11 -43 580 -44 780 l0 187 28 1 c15 0 59 9 97 19 39 10 91 18 116 19
l47 1 7 -57z"/>
<path d="M6135 10976 c-125 -39 -278 -146 -381 -268 -150 -176 -204 -415 -105
-468 16 -8 24 2 61 73 153 294 347 436 596 437 39 0 95 -5 125 -10 31 -6 57
-6 62 -1 16 16 20 90 7 121 -17 42 -82 96 -138 114 -54 19 -171 20 -227 2z"/>
<path d="M8704 10196 c-4 -10 -2 -61 4 -115 11 -97 49 -225 106 -360 15 -35
25 -69 22 -77 -8 -22 -103 -42 -247 -53 -161 -12 -189 -20 -189 -56 0 -31 25
-92 48 -119 46 -51 157 -70 274 -45 114 24 258 109 299 176 l20 32 -44 74
c-54 87 -114 207 -203 400 -72 156 -80 169 -90 143z"/>
<path d="M6717 10169 c-28 -105 44 -337 172 -555 28 -47 51 -89 51 -93 0 -4
-19 -18 -42 -31 -61 -34 -170 -38 -318 -12 -173 31 -189 31 -206 2 -7 -14 -13
-47 -14 -73 0 -42 5 -54 33 -81 65 -65 223 -103 392 -93 123 7 174 24 249 83
66 52 89 95 89 171 0 66 -30 117 -120 204 -82 79 -116 134 -197 321 -34 79
-67 151 -73 162 -9 17 -10 17 -16 -5z"/>
<path d="M7710 9951 c0 -302 177 -620 626 -1129 46 -51 92 -112 103 -135 31
-63 28 -140 -6 -207 l-28 -53 -205 -94 c-332 -154 -509 -202 -651 -175 -103
19 -127 52 -174 235 -9 37 -21 67 -25 67 -4 0 -18 -24 -31 -52 -19 -43 -24
-70 -24 -143 0 -82 3 -97 32 -156 53 -106 48 -104 242 -103 189 1 297 19 472
80 198 68 571 279 577 325 2 13 19 72 38 131 35 112 42 178 21 214 -7 11 -56
62 -109 113 -105 100 -307 333 -435 502 -177 233 -289 424 -324 550 -24 87
-32 99 -70 99 l-29 0 0 -69z"/>
<path d="M3855 9167 c-74 -34 -134 -115 -151 -203 l-7 -39 46 42 c51 47 87 61
121 45 l23 -10 -20 -59 c-32 -87 -31 -309 1 -410 12 -40 33 -85 47 -100 l24
-28 -6 95 c-6 114 10 292 33 349 21 54 57 81 104 81 56 0 85 -30 147 -154 56
-112 89 -160 104 -150 17 10 10 189 -10 253 -36 115 -126 222 -228 272 -59 28
-182 37 -228 16z"/>
<path d="M8710 8113 c-333 -176 -436 -219 -600 -251 -90 -17 -90 -17 -96 -51
-7 -33 1 -239 9 -247 2 -2 40 1 86 6 96 13 216 53 297 101 78 45 229 196 291
289 60 90 125 201 121 206 -2 1 -51 -22 -108 -53z"/>
<path d="M6710 7966 c0 -15 46 -84 84 -124 42 -45 137 -113 213 -151 78 -39
261 -94 383 -115 120 -21 433 -41 484 -32 l39 7 -7 97 c-4 53 -9 116 -12 140
l-6 42 -182 0 c-412 1 -737 43 -935 123 -38 16 -61 20 -61 13z"/>
<path d="M6571 7700 c-65 -15 -58 -51 24 -130 26 -25 85 -99 133 -165 151
-211 244 -286 412 -330 84 -22 373 -32 502 -16 127 15 283 55 328 85 33 21
100 107 100 127 0 4 -168 9 -372 12 -414 5 -520 17 -677 77 -163 63 -292 170
-355 294 -30 58 -34 60 -95 46z"/>
<path d="M7552 5057 c-31 -33 -30 -90 3 -122 53 -54 145 -16 145 60 0 76 -97
116 -148 62z"/>
<path d="M7665 4648 c-51 -29 -60 -89 -21 -134 51 -60 146 -21 146 58 0 69
-67 109 -125 76z"/>
<path d="M9690 3559 c-191 -22 -352 -88 -463 -189 -37 -34 -67 -66 -67 -71 0
-17 75 -9 145 16 38 13 132 63 210 109 77 47 169 98 205 115 36 16 61 29 55
29 -5 0 -44 -4 -85 -9z"/>
<path d="M9444 3215 c-72 -15 -111 -34 -139 -65 l-20 -23 190 6 c170 6 431 30
442 41 6 6 -130 34 -217 46 -101 13 -182 11 -256 -5z"/>
<path d="M9385 2894 c-33 -8 -71 -23 -84 -33 -23 -18 -23 -18 70 -24 194 -13
624 -19 614 -9 -34 33 -302 82 -443 81 -54 0 -124 -7 -157 -15z"/>
</g>
</svg>
