<?xml version="1.0" encoding="utf-8"?>
<!-- Generator: Adobe Illustrator 16.0.0, SVG Export Plug-In . SVG Version: 6.00 Build 0)  -->
<!DOCTYPE svg PUBLIC "-//W3C//DTD SVG 1.1//EN" "https://www.w3.org/Graphics/SVG/1.1/DTD/svg11.dt">
<svg version="1.1" id="Capa_1" xmlns="http://www.w3.org/2000/svg" xmlns:xlink="http://www.w3.org/1999/xlink" x="0px" y="0px"
	 width="841.89px" height="595.28px" viewBox="0 0 841.89 595.28" enable-background="new 0 0 841.89 595.28" xml:space="preserve">
<g>
	<path fill="none" d="M370.644,396.362c1.345,1.833,2.69,3.667,4.034,5.504c-0.576-1.307-1.545-2.401-2.376-3.528
		c-0.447-0.603-0.896-1.209-1.342-1.813L370.644,396.362z"/>
	<path fill="none" d="M356.86,370.887l-0.712,1.389c0.18,0.243,0.36,0.486,0.539,0.729l0.896-1.741
		c-0.003-0.003-0.006-0.005-0.01-0.008L356.86,370.887z"/>
	<path fill="none" d="M355.964,372.633c0.176,0.239,0.353,0.478,0.554,0.709l0.001-0.012c-0.113-0.252-0.289-0.545-0.488-0.824
		L355.964,372.633z"/>
	<path fill="none" d="M358.789,380.268c2.128,2.873,4.246,5.746,6.363,8.622l0.066-0.128c-2.069-2.792-4.138-5.586-6.209-8.379
		L358.789,380.268z"/>
	<path fill="none" d="M359.318,380.541c1.997,2.694,3.993,5.379,5.979,8.064l0.93-1.812c-1.074-1.453-2.162-2.909-3.241-4.367
		L359.318,380.541z"/>
	<path fill="none" d="M354.933,374.638c0.101,0.134,0.198,0.267,0.297,0.4c0.082,0.107,0.163,0.219,0.244,0.328l0.176-0.341
		l0.753-1.467c-0.178-0.24-0.36-0.482-0.54-0.725L354.933,374.638z"/>
	<path fill="none" d="M355.202,378.426c2.148,2.915,4.271,5.844,6.391,8.752c0.869,1.192,1.735,2.386,2.601,3.579l0.881-1.716
		c-2.212-3.012-4.424-5.991-6.634-8.953L355.202,378.426z"/>
	<path fill="none" d="M371.529,396.069l-0.29,0.57c0.873,1.181,1.753,2.371,2.624,3.548c0.226,0.305,0.396,0.788,0.823,0.844
		c-0.056-0.994-0.217-1.958-0.133-3c-0.132-0.178-0.265-0.358-0.396-0.536l-0.364-0.187l-0.149,0.293l-1.689-0.87l0.181-0.349
		L371.529,396.069z"/>
	<path fill="none" d="M354.798,374.903c0.036,0.048,0.071,0.095,0.106,0.144c0.144,0.193,0.289,0.388,0.434,0.582l0.055-0.107
		c-0.118-0.158-0.236-0.319-0.357-0.479c-0.061-0.082-0.12-0.165-0.182-0.247L354.798,374.903z"/>
	<path fill="none" d="M370.627,395.454l-0.429-0.219c0.106,0.143,0.215,0.286,0.32,0.431L370.627,395.454z"/>
	<path fill="none" d="M353.894,376.664c0.18,0.24,0.361,0.481,0.541,0.724l0.809-1.57c-0.181-0.242-0.364-0.482-0.545-0.725
		L353.894,376.664z"/>
	<path fill="none" d="M353.279,376.37l-0.103,0.197c3.602,4.855,7.217,9.733,10.807,14.595l0.097-0.187
		c-3.104-4.289-6.262-8.572-9.453-12.848l-0.451-0.231l0.112-0.223c-0.318-0.425-0.632-0.851-0.95-1.273L353.279,376.37z"/>
	<path fill="none" d="M366.376,393.341l-0.487-0.25c0.118,0.165,0.239,0.331,0.357,0.497L366.376,393.341z"/>
	<path fill="none" d="M349.89,382.96c8.679,11.763,17.335,23.555,25.813,35.248c0.042-1.073-0.127-2.081-0.174-3.127
		c-7.961-11.252-16.283-22.574-24.722-33.902L349.89,382.96z"/>
	<path fill="none" d="M365.409,392.845l-0.076,0.146c3.238,4.394,6.446,8.767,9.589,13.086c-2.645-4.236-5.821-8.138-8.751-12.23
		l-0.046-0.023l0.013-0.021c-0.223-0.311-0.453-0.621-0.678-0.932L365.409,392.845z"/>
	<path fill="none" d="M365.224,393.201l-0.365,0.716l-1.813-0.931l0.832-1.62c-3.579-4.881-7.173-9.755-10.789-14.624l-0.819,1.593
		c7.688,10.402,15.208,20.891,22.824,31.282c0.05,0.023,0.103,0.038,0.123-0.038c-0.043-0.977-0.179-1.926-0.175-2.917
		C371.783,402.171,368.51,397.685,365.224,393.201z"/>
	<path fill="none" d="M352.156,378.555l-0.113,0.22c7.785,10.524,15.499,21.073,23.163,31.637c-0.655-1.542-1.803-2.799-2.784-4.155
		C365.739,397.035,358.982,387.773,352.156,378.555z"/>
	<path fill="none" d="M351.947,378.957l-0.823,1.601c8.233,11.071,16.361,22.171,24.295,33.314c0.085-1.042-0.248-1.949-0.132-3
		C367.584,400.208,359.81,389.568,351.947,378.957z"/>
	<path fill="none" d="M351.028,380.75l-0.107,0.207c8.246,11.25,16.395,22.518,24.53,33.665c-0.799-1.63-1.923-3.111-2.989-4.574
		C365.355,400.311,358.225,390.52,351.028,380.75z"/>
	<path fill="none" d="M363.198,382.305c1.045,1.42,2.093,2.843,3.143,4.275l0.065-0.133c-1.063-1.421-2.12-2.818-3.181-4.199
		L363.198,382.305z"/>
	<path fill="none" d="M363.342,382.021c0.879,1.191,1.756,2.376,2.634,3.56c-0.411-1.052-0.587-2.438-0.661-4.017
		c-0.343-0.461-0.684-0.921-1.027-1.381L363.342,382.021z"/>
	<path fill="none" d="M374.755,402.324c-0.223-0.605-1.028-1.483-1.639-2.309c-0.932-1.258-1.884-2.559-2.815-3.829l-0.039-0.021
		l0.011-0.021c-0.214-0.288-0.42-0.573-0.629-0.856l-0.165,0.323l-1.931-0.992l0.027-0.051l-0.98-0.504
		c2.765,3.819,5.534,7.629,8.333,11.387C374.739,404.335,375.106,403.271,374.755,402.324z"/>
	<path fill="none" d="M365.275,380.652c-0.021-0.745-0.029-1.524-0.038-2.317l-0.683,1.328
		C364.797,379.993,365.034,380.322,365.275,380.652z"/>
	<path fill="none" d="M365.301,381.296c-0.002-0.063-0.007-0.123-0.009-0.188c-0.23-0.354-0.403-0.759-0.785-0.812
		C364.852,380.534,365.036,381.012,365.301,381.296z"/>
	<path fill="none" d="M369.782,395.021l-0.052,0.099c0.21,0.286,0.419,0.568,0.628,0.857l0.08-0.156
		c-0.186-0.25-0.369-0.499-0.551-0.747L369.782,395.021z"/>
	<path fill="none" d="M318.771,269.734C318.678,269.864,318.9,269.879,318.771,269.734L318.771,269.734z"/>
	<path fill="none" d="M319.781,262.757c-0.015-0.083,0.062-0.075,0.031-0.174c-0.063-0.062-0.1,0.044-0.172-0.028
		c-0.036,0.064-0.039,0.164-0.061,0.241C319.684,262.801,319.71,262.682,319.781,262.757z"/>
	<path fill="none" d="M316.881,269.543c0.094-0.025,0.271,0.037,0.309-0.043c-0.108-0.007-0.195-0.029-0.276-0.06
		C316.916,269.486,316.9,269.516,316.881,269.543z"/>
	<path fill="none" d="M319.721,262.931c0.092,0.021,0.062-0.074,0.098-0.107C319.744,262.822,319.709,262.855,319.721,262.931z"/>
	<path fill="none" d="M319.391,263.453c-0.209,0.066-0.157,0.269-0.023,0.376C319.357,263.69,319.42,263.614,319.391,263.453z"/>
	<path fill="none" d="M319.492,263.417c0.096-0.093,0.262-0.202,0.266-0.283c0.048,0.003,0.133-0.009,0.068-0.036
		c-0.182-0.032-0.227-0.027-0.375,0.079c-0.001-0.046,0-0.092-0.002-0.138c-0.126,0.005-0.146,0.107-0.133,0.245
		C319.576,263.238,319.469,263.342,319.492,263.417z"/>
	<path fill="none" d="M319.057,263.803c0.002,0.045,0.004,0.091,0.006,0.136c0.146-0.107,0.101,0.108,0.166-0.141
		C319.126,263.824,319.164,263.825,319.057,263.803z"/>
	<path fill="none" d="M316.669,269.241c-0.015,0.078-0.169,0.189-0.097,0.242c0.092,0.015,0.206-0.105,0.338-0.146
		C316.811,269.324,316.801,269.219,316.669,269.241z"/>
	<path fill="none" d="M318.682,269.051c-0.012,0.142,0.068,0.188,0.109,0.27C318.8,269.186,318.773,269.083,318.682,269.051z"/>
	<path fill="none" d="M349.687,383.359c8.671,11.886,17.23,23.809,25.968,35.557c-0.023,0.053-0.04,0.104,0.04,0.124
		c0.078-0.141,0.112-0.266,0.086-0.374c-8.588-11.868-17.237-23.719-25.973-35.543L349.687,383.359z"/>
	<path fill="none" d="M319.496,270.021c-0.035,0.079-0.156,0.075-0.133,0.21c0.085,0.018,0.16,0.044,0.276,0.026
		C319.668,270.095,319.575,270.067,319.496,270.021z"/>
	<path fill="none" d="M318.132,270.127c0.051,0.012,0.027,0.107,0.136,0.063C318.265,270.012,318.196,270.011,318.132,270.127z"/>
	<path fill="none" d="M317.606,269.731c-0.001-0.06-0.03-0.087-0.07-0.103C317.539,269.683,317.533,269.748,317.606,269.731z"/>
	<path fill="none" d="M317.725,269.076c0.057,0.229-0.259,0.11-0.264,0.279c0.113-0.003,0.227-0.003,0.34-0.008
		c-0.024-0.112-0.073-0.147,0.066-0.105C317.891,269.111,317.791,269.113,317.725,269.076z"/>
	<path fill="none" d="M319.034,268.083c0.021,0,0.04,0.004,0.034,0.033c0.023-0.002,0.047-0.001,0.07-0.002
		C319.188,268.028,319.017,268.018,319.034,268.083z"/>
	<path fill="none" d="M341.48,370.732c0.878,1.187,0.963,2.756,1.837,3.944l0.097-0.188c-0.792-1.066-0.799-2.517-1.596-3.58
		L341.48,370.732z"/>
	<path fill="none" d="M343.806,371.319l-0.25,0.483l-1.35-0.695c0.159,0.211,0.317,0.423,0.475,0.635
		c0.536,0.727,0.287,1.842,0.822,2.57l0.887-1.723c-0.072-0.097-0.146-0.194-0.217-0.294L343.806,371.319z"/>
	<path fill="none" d="M344.733,230.398l3.591,1.457c2.651-2.528,4.638-4.422,4.901-4.715c0.878-0.974,1.781-1.924,2.698-2.862
		c-4.755,2.498-8.917,4.669-12.339,6.434l0.878,0.356L344.733,230.398z"/>
	<path fill="none" d="M319.797,263.302c-0.125,0.026-0.332,0.297-0.266,0.283c0.106-0.201,0.285,0.171,0.41-0.045
		C319.818,263.54,319.879,263.349,319.797,263.302z"/>
	<path fill="none" d="M319.574,270.398c0,0.021,0,0.044,0.001,0.064c0.024,0.001,0.046-0.001,0.07,0
		c-0.003-0.022-0.002-0.046-0.003-0.067C319.619,270.396,319.598,270.397,319.574,270.398z"/>
	<path fill="#E53422" d="M495.48,239.129c-0.787,6.602-2.041,13.008-3.697,18.831c-0.073,0.257-0.153,0.537-0.232,0.814
		l8.184-15.128C498.085,242.81,496.865,241.358,495.48,239.129z"/>
	<path fill="#A41C1C" d="M508.918,244.251c-1.785,0.186-3.279,0.302-4.557,0.302c-1.948,0-3.404-0.288-4.627-0.907l-8.184,15.128
		c-0.822,2.875-1.96,6.725-3.5,9.931c-1.178,2.456-4.836,7.369-4.392,9.536c0.074,0.363,0.357,0.83,0.763,1.354l24.623-34.913
		C509.002,244.536,508.962,244.403,508.918,244.251z"/>
	<path fill="#E53422" d="M509.045,244.684l-24.623,34.913c0.595,0.77,1.475,1.671,2.477,2.607l26.104-29.115
		C511.215,251.521,510.3,249.019,509.045,244.684z"/>
	<path fill="#A41C1C" d="M521.854,255.88c-4.546-0.612-7.113-1.267-8.852-2.792l-26.104,29.115c0.857,0.801,1.789,1.619,2.696,2.394
		l32.274-28.395C521.864,256.092,521.858,255.993,521.854,255.88z"/>
	<path fill="#E53422" d="M521.869,256.203l-32.274,28.395c1.041,0.89,2.03,1.712,2.813,2.375L523.7,265.34
		C522.367,263.389,522.078,260.722,521.869,256.203z"/>
	<path fill="#A41C1C" d="M531.725,270.201c-4.347-1.678-6.7-2.923-8.024-4.861l-31.292,21.633c0.551,0.466,1.007,0.86,1.284,1.127
		c0.492,0.475,1.06,0.976,1.66,1.496l36.339-19.22C531.703,270.315,531.713,270.262,531.725,270.201z"/>
	<path fill="#E53422" d="M531.691,270.376l-36.339,19.22c1.021,0.884,2.147,1.825,3.22,2.802l32.697-12.677
		C530.473,277.51,530.836,274.833,531.691,270.376z"/>
	<path fill="#A41C1C" d="M537.989,286.429c-3.901-2.69-5.909-4.461-6.72-6.708l-32.697,12.677c1.196,1.09,2.315,2.224,3.134,3.367
		l36.276-9.321C537.985,286.438,537.987,286.434,537.989,286.429z"/>
	<path fill="#E53422" d="M537.982,286.443l-36.276,9.321c0.687,0.958,1.162,1.924,1.282,2.877c0.049,0.382,0.065,0.781,0.065,1.188
		l32.271-4.378C535.109,293.124,536.101,290.595,537.982,286.443z"/>
	<path fill="#A41C1C" d="M535.325,295.452l-32.271,4.378c0.003,1.362-0.24,2.844-0.606,4.346l37.756-0.622
		C537.052,300.037,535.546,297.848,535.325,295.452z"/>
	<path fill="#E53422" d="M540.304,303.668c-0.036-0.04-0.065-0.074-0.101-0.114l-37.756,0.622c-0.333,1.368-0.761,2.748-1.19,4.066
		l34.379,3.455C536.007,309.425,537.552,307.21,540.304,303.668z"/>
	<path fill="#A41C1C" d="M535.636,311.697l-34.379-3.455c-0.411,1.262-0.82,2.468-1.142,3.544c-0.038,0.128-0.076,0.253-0.115,0.382
		l38.392,8.525C536.165,316.558,535.245,314.09,535.636,311.697z"/>
	<path fill="#E53422" d="M538.539,320.972c-0.053-0.098-0.096-0.183-0.147-0.278L500,312.168c-0.382,1.279-0.764,2.548-1.146,3.809
		l33.325,11.608C533.093,325.508,535.099,323.727,538.539,320.972z"/>
	<path fill="#A41C1C" d="M532.18,327.585l-33.325-11.608c-0.396,1.31-0.794,2.605-1.191,3.896l35.016,17.068
		C531.489,332.418,531.196,329.821,532.18,327.585z"/>
	<path fill="#E53422" d="M532.794,337.39c-0.042-0.157-0.075-0.295-0.115-0.448l-35.016-17.068c-0.41,1.335-0.822,2.658-1.235,3.975
		l28.706,18.408C526.516,340.494,528.868,339.239,532.794,337.39z"/>
	<path fill="#A41C1C" d="M525.134,342.256l-28.706-18.408c-0.452,1.438-0.906,2.866-1.362,4.284l16.074,13.229
		c3.453,0.562,6.392,2.377,8.184,6.207c0.126,0.27,0.254,0.551,0.383,0.842l3.668,3.019
		C523.277,346.766,523.615,344.192,525.134,342.256z"/>
	<path fill="#E53422" d="M493.558,332.739l8.881,9.239c3.018-0.734,6.015-1.056,8.701-0.618l-16.074-13.229
		C494.566,329.679,494.064,331.215,493.558,332.739z"/>
	<path fill="#E53422" d="M521.33,352.463c0.643-0.146,1.314-0.292,2.054-0.446c-0.006-0.207-0.006-0.39-0.01-0.589l-3.668-3.019
		C520.24,349.619,520.791,351.004,521.33,352.463z"/>
	<path fill="#A41C1C" d="M491.777,337.983l4.514,5.972c1.994-0.777,4.074-1.472,6.147-1.977l-8.881-9.239
		C492.972,334.5,492.379,336.25,491.777,337.983z"/>
	<path fill="#E53422" d="M489.654,343.942l1.35,2.302c1.635-0.771,3.423-1.563,5.287-2.289l-4.514-5.972
		C491.083,339.985,490.376,341.972,489.654,343.942z"/>
	<path fill="#A41C1C" d="M488.312,347.551c0.835-0.415,1.737-0.856,2.692-1.307l-1.35-2.302
		C489.212,345.149,488.767,346.354,488.312,347.551z"/>
	<path fill="#E53422" d="M364.324,362.96c-0.343-4.104-0.793-8.208-1.45-12.354l-1.753,2.055L364.324,362.96z"/>
	<path fill="#A41C1C" d="M361.121,352.661l1.753-2.055c-0.529-3.341-1.188-6.709-2.063-10.138l-11.088,10.252L361.121,352.661z"/>
	<path fill="#E53422" d="M360.811,340.469c-0.02-0.075-0.033-0.149-0.053-0.225c-0.696-2.696-1.659-5.229-2.653-7.74l-9.348,6.81
		l0.772,11.587l0.193-0.18L360.811,340.469z"/>
	<path fill="#A41C1C" d="M355.412,325.357c-0.025-0.077-0.056-0.16-0.081-0.237l-17.208,9.653l10.634,4.54l9.348-6.81
		C357.17,330.143,356.208,327.8,355.412,325.357z"/>
	<path fill="#E53422" d="M352.772,318.07l-12.931,5.385l-1.947,11.446l0.229-0.128l17.208-9.653
		C354.606,322.925,353.653,320.504,352.772,318.07z"/>
	<path fill="#A41C1C" d="M350.671,310.861l-20.113,5.701l9.284,6.893l12.931-5.385C351.874,315.592,351.075,313.116,350.671,310.861
		z"/>
	<path fill="#E53422" d="M350.555,310.256c-0.645-4.338,1.683-6.102,4.532-7.556l-20.222,3.255l-4.559,10.679l0.251-0.071
		l20.113-5.701C350.635,310.661,350.584,310.452,350.555,310.256z"/>
	<path fill="#A41C1C" d="M360.187,299.976c2.403-1.73,4.612-3.171,6.802-4.515l-39.547,1.631l7.424,8.863l20.222-3.255
		C356.772,301.84,358.641,301.088,360.187,299.976z"/>
	<path fill="#E53422" d="M374.814,290.855l-40.715-3.078l-6.921,9.325l0.263-0.011l39.547-1.631
		C369.53,293.899,372.06,292.458,374.814,290.855z"/>
	<path fill="#A41C1C" d="M378.618,288.615c0.457-0.274,1.125-0.646,1.886-1.067l-51.559-10.119l5.154,10.349l40.715,3.078
		C376.032,290.147,377.282,289.417,378.618,288.615z"/>
	<path fill="#E53422" d="M384.801,285.07l-47.213-15.147l-8.9,7.455l0.258,0.051l51.559,10.119
		C381.825,286.815,383.436,285.924,384.801,285.07z"/>
	<path fill="#A41C1C" d="M387.602,282.807c0.013-0.026,0.018-0.054,0.029-0.08l-52.645-24.069l2.602,11.265l47.213,15.147
		C386.192,284.2,387.323,283.373,387.602,282.807z"/>
	<path fill="#E53422" d="M387.255,278.93l-42.115-25.56l-10.395,5.178l0.241,0.11l52.645,24.069
		C388.154,281.58,387.86,280.253,387.255,278.93z"/>
	<path fill="#A41C1C" d="M384.168,273.679c-0.328-0.721-0.617-1.416-0.883-2.102l-38.055-29.77l-0.091,11.562l42.115,25.56
		C386.354,276.962,384.772,275.006,384.168,273.679z"/>
	<path fill="#E53422" d="M381.51,263.958l-0.4-0.396c-5.653-1.009-9.951-4.412-12.566-8.245c-1.451-2.128-2.75-4.856-3.714-7.875
		l-8.492-8.41l-11.312,2.615l0.206,0.161l38.055,29.77C382.286,269.002,381.717,266.609,381.51,263.958z"/>
	<path fill="#A41C1C" d="M363.406,233.2l-4.288-5.392l-2.781,11.223l8.492,8.41C363.418,243.02,362.736,237.967,363.406,233.2z"/>
	<path fill="#A41C1C" d="M381.48,263.632c-0.126-0.02-0.247-0.047-0.371-0.07l0.4,0.396
		C381.501,263.849,381.488,263.743,381.48,263.632z"/>
	<path fill="#E53422" d="M364.88,227.713c0.008-0.019,0.025-0.044,0.035-0.064l-5.961-0.046l0.164,0.206l4.288,5.392
		C363.673,231.306,364.148,229.457,364.88,227.713z"/>
	<path fill="#F0D6B8" d="M470.104,174.467c-1.009-0.425-2.098-0.819-3.265-1.178c0.308,0.474,0.578,0.972,0.807,1.487
		c0.46,1.02,0.748,2.104,0.901,3.206c0.075,0.551,0.118,1.107,0.118,1.678c-0.01,0.566-0.017,1.158-0.216,1.864
		c-0.172,0.509-0.334,0.818-0.518,1.113c-0.184,0.302-0.384,0.562-0.592,0.81c-0.415,0.492-0.867,0.907-1.348,1.275
		c-0.959,0.735-2.026,1.31-3.213,1.684c-1.185,0.356-2.507,0.532-3.838,0.296c-1.327-0.21-2.616-0.818-3.611-1.66
		c-0.262-0.201-0.481-0.43-0.718-0.65c-0.215-0.247-0.404-0.45-0.625-0.74l-0.223-0.303l-0.298-0.44
		c-0.185-0.291-0.336-0.578-0.483-0.91c-0.283-0.651-0.539-1.436-0.482-2.387c0.025-0.941,0.489-1.944,1.112-2.552
		c1.273-1.227,2.61-1.389,3.769-1.466c1.175-0.046,2.281,0.175,3.301,0.548l0.607,0.223l0.061,0.269
		c0.093,0.41,0.205,0.86,0.226,1.344c0.032,0.479-0.041,0.982-0.24,1.396l-0.434-0.062c-0.051-0.195-0.103-0.373-0.179-0.54
		c-0.084-0.165-0.163-0.321-0.264-0.469c-0.085-0.121-0.193-0.248-0.287-0.368c-0.819,0.103-1.605,0.283-2.288,0.539
		c-0.736,0.277-1.376,0.774-1.415,1.034c-0.017,0.13,0.062,0.091,0.1,0.131c0.04,0.032,0.112,0.201,0.266,0.418
		c0.069,0.106,0.178,0.233,0.264,0.35l0.13,0.155l0.238,0.268c0.216,0.212,0.489,0.48,0.733,0.671
		c0.516,0.397,1.032,0.679,1.624,0.847c0.586,0.173,1.263,0.221,1.975,0.122c0.709-0.107,1.445-0.362,2.09-0.745
		c0.319-0.192,0.617-0.414,0.861-0.645c0.116-0.116,0.229-0.233,0.312-0.342c0.097-0.105,0.146-0.24,0.158-0.184
		c0.113-0.223,0.17-0.62,0.212-1.026c0.04-0.406,0.047-0.829,0.029-1.25c-0.035-0.845-0.187-1.684-0.435-2.486
		c-0.249-0.803-0.625-1.561-1.114-2.247c-0.327-0.465-0.737-0.899-1.17-1.288c-2.34-0.467-4.934-0.794-7.793-0.939
		c-17.312,9.365-36.904,19.903-55.237,29.706c-0.769,1.672-1.383,3.219-1.88,4.596c-0.884,4.434-2.159,8.896-2.321,13.573
		c-0.185,5.312,2.103,10.062,2.705,15.729c0,0,2.627,10.302,4.756,12.786c2.128,2.483,8.247,4.877,9.488,5.676
		c1.24,0.798,3.458,4.789-0.887,5.409c-4.346,0.621-16.76-1.951-17.824-2.926c0,0-3.174-13.368-3.279-18.531
		c-0.239-1.148-0.574-2.326-1.01-3.473l0.047,0.705c0,0-4.441-2.687-8.567-3.57c3.847,1.337,7.369,5.974,6.064,12.25
		c-2.241-1.279-2.775-6.915-5.407-7.074c-3.759-0.229-3.073,7.309-3.06,11.717c-2.589-2.349-3.043-9.585-1.142-13.3
		c-1.705-0.837-2.668,0.368-3.586,1.305c-1.335,6.225-3.291,11.256,0.37,17.549c2.346,2.414,5.246,3.926,8.502,3.604
		c3.406-0.336,4.245-3.751,7.956-3.716c0,0,2.162,0.251,2.526,2.811c0.36,2.53,1.446,25.032,16.626,37.565
		c2.931,0.499,6.079,0.759,9.312,0.974c1.685-3.628,7.889-3.329,11.931-2.38c-4.845-1.919-9.35-6.571-13.081-10.688
		c-4.287-4.724-8.631-9.792-8.851-15.966c8.103,11.241,14.797,21.057,29.53,26.002c3.841,1.288,7.903,1.467,11.93,0.926
		c-0.351-0.115-0.802-0.225-0.802-0.547c0-0.41-0.802-1.197-1.21-1.207c-2.457-0.062-3.995,2.826-4.966-0.417
		c-0.12-0.402-0.199-1.077-0.199-1.497c0-0.686-0.76-0.255-0.986-0.637c-0.25-0.416-1.771-0.304-2.201-0.319
		c1.852-3.641,6.628-4.454,8.85-7.742c1.428-2.113,2.696-4.322,3.976-6.525c2.165-0.279,2.944-0.321,3.919,1.724
		c0.411,0.861,0.246,1.875,0.56,2.671c0.312,0.779-0.315,2.409,0.455,3.057c1.487,1.247,2.098,4.036,2.267,5.854
		c0.045,0.486-0.598,2.323-1.125,3.407c4.542-1.68,8.778-4.026,12.269-6.478c3.554-2.5,5.676-6.468,8.203-10.099
		c9.454-13.598,13.864-33.008,12.896-51.821c-0.399-7.759-0.382-15.491-2.986-20.711c-2.72-5.458-11.922-10.341-17.31-5.404
		c-0.097-0.515-0.115-1.004-0.096-1.478c-0.86,0.805-1.382,1.394-1.382,1.394c-0.732-1.462-0.73-2.924-0.73-2.924
		c0.268-6.921,5.954-8.61,9.031-9.017C476.314,180.421,473.433,177.034,470.104,174.467z M435.951,259.801
		c0,0-4.389,0.731-4.023,8.048l-1.829-0.367c0,0-1.889-6.634-0.979-7.85C429.602,258.991,432.248,258.019,435.951,259.801z
		 M439.598,208.266c2.136,3.918,2.831,8.034,5.869,10.995c1.368,1.333,4.028,2.958,2.71,6.665c-0.309,0.875-2.561,2.824-3.86,3.208
		c-4.75,1.401-15.815,0.29-12.068-5.632c3.928,0.184,9.207,2.551,12.144-0.3c-0.571-0.913-1.256-2.054-1.936-3.315
		c-3.02,1.902-11.26,1.991-11.26-2.872c0-5.12,8.046-6.217,8.046-6.217l0.061,0.145
		C439.235,209.975,439.315,209.066,439.598,208.266z M420.225,190.685c7.182-4.897,10.823-2.105,12.621,1.131
		c1.731,1.013,2.978,2.793,1.648,4.979c-9.968-2.321-14.921,4.171-17.941,10.905c-0.774,1.405-0.819,0.411-1.265-0.818
		c-0.172-0.24-0.293-0.516-0.366-0.818c-0.148-0.269-0.325-0.528-0.548-0.751C412.912,203.85,412.181,196.17,420.225,190.685z
		 M468.865,274.282c0,0-6.331-1.728-7.194-1.728s-6.043-1.438-8.346-1.726c-2.302-0.288-6.907,0-6.907,0l-4.029-1.439v-1.151
		l14.103,0.288c0,0,3.166,0.863,4.604,1.151c1.438,0.288,4.605,0.863,5.757,1.439s3.165,1.726,3.165,2.589
		S468.865,274.282,468.865,274.282z M472.744,271.244c-2.91-3.573-4.742-4.064-4.742-4.064l-4.404-0.338
		c0,0-1.883-1.286-3.049-1.694c-1.165-0.408-3.726-0.339-6.097-0.678c-2.372-0.338-4.743,1.694-8.808,2.032
		c-4.065,0.339-10.162-3.726-10.162-3.726s5.081,0.678,7.791,0.678s14.163-4.097,15.582-4.065s4.834,1.504,6.774,1.693
		c0,0,1.296-0.519,2.71-0.338c1.415,0.18,5.081,3.387,6.437,5.419c1.354,2.032,4.163,7.566,4.163,7.566l-3.018-0.165
		C475.922,273.563,474.276,273.125,472.744,271.244z M484.588,217.746c-1.097,0.366-8.234,4.58-7.679-0.731
		c0.469-4.486,4.831-6.085,6.177-6.475c-0.054-0.757-0.079-1.542-0.028-2.395c0.157,0.007,0.317,0.012,0.473,0.019
		c2.253,4.679,4.202,9.636,7.044,13.766c-1.902,4.434-14.413,8.357-14.221,0.396c2.706-1.183,7.376-0.241,9.774-1.752
		c-0.566-1.555-1.229-3.021-1.802-4.572L484.588,217.746z M479.116,236.637c1.288,1.408,3.408,2.76,3.645,3.691
		c0.681,2.708-1.769,5.954-1.486,7.755c-7.149,4.594-15.124,9.589-26.841,8.431c-2.503-2.177-3.457-7.021-1.025-10.219
		c0.106,0.184,0.194,0.383,0.276,0.59c0.545-3.05,1.558-6.589,3.293-6.093c2.986,0.853,2.986,3.838,2.986,3.838
		s-3.76,2.437-5.702,4.436c0.392,1.817,0.867,3.623,3.145,4.012c6.649,1.137,14.388-4.067,19.17-5.887
		c2.964-5-0.257-6.838-2.928-10.055c-5.469-6.593-12.806-14.764-12.54-24.633c2.212-1.603,2.402,2.446,2.719,3.184
		C466.684,222.369,473.871,230.917,479.116,236.637z"/>
	<path fill="#F0D6B8" d="M375.287,231.855c0.298-0.26,0.613-0.486,0.947-0.663C375.885,231.361,375.566,231.579,375.287,231.855z"/>
	<path fill="#969DC1" d="M406.708,394.577c-1.529-10.823-2.941-20.623-3.934-30.708l-10.707-1.673l-4.755-3.292l2.33-0.104
		c0.252-3.812,5.4-1.634,5.841-4.429c0.342-2.172-2.994-2.336-1.907-5.757c2.77,1.007,4.226,3.231,7.181,4.066
		c-0.84-5.598-8.959-11.521-10.934-16.129c0.041-0.513-0.596-1.957-0.824-3.022c-5.887-13.382-16.629-20.486-24.312-24.032
		c1.228,4.755,13.645,53.769,8.886,72.983C383.571,387.533,392.915,393.862,406.708,394.577z M397.741,371.556
		c-0.007-0.025-0.012-0.04-0.014-0.032C397.729,371.516,397.734,371.53,397.741,371.556z"/>
	<path fill="#969DC1" d="M399.039,344.013c0.179,0.193,0.341,0.411,0.51,0.618C399.374,344.339,399.203,344.122,399.039,344.013z"/>
	<path fill="#969DC1" d="M396.396,341.602c0.627,0.714,1.312,1.375,2.056,1.961C397.853,343.064,397.133,342.365,396.396,341.602z"
		/>
	<path fill="#969DC1" d="M400.575,338.088l7.373,15.58c14.83-1.587,37.798-1.353,52.528-1.757c-0.658-0.987-2.356-6.617-4.169-9.983
		c-1.536-2.853-2.095-4.842-1.975-7.24c0.109-2.194,1.426-3.621,0.768-4.608c-0.158-3.128-3.792-5.245-4.498-7.569
		c-1.126-3.705-12.939,3.904-19.828,6.951c-7.353,4.009-8.787-3.844-10.525-9.406c-1.575-5.039-2.474-8.804-2.859-11.71
		c-6.334-3.019-13.105-6.076-18.557-9.948c-0.574-0.41-3.059-3.498-5.233-5.967l-27.742,15.967
		c21.229,9.612,24.624,24.426,24.624,24.426L400.575,338.088z M454.771,344.342c1.394,0,2.523,1.13,2.523,2.523
		s-1.13,2.523-2.523,2.523s-2.523-1.13-2.523-2.523S453.378,344.342,454.771,344.342z"/>
	<path fill="#969DC1" d="M390.487,332.878c0.012,0.012,0.021,0.019,0.033,0.03l-0.039-0.086
		C390.481,332.822,390.483,332.843,390.487,332.878z"/>
	<path fill="#DDD9D9" d="M370.59,216.535c-0.012,0.006-0.023,0.012-0.035,0.019l-0.002,0.058
		C370.564,216.586,370.577,216.561,370.59,216.535z"/>
	<path fill="#DDD9D9" d="M373.297,215.1c-0.453,0.241-0.912,0.484-1.36,0.722c0.083,2.449,0.295,4.843,0.471,6.976
		c0.432-0.271,0.871-0.507,1.313-0.722C373.424,220.466,373.118,217.964,373.297,215.1z"/>
	<path fill="#F7E4CD" d="M393.164,256.143c-0.364-2.559-2.526-2.811-2.526-2.811c2.013,4.014-3.103,5.275-3.629,8.146
		c-0.137,0.741,0.424,3.64,0.751,5c1.601,6.619,5.172,15.185,8.688,20.223c2.931,4.201,7.727,6.051,13.343,7.007
		C394.61,281.175,393.524,258.673,393.164,256.143z"/>
	<path fill="#F7E4CD" d="M454.262,249.065c1.942-2,5.702-4.436,5.702-4.436s0-2.985-2.986-3.838
		c-1.735-0.496-2.748,3.043-3.293,6.093C453.944,247.546,454.098,248.305,454.262,249.065z"/>
	<path fill="#F7E4CD" d="M476.909,217.015c-0.556,5.311,6.582,1.097,7.679,0.731l-0.262-1.745c-0.605-1.643-1.091-3.396-1.24-5.461
		C481.74,210.929,477.378,212.528,476.909,217.015z"/>
	<path fill="#F7E4CD" d="M431.196,217.015c0,4.863,8.24,4.773,11.26,2.872c-1.492-2.767-2.958-6.117-3.153-8.943l-0.061-0.145
		C439.242,210.798,431.196,211.895,431.196,217.015z"/>
	<path fill="#F7E4CD" d="M373.81,235.896c-0.249,0.254-0.495,0.489-0.751,0.657c0.304-2.207,1.127-3.738,2.229-4.698
		c0.279-0.276,0.598-0.494,0.947-0.663c1.401-0.738,3.082-0.759,4.705-0.195c4.126,0.883,8.567,3.57,8.567,3.57l-0.047-0.705
		c-1.488-3.919-4.151-7.441-8.18-7.882c-7.452-0.815-12.901,5.353-13.239,11.798c-0.253,4.782,2.131,11.542,6.139,15.667
		C370.519,247.152,372.475,242.121,373.81,235.896z"/>
	<path fill="#F7E4CD" d="M466.839,173.289c1.167,0.359,2.256,0.753,3.265,1.178c-0.945-0.729-1.922-1.398-2.945-1.976v0
		c-0.561-0.316-1.146-0.627-1.743-0.935c0.139,0.136,0.278,0.271,0.412,0.417C466.198,172.383,466.536,172.824,466.839,173.289z"/>
	<path fill="#F7E4CD" d="M462.129,171.747c-1.23-0.86-2.596-1.562-4.034-2.13c-1.039,0.563-2.088,1.13-3.146,1.702
		c2.859,0.146,5.453,0.472,7.793,0.939C462.541,172.078,462.336,171.904,462.129,171.747z"/>
	<path fill="#F7E4CD" d="M398.469,201.689c-0.152,1.311-0.376,2.62-0.637,3.932c0.497-1.377,1.111-2.924,1.88-4.596
		C399.296,201.248,398.884,201.468,398.469,201.689z"/>
	<path fill="#F7E4CD" d="M469.961,192.878c0,0-0.002,1.462,0.73,2.924c0,0,0.521-0.589,1.382-1.394
		c0.187-4.411,5.199-6.927,11.01-5.202c-1.332-1.719-2.685-3.538-4.091-5.345C475.915,184.269,470.229,185.958,469.961,192.878z"/>
	<path fill="#F7E4CD" d="M415.288,206.881c0.445,1.229,0.49,2.223,1.265,0.818C415.962,207.556,415.561,207.263,415.288,206.881z"/>
	<path fill="#F7E4CD" d="M414.374,205.312c0.223,0.223,0.399,0.482,0.548,0.751c-0.346-1.41,0.249-3.354,0.688-4.556
		c1.783-4.906,8.974-11.437,14.849-10.552c0.771,0.116,1.626,0.415,2.387,0.86c-1.798-3.236-5.439-6.028-12.621-1.131
		C412.181,196.17,412.912,203.85,414.374,205.312z"/>
	<path fill="#BFC4DD" d="M364.688,309.498c-4.367-2.017-7.744-2.887-8.669-3.104c-0.661,0.58-1.193,1.309-1.521,2.292
		c-2.194,6.582,15.584,47.856,16.276,72.425c0.942,0.44,1.873,0.902,2.8,1.37C378.332,363.267,365.915,314.253,364.688,309.498z"/>
	<path fill="#BFC4DD" d="M393.6,292.429c-1.591-1.806-3.018-3.283-3.407-3.13c-7.904,3.117-17.17,7.735-24.505,12.804
		c-2.448,1.692-5.569,2.072-7.953,3.191c2.963,0.942,5.662,1.986,8.123,3.102L393.6,292.429z"/>
	<path fill="#BFC4DD" d="M399.549,344.631c2.323,2.848,3.793,6.878,5.418,9.396c0.95-0.129,1.947-0.248,2.981-0.359l-7.373-15.58
		l-10.094-5.266l0.039,0.086c1.362,1.472,3.085,5.518,5.876,8.693c0.736,0.764,1.456,1.463,2.056,1.961
		c0.193,0.152,0.385,0.31,0.587,0.45C399.203,344.122,399.374,344.339,399.549,344.631z"/>
	<path fill="#BFC4DD" d="M392.067,362.196l10.707,1.673c-0.14-1.413-0.271-2.831-0.393-4.259c-3.787-1.597-9.219,0.071-12.764-0.496
		c-0.001-0.115,0.018-0.208,0.024-0.313l-2.33,0.104L392.067,362.196z"/>
	<path fill="#969DC1" d="M463.114,365.118c0.152,7.323,0.613,14.613,1.175,21.982c3.84-0.576,6.445-0.961,10.013-1.743
		c-0.887-7.385-1.015-15.476-2.086-22.692C469.796,364.028,466.076,365.687,463.114,365.118z"/>
	<path fill="#969DC1" d="M474.194,288.66c-0.668,0.555-1.259,1.113-1.658,1.699c1.135-0.55,2.159-0.73,3.089-0.636L474.194,288.66z"
		/>
	<path fill="#969DC1" d="M479.748,292.785c3.502,5.836,3.497,18.328,0.781,23.455c0.615,2.237-12.448,0.96-11.586,2.972
		c-0.892,1.597-3.066,1.007-3.314,2.882c-0.389,2.95-1.26,4.773-2.161,8.79c-0.572,2.551-7.119,0.931-7.38,3.804
		c-0.389,4.311,5.492,14.157,5.925,16.895c4.189-0.357,14.92-1.755,19.872-3.098c1.849-0.73,3.186-4.96,4.584-8.344
		c3.849-9.309,7.887-21.044,9.684-29.927c0.218-1.086,0.636-2.856,0.939-4.544L479.748,292.785z M462.231,334.248
		c0.995,0,1.848,0.581,2.258,1.418l2.116-0.475l0.234,0.922l-2.104,0.461c0.005,0.066,0.02,0.13,0.02,0.197
		c0,1.394-1.13,2.523-2.523,2.523s-2.523-1.13-2.523-2.523S460.838,334.248,462.231,334.248z M462.746,345.951l-0.149-0.922
		l5.56-1.309l0.234,0.922L462.746,345.951z"/>
	<path fill="#BFC4DD" d="M470.926,356.347c-2.727,0.025-5.129-0.032-7.848,0.879v-0.001c-0.035,2.639-0.019,5.269,0.036,7.894
		c2.962,0.568,6.682-1.09,9.102-2.453C471.889,360.464,471.478,358.34,470.926,356.347z"/>
	<path fill="#BFC4DD" d="M475.625,289.723c1.703,0.173,3.072,1.312,4.123,3.062l17.344,12.885c0.263-1.46,0.439-2.856,0.325-3.692
		c-0.441-3.225-4.818-5.617-7.045-7.612c-4.101-3.684-6.684-6.925-10.961-10.37c-1.246,1.84-3.51,3.246-5.217,4.664L475.625,289.723
		z"/>
	<path fill="#FFFFFF" d="M456.907,405.833c-2.145-0.932-3.646-3.066-3.646-5.554c0-2.087,1.056-3.926,2.661-5.015
		c-0.342-4.71-0.563-9.354-0.697-13.729c-2.206-0.903-3.761-3.069-3.761-5.602c0-2.462,1.471-4.575,3.579-5.521
		c-0.018-6.315,0.11-11.312,0.202-14.02c-15.597-2.209-35.829,0.147-50.244,2.845c2.532,23.283,6.2,42.856,12.929,63.475
		c7.313,2.221,15.361,3.441,23.221,3.636c10.913-2.72,17.84-7.103,17.84-7.103C458.126,414.982,457.444,410.448,456.907,405.833z
		 M446.56,358.932c3.345,0,6.055,2.712,6.055,6.055c0,3.345-2.71,6.055-6.055,6.055c-3.344,0-6.055-2.71-6.055-6.055
		C440.505,361.644,443.216,358.932,446.56,358.932z M432.029,371.022c3.343,0,6.055,2.71,6.055,6.055s-2.712,6.055-6.055,6.055
		c-3.345,0-6.055-2.71-6.055-6.055S428.685,371.022,432.029,371.022z M426.041,390.029c0,3.345-2.71,6.055-6.054,6.055
		s-6.055-2.71-6.055-6.055c0-3.344,2.711-6.054,6.055-6.054S426.041,386.686,426.041,390.029z M410.117,367.601
		c0-3.343,2.71-6.055,6.055-6.055c3.344,0,6.054,2.712,6.054,6.055c0,3.345-2.71,6.055-6.054,6.055
		C412.827,373.655,410.117,370.945,410.117,367.601z M408.812,385.847l-1.896-11.87c0.093-0.004,0.185-0.014,0.278-0.014
		c3.344,0,6.055,2.71,6.055,6.055C413.249,382.801,411.369,385.139,408.812,385.847z M414.268,410.253l-2.813-11.434
		c0.83-0.427,1.77-0.673,2.767-0.673c3.344,0,6.055,2.71,6.055,6.055C420.275,407.53,417.589,410.229,414.268,410.253z
		 M425.014,421.246c-3.345,0-6.055-2.71-6.055-6.055c0-3.344,2.71-6.054,6.055-6.054c3.344,0,6.054,2.71,6.054,6.054
		C431.067,418.536,428.357,421.246,425.014,421.246z M435.921,406.552c-3.344,0-6.055-2.71-6.055-6.055
		c0-3.344,2.711-6.055,6.055-6.055c3.345,0,6.055,2.711,6.055,6.055C441.976,403.842,439.266,406.552,435.921,406.552z
		 M441.792,388.157c0-3.344,2.711-6.054,6.055-6.054s6.055,2.71,6.055,6.054s-2.711,6.054-6.055,6.054
		S441.792,391.501,441.792,388.157z M450.173,419.429c-3.344,0-6.055-2.71-6.055-6.054s2.711-6.055,6.055-6.055
		c3.345,0,6.055,2.711,6.055,6.055S453.518,419.429,450.173,419.429z"/>
	<path fill="#DDD9D9" d="M462.324,405.515c-0.888,0.512-1.909,0.818-3.009,0.818c-0.856,0-1.67-0.18-2.408-0.5
		c0.537,4.615,1.219,9.149,2.083,13.412c0,0-6.927,4.383-17.84,7.103c8.191,0.202,16.178-0.71,22.914-2.798
		C462.901,417.964,462.542,411.793,462.324,405.515z"/>
	<path fill="#DDD9D9" d="M457.519,381.988c-0.812,0-1.586-0.162-2.294-0.453c0.134,4.375,0.355,9.02,0.697,13.729
		c0.968-0.656,2.136-1.04,3.394-1.04c0.956,0,1.854,0.229,2.657,0.624c-0.138-3.238-0.337-6.435-0.688-9.522
		c-0.167-1.461-0.286-2.923-0.389-4.387C459.93,381.594,458.773,381.988,457.519,381.988z"/>
	<path fill="#DDD9D9" d="M455.043,370.412c0.756-0.34,1.593-0.533,2.476-0.533c1.05,0,2.031,0.277,2.892,0.748
		c-0.178-4.491-0.416-9.005-1.113-13.548c-1.305-0.271-2.666-0.49-4.052-0.687C455.153,359.101,455.025,364.097,455.043,370.412z"/>
	<path fill="#FFFFFF" d="M486.729,373.759c-0.329-6.403-1.439-13.45-4.172-18.146c-1.822-0.418-3.944-0.017-5.686,0.018
		c0.663,6.601,2.082,13.753,2.973,20.779C481.96,375.49,484.892,374.273,486.729,373.759z"/>
	<path fill="#FFFFFF" d="M514.731,349.992c-1.511-2.283-5.603-5.274-8.871-3.182c-4.537,2.906-12.014,4.058-16.521,6.893
		c0.854,5.011,2.929,17.354,2.929,19.098c0,0,20.479,1.098,22.308,1.098c0,0,3.49-6.715,3.456-14.402
		C517.069,355.645,515.924,351.796,514.731,349.992z M495.744,363.463c2.215-3.383,10.75-2.216,14.712-0.85
		C505.843,363.102,500.424,363.848,495.744,363.463z M507.958,353.756c-5.658,1.133-9.636,6.634-15.157,6.281
		C495.835,355.759,501.152,353.956,507.958,353.756z M495.497,369.846c2.915-3.131,13.194-1.161,16.558,0.404
		C506.87,370.362,500.426,370.26,495.497,369.846z"/>
	<path fill="#DDD9D9" d="M514.575,373.898c-1.829,0-22.308-1.098-22.308-1.098c0-1.743-2.074-14.087-2.929-19.098
		c-0.774,0.486-1.471,1.018-2.039,1.621c1.944,6.474,2.548,15.364,3.35,23.565c6.643,0.414,14.814-1.827,20.338,0.552
		c-3.855,1.249-8.859,1.259-12.191,3.079c2.724,1.315,9.099,1.05,13.256,0.04c5.71-1.386,9.301-8.38,7.703-15.563
		c-0.446-2.009-1.039-4.756-1.724-7.501C518.065,367.184,514.575,373.898,514.575,373.898z"/>
	<path fill="#DDD9D9" d="M479.844,376.41c0.209,1.65,0.398,3.296,0.531,4.923c2.739,0.086,4.203-1.206,6.455-1.641
		c0.03-1.841,0.005-3.854-0.102-5.934C484.892,374.273,481.96,375.49,479.844,376.41z"/>
	<path fill="#FFFFFF" d="M459.002,330.823c5.937-0.848,3.268-6.678,4.854-10.335c-1.496-0.45-3.687-1.147-5.233-1.811
		c-2.561-1.097-4.388,3.292-4.388,3.292c0,0.31,0.004,0.585,0.01,0.84C456.433,326.528,455.772,330.704,459.002,330.823z"/>
	<path fill="#DDD9D9" d="M458.623,318.678c1.547,0.663,3.737,1.36,5.233,1.811c0.393-0.905,1.042-1.68,2.153-2.21
		c-3.717,0.235-5.778-3.36-8.383-3.637c-2.271-0.244-4.199,2.612-7.155,1.376c-0.677,0.748-1.292,1.56-1.981,2.29
		c3.041,1.076,4.717,2.738,5.755,4.502c-0.006-0.255-0.01-0.53-0.01-0.84C454.235,321.97,456.062,317.581,458.623,318.678z"/>
	<path fill="#FFFFFF" d="M404.165,295.288c-0.787,0.798-0.634,1.669,0.099,2.53c2.39,0.949,9.204,3.516,12.865,3.472
		c0.325-1.337,0.837-2.57,0.672-3.581C413.246,296.909,407.259,297.437,404.165,295.288z"/>
	<path fill="#DDD9D9" d="M404.264,297.818c2.215,2.605,9.733,5.124,12.617,5.301c-0.007-0.625,0.104-1.236,0.248-1.829
		C413.468,301.334,406.653,298.767,404.264,297.818z"/>
	<path fill="#D33832" d="M477.746,299.373c-1.871-0.399-4.78,0.035-6.065,0.292c-1.828,0.365-3.658,0.732-4.023,2.926
		c-0.365,2.194,0.731,3.292-0.365,5.12c-1.097,1.829-2.926,0.73-4.755,1.828c-1.244,0.746-0.458,2.675,0.173,3.833
		c4.43,1.062,9.38,1.642,14.783,1.801c1.207-1.569,1.618-4.559,1.475-7.521C478.867,305.534,478.492,302.094,477.746,299.373z"/>
	<path fill="#D33832" d="M442.526,310.66c-5.633-3.072-0.301-2.167-2.297-6.24c-0.416-0.851-6.229-2.194-7.355-2.194
		c-7.38,0-10.199-1.485-9.425,7.028c0.414,4.566,0.789,9.132,1.149,13.701c0.599,1.129,1.143,2.146,1.578,3.014
		c2.104,0.49,9.041-2.284,11.019-3.362c4.182-2.28,7.425-5.9,10.977-8.331c0.041-1.056,0.082-2.112,0.124-3.168
		C446.327,311.646,444.201,311.573,442.526,310.66z"/>
	<path fill="#D33832" d="M424.654,323.652c-0.018-0.232-0.037-0.465-0.056-0.697c-0.154-0.292-0.312-0.591-0.473-0.897
		c0.096,0.26,0.197,0.527,0.278,0.766C424.499,323.101,424.578,323.379,424.654,323.652z"/>
	<path fill="#D33832" d="M453.92,303.915c0.543,2.504-0.849,4.657-2.958,6.013c0.125,0.535,0.257,1.135,0.385,1.863
		C458.744,314.104,458.877,304.077,453.92,303.915z"/>
	<path fill="#E6413E" d="M462.537,309.539c1.829-1.098,3.658,0.001,4.755-1.828c1.097-1.828,0-2.926,0.365-5.12
		c0.365-2.193,2.195-2.561,4.023-2.926c1.285-0.257,4.194-0.691,6.065-0.292c-0.512-1.866-1.196-3.397-2.094-3.92
		c-4.344-2.536-11.854,4.481-15.65,6.394c-0.254,0.128-0.49,0.232-0.708,0.311c0.38,1.093,1.006,1.959,1.054,3.355
		c2.063-0.508,4.577-0.161,6.365,0.719c-2.067,0.231-4.361,0.216-5.729,1.201c-0.502,1.449,0.124,3.424-0.211,5.437
		c0.634,0.179,1.28,0.346,1.938,0.503C462.079,312.214,461.293,310.285,462.537,309.539z"/>
	<path fill="#E6413E" d="M424.654,323.652c0.31,1.102,0.569,2.095,1.522,2.316c-0.436-0.867-0.979-1.885-1.578-3.014
		C424.617,323.188,424.637,323.42,424.654,323.652z"/>
	<path fill="#E6413E" d="M423.449,309.254c-0.774-8.514,2.045-7.028,9.425-7.028c1.126,0,6.939,1.344,7.355,2.194
		c1.996,4.073-3.336,3.168,2.297,6.24c1.675,0.913,3.801,0.985,5.77,0.447c0.005-0.127,0.01-0.253,0.015-0.38
		c-2.136-1.063-4.603-1.818-7.738-1.956c2.128-1.069,5.255-1.054,7.193-2.327c0.017-0.474,0.037-0.946,0.055-1.415
		c-3.538-0.273-4.886-1.849-7.217-3.123c-3.815-2.084-9.547-4.355-14.475-5.294c-5.727-1.096-5.581,7.186-5.327,12.895
		c0.018,0.38,0.034,0.749,0.051,1.104c0.188,4.129,2.166,8.458,3.273,11.447c0.16,0.307,0.318,0.605,0.473,0.897
		C424.238,318.386,423.863,313.82,423.449,309.254z"/>
	<path fill="#E6413E" d="M453.92,303.915c-0.976-0.032-2.145,0.311-3.499,1.214c-0.185,2.059,0.138,3.064,0.541,4.799
		C453.071,308.572,454.463,306.419,453.92,303.915z"/>
	<path fill="#231F20" d="M415.61,201.507c-0.439,1.203-1.034,3.146-0.688,4.556c0.073,0.302,0.194,0.578,0.366,0.818
		c0.272,0.382,0.674,0.675,1.265,0.818c3.021-6.733,7.974-13.226,17.941-10.905c1.329-2.186,0.083-3.966-1.648-4.979
		c-0.761-0.446-1.615-0.744-2.387-0.86C424.584,190.07,417.394,196.601,415.61,201.507z"/>
	<path fill="#231F20" d="M476.354,222.325c-0.192,7.961,12.318,4.038,14.221-0.396c-2.842-4.13-4.791-9.087-7.044-13.766
		c-0.155-0.007-0.315-0.012-0.473-0.019c-0.051,0.854-0.025,1.638,0.028,2.395c0.149,2.065,0.635,3.819,1.24,5.461
		c0.572,1.551,1.235,3.017,1.802,4.572C483.729,222.084,479.06,221.143,476.354,222.325z"/>
	<path fill="#231F20" d="M444.392,223.201c-2.937,2.851-8.216,0.483-12.144,0.3c-3.747,5.922,7.318,7.034,12.068,5.632
		c1.3-0.383,3.552-2.333,3.86-3.208c1.318-3.707-1.342-5.332-2.71-6.665c-3.038-2.961-3.733-7.077-5.869-10.995
		c-0.282,0.8-0.362,1.708-0.295,2.677c0.195,2.826,1.661,6.176,3.153,8.943C443.136,221.147,443.82,222.288,444.392,223.201z"/>
	<path fill="#231F20" d="M461.108,212.502c-0.266,9.87,7.071,18.04,12.54,24.633c2.671,3.217,5.892,5.056,2.928,10.055
		c-4.782,1.82-12.521,7.024-19.17,5.887c-2.277-0.389-2.753-2.195-3.145-4.012c-0.164-0.761-0.317-1.52-0.577-2.181
		c-0.082-0.207-0.17-0.406-0.276-0.59c-2.432,3.199-1.478,8.042,1.025,10.219c11.717,1.158,19.691-3.836,26.841-8.431
		c-0.282-1.801,2.167-5.046,1.486-7.755c-0.236-0.932-2.356-2.283-3.645-3.691c-5.245-5.72-12.433-14.269-15.289-20.951
		C463.511,214.948,463.32,210.899,461.108,212.502z"/>
	<path fill="#231F20" d="M376.234,231.192c-0.334,0.176-0.649,0.402-0.947,0.663c-1.102,0.96-1.925,2.491-2.229,4.698
		c0.256-0.168,0.502-0.403,0.751-0.657c0.918-0.937,1.881-2.142,3.586-1.305c-1.901,3.715-1.447,10.951,1.142,13.3
		c-0.014-4.408-0.699-11.946,3.06-11.717c2.632,0.159,3.166,5.795,5.407,7.074c1.305-6.277-2.218-10.914-6.064-12.25
		C379.316,230.433,377.636,230.454,376.234,231.192z"/>
	<path fill="#231F20" d="M507.958,353.756c-6.806,0.2-12.123,2.003-15.157,6.281C498.322,360.39,502.3,354.889,507.958,353.756z"/>
	<path fill="#231F20" d="M495.744,363.463c4.68,0.385,10.099-0.361,14.712-0.85C506.494,361.247,497.959,360.08,495.744,363.463z"/>
	<path fill="#231F20" d="M495.497,369.846c4.929,0.414,11.373,0.517,16.558,0.404C508.691,368.685,498.412,366.715,495.497,369.846z
		"/>
	<path fill="#DDD9D9" d="M464.808,392.094c-0.243,5.777,0.568,15.042,0.841,21.103c3.84,0.005,5.487-0.84,8.353-1.807
		c0.324-7.131-2.257-13.729-3.001-20.24C469.482,390.744,466.697,392.219,464.808,392.094z"/>
	<path fill="#F0D6B8" d="M442.676,297.252c4.075,3.184,7.101,3.842,12.645,3.568c2.501-1.815,4.717-3.937,7.321-5.636
		c-5.993,0.536-13.539,4.258-19.474,1.613C443.152,297.111,442.743,296.997,442.676,297.252z"/>
	<path fill="#F7E4CD" d="M429.12,259.632c-0.91,1.216,0.979,7.85,0.979,7.85l1.829,0.367c-0.365-7.317,4.023-8.048,4.023-8.048
		C432.248,258.019,429.602,258.991,429.12,259.632z"/>
	<path fill="#6D6B6D" d="M393.571,241.324c1.242,14.721,2.218,14.011,2.218,14.011l13.035,1.33l2.039,0.177
		c0,0,2.306-0.886,0.976-1.951s-10.109-4.257-10.907-7.006c-0.396-1.362-2.403-7.322-4.339-13.321
		c-0.904-2.804-1.791-5.612-2.492-7.968c-0.241-0.886-0.498-1.754-0.672-2.511c-1.528-6.65,0.434-13.656,1.228-20.358
		c-7.479,3.995-14.681,7.829-21.359,11.373c-0.179,2.865,0.127,5.367,0.424,6.976c5.952-2.901,12.729-0.84,16.232,3.705
		c0.747,1.418,1.63,3.635,2.376,6.995c0,0.012,0.001,0.023,0.001,0.036c0.003,0,0.004,0,0.007-0.001
		c0.1,0.449,0.196,0.911,0.29,1.401C393.009,236.211,393.339,238.563,393.571,241.324z"/>
	<circle fill="#231F20" cx="454.771" cy="346.865" r="2.523"/>
	<path fill="#231F20" d="M462.231,339.295c1.394,0,2.523-1.13,2.523-2.523c0-0.067-0.015-0.131-0.02-0.197l-1.404,0.308
		l-0.148-0.923l1.307-0.293c-0.41-0.837-1.263-1.418-2.258-1.418c-1.394,0-2.523,1.13-2.523,2.523S460.838,339.295,462.231,339.295z
		"/>
	<polygon fill="#231F20" points="463.331,336.882 464.735,336.574 466.84,336.113 466.605,335.191 464.489,335.666 463.183,335.959 
			"/>
	<polygon fill="#231F20" points="462.597,345.029 462.746,345.951 468.391,344.643 468.156,343.721 	"/>
	<path fill="#231F20" d="M442.506,146.719c0.391-0.245,0.727-0.469,0.98-0.662l-16.529,8.545
		C432.977,151.581,438.356,148.857,442.506,146.719z"/>
	<path fill="#3B383A" d="M426.957,154.603l-1.955,1.01c5.158-2.431,13.934-6.655,17.504-8.894
		C438.356,148.857,432.977,151.581,426.957,154.603z"/>
	<path fill="#3B383A" d="M451.007,142.124c-0.586,0.443-7.521,3.934-7.521,3.934c-0.254,0.192-13.326,7.124-18.484,9.555
		l-3.873,2.002l-0.065,0.034c0,0-0.016-0.031-0.038-0.075c-26.015,13.007-59.463,29.428-59.463,29.428
		c-0.485,4.544,9.316,19.893,9.316,19.893l59.295-31.582l19.292-9.931c0.069-0.122,0.12-0.271,0.162-0.431l7.006-3.731
		C458.425,158.069,451.007,142.124,451.007,142.124z"/>
	<path fill="#231F20" d="M544.289,303.515l-0.872-0.951c-6.307-6.88-6.307-6.88-2.277-15.703l0.689-1.509l-1.068-0.722
		c-7.735-5.223-7.735-5.223-5.87-14.742l0.318-1.628l-1.208-0.453c-8.739-3.276-8.739-3.276-9.143-12.972l-0.069-1.653l-1.279-0.16
		c-9.263-1.154-9.263-1.154-11.913-10.484l-0.453-1.596l-1.281,0.144c-2.267,0.253-4.07,0.422-5.501,0.422
		c-4.057,0-4.775-1.174-8.363-7.561c1.331-16.588-0.368-33.774-6.252-45.666c-3.356-6.789-12.741-16.166-18.612-20.606
		c-1.339-1.013-2.791-1.936-4.331-2.776c20.968-11.381,36.579-19.972,38.859-21.475c7.646-5.041-0.491-7.952-0.491-7.952
		l-45.104,24.631c-3.453-10.247-20.726-43.821-20.726-43.821l-0.022,0.011c0.003,0.005,0.01,0.008,0.013,0.013
		c0.992,2.013-18.535,13.666-43.616,26.027c-24.933,12.29-45.96,20.649-47.181,18.769c0.563,1.565,14.518,40.216,21.128,48.372
		l-42.747,23.344c-3.105,3.423-0.173,5.282,6.641,2.858c0.88-0.313,4.296-2.01,9.564-4.724l1.193,0.483l-0.26,0.637l-0.727-0.295
		l-0.778,1.913l0.91,0.371l-0.806,1.989c-0.062,0.017-0.12,0.037-0.181,0.065c-0.4-0.569-1.227-0.745-1.771-0.88
		c0.285,0.622,0.372,0.44,1.209,0.653c-0.009,0.081-0.025,0.135-0.047,0.184l-1.062-0.432l-0.336,0.824l-0.455-0.185l-0.442,1.093
		l-0.913-0.37l-2.628,6.481l-2.372-0.962l-0.451,1.108c-1.406-0.639-2.704-1.306-3.773-1.995c-0.301,0.116-0.669,0.074-1.016,0.08
		c-2.369-0.83-3.904-1.928-5.99-2.59c-0.469-0.115-0.254-0.514-0.335-0.792c-0.363-0.217-0.344,0.471-0.649,0.389
		c-0.744-0.382-1.906-0.589-2.332-1.108c-0.85-0.007-2.418,0.37-2.902-0.52c-0.753,0.018-2.119-0.08-2.25-0.914
		c-0.064,0.303-0.207,0.429-0.451,0.31c0.271,0.271,0.502,0.562,0.612,0.903c0.202-0.079,0.401-0.164,0.594-0.25
		c0.425,0.467,0.847,0.21,1.013,0.737c1.732-0.319,2.041,2.334,3.371,2.188c-0.195,0.757-0.281,0.049-0.817-0.008
		c-0.6,0.231-1.132,0.631-1.862,0.556c0.148,0.289,0.436,0.514,0.475,0.849c-0.166,0.36-0.383-0.017-0.639,0.165l-0.717-0.288
		c-0.647-0.561-1.115-1.016-2.218-1.162c-0.054,0.106-0.047,0.188-0.011,0.256l-2.789-1.131l-0.382,0.937
		c-0.798-0.321-1.479-0.694-1.743-1.241c-0.291,0.135-0.772-0.167-1.182-0.315c-0.457-0.232-0.154-0.788-0.558-1.043
		c-0.273,0.087-0.462,0.374-0.623,0.729c-1.054-0.247-1.712-1.264-2.281-0.434c-0.753-0.869-1.54-0.638-2.507-0.689
		c0.826,0.67,1.051,1.242,2.277,1.25c-1.176,0.537-4.043-1.181-4.16-1.85c-0.436,0.27-1.314,0.605-1.691,0.132
		c-0.204,0.375-0.387,0.232-0.762,0.674c-2.102-1.114-3.964-1.95-5.1-0.755c-0.475-0.073-0.112-0.5-0.586-0.569
		c-1.736-0.12-3.092-1.404-4.87-1.32c0.707,1.187,3.62,0.859,4.131,2.331c0.435,0.204,0.62-0.183,1.097,0.119
		c0.354,1.638,1.933,2.234,4.045,2.95c-0.105,0.365,0.336,0.683-0.201,0.901c0.696,0.293,1.633,0.538,1.938,1.275
		c0.234-0.184,0.566-0.128,0.875-0.135c0.483,0.207,0.897,0.468,1.49,0.767c0.518,0.261,1.721,0.279,1.515,1.106
		c-0.155,0.518-0.919-0.477-1.21-0.655c-0.328,0.14-0.658,0.279-0.983,0.418c0.244,0.691,2.331,0.641,2.242,1.73
		c0.687,0.213,1.735,0.361,1.46,1.247c0.365,0.215,0.346-0.47,0.648-0.391c1.457,0.468,2.537,0.859,3.773,1.349l-0.152,0.371
		l2.9,1.177c-0.103,0.255-0.205,0.511-0.309,0.767c1.314,0.631,2.646,0.146,3.77,1.201c-0.309,0.282-0.836,0.053-1.213,0.163
		c-0.389,0.663,0.594,0.023,0.449,0.511c-0.146,0.662-0.873-0.047-1.129,0.36c-0.449,0.618,0.366,0.699,0.163,1.213
		c-1.148,0.426-2.403-0.694-3.94-0.779c-0.619-0.089-0.254-0.593-0.871-0.681c-0.367,0.476,0.391,0.661-0.203,0.902
		c0.564,0.498,0.652,0.161,1.155-0.025c0.829,0.496,0.986,1.039,1.913,0.939c0.477,0.606,1.158,1.125,1.998,1.579l-0.034,0.085
		l2.116,0.858c0.027,0.206,0.362,0.278,0.047,0.627c0.104-0.096,0.218-0.165,0.342-0.22l3.975,4.763l1.859,0.754
		c-0.174,0.097-0.35,0.174-0.507,0.039c-0.075,0.103-0.179,0.156-0.302,0.21c-0.106,0.053-0.252,0.125-0.369,0.319
		c0.008,0.115,0.1,0.128,0.076,0.272c0.029-0.238,0.117-0.422,0.26-0.552c0.213,0.038,0.292,0.036,0.378-0.011
		c-0.132,0.186-0.147,0.139-0.229,0.382c-0.105-0.021-0.125,0.039-0.208,0.041c0.031,0.19-0.093,0.242-0.126,0.378
		c-0.156,0.026-0.124-0.148-0.243-0.161c-0.121,0.049-0.19,0.151-0.303,0.212c0.128,0.098-0.055,0.333,0.181,0.336
		c-0.073,0.15-0.035,0.205-0.023,0.413c0.115,0.036,0.168,0.393,0.289,0.539c0.127-0.045,0.148,0.211,0.346,0.196
		c0.004,0.133,0.093,0.175,0.102,0.299l-0.058-0.023c0-0.001-0.001-0.002-0.001-0.003c0,0.001-0.002,0.001-0.002,0.002l-6.334-2.568
		l-0.113,0.272l6.086,2.47c-0.381-0.035-0.648-0.207-0.971-0.141c-0.092,0.02-0.536,0.186-0.68,0.258
		c-0.032,0.017-0.047,0.096-0.064,0.104c-0.236,0.107-0.468,0.122-0.781,0.193c-0.201,0.281-0.351,0.418-0.74,0.533
		c-0.119,0.296-0.551,0.592-0.249,0.929c0.059,0.064,0.048,0.021,0.106,0.135c0.059,0.111,0.197,0.14,0.211,0.267
		c0.1-0.032,0.04-0.051,0.031-0.136c0.095,0.042,0.212,0.056,0.244,0.166c0.033-0.005,0.026-0.044,0.035-0.07
		c0.035,0.109,0.214,0.196,0.246,0.267c0.012,0.035,0.021,0.218,0.006,0.273c-0.021,0.072-0.102,0.146-0.166,0.21
		c0.092,0.083-0.08,0.224,0.076,0.239c-0.121,0.215-0.064,0.676,0.058,0.852c0.11,0.059,0.248,0.091,0.313,0.199
		c0.168,0.042,0.22-0.103,0.342,0.058c0.023-0.351,0.332,0.071,0.373-0.181c0.121,0.082,0.197,0.213,0.381,0.229
		c0.003,0.113,0.007,0.228,0.009,0.344c0.119-0.114,0.152-0.003,0.106,0.134c0.076,0.096,0.186,0.154,0.348,0.161
		c-0.041-0.177-0.201-0.005-0.244-0.166c-0.012-0.09,0.135,0.089,0.1-0.07c0.104-0.082,0.206,0.132,0.343,0.025
		c0.06-0.04-0.034-0.187,0.101-0.105c-0.038-0.085-0.098-0.154-0.107-0.271c0.104,0.043,0.178,0.116,0.277,0.165
		c0.096-0.084,0.062-0.096,0.199-0.11c0.055,0.185,0.231,0.466,0.396,0.643c0.147-0.076,0.183,0.149,0.346,0.16
		c0.101,0.026,0.089-0.05,0.171-0.039c-0.008,0.061-0.057,0.079-0.135,0.073c0.224,0.183,0.617,0.439,0.676,0.908
		c0.027-0.042,0.046-0.042,0.064-0.028l0.002,0.065l-0.311,0.765l0.335,0.136l0.017,0.578l-1.377,3.393
		c-0.176,0.005-0.352,0.011-0.517,0.029c-0.071-0.017-0.12-0.061-0.14-0.129c-0.662,0.272-1.326,0.541-1.895,0.904
		c0.16,0.169,0.475,0.182,0.593,0.395c-0.37,0.151-0.687,0.351-0.978,0.574c-0.008,0.12,0.201,0.067,0.038,0.134
		c0.255,0.06,0.487,0.145,0.624,0.329c-0.379,0.084-0.561,0.356-0.947,0.434c0.031,0.11-0.051,0.109-0.1,0.14
		c0.133,0.153,0.407,0.158,0.523,0.328c0.033,0.078-0.107,0.139-0.168,0.176c-0.223,0.149-0.522,0.303-0.704,0.498
		c0.331,0.306,0.701,0.549,1.082,0.828c0.122,0.087,0.261,0.145,0.384,0.229c-0.036,0.19-0.245,0.206-0.369,0.283
		c-0.48,0.308-0.93,0.696-1.41,0.998c-0.048,0.012-0.001,0.058,0.034,0.066c0.008,0.074-0.12,0.018-0.171,0.039
		c0.543,0.433,1.219,0.729,1.779,1.15c-0.414,0.395-1.184,0.842-1.649,1.172c-0.069,0.052-0.195,0.123-0.235,0.179
		c-0.002,0.003,0.131,0.141-0.032,0.069c0.301,0.306,0.79,0.409,1.081,0.723c0.133,0.003,0.162,0.112,0.312,0.097
		c0.014,0.127,0.122,0.148,0.244,0.164c-0.303,0.235-0.596,0.482-0.906,0.709c-0.158-0.017-0.298,0.035-0.412,0.01
		c-0.154-0.036-0.145-0.142-0.246-0.234c-0.058-0.054-0.15-0.077-0.208-0.133c-0.134-0.123-0.308-0.365-0.491-0.463
		c0.061,0.3,0.48,0.522,0.637,0.838c-0.398-0.041-0.853,0.022-1.301-0.034c0.01-0.048,0.087-0.029,0.139-0.037
		c0.02-0.107-0.123-0.04-0.075-0.17c-0.122,0.039-0.198,0.125-0.337,0.144c0.022,0.047,0.074,0.062,0.139,0.066
		c-0.049,0.066-0.187,0.044-0.168,0.177c0.08,0.258,0.262,0.43,0.426,0.636c0.051,0.062,0.092,0.146,0.145,0.203
		c0.164,0.185,0.422,0.295,0.662,0.461c0.06,0.044,0.598,0.4,0.629,0.497c0.027,0.075-0.012,0.177,0.007,0.238
		c-2.05,0.071-3.646,0.079-5.44,0.111c-0.141,0.029,0.035-0.119-0.07-0.168c-0.133,0.006-0.133,0.143-0.238,0.178
		c-0.833-0.008-1.772,0.054-2.838,0.076c-0.669,0.012-1.505-0.063-2.191-0.011c-0.084,0.005-0.154,0.064-0.237,0.075
		c-0.416,0.052-0.975,0.019-1.137-0.177c-0.067-0.017-0.333,0.112-0.444-0.021c-0.033,0.024-0.156,0.132-0.1,0.137
		c-0.015,0.091-0.133-0.137-0.101,0.071c-0.463-0.036-0.966-0.035-1.472-0.029c-0.14-0.002-0.1-0.197-0.311-0.128
		c-0.014-0.258,0.068-0.422,0.052-0.687c-0.014-0.07-0.131-0.027-0.142-0.097c-0.249,0.197-0.309,0.572-0.352,0.968
		c-0.553-0.073-1.359,0.021-2.02-0.016c-0.072-0.005-0.148-0.038-0.206-0.028c-0.306,0.055-0.437,0.34-0.675,0.394
		c0.016,0.126,0.148,0.124,0.212,0.2c-0.095,0.195-0.372,0.227-0.469,0.423c-0.028,0.171,0.107,0.167,0.212,0.198
		c-0.142,0.195-0.488,0.226-0.504,0.426c-0.003,0.043,0.217,0.067-0.031,0.07c0.185,0.192,0.41,0.337,0.597,0.53
		c0.243-0.041,0.718-0.128,1.093-0.062c-0.059,0.319-0.659,0.127-0.988,0.197c-0.086,0.008-0.086-0.075-0.141-0.099
		c-0.219,0.202-0.497,0.35-0.668,0.6c0.047-0.003,0.092-0.003,0.139-0.004c-0.01,0.048-0.086,0.032-0.137,0.039
		c0.063,0.109,0.152,0.192,0.279,0.23c-1.363,0.065-2.956,0.077-4.281-0.091c-0.146,0.002-0.13-0.167-0.279-0.163
		c-0.18,0.048-0.389,0.075-0.402,0.286c-0.131,0.03-0.271,0.05-0.444,0.043c-0.173-0.32-0.452-0.53-0.604-0.873
		c-0.425-0.021-0.446-0.469-0.802-0.562c-0.522,0.162-0.567,0.776-0.718,1.285c-0.895,0.164-1.541,0.504-2.063,1.013
		c-0.257,0.255-0.422,0.598-0.697,0.842c0.026,0.169-0.071,0.219-0.093,0.346c-0.081,0.002-0.16,0.002-0.238,0.005
		c-0.029,0.125,0.137,0.045,0.206,0.062c-0.029,0.243-0.19,0.167-0.371,0.181c-0.504,0.044-0.915,0.04-1.265,0.033
		c-0.09-0.012-0.16-0.041-0.209-0.096c-0.08,0.014-0.016,0.161-0.133,0.142c-0.29-0.034-0.418-0.24-0.627-0.362
		c-0.16,0.106,0.007,0.314-0.266,0.316c0.051,0.054-0.022,0.2,0.01,0.344c-0.176-0.002-0.105,0.229-0.339,0.178
		c0.003,0.091,0.006,0.183,0.009,0.274c-0.105-0.096-0.117,0.085-0.273,0.041c-0.02-0.06-0.02-0.142-0.072-0.17
		c0.066-0.046,0.143,0.084,0.203-0.072c-0.039-0.081-0.172-0.079-0.204,0.005c-0.202-0.211-0.742-0.155-0.749,0.19
		c-0.146,0-0.207-0.087-0.246-0.2c-0.057,0.044-0.227-0.02-0.377,0.009c-0.102,0.027-0.09,0.16-0.164,0.211
		c-0.449,0.091-0.722-0.015-1.162,0.064c-0.048,0.016-0.002,0.062,0.036,0.068c-0.011,0.086-0.133,0.003-0.104-0.066
		c-0.182,0.003-0.364,0.01-0.547,0.015c0.072,0.078,0.284,0.004,0.411,0.021c0.067,0.068-0.274,0.03-0.374,0.045
		c0.041,0.092,0.301,0.032,0.408-0.013c0.258,0.13,0.437-0.005,0.516,0.092c0.116-0.04-0.094-0.008-0.036-0.104
		c0.095-0.006,0.177-0.009,0.104,0.067c0.174,0.008,0.196-0.064,0.207,0.029c0.232-0.021,0.298,0.041,0.406-0.079
		c0.174,0.098,0.365,0.179,0.49,0.327c0.16-0.088,0.257-0.145,0.301-0.279c0.172-0.03,0.215,0.073,0.244,0.199
		c0.06-0.058,0.297,0.069,0.241,0.127c0.173,0.015,0.347-0.096,0.446-0.042c-0.045-0.057-0.061-0.186,0.025-0.342
		c0.117,0.011,0.19-0.02,0.271-0.042c-0.045,0.304,0.255,0.249,0.221,0.543c0.049,0.072,0.146,0.101,0.209,0.164
		c0.027,0.112-0.068,0.057-0.102,0.035c-0.029,0.153,0.4,0.146,0.177,0.27c0.153,0.089,0.353,0.123,0.554,0.156
		c0.076-0.063,0.21-0.067,0.201-0.21c0.431-0.074,0.896-0.024,1.367-0.069c0.133-0.026,0.101,0.126,0.24,0.093
		c-0.048-0.141,0.164-0.055,0.311,0.027c0.002,0.101,0.005,0.205,0.008,0.308c0.078,0.038,0.252,0.302,0.145,0.303
		c0.297,0.077,0.201,0.564,0.562,0.568c0.002,0.059,0.002,0.116,0.005,0.173c0.263,0.005,0.263,0.285,0.555,0.259
		c0.001,0.044,0.001,0.09,0.003,0.137c0.322,0.271,0.716,0.316,1.111,0.55c0.197-0.014,0.379,0.074,0.547-0.014
		c-0.01,0.188,0.062,0.285,0.148,0.374c0.002,0.278,0.081,0.474,0.252,0.576c0.046,0.043,0.047,0.124,0.005,0.17
		c0.31,0.413,0.726-0.038,0.884-0.265c0.026-0.035,0.018-0.021-0.035-0.031c-0.007-0.074,0.119-0.021,0.17-0.039
		c0.144-0.163,0.357-0.263,0.363-0.558c0.222-0.056,0.357-0.193,0.468-0.354c0.2-0.026,0.333,0.023,0.479,0.055
		c0.004,0.058,0.004,0.113,0.006,0.17c0.145,0.024,0.276,0.062,0.447,0.058c0.049-0.032,0.129-0.028,0.098-0.139
		c0.3,0.028,0.516-0.187,0.818-0.193c0.137-0.003,0.27,0.088,0.412,0.091c0.354,0.014,0.746-0.111,1.125-0.132
		c0.503-0.027,1.178,0.091,1.748,0.056c0.031,0.14-0.01,0.215-0.096,0.244c0.113,0.245,0.386,0.319,0.529,0.531
		c-0.047,0.217-0.325,0.29-0.4,0.423c-0.01,0.014,0.114,0.146-0.033,0.07c0.049,0.17,0.312,0.115,0.318,0.333
		c0.135-0.081,0.168,0.079,0.276,0.129c-0.024,0.144-0.123,0.219-0.269,0.245c-0.052,0.102,0.062,0.146-0.099,0.142
		c0.074,0.158,0.278,0.178,0.419,0.262c0.008,0.181,0.148,0.218,0.18,0.373c0.145,0.093,0.379,0.094,0.418,0.296
		c0.211-0.056,0.213,0.106,0.346,0.129c0.469-0.22,1.6-0.096,2.326-0.199c0,0.068,0.002,0.136,0.004,0.205
		c0.051,0.039,0.168,0.309,0.075,0.271c0.113,0.168,0.235,0.228,0.148,0.443c0.046,0.04,0.196-0.009,0.273-0.044
		c-0.013-0.221-0.071-0.392-0.087-0.613c0.057-0.123,0.212-0.155,0.269-0.282c0.393,0.182,1.263-0.127,1.716,0.198
		c0.181-0.122,0.396-0.02,0.506-0.221c0.83-0.056,1.533,0.048,2.295,0.008c0.125-0.006,0.25-0.076,0.375-0.079
		c0.011,0.002,0.098,0.064,0.098,0.064c0.152,0.017,0.361-0.045,0.52-0.049c0.939-0.005,2.018-0.021,3.217-0.014
		c0.052-0.02,0.002-0.037-0.035-0.035c0.105-0.065,0.201,0.044,0.411,0.025c0.076-0.007,0.154-0.074,0.169-0.072
		c0.078-0.003-0.055,0.043,0.07,0.067c0.245,0.042,0.531-0.056,0.822-0.058c1.498-0.015,3.323-0.055,5.035-0.09l0.016,0.678
		c-0.502,0.271-0.985,0.514-1.487,0.823c0.493,0.336,1.011,0.65,1.535,0.957l0.027,0.983c-0.11,0.101-0.212,0.207-0.376,0.253
		c-0.016,0.116-0.178,0.119-0.27,0.214c-0.01,0.01-0.023,0.099-0.031,0.103c-0.02,0.013-0.119,0.009-0.17,0.039
		c-0.052,0.029-0.4,0.308-0.4,0.353c-0.002,0.075,0.289,0.258,0.384,0.331c0.144,0.108,0.278,0.229,0.384,0.299
		c0.014,0.008,0.028,0.015,0.039,0.022l-0.469,0.013l0.037,1.351c-0.045,0.029-0.088,0.071-0.113,0.099
		c0.036,0.031,0.078,0.056,0.117,0.082l1.324,3.291l0.679-0.021l2.162,4.84l4.204-0.108l0.027,1.013l-3.322,0.09l-3.5,3.69
		l0.039,1.494l-0.406,0.011l0.025,0.949l-4.001,4.029l2.127,10.435l13.355-1.196l0.021,0.68l-3.57,0.517l0.216,1.652l-1.718,0.458
		l0.585,2.832l-7.915,1.808l4.002,16.616l16.02-3.054l1.26-0.138l-0.634,1.238l1.996,3.199c0.077,0.105,0.15,0.207,0.229,0.31
		l-1.098,2.139l1.274,3.615l-0.25,0.485l2.006,1.03c1.056,1.443,1.325,3.272,2.387,4.71l-0.155,0.301l-2.535,4.931l0.965,0.496
		l-0.745,1.448l0.967,0.497l-1.984,3.86l0.603,0.309l1.985-3.859l0.481,0.247l0.187-0.361l0.966,0.497l0.175,0.549l1.33,0.682
		l-1.801,3.498l0.482,0.248l1.863-3.617l0.847,0.432l0.992-1.93l1.565,0.807l0.21-0.409c8.886,11.93,17.763,23.728,26.297,35.733
		c0.002,0.736,0.124,1.437,0.143,2.166c-0.268-0.379-0.729-0.32-1.001-0.096c-0.315,1.392,1.046,2.92,1.825,4.396
		c0.798,1.512,1.559,3.086,2.201,4.483c0.551,0.135,0.842-0.532,1.259-0.818c-0.358-11.918-0.641-23.862-0.962-35.793l0.359-0.699
		c2.465,1.233,4.986,2.5,7.598,3.631l-4.546,8.84l0.602,0.31l-0.497,0.966l-0.372,0.726l1.328,0.683l-0.68,1.325l2.531,1.305
		l0.622-1.208l0.604,0.311l0.496-0.966l0.725,0.374l0.496-0.965l0.723,0.373l4.404-8.571l0.726,0.374l0.604-1.176
		c3.472,0.865,7.122,1.263,11.014,0.848c2.886,9.698,5.612,20.028,9.075,28.522c12.409,4.462,31.997,3.766,44.896,2.214
		c3.923-0.474,8.061-2.409,8.982-5.81c-0.275-2.097-0.582-4.167-0.452-6.647c4.035-0.835,9.526-1.524,10.414-5.986
		c1.242-6.264-3.955-15.233-2.222-22.103c2.336-0.759,4.829-1.35,4.455-5.035c3.938-2.048,8.604-2.509,13.585-2.316
		c0.642,1.242,1.555,2.434,2.378,3.117c6.979,1.402,13.737,1.518,19.531-0.374c6.561-2.142,9.69-15.555,8.189-21.937
		c-0.552-2.343-1.464-5.46-2.5-8.529c0.769-0.166,1.598-0.339,2.544-0.533l1.624-0.335l-0.047-1.288
		c-0.342-9.326-0.342-9.326,8.443-13.433l1.504-0.703l-0.347-1.243c-2.506-8.991-2.506-8.991,5.083-15.032l1.296-1.032l-0.626-1.128
		c-4.53-8.158-4.53-8.158,1.445-15.802L544.289,303.515z M316.572,269.483c-0.072-0.052,0.082-0.164,0.097-0.242
		c0.132-0.022,0.142,0.083,0.241,0.096C316.778,269.377,316.664,269.498,316.572,269.483z M316.881,269.543
		c0.02-0.027,0.035-0.057,0.032-0.103c0.081,0.031,0.168,0.053,0.276,0.06C317.152,269.58,316.975,269.518,316.881,269.543z
		 M317.536,269.628c0.04,0.016,0.069,0.043,0.07,0.103C317.533,269.748,317.539,269.683,317.536,269.628z M317.801,269.348
		c-0.113,0.004-0.227,0.005-0.34,0.008c0.005-0.169,0.32-0.05,0.264-0.279c0.066,0.037,0.166,0.035,0.143,0.166
		C317.728,269.2,317.776,269.235,317.801,269.348z M318.132,270.127c0.064-0.116,0.133-0.116,0.136,0.063
		C318.159,270.235,318.183,270.14,318.132,270.127z M318.791,269.321c-0.041-0.083-0.121-0.128-0.109-0.27
		C318.773,269.083,318.8,269.186,318.791,269.321z M318.771,269.734C318.9,269.879,318.678,269.864,318.771,269.734L318.771,269.734
		z M319.139,268.114c-0.023,0.001-0.047,0-0.07,0.002c0.006-0.028-0.013-0.033-0.034-0.033
		C319.017,268.018,319.188,268.028,319.139,268.114z M319.641,262.556c0.072,0.072,0.108-0.035,0.172,0.028
		c0.03,0.099-0.046,0.091-0.031,0.174c-0.071-0.075-0.098,0.044-0.201,0.04C319.602,262.72,319.604,262.62,319.641,262.556z
		 M319.818,262.824c-0.035,0.033-0.006,0.128-0.098,0.107C319.709,262.855,319.744,262.822,319.818,262.824z M319.449,263.039
		c0.002,0.045,0.001,0.092,0.002,0.138c0.148-0.106,0.193-0.11,0.375-0.079c0.064,0.027-0.021,0.04-0.068,0.036
		c-0.004,0.081-0.17,0.189-0.266,0.283c-0.023-0.075,0.084-0.178-0.176-0.133C319.303,263.146,319.323,263.043,319.449,263.039z
		 M319.062,263.939c-0.002-0.045-0.004-0.091-0.006-0.136c0.107,0.022,0.069,0.021,0.172-0.004
		C319.163,264.047,319.209,263.832,319.062,263.939z M319.391,263.453c0.029,0.162-0.033,0.237-0.023,0.376
		C319.233,263.722,319.182,263.519,319.391,263.453z M319.363,270.231c-0.023-0.135,0.098-0.131,0.133-0.21
		c0.079,0.046,0.172,0.074,0.144,0.236C319.523,270.276,319.448,270.249,319.363,270.231z M319.575,270.463
		c-0.001-0.021-0.001-0.044-0.001-0.064c0.023-0.001,0.045-0.002,0.068-0.002c0.001,0.021,0,0.045,0.003,0.067
		C319.621,270.462,319.6,270.464,319.575,270.463z M319.531,263.585c-0.066,0.014,0.141-0.257,0.266-0.283
		c0.082,0.046,0.021,0.238,0.145,0.238C319.816,263.757,319.638,263.385,319.531,263.585z M361.562,187.001
		c0,0,33.448-16.421,59.463-29.428c0.022,0.044,0.038,0.075,0.038,0.075l0.065-0.034l3.873-2.002l1.955-1.01l16.529-8.545
		c0,0,6.935-3.491,7.521-3.934c0,0,7.418,15.945,5.627,19.096l-7.006,3.731c-0.042,0.16-0.093,0.309-0.162,0.431l-19.292,9.931
		l-59.295,31.582C370.879,206.894,361.077,191.546,361.562,187.001z M393.429,224.085c0.174,0.757,0.431,1.625,0.672,2.511
		c0.701,2.356,1.588,5.164,2.492,7.968c1.936,6,3.943,11.959,4.339,13.321c0.798,2.749,9.577,5.941,10.907,7.006
		s-0.976,1.951-0.976,1.951l-2.039-0.177l-13.035-1.33c0,0-0.976,0.709-2.218-14.011c-0.232-2.761-0.562-5.113-0.944-7.112
		c-0.094-0.49-0.19-0.953-0.29-1.401c-0.003,0-0.004,0.001-0.007,0.001c0-0.012-0.001-0.023-0.001-0.036
		c-0.746-3.36-1.629-5.577-2.376-6.995c-3.503-4.545-10.28-6.606-16.232-3.705c-0.442,0.215-0.882,0.451-1.313,0.722
		c-0.176-2.133-0.388-4.527-0.471-6.976c0.448-0.238,0.907-0.481,1.36-0.722c6.679-3.544,13.88-7.378,21.359-11.373
		C393.862,210.429,391.9,217.435,393.429,224.085z M370.59,216.535c-0.013,0.025-0.025,0.051-0.037,0.077l0.002-0.058
		C370.566,216.547,370.578,216.542,370.59,216.535z M368.041,237.779c0.338-6.445,5.787-12.613,13.239-11.798
		c4.028,0.441,6.691,3.962,8.18,7.882c0.436,1.147,0.771,2.325,1.01,3.473c0.105,5.163,3.279,18.531,3.279,18.531
		c1.064,0.975,13.479,3.546,17.824,2.926c4.345-0.62,2.127-4.611,0.887-5.409c-1.241-0.798-7.36-3.193-9.488-5.676
		c-2.129-2.483-4.756-12.786-4.756-12.786c-0.603-5.667-2.89-10.417-2.705-15.729c0.162-4.677,1.438-9.139,2.321-13.573
		c0.261-1.312,0.484-2.621,0.637-3.932c0.415-0.222,0.827-0.442,1.243-0.665c18.333-9.803,37.926-20.34,55.237-29.706
		c1.058-0.572,2.106-1.139,3.146-1.702c1.438,0.567,2.804,1.27,4.034,2.13c0.207,0.157,0.412,0.331,0.613,0.512
		c0.433,0.389,0.843,0.823,1.17,1.288c0.489,0.686,0.865,1.444,1.114,2.247c0.248,0.802,0.399,1.641,0.435,2.486
		c0.018,0.421,0.011,0.844-0.029,1.25c-0.042,0.407-0.099,0.804-0.212,1.026c-0.012-0.056-0.062,0.079-0.158,0.184
		c-0.082,0.109-0.195,0.226-0.312,0.342c-0.244,0.231-0.542,0.452-0.861,0.645c-0.645,0.382-1.381,0.638-2.09,0.745
		c-0.712,0.099-1.389,0.051-1.975-0.122c-0.592-0.168-1.108-0.449-1.624-0.847c-0.244-0.19-0.518-0.459-0.733-0.671l-0.238-0.268
		l-0.13-0.155c-0.086-0.116-0.194-0.244-0.264-0.35c-0.153-0.218-0.226-0.386-0.266-0.418c-0.037-0.04-0.116-0.001-0.1-0.131
		c0.039-0.259,0.679-0.757,1.415-1.034c0.683-0.256,1.469-0.436,2.288-0.539c0.094,0.12,0.202,0.247,0.287,0.368
		c0.101,0.148,0.18,0.305,0.264,0.469c0.076,0.167,0.128,0.345,0.179,0.54l0.434,0.062c0.199-0.415,0.272-0.918,0.24-1.396
		c-0.021-0.484-0.133-0.934-0.226-1.344l-0.061-0.269l-0.607-0.223c-1.02-0.374-2.126-0.594-3.301-0.548
		c-1.158,0.077-2.495,0.239-3.769,1.466c-0.623,0.607-1.087,1.611-1.112,2.552c-0.057,0.951,0.199,1.736,0.482,2.387
		c0.147,0.332,0.299,0.619,0.483,0.91l0.298,0.44l0.223,0.303c0.221,0.29,0.41,0.493,0.625,0.74c0.236,0.221,0.456,0.45,0.718,0.65
		c0.995,0.842,2.284,1.45,3.611,1.66c1.331,0.236,2.653,0.061,3.838-0.296c1.187-0.374,2.254-0.948,3.213-1.684
		c0.48-0.369,0.933-0.783,1.348-1.275c0.208-0.249,0.408-0.508,0.592-0.81c0.184-0.295,0.346-0.604,0.518-1.113
		c0.199-0.706,0.206-1.298,0.216-1.864c0-0.57-0.043-1.126-0.118-1.678c-0.153-1.101-0.441-2.186-0.901-3.206
		c-0.229-0.515-0.499-1.013-0.807-1.487c-0.303-0.465-0.641-0.906-1.012-1.315c-0.134-0.146-0.273-0.281-0.412-0.417
		c0.597,0.308,1.183,0.619,1.743,0.935v0c1.023,0.577,2,1.247,2.945,1.976c3.329,2.567,6.211,5.954,8.889,9.395
		c1.406,1.807,2.759,3.626,4.091,5.345c-5.811-1.725-10.823,0.791-11.01,5.202c-0.02,0.474-0.001,0.963,0.096,1.478
		c5.388-4.937,14.59-0.054,17.31,5.404c2.604,5.22,2.587,12.952,2.986,20.711c0.969,18.812-3.441,38.223-12.896,51.821
		c-2.527,3.631-4.649,7.599-8.203,10.099c-3.49,2.451-7.727,4.797-12.269,6.478c0.527-1.084,1.17-2.921,1.125-3.407
		c-0.169-1.818-0.779-4.607-2.267-5.854c-0.771-0.648-0.143-2.278-0.455-3.057c-0.313-0.796-0.148-1.81-0.56-2.671
		c-0.975-2.045-1.754-2.003-3.919-1.724c-1.279,2.203-2.548,4.412-3.976,6.525c-2.222,3.288-6.998,4.102-8.85,7.742
		c0.431,0.015,1.951-0.097,2.201,0.319c0.227,0.381,0.986-0.049,0.986,0.637c0,0.419,0.079,1.095,0.199,1.497
		c0.971,3.244,2.509,0.356,4.966,0.417c0.408,0.01,1.21,0.797,1.21,1.207c0,0.323,0.451,0.433,0.802,0.547
		c-4.026,0.541-8.089,0.362-11.93-0.926c-14.733-4.945-21.428-14.761-29.53-26.002c0.22,6.174,4.563,11.242,8.851,15.966
		c3.731,4.118,8.236,8.769,13.081,10.688c-4.042-0.949-10.246-1.248-11.931,2.38c-3.233-0.215-6.382-0.475-9.312-0.974
		c-5.616-0.957-10.412-2.806-13.343-7.007c-3.516-5.039-7.087-13.604-8.688-20.223c-0.327-1.359-0.888-4.258-0.751-5
		c0.526-2.871,5.642-4.132,3.629-8.146c-3.711-0.035-4.55,3.38-7.956,3.716c-3.256,0.322-6.156-1.19-8.502-3.604
		C370.172,249.321,367.788,242.561,368.041,237.779z M456.308,341.928c1.812,3.366,3.511,8.996,4.169,9.983
		c-14.73,0.404-37.698,0.17-52.528,1.757c-1.034,0.111-2.031,0.23-2.981,0.359c-1.625-2.519-3.095-6.549-5.418-9.396
		c-0.169-0.207-0.331-0.425-0.51-0.618c-0.202-0.141-0.394-0.298-0.587-0.45c-0.743-0.586-1.429-1.247-2.056-1.961
		c-2.791-3.176-4.514-7.222-5.876-8.693c-0.012-0.012-0.021-0.019-0.033-0.03c-0.004-0.035-0.006-0.056-0.006-0.056
		s-3.396-14.813-24.624-24.426c-2.461-1.115-5.16-2.159-8.123-3.102c2.384-1.119,5.505-1.499,7.953-3.191
		c7.335-5.069,16.601-9.687,24.505-12.804c0.39-0.153,1.816,1.324,3.407,3.13c2.175,2.469,4.659,5.558,5.233,5.967
		c5.451,3.872,12.223,6.93,18.557,9.948c0.386,2.906,1.284,6.671,2.859,11.71c1.738,5.562,3.173,13.415,10.525,9.406
		c6.889-3.047,18.702-10.656,19.828-6.951c0.706,2.324,4.34,4.441,4.498,7.569c0.658,0.987-0.658,2.414-0.768,4.608
		C454.213,337.086,454.771,339.075,456.308,341.928z M404.165,295.288c3.094,2.148,9.081,1.621,13.636,2.421
		c0.165,1.011-0.347,2.244-0.672,3.581c-0.144,0.593-0.255,1.204-0.248,1.829c-2.884-0.177-10.402-2.695-12.617-5.301
		C403.531,296.957,403.378,296.086,404.165,295.288z M455.32,300.82c-5.544,0.274-8.569-0.384-12.645-3.568
		c0.067-0.255,0.477-0.142,0.492-0.455c5.935,2.645,13.48-1.078,19.474-1.613C460.037,296.884,457.821,299.005,455.32,300.82z
		 M451.347,311.791c-0.128-0.729-0.26-1.328-0.385-1.863c-0.403-1.734-0.726-2.74-0.541-4.799c1.354-0.903,2.523-1.246,3.499-1.214
		C458.877,304.077,458.744,314.104,451.347,311.791z M447.82,305.029c-0.018,0.469-0.038,0.941-0.055,1.415
		c-1.938,1.273-5.065,1.258-7.193,2.327c3.136,0.138,5.603,0.893,7.738,1.956c-0.005,0.127-0.01,0.253-0.015,0.38
		c-0.042,1.056-0.083,2.112-0.124,3.168c-3.552,2.431-6.795,6.051-10.977,8.331c-1.978,1.078-8.915,3.853-11.019,3.362
		c-0.953-0.222-1.213-1.215-1.522-2.316c-0.076-0.273-0.155-0.552-0.25-0.829c-0.081-0.238-0.183-0.506-0.278-0.766
		c-1.107-2.989-3.086-7.318-3.273-11.447c-0.017-0.354-0.033-0.724-0.051-1.104c-0.254-5.709-0.399-13.991,5.327-12.895
		c4.928,0.939,10.659,3.21,14.475,5.294C442.935,303.181,444.282,304.756,447.82,305.029z M454.245,322.81
		c-1.038-1.764-2.714-3.426-5.755-4.502c0.689-0.73,1.305-1.542,1.981-2.29c2.956,1.236,4.885-1.62,7.155-1.376
		c2.604,0.276,4.666,3.872,8.383,3.637c-1.111,0.53-1.761,1.305-2.153,2.21c-1.587,3.657,1.082,9.487-4.854,10.335
		C455.772,330.704,456.433,326.528,454.245,322.81z M462.71,313.372c-0.657-0.157-1.304-0.324-1.938-0.503
		c0.335-2.013-0.291-3.987,0.211-5.437c1.368-0.985,3.662-0.97,5.729-1.201c-1.788-0.88-4.302-1.227-6.365-0.719
		c-0.048-1.396-0.674-2.263-1.054-3.355c0.218-0.078,0.454-0.183,0.708-0.311c3.796-1.913,11.307-8.93,15.65-6.394
		c0.897,0.523,1.582,2.054,2.094,3.92c0.746,2.721,1.121,6.161,1.222,8.279c0.144,2.962-0.268,5.951-1.475,7.521
		C472.09,315.014,467.14,314.434,462.71,313.372z M343.585,230.712c3.422-1.765,7.584-3.937,12.339-6.434
		c-0.917,0.938-1.82,1.888-2.698,2.862c-0.264,0.293-2.25,2.187-4.901,4.715l-3.591-1.457l-0.271,0.67L343.585,230.712z
		 M343.317,374.677c-0.874-1.188-0.959-2.758-1.837-3.944l0.338,0.177c0.797,1.063,0.804,2.514,1.596,3.58L343.317,374.677z
		 M343.503,374.312c-0.535-0.729-0.286-1.844-0.822-2.57c-0.157-0.212-0.315-0.424-0.475-0.635l1.35,0.695l0.25-0.483l0.367,0.977
		c0.07,0.1,0.145,0.197,0.217,0.294L343.503,374.312z M348.757,339.313l-10.634-4.54l-0.229,0.128l1.947-11.446l-9.284-6.893
		l-0.251,0.071l4.559-10.679l-7.424-8.863l-0.263,0.011l6.921-9.325l-5.154-10.349l-0.258-0.051l8.9-7.455l-2.602-11.265
		l-0.241-0.11l10.395-5.178l0.091-11.562l-0.206-0.161l11.312-2.615l2.781-11.223l-0.164-0.206l5.961,0.046
		c-0.01,0.021-0.027,0.045-0.035,0.064c-0.731,1.744-1.207,3.593-1.474,5.487c-0.67,4.767,0.012,9.819,1.423,14.241
		c0.964,3.02,2.263,5.748,3.714,7.875c2.615,3.833,6.913,7.236,12.566,8.245c0.124,0.022,0.245,0.05,0.371,0.07
		c0.008,0.111,0.021,0.217,0.029,0.327c0.207,2.651,0.776,5.044,1.775,7.619c0.266,0.686,0.555,1.38,0.883,2.102
		c0.604,1.327,2.187,3.283,3.087,5.25c0.605,1.323,0.899,2.65,0.376,3.797c-0.012,0.026-0.017,0.054-0.029,0.08
		c-0.278,0.566-1.409,1.394-2.801,2.263c-1.365,0.854-2.976,1.746-4.297,2.478c-0.761,0.422-1.429,0.793-1.886,1.067
		c-1.336,0.801-2.586,1.532-3.804,2.24c-2.755,1.602-5.284,3.044-7.826,4.605c-2.189,1.344-4.398,2.785-6.802,4.515
		c-1.546,1.112-3.414,1.864-5.1,2.725c-2.85,1.454-5.177,3.218-4.532,7.556c0.029,0.196,0.08,0.405,0.116,0.605
		c0.404,2.255,1.203,4.73,2.102,7.209c0.881,2.434,1.834,4.854,2.559,7.05c0.025,0.077,0.056,0.16,0.081,0.237
		c0.796,2.442,1.758,4.785,2.692,7.146c0.994,2.512,1.957,5.044,2.653,7.74c0.02,0.075,0.033,0.149,0.053,0.225
		c0.876,3.429,1.534,6.797,2.063,10.138c0.657,4.146,1.107,8.249,1.45,12.354l-3.203-10.299l-11.398-1.94l-0.193,0.18
		L348.757,339.313z M365.292,381.108c0.002,0.064,0.007,0.124,0.009,0.188c-0.265-0.284-0.449-0.762-0.794-1
		C364.889,380.35,365.062,380.755,365.292,381.108z M364.555,379.663l0.683-1.328c0.009,0.793,0.018,1.572,0.038,2.317
		C365.034,380.322,364.797,379.993,364.555,379.663z M365.314,381.564c0.074,1.578,0.25,2.965,0.661,4.017
		c-0.878-1.184-1.755-2.368-2.634-3.56l0.945-1.838C364.631,380.644,364.972,381.104,365.314,381.564z M369.479,395.611l0.165-0.323
		c0.209,0.283,0.415,0.568,0.629,0.856l-0.011,0.021l0.039,0.021c0.932,1.271,1.884,2.571,2.815,3.829
		c0.61,0.825,1.416,1.703,1.639,2.309c0.352,0.947-0.016,2.011,0.173,3.127c-2.799-3.758-5.568-7.567-8.333-11.387l0.98,0.504
		l-0.027,0.051L369.479,395.611z M370.438,395.82l-0.08,0.156c-0.209-0.289-0.418-0.571-0.628-0.857l0.052-0.099l0.105,0.053
		C370.069,395.321,370.253,395.57,370.438,395.82z M370.198,395.235l0.429,0.219l-0.108,0.212
		C370.413,395.521,370.305,395.378,370.198,395.235z M373.644,397.602l0.149-0.293l0.364,0.187c0.132,0.178,0.265,0.358,0.396,0.536
		c-0.084,1.042,0.077,2.006,0.133,3c-0.428-0.056-0.598-0.539-0.823-0.844c-0.871-1.177-1.751-2.367-2.624-3.548l0.29-0.57
		l0.605,0.313l-0.181,0.349L373.644,397.602z M372.302,398.338c0.831,1.127,1.8,2.222,2.376,3.528
		c-1.344-1.837-2.689-3.671-4.034-5.504l0.316,0.162C371.405,397.129,371.854,397.735,372.302,398.338z M375.419,413.872
		c-7.934-11.144-16.062-22.243-24.295-33.314l0.823-1.601c7.862,10.611,15.637,21.251,23.34,31.915
		C375.171,411.923,375.504,412.83,375.419,413.872z M350.921,380.957l0.107-0.207c7.196,9.77,14.327,19.561,21.434,29.298
		c1.066,1.463,2.19,2.944,2.989,4.574C367.315,403.475,359.167,392.207,350.921,380.957z M375.529,415.081
		c0.047,1.046,0.216,2.054,0.174,3.127c-8.479-11.693-17.135-23.485-25.813-35.248l0.918-1.781
		C359.246,392.507,367.568,403.829,375.529,415.081z M352.043,378.774l0.113-0.22c6.826,9.219,13.583,18.48,20.266,27.701
		c0.981,1.356,2.129,2.613,2.784,4.155C367.542,399.848,359.828,389.299,352.043,378.774z M375.093,409.617
		c-7.616-10.392-15.137-20.88-22.824-31.282l0.819-1.593c3.616,4.869,7.21,9.743,10.789,14.624l-0.832,1.62l1.813,0.931l0.365-0.716
		c3.286,4.483,6.56,8.97,9.817,13.461c-0.004,0.991,0.132,1.94,0.175,2.917C375.195,409.655,375.143,409.641,375.093,409.617z
		 M365.298,388.605c-1.986-2.686-3.982-5.37-5.979-8.064l3.668,1.886c1.079,1.458,2.167,2.914,3.241,4.367L365.298,388.605z
		 M366.376,393.341l-0.13,0.247c-0.118-0.166-0.239-0.332-0.357-0.497L366.376,393.341z M365.219,388.762l-0.066,0.128
		c-2.117-2.876-4.235-5.749-6.363-8.622l0.221,0.115C361.081,383.176,363.149,385.97,365.219,388.762z M365.074,389.041
		l-0.881,1.716c-0.865-1.193-1.731-2.387-2.601-3.579c-2.119-2.908-4.242-5.837-6.391-8.752l3.238,1.662
		C360.65,383.05,362.862,386.029,365.074,389.041z M356.688,373.005c-0.179-0.243-0.359-0.486-0.539-0.729l0.712-1.389l0.714,0.369
		c0.004,0.003,0.007,0.005,0.01,0.008L356.688,373.005z M356.519,373.33l-0.001,0.012c-0.201-0.231-0.378-0.47-0.554-0.709
		l0.066-0.127C356.229,372.785,356.405,373.078,356.519,373.33z M356.402,373.559l-0.753,1.467l-0.176,0.341
		c-0.081-0.109-0.162-0.221-0.244-0.328c-0.099-0.134-0.196-0.267-0.297-0.4l0.93-1.804
		C356.042,373.076,356.225,373.318,356.402,373.559z M355.035,375.042c0.121,0.16,0.239,0.321,0.357,0.479l-0.055,0.107
		c-0.145-0.194-0.29-0.389-0.434-0.582c-0.035-0.049-0.07-0.096-0.106-0.144l0.056-0.108
		C354.915,374.877,354.975,374.96,355.035,375.042z M355.243,375.817l-0.809,1.57c-0.18-0.242-0.361-0.483-0.541-0.724l0.805-1.571
		C354.879,375.335,355.062,375.575,355.243,375.817z M354.288,377.674l-0.112,0.223l0.451,0.231
		c3.191,4.275,6.349,8.559,9.453,12.848l-0.097,0.187c-3.59-4.861-7.205-9.739-10.807-14.595l0.103-0.197l0.059,0.03
		C353.656,376.823,353.97,377.249,354.288,377.674z M374.922,406.077c-3.143-4.319-6.351-8.692-9.589-13.086l0.076-0.146
		l0.051,0.025c0.225,0.311,0.455,0.621,0.678,0.932l-0.013,0.021l0.046,0.023C369.101,397.939,372.277,401.841,374.922,406.077z
		 M366.341,386.58c-1.05-1.433-2.098-2.855-3.143-4.275l0.027-0.057c1.061,1.381,2.117,2.778,3.181,4.199L366.341,386.58z
		 M375.694,419.04c-0.08-0.02-0.063-0.071-0.04-0.124c-8.737-11.748-17.297-23.671-25.968-35.557l0.121-0.236
		c8.735,11.824,17.385,23.675,25.973,35.543C375.807,418.774,375.772,418.899,375.694,419.04z M373.573,382.481
		c-0.927-0.468-1.857-0.93-2.8-1.37c-0.692-24.568-18.471-65.843-16.276-72.425c0.328-0.983,0.86-1.712,1.521-2.292
		c0.925,0.217,4.302,1.087,8.669,3.104c7.683,3.546,18.425,10.65,24.312,24.032c0.229,1.065,0.865,2.51,0.824,3.022
		c1.975,4.607,10.094,10.531,10.934,16.129c-2.955-0.835-4.411-3.06-7.181-4.066c-1.087,3.421,2.249,3.585,1.907,5.757
		c-0.44,2.795-5.589,0.616-5.841,4.429c-0.007,0.105-0.025,0.198-0.024,0.313c3.545,0.567,8.977-1.101,12.764,0.496
		c0.122,1.428,0.253,2.846,0.393,4.259c0.992,10.085,2.404,19.885,3.934,30.708C392.915,393.862,383.571,387.533,373.573,382.481z
		 M441.15,426.348c-7.859-0.194-15.907-1.415-23.221-3.636c-6.729-20.618-10.396-40.191-12.929-63.475
		c14.415-2.697,34.647-5.054,50.244-2.845c1.386,0.196,2.747,0.415,4.052,0.687c0.697,4.543,0.936,9.057,1.113,13.548
		c0.042,0.023,0.088,0.04,0.13,0.064l0.5,10.16c-0.046,0.033-0.098,0.057-0.145,0.088c0.103,1.464,0.222,2.926,0.389,4.387
		c0.352,3.088,0.551,6.284,0.688,9.522c0.066,0.033,0.137,0.059,0.202,0.094l0.353,10.463c-0.064,0.041-0.137,0.07-0.203,0.109
		c0.218,6.278,0.577,12.449,1.74,18.035C457.328,425.638,449.342,426.55,441.15,426.348z M474.001,411.39
		c-2.865,0.967-4.513,1.812-8.353,1.807c-0.272-6.061-1.084-15.325-0.841-21.103c1.89,0.125,4.675-1.35,6.192-0.944
		C471.744,397.66,474.325,404.259,474.001,411.39z M464.289,387.101c-0.562-7.369-1.022-14.659-1.175-21.982
		c-0.055-2.625-0.071-5.255-0.036-7.894v0.001c2.719-0.911,5.121-0.854,7.848-0.879c0.552,1.993,0.963,4.117,1.29,6.318
		c1.071,7.217,1.199,15.308,2.086,22.692C470.734,386.14,468.129,386.524,464.289,387.101z M462.013,351.582
		c-0.433-2.737-6.313-12.584-5.925-16.895c0.261-2.873,6.808-1.253,7.38-3.804c0.901-4.017,1.772-5.84,2.161-8.79
		c0.248-1.875,2.423-1.285,3.314-2.882c-0.862-2.012,12.201-0.734,11.586-2.972c2.716-5.127,2.721-17.619-0.781-23.455
		c-1.051-1.75-2.42-2.89-4.123-3.062c-0.93-0.095-1.954,0.086-3.089,0.636c0.399-0.586,0.99-1.144,1.658-1.699
		c1.707-1.418,3.971-2.824,5.217-4.664c4.277,3.445,6.86,6.686,10.961,10.37c2.227,1.995,6.604,4.387,7.045,7.612
		c0.114,0.836-0.062,2.232-0.325,3.692c-0.304,1.688-0.722,3.458-0.939,4.544c-1.797,8.883-5.835,20.618-9.684,29.927
		c-1.398,3.384-2.735,7.613-4.584,8.344C476.933,349.827,466.202,351.225,462.013,351.582z M486.83,379.692
		c-2.252,0.435-3.716,1.727-6.455,1.641c-0.133-1.627-0.322-3.272-0.531-4.923c-0.891-7.026-2.31-14.179-2.973-20.779
		c1.741-0.034,3.863-0.436,5.686-0.018c2.732,4.695,3.843,11.742,4.172,18.146C486.835,375.839,486.86,377.852,486.83,379.692z
		 M512.052,382.561c-4.157,1.01-10.532,1.275-13.256-0.04c3.332-1.82,8.336-1.83,12.191-3.079
		c-5.523-2.379-13.695-0.138-20.338-0.552c-0.802-8.201-1.405-17.092-3.35-23.565c0.568-0.604,1.265-1.135,2.039-1.621
		c4.508-2.835,11.984-3.986,16.521-6.893c3.269-2.093,7.36,0.898,8.871,3.182c1.192,1.804,2.338,5.652,3.3,9.504
		c0.685,2.745,1.277,5.492,1.724,7.501C521.353,374.181,517.762,381.175,512.052,382.561z M535.636,311.697
		c-0.391,2.393,0.529,4.86,2.756,8.996c0.052,0.096,0.095,0.181,0.147,0.278c-3.44,2.755-5.446,4.536-6.359,6.613
		c-0.983,2.236-0.69,4.833,0.499,9.356c0.04,0.153,0.073,0.291,0.115,0.448c-3.926,1.85-6.278,3.104-7.66,4.866
		c-1.519,1.937-1.856,4.51-1.76,9.172c0.004,0.199,0.004,0.382,0.01,0.589c-0.739,0.154-1.411,0.301-2.054,0.446
		c-0.539-1.459-1.09-2.844-1.624-4.054c-0.129-0.291-0.257-0.572-0.383-0.842c-1.792-3.83-4.73-5.645-8.184-6.207
		c-2.687-0.438-5.684-0.116-8.701,0.618c-2.073,0.505-4.153,1.199-6.147,1.977c-1.864,0.726-3.652,1.519-5.287,2.289
		c-0.955,0.45-1.857,0.892-2.692,1.307c0.455-1.197,0.9-2.401,1.343-3.608c0.722-1.971,1.429-3.957,2.123-5.959
		c0.602-1.733,1.194-3.483,1.78-5.244c0.507-1.524,1.009-3.061,1.508-4.607c0.456-1.418,0.91-2.846,1.362-4.284
		c0.413-1.316,0.825-2.64,1.235-3.975c0.397-1.291,0.795-2.587,1.191-3.896c0.382-1.261,0.764-2.529,1.146-3.809
		c0.039-0.129,0.077-0.254,0.115-0.382c0.321-1.076,0.73-2.282,1.142-3.544c0.43-1.318,0.857-2.698,1.19-4.066
		c0.366-1.502,0.609-2.983,0.606-4.346c0-0.407-0.017-0.807-0.065-1.188c-0.12-0.953-0.596-1.919-1.282-2.877
		c-0.818-1.143-1.938-2.276-3.134-3.367c-1.072-0.977-2.198-1.917-3.22-2.802c-0.601-0.52-1.168-1.021-1.66-1.496
		c-0.277-0.268-0.733-0.661-1.284-1.127c-0.783-0.663-1.772-1.485-2.813-2.375c-0.907-0.775-1.839-1.593-2.696-2.394
		c-1.002-0.936-1.882-1.837-2.477-2.607c-0.405-0.524-0.688-0.992-0.763-1.354c-0.444-2.167,3.214-7.081,4.392-9.536
		c1.54-3.207,2.678-7.056,3.5-9.931c0.079-0.277,0.159-0.557,0.232-0.814c1.656-5.823,2.91-12.229,3.697-18.831
		c1.385,2.229,2.604,3.681,4.254,4.517c1.223,0.62,2.679,0.907,4.627,0.907c1.277,0,2.771-0.116,4.557-0.302
		c0.044,0.152,0.084,0.285,0.127,0.432c1.255,4.335,2.17,6.838,3.957,8.405c1.738,1.524,4.306,2.18,8.852,2.792
		c0.005,0.113,0.011,0.212,0.016,0.323c0.209,4.519,0.498,7.186,1.831,9.137c1.324,1.938,3.678,3.183,8.024,4.861
		c-0.012,0.061-0.021,0.114-0.033,0.175c-0.855,4.457-1.219,7.134-0.422,9.345c0.811,2.247,2.818,4.018,6.72,6.708
		c-0.002,0.005-0.004,0.01-0.007,0.015c-1.882,4.152-2.873,6.681-2.657,9.009c0.221,2.396,1.727,4.585,4.878,8.102
		c0.035,0.04,0.064,0.074,0.101,0.114C537.552,307.21,536.007,309.425,535.636,311.697z"/>
	<path fill="#0F0E0E" d="M395.734,142.619c25.081-12.361,44.59-24.3,43.598-26.313c-0.003-0.005-0.01-0.008-0.013-0.013
		c-1.091-1.954-22.18,6.423-47.196,18.752c-25.08,12.362-44.608,24.015-43.616,26.027c0.006,0.012,0.021,0.019,0.028,0.03
		C349.756,162.982,370.802,154.909,395.734,142.619z"/>
	<path fill="#231F20" d="M474.776,266.163c-1.355-2.032-5.021-5.239-6.437-5.419c-1.414-0.18-2.71,0.338-2.71,0.338
		c-1.94-0.189-5.355-1.662-6.774-1.693s-12.872,4.065-15.582,4.065s-7.791-0.678-7.791-0.678s6.097,4.064,10.162,3.726
		c4.064-0.338,6.436-2.371,8.808-2.032c2.371,0.339,4.932,0.27,6.097,0.678c1.166,0.408,3.049,1.694,3.049,1.694l4.404,0.338
		c0,0,1.832,0.492,4.742,4.064c1.532,1.881,3.178,2.32,3.178,2.32l3.018,0.165C478.939,273.729,476.131,268.195,474.776,266.163z"/>
	<path fill="#231F20" d="M470.017,273.706c0-0.863-2.014-2.013-3.165-2.589s-4.318-1.151-5.757-1.439
		c-1.438-0.288-4.604-1.151-4.604-1.151l-14.103-0.288v1.151l4.029,1.439c0,0,4.605-0.288,6.907,0
		c2.303,0.288,7.482,1.726,8.346,1.726s7.194,1.728,7.194,1.728S470.017,274.569,470.017,273.706z"/>
	<circle fill="#D33832" cx="416.172" cy="367.601" r="6.055"/>
	<circle fill="#D33832" cx="446.56" cy="364.986" r="6.055"/>
	<circle fill="#D33832" cx="432.029" cy="377.077" r="6.055"/>
	<circle fill="#D33832" cx="447.847" cy="388.157" r="6.055"/>
	<circle fill="#D33832" cx="450.173" cy="413.375" r="6.054"/>
	<circle fill="#D33832" cx="425.014" cy="415.192" r="6.054"/>
	<circle fill="#D33832" cx="419.987" cy="390.029" r="6.054"/>
	<circle fill="#D33832" cx="435.921" cy="400.497" r="6.055"/>
	<path fill="#D33832" d="M407.194,373.963c-0.094,0-0.186,0.01-0.278,0.014l1.896,11.87c2.558-0.708,4.438-3.046,4.438-5.829
		C413.249,376.673,410.538,373.963,407.194,373.963z"/>
	<path fill="#D33832" d="M420.275,404.201c0-3.345-2.711-6.055-6.055-6.055c-0.997,0-1.937,0.246-2.767,0.673l2.813,11.434
		C417.589,410.229,420.275,407.53,420.275,404.201z"/>
	<path fill="none" stroke="#D33832" stroke-width="0" stroke-linecap="round" stroke-linejoin="round" d="M397.728,371.523
		c0.002-0.008,0.007,0.007,0.014,0.032"/>
	<path fill="#D33832" d="M457.519,369.879c-0.883,0-1.72,0.193-2.476,0.533c-2.108,0.946-3.579,3.06-3.579,5.521
		c0,2.532,1.555,4.698,3.761,5.602c0.708,0.291,1.481,0.453,2.294,0.453c1.255,0,2.411-0.395,3.377-1.049
		c0.047-0.031,0.099-0.055,0.145-0.088l-0.5-10.16c-0.042-0.024-0.088-0.041-0.13-0.064
		C459.55,370.156,458.568,369.879,457.519,369.879z"/>
	<path fill="#D33832" d="M455.922,395.265c-1.605,1.089-2.661,2.928-2.661,5.015c0,2.487,1.502,4.622,3.646,5.554
		c0.738,0.32,1.552,0.5,2.408,0.5c1.1,0,2.121-0.307,3.009-0.818c0.066-0.039,0.139-0.068,0.203-0.109l-0.353-10.463
		c-0.065-0.035-0.136-0.061-0.202-0.094c-0.804-0.395-1.701-0.624-2.657-0.624C458.058,394.225,456.89,394.608,455.922,395.265z"/>
</g>
<path fill="#454344" d="M419.958,158.094c0,0,18.595-9.347,22.381-11.438c0,0,7.651,15.909,5.859,19.06l-22.917,11.797
	C425.281,177.512,426.916,170.096,419.958,158.094z"/>
<path fill="#1E1C1D" d="M405.588,137.674c0,0,19.806-10.134,23.44-12.888c0,0,12.525,19.976,13.311,21.869l-22.381,11.438
	C419.958,158.094,413.225,144.749,405.588,137.674z"/>
</svg>
