<?xml version="1.0" encoding="utf-8"?>
<!-- Generator: Adobe Illustrator 16.0.0, SVG Export Plug-In . SVG Version: 6.00 Build 0)  -->
<!DOCTYPE svg PUBLIC "-//W3C//DTD SVG 1.1//EN" "https://www.w3.org/Graphics/SVG/1.1/DTD/svg11.dt">
<svg version="1.1" id="Capa_1" xmlns="http://www.w3.org/2000/svg" xmlns:xlink="http://www.w3.org/1999/xlink" x="0px" y="0px"
	 width="841.89px" height="595.28px" viewBox="0 0 841.89 595.28" enable-background="new 0 0 841.89 595.28" xml:space="preserve">
<g>
	<g enable-background="new    ">
		<path d="M384.193,262.599c-1.206,0.151-2.231,0.302-3.075,0.454c-0.845,0.15-1.795,0.362-2.85,0.633
			c-1.236,0.332-2.028,0.921-2.374,1.765c-0.347,0.845-0.521,1.811-0.521,2.897v35.395c0,3.259-0.655,6.247-1.968,8.963
			c-1.312,2.716-3.113,4.993-5.404,6.834c-2.322,1.811-4.916,3.176-7.779,4.097c-2.865,0.919-5.926,1.38-9.182,1.38
			c-5.64,0-10.185-1.356-13.637-4.07c-3.453-2.714-5.179-6.438-5.179-11.172c0-2.804,0.791-5.126,2.374-6.965s3.762-2.76,6.536-2.76
			c2.623,0,4.711,0.77,6.264,2.307c1.554,1.538,2.33,3.438,2.33,5.699c0,1.93-0.672,3.717-2.013,5.359
			c-1.342,1.645-2.872,3.159-4.591,4.546v0.588c0.271,0.604,0.861,1.116,1.769,1.538c0.906,0.423,1.829,0.633,2.767,0.633
			c3.628,0,6.478-1.297,8.55-3.893c2.071-2.595,3.106-6.518,3.106-11.769v-36.257c0-1.086-0.167-1.992-0.5-2.716
			c-0.333-0.724-1.137-1.358-2.408-1.901c-0.909-0.392-2.008-0.724-3.295-0.995c-1.287-0.271-2.356-0.469-3.204-0.589v-3.528h34.283
			V262.599z"/>
		<path d="M437.836,312.442c-1.056,1.719-2.329,3.34-3.822,4.862c-1.492,1.522-3.188,2.826-5.088,3.912
			c-2.021,1.146-4.063,2.013-6.129,2.601s-4.439,0.882-7.123,0.882c-4.463,0-8.315-0.633-11.557-1.899s-5.918-2.97-8.028-5.111
			c-2.11-2.141-3.686-4.665-4.727-7.576c-1.04-2.909-1.56-6.067-1.56-9.475c0-3.076,0.564-6.023,1.695-8.843
			s2.736-5.329,4.817-7.531c2.05-2.141,4.636-3.874,7.757-5.201c3.121-1.327,6.61-1.99,10.471-1.99
			c4.221,0,7.688,0.513,10.402,1.538c2.714,1.025,4.96,2.442,6.739,4.252c1.719,1.718,2.97,3.747,3.754,6.083
			c0.784,2.338,1.177,4.787,1.177,7.35v2.94H406.04c0,6.181,1.19,10.885,3.573,14.111c2.381,3.227,6.166,4.84,11.352,4.84
			c2.834,0,5.383-0.776,7.645-2.33c2.262-1.552,4.19-3.52,5.789-5.902L437.836,312.442z M420.559,295.255
			c0-1.81-0.091-3.664-0.271-5.563c-0.182-1.899-0.498-3.452-0.95-4.658c-0.513-1.417-1.214-2.488-2.103-3.211
			c-0.89-0.724-2.014-1.085-3.37-1.085c-2.322,0-4.177,1.176-5.563,3.528s-2.141,6.077-2.261,11.171L420.559,295.255z"/>
		<path d="M501.881,323.252h-27.183v-3.302c0.572-0.061,1.266-0.136,2.08-0.227c0.814-0.09,1.432-0.241,1.854-0.452
			c0.633-0.331,1.086-0.813,1.356-1.447c0.271-0.633,0.407-1.567,0.407-2.804v-21.168c0-3.075-0.567-5.389-1.701-6.942
			c-1.133-1.552-2.804-2.33-5.011-2.33c-1.21,0-2.336,0.181-3.379,0.543s-2.063,0.889-3.062,1.583
			c-0.877,0.604-1.58,1.222-2.108,1.854c-0.529,0.634-0.976,1.192-1.338,1.674v24.288c0,1.056,0.15,1.938,0.452,2.646
			c0.301,0.709,0.799,1.243,1.492,1.605c0.482,0.271,1.086,0.513,1.81,0.724s1.432,0.361,2.126,0.452v3.302h-27.5v-3.302
			c0.754-0.061,1.516-0.143,2.284-0.249c0.769-0.104,1.425-0.249,1.968-0.43c0.965-0.331,1.628-0.844,1.99-1.538
			c0.361-0.693,0.542-1.598,0.542-2.713v-26.324c0-0.934-0.241-1.854-0.724-2.759s-1.115-1.643-1.899-2.216
			c-0.543-0.362-1.229-0.663-2.058-0.905c-0.83-0.241-1.741-0.407-2.736-0.498v-3.302l21.574-1.176l0.679,0.678v6.558h0.181
			c0.844-0.753,1.869-1.658,3.075-2.713s2.322-1.915,3.348-2.578c1.115-0.724,2.578-1.341,4.387-1.854
			c1.81-0.513,3.738-0.769,5.79-0.769c4.914,0,8.601,1.395,11.059,4.184c2.457,2.79,3.686,6.49,3.686,11.104v22.163
			c0,1.115,0.166,2.006,0.498,2.668c0.331,0.664,0.949,1.192,1.854,1.583c0.482,0.212,1.078,0.423,1.787,0.634
			c0.708,0.211,1.516,0.361,2.42,0.452V323.252z"/>
		<path d="M564.116,323.252h-21.318c-2.621-4.602-5.017-8.504-7.185-11.706c-2.17-3.203-4.219-6.174-6.146-8.91l-2.665,2.253v9.86
			c0,1.085,0.158,1.975,0.476,2.668c0.316,0.694,0.927,1.206,1.831,1.538c0.543,0.242,1.177,0.452,1.9,0.633
			c0.724,0.182,1.447,0.302,2.171,0.362v3.302h-28.088v-3.302c0.759-0.061,1.518-0.143,2.276-0.249
			c0.759-0.104,1.427-0.249,2.004-0.43c0.971-0.331,1.632-0.844,1.98-1.538c0.35-0.693,0.523-1.598,0.523-2.713v-50.431
			c0-0.995-0.219-2.027-0.655-3.098c-0.438-1.07-1.078-1.877-1.922-2.42c-0.573-0.362-1.433-0.663-2.578-0.904
			c-1.146-0.241-2.188-0.392-3.121-0.453v-3.302l22.522-1.176l0.68,0.724v46.674c2.229-1.989,4.735-4.296,7.521-6.919
			c2.786-2.623,5.022-4.794,6.709-6.513c0.995-1.024,1.545-1.801,1.651-2.328c0.104-0.527,0.158-0.852,0.158-0.973
			c0-0.543-0.477-0.995-1.428-1.357c-0.953-0.362-2.386-0.678-4.299-0.95v-3.211h22.977v3.121c-3.011,0.844-5.307,1.636-6.887,2.375
			c-1.58,0.739-3.304,1.727-5.17,2.962c-1.235,0.814-2.431,1.668-3.589,2.561c-1.157,0.892-2.487,2.003-3.99,3.334
			c2.949,4.279,5.674,8.242,8.172,11.889s5.117,7.504,7.856,11.572c0.933,1.417,2.092,2.366,3.477,2.849
			c1.386,0.482,2.771,0.784,4.156,0.904V323.252z"/>
		<path d="M593.199,323.252h-28.585v-3.302c0.783-0.061,1.553-0.136,2.307-0.227c0.753-0.09,1.401-0.241,1.944-0.452
			c0.965-0.361,1.644-0.882,2.035-1.561c0.392-0.678,0.588-1.575,0.588-2.69v-26.324c0-1.055-0.241-1.981-0.724-2.781
			c-0.482-0.798-1.085-1.44-1.809-1.922c-0.543-0.362-1.364-0.708-2.465-1.04c-1.102-0.332-2.104-0.543-3.008-0.633v-3.302
			l22.162-1.176l0.679,0.678v35.913c0,1.056,0.226,1.952,0.678,2.69c0.453,0.739,1.101,1.289,1.945,1.651
			c0.604,0.271,1.267,0.513,1.99,0.724s1.477,0.361,2.262,0.452V323.252z M586.596,261.559c0,2.292-0.883,4.245-2.646,5.857
			c-1.764,1.614-3.852,2.42-6.264,2.42c-2.442,0-4.546-0.806-6.31-2.42c-1.765-1.612-2.646-3.565-2.646-5.857
			c0-2.291,0.882-4.251,2.646-5.88c1.764-1.628,3.867-2.442,6.31-2.442s4.537,0.814,6.286,2.442S586.596,259.268,586.596,261.559z"
			/>
		<path d="M657.062,323.252H629.88v-3.302c0.572-0.061,1.267-0.136,2.081-0.227c0.813-0.09,1.432-0.241,1.854-0.452
			c0.634-0.331,1.086-0.813,1.357-1.447c0.271-0.633,0.407-1.567,0.407-2.804v-21.168c0-3.075-0.567-5.389-1.701-6.942
			c-1.134-1.552-2.805-2.33-5.012-2.33c-1.21,0-2.335,0.181-3.379,0.543c-1.042,0.362-2.063,0.889-3.062,1.583
			c-0.877,0.604-1.58,1.222-2.108,1.854c-0.529,0.634-0.976,1.192-1.338,1.674v24.288c0,1.056,0.151,1.938,0.452,2.646
			s0.799,1.243,1.492,1.605c0.482,0.271,1.086,0.513,1.81,0.724s1.432,0.361,2.126,0.452v3.302h-27.5v-3.302
			c0.754-0.061,1.516-0.143,2.285-0.249c0.769-0.104,1.424-0.249,1.967-0.43c0.965-0.331,1.629-0.844,1.99-1.538
			c0.361-0.693,0.543-1.598,0.543-2.713v-26.324c0-0.934-0.242-1.854-0.724-2.759c-0.482-0.904-1.116-1.643-1.899-2.216
			c-0.543-0.362-1.229-0.663-2.059-0.905c-0.83-0.241-1.741-0.407-2.736-0.498v-3.302l21.574-1.176l0.679,0.678v6.558h0.181
			c0.844-0.753,1.87-1.658,3.076-2.713c1.205-1.056,2.321-1.915,3.347-2.578c1.115-0.724,2.578-1.341,4.388-1.854
			c1.809-0.513,3.738-0.769,5.789-0.769c4.914,0,8.601,1.395,11.059,4.184c2.457,2.79,3.686,6.49,3.686,11.104v22.163
			c0,1.115,0.166,2.006,0.498,2.668c0.332,0.664,0.949,1.192,1.854,1.583c0.481,0.212,1.078,0.423,1.786,0.634
			c0.709,0.211,1.516,0.361,2.42,0.452V323.252z"/>
		<path d="M682.21,324.79c-2.925,0-5.782-0.43-8.571-1.289s-4.952-1.771-6.49-2.736l-1.356,3.075h-3.528l-0.588-16.87h3.302
			c0.452,1.356,1.206,2.888,2.262,4.591c1.056,1.704,2.262,3.233,3.618,4.591c1.418,1.356,3.037,2.503,4.862,3.437
			c1.824,0.936,3.776,1.402,5.857,1.402c2.743,0,4.786-0.534,6.128-1.605c1.342-1.07,2.014-2.721,2.014-4.952
			c0-1.206-0.302-2.201-0.905-2.985s-1.433-1.463-2.487-2.035c-1.176-0.604-2.465-1.115-3.867-1.538
			c-1.402-0.422-3.129-0.935-5.179-1.538c-2.051-0.603-3.807-1.213-5.27-1.832c-1.463-0.617-2.978-1.59-4.546-2.917
			c-1.356-1.176-2.441-2.593-3.256-4.252c-0.814-1.657-1.221-3.633-1.221-5.925c0-4.251,1.786-7.688,5.359-10.312
			s8.254-3.935,14.043-3.935c2.744,0,5.27,0.279,7.576,0.837c2.307,0.558,4.244,1.169,5.812,1.832l0.949-2.668h3.438l0.724,15.423
			h-3.166c-1.056-3.136-2.864-5.841-5.427-8.118c-2.563-2.276-5.322-3.415-8.277-3.415c-2.322,0-4.146,0.482-5.473,1.447
			c-1.327,0.966-1.99,2.307-1.99,4.025c0,2.292,0.971,3.951,2.912,4.976c1.941,1.025,4.658,1.99,8.15,2.895
			c5.388,1.387,9.331,3.279,11.83,5.677c2.498,2.396,3.747,5.45,3.747,9.158c0,4.946-1.938,8.774-5.812,11.488
			C693.51,323.433,688.452,324.79,682.21,324.79z"/>
	</g>
	<g>
		<path d="M657.015,314.262c0.32,0.709,0.524,1.169,0.614,1.382c0.088,0.212,0.168,0.566,0.24,1.062
			c-0.427-0.354-0.801-0.655-1.121-0.903s-0.641-0.47-0.96-0.664c-0.32-0.194-0.677-0.363-1.067-0.505
			c-0.393-0.142-0.854-0.266-1.388-0.372c-1.423-0.177-2.766-0.124-4.028,0.159c-1.264,0.284-2.33,0.735-3.201,1.355
			c-0.872,0.62-1.486,1.381-1.842,2.284c-0.355,0.902-0.355,1.886,0,2.948c0.392,1.169,0.996,2.294,1.814,3.374
			s1.752,2.134,2.802,3.16c1.049,1.028,2.169,1.993,3.362,2.896c1.19,0.902,2.329,1.753,3.414,2.55s2.09,1.515,3.015,2.151
			c0.925,0.638,1.636,1.188,2.135,1.646c1.103-0.565,2.134-1.044,3.095-1.434c0.96-0.39,1.956-0.779,2.987-1.169h0.321
			c0.142,0.035,0.159,0.142,0.053,0.319c-0.32,0.283-0.703,0.583-1.147,0.902c-0.445,0.319-0.898,0.646-1.36,0.983
			c-0.463,0.337-0.916,0.664-1.36,0.982c-0.445,0.319-0.846,0.603-1.201,0.85c1.032,1.028,1.708,1.958,2.027,2.79
			c0.32,0.832,0.339,1.646,0.054,2.443s-0.872,1.612-1.761,2.443c-0.89,0.832-2.046,1.728-3.469,2.684
			c-0.925,0.638-1.921,1.186-2.987,1.646c-1.067,0.46-2.055,0.735-2.962,0.824c-0.906,0.088-1.636-0.08-2.188-0.506
			c-0.552-0.424-0.738-1.222-0.561-2.391c0.568-1.912,1.619-3.683,3.149-5.312c1.528-1.629,3.289-3.276,5.281-4.941
			c0-0.106-0.347-0.407-1.04-0.903c-0.694-0.495-1.583-1.133-2.668-1.913c-1.085-0.778-2.276-1.681-3.575-2.709
			c-1.299-1.027-2.544-2.107-3.735-3.24c-1.192-1.133-2.249-2.319-3.174-3.56c-0.926-1.239-1.548-2.462-1.868-3.666
			c-0.427-1.522-0.524-2.851-0.293-3.984c0.231-1.133,0.604-2.08,1.12-2.842c0.515-0.762,1.085-1.355,1.708-1.78
			c0.621-0.426,1.128-0.708,1.521-0.851c0.817-0.247,1.645-0.459,2.481-0.637c0.835-0.178,1.68-0.23,2.534-0.16
			c0.854,0.071,1.716,0.311,2.587,0.718C655.245,312.783,656.125,313.411,657.015,314.262z M652.64,347.892
			c-0.071,0.247,0.017,0.451,0.267,0.61c0.248,0.159,0.658,0.221,1.228,0.186c0.568-0.035,1.289-0.204,2.16-0.504
			c0.872-0.302,1.913-0.807,3.122-1.514c0.889-0.603,1.574-1.257,2.055-1.967c0.479-0.708,0.764-1.407,0.854-2.098
			c0.088-0.69-0.026-1.329-0.348-1.913c-0.319-0.585-0.854-1.054-1.6-1.407c-0.356,0.178-0.953,0.593-1.788,1.248
			c-0.836,0.655-1.69,1.408-2.562,2.258c-0.871,0.851-1.646,1.735-2.32,2.656C653.031,346.368,652.675,347.183,652.64,347.892z"/>
		<path d="M672.831,328.438c0.124-0.041,0.475-0.155,1.055-0.341c0.579-0.187,1.055-0.218,1.427-0.094
			c1.199-0.041,2.119,0.27,2.761,0.931c0.641,0.662,0.692,1.944,0.155,3.846c-0.786,2.109-1.83,3.868-3.133,5.273
			c-1.303,1.406-2.844,2.751-4.621,4.031c0.412,1.076,1.033,1.676,1.86,1.8s1.695-0.01,2.605-0.403
			c0.909-0.393,1.799-0.92,2.667-1.582c0.869-0.661,1.571-1.241,2.109-1.737c0.869-0.744,1.561-1.374,2.078-1.892
			c0.517-0.517,1.064-1.147,1.645-1.892c0.123-0.083,0.195-0.072,0.217,0.03c0.02,0.104,0.01,0.259-0.031,0.466
			c-0.042,0.207-0.104,0.496-0.186,0.868c-0.125,0.29-0.249,0.549-0.373,0.775c-0.124,0.228-0.301,0.477-0.527,0.744
			c-0.228,0.27-0.527,0.59-0.899,0.962s-0.827,0.869-1.364,1.489c-0.621,0.579-1.221,1.146-1.799,1.705
			c-0.58,0.559-1.189,1.046-1.83,1.458c-0.642,0.414-1.344,0.704-2.109,0.868c-0.766,0.166-1.644,0.166-2.637,0
			c-0.827-0.288-1.488-0.599-1.984-0.93c-0.497-0.331-0.88-0.672-1.148-1.024c-0.269-0.351-0.465-0.672-0.589-0.961
			s-0.207-0.537-0.248-0.745c-0.208-0.826-0.29-1.943-0.248-3.349c0.04-1.406,0.455-3.227,1.241-5.459
			c0.536-1.157,1.116-2.141,1.736-2.947C671.28,329.523,672.004,328.893,672.831,328.438z M670.102,339.417
			c0.537-0.289,1.168-0.691,1.893-1.209c0.723-0.517,1.405-1.117,2.047-1.8c0.641-0.682,1.199-1.436,1.675-2.264
			c0.475-0.827,0.733-1.695,0.775-2.605c0.124-0.62,0.103-1.055-0.062-1.303c-0.084-0.124-0.166-0.186-0.248-0.186
			c-0.704-0.331-1.407-0.228-2.109,0.31c-0.704,0.538-1.345,1.303-1.924,2.295c-0.579,0.993-1.064,2.1-1.457,3.319
			C670.298,337.194,670.102,338.343,670.102,339.417z"/>
		<path d="M695.473,325.646c-0.041-0.125,0.021-0.155,0.187-0.094c0.165,0.062,0.351,0.155,0.559,0.279
			c0.206,0.124,0.403,0.27,0.589,0.435c0.187,0.165,0.279,0.31,0.279,0.434c-0.455,3.226-1.354,6.411-2.698,9.553
			c-1.345,3.144-3.009,6.142-4.993,8.995c-0.539,0.538-1.045,0.807-1.52,0.807c-0.477,0-0.817-0.227-1.024-0.683
			c-0.29-0.868-0.549-1.974-0.775-3.318c-0.228-1.344-0.456-2.77-0.683-4.28c-0.228-1.509-0.486-3.04-0.775-4.591
			c-0.29-1.551-0.62-2.987-0.992-4.311c-0.208-0.703-0.177-1.127,0.093-1.272c0.269-0.144,0.858-0.051,1.769,0.279
			c0.123,0,0.268,0.527,0.434,1.582c0.165,1.055,0.362,2.337,0.59,3.846c0.227,1.511,0.496,3.093,0.807,4.746
			c0.31,1.654,0.691,3.102,1.146,4.342c0.125,0.084,0.373-0.164,0.745-0.744c0.372-0.579,0.807-1.333,1.303-2.265
			c0.496-0.931,1.023-2.005,1.581-3.226c0.559-1.219,1.075-2.46,1.552-3.722c0.475-1.261,0.878-2.491,1.209-3.69
			S695.39,326.515,695.473,325.646z"/>
		<path d="M701.613,318.698c0.413-0.082,0.662,0.166,0.745,0.744c0.082,0.58,0,1.015-0.248,1.303
			c-0.456,0.372-0.744,0.693-0.868,0.962c-0.125,0.27-0.414,0.444-0.869,0.527c-0.248-0.041-0.465-0.052-0.651-0.031
			c-0.187,0.021-0.341-0.319-0.465-1.023c0.165-0.455,0.424-0.909,0.775-1.364C700.383,319.36,700.91,318.988,701.613,318.698z
			 M701.8,326.763c0.207,1.985,0.351,4.167,0.435,6.544c0.082,2.379,0.227,4.87,0.434,7.476c0.165,1.324,0.331,2.357,0.496,3.102
			s0.289,1.448,0.373,2.109c-0.662,0.124-1.179,0.113-1.551-0.031c-0.373-0.145-0.725-0.32-1.055-0.527
			c-0.084-0.661-0.177-1.758-0.279-3.288c-0.104-1.529-0.208-3.194-0.311-4.993c-0.104-1.799-0.207-3.546-0.31-5.242
			c-0.104-1.695-0.197-3.039-0.279-4.032c0.165-0.082,0.3-0.206,0.403-0.372c0.103-0.165,0.217-0.31,0.341-0.434
			c0.124-0.125,0.289-0.228,0.496-0.311C701.2,326.681,701.469,326.681,701.8,326.763z"/>
		<path d="M710.359,333.152c0,0.124,0.062,0.703,0.188,1.736c0.123,1.034,0.268,2.295,0.434,3.784
			c0.165,1.488,0.361,3.092,0.589,4.808c0.228,1.717,0.435,3.35,0.621,4.9c0.186,1.551-0.028,0.445,0.138,1.624
			c0.165,1.178,0.269,1.933,0.311,2.264c-0.248-0.041-0.455-0.083-0.62-0.124c-0.166-0.041-0.332-0.146-0.497-0.311
			c-0.166-0.165-0.362-0.402-0.589-0.713c-0.228-0.31-0.549-0.755-0.962-1.334c-0.537-3.805-0.572-4.652-0.882-7.485
			c-0.311-2.832-0.569-5.138-0.776-6.917c-0.744,0.993-1.281,1.655-1.612,1.985c-0.331,0.332-0.537,0.496-0.62,0.496
			c-0.125,0-0.145-0.186-0.062-0.558c0.042-0.207,0.084-0.413,0.125-0.62s0.082-0.394,0.123-0.559
			c0.042-0.165,0.104-0.311,0.187-0.435c0.289-0.413,0.548-0.827,0.775-1.24c0.227-0.413,0.403-0.785,0.527-1.117
			c0.165-0.413,0.289-0.807,0.372-1.179c-0.041-0.454-0.072-0.847-0.094-1.179c-0.021-0.33-0.03-0.671-0.03-1.023
			c0-0.351-0.011-0.713-0.031-1.085c-0.021-0.373-0.031-0.848-0.031-1.428c0-0.536,0-1.354,0-2.449s0-2.316,0-3.66
			s0.021-2.761,0.062-4.249c0.041-1.489,0.093-2.905,0.155-4.25c0.062-1.343,0.145-2.563,0.248-3.66
			c0.103-1.095,0.217-1.932,0.341-2.512c0.289-1.199,0.733-2.119,1.334-2.761c0.599-0.641,1.229-1.013,1.892-1.117
			c0.661-0.102,1.312,0.062,1.954,0.497s1.126,1.107,1.458,2.017c0.372,0.91,0.559,2.088,0.559,3.535
			c0,1.448-0.124,3.03-0.373,4.745c-0.248,1.717-0.589,3.506-1.023,5.366c-0.434,1.861-0.899,3.671-1.396,5.428
			c-0.496,1.759-0.992,3.402-1.489,4.932C711.166,330.836,710.732,332.119,710.359,333.152z M709.864,329.616
			c1.033-3.019,1.881-5.986,2.543-8.901c0.661-2.916,1.147-5.531,1.458-7.848c0.311-2.315,0.412-4.188,0.311-5.614
			c-0.104-1.427-0.404-2.16-0.9-2.202c-0.785-0.289-1.406-0.021-1.86,0.807c-0.456,0.828-0.817,1.985-1.086,3.474
			c-0.27,1.488-0.445,3.195-0.527,5.118c-0.083,1.923-0.114,3.836-0.093,5.737c0.021,1.903,0.051,3.702,0.093,5.397
			C709.842,327.28,709.864,328.624,709.864,329.616z"/>
		<path d="M721.339,333.152c0,0.124,0.062,0.703,0.187,1.736c0.124,1.034,0.269,2.295,0.435,3.784
			c0.165,1.488,0.361,3.092,0.589,4.808c0.227,1.717,0.434,3.35,0.621,4.9c0.186,1.551-0.028,0.445,0.138,1.624
			c0.165,1.178,0.269,1.933,0.31,2.264c-0.248-0.041-0.455-0.083-0.619-0.124c-0.166-0.041-0.332-0.146-0.497-0.311
			c-0.166-0.165-0.362-0.402-0.589-0.713c-0.229-0.31-0.549-0.755-0.962-1.334c-0.538-3.805-0.572-4.652-0.883-7.485
			c-0.31-2.832-0.568-5.138-0.775-6.917c-0.744,0.993-1.281,1.655-1.612,1.985c-0.331,0.332-0.537,0.496-0.621,0.496
			c-0.124,0-0.144-0.186-0.062-0.558c0.042-0.207,0.083-0.413,0.124-0.62c0.042-0.207,0.083-0.394,0.124-0.559
			c0.042-0.165,0.104-0.311,0.187-0.435c0.289-0.413,0.548-0.827,0.775-1.24c0.227-0.413,0.402-0.785,0.527-1.117
			c0.164-0.413,0.289-0.807,0.372-1.179c-0.042-0.454-0.073-0.847-0.094-1.179c-0.021-0.33-0.03-0.671-0.03-1.023
			c0-0.351-0.012-0.713-0.031-1.085c-0.021-0.373-0.031-0.848-0.031-1.428c0-0.536,0-1.354,0-2.449s0-2.316,0-3.66
			s0.021-2.761,0.062-4.249c0.041-1.489,0.093-2.905,0.154-4.25c0.062-1.343,0.145-2.563,0.248-3.66
			c0.104-1.095,0.218-1.932,0.342-2.512c0.289-1.199,0.733-2.119,1.334-2.761c0.599-0.641,1.229-1.013,1.892-1.117
			c0.661-0.102,1.312,0.062,1.954,0.497c0.641,0.435,1.126,1.107,1.458,2.017c0.372,0.91,0.558,2.088,0.558,3.535
			c0,1.448-0.123,3.03-0.372,4.745c-0.248,1.717-0.589,3.506-1.023,5.366c-0.435,1.861-0.899,3.671-1.396,5.428
			c-0.496,1.759-0.992,3.402-1.489,4.932C722.146,330.836,721.712,332.119,721.339,333.152z M720.843,329.616
			c1.033-3.019,1.882-5.986,2.544-8.901c0.66-2.916,1.147-5.531,1.457-7.848c0.311-2.315,0.413-4.188,0.311-5.614
			c-0.104-1.427-0.403-2.16-0.899-2.202c-0.786-0.289-1.406-0.021-1.86,0.807c-0.456,0.828-0.817,1.985-1.086,3.474
			c-0.27,1.488-0.445,3.195-0.527,5.118c-0.084,1.923-0.114,3.836-0.094,5.737c0.021,1.903,0.052,3.702,0.094,5.397
			C720.821,327.28,720.843,328.624,720.843,329.616z"/>
		<path d="M740.01,327.755c-0.042,0.248-0.135,0.766-0.279,1.551c-0.146,0.786-0.3,1.706-0.465,2.761
			c-0.166,1.055-0.311,2.161-0.435,3.318c-0.124,1.158-0.196,2.255-0.217,3.288c-0.021,1.034,0.041,1.913,0.186,2.637
			s0.382,1.169,0.714,1.333c0.951,0.456,1.923,0.301,2.915-0.465c0.993-0.765,2.15-1.933,3.474-3.505
			c0.125,0,0.135,0.166,0.031,0.496c-0.104,0.332-0.27,0.693-0.496,1.086c-0.228,0.394-0.455,0.786-0.682,1.178
			c-0.229,0.394-0.403,0.651-0.527,0.776c-0.332,0.414-0.807,0.879-1.427,1.396c-0.621,0.518-1.282,0.931-1.985,1.24
			c-0.704,0.311-1.375,0.445-2.017,0.403c-0.642-0.04-1.169-0.413-1.582-1.116c-0.207-0.496-0.331-1.106-0.372-1.83
			c-0.041-0.723-0.041-1.458,0-2.202s0.104-1.427,0.187-2.047c0.082-0.62,0.145-1.075,0.186-1.364
			c-0.868,1.612-1.86,3.143-2.978,4.59c-1.116,1.448-2.213,2.585-3.287,3.412c-1.076,0.827-2.068,1.271-2.978,1.333
			c-0.91,0.062-1.613-0.465-2.109-1.582c-0.288-1.074-0.288-2.284,0-3.629c0.29-1.343,0.724-2.553,1.303-3.629
			c0.868-1.488,1.778-2.853,2.729-4.094s1.964-2.295,3.039-3.164c1.075-0.868,2.203-1.498,3.382-1.892
			C737.498,327.642,738.728,327.549,740.01,327.755z M728.348,343.512c0.413,0.083,1.075-0.228,1.985-0.931
			c0.909-0.703,1.86-1.685,2.854-2.946c0.992-1.261,1.892-2.729,2.698-4.404c0.807-1.676,1.333-3.443,1.582-5.305
			c-0.166,0-0.403,0-0.714,0s-0.673,0.125-1.086,0.373c-1.571,1.033-2.915,2.243-4.031,3.629c-1.117,1.386-1.985,2.729-2.605,4.032
			c-0.621,1.302-0.993,2.471-1.117,3.504C727.789,342.498,727.934,343.181,728.348,343.512z"/>
	</g>
</g>
<g>
	<path fill="none" d="M221.782,339.582c0.721,0.981,1.441,1.964,2.161,2.948c-0.309-0.7-0.827-1.286-1.272-1.89
		c-0.24-0.323-0.48-0.648-0.719-0.972L221.782,339.582z"/>
	<path fill="none" d="M214.399,325.936l-0.381,0.744c0.096,0.131,0.192,0.261,0.288,0.391l0.48-0.933
		c-0.002-0.001-0.003-0.002-0.005-0.004L214.399,325.936z"/>
	<path fill="none" d="M213.919,326.871c0.095,0.128,0.189,0.256,0.297,0.38v-0.006c-0.061-0.136-0.154-0.292-0.261-0.441
		L213.919,326.871z"/>
	<path fill="none" d="M215.433,330.961c1.14,1.539,2.274,3.078,3.408,4.618l0.035-0.068c-1.107-1.495-2.216-2.992-3.325-4.488
		L215.433,330.961z"/>
	<path fill="none" d="M215.716,331.107c1.07,1.443,2.139,2.881,3.203,4.319l0.498-0.97c-0.575-0.778-1.158-1.559-1.736-2.34
		L215.716,331.107z"/>
	<path fill="none" d="M213.366,327.945c0.055,0.071,0.106,0.143,0.159,0.215c0.044,0.057,0.088,0.117,0.131,0.176l0.095-0.183
		l0.403-0.786c-0.096-0.129-0.193-0.259-0.29-0.388L213.366,327.945z"/>
	<path fill="none" d="M213.511,329.975c1.151,1.562,2.288,3.13,3.424,4.688c0.465,0.639,0.93,1.278,1.393,1.917l0.472-0.919
		c-1.185-1.613-2.369-3.209-3.554-4.796L213.511,329.975z"/>
	<path fill="none" d="M222.257,339.425l-0.155,0.306c0.468,0.633,0.938,1.271,1.405,1.9c0.121,0.163,0.212,0.422,0.441,0.452
		c-0.03-0.532-0.116-1.049-0.071-1.607c-0.071-0.095-0.142-0.191-0.213-0.287l-0.194-0.1l-0.08,0.157l-0.905-0.467l0.097-0.187
		L222.257,339.425z"/>
	<path fill="none" d="M213.295,328.088c0.019,0.025,0.038,0.051,0.057,0.076c0.077,0.104,0.155,0.208,0.232,0.312l0.029-0.058
		c-0.063-0.085-0.127-0.171-0.191-0.257c-0.032-0.044-0.064-0.089-0.098-0.133L213.295,328.088z"/>
	<path fill="none" d="M221.773,339.096l-0.229-0.117c0.057,0.076,0.115,0.153,0.172,0.23L221.773,339.096z"/>
	<path fill="none" d="M212.811,329.03c0.096,0.129,0.193,0.258,0.289,0.388l0.434-0.841c-0.097-0.13-0.195-0.259-0.292-0.388
		L212.811,329.03z"/>
	<path fill="none" d="M212.481,328.873l-0.055,0.105c1.929,2.602,3.865,5.214,5.788,7.818l0.052-0.101
		c-1.663-2.297-3.354-4.592-5.063-6.882l-0.242-0.124l0.061-0.119c-0.171-0.228-0.339-0.455-0.509-0.682L212.481,328.873z"/>
	<path fill="none" d="M219.496,337.964l-0.261-0.134c0.063,0.088,0.128,0.177,0.191,0.266L219.496,337.964z"/>
	<path fill="none" d="M210.665,332.403c4.649,6.301,9.286,12.617,13.827,18.881c0.022-0.575-0.067-1.115-0.093-1.676
		c-4.265-6.026-8.723-12.092-13.242-18.159L210.665,332.403z"/>
	<path fill="none" d="M218.979,337.698l-0.041,0.078c1.735,2.354,3.453,4.696,5.137,7.01c-1.417-2.27-3.118-4.359-4.688-6.552
		l-0.024-0.013l0.007-0.011c-0.12-0.167-0.243-0.333-0.363-0.499L218.979,337.698z"/>
	<path fill="none" d="M218.879,337.889l-0.195,0.384l-0.972-0.499l0.445-0.867c-1.917-2.615-3.842-5.226-5.778-7.834l-0.439,0.854
		c4.118,5.572,8.146,11.19,12.226,16.756c0.027,0.013,0.056,0.021,0.066-0.02c-0.023-0.523-0.096-1.032-0.094-1.562
		C222.393,342.693,220.64,340.29,218.879,337.889z"/>
	<path fill="none" d="M211.88,330.043l-0.061,0.118c4.17,5.638,8.302,11.288,12.407,16.946c-0.352-0.826-0.966-1.499-1.491-2.226
		C219.155,339.942,215.536,334.981,211.88,330.043z"/>
	<path fill="none" d="M211.768,330.259l-0.44,0.857c4.41,5.931,8.764,11.876,13.014,17.845c0.045-0.558-0.134-1.044-0.071-1.606
		C220.144,341.642,215.979,335.943,211.768,330.259z"/>
	<path fill="none" d="M211.275,331.22l-0.058,0.11c4.417,6.026,8.782,12.062,13.14,18.033c-0.428-0.873-1.03-1.667-1.601-2.45
		C218.95,341.697,215.13,336.452,211.275,331.22z"/>
	<path fill="none" d="M217.794,332.052c0.561,0.761,1.121,1.523,1.684,2.29l0.035-0.07c-0.57-0.762-1.136-1.51-1.704-2.25
		L217.794,332.052z"/>
	<path fill="none" d="M217.871,331.9c0.471,0.638,0.94,1.272,1.411,1.906c-0.221-0.562-0.314-1.306-0.354-2.151
		c-0.184-0.247-0.366-0.493-0.55-0.739L217.871,331.9z"/>
	<path fill="none" d="M223.984,342.775c-0.119-0.324-0.551-0.794-0.878-1.236c-0.499-0.674-1.009-1.371-1.508-2.051l-0.021-0.012
		l0.005-0.011c-0.114-0.154-0.225-0.308-0.336-0.459l-0.089,0.173l-1.034-0.531l0.015-0.027l-0.525-0.27
		c1.481,2.046,2.965,4.086,4.464,6.099C223.977,343.853,224.173,343.283,223.984,342.775z"/>
	<path fill="none" d="M218.907,331.167c-0.012-0.399-0.016-0.816-0.021-1.241l-0.366,0.711
		C218.65,330.813,218.777,330.99,218.907,331.167z"/>
	<path fill="none" d="M218.921,331.512c-0.002-0.034-0.004-0.066-0.005-0.101c-0.124-0.189-0.216-0.406-0.421-0.436
		C218.68,331.104,218.778,331.359,218.921,331.512z"/>
	<path fill="none" d="M221.321,338.863l-0.028,0.053c0.112,0.153,0.225,0.305,0.337,0.459l0.043-0.083
		c-0.1-0.134-0.198-0.268-0.295-0.4L221.321,338.863z"/>
	<path fill="none" d="M193.996,271.753C193.946,271.823,194.065,271.831,193.996,271.753L193.996,271.753z"/>
	<path fill="none" d="M194.538,268.016c-0.008-0.044,0.033-0.04,0.017-0.093c-0.034-0.034-0.054,0.023-0.092-0.015
		c-0.02,0.035-0.021,0.088-0.033,0.129C194.485,268.04,194.5,267.976,194.538,268.016z"/>
	<path fill="none" d="M192.984,271.651c0.05-0.013,0.146,0.02,0.165-0.023c-0.058-0.003-0.104-0.016-0.148-0.032
		C193.003,271.621,192.995,271.636,192.984,271.651z"/>
	<path fill="none" d="M194.505,268.109c0.05,0.011,0.034-0.04,0.053-0.057C194.518,268.051,194.499,268.068,194.505,268.109z"/>
	<path fill="none" d="M194.329,268.389c-0.112,0.035-0.085,0.144-0.013,0.201C194.311,268.516,194.345,268.475,194.329,268.389z"/>
	<path fill="none" d="M194.383,268.369c0.052-0.05,0.141-0.108,0.143-0.151c0.025,0.002,0.071-0.004,0.036-0.019
		c-0.097-0.017-0.121-0.015-0.2,0.042c-0.001-0.025,0-0.049-0.001-0.074c-0.068,0.002-0.079,0.057-0.071,0.131
		C194.428,268.274,194.37,268.329,194.383,268.369z"/>
	<path fill="none" d="M194.149,268.577c0.001,0.024,0.002,0.049,0.004,0.073c0.078-0.058,0.054,0.058,0.088-0.075
		C194.187,268.588,194.207,268.588,194.149,268.577z"/>
	<path fill="none" d="M192.871,271.489c-0.009,0.042-0.091,0.102-0.052,0.129c0.049,0.008,0.11-0.056,0.181-0.078
		C192.946,271.534,192.941,271.478,192.871,271.489z"/>
	<path fill="none" d="M193.948,271.388c-0.006,0.076,0.037,0.101,0.059,0.145C194.012,271.459,193.998,271.405,193.948,271.388z"/>
	<path fill="none" d="M210.557,332.617c4.645,6.366,9.229,12.753,13.909,19.046c-0.012,0.028-0.021,0.056,0.021,0.066
		c0.042-0.075,0.061-0.143,0.047-0.2c-4.601-6.357-9.233-12.705-13.912-19.039L210.557,332.617z"/>
	<path fill="none" d="M194.385,271.907c-0.019,0.042-0.083,0.041-0.071,0.112c0.046,0.01,0.086,0.024,0.148,0.014
		C194.478,271.947,194.428,271.932,194.385,271.907z"/>
	<path fill="none" d="M193.654,271.964c0.027,0.007,0.015,0.058,0.073,0.034C193.726,271.902,193.688,271.902,193.654,271.964z"/>
	<path fill="none" d="M193.373,271.752c-0.001-0.032-0.017-0.047-0.038-0.056C193.337,271.726,193.334,271.761,193.373,271.752z"/>
	<path fill="none" d="M193.437,271.401c0.03,0.123-0.139,0.059-0.142,0.15c0.061-0.002,0.121-0.002,0.183-0.004
		c-0.014-0.06-0.04-0.079,0.035-0.057C193.525,271.419,193.472,271.42,193.437,271.401z"/>
	<path fill="none" d="M194.138,270.869c0.012,0,0.021,0.002,0.019,0.018c0.013-0.001,0.024,0,0.037-0.001
		C194.22,270.84,194.128,270.834,194.138,270.869z"/>
	<path fill="none" d="M206.161,325.854c0.471,0.636,0.516,1.476,0.984,2.112l0.051-0.101c-0.424-0.57-0.428-1.348-0.854-1.917
		L206.161,325.854z"/>
	<path fill="none" d="M207.406,326.168l-0.134,0.259l-0.723-0.372c0.085,0.112,0.17,0.226,0.254,0.34
		c0.287,0.389,0.154,0.986,0.44,1.377l0.476-0.923c-0.039-0.052-0.079-0.104-0.116-0.158L207.406,326.168z"/>
	<path fill="none" d="M207.903,250.683l1.924,0.78c1.42-1.354,2.484-2.368,2.625-2.525c0.471-0.521,0.954-1.03,1.445-1.533
		c-2.547,1.338-4.776,2.501-6.609,3.446l0.471,0.191L207.903,250.683z"/>
	<path fill="none" d="M194.546,268.308c-0.066,0.014-0.178,0.159-0.142,0.152c0.057-0.107,0.152,0.092,0.22-0.024
		C194.558,268.436,194.59,268.333,194.546,268.308z"/>
	<path fill="none" d="M194.427,272.109c0,0.011,0,0.023,0.001,0.034c0.013,0.001,0.024,0,0.037,0
		c-0.001-0.012-0.001-0.024-0.001-0.036C194.451,272.108,194.439,272.109,194.427,272.109z"/>
	<path fill="#E53422" d="M288.651,255.36c-0.422,3.536-1.093,6.967-1.98,10.086c-0.039,0.138-0.082,0.288-0.124,0.437l4.384-8.104
		C290.047,257.332,289.394,256.554,288.651,255.36z"/>
	<path fill="#A41C1C" d="M295.85,258.104c-0.956,0.1-1.757,0.162-2.441,0.162c-1.043,0-1.823-0.154-2.478-0.486l-4.384,8.104
		c-0.44,1.54-1.05,3.602-1.875,5.32c-0.631,1.315-2.591,3.947-2.353,5.108c0.04,0.194,0.191,0.444,0.408,0.726l13.189-18.701
		C295.895,258.256,295.873,258.185,295.85,258.104z"/>
	<path fill="#E53422" d="M295.917,258.335l-13.189,18.701c0.319,0.412,0.79,0.895,1.327,1.396l13.982-15.596
		C297.079,261.998,296.59,260.657,295.917,258.335z"/>
	<path fill="#A41C1C" d="M302.778,264.333c-2.436-0.328-3.811-0.679-4.741-1.496l-13.982,15.596
		c0.459,0.429,0.958,0.867,1.444,1.282l17.287-15.209C302.784,264.446,302.781,264.393,302.778,264.333z"/>
	<path fill="#E53422" d="M302.786,264.505l-17.287,15.209c0.558,0.477,1.087,0.917,1.507,1.272l16.762-11.588
		C303.054,268.354,302.898,266.926,302.786,264.505z"/>
	<path fill="#A41C1C" d="M308.065,272.003c-2.328-0.899-3.589-1.565-4.298-2.604l-16.762,11.588c0.295,0.25,0.539,0.46,0.688,0.604
		c0.264,0.254,0.567,0.523,0.89,0.801l19.465-10.295C308.054,272.065,308.06,272.036,308.065,272.003z"/>
	<path fill="#E53422" d="M308.048,272.097l-19.465,10.295c0.547,0.474,1.15,0.978,1.725,1.501l17.515-6.791
		C307.396,275.919,307.59,274.484,308.048,272.097z"/>
	<path fill="#A41C1C" d="M311.421,280.696c-2.089-1.441-3.165-2.39-3.599-3.593l-17.515,6.791c0.641,0.584,1.24,1.191,1.679,1.803
		l19.432-4.993C311.419,280.701,311.421,280.698,311.421,280.696z"/>
	<path fill="#E53422" d="M311.418,280.704l-19.432,4.993c0.368,0.514,0.622,1.031,0.687,1.542c0.026,0.205,0.035,0.418,0.035,0.637
		l17.286-2.345C309.879,284.282,310.409,282.928,311.418,280.704z"/>
	<path fill="#A41C1C" d="M309.994,285.529l-17.286,2.345c0.002,0.729-0.129,1.523-0.324,2.328l20.224-0.333
		C310.919,287.985,310.112,286.812,309.994,285.529z"/>
	<path fill="#E53422" d="M312.661,289.93c-0.02-0.021-0.035-0.04-0.054-0.061l-20.224,0.333c-0.179,0.733-0.408,1.472-0.639,2.178
		l18.416,1.851C310.359,293.014,311.187,291.827,312.661,289.93z"/>
	<path fill="#A41C1C" d="M310.161,294.231l-18.416-1.851c-0.22,0.676-0.439,1.322-0.611,1.898c-0.02,0.068-0.041,0.135-0.062,0.205
		l20.564,4.566C310.444,296.834,309.951,295.513,310.161,294.231z"/>
	<path fill="#E53422" d="M311.716,299.199c-0.028-0.053-0.051-0.098-0.079-0.149l-20.564-4.566c-0.204,0.685-0.409,1.365-0.613,2.04
		l17.851,6.218C308.799,301.629,309.873,300.675,311.716,299.199z"/>
	<path fill="#A41C1C" d="M308.31,302.741l-17.851-6.218c-0.213,0.701-0.426,1.396-0.639,2.087l18.757,9.143
		C307.939,305.33,307.782,303.939,308.31,302.741z"/>
	<path fill="#E53422" d="M308.639,307.993c-0.022-0.084-0.04-0.158-0.062-0.24l-18.757-9.143c-0.22,0.715-0.44,1.424-0.661,2.129
		l15.376,9.86C305.275,309.656,306.536,308.984,308.639,307.993z"/>
	<path fill="#A41C1C" d="M304.535,310.6l-15.376-9.86c-0.242,0.771-0.485,1.535-0.73,2.295l8.61,7.086
		c1.85,0.302,3.424,1.273,4.384,3.325c0.067,0.144,0.136,0.295,0.205,0.45l1.965,1.617
		C303.541,313.016,303.722,311.637,304.535,310.6z"/>
	<path fill="#E53422" d="M287.622,305.502l4.757,4.949c1.616-0.394,3.222-0.565,4.66-0.331l-8.61-7.086
		C288.162,303.863,287.894,304.686,287.622,305.502z"/>
	<path fill="#E53422" d="M302.498,316.067c0.344-0.078,0.704-0.156,1.1-0.239c-0.003-0.111-0.003-0.209-0.005-0.315l-1.965-1.617
		C301.914,314.544,302.209,315.286,302.498,316.067z"/>
	<path fill="#A41C1C" d="M286.668,308.312l2.418,3.198c1.067-0.416,2.183-0.788,3.293-1.059l-4.757-4.949
		C287.308,306.445,286.99,307.383,286.668,308.312z"/>
	<path fill="#E53422" d="M285.53,311.503l0.724,1.233c0.875-0.413,1.833-0.838,2.832-1.227l-2.418-3.198
		C286.296,309.384,285.917,310.447,285.53,311.503z"/>
	<path fill="#A41C1C" d="M284.812,313.436c0.447-0.222,0.931-0.458,1.442-0.699l-0.724-1.233
		C285.294,312.149,285.056,312.795,284.812,313.436z"/>
	<path fill="#E53422" d="M218.397,321.69c-0.184-2.199-0.425-4.397-0.777-6.617l-0.938,1.101L218.397,321.69z"/>
	<path fill="#A41C1C" d="M216.682,316.174l0.938-1.101c-0.283-1.79-0.636-3.594-1.104-5.431l-5.939,5.491L216.682,316.174z"/>
	<path fill="#E53422" d="M216.516,309.643c-0.011-0.04-0.019-0.08-0.028-0.12c-0.373-1.444-0.889-2.801-1.422-4.146l-5.007,3.647
		l0.414,6.207l0.104-0.097L216.516,309.643z"/>
	<path fill="#A41C1C" d="M213.624,301.548c-0.014-0.041-0.03-0.086-0.044-0.127l-9.218,5.171l5.696,2.432l5.007-3.647
		C214.565,304.111,214.05,302.856,213.624,301.548z"/>
	<path fill="#E53422" d="M212.21,297.645l-6.927,2.885l-1.043,6.131l0.122-0.068l9.218-5.171
		C213.192,300.245,212.682,298.948,212.21,297.645z"/>
	<path fill="#A41C1C" d="M211.084,293.783l-10.773,3.054l4.973,3.692l6.927-2.885C211.729,296.317,211.301,294.991,211.084,293.783z
		"/>
	<path fill="#E53422" d="M211.021,293.459c-0.345-2.324,0.901-3.269,2.428-4.047l-10.831,1.744l-2.442,5.72l0.135-0.039
		l10.773-3.054C211.064,293.676,211.037,293.564,211.021,293.459z"/>
	<path fill="#A41C1C" d="M216.181,287.952c1.287-0.927,2.471-1.698,3.644-2.418l-21.184,0.874l3.978,4.748l10.831-1.744
		C214.353,288.951,215.353,288.548,216.181,287.952z"/>
	<path fill="#E53422" d="M224.017,283.067l-21.809-1.648l-3.708,4.995l0.141-0.005l21.184-0.874
		C221.187,284.698,222.541,283.925,224.017,283.067z"/>
	<path fill="#A41C1C" d="M226.054,281.867c0.245-0.147,0.603-0.346,1.01-0.572l-27.617-5.42l2.762,5.543l21.809,1.648
		C224.669,282.688,225.339,282.296,226.054,281.867z"/>
	<path fill="#E53422" d="M229.366,279.968l-25.29-8.113l-4.768,3.993l0.138,0.027l27.617,5.42
		C227.771,280.903,228.635,280.425,229.366,279.968z"/>
	<path fill="#A41C1C" d="M230.866,278.756c0.007-0.014,0.009-0.029,0.016-0.043l-28.199-12.893l1.394,6.034l25.29,8.113
		C230.111,279.502,230.717,279.059,230.866,278.756z"/>
	<path fill="#E53422" d="M230.681,276.679l-22.56-13.691l-5.567,2.773l0.129,0.059l28.199,12.893
		C231.162,278.099,231.005,277.388,230.681,276.679z"/>
	<path fill="#A41C1C" d="M229.026,273.867c-0.176-0.386-0.33-0.759-0.473-1.126l-20.384-15.946l-0.049,6.193l22.56,13.691
		C230.198,275.625,229.351,274.578,229.026,273.867z"/>
	<path fill="#E53422" d="M227.603,268.66l-0.214-0.212c-3.028-0.541-5.331-2.363-6.731-4.417c-0.777-1.14-1.473-2.601-1.989-4.218
		l-4.549-4.505l-6.06,1.401l0.11,0.086l20.384,15.946C228.019,271.361,227.714,270.08,227.603,268.66z"/>
	<path fill="#A41C1C" d="M217.905,252.184l-2.297-2.888l-1.489,6.012l4.549,4.505C217.912,257.444,217.547,254.737,217.905,252.184z
		"/>
	<path fill="#A41C1C" d="M227.587,268.485c-0.067-0.011-0.132-0.025-0.198-0.038l0.214,0.212
		C227.599,268.601,227.591,268.544,227.587,268.485z"/>
	<path fill="#E53422" d="M218.695,249.245c0.004-0.01,0.014-0.023,0.019-0.035l-3.193-0.024l0.088,0.11l2.297,2.888
		C218.049,251.169,218.304,250.179,218.695,249.245z"/>
	<path fill="#F0D6B8" d="M275.059,220.723c-0.541-0.228-1.124-0.439-1.749-0.631c0.165,0.253,0.31,0.521,0.432,0.796
		c0.247,0.546,0.401,1.127,0.483,1.717c0.04,0.295,0.063,0.593,0.063,0.899c-0.006,0.303-0.01,0.62-0.116,0.999
		c-0.092,0.272-0.179,0.438-0.277,0.596c-0.098,0.162-0.205,0.301-0.316,0.434c-0.223,0.264-0.465,0.486-0.722,0.683
		c-0.514,0.394-1.086,0.702-1.722,0.902c-0.634,0.191-1.343,0.285-2.056,0.158c-0.711-0.112-1.401-0.438-1.935-0.889
		c-0.14-0.107-0.258-0.23-0.384-0.348c-0.115-0.132-0.217-0.241-0.335-0.396l-0.119-0.162l-0.16-0.235
		c-0.099-0.156-0.18-0.31-0.259-0.487c-0.151-0.349-0.289-0.77-0.258-1.279c0.014-0.504,0.262-1.042,0.596-1.367
		c0.682-0.657,1.398-0.744,2.019-0.785c0.629-0.024,1.222,0.094,1.768,0.294l0.325,0.119l0.033,0.144
		c0.049,0.22,0.109,0.461,0.12,0.72c0.018,0.256-0.021,0.526-0.128,0.748l-0.232-0.033c-0.027-0.104-0.055-0.2-0.096-0.289
		c-0.045-0.088-0.088-0.172-0.142-0.251c-0.046-0.064-0.104-0.132-0.153-0.197c-0.439,0.055-0.86,0.152-1.227,0.289
		c-0.394,0.148-0.736,0.415-0.758,0.554c-0.009,0.07,0.034,0.049,0.054,0.07c0.021,0.018,0.061,0.108,0.143,0.225
		c0.037,0.057,0.095,0.125,0.141,0.187l0.07,0.083l0.127,0.144c0.116,0.113,0.263,0.257,0.394,0.359
		c0.275,0.213,0.553,0.363,0.869,0.454c0.314,0.092,0.677,0.118,1.059,0.065c0.379-0.058,0.773-0.194,1.119-0.399
		c0.171-0.103,0.33-0.222,0.461-0.345c0.062-0.062,0.123-0.125,0.167-0.183c0.052-0.057,0.079-0.128,0.085-0.099
		c0.061-0.119,0.091-0.332,0.113-0.55c0.021-0.218,0.025-0.444,0.016-0.669c-0.019-0.453-0.1-0.902-0.232-1.332
		c-0.134-0.431-0.335-0.836-0.597-1.204c-0.176-0.249-0.396-0.482-0.627-0.69c-1.253-0.25-2.643-0.425-4.175-0.503
		c-9.272,5.017-19.768,10.661-29.588,15.912c-0.411,0.896-0.74,1.724-1.007,2.462c-0.474,2.375-1.156,4.766-1.243,7.271
		c-0.099,2.845,1.126,5.39,1.449,8.425c0,0,1.407,5.519,2.547,6.849c1.141,1.33,4.418,2.613,5.083,3.041
		c0.664,0.427,1.853,2.565-0.476,2.897c-2.327,0.333-8.977-1.045-9.547-1.567c0,0-1.7-7.161-1.757-9.926
		c-0.128-0.615-0.308-1.246-0.541-1.86l0.025,0.377c0,0-2.379-1.439-4.589-1.913c2.061,0.716,3.947,3.2,3.248,6.562
		c-1.201-0.685-1.486-3.704-2.896-3.789c-2.014-0.123-1.646,3.916-1.639,6.276c-1.387-1.258-1.63-5.134-0.611-7.124
		c-0.914-0.449-1.43,0.197-1.921,0.699c-0.716,3.334-1.763,6.029,0.198,9.4c1.256,1.293,2.81,2.103,4.554,1.93
		c1.825-0.18,2.274-2.009,4.262-1.991c0,0,1.158,0.135,1.354,1.505c0.192,1.355,0.774,13.409,8.905,20.122
		c1.57,0.268,3.257,0.407,4.988,0.522c0.902-1.943,4.226-1.783,6.391-1.275c-2.595-1.028-5.008-3.52-7.007-5.725
		c-2.296-2.531-4.623-5.245-4.74-8.552c4.34,6.021,7.926,11.279,15.817,13.928c2.058,0.69,4.233,0.786,6.391,0.497
		c-0.188-0.062-0.43-0.121-0.43-0.293c0-0.219-0.43-0.641-0.648-0.646c-1.316-0.033-2.14,1.514-2.66-0.224
		c-0.063-0.215-0.106-0.577-0.106-0.802c0-0.367-0.407-0.137-0.528-0.341c-0.134-0.223-0.948-0.163-1.179-0.171
		c0.991-1.95,3.55-2.386,4.74-4.147c0.765-1.132,1.444-2.315,2.13-3.495c1.159-0.15,1.576-0.172,2.099,0.923
		c0.221,0.461,0.132,1.004,0.3,1.431c0.168,0.417-0.169,1.291,0.244,1.638c0.797,0.668,1.123,2.162,1.214,3.136
		c0.024,0.26-0.32,1.245-0.603,1.825c2.433-0.9,4.702-2.157,6.571-3.47c1.903-1.339,3.04-3.464,4.395-5.41
		c5.063-7.284,7.426-17.681,6.907-27.758c-0.214-4.156-0.205-8.298-1.6-11.094c-1.457-2.924-6.386-5.539-9.271-2.895
		c-0.053-0.275-0.062-0.538-0.052-0.792c-0.461,0.431-0.74,0.747-0.74,0.747c-0.393-0.783-0.392-1.566-0.392-1.566
		c0.144-3.707,3.189-4.612,4.838-4.83C278.386,223.913,276.842,222.098,275.059,220.723z M256.765,266.433
		c0,0-2.351,0.392-2.155,4.312l-0.979-0.197c0,0-1.012-3.554-0.524-4.205C253.363,265.999,254.781,265.478,256.765,266.433z
		 M258.718,238.828c1.145,2.099,1.517,4.303,3.144,5.889c0.733,0.714,2.158,1.584,1.452,3.57c-0.166,0.469-1.372,1.513-2.068,1.718
		c-2.544,0.751-8.472,0.155-6.464-3.017c2.104,0.099,4.932,1.367,6.505-0.16c-0.307-0.489-0.673-1.1-1.037-1.776
		c-1.617,1.019-6.031,1.066-6.031-1.538c0-2.742,4.31-3.33,4.31-3.33l0.032,0.078C258.523,239.743,258.566,239.257,258.718,238.828z
		 M248.341,229.41c3.847-2.623,5.797-1.127,6.76,0.606c0.928,0.542,1.596,1.496,0.884,2.667c-5.34-1.243-7.993,2.234-9.61,5.841
		c-0.415,0.753-0.439,0.22-0.678-0.438c-0.092-0.129-0.157-0.276-0.196-0.438c-0.079-0.144-0.174-0.283-0.293-0.403
		C244.424,236.462,244.032,232.349,248.341,229.41z M274.396,274.189c0,0-3.392-0.925-3.854-0.925c-0.462,0-3.236-0.77-4.47-0.924
		s-3.7,0-3.7,0l-2.158-0.771v-0.617l7.554,0.154c0,0,1.696,0.462,2.466,0.617c0.771,0.154,2.468,0.462,3.084,0.771
		s1.695,0.924,1.695,1.387S274.396,274.189,274.396,274.189z M276.473,272.562c-1.559-1.914-2.54-2.177-2.54-2.177l-2.359-0.181
		c0,0-1.008-0.689-1.633-0.907c-0.624-0.219-1.996-0.182-3.266-0.363c-1.271-0.181-2.541,0.907-4.718,1.088
		c-2.178,0.182-5.443-1.996-5.443-1.996s2.722,0.363,4.173,0.363c1.452,0,7.587-2.195,8.347-2.178s2.589,0.806,3.629,0.907
		c0,0,0.694-0.278,1.451-0.181c0.759,0.096,2.722,1.814,3.448,2.903c0.726,1.088,2.229,4.053,2.229,4.053l-1.616-0.088
		C278.175,273.805,277.294,273.57,276.473,272.562z M282.817,243.906c-0.588,0.196-4.411,2.453-4.113-0.392
		c0.251-2.403,2.588-3.26,3.309-3.468c-0.029-0.406-0.043-0.826-0.016-1.283c0.084,0.004,0.17,0.006,0.253,0.01
		c1.207,2.506,2.251,5.161,3.773,7.374c-1.019,2.375-7.721,4.477-7.617,0.212c1.449-0.634,3.951-0.129,5.235-0.938
		c-0.303-0.833-0.658-1.618-0.965-2.449L282.817,243.906z M279.886,254.025c0.69,0.754,1.826,1.479,1.952,1.978
		c0.365,1.451-0.947,3.189-0.796,4.154c-3.83,2.461-8.102,5.136-14.377,4.516c-1.341-1.166-1.853-3.76-0.55-5.474
		c0.058,0.098,0.104,0.205,0.148,0.316c0.292-1.634,0.834-3.529,1.764-3.264c1.6,0.457,1.6,2.056,1.6,2.056
		s-2.014,1.305-3.055,2.376c0.21,0.973,0.465,1.941,1.685,2.149c3.562,0.609,7.707-2.179,10.269-3.153
		c1.588-2.678-0.138-3.663-1.568-5.386c-2.929-3.532-6.859-7.908-6.717-13.195c1.185-0.858,1.286,1.311,1.456,1.706
		C273.227,246.382,277.076,250.961,279.886,254.025z"/>
	<path fill="#F0D6B8" d="M224.27,251.463c0.159-0.14,0.329-0.261,0.508-0.355C224.59,251.199,224.419,251.315,224.27,251.463z"/>
	<path fill="#969DC1" d="M241.101,338.626c-0.819-5.798-1.576-11.047-2.107-16.449l-5.735-0.896l-2.547-1.764l1.248-0.056
		c0.136-2.042,2.893-0.875,3.129-2.372c0.183-1.163-1.604-1.251-1.021-3.084c1.483,0.54,2.263,1.731,3.847,2.179
		c-0.45-2.999-4.8-6.172-5.857-8.64c0.022-0.274-0.318-1.048-0.441-1.619c-3.153-7.168-8.907-10.974-13.022-12.873
		c0.657,2.547,7.309,28.801,4.76,39.093C228.707,334.853,233.712,338.243,241.101,338.626z M236.297,326.294
		c-0.003-0.014-0.006-0.021-0.007-0.017C236.291,326.272,236.294,326.28,236.297,326.294z"/>
	<path fill="#969DC1" d="M236.992,311.541c0.096,0.104,0.183,0.22,0.273,0.331C237.172,311.716,237.08,311.6,236.992,311.541z"/>
	<path fill="#969DC1" d="M235.577,310.249c0.336,0.383,0.703,0.737,1.101,1.051C236.356,311.033,235.972,310.658,235.577,310.249z"
		/>
	<path fill="#969DC1" d="M237.815,308.367l3.949,8.346c7.943-0.851,20.246-0.725,28.137-0.941c-0.353-0.528-1.262-3.544-2.232-5.348
		c-0.823-1.527-1.123-2.594-1.059-3.878c0.059-1.176,0.764-1.939,0.412-2.469c-0.085-1.676-2.031-2.81-2.41-4.055
		c-0.603-1.984-6.931,2.092-10.621,3.724c-3.938,2.147-4.707-2.059-5.638-5.039c-0.844-2.699-1.325-4.715-1.531-6.272
		c-3.394-1.617-7.021-3.254-9.94-5.329c-0.308-0.219-1.639-1.874-2.803-3.196l-14.86,8.553
		c11.371,5.149,13.189,13.084,13.189,13.084L237.815,308.367z M266.846,311.717c0.746,0,1.352,0.605,1.352,1.352
		c0,0.747-0.605,1.353-1.352,1.353c-0.747,0-1.352-0.605-1.352-1.353C265.494,312.322,266.099,311.717,266.846,311.717z"/>
	<path fill="#969DC1" d="M232.411,305.576c0.007,0.007,0.012,0.011,0.019,0.017l-0.021-0.046
		C232.408,305.547,232.409,305.558,232.411,305.576z"/>
	<path fill="#DDD9D9" d="M221.754,243.257c-0.007,0.003-0.013,0.006-0.02,0.01l-0.001,0.031
		C221.74,243.285,221.747,243.271,221.754,243.257z"/>
	<path fill="#DDD9D9" d="M223.204,242.488c-0.243,0.129-0.489,0.259-0.729,0.387c0.045,1.312,0.158,2.594,0.253,3.737
		c0.23-0.146,0.466-0.271,0.703-0.387C223.271,245.363,223.108,244.023,223.204,242.488z"/>
	<path fill="#F7E4CD" d="M233.846,264.473c-0.195-1.371-1.354-1.505-1.354-1.505c1.078,2.15-1.662,2.826-1.944,4.363
		c-0.072,0.397,0.228,1.95,0.402,2.678c0.857,3.545,2.771,8.134,4.654,10.833c1.569,2.25,4.139,3.241,7.146,3.753
		C234.62,277.882,234.038,265.829,233.846,264.473z"/>
	<path fill="#F7E4CD" d="M266.572,260.682c1.041-1.071,3.055-2.376,3.055-2.376s0-1.599-1.6-2.056
		c-0.93-0.265-1.472,1.63-1.764,3.264C266.402,259.868,266.484,260.274,266.572,260.682z"/>
	<path fill="#F7E4CD" d="M278.704,243.514c-0.298,2.845,3.525,0.587,4.113,0.392l-0.141-0.935c-0.324-0.88-0.584-1.819-0.664-2.925
		C281.292,240.254,278.955,241.111,278.704,243.514z"/>
	<path fill="#F7E4CD" d="M254.218,243.514c0,2.604,4.414,2.557,6.031,1.538c-0.8-1.482-1.585-3.277-1.689-4.791l-0.032-0.078
		C258.527,240.184,254.218,240.772,254.218,243.514z"/>
	<path fill="#F7E4CD" d="M223.479,253.628c-0.134,0.136-0.266,0.262-0.402,0.352c0.162-1.182,0.604-2.002,1.193-2.517
		c0.149-0.148,0.32-0.265,0.508-0.355c0.75-0.396,1.65-0.407,2.521-0.104c2.21,0.473,4.589,1.913,4.589,1.913l-0.025-0.377
		c-0.797-2.1-2.224-3.986-4.382-4.222c-3.991-0.437-6.91,2.867-7.092,6.319c-0.135,2.562,1.142,6.183,3.289,8.392
		C221.716,259.657,222.763,256.962,223.479,253.628z"/>
	<path fill="#F7E4CD" d="M273.31,220.092c0.625,0.192,1.208,0.403,1.749,0.631c-0.507-0.39-1.03-0.749-1.578-1.058v0
		c-0.3-0.169-0.614-0.336-0.934-0.5c0.074,0.073,0.149,0.145,0.221,0.224C272.966,219.607,273.147,219.843,273.31,220.092z"/>
	<path fill="#F7E4CD" d="M270.786,219.267c-0.658-0.461-1.39-0.837-2.16-1.141c-0.557,0.302-1.119,0.605-1.686,0.912
		c1.532,0.078,2.922,0.253,4.175,0.503C271.007,219.444,270.897,219.351,270.786,219.267z"/>
	<path fill="#F7E4CD" d="M236.687,235.305c-0.081,0.702-0.201,1.403-0.341,2.106c0.267-0.738,0.596-1.566,1.007-2.462
		C237.13,235.068,236.909,235.187,236.687,235.305z"/>
	<path fill="#F7E4CD" d="M274.981,230.585c0,0-0.001,0.783,0.392,1.566c0,0,0.279-0.315,0.74-0.747
		c0.1-2.363,2.785-3.711,5.897-2.787c-0.714-0.921-1.438-1.895-2.191-2.863C278.171,225.974,275.125,226.878,274.981,230.585z"/>
	<path fill="#F7E4CD" d="M245.696,238.086c0.238,0.658,0.263,1.191,0.678,0.438C246.058,238.447,245.843,238.291,245.696,238.086z"
		/>
	<path fill="#F7E4CD" d="M245.207,237.245c0.119,0.12,0.214,0.259,0.293,0.403c-0.185-0.755,0.134-1.796,0.369-2.44
		c0.955-2.628,4.807-6.126,7.953-5.652c0.413,0.062,0.871,0.222,1.278,0.461c-0.963-1.733-2.913-3.229-6.76-0.606
		C244.032,232.349,244.424,236.462,245.207,237.245z"/>
	<path fill="#BFC4DD" d="M218.592,293.053c-2.339-1.081-4.147-1.546-4.644-1.663c-0.354,0.311-0.639,0.701-0.814,1.228
		c-1.176,3.526,8.348,25.635,8.718,38.795c0.505,0.235,1.004,0.483,1.5,0.733C225.9,321.854,219.249,295.6,218.592,293.053z"/>
	<path fill="#BFC4DD" d="M234.079,283.91c-0.853-0.968-1.617-1.759-1.825-1.677c-4.234,1.67-9.197,4.144-13.126,6.859
		c-1.312,0.906-2.983,1.11-4.261,1.709c1.587,0.505,3.033,1.064,4.352,1.661L234.079,283.91z"/>
	<path fill="#BFC4DD" d="M237.266,311.872c1.244,1.525,2.031,3.685,2.902,5.033c0.509-0.069,1.043-0.133,1.597-0.192l-3.949-8.346
		l-5.407-2.82l0.021,0.046c0.729,0.788,1.652,2.955,3.147,4.656c0.395,0.409,0.779,0.784,1.101,1.051
		c0.104,0.081,0.206,0.166,0.314,0.241C237.08,311.6,237.172,311.716,237.266,311.872z"/>
	<path fill="#BFC4DD" d="M233.258,321.281l5.735,0.896c-0.074-0.757-0.145-1.517-0.21-2.281c-2.028-0.854-4.938,0.038-6.837-0.266
		c-0.001-0.062,0.01-0.111,0.013-0.168l-1.248,0.056L233.258,321.281z"/>
	<path fill="#969DC1" d="M271.314,322.846c0.081,3.923,0.328,7.828,0.629,11.775c2.058-0.309,3.453-0.515,5.364-0.934
		c-0.476-3.956-0.544-8.29-1.118-12.155C274.894,322.263,272.901,323.15,271.314,322.846z"/>
	<path fill="#969DC1" d="M277.249,281.891c-0.357,0.297-0.674,0.596-0.888,0.91c0.607-0.294,1.156-0.391,1.654-0.34L277.249,281.891
		z"/>
	<path fill="#969DC1" d="M280.225,284.101c1.876,3.126,1.873,9.817,0.418,12.564c0.33,1.198-6.668,0.514-6.206,1.592
		c-0.478,0.855-1.643,0.539-1.775,1.543c-0.208,1.58-0.675,2.557-1.157,4.709c-0.307,1.366-3.813,0.498-3.953,2.037
		c-0.208,2.309,2.942,7.583,3.174,9.05c2.244-0.191,7.991-0.94,10.645-1.659c0.99-0.392,1.706-2.657,2.455-4.47
		c2.062-4.986,4.225-11.272,5.188-16.03c0.116-0.582,0.34-1.53,0.503-2.434L280.225,284.101z M270.842,306.311
		c0.533,0,0.989,0.312,1.209,0.76l1.134-0.255l0.125,0.494l-1.127,0.247c0.003,0.035,0.011,0.069,0.011,0.105
		c0,0.746-0.605,1.352-1.352,1.352c-0.747,0-1.352-0.605-1.352-1.352S270.095,306.311,270.842,306.311z M271.117,312.579
		l-0.08-0.494l2.978-0.7l0.126,0.493L271.117,312.579z"/>
	<path fill="#BFC4DD" d="M275.499,318.147c-1.461,0.014-2.748-0.018-4.204,0.471l0,0c-0.019,1.413-0.01,2.822,0.02,4.228
		c1.587,0.305,3.579-0.583,4.875-1.313C276.015,320.353,275.794,319.215,275.499,318.147z"/>
	<path fill="#BFC4DD" d="M278.016,282.46c0.913,0.092,1.646,0.703,2.209,1.64l9.29,6.902c0.141-0.782,0.235-1.53,0.174-1.978
		c-0.236-1.728-2.58-3.009-3.773-4.077c-2.196-1.973-3.58-3.709-5.871-5.555c-0.668,0.985-1.88,1.738-2.795,2.499L278.016,282.46z"
		/>
	<path fill="#FFFFFF" d="M267.989,344.655c-1.148-0.499-1.953-1.643-1.953-2.975c0-1.118,0.565-2.104,1.426-2.687
		c-0.184-2.523-0.302-5.011-0.373-7.354c-1.182-0.483-2.015-1.644-2.015-3c0-1.319,0.787-2.451,1.917-2.958
		c-0.01-3.383,0.059-6.059,0.108-7.51c-8.354-1.183-19.192,0.079-26.913,1.524c1.355,12.472,3.32,22.956,6.925,34
		c3.917,1.189,8.229,1.844,12.438,1.947c5.846-1.457,9.556-3.805,9.556-3.805C268.643,349.556,268.277,347.127,267.989,344.655z
		 M262.447,319.532c1.791,0,3.243,1.452,3.243,3.243c0,1.792-1.452,3.243-3.243,3.243c-1.792,0-3.243-1.451-3.243-3.243
		C259.204,320.984,260.655,319.532,262.447,319.532z M254.664,326.009c1.79,0,3.243,1.451,3.243,3.243s-1.453,3.243-3.243,3.243
		c-1.792,0-3.243-1.451-3.243-3.243S252.872,326.009,254.664,326.009z M251.456,336.189c0,1.792-1.451,3.243-3.242,3.243
		s-3.244-1.451-3.244-3.243c0-1.791,1.453-3.242,3.244-3.242S251.456,334.398,251.456,336.189z M242.927,324.176
		c0-1.791,1.451-3.243,3.243-3.243c1.791,0,3.242,1.452,3.242,3.243c0,1.792-1.451,3.243-3.242,3.243
		C244.378,327.419,242.927,325.968,242.927,324.176z M242.228,333.949l-1.016-6.358c0.05-0.002,0.099-0.007,0.148-0.007
		c1.791,0,3.244,1.451,3.244,3.243C244.604,332.317,243.597,333.57,242.228,333.949z M245.149,347.022l-1.507-6.124
		c0.444-0.229,0.948-0.36,1.481-0.36c1.791,0,3.244,1.451,3.244,3.243C248.368,345.564,246.929,347.01,245.149,347.022z
		 M250.905,352.911c-1.791,0-3.242-1.451-3.242-3.243c0-1.791,1.451-3.243,3.242-3.243c1.792,0,3.243,1.452,3.243,3.243
		C254.148,351.46,252.697,352.911,250.905,352.911z M256.748,345.04c-1.791,0-3.243-1.451-3.243-3.243
		c0-1.791,1.452-3.243,3.243-3.243c1.792,0,3.243,1.452,3.243,3.243C259.991,343.589,258.54,345.04,256.748,345.04z
		 M259.894,335.187c0-1.791,1.451-3.242,3.243-3.242c1.791,0,3.243,1.451,3.243,3.242c0,1.792-1.452,3.243-3.243,3.243
		C261.345,338.43,259.894,336.979,259.894,335.187z M264.382,351.938c-1.791,0-3.242-1.451-3.242-3.242s1.451-3.243,3.242-3.243
		c1.792,0,3.244,1.452,3.244,3.243S266.174,351.938,264.382,351.938z"/>
	<path fill="#DDD9D9" d="M270.892,344.484c-0.476,0.274-1.023,0.438-1.612,0.438c-0.458,0-0.895-0.097-1.29-0.268
		c0.288,2.472,0.653,4.9,1.116,7.184c0,0-3.71,2.348-9.556,3.805c4.388,0.108,8.665-0.38,12.273-1.498
		C271.2,351.153,271.008,347.848,270.892,344.484z"/>
	<path fill="#DDD9D9" d="M268.317,331.883c-0.436,0-0.85-0.087-1.229-0.243c0.071,2.344,0.189,4.831,0.373,7.354
		c0.519-0.352,1.144-0.557,1.817-0.557c0.513,0,0.993,0.122,1.424,0.334c-0.074-1.734-0.181-3.447-0.369-5.101
		c-0.089-0.783-0.153-1.566-0.208-2.351C269.608,331.671,268.989,331.883,268.317,331.883z"/>
	<path fill="#DDD9D9" d="M266.991,325.682c0.404-0.182,0.854-0.285,1.326-0.285c0.562,0,1.088,0.148,1.549,0.4
		c-0.096-2.406-0.223-4.823-0.597-7.257c-0.698-0.146-1.428-0.263-2.17-0.368C267.05,319.623,266.981,322.299,266.991,325.682z"/>
	<path fill="#FFFFFF" d="M283.964,327.475c-0.177-3.43-0.771-7.205-2.235-9.72c-0.976-0.224-2.112-0.009-3.045,0.009
		c0.354,3.536,1.115,7.367,1.592,11.131C281.409,328.402,282.979,327.75,283.964,327.475z"/>
	<path fill="#FFFFFF" d="M298.964,314.744c-0.81-1.224-3.002-2.825-4.752-1.705c-2.431,1.558-6.436,2.174-8.85,3.692
		c0.457,2.685,1.568,9.296,1.568,10.229c0,0,10.969,0.588,11.949,0.588c0,0,1.869-3.597,1.851-7.714
		C300.216,317.771,299.603,315.71,298.964,314.744z M288.793,321.959c1.187-1.812,5.758-1.187,7.88-0.455
		C294.202,321.766,291.3,322.166,288.793,321.959z M295.335,316.76c-3.031,0.606-5.161,3.554-8.119,3.364
		C288.841,317.833,291.689,316.867,295.335,316.76z M288.66,325.378c1.562-1.677,7.067-0.621,8.869,0.217
		C294.753,325.655,291.301,325.601,288.66,325.378z"/>
	<path fill="#DDD9D9" d="M298.88,327.549c-0.98,0-11.949-0.588-11.949-0.588c0-0.934-1.111-7.545-1.568-10.229
		c-0.415,0.261-0.788,0.545-1.093,0.868c1.042,3.468,1.364,8.23,1.794,12.623c3.559,0.222,7.936-0.979,10.895,0.296
		c-2.065,0.669-4.746,0.674-6.53,1.649c1.459,0.704,4.873,0.562,7.101,0.021c3.059-0.742,4.981-4.489,4.126-8.337
		c-0.239-1.076-0.557-2.548-0.924-4.018C300.749,323.952,298.88,327.549,298.88,327.549z"/>
	<path fill="#DDD9D9" d="M280.275,328.895c0.112,0.884,0.214,1.766,0.285,2.637c1.467,0.046,2.251-0.646,3.457-0.879
		c0.017-0.985,0.003-2.063-0.054-3.178C282.979,327.75,281.409,328.402,280.275,328.895z"/>
	<path fill="#FFFFFF" d="M269.111,304.476c3.181-0.454,1.751-3.576,2.601-5.536c-0.801-0.241-1.975-0.615-2.803-0.97
		c-1.372-0.587-2.351,1.763-2.351,1.763c0,0.166,0.002,0.313,0.005,0.45C267.735,302.176,267.382,304.412,269.111,304.476z"/>
	<path fill="#DDD9D9" d="M268.909,297.97c0.828,0.355,2.002,0.729,2.803,0.97c0.211-0.485,0.559-0.9,1.153-1.184
		c-1.991,0.126-3.095-1.8-4.49-1.948c-1.216-0.131-2.249,1.399-3.833,0.737c-0.362,0.4-0.691,0.835-1.061,1.227
		c1.629,0.576,2.526,1.466,3.082,2.412c-0.003-0.137-0.005-0.284-0.005-0.45C266.559,299.733,267.537,297.383,268.909,297.97z"/>
	<path fill="#FFFFFF" d="M239.738,285.441c-0.422,0.428-0.34,0.894,0.053,1.355c1.28,0.508,4.931,1.883,6.892,1.859
		c0.174-0.716,0.448-1.376,0.359-1.918C244.603,286.31,241.396,286.592,239.738,285.441z"/>
	<path fill="#DDD9D9" d="M239.791,286.797c1.187,1.396,5.214,2.745,6.759,2.839c-0.004-0.335,0.056-0.662,0.133-0.98
		C244.722,288.68,241.071,287.305,239.791,286.797z"/>
	<path fill="#D33832" d="M279.152,287.629c-1.003-0.214-2.561,0.019-3.249,0.157c-0.979,0.195-1.96,0.392-2.155,1.567
		c-0.196,1.175,0.392,1.764-0.196,2.743c-0.587,0.98-1.566,0.391-2.547,0.979c-0.666,0.399-0.245,1.433,0.093,2.053
		c2.373,0.569,5.024,0.879,7.919,0.965c0.646-0.841,0.867-2.442,0.79-4.028C279.753,290.93,279.552,289.087,279.152,287.629z"/>
	<path fill="#D33832" d="M260.286,293.675c-3.017-1.646-0.161-1.161-1.23-3.342c-0.223-0.456-3.336-1.175-3.939-1.175
		c-3.953,0-5.463-0.796-5.049,3.765c0.223,2.446,0.423,4.891,0.616,7.339c0.32,0.604,0.612,1.149,0.845,1.614
		c1.127,0.263,4.844-1.224,5.902-1.802c2.24-1.221,3.978-3.16,5.88-4.462c0.022-0.565,0.044-1.131,0.066-1.697
		C262.322,294.203,261.184,294.165,260.286,293.675z"/>
	<path fill="#D33832" d="M250.714,300.635c-0.01-0.124-0.021-0.249-0.03-0.373c-0.083-0.157-0.167-0.316-0.253-0.481
		c0.051,0.14,0.105,0.283,0.148,0.41C250.63,300.339,250.673,300.488,250.714,300.635z"/>
	<path fill="#D33832" d="M266.39,290.062c0.291,1.341-0.455,2.495-1.585,3.221c0.067,0.287,0.138,0.608,0.206,0.998
		C268.974,295.52,269.045,290.149,266.39,290.062z"/>
	<path fill="#E6413E" d="M271.005,293.075c0.98-0.588,1.96,0,2.547-0.979c0.588-0.979,0-1.567,0.196-2.743
		c0.195-1.175,1.176-1.372,2.155-1.567c0.688-0.138,2.246-0.371,3.249-0.157c-0.274-1-0.642-1.82-1.122-2.1
		c-2.326-1.359-6.35,2.4-8.383,3.425c-0.136,0.068-0.263,0.125-0.379,0.167c0.203,0.585,0.538,1.049,0.564,1.797
		c1.104-0.272,2.451-0.086,3.409,0.385c-1.107,0.124-2.336,0.116-3.069,0.644c-0.269,0.776,0.066,1.834-0.113,2.912
		c0.34,0.096,0.687,0.185,1.038,0.269C270.76,294.508,270.339,293.475,271.005,293.075z"/>
	<path fill="#E6413E" d="M250.714,300.635c0.165,0.59,0.305,1.122,0.814,1.241c-0.232-0.465-0.524-1.01-0.845-1.614
		C250.693,300.386,250.704,300.511,250.714,300.635z"/>
	<path fill="#E6413E" d="M250.067,292.922c-0.414-4.561,1.096-3.765,5.049-3.765c0.604,0,3.717,0.72,3.939,1.175
		c1.069,2.182-1.786,1.697,1.23,3.342c0.897,0.489,2.036,0.528,3.091,0.24c0.003-0.068,0.005-0.135,0.008-0.204
		c-1.144-0.569-2.466-0.974-4.146-1.047c1.141-0.573,2.815-0.564,3.854-1.247c0.009-0.254,0.02-0.507,0.029-0.758
		c-1.895-0.146-2.617-0.99-3.865-1.673c-2.044-1.116-5.114-2.333-7.754-2.835c-3.067-0.587-2.989,3.849-2.854,6.907
		c0.01,0.204,0.019,0.401,0.027,0.591c0.101,2.211,1.16,4.53,1.754,6.131c0.086,0.165,0.17,0.324,0.253,0.481
		C250.49,297.813,250.29,295.368,250.067,292.922z"/>
	<path fill="#E6413E" d="M266.39,290.062c-0.522-0.017-1.148,0.167-1.874,0.65c-0.1,1.103,0.073,1.641,0.289,2.57
		C265.935,292.557,266.681,291.404,266.39,290.062z"/>
	<path fill="#231F20" d="M245.869,235.208c-0.235,0.644-0.554,1.685-0.369,2.44c0.039,0.162,0.104,0.309,0.196,0.438
		c0.146,0.205,0.361,0.361,0.678,0.438c1.617-3.607,4.271-7.084,9.61-5.841c0.712-1.17,0.044-2.124-0.884-2.667
		c-0.407-0.239-0.865-0.398-1.278-0.461C250.676,229.081,246.824,232.58,245.869,235.208z"/>
	<path fill="#231F20" d="M278.406,246.359c-0.104,4.264,6.599,2.163,7.617-0.212c-1.522-2.212-2.566-4.867-3.773-7.374
		c-0.083-0.004-0.169-0.006-0.253-0.01c-0.027,0.458-0.014,0.877,0.016,1.283c0.08,1.106,0.34,2.045,0.664,2.925
		c0.307,0.831,0.662,1.616,0.965,2.449C282.357,246.23,279.855,245.725,278.406,246.359z"/>
	<path fill="#231F20" d="M261.286,246.828c-1.573,1.527-4.401,0.259-6.505,0.16c-2.008,3.172,3.92,3.768,6.464,3.017
		c0.696-0.205,1.902-1.25,2.068-1.718c0.706-1.985-0.719-2.856-1.452-3.57c-1.627-1.586-1.999-3.791-3.144-5.889
		c-0.151,0.429-0.194,0.915-0.158,1.434c0.104,1.514,0.89,3.309,1.689,4.791C260.613,245.728,260.979,246.339,261.286,246.828z"/>
	<path fill="#231F20" d="M270.24,241.097c-0.143,5.287,3.788,9.664,6.717,13.195c1.431,1.723,3.156,2.708,1.568,5.386
		c-2.562,0.975-6.707,3.763-10.269,3.153c-1.22-0.208-1.475-1.176-1.685-2.149c-0.088-0.408-0.17-0.814-0.309-1.168
		c-0.044-0.111-0.091-0.218-0.148-0.316c-1.303,1.713-0.791,4.308,0.55,5.474c6.275,0.621,10.547-2.055,14.377-4.516
		c-0.151-0.965,1.161-2.703,0.796-4.154c-0.126-0.499-1.262-1.223-1.952-1.978c-2.81-3.064-6.659-7.643-8.189-11.223
		C271.526,242.407,271.425,240.238,270.24,241.097z"/>
	<path fill="#231F20" d="M224.777,251.108c-0.179,0.094-0.349,0.215-0.508,0.355c-0.59,0.514-1.031,1.334-1.193,2.517
		c0.137-0.09,0.269-0.216,0.402-0.352c0.491-0.501,1.007-1.147,1.921-0.699c-1.019,1.99-0.775,5.866,0.611,7.124
		c-0.008-2.361-0.375-6.399,1.639-6.276c1.41,0.085,1.695,3.104,2.896,3.789c0.699-3.362-1.188-5.846-3.248-6.562
		C226.428,250.702,225.527,250.713,224.777,251.108z"/>
	<path fill="#231F20" d="M295.335,316.76c-3.646,0.107-6.494,1.073-8.119,3.364C290.174,320.313,292.304,317.366,295.335,316.76z"/>
	<path fill="#231F20" d="M288.793,321.959c2.507,0.207,5.409-0.193,7.88-0.455C294.551,320.772,289.979,320.147,288.793,321.959z"/>
	<path fill="#231F20" d="M288.66,325.378c2.641,0.223,6.093,0.277,8.869,0.217C295.728,324.757,290.222,323.701,288.66,325.378z"/>
	<path fill="#DDD9D9" d="M272.222,337.296c-0.131,3.095,0.305,8.057,0.45,11.304c2.057,0.002,2.939-0.45,4.474-0.968
		c0.174-3.82-1.209-7.354-1.607-10.842C274.726,336.572,273.233,337.362,272.222,337.296z"/>
	<path fill="#F0D6B8" d="M260.366,286.494c2.184,1.706,3.804,2.058,6.773,1.911c1.34-0.973,2.526-2.108,3.922-3.019
		c-3.211,0.287-7.252,2.281-10.432,0.864C260.622,286.418,260.402,286.357,260.366,286.494z"/>
	<path fill="#F7E4CD" d="M253.105,266.342c-0.487,0.651,0.524,4.205,0.524,4.205l0.979,0.197c-0.195-3.92,2.155-4.312,2.155-4.312
		C254.781,265.478,253.363,265.999,253.105,266.342z"/>
	<path fill="#6D6B6D" d="M234.063,256.535c0.666,7.885,1.188,7.505,1.188,7.505l6.981,0.712l1.093,0.095
		c0,0,1.235-0.475,0.522-1.045c-0.713-0.57-5.415-2.28-5.843-3.752c-0.212-0.73-1.287-3.922-2.323-7.136
		c-0.484-1.502-0.96-3.006-1.336-4.268c-0.129-0.475-0.267-0.939-0.359-1.345c-0.818-3.562,0.232-7.315,0.657-10.905
		c-4.006,2.14-7.863,4.193-11.44,6.092c-0.096,1.535,0.067,2.875,0.227,3.736c3.188-1.554,6.818-0.45,8.695,1.985
		c0.399,0.76,0.873,1.947,1.272,3.747c0,0.006,0,0.012,0,0.019c0.002,0,0.003,0,0.004,0c0.054,0.24,0.105,0.488,0.155,0.75
		C233.763,253.797,233.939,255.057,234.063,256.535z"/>
	<circle fill="#231F20" cx="266.846" cy="313.069" r="1.352"/>
	<path fill="#231F20" d="M270.842,309.014c0.746,0,1.352-0.605,1.352-1.352c0-0.036-0.008-0.07-0.011-0.105l-0.752,0.164
		l-0.08-0.494l0.7-0.156c-0.22-0.448-0.676-0.76-1.209-0.76c-0.747,0-1.352,0.605-1.352,1.352S270.095,309.014,270.842,309.014z"/>
	<polygon fill="#231F20" points="271.431,307.721 272.183,307.557 273.31,307.31 273.185,306.815 272.051,307.07 271.351,307.227 	
		"/>
	<polygon fill="#231F20" points="271.037,312.085 271.117,312.579 274.141,311.878 274.015,311.385 	"/>
	<path fill="#231F20" d="M260.275,205.86c0.209-0.131,0.39-0.251,0.525-0.354l-8.854,4.577
		C255.171,208.464,258.053,207.005,260.275,205.86z"/>
	<path fill="#3B383A" d="M251.946,210.083l-1.047,0.541c2.764-1.302,7.464-3.564,9.376-4.764
		C258.053,207.005,255.171,208.464,251.946,210.083z"/>
	<path fill="#3B383A" d="M264.829,203.398c-0.313,0.237-4.028,2.107-4.028,2.107c-0.136,0.103-7.138,3.816-9.901,5.118l-2.074,1.073
		l-0.035,0.018c0,0-0.009-0.017-0.021-0.041c-13.935,6.967-31.852,15.763-31.852,15.763c-0.26,2.434,4.99,10.655,4.99,10.655
		l31.762-16.917l10.334-5.319c0.037-0.065,0.064-0.145,0.087-0.231l3.752-1.999C268.803,211.939,264.829,203.398,264.829,203.398z"
		/>
	<path fill="#231F20" d="M314.796,289.848l-0.467-0.51c-3.379-3.685-3.379-3.685-1.221-8.411l0.37-0.808l-0.572-0.387
		c-4.144-2.798-4.144-2.798-3.145-7.897l0.171-0.872l-0.647-0.243c-4.682-1.754-4.682-1.754-4.897-6.948l-0.037-0.886l-0.686-0.085
		c-4.961-0.618-4.961-0.618-6.381-5.616l-0.242-0.855l-0.687,0.077c-1.214,0.135-2.181,0.226-2.947,0.226
		c-2.173,0-2.558-0.629-4.479-4.05c0.713-8.886-0.197-18.091-3.349-24.461c-1.798-3.636-6.825-8.66-9.97-11.038
		c-0.718-0.542-1.495-1.037-2.32-1.487c11.231-6.097,19.594-10.698,20.815-11.503c4.095-2.7-0.264-4.26-0.264-4.26l-24.159,13.194
		c-1.85-5.488-11.102-23.473-11.102-23.473l-0.013,0.006c0.002,0.003,0.006,0.004,0.007,0.007c0.531,1.078-9.928,7.32-23.363,13.941
		c-13.354,6.583-24.618,11.061-25.271,10.054c0.301,0.838,7.775,21.542,11.316,25.91l-22.897,12.504
		c-1.663,1.834-0.093,2.83,3.558,1.531c0.471-0.167,2.301-1.077,5.123-2.531l0.639,0.259l-0.139,0.341l-0.39-0.158l-0.417,1.024
		l0.488,0.199l-0.432,1.066c-0.033,0.009-0.064,0.02-0.097,0.035c-0.215-0.305-0.657-0.399-0.948-0.471
		c0.152,0.333,0.199,0.235,0.647,0.35c-0.005,0.043-0.014,0.073-0.025,0.099l-0.569-0.231l-0.18,0.441l-0.244-0.099l-0.236,0.585
		l-0.489-0.198l-1.408,3.472l-1.271-0.516l-0.241,0.594c-0.753-0.343-1.448-0.7-2.021-1.069c-0.161,0.062-0.358,0.04-0.544,0.042
		c-1.27-0.444-2.092-1.033-3.209-1.387c-0.251-0.062-0.136-0.275-0.18-0.424c-0.194-0.117-0.184,0.252-0.348,0.208
		c-0.398-0.205-1.021-0.315-1.249-0.594c-0.455-0.003-1.295,0.198-1.555-0.278c-0.403,0.01-1.135-0.042-1.205-0.489
		c-0.034,0.162-0.11,0.229-0.241,0.166c0.145,0.145,0.269,0.301,0.328,0.484c0.107-0.042,0.215-0.088,0.317-0.134
		c0.228,0.25,0.454,0.112,0.543,0.395c0.928-0.171,1.093,1.25,1.806,1.172c-0.105,0.405-0.15,0.026-0.438-0.004
		c-0.321,0.124-0.606,0.338-0.997,0.298c0.079,0.155,0.233,0.275,0.254,0.455c-0.089,0.193-0.205-0.009-0.342,0.088l-0.384-0.154
		c-0.347-0.3-0.598-0.544-1.188-0.622c-0.028,0.057-0.025,0.101-0.006,0.137l-1.494-0.606l-0.204,0.502
		c-0.427-0.172-0.792-0.372-0.934-0.665c-0.156,0.073-0.414-0.089-0.633-0.169c-0.245-0.125-0.083-0.422-0.299-0.559
		c-0.146,0.047-0.247,0.2-0.334,0.39c-0.564-0.132-0.917-0.677-1.222-0.232c-0.403-0.466-0.825-0.342-1.343-0.37
		c0.442,0.359,0.562,0.666,1.22,0.67c-0.63,0.288-2.166-0.632-2.229-0.991c-0.233,0.145-0.704,0.324-0.906,0.07
		c-0.109,0.201-0.207,0.125-0.407,0.361c-1.126-0.597-2.124-1.045-2.731-0.405c-0.255-0.039-0.061-0.268-0.314-0.305
		c-0.93-0.064-1.656-0.752-2.608-0.708c0.378,0.636,1.938,0.46,2.212,1.249c0.233,0.109,0.333-0.098,0.588,0.064
		c0.189,0.877,1.035,1.196,2.167,1.58c-0.057,0.196,0.18,0.366-0.108,0.482c0.373,0.157,0.875,0.288,1.038,0.684
		c0.126-0.099,0.304-0.069,0.469-0.072c0.259,0.11,0.48,0.251,0.798,0.411c0.277,0.14,0.922,0.149,0.812,0.592
		c-0.083,0.277-0.492-0.255-0.647-0.351c-0.176,0.075-0.353,0.15-0.527,0.224c0.131,0.37,1.249,0.343,1.201,0.927
		c0.368,0.114,0.93,0.193,0.782,0.668c0.195,0.115,0.185-0.252,0.347-0.209c0.781,0.25,1.359,0.46,2.021,0.723l-0.081,0.199
		l1.554,0.63c-0.056,0.137-0.11,0.273-0.166,0.411c0.704,0.338,1.418,0.079,2.02,0.643c-0.165,0.151-0.447,0.029-0.649,0.087
		c-0.208,0.355,0.317,0.012,0.24,0.273c-0.078,0.354-0.468-0.025-0.604,0.193c-0.24,0.331,0.196,0.375,0.087,0.65
		c-0.614,0.228-1.287-0.372-2.11-0.417c-0.332-0.047-0.136-0.317-0.467-0.365c-0.196,0.254,0.209,0.354-0.108,0.483
		c0.302,0.267,0.35,0.086,0.618-0.013c0.444,0.266,0.529,0.556,1.025,0.503c0.255,0.325,0.62,0.603,1.07,0.846l-0.019,0.045
		l1.134,0.459c0.015,0.11,0.193,0.149,0.025,0.336c0.056-0.052,0.116-0.088,0.183-0.118l2.129,2.551l0.996,0.404
		c-0.093,0.052-0.188,0.093-0.271,0.021c-0.04,0.055-0.096,0.084-0.161,0.113c-0.058,0.028-0.136,0.066-0.198,0.171
		c0.004,0.062,0.054,0.069,0.041,0.146c0.016-0.128,0.062-0.226,0.139-0.296c0.114,0.02,0.156,0.02,0.202-0.006
		c-0.07,0.099-0.078,0.074-0.122,0.205c-0.057-0.011-0.067,0.021-0.112,0.022c0.018,0.102-0.049,0.129-0.066,0.202
		c-0.084,0.014-0.067-0.08-0.131-0.086c-0.064,0.026-0.102,0.081-0.162,0.113c0.068,0.052-0.029,0.178,0.097,0.18
		c-0.039,0.081-0.019,0.11-0.013,0.222c0.062,0.019,0.09,0.21,0.155,0.289c0.067-0.024,0.079,0.113,0.185,0.105
		c0.002,0.071,0.05,0.094,0.055,0.161l-0.031-0.013c0-0.001,0-0.001,0-0.002c0,0-0.001,0-0.001,0.001l-3.393-1.375l-0.062,0.146
		l3.261,1.323c-0.204-0.019-0.348-0.111-0.521-0.076c-0.049,0.01-0.287,0.1-0.363,0.138c-0.018,0.009-0.025,0.051-0.035,0.056
		c-0.127,0.058-0.25,0.065-0.418,0.104c-0.108,0.15-0.188,0.224-0.396,0.286c-0.064,0.158-0.295,0.317-0.134,0.498
		c0.031,0.035,0.025,0.011,0.057,0.072c0.032,0.06,0.106,0.075,0.113,0.143c0.054-0.017,0.021-0.027,0.017-0.073
		c0.051,0.023,0.113,0.03,0.131,0.089c0.018-0.003,0.014-0.024,0.019-0.038c0.02,0.058,0.115,0.105,0.132,0.143
		c0.007,0.019,0.012,0.117,0.004,0.146c-0.012,0.039-0.055,0.078-0.09,0.113c0.05,0.044-0.042,0.12,0.041,0.128
		c-0.064,0.115-0.034,0.362,0.031,0.457c0.059,0.032,0.133,0.048,0.168,0.106c0.09,0.023,0.117-0.055,0.183,0.031
		c0.013-0.188,0.179,0.038,0.2-0.097c0.064,0.044,0.105,0.114,0.204,0.123c0.001,0.061,0.004,0.122,0.005,0.184
		c0.063-0.061,0.081-0.001,0.057,0.072c0.041,0.051,0.1,0.083,0.187,0.086c-0.022-0.095-0.108-0.003-0.131-0.089
		c-0.007-0.048,0.072,0.048,0.054-0.038c0.056-0.044,0.109,0.071,0.184,0.013c0.031-0.021-0.019-0.1,0.054-0.056
		c-0.021-0.046-0.053-0.083-0.058-0.146c0.056,0.023,0.095,0.062,0.148,0.088c0.051-0.045,0.033-0.051,0.106-0.059
		c0.029,0.099,0.124,0.25,0.212,0.344c0.079-0.041,0.098,0.08,0.186,0.086c0.054,0.014,0.047-0.027,0.092-0.021
		c-0.005,0.032-0.031,0.042-0.072,0.039c0.119,0.098,0.33,0.235,0.361,0.486c0.015-0.022,0.024-0.022,0.035-0.015l0.001,0.035
		l-0.167,0.41l0.18,0.073l0.009,0.31l-0.737,1.817c-0.094,0.003-0.188,0.006-0.277,0.016c-0.038-0.009-0.063-0.032-0.074-0.069
		c-0.354,0.146-0.711,0.29-1.015,0.484c0.085,0.09,0.254,0.097,0.317,0.211c-0.198,0.081-0.368,0.188-0.523,0.308
		c-0.005,0.064,0.107,0.036,0.02,0.072c0.137,0.032,0.262,0.078,0.335,0.176c-0.203,0.045-0.301,0.191-0.508,0.233
		c0.017,0.059-0.026,0.059-0.053,0.075c0.071,0.083,0.218,0.085,0.28,0.176c0.018,0.042-0.058,0.075-0.09,0.094
		c-0.119,0.08-0.28,0.163-0.378,0.267c0.178,0.164,0.376,0.294,0.58,0.443c0.065,0.046,0.14,0.078,0.206,0.123
		c-0.02,0.102-0.132,0.11-0.198,0.151c-0.258,0.165-0.498,0.373-0.755,0.535c-0.026,0.006-0.001,0.031,0.018,0.036
		c0.004,0.04-0.064,0.009-0.092,0.021c0.291,0.232,0.653,0.391,0.953,0.616c-0.222,0.211-0.634,0.451-0.883,0.628
		c-0.037,0.028-0.105,0.066-0.126,0.096c-0.001,0.001,0.069,0.076-0.018,0.037c0.161,0.164,0.423,0.219,0.579,0.387
		c0.071,0.002,0.087,0.061,0.167,0.052c0.008,0.068,0.065,0.079,0.131,0.087c-0.162,0.126-0.319,0.259-0.485,0.38
		c-0.085-0.009-0.159,0.019-0.221,0.005c-0.082-0.019-0.077-0.076-0.132-0.125c-0.03-0.029-0.08-0.042-0.111-0.071
		c-0.071-0.066-0.165-0.196-0.263-0.248c0.032,0.161,0.257,0.28,0.341,0.449c-0.214-0.022-0.457,0.012-0.697-0.019
		c0.006-0.026,0.047-0.016,0.075-0.02c0.01-0.058-0.066-0.021-0.041-0.091c-0.065,0.021-0.105,0.067-0.181,0.077
		c0.013,0.025,0.04,0.033,0.075,0.035c-0.026,0.035-0.101,0.024-0.091,0.095c0.043,0.139,0.141,0.23,0.229,0.341
		c0.027,0.034,0.049,0.079,0.077,0.109c0.088,0.099,0.227,0.158,0.354,0.247c0.032,0.023,0.32,0.214,0.337,0.266
		c0.015,0.04-0.006,0.095,0.004,0.127c-1.098,0.039-1.953,0.042-2.914,0.06c-0.075,0.016,0.019-0.064-0.038-0.09
		c-0.071,0.003-0.071,0.077-0.127,0.095c-0.446-0.004-0.95,0.029-1.521,0.041c-0.358,0.006-0.807-0.034-1.174-0.006
		c-0.045,0.003-0.083,0.035-0.127,0.04c-0.223,0.028-0.522,0.01-0.609-0.094c-0.036-0.009-0.178,0.06-0.237-0.011
		c-0.019,0.013-0.084,0.071-0.054,0.074c-0.008,0.048-0.071-0.074-0.054,0.038c-0.248-0.02-0.518-0.019-0.788-0.016
		c-0.075-0.001-0.054-0.106-0.167-0.069c-0.007-0.139,0.037-0.226,0.028-0.368c-0.008-0.038-0.07-0.015-0.076-0.052
		c-0.134,0.105-0.165,0.306-0.188,0.519c-0.296-0.039-0.728,0.011-1.082-0.009c-0.038-0.003-0.079-0.021-0.11-0.015
		c-0.163,0.029-0.233,0.182-0.361,0.211c0.009,0.068,0.08,0.066,0.113,0.107c-0.051,0.105-0.199,0.122-0.251,0.227
		c-0.015,0.092,0.058,0.089,0.114,0.106c-0.076,0.104-0.262,0.121-0.271,0.228c-0.001,0.023,0.116,0.036-0.017,0.038
		c0.099,0.103,0.22,0.181,0.319,0.284c0.131-0.022,0.385-0.069,0.586-0.033c-0.031,0.171-0.354,0.068-0.529,0.105
		c-0.046,0.004-0.046-0.04-0.075-0.053c-0.117,0.108-0.267,0.188-0.358,0.321c0.025-0.001,0.05-0.001,0.074-0.002
		c-0.005,0.025-0.046,0.017-0.073,0.021c0.034,0.058,0.082,0.103,0.15,0.124c-0.73,0.035-1.584,0.042-2.294-0.049
		c-0.078,0.001-0.069-0.089-0.149-0.087c-0.097,0.026-0.208,0.04-0.216,0.153c-0.069,0.016-0.146,0.027-0.237,0.023
		c-0.093-0.171-0.242-0.284-0.324-0.467c-0.228-0.011-0.239-0.251-0.43-0.301c-0.279,0.086-0.304,0.416-0.385,0.688
		c-0.479,0.088-0.825,0.27-1.104,0.542c-0.138,0.137-0.227,0.321-0.374,0.451c0.015,0.09-0.038,0.117-0.05,0.186
		c-0.043,0.001-0.085,0.001-0.128,0.002c-0.016,0.067,0.074,0.024,0.111,0.033c-0.016,0.13-0.103,0.089-0.199,0.097
		c-0.27,0.023-0.49,0.021-0.678,0.018c-0.048-0.006-0.086-0.021-0.111-0.051c-0.043,0.007-0.009,0.086-0.071,0.076
		c-0.155-0.019-0.224-0.128-0.336-0.194c-0.086,0.057,0.004,0.168-0.143,0.169c0.027,0.029-0.012,0.107,0.006,0.184
		c-0.095-0.001-0.057,0.123-0.182,0.096c0.001,0.048,0.003,0.098,0.005,0.147c-0.057-0.052-0.063,0.046-0.146,0.022
		c-0.011-0.032-0.011-0.076-0.039-0.091c0.035-0.024,0.076,0.045,0.109-0.038c-0.021-0.043-0.093-0.042-0.109,0.002
		c-0.108-0.113-0.398-0.083-0.401,0.102c-0.079,0-0.111-0.047-0.132-0.107c-0.031,0.023-0.122-0.011-0.202,0.005
		c-0.055,0.014-0.048,0.085-0.088,0.113c-0.241,0.049-0.387-0.008-0.622,0.035c-0.026,0.008-0.002,0.033,0.019,0.037
		c-0.006,0.046-0.071,0.002-0.056-0.035c-0.098,0.002-0.195,0.005-0.293,0.008c0.039,0.042,0.152,0.002,0.221,0.011
		c0.035,0.037-0.147,0.016-0.201,0.024c0.022,0.049,0.161,0.017,0.219-0.007c0.139,0.07,0.234-0.003,0.276,0.05
		c0.062-0.021-0.05-0.005-0.02-0.056c0.051-0.003,0.095-0.005,0.056,0.036c0.094,0.004,0.105-0.034,0.111,0.016
		c0.125-0.011,0.16,0.021,0.218-0.042c0.093,0.052,0.195,0.096,0.263,0.175c0.086-0.047,0.138-0.078,0.161-0.15
		c0.092-0.016,0.115,0.039,0.131,0.106c0.032-0.031,0.159,0.037,0.129,0.068c0.093,0.008,0.186-0.052,0.239-0.023
		c-0.024-0.03-0.032-0.1,0.014-0.184c0.062,0.006,0.102-0.01,0.146-0.022c-0.024,0.163,0.136,0.133,0.118,0.292
		c0.025,0.038,0.078,0.054,0.111,0.087c0.015,0.06-0.036,0.03-0.054,0.019c-0.016,0.082,0.214,0.078,0.095,0.145
		c0.082,0.048,0.188,0.065,0.296,0.083c0.041-0.034,0.112-0.036,0.108-0.112c0.23-0.04,0.48-0.013,0.732-0.037
		c0.07-0.014,0.054,0.068,0.128,0.05c-0.025-0.075,0.088-0.029,0.167,0.015c0.001,0.054,0.002,0.11,0.004,0.165
		c0.042,0.021,0.135,0.162,0.077,0.163c0.159,0.041,0.108,0.302,0.302,0.304c0.001,0.031,0.001,0.062,0.002,0.093
		c0.141,0.003,0.141,0.152,0.298,0.139c0,0.023,0,0.048,0.001,0.073c0.173,0.145,0.384,0.169,0.596,0.294
		c0.105-0.007,0.203,0.04,0.293-0.007c-0.006,0.101,0.033,0.153,0.079,0.201c0.001,0.149,0.044,0.253,0.136,0.309
		c0.024,0.023,0.024,0.066,0.002,0.091c0.166,0.221,0.389-0.021,0.474-0.142c0.015-0.019,0.009-0.012-0.019-0.017
		c-0.004-0.04,0.063-0.011,0.091-0.021c0.077-0.087,0.191-0.141,0.194-0.299c0.119-0.03,0.191-0.104,0.251-0.189
		c0.106-0.014,0.178,0.013,0.257,0.029c0.002,0.031,0.002,0.061,0.003,0.091c0.077,0.013,0.147,0.033,0.239,0.031
		c0.026-0.018,0.069-0.015,0.053-0.074c0.16,0.015,0.276-0.1,0.438-0.104c0.073-0.002,0.144,0.047,0.221,0.048
		c0.189,0.007,0.399-0.06,0.603-0.071c0.27-0.015,0.631,0.049,0.937,0.03c0.017,0.075-0.006,0.115-0.052,0.13
		c0.061,0.131,0.207,0.171,0.283,0.285c-0.024,0.116-0.174,0.155-0.214,0.227c-0.005,0.007,0.062,0.078-0.018,0.038
		c0.026,0.091,0.167,0.062,0.17,0.178c0.072-0.043,0.09,0.042,0.148,0.069c-0.013,0.077-0.066,0.117-0.144,0.131
		c-0.028,0.054,0.033,0.078-0.053,0.076c0.039,0.085,0.148,0.095,0.224,0.14c0.005,0.097,0.08,0.117,0.097,0.2
		c0.077,0.05,0.203,0.05,0.224,0.159c0.113-0.03,0.114,0.057,0.186,0.069c0.251-0.117,0.856-0.051,1.246-0.106
		c0,0.037,0.001,0.073,0.002,0.11c0.027,0.021,0.09,0.166,0.04,0.146c0.061,0.09,0.126,0.122,0.08,0.237
		c0.023,0.021,0.104-0.004,0.146-0.023c-0.007-0.118-0.038-0.21-0.046-0.329c0.03-0.066,0.113-0.083,0.144-0.151
		c0.21,0.098,0.677-0.068,0.919,0.106c0.097-0.065,0.213-0.01,0.271-0.118c0.444-0.03,0.821,0.025,1.229,0.004
		c0.067-0.003,0.135-0.041,0.201-0.042c0.006,0.001,0.053,0.034,0.053,0.034c0.081,0.009,0.193-0.024,0.278-0.026
		c0.503-0.002,1.08-0.012,1.723-0.007c0.028-0.011,0.001-0.02-0.019-0.019c0.057-0.035,0.107,0.024,0.22,0.014
		c0.041-0.003,0.083-0.04,0.091-0.039c0.042-0.001-0.029,0.023,0.037,0.036c0.132,0.022,0.285-0.03,0.441-0.031
		c0.802-0.008,1.779-0.029,2.696-0.048l0.009,0.363c-0.269,0.145-0.527,0.275-0.797,0.441c0.265,0.18,0.541,0.348,0.822,0.512
		l0.015,0.527c-0.059,0.054-0.113,0.111-0.201,0.136c-0.009,0.062-0.095,0.063-0.145,0.114c-0.005,0.005-0.013,0.053-0.017,0.055
		c-0.011,0.007-0.063,0.005-0.091,0.021c-0.028,0.016-0.215,0.165-0.215,0.188c-0.001,0.041,0.155,0.138,0.206,0.178
		c0.076,0.058,0.148,0.122,0.205,0.16c0.008,0.004,0.016,0.008,0.021,0.012l-0.252,0.007l0.021,0.724
		c-0.024,0.016-0.047,0.038-0.061,0.053c0.019,0.017,0.042,0.03,0.062,0.044l0.709,1.763l0.364-0.011l1.158,2.592l2.252-0.058
		l0.014,0.542l-1.779,0.048l-1.875,1.977l0.021,0.8l-0.218,0.006l0.014,0.509l-2.144,2.158l1.14,5.589l7.154-0.641l0.011,0.364
		l-1.912,0.276l0.115,0.886l-0.92,0.245l0.312,1.517l-4.239,0.969l2.144,8.9l8.581-1.636l0.675-0.074l-0.34,0.663l1.069,1.714
		c0.042,0.057,0.081,0.111,0.123,0.166l-0.589,1.146l0.684,1.937l-0.135,0.26l1.075,0.552c0.565,0.773,0.71,1.753,1.278,2.523
		l-0.083,0.161l-1.358,2.641l0.517,0.266l-0.398,0.776l0.518,0.266l-1.063,2.068l0.323,0.165l1.063-2.067l0.258,0.133l0.1-0.193
		l0.518,0.266l0.094,0.294l0.713,0.365l-0.965,1.874l0.258,0.133l0.998-1.938l0.454,0.231l0.531-1.034l0.839,0.433l0.112-0.22
		c4.76,6.391,9.515,12.71,14.086,19.141c0.001,0.395,0.066,0.77,0.076,1.16c-0.144-0.203-0.39-0.171-0.536-0.051
		c-0.169,0.745,0.561,1.563,0.978,2.354c0.428,0.81,0.835,1.652,1.179,2.401c0.296,0.072,0.451-0.285,0.675-0.438
		c-0.192-6.384-0.343-12.782-0.515-19.173l0.191-0.374c1.32,0.66,2.672,1.339,4.07,1.944l-2.436,4.735l0.322,0.166l-0.266,0.518
		l-0.199,0.389l0.711,0.365l-0.364,0.71l1.356,0.699l0.333-0.647l0.323,0.166l0.266-0.517l0.389,0.2l0.266-0.517l0.387,0.199
		l2.359-4.591l0.389,0.2l0.323-0.63c1.859,0.464,3.814,0.677,5.899,0.454c1.546,5.194,3.006,10.729,4.861,15.278
		c6.646,2.39,17.139,2.017,24.049,1.186c2.102-0.254,4.317-1.29,4.812-3.112c-0.147-1.123-0.312-2.231-0.242-3.561
		c2.161-0.447,5.103-0.816,5.578-3.206c0.665-3.355-2.118-8.16-1.19-11.84c1.252-0.406,2.587-0.723,2.387-2.697
		c2.109-1.097,4.608-1.344,7.277-1.24c0.343,0.665,0.832,1.304,1.273,1.67c3.738,0.751,7.358,0.812,10.462-0.2
		c3.514-1.147,5.19-8.332,4.387-11.751c-0.296-1.255-0.784-2.925-1.339-4.568c0.411-0.089,0.855-0.182,1.362-0.286l0.87-0.179
		l-0.025-0.69c-0.184-4.995-0.184-4.995,4.522-7.195l0.806-0.377l-0.186-0.665c-1.342-4.816-1.342-4.816,2.723-8.053l0.694-0.553
		l-0.335-0.604c-2.427-4.37-2.427-4.37,0.773-8.464L314.796,289.848z M192.819,271.619c-0.039-0.028,0.043-0.087,0.052-0.129
		c0.07-0.012,0.075,0.044,0.129,0.052C192.93,271.562,192.868,271.626,192.819,271.619z M192.984,271.651
		c0.011-0.015,0.019-0.03,0.017-0.055c0.044,0.016,0.091,0.028,0.148,0.032C193.13,271.671,193.034,271.638,192.984,271.651z
		 M193.335,271.696c0.021,0.009,0.037,0.023,0.038,0.056C193.334,271.761,193.337,271.726,193.335,271.696z M193.478,271.546
		c-0.062,0.002-0.122,0.002-0.183,0.004c0.003-0.091,0.172-0.027,0.142-0.15c0.035,0.02,0.089,0.019,0.076,0.089
		C193.438,271.467,193.464,271.486,193.478,271.546z M193.654,271.964c0.034-0.062,0.071-0.062,0.073,0.034
		C193.669,272.021,193.682,271.971,193.654,271.964z M194.007,271.532c-0.021-0.044-0.064-0.068-0.059-0.145
		C193.998,271.405,194.012,271.459,194.007,271.532z M193.996,271.753C194.065,271.831,193.946,271.823,193.996,271.753
		L193.996,271.753z M194.193,270.886c-0.013,0-0.024,0-0.037,0.001c0.003-0.015-0.007-0.018-0.019-0.018
		C194.128,270.834,194.22,270.84,194.193,270.886z M194.463,267.908c0.038,0.039,0.058-0.019,0.092,0.015
		c0.017,0.053-0.024,0.049-0.017,0.093c-0.038-0.04-0.053,0.024-0.108,0.021C194.441,267.996,194.443,267.943,194.463,267.908z
		 M194.558,268.052c-0.019,0.018-0.003,0.068-0.053,0.057C194.499,268.068,194.518,268.051,194.558,268.052z M194.36,268.167
		c0.001,0.024,0,0.049,0.001,0.074c0.079-0.057,0.104-0.059,0.2-0.042c0.035,0.015-0.011,0.021-0.036,0.019
		c-0.002,0.043-0.091,0.102-0.143,0.151c-0.013-0.04,0.045-0.095-0.094-0.071C194.281,268.224,194.292,268.169,194.36,268.167z
		 M194.153,268.649c-0.002-0.024-0.003-0.049-0.004-0.073c0.058,0.012,0.037,0.011,0.092-0.002
		C194.207,268.707,194.231,268.592,194.153,268.649z M194.329,268.389c0.016,0.086-0.019,0.127-0.013,0.201
		C194.244,268.533,194.217,268.424,194.329,268.389z M194.313,272.02c-0.012-0.072,0.053-0.07,0.071-0.112
		c0.043,0.024,0.093,0.04,0.077,0.126C194.399,272.043,194.359,272.029,194.313,272.02z M194.428,272.144
		c-0.001-0.011-0.001-0.023-0.001-0.034c0.013,0,0.024-0.001,0.037-0.001c0,0.011,0,0.024,0.001,0.036
		C194.452,272.143,194.44,272.145,194.428,272.144z M194.404,268.46c-0.036,0.007,0.075-0.138,0.142-0.152
		c0.044,0.025,0.012,0.127,0.078,0.127C194.557,268.552,194.461,268.353,194.404,268.46z M216.918,227.438
		c0,0,17.917-8.796,31.852-15.763c0.012,0.024,0.021,0.041,0.021,0.041l0.035-0.018l2.074-1.073l1.047-0.541l8.854-4.577
		c0,0,3.715-1.87,4.028-2.107c0,0,3.974,8.541,3.014,10.229l-3.752,1.999c-0.022,0.086-0.05,0.166-0.087,0.231l-10.334,5.319
		l-31.762,16.917C221.908,238.093,216.658,229.872,216.918,227.438z M233.987,247.301c0.093,0.406,0.23,0.871,0.359,1.345
		c0.376,1.262,0.852,2.766,1.336,4.268c1.036,3.214,2.111,6.406,2.323,7.136c0.428,1.472,5.13,3.183,5.843,3.752
		c0.713,0.57-0.522,1.045-0.522,1.045l-1.093-0.095l-6.981-0.712c0,0-0.522,0.38-1.188-7.505c-0.124-1.479-0.301-2.738-0.506-3.81
		c-0.05-0.263-0.102-0.51-0.155-0.75c-0.001,0-0.002,0-0.004,0c0-0.007,0-0.013,0-0.019c-0.399-1.8-0.873-2.987-1.272-3.747
		c-1.877-2.435-5.507-3.539-8.695-1.985c-0.237,0.116-0.473,0.242-0.703,0.387c-0.095-1.143-0.208-2.425-0.253-3.737
		c0.24-0.127,0.486-0.258,0.729-0.387c3.577-1.898,7.435-3.952,11.44-6.092C234.22,239.986,233.169,243.739,233.987,247.301z
		 M221.754,243.257c-0.007,0.014-0.014,0.027-0.021,0.041l0.001-0.031C221.741,243.264,221.747,243.261,221.754,243.257z
		 M220.388,254.636c0.182-3.452,3.101-6.756,7.092-6.319c2.158,0.236,3.585,2.123,4.382,4.222c0.233,0.614,0.413,1.245,0.541,1.86
		c0.057,2.766,1.757,9.926,1.757,9.926c0.57,0.522,7.22,1.899,9.547,1.567c2.328-0.332,1.14-2.47,0.476-2.897
		c-0.665-0.428-3.942-1.71-5.083-3.041c-1.14-1.33-2.547-6.849-2.547-6.849c-0.323-3.035-1.548-5.58-1.449-8.425
		c0.087-2.505,0.77-4.896,1.243-7.271c0.14-0.703,0.26-1.404,0.341-2.106c0.223-0.119,0.443-0.237,0.666-0.356
		c9.82-5.251,20.315-10.896,29.588-15.912c0.566-0.306,1.129-0.61,1.686-0.912c0.771,0.304,1.502,0.68,2.16,1.141
		c0.111,0.084,0.221,0.177,0.329,0.274c0.231,0.208,0.451,0.441,0.627,0.69c0.262,0.367,0.463,0.773,0.597,1.204
		c0.133,0.43,0.214,0.879,0.232,1.332c0.01,0.225,0.006,0.452-0.016,0.669c-0.022,0.218-0.053,0.431-0.113,0.55
		c-0.006-0.03-0.033,0.042-0.085,0.099c-0.044,0.058-0.104,0.121-0.167,0.183c-0.131,0.124-0.29,0.242-0.461,0.345
		c-0.346,0.205-0.74,0.341-1.119,0.399c-0.382,0.053-0.744,0.027-1.059-0.065c-0.316-0.09-0.594-0.241-0.869-0.454
		c-0.131-0.102-0.277-0.246-0.394-0.359l-0.127-0.144l-0.07-0.083c-0.046-0.062-0.104-0.13-0.141-0.187
		c-0.082-0.117-0.121-0.207-0.143-0.225c-0.02-0.021-0.062,0-0.054-0.07c0.021-0.139,0.364-0.405,0.758-0.554
		c0.366-0.137,0.787-0.233,1.227-0.289c0.05,0.064,0.107,0.132,0.153,0.197c0.054,0.08,0.097,0.164,0.142,0.251
		c0.041,0.089,0.068,0.185,0.096,0.289l0.232,0.033c0.106-0.222,0.146-0.491,0.128-0.748c-0.011-0.259-0.071-0.5-0.12-0.72
		l-0.033-0.144l-0.325-0.119c-0.546-0.2-1.139-0.318-1.768-0.294c-0.62,0.041-1.337,0.128-2.019,0.785
		c-0.334,0.325-0.582,0.863-0.596,1.367c-0.031,0.509,0.106,0.93,0.258,1.279c0.079,0.177,0.16,0.332,0.259,0.487l0.16,0.235
		l0.119,0.162c0.118,0.155,0.22,0.264,0.335,0.396c0.126,0.118,0.244,0.241,0.384,0.348c0.533,0.451,1.224,0.777,1.935,0.889
		c0.713,0.127,1.422,0.033,2.056-0.158c0.636-0.2,1.208-0.508,1.722-0.902c0.257-0.197,0.499-0.419,0.722-0.683
		c0.111-0.133,0.219-0.272,0.316-0.434c0.099-0.158,0.186-0.324,0.277-0.596c0.106-0.378,0.11-0.695,0.116-0.999
		c0-0.306-0.023-0.604-0.063-0.899c-0.082-0.59-0.236-1.17-0.483-1.717c-0.122-0.276-0.267-0.543-0.432-0.796
		c-0.162-0.249-0.344-0.485-0.542-0.705c-0.071-0.079-0.146-0.151-0.221-0.224c0.319,0.165,0.634,0.331,0.934,0.5v0
		c0.548,0.309,1.071,0.668,1.578,1.058c1.783,1.375,3.327,3.189,4.761,5.032c0.754,0.968,1.478,1.942,2.191,2.863
		c-3.112-0.924-5.798,0.424-5.897,2.787c-0.011,0.254-0.001,0.516,0.052,0.792c2.886-2.644,7.814-0.029,9.271,2.895
		c1.395,2.796,1.386,6.938,1.6,11.094c0.519,10.077-1.844,20.474-6.907,27.758c-1.354,1.945-2.491,4.071-4.395,5.41
		c-1.869,1.313-4.139,2.57-6.571,3.47c0.282-0.581,0.627-1.565,0.603-1.825c-0.091-0.974-0.417-2.468-1.214-3.136
		c-0.413-0.347-0.076-1.22-0.244-1.638c-0.168-0.426-0.079-0.969-0.3-1.431c-0.522-1.096-0.939-1.073-2.099-0.923
		c-0.686,1.18-1.365,2.363-2.13,3.495c-1.19,1.761-3.749,2.197-4.74,4.147c0.23,0.008,1.045-0.052,1.179,0.171
		c0.121,0.204,0.528-0.026,0.528,0.341c0,0.225,0.043,0.586,0.106,0.802c0.521,1.737,1.344,0.191,2.66,0.224
		c0.219,0.005,0.648,0.427,0.648,0.646c0,0.173,0.242,0.232,0.43,0.293c-2.157,0.29-4.333,0.193-6.391-0.497
		c-7.892-2.648-11.478-7.907-15.817-13.928c0.117,3.307,2.444,6.021,4.74,8.552c1.999,2.206,4.412,4.697,7.007,5.725
		c-2.165-0.508-5.488-0.668-6.391,1.275c-1.731-0.115-3.418-0.254-4.988-0.522c-3.008-0.512-5.577-1.503-7.146-3.753
		c-1.884-2.699-3.797-7.287-4.654-10.833c-0.175-0.728-0.475-2.281-0.402-2.678c0.282-1.538,3.022-2.213,1.944-4.363
		c-1.987-0.019-2.437,1.811-4.262,1.991c-1.744,0.172-3.298-0.637-4.554-1.93C221.529,260.819,220.253,257.198,220.388,254.636z
		 M267.669,310.424c0.971,1.804,1.88,4.819,2.232,5.348c-7.891,0.217-20.193,0.091-28.137,0.941
		c-0.554,0.06-1.088,0.123-1.597,0.192c-0.871-1.349-1.658-3.508-2.902-5.033c-0.091-0.111-0.178-0.228-0.273-0.331
		c-0.108-0.075-0.211-0.16-0.314-0.241c-0.397-0.313-0.765-0.668-1.101-1.051c-1.495-1.701-2.418-3.868-3.147-4.656
		c-0.007-0.006-0.012-0.01-0.019-0.017c-0.002-0.019-0.003-0.029-0.003-0.029s-1.818-7.935-13.189-13.084
		c-1.318-0.597-2.765-1.156-4.352-1.661c1.277-0.6,2.949-0.803,4.261-1.709c3.929-2.715,8.892-5.189,13.126-6.859
		c0.208-0.082,0.973,0.709,1.825,1.677c1.164,1.323,2.495,2.977,2.803,3.196c2.92,2.074,6.547,3.712,9.94,5.329
		c0.206,1.557,0.688,3.574,1.531,6.272c0.931,2.98,1.7,7.186,5.638,5.039c3.69-1.632,10.019-5.708,10.621-3.724
		c0.379,1.245,2.325,2.379,2.41,4.055c0.352,0.529-0.354,1.293-0.412,2.469C266.546,307.83,266.846,308.896,267.669,310.424z
		 M239.738,285.441c1.657,1.151,4.864,0.868,7.304,1.297c0.089,0.542-0.186,1.202-0.359,1.918c-0.077,0.318-0.137,0.645-0.133,0.98
		c-1.545-0.095-5.572-1.444-6.759-2.839C239.398,286.335,239.316,285.869,239.738,285.441z M267.14,288.405
		c-2.97,0.147-4.59-0.206-6.773-1.911c0.036-0.137,0.256-0.076,0.264-0.244c3.18,1.417,7.221-0.577,10.432-0.864
		C269.666,286.296,268.479,287.432,267.14,288.405z M265.011,294.281c-0.068-0.39-0.139-0.711-0.206-0.998
		c-0.216-0.929-0.389-1.468-0.289-2.57c0.726-0.484,1.352-0.667,1.874-0.65C269.045,290.149,268.974,295.52,265.011,294.281z
		 M263.122,290.659c-0.01,0.251-0.021,0.504-0.029,0.758c-1.038,0.682-2.713,0.673-3.854,1.247c1.68,0.074,3.002,0.478,4.146,1.047
		c-0.003,0.068-0.005,0.136-0.008,0.204c-0.022,0.565-0.044,1.131-0.066,1.697c-1.902,1.302-3.64,3.241-5.88,4.462
		c-1.059,0.578-4.775,2.064-5.902,1.802c-0.51-0.119-0.649-0.651-0.814-1.241c-0.041-0.146-0.084-0.296-0.135-0.444
		c-0.043-0.127-0.098-0.271-0.148-0.41c-0.594-1.601-1.653-3.92-1.754-6.131c-0.009-0.19-0.018-0.388-0.027-0.591
		c-0.136-3.058-0.214-7.494,2.854-6.907c2.64,0.503,5.71,1.719,7.754,2.835C260.505,289.669,261.228,290.513,263.122,290.659z
		 M266.563,300.184c-0.556-0.945-1.453-1.835-3.082-2.412c0.369-0.391,0.698-0.826,1.061-1.227c1.584,0.662,2.617-0.868,3.833-0.737
		c1.396,0.148,2.499,2.074,4.49,1.948c-0.595,0.284-0.942,0.699-1.153,1.184c-0.85,1.959,0.58,5.082-2.601,5.536
		C267.382,304.412,267.735,302.176,266.563,300.184z M271.098,295.128c-0.352-0.084-0.698-0.173-1.038-0.269
		c0.18-1.078-0.155-2.136,0.113-2.912c0.733-0.528,1.962-0.52,3.069-0.644c-0.958-0.471-2.305-0.657-3.409-0.385
		c-0.026-0.748-0.361-1.212-0.564-1.797c0.116-0.042,0.243-0.098,0.379-0.167c2.033-1.025,6.057-4.784,8.383-3.425
		c0.48,0.28,0.848,1.1,1.122,2.1c0.399,1.458,0.601,3.3,0.654,4.435c0.077,1.586-0.144,3.188-0.79,4.028
		C276.122,296.007,273.471,295.697,271.098,295.128z M207.288,250.851c1.833-0.945,4.062-2.108,6.609-3.446
		c-0.491,0.502-0.975,1.011-1.445,1.533c-0.141,0.157-1.205,1.171-2.625,2.525l-1.924-0.78l-0.145,0.359L207.288,250.851z
		 M207.146,327.966c-0.469-0.637-0.514-1.477-0.984-2.112l0.181,0.095c0.427,0.569,0.431,1.347,0.854,1.917L207.146,327.966z
		 M207.244,327.771c-0.286-0.391-0.153-0.988-0.44-1.377c-0.084-0.114-0.169-0.228-0.254-0.34l0.723,0.372l0.134-0.259l0.197,0.522
		c0.037,0.054,0.077,0.106,0.116,0.158L207.244,327.771z M210.059,309.023l-5.696-2.432l-0.122,0.068l1.043-6.131l-4.973-3.692
		l-0.135,0.039l2.442-5.72l-3.978-4.748l-0.141,0.005l3.708-4.995l-2.762-5.543l-0.138-0.027l4.768-3.993l-1.394-6.034l-0.129-0.059
		l5.567-2.773l0.049-6.193l-0.11-0.086l6.06-1.401l1.489-6.012l-0.088-0.11l3.193,0.024c-0.005,0.011-0.015,0.024-0.019,0.035
		c-0.392,0.934-0.646,1.924-0.79,2.939c-0.358,2.553,0.007,5.26,0.763,7.628c0.517,1.617,1.212,3.079,1.989,4.218
		c1.4,2.053,3.703,3.876,6.731,4.417c0.066,0.012,0.131,0.027,0.198,0.038c0.004,0.059,0.012,0.116,0.016,0.175
		c0.111,1.42,0.416,2.702,0.951,4.081c0.143,0.367,0.297,0.74,0.473,1.126c0.324,0.711,1.172,1.758,1.654,2.812
		c0.324,0.708,0.481,1.419,0.201,2.034c-0.007,0.014-0.009,0.029-0.016,0.043c-0.149,0.303-0.755,0.746-1.5,1.212
		c-0.731,0.458-1.595,0.935-2.303,1.328c-0.407,0.226-0.765,0.425-1.01,0.572c-0.715,0.429-1.385,0.821-2.037,1.2
		c-1.476,0.858-2.83,1.631-4.192,2.467c-1.173,0.72-2.356,1.492-3.644,2.418c-0.828,0.596-1.828,0.999-2.731,1.459
		c-1.526,0.779-2.772,1.724-2.428,4.047c0.016,0.105,0.043,0.217,0.062,0.324c0.217,1.208,0.645,2.534,1.126,3.861
		c0.472,1.304,0.982,2.601,1.37,3.776c0.014,0.041,0.03,0.086,0.044,0.127c0.426,1.309,0.941,2.563,1.441,3.828
		c0.533,1.346,1.049,2.702,1.422,4.146c0.01,0.04,0.018,0.08,0.028,0.12c0.469,1.837,0.821,3.641,1.104,5.431
		c0.353,2.22,0.594,4.418,0.777,6.617l-1.716-5.517l-6.105-1.04l-0.104,0.097L210.059,309.023z M218.916,331.411
		c0.001,0.034,0.003,0.066,0.005,0.101c-0.143-0.152-0.241-0.408-0.426-0.536C218.7,331.005,218.792,331.222,218.916,331.411z
		 M218.521,330.637l0.366-0.711c0.005,0.425,0.009,0.842,0.021,1.241C218.777,330.99,218.65,330.813,218.521,330.637z
		 M218.928,331.655c0.04,0.846,0.134,1.589,0.354,2.151c-0.471-0.634-0.94-1.269-1.411-1.906l0.507-0.984
		C218.562,331.162,218.744,331.408,218.928,331.655z M221.158,339.18l0.089-0.173c0.111,0.151,0.222,0.305,0.336,0.459l-0.005,0.011
		l0.021,0.012c0.499,0.68,1.009,1.377,1.508,2.051c0.327,0.442,0.759,0.912,0.878,1.236c0.188,0.508-0.008,1.077,0.093,1.675
		c-1.499-2.013-2.982-4.053-4.464-6.099l0.525,0.27l-0.015,0.027L221.158,339.18z M221.673,339.292l-0.043,0.083
		c-0.112-0.154-0.225-0.306-0.337-0.459l0.028-0.053l0.057,0.028C221.475,339.024,221.573,339.158,221.673,339.292z
		 M221.544,338.979l0.229,0.117l-0.058,0.113C221.659,339.132,221.601,339.055,221.544,338.979z M223.39,340.246l0.08-0.157
		l0.194,0.1c0.071,0.096,0.142,0.192,0.213,0.287c-0.045,0.559,0.041,1.075,0.071,1.607c-0.229-0.03-0.32-0.289-0.441-0.452
		c-0.467-0.63-0.938-1.268-1.405-1.9l0.155-0.306l0.324,0.168l-0.097,0.187L223.39,340.246z M222.671,340.641
		c0.445,0.604,0.964,1.189,1.272,1.89c-0.72-0.984-1.44-1.967-2.161-2.948l0.17,0.087
		C222.19,339.992,222.431,340.317,222.671,340.641z M224.341,348.961c-4.25-5.969-8.604-11.914-13.014-17.845l0.44-0.857
		c4.212,5.685,8.376,11.383,12.502,17.096C224.207,347.917,224.386,348.403,224.341,348.961z M211.218,331.33l0.058-0.11
		c3.854,5.232,7.675,10.478,11.481,15.693c0.57,0.783,1.173,1.577,1.601,2.45C220,343.392,215.635,337.356,211.218,331.33z
		 M224.399,349.608c0.025,0.561,0.115,1.101,0.093,1.676c-4.541-6.264-9.178-12.58-13.827-18.881l0.492-0.954
		C215.677,337.517,220.135,343.582,224.399,349.608z M211.819,330.161l0.061-0.118c3.656,4.938,7.275,9.899,10.855,14.839
		c0.525,0.727,1.14,1.399,1.491,2.226C220.121,341.449,215.989,335.799,211.819,330.161z M224.165,346.682
		c-4.079-5.565-8.107-11.184-12.226-16.756l0.439-0.854c1.937,2.608,3.861,5.219,5.778,7.834l-0.445,0.867l0.972,0.499l0.195-0.384
		c1.761,2.401,3.514,4.805,5.259,7.211c-0.002,0.53,0.07,1.039,0.094,1.562C224.221,346.702,224.192,346.694,224.165,346.682z
		 M218.919,335.427c-1.064-1.438-2.133-2.876-3.203-4.319l1.965,1.01c0.578,0.781,1.161,1.562,1.736,2.34L218.919,335.427z
		 M219.496,337.964l-0.069,0.132c-0.063-0.089-0.128-0.178-0.191-0.266L219.496,337.964z M218.876,335.511l-0.035,0.068
		c-1.134-1.54-2.269-3.079-3.408-4.618l0.118,0.062C216.66,332.519,217.769,334.016,218.876,335.511z M218.799,335.66l-0.472,0.919
		c-0.463-0.639-0.928-1.278-1.393-1.917c-1.136-1.558-2.272-3.126-3.424-4.688l1.734,0.89
		C216.43,332.451,217.614,334.047,218.799,335.66z M214.307,327.07c-0.096-0.13-0.192-0.26-0.288-0.391l0.381-0.744l0.383,0.198
		c0.002,0.002,0.003,0.003,0.005,0.004L214.307,327.07z M214.216,327.245v0.006c-0.107-0.124-0.202-0.252-0.297-0.38l0.036-0.067
		C214.062,326.953,214.155,327.109,214.216,327.245z M214.154,327.367l-0.403,0.786l-0.095,0.183
		c-0.043-0.059-0.087-0.119-0.131-0.176c-0.053-0.072-0.104-0.144-0.159-0.215l0.498-0.966
		C213.961,327.108,214.059,327.238,214.154,327.367z M213.422,328.162c0.064,0.086,0.128,0.172,0.191,0.257l-0.029,0.058
		c-0.077-0.104-0.155-0.209-0.232-0.312c-0.019-0.025-0.038-0.051-0.057-0.076l0.029-0.059
		C213.357,328.073,213.39,328.118,213.422,328.162z M213.533,328.577l-0.434,0.841c-0.096-0.13-0.193-0.259-0.289-0.388l0.431-0.841
		C213.338,328.318,213.437,328.447,213.533,328.577z M213.021,329.571l-0.061,0.119l0.242,0.124c1.709,2.29,3.4,4.585,5.063,6.882
		l-0.052,0.101c-1.923-2.604-3.859-5.217-5.788-7.818l0.055-0.105l0.031,0.017C212.683,329.116,212.851,329.344,213.021,329.571z
		 M224.074,344.786c-1.684-2.313-3.401-4.656-5.137-7.01l0.041-0.078l0.027,0.014c0.12,0.166,0.243,0.332,0.363,0.499l-0.007,0.011
		l0.024,0.013C220.956,340.427,222.657,342.517,224.074,344.786z M219.478,334.342c-0.562-0.767-1.123-1.529-1.684-2.29l0.015-0.03
		c0.568,0.74,1.134,1.488,1.704,2.25L219.478,334.342z M224.487,351.729c-0.043-0.011-0.033-0.038-0.021-0.066
		c-4.68-6.293-9.265-12.68-13.909-19.046l0.065-0.127c4.679,6.334,9.312,12.682,13.912,19.039
		C224.548,351.587,224.529,351.654,224.487,351.729z M223.352,332.146c-0.496-0.25-0.995-0.498-1.5-0.733
		c-0.37-13.16-9.894-35.269-8.718-38.795c0.176-0.526,0.461-0.917,0.814-1.228c0.496,0.116,2.305,0.582,4.644,1.663
		c4.115,1.899,9.869,5.705,13.022,12.873c0.123,0.571,0.464,1.345,0.441,1.619c1.058,2.468,5.407,5.641,5.857,8.64
		c-1.584-0.447-2.363-1.639-3.847-2.179c-0.582,1.833,1.204,1.921,1.021,3.084c-0.236,1.497-2.993,0.33-3.129,2.372
		c-0.003,0.057-0.014,0.106-0.013,0.168c1.898,0.304,4.809-0.589,6.837,0.266c0.065,0.765,0.136,1.524,0.21,2.281
		c0.531,5.402,1.288,10.651,2.107,16.449C233.712,338.243,228.707,334.853,223.352,332.146z M259.55,355.644
		c-4.21-0.104-8.521-0.758-12.438-1.947c-3.604-11.044-5.569-21.528-6.925-34c7.721-1.445,18.559-2.707,26.913-1.524
		c0.742,0.105,1.472,0.223,2.17,0.368c0.374,2.434,0.501,4.851,0.597,7.257c0.022,0.013,0.047,0.021,0.069,0.034l0.268,5.442
		c-0.024,0.018-0.052,0.03-0.077,0.047c0.055,0.784,0.119,1.567,0.208,2.351c0.188,1.653,0.295,3.366,0.369,5.101
		c0.035,0.018,0.073,0.031,0.108,0.05l0.188,5.604c-0.034,0.022-0.073,0.038-0.108,0.059c0.116,3.363,0.309,6.669,0.932,9.661
		C268.215,355.264,263.938,355.752,259.55,355.644z M277.146,347.632c-1.534,0.518-2.417,0.97-4.474,0.968
		c-0.146-3.247-0.581-8.209-0.45-11.304c1.012,0.066,2.504-0.724,3.316-0.506C275.937,340.277,277.319,343.812,277.146,347.632z
		 M271.943,334.621c-0.301-3.947-0.548-7.853-0.629-11.775c-0.029-1.405-0.038-2.814-0.02-4.228l0,0
		c1.456-0.488,2.743-0.457,4.204-0.471c0.295,1.067,0.516,2.205,0.69,3.385c0.574,3.865,0.643,8.199,1.118,12.155
		C275.396,334.106,274.001,334.312,271.943,334.621z M270.725,315.596c-0.231-1.467-3.382-6.741-3.174-9.05
		c0.14-1.539,3.646-0.671,3.953-2.037c0.482-2.152,0.949-3.129,1.157-4.709c0.133-1.004,1.298-0.688,1.775-1.543
		c-0.462-1.078,6.536-0.394,6.206-1.592c1.455-2.747,1.458-9.438-0.418-12.564c-0.563-0.938-1.296-1.548-2.209-1.64
		c-0.498-0.051-1.047,0.046-1.654,0.34c0.214-0.314,0.53-0.612,0.888-0.91c0.915-0.76,2.127-1.513,2.795-2.499
		c2.291,1.845,3.675,3.582,5.871,5.555c1.193,1.068,3.537,2.35,3.773,4.077c0.062,0.448-0.033,1.196-0.174,1.978
		c-0.163,0.904-0.387,1.853-0.503,2.434c-0.963,4.758-3.126,11.044-5.188,16.03c-0.749,1.812-1.465,4.078-2.455,4.47
		C278.716,314.655,272.969,315.404,270.725,315.596z M284.018,330.652c-1.206,0.233-1.99,0.925-3.457,0.879
		c-0.071-0.871-0.173-1.753-0.285-2.637c-0.477-3.764-1.237-7.595-1.592-11.131c0.933-0.018,2.069-0.232,3.045-0.009
		c1.464,2.515,2.059,6.29,2.235,9.72C284.021,328.589,284.034,329.667,284.018,330.652z M297.528,332.189
		c-2.228,0.541-5.642,0.683-7.101-0.021c1.784-0.976,4.465-0.98,6.53-1.649c-2.959-1.274-7.336-0.074-10.895-0.296
		c-0.43-4.393-0.752-9.155-1.794-12.623c0.305-0.323,0.678-0.607,1.093-0.868c2.414-1.519,6.419-2.135,8.85-3.692
		c1.75-1.12,3.942,0.481,4.752,1.705c0.639,0.966,1.252,3.027,1.767,5.091c0.367,1.47,0.685,2.941,0.924,4.018
		C302.51,327.7,300.587,331.447,297.528,332.189z M310.161,294.231c-0.21,1.282,0.283,2.604,1.476,4.819
		c0.028,0.052,0.051,0.097,0.079,0.149c-1.843,1.476-2.917,2.43-3.406,3.542c-0.527,1.198-0.37,2.589,0.268,5.012
		c0.021,0.082,0.039,0.156,0.062,0.24c-2.103,0.991-3.363,1.663-4.104,2.606c-0.813,1.037-0.994,2.416-0.942,4.913
		c0.002,0.106,0.002,0.204,0.005,0.315c-0.396,0.083-0.756,0.161-1.1,0.239c-0.289-0.781-0.584-1.523-0.87-2.172
		c-0.069-0.155-0.138-0.307-0.205-0.45c-0.96-2.052-2.534-3.023-4.384-3.325c-1.438-0.234-3.044-0.062-4.66,0.331
		c-1.11,0.271-2.226,0.643-3.293,1.059c-0.999,0.389-1.957,0.813-2.832,1.227c-0.512,0.241-0.995,0.478-1.442,0.699
		c0.244-0.641,0.482-1.286,0.719-1.933c0.387-1.056,0.766-2.119,1.138-3.191c0.322-0.929,0.64-1.866,0.954-2.81
		c0.271-0.816,0.54-1.639,0.807-2.468c0.245-0.76,0.488-1.524,0.73-2.295c0.221-0.705,0.441-1.414,0.661-2.129
		c0.213-0.691,0.426-1.386,0.639-2.087c0.204-0.675,0.409-1.355,0.613-2.04c0.021-0.069,0.042-0.136,0.062-0.205
		c0.172-0.577,0.392-1.223,0.611-1.898c0.23-0.706,0.46-1.445,0.639-2.178c0.195-0.805,0.326-1.598,0.324-2.328
		c0-0.218-0.009-0.432-0.035-0.637c-0.064-0.511-0.318-1.028-0.687-1.542c-0.438-0.612-1.038-1.219-1.679-1.803
		c-0.574-0.523-1.178-1.027-1.725-1.501c-0.322-0.278-0.626-0.547-0.89-0.801c-0.148-0.144-0.393-0.354-0.688-0.604
		c-0.42-0.355-0.949-0.796-1.507-1.272c-0.486-0.415-0.985-0.853-1.444-1.282c-0.537-0.501-1.008-0.984-1.327-1.396
		c-0.217-0.281-0.368-0.531-0.408-0.726c-0.238-1.161,1.722-3.793,2.353-5.108c0.825-1.718,1.435-3.78,1.875-5.32
		c0.042-0.148,0.085-0.298,0.124-0.437c0.888-3.119,1.559-6.55,1.98-10.086c0.742,1.194,1.396,1.972,2.279,2.419
		c0.654,0.332,1.435,0.486,2.478,0.486c0.685,0,1.485-0.062,2.441-0.162c0.023,0.082,0.045,0.152,0.067,0.231
		c0.673,2.322,1.162,3.663,2.12,4.502c0.931,0.817,2.306,1.168,4.741,1.496c0.003,0.061,0.006,0.113,0.008,0.173
		c0.112,2.42,0.268,3.849,0.981,4.894c0.709,1.039,1.97,1.705,4.298,2.604c-0.006,0.033-0.012,0.062-0.018,0.094
		c-0.458,2.387-0.652,3.822-0.226,5.005c0.434,1.204,1.51,2.152,3.599,3.593c0,0.002-0.002,0.005-0.003,0.008
		c-1.009,2.224-1.539,3.579-1.424,4.826c0.118,1.283,0.925,2.456,2.613,4.34c0.019,0.021,0.034,0.04,0.054,0.061
		C311.187,291.827,310.359,293.014,310.161,294.231z"/>
	<path fill="#0F0E0E" d="M235.223,203.664c13.435-6.622,23.884-13.017,23.353-14.095c-0.001-0.003-0.005-0.004-0.007-0.007
		c-0.584-1.047-11.88,3.44-25.28,10.044c-13.435,6.622-23.895,12.864-23.363,13.941c0.003,0.006,0.012,0.01,0.016,0.016
		C210.594,214.571,221.867,210.247,235.223,203.664z"/>
	<path fill="#231F20" d="M277.562,269.84c-0.727-1.088-2.689-2.807-3.448-2.903c-0.757-0.097-1.451,0.181-1.451,0.181
		c-1.04-0.102-2.869-0.89-3.629-0.907s-6.895,2.178-8.347,2.178c-1.451,0-4.173-0.363-4.173-0.363s3.266,2.177,5.443,1.996
		c2.177-0.181,3.447-1.27,4.718-1.088c1.27,0.181,2.642,0.145,3.266,0.363c0.625,0.218,1.633,0.907,1.633,0.907l2.359,0.181
		c0,0,0.981,0.264,2.54,2.177c0.821,1.008,1.702,1.243,1.702,1.243l1.616,0.088C279.791,273.893,278.287,270.929,277.562,269.84z"/>
	<path fill="#231F20" d="M275.012,273.881c0-0.462-1.079-1.078-1.695-1.387s-2.313-0.617-3.084-0.771
		c-0.77-0.154-2.466-0.617-2.466-0.617l-7.554-0.154v0.617l2.158,0.771c0,0,2.467-0.154,3.7,0s4.008,0.924,4.47,0.924
		c0.463,0,3.854,0.925,3.854,0.925S275.012,274.343,275.012,273.881z"/>
	<circle fill="#D33832" cx="246.17" cy="324.176" r="3.243"/>
	<circle fill="#D33832" cx="262.447" cy="322.775" r="3.243"/>
	<circle fill="#D33832" cx="254.664" cy="329.252" r="3.243"/>
	<circle fill="#D33832" cx="263.137" cy="335.187" r="3.243"/>
	<circle fill="#D33832" cx="264.382" cy="348.695" r="3.243"/>
	<circle fill="#D33832" cx="250.905" cy="349.668" r="3.243"/>
	<circle fill="#D33832" cx="248.213" cy="336.189" r="3.243"/>
	<circle fill="#D33832" cx="256.748" cy="341.797" r="3.243"/>
	<path fill="#D33832" d="M241.36,327.584c-0.05,0-0.099,0.005-0.148,0.007l1.016,6.358c1.369-0.379,2.377-1.632,2.377-3.122
		C244.604,329.035,243.151,327.584,241.36,327.584z"/>
	<path fill="#D33832" d="M248.368,343.781c0-1.792-1.453-3.243-3.244-3.243c-0.533,0-1.037,0.132-1.481,0.36l1.507,6.124
		C246.929,347.01,248.368,345.564,248.368,343.781z"/>
	<path fill="none" stroke="#D33832" stroke-width="0" stroke-linecap="round" stroke-linejoin="round" d="M236.29,326.277
		c0.001-0.005,0.004,0.003,0.007,0.017"/>
	<path fill="#D33832" d="M268.317,325.396c-0.473,0-0.922,0.104-1.326,0.285c-1.13,0.507-1.917,1.639-1.917,2.958
		c0,1.356,0.833,2.517,2.015,3c0.379,0.156,0.793,0.243,1.229,0.243c0.672,0,1.291-0.212,1.809-0.562
		c0.025-0.017,0.053-0.029,0.077-0.047l-0.268-5.442c-0.022-0.013-0.047-0.021-0.069-0.034
		C269.405,325.545,268.88,325.396,268.317,325.396z"/>
	<path fill="#D33832" d="M267.462,338.994c-0.86,0.583-1.426,1.568-1.426,2.687c0,1.332,0.805,2.476,1.953,2.975
		c0.396,0.171,0.832,0.268,1.29,0.268c0.589,0,1.137-0.164,1.612-0.438c0.035-0.021,0.074-0.036,0.108-0.059l-0.188-5.604
		c-0.035-0.019-0.073-0.032-0.108-0.05c-0.431-0.212-0.911-0.334-1.424-0.334C268.605,338.438,267.98,338.643,267.462,338.994z"/>
</g>
<path fill="#454344" d="M248.198,211.953c0,0,9.96-5.007,11.988-6.127c0,0,4.098,8.521,3.139,10.209l-12.276,6.319
	C251.049,222.354,251.925,218.382,248.198,211.953z"/>
<path fill="#1E1C1D" d="M240.5,201.015c0,0,10.609-5.428,12.557-6.903c0,0,6.709,10.7,7.13,11.714l-11.988,6.127
	C248.198,211.953,244.591,204.805,240.5,201.015z"/>
</svg>
