<?xml version="1.0" encoding="utf-8"?>
<!-- Generator: Adobe Illustrator 27.4.1, SVG Export Plug-In . SVG Version: 6.00 Build 0)  -->
<svg version="1.1" id="Ebene_1" xmlns="http://www.w3.org/2000/svg" xmlns:xlink="http://www.w3.org/1999/xlink" x="0px" y="0px"
	 viewBox="0 0 1015 816.4" style="enable-background:new 0 0 1015 816.4;" xml:space="preserve">
<style type="text/css">
	.st0{clip-path:url(#SVGID_00000154385381076016761860000010751829383916041609_);}
	.st1{fill-rule:evenodd;clip-rule:evenodd;fill:#D33833;}
	.st2{fill:#EF3D3A;}
	.st3{fill:#231F20;}
	.st4{fill-rule:evenodd;clip-rule:evenodd;fill:#F0D6B7;}
	.st5{fill-rule:evenodd;clip-rule:evenodd;fill:#335061;}
	.st6{fill-rule:evenodd;clip-rule:evenodd;fill:#6D6B6D;}
	.st7{fill-rule:evenodd;clip-rule:evenodd;fill:#DCD9D8;}
	.st8{fill-rule:evenodd;clip-rule:evenodd;fill:#F7E4CD;}
	.st9{fill:#F7E4CD;}
	.st10{fill-rule:evenodd;clip-rule:evenodd;fill:#49728B;}
	.st11{fill-rule:evenodd;clip-rule:evenodd;fill:#FFFFFF;}
	.st12{fill:#FFFFFF;}
	.st13{fill:none;stroke:#D33833;stroke-width:2.5;}
	.st14{fill-rule:evenodd;clip-rule:evenodd;fill:#EF3D3A;}
	.st15{fill-rule:evenodd;clip-rule:evenodd;fill:#231F20;}
	.st16{fill-rule:evenodd;clip-rule:evenodd;fill:#81B0C4;}
	.st17{fill-rule:evenodd;clip-rule:evenodd;fill:#1D1919;}
	.st18{clip-path:url(#SVGID_00000176042062205213046930000000153326125308500395_);}
	.st19{fill:#6D2380;}
	.st20{fill:#2C58A4;}
	.st21{fill:#78B82A;}
	.st22{fill:#EFE524;}
	.st23{fill:#F28917;}
	.st24{fill:#E22016;}
	.st25{fill:#945516;}
	.st26{fill:#7BCCE5;}
	.st27{fill:#F4AEC8;}
	.st28{fill:#FDD817;}
	.st29{fill:none;stroke:#66338B;stroke-width:7;stroke-miterlimit:10;}
</style>
<g>
	<defs>
		<rect id="SVGID_1_" width="1015" height="816.4"/>
	</defs>
	<clipPath id="SVGID_00000108993684655073964300000002673775410133933705_">
		<use xlink:href="#SVGID_1_"  style="overflow:visible;"/>
	</clipPath>
	<g style="clip-path:url(#SVGID_00000108993684655073964300000002673775410133933705_);">
		<path class="st1" d="M660.4,446.7c0,183.7-145.6,332.6-325.1,332.6S10.1,630.4,10.1,446.7s145.6-332.6,325.1-332.6
			S660.4,263.1,660.4,446.7"/>
		<path class="st2" d="M23.4,529.1c0,0-23.5-346.8,296-356.7l-22.3-37.2l-173.4,58.2l-49.6,57l-43.3,83L6,430l7.4,64.4"/>
		<path class="st3" d="M112.6,219.9c-57.1,58.4-92.4,139-92.4,228.1c0,89.1,35.3,169.7,92.3,228.1c57.1,58.4,135.7,94.4,222.7,94.4
			c87,0,165.6-36,222.7-94.4c57-58.4,92.4-139,92.4-228.1c0-89.2-35.3-169.7-92.4-228.1c-57.1-58.3-135.7-94.4-222.7-94.4
			C248.3,125.5,169.6,161.5,112.6,219.9L112.6,219.9z M98.1,690.2C37.5,628.2,0,542.5,0,448c0-94.5,37.5-180.2,98.1-242.2
			c60.6-62,144.5-100.5,237.1-100.4c92.6,0,176.5,38.4,237.1,100.4c60.6,62,98.1,147.7,98.1,242.2c0,94.5-37.5,180.2-98.1,242.2
			c-60.6,62-144.5,100.5-237.1,100.5C242.6,790.6,158.7,752.2,98.1,690.2"/>
		<path class="st4" d="M472.1,448.6l-49.5,7.4l-66.9,7.4l-43.4,1.2l-42.1-1.2l-32.2-9.9l-28.5-31l-22.3-63.2l-5-13.6l-29.7-9.9
			l-17.3-28.5l-12.4-40.9l13.6-35.9l32.2-11.1l26,12.4l12.4,27.2l14.9-2.5l5-6.2l-5-28.5l-1.2-35.9l7.4-49.5l-0.3-28.3L250.4,72
			L290,43.5l69.4-29.7L436.2,25l66.9,48.3l31,49.5l19.8,35.9l4.9,89.2L544,324.7l-27.2,68.1l-26,35.9"/>
		<path class="st5" d="M430,662.9l-177.1,7.4V700l14.9,104l-7.4,8.7l-123.9-42.1l-8.7-14.9l-12.4-140l-28.5-84.2l-6.2-19.8
			l99.1-68.1l31-12.4l27.2,33.4l23.5,21.1l27.3,8.7l12.4,3.7l14.9,64.4l11.1,13.6l28.5-9.9l-19.8,38.4l107.8,50.8v6.6"/>
		<path class="st6" d="M136.4,230.6l32.2-11.1l26,12.4l12.4,27.2l14.9-2.5l3.7-14.9l-7.4-28.5l7.4-68.1l-6.2-37.2l22.3-26L290,43.5
			l-13.6-18.6l-68.1,33.4l-28.5,22.3l-16.1,34.7l-24.8,33.4l-7.4,39.6L136.4,230.6"/>
		<path class="st7" d="M187.2,114.1c0,0,18.6-45.8,92.9-68.1s3.7-16.1,3.7-16.1l-80.5,31l-31,31l-13.6,24.8L187.2,114.1
			 M150.1,221.9c0,0-26-86.7,73.1-99.1l-3.7-14.9l-68.1,16.1l-19.8,64.4l5,42.1L150.1,221.9"/>
		<path class="st8" d="M189.7,337.1l16.2-15.7c0,0,7.3,0.9,8.6,9.5s5,86.7,58.2,128.8c4.9,3.8-39.6-6.2-39.6-6.2l-39.6-61.9
			 M417.6,313.6c0,0,2.9-37.5,13-34.7s10.1,13,10.1,13S416.2,307.8,417.6,313.6"/>
		<path class="st9" d="M520.4,176.1c0,0-20.4,4.3-22.3,22.3s22.3,3.7,26,2.5 M370.5,177.3c0,0-27.3,3.7-27.3,21.1s31,16.1,39.6,8.7"
			/>
		<path class="st8" d="M202.1,257.8c0,0-47.1-28.5-52-1.2s-16.1,47.1,7.4,75.6l-16.1-5l-14.9-38.4l-4.9-37.2l28.5-29.7l32.2,2.5
			l18.6,14.9L202.1,257.8 M224.4,179.8c0,0,21.1-109,127.6-130.1c87.7-17.3,133.8,3.7,151.1,23.5c0,0-78-92.9-152.4-64.4
			s-128.8,80.5-127.6,114C225.3,179.8,224.4,179.8,224.4,179.8 M511.8,85.7c0,0-35.9-1.2-37.2,31c0.1,3.4,1,6.8,2.5,9.9
			c0,0,28.5-32.2,45.8-14.9"/>
		<path class="st8" d="M354.5,129.9c0,0-6.2-49.4-48.3-20.7c-27.2,18.6-24.8,44.6-19.8,49.5s3.6,14.9,7.4,8.1s2.5-29.1,16.2-35.3
			S345.8,118.4,354.5,129.9"/>
		<path class="st10" d="M238,464.7l-116.4,52c0,0,48.3,192,23.5,251.4l-17.3-6.2l-1.2-73.1L94.3,550.2l-13.6-38.4L202.1,430
			L238,464.7 M250,570.9l16.5,20.2v74.3h-19.8c0,0-2.5-52-2.5-58.2s2.5-28.5,2.5-28.5"/>
		<path class="st5" d="M441.1,664.1l45.8-1.2l11.1,114l-133,18.2l-98.7,7.1l-14.6-93.8v-29.2"/>
		<path class="st5" d="M453.5,664.1l69.4-3.7c0,0,28.5-71.8,28.5-75.6s24.8-104,24.8-104l-55.7-58.2l-11.1-9.9l-29.7,29.7v115.2
			L453.5,664.1"/>
		<path class="st10" d="M484.5,655.4l-282,24.2l-7.7-0.3c0,0,6.6,11.4,23.8,13.6s163.4,8.4,231.4,6.8s40.7-13.4,40.7-13.4
			 M485.7,438.7l86.7,64.4l2.5-29.7l-65.6-60.7L485.7,438.7"/>
		<path class="st11" d="M500.2,766.9l48.3-13.6l91.7-5l13.6-42.1l-24.8-73.1l-28.5-3.7l-39.6,12.4l-38,18.6l-20.2-3.7l-15.7,6.2"/>
		<path class="st7" d="M499.4,742.1c0,0,32.2-14.9,37.2-13.6l-13.6-68.1l16.1-6.2c0,0,11.1,64.4,11.1,71.8c0,0,69.4,3.7,75.6,3.7
			c0,0,14.9-28.5,11.1-58.2l13.6,39.6l1.2,22.3l-19.8,29.7l-22.3,5l-37.2-1.2l-12.4-16.1l-43.4,6.2l-13.6,5"/>
		<path class="st12" d="M450.7,654.2l-27.2-69.4L394.9,544c0,0,6.2-17.3,14.9-17.3h28.5l27.2,9.9l-2.5,45.8L450.7,654.2"/>
		<path class="st7" d="M456,630.7c0,0-34.7-66.9-34.7-76.8c0,0,6.2-14.9,14.9-11.1s27.3,13.6,27.3,13.6v-23.5l-42.1-8.7l-28.5,3.7
			l48.3,114l9.9,1.2"/>
		<path class="st12" d="M304.5,467.2l-34.3-3.7l-32.2-9.9v11.1l15.7,17.4l49.5,22.3"/>
		<path class="st7" d="M249.2,470.9c0,0,38.4,16.1,50.8,12.4l1.2,14.8l-34.7-7.4l-21.1-14.9L249.2,470.9"/>
		<path class="st1" d="M500.1,530.8c-21-0.6-40-3.1-56.6-7.8c1.1-6.8-1-13.5,0.7-18.4c4.6-3.3,12.4-3.3,19.4-4.1
			c-6.7-3.2-14.3-4-21.6-2.4c-0.2-4.7-2.3-7.7-3.6-11.4c11.8-4.2,39.7-31.9,55.4-22.7c7.5,4.4,10.7,29.2,11.2,41.3
			C505.6,515.4,504.2,525.5,500.1,530.8"/>
		<path class="st13" d="M500.1,530.8c-21-0.6-40-3.1-56.6-7.8c1.1-6.8-1-13.5,0.7-18.4c4.6-3.3,12.4-3.3,19.4-4.1
			c-6.7-3.2-14.3-4-21.6-2.4c-0.2-4.7-2.3-7.7-3.6-11.4c11.8-4.2,39.7-31.9,55.4-22.7c7.5,4.4,10.7,29.2,11.2,41.3
			C505.6,515.4,504.2,525.5,500.1,530.8L500.1,530.8z"/>
		<path class="st1" d="M399.6,496.5c-0.1,1.6-0.1,3.2-0.2,4.8c-6.6,4.3-17.2,4.3-24.4,7.9c9.1,0.3,18,2.6,26.2,6.6
			c-0.2,4-0.3,8-0.5,12c-12,8.2-23,20.5-37.2,28.2c-6.7,3.7-30.2,13-37.3,11.4c-4-0.9-4.4-5.9-6-10.7c-3.4-10.1-11.3-26.2-12-41.4
			c-0.9-19.2-2.8-51.4,17.9-47.4c16.7,3.2,36.1,10.9,49,17.9C383.1,490.2,387.6,495.6,399.6,496.5"/>
		<path class="st13" d="M399.6,496.5c-0.1,1.6-0.1,3.2-0.2,4.8c-6.6,4.3-17.2,4.3-24.4,7.9c9.1,0.3,18,2.6,26.2,6.6
			c-0.2,4-0.3,8-0.5,12c-12,8.2-23,20.5-37.2,28.2c-6.7,3.7-30.2,13-37.3,11.4c-4-0.9-4.4-5.9-6-10.7c-3.4-10.1-11.3-26.2-12-41.4
			c-0.9-19.2-2.8-51.4,17.9-47.4c16.7,3.2,36.1,10.9,49,17.9C383,490.2,387.6,495.6,399.6,496.5L399.6,496.5z"/>
		<path class="st1" d="M411.5,519.4c-1.8-10.5-4-13.4-3.1-22.6C436.3,478.2,441.5,528.8,411.5,519.4"/>
		<path class="st13" d="M411.5,519.4c-1.8-10.5-4-13.4-3.1-22.6C436.3,478.2,441.5,528.8,411.5,519.4z"/>
		<path class="st14" d="M451.9,527.9c0,0-8.7-12.4-2.5-16.1s12.4,0,16.1-6.2s0-9.9,1.2-17.3s7.4-8.7,13.6-9.9s23.5-3.7,26,2.5
			l-7.4-22.3l-14.9-5l-47.1,27.2l-2.5,13.6v27.2 M321.9,568.7c-1.5-19.3-3.1-38.6-4.8-57.9C314.4,482,324,487,349,487
			c3.8,0,23.5,4.6,24.9,7.4c6.8,13.8-11.3,10.7,7.8,21.1c16.1,8.8,44.6-5.3,38-24.9c-3.6-4.3-19-1.4-24.5-4.2l-29-15
			c-12.3-6.4-40.8-15.7-53.9-6.8c-33.3,22.6,2.1,79.1,14,102.7"/>
		<path class="st15" d="M354.5,129.9c-33.8-7.9-50.5,14.1-60.8,36.9c-9.1-2.2-5.5-14.6-3.2-21c6-16.6,30.4-38.7,50.3-35.7
			C349.4,111.4,360.9,119.2,354.5,129.9 M519,168.3c0.5,0,1.1,0,1.6,0.1c7.6,15.8,14.2,32.6,23.9,46.6c-6.4,15-48.8,28.3-48.2,1.3
			c9.2-4,25-0.8,33.1-5.9C524.7,197.5,517.9,186.6,519,168.3 M371.7,168.7c7.2,13.3,9.6,27.2,19.9,37.2c4.6,4.5,13.6,10,9.2,22.6
			c-1,3-8.7,9.6-13.1,10.9c-16.1,4.7-53.6,1-40.9-19.1c13.3,0.6,31.2,8.6,41.1-1C380.3,207.1,366.7,183,371.7,168.7 M512.9,303.6
			c-24.2,15.6-51.2,32.5-90.9,28.6c-8.5-7.4-11.7-23.8-3.5-34.6c4.3,7.4,1.6,20.9,13.5,23c22.5,3.9,48.7-13.8,64.9-19.9
			c10-16.9-0.9-23.2-9.9-34.1c-18.5-22.3-43.4-50-42.5-83.4c7.5-5.4,8.1,8.3,9.2,10.8c9.7,22.6,34,51.6,51.8,71
			c4.4,4.8,11.5,9.3,12.3,12.5C520.2,286.5,512,297.5,512.9,303.6 M193.6,287.2c-7.6-4.3-9.4-23.4-18.3-24
			c-12.7-0.8-10.4,24.8-10.4,39.7c-8.8-8-10.3-32.5-3.9-45.1c-7.3-3.6-10.6,4-14.7,6.6C151.6,226.5,202,246.9,193.6,287.2
			 M528.3,319.4c-11.3,21.5-27.2,45.1-60.3,45.8c-0.7-6.9-1.2-17.5,0-21.6C493.4,341.1,509,328.3,528.3,319.4 M369.8,333.4
			c21.1,11.1,59.9,12.3,88.6,11.4c1.5,6.3,1.5,14,1.6,21.7C423.1,368.3,379.5,359.2,369.8,333.4 M365.8,354
			c14.6,36.6,64.7,32.4,107,31.4c-1.9,4.8-5.9,10.4-10.9,12.4c-13.6,5.5-50.9,9.7-69.7-0.3c-11.9-6.3-19.6-20.7-26.1-29.1
			C362.9,364.4,347.2,354.1,365.8,354"/>
		<path class="st16" d="M511.2,556.1c-17.1,29.3-33.5,59.4-53.8,85.3c8.5-25,12.2-67,13.4-98.9C488.6,534.2,503.9,544.4,511.2,556.1
			"/>
		<path class="st15" d="M603.3,661.5c-19.2,3.8-32.6,22.5-51.3,21.3C562.2,668.3,580.2,662.2,603.3,661.5 M611.8,691.5
			c-15.6,1.7-34,4.2-49.8,2.9C569.4,683,598.3,686.9,611.8,691.5 M617.2,717.4c-17.6,0.4-39.4,0-56.1-1.4
			C571,705.4,605.8,712.1,617.2,717.4"/>
		<path class="st4" d="M449.8,463.1c-8.8,5.8-16.3,12.9-24.8,19.1c-18.8,0.9-29-1.3-42.8-12.1c0.2-0.9,1.6-0.5,1.7-1.5
			C403.9,477.6,429.5,465,449.8,463.1"/>
		<path class="st16" d="M344.3,600.2c5.5-23.9,27.2-36.3,46.8-49.5c20.3,25.7,32.6,58.9,46.2,90.8
			C405.2,631.8,372.4,616.1,344.3,600.2"/>
		<path class="st15" d="M517.3,667.8c-6.2-1.4-13.4-0.1-19.3,0.1c2.8,27.6,9.5,58.1,11.9,87.1c9.3,0.3,14.2-4.1,21.9-5.6
			C532.1,723.9,529.5,688.9,517.3,667.8L517.3,667.8z M617.2,759.1c19.3-4.7,31.5-28.4,26.1-52.7c-3.6-16.3-10.1-47.1-17-57.6
			c-5.1-7.7-19-17.9-30-10.8c-18,11.5-49.7,14.9-62.9,28.8c6.6,21.9,8.6,52,11.3,79.8c22.5,1.4,50.2-6.2,68.9,1.9
			c-13.1,4.2-30,4.3-41.3,10.4C581.5,763.4,603.1,762.5,617.2,759.1L617.2,759.1z M437.3,641.5c-13.6-32-25.9-65.1-46.2-90.8
			c-19.7,13.2-41.3,25.6-46.8,49.5C372.4,616.1,405.2,631.8,437.3,641.5z M470.8,542.5c-1.3,32-4.9,73.9-13.4,98.9
			c20.3-25.9,36.7-56,53.8-85.3C503.9,544.4,488.6,534.2,470.8,542.5z M432.8,529c-7.7-0.8-14.2,8.8-24.2,4.7
			c-2.3,2.5-4.4,5.3-6.7,7.8c22.1,26.6,32.1,64.4,49.2,95.7c9.2-30.1,8.1-63,10.1-95.8C448.6,542.2,441.6,530,432.8,529z
			 M408.4,496.8c-0.8,9.1,1.3,12.1,3.1,22.6C441.5,528.8,436.3,478.2,408.4,496.8L408.4,496.8z M375.2,485.9
			c-12.9-7.1-32.3-14.7-49-17.9c-20.7-4-18.8,28.2-17.9,47.4c0.7,15.2,8.6,31.3,12,41.4c1.6,4.7,2,9.7,6,10.7
			c7.1,1.7,30.6-7.7,37.3-11.4c14.2-7.7,25.1-20,37.2-28.2l0.5-12c-8.2-4.1-17.1-6.3-26.2-6.6c7.2-3.6,17.8-3.6,24.4-7.9
			c0.1-1.6,0.1-3.2,0.2-4.8C387.6,495.6,383.1,490.2,375.2,485.9L375.2,485.9z M251.7,463.5c-10.7,10.9,30.1,25.7,43.1,26.5
			c-0.1-6.9,3.9-13.4,3.1-18.3C282.5,469,262.2,470.8,251.7,463.5L251.7,463.5z M383.8,468.6c-0.1,1.1-1.4,0.7-1.7,1.5
			c13.8,10.8,24,13,42.8,12.1c8.5-6.1,16-13.3,24.8-19.1C429.5,465,403.9,477.6,383.8,468.6L383.8,468.6z M505.1,505.4
			c-0.6-12.1-3.8-37-11.2-41.3c-15.7-9.2-43.6,18.5-55.4,22.7c1.3,3.7,3.4,6.6,3.6,11.4c7.3-1.6,14.8-0.7,21.6,2.4
			c-7,0.8-14.8,0.7-19.4,4.1c-1.7,4.9,0.4,11.6-0.7,18.4c16.6,4.7,35.6,7.2,56.6,7.8C504.2,525.5,505.6,515.4,505.1,505.4
			L505.1,505.4z M233.7,474c-3.4-2.4-26.1-32-29.3-30.8c-41.2,16.3-79.8,44.4-114.2,71c32.8,70.5,46.1,156.8,48.4,240
			c36.3,17,68.3,41.1,116.4,45.3c0,0,71.1-2.4,118.2-7.7s123.5-22.3,123.5-22.3s-3.6-40.9-6.6-66.2s-5.3-35.3-5.3-35.3l-204,8.6
			c0,0-24.3,2.6-36.7,3.2c0,0-29.6,1.9-41.6,0c-0.1-14.5,18.3-6.3,19.9-16.1c1.2-7.4-10.1-7.9-6.5-19.5c9.4,3.4,14.3,10.9,24.3,13.8
			c9.1-20-0.1-55.4,1.2-72.1c0.2-3.1,1.6-17.4,8.6-14.9c6.2,2.2-0.4,37.9,0.3,53.7c0.6,14.6-1.8,28.7,4.1,37.8
			c49.3-6.7,135.5-3.1,188.9-4.6c-11.7-5-61.8-17.8-77.1-26.4c-8.3-4.7-34.4-14.4-36.8-22.3c-3.8-12.5,10-19.2,12.4-30
			c-24.9,13.6-29.8-13-35.6-31.9c-5.3-17.1-8.4-29.8-9.7-39.7C275.1,497.5,252.1,487.1,233.7,474L233.7,474z M483.3,446.8
			c34.3-16.7,40.5,62.2,27.1,87.7c2.1,7.6,9.2,10.5,12.2,17.3c-19.2,34.3-40.5,66.4-60,100.3c14.5-9.1,35.3-1.6,52.4-8.4
			c6.3-2.5,10.8-16.8,15.5-28.3c13-31.5,26.7-71.3,32.8-101.4c1.4-6.9,5.1-21.8,4.3-27.9c-1.5-10.9-16.3-19-23.9-25.8
			c-13.9-12.5-22.6-23.5-37.1-35.1C500.7,433.9,488.1,439.7,483.3,446.8L483.3,446.8z M155.1,142.2c-16.4,18-12.9,51.8-11,75.8
			c29.6-18.6,68.8,1.5,68.5,33.1c14.1-0.4,5.3-17.6,2.7-28.8c-8.3-36.3,14.1-75.8,1-109C191,115.2,170.2,125.6,155.1,142.2
			L155.1,142.2z M272.2,37.7c-37.1,10.5-84.5,37.4-99.8,70.7c11.8-1.7,20-7.7,31.6-8.4c4.4-0.3,10.2,1.8,15.2,0.6
			c10.1-2.5,18.6-25.1,26.2-33.5c7.4-8.2,16.3-11.7,22.4-19.2c3.9-1.9,9.7-1.8,9.9-7.6C276,38.5,274.3,37.1,272.2,37.7L272.2,37.7z
			 M465.1,47.6c-38.5-21.7-103.6-38-144.5-17.6c-33,16.5-77.6,43.7-92.8,78.2c14.2,33.3-4.2,63.8-5.4,97.6
			c-0.6,18,8.5,33.7,9.2,53.3c-4.9,8-19.7,9-30,8.5c-3.5-17.3-9.5-36.8-27.4-38.8c-25.2-2.8-43.7,18.1-44.8,40
			c-1.4,25.7,19.7,68.2,49.6,65.3c11.5-1.1,14.4-12.7,26.9-12.6c6.8,13.6-10.5,17.9-12.3,27.6c-0.5,2.5,1.4,12.3,2.5,16.9
			c5.4,22.4,17.5,51.4,29.4,68.5c15.1,21.6,44.8,24.9,76.7,27c5.7-12.3,26.7-11.3,40.4-8.1c-16.4-6.5-31.7-22.3-44.3-36.2
			c-14.5-16-29.2-33.2-30-54.1c27.4,38.1,50.1,71.3,100,88.1c37.8,12.7,81.9-5.8,110.9-26.2c12-8.5,19.2-21.9,27.8-34.2
			c32-46.1,47-111.8,43.7-175.5c-1.4-26.3-1.3-52.5-10.1-70.2c-9.2-18.5-40.4-35-58.6-18.3c-3.4-18,15.2-29.1,37-22.6
			C503.5,84.1,487.2,60,465.1,47.6L465.1,47.6z M536.7,640.5c30.1-14.9,86.2-40.2,105,0.1c7,14.8,15.1,39.9,18.7,55.3
			c5.1,21.6-5.5,67-27.7,74.3c-19.6,6.4-42.5,6-66.2,1.3c-3.3-3-6-6.6-8-10.6c-16.9-0.7-32.7,0.9-46,7.8
			c1.3,12.5-15.1,17.1-15.1,17.1s-150.9,30.4-237.1,30.7c-38.7,0.1-56.5-8-69.2-12.3c-15-5.1-21.3-9.3-38.6-17.3
			c-10.8-5-25.8-7.8-29.8-16.4c-3.9-8.3-2.3-24.3-3.3-39.4c-2.5-38.6-4.6-75.8-14.8-115.2c-4.6-17.7-12.5-33.4-18.1-50.4
			c-5.1-15.8-14.1-35.4-16.5-51.2c-3.5-23.4,18.5-24.7,32.6-34.8c21.8-15.7,38.9-24.3,62.4-38.5c7-4.2,28-14.8,30.4-19.7
			c4.8-9.7-8.2-23.3-11.6-30.9c-5.5-12-8.3-22.2-9.1-34c-17.9-2.9-33.7-13.1-43.8-28.2c-15-22-25.4-62.6-12.4-93.5
			c1-2.4,6.1-7.2,6.8-11c1.5-7.4-2.8-17.1-3-25c-1.4-40.2,6.8-74.8,33.8-86.9c11-43.7,50.3-58.3,87.3-80
			c13.8-8.1,29.1-13.3,44.8-19.1C345-8.1,431.7-4.2,478.6,31.2c19.9,15,51.7,46.8,63,69.8c30,60.7,27.9,162.2,6.9,236
			c-2.8,9.9-6.9,24.5-12.6,36.4c-4,8.3-16.4,25-14.9,32.3c1.5,7.6,28.3,27.9,34,33.4c10.3,9.9,29.9,23.1,31.5,35.7
			c1.7,13.4-5.9,31.6-9.7,44.5C563.9,562.4,551.3,602.2,536.7,640.5"/>
		<path class="st8" d="M336.3,342.7c1.6-2.2,10.6-5.5,23.1,0.6c0,0-14.9,2.5-13.6,27.3l-6.2-1.2
			C339.6,369.3,333.2,346.8,336.3,342.7"/>
		<path class="st17" d="M444.9,555.7c0,3.8-3.1,6.8-6.8,6.8c-3.8,0-6.8-3-6.8-6.8c0-3.8,3-6.8,6.8-6.8
			C441.8,548.9,444.9,552,444.9,555.7 M451.7,587.3c0,3.8-3.1,6.8-6.8,6.8c-3.8,0-6.8-3-6.8-6.8c0-3.8,3-6.8,6.8-6.8
			C448.6,580.5,451.7,583.5,451.7,587.3"/>
		<g>
			<defs>
				<path id="SVGID_00000006695888404124416470000017776244522283061385_" d="M642.6,83.8c10.7-8.2,30.6-21,57.6-23.8
					c6.4-0.7,24.3-2,63,11.5c41,14.2,46.6,24.4,94.2,45.4c33.2,14.6,50.3,21.9,73.1,22.9c34.7,1.5,62.7-11.6,78.8-21.1
					c-7.5,86.7-15,173.5-22.5,260.2c-9.5,6-25.6,14.6-47.1,18.5c-6.3,1.1-23.9,3.8-49.8-0.7c-26.9-4.7-43.5-13.9-73.5-29.2
					c-51.5-26.3-77.3-39.5-88.9-42.2c-22.4-5.3-57.1-6.9-105.7,15.4C628.8,254.9,635.7,169.3,642.6,83.8z"/>
			</defs>
			<clipPath id="SVGID_00000166652405791100661770000005195425356178758309_">
				<use xlink:href="#SVGID_00000006695888404124416470000017776244522283061385_"  style="overflow:visible;"/>
			</clipPath>
			<g style="clip-path:url(#SVGID_00000166652405791100661770000005195425356178758309_);">
				<g>
					<path class="st19" d="M645.3,68.4c121.6-69,243.1,152.3,364.7,47c-7.1,93.6-14.3,186.1-21.4,277.5
						c-121.6,69-243.1-152.3-364.7-47C631.1,252.4,638.2,159.9,645.3,68.4z"/>
					<path class="st20" d="M645.3,68.4c121.6-69,243.1,152.3,364.7,47c-5.9,78-11.9,155.2-17.8,231.7
						C870.6,422,749.1,200.4,627.5,299.3C633.4,221.6,639.4,144.7,645.3,68.4z"/>
					<path class="st21" d="M645.3,68.4c121.6-69,243.1,152.3,364.7,47c-4.8,62.4-9.5,124.3-14.3,185.7
						c-121.6,80.6-243.1-141.1-364.7-48.4C635.8,190.8,640.6,129.4,645.3,68.4z"/>
					<path class="st22" d="M645.3,68.4c121.6-69,243.1,152.3,364.7,47c-3.6,46.8-7.1,93.3-10.7,139.6
						c-121.6,86.6-243.1-135.2-364.7-48.6C638.2,160.2,641.8,114.2,645.3,68.4z"/>
					<path class="st23" d="M645.3,68.4c121.6-69,243.1,152.3,364.7,47c-2.4,31.2-4.8,62.3-7.1,93.2
						c-121.6,92.7-243.1-129.1-364.7-48.4C640.6,129.5,643,98.9,645.3,68.4z"/>
					<path class="st24" d="M645.3,68.4c121.6-69,243.1,152.3,364.7,47c-1.2,15.6-2.4,31.2-3.6,46.7
						c-121.6,98.9-243.1-122.7-364.7-47.9C643,99,644.2,83.7,645.3,68.4z"/>
					<path d="M645.3,68.4c32-18.1,63.9-16.2,95.9-5.5c32.2,54.6,64.3,118.1,96.5,179.2c-39.3,22.5-78.6,41.3-117.9,77.3
						c-32-6.3-63.9-1.1-95.9,26.5C631.1,252.4,638.2,159.9,645.3,68.4z"/>
					<path class="st25" d="M645.3,68.4c24.5-13.9,49-16,73.5-11.4c32.2,49.8,64.3,111.2,96.5,172.8c-39.3,21.9-78.6,44-117.9,87.3
						c-24.5-0.3-49,7.7-73.5,28.9C631.1,252.4,638.2,159.9,645.3,68.4z"/>
					<path class="st26" d="M645.3,68.4c17.1-9.7,34.2-13.7,51.3-13.6c32.2,43.8,64.3,101.9,96.5,162.8
						c-39.3,22.7-78.6,49.6-117.9,101.6c-17.1,3.6-34.2,11.9-51.3,26.7C631.1,252.4,638.2,159.9,645.3,68.4z"/>
					<path class="st27" d="M645.3,68.4c9.7-5.5,19.3-9.1,29-11.3c32.2,36.6,64.3,90.2,96.5,149.1c-39.3,25-78.6,58.2-117.9,120.5
						c-9.7,4.5-19.3,10.9-29,19.2C631.1,252.4,638.2,159.9,645.3,68.4z"/>
					<path class="st12" d="M645.3,68.4c2.2-1.3,4.5-2.5,6.7-3.5c32.2,28.2,64.3,76,96.5,131.8c-39.3,28.9-78.6,69.9-117.9,143.7
						c-2.2,1.7-4.5,3.6-6.7,5.5C631.1,252.4,638.2,159.9,645.3,68.4z"/>
					<path class="st28" d="M643.8,88.5c27.5,21.2,55,57.3,82.5,101.3c-33.6,29.2-67.2,70.1-100.7,135.8
						C631.6,245.7,637.7,166.7,643.8,88.5z"/>
					<path class="st29" d="M670.7,161.4c13.6-3.5,23.5,9.4,22.3,24.6c-1.3,15.4-13.3,28-26.8,32.3c-13.6,4.2-23.5-1.7-22.3-17.9
						C645.1,184.3,657.1,164.7,670.7,161.4z"/>
				</g>
			</g>
		</g>
		<path class="st3" d="M599.9,630.2h-25.2l48.4-551.8c0.2-1,0.6-2,1-3c0.4-0.9,1-1.7,1.7-2.4c0.8-0.8,1.7-1.5,2.8-1.9
			c1.6-0.6,3.3-0.9,5-0.9c3.1,0.1,6.2,0.7,9.2,1.8c1.3,0.6,2.4,1.5,3.3,2.5l15.5-8.6c4.1-2.1,8.4-3.9,12.8-5.4
			c4.6-1.6,9.3-2.8,14-3.7c2.9-0.6,8.9-1.5,17.4-1.7c17.4-0.3,31.8,3.1,43.2,5.8c2.6,0.6,11.1,2.7,21.9,6.4
			c8.7,3,17.8,6.7,26.9,10.9c4.9,2.3,12.1,6.2,20.5,10.8c14.2,7.8,31.8,17.5,50.5,25.9c9.3,4.2,18.8,8,28.5,11.3
			c9,3.1,18.2,5.3,27.6,6.6c5.3,0.7,10.7,1,16.1,1.1c14,0.1,27.9-2.6,40.9-8c4.6-1.9,9-4.2,13.2-6.7c3.6-2.2,6.4-4.2,8.5-5.6
			c1.1-0.9,2.4-1.7,3.7-2.3c0.7-0.2,1.4-0.3,2.1-0.3c1.3,0,2.6,0.3,3.7,1c1,0.6,1.7,1.6,2,2.7c0.7,2.7-23.3,262.6-23.5,265.3
			c-0.2,0.2-2.3,1.7-5.9,4c-5.2,3.2-10.6,6.1-16.2,8.7c-7.8,3.6-15.9,6.5-24.1,8.7c-9.7,2.6-19.7,3.9-29.8,4h0
			c-3.1-0.1-7.4-0.3-12.6-0.8c-15.4-1.5-26.7-4.8-29.7-5.7c-6.7-2-12.2-4.1-18.7-7c-12.9-5.6-26.3-12.9-40.6-20.7
			c-19.1-10.3-38.8-21-58.8-28.6c-18.6-7.1-32.7-11.7-42.9-14.2c-8.3-2-16.9-2.2-16.9-2.2c-2.9-0.2-5.9-0.4-9.6-0.4
			c-10.3,0.1-18.1,2-22.8,3.3c-6.8,1.9-13.4,4.3-19.8,7.3c-6.7,3-13.1,6.6-19.2,10.6L599.9,630.2z M690.9,314.9
			c4,0,7.9,0.2,11.9,0.6c8.9,1,17.8,2.8,26.4,5.5c8.8,2.6,17.4,5.7,25.8,9.3c16.4,6.9,30.8,14.5,39.4,19c3.2,1.7,5.7,3,7.2,3.7
			c4.3,2,9.5,4.8,15.5,8.1c21,11.4,52.7,28.7,87.7,32.7c3.9,0.4,7.9,0.7,11.9,0.7c8.9,0,17.8-1.1,26.5-3.3
			c7.1-1.8,13.9-4.2,20.5-7.3c4.6-2.1,9-4.5,13.3-7.3c3.1-2,4.7-3.3,4.7-3.3l21-244.8l-22.8,11.2c-3.1,1.3-6.2,2.4-9.5,3.1
			c-3.8,0.9-7.7,1.7-11.6,2.2c-5.3,0.7-10.6,1-15.9,1c-11.8-0.1-23.6-1.4-35.1-4c-7.3-1.6-16.8-4.7-28.3-9.3
			c-9.7-3.9-20.9-8.8-33.5-14.7c-22.7-10.7-45-22.4-58.3-29.4c-3.5-1.8-6.4-3.4-8.6-4.5c-10.4-5.4-24.6-9.7-34.7-12.5
			c-11.8-3.2-22.5-5.4-27.1-5.9c-1.8-0.2-3.7-0.3-5.5-0.3c-7.7,0.1-15.3,1.4-22.6,3.7c-7.2,2.2-14.1,4.9-20.9,8.2
			c-7.4,3.5-14.5,7.5-21.3,11.9L626,331.6l0,0c6-3.3,12.2-6.1,18.7-8.4c6.7-2.4,13.6-4.4,20.6-5.8
			C673.7,315.8,682.3,314.9,690.9,314.9L690.9,314.9z M590.7,748l-1.7,20.2l-24-2l1.7-16.2L590.7,748z"/>
	</g>
</g>
</svg>
