<svg xmlns="http://www.w3.org/2000/svg" width="1015.05" height="816.42"><defs><clipPath id="a"><path d="M0 0h1015.05v816.42H0z"/></clipPath></defs><g clip-path="url(#a)"><path d="M660.395 446.735c0 183.673-145.573 332.573-325.148 332.573S10.104 630.408 10.104 446.735s145.572-332.583 325.143-332.583 325.147 148.9 325.147 332.583" fill="#d33833" fill-rule="evenodd"/><path d="M23.353 529.104S-.186 182.283 319.388 172.37l-22.294-37.16-173.406 58.219-49.551 56.977-43.349 82.992-24.779 96.615 7.432 64.409" fill="#ef3d3a"/><path d="M112.55 219.857C55.5 278.232 20.2 358.819 20.2 447.977c0 89.139 35.3 169.741 92.349 228.1 57.075 58.36 135.733 94.371 222.693 94.371 86.962 0 165.625-36.012 222.7-94.371 57.044-58.36 92.353-138.962 92.353-228.1 0-89.157-35.309-169.749-92.353-228.12-57.07-58.348-135.733-94.36-222.7-94.367-86.96.007-165.618 36.019-222.693 94.367ZM98.11 690.195C37.482 628.191 0 542.5 0 447.977c0-94.538 37.482-180.221 98.11-242.23 60.614-62.015 144.52-100.461 237.133-100.45 92.614-.011 176.528 38.431 237.132 100.45 60.633 62.008 98.12 147.7 98.113 242.229.007 94.523-37.479 180.214-98.113 242.219-60.6 62.016-144.518 100.453-237.132 100.453-92.613 0-176.519-38.437-237.133-100.453" fill="#231f20"/><path d="m472.118 448.578-49.549 7.432-66.888 7.432-43.355 1.237-42.112-1.237-32.207-9.911-28.49-30.965-22.3-63.172-4.954-13.626-29.724-9.907-17.34-28.49-12.388-40.876 13.627-35.922 32.2-11.148 26.015 12.394 12.389 27.249 14.864-2.479 4.953-6.191-4.953-28.49-1.241-35.922 7.432-49.545-.29-28.3 22.586-36.108 39.638-28.49 69.368-29.734 76.8 11.148 66.887 48.308 30.969 49.545 19.817 35.922 4.947 89.187-14.864 76.8-27.249 68.119-26.012 35.922" fill="#f0d6b7" fill-rule="evenodd"/><path d="m430.001 662.863-177.131 7.432v29.728l14.864 104.047-7.432 8.673-123.863-42.114-8.673-14.864-12.387-139.969-28.485-84.23-6.2-19.817 99.09-68.125 30.969-12.389 27.249 33.444 23.534 21.058 27.253 8.669 12.385 3.716 14.868 64.407 11.148 13.626 28.491-9.91-19.821 38.4 107.764 50.784v6.615" fill="#335061" fill-rule="evenodd"/><path d="m136.439 230.573 32.2-11.148 26.014 12.392 12.389 27.249 14.864-2.479 3.716-14.87-7.432-28.487 7.432-68.129-6.2-37.16 22.3-26.012 48.308-38.4-13.626-18.58-68.126 33.444-28.49 22.3-16.1 34.681-24.775 33.443-7.432 39.638 4.957 42.113" fill="#6d6b6d" fill-rule="evenodd"/><path d="M187.221 114.141s18.58-45.829 92.9-68.125 3.716-16.1 3.716-16.1l-80.511 30.965-30.969 30.964-13.619 24.774 28.487-2.479M150.061 221.904s-26.008-86.709 73.082-99.094l-3.716-14.864-68.125 16.105-19.82 64.409 4.957 42.113 13.623-8.669" fill="#dcd9d8" fill-rule="evenodd"/><path d="m189.699 337.099 16.218-15.715s7.32.851 8.557 9.52 4.953 86.709 58.213 128.826c4.858 3.842-39.635-6.2-39.635-6.2l-39.639-61.93M417.619 313.566s2.887-37.546 13-34.659 10.111 13 10.111 13-24.555 15.886-23.11 21.66" fill="#f7e4cd" fill-rule="evenodd"/><path d="M520.421 176.075s-20.416 4.311-22.3 22.3 22.3 3.716 26.012 2.479M370.544 177.316s-27.253 3.716-27.253 21.055 30.97 16.105 39.639 8.673" fill="#f7e4cd"/><path d="M202.085 257.826s-47.071-28.49-52.024-1.237-16.105 47.07 7.432 75.557l-16.1-4.953-14.864-38.4-4.95-37.157 28.483-29.732 32.206 2.479 18.58 14.864 1.238 18.58M224.381 179.79s21.058-109 127.586-130.061c87.7-17.335 133.772 3.716 151.114 23.533 0 0-78.035-92.9-152.356-64.409S221.906 89.369 223.143 122.809c2.109 56.958 1.238 56.981 1.238 56.981M511.753 85.65s-35.919-1.237-37.16 30.969a24.622 24.622 0 0 0 2.475 9.907s28.494-32.206 45.833-14.864" fill="#f7e4cd" fill-rule="evenodd"/><path d="M354.461 129.881s-6.184-49.433-48.33-20.694c-27.25 18.58-24.771 44.592-19.818 49.545s3.607 14.935 7.378 8.086 2.528-29.144 16.156-35.335 35.962-13.114 44.614-1.6" fill="#f7e4cd" fill-rule="evenodd"/><path d="m238.007 464.68-116.432 52.023s48.308 191.993 23.533 251.449l-17.342-6.191-1.239-73.083-32.201-138.727-13.627-38.4 121.386-81.748 35.922 34.677M249.979 570.872l16.519 20.155v74.319h-19.821s-2.475-52.024-2.475-58.219 2.475-28.49 2.475-28.49" fill="#49728b" fill-rule="evenodd"/><path d="m441.149 664.105 45.829-1.238 11.148 113.958L365.142 795l-98.675 7.143-14.607-93.81V679.12" fill="#335061" fill-rule="evenodd"/><path d="m453.535 664.102 69.366-3.716s28.486-71.839 28.486-75.555 24.775-104.047 24.775-104.047l-55.74-58.214-11.15-9.911-29.728 29.728v115.2l-26.009 106.515" fill="#335061" fill-rule="evenodd"/><path d="m484.5 655.434-282.035 24.229-7.7-.284s6.606 11.39 23.834 13.6 163.4 8.426 231.425 6.782 40.668-13.358 40.668-13.358M485.744 438.671l86.7 64.409 2.479-29.728-65.65-60.693-23.529 26.012" fill="#49728b" fill-rule="evenodd"/><path d="m500.237 766.925 48.308-13.626 91.658-4.954 13.627-42.113-24.775-73.082-28.489-3.716-39.636 12.387-38.029 18.568-20.189-3.7-15.733 6.182" fill="#fff" fill-rule="evenodd"/><path d="M499.364 742.14s32.2-14.861 37.16-13.623l-13.623-68.127 16.1-6.191s11.148 64.408 11.148 71.84c0 0 69.362 3.716 75.557 3.716 0 0 14.864-28.49 11.148-58.217l13.631 39.636 1.237 22.3-19.821 29.723-22.3 4.954-37.16-1.238-12.385-16.1-43.354 6.191-13.626 4.957" fill="#dcd9d8" fill-rule="evenodd"/><path d="m450.688 654.209-27.25-69.366-28.49-40.876s6.191-17.342 14.864-17.342h28.49l27.249 9.91-2.475 45.83-12.388 71.844" fill="#fff"/><path d="M456.013 630.661s-34.685-66.882-34.685-76.794c0 0 6.191-14.864 14.864-11.148s27.253 13.623 27.253 13.623v-23.533l-42.117-8.673-28.487 3.716 48.308 113.957 9.907 1.241" fill="#dcd9d8" fill-rule="evenodd"/><path d="m304.529 467.173-34.315-3.731-32.207-9.911v11.148l15.738 17.354 49.546 22.3" fill="#fff"/><path d="M249.158 470.885s38.4 16.105 50.787 12.389l1.232 14.849-34.676-7.417-21.059-14.865 3.716-4.957" fill="#dcd9d8" fill-rule="evenodd"/><path d="M500.103 530.842c-21.018-.617-40.006-3.114-56.631-7.8 1.13-6.815-.985-13.5.713-18.413 4.634-3.337 12.4-3.285 19.4-4.069a33.761 33.761 0 0 0-21.556-2.434c-.164-4.73-2.285-7.662-3.571-11.363 11.817-4.218 39.713-31.868 55.405-22.712 7.477 4.355 10.654 29.23 11.233 41.325.483 10.033-.91 20.155-5 25.469" fill="#d33833" fill-rule="evenodd"/><path d="M500.103 530.842c-21.018-.617-40.006-3.114-56.631-7.8 1.13-6.815-.985-13.5.713-18.413 4.634-3.337 12.4-3.285 19.4-4.069a33.761 33.761 0 0 0-21.556-2.434c-.164-4.73-2.285-7.662-3.571-11.363 11.817-4.218 39.713-31.868 55.405-22.712 7.477 4.355 10.654 29.23 11.233 41.325.488 10.03-.905 20.152-4.993 25.466Z" fill="none" stroke="#d33833" stroke-width="2.5"/><path d="M399.597 496.484c-.056 1.59-.123 3.192-.186 4.8-6.562 4.311-17.157 4.259-24.358 7.882a63.293 63.293 0 0 1 26.205 6.626q-.24 6.009-.468 12.014c-12.029 8.235-23.017 20.5-37.179 28.219-6.7 3.652-30.2 13.049-37.321 11.389-4.031-.936-4.394-5.938-6.005-10.653-3.433-10.1-11.337-26.168-12.026-41.367-.878-19.2-2.816-51.37 17.872-47.416 16.69 3.185 36.1 10.873 49.023 17.933 7.9 4.318 12.463 9.654 24.444 10.576" fill="#d33833" fill-rule="evenodd"/><path d="M399.597 496.484c-.056 1.59-.123 3.192-.186 4.8-6.562 4.311-17.157 4.259-24.358 7.882a63.293 63.293 0 0 1 26.205 6.626q-.24 6.009-.468 12.014c-12.029 8.235-23.017 20.5-37.179 28.219-6.7 3.652-30.2 13.049-37.321 11.389-4.031-.936-4.394-5.938-6.005-10.653-3.433-10.1-11.337-26.168-12.026-41.367-.878-19.2-2.816-51.37 17.872-47.416 16.69 3.185 36.1 10.873 49.023 17.933 7.896 4.315 12.463 9.651 24.443 10.573Z" fill="none" stroke="#d33833" stroke-width="2.5"/><path d="M411.543 519.39c-1.836-10.457-3.958-13.441-3.136-22.563 27.888-18.595 33.124 31.939 3.136 22.563" fill="#d33833" fill-rule="evenodd"/><path d="M411.543 519.39c-1.836-10.457-3.958-13.441-3.136-22.563 27.889-18.596 33.124 31.938 3.136 22.563Z" fill="none" stroke="#d33833" stroke-width="2.5"/><path d="M451.925 527.866s-8.673-12.389-2.479-16.1 12.389 0 16.105-6.191 0-9.91 1.237-17.342 7.436-8.673 13.626-9.911 23.537-3.716 26.012 2.479l-7.432-22.3-14.864-4.953-47.07 27.249-2.479 13.626v27.249M321.867 568.742q-2.232-29-4.815-57.947c-2.622-28.836 6.927-23.8 31.922-23.8 3.818 0 23.507 4.552 24.915 7.432 6.756 13.8-11.3 10.732 7.781 21.136 16.105 8.781 44.554-5.332 38.048-24.852-3.642-4.34-18.974-1.353-24.47-4.2l-29.03-15.05c-12.312-6.388-40.767-15.7-53.893-6.774-33.259 22.619 2.1 79.135 13.964 102.731" fill="#ef3d3a" fill-rule="evenodd"/><path d="M354.462 129.882c-33.76-7.863-50.536 14.128-60.769 36.937-9.138-2.215-5.5-14.641-3.194-20.973 6.043-16.618 30.4-38.739 50.293-35.74 8.563 1.289 20.15 9.119 13.669 19.776M518.954 168.326c.531.022 1.07.041 1.6.063 7.629 15.849 14.232 32.637 23.857 46.628-6.447 15.016-48.82 28.3-48.166 1.341 9.164-4.006 24.982-.818 33.106-5.934-4.7-12.891-11.475-23.864-10.4-42.1M371.746 168.739c7.239 13.27 9.595 27.212 19.884 37.242 4.634 4.515 13.645 10.018 9.178 22.574-1.044 2.962-8.673 9.565-13.076 10.862-16.086 4.749-53.57.981-40.876-19.074 13.3.621 31.185 8.64 41.129-1.018-7.636-12.207-21.25-36.357-16.239-50.586M512.916 303.607c-24.221 15.559-51.228 32.478-90.915 28.554-8.48-7.372-11.713-23.779-3.474-34.614 4.287 7.371 1.593 20.931 13.542 22.971 22.519 3.853 48.728-13.775 64.925-19.936 10.044-16.934-.866-23.162-9.914-34.061-18.524-22.329-43.373-50.006-42.47-83.435 7.488-5.429 8.134 8.287 9.208 10.784 9.673 22.638 34.016 51.589 51.782 70.964 4.362 4.771 11.545 9.349 12.344 12.5 2.3 9.175-5.994 20.167-5.031 26.268M193.608 287.226c-7.592-4.333-9.4-23.418-18.312-23.961-12.737-.773-10.415 24.759-10.364 39.69-8.767-7.96-10.309-32.466-3.868-45.052-7.341-3.6-10.618 3.976-14.69 6.648 5.233-38.014 55.609-17.632 47.234 22.675M528.337 319.438c-11.274 21.46-27.223 45.093-60.307 45.781-.673-6.93-1.189-17.476.037-21.649 25.291-2.43 40.905-15.3 60.269-24.132M369.838 333.35c21.1 11.1 59.881 12.289 88.561 11.449 1.538 6.284 1.5 14.046 1.561 21.709-36.866 1.839-80.455-7.283-90.121-33.158M365.822 354.04c14.591 36.636 64.742 32.418 107.034 31.407-1.862 4.756-5.9 10.375-10.914 12.408-13.552 5.514-50.931 9.7-69.745-.294-11.932-6.343-19.6-20.676-26.136-29.078-3.157-4.058-18.878-14.422-.239-14.444" fill="#231f20" fill-rule="evenodd"/><path d="M511.154 556.125c-17.123 29.327-33.507 59.444-53.822 85.317 8.517-25.043 12.16-66.956 13.448-98.909 17.818-8.339 33.076 1.877 40.374 13.592" fill="#81b0c4" fill-rule="evenodd"/><path d="M603.295 661.53c-19.171 3.838-32.641 22.47-51.344 21.274 10.278-14.49 28.29-20.6 51.344-21.274M611.753 691.532c-15.625 1.65-33.979 4.18-49.827 2.88 7.5-11.46 36.409-7.506 49.827-2.877M617.168 717.398c-17.562.381-39.389.03-56.081-1.37 9.873-10.605 44.692-3.935 56.081 1.37" fill="#231f20" fill-rule="evenodd"/><path d="M449.8 463.141c-8.818 5.756-16.328 12.943-24.8 19.089-18.78.929-29.029-1.3-42.827-12.084.227-.866 1.613-.479 1.665-1.542 20.1 8.959 45.658-3.649 65.958-5.462" fill="#f0d6b7" fill-rule="evenodd"/><path d="M344.265 600.178c5.523-23.935 27.166-36.331 46.819-49.511 20.285 25.745 32.622 58.854 46.208 90.8-32.1-9.676-64.9-25.376-93.028-41.292" fill="#81b0c4" fill-rule="evenodd"/><path d="M517.256 667.82c-6.172-1.415-13.359-.055-19.256.059 2.772 27.61 9.5 58.077 11.865 87.059 9.279.289 14.236-4.088 21.868-5.56.409-25.44-2.222-60.489-14.477-81.559Zm99.9 91.275c19.342-4.7 31.5-28.386 26.094-52.714-3.63-16.35-10.1-47.138-17.015-57.6-5.113-7.737-18.977-17.866-30.047-10.776-18.008 11.531-49.731 14.878-62.863 28.836 6.585 21.924 8.629 52.038 11.345 79.818 22.5 1.4 50.177-6.191 68.887 1.867-13.062 4.231-30.01 4.264-41.3 10.431 9.223 4.455 30.817 3.555 44.9.136ZM437.292 641.47c-13.586-31.95-25.923-65.059-46.208-90.8-19.653 13.181-41.3 25.577-46.819 49.511 28.131 15.913 60.928 31.613 93.027 41.289Zm33.488-98.938c-1.286 31.953-4.931 73.866-13.448 98.909 20.315-25.868 36.7-55.989 53.822-85.317-7.298-11.715-22.556-21.93-40.374-13.592Zm-37.962-13.489c-7.7-.829-14.228 8.848-24.236 4.664-2.293 2.534-4.377 5.28-6.715 7.755 22.1 26.636 32.147 64.427 49.218 95.73 9.16-30.069 8.1-63.012 10.122-95.831-12.585.8-19.567-11.381-28.389-12.318Zm-24.409-32.217c-.821 9.123 1.3 12.107 3.136 22.563 29.987 9.376 24.751-41.158-3.136-22.563Zm-33.254-10.918c-12.922-7.06-32.333-14.749-49.023-17.933-20.688-3.958-18.75 28.219-17.872 47.416.689 15.2 8.593 31.27 12.026 41.367 1.611 4.715 1.974 9.717 6.005 10.653 7.124 1.661 30.625-7.737 37.321-11.389 14.162-7.722 25.15-19.985 37.179-28.219l.468-12.014a63.293 63.293 0 0 0-26.205-6.626c7.2-3.623 17.8-3.571 24.358-7.882.063-1.605.13-3.207.186-4.8-11.98-.922-16.547-6.258-24.444-10.576ZM251.733 463.49c-10.724 10.888 30.079 25.729 43.07 26.528-.072-6.889 3.926-13.385 3.121-18.327-15.43-2.709-35.708-.921-46.191-8.201Zm132.109 5.113c-.052 1.063-1.438.676-1.665 1.542 13.8 10.784 24.046 13.013 42.827 12.084 8.469-6.146 15.979-13.333 24.8-19.089-20.304 1.815-45.859 14.422-65.963 5.463Zm121.26 36.77c-.58-12.1-3.757-36.97-11.233-41.325-15.693-9.16-43.588 18.494-55.405 22.712 1.286 3.7 3.408 6.633 3.571 11.363a33.761 33.761 0 0 1 21.556 2.434c-7 .784-14.771.732-19.4 4.069-1.7 4.909.416 11.6-.714 18.413 16.625 4.69 35.614 7.187 56.631 7.8 4.083-5.311 5.476-15.433 4.993-25.466Zm-271.424-31.352c-3.368-2.4-26.15-32.043-29.271-30.813-41.224 16.257-79.77 44.369-114.215 70.956 32.841 70.47 46.1 156.807 48.441 240.021 36.267 16.962 68.281 41.146 116.429 45.251 0 0 71.12-2.354 118.2-7.683s123.475-22.341 123.475-22.341-3.639-40.863-6.625-66.246-5.319-35.287-5.319-35.287l-204.041 8.643s-24.345 2.6-36.679 3.158c0 0-29.6 1.922-41.608 0-.1-14.466 18.333-6.335 19.869-16.063 1.157-7.358-10.143-7.915-6.464-19.5 9.384 3.411 14.312 10.946 24.321 13.775 9.145-20.007-.128-55.406 1.19-72.128.25-3.14 1.568-17.394 8.6-14.893 6.224 2.214-.356 37.91.327 53.736.621 14.581-1.761 28.69 4.144 37.843 49.331-6.715 135.547-3.095 188.922-4.559-11.745-5.036-61.781-17.766-77.075-26.387-8.291-4.674-34.426-14.4-36.819-22.274-3.817-12.548 10.016-19.233 12.382-29.99-24.9 13.581-29.759-13.017-35.65-31.861-5.337-17.067-8.375-29.817-9.685-39.661-21.451-10.226-44.385-20.583-62.849-33.7Zm249.636-27.227c34.347-16.655 40.538 62.246 27.075 87.663 2.081 7.581 9.238 10.483 12.159 17.3-19.167 34.335-40.456 66.385-60.013 100.317 14.548-9.056 35.328-1.62 52.447-8.4 6.258-2.475 10.787-16.8 15.525-28.26 13.032-31.529 26.714-71.279 32.8-101.368 1.375-6.856 5.121-21.794 4.281-27.9-1.5-10.925-16.32-19.026-23.86-25.781-13.89-12.478-22.638-23.459-37.126-35.127-5.875 8.677-18.483 14.503-23.288 21.556ZM155.127 142.203c-16.366 18.008-12.94 51.752-10.959 75.752 29.582-18.61 68.847 1.472 68.477 33.124 14.124-.375 5.276-17.64 2.722-28.762-8.349-36.327 14.066-75.795 1.016-109.016-25.337 1.921-46.152 12.27-61.256 28.9Zm117.1-104.515c-37.051 10.5-84.536 37.424-99.761 70.708 11.789-1.713 19.973-7.659 31.6-8.394 4.4-.286 10.154 1.843 15.205.587 10.067-2.5 18.562-25.068 26.157-33.466 7.4-8.2 16.3-11.705 22.39-19.182 3.912-1.888 9.7-1.758 9.919-7.633-1.688-1.814-3.474-3.196-5.506-2.62Zm192.871 9.877c-38.457-21.7-103.55-38.018-144.457-17.625-33.008 16.458-77.626 43.689-92.838 78.2 14.211 33.3-4.209 63.811-5.385 97.619-.624 17.989 8.47 33.693 9.167 53.276-4.863 8.023-19.72 9.011-30 8.461-3.462-17.324-9.522-36.8-27.361-38.75-25.243-2.761-43.7 18.13-44.846 39.962-1.357 25.674 19.719 68.225 49.592 65.271 11.54-1.141 14.375-12.709 26.948-12.59 6.815 13.6-10.512 17.866-12.295 27.591-.464 2.512 1.437 12.33 2.543 16.934 5.426 22.418 17.522 51.433 29.428 68.5 15.111 21.649 44.8 24.912 76.736 27.034 5.7-12.289 26.719-11.278 40.411-8.064-16.41-6.5-31.666-22.255-44.309-36.2-14.523-16-29.234-33.165-29.977-54.079 27.444 38.074 50.118 71.324 100.022 88.072 37.761 12.664 81.862-5.8 110.876-26.179 12.04-8.469 19.226-21.906 27.784-34.206 32.021-46.06 46.963-111.8 43.677-175.524-1.352-26.279-1.293-52.47-10.111-70.15-9.216-18.487-40.385-35.027-58.631-18.3-3.382-17.978 15.172-29.1 36.966-22.627-15.54-20.055-31.85-44.153-53.937-56.617Zm71.648 592.947c30.051-14.939 86.2-40.211 105.039.055 6.953 14.842 15.109 39.932 18.71 55.254 5.087 21.615-5.514 67.047-27.732 74.3-19.624 6.406-42.522 6.015-66.159 1.267a36.045 36.045 0 0 1-8.049-10.557c-16.878-.655-32.682.906-46.015 7.844 1.263 12.482-15.094 17.056-15.094 17.056s-150.889 30.422-237.1 30.692c-38.709.121-56.506-7.978-69.189-12.335-14.982-5.145-21.334-9.311-38.555-17.276-10.821-5.017-25.791-7.78-29.834-16.394-3.919-8.339-2.315-24.322-3.288-39.42-2.471-38.56-4.59-75.753-14.771-115.235-4.572-17.717-12.541-33.351-18.1-50.422-5.138-15.822-14.116-35.376-16.458-51.154-3.472-23.385 18.548-24.685 32.628-34.819 21.766-15.67 38.851-24.336 62.424-38.479 6.982-4.188 28.037-14.79 30.432-19.672 4.761-9.68-8.172-23.329-11.63-30.917-5.47-12-8.322-22.192-9.106-34.031a65.653 65.653 0 0 1-43.82-28.163c-14.979-21.962-25.37-62.592-12.408-93.498 1.016-2.434 6.085-7.22 6.833-10.958 1.475-7.361-2.775-17.149-3.04-24.979-1.362-40.17 6.8-74.78 33.839-86.894 10.978-43.733 50.27-58.274 87.289-80.009 13.838-8.123 29.092-13.314 44.846-19.111 56.513-20.8 143.221-16.882 190.124 18.591 19.888 15.042 51.678 46.8 63.049 69.8 30.032 60.707 27.898 162.162 6.893 236.007-2.824 9.914-6.919 24.488-12.638 36.4-3.987 8.316-16.38 24.956-14.875 32.3 1.55 7.592 28.256 27.87 33.983 33.392 10.312 9.948 29.9 23.15 31.489 35.7 1.706 13.359-5.886 31.634-9.732 44.525-12.857 43.019-25.4 82.785-39.98 121.138" fill="#231f20" fill-rule="evenodd"/><path d="M336.262 342.721c1.63-2.17 10.593-5.466 23.135.572 0 0-14.864 2.479-13.627 27.26l-6.194-1.241s-6.4-22.47-3.314-26.592" fill="#f7e4cd" fill-rule="evenodd"/><path d="M444.865 555.724a6.813 6.813 0 0 1-6.815 6.811 6.812 6.812 0 0 1-6.811-6.811 6.816 6.816 0 0 1 6.811-6.815 6.817 6.817 0 0 1 6.815 6.815M451.676 587.31a6.813 6.813 0 0 1-6.815 6.811 6.812 6.812 0 0 1-6.811-6.811 6.816 6.816 0 0 1 6.811-6.815 6.817 6.817 0 0 1 6.815 6.815" fill="#1d1919" fill-rule="evenodd"/><path d="m986.459 334.951-3.1 41.106s-30.988 32.021-88.487 22.38-81.084-40.628-141.51-60.942-80.223-17.9-80.223-17.9l43.383-45.793Z" fill="#9f248f"/><path d="m989.431 292.547-3.776 44.979s-31.853 30.532-98.718 16.141c-36.976-7.958-80.526-36.154-115.894-53.6a230.172 230.172 0 0 0-53.142-18.7l48.547-32.709Z" fill="#0054a6"/><path d="m993.659 248.039-4.809 46.832s-33.326 27.5-89.064 16.952c-31.882-6.032-64.3-23.046-91.568-38.261-20.059-11.191-51.639-25.852-51.639-25.852l54.192-20.828Z" fill="#58b947"/><path d="m998.61 204.722-5.674 46.769s-34.1 23.09-79.472 17.526-101.555-40.006-101.555-40.006l-40.882-63.946Z" fill="#fff000"/><path d="m733.352 103.388 267.636 58.73-4.712 45.634s-32.554 26.289-88.53 15.713-104.922-48.488-133.852-57.656-40.542-62.421-40.542-62.421Z" fill="#f57f29"/><path d="m1004.338 125.348-4.048 38.8s-40.636 23.551-78.875 18.383c-24.894-3.367-76.634-27.9-129.918-54.538s-55.939-21.229-55.939-21.229l-33.393-41.229s12.1-7.562 50.033 5.253 96.141 45.29 96.141 45.29 48.446 24.134 85.767 26.75 70.232-17.48 70.232-17.48Z" fill="#ee3124"/><path d="M702.286 65.416s18.939 17.083 46.431 58.034 64.789 106.529 64.789 106.529-43.007 18.987-76.229 40.315a368.643 368.643 0 0 0-56.657 45l-56.659 19.659 21.329-250.1 38.358-16.63Z"/><path d="M674.903 72.987s24.135 16.3 51.873 51.874 59.083 90.426 59.083 90.426-43.528 21.94-76.792 48.269a349.282 349.282 0 0 0-56.262 57.045l-28.366 13.634 20.688-249.181Z" fill="#603917"/><path d="M643.342 86.416s27.094 9.412 55.067 37.974 59.24 78.516 59.24 78.516-37.338 21.118-70.523 53.441-62.217 75.851-62.217 75.851Z" fill="#7cc0ea"/><path d="M643.307 116.1s21.545 7.487 43.6 27.1 44.618 51.341 44.618 51.341a446.683 446.683 0 0 0-53.582 47.266c-26.078 27.3-50.73 61.935-50.73 61.935Z" fill="#f498c0"/><path d="M641.677 145.641a106.749 106.749 0 0 1 29.541 15.484c15.28 11.256 31.579 29.541 31.579 29.541a447.6 447.6 0 0 0-35.653 36.672c-18.234 21.086-37.283 47.673-37.283 47.673Z" fill="#fff"/><path d="M599.905 630.158h-25.16l48.373-551.8a11.965 11.965 0 0 1 1.049-2.968 10.18 10.18 0 0 1 1.69-2.425 7.889 7.889 0 0 1 2.8-1.912 13.436 13.436 0 0 1 4.988-.895 29.72 29.72 0 0 1 9.175 1.833 10.885 10.885 0 0 1 3.3 2.531l15.488-8.59a86.4 86.4 0 0 1 12.837-5.386 105.7 105.7 0 0 1 14.048-3.7 93.13 93.13 0 0 1 17.352-1.688 81.5 81.5 0 0 1 10.675.694c1.116.148 2.486.29 4.072.453h.005a201.682 201.682 0 0 1 28.416 4.7c7.1 1.7 14.452 3.869 21.857 6.438 8.73 3.028 17.783 6.7 26.906 10.919 4.877 2.254 12.1 6.223 20.464 10.818 14.158 7.778 31.777 17.458 50.548 25.926a295.376 295.376 0 0 0 28.471 11.252 151.48 151.48 0 0 0 27.568 6.614 125.486 125.486 0 0 0 16.057 1.059A104.716 104.716 0 0 0 981.773 126a102 102 0 0 0 13.206-6.742c3.611-2.188 6.428-4.187 8.485-5.647a19.083 19.083 0 0 1 3.652-2.324 8.284 8.284 0 0 1 2.142-.287 6.833 6.833 0 0 1 3.731 1.042 4.646 4.646 0 0 1 2.047 2.688c.725 2.708-23.28 262.634-23.522 265.259-.226.169-2.313 1.716-5.917 3.962a150.853 150.853 0 0 1-16.2 8.722 144.878 144.878 0 0 1-24.147 8.723 118.1 118.1 0 0 1-29.754 3.966h-.008a100.456 100.456 0 0 1-25.085-3.139 79.131 79.131 0 0 1-17.293-3.3 157.943 157.943 0 0 1-18.669-6.99c-12.857-5.647-26.332-12.939-40.6-20.659-19.06-10.314-38.768-20.979-58.754-28.621-18.6-7.112-32.651-11.747-42.949-14.17a69.206 69.206 0 0 0-16.883-2.2c-1.32-.021-2.566-.042-3.865-.157a64.73 64.73 0 0 0-5.71-.249 86.489 86.489 0 0 0-22.773 3.321 130.367 130.367 0 0 0-19.777 7.305 140.355 140.355 0 0 0-19.224 10.626l-24.001 283.029Zm90.953-315.3a117.076 117.076 0 0 1 11.889.6 147.043 147.043 0 0 1 26.378 5.476 256.434 256.434 0 0 1 25.8 9.3c16.433 6.862 30.82 14.478 39.42 19.024 3.2 1.694 5.727 3.031 7.22 3.725 4.26 1.978 9.474 4.822 15.511 8.116 20.967 11.439 52.652 28.725 87.725 32.682a106.3 106.3 0 0 0 11.867.668 108.811 108.811 0 0 0 26.454-3.3 116.218 116.218 0 0 0 20.521-7.271 110.289 110.289 0 0 0 13.276-7.271c3.055-1.972 4.7-3.292 4.717-3.305l21-244.8-22.77 11.23a54.386 54.386 0 0 1-9.47 3.136 99.674 99.674 0 0 1-11.588 2.156 126.133 126.133 0 0 1-15.935.98 163.934 163.934 0 0 1-35.128-4.031c-7.327-1.615-16.842-4.744-28.28-9.3-9.669-3.852-20.934-8.812-33.481-14.743-22.7-10.733-44.977-22.441-58.284-29.437-3.453-1.815-6.434-3.382-8.625-4.513-10.375-5.353-24.573-9.74-34.656-12.478-11.8-3.2-22.539-5.384-27.055-5.883a50.274 50.274 0 0 0-5.494-.293 79.846 79.846 0 0 0-22.631 3.732 146.842 146.842 0 0 0-20.894 8.211 181.993 181.993 0 0 0-21.3 11.942l-21.078 242.431.007-.006a120.548 120.548 0 0 1 18.683-8.386 146.013 146.013 0 0 1 20.587-5.77 129.96 129.96 0 0 1 25.615-2.622ZM590.743 748.014l-1.687 20.249-23.962-2.025 1.688-16.2Z" fill="#231f20"/></g></svg>