<svg id="_Jenkins" data-name="+Jenkins" xmlns="http://www.w3.org/2000/svg" xmlns:xlink="http://www.w3.org/1999/xlink" viewBox="0 0 685.96 1019.57"><defs><style>.cls-1,.cls-15,.cls-17,.cls-18{fill:none;}.cls-2{fill:#d33833;}.cls-3{fill:#ef3d3a;}.cls-4{fill:#231f20;}.cls-5{fill:#f0d6b7;}.cls-6{fill:#fff;}.cls-7{fill:#6d6b6d;}.cls-8{fill:#dcd9d8;}.cls-9{fill:#f7e4cd;}.cls-10{fill:#1a1718;}.cls-11{fill:#282828;}.cls-12{fill:#1d1919;}.cls-13{fill:#c28556;}.cls-14{fill:#ce9d78;}.cls-14,.cls-15,.cls-18{stroke:#231f20;}.cls-14,.cls-15,.cls-17,.cls-18{stroke-miterlimit:10;}.cls-14,.cls-15{stroke-width:8px;}.cls-16{clip-path:url(#clip-path);}.cls-17{stroke:#d33833;}.cls-17,.cls-18{stroke-width:13px;}</style><clipPath id="clip-path" transform="translate(-49.97 -18.48)"><path class="cls-1" d="M491.26,26.61l-1.18.28L402.63,47.83,315.19,68.77C299,72.65,283.1,77.28,266.78,80.43c-2,23.19-4.36,46.32-6,69.55,41.34-10.84,85.86-5.14,127.07,2.48a312.35,312.35,0,0,1,115.82,47.29,244.94,244.94,0,0,1,46.32-66.63c-2.41-21.91-5.71-40.67-12.65-61.6a134.22,134.22,0,0,0-10.81-24.1,99.48,99.48,0,0,0-8.82-13.51c-3.29-4.07-6.23-7.79-11.61-8.65C501.12,24.48,496.08,25.48,491.26,26.61Z"/></clipPath></defs><title>Jenkins_Ice_Cream_Logo</title><g id="g10"><g id="g3393"><path id="path22" class="cls-2" d="M725.61,546.62c0,187.92-148.94,340.26-332.65,340.26S60.3,734.54,60.3,546.62,209.24,206.36,393,206.36,725.61,358.7,725.61,546.62" transform="translate(-49.97 -18.48)"/><path id="path24" class="cls-3" d="M73.86,630.89s-24.08-354.83,302.87-365l-22.81-38L176.51,287.47l-50.69,58.29L81.46,430.67,56.12,529.51l7.6,65.9" transform="translate(-49.97 -18.48)"/><path id="path26" class="cls-4" d="M165.12,314.51c-58.37,59.71-94.48,142.17-94.48,233.38h0c0,91.2,36.11,173.66,94.48,233.37h0C223.51,841,304,877.81,393,877.81h0c89,0,169.45-36.85,227.84-96.55h0c58.36-59.71,94.48-142.17,94.48-233.37h0c0-91.21-36.12-173.67-94.48-233.38h0C562.4,254.81,481.92,218,393,218h0c-89,0-169.44,36.85-227.83,96.55ZM150.34,795.7C88.32,732.27,50,644.6,50,547.89h0c0-96.72,38.35-184.38,100.37-247.82h0C212.36,236.62,298.2,197.29,393,197.3h0c94.75,0,180.6,39.32,242.61,102.77h0c62,63.44,100.38,151.11,100.37,247.82h0c0,96.71-38.34,184.38-100.37,247.81h0C573.55,859.15,487.7,898.47,393,898.47h0c-94.75,0-180.59-39.32-242.61-102.77h0" transform="translate(-49.97 -18.48)"/><path id="path28" class="cls-5" d="M533,548.51l-50.7,7.6-68.43,7.6L369.5,565l-43.08-1.27-32.95-10.13L264.32,521.9l-22.81-64.63-5.07-13.95L206,433.19,188.29,404l-12.67-41.82,13.94-36.75,32.94-11.41,26.62,12.68,12.67,27.88L277,352.08l5.06-6.33L277,316.6l-1.27-36.75,7.6-50.69-.3-28.95,23.11-37,40.55-29.14,71-30.42,78.57,11.41,68.43,49.42,31.68,50.69L616.62,252l5.07,91.24-15.21,78.57-27.88,69.7L552,528.23" transform="translate(-49.97 -18.48)"/><path class="cls-6" d="M639.43,581.46S614.08,684.1,614.08,687.9s-29.14,77.31-29.14,77.31l-28.35,1.52-32.34,1.73c-14.48.78-28.91-1-43.41-.34l-21.08.89-62.05,2.6-61.29,2.57-27.75,1.16v30.42L323.88,912.2l-7.6,8.88L189.55,878l-8.87-15.21L168,719.58l-29.14-86.17-6.34-20.27,101.37-69.7,31.69-12.68L293.47,565l24.07,21.54,27.88,8.87,12.68,3.8,15.2,65.9L384.71,679l24.6-8.56c6.8-2.36,12.82-8.13,18.72-12.28l23.75-16.7c6.14-4.33,12.34-8.68,19.21-11.72s14.54-4.71,21.94-3.42c4.89.86,9.45,3,14.1,4.68a95.57,95.57,0,0,0,33.55,5.91V542.17L571,511.76,582.4,521.9Z" transform="translate(-49.97 -18.48)"/><path id="path32" class="cls-7" d="M189.56,325.47l32.94-11.41,26.62,12.68,12.67,27.88L277,352.08l3.8-15.2-7.6-29.15,7.6-69.7-6.34-38,22.81-26.61,49.42-39.28-13.94-19-69.69,34.21-29.15,22.81-16.48,35.49-25.34,34.21-7.6,40.55,5.07,43.09" transform="translate(-49.97 -18.48)"/><path id="path34" class="cls-8" d="M241.51,206.35s19-46.89,95.05-69.7,3.8-16.47,3.8-16.47L258,151.86,226.3,183.54l-13.93,25.35,29.14-2.54" transform="translate(-49.97 -18.48)"/><path id="path36" class="cls-8" d="M203.49,316.6s-26.61-88.71,74.77-101.38L274.46,200l-69.7,16.48-20.27,65.89,5.07,43.09,13.93-8.87" transform="translate(-49.97 -18.48)"/><path id="path38" class="cls-9" d="M244.05,434.45l16.59-16.07s7.49.87,8.75,9.74,5.07,88.71,59.56,131.8c5,3.93-40.55-6.34-40.55-6.34l-40.55-63.36" transform="translate(-49.97 -18.48)"/><path id="path40" class="cls-9" d="M477.23,410.38s2.95-38.41,13.3-35.46,10.34,13.3,10.34,13.3-25.12,16.25-23.64,22.16" transform="translate(-49.97 -18.48)"/><path id="path42" class="cls-9" d="M582.4,269.71s-20.88,4.41-22.81,22.81,22.81,3.81,26.62,2.54" transform="translate(-49.97 -18.48)"/><path id="path44" class="cls-9" d="M429.07,271s-27.88,3.81-27.88,21.54,31.68,16.48,40.55,8.88" transform="translate(-49.97 -18.48)"/><path id="path46" class="cls-9" d="M256.72,353.35s-48.16-29.15-53.23-1.26-16.47,48.15,7.61,77.3l-16.48-5.07L179.42,385l-5.07-38,29.14-30.42,32.95,2.54,19,15.2,1.27,19" transform="translate(-49.97 -18.48)"/><path id="path48" class="cls-9" d="M279.53,273.52S301.07,162,410.06,140.45c89.72-17.73,136.86,3.81,154.6,24.08,0,0-79.84-95-155.87-65.9S277,181,278.26,215.22c2.16,58.27,1.27,58.3,1.27,58.3" transform="translate(-49.97 -18.48)"/><path id="path50" class="cls-9" d="M573.53,177.2s-36.74-1.26-38,31.69A25.08,25.08,0,0,0,538.05,219s29.15-33,46.89-15.21" transform="translate(-49.97 -18.48)"/><path id="path52" class="cls-9" d="M412.61,222.45s-6.32-50.57-49.44-21.17c-27.88,19-25.34,45.62-20.28,50.69s3.69,15.28,7.55,8.27S353,230.43,367,224.09s36.79-13.41,45.64-1.64" transform="translate(-49.97 -18.48)"/><path id="path54" class="cls-8" d="M293.47,565,174.35,618.2s49.42,196.43,24.08,257.26l-17.75-6.34-1.26-74.77L146.47,652.42l-13.94-39.28L256.72,529.5,293.47,565" transform="translate(-49.97 -18.48)"/><path id="path56" class="cls-8" d="M305.72,673.62l16.9,20.62v76H302.34s-2.53-53.23-2.53-59.56,2.53-29.15,2.53-29.15" transform="translate(-49.97 -18.48)"/><path id="path58" class="cls-8" d="M306.14,781.68l-57,2.54,16.47,11.4L306.14,802" transform="translate(-49.97 -18.48)"/><path id="path66" class="cls-8" d="M546.92,538.37l88.71,65.9,2.53-30.42L571,511.76l-24.08,26.61" transform="translate(-49.97 -18.48)"/><g id="Apron"><path class="cls-4" d="M616.51,660c-4.21-25.39-8.1-51.42-15.74-75.94-8.23-26.42-19.38-51.81-30.63-77,1.42,3.19-20.87,28-23.48,32,1.61-2.42,12.67,2.65,14.37,3.68,5.35,3.22,6.81,6.48,8.91,11.79a352.91,352.91,0,0,1,12.77,39.11A362.33,362.33,0,0,1,595,674.46a17,17,0,0,1-.64,6.43c-.87,2.38-2.73,4.24-4.56,6a186.07,186.07,0,0,1-60.93,38.59c-22.63,8.78-47.56,16.67-71.61,20.11-16,2.3-32.17,2.73-48.29,4-13.55,0-26.72,1.88-40.37,1.39a4.82,4.82,0,0,1-5.69-4.35c-13.17-45.52-32.8-89.28-54.73-131.14-15.74-30-36.78-61.24-62.75-83.44-9.38,4.33-19.07,8.16-28.17,13a22.14,22.14,0,0,0,1.94,2.08l14.49,13.8c9.83,9.35,20.4,19.87,28.43,30.79,55.95,76,80,174.74,65.31,268l190.79,17.54c7.68.7,16.3,1.13,22.13-3.92,3.52-3,5.33-7.54,7-11.86,20.57-52.51,41.93-104.27,64.19-156,2.41-5.61,4.84-11.28,6-17.27C619.34,678.85,618.05,669.29,616.51,660Z" transform="translate(-49.97 -18.48)"/><path class="cls-4" d="M545.94,543.46c5.31,3.2,6.76,6.44,8.84,11.71A352.43,352.43,0,0,1,567.46,594a359.93,359.93,0,0,1,12.15,80.3,16.69,16.69,0,0,1-.63,6.38,11.44,11.44,0,0,1-1.85,3.14,6.22,6.22,0,0,1,3.36-.09,83.13,83.13,0,0,0,21.87,2.12c1.26-8.57.06-17.35-1.36-25.93-4.17-25.19-8-51-15.62-75.37-8.17-26.22-19.24-51.42-30.41-76.47,1.42,3.17-20.7,27.85-23.29,31.75C533.27,537.41,544.25,542.44,545.94,543.46Z" transform="translate(-49.97 -18.48)"/><path class="cls-4" d="M586.42,668.43a8.46,8.46,0,0,1,.42-1.85,184.72,184.72,0,0,1-59.33,37.25c-22.46,8.72-47.21,16.55-71.08,20-15.91,2.28-31.93,2.71-47.93,3.94-13.45,0-26.52,1.86-40.07,1.38H368c3.49,37.3-6.59,74-16.19,110.16l165.1,15.17c7.62.7,16.18,1.12,22-3.88,3.49-3,5.29-7.49,7-11.78,16.54-42.22,33.6-83.95,51.23-125.59C591.53,698.76,584.76,683.67,586.42,668.43Z" transform="translate(-49.97 -18.48)"/><path class="cls-4" d="M378.6,740.19a6.45,6.45,0,0,1,4.15-4.37c-12.9-40.57-30.7-79.7-50.39-117.27-15.7-30-36.71-61.1-62.66-83.15a12.62,12.62,0,0,0-5.21-3.1c-2.78-.61-5.59.63-8.16,1.83-9,4.22-23.06,6.34-12.29,16.6l14.39,13.69c9.75,9.29,20.24,19.72,28.22,30.56,35,47.51,57.37,104,65.53,162.37C361,751.66,370,746.17,378.6,740.19Z" transform="translate(-49.97 -18.48)"/><path class="cls-6" d="M564.14,513.62c1.33,3-19.47,26.18-21.91,29.86,1.5-2.26,11.82,2.47,13.41,3.43,5,3,6.36,6.05,8.32,11a331.8,331.8,0,0,1,11.92,36.51,337.76,337.76,0,0,1,11.43,75.51,15.72,15.72,0,0,1-.6,6,15.55,15.55,0,0,1-4.26,5.6,173.45,173.45,0,0,1-56.86,36c-21.12,8.2-44.39,15.56-66.84,18.77-15,2.14-30,2.55-45.07,3.71-12.65,0-24.95,1.75-37.69,1.3a4.5,4.5,0,0,1-5.3-4.07c-12.3-42.48-30.62-83.33-51.09-122.39-14.77-28.18-34.52-57.47-58.93-78.2a11.73,11.73,0,0,0-4.9-2.91c-2.61-.57-5.25.59-7.67,1.72-8.49,4-21.68,6-11.55,15.61L250.07,564c9.18,8.74,19,18.55,26.54,28.74,52.22,70.95,74.68,163.1,61,250.11l178.07,16.37c7.17.66,15.22,1.05,20.66-3.65,3.29-2.84,5-7,6.56-11.08,19.2-49,39.14-97.32,59.91-145.65,2.25-5.24,4.52-10.52,5.61-16.12,1.69-8.64.49-17.57-1-26.26-3.93-23.69-7.56-48-14.69-70.88C585.06,560.87,574.64,537.18,564.14,513.62Z" transform="translate(-49.97 -18.48)"/><path class="cls-2" d="M361.1,845c4.31-9.81,6.37-21,8.22-31.43a256.78,256.78,0,0,0,4.26-38.11A276,276,0,0,0,372,740.7c0-.25-.06-.51-.08-.76a7.11,7.11,0,0,1-1.23-2.69c-12.3-42.48-30.62-83.33-51.09-122.39-14.77-28.18-34.52-57.47-58.93-78.2a11.73,11.73,0,0,0-4.9-2.91c-2.61-.57-5.25.59-7.67,1.72-8.49,4-21.68,6-11.55,15.61L250.07,564c9.18,8.74,19,18.55,26.54,28.74,52.22,70.95,74.68,163.1,61,250.11Z" transform="translate(-49.97 -18.48)"/><path class="cls-2" d="M422,739.45c-2.76.17-5.51.36-8.27.57-5.95,0-11.82.38-17.7.74,2.25,18.12,3.37,36.4,2,54.63a170.93,170.93,0,0,1-3.17,23.25,120.1,120.1,0,0,1-5.45,28.92L416.09,850a191.33,191.33,0,0,0,9.44-55.41A325.32,325.32,0,0,0,422,739.45Z" transform="translate(-49.97 -18.48)"/><path class="cls-2" d="M451,805.51c-.39,15.77-3.81,31.44-7.81,47l29.12,2.67c3.74-21.72,7.62-43.78,8.48-65.79a329.38,329.38,0,0,0-3.14-56.66c-6.31,1.47-12.61,2.69-18.85,3.58-3.47.5-6.94.89-10.42,1.23,1.11,18.72,4,37.35,3.54,56.14A112.54,112.54,0,0,1,451,805.51Z" transform="translate(-49.97 -18.48)"/><path class="cls-2" d="M528.63,858.33c4.63-12.36,5.71-25.7,7.2-38.71a259.66,259.66,0,0,0,1.1-39c-.5-13.44-1.58-26.88-2.42-40.31-.54-8.52-1.2-17-2.28-25.48-2.19,1-4.4,1.89-6.64,2.75-7.41,2.88-15.09,5.63-22.91,8.16,2.69,22,3.53,44.06,3.7,66.2.1,13.15.37,26.38-.11,39.53-.33,8.92-1.07,17.82-1.51,26.74l10.88,1c4.19.38,8.67.67,12.76-.09A5.81,5.81,0,0,1,528.63,858.33Z" transform="translate(-49.97 -18.48)"/><path class="cls-2" d="M574.71,743.08c-.53-8.42-1.34-16.8-1.66-25.24-.34-9.25-.37-18.51-.31-27.78A173.41,173.41,0,0,1,551.43,705c.53,6.89,1.37,13.75,2.05,20.63,1,10.21,1.09,20.45,1.33,30.7.25,10.76.59,21.53,1.47,32.27.48,5.91,1.24,11.87,1.74,17.83q9.22-22.93,18.65-45.75A145.39,145.39,0,0,1,574.71,743.08Z" transform="translate(-49.97 -18.48)"/><path class="cls-2" d="M607.43,656.41c-3.93-23.69-7.56-48-14.69-70.88-7.68-24.66-18.1-48.35-28.6-71.91,1.33,3-19.47,26.18-21.91,29.86,1.5-2.26,11.82,2.47,13.41,3.43,5,3,6.36,6.05,8.32,11a331.8,331.8,0,0,1,11.92,36.51,338.6,338.6,0,0,1,11.29,72.28c2.39,13.88,2.7,28.14,2.6,42.17,0,7.06-.23,14.12-.31,21.17q6.6-15.63,13.31-31.25c2.25-5.24,4.52-10.52,5.61-16.12C610.07,674,608.87,665.1,607.43,656.41Z" transform="translate(-49.97 -18.48)"/></g><path id="path60" class="cls-6" d="M501.3,769l46.89-1.27,11.4,116.59-48.15,6.33L501.3,769" transform="translate(-49.97 -18.48)"/><path id="path64" class="cls-8" d="M545.65,760.14,501.3,769l6.33,35.48C524.11,812.1,552,791.82,552,791.82" transform="translate(-49.97 -18.48)"/><path id="path68" class="cls-6" d="M350.12,1018.67,323.88,912.21l-13.05-78.56-2.15-58.31L427.42,769H501.3l-6.72,133.07L506,1004.73l-1.27,19-96.31,7.6-58.29-12.67" transform="translate(-49.97 -18.48)"/><path id="path70" class="cls-8" d="M484.82,767.74s-6.33,131.8,12.68,225.57c0,0-38,24.08-93.78,30.42l106.45-3.81,12.67-7.6L507.63,804.49l-3.8-44.35" transform="translate(-49.97 -18.48)"/><path class="cls-6" d="M597.54,847.48c-.46-10.42-2.15-20.71-3.64-31-1.38-9.55-2.33-19.14-4.29-28.6-1.68-8.09-5.06-15.54-7.88-23.24l-17.45-3.2-16.09,6.32L561.75,874.2,597.9,864C597.87,858.5,597.78,853,597.54,847.48Z" transform="translate(-49.97 -18.48)"/><path class="cls-8" d="M503.81,631a4.14,4.14,0,0,1-.19-.49L481,625.81l-19.21,2.51c2.87,6.77,5.89,13.35,8.39,20.3,1.9,5.29,4.11,10.48,6.48,15.59,1.28-6.35,3.39-12.39,8.36-16.75a11.89,11.89,0,0,1,6.48-3,6.92,6.92,0,0,1,4.09.13c5.4.94,11,4.57,16.13,7.72l1.88,1C510.43,645.8,507.5,638.21,503.81,631Z" transform="translate(-49.97 -18.48)"/><path id="path80" class="cls-6" d="M361.53,567.53l-35.11-3.82-32.95-10.13V565l16.1,17.75,50.69,22.82" transform="translate(-49.97 -18.48)"/><path id="path82" class="cls-8" d="M304.88,571.33s39.29,16.48,52,12.67l1.26,15.2-35.48-7.59L301.08,576.4l3.8-5.07" transform="translate(-49.97 -18.48)"/><path id="path84" class="cls-10" d="M564.29,634.84c-22.56-.65-42.94-3.28-60.78-8.23,1.21-7.19-1.06-14.24.76-19.42,5-3.52,13.31-3.46,20.83-4.29A36.85,36.85,0,0,0,502,600.33c-.17-5-2.45-8.08-3.83-12,12.68-4.45,42.63-33.61,59.47-24,8,4.6,11.44,30.83,12.06,43.59.52,10.58-1,21.26-5.37,26.86" transform="translate(-49.97 -18.48)"/><path id="path88" class="cls-10" d="M461.47,598.61c-.06,1.67-.13,3.36-.2,5-7.14,4.55-18.67,4.5-26.51,8.32a70.51,70.51,0,0,1,28.52,7l-.51,12.67c-13.09,8.68-25,21.62-40.47,29.76-7.28,3.85-32.86,13.77-40.62,12-4.38-1-4.78-6.26-6.53-11.23-3.74-10.65-12.34-27.6-13.09-43.63-1-20.25-3.07-54.18,19.45-50,18.17,3.35,39.29,11.46,53.36,18.91,8.59,4.55,13.56,10.18,26.6,11.16" transform="translate(-49.97 -18.48)"/><path id="path92" class="cls-11" d="M469.12,623.84c-2.31-13.15-5-16.9-3.95-28.38,35.08-23.38,41.66,40.18,3.95,28.38" transform="translate(-49.97 -18.48)"/><path id="path96" class="cls-11" d="M512.33,629.63s-8.88-12.68-2.54-16.48,12.68,0,16.48-6.34,0-10.13,1.26-17.74,7.61-8.87,13.94-10.14,24.08-3.8,26.62,2.54l-7.61-22.81-15.2-5.07-48.16,27.88-2.54,13.94v27.88" transform="translate(-49.97 -18.48)"/><path id="path98" class="cls-11" d="M379.27,671.44q-2.29-29.66-4.93-59.28c-2.68-29.5,7.09-24.35,32.66-24.35,3.91,0,24.05,4.65,25.49,7.6,6.91,14.12-11.56,11,8,21.62,16.48,9,45.58-5.45,38.93-25.42-3.73-4.44-19.42-1.39-25-4.3l-29.7-15.4c-12.59-6.53-41.71-16.06-55.14-6.93-34,23.14,2.15,81,14.29,105.1" transform="translate(-49.97 -18.48)"/><path id="path100" class="cls-4" d="M412.61,222.45c-34.54-8-51.7,14.46-62.17,37.79-9.35-2.26-5.63-15-3.27-21.45,6.19-17,31.1-39.64,51.46-36.57,8.76,1.32,20.61,9.33,14,20.23" transform="translate(-49.97 -18.48)"/><path id="path102" class="cls-4" d="M580.9,261.79l1.64.06c7.81,16.22,14.56,33.39,24.41,47.71-6.6,15.36-50,28.95-49.28,1.37,9.37-4.1,25.56-.84,33.87-6.07-4.81-13.19-11.74-24.42-10.64-43.07" transform="translate(-49.97 -18.48)"/><path id="path104" class="cls-4" d="M430.3,262.21c7.4,13.58,9.81,27.84,20.34,38.1,4.74,4.62,14,10.25,9.39,23.1-1.07,3-8.87,9.78-13.38,11.11-16.46,4.86-54.81,1-41.82-19.52,13.61.64,31.91,8.84,42.08-1-7.81-12.49-21.74-37.19-16.61-51.75" transform="translate(-49.97 -18.48)"/><path id="path106" class="cls-4" d="M574.72,400.19c-24.78,15.92-52.41,33.23-93,29.21-8.67-7.54-12-24.33-3.55-35.41,4.38,7.54,1.63,21.41,13.85,23.5,23,3.94,49.86-14.09,66.43-20.39,10.27-17.33-.89-23.7-10.15-34.85-18.95-22.85-44.37-51.16-43.45-85.36,7.66-5.56,8.33,8.48,9.43,11,9.89,23.16,34.8,52.78,53,72.6,4.47,4.88,11.81,9.57,12.63,12.8,2.36,9.38-6.13,20.63-5.15,26.87" transform="translate(-49.97 -18.48)"/><path id="path108" class="cls-4" d="M248.05,383.43c-7.77-4.43-9.62-24-18.74-24.51-13-.79-10.65,25.33-10.6,40.6-9-8.14-10.55-33.21-4-46.09-7.51-3.69-10.86,4.07-15,6.8,5.36-38.89,56.89-18,48.33,23.2" transform="translate(-49.97 -18.48)"/><path id="path110" class="cls-4" d="M590.5,416.39c-11.53,21.95-27.85,46.13-61.7,46.83-.69-7.09-1.21-17.88,0-22.15,25.88-2.48,41.85-15.65,61.66-24.68" transform="translate(-49.97 -18.48)"/><path id="path112" class="cls-4" d="M428.34,430.62C449.93,442,489.61,443.19,519,442.33c1.57,6.43,1.53,14.37,1.6,22.21-37.72,1.88-82.32-7.45-92.21-33.92" transform="translate(-49.97 -18.48)"/><path id="path114" class="cls-4" d="M424.24,451.79c14.93,37.48,66.24,33.16,109.51,32.13-1.91,4.87-6,10.61-11.17,12.69-13.87,5.65-52.11,9.93-71.36-.3-12.2-6.49-20.05-21.15-26.73-29.75-3.23-4.15-19.32-14.75-.25-14.77" transform="translate(-49.97 -18.48)"/><path id="path124" class="cls-8" d="M539.12,896c2.57,22.57,11.52,45.43,10.4,70.14-9.94,3.35-15.64,6.28-28.95,6.26-.94-21-3.75-53.1-2.91-73.12,6.55.43,16.2-4.68,21.46-3.28" transform="translate(-49.97 -18.48)"/><path id="path126" class="cls-5" d="M510.15,563.41c-9,5.89-16.7,13.24-25.37,19.53-19.21.95-29.7-1.33-43.81-12.37.23-.88,1.65-.49,1.7-1.57,20.57,9.16,46.71-3.74,67.48-5.59" transform="translate(-49.97 -18.48)"/><path class="cls-4" d="M650,575.39c-1.62-12.85-21.67-26.35-32.22-36.53-5.86-5.65-33.18-26.4-34.76-34.16-1.54-7.52,11.13-24.54,15.21-33.05,5.85-12.18,10-27.09,12.93-37.24,21.5-75.55,23.68-179.35-7-241.46-11.63-23.52-44.16-56-64.5-71.41-48-36.29-136.7-40.29-194.52-19-16.11,5.93-31.72,11.25-45.88,19.56-37.87,22.23-78.07,37.11-89.3,81.85-27.67,12.4-36,47.81-34.62,88.9.27,8,4.62,18,3.11,25.56-.77,3.82-6,8.72-7,11.21-13.26,31.62-2.63,73.19,12.69,95.65,9.27,13.58,24.6,25.62,44.83,28.82.81,12.11,3.72,22.54,9.32,34.81,3.54,7.77,16.77,21.73,11.9,31.64-2.45,5-24,15.84-31.14,20.12C194.87,555.11,177.39,564,155.12,580c-14.41,10.37-36.93,11.7-33.38,35.62,2.39,16.14,11.58,36.15,16.83,52.34,5.69,17.46,13.85,33.46,18.52,51.58,10.42,40.4,12.59,78.45,15.12,117.9,1,15.44-.64,31.8,3.37,40.33,4.13,8.81,19.45,11.64,30.52,16.77,32,14.79,65.89,37.36,107.83,32.89,10,33.6,19.45,69.4,31.45,98.83,43,15.47,110.87,13,155.58,7.67,13.59-1.64,27.93-8.34,31.12-20.13-1-7.26-2-14.44-1.56-23,14-2.89,33-5.28,36.08-20.75,4.31-21.7-13.7-52.78-7.7-76.59,8.1-2.63,16.74-4.68,15.44-17.45,9.66-5,20.58-7.28,32.26-7.94V847.1c-2.26-24-4.33-49.1-9.3-69a4.18,4.18,0,0,1-1-2.3c-.15-1.13-.32-2.24-.49-3.34l-.18-.62.07-.07c-.85-5.36-1.71-10.55-.36-16.07,2.53-10.39,7.39-20.23,11-30.34q6.06-16.87,11.68-33.9c7.73-23.37,15-46.9,22-70.49C644,607.75,651.71,589.05,650,575.39ZM328.48,128.13c2.08-.59,3.91.83,5.64,2.68-.22,6-6.14,5.88-10.14,7.81-6.23,7.65-15.34,11.24-22.91,19.63-7.77,8.59-16.46,31.68-26.76,34.24-5.17,1.28-11.06-.9-15.56-.61-11.89.76-20.27,6.84-32.33,8.59C242,166.42,290.58,138.88,328.48,128.13ZM208.68,235.06h0c15.45-17,36.74-27.6,62.67-29.57,13.35,34-9.58,74.37-1,111.54,2.61,11.38,11.66,29-2.79,29.42.38-32.38-39.79-52.93-70-33.89C195.44,288,191.93,253.48,208.68,235.06Zm42,228.87c-1.13-4.71-3.07-14.75-2.6-17.32,1.82-9.95,19.55-14.32,12.58-28.23-12.86-.12-15.76,11.71-27.57,12.88-30.56,3-52.13-40.51-50.74-66.78,1.18-22.34,20.06-43.71,45.88-40.88,18.25,2,24.45,21.92,28,39.64,10.52.56,25.72-.45,30.69-8.66-.71-20-10-36.1-9.38-54.5,1.21-34.59,20.05-65.81,5.51-99.87,15.57-35.31,61.22-63.17,95-80,41.85-20.87,108.44-4.17,147.79,18h0c22.6,12.75,39.28,37.4,55.18,57.92-22.3-6.62-41.28,4.76-37.82,23.15,18.67-17.11,50.56-.19,60,18.73,9,18.09,9,44.88,10.35,71.77,3.36,65.19-11.93,132.45-44.69,179.57-8.75,12.59-16.11,26.33-28.42,35C510.7,545.22,465.58,564.12,427,551.16,375.89,534,352.7,500,324.62,461.06c.76,21.39,15.81,38.95,30.67,55.32,12.93,14.27,28.54,30.39,45.33,37-14-3.29-35.51-4.32-41.34,8.25-32.68-2.17-63-5.51-78.51-27.66C268.59,516.55,256.21,486.87,250.66,463.93ZM504.41,605.85c4.74-3.41,12.68-3.36,19.85-4.16a34.5,34.5,0,0,0-22.05-2.49c-.17-4.84-2.34-7.84-3.66-11.63,12.09-4.31,40.63-32.61,56.69-23.24,7.65,4.46,10.9,29.91,11.49,42.28.49,10.27-.93,20.62-5.11,26.06-21.51-.63-40.93-3.19-57.94-8C504.83,617.71,502.67,610.87,504.41,605.85Zm-19.63-22.91c-19.21.95-29.7-1.33-43.81-12.37.23-.88,1.65-.49,1.7-1.57,20.57,9.16,46.71-3.74,67.48-5.59C501.13,569.3,493.45,576.65,484.78,582.94ZM471,621c-1.88-10.69-4.05-13.75-3.21-23.08C496.34,578.85,501.69,630.55,471,621Zm-10.52-3.68L460,629.56c-12.31,8.43-23.55,21-38,28.87-6.85,3.74-30.89,13.35-38.18,11.65-4.12-1-4.49-6.07-6.14-10.9-3.51-10.33-11.6-26.77-12.31-42.32-.89-19.64-2.88-52.56,18.29-48.51,17.07,3.26,36.93,11.13,50.15,18.35,8.08,4.42,12.75,9.88,25,10.82-.06,1.63-.13,3.27-.19,4.91-6.71,4.41-17.55,4.35-24.92,8.06A64.8,64.8,0,0,1,460.49,617.27ZM351.58,590.9c-13.29-.81-55-16-44.07-27.14,10.73,7.45,31.47,5.62,47.26,8.39C355.59,577.21,351.5,583.86,351.58,590.9Zm3.64,414.43c-23.32-71.45-36-139.28-44.81-220,54.39-10.18,132.73-19,188.15-7.48,5.07,33,3.19,65.54,6.89,97.89,4.9,43,1.23,92.12,9.63,132.45C469.34,1022.41,407,1021,355.22,1005.33Zm194.3-39.24c-9.94,3.35-15.64,6.28-28.95,6.26-.94-21-3.75-53.1-2.91-73.12,6.55.43,16.2-4.68,21.46-3.28C541.69,918.52,550.64,941.38,549.52,966.09Zm-33.66-84.16c-2.64-34.7-4.66-68.88-4.2-103.53,9.43-3.16,17.75-3,27.2-3,8.18,29.55,7.69,67.13,11.7,100.53C538.2,878.59,529.17,879.93,515.86,881.93ZM594,856.25c-7.81,1.51-12.88,6-22.38,5.69-2.42-29.65-9.3-60.82-12.14-89.07,6-.12,13.39-1.51,19.7-.06C591.7,794.37,594.39,830.22,594,856.25Zm32.3-240.76c-6.23,30.78-20.23,71.45-33.56,103.7-4.85,11.73-9.48,26.38-15.88,28.92-10.42,4.12-21.85,3.1-32.81,3.54s-21.31,3.56-32.52,3.06c-7.54-.34-15-.42-22.53-.62-3.92-.1-7.84-.08-11.75,0-2.85,0-8.57,1.31-11.14.21l.57.24a1442.64,1442.64,0,0,0-156.37,12.81c-6-9.37-3.6-23.8-4.24-38.72-.7-16.19,6-52.71-.33-55-7.2-2.56-8.55,12-8.8,15.24-1.35,17.11,8.14,53.32-1.22,73.79-10.24-2.89-15.28-10.6-24.88-14.09-3.77,11.85,7.8,12.42,6.61,20-1.57,10-20.43,1.64-20.33,16.44,12.29,2,31.11-3.82,44.24,1.71,3.43,40.26,8.94,78.41,15,121.17-52.23-2.71-86-28.66-124.53-46.66-2.39-85.14-16-173.46-49.56-245.56-.11-.25,5.82-4.47,6.39-4.91,20-15.27,40.33-30.11,61.85-43.14a352,352,0,0,1,33.24-17.91q7.88-3.69,15.68-7.45c5.09-2.45,9,.66,12.51,4.54,6.29,6.89,12.91,13.52,19.3,20.19,6.23,6.51,10.15,14.72,17.39,20.43,6.12,4.82,14.8,7.28,21.76,10.68,7.63,3.72,15.32,7.32,23,11,1.34,10.07,4.45,23.12,9.91,40.58,2.34,7.49,4.21,15.2,7.44,22.38,2.66,5.91,6.69,12.26,13.49,13.71,5.91,1.26,11.44-1.44,16.53-4.09,4.9-2.54,9.71-5.25,14.35-8.22s9.29-5.11,14-7.71a208.53,208.53,0,0,0,18.17-11c5.14-3.57,9.56-8,14.52-11.84,2.13-2.34,4.09-4.86,6.21-7.21,10.24,4.28,16.92-5.62,24.8-4.77,6.13.66,11,5.86,16.05,8.91a35.32,35.32,0,0,0,16.71,4.62,23.57,23.57,0,0,0,8.13-.61,41.07,41.07,0,0,1,8.38-2.07,28.37,28.37,0,0,1,12.12,1.45c3.39,1.16,6.87,4.71,10.69,3.3a7.4,7.4,0,0,0,2.32-1.52c3.8-3.41,4.76-7.55,6.56-12a57.25,57.25,0,0,0,2.52-8.18,103.82,103.82,0,0,0,2.54-20.1c.53-13.94-.71-28.64-5.68-41.78-3.47-9.19-10.24-19.68-21.49-18.37a22.76,22.76,0,0,0-7.19,2.22c4.92-7.21,17.81-13.17,23.83-22,14.82,11.94,23.77,23.17,38,35.94,7.71,6.91,22.88,15.2,24.41,26.38C631.52,593.19,627.69,608.47,626.28,615.49Z" transform="translate(-49.97 -18.48)"/><path id="path132" class="cls-9" d="M394,440.21c1.67-2.22,10.84-5.6,23.67.58,0,0-15.21,2.54-13.94,27.89l-6.34-1.27s-6.55-23-3.39-27.2" transform="translate(-49.97 -18.48)"/><path id="path134" class="cls-12" d="M505.1,658.13a7,7,0,1,1-7-7,7,7,0,0,1,7,7" transform="translate(-49.97 -18.48)"/><path id="path136" class="cls-12" d="M512.07,690.44a7,7,0,1,1-7-7,7,7,0,0,1,7,7" transform="translate(-49.97 -18.48)"/><g id="Hand_with_Cone" data-name="Hand with Cone"><path class="cls-6" d="M695.13,736.81,665.85,733l-40.74,12.73L590.53,762.6c8.08,16.09,11.23,34.51,12.69,52.31,1.31,15.9,1.08,31.82.83,47.75l8.33-2.35,94.21-5.09,14-43.29Z" transform="translate(-49.97 -18.48)"/><path class="cls-8" d="M717.15,817l-14-40.74c3.82,30.55-11.46,59.84-11.46,59.84-6.37,0-77.66-3.82-77.66-3.82,0-7.64-11.46-73.84-11.46-73.84L590.72,763c7.93,16,11,34.26,12.5,51.91,1.25,15.22,1.1,30.47.86,45.72l20.13-2.88,12.73,16.55,38.2,1.28,22.92-5.1,20.37-30.55Z" transform="translate(-49.97 -18.48)"/><path id="path118" class="cls-4" d="M668.65,766c-19.7,3.95-33.55,23.1-52.77,21.87C626.44,773,645,766.68,668.65,766" transform="translate(-49.97 -18.48)"/><path id="path120" class="cls-4" d="M677.35,796.82c-16.07,1.7-34.93,4.3-51.22,3,7.71-11.78,37.42-7.72,51.22-3" transform="translate(-49.97 -18.48)"/><path id="path122" class="cls-4" d="M682.91,823.41c-18,.39-40.49,0-57.64-1.41,10.15-10.9,45.93-4,57.64,1.41" transform="translate(-49.97 -18.48)"/><g id="Cone"><g id="Cone-2" data-name="Cone"><path class="cls-4" d="M716.75,635.43a2.74,2.74,0,0,1-.55.68A4.43,4.43,0,0,0,716.75,635.43Z" transform="translate(-49.97 -18.48)"/><path class="cls-4" d="M583.57,596.64a7.17,7.17,0,0,1-.4,2.76h0A7.15,7.15,0,0,0,583.57,596.64Z" transform="translate(-49.97 -18.48)"/><path class="cls-4" d="M712.15,622.29a4.54,4.54,0,0,0-.93,1.45,4.07,4.07,0,0,1,.91-1.45Z" transform="translate(-49.97 -18.48)"/><path class="cls-4" d="M570.47,627a9,9,0,0,0-1.43.78A7.61,7.61,0,0,1,570.47,627Z" transform="translate(-49.97 -18.48)"/><path class="cls-4" d="M710.86,642.7h-.94a1,1,0,0,1,0-.34C710.24,642.46,710.55,642.57,710.86,642.7Z" transform="translate(-49.97 -18.48)"/><path class="cls-4" d="M567.52,661.47a.71.71,0,0,1-.12-.18h0Z" transform="translate(-49.97 -18.48)"/><path class="cls-4" d="M567.52,661.47a.71.71,0,0,1-.12-.18h0Z" transform="translate(-49.97 -18.48)"/><path class="cls-4" d="M559.35,677.12a.4.4,0,0,1-.12.1h0Z" transform="translate(-49.97 -18.48)"/><path class="cls-4" d="M711.55,642c1,3.31,5.87,3.91,5,8.43-.42,2-2.11,3.66-3.32,5.46a9.71,9.71,0,0,0-.65,1.11,3.39,3.39,0,0,0-.18.39c-.07.16-.13.32-.19.49a5.93,5.93,0,0,0-.31,1.92q0,.32,0,.63c0,.05,0,.1,0,.17a5.67,5.67,0,0,0,.1.57c0,.21.08.41.13.62s.16.5.24.75c1.15,3.3,3.88,6.56,4.37,10.08a10.09,10.09,0,0,1-2.89,8.07c-15.21,48.5-21.93,98.7-29.74,148.53q-2.33,15-4.81,29.91c-21.15-.49-42.3-1.42-63.47-1.4q-5.76-16.47-10.91-33.12c-2.23-7.28-4.49-14.67-5.69-22.13-11.62-38-24.26-75.68-42.58-111.83.9,0,1.81.12,2.71.19a13.23,13.23,0,0,1-4.47-4.32c-1.47-2.53-1.2-6.09,1.42-7.74.93-.58,2.08-.88,2.93-1.54a.4.4,0,0,0,.12-.1l.12-.09c1.49-1.33,1.29-3.74.9-6.29s-.91-4.93-.38-6.82a4.65,4.65,0,0,1,.2-.52c.71-1.65,2.5-2.62,6.48-2.21l.73.1a.71.71,0,0,0,.12.18l-.12-.18a0,0,0,0,1,0,0c-.12-.18-.25-.37-.35-.55-.57-.93-1.09-1.91-1.56-2.85-.1-.2-.19-.41-.29-.6l-.24-.51c-.17-.35-.34-.71-.48-1-2.13-4.72-.49-7.23.77-11.22.2-.68.41-1.39.58-2.17,0-.22.08-.44.12-.67a7.73,7.73,0,0,0,.11-1s0,0,0,0c0-.31,0-.63,0-1s0-.38,0-.57c-.06-3.35-.78-6.8,1.17-9.57,1.43-2,4.61-2,6.26-3.78,2.37-2.5.6-5.46,1.56-8.53.21-.7.52-1.37.79-2.06a3.07,3.07,0,0,0,.2-.5,7.38,7.38,0,0,0,.42-1.58,7.68,7.68,0,0,0,0-1.73,5.22,5.22,0,0,0-.07-.57,6.45,6.45,0,0,0-.11-.73c0-.22-.07-.46-.12-.7-.08-.47-.17-.93-.23-1.4-.22-1.57-.19-3.06.93-4.24,1.5-1.59,4.33-1.77,5.73-3.42a3.25,3.25,0,0,0,.55-.9,7.17,7.17,0,0,0,.4-2.76v0c0-.45,0-.9,0-1.36,0-.15,0-.3,0-.46a3,3,0,0,1,0-.43,3.57,3.57,0,0,1,.1-.57,1.07,1.07,0,0,1,.08-.27c0-.09.06-.17.11-.27,2.26-6.78,10.09-2.64,13.7-6.88a6.94,6.94,0,0,0,1.34-3.43c2.31-13.46,1.7-27.09,8.56-39.63,4.74-8.65,12.38-15.63,20.57-21.76,5.17-3.84,15.28-15,22.73-11.55,7.8,3.6,10.29,14.18,10.56,21.58.3,8.54.06,17.23,2.74,25.48,2.4,7.39,7.25,13.34,12.12,19.43l11,13.81A20.21,20.21,0,0,1,691,596.4c.78,2.45.1,4.92.75,7.45,1.57,6.09,11.8,5.86,17.2,7.16.32.08.64.16,1,.26l.74.24c3.24,1.06,6.45,3,5.77,5.87-.48,2-2.88,3.29-4.32,4.91a4.07,4.07,0,0,0-.91,1.45,2.33,2.33,0,0,0-.17.69c-.41,3.88,6.83,5.9,6.22,9.75a2.78,2.78,0,0,1-.52,1.25,4.43,4.43,0,0,1-.55.68l-.22.21h0A4.64,4.64,0,0,0,711.55,642Z" transform="translate(-49.97 -18.48)"/><path class="cls-4" d="M654.63,512.67c0,.09,0,.17-.08.25l0,0Z" transform="translate(-49.97 -18.48)"/></g><g id="Cone-3" data-name="Cone"><path class="cls-13" d="M662.11,742.79c-15.55-16.77-33-32.57-55.05-41.89a115.39,115.39,0,0,0-36.63-8.7c17.72,39.12,29,80.24,40.05,121.34C628.83,790.57,647.69,767.87,662.11,742.79Z" transform="translate(-49.97 -18.48)"/><path class="cls-6" d="M586.05,630.46c2.65,5.92,11.65,8.91,17,11.17a198.79,198.79,0,0,0,23.6,7.81c5.68,1.62,11.4,3.24,17.28,3.77a95,95,0,0,0,12.85,0l22.63-1.06c6.42-.3,13-.63,19-3-1.69-1.14-.49-3.87,1.16-5.07s3.84-2.23,4.13-4.25c.5-3.58-5.5-5.45-5.16-9.05.26-2.69,3.92-3.9,4.48-6.54.66-3.1-3.15-5.08-6.2-5.91Q652.3,606.26,607,597.63c-2.72-.52-5.52-1-8.23-.46s-5.34,2.46-5.89,5.17c-.42,2,.3,4.4-.95,6.06s-3.51,1.69-4.75,3.16c-1.92,2.29,0,5.75-.35,8.71a26.38,26.38,0,0,1-1.17,3.83A9.14,9.14,0,0,0,586.05,630.46Z" transform="translate(-49.97 -18.48)"/><path class="cls-8" d="M644.74,612.37l11.09,2.16c5.93,1.15,11.85,2.71,17.82,3.56a28.44,28.44,0,0,0,6.52.22c2.05-.18,4.06-1.09,6.1-.92,3.6.3,8.48.14,11.87,1.4-.48-.17-.95-.33-1.41-.45Q652.3,606.26,607,597.63a39.47,39.47,0,0,0-4.47-.66c1.95.14,3.24,2.09,4.54,3.27a28.35,28.35,0,0,0,6.13,4.17c7.55,3.89,16.16,5,24.39,6.58Z" transform="translate(-49.97 -18.48)"/><path class="cls-8" d="M670.48,625.76a308.79,308.79,0,0,1-31.18-4.2c-16.59-3.27-33.34-8.77-46.23-19.71a4,4,0,0,0-.15.49c-.35,1.71.09,3.66-.51,5.22,16.74,10.26,35.61,15.41,55,18.34a357.11,357.11,0,0,0,51.16,4.25,4.22,4.22,0,0,1,.77-1.35C689.72,628.07,680.08,626.65,670.48,625.76Z" transform="translate(-49.97 -18.48)"/><path class="cls-8" d="M645.3,635.59c-20.69-3.12-41.12-8.79-58.85-20.09a19.92,19.92,0,0,1,.42,4.77,9.18,9.18,0,0,1-.58,2.11,4.91,4.91,0,0,1,.55.38c1,.87,2.09,1.69,3.16,2.5,12.85,6.44,26.45,10.53,40.47,14l3.5.42c12.17,1.5,24.4,2.67,36.66,3.22,10.44.47,20.81-.17,31.22-.78.23-.11.46-.19.69-.29a3.71,3.71,0,0,0,1-1.79A367,367,0,0,1,645.3,635.59Z" transform="translate(-49.97 -18.48)"/><path class="cls-6" d="M578,647.39c.78-3.95-1-8.45,1.18-11.86,1.69-2.69,5.31-3.59,8.46-3.12s6,2,9,3.18c7.39,3,15.44,3.88,23.37,4.69q35.38,3.65,70.88,6.1c2.79.19,5.68.4,8.15,1.71s4.42,4,3.92,6.79c-.47,2.58-2.86,4.42-3.6,6.93-1.37,4.62,3.19,8.88,3.79,13.66.53,4.22-2.23,8.31-5.85,10.53s-7.95,2.9-12.18,3.31c-18.79,1.82-37.68-.88-55.91-5.41-9.08-2.26-18-5-27-7.84-6.33-2-16.25-3.37-21-8.41-1.88-2-3.34-5.33-4.35-7.84C574.86,654.69,577.06,652.37,578,647.39Z" transform="translate(-49.97 -18.48)"/><path class="cls-8" d="M698.29,647.74h-3.52c-9,1.65-18.35.61-27.44.1-11.69-.65-23.39-1.39-35-3.2A289.94,289.94,0,0,1,598.68,637c-3.82-1.08-7.28-2.35-9.81-4.33-.39-.09-.79-.16-1.19-.22a9.51,9.51,0,0,0-6.8,1.41c4.08.28,7.94,2.48,11.86,4.52,7.69,4,16.78,5.89,25.2,7.61,9.47,1.93,19,3.72,28.52,5.27a174,174,0,0,0,25.22,2c9.91,0,19.75-.36,29-4a8.66,8.66,0,0,0-1.65-1.17C698.8,648,698.55,647.85,698.29,647.74Z" transform="translate(-49.97 -18.48)"/><path class="cls-8" d="M641.24,669.44c19.87,3.65,40.41,5.47,58.3-3.32a7.21,7.21,0,0,1-.17-4.31,8,8,0,0,1,.85-1.85c-10.67,3.3-22.05,3.17-33.26,3.17a318.33,318.33,0,0,1-33-1.56c-19.18-2-39.53-6.18-55.74-17.17a14.1,14.1,0,0,1-.21,3c-.14.72-.31,1.38-.48,2C597.63,659.89,618.81,665.33,641.24,669.44Z" transform="translate(-49.97 -18.48)"/><path class="cls-8" d="M703.16,675.47c-18.3,8.72-39.38,7.9-59.64,4.44-23.18-3.95-45.46-9.36-66.39-19.61,1,2.44,2.38,5.48,4.14,7.35,4.75,5,14.67,6.37,21,8.41,8.91,2.87,17.87,5.58,27,7.84,18.23,4.53,37.12,7.23,55.91,5.41,4.23-.41,8.56-1.09,12.18-3.31s6.38-6.31,5.85-10.53Z" transform="translate(-49.97 -18.48)"/><path class="cls-6" d="M574.68,693.75c-2.24-1.42-4.5-3-5.72-5.38s-1-5.65,1.19-7.17a18,18,0,0,0,2.63-1.61c3.6-3.63-4.77-15.92,6-14.7,3,.34,4.82,2.22,7.27,3.56a85.59,85.59,0,0,0,10,4.22q10.4,4.07,21.13,7.19a246.69,246.69,0,0,0,44.57,8.63c5.46.54,11.55,1.2,15.11,5.39,3,3.57,3.25,9,1.32,13.26s-5.7,7.5-9.82,9.73c-15.79,8.53-33.07,2.83-48.41-3.72S588.87,702.75,574.68,693.75Z" transform="translate(-49.97 -18.48)"/><path class="cls-8" d="M572.57,679.75c9.93,11.58,27,17.13,41.43,20.24a164.84,164.84,0,0,0,32.08,3.69c5.16.08,10.31-.22,15.47-.11,5.59.12,11.35.55,16.9-.21a5.51,5.51,0,0,0-.11-1.62,5.26,5.26,0,0,0-.15-.53c-27.15.19-55.54-3.83-80.25-14.6-9.16-4-20.25-10.08-24.57-19.67-1.35,3.46,1.91,10.14-.59,12.65Z" transform="translate(-49.97 -18.48)"/><path class="cls-14" d="M619.5,847.23c17.55,0,35.08.85,52.62,1.29q2-13.86,4-27.74c6.76-48.31,12.54-97,26.38-143.88a96,96,0,0,0-31.69,12.19c-20.82,12.64-35.74,32.6-48.88,52.78-7.64,11.76-15,24.24-16.64,38-1.43,12.31,1.88,24.62,5.17,36.58Q614.69,832,619.5,847.23Z" transform="translate(-49.97 -18.48)"/><path class="cls-6" d="M612.65,555.52c-4.31,8.81-5.43,18.78-6.43,28.54-.45,4.47-.7,9.56,2.38,12.84,1.77,1.89,4.34,2.79,6.81,3.6a348.11,348.11,0,0,0,55.82,13.19c3.48.52,7.61.76,9.89-1.91,3-3.55.33-8.89-2.37-12.68l-9.13-12.8c-4-5.59-8-11.23-10.88-17.46a55.44,55.44,0,0,1-5-25.46c.14-3.45.61-6.92.1-10.33s-2.2-6.86-5.26-8.44c-6.18-3.2-14.56,7.14-18.85,10.72C622.91,541,616.58,547.49,612.65,555.52Z" transform="translate(-49.97 -18.48)"/><path class="cls-8" d="M625,592a44.05,44.05,0,0,1-.91-23.66c3.81-15,13.57-28.41,22.1-41.39.39-.92.8-1.84,1.24-2.73a4.9,4.9,0,0,0-.55-.13c-4.51,3.11-7.47,8.55-11.33,12.37-5.73,5.7-10.41,11-14,18.34a61.47,61.47,0,0,0-6.73,24.52c-.36,8.34,1.78,15.09,4.94,22.55,3.51,1.1,7,2.12,10.58,3.1a45.21,45.21,0,0,1-2.44-5.46A46.91,46.91,0,0,1,625,592Z" transform="translate(-49.97 -18.48)"/><path class="cls-8" d="M654.73,556.49a43.46,43.46,0,0,0-.1,5.37c.15,3.42.44,6.84.85,10.24a41.65,41.65,0,0,0,2.3,6.65c5.66,12.61,15.69,21.9,23,33.41l.36-.38c3-3.55.33-8.89-2.37-12.68l-9.13-12.8c-4-5.59-8-11.23-10.87-17.46A55.41,55.41,0,0,1,654.73,556.49Z" transform="translate(-49.97 -18.48)"/><path class="cls-8" d="M645.44,590c-1.31-5.84-1.43-12-1.48-17.9a110.63,110.63,0,0,1,.57-14.9,112.53,112.53,0,0,1,2.83-13.31l4.31-16.8c-9.47,18.33-16.6,39.21-16,60.08.22,8.4,4,14.63,8.45,21.29q6.61,1.54,13.3,2.84c-3.92-5.72-8.85-11.06-11-17.81C646,592.35,645.7,591.19,645.44,590Z" transform="translate(-49.97 -18.48)"/></g><g id="Fist"><path class="cls-6" d="M695.13,736.81,665.85,733l-40.74,12.73L590.53,762.6c8.08,16.09,11.23,34.51,12.69,52.31,1.31,15.9,1.08,31.82.83,47.75l8.33-2.35,94.21-5.09,14-43.29Z" transform="translate(-49.97 -18.48)"/><path class="cls-8" d="M717.15,817l-14-40.74c3.82,30.55-11.46,59.84-11.46,59.84-6.37,0-77.66-3.82-77.66-3.82,0-7.64-11.46-73.84-11.46-73.84L590.72,763c7.93,16,11,34.26,12.5,51.91,1.25,15.22,1.1,30.47.86,45.72l20.13-2.88,12.73,16.55,38.2,1.28,22.92-5.1,20.37-30.55Z" transform="translate(-49.97 -18.48)"/><path id="path118-2" data-name="path118" class="cls-4" d="M668.65,766c-19.7,3.95-33.55,23.1-52.77,21.87C626.44,773,645,766.68,668.65,766" transform="translate(-49.97 -18.48)"/><path id="path120-2" data-name="path120" class="cls-4" d="M677.35,796.82c-16.07,1.7-34.93,4.3-51.22,3,7.71-11.78,37.42-7.72,51.22-3" transform="translate(-49.97 -18.48)"/><path id="path122-2" data-name="path122" class="cls-4" d="M682.91,823.41c-18,.39-40.49,0-57.64-1.41,10.15-10.9,45.93-4,57.64,1.41" transform="translate(-49.97 -18.48)"/></g></g><path class="cls-4" d="M730.52,800.68c-3.71-15.79-12.12-41.66-19.29-57-10.89-23.25-36.11-25-58.38-19.67a189.24,189.24,0,0,0-36.94,13.18c-10.19,4.84-17.55,13.78-27.51,18.95-3.25,1.69-7,1.85-10.73,1.81.83,1.67,1.61,3.37,2.31,5.1a71.43,71.43,0,0,1,4.37,11.56c11.32,21.93,13.8,56.14,13.4,81.27l-.16,0v13.35a118.64,118.64,0,0,1,22.59-1.69q2.91-.11,5.79-.29c4.69-.55,9.36-1.19,14-2.12l2.13-.62c11.54-5.14,27.52-5.48,40-9.54-19.3-8.31-47.84-.48-71-1.92-2.81-28.65-4.91-59.7-11.7-82.3,13.54-14.4,46.25-17.85,64.82-29.74,11.41-7.31,25.71,3.14,31,11.11,7.13,10.79,13.8,42.53,17.54,59.39,5.58,25.09-7,49.52-26.9,54.36-2.67,0-5.79,1.23-8.47,1.63-1.59.24-3.18.44-4.78.62-.75.08-3.16-.24-3.64.34a2.25,2.25,0,0,0-.39,1.32c-.33,4-.55,8.63-1.87,12.41a110.1,110.1,0,0,0,35.25-5C724.84,869.82,735.77,823,730.52,800.68Z" transform="translate(-49.97 -18.48)"/><path class="cls-14" d="M621,859.07q3.64,10.81,7.5,21.58c4.91,13.67,8.74,27.69,14.1,41.21,1.22,3.06,12.62,33,15.27,16.93,4.45-27.14,8.89-54.29,13.11-81.46C654.28,858.23,637.48,857.17,621,859.07Z" transform="translate(-49.97 -18.48)"/></g><line class="cls-15" x1="517.46" y1="674.5" x2="585.66" y2="704.58"/><path class="cls-4" d="M462.35,632.05a391.16,391.16,0,0,1,27.73,86.33c.75,3.78,6.53,2.18,5.78-1.6A397.1,397.1,0,0,0,467.53,629c-1.6-3.51-6.77-.46-5.18,3Z" transform="translate(-49.97 -18.48)"/><path class="cls-4" d="M500.8,625a391.16,391.16,0,0,1,27.73,86.33c.75,3.78,6.53,2.18,5.78-1.6A396.24,396.24,0,0,0,506,622c-1.6-3.51-6.77-.47-5.18,3Z" transform="translate(-49.97 -18.48)"/><g id="Hat"><path class="cls-6" d="M491.26,26.61l-1.18.28L402.63,47.83,315.19,68.77C299,72.65,283.1,77.28,266.78,80.43c-2,23.19-4.36,46.32-6,69.55,41.34-10.84,85.86-5.14,127.07,2.48a312.35,312.35,0,0,1,115.82,47.29,244.94,244.94,0,0,1,46.32-66.63c-2.41-21.91-5.71-40.67-12.65-61.6a134.22,134.22,0,0,0-10.81-24.1,99.48,99.48,0,0,0-8.82-13.51c-3.29-4.07-6.23-7.79-11.61-8.65C501.12,24.48,496.08,25.48,491.26,26.61Z" transform="translate(-49.97 -18.48)"/><path class="cls-8" d="M496.88,29.38a34.17,34.17,0,0,0-11.87.68V193c3.18,1.91,6.33,3.84,9.44,5.85,1.6-3.3,3.3-6.57,5.06-9.8v-159A13.67,13.67,0,0,0,496.88,29.38Z" transform="translate(-49.97 -18.48)"/><path class="cls-2" d="M506.05,25.26a33,33,0,0,0-11.87.71V193.72c3.18,2,6.34,4,9.44,6q2.42-5.12,5.06-10.1V26A13,13,0,0,0,506.05,25.26Z" transform="translate(-49.97 -18.48)"/><path class="cls-8" d="M289.68,75.21c-7.59,1.91-15.19,3.73-22.9,5.22-2,23.19-4.36,46.32-6,69.55a181.33,181.33,0,0,1,28.95-5Z" transform="translate(-49.97 -18.48)"/><g class="cls-16"><ellipse class="cls-17" cx="331.29" cy="152.65" rx="119.75" ry="94.4"/><ellipse class="cls-17" cx="544.37" cy="186.82" rx="96.12" ry="136.84"/></g><path class="cls-18" d="M491.26,26.61l-1.18.28L402.63,47.83,315.19,68.77C299,72.65,283.1,77.28,266.78,80.43c-2,23.19-4.36,46.32-6,69.55,41.34-10.84,85.86-5.14,127.07,2.48a312.35,312.35,0,0,1,115.82,47.29,244.94,244.94,0,0,1,46.32-66.63c-2.41-21.91-5.71-40.67-12.65-61.6a134.22,134.22,0,0,0-10.81-24.1,99.48,99.48,0,0,0-8.82-13.51c-3.29-4.07-6.23-7.79-11.61-8.65C501.12,24.48,496.08,25.48,491.26,26.61Z" transform="translate(-49.97 -18.48)"/></g></g></g></svg>