<svg id="Слой_1" data-name="Слой 1" xmlns="http://www.w3.org/2000/svg" viewBox="0 0 308.25 422.98"><defs><style>.cls-1{fill:#335061;}.cls-2{fill:#00cbe6;}.cls-11,.cls-3,.cls-30,.cls-31,.cls-7{fill:#fff;}.cls-4{fill:#bf8101;stroke-width:0.24px;}.cls-11,.cls-15,.cls-16,.cls-23,.cls-27,.cls-30,.cls-31,.cls-32,.cls-34,.cls-35,.cls-4,.cls-5,.cls-6,.cls-7,.cls-9{stroke:#000;}.cls-16,.cls-32,.cls-34,.cls-35,.cls-4,.cls-5,.cls-7,.cls-9{stroke-miterlimit:10;}.cls-12,.cls-13,.cls-14,.cls-15,.cls-24,.cls-25,.cls-26,.cls-27,.cls-34,.cls-5,.cls-6,.cls-9{fill:none;}.cls-5,.cls-6,.cls-7{stroke-width:3.81px;}.cls-6{stroke-linecap:round;stroke-linejoin:round;}.cls-8{fill:#e8e8e8;}.cls-24,.cls-26,.cls-35,.cls-9{stroke-width:3px;}.cls-10{fill:#9e2a26;}.cls-11{stroke-width:3.95px;}.cls-12,.cls-24,.cls-25{stroke:#fff;}.cls-12,.cls-13{stroke-width:3.04px;}.cls-13,.cls-14,.cls-26{stroke:#00a7e8;}.cls-14,.cls-15{stroke-width:4.06px;}.cls-16,.cls-33{fill:#592c15;}.cls-16,.cls-23,.cls-25,.cls-27,.cls-31,.cls-32,.cls-34{stroke-width:4px;}.cls-17{fill:#f0d6b7;}.cls-18{fill:#6d6b6d;}.cls-19{fill:#dcd9d8;}.cls-20{fill:#f7e4cd;}.cls-21,.cls-23{fill:#6a1c1a;}.cls-22{fill:#231f20;}.cls-28,.cls-29{isolation:isolate;}.cls-29{font-size:72px;font-family:Georgia-Bold, Georgia;font-weight:700;}.cls-30{stroke-width:4.29px;}.cls-32,.cls-35,.cls-36{fill:#763b1c;}</style></defs><title>logoМонтажная область 2</title><path id="path22" class="cls-1" d="M262.16,178.3c0,61.79-49,111.87-109.37,111.87S43.41,240.08,43.41,178.3s49-111.88,109.37-111.88S262.16,116.51,262.16,178.3"/><path id="path24" class="cls-2" d="M47.86,206S39.95,89.34,147.45,86l-7.5-12.5L81.61,93.09,64.95,112.25,50.36,140.17,42,172.67l2.5,21.67"/><path id="path26" d="M77.87,102A109.42,109.42,0,0,0,46.8,178.71h0a109.41,109.41,0,0,0,31.06,76.73h0a104.41,104.41,0,0,0,74.91,31.75h0a104.41,104.41,0,0,0,74.91-31.75h0a109.42,109.42,0,0,0,31.07-76.73h0A109.43,109.43,0,0,0,227.69,102h0a104.43,104.43,0,0,0-74.91-31.74h0A104.43,104.43,0,0,0,77.87,102ZM73,260.19a116.22,116.22,0,0,1-33-81.48h0A116.22,116.22,0,0,1,73,97.23h0a111.22,111.22,0,0,1,79.77-33.79h0a111.21,111.21,0,0,1,79.77,33.79h0a116.21,116.21,0,0,1,33,81.48h0a116.2,116.2,0,0,1-33,81.48h0A111.23,111.23,0,0,1,152.78,294h0A111.24,111.24,0,0,1,73,260.19h0"/><polygon class="cls-3" points="258.05 264.08 236.43 264.34 230.19 220.71 263.24 220.31 258.05 264.08"/><path class="cls-4" d="M247.69,228.42a38.78,38.78,0,0,0-15.39,3.39l4.18,31.29,21.63-.26,3.31-30.24C261.56,232.31,256.95,228.31,247.69,228.42Z"/><path class="cls-5" d="M260.62,232c0,1.91-2.7,3.49-12,3.6s-16.78-1.35-16.8-3.25,7.46-3.54,16.72-3.66S260.6,230.11,260.62,232Z"/><polygon class="cls-6" points="258.05 264.08 236.43 264.34 230.19 220.71 263.24 220.31 258.05 264.08"/><ellipse class="cls-7" cx="246.7" cy="219.46" rx="16.76" ry="3.45" transform="translate(-2.62 2.98) rotate(-0.69)"/><path class="cls-3" d="M217.36,268.79s2,16.18,18.43,16.18c12.09,0,15.81-8.09,15.81-8.09a20.37,20.37,0,0,0,3.46-4.48c1.49-2.93.79-4.4.79-4.4a9.14,9.14,0,0,0,3.14-3.77,10.54,10.54,0,0,0,.94-3.93s6.65,1.35,9.32,0c2.24-1.13,2.3-5.32,1.1-7.54-1.88-3.47-6.32-6.87-16.08-6.6-3.73.11-14.61,3.14-14.61,3.14s-2.45-2.8-2.67-4c-.59-3.16,2.34-10.41.89-12.83a7.29,7.29,0,0,0-12.72.21c-1.69,3.36,2.26,7.65,1.94,10.47a27.77,27.77,0,0,1-1.41,4.24S221,248.89,220,250.1c-3.61,4.36-3.61,10.68-3.61,10.68Z"/><path class="cls-8" d="M217.47,269.47S220,284,235.79,285c16.45,1,20.06-14.26,20.06-14.26s-5.5,4.72-20.19,6C224.85,277.73,217.47,269.47,217.47,269.47Z"/><path d="M245.14,277.73a24.32,24.32,0,0,0,3.21-.84,12.1,12.1,0,0,0,1.46-.6,6.72,6.72,0,0,0,.64-.36l.26-.19c.05,0,.2-.16.09-.13l1.59,2.54a2.41,2.41,0,0,1-.66.21l-.51.08a9.36,9.36,0,0,1-.95.05,14.06,14.06,0,0,1-1.79-.11A25.1,25.1,0,0,1,245.14,277.73Z"/><path d="M246.19,270.38c1.6-.51,3.19-1,4.74-1.64.77-.3,1.54-.61,2.27-1,.36-.17.73-.35,1.06-.53l.48-.28.21-.14.08-.06s.07-.06,0,0l1.66,2.5a1.66,1.66,0,0,1-.29.14l-.2.07-.36.11-.68.16c-.45.09-.88.16-1.31.22-.86.12-1.72.19-2.57.25C249.56,270.32,247.87,270.36,246.19,270.38Z"/><path d="M224.81,251.53a4.51,4.51,0,0,0,.32-1.08,3,3,0,0,0,0-1,2.53,2.53,0,0,0-.31-.85,2.29,2.29,0,0,0-.24-.34c-.08-.08-.2-.23-.24-.17l2.7-1.31a3,3,0,0,1,.1.89,4.83,4.83,0,0,1-.07.76,4.42,4.42,0,0,1-.47,1.35A4.49,4.49,0,0,1,224.81,251.53Z"/><path class="cls-8" d="M257.83,256.43c-3.14.27-11.69,5.08-11.69,5.08a35.42,35.42,0,0,1,12.79-1.83c2.46.17,10.82-.21,10.82-.21S266.46,255.7,257.83,256.43Z"/><path class="cls-8" d="M234.43,230.16c-1.77,1.28.83,5.17-1.14,12.78-3.85,14.87,6.2,7.2,6.2,7.2l-2.93-5.56,1.59-11.38S235.56,229.34,234.43,230.16Z"/><path d="M259.22,261.63a3,3,0,0,0-.56-.31c-.24-.1-.48-.2-.74-.28a12,12,0,0,0-1.61-.41,16.73,16.73,0,0,0-3.46-.23,23.78,23.78,0,0,0-3.56.39c-.59.11-1.18.26-1.78.39l-1.76.5,1.63-.85c.56-.25,1.12-.51,1.69-.75a24.93,24.93,0,0,1,3.57-1.16,18.61,18.61,0,0,1,3.82-.53,14.49,14.49,0,0,1,2,.09c.34,0,.68.1,1,.17a6.15,6.15,0,0,1,1.14.35Z"/><path class="cls-9" d="M217.36,268.79s2,16.18,18.43,16.18c12.09,0,15.81-8.09,15.81-8.09a20.37,20.37,0,0,0,3.46-4.48c1.49-2.93.79-4.4.79-4.4a9.14,9.14,0,0,0,3.14-3.77,10.54,10.54,0,0,0,.94-3.93s6.65,1.35,9.32,0c2.24-1.13,2.3-5.32,1.1-7.54-1.88-3.47-6.32-6.87-16.08-6.6-3.73.11-14.61,3.14-14.61,3.14s-2.45-2.8-2.67-4c-.59-3.16,2.34-10.41.89-12.83a7.29,7.29,0,0,0-12.72.21c-1.69,3.36,2.26,7.65,1.94,10.47a27.77,27.77,0,0,1-1.41,4.24S220,250.89,219,252.1a10.71,10.71,0,0,0-2.61,8.68Z"/><path d="M233.22,251.48a2.84,2.84,0,0,0,1.82-.2,7.75,7.75,0,0,0,1.59-.89,16.6,16.6,0,0,0,2.71-2.44l1.81,2.39a18.62,18.62,0,0,1-1.94.83,17.75,17.75,0,0,1-2,.6,8.81,8.81,0,0,1-2.06.26A3.2,3.2,0,0,1,233.22,251.48Z"/><polygon class="cls-10" points="109.36 172.8 68.53 197.38 80.94 239.88 84.36 284.46 116.09 299.45 211.68 288.42 216.84 248.21 236.56 191.68 213.97 169.22 182.94 195.71 132.63 195.71 109.36 172.8"/><polygon class="cls-11" points="134.57 191.36 167.79 251.73 210.02 250.84 210.84 175.71 180.28 195.8 134.57 191.36"/><path class="cls-1" d="M179.63,206.18s-1.08,10.62-1.29,14.32c-.39,6.85,2.17,30.41,2.17,30.41l22.1.41s-3.65-24.76-5.46-31.73c-1-3.78-4.94-14-4.94-14Z"/><line class="cls-12" x1="195.72" y1="251.12" x2="178.6" y2="230.33"/><line class="cls-12" x1="199.42" y1="231.24" x2="179.63" y2="206.18"/><line class="cls-13" x1="201.87" y1="246.48" x2="178.51" y2="218.1"/><line class="cls-14" x1="185.92" y1="251.01" x2="179.67" y2="243.43"/><line class="cls-14" x1="196.01" y1="215.94" x2="187.65" y2="205.79"/><path class="cls-15" d="M179.55,205.84s-1.08,10.62-1.29,14.32c-.45,7.88-.29,6.87,2.17,31.47l22.1.38s-3.65-25.79-5.46-32.76c-1-3.78-4.94-14-4.94-14Z"/><path class="cls-16" d="M87.1,136.42a25.17,25.17,0,0,0,2.76,14c7.51,14.24,16.9,8,16.9,8l-5.4-24.07Z"/><path class="cls-16" d="M213.86,54c1.34-3.11,11.18-.28,13.42.75,8.36,3.84,12.19,13.31,13.57,21.85,1.72,10.65-.44,19.29-4.47,29.08-2.4,5.83-2.26,11.1-1,17.16,0,0-38.91-9-31.41-41.78C206,72.44,213.84,54.1,213.86,54Z"/><path id="path28" class="cls-17" d="M200.19,179,186,190.83H158.93l-15.11-2.7L132.28,184l-10.83-3.33-9.58-10.42L104.36,149l-1.67-4.58-10-3.33-5.83-9.58L82.69,117.8l4.58-12.08L98.11,102l8.75,4.17L111,115.3l5-.83,1.67-2.08L116,102.8l-.42-12.08L118.11,74l-.1-9.52,7.6-12.15,13.33-9.58,23.33-10,25.83,3.75,22.5,16.25L221,69.46l6.67,12.08,1.67,30-5,25.83-9.17,22.92-8.75,12.08Z"/><path id="path32" class="cls-18" d="M87.28,105.71,98.11,102l8.75,4.17L111,115.3l5-.83,1.25-5-2.5-9.58L117.28,77l-2.08-12.5,7.5-8.75L138.94,42.8l-4.58-6.25L111.44,47.8l-9.58,7.5L96.44,67,88.11,78.21l-2.5,13.33,1.67,14.17"/><path id="path34" class="cls-19" d="M104.36,66.55s6.25-15.42,31.25-22.92,1.25-5.42,1.25-5.42L109.78,48.63,99.36,59l-4.58,8.33,9.58-.83"/><path id="path36" class="cls-19" d="M91.86,102.8s-8.75-29.17,24.58-33.33l-1.25-5L92.28,69.88,85.61,91.55l1.67,14.17,4.58-2.92"/><path id="path38" class="cls-20" d="M105.19,141.55l5.46-5.29a3.51,3.51,0,0,1,2.88,3.2c.42,2.92,1.67,29.17,19.58,43.33,1.63,1.29-13.33-2.08-13.33-2.08l-13.33-20.83"/><path id="path40" class="cls-20" d="M186.66,133.78s.82-10.68,3.7-9.86a4,4,0,0,1,2.88,3.7s-7,4.52-6.57,6.16"/><path id="path42" class="cls-20" d="M225.31,101.33s-5.9-16.27-17.34-.45c-2.74,8.24,7.49-.82,9.9-1.23Z"/><path id="path44" class="cls-20" d="M167.33,86.76c-11.16,0-16.47,11.89-16.47,20.73s20.13-.8,26.33-4.58C177.19,102.9,180.58,86.78,167.33,86.76Z"/><path id="path46" class="cls-20" d="M109.36,114.88s-15.83-9.58-17.5-.42-5.42,15.83,2.5,25.42l-5.42-1.67-5-12.92-1.67-12.5,9.58-10,10.83.83,6.25,5,.42,6.25"/><path id="path48" class="cls-20" d="M116.86,88.63S123.94,52,159.78,44.88c29.5-5.83,45,1.25,50.83,7.92,0,0-26.25-31.25-51.25-21.67S116,58.21,116.44,69.46c.71,19.16.42,19.17.42,19.17"/><path id="path50" class="cls-20" d="M226.42,84.27S209,80.1,200.6,91.39c0,0,21.44-5.15,25,1"/><path id="path52" class="cls-20" d="M188.05,81.85s-16.9-18.41-28.57-16.47C147.67,69,144.86,81.33,146.25,79.61s8.62-6.79,14.35-3.61C168,80.12,188.05,81.85,188.05,81.85Z"/><path id="path54" class="cls-21" d="M121.44,184.46,82.28,202s16.25,64.58,7.92,84.58l-5.83-2.08-.42-24.58L73.11,213.21,68.53,200.3l40.83-27.5,12.08,11.67"/><path id="path56" class="cls-21" d="M125.47,220.18,131,227v25h-6.67s-.83-17.5-.83-19.58.83-9.58.83-9.58"/><path id="path58" class="cls-21" d="M125.61,255.71l-16.75.83,5.42,3.75s8.49,0,11.33.08c19.91.52,79.58-2.44,79.58-2.44v-6.26Z"/><path id="path66" class="cls-21" d="M204.78,175.71l29.17,21.67.83-10L212.69,167l-7.92,8.75"/><path id="path80" class="cls-3" d="M143.82,189.13,128.28,185l-6.83-4.33v3.75l5.29,5.84,16.67,6.5"/><path id="path82" class="cls-19" d="M125.19,186.55s12.92,5.42,17.08,4.17l.41,5L131,193.22l-7.08-5,1.25-1.67"/><path id="path106" d="M213.76,130.95c-6.89,4.42-14.57,9.24-25.85,8.12a7.65,7.65,0,0,1-1-9.84c1.22,2.1.45,6,3.85,6.53,6.4,1.1,13.86-3.92,18.46-5.67,2.86-4.82-.25-6.59-2.82-9.69-5.27-6.35-12.33-14.22-12.08-23.73,2.13-1.54,2.31,2.36,2.62,3.07,2.75,6.44,9.67,14.67,14.73,20.18,1.24,1.36,3.28,2.66,3.51,3.56.66,2.61-1.7,5.73-1.43,7.47"/><path id="path108" class="cls-22" d="M106.51,124.77c-2.55-1.46-3.16-7.88-6.16-8.06-4.28-.26-3.5,8.33-3.49,13.35-2.95-2.68-3.47-10.92-1.3-15.15-2.47-1.21-3.57,1.34-4.94,2.24,1.76-12.79,18.71-5.93,15.89,7.63"/><polygon class="cls-3" points="206.19 251.68 209.4 286 222.49 281.15 217.36 250 206.19 251.68"/><path class="cls-23" d="M205.19,251.68l6.29-1.63,11.29-38-4.47-9.63,6.1-.67-11.53-30.64s-.64,15.88-2,28.11C208.3,222.51,205.19,251.68,205.19,251.68Z"/><path id="path130" d="M215.38,252.8c-2.08-.48-4.49,0-6.48,0,.93,9.29,3.19,19.54,4,29.29,3.12.1,4.79-1.37,7.36-1.87.14-8.56-.75-20.35-4.87-27.44Zm-89.32-68.73c-3.61,3.66,10.12,8.66,14.49,8.92,0-2.32,1.32-4.5,1-6.16C136.41,185.91,129.59,186.51,126.06,184.06ZM197,247.5m16.1-39.56M204,178.45m-9.4,110.23c4.38-.66,7.34-1.1,11.41-2-1.32-11-1.16-23.34-3.85-33.06-3.11,0-88.6,3.8-92.64,3.15,0-4.87,6.17-2.13,6.68-5.4.39-2.48-3.41-2.66-2.17-6.56,3.16,1.15,4.81,3.68,8.18,4.63,3.08-6.73,0-18.64.4-24.26.08-1.06.53-5.85,2.89-5,2.09.74-.12,12.75.11,18.08.21,4.9.41,10.65,2.39,13.73,16.59-2.26,32.46-.72,50.41-1.21,0,0,29.47.18,35.23-2.1,2.11-.83,4.63-9.65,6.22-13.51,4.38-10.61,9-24,11-34.1.46-2.31,1.72-7.33,1.44-9.38-.5-3.68-5.49-6.4-8-8.67-4.67-4.2-7.61-7.89-12.49-11.82-2,2.92-7.83,7.25-7.83,7.25s-17.37,23-56.83,19.49c-8-.71-20.93-5.92-27.14-10.34h0c-1.13-.81-8.8-10.78-9.85-10.36-13.87,5.47-26.83,14.92-38.42,23.87,11,23.71,15.51,52.75,16.29,80.74,12.66,5.92,23.77,14.45,40.94,15.34ZM93.56,76c-5.51,6.06-4.35,17.41-3.69,25.48,10-6.26,23.16.49,23,11.14,4.75-.13,1.77-5.93.92-9.68-2.81-12.22,4.73-25.5.34-36.67A30.2,30.2,0,0,0,93.56,76ZM133,40.83c-12.46,3.53-28.44,12.59-33.56,23.78,4-.58,6.72-2.58,10.63-2.82,1.48-.1,3.42.62,5.11.2,3.39-.84,6.24-8.43,8.8-11.26s5.48-3.94,7.53-6.45c1.32-.63,3.26-.59,3.34-2.57C134.24,41.1,133.64,40.63,133,40.83Zm27.53,141.34c-5.52-2.19-14.46-9-18.72-13.69-4.89-5.38-9.83-11.16-10.08-18.19,9.23,12.81,16.86,24,33.65,29.63,12.7,4.26,27.54-2,37.3-8.81,4.05-2.85,6.47-7.37,9.35-11.51,10.77-15.49,15.8-37.61,14.69-59-.45-8.84-.44-17.65-3.4-23.6-4.16-14.55-18-28.62-25.43-32.81h0c-12.94-7.3-34.83-12.79-48.59-5.93-11.1,5.54-26.11,14.7-31.23,26.3,4.78,11.2-1.42,21.46-1.81,32.84-.21,6.05,2.85,11.33,3.08,17.92-1.64,2.7-6.63,3-10.09,2.85-1.16-5.83-3.2-12.38-9.2-13-8.49-.93-14.7,6.1-15.09,13.44-.46,8.64,6.63,23,16.68,22,3.88-.38,4.84-4.27,9.06-4.24,2.29,4.57-3.54,6-4.14,9.28a26.28,26.28,0,0,0,.86,5.7c1.83,7.54,5.89,13.3,9.9,19,5.08,7.28,14.22,12.83,24.33,16.54,6,2.21,20.7,6.57,25.3,7.65,0,0,11.13-3.79,17.44-4.1,2.85-2.07,12.45-7.9,14.34-10.42-6.64,3.11-19,5.6-28.19,4.84C167.85,184.56,160.49,182.17,160.49,182.17Zm61.92,100.94c-3.32,4-4.13,1.28-8.61,3.61.42,4.2-2.35,4.09-5.08,4.74-15.52,3.66-64.93,11.75-80.55,11.18-13.86-.51-24.94-4.95-35.45-9.81-3.64-1.69-8.68-2.62-10-5.51s-.78-8.18-1.11-13.26c-.83-13-1.55-25.48-5-38.76-1.54-6-4.22-11.22-6.09-17-1.73-5.32-4.75-11.9-5.54-17.21-1.17-7.87,6.24-8.3,11-11.71,7.32-5.27,13.07-8.19,21-12.94,2.35-1.41,9.43-5,10.24-6.62,1.6-3.26-2.75-7.85-3.91-10.4A31.28,31.28,0,0,1,100.21,148a22.08,22.08,0,0,1-14.74-9.47c-5-7.39-8.53-21.05-4.17-31.45.34-.82,2-2.43,2.3-3.69.5-2.48-.93-5.77-1-8.4C82.12,81.47,84.86,69.83,94,65.75c3.69-14.71,16.91-19.6,29.36-26.91,4.65-2.73,9.79-4.48,15.09-6.43,19-7,48.18-5.68,64,6.25,6.69,5.06,17.38,15.74,21.21,23.48,10.1,20.42,9.38,54.55,2.32,79.39a79.91,79.91,0,0,1-4.25,12.24c-1.34,2.8-5.51,8.4-5,10.87s9.51,9.38,11.43,11.23c3.47,3.35,10.06,7.79,10.59,12,.57,4.49-2,10.64-3.27,15-4.33,14.47-11,33.86-15.87,46.76C219.51,249.62,228,276.42,222.41,283.11Z"/><path class="cls-23" d="M109.36,164.8s3.22,15,7.07,24.25c4.55,10.92,12.88,23.79,12.88,23.79l8.81-3.47-3.19,17.72,27.72,25.55,15.55-.62-39.65-64.46s-3.3-.19-11.12-5.35C122.94,179.22,109.36,164.8,109.36,164.8Z"/><path id="path132" class="cls-20" d="M159.37,146A17.88,17.88,0,0,1,179,142.23s-18.38,7.8-18,16.14C161,158.37,154.11,151.06,159.37,146Z"/><path class="cls-1" d="M201.37,192.44c.14,2.88-9.83,20.7-14.5,20.93S167.8,200.91,167.66,198s6.93-4.93,13.16-6.85S201.11,186.9,201.37,192.44Z"/><line class="cls-24" x1="183.9" y1="211.4" x2="199.04" y2="189.7"/><line class="cls-25" x1="171.38" y1="203.05" x2="179.19" y2="191.69"/><line class="cls-26" x1="176.99" y1="208.01" x2="190.13" y2="189.18"/><path class="cls-27" d="M201.34,191.86c.14,2.88-9.83,20.7-14.5,20.93s-19.08-12.45-19.21-15.33,6.93-4.93,13.16-6.85S201.08,186.32,201.34,191.86Z"/><g id="text5675" class="cls-28"><text class="cls-29" transform="translate(9.34 410.55)">Jenkins</text></g><path class="cls-30" d="M181.78,189.5l-20.09,23.82s-49.16-43-48.25-44.1c0,0,23.94,16.24,38.48,19.49C166.25,191.92,181.78,189.5,181.78,189.5Z"/><path class="cls-31" d="M185.35,188.37l25,8.63s4.56-28.52,2.07-28.78a150.44,150.44,0,0,1-10.75,11.95C199.53,182.18,185.35,188.37,185.35,188.37Z"/><path class="cls-32" d="M223.61,26.3s-3.51,8.41-7.9,8.32c-11-.22-2.69-15.56-38.27-24.42-29.39-7.32-43.74,8.91-43.74,8.91s-22.63-.19-29.19,6.22c-8.42,8.22-6.6,16.16-6.6,16.16s-17-3.3-24.33,23.06c-2,7.3,3.13,22.85,2,30.39-.46,3.23-3.77,12.5-3.77,12.5s9,13.88,21.72,12.55c4.31-.45,13.07-2.6,16.09-6.48.25,10.9,13.38,16.76,12.1,13.16-2-5.61-2.83-13.08-1-17.64,1.69-4.26,8.09-9.44,9.94-22.67.93-6.65-7.07-10.74-2.9-23.81,1.8-5.63,14.6-12.7,14.6-12.7s5.21,6.52,10.64,9.08c6.53,3.08,16.25,3.28,16.25,3.28s.75-4.49,6.49-6.2c4.38-1.31,13.61,1.59,18,2.92,14.06,4.26,36.6,5.22,39.31-7.92C236,36.56,223.61,26.3,223.61,26.3Z"/><path class="cls-33" d="M204.28,24.8s-12.12-19-50.76-16.21c-5.61.41-19.82,10.63-19.82,10.63s-22.63-.19-29.19,6.22c-8.42,8.22-6.6,16.16-6.6,16.16s-17-3.3-24.33,23.06c-2,7.3,3.13,22.85,2,30.39-.46,3.23-3.77,12.5-3.77,12.5s12.09,14.55,22.92,11.3c1.06-.32-9.65-3.52-11.74-9-3.54-9.31-3.11-33.38,12.83-27.7,4,1.44,9.47-1.92,9.76-7.89,1.13-23.38,11.16-36.9,36.71-24.57,4.08,2,.56-14.31,9.36-23,9.88-9.78,16.95-8.82,34.82,5.47C194.41,38.4,204.28,24.8,204.28,24.8Z"/><path class="cls-33" d="M169.49,47.91c-4.36,5,.36,12.75.36,12.75s-2.73-8.43,3.59-11c7.47-3,23.66,4.83,31.56,6a10,10,0,0,0,9.93-4.25s-5,7-25.92-1.89C182.73,46.82,173.85,42.93,169.49,47.91Z"/><path d="M141.46,51.61a33.29,33.29,0,0,0-16.08-4,20.57,20.57,0,0,0-8,1.64,13.81,13.81,0,0,0-6.06,5.09,23.06,23.06,0,0,0-2.89,7.88c-.59,2.84-.89,5.78-1.47,8.72a22.26,22.26,0,0,1-3.11,8.43,7.14,7.14,0,0,1-3.56,2.76,7.91,7.91,0,0,1-4.42,0,7.75,7.75,0,0,0,4.31-.28A6.66,6.66,0,0,0,103.3,79a21.39,21.39,0,0,0,2.37-8.28c.35-2.89.44-5.85.85-8.84A25.23,25.23,0,0,1,109.11,53a15.52,15.52,0,0,1,7-6.5,23.7,23.7,0,0,1,9.15-2.25,35.57,35.57,0,0,1,9.26.74,36.59,36.59,0,0,1,8.82,3Z"/><path class="cls-33" d="M109.67,93.56s6.77,6.88,16.65,4.35c3-.77,6-14.21,4.37-11.56C123.79,97.91,109.67,93.56,109.67,93.56Z"/><path class="cls-34" d="M223.61,26.33s-3.51,8.41-7.9,8.32c-11-.22-2.69-15.56-38.27-24.42-29.39-7.32-43.74,8.91-43.74,8.91s-22.63-.19-29.19,6.22c-8.42,8.22-6.6,16.16-6.6,16.16s-17-3.3-24.33,23.06c-2,7.3,3.13,22.85,2,30.39-.46,3.23-3.77,12.5-3.77,12.5s9,13.88,21.72,12.55c4.31-.45,13.07-2.6,16.09-6.48.25,10.9,13.38,16.76,12.1,13.16-2-5.61-2.83-13.08-1-17.64,1.69-4.26,8.09-9.44,9.94-22.67.93-6.65-7.07-10.74-2.9-23.81,1.8-5.63,14.6-12.7,14.6-12.7s5.21,6.52,10.64,9.08c6.53,3.08,16.25,3.28,16.25,3.28s.75-4.49,6.49-6.2c4.38-1.31,13.61,1.59,18,2.92,14.06,4.26,36.6,5.22,39.31-7.92C236,36.58,223.61,26.33,223.61,26.33Z"/><path class="cls-33" d="M157.4,40.71c-6.75,9.88,6,19.22,6,19.22S154,43.67,165.71,39.7c7.63-2.59,16.07.28,22.61,1.72,4.59,1,11.79.48,11.79.48s-6.33,1.33-21-5.45C172.94,33.58,161.13,35.24,157.4,40.71Z"/><line class="cls-34" x1="133.71" y1="19.12" x2="142.39" y2="49.85"/><path d="M167.58,63.24a20.7,20.7,0,0,1-3-9.41,9.55,9.55,0,0,1,5.11-8.89,10.86,10.86,0,0,1,5-.91,23.12,23.12,0,0,1,4.73.72,72.31,72.31,0,0,1,8.75,2.94c2.84,1.11,5.63,2.26,8.46,3.29a47.37,47.37,0,0,0,8.64,2.42,16.73,16.73,0,0,0,4.42.14,8.86,8.86,0,0,0,4.1-1.48,9.16,9.16,0,0,0,2.86-3.37,16.72,16.72,0,0,0,1.48-4.27,16.84,16.84,0,0,1-1.27,4.37,9,9,0,0,1-7.07,5.43,17.52,17.52,0,0,1-4.64.09,48.43,48.43,0,0,1-9-2c-2.92-.9-5.78-1.92-8.65-2.87A70.46,70.46,0,0,0,178.93,47c-2.84-.55-5.87-.75-8.05.42A5.66,5.66,0,0,0,168.45,50a6.93,6.93,0,0,0-.59,3.62,17.32,17.32,0,0,0,3.13,7.5Z"/><path d="M160.3,62.25A36.24,36.24,0,0,1,155,54.57a15.31,15.31,0,0,1-1.4-4.77,13.07,13.07,0,0,1,.41-5,16.32,16.32,0,0,1,2-4.41,14.49,14.49,0,0,1,3.19-3.66,12.52,12.52,0,0,1,4.33-2.24,16.15,16.15,0,0,1,4.71-.59,33.6,33.6,0,0,1,9,1.6c2.87.86,5.66,1.91,8.43,2.94a78.53,78.53,0,0,0,8.4,2.77,17.08,17.08,0,0,0,4.35.56,6.2,6.2,0,0,0,4.07-1.42A6.33,6.33,0,0,1,198.38,42a17.43,17.43,0,0,1-4.47-.32,79.14,79.14,0,0,1-8.62-2.31c-2.83-.87-5.65-1.76-8.5-2.44a31.94,31.94,0,0,0-8.55-1.05,11.49,11.49,0,0,0-7.45,2.74,11.87,11.87,0,0,0-2.44,3.16,13.46,13.46,0,0,0-1.46,3.73A10.49,10.49,0,0,0,158.1,53a32.92,32.92,0,0,0,5.19,6.59Z"/><path d="M140.42,49.51a86.49,86.49,0,0,1,2.44-9.43q.74-2.32,1.65-4.59a32.37,32.37,0,0,1,2.15-4.5,24.15,24.15,0,0,1,6.66-7.48,20.34,20.34,0,0,1,9.25-3.72,20.86,20.86,0,0,1,5-.06,14.52,14.52,0,0,1,4.81,1.43,37.77,37.77,0,0,1,7.86,5.63c2.41,2.06,4.74,4.24,7.54,5.66a8,8,0,0,0,8.85-.67,8.8,8.8,0,0,1-4.33,1.93,9,9,0,0,1-4.73-.81c-3-1.32-5.44-3.43-7.95-5.35a36.7,36.7,0,0,0-7.85-5.05,12.92,12.92,0,0,0-4.34-1.06,19,19,0,0,0-4.52.29,18.12,18.12,0,0,0-8.07,3.74,21.45,21.45,0,0,0-5.57,6.95,28.36,28.36,0,0,0-1.73,4.19q-.74,2.2-1.32,4.45a82.78,82.78,0,0,0-1.82,9.13,2,2,0,1,1-4-.56Z"/><path d="M107.78,93.67a27.93,27.93,0,0,0,6.63.39,21.31,21.31,0,0,0,6.32-1.3,13.14,13.14,0,0,0,8.08-8.46l3.68,1.57a17.16,17.16,0,0,1-4.65,5.77,16.11,16.11,0,0,1-6.54,3,22.81,22.81,0,0,1-6.91.38A28.42,28.42,0,0,1,107.78,93.67Z"/><path d="M82.23,108.79a19,19,0,0,0,4,4.89,16,16,0,0,0,5.32,3.09,15.14,15.14,0,0,0,5.9.84l.74,0c.25,0,.49-.07.74-.1l1.47-.23c1-.2,1.93-.53,2.88-.77l1,3.88c-1.16.13-2.3.32-3.46.37H99.11c-.29,0-.58,0-.87,0l-.87-.11a17.82,17.82,0,0,1-11.8-6.22A19.45,19.45,0,0,1,82.23,108.79Z"/><path d="M93.86,51.32A14.91,14.91,0,0,0,96,49.14a8.72,8.72,0,0,0,1.43-2.46,3.84,3.84,0,0,0,.17-2.31,4.05,4.05,0,0,0-1.19-1.67l3.2-2.41a7.37,7.37,0,0,1,1,3.93,6.43,6.43,0,0,1-1.44,3.47,10.26,10.26,0,0,1-2.48,2.19A15.41,15.41,0,0,1,93.86,51.32Z"/><path class="cls-35" d="M149.82,77.08s4.5-5.93,8.8-6.72,10,2.08,13.71,4.55a100.4,100.4,0,0,0,12.22,6.58,36.47,36.47,0,0,1-19-2.92C158.71,75.39,149.82,77.08,149.82,77.08Z"/><path class="cls-35" d="M204.67,91.66s14.44-4.64,20.25-2.78a6.87,6.87,0,0,1,5,8.44s-3.07.22-7.88-2.24C216.71,92.39,210.07,93,204.67,91.66Z"/><path id="path114" d="M171.64,147.58c3.93,9.86,17.42,8.72,28.8,8.45a6.09,6.09,0,0,1-2.94,3.34c-3.65,1.48-13.7,2.61-18.77-.08-3.21-1.71-5.27-5.56-7-7.82-.85-1.09-5.08-3.88-.06-3.89"/><path class="cls-3" d="M156.72,104.9c2,2.55,4.33,8.32,8.22,9,5,.86,11.41-2.79,13.45-6.1s1.59-8.23.48-11.46-2.14-3.45-6.41-3.87c-3.9-.39-4-.72-7,1.34C160.11,97.53,159.09,99.87,156.72,104.9Z"/><path d="M163.16,95.64c12.31-2.11,15.44,16.14,3.13,18.25S150.85,97.75,163.16,95.64Z"/><path class="cls-3" d="M170.67,102.26c5-2.27,8.48.76,3.18,3.34C168.29,108.31,164.09,104.84,170.67,102.26Z"/><path d="M177.44,93.23c-5.95.09-11.43,1.9-15.21,5.59-.74.72-3.83,6.45-4.45,6.64-2.77.85-2.3-3.21-2.16-3.86.91-4.24,6-8.8,11.26-10.92,3.28-1.33,13.56-2.14,10.57,2.55"/><path d="M224.39,105.58a11.91,11.91,0,0,0-11.54-1.2c-.77.33-5.19,4.09-5.64,4-2-.37.09-3.72.47-4.23,2.45-3.33,7.56-5.26,11.61-5,2.55.15,9,3.55,5.1,6.44"/><path d="M219.62,109.27a8.35,8.35,0,0,0-7.48-3.2c-.58.07-4.32,1.66-4.61,1.52-1.28-.66.83-2.47,1.19-2.74a10.08,10.08,0,0,1,8.82-1c1.68.63,5.29,4.24,2.08,5.38"/><path class="cls-36" d="M161.59,151.47c-1.14,2.19-1.38,5.85.5,7.06,5.86,3.8,17.53-7.34,27-6.75,12,.75,16.41,7.31,21.82,6.1a4.72,4.72,0,0,0,3.05-5.75c-2.3-7.07-17.59-10-23.86-10.15C182.71,141.76,165.53,143.89,161.59,151.47Z"/><path class="cls-33" d="M195.28,142.06s20,4.78,18.74,12.42c-1.16,6.83-13.21.75-13.21.75s6.32-.23,5.5-3.64C205.35,147.63,195.28,142.06,195.28,142.06Z"/><path class="cls-9" d="M161.59,151.47c-1.14,2.19-1.38,5.85.5,7.06,5.86,3.8,17.53-7.34,27-6.75,12,.75,16.41,7.31,21.82,6.1a4.72,4.72,0,0,0,3.05-5.75c-2.3-7.07-17.59-10-23.86-10.15C182.71,141.76,165.53,143.89,161.59,151.47Z"/><path id="path118" d="M244,262.58c-5.32,1.06-9.05,6.23-14.24,5.9,2.85-4,7.84-5.71,14.24-5.9"/><path id="path120" d="M244.31,271.93c-4.23,1.06-9.17,2.46-13.57,2.72,1.62-3.44,9.71-3.47,13.57-2.72"/><path id="path122" d="M242.85,278.2a109.47,109.47,0,0,0-13.55.43c2.74,3.29,10.39,1.22,13.55-.43"/></svg>