<?xml version="1.0" encoding="UTF-8" standalone="no"?>
<!DOCTYPE svg PUBLIC "-//W3C//DTD SVG 1.1//EN" "http://www.w3.org/Graphics/SVG/1.1/DTD/svg11.dtd">
<svg width="100%" height="100%" viewBox="0 0 612 794" version="1.1" xmlns="http://www.w3.org/2000/svg" xmlns:xlink="http://www.w3.org/1999/xlink" xml:space="preserve" xmlns:serif="http://www.serif.com/" style="fill-rule:evenodd;clip-rule:evenodd;">
    <g id="Layer-1-Copy" serif:id="Layer 1 Copy" transform="matrix(1.84704,0,0,1.84704,-166.823,-62.0441)">
        <path id="path8" d="M405.34,252.259C405.34,337.066 338.126,405.816 255.213,405.816C172.301,405.816 105.087,337.066 105.087,252.259C105.087,167.45 172.301,98.698 255.213,98.698C338.126,98.698 405.34,167.45 405.34,252.259" style="fill:rgb(23,84,50);fill-rule:nonzero;stroke:black;stroke-opacity:0;stroke-width:1px;"/>
        <path id="path10" d="M111.204,290.29C111.204,290.29 100.336,130.155 247.891,125.579L237.597,108.421L157.529,135.302L134.652,161.609L114.636,199.929L103.197,244.538L106.628,274.277" style="fill:rgb(84,158,46);fill-rule:nonzero;stroke:black;stroke-opacity:0;stroke-width:1px;"/>
        <path id="path12" d="M152.389,147.504C126.049,174.455 109.749,211.666 109.749,252.832C109.749,293.989 126.049,331.205 152.389,358.151C178.742,385.097 215.06,401.724 255.211,401.724C295.363,401.724 331.683,385.097 358.034,358.151C384.372,331.205 400.675,293.989 400.675,252.832C400.675,211.666 384.372,174.455 358.034,147.504C331.683,120.564 295.363,103.937 255.211,103.933C215.06,103.937 178.742,120.564 152.389,147.504ZM145.721,364.669C117.728,336.041 100.422,296.475 100.422,252.832C100.422,209.182 117.728,169.62 145.721,140.99C173.708,112.354 212.449,94.605 255.211,94.61C297.972,94.605 336.717,112.354 364.699,140.99C392.695,169.62 410.003,209.185 410,252.832C410.003,296.475 392.695,336.041 364.699,364.669C336.717,393.303 297.972,411.051 255.211,411.051C212.449,411.051 173.708,393.303 145.721,364.669" style="fill-rule:nonzero;"/>
    </g>
    <g transform="matrix(1,0,0,1,0,50)">
        <g>
            <path d="M342.29,505.62L233.28,510L233.28,528.38L242.47,592.3L238.1,597.55L161.93,571.72L156.67,562.53L149.23,476.29L131.72,424.19L127.78,411.93L188.63,369.91L207.89,362.46L224.46,378.7L333.88,396.03L392.56,348.29L406.33,362.46L429.54,389.23L395.27,500.68L342.29,505.62Z" style="fill-rule:nonzero;"/>
            <g transform="matrix(-2.70691,-6.66134e-16,-2.22045e-16,2.70691,495.252,698.774)">
                <path d="M0,-58.358C-16.334,-58.56 -29.893,-45.432 -30.191,-29.1C-30.405,-17.462 -11.852,-1.233 -10.491,-1.233L-3.19,-0.254C0.204,0.202 3.651,0.069 7.001,-0.647L9.738,-1.233C11.079,-1.233 29.443,-17.116 29.443,-28.541C29.443,-44.884 16.296,-58.157 0,-58.358" style="fill:rgb(118,46,0);fill-rule:nonzero;"/>
            </g>
            <g transform="matrix(-2.70691,-6.66134e-16,-2.22045e-16,2.70691,542.697,400.081)">
                <path d="M0,57.409C4.44,53.776 7.367,48.644 8.569,43.064C9.775,37.468 9.41,31.631 8.31,26.05C7.678,22.847 6.776,19.66 5.609,16.611C5.055,15.16 4.333,13.83 3.679,12.431C2.42,9.74 1.609,6.704 1.92,3.715C1.963,3.306 2.026,2.9 2.113,2.498C2.245,1.893 3.141,0 4.067,0.618C5.5,1.574 8.047,4.417 12.02,8.07C16.848,12.511 22.752,15.36 27.704,14.797C28.438,14.713 28.998,15.445 28.733,16.136C26.305,22.464 19.076,45.06 34.17,57.409" style="fill:rgb(118,46,0);fill-rule:nonzero;"/>
            </g>
            <g transform="matrix(-1.33247,-2.35624,2.35624,-1.33247,464.675,399.964)">
                <path d="M-13.386,-7.851C-14.536,-7.951 -18.421,-1.641 -16.28,6.889C-14.284,14.833 -14.848,22.713 -13.386,22.085C-10.824,20.984 -14.489,15.97 -12.315,7.141C-9.49,-4.335 -12.237,-7.751 -13.386,-7.851" style="fill:rgb(148,68,29);fill-rule:nonzero;"/>
            </g>
            <g transform="matrix(-2.70691,-6.66134e-16,-2.22045e-16,2.70691,473.5,541.428)">
                <path d="M0,-26.117C0,-26.117 6.684,-29.374 11.182,-26.488C15.715,-23.581 16.718,-16.263 10.324,-8.568C3.931,-0.873 4.569,1.571 5.707,3.083C7.408,5.344 10.636,4.509 10.324,2.465C10.013,0.421 7.152,-0.013 11.182,-4.794C15.798,-10.27 18.946,-16.866 18.303,-21.243C17.364,-27.631 12.74,-31.461 4.81,-31.026C3.082,-30.931 1.713,-30.73 0.99,-29.892C-0.051,-28.684 0,-26.117 0,-26.117" style="fill:rgb(118,46,0);fill-rule:nonzero;"/>
            </g>
            <g transform="matrix(-3.08763,-9.08127e-16,-2.53275e-16,3.69027,426.514,673.435)">
                <path d="M0,-18.955C0.109,-21.607 -3.42,-22.62 -4.699,-20.295C-6.95,-16.206 -10.63,-11.534 -16.373,-9.079C-25.381,-5.227 -29.916,0.833 -27.261,2.249C-24.605,3.665 -15.436,2.389 -9.915,-1.291C-4.259,-5.062 -0.298,-11.689 0,-18.955" style="fill:rgb(160,78,45);fill-opacity:0.32;fill-rule:nonzero;"/>
            </g>
            <g transform="matrix(-2.70691,-6.66134e-16,-2.22045e-16,2.70691,429.18,675.867)">
                <path d="M0,-18.955C0.109,-21.607 -3.42,-22.62 -4.699,-20.295C-6.95,-16.206 -10.63,-11.534 -16.373,-9.079C-25.381,-5.227 -29.916,0.833 -27.261,2.249C-24.605,3.665 -15.436,2.389 -9.915,-1.291C-4.259,-5.062 -0.298,-11.689 0,-18.955" style="fill:rgb(148,68,29);fill-rule:nonzero;"/>
            </g>
            <path d="M365.68,372.47L324,411.6L307.2,391.16L271.18,385.51L239.86,378.97L220.16,372.85L202.65,353.58L189.08,314.62L186.01,306.3L167.63,300.17L157.12,282.66L149.68,257.27L158,234.95L177.69,227.94L193.89,235.38L201.34,252.02L210.53,250.71L213.59,246.77L210.53,229.25L209.65,206.93L214.03,176.28L214.03,158.77L228.04,136.45L252.56,118.94L295.46,100.55L342.74,107.55L383.89,137.32L403.15,167.97L415.41,190.29L418.47,245.45L409.28,292.73L392.64,334.76L376.44,357.08L365.68,372.47Z" style="fill:rgb(237,212,183);fill-rule:nonzero;"/>
            <path d="M157.56,235.82L177.26,228.82L193.46,236.26L200.9,252.9L210.09,251.58L212.28,242.39L207.9,224.88L212.28,182.85L208.34,160.09L221.91,143.89L251.68,120.25L243.36,108.87L201.34,129.44L183.82,143.01L173.76,164.47L158.43,185.04L154.06,209.56L157.56,235.82Z" style="fill-rule:nonzero;"/>
            <path d="M188.64,164.46C188.64,164.46 200,136 246,122.44C292,108.88 248.19,112.37 248.19,112.37L198.72,131.63L179.46,150.89L171.14,166.21L188.65,164.46" style="fill:rgb(16,17,16);fill-rule:nonzero;"/>
            <path d="M165.88,230.57C165.88,230.57 149.68,177.16 210.97,169.72L208.78,160.53L166.78,170.6L154.52,210.44L157.58,236.27L165.9,230.58" style="fill:rgb(16,17,16);fill-rule:nonzero;"/>
            <path d="M190.39,301.49L200.46,291.86C200.46,291.86 204.84,292.3 205.71,297.55C206.58,302.8 208.78,350.96 241.61,376.79C244.67,378.98 217.09,372.85 217.09,372.85L192.58,334.76" style="fill:rgb(245,226,204);fill-rule:nonzero;"/>
            <path d="M330.48,287C330.48,287 332.23,263.8 338.36,265.55C341.895,266.554 344.386,269.757 344.49,273.43C344.594,277.103 329.61,283.5 330.49,287" style="fill:rgb(245,226,204);fill-rule:nonzero;"/>
            <path d="M394,202.55C394,202.55 381.3,205.18 380.43,216.12C379.12,227.06 394,218.31 396.63,217.43" style="fill:rgb(245,226,204);fill-rule:nonzero;"/>
            <path d="M301.59,203.43C301.59,203.43 285,205.62 285,216.56C285,227.07 304.26,226.63 309.51,221.81" style="fill:rgb(245,226,204);fill-rule:nonzero;"/>
            <path d="M197.83,252.89C197.83,252.89 168.94,235.38 165.83,252.01C162.72,268.64 155.76,280.9 170.21,298.41L160.14,295.34L151,271.72L147.93,249L165.44,230.61L185.14,231.92L196.52,241.11L197.83,252.93" style="fill:rgb(245,226,204);fill-rule:nonzero;"/>
            <path d="M211.4,204.74C211.4,204.74 224.53,137.74 290.2,124.63C344.05,114.12 372.5,126.82 383.45,139.08C383.45,139.08 335.29,81.73 289.77,99.24C243.77,116.75 210.53,148.71 210.97,169.24C212.28,204.7 211.41,204.7 211.41,204.7" style="fill:rgb(245,226,204);fill-rule:nonzero;"/>
            <path d="M388.7,146.52C388.7,146.52 366.37,145.64 365.94,165.78C366.003,167.886 366.447,169.963 367.25,171.91C368.053,173.857 384.76,152.21 395.71,162.72" style="fill:rgb(245,226,204);fill-rule:nonzero;"/>
            <path d="M292,174.1C292,174.1 288,143.45 262.19,161.4C245.55,172.78 246.86,189 249.93,192C253,195 252.12,201.19 254.31,196.82C256.5,192.45 256.06,178.87 264.38,174.93C272.7,170.99 286.27,167.05 291.96,174.05" style="fill:rgb(245,226,204);fill-rule:nonzero;"/>
            <path d="M381.7,566.34L411.47,558.02L467.94,554.96L476.26,529.13L460.94,484.04L443.43,481.85L418.41,486.29L395.27,500.68L383.01,498.49L373.38,502.43" style="fill:rgb(237,212,183);fill-rule:nonzero;"/>
            <path d="M381.26,551C381.26,551 401,541.83 404,542.7L395.68,500.7L405.75,496.76C405.75,496.76 412.75,536.6 412.75,540.97C412.75,540.97 455.65,543.16 459.15,543.16C459.15,543.16 468.34,525.65 466.15,507.26L474.47,531.77L475.35,545.34L463.09,563.73L449.52,566.79L426.76,565.91L419.32,555.84L392.62,559.78L384.3,562.84" style="fill:rgb(245,226,204);fill-rule:nonzero;"/>
            <path d="M292,174.1C271,169.29 260.92,182.86 254.35,196.86C248.66,195.55 250.85,187.67 252.6,183.73C256.54,173.66 271.42,159.65 283.68,161.84C288.5,162.72 295.94,167.53 292,174.1" style="fill-rule:nonzero;"/>
            <path d="M393.08,197.74L394,197.74C398.82,207.37 402.76,217.88 408.88,226.63C404.94,235.82 378.67,244.14 379.11,227.51C384.8,224.88 394.43,227.07 399.69,224.01C396.62,215.69 392.69,209.13 393.12,197.74" style="fill-rule:nonzero;stroke:rgb(32,22,0);stroke-width:1px;stroke-linejoin:round;stroke-miterlimit:2;"/>
            <path d="M302.46,197.74C306.84,206.06 308.59,214.38 314.72,220.5C317.78,223.13 323.04,226.63 320.41,234.5C319.97,236.25 315.16,240.19 312.53,241.07C302.46,244.13 279.7,241.51 287.14,229.25C295.46,229.69 306.4,234.5 312.53,228.81C307.71,221.37 299.4,206.48 302.46,197.73" style="fill-rule:nonzero;stroke:rgb(32,22,0);stroke-width:1px;stroke-linejoin:round;stroke-miterlimit:2;"/>
            <path d="M389.58,280.91C374.7,290.54 358.06,301.05 333.58,298.42C328.33,294.04 326.58,283.97 331.39,276.97C334.02,281.35 332.27,289.66 339.71,290.97C353.71,293.16 369.92,282.65 379.55,278.71C385.68,268.2 379.11,264.26 373.42,257.71C362.04,244.14 346.72,227.07 347.15,206.49C351.97,202.99 351.97,211.74 352.84,213.06C358.97,227.06 373.84,245.06 384.84,256.84C387.47,259.9 391.84,262.53 392.28,264.72C394.03,270.41 388.78,277.42 389.65,280.92" style="fill-rule:nonzero;stroke:rgb(32,22,0);stroke-width:1px;stroke-linejoin:round;stroke-miterlimit:2;"/>
            <path d="M192.58,270.84C187.76,268.21 186.89,256.39 181.2,255.96C173.32,255.52 174.63,271.28 174.63,280.48C169.38,275.66 168.06,260.34 172.44,252.9C168.06,250.71 165.87,255.53 163.25,256.84C166.75,233.64 197.83,245.9 192.58,270.84" style="fill:rgb(32,22,0);fill-rule:nonzero;"/>
            <path d="M398.77,291C391.77,304.13 382.13,318.58 361.56,319C361.12,314.62 360.69,308.06 361.56,305.87C377.32,304.12 386.95,296.24 398.77,290.99" style="fill-rule:nonzero;"/>
            <path d="M301.15,299.3C314.28,306.3 337.92,306.74 355.87,306.3C356.75,310.24 356.75,315.06 356.75,319.87C333.99,320.75 307.28,315.49 301.15,299.29" style="fill-rule:nonzero;"/>
            <path d="M299,312C308.19,334.76 338.84,332.14 365.1,331.26C363.79,334.33 361.6,337.83 358.53,338.7C350.21,342.2 327.01,344.83 315.63,338.7C308.19,334.76 303.37,326 299.43,320.75C296.8,318.56 287.17,311.99 298.99,311.99" style="fill-rule:nonzero;stroke:rgb(32,22,0);stroke-width:1px;stroke-linejoin:round;stroke-miterlimit:2;"/>
            <path d="M445.18,501.55C433.36,503.74 425.04,515.55 413.66,514.68C419.79,505.92 430.73,501.98 445.18,501.55" style="fill:rgb(32,22,0);fill-rule:nonzero;"/>
            <path d="M218,377.68L149.12,408.34C147.447,409.082 146.534,410.93 146.96,412.71C151.33,430.85 172.88,524.29 161.96,560.78C161.476,562.384 159.988,563.488 158.313,563.488C157.851,563.488 157.392,563.404 156.96,563.24L152.53,561.58C151.07,561.032 150.087,559.64 150.06,558.08L149.24,515.98C149.233,515.717 149.2,515.456 149.14,515.2L129.58,430.43C129.548,430.291 129.508,430.154 129.46,430.02L122.19,409.37C121.618,407.736 122.225,405.908 123.66,404.94L193.49,357.94C194.987,356.935 197.001,357.12 198.29,358.38L218,377.68" style="fill:rgb(16,17,16);fill-rule:nonzero;"/>
            <path d="M225.48,510.64L202.72,511.52C200.698,511.62 199.088,513.311 199.088,515.335C199.088,517.187 200.435,518.786 202.26,519.1L225.92,522.9" style="fill:rgb(16,17,16);fill-rule:nonzero;"/>
            <path d="M346.82,504.68L375.27,503.8L382.28,573.85L353.38,577.79L346.82,504.68Z" style="fill-rule:nonzero;"/>
            <path d="M369.95,497.51L346.95,502.04C344.923,502.45 343.579,504.436 343.95,506.47L346.79,521.92C347.073,523.441 348.269,524.637 349.79,524.92C359.88,526.71 373.94,516.72 373.94,516.72" style="fill:rgb(16,17,16);fill-rule:nonzero;"/>
            <path d="M450.43,519.94C440.8,520.82 429.43,522.57 419.79,521.69C424.17,514.69 442.12,517.31 450.43,519.94" style="fill:rgb(32,22,0);fill-rule:nonzero;"/>
            <path d="M453.49,536.14C441.956,536.509 430.41,536.215 418.91,535.26C425.04,528.69 446.49,532.63 453.49,536.14" style="fill:rgb(32,22,0);fill-rule:nonzero;"/>
            <path d="M372,503.29C381.35,501.76 389.17,501.16 398.38,498.95C401.697,516.066 404.154,533.338 405.74,550.7C406.61,559.3 405.42,565.54 396.51,569.02C388.01,572.34 388.38,570.46 379.83,573.65C380.7,550.27 375.2,526.46 372.01,503.28" style="fill:white;fill-rule:nonzero;"/>
            <g transform="matrix(-0.0581665,-2.03279,-2.29226,0.065591,859.889,687.048)">
                <path d="M96.697,274.408C79.774,272.153 69.765,273.25 56.252,270.367C42.622,267.459 36.365,267.273 23.764,263.22C23.764,245.622 21.518,238.957 21.518,219.795C38.634,219.717 41.991,219.768 56.599,220.407C71.428,221.055 83.925,219.779 96.847,222.813C98.199,242.71 98.485,256.734 96.697,274.408Z" style="fill:white;fill-rule:nonzero;"/>
            </g>
            <g transform="matrix(-0.0581665,-2.03279,-2.29226,0.065591,859.889,687.048)">
                <path d="M63.08,221.439C58.904,220.884 55.178,221.63 51.168,220.785C50.347,239.647 50.004,252.28 49.248,269.645C51.112,270.019 53.451,269.965 55.314,270.363C57.213,270.767 58.113,270.616 60.018,270.998C61.008,253.725 62.003,240.234 63.08,221.439Z" style="fill:rgb(233,29,36);fill-rule:nonzero;"/>
            </g>
            <g transform="matrix(-0.0581665,-2.03279,-2.29226,0.065591,859.889,687.048)">
                <path d="M20.638,251.926C20.638,247.482 20.596,243.935 20.596,239.421C36.262,233.182 41.892,238.69 56.049,241.801C70.078,244.885 84.183,247.969 99.981,241.951C99.522,246.486 99.295,248.735 98.843,253.199C83.254,259.054 69.33,256.041 55.48,253.027C41.506,249.987 36.786,246.858 20.638,251.926Z" style="fill:rgb(233,29,36);fill-rule:nonzero;"/>
            </g>
            <g transform="matrix(-0.0581665,-2.03279,-2.29226,0.065591,859.889,687.048)">
                <path d="M82.407,236.414L82.431,236.414L82.434,236.422L82.407,236.414ZM79.743,236.381L79.746,236.373L79.77,236.374L79.743,236.381ZM87.12,232.88C86.577,233.224 83.313,233.671 82.775,233.713C82.849,233.198 83.311,230.081 83.639,229.574C83.639,229.574 82.527,229.757 81.614,229.743C80.701,229.729 79.621,229.515 79.621,229.515C79.869,230.03 79.837,233.153 79.83,233.669C79.3,233.611 76.113,233.107 75.626,232.763C75.626,232.763 75.704,233.834 75.64,234.707C75.577,235.578 75.347,236.601 75.347,236.601C75.873,236.396 79.078,236.498 79.612,236.493C79.54,237.001 79.096,240.056 78.776,240.524C78.776,240.524 79.866,240.438 80.768,240.452C81.67,240.466 82.744,240.583 82.744,240.583C82.499,240.107 82.538,237.047 82.547,236.537C83.078,236.558 86.297,236.514 86.791,236.719C86.791,236.719 86.723,235.696 86.797,234.824C86.872,233.951 87.12,232.88 87.12,232.88Z" style="fill:rgb(233,29,36);fill-rule:nonzero;"/>
            </g>
            <g transform="matrix(-0.0581665,-2.03279,-2.29226,0.065591,859.889,687.048)">
                <path d="M32.88,228.876L32.905,228.877L32.908,228.886L32.88,228.876ZM30.197,228.846L30.2,228.837L30.224,228.837L30.197,228.846ZM33.096,226.127C33.141,225.603 33.428,222.433 33.729,221.943C33.729,221.943 32.622,222.034 31.703,222.02C30.783,222.006 29.681,221.885 29.681,221.885C29.96,222.383 30.107,225.559 30.13,226.084C29.592,226.062 26.347,226.11 25.835,225.9C25.835,225.9 25.975,226.949 25.961,227.84C25.947,228.728 25.774,229.813 25.774,229.813C26.293,229.465 29.534,229.011 30.071,228.968C30.028,229.49 29.755,232.624 29.46,233.129C29.46,233.129 30.554,232.946 31.462,232.96C32.371,232.974 33.456,233.187 33.456,233.187C33.183,232.675 33.048,229.534 33.028,229.012C33.563,229.07 36.785,229.58 37.289,229.928C37.289,229.928 37.163,228.842 37.188,227.954C37.214,227.063 37.4,226.013 37.4,226.013C37.012,226.169 35.121,226.153 33.954,226.137C33.551,226.131 33.234,226.125 33.096,226.127Z" style="fill:rgb(233,29,36);fill-rule:nonzero;"/>
            </g>
            <g transform="matrix(-0.0581665,-2.03279,-2.29226,0.065591,859.889,687.048)">
                <path d="M80.241,268.276L80.264,268.276L80.266,268.284L80.241,268.276ZM77.673,268.241L77.677,268.233L77.7,268.234L77.673,268.241ZM80.587,265.769C80.657,265.291 81.093,262.398 81.408,261.928C81.408,261.928 80.338,262.097 79.458,262.082C78.579,262.067 77.538,261.868 77.538,261.868C77.778,262.344 77.756,265.244 77.75,265.723C77.239,265.668 74.168,265.195 73.697,264.874C73.697,264.874 73.775,265.869 73.717,266.679C73.658,267.488 73.439,268.437 73.439,268.437C73.811,268.298 75.577,268.316 76.692,268.333C77.094,268.339 77.411,268.345 77.547,268.344C77.479,268.816 77.06,271.653 76.753,272.087C76.753,272.087 77.803,272.009 78.672,272.024C79.541,272.038 80.577,272.149 80.577,272.149C80.339,271.707 80.369,268.864 80.375,268.391C80.887,268.411 83.989,268.376 84.465,268.567C84.465,268.567 84.396,267.617 84.465,266.807C84.534,265.997 84.77,265.003 84.77,265.003C84.248,265.322 81.105,265.73 80.587,265.769Z" style="fill:rgb(233,29,36);fill-rule:nonzero;"/>
            </g>
            <g transform="matrix(-0.0581665,-2.03279,-2.29226,0.065591,859.889,687.048)">
                <path d="M87.805,273.781C83.818,273.126 66.666,271.829 60.215,271.502C60.42,267.891 60.627,264.212 60.836,260.48C61.123,260.48 61.409,260.48 61.694,260.477L61.888,260.477C65.67,260.477 67.895,261.056 71.117,263.136C72.213,263.843 73.293,264.504 74.37,265.112C74.051,265.03 73.805,264.948 73.697,264.874C73.697,264.874 73.775,265.869 73.717,266.679C73.658,267.488 73.439,268.437 73.439,268.437C73.687,268.344 74.556,268.321 75.438,268.321C75.878,268.321 76.321,268.327 76.692,268.333C77.064,268.338 77.363,268.344 77.514,268.344L77.547,268.344C77.479,268.816 77.06,271.653 76.753,272.087C76.753,272.087 77.63,272.022 78.445,272.022C78.521,272.022 78.597,272.022 78.672,272.024C79.541,272.038 80.577,272.149 80.577,272.149C80.339,271.707 80.369,268.864 80.375,268.391C80.573,268.398 81.159,268.398 81.831,268.406C84.298,269.167 86.899,269.638 89.773,269.773C90.244,269.795 90.714,269.806 91.185,269.806C93.201,269.806 95.218,269.606 97.22,269.237C97.161,269.822 97.102,270.405 97.042,270.992C93.52,271.857 91.495,274.388 87.805,273.781ZM22.248,264.026L21.518,219.795C21.536,219.787 20.364,218.406 22.81,217.826C26.337,222.804 24.731,228.546 26.392,234.29C26.79,235.664 28.965,235.658 29.418,236.974C24.388,237.3 25.477,237.247 20.145,239.37C20.145,243.884 20.29,246.138 20.29,250.582C27.562,250.764 24.923,249.514 31.018,249.514C31.839,249.514 32.656,249.531 33.472,249.563C34.197,250.485 34.989,251.379 35.859,252.242C39.751,256.099 44.262,258.2 49.286,259.36C49.156,262.415 49.027,265.43 48.899,268.402C45.587,267.868 42.232,267.628 38.873,267.628C34.114,267.628 26.296,262.721 22.248,264.026ZM32.677,263.589C32.413,263.113 32.281,260.198 32.261,259.713C32.776,259.769 35.88,260.247 36.366,260.571C36.366,260.571 36.244,259.563 36.267,258.739C36.29,257.912 36.469,256.938 36.469,256.938C36.219,257.036 35.321,257.058 34.418,257.058C33.982,257.058 33.545,257.053 33.179,257.047C32.814,257.042 32.519,257.036 32.366,257.036C32.351,257.036 32.336,257.036 32.324,257.037C32.367,256.551 32.64,253.611 32.93,253.157C32.93,253.157 32.028,253.226 31.194,253.226C31.122,253.226 31.05,253.226 30.979,253.225C30.093,253.211 29.032,253.096 29.032,253.096C29.301,253.558 29.445,256.504 29.467,256.991C28.949,256.972 25.824,257.01 25.33,256.813C25.33,256.813 25.466,257.787 25.453,258.614C25.44,259.438 25.274,260.444 25.274,260.444C25.774,260.122 28.895,259.706 29.413,259.667C29.371,260.151 29.111,263.059 28.827,263.528C28.827,263.528 29.795,263.374 30.647,263.374C30.683,263.374 30.719,263.374 30.755,263.375C31.631,263.389 32.677,263.589 32.677,263.589ZM80.266,268.284L80.241,268.276L80.264,268.276L80.266,268.284ZM77.673,268.241L77.677,268.233L77.7,268.234L77.673,268.241ZM32.145,259.597L32.119,259.588L32.142,259.588L32.145,259.597ZM29.533,259.554L29.537,259.546L29.56,259.545L29.533,259.554Z" style="fill:rgb(207,210,207);fill-rule:nonzero;"/>
            </g>
            <g transform="matrix(-0.0581665,-2.03279,-2.29226,0.065591,859.889,687.048)">
                <path d="M32.677,263.589C32.677,263.589 31.631,263.389 30.755,263.375C30.719,263.374 30.683,263.374 30.647,263.374C29.795,263.374 28.827,263.528 28.827,263.528C29.111,263.059 29.371,260.151 29.413,259.667C28.895,259.706 25.774,260.122 25.274,260.444C25.274,260.444 25.44,259.438 25.453,258.614C25.466,257.787 25.33,256.813 25.33,256.813C25.824,257.01 28.949,256.972 29.467,256.991C29.445,256.504 29.301,253.558 29.032,253.096C29.032,253.096 30.093,253.211 30.979,253.225C31.05,253.226 31.122,253.226 31.194,253.226C32.028,253.226 32.93,253.157 32.93,253.157C32.64,253.611 32.367,256.551 32.324,257.037C32.336,257.036 32.351,257.036 32.366,257.036C32.519,257.036 32.814,257.042 33.179,257.047C33.545,257.053 33.982,257.058 34.418,257.058C35.321,257.058 36.219,257.036 36.469,256.938C36.469,256.938 36.29,257.912 36.267,258.739C36.244,259.563 36.366,260.571 36.366,260.571C35.88,260.247 32.776,259.769 32.261,259.713C32.281,260.198 32.413,263.113 32.677,263.589ZM32.119,259.588L32.145,259.597L32.142,259.588L32.119,259.588ZM29.56,259.545L29.537,259.546L29.533,259.554L29.56,259.545Z" style="fill:rgb(200,32,38);fill-rule:nonzero;"/>
            </g>
            <path d="M355,581.66C354.56,593.92 356.31,613.18 356.75,625.88C364.63,625.88 368.13,624.13 374.26,621.94C375.14,607.06 369.44,593.48 368.13,579.94C364.63,578.63 358.94,581.69 355,581.69M230.23,512.93C235.48,561.52 243.36,602.24 257.37,645.58C288.45,655.21 326.1,655.65 353.68,647.33C348.43,623.25 350.61,593.48 347.99,567.65C345.8,548.39 347.11,528.65 344.05,508.55C310.34,501.55 263.05,506.8 230.23,512.93M350.75,506.75C350.31,527.75 353.18,554.75 354.93,575.37C362.13,574.17 374.27,575.3 376.18,564.55C378.55,551.21 375.18,511.95 369.35,508.14C364.21,504.8 356.44,504.57 350.75,506.76M391.75,505.33C382.44,505.76 378.41,505.33 378.88,511.33C379.88,524.4 384.05,554.15 385.61,566.33C386.23,571.17 399.27,564.93 400.9,560.33C402.53,555.73 402.66,504.82 391.76,505.33M453.47,561.52C465.29,558.46 472.73,544.01 469.67,529.13C467.48,519.06 463.54,500.24 459.16,493.67C456.1,488.85 447.34,482.73 440.77,487.1C419.83,479.1 410.13,496.29 402.25,505.05C406.19,518.62 407.43,534.57 407.43,557.59C421.43,558.47 444.74,563.75 453.49,561.56M358.49,495.46C369.552,496.278 380.652,494.479 390.89,490.21C394.83,488.9 397.46,479.7 400.52,472.7C408.4,453.44 417.16,428.92 420.66,410.1C421.54,405.72 423.73,396.53 423.29,393.03C422.42,386.46 401.49,363.75 392.73,356.74C388.46,360.97 349.85,391.74 348.33,393.07C338.44,401.87 344.23,418.89 336.08,418.07C331.73,417.64 251.4,396.07 218.39,384.95C212.23,382.88 201.33,366.31 199.58,367.18C174.19,377.25 150.58,394.32 129.1,410.96C149.24,454.3 157.56,507.71 158.87,558.96C182.07,569.9 202.21,585.23 233.73,586.96C230.23,561.13 226.73,538.37 224.54,513.85C216.66,510.35 205.28,513.85 197.84,512.97C197.84,504.21 209.22,509.03 210.1,502.9C211,498.49 204,498 206.15,491C211.84,493.19 214.9,497.57 221.03,499.32C226.72,487.06 221.03,465.17 221.91,454.67C221.91,452.92 222.79,444.16 227.16,445.48C231.1,446.79 226.72,468.68 227.16,478.75C227.6,487.94 226.28,496.26 229.79,501.95C260,498.01 291.08,494.95 323.91,494.07L358.49,495.38M168.94,181.54C158.87,192.48 161.06,213.54 162.37,228.38C180.76,217 204.83,229.26 204.37,248.96C213.13,248.52 207.44,238.01 206.12,231.45C200.87,209.12 214.87,184.61 206.56,164.45C192.209,164.749 178.592,170.923 168.91,181.52M241.14,117.17C218.38,123.74 189.04,140.37 179.85,160.95C187.29,160.08 192.11,156.13 199.11,155.7C201.74,155.7 205.24,157.01 208.3,156.14C214.43,154.39 219.68,140.82 224.5,135.56C228.88,130.31 234.57,128.56 238.5,123.74C241.13,122.43 244.63,122.87 244.63,118.92C243.32,117.61 242.44,116.73 241.13,117.17M325.67,416.17C357.5,396.7 371.48,362.44 376.4,357.08C365.63,364.08 344.5,378.8 321.24,379.79C307.32,380.39 291.24,374.51 285.24,371.49C274.71,366.25 264.81,359.27 257.37,350.49C248.61,340.42 239.42,329.91 238.98,317.22C256.05,340.86 270.06,361 300.71,371.5C323.91,379.38 351.05,368 369,355.3C376.44,350.05 380.82,341.73 386.07,334.3C405.77,305.84 414.96,265.57 412.77,226.17C411.89,209.97 410.39,195.44 406.64,182.83C402.43,170.22 402.43,170.22 395.57,157.44C387.8,142.96 373.37,130.74 359.8,123.29C336.16,109.72 295.88,99.65 270.93,112.35C250.79,122.42 223.21,139.05 213.58,160.51C222.34,181.09 210.95,199.91 210.08,220.51C209.64,231.46 215.33,241.09 215.77,253.34C212.7,258.16 203.51,259.03 197.38,258.59C195.19,248.08 191.69,235.83 180.31,234.51C164.55,232.76 153.17,245.89 152.73,259.03C151.85,274.79 164.99,301.03 183.37,299.3C190.37,298.42 192.13,291.42 200.01,291.42C204.39,299.74 193.44,302.36 192.57,308.49C192.13,310.24 193.45,315.93 194.32,319C197.82,333 205.26,350.52 212.27,361C220.15,372.82 229.11,378.67 279.93,383.54C288.74,384.38 314.41,413.38 325.7,416.14M404,488.42C422.39,479.23 457,463.42 468.79,488.42C473.17,497.61 477.98,512.94 480.17,522.57C483.23,535.7 476.67,563.72 463.1,568.57C450.84,572.51 418.89,565.51 417.57,562.88C412.87,562.68 410.79,562.44 406.57,563.44C407.45,571.32 384.77,576.44 379.96,578.2C376.46,592.65 387.4,611.47 384.78,624.2C383.03,633.39 371.65,635.14 362.89,636.9C362.45,642.15 363.33,646.53 363.77,650.9C362.02,657.9 353.26,661.84 344.95,663.16C317.81,666.23 277.09,667.98 251.27,658.34C243.83,640.83 238.14,618.94 232.45,598.8C207.06,601.43 186.92,587.86 167.66,579.1C161.09,576.04 151.9,574.28 149.27,569.03C146.64,563.78 147.96,554.14 147.08,544.95C145.77,521.31 144.45,498.11 137.89,474.03C135.23,463 130,453.4 126.91,442.89C123.85,433.26 118.15,421 116.84,411.37C114.66,396.92 128.23,396 137,389.92C150.57,380.29 161.08,375.04 175.52,366.28C179.9,363.65 192.59,357.09 194.34,354.02C197.4,347.89 189.09,339.57 187.34,334.76C183.84,327.32 182.09,321.19 181.65,313.76C169.39,312.01 160.2,304.57 154.51,296.25C145.32,282.68 138.75,257.73 147.07,238.46C147.51,237.15 151.01,234.08 151.45,231.89C152.33,227.51 149.7,221.38 149.7,216.57C148.82,191.57 154.08,170.57 170.7,163.16C177.27,136.02 201.78,127.26 224.55,113.69C232.87,108.87 242.5,105.37 252.13,101.87C287.13,89.17 340.56,91.36 369.45,113.25C381.71,122.44 401.45,142.14 408.45,156.15C426.84,193.36 425.52,255.96 412.83,301.49C411.08,307.62 408.45,316.37 404.95,323.82C402.32,329.07 394.88,339.14 395.76,343.52C396.64,348.34 413.27,360.59 416.76,364.1C423.33,370.23 435.15,378.55 436.02,385.99C436.9,394.31 432.52,405.69 429.89,413.57C420.7,440.71 413.25,464.79 404.06,488.43" style="fill-rule:nonzero;"/>
            <path d="M280.57,305C281.45,303.69 287.14,301.5 295.02,305.44C295.02,305.44 285.83,306.75 286.7,322.08L282.76,321.21C282.76,321.65 278.82,307.64 280.57,305.01" style="fill:rgb(245,226,204);fill-rule:nonzero;"/>
            <path d="M367.35,170.89C387.72,158.71 404.15,172.71 403.86,176.75C402.68,168.56 395.39,153.04 383.38,153.64C362.83,153.64 367.38,170.89 367.38,170.89" style="fill-rule:nonzero;"/>
            <path d="M203.295,356.947C203.295,356.947 326.295,427.947 388.295,355.947L328.295,483.947L203.295,356.947Z" style="fill:white;stroke:rgb(32,22,0);stroke-width:1px;stroke-linecap:round;stroke-linejoin:round;stroke-miterlimit:1.5;"/>
            <g transform="matrix(0.737403,-0.675453,0.675453,0.737403,-222.694,255.426)">
                <g>
                    <g transform="matrix(1,0,0,1,20.75,0.75)">
                        <path d="M186.045,448.642L186.045,467.137C186.045,467.137 175.211,467.137 175.211,467.137C175.211,467.137 175.211,448.642 175.211,448.642C175.211,446.614 176.855,444.97 178.884,444.97C180.012,444.97 181.244,444.97 182.373,444.97C184.401,444.97 186.045,446.614 186.045,448.642Z" style="fill:white;"/>
                    </g>
                    <g transform="matrix(1,0,0,1,35.25,0.75)">
                        <path d="M186.045,448.642L186.045,467.137C186.045,467.137 175.211,467.137 175.211,467.137C175.211,467.137 175.211,448.642 175.211,448.642C175.211,446.614 176.855,444.97 178.884,444.97C180.012,444.97 181.244,444.97 182.373,444.97C184.401,444.97 186.045,446.614 186.045,448.642Z" style="fill:white;"/>
                    </g>
                    <g transform="matrix(1,0,0,1,49.75,0.75)">
                        <path d="M186.045,448.642L186.045,467.137C186.045,467.137 175.211,467.137 175.211,467.137C175.211,467.137 175.211,448.642 175.211,448.642C175.211,446.614 176.855,444.97 178.884,444.97C180.012,444.97 181.244,444.97 182.373,444.97C184.401,444.97 186.045,446.614 186.045,448.642Z" style="fill:white;"/>
                    </g>
                </g>
                <g transform="matrix(1,-6.75357e-17,6.75357e-17,-1.55147,-3.02953e-14,1197.27)">
                    <g transform="matrix(1,0,0,1,20.75,0.75)">
                        <path d="M186.045,447.248C186.045,445.941 184.401,444.881 182.373,444.881C181.244,444.881 180.012,444.881 178.884,444.881C176.855,444.881 175.211,445.941 175.211,447.248C175.211,447.248 175.211,467.226 175.211,467.226C175.211,467.226 186.045,467.226 186.045,467.226L186.045,447.248Z" style="fill:white;"/>
                    </g>
                    <g transform="matrix(1,0,0,1,35.25,0.75)">
                        <path d="M186.045,447.248C186.045,445.941 184.401,444.881 182.373,444.881C181.244,444.881 180.012,444.881 178.884,444.881C176.855,444.881 175.211,445.941 175.211,447.248C175.211,447.248 175.211,467.226 175.211,467.226C175.211,467.226 186.045,467.226 186.045,467.226L186.045,447.248Z" style="fill:white;"/>
                    </g>
                    <g transform="matrix(1,0,0,1,49.75,0.75)">
                        <path d="M186.045,447.248C186.045,445.941 184.401,444.881 182.373,444.881C181.244,444.881 180.012,444.881 178.884,444.881C176.855,444.881 175.211,445.941 175.211,447.248C175.211,447.248 175.211,467.226 175.211,467.226C175.211,467.226 186.045,467.226 186.045,467.226L186.045,447.248Z" style="fill:white;"/>
                    </g>
                </g>
            </g>
            <g transform="matrix(0.908734,0.417376,-0.417376,0.908734,329.747,-80.0544)">
                <g transform="matrix(1,-6.75357e-17,6.75357e-17,-1.55147,46.75,1184.02)">
                    <g transform="matrix(1,0,0,1,20.75,0.75)">
                        <path d="M186.045,447.248C186.045,445.941 184.401,444.881 182.373,444.881C181.244,444.881 180.012,444.881 178.884,444.881C176.855,444.881 175.211,445.941 175.211,447.248C175.211,447.248 175.211,467.226 175.211,467.226C175.211,467.226 186.045,467.226 186.045,467.226L186.045,447.248Z" style="fill:white;"/>
                    </g>
                    <g transform="matrix(1,0,0,1,35.25,0.75)">
                        <path d="M186.045,447.248C186.045,445.941 184.401,444.881 182.373,444.881C181.244,444.881 180.012,444.881 178.884,444.881C176.855,444.881 175.211,445.941 175.211,447.248C175.211,447.248 175.211,467.226 175.211,467.226C175.211,467.226 186.045,467.226 186.045,467.226L186.045,447.248Z" style="fill:white;"/>
                    </g>
                    <g transform="matrix(1,0,0,1,49.75,0.75)">
                        <path d="M186.045,447.248C186.045,445.941 184.401,444.881 182.373,444.881C181.244,444.881 180.012,444.881 178.884,444.881C176.855,444.881 175.211,445.941 175.211,447.248C175.211,447.248 175.211,467.226 175.211,467.226C175.211,467.226 186.045,467.226 186.045,467.226L186.045,447.248Z" style="fill:white;"/>
                    </g>
                </g>
                <g transform="matrix(1,0,0,1,46.75,-13)">
                    <g transform="matrix(1,0,0,1,20.75,0.75)">
                        <path d="M186.045,448.642L186.045,467.137C186.045,467.137 175.211,467.137 175.211,467.137C175.211,467.137 175.211,448.642 175.211,448.642C175.211,446.614 176.855,444.97 178.884,444.97C180.012,444.97 181.244,444.97 182.373,444.97C184.401,444.97 186.045,446.614 186.045,448.642Z" style="fill:white;"/>
                    </g>
                    <g transform="matrix(1,0,0,1,35.25,0.75)">
                        <path d="M186.045,448.642L186.045,467.137C186.045,467.137 175.211,467.137 175.211,467.137C175.211,467.137 175.211,448.642 175.211,448.642C175.211,446.614 176.855,444.97 178.884,444.97C180.012,444.97 181.244,444.97 182.373,444.97C184.401,444.97 186.045,446.614 186.045,448.642Z" style="fill:white;"/>
                    </g>
                    <g transform="matrix(1,0,0,1,49.75,0.75)">
                        <path d="M186.045,448.642L186.045,467.137C186.045,467.137 175.211,467.137 175.211,467.137C175.211,467.137 175.211,448.642 175.211,448.642C175.211,446.614 176.855,444.97 178.884,444.97C180.012,444.97 181.244,444.97 182.373,444.97C184.401,444.97 186.045,446.614 186.045,448.642Z" style="fill:white;"/>
                    </g>
                </g>
            </g>
            <g transform="matrix(0.995349,-0.0963303,0.0963303,0.995349,-35.503,36.6429)">
                <g>
                    <circle cx="318.325" cy="404.697" r="5.5" style="fill:rgb(16,17,16);"/>
                    <g transform="matrix(1,0,0,1,0,41.5)">
                        <circle cx="318.325" cy="404.697" r="5.5" style="fill:rgb(16,17,16);"/>
                    </g>
                </g>
                <g transform="matrix(1,0,0,1,0,22)">
                    <circle cx="318.325" cy="404.697" r="5.5" style="fill:rgb(16,17,16);"/>
                </g>
            </g>
            <g transform="matrix(0.906397,-0.422426,0.283307,0.607889,-24.6885,127.993)">
                <path d="M380.159,96.306C380.159,82.803 372.818,71.857 363.762,71.857L120.556,71.857C111.5,71.857 104.159,82.803 104.159,96.306L104.159,274.523L380.159,274.523L380.159,96.306Z"/>
            </g>
            <g transform="matrix(1.1052,0,0,1.03313,-38.8473,-19.1808)">
                <path d="M355.704,581.428C355.704,581.428 365.704,578.094 368.371,579.094C368.371,579.094 375.037,613.428 374.704,621.094C374.704,621.094 363.037,628.094 357.371,625.428L355.704,581.428Z" style="fill:rgb(235,238,233);"/>
            </g>
            <g transform="matrix(1.02136,0.0137967,-0.013507,0.999909,-221.793,93.8775)">
                <path d="M320.074,36.902C320.074,36.902 331.074,23.902 337.074,31.902C343.074,39.902 382.074,122.902 382.074,122.902L370.074,123.902L320.074,36.902Z" style="fill:rgb(16,17,16);"/>
            </g>
        </g>
    </g>
</svg>
