<svg id="christmas" width="448" height="479" xmlns="http://www.w3.org/2000/svg" xmlns:xlink="http://www.w3.org/1999/xlink" overflow="hidden"><defs><clipPath id="clip0"><rect x="120" y="65" width="448" height="479"/></clipPath></defs><g clip-path="url(#clip0)" transform="translate(-120 -65)"><path d="M207.412 360.778C208.861 385.474 199.104 405.144 178.121 416.963 173.812 419.39 150.22 421.588 148.48 425.554 143.532 436.873 162.836 441.359 170.353 441.209 158.697 458.852 100.075 467.843 139.393 496.675 161.726 513.089 196.675 500.152 219.958 493.748 226.646 520.552 261.055 507.255 276.59 495.176 285.727 512.629 303.941 520.951 323.435 518.614 351.196 515.277 353.665 489.152 373.119 480.82 394.882 471.5 468.959 495.086 468.979 440.59 499.789 452.358 523.422 412.158 490.512 398.371 519.443 383.006 518.264 349.219 483.594 347.421 464.6 346.422 453.774 358.24 433.26 352.096 418.345 347.63 409.768 336.461 398.401 326.961 383.166 314.233 387.815 313.604 372.47 312.115 356.834 310.597 330.413 324.513 315.397 328.939Z" fill="#006A27" fill-rule="evenodd"/><path d="M157.197 477.582C172.835 475.719 188.25 472.301 203.21 467.376 209.892 465.253 220.946 459.023 228.458 460.165 238.981 461.758 233.679 469.99 245.393 470.681 253.395 471.152 257.467 458.773 262.648 458.282 268.88 457.691 274.161 468.958 280.363 470.962 300.129 477.341 308.162 454.276 316.974 442.348 324.466 449.98 332.979 457.201 343.262 460.746 357.586 465.694 362.188 460.746 374.701 453.946 383.814 449.018 379.093 448.938 387.835 447.736 392.967 447.005 398.468 450.5 404.41 449.178 421.005 445.503 417.064 437.27 419.485 424.591 421.485 414.235 422.085 420.695 429.258 411.691 432.258 407.956 434.849 404.37 435.259 399.372 436.26 386.633 424.566 380.043 416.164 373.393 407.441 366.482 391.756 358.71 385.915 349.557 380.343 340.833 385.315 330.257 387.565 319 398.358 327.503 409.422 339.131 421.635 345.2 440.251 354.444 450.034 349.987 469.149 348.044 479.783 346.963 498.738 347.373 505.61 356.287 518.424 372.912 500.069 386.333 490.276 397.269 501.009 406.463 512.692 421.987 499.718 433.955 493.267 439.914 478.612 436.8 471.25 441.787 462.878 447.456 468.429 451.722 462.617 461.117 446.793 486.696 396.008 469.96 372.521 480.146 357.216 486.796 348.514 508.969 333.149 515.389 313.523 523.572 300.239 516.972 286.895 504.372 269.23 487.687 268.82 504.372 247.884 507.377 241.192 508.379 230.659 505.995 225.647 502.9 212.033 494.467 225.907 494.507 209.512 494.888 191.337 495.269 169.5 508.709 152.635 502.9 146.034 500.617 132.489 491.272 128.658 485.594 120.476 473.405 127.298 469.349 136.571 462.869 136.841 475.579 146.494 477.902 157.197 477.582Z" fill="#00501D" fill-rule="evenodd"/><path d="M410.702 471.854C419.033 468.437 426.913 464.018 434.168 458.696 438.024 455.77 442.01 452.774 444.977 448.903 447.185 446.026 450.202 435.366 451.91 433.973 458.653 428.389 470.84 434.879 477.973 426.24 483.328 419.76 482.728 409.618 474.147 406.572 497.313 384.715 495.815 363.585 459.452 363.366 445.776 363.276 431.99 366.143 418.324 365.765 409.613 365.526 391.212 356.329 383.99 360.44 380.763 362.271 381.152 371.966 377.466 375.559 373.62 379.301 366.478 379.769 361.123 379.858 354.58 379.968 344.95 375.001 338.936 376.872 332.922 378.744 333.022 385.402 327.887 388.517 319.016 393.912 317.718 388.209 308.817 388.159 298.188 388.089 305.17 389.353 296.26 394.36 281.275 402.79 275.181 398.918 265.611 384.257 251.695 397.206 235.782 402.482 218 390.757 236.421 384.725 246.76 383.302 260.247 367.079 263.643 371.508 267.749 384.178 272.454 384.815 281.884 386.089 281.894 373.866 283.253 368.074 284.472 362.858 291.245 360.848 293.393 360.012 295.391 359.245 295.85 367.805 306.699 370.851 314.061 372.911 320.085 355.652 327.607 353.93 340.274 350.945 355.828 371.318 369.664 358.907 371.852 356.916 364.909 345.162 367.017 343.102 369.285 340.892 380.693 344.097 382.441 341.509 386.557 335.438 385.628 325.445 387.766 318 399.753 328.739 412.161 338.304 426.316 345.869 442.36 354.468 449.642 348.934 467.614 347.222 481.969 345.849 492.348 344.794 502.358 355.075 520.41 373.628 489.371 397.077 489.371 397.077 489.371 397.077 509.491 407.528 505.005 424.08 502.678 432.689 501.469 432.102 496.015 436.023 489.691 440.562 467.823 439.089 467.823 439.089 467.823 439.089 465.826 456.387 461.959 461.533 458.703 465.882 452.13 469.864 446.765 472.024 433.539 477.368 420.202 475.806 405.807 477Z" fill="#00501D" fill-rule="evenodd"/><path d="M206.414 359.762C207.863 384.461 198.107 404.133 177.123 415.953 172.815 418.381 149.222 420.579 147.483 424.545 142.485 435.855 161.848 440.341 169.366 440.202 157.71 457.856 99.0886 466.788 138.376 495.673 160.709 512.088 195.657 499.15 218.94 492.745 225.628 519.552 260.037 506.253 275.571 494.174 284.709 511.629 302.923 519.951 322.416 517.613 350.177 514.276 352.647 488.149 372.1 479.817 393.903 470.475 467.959 494.094 467.979 439.582 498.789 451.352 522.422 411.147 489.512 397.359 518.443 381.993 517.263 348.203 482.595 346.404 463.601 345.405 452.774 357.225 432.261 351.08 417.346 346.614 408.768 335.444 397.402 325.942 382.167 313.233 386.806 312.614 371.47 311.115 355.836 309.596 329.414 323.514 314.399 327.94Z" stroke="#201600" stroke-width="8.4" stroke-linecap="round" stroke-linejoin="round" stroke-miterlimit="10" fill="none" fill-rule="evenodd"/><path d="M214.466 262.559C202.722 313.077 177.43 305.976 141.266 329.124 97.4758 357.206 159.563 350.847 181.909 351.449 156.136 381.537 209.626 365.4 221.521 365.239 203.574 410.682 249.578 393.321 261.442 363.073 266.683 402.719 282.656 383.814 287.496 354.719 292.135 382.67 322.919 368.278 327.438 349.032 339.052 367.626 384.064 373.002 367.41 342.744 389.856 349.584 380.176 339.494 388.654 334.55 391.009 333.176 382.341 322.655 387.261 318.774 393.013 314.22 400.929 323.658 407.302 323.447 416.541 323.136 433.997 331.701 439.909 318.433 444.378 308.403 434.287 297.883 424.728 294.693 442.504 285.747 436.021 271.165 418.074 268.306 425.018 263.292 435.65 251.317 433.396 241.759 429.387 224.809 424.938 236.102 409.987 234.247 383.333 230.937 370.146 225.06 345.004 216.705 318.87 208.02 321.866 208.682 294.12 222.643Z" fill="#006A27" fill-rule="evenodd"/><path d="M127 342.153C148.639 343.046 166.191 344.961 187.511 339.525 189.929 338.913 200.584 334.128 202.763 335.321 205.322 336.716 204.063 345.212 206.691 347.359 215.227 354.381 222.394 347.359 231.449 341.802 226.901 354.04 232.059 362.567 244.123 359.066 253.429 356.367 259.995 344.781 265.113 337.598 274.328 362.376 284.333 337.598 295.548 338.2 306.023 338.802 302.035 350.108 314.089 340.367 319.087 336.355 321.725 326.754 324.634 321.187 330.691 325.932 339.797 332.392 347.693 327.958 352.47 325.27 352.74 319.291 357.058 316.252 360.896 313.533 375.809 310.132 371.281 302.709 374.999 302.539 388.203 301.776 385.105 294.684 384.615 293.571 383.665 292.678 383.245 291.564 382.186 288.675 389.153 285.194 390.592 282.817 392.811 279.135 392.881 275.444 391.591 271.371 387.284 258.25 379.397 262.232 368.183 260.336 348.912 257.066 338.307 244.025 327.682 228.577 334.979 223.561 340.526 217.833 348.462 218.004 357.748 218.214 368.643 226.811 377.688 229.43 388.603 232.579 417.249 231.335 422.586 239.541 426.225 245.119 421.717 267.017 421.507 273.648 421.217 282.897 423.996 299.329 420.417 307.875 416.319 317.686 420.107 315.268 405.325 317.134 397.678 318.137 384.135 314.937 386.544 321.598 400.127 359.116 368.093 342.564 368.093 342.564 368.093 342.564 373.86 356.498 365.524 363.63 358.238 369.829 328.662 353.538 328.662 353.538 328.662 353.538 314.879 374.263 307.932 372.889 295.938 370.522 287.662 356.478 287.662 356.478 287.662 356.478 279.246 388.839 266.042 384.917 260.715 383.332 254.928 363.159 254.928 363.159 254.928 363.159 240.235 402.592 220.395 389.24 211.229 383.051 224.543 367.813 221.814 365.365 217.086 361.122 188.83 375.537 175.606 365.586 171.478 362.476 180.074 356.237 182.303 351.542 172.118 351.422 128.539 356.889 127 342.153Z" fill="#00501D" fill-rule="evenodd"/><path d="M214.458 262.559C202.715 313.077 177.425 305.976 141.264 329.124 97.4785 357.206 159.56 350.847 181.904 351.449 156.133 381.537 209.618 365.4 221.511 365.239 203.566 410.682 244.506 393.321 256.39 363.073 261.63 402.719 280.958 385.499 285.837 356.404 305.947 388.116 322.91 368.278 327.459 349.032 339.072 367.626 384.08 373.002 367.427 342.744 406.664 351.63 382.356 322.685 387.266 318.774 393.017 314.22 400.933 323.658 407.305 323.447 416.543 323.136 433.997 331.701 439.909 318.433 444.378 308.403 434.288 297.883 424.729 294.693 442.504 285.747 436.021 271.165 418.076 268.306 425.02 263.292 435.651 251.317 433.396 241.759 429.388 224.809 424.94 236.102 409.99 234.247 383.338 230.937 370.152 225.06 345.013 216.705 318.882 208.02 321.878 208.682 294.134 222.643Z" stroke="#201600" stroke-width="8.4" stroke-linecap="round" stroke-linejoin="round" stroke-miterlimit="10" fill="none" fill-rule="evenodd"/><path d="M231.455 97.2802C229.024 126.641 241.81 166.915 220.27 190.869 206.004 206.799 135.232 198.755 174.86 224.193 160.133 223.197 117.144 225.537 141.135 246.774 150.539 255.097 182.733 251.364 193.858 246.993 179.072 263.56 197.68 274.283 213.997 273.994 231.906 273.676 246.442 257.308 255.546 243.668 258.668 271.237 280.557 253.694 281.118 234.339 294.514 259.976 324.597 253.713 310.051 222.391 320.866 234.796 338.403 228.156 330.36 211.001 364.625 227.499 385.925 183.382 347.508 181.809 357.642 169.533 364.445 152.866 349.859 141.486 294.724 201.881 256.557 111.279 235.727 70 233.456 75.5656 232.456 84.8747 231.455 97.2802Z" fill="#006A27" fill-rule="evenodd"/><path d="M241.842 90C253.185 107.513 251.344 134.716 265.037 151.501 271.709 159.685 281.781 164.988 290.903 169.733 297.434 173.132 325.25 186.449 300.305 187.236 304.125 191.143 317.968 204.57 314.828 210.511 310.677 218.366 293.383 208.796 286.822 205.766 289.152 213.262 294.913 220.768 292.903 228.692 284.581 227.409 276.459 225.064 268.738 221.715 271.278 245.797 254.145 233.357 243.523 225.941 239.522 235.191 230.74 251.469 219.718 253.851 203.034 257.509 205.095 241.89 213.586 233.377 185.58 240.574 163.796 246.006 136 236.367 140.001 260.45 177.229 250.771 193.012 247.182 188.721 257.988 185.43 261.436 196.013 269.401 200.374 272.69 208.435 274.385 213.936 273.926 230.84 272.421 242.422 258.606 253.735 247.93 256.735 256.522 264.357 258.984 271.509 255.217 284.511 248.379 277.64 230.098 281.931 237.404 285.341 243.195 302.405 255.266 310.117 248.638 313.757 245.508 309.827 229.22 312.927 225.891 314.758 223.898 324.99 230.546 327.12 228.812 330.271 226.24 328.961 218.356 332.041 215.684 336.242 212.036 344.864 215.634 350.545 213.441 359.267 210.072 366.078 203.474 364.858 194.881 363.398 184.694 356.096 185.203 346.654 181.873 355.066 162.655 359.587 159.406 349.005 141.504 299.454 186.987 277 144.295 241.842 90Z" fill="#00501D" fill-rule="evenodd"/><path d="M231.455 97.2802C229.024 126.641 241.81 166.915 220.27 190.869 206.004 206.799 135.232 198.755 174.86 224.193 160.133 223.197 117.144 225.537 141.135 246.774 150.539 255.097 182.733 251.364 193.858 246.993 179.072 263.56 197.68 274.283 213.997 273.994 231.906 273.676 246.442 257.308 255.546 243.668 258.668 271.237 280.557 253.694 281.118 234.339 294.514 259.976 324.597 253.713 310.051 222.391 320.866 234.796 338.403 228.156 330.36 211.001 364.625 227.499 385.925 183.382 347.508 181.809 357.642 169.533 364.445 152.866 349.859 141.486 294.724 201.881 256.557 111.279 235.727 70 233.456 75.5656 232.456 84.8747 231.455 97.2802Z" stroke="#201600" stroke-width="8.4" stroke-linecap="round" stroke-linejoin="round" stroke-miterlimit="10" fill="none" fill-rule="evenodd"/><path d="M252.5 149C252.5 158.113 245.113 165.5 236 165.5 226.887 165.5 219.5 158.113 219.5 149 219.5 139.887 226.887 132.5 236 132.5 245.113 132.5 252.5 139.887 252.5 149Z" stroke="#201600" stroke-width="5.24" stroke-miterlimit="8" fill="#3F69D1" fill-rule="evenodd"/><path d="M226.531 155C225.626 153.361 225.112 151.533 225.029 149.661 224.903 147.745 225.189 145.824 225.866 144.028 226.594 142.16 227.853 140.546 229.485 139.387 231.103 138.29 233.062 137.82 235 138.062 233.611 139.011 232.348 140.132 231.239 141.399 230.312 142.585 229.562 143.9 229.011 145.303 228.453 146.788 228.001 148.312 227.66 149.863Z" fill="#FFFFFF" fill-rule="evenodd"/><path d="M231 158.999C243.703 159.144 248.744 147.754 242.003 138" fill="#3F69D1" fill-rule="evenodd"/><path d="M231 159.737C233.219 158.632 235.312 157.289 237.243 155.73 238.708 154.491 239.9 152.96 240.744 151.233 241.554 149.426 242.04 147.489 242.18 145.513 242.324 143.008 242.261 140.495 241.99 138 244.595 139.462 246.533 141.882 247.396 144.751 248.375 147.842 248.158 151.191 246.787 154.127 245.353 157.106 242.776 159.373 239.647 160.408 236.795 161.387 233.668 161.144 231 159.737Z" fill="#1500CD" fill-rule="evenodd"/><path d="M269.5 218C269.5 227.113 262.113 234.5 253 234.5 243.887 234.5 236.5 227.113 236.5 218 236.5 208.887 243.887 201.5 253 201.5 262.113 201.5 269.5 208.887 269.5 218Z" stroke="#201600" stroke-width="5.24" stroke-miterlimit="8" fill="#3F69D1" fill-rule="evenodd"/><path d="M243.531 223C242.626 221.461 242.112 219.745 242.029 217.987 241.903 216.188 242.189 214.385 242.866 212.698 243.588 210.93 244.846 209.401 246.485 208.302 248.103 207.273 250.062 206.831 252 207.059 250.611 207.949 249.348 209.002 248.239 210.192 247.312 211.305 246.562 212.54 246.011 213.857 245.454 215.264 245.006 216.708 244.67 218.177Z" fill="#FFFFFF" fill-rule="evenodd"/><path d="M248 227.999C260.703 228.144 265.744 216.754 259.003 207" fill="#3F69D1" fill-rule="evenodd"/><path d="M248 228.714C250.216 227.609 252.307 226.265 254.236 224.706 255.699 223.467 256.89 221.935 257.732 220.207 258.545 218.41 259.037 216.484 259.187 214.515 259.331 212.009 259.268 209.495 258.997 207 261.599 208.462 263.535 210.884 264.396 213.754 265.375 216.846 265.158 220.195 263.789 223.133 262.356 226.113 259.782 228.38 256.656 229.416 253.798 230.391 250.666 230.137 248 228.714Z" fill="#1500CD" fill-rule="evenodd"/><path d="M202.5 270C202.5 279.113 195.113 286.5 186 286.5 176.887 286.5 169.5 279.113 169.5 270 169.5 260.887 176.887 253.5 186 253.5 195.113 253.5 202.5 260.887 202.5 270Z" stroke="#201600" stroke-width="5.24" stroke-miterlimit="8" fill="#3F69D1" fill-rule="evenodd"/><path d="M176.551 275C175.639 273.462 175.118 271.746 175.029 269.987 174.903 268.188 175.189 266.385 175.866 264.698 176.588 262.93 177.846 261.401 179.485 260.302 181.103 259.273 183.062 258.831 185 259.059 183.611 259.949 182.348 261.002 181.239 262.192 180.33 263.308 179.596 264.543 179.062 265.857 178.505 267.264 178.056 268.708 177.721 270.177Z" fill="#FFFFFF" fill-rule="evenodd"/><path d="M181 279.999C193.703 280.144 198.744 268.754 192.003 259" fill="#3F69D1" fill-rule="evenodd"/><path d="M181 280.734C183.224 279.631 185.323 278.289 187.258 276.732 188.726 275.494 189.921 273.964 190.767 272.239 191.581 270.428 192.068 268.486 192.206 266.505 192.351 264.002 192.287 261.492 192.016 259 194.62 260.477 196.549 262.91 197.394 265.784 198.376 268.872 198.158 272.217 196.784 275.151 195.346 278.127 192.764 280.391 189.627 281.425 186.778 282.385 183.66 282.135 181 280.734Z" fill="#1500CD" fill-rule="evenodd"/><path d="M257.5 332C257.5 341.113 250.113 348.5 241 348.5 231.887 348.5 224.5 341.113 224.5 332 224.5 322.887 231.887 315.5 241 315.5 250.113 315.5 257.5 322.887 257.5 332Z" stroke="#201600" stroke-width="5.24" stroke-miterlimit="8" fill="#3F69D1" fill-rule="evenodd"/><path d="M232.378 338C231.563 336.364 231.101 334.541 231.026 332.674 230.913 330.762 231.17 328.846 231.779 327.054 232.429 325.176 233.562 323.551 235.037 322.384 236.493 321.29 238.256 320.82 240 321.062 238.75 322.009 237.613 323.127 236.615 324.391 235.781 325.574 235.105 326.886 234.61 328.285 234.109 329.781 233.705 331.315 233.403 332.875Z" fill="#FFFFFF" fill-rule="evenodd"/><path d="M236 342.999C248.703 343.151 253.744 331.218 247.003 321" fill="#3F69D1" fill-rule="evenodd"/><path d="M236 342.737C238.219 341.632 240.312 340.289 242.243 338.73 243.708 337.491 244.9 335.96 245.744 334.233 246.554 332.426 247.04 330.489 247.18 328.513 247.324 326.008 247.261 323.495 246.99 321 249.595 322.462 251.533 324.882 252.396 327.751 253.375 330.842 253.158 334.191 251.787 337.127 250.353 340.106 247.776 342.373 244.647 343.408 241.795 344.387 238.668 344.144 236 342.737Z" fill="#1500CD" fill-rule="evenodd"/><path d="M170.5 357C170.5 366.113 163.113 373.5 154 373.5 144.887 373.5 137.5 366.113 137.5 357 137.5 347.887 144.887 340.5 154 340.5 163.113 340.5 170.5 347.887 170.5 357Z" stroke="#201600" stroke-width="5.24" stroke-miterlimit="8" fill="#3F69D1" fill-rule="evenodd"/><path d="M144.533 363C143.627 361.364 143.112 359.541 143.029 357.673 142.903 355.762 143.189 353.846 143.867 352.054 144.589 350.175 145.849 348.55 147.49 347.383 149.106 346.291 151.064 345.822 153 346.061 151.61 347.008 150.345 348.126 149.236 349.39 148.312 350.571 147.564 351.879 147.015 353.274 146.458 354.77 146.009 356.304 145.673 357.865Z" fill="#FFFFFF" fill-rule="evenodd"/><path d="M149 367.999C161.703 368.151 166.744 356.218 160.003 346" fill="#3F69D1" fill-rule="evenodd"/><path d="M149 367.737C151.219 366.632 153.312 365.289 155.243 363.73 156.708 362.491 157.9 360.96 158.744 359.233 159.554 357.426 160.04 355.489 160.18 353.513 160.324 351.008 160.261 348.495 159.99 346 162.595 347.462 164.533 349.882 165.396 352.751 166.375 355.842 166.158 359.191 164.787 362.127 163.353 365.106 160.776 367.373 157.647 368.408 154.795 369.387 151.668 369.144 149 367.737Z" fill="#1500CD" fill-rule="evenodd"/><path d="M266.5 406C266.5 415.113 259.113 422.5 250 422.5 240.887 422.5 233.5 415.113 233.5 406 233.5 396.887 240.887 389.5 250 389.5 259.113 389.5 266.5 396.887 266.5 406Z" stroke="#201600" stroke-width="5.24" stroke-miterlimit="8" fill="#3F69D1" fill-rule="evenodd"/><path d="M240.531 411C239.626 409.461 239.112 407.745 239.029 405.987 238.903 404.188 239.189 402.385 239.866 400.698 240.588 398.93 241.846 397.401 243.485 396.302 245.103 395.273 247.062 394.831 249 395.059 247.611 395.949 246.348 397.002 245.239 398.192 244.312 399.305 243.562 400.54 243.011 401.857 242.454 403.264 242.006 404.708 241.67 406.177Z" fill="#FFFFFF" fill-rule="evenodd"/><path d="M245 415.999C257.703 416.144 262.744 404.754 256.003 395" fill="#3F69D1" fill-rule="evenodd"/><path d="M245 416.737C247.219 415.632 249.312 414.289 251.243 412.73 252.708 411.491 253.9 409.96 254.744 408.233 255.554 406.426 256.04 404.489 256.18 402.513 256.324 400.008 256.261 397.495 255.99 395 258.595 396.462 260.533 398.882 261.396 401.751 262.375 404.842 262.158 408.191 260.787 411.127 259.353 414.106 256.776 416.373 253.647 417.408 250.795 418.387 247.668 418.144 245 416.737Z" fill="#1500CD" fill-rule="evenodd"/><path d="M212.5 446C212.5 455.113 205.113 462.5 196 462.5 186.887 462.5 179.5 455.113 179.5 446 179.5 436.887 186.887 429.5 196 429.5 205.113 429.5 212.5 436.887 212.5 446Z" stroke="#201600" stroke-width="5.24" stroke-miterlimit="8" fill="#3F69D1" fill-rule="evenodd"/><path d="M186.53 452C185.625 450.365 185.112 448.542 185.029 446.674 184.903 444.763 185.188 442.847 185.865 441.055 186.586 439.176 187.844 437.552 189.481 436.385 191.1 435.288 193.061 434.819 195 435.063 193.613 436.01 192.35 437.128 191.243 438.392 190.296 439.571 189.525 440.883 188.957 442.286 188.4 443.781 187.953 445.315 187.617 446.876Z" fill="#FFFFFF" fill-rule="evenodd"/><path d="M191 456.999C203.703 457.151 208.744 445.218 202.003 435" fill="#3F69D1" fill-rule="evenodd"/><path d="M191 456.756C193.219 455.651 195.312 454.309 197.243 452.751 198.712 451.504 199.904 449.963 200.744 448.226 201.554 446.42 202.04 444.485 202.18 442.509 202.324 440.005 202.261 437.493 201.99 435 204.595 436.461 206.533 438.88 207.396 441.748 208.375 444.837 208.158 448.184 206.787 451.119 205.353 454.097 202.776 456.362 199.647 457.397 196.799 458.384 193.672 458.152 191 456.756Z" fill="#1500CD" fill-rule="evenodd"/><path d="M303.5 456C303.5 465.113 296.113 472.5 287 472.5 277.887 472.5 270.5 465.113 270.5 456 270.5 446.887 277.887 439.5 287 439.5 296.113 439.5 303.5 446.887 303.5 456Z" stroke="#201600" stroke-width="5.24" stroke-miterlimit="8" fill="#3F69D1" fill-rule="evenodd"/><path d="M277.531 462C276.626 460.364 276.112 458.541 276.029 456.674 275.903 454.762 276.189 452.846 276.866 451.054 277.588 449.176 278.846 447.551 280.485 446.384 282.103 445.29 284.062 444.82 286 445.062 284.611 446.009 283.348 447.127 282.239 448.391 281.312 449.574 280.562 450.886 280.011 452.285 279.454 453.781 279.006 455.315 278.67 456.875Z" fill="#FFFFFF" fill-rule="evenodd"/><path d="M281 466.999C293.703 467.151 298.744 455.218 292.003 445" fill="#3F69D1" fill-rule="evenodd"/><path d="M281 466.737C283.35 465.632 285.566 464.289 287.61 462.73 289.162 461.491 290.424 459.96 291.317 458.233 292.175 456.426 292.689 454.489 292.837 452.513 292.99 450.008 292.923 447.495 292.637 445 295.395 446.462 297.447 448.882 298.36 451.751 299.397 454.842 299.167 458.191 297.716 461.127 296.197 464.106 293.469 466.373 290.155 467.408 287.136 468.387 283.825 468.144 281 466.737Z" fill="#1500CD" fill-rule="evenodd"/><path d="M292.5 239.5C292.5 247.784 286.008 254.5 278 254.5 269.992 254.5 263.5 247.784 263.5 239.5 263.5 231.216 269.992 224.5 278 224.5 286.008 224.5 292.5 231.216 292.5 239.5Z" stroke="#201600" stroke-width="5.32" stroke-miterlimit="8" fill="#4C6EB1" fill-rule="evenodd"/><path d="M278 235C278 237.761 275.538 240 272.5 240 269.462 240 267 237.761 267 235 267 232.239 269.462 230 272.5 230 275.538 230 278 232.239 278 235Z" fill="#FFFFFF" fill-rule="evenodd"/><path d="M338.5 125C338.5 133.008 332.008 139.5 324 139.5 315.992 139.5 309.5 133.008 309.5 125 309.5 116.992 315.992 110.5 324 110.5 332.008 110.5 338.5 116.992 338.5 125Z" stroke="#201600" stroke-width="5.32" stroke-miterlimit="8" fill="#4C6EB1" fill-rule="evenodd"/><path d="M323 121C323 123.761 320.761 126 318 126 315.239 126 313 123.761 313 121 313 118.239 315.239 116 318 116 320.761 116 323 118.239 323 121Z" fill="#FFFFFF" fill-rule="evenodd"/><path d="M394.5 372C394.5 380.008 388.008 386.5 380 386.5 371.992 386.5 365.5 380.008 365.5 372 365.5 363.992 371.992 357.5 380 357.5 388.008 357.5 394.5 363.992 394.5 372Z" stroke="#201600" stroke-width="13.29" stroke-miterlimit="8" fill="#4C6EB1" fill-rule="evenodd"/><path d="M379 367C379 369.761 376.761 372 374 372 371.239 372 369 369.761 369 367 369 364.239 371.239 362 374 362 376.761 362 379 364.239 379 367Z" fill="#FFFFFF" fill-rule="evenodd"/><path d="M349.5 295.5C349.5 303.784 343.008 310.5 335 310.5 326.992 310.5 320.5 303.784 320.5 295.5 320.5 287.216 326.992 280.5 335 280.5 343.008 280.5 349.5 287.216 349.5 295.5Z" stroke="#201600" stroke-width="13.29" stroke-miterlimit="8" fill="#4C6EB1" fill-rule="evenodd"/><path d="M334 291C334 293.761 331.761 296 329 296 326.239 296 324 293.761 324 291 324 288.239 326.239 286 329 286 331.761 286 334 288.239 334 291Z" fill="#FFFFFF" fill-rule="evenodd"/><path d="M484.5 393C484.5 401.008 478.008 407.5 470 407.5 461.992 407.5 455.5 401.008 455.5 393 455.5 384.992 461.992 378.5 470 378.5 478.008 378.5 484.5 384.992 484.5 393Z" stroke="#201600" stroke-width="13.29" stroke-miterlimit="8" fill="#4C6EB1" fill-rule="evenodd"/><path d="M469 389C469 391.761 466.761 394 464 394 461.239 394 459 391.761 459 389 459 386.239 461.239 384 464 384 466.761 384 469 386.239 469 389Z" fill="#FFFFFF" fill-rule="evenodd"/><path d="M414.5 231C414.5 239.008 408.008 245.5 400 245.5 391.992 245.5 385.5 239.008 385.5 231 385.5 222.992 391.992 216.5 400 216.5 408.008 216.5 414.5 222.992 414.5 231Z" stroke="#201600" stroke-width="13.29" stroke-miterlimit="8" fill="#4C6EB1" fill-rule="evenodd"/><path d="M399 226.5C399 229.538 396.761 232 394 232 391.239 232 389 229.538 389 226.5 389 223.462 391.239 221 394 221 396.761 221 399 223.462 399 226.5Z" fill="#FFFFFF" fill-rule="evenodd"/><path d="M472.438 359.971 457.235 373.062 429.873 382 395.215 378.167 368.842 372.161 354.817 362.463 340.513 346.869 329.312 315.062 326.827 308.196 311.854 303.191 303.139 288.849 297 268.281 303.848 250.195 320.019 244.58 333.086 250.816 339.305 264.538 346.771 263.287 349.257 260.174 346.771 245.831 346.152 227.746 349.886 202.794 349.736 188.541 361.076 170.356 380.98 156.013 415.818 141 454.39 146.615 487.98 170.946 503.532 195.898 513.515 213.984 516 258.893 508.533 297.566 494.848 331.876 481.781 349.962" fill="#ECD3B6" fill-rule="evenodd"/><path d="M451.234 467.674 361.833 471.418 479.995 467.674 486.686 521.787 413.175 533.318 348.19 535 298.755 514.47 292.505 443.981 278.13 401.56 275 391.55 325.017 357.236 340.646 351 354.4 367.846 366.277 375.854 379.057 376.745 386.28 377.826C386.28 377.826 424.761 383.382 437.19 380.569 448.225 378.076 476.895 358.928 476.895 358.928L486.305 404.973 481.801 443.01 488 464.551 451.234 467.674" fill="#CC2529" fill-rule="evenodd"/><path d="M303.546 249.767 319.782 244.195 332.902 250.383 339.146 264 346.643 262.759 348.517 255.329 344.769 241.097 348.517 207.049 345.39 188.476 356.635 175.475 381 156.287 374.125 147 339.767 163.716 325.405 174.859 317.237 192.241 304.748 208.956 301 228.761 303.496 249.807" fill="#6D6B6D" fill-rule="evenodd"/><path d="M329.288 191.75C329.288 191.75 338.616 168.69 375.922 157.47 413.227 146.25 377.788 149.41 377.788 149.41L337.379 164.95 321.834 180.53 315 193 329.298 191.75" fill="#DBD7D6" fill-rule="evenodd"/><path d="M310.31 245.619C310.31 245.619 297.262 201.777 347 195.516L345.136 188 310.968 196.139 301 228.707 303.482 250 310.31 245.619" fill="#DBD7D6" fill-rule="evenodd"/><path d="M330 303.904 338.171 296C340.535 296.427 342.31 298.396 342.486 300.787 343.107 305.144 344.979 344.386 371.814 365.561 374.257 367.489 351.848 362.443 351.848 362.443L331.872 331.305" fill="#F4E1CB" fill-rule="evenodd"/><path d="M445.031 292C445.031 292 446.523 272.592 451.762 274.082 454.791 274.938 456.912 277.659 457 280.801 457 280.801 444.29 289.021 445.031 292" fill="#F4E1CB" fill-rule="evenodd"/><path d="M497.008 223C497.008 223 486.068 225.066 485.056 233.681 484.044 242.297 497.008 235.461 499 234.871" fill="#F4E1CB" fill-rule="evenodd"/><path d="M421.064 223C421.064 223 408 224.918 408 233.861 408 242.805 422.846 242.169 427 238.333" fill="#F4E1CB" fill-rule="evenodd"/><path d="M336 263.963C336 263.963 312.618 249.765 310.15 263.349 307.681 276.933 302.152 286.812 313.843 301L305.844 298.533 298.459 279.39 296 260.862 310.15 246 326.146 247.238 335.378 254.65 335.99 263.914" fill="#F4E1CB" fill-rule="evenodd"/><path d="M347.593 225C347.593 225 358.199 170 411.882 159.369 456.081 150.623 479.297 161.244 488 171.243 488 171.243 448.679 124.367 411.221 138.738 373.763 153.11 346.351 179.377 347.012 196.246 348.073 224.99 347.633 225 347.633 225" fill="#F4E1CB" fill-rule="evenodd"/><path d="M492.462 177.003C492.462 177.003 474.622 176.371 474 192.899 474.061 194.67 474.481 196.408 475.234 198 475.234 198 489.391 181.472 498 190.368" fill="#F4E1CB" fill-rule="evenodd"/><path d="M413 199.064C413 199.064 409.879 173.968 388.591 188.56 374.832 197.994 376.086 211.203 378.555 213.716 381.024 216.228 380.372 221.294 382.279 217.823 384.186 214.351 383.553 203.03 390.438 199.881 397.323 196.733 408.594 193.221 412.97 199.064" fill="#F4E1CB" fill-rule="evenodd"/><path d="M354.98 367.538 295.763 393.851C295.763 393.851 320.337 490.939 307.732 521L298.937 517.864 298.311 480.908 281.935 410.756 275 391.338 336.734 350 355 367.538" fill="#8F221D" fill-rule="evenodd"/><path d="M360.875 421 369 431.24 369 469 359.222 469C359.222 469 358 442.561 358 439.42 358 436.28 359.252 424.898 359.252 424.898" fill="#8F221D" fill-rule="evenodd"/><path d="M476.523 467 333 475.919 341.11 481.624 482 482Z" fill="#8F221D" fill-rule="evenodd"/><path d="M463 468 498.07 466.138C498.07 466.138 512.469 430.133 512.469 428.291 512.469 426.448 525 376.152 525 376.152L496.864 346.98 491.227 342 476.154 356.94 476.154 414.706 463 468" fill="#CC2529" fill-rule="evenodd"/><path d="M479 355.004 522.746 387 524 372.178 490.904 342 479.03 354.935" fill="#8F221D" fill-rule="evenodd"/><path d="M486.664 520 510.988 513.158 557.136 510.674 564 489.539 551.523 452.865 537.184 451 517.232 457.214 498.091 466.529 487.925 464.674 480 467.776" fill="#CC2529" fill-rule="evenodd"/><path d="M486 507.728C486 507.728 494.566 500.107 497.046 500.733L497.869 466.144 505.019 463C505.019 463 502.007 488.058 513.324 502.219 519.349 509.72 547.134 503.058 549.815 501.421 556.222 497.509 557.327 486.936 555.449 471.814L562.378 491.98 563 503.321 552.958 518.483 541.691 521 522.913 520.373 516.657 512.186 494.756 515.329 487.868 517.846" fill="#8F221D" fill-rule="evenodd"/><path d="M495.785 219.05 496.621 219.05C500.582 227.051 504.007 235.472 509 242.512 505.658 250.073 483.663 256.754 484.004 243.182 488.76 241.182 496.971 242.772 501.191 240.182 498.756 233.691 495.238 228.181 495.795 219" fill="#211C1D" fill-rule="evenodd"/><path d="M421.807 219C425.439 225.589 426.626 232.504 431.784 237.485 434.108 239.724 438.637 242.417 436.393 248.69 435.864 250.16 432.043 253.435 429.828 254.085 421.757 256.443 402.892 254.569 409.307 244.616 415.981 244.922 424.96 248.907 429.948 244.113 426.117 238.057 419.283 226.072 421.797 219.01" fill="#211C1D" fill-rule="evenodd"/><path d="M332.5 278.919C328.561 276.7 327.623 266.929 323.003 266.644 316.394 266.247 317.6 279.326 317.631 287 313.084 282.929 312.279 270.369 315.62 263.926 311.815 262.084 310.114 265.962 308 267.326 310.712 247.855 336.872 258.298 332.511 278.939" fill="#211C1D" fill-rule="evenodd"/><path d="M501 295.03C495.274 305.816 487.166 317.69 470.363 318 470.019 314.515 469.757 309.221 470.363 307.124 483.207 305.906 491.144 299.434 500.98 295" fill="#211C1D" fill-rule="evenodd"/><path d="M421 302C431.538 307.648 450.897 308.255 465.216 307.83 465.98 311.028 465.97 314.986 466 318.883 447.593 319.824 425.832 315.178 421.01 302" fill="#211C1D" fill-rule="evenodd"/><path d="M418.559 312.01C425.98 330.481 451.486 328.356 473 327.845 472.05 330.24 469.967 333.077 467.45 334.099 460.555 336.875 441.538 338.99 431.975 333.949 425.909 330.752 422.007 323.525 418.68 319.286 417.073 317.282 409.076 312.01 418.559 312" fill="#211C1D" fill-rule="evenodd"/><path d="M538 467C528.66 468.979 522.108 478.596 513 477.971 518.004 470.496 526.773 467.349 538 467" fill="#211C1D" fill-rule="evenodd"/><path d="M543 482.348C535.162 483.19 525.948 484.478 518 483.819 521.759 477.968 536.269 479.986 543 482.348" fill="#211C1D" fill-rule="evenodd"/><path d="M545 494.923C536.229 495.134 525.335 494.923 517 494.156 521.961 488.223 539.315 491.934 545 494.923" fill="#211C1D" fill-rule="evenodd"/><path d="M495.266 469.931C492.154 469.221 488.542 469.931 485.57 469.931 486.961 483.818 490.353 499.145 491.574 513.722 496.247 513.872 498.738 511.663 502.58 510.923 494.075 500.925 487.772 485.928 495.296 469.931ZM545.555 515.842C555.291 513.483 561.414 501.565 558.693 489.327 556.862 481.099 553.61 465.612 550.128 460.333 547.556 456.444 540.572 451.334 534.999 454.914 525.934 460.713 514.557 458.083 503.351 466.762 484.86 478.839 498.768 502.535 509.064 509.573 520.391 510.283 534.329 506.464 543.744 510.513 537.17 512.643 528.635 512.663 522.952 515.762 527.595 518.002 538.471 517.552 545.555 515.832ZM494.125 457.783C497.277 456.533 499.558 449.335 501.94 443.566 508.504 427.709 515.388 407.713 518.449 392.576 519.14 389.126 521.031 381.578 520.601 378.578 519.85 373.079 512.386 369.01 508.594 365.581 501.59 359.302 497.197 353.783 489.903 347.914 486.901 352.274 480.597 355.213 478.176 358.752 478.176 358.752 443.736 390.886 413.858 383.648 402.232 380.828 361.828 379.038 352.503 372.45L352.503 372.45C350.812 371.24 339.335 356.333 337.764 356.953 317.012 365.131 297.601 379.268 280.261 392.646 296.79 428.099 303.464 471.531 304.645 513.383 323.586 522.231 340.216 530.729 365.921 532.069L440.364 527.89C446.908 526.89 475.094 521.951 481.178 520.621 479.177 504.194 479.447 485.718 475.424 471.191 470.772 471.191 451.521 473.08 446.628 473.29 408.175 474.91 382.8 475.04 358.576 476.75 351.313 477.219 344.02 476.937 336.814 475.91 336.764 468.631 346.039 472.72 346.82 467.831 347.4 464.132 341.717 463.832 343.568 458.023 348.29 459.743 350.772 463.532 355.815 464.952 360.417 454.884 355.755 437.077 356.415 428.669 356.545 427.089 357.206 419.921 360.748 421.18 363.879 422.29 360.568 440.247 360.908 448.175 361.218 455.514 360.017 463.582 362.999 468.171 387.613 469.001 420.753 466.022 447.618 465.282 447.578 465.322 485.5 461.193 494.125 457.783ZM312.96 205.522C304.725 214.58 306.446 231.517 307.447 243.624 322.335 234.266 342.107 244.364 341.917 260.291 349.031 260.101 344.568 251.413 343.287 245.824 339.085 227.547 350.372 207.691 343.798 190.985 331.04 191.984 320.564 197.153 312.96 205.522ZM371.914 152.942C353.263 158.221 329.359 171.768 321.695 188.515 327.628 187.655 331.701 184.666 337.604 184.296 339.815 184.156 342.717 185.226 345.259 184.596 350.322 183.336 354.604 171.988 358.426 167.759 362.248 163.53 366.631 161.87 369.703 158.111 371.704 157.161 374.586 157.231 374.706 154.272 373.835 153.352 372.935 152.652 371.914 152.942ZM385.102 343.845C377.787 335.797 370.383 327.158 370.013 316.64 383.831 335.797 395.248 352.523 420.372 360.942 439.383 367.311 461.586 358.022 476.195 347.774 482.258 343.515 485.87 336.777 490.203 330.568 506.322 307.402 513.847 274.328 512.216 242.275 511.535 229.057 511.565 215.88 507.123 206.981 502.48 197.683 486.791 189.365 477.606 197.773 475.905 188.775 485.24 183.136 496.216 186.395 488.392 176.307 480.207 164.18 469.061 157.911L469.061 157.911C449.649 146.993 416.88 138.785 396.268 149.073 379.649 157.351 357.186 171.068 349.531 188.405 356.685 205.152 347.41 220.509 346.82 237.516 346.509 246.564 351.082 254.512 351.432 264.32 348.981 268.32 341.506 268.85 336.323 268.58 334.582 259.861 331.531 250.073 322.545 249.083 309.838 247.694 300.533 258.202 299.972 269.19 299.292 282.107 309.898 303.513 324.987 302.023 330.8 301.453 332.221 295.634 338.555 295.694 341.987 302.533 333.262 304.693 332.361 309.572 332.131 310.832 333.081 315.771 333.642 318.09 336.373 329.368 342.467 343.965 348.461 352.553 356.195 371.86 411.187 380.438 427.286 379.768 434.462 379.673 441.53 378.015 447.998 374.909 452.627 372.598 457.085 369.958 461.336 367.011 451.12 367.921 439.113 369.5 428.127 368.011 419.002 366.811 390.705 353.523 385.102 343.845ZM505.082 456.194C520.211 448.675 548.477 435.967 557.962 456.194 561.886 465.18 565.033 474.485 567.368 484.008 569.929 494.886 564.596 517.732 553.36 521.381 543.484 524.6 531.957 524.38 520.05 522.021 518.4 520.513 517.043 518.713 516.048 516.712 507.553 516.382 499.598 517.172 492.885 520.661 493.525 526.94 453.632 535.778 429.458 537.718 395.098 540.467 366.831 549.026 311.679 529.789 306.236 527.27 298.672 525.88 296.67 521.541 294.669 517.202 295.51 509.303 295.019 501.715 293.769 482.319 292.708 463.612 287.585 443.726 285.284 434.818 281.271 426.949 278.47 418.361 275.878 410.362 271.366 400.564 270.185 392.626 268.434 380.858 279.52 380.208 286.614 375.109 297.621 367.231 306.176 362.871 318.043 355.753 321.555 353.643 332.161 348.314 333.362 345.855 335.763 340.986 330.65 338.186 329.189 330.298 327.979 323.779 327.028 318.16 322.926 313.181 313.948 311.692 305.983 306.566 300.913 299.014 293.368 288.016 288.145 267.53 294.669 252.023 295.179 250.803 297.731 248.394 298.111 246.514 298.852 242.815 296.71 237.886 296.58 233.946 295.89 213.74 300.002 196.324 313.59 190.235 319.113 168.239 338.895 160.92 357.536 149.982 364.54 145.893 372.184 143.284 380.109 140.364 408.555 129.906 452.211 131.876 475.825 149.712 485.83 157.281 501.84 173.258 507.563 184.826 522.682 215.36 521.571 266.4 511.035 303.553 509.614 308.552 507.553 315.871 504.671 321.859 502.67 326.039 496.427 334.417 497.187 338.106 497.948 341.796 511.415 352.104 514.297 354.903 519.49 359.902 529.306 366.551 530.146 372.9 531.007 379.618 527.145 388.817 525.243 395.295 518.77 416.931 512.456 436.937 505.112 456.234" fill="#201600" fill-rule="evenodd"/><path d="M404.429 306.495C405.244 305.366 409.728 303.648 416 306.795 416 306.795 408.565 308.089 409.181 321L406.079 320.358C406.079 320.358 402.879 308.648 404.419 306.505" fill="#F4E1CB" fill-rule="evenodd"/><path d="M413.073 199.216C396.313 195.172 388.001 206.404 382.924 218 378.389 216.878 380.193 210.549 381.337 207.334 384.294 198.883 396.411 187.63 406.28 189.137 410.529 189.794 416.277 193.777 413.063 199.247" fill="#211C1D" fill-rule="evenodd"/><path d="M498.978 345.955C491.172 311.436 497.605 368.07 434.104 371.143 369.801 374.257 334.298 307.492 323.736 338.006 310.108 377.381 379.491 406.673 434.615 400.967L433.974 469.844 451.59 469.844C458.845 469.844 457.432 470.195 468.285 469.844 468.285 469.844 467.423 398.224 467.603 395.631 500.752 382.486 501.844 358.63 498.978 345.955Z" fill="#FFFFFF" fill-rule="evenodd"/><path d="M440.131 392.385C429.561 379.439 415.473 396.951 378.567 381.822 340.222 366.102 331.61 324.66 323.377 337.396 303.036 368.906 378.967 406.073 433.927 400.365L433.287 469.252C441.82 469.252 452.38 470.935 450.851 469.252 432.978 449.528 452.33 407.324 440.131 392.385Z" fill="#E4E4E4" fill-rule="evenodd"/><path d="M494.803 338.17C486.438 326.331 499.787 350.009 484.763 370.312 476.838 380.992 463 394 463 394 495.979 380.73 503.167 349.969 494.803 338.17Z" fill="#E4E4E4" fill-rule="evenodd"/><path d="M493.285 286.553C481.004 294.287 467.333 302.683 447.183 300.707 442.882 297.043 441.249 288.854 445.42 283.501 447.596 287.165 446.226 293.902 452.281 294.919 463.696 296.835 476.984 288.074 485.195 285.042 490.283 276.626 484.752 273.534 480.158 268.112 470.768 257.019 458.175 243.26 458.628 226.626 462.426 223.929 462.749 230.745 463.293 231.989 468.199 243.24 480.53 257.671 489.537 267.252 491.743 269.623 495.39 271.895 495.793 273.465 496.962 278.029 492.771 283.491 493.245 286.523" fill="#211C1D" fill-rule="evenodd"/><path d="M497.978 345.049C490.17 310.556 496.605 367.147 433.09 370.218 368.773 373.329 334.274 303.664 322.698 337.106 309.247 375.96 378.465 405.721 433.601 400.019L432.96 468.844 450.58 468.844C457.836 468.844 456.423 469.195 467.278 468.844 467.278 468.844 466.416 397.278 466.596 394.687 499.752 381.502 500.845 357.714 497.978 345.049Z" stroke="#201600" stroke-width="8.4" stroke-miterlimit="8" fill="none" fill-rule="evenodd"/><path d="M519.829 519.226C518.546 517.63 517.838 515.644 517.82 513.592 517.82 513.592 502.288 512.451 497.659 485.322 496.424 478.063 496.856 470.379 500.982 464.069 501.442 463.537 501.691 462.855 501.685 462.151 501.601 461.782 501.437 461.437 501.203 461.141 492.167 447.925 473.09 449.58 464.836 462.625 460.268 469.824 459.093 478.678 459.003 487.23 458.782 508.766 471.052 536.703 495.41 538.944 501.28 539.365 507.072 537.389 511.475 533.462 514.238 530.971 516.513 527.981 518.182 524.648 518.584 523.699 520.592 520.286 519.829 519.226Z" fill="#FFFFFF" fill-rule="evenodd"/><path d="M519.83 518.692C518.561 517.125 517.861 515.175 517.844 513.16 517.844 513.16 509.291 533.246 485.062 521.091 461.708 509.442 463.774 468 463.774 468 463.774 468 458.092 478.777 458.003 487.164 457.784 508.312 471.542 535.744 495.691 537.945 501.499 538.358 507.229 536.418 511.585 532.562 514.319 530.115 516.57 527.18 518.221 523.907 518.599 523.084 520.585 519.733 519.83 518.692Z" fill="#E4E4E4" fill-rule="evenodd"/><path d="M500 467.651C500 467.651 500.071 453.378 483.888 452.061 466.176 450.631 461 475 461 475 461 475 472.933 457.443 489.84 460.809 499.94 462.876 500 467.651 500 467.651Z" fill="#E4E4E4" fill-rule="evenodd"/><path d="M295.78 115.584C280.634 127.787 269.716 144.51 264.592 163.352 259.413 181.933 259.173 201.297 261.136 220.36 261.694 225.818 265.22 275 269.184 275L276.445 275C282.97 274.93 310.86 243.637 311.707 239.473 315.064 222.908 315.263 202.752 327.724 189.307 339.896 176.154 355.614 166.331 370.127 155.435 396.025 136.011 435.41 133.744 466 121.975 464.486 122.557 451.826 112.383 449.744 111.139 443.602 107.458 437.231 104.18 430.669 101.327 387.867 82.9061 331.638 86.4679 295.78 115.584Z" fill="#CC2529" fill-rule="evenodd"/><path d="M519.829 519.226C518.546 517.63 517.838 515.644 517.82 513.592 517.82 513.592 502.288 512.451 497.659 485.322 496.424 478.063 496.856 470.379 500.982 464.069 501.442 463.537 501.691 462.855 501.685 462.151 501.601 461.782 501.437 461.437 501.203 461.141 492.167 447.925 473.09 449.58 464.836 462.625 460.268 469.824 459.093 478.678 459.003 487.23 458.782 508.766 471.052 536.703 495.41 538.944 501.28 539.365 507.072 537.389 511.475 533.462 514.238 530.971 516.513 527.981 518.182 524.648 518.584 523.699 520.592 520.286 519.829 519.226Z" stroke="#201600" stroke-width="8.4" stroke-linejoin="round" stroke-miterlimit="10" fill="none" fill-rule="evenodd"/><path d="M295.609 112C295.609 112 273.422 126.532 264.527 159.649 259.564 178.224 259.127 197.52 261.083 216.546 261.639 221.99 265.153 271.051 269.104 271.051 269.104 271.051 285.096 281.129 311.452 235.612 319.88 221.05 291.757 229.046 278.425 188.713 269.65 162.171 295.609 112 295.609 112Z" fill="#8F221D" fill-rule="evenodd"/><path d="M293.955 114.454C278.736 126.587 267.764 143.212 262.612 161.945 257.417 180.423 257.167 199.698 259.139 218.665 259.699 224.092 263.243 273 267.227 273L274.505 273C281.061 272.93 309.09 241.812 309.941 237.671 313.314 221.199 313.515 201.155 326.037 187.786 338.27 174.706 354.066 164.938 368.651 154.103 394.678 134.787 434.259 132.533 465 120.829 463.478 121.408 450.755 111.291 448.663 110.054 442.491 106.393 436.088 103.134 429.494 100.297 386.5 81.9188 329.992 85.5006 293.955 114.454Z" stroke="#201600" stroke-width="8.4" stroke-miterlimit="8" fill="none" fill-rule="evenodd"/><path d="M311 307.5C311 327.106 295.106 343 275.5 343 255.894 343 240 327.106 240 307.5 240 287.894 255.894 272 275.5 272 285.3 272 286.925 285.04 293.355 291.47 299.785 297.9 311 297.7 311 307.5Z" fill="#FFFFFF" fill-rule="evenodd"/><path d="M311 307.418C311 327.07 294.993 343 275.247 343 255.506 343 251 335.399 251 335.399 251 335.399 271.357 337.088 288.32 316.829 302.231 300.22 283.268 278 283.268 278 283.268 278 311 297.595 311 307.418Z" fill="#E4E4E4" fill-rule="evenodd"/><path d="M311 307.5C311 327.106 295.106 343 275.5 343 255.894 343 240 327.106 240 307.5 240 287.894 255.894 272 275.5 272 285.3 272 286.925 285.04 293.355 291.47 299.785 297.9 311 297.7 311 307.5Z" stroke="#201600" stroke-width="8.4" stroke-miterlimit="8" fill="none" fill-rule="evenodd"/><path d="M534.221 211.144C545.073 172.399 504.404 123.385 463.415 119.779 403.612 114.495 343.719 136.12 307.081 183.766 284.967 212.523 258.701 260.148 291.348 291.323 302.03 301.521 316.493 307.304 330.567 311 278.185 303.708 292.268 216.678 338.788 248.072 360.653 167.075 521.278 129.688 517.137 225.618 525.009 224.269 532.08 218.776 534.221 211.144Z" fill="#FFFFFF" fill-rule="evenodd"/><path d="M464.02 158.152C427.232 152.455 361.694 165.947 328 242.934L339.868 249C369.522 162.049 521.198 128.268 516.957 226.013 524.996 224.674 536.824 169.445 464.02 158.152Z" fill="#E4E4E4" fill-rule="evenodd"/><path d="M533.002 213.611 533.002 213.551C536.752 207.431 538.147 200.094 537.988 192.916 537.529 171.083 523.311 151.436 505.612 138.668 476.487 117.623 437.549 112.322 402.641 120.967 365.678 130.122 332.714 153.982 309.112 183.532 286.508 211.844 260.882 259.873 293.428 291.03 304.077 301.223 316.83 305.296 330.849 309 278.631 301.712 292.191 218.663 338.627 251.567 335.984 249.69 348.438 228.736 349.964 226.449 355.481 218.317 362.068 210.967 369.547 204.596 385.063 191.379 403.145 181.522 422.653 175.645 456.494 165.293 502.232 165.073 511.624 207.591 512.831 213.052 513.549 218.762 514.616 224.902 521.695 224.014 529.253 219.691 533.002 213.611Z" stroke="#201600" stroke-width="8.4" stroke-miterlimit="8" fill="none" fill-rule="evenodd"/><path d="M442 370C466.812 373.216 465.997 396 465.997 396" stroke="#201600" stroke-width="8.4" stroke-miterlimit="8" fill="none" fill-rule="evenodd"/><path d="M289 187C287.686 190.394 286.322 193.748 285.067 197.132L283.414 202.303C282.877 204.029 282.269 205.716 281.881 207.483 281.025 210.986 280.049 214.43 279.511 217.992L279.033 220.632C278.874 221.515 278.695 222.388 278.615 223.282L278.008 228.601C277.359 235.647 277.446 242.74 278.267 249.768 278.515 251.505 278.695 253.242 279.073 254.939L279.571 257.499 280.208 260.01 280.527 261.26 280.905 262.491C281.164 263.304 281.393 264.138 281.702 264.912 282.01 265.686 282.269 266.51 282.598 267.254 282.757 267.621 282.916 268.028 283.086 268.376 283.255 268.723 283.444 269.14 283.554 269.368L276.056 273C275.777 272.365 275.648 271.948 275.459 271.442 275.27 270.936 275.15 270.45 275.001 270.013 274.682 269.021 274.463 268.127 274.214 267.185 273.965 266.242 273.786 265.299 273.577 264.366L273.288 262.957 273.069 261.548 272.641 258.73 272.362 255.901C272.133 254.026 272.113 252.14 272.024 250.265 271.867 242.817 272.488 235.374 273.876 228.055L275.031 222.646C275.2 221.743 275.469 220.86 275.718 219.977L276.464 217.327C277.36 213.765 278.695 210.381 279.9 206.887 280.457 205.151 281.244 203.493 281.951 201.806L284.111 196.785C285.694 193.47 287.377 190.245 289 187Z" fill-rule="evenodd"/></g></svg>
