<svg id="Слой_1" data-name="Слой 1" xmlns="http://www.w3.org/2000/svg" viewBox="0 0 527 554"><defs><style>.cls-1{stroke:#000;stroke-width:1.68px;}.cls-1,.cls-10,.cls-20,.cls-22,.cls-23,.cls-24,.cls-25,.cls-26,.cls-27,.cls-5,.cls-9{stroke-miterlimit:10;}.cls-2{fill:#006a27;}.cls-3{fill:#00501d;}.cls-20,.cls-21,.cls-4{fill:none;stroke-width:8.4px;}.cls-10,.cls-20,.cls-21,.cls-4,.cls-5,.cls-9{stroke:#201600;}.cls-4{stroke-linecap:round;}.cls-21,.cls-4{stroke-linejoin:round;}.cls-5,.cls-7{fill:#3f69d1;}.cls-5{stroke-width:5.24px;}.cls-6{fill:#fff;}.cls-8{fill:#1500cd;}.cls-10,.cls-9{fill:#4c6eb1;}.cls-9{stroke-width:5.32px;}.cls-10{stroke-width:13.29px;}.cls-11{fill:#ecd3b6;}.cls-12,.cls-25{fill:#cc2529;}.cls-13{fill:#6d6b6d;}.cls-14{fill:#dbd7d6;}.cls-15{fill:#f4e1cb;}.cls-16{fill:#8f221d;}.cls-17{fill:#211c1d;}.cls-18{fill:#201600;}.cls-19{fill:#e4e4e4;}.cls-22{fill:#f7ff0f;}.cls-22,.cls-24,.cls-25{stroke:#ffb217;}.cls-22,.cls-23,.cls-24{stroke-width:2.05px;}.cls-23,.cls-26{fill:#ffb815;stroke:#d13400;}.cls-24,.cls-27{fill:#fdff00;}.cls-25,.cls-27{stroke-width:0.51px;}.cls-26{stroke-width:0.5px;}.cls-27{stroke:#fb1500;}</style></defs><title>logoМонтажная область 3</title><rect class="cls-1" x="378.54" y="375.56" width="109.14" height="4" rx="2" ry="2" transform="translate(-125.97 510.09) rotate(-54.42)"/><path class="cls-2" d="M95.9,304.83c1.45,24.72-8.31,44.41-29.3,56.24-4.31,2.43-27.91,4.63-29.65,8.6C32,381,51.31,385.49,58.83,385.34,47.17,403-11.47,412,27.86,440.86c22.34,16.43,57.3,3.48,80.59-2.93,6.69,26.83,41.11,13.52,56.65,1.43,9.14,17.47,27.36,25.8,46.86,23.46,27.77-3.34,30.24-29.49,49.7-37.83,21.77-9.33,95.87,14.28,95.89-40.27,30.82,11.78,54.46-28.46,21.54-42.26,28.94-15.38,27.76-49.2-6.92-51-19-1-29.83,10.83-50.35,4.68-14.92-4.47-23.5-15.65-34.87-25.16-15.24-12.74-10.59-13.37-25.94-14.86-15.64-1.52-42.07,12.41-57.09,16.84Z"/><path class="cls-3" d="M45.7,421a236.86,236.86,0,0,0,46-10.19c6.68-2.12,17.73-8.34,25.24-7.2,10.52,1.59,5.22,9.81,16.93,10.5,8,.47,12.07-11.89,17.25-12.38,6.23-.59,11.51,10.66,17.71,12.66,19.76,6.37,27.79-16.66,36.6-28.57,7.49,7.62,16,14.83,26.28,18.37,14.32,4.94,18.92,0,31.43-6.79,9.11-4.92,4.39-5,13.13-6.2,5.13-.73,10.63,2.76,16.57,1.44,16.59-3.67,12.65-11.89,15.07-24.55,2-10.34,2.6-3.89,9.77-12.88,3-3.73,5.59-7.31,6-12.3,1-12.72-10.69-19.3-19.09-25.94-8.72-6.9-24.4-14.66-30.24-23.8-5.57-8.71-.6-19.27,1.65-30.51,10.79,8.49,21.85,20.1,34.06,26.16,18.61,9.23,28.39,4.78,47.5,2.84,10.63-1.08,29.58-.67,36.45,8.23,12.81,16.6-5.54,30-15.33,40.92,10.73,9.18,22.41,24.68,9.44,36.63-6.45,5.95-21.1,2.84-28.46,7.82-8.37,5.66-2.82,9.92-8.63,19.3-15.82,25.54-66.59,8.83-90.07,19-15.3,6.64-24,28.78-39.36,35.19-19.62,8.17-32.9,1.58-46.24-11-17.66-16.66-18.07,0-39,3-6.69,1-17.22-1.38-22.23-4.47-13.61-8.42.26-8.38-16.13-8-18.17.38-40,13.8-56.86,8C34.54,444,21,434.67,17.17,429c-8.18-12.17-1.36-16.22,7.91-22.69C25.35,419,35,421.32,45.7,421Z"/><path class="cls-3" d="M299.9,416a110.69,110.69,0,0,0,23.49-13.22c3.86-2.94,7.85-5.95,10.82-9.84,2.21-2.89,5.23-13.6,6.94-15,6.75-5.61,18.95.91,26.09-7.77,5.36-6.51,4.76-16.7-3.83-19.76C386.6,328.45,385.1,307.22,348.7,307c-13.69-.09-27.49,2.79-41.17,2.41-8.72-.24-27.14-9.48-34.37-5.35-3.23,1.84-2.84,11.58-6.53,15.19-3.85,3.76-11,4.23-16.36,4.32-6.55.11-16.19-4.88-22.21-3s-5.92,8.57-11.06,11.7c-8.88,5.42-10.18-.31-19.09-.36-10.64-.07-3.65,1.2-12.57,6.23-15,8.47-21.1,4.58-30.68-10.15C140.73,341,124.8,346.3,107,334.52c18.44-6.06,28.79-7.49,42.29-23.79,3.4,4.45,7.51,17.18,12.22,17.82,9.44,1.28,9.45-11,10.81-16.82,1.22-5.24,8-7.26,10.15-8.1,2-.77,2.46,7.83,13.32,10.89,7.37,2.07,13.4-15.27,20.93-17,12.68-3,28.25,17.47,42.1,5,2.19-2-4.76-13.81-2.65-15.88,2.27-2.22,13.69,1,15.44-1.6,4.12-6.1,3.19-16.14,5.33-23.62,12,10.79,24.42,20.4,38.59,28,16.06,8.64,23.35,3.08,41.34,1.36,14.37-1.38,24.76-2.44,34.78,7.89,18.07,18.64-13,42.2-13,42.2S398.79,351.37,394.3,368c-2.33,8.65-3.54,8.06-9,12-6.33,4.56-28.22,3.08-28.22,3.08s-2,17.38-5.87,22.55C347.95,410,341.37,414,336,416.17c-13.24,5.37-26.59,3.8-41,5Z"/><path class="cls-4" d="M95.45,303.19c1.45,24.72-8.31,44.41-29.3,56.24-4.31,2.43-27.91,4.63-29.65,8.6-5,11.32,14.37,15.81,21.89,15.67-11.66,17.67-70.3,26.61-31,55.52,22.34,16.43,57.3,3.48,80.59-2.93,6.69,26.83,41.11,13.52,56.65,1.43,9.14,17.47,27.36,25.8,46.86,23.46,27.77-3.34,30.24-29.49,49.7-37.83C283,414,357.08,437.64,357.1,383.08c30.82,11.78,54.46-28.46,21.54-42.26,28.94-15.38,27.76-49.2-6.92-51-19-1-29.83,10.83-50.35,4.68-14.92-4.47-23.5-15.65-34.87-25.16C271.26,256.62,275.9,256,260.56,254.5c-15.64-1.52-42.07,12.41-57.09,16.84Z"/><path class="cls-2" d="M103.49,206.63C91.77,257,66.53,249.92,30.44,273-13.26,301,48.7,294.66,71,295.26c-25.72,30,27.66,13.91,39.53,13.75-17.91,45.31,28,28,39.84-2.16,5.23,39.53,21.17,20.68,26-8.33,4.63,27.87,35.35,13.52,39.86-5.67,11.59,18.54,56.51,23.9,39.89-6.27,22.4,6.82,12.74-3.24,21.2-8.17,2.35-1.37-6.3-11.86-1.39-15.73,5.74-4.54,13.64,4.87,20,4.66,9.22-.31,26.64,8.23,32.54-5,4.46-10-5.61-20.49-15.15-23.67,17.74-8.92,11.27-23.46-6.64-26.31,6.93-5,17.54-16.94,15.29-26.47-4-16.9-8.44-5.64-23.36-7.49-26.6-3.3-39.76-9.16-64.85-17.49-26.08-8.66-23.09-8-50.78,5.92Z"/><path class="cls-3" d="M15.76,286c21.65.89,39.21,2.8,60.54-2.62,2.42-.61,13.08-5.38,15.26-4.19,2.56,1.39,1.3,9.86,3.93,12,8.54,7,15.71,0,24.77-5.54-4.55,12.2.61,20.7,12.68,17.21,9.31-2.69,15.88-14.24,21-21.4,9.22,24.7,19.23,0,30.45.6,10.48.6,6.49,11.87,18.55,2.16,5-4,7.64-13.57,10.55-19.12,6.06,4.73,15.17,11.17,23.07,6.75,4.78-2.68,5.05-8.64,9.37-11.67,3.84-2.71,18.76-6.1,14.23-13.5,3.72-.17,16.93-.93,13.83-8-.49-1.11-1.44-2-1.86-3.11-1.06-2.88,5.91-6.35,7.35-8.72,2.22-3.67,2.29-7.35,1-11.41-4.31-13.08-12.2-9.11-23.42-11-19.28-3.26-29.89-16.26-40.52-31.66,7.3-5,12.85-10.71,20.79-10.54,9.29.21,20.19,8.78,29.24,11.39,10.92,3.14,39.58,1.9,44.92,10.08,3.64,5.56-.87,27.39-1.08,34-.29,9.22,2.49,25.6-1.09,34.12-4.1,9.78-.31,7.37-15.1,9.23-7.65,1-21.2-2.19-18.79,4.45,13.59,37.4-18.46,20.9-18.46,20.9s5.77,13.89-2.57,21c-7.29,6.18-36.88-10.06-36.88-10.06s-13.79,20.66-20.74,19.29c-12-2.36-20.28-16.36-20.28-16.36s-8.42,32.26-21.63,28.35c-5.33-1.58-11.12-21.69-11.12-21.69s-14.7,39.31-34.55,26c-9.17-6.17,4.15-21.36,1.42-23.8-4.73-4.23-33,10.14-46.23.22-4.13-3.1,4.47-9.32,6.7-14C60.9,295.24,17.3,300.69,15.76,286Z"/><path class="cls-4" d="M103.49,206.63C91.77,257,66.53,249.92,30.44,273-13.26,301,48.7,294.66,71,295.26c-25.72,30,27.66,13.91,39.53,13.75-17.91,45.31,22.95,28,34.81-2.16,5.23,39.53,24.52,22.36,29.39-6.65,20.07,31.62,37,11.84,41.54-7.35,11.59,18.54,56.51,23.9,39.89-6.27,39.16,8.86,14.9-20,19.8-23.9,5.74-4.54,13.64,4.87,20,4.66,9.22-.31,26.64,8.23,32.54-5,4.46-10-5.61-20.49-15.15-23.67,17.74-8.92,11.27-23.46-6.64-26.31,6.93-5,17.54-16.94,15.29-26.47-4-16.9-8.44-5.64-23.36-7.49-26.6-3.3-39.76-9.16-64.85-17.49-26.08-8.66-23.09-8-50.78,5.92Z"/><path class="cls-2" d="M120,40.81c-2.43,29.49,10.35,69.94-11.18,94-14.26,16-85,7.92-45.39,33.47-14.72-1-57.69,1.35-33.71,22.68,9.4,8.36,41.58,4.61,52.7.22-14.78,16.64,3.82,27.41,20.13,27.12,17.9-.32,32.43-16.76,41.53-30.46,3.12,27.69,25,10.07,25.56-9.37,13.39,25.75,43.46,19.46,28.92-12,10.81,12.46,28.34,5.79,20.3-11.44,34.25,16.57,55.54-27.74,17.14-29.32,10.13-12.33,16.93-29.07,2.35-40.5-55.11,60.66-93.26-30.34-114.08-71.8C122,19,121,28.35,120,40.81Z"/><path class="cls-3" d="M131.21,33.53c11.34,17.57,9.5,44.86,23.19,61.7,6.67,8.21,16.74,13.53,25.86,18.29,6.53,3.41,34.34,16.77,9.4,17.56,3.82,3.92,17.66,17.39,14.52,23.35-4.15,7.88-21.44-1.72-28-4.76,2.33,7.52,8.09,15.05,6.08,23a98.14,98.14,0,0,1-24.16-7c2.54,24.16-14.59,11.68-25.21,4.24-4,9.28-12.78,25.61-23.8,28-16.68,3.67-14.62-12-6.13-20.54-28,7.22-49.78,12.67-77.57,3,4,24.16,41.22,14.45,57,10.85-4.29,10.84-7.58,14.3,3,22.29,4.36,3.3,12.42,5,17.92,4.54,16.9-1.51,28.48-15.37,39.79-26.08,3,8.62,10.62,11.09,17.77,7.31,13-6.86,6.13-25.2,10.42-17.87,3.41,5.81,20.47,17.92,28.18,11.27,3.64-3.14-.29-19.48,2.81-22.82,1.83-2,12.06,4.67,14.19,2.93,3.15-2.58,1.84-10.49,4.92-13.17,4.2-3.66,12.82-.05,18.5-2.25,8.72-3.38,15.53-10,14.31-18.62-1.46-10.22-8.76-9.71-18.2-13.05,8.41-19.28,12.93-22.54,2.35-40.5C188.81,130.83,166.36,88,131.21,33.53Z"/><path class="cls-4" d="M120,40.81c-2.43,29.49,10.35,69.94-11.18,94-14.26,16-85,7.92-45.39,33.47-14.72-1-57.69,1.35-33.71,22.68,9.4,8.36,41.58,4.61,52.7.22-14.78,16.64,3.82,27.41,20.13,27.12,17.9-.32,32.43-16.76,41.53-30.46,3.12,27.69,25,10.07,25.56-9.37,13.39,25.75,43.46,19.46,28.92-12,10.81,12.46,28.34,5.79,20.3-11.44,34.25,16.57,55.54-27.74,17.14-29.32,10.13-12.33,16.93-29.07,2.35-40.5-55.11,60.66-93.26-30.34-114.08-71.8C122,19,121,28.35,120,40.81Z"/><circle class="cls-5" cx="124.7" cy="92.14" r="16.37"/><path class="cls-6" d="M115.88,98.44a12,12,0,0,1-1.49-5.28,13.28,13.28,0,0,1,.83-5.57A10.16,10.16,0,0,1,118.81,83a8,8,0,0,1,5.47-1.31,19.77,19.77,0,0,0-3.73,3.3,15.39,15.39,0,0,0-2.21,3.86A32.74,32.74,0,0,0,117,93.36Z"/><path class="cls-7" d="M120,103.33c12.7.15,17.74-11.61,11-21.68"/><path class="cls-8" d="M120,103.33a34.36,34.36,0,0,0,6.26-4,13.83,13.83,0,0,0,3.51-4.49,16.81,16.81,0,0,0,1.44-5.71,45.14,45.14,0,0,0-.19-7.5,11.54,11.54,0,0,1,5.42,6.74,12.86,12.86,0,0,1-.61,9.36,12.19,12.19,0,0,1-7.16,6.27A11,11,0,0,1,120,103.33Z"/><circle class="cls-5" cx="141.49" cy="160.98" r="16.37"/><path class="cls-6" d="M132.67,167.28a12,12,0,0,1-1.49-5.28,13.28,13.28,0,0,1,.83-5.57,10.16,10.16,0,0,1,3.59-4.63,8,8,0,0,1,5.47-1.31,19.77,19.77,0,0,0-3.73,3.3,15.39,15.39,0,0,0-2.21,3.86,32.74,32.74,0,0,0-1.33,4.55Z"/><path class="cls-7" d="M136.77,172.17c12.7.15,17.74-11.61,11-21.68"/><path class="cls-8" d="M136.77,172.17a34.35,34.35,0,0,0,6.26-4,13.83,13.83,0,0,0,3.51-4.49A16.81,16.81,0,0,0,148,158a45.14,45.14,0,0,0-.19-7.5,11.54,11.54,0,0,1,5.42,6.74,12.86,12.86,0,0,1-.61,9.36,12.19,12.19,0,0,1-7.16,6.27A11,11,0,0,1,136.77,172.17Z"/><circle class="cls-5" cx="74.33" cy="213.03" r="16.37"/><path class="cls-6" d="M65.51,219.33A12,12,0,0,1,64,214.05a13.28,13.28,0,0,1,.83-5.57,10.16,10.16,0,0,1,3.59-4.63,8,8,0,0,1,5.47-1.31,19.77,19.77,0,0,0-3.73,3.3A15.39,15.39,0,0,0,68,209.7a32.74,32.74,0,0,0-1.33,4.55Z"/><path class="cls-7" d="M69.6,224.22c12.7.15,17.74-11.61,11-21.68"/><path class="cls-8" d="M69.6,224.22a34.35,34.35,0,0,0,6.26-4,13.83,13.83,0,0,0,3.51-4.49A16.81,16.81,0,0,0,80.81,210a45.14,45.14,0,0,0-.19-7.5A11.54,11.54,0,0,1,86,209.28a12.86,12.86,0,0,1-.61,9.36,12.19,12.19,0,0,1-7.16,6.27A11,11,0,0,1,69.6,224.22Z"/><circle class="cls-5" cx="129.74" cy="275.16" r="16.37"/><path class="cls-6" d="M120.92,281.45a12,12,0,0,1-1.49-5.28,13.28,13.28,0,0,1,.83-5.57,10.16,10.16,0,0,1,3.59-4.63,8,8,0,0,1,5.47-1.31,19.77,19.77,0,0,0-3.73,3.3,15.39,15.39,0,0,0-2.21,3.86,32.74,32.74,0,0,0-1.33,4.55Z"/><path class="cls-7" d="M125,286.35c12.7.15,17.74-11.61,11-21.68"/><path class="cls-8" d="M125,286.35a34.35,34.35,0,0,0,6.26-4,13.83,13.83,0,0,0,3.51-4.49,16.81,16.81,0,0,0,1.44-5.71,45.13,45.13,0,0,0-.19-7.5,11.54,11.54,0,0,1,5.42,6.74,12.86,12.86,0,0,1-.61,9.36,12.19,12.19,0,0,1-7.16,6.27A11,11,0,0,1,125,286.35Z"/><circle class="cls-5" cx="42.43" cy="300.34" r="16.37"/><path class="cls-6" d="M33.61,306.64a12,12,0,0,1-1.49-5.28,13.28,13.28,0,0,1,.83-5.57,10.16,10.16,0,0,1,3.59-4.63A8,8,0,0,1,42,289.85a19.77,19.77,0,0,0-3.73,3.3A15.39,15.39,0,0,0,36.07,297a32.74,32.74,0,0,0-1.33,4.55Z"/><path class="cls-7" d="M37.7,311.53c12.7.15,17.74-11.61,11-21.68"/><path class="cls-8" d="M37.7,311.53a34.35,34.35,0,0,0,6.26-4,13.83,13.83,0,0,0,3.51-4.49,16.81,16.81,0,0,0,1.44-5.71,45.14,45.14,0,0,0-.19-7.5,11.54,11.54,0,0,1,5.42,6.74,12.86,12.86,0,0,1-.61,9.36,12.19,12.19,0,0,1-7.16,6.27A11,11,0,0,1,37.7,311.53Z"/><circle class="cls-5" cx="138.13" cy="349.03" r="16.37"/><path class="cls-6" d="M129.32,355.33a12,12,0,0,1-1.49-5.28,13.28,13.28,0,0,1,.83-5.57,10.16,10.16,0,0,1,3.59-4.63,8,8,0,0,1,5.47-1.31,19.77,19.77,0,0,0-3.73,3.3,15.39,15.39,0,0,0-2.21,3.86,32.74,32.74,0,0,0-1.33,4.55Z"/><path class="cls-7" d="M133.41,360.22c12.7.15,17.74-11.61,11-21.68"/><path class="cls-8" d="M133.41,360.22a34.35,34.35,0,0,0,6.26-4,13.83,13.83,0,0,0,3.51-4.49,16.81,16.81,0,0,0,1.44-5.71,45.13,45.13,0,0,0-.19-7.5,11.54,11.54,0,0,1,5.42,6.74,12.86,12.86,0,0,1-.61,9.36,12.19,12.19,0,0,1-7.16,6.27A11,11,0,0,1,133.41,360.22Z"/><circle class="cls-5" cx="84.4" cy="389.33" r="16.37"/><path class="cls-6" d="M75.59,395.63a12,12,0,0,1-1.49-5.28,13.28,13.28,0,0,1,.83-5.57,10.16,10.16,0,0,1,3.59-4.63A8,8,0,0,1,84,378.84a19.77,19.77,0,0,0-3.73,3.3A15.39,15.39,0,0,0,78,386a32.74,32.74,0,0,0-1.33,4.55Z"/><path class="cls-7" d="M79.68,400.52c12.7.15,17.74-11.61,11-21.68"/><path class="cls-8" d="M79.68,400.52a34.35,34.35,0,0,0,6.26-4A13.83,13.83,0,0,0,89.45,392a16.81,16.81,0,0,0,1.44-5.71,45.13,45.13,0,0,0-.19-7.5,11.54,11.54,0,0,1,5.42,6.74,12.86,12.86,0,0,1-.61,9.36,12.19,12.19,0,0,1-7.16,6.27A11,11,0,0,1,79.68,400.52Z"/><circle class="cls-5" cx="175.07" cy="399.41" r="16.37"/><path class="cls-6" d="M166.25,405.7a12,12,0,0,1-1.49-5.28,13.28,13.28,0,0,1,.83-5.57,10.16,10.16,0,0,1,3.59-4.63,8,8,0,0,1,5.47-1.31,19.77,19.77,0,0,0-3.73,3.3,15.39,15.39,0,0,0-2.21,3.86,32.74,32.74,0,0,0-1.33,4.55Z"/><path class="cls-7" d="M170.35,410.59c12.7.15,17.74-11.61,11-21.68"/><path class="cls-8" d="M170.35,410.59a34.35,34.35,0,0,0,6.26-4,13.83,13.83,0,0,0,3.51-4.49,16.81,16.81,0,0,0,1.44-5.71,45.13,45.13,0,0,0-.19-7.5,11.54,11.54,0,0,1,5.42,6.74,12.86,12.86,0,0,1-.61,9.36,12.19,12.19,0,0,1-7.16,6.27A11,11,0,0,1,170.35,410.59Z"/><circle class="cls-9" cx="166.68" cy="182.79" r="14.62"/><circle class="cls-6" cx="161.4" cy="179.08" r="5.02"/><circle class="cls-9" cx="212.05" cy="68.3" r="14.62"/><circle class="cls-6" cx="206.77" cy="64.59" r="5.02"/><circle class="cls-10" cx="268.06" cy="314.97" r="14.62"/><circle class="cls-6" cx="262.77" cy="311.26" r="5.02"/><circle class="cls-10" cx="223.58" cy="238.78" r="14.62"/><circle class="cls-6" cx="218.29" cy="235.07" r="5.02"/><circle class="cls-10" cx="358.11" cy="336.59" r="14.62"/><circle class="cls-6" cx="352.82" cy="332.88" r="5.02"/><circle class="cls-10" cx="288.34" cy="174.06" r="14.62"/><circle class="cls-6" cx="283.06" cy="170.35" r="5.02"/><path id="path28" class="cls-11" d="M361.23,303.61,346,316.69l-27.41,8.93-34.72-3.83-26.42-6-14.05-9.69-14.33-15.58-11.22-31.78-2.49-6.86-15-5-8.73-14.33L185.48,212l6.86-18.07,16.2-5.61,13.09,6.23,6.23,13.71,7.48-1.25,2.49-3.11-2.49-14.33-.62-18.07,3.74-24.93-.15-14.24,11.36-18.17,19.94-14.33,34.9-15,38.64,5.61,33.65,24.31,15.58,24.93,10,18.07,2.49,44.87-7.48,38.64-13.71,34.28-13.09,18.07"/><path id="path30" class="cls-12" d="M340,411.42l-89.12,3.74,117.79-3.74,6.67,54.06L302.06,477l-64.78,1.68L188,458.17l-6.23-70.42-14.33-42.38-3.12-10,49.86-34.28,15.58-6.23,13.71,16.83,11.84,8,12.74.89,7.2,1.08s38.36,5.55,50.75,2.74c11-2.49,39.58-21.62,39.58-21.62l9.38,46-4.49,38,6.18,21.52L340,411.42"/><path id="path32" class="cls-13" d="M192.34,193.92l16.2-5.61,13.09,6.23,6.23,13.71,7.48-1.25,1.87-7.48-3.74-14.33,3.74-34.28-3.12-18.7,11.22-13.09,24.31-19.32-6.86-9.35-34.28,16.83-14.33,11.22L206,136l-12.46,16.83-3.74,19.94,2.49,21.19"/><path id="path34" class="cls-14" d="M217.89,135.34s9.35-23.06,46.74-34.28S266.5,93,266.5,93L226,108.54l-15.58,15.58-6.85,12.47,14.33-1.25"/><path id="path36" class="cls-14" d="M199.19,189.56S186.1,145.93,236,139.7l-1.87-7.48-34.28,8.1-10,32.41,2.49,21.19,6.85-4.36"/><path id="path38" class="cls-15" d="M219.13,247.52l8.16-7.91a5.26,5.26,0,0,1,4.31,4.79c.62,4.36,2.49,43.63,29.29,64.82,2.44,1.93-19.94-3.12-19.94-3.12L221,274.94"/><path id="path40" class="cls-15" d="M333.81,235.68s1.45-18.89,6.54-17.44a7,7,0,0,1,5.09,6.54s-12.35,8-11.63,10.9"/><path id="path42" class="cls-15" d="M385.54,166.5s-10.27,2.17-11.22,11.22,11.22,1.87,13.09,1.25"/><path id="path44" class="cls-15" d="M310.13,167.12s-13.71,1.87-13.71,10.59,15.58,8.1,19.94,4.36"/><path id="path46" class="cls-15" d="M225.37,207.63s-23.68-14.33-26.18-.62-8.1,23.68,3.74,38l-8.1-2.49-7.48-19.32-2.49-18.7,14.33-15,16.2,1.25,9.35,7.48.62,9.35"/><path id="path48" class="cls-15" d="M236.58,168.37s10.59-54.84,64.19-65.44c44.13-8.72,67.31,1.87,76,11.84,0,0-39.26-46.74-76.66-32.41S235.34,122.88,236,139.7c1.06,28.66.62,28.67.62,28.67"/><path id="path50" class="cls-15" d="M381.17,121s-18.07-.62-18.7,15.58a12.39,12.39,0,0,0,1.25,5s14.34-16.2,23.06-7.48"/><path id="path52" class="cls-15" d="M302,143.26s-3.11-24.87-24.32-10.41c-13.71,9.35-12.46,22.44-10,24.93s1.81,7.51,3.71,4.07,1.27-14.66,8.13-17.78,18.09-6.6,22.45-.81"/><path id="path54" class="cls-16" d="M243.44,311.71l-58.58,26.18s24.31,96.6,11.84,126.51L188,461.28l-.62-36.77-16.2-69.8-6.86-19.32,61.07-41.13,18.07,17.45"/><path id="path56" class="cls-16" d="M249.46,365.14l8.31,10.14v37.39h-10s-1.25-26.18-1.25-29.29S247.8,369,247.8,369"/><path id="path58" class="cls-16" d="M365,410.75l-143.35,8.77,8.1,5.61,140.72.37Z"/><path id="path62" class="cls-12" d="M351.88,412l34.9-1.87s14.33-36.15,14.33-38,12.47-52.35,12.47-52.35l-28-29.29-5.61-5-15,15v58L351.88,412"/><path id="path66" class="cls-16" d="M368.09,298.62,411.71,331l1.25-15-33-30.54-11.84,13.09"/><path id="path72" class="cls-12" d="M375.38,463.78l24.31-6.86,46.12-2.49,6.86-21.19-12.47-36.77-14.33-1.87-19.94,6.23-19.13,9.34-10.16-1.86-7.92,3.11"/><path id="path74" class="cls-16" d="M374.94,451.31s8.53-7.54,11-6.92l.82-34.22,7.12-3.11s-3,24.79,8.27,38.8c6,7.42,33.67.83,36.34-.79,6.38-3.87,7.48-14.33,5.61-29.29L451,435.73l.62,11.22-10,15-11.22,2.49-18.7-.62-6.23-8.1-21.81,3.11-6.86,2.49"/><path id="path102" class="cls-17" d="M384.8,162.6l.81,0c3.84,8,7.16,16.42,12,23.46-3.24,7.56-24.56,14.24-24.23.67,4.61-2,12.57-.41,16.66-3-2.36-6.49-5.77-12-5.23-21.18"/><path id="path104" class="cls-17" d="M310.73,162.81c3.64,6.68,4.83,13.69,10,18.74,2.33,2.27,6.87,5,4.62,11.36-.53,1.49-4.36,4.81-6.58,5.47-8.09,2.39-27,.49-20.57-9.6,6.69.31,15.69,4.35,20.69-.51-3.84-6.14-10.69-18.29-8.17-25.45"/><path id="path108" class="cls-17" d="M221.1,222.43c-3.82-2.18-4.73-11.78-9.21-12.06-6.41-.39-5.24,12.46-5.21,20-4.41-4-5.19-16.34-1.95-22.67-3.69-1.81-5.34,2-7.39,3.34,2.63-19.13,28-8.87,23.77,11.41"/><path id="path110" class="cls-17" d="M389.52,238.63c-5.67,10.8-13.7,22.69-30.34,23-.34-3.49-.6-8.79,0-10.89,12.72-1.22,20.58-7.7,30.32-12.14"/><path id="path112" class="cls-17" d="M309.77,245.63c10.62,5.58,30.13,6.18,44.56,5.76.77,3.16.76,7.07.79,10.92-18.55.93-40.48-3.66-45.34-16.68"/><path id="path114" class="cls-17" d="M307.75,256c7.34,18.43,32.57,16.31,53.85,15.8-.94,2.39-3,5.22-5.49,6.24-6.82,2.77-25.63,4.88-35.09-.15-6-3.19-9.86-10.4-13.15-14.63-1.59-2-9.5-7.26-.12-7.27"/><path id="path118" class="cls-17" d="M427.23,410.75c-9.65,1.93-16.42,11.31-25.83,10.7,5.17-7.29,14.23-10.36,25.83-10.7"/><path id="path120" class="cls-17" d="M431.49,425.85c-7.86.83-17.1,2.1-25.07,1.45,3.77-5.77,18.32-3.78,25.07-1.45"/><path id="path122" class="cls-17" d="M434.21,438.86c-8.84.19-19.82,0-28.22-.69,5-5.34,22.49-2,28.22.69"/><path id="path130" class="cls-18" d="M383.94,413.92c-3.11-.71-6.72,0-9.69,0,1.39,13.89,4.78,29.22,6,43.8,4.67.15,7.16-2.06,11-2.8-8.5-10-14.8-25-7.28-41Zm50.26,45.92c9.73-2.36,15.85-14.28,13.13-26.52-1.83-8.23-5.08-23.72-8.56-29-2.57-3.89-9.55-9-15.12-5.42-9.06,5.8-20.43,3.17-31.63,11.85-18.48,12.08-4.58,35.78,5.71,42.82,11.32.71,25.25-3.11,34.66.94-6.57,2.13-15.1,2.15-20.78,5.25,4.64,2.24,15.51,1.79,22.59.07ZM382.8,401.77c3.15-1.25,5.43-8.45,7.81-14.22,6.56-15.86,13.44-35.86,16.5-51,.69-3.45,2.58-11,2.15-14-.75-5.5-8.21-9.57-12-13-7-6.28-11.39-11.8-18.68-17.67-3,4.36-9.3,7.3-11.72,10.84,0,0-34.42,32.14-64.28,24.9-11.62-2.82-52-4.61-61.32-11.2h0c-1.69-1.21-13.16-16.12-14.73-15.5-20.74,8.18-40.14,22.32-57.47,35.7,16.52,35.46,23.19,78.9,24.37,120.76,18.93,8.85,35.55,17.35,61.24,18.69l74.4-4.18c6.54-1,34.71-5.94,40.79-7.27-2-16.43-1.73-34.91-5.75-49.44-4.65,0-23.89,1.89-28.78,2.1-38.43,1.62-63.79,1.75-88,3.46a105.68,105.68,0,0,1-21.75-.84c-.05-7.28,9.22-3.19,10-8.08.58-3.7-5.1-4-3.25-9.81,4.72,1.72,7.2,5.51,12.24,6.93,4.6-10.07-.06-27.88.6-36.29.13-1.58.79-8.75,4.33-7.49,3.13,1.11-.18,19.07.16,27,.31,7.34-.89,15.41,2.09,20,24.6.83,57.72-2.15,84.57-2.89C336.28,409.31,374.18,405.18,382.8,401.77ZM201.74,149.46c-8.23,9.06-6.51,26-5.51,38.11,14.88-9.36,34.64.74,34.45,16.67,7.11-.19,2.65-8.88,1.37-14.47-4.2-18.28,7.08-38.14.51-54.85-12.75,1-23.22,6.17-30.82,14.54Zm58.92-52.59c-18.64,5.28-42.53,18.83-50.19,35.58,5.93-.86,10-3.85,15.9-4.22,2.21-.14,5.11.93,7.65.3,5.06-1.26,9.34-12.61,13.16-16.84s8.2-5.89,11.27-9.65c2-.95,4.88-.88,5-3.84C262.58,97.28,261.68,96.58,260.66,96.87Zm13.18,190.94c-7.31-8.05-14.71-16.69-15.08-27.21,13.81,19.16,25.22,35.89,50.33,44.31,19,6.37,41.19-2.92,55.79-13.17,6.06-4.26,9.67-11,14-17.21,16.11-23.17,23.63-56.25,22-88.31-.68-13.22-.65-26.4-5.09-35.3-4.64-9.3-20.32-17.62-29.5-9.21-1.7-9,7.63-14.64,18.6-11.38-7.82-10.09-16-22.22-27.14-28.49h0C338.35,90.92,305.6,82.71,285,93c-16.61,8.28-39.06,22-46.71,39.34,7.15,16.75-2.12,32.11-2.71,49.12-.31,9.05,4.26,17,4.61,26.81-2.45,4-9.92,4.53-15.1,4.26-1.74-8.72-4.79-18.51-13.77-19.5-12.7-1.39-22,9.12-22.56,20.11-.68,12.92,9.92,34.33,25,32.84,5.81-.57,7.23-6.39,13.56-6.33,3.43,6.84-5.29,9-6.19,13.88-.23,1.26.72,6.2,1.28,8.52,2.73,11.28,8.82,25.88,14.81,34.47,7.73,19.31,62.69,27.89,78.78,27.22a49.3,49.3,0,0,0,20.7-4.86,108.3,108.3,0,0,0,13.33-7.9c-10.21.91-22.21,2.49-33.19,1C307.72,310.78,279.44,297.49,273.84,287.81ZM393.75,400.18c15.12-7.52,43.37-20.23,52.85,0A171.78,171.78,0,0,1,456,428c2.56,10.88-2.77,33.73-14,37.38-9.87,3.22-21.39,3-33.29.64a18.13,18.13,0,0,1-4-5.31c-8.49-.33-16.44.46-23.15,3.95.64,6.28-39.23,15.12-63.39,17.06-34.34,2.75-62.59,11.31-117.71-7.93-5.44-2.52-13-3.91-15-8.25s-1.16-12.24-1.65-19.83c-1.25-19.4-2.31-38.11-7.43-58-2.3-8.91-6.31-16.78-9.11-25.37-2.59-8-7.1-17.8-8.28-25.74-1.75-11.77,9.33-12.42,16.42-17.52,11-7.88,19.55-12.24,31.41-19.36,3.51-2.11,14.11-7.44,15.31-9.9,2.4-4.87-2.71-7.67-4.17-15.56-1.21-6.52-2.16-12.14-6.26-17.12a33,33,0,0,1-22-14.17c-7.54-11-12.76-31.49-6.24-47,.51-1.22,3.06-3.63,3.44-5.51.74-3.7-1.4-8.63-1.53-12.57-.69-20.21,3.42-37.63,17-43.72,5.52-22,25.29-29.32,43.92-40.26,7-4.09,14.64-6.7,22.56-9.62,28.43-10.46,72.06-8.49,95.66,9.35,10,7.57,26,23.55,31.72,35.12,15.11,30.54,14,81.59,3.47,118.75-1.42,5-3.48,12.32-6.36,18.31-2,4.18-8.24,12.56-7.48,16.25s14.22,14,17.1,16.8c5.19,5,15,11.65,15.84,18,.86,6.72-3,15.92-4.9,22.4-6.47,21.64-12.78,41.65-20.12,60.95"/><path id="path132" class="cls-15" d="M292.88,250.35c.82-1.09,5.33-2.75,11.64.29,0,0-7.48,1.25-6.86,13.72l-3.12-.62s-3.22-11.31-1.67-13.38"/><path id="path100" class="cls-17" d="M302,143.26c-17-4-25.43,7.11-30.58,18.58-4.6-1.11-2.77-7.37-1.61-10.55,3-8.36,15.29-19.49,25.3-18,4.31.65,10.14,4.59,6.88,10"/><path class="cls-6" d="M387.48,289.51c-7.79-34.48-1.37,22.09-64.74,25.16-64.17,3.11-99.6-63.58-110.14-33.1-13.6,39.33,55.64,68.59,110.65,62.89l-.64,68.8h17.58c7.24,0,5.83.35,16.66,0,0,0-.86-71.54-.68-74.13C389.25,326,390.34,302.17,387.48,289.51Z"/><path class="cls-19" d="M329.46,336.5c-10.58-12.93-24.68,4.56-61.62-10.55-38.38-15.7-47-57.09-55.24-44.37-20.36,31.47,55.64,68.59,110.65,62.89l-.64,68.8c8.54,0,19.11,1.68,17.58,0C322.3,393.57,341.67,351.42,329.46,336.5Z"/><path class="cls-19" d="M383.69,282.29c-8.39-11.75,5,11.75-10.07,31.9-7.95,10.6-21.83,23.51-21.83,23.51C384.87,324.53,392.08,294,383.69,282.29Z"/><path id="path106" class="cls-17" d="M381.76,230.67C369.57,238.5,356,247,336,245c-4.27-3.71-5.89-12-1.75-17.42,2.16,3.71.8,10.53,6.81,11.56,11.33,1.94,24.52-6.93,32.67-10,5.05-8.52-.44-11.65-5-17.14-9.32-11.23-21.82-25.16-21.37-42,3.77-2.73,4.09,4.17,4.63,5.43,4.87,11.39,17.11,26,26.05,35.7,2.19,2.4,5.81,4.7,6.21,6.29,1.16,4.62-3,10.15-2.53,13.22"/><path class="cls-20" d="M386.46,289.17c-7.79-34.48-1.37,22.09-64.74,25.16-64.17,3.11-98.59-66.53-110.14-33.1-13.42,38.84,55.64,68.59,110.65,62.89l-.64,68.8h17.58c7.24,0,5.83.35,16.66,0,0,0-.86-71.54-.68-74.13C388.23,325.61,389.32,301.83,386.46,289.17Z"/><path class="cls-6" d="M408.65,462.84a9,9,0,0,1-2-5.58s-15.47-1.13-20.08-28c-1.23-7.19-.8-14.8,3.31-21.05a2.86,2.86,0,0,0,.7-1.9,2.52,2.52,0,0,0-.48-1c-9-13.09-28-11.45-36.22,1.47-4.55,7.13-5.72,15.9-5.81,24.37-.22,21.33,12,49,36.26,51.22a21.78,21.78,0,0,0,16-5.43,29.61,29.61,0,0,0,6.68-8.73C407.41,467.27,409.41,463.89,408.65,462.84Z"/><path class="cls-19" d="M408.65,462.84a9,9,0,0,1-2-5.58s-8.61,20.26-33,8c-23.51-11.75-21.43-53.55-21.43-53.55s-5.72,10.87-5.81,19.33c-.22,21.33,13.63,49,37.94,51.22a21.78,21.78,0,0,0,16-5.43,29.61,29.61,0,0,0,6.68-8.73C407.41,467.27,409.41,463.89,408.65,462.84Z"/><path class="cls-19" d="M388.73,411.58s.07-14.08-16-15.38C355.14,394.79,350,418.83,350,418.83s11.85-17.32,28.64-14C388.67,406.87,388.73,411.58,388.73,411.58Z"/><path class="cls-12" d="M184.41,59.57a92.14,92.14,0,0,0-31.31,47.61C147.9,125.7,147.66,145,149.63,164c.56,5.44,4.1,54.46,8.08,54.46H165c6.55-.07,34.55-31.26,35.4-35.41,3.37-16.51,3.57-36.6,16.08-50,12.22-13.11,28-22.9,42.57-33.76,26-19.36,65.54-21.62,96.25-33.35-1.52.58-14.23-9.56-16.32-10.8a166.5,166.5,0,0,0-19.15-9.78C276.86,27,220.41,30.55,184.41,59.57Z"/><path class="cls-21" d="M408.65,462.84a9,9,0,0,1-2-5.58s-15.47-1.13-20.08-28c-1.23-7.19-.8-14.8,3.31-21.05a2.86,2.86,0,0,0,.7-1.9,2.52,2.52,0,0,0-.48-1c-9-13.09-28-11.45-36.22,1.47-4.55,7.13-5.72,15.9-5.81,24.37-.22,21.33,12,49,36.26,51.22a21.78,21.78,0,0,0,16-5.43,29.61,29.61,0,0,0,6.68-8.73C407.41,467.27,409.41,463.89,408.65,462.84Z"/><path class="cls-16" d="M184.41,56.22s-22.35,14.52-31.31,47.61c-5,18.56-5.44,37.84-3.47,56.85.56,5.44,4.1,54.46,8.08,54.46,0,0,16.11,10.07,42.66-35.41,8.49-14.55-19.84-6.56-33.27-46.86C158.26,106.35,184.41,56.22,184.41,56.22Z"/><path class="cls-20" d="M182.73,58.4A92.14,92.14,0,0,0,151.42,106c-5.19,18.52-5.44,37.84-3.47,56.85.56,5.44,4.1,54.46,8.08,54.46h7.27c6.55-.07,34.55-31.26,35.4-35.41,3.37-16.51,3.57-36.6,16.08-50,12.22-13.11,28-22.9,42.57-33.76,26-19.36,65.54-21.62,96.25-33.35-1.52.58-14.23-9.56-16.32-10.8a166.5,166.5,0,0,0-19.15-9.78C275.18,25.79,218.73,29.38,182.73,58.4Z"/><path class="cls-6" d="M199.66,251.11a35.39,35.39,0,1,1-35.39-35.39c9.77,0,11.39,13,17.8,19.41S199.66,241.34,199.66,251.11Z"/><path class="cls-19" d="M199.66,251.11a35.39,35.39,0,0,1-35.39,35.39c-19.54,0-24-7.56-24-7.56s20.15,1.68,36.94-18.47c13.77-16.52-5-38.62-5-38.62S199.66,241.34,199.66,251.11Z"/><path class="cls-20" d="M199.66,251.11a35.39,35.39,0,1,1-35.39-35.39c9.77,0,11.39,13,17.8,19.41S199.66,241.34,199.66,251.11Z"/><path class="cls-6" d="M423.21,154.86C434.06,116.07,393.4,67,352.42,63.39c-59.79-5.29-119.67,16.36-156.3,64.06-22.11,28.79-48.37,76.47-15.73,107.68,10.68,10.21,25.14,16,39.21,19.7-52.37-7.3-38.29-94.43,8.22-63,21.86-81.09,182.45-118.52,178.31-22.48C414,168,421.07,162.5,423.21,154.86Z"/><path class="cls-19" d="M352.71,101.7C316.1,96,250.88,109.5,217.35,186.53l11.81,6.07c29.51-87,180.45-120.8,176.23-23C413.39,168.26,425.16,113,352.71,101.7Z"/><path class="cls-20" d="M422.34,157.58l0-.06c3.76-6.13,5.16-13.48,5-20.67-.46-21.87-14.72-41.55-32.47-54.34C365.66,61.43,326.61,56.12,291.6,64.78c-37.07,9.17-70.13,33.07-93.8,62.67-22.67,28.36-48.37,76.47-15.73,107.68,10.68,10.21,23.47,14.29,37.53,18-52.37-7.3-38.77-90.49,7.8-57.53-2.65-1.88,9.84-22.87,11.37-25.16a109.58,109.58,0,0,1,19.64-21.89,148,148,0,0,1,53.26-29c33.94-10.37,79.81-10.59,89.23,32,1.21,5.47,1.93,11.19,3,17.34C411,168,418.58,163.67,422.34,157.58Z"/><path class="cls-20" d="M330.42,313.51c25.56,3.2,24.72,25.87,24.72,25.87"/><path d="M178,130.34c-1.32,3.42-2.69,6.8-3.95,10.21l-1.66,5.21c-.54,1.74-1.15,3.44-1.54,5.22-.86,3.53-1.84,7-2.38,10.59l-.48,2.66c-.16.89-.34,1.77-.42,2.67l-.61,5.36a103.09,103.09,0,0,0,.26,21.33c.25,1.75.43,3.5.81,5.21l.5,2.58.64,2.53.32,1.26.38,1.24c.26.82.49,1.66.8,2.44s.57,1.61.9,2.36c.16.37.32.78.49,1.13s.36.77.47,1L165,217c-.28-.64-.41-1.06-.6-1.57s-.31-1-.46-1.44c-.32-1-.54-1.9-.79-2.85s-.43-1.9-.64-2.84l-.29-1.42-.22-1.42-.43-2.84-.28-2.85c-.23-1.89-.25-3.79-.34-5.68a108.33,108.33,0,0,1,1.86-22.38l1.16-5.45c.17-.91.44-1.8.69-2.69l.75-2.67c.9-3.59,2.24-7,3.45-10.52.56-1.75,1.35-3.42,2.06-5.12l2.17-5.06C174.68,136.86,176.37,133.61,178,130.34Z"/><polygon class="cls-22" points="469.65 318.05 481.16 305.3 476.46 321.82 492.57 315.88 480.73 328.32 497.76 330.55 481.5 336.06 495.54 345.96 478.57 343.28 486.41 358.56 472.63 348.3 472.47 365.48 465.04 349.99 456.91 365.13 457.52 347.96 443.3 357.58 451.82 342.67 434.75 344.58 449.23 335.33 433.22 329.09 450.34 327.63 439.07 314.67 454.9 321.33 450.95 304.62 461.87 317.87 466.14 301.23 469.65 318.05"/><polygon class="cls-23" points="465.49 290.86 469.89 326.43 500.45 307.69 475.38 333.31 509.08 345.52 473.42 341.89 484.89 375.85 465.49 345.71 446.09 375.85 457.56 341.89 421.9 345.52 455.61 333.31 430.54 307.69 461.09 326.43 465.49 290.86"/><polygon class="cls-24" points="465.49 324 469.84 315.44 469.72 325.04 477.55 319.48 472.97 327.93 482.49 326.64 474.52 332 483.54 335.28 473.99 336.32 480.46 343.42 471.52 339.9 473.94 349.19 467.67 341.92 465.49 351.27 463.32 341.92 457.04 349.19 459.46 339.9 450.53 343.42 456.99 336.32 447.44 335.28 456.47 332 448.49 326.64 458.01 327.93 453.44 319.48 461.27 325.04 461.14 315.44 465.49 324"/><polygon class="cls-25" points="457.36 289.84 458.04 296.71 462.97 291.88 459.08 297.58 465.96 297.06 459.31 298.92 464.92 302.94 458.63 300.09 460.35 306.78 457.36 300.55 454.38 306.78 456.09 300.09 449.8 302.94 455.41 298.92 448.76 297.06 455.65 297.58 451.75 291.88 456.68 296.71 457.36 289.84"/><polygon class="cls-26" points="496.82 284.81 497.96 296.37 506.27 288.24 499.71 297.84 511.29 296.95 500.1 300.08 509.55 306.85 498.96 302.06 501.85 313.32 496.82 302.84 491.79 313.32 494.68 302.06 484.09 306.85 493.54 300.08 482.34 296.95 493.93 297.84 487.37 288.24 495.68 296.37 496.82 284.81"/><polygon class="cls-27" points="478.99 364.28 480.24 376.88 489.29 368.02 482.14 378.48 494.77 377.51 482.57 380.93 492.87 388.3 481.33 383.08 484.47 395.35 478.99 383.93 473.52 395.35 476.66 383.08 465.12 388.3 475.42 380.93 463.22 377.51 475.85 378.48 468.7 368.02 477.75 376.88 478.99 364.28"/><polygon class="cls-25" points="504.37 340.21 505.32 349.77 512.18 343.05 506.76 350.98 516.33 350.25 507.09 352.83 514.89 358.43 506.14 354.46 508.53 363.76 504.37 355.11 500.22 363.76 502.6 354.46 493.86 358.43 501.66 352.83 492.42 350.25 501.99 350.98 496.57 343.05 503.43 349.77 504.37 340.21"/><polygon class="cls-27" points="498.87 312.7 499.48 318.9 503.94 314.54 500.42 319.68 506.63 319.21 500.63 320.88 505.69 324.51 500.02 321.94 501.56 327.98 498.87 322.36 496.18 327.98 497.72 321.94 492.05 324.51 497.11 320.88 491.11 319.21 497.32 319.68 493.81 314.54 498.26 318.9 498.87 312.7"/></svg>