<svg overflow="hidden" xmlns:xlink="http://www.w3.org/1999/xlink" xmlns="http://www.w3.org/2000/svg" viewBox="54.71316085489314 230.4 1216.6479190101238 264.96" style="max-height: 500px" width="1216.6479190101238" height="264.96"><g><rect fill="#FFFFFF" height="720" width="1280" y="0" x="0"/><path fill-rule="evenodd" fill="#156082" stroke-miterlimit="8" stroke-width="2" stroke="#FFFFFF" d="M78 334.3C78 330.268 81.2683 327 85.3 327L216.7 327C220.732 327 224 330.268 224 334.3L224 392.7C224 396.732 220.732 400 216.7 400L85.3 400C81.2683 400 78 396.732 78 392.7Z"/><text transform="translate(131.74 371)" font-size="29" font-weight="400" font-family="Aptos,Aptos_MSFontService,sans-serif" fill="#FFFFFF">src</text><path fill-rule="evenodd" fill="none" stroke-miterlimit="8" stroke-width="2" stroke="#0E4B66" d="M224.429 363.36 282.953 279.231"/><path fill-rule="evenodd" fill="#156082" stroke-miterlimit="8" stroke-width="2" stroke="#FFFFFF" d="M283 250.3C283 246.268 286.268 243 290.3 243L421.7 243C425.732 243 429 246.268 429 250.3L429 308.7C429 312.732 425.732 316 421.7 316L290.3 316C286.268 316 283 312.732 283 308.7Z"/><text transform="translate(342.138 287)" font-size="29" font-weight="400" font-family="Aptos,Aptos_MSFontService,sans-serif" fill="#FFFFFF">CI</text><path fill-rule="evenodd" fill="none" stroke-miterlimit="8" stroke-width="2" stroke="#0E4B66" d="M224 363.013 282.524 363.013"/><path fill-rule="evenodd" fill="#156082" stroke-miterlimit="8" stroke-width="2" stroke="#FFFFFF" d="M283 334.3C283 330.268 286.268 327 290.3 327L421.7 327C425.732 327 429 330.268 429 334.3L429 392.7C429 396.732 425.732 400 421.7 400L290.3 400C286.268 400 283 396.732 283 392.7Z"/><text transform="translate(326.508 371)" font-size="29" font-weight="400" font-family="Aptos,Aptos_MSFontService,sans-serif" fill="#FFFFFF">Auto</text><path fill-rule="evenodd" fill="none" stroke-miterlimit="8" stroke-width="2" stroke="#125675" d="M429 363.013 487.524 363.013"/><path fill-rule="evenodd" fill="#156082" stroke-miterlimit="8" stroke-width="2" stroke="#FFFFFF" d="M488 334.3C488 330.268 491.268 327 495.3 327L626.7 327C630.732 327 634 330.268 634 334.3L634 392.7C634 396.732 630.732 400 626.7 400L495.3 400C491.268 400 488 396.732 488 392.7Z"/><text transform="translate(494.993 371)" font-size="29" font-weight="400" font-family="Aptos,Aptos_MSFontService,sans-serif" fill="#FFFFFF">Artifactory</text><path fill-rule="evenodd" fill="none" stroke-miterlimit="8" stroke-width="2" stroke="#125675" d="M634 363.013 692.524 363.013"/><path fill-rule="evenodd" fill="#156082" stroke-miterlimit="8" stroke-width="2" stroke="#FFFFFF" d="M693 334.3C693 330.268 696.268 327 700.3 327L831.7 327C835.732 327 839 330.268 839 334.3L839 392.7C839 396.732 835.732 400 831.7 400L700.3 400C696.268 400 693 396.732 693 392.7Z"/><text transform="translate(719.277 355)" font-size="29" font-weight="400" font-family="Aptos,Aptos_MSFontService,sans-serif" fill="#FFFFFF">Update</text><text transform="translate(722.504 387)" font-size="29" font-weight="400" font-family="Aptos,Aptos_MSFontService,sans-serif" fill="#FFFFFF">Center</text><path fill-rule="evenodd" fill="none" stroke-miterlimit="8" stroke-width="2" stroke="#125675" d="M838.932 363.36 896.125 290.11"/><path fill-rule="evenodd" fill="#156082" stroke-miterlimit="8" stroke-width="2" stroke="#FFFFFF" d="M896 261.3C896 257.268 899.268 254 903.3 254L1034.7 254C1038.73 254 1042 257.268 1042 261.3L1042 319.7C1042 323.732 1038.73 327 1034.7 327L903.3 327C899.268 327 896 323.732 896 319.7Z"/><text transform="translate(924.594 298)" font-size="29" font-weight="400" font-family="Aptos,Aptos_MSFontService,sans-serif" fill="#FFFFFF">Mirrors</text><path fill-rule="evenodd" fill="none" stroke-miterlimit="8" stroke-width="2" stroke="#125675" d="M1042.44 290.11 1102.29 363.36"/><path fill-rule="evenodd" fill="#156082" stroke-miterlimit="8" stroke-width="2" stroke="#FFFFFF" d="M1102 334.3C1102 330.268 1105.27 327 1109.3 327L1241.7 327C1245.73 327 1249 330.268 1249 334.3L1249 392.7C1249 396.732 1245.73 400 1241.7 400L1109.3 400C1105.27 400 1102 396.732 1102 392.7Z"/><text transform="translate(1128.92 371)" font-size="29" font-weight="400" font-family="Aptos,Aptos_MSFontService,sans-serif" fill="#FFFFFF">Jenkins</text><path fill-rule="evenodd" fill="none" stroke-miterlimit="8" stroke-width="2" stroke="#0E4B66" d="M224.429 363.36 282.953 447.488"/><path fill-rule="evenodd" fill="#156082" stroke-miterlimit="8" stroke-width="2" stroke="#FFFFFF" d="M283 418.3C283 414.268 286.268 411 290.3 411L421.7 411C425.732 411 429 414.268 429 418.3L429 476.7C429 480.732 425.732 484 421.7 484L290.3 484C286.268 484 283 480.732 283 476.7Z"/><text transform="translate(308.838 455)" font-size="29" font-weight="400" font-family="Aptos,Aptos_MSFontService,sans-serif" fill="#FFFFFF">Manual</text><path fill-rule="evenodd" fill="none" stroke-miterlimit="8" stroke-width="2" stroke="#156082" d="M768 369 1098.24 369"/><path transform="matrix(1 0 0 -1 428 440)" fill-rule="evenodd" fill="none" stroke-miterlimit="8" stroke-width="2" stroke="#156082" d="M0 0 58.34 61"/><path fill-rule="evenodd" fill="none" stroke-miterlimit="8" stroke-width="2" stroke="#156082" d="M428 278 486.34 347.5"/></g></svg>