<svg id="Слой_1" data-name="Слой 1" xmlns="http://www.w3.org/2000/svg" viewBox="0 0 272 315"><defs><style>.cls-1,.cls-19{fill:#fff;}.cls-2{fill:#ccc;}.cls-3{fill:#cac9ca;}.cls-11,.cls-14,.cls-23,.cls-4{fill:none;}.cls-11,.cls-12,.cls-16,.cls-18,.cls-19,.cls-20,.cls-23,.cls-24,.cls-4{stroke:#000;}.cls-11,.cls-12,.cls-16,.cls-18,.cls-19,.cls-22,.cls-4{stroke-miterlimit:10;}.cls-12,.cls-18,.cls-19,.cls-20,.cls-23,.cls-4{stroke-width:4px;}.cls-5{fill:#cc2529;}.cls-20,.cls-6{fill:#8f221d;}.cls-12,.cls-7{fill:#3f69d1;}.cls-8{fill:#006a27;}.cls-9{fill:#00501d;}.cls-10{fill:#0e893b;}.cls-11{stroke-width:5px;}.cls-13{fill:#2f4f9d;}.cls-15{fill:#f0d6b7;}.cls-16{fill:#f7ff15;stroke-width:3px;}.cls-17{fill:#f7e4cd;}.cls-18{fill:#6d6b6d;}.cls-20,.cls-23,.cls-24{stroke-linejoin:round;}.cls-21,.cls-22{isolation:isolate;}.cls-22{font-size:26.36px;fill:#231f20;stroke:#231f20;font-family:Georgia-Bold, Georgia;font-weight:700;}.cls-24{stroke-linecap:round;stroke-width:1.07px;}</style></defs><title>logoМонтажная область 1</title><path class="cls-1" d="M181.14,52.67s3.81-8.93,3-13.13c-.48-2.52-2.64-4-2.81-9.52-.07-2.38,2.16-7.52,7.62-5.71,8.38,2.78,10.6,13.42,13,13.69,6.29.69,22.52-11.1,28-10,5,1,4,5,4,5s4-2,6,0a3.53,3.53,0,0,1,1,4s5.55,1,6,6c1,11-12,19-22,24-4.61,2.3-18,3-18,3Z"/><path class="cls-2" d="M245.54,41.16a9.3,9.3,0,0,0-5.71,1.37,16.57,16.57,0,0,0-4.41,4.41l-1.9,2.65a11.16,11.16,0,0,1-1.09,1.28,4,4,0,0,1-.69.55,1.91,1.91,0,0,1-.88.29,13.92,13.92,0,0,1-3.3-.23c-1.08-.17-2.14-.39-3.2-.64,1.07.17,2.15.3,3.23.38a13.67,13.67,0,0,0,3.19,0,1.35,1.35,0,0,0,.64-.27,3.42,3.42,0,0,0,.54-.51,10.53,10.53,0,0,0,.92-1.28l1.69-2.79A17.78,17.78,0,0,1,239,41.28a11.07,11.07,0,0,1,6.62-2.12Z"/><path class="cls-2" d="M222.82,46.07a40.48,40.48,0,0,0,4.62-2.41c1.49-.89,2.93-1.84,4.34-2.84s2.77-2.05,4.09-3.16,2.61-2.24,3.86-3.41l1.89,2.33c-1.46,1-2.94,2-4.45,2.91s-3.06,1.78-4.62,2.6-3.16,1.55-4.79,2.23A40.83,40.83,0,0,1,222.82,46.07Z"/><path class="cls-2" d="M216.9,42.21a40.48,40.48,0,0,0,4.58-2.48c1.48-.91,2.9-1.89,4.3-2.91s2.74-2.1,4-3.22,2.57-2.28,3.81-3.46l1.93,2.3c-1.45,1-2.91,2-4.41,3s-3,1.83-4.58,2.67-3.14,1.6-4.75,2.3A40.83,40.83,0,0,1,216.9,42.21Z"/><path class="cls-3" d="M214,41c7.92,4.39,6.43,3.07,9.67,6.47A71,71,0,0,1,229,54s.39-4.36-4.45-9.33C221,41,214,41,214,41Z"/><path class="cls-3" d="M193,27s5.61,7.79,2,15c-1,2,2,5,6,2,2.16-1.62-1.19-8.33-1.19-8.33Z"/><path d="M201,54c0,.07-.08.14-.12.22s0,.09,0,.07,0,0,0,0,0,0,0,0l0,0a4.38,4.38,0,0,0,.38-.27l.78-.58c.52-.39,1.07-.75,1.61-1.12a31.63,31.63,0,0,1,3.45-1.92A25.5,25.5,0,0,1,214.73,48a16.9,16.9,0,0,1,8.15.85A11.82,11.82,0,0,1,229,54a18.65,18.65,0,0,0-6.79-2.89A22.55,22.55,0,0,0,215.1,51a50.87,50.87,0,0,0-7.22,1.52c-1.21.34-2.43.67-3.65,1.05l-1.86.54-1,.25a4.08,4.08,0,0,1-.52.09h-.1a.12.12,0,0,1-.09,0c0-.06,0-.08,0-.1s.07-.09.1-.13Z"/><path d="M216.5,42.5a40.48,40.48,0,0,0,4.76-2.11c1.54-.79,3-1.66,4.51-2.56s2.9-1.87,4.28-2.89,2.74-2.07,4.07-3.16l1.74,2.44c-1.52.92-3.06,1.81-4.63,2.63s-3.16,1.59-4.77,2.31-3.26,1.35-4.92,1.92A40.83,40.83,0,0,1,216.5,42.5Z"/><path d="M224.5,45.5a15.72,15.72,0,0,0,4.65-1.78,49.31,49.31,0,0,0,4.29-2.55c1.38-.92,2.73-1.89,4-2.92a26.91,26.91,0,0,0,3.49-3.31l2.12,2.12a29.46,29.46,0,0,1-4.33,3c-1.49.88-3,1.66-4.56,2.39a50.42,50.42,0,0,1-4.73,1.93A16,16,0,0,1,224.5,45.5Z"/><path d="M245.94,45.06a4.63,4.63,0,0,0-2.12-1.46,3.89,3.89,0,0,0-2.57.27,17.31,17.31,0,0,0-5.1,3.92l-2.38,2.47c-.4.42-.82.83-1.27,1.22a3.89,3.89,0,0,1-1.67,1,6.11,6.11,0,0,1-1.83-.1c-.58-.1-1.14-.23-1.7-.37-1.12-.29-2.21-.62-3.3-1,1.12.24,2.25.44,3.38.59a10.56,10.56,0,0,0,3.28.08,3.35,3.35,0,0,0,1.14-.91c.37-.4.72-.84,1.07-1.28L235,46.76a31.46,31.46,0,0,1,2.33-2.65,12.89,12.89,0,0,1,2.93-2.29,6.37,6.37,0,0,1,4.08-.81,7.37,7.37,0,0,1,3.73,1.93Z"/><path class="cls-3" d="M247,42s-1.23,9.46-3,12c-3.29,4.72-13.6,11-19,13-3.13,1.16-13,3-13,3l-8-9s11,3,17,2c5.41-.9,15.12-8.12,19-12A109.74,109.74,0,0,0,247,42Z"/><path d="M214,41a20.24,20.24,0,0,1,2.42.39,21.05,21.05,0,0,1,2.33.77A17.68,17.68,0,0,1,223,44.65a15.35,15.35,0,0,1,3.34,3.7A9.74,9.74,0,0,1,228,53a25.43,25.43,0,0,0-2.88-3.7,33.33,33.33,0,0,0-3.35-3.08c-1.19-.94-2.44-1.82-3.74-2.67-.65-.43-1.33-.81-2-1.25S214.67,41.49,214,41Z"/><path class="cls-4" d="M181.14,52.67s4.81-6.93,4-11.13c-.48-2.52-3.64-6-3.81-11.52-.07-2.38,2.16-7.52,7.62-5.71,8.38,2.78,10.6,13.42,13,13.69,6.29.69,22.52-11.1,28-10,5,1,4,5,4,5s4-2,6,0a3.53,3.53,0,0,1,1,4s5.55,1,6,6c1,11-12,19-22,24-4.61,2.3-18,3-18,3Z"/><path class="cls-1" d="M175.27,62.8S171,59,174,54s16-3,25,4c7.89,6.14,17,15,11,22-3.25,3.8-9.9,2.06-9.9,2.06Z"/><path class="cls-3" d="M194.43,68.35l7.21,7.8-.52,6.11L210,80l1.94-10-7.56-7.44S204.09,67.12,203,68C201.34,69.35,194.43,68.35,194.43,68.35Z"/><path class="cls-4" d="M175.27,62.8A7.59,7.59,0,0,1,175,54c3-5,15-3,24,4,7.89,6.14,17,14,11,21-3.25,3.8-9.9,3.06-9.9,3.06Z"/><path class="cls-5" d="M100.09,135.53S66.46,154.64,62,166c-8.57,21.89,19,34.27,19,34.27s9.53-3.45,15.23-11.42a20,20,0,0,0,3.81-13.33l9.52,3.81,59-40s-.54-5.79,0-7.62C172.4,118.86,194.33,88.88,201,80a4.29,4.29,0,0,0-.14-5.3,40.4,40.4,0,0,0-11.28-9.57,58.31,58.31,0,0,0-8.5-4,3.74,3.74,0,0,0-4.37,1.45l-34.73,52Z"/><path class="cls-6" d="M191,68l8,4c1.31,1.53,3.1,6.32,2,8,0,0-23.19,28.38-32,46-2,4-2,6-2,6l-6-3s25-40,32-49C196.07,76.05,191,68,191,68Z"/><path class="cls-4" d="M100.09,135.53S66.46,154.64,62,166c-8.57,21.89,19,34.27,19,34.27s9.53-3.45,15.23-11.42a20,20,0,0,0,3.81-13.33l9.52,3.81,59-40s-.54-5.79,0-7.62C172.4,118.86,194.33,88.88,201,80a4.29,4.29,0,0,0-.14-5.3,40.4,40.4,0,0,0-11.28-9.57,58.31,58.31,0,0,0-8.5-4,3.74,3.74,0,0,0-4.37,1.45l-34.73,52Z"/><path class="cls-7" d="M102,183.13l-13.33,49.5,88.38-18s11.39-17.07,10.52-35.36C186.61,159.23,168,136,168,136l-7-2.37s-4.82,8.42-11.42,11.42c-10.47,4.76-26.65,0-26.65,0s-4.28,19.2-7.62,24.75C112.89,173.84,102,183.13,102,183.13Z"/><path class="cls-4" d="M102,183.13l-13.33,49.5,88.38-18s11.39-17.07,10.52-35.36C186.61,159.23,168,136,168,136l-7-2.37s-4.82,8.42-11.42,11.42c-10.47,4.76-26.65,0-26.65,0s-4.28,19.2-7.62,24.75C112.89,173.84,102,183.13,102,183.13Z"/><rect class="cls-8" x="60.5" y="212.5" width="142" height="90.5"/><rect class="cls-8" x="40.25" y="197" width="180" height="42" rx="12" ry="12"/><rect class="cls-9" x="184" y="239" width="19.63" height="64"/><path class="cls-9" d="M184,196h22.53A12.47,12.47,0,0,1,219,208.47V228.1A11.9,11.9,0,0,1,207.1,240H184a0,0,0,0,1,0,0V196A0,0,0,0,1,184,196Z"/><path class="cls-9" d="M106,303l-45.5-.5V238.61s-9.94.56-12.75-1c-6.75-3.65-6.5-15.21-6.5-15.21s-1.7-17.68,4.1-22.44c3.65-3,11.77-2.5,11.77-2.5L139,197s-2.16,18.16-6.5,24.5c-3.29,4.82-10.41,11.32-16,13a62.43,62.43,0,0,0-10,4Z"/><rect class="cls-10" x="143" y="240" width="30" height="63"/><rect class="cls-10" x="143" y="197" width="30" height="42"/><rect class="cls-11" x="60.5" y="239.5" width="142" height="63.5"/><rect class="cls-11" x="41.25" y="197" width="180" height="42" rx="12" ry="12"/><path class="cls-1" d="M86.76,207.88s2.57,7.27,3.81,9.52a10,10,0,0,0,3.81,3.81,7.5,7.5,0,0,0,3.81,7.62c7.74,4.65,13.33-1.9,13.33-1.9s5.49,2.13,7.62,0a16.33,16.33,0,0,0,3.81-5.71,6.5,6.5,0,0,0,3.81-3.81A25.75,25.75,0,0,0,128,210a9.26,9.26,0,0,0,3-5c1.25-6.87-4.8-12.8-8.07-16.16-3-3.1-14.28-9.68-14.28-9.68s1.9,6.83-6.66,17.3C98.48,200.75,86.76,207.88,86.76,207.88Z"/><path d="M86.76,167.9a8.78,8.78,0,0,1,4.27-.72,11.64,11.64,0,0,1,4.3,1.24A15.61,15.61,0,0,1,99,171a16.19,16.19,0,0,1,1.51,1.62,15.21,15.21,0,0,1,1.33,1.87l-3.63.58a25.3,25.3,0,0,1,1.1-3.26,21.69,21.69,0,0,1,1.55-3,14.3,14.3,0,0,1,2.12-2.75,7.68,7.68,0,0,1,2.87-1.94,15.7,15.7,0,0,0-1.38,2.92c-.36,1-.65,2-.93,3s-.54,2-.78,3-.5,2-.69,3l-1,4.74-2.66-4.15c-.26-.41-.67-.94-1-1.4s-.78-.94-1.18-1.39a25.6,25.6,0,0,0-2.62-2.51,17.05,17.05,0,0,0-3.06-2A18,18,0,0,0,86.76,167.9Z"/><path class="cls-6" d="M151,131.33s0,5.67-6,10.67a14.54,14.54,0,0,1-12,3,26,26,0,0,0-2.15-3c-1.35-1.44-5.85-5.29-5.85-5.29Z"/><path class="cls-12" d="M178.14,158.38l-7.62-3.81s-6.07-11.74-9.52-15.23c-2.7-2.73-13.33-9.52-13.33-9.52v-7.62s15.22,8,19,11.42c4.34,3.94,12.94,18.16,12.94,18.16Z"/><path class="cls-7" d="M98.26,136.6s9.44,2.74,15.16,10.36c3.77,5,9.74,23.19,9.74,23.19l13.11,1.56,5.71-9.52a86.37,86.37,0,0,0-9.52-17.13C126.74,137.44,110,129,110,129Z"/><path class="cls-13" d="M100,136s14.2,7.8,19,8c1.9.08,11,1,11,1s-6.16-8.2-9-10-11-5-11-5Z"/><path class="cls-14" d="M98.26,136.6s9.44,2.74,15.16,10.36c3.77,5,9.74,23.19,9.74,23.19l13.11,1.56,5.71-9.52a86.37,86.37,0,0,0-9.52-17.13C126.74,137.44,110,129,110,129Z"/><path class="cls-4" d="M98.26,136.6s9.44,2.74,15.16,10.36c3.77,5,9.74,23.19,9.74,23.19l13.11,1.56,5.71-9.52a86.37,86.37,0,0,0-9.52-17.13C126.74,137.44,110,129,110,129Z"/><path class="cls-15" d="M93,118s9,7,18,13c3.39,2.26,12.09,3.88,16,5,5.18,1.48,16.89,3.21,24.5-1.5C162,128,167,111,168,105c2.5-14.5.17-25.26-3-31-2.73-4.94-1.3-10-2.5-15.5C160,47,146.43,45.27,131.87,49.65,102.5,58.5,105.39,67.83,96.26,73.42,94.34,74.59,89.75,76.58,88,78c-3.23,2.62-8,12-8,12-5-3-13.18,2.1-14.33,7.4s2.7,12,6.33,15.6C86,127,93,118,93,118Z"/><path d="M113,217a13.45,13.45,0,0,1,.73,2.53,16,16,0,0,1,.27,2.7,20.3,20.3,0,0,1-.14,2.75,16.78,16.78,0,0,1-.56,2.83l0,.11a2.06,2.06,0,1,1-3.94-1.18,2.1,2.1,0,0,1,.4-.74A13.08,13.08,0,0,0,111,224.1a17.8,17.8,0,0,0,1-2.2,14.55,14.55,0,0,0,.71-2.37A12.92,12.92,0,0,0,113,217Z"/><path d="M121,213a3.38,3.38,0,0,1,1.64,1.61,14.94,14.94,0,0,1,1,2.12c.28.73.51,1.46.73,2.2s.41,1.47.58,2.28v.07a2.06,2.06,0,0,1-4,.83,2.09,2.09,0,0,1,0-.94c.17-.63.31-1.36.43-2s.22-1.4.28-2.11a13.57,13.57,0,0,0,0-2.1A2.94,2.94,0,0,0,121,213Z"/><circle class="cls-16" cx="130" cy="160" r="6"/><path class="cls-13" d="M139,152s11,6,16.5,2.5c7.85-5,5.5-12.5,5.5-12.5s-4.33,8.29-6.5,9.5C151.07,153.41,139,152,139,152Z"/><path class="cls-16" d="M177.78,151.71A14,14,0,0,1,172,148a9.73,9.73,0,0,1-2.93-7.73s4.93-2.27,8.19,2A8.26,8.26,0,0,1,177.78,151.71Z"/><path d="M139,152a64.38,64.38,0,0,0,6.72-.23,23.79,23.79,0,0,0,6.14-1.32,14.83,14.83,0,0,0,5.14-3.21,26.17,26.17,0,0,0,4-5.24,12.31,12.31,0,0,1-2.2,6.76,12.44,12.44,0,0,1-5.89,4.49,16,16,0,0,1-7.21.87A16.35,16.35,0,0,1,139,152Z"/><path d="M108,202a6.56,6.56,0,0,1,3.7.77,9.92,9.92,0,0,1,3,2.31,10.16,10.16,0,0,1,1.89,3.21A8,8,0,0,1,117,212a13.89,13.89,0,0,1-1.34-1.28c-.43-.41-.77-.85-1.16-1.25-.72-.84-1.44-1.61-2.11-2.42l-2.1-2.4Z"/><path d="M112.5,196.5a10.29,10.29,0,0,1,3.55.89,14.2,14.2,0,0,1,3,1.8,11.77,11.77,0,0,1,2.5,2.61,7.16,7.16,0,0,1,.88,1.71,2.71,2.71,0,0,1,0,2,4.19,4.19,0,0,0-1.24-1.15l-1.35-.9c-.9-.6-1.8-1.22-2.67-1.9a26.16,26.16,0,0,1-2.52-2.23A14.48,14.48,0,0,1,112.5,196.5Z"/><path d="M117.5,193.5a8,8,0,0,1,3.16.34,10.65,10.65,0,0,1,2.75,1.29,9,9,0,0,1,2.3,2.12,5.66,5.66,0,0,1,.81,1.48,2.19,2.19,0,0,1,0,1.77,3.17,3.17,0,0,0-1.15-.87l-1.21-.62a26,26,0,0,1-2.38-1.38,18.18,18.18,0,0,1-2.25-1.74A11.06,11.06,0,0,1,117.5,193.5Z"/><path d="M124,203a8.92,8.92,0,0,1,3.49,2.67,17.14,17.14,0,0,1,1.34,1.84,14.91,14.91,0,0,1,1.13,2.09l-3.92.78a11.11,11.11,0,0,0,0-1.86,14.67,14.67,0,0,0-.29-1.93A7.94,7.94,0,0,0,124,203Z"/><path id="path100" d="M119.39,65.53c-10.16-.95-14.17,6.13-16.24,13.19-2.75-.28-2.19-4-1.77-6,1.1-5.09,7.32-12.51,13.24-12.43,2.55,0,6.24,1.85,4.77,5.22"/><path id="path100-2" data-name="path100" d="M141.07,58.82c8.63-8,16.46-2.71,20.92.53,2-1.9-.74-4.54-2.26-5.82-4-3.36-13.43-5.43-18.07-1.76-2,1.58-3.81,5.28-.59,7"/><path id="path44" class="cls-17" d="M120.68,74.81s-6,1.92-5.28,5.81S123,83,124.64,81"/><path id="path104" d="M118.88,70.82c1.41,1.56,2.39,3.42,3.75,5a26.3,26.3,0,0,0,4.8,4,7.71,7.71,0,0,1,1.86,1.66c1.64,2.28-.43,5-2.38,6.13a14.06,14.06,0,0,1-7.41,1.7,5.44,5.44,0,0,1-2.88-.65,2.76,2.76,0,0,1-.85-3.44c.37-1.08,4.32-.43,5.21-.48,1.81-.11,4-.63,5-2.27-2.65-2.6-7.53-7.83-7.13-11.7"/><path id="path106" d="M138.37,109.77c-2.9.09-5.38-5.26-4-8.47,1.52,1.59,1.67,5.15,4.79,4.94,5.88-.4,11.43-5.33,14.08-8.93C157.55,91.49,153,91,150,89c-6.23-4.15-14.18-9.55-16-18,1.55-1.81,2.14.87,3,2.15C144,84,157,89,158.12,90.21c1.66,1.79.94,3.42.33,4.89C156,101,144.52,109.57,138.37,109.77Z"/><path id="path110" d="M163.27,100.14c-1.53,6.06-4.1,13-12.36,15.13a21.08,21.08,0,0,1-1.3-5.43c6.2-2.14,9.33-6.31,13.66-9.7"/><path id="path112" d="M124.36,113.22c6,1.51,15.76-.54,22.91-2.49a25.91,25.91,0,0,1,1.71,5.35c-9.14,2.69-20.62,3-24.61-2.86"/><path id="path114" d="M124.61,116.65c5.88,8.31,18.2,4.21,28.75,1.4a5.84,5.84,0,0,1-2,3.77c-3.07,2.2-12.19,5.52-17.51,4.15-3.38-.87-6.17-4-8.32-5.71-1-.83-5.61-2.47-.93-3.61"/><path class="cls-18" d="M80,90s5,2,7,5c2.35,3.53,2,8,4,10,1.12,1.12,7.54-5.26,6.5-8.5-.82-2.55-2-1-5.5-8.5-1.29-2.76-.45-9.43-3-10-1.87-.41-4.13,4-5.54,6.15C82.42,85.77,80,90,80,90Z"/><path class="cls-5" d="M67.3,66s-9.52,5.71-9.52,17.13c0,9.52,7.62,15.23,7.62,15.23a9.91,9.91,0,0,1,5.71-7.62,9.19,9.19,0,0,1,7.62,0l9.52-13.33s7.62-1.9,11.42-7.62c4-5.94,16.15-14.67,22.85-17.13,36.17-13.33,40,5.71,40,5.71s13.33-7.62,9.52-15.23c-3.07-6.14-12.52-5.71-12.52-5.71S151.07,10.79,133.93,7C107.33,1.07,92.05,16.5,80.63,31.73S67.3,66,67.3,66Z"/><path class="cls-6" d="M82.53,77.42s-9.66,11.35-13.33,9.52c-7.62-3.81-2.78-15.18,0-19,2-2.73,7.62-7.62,9.52-9.52s-8.75,2.5-10.6,4.5c-.86.93-.82,3.11-.82,3.11s-9.52,3.68-9.52,17.75c0,7,7.62,14.61,7.62,14.61s1.9-5.71,5.71-7.62c1.7-.85,7.62,0,7.62,0l9.52-13.33s6.24-2.64,8-4c5.71-4.4,19-21.66,19-21.66A88.34,88.34,0,0,0,97.76,67.9c-5.95,7.43-15.23,1.9-20.94,5.71-.56.37,1.36,1.51,1.9,1.9A34.25,34.25,0,0,0,82.53,77.42Z"/><polygon points="66.1 64.4 74.92 60.28 68.5 67.6 66.1 64.4"/><path class="cls-19" d="M117.75,43.54a16.45,16.45,0,0,1-6.66-11.81c-1-12.37,5.79-15.71,11.42-17.13,5.16-1.31,15.8-.21,19,9.52,1.9,5.71,0,12.48,0,12.48Z"/><path class="cls-5" d="M162.49,37.44s-3.81-3.81-26.65,0c-21.41,3.57-40,20.94-40,20.94"/><path d="M162.49,37.44a6.15,6.15,0,0,0-2.15-.62,17.22,17.22,0,0,0-2.22-.19,38.9,38.9,0,0,0-4.46.11c-3,.2-5.94.59-8.89,1-1.48.21-3,.52-4.43.74l-4.41.82c-1.42.36-2.86.59-4.26,1s-2.83.75-4.2,1.3a108.23,108.23,0,0,0-16.19,7.25q-7.84,4.34-15.41,9.46a73.15,73.15,0,0,1,30.32-20.5c1.46-.55,3-.89,4.5-1.33s3.08-.63,4.61-.93c3-.43,6.08-.79,9.16-.93a61.35,61.35,0,0,1,9.24.09,32.43,32.43,0,0,1,4.59.75,17.14,17.14,0,0,1,2.23.71A5.82,5.82,0,0,1,162.49,37.44Z"/><path class="cls-4" d="M67.3,66s-9.52,5.71-9.52,17.13c0,9.52,7.62,15.23,7.62,15.23a9.91,9.91,0,0,1,5.71-7.62C74.92,88.84,80,90,80,90l8.24-12.58s7.62-1.9,11.42-7.62c4-5.94,16.15-14.67,22.85-17.13,36.17-13.33,40,5.71,40,5.71s13.9-7.93,9.52-15.23c-2.86-4.76-12.52-5.71-12.52-5.71S151.07,10.79,133.93,7C107.33,1.07,92.05,16.5,80.63,31.73S67.3,66,67.3,66Z"/><path class="cls-20" d="M144.17,47.94c16.44-.52,18.32,10.44,18.32,10.44s13.33-7.62,9.52-15.23-16.7-6.08-23.4-6C120.61,37.44,99,71,99,71S114.9,48.86,144.17,47.94Z"/><path class="cls-4" d="M101.25,67.76S112.79,48.34,132,41.25c18.09-6.66,30.46-3.81,30.46-3.81"/><path class="cls-3" d="M102,223c.46-.23.9.86.93,1.16a1.31,1.31,0,0,1-.2.77c-.11.19-.84.85-.73,1.06a3.7,3.7,0,0,0-3-2,10.34,10.34,0,0,0-4,1l-8-17,8.42-4.6S93.11,209,95,214c3,8,9,6,9,6A3.55,3.55,0,0,1,102,223Z"/><path d="M103,221a5.87,5.87,0,0,1-2.08,1.27,11.3,11.3,0,0,1-2.44.59A18.41,18.41,0,0,1,96,223a19.1,19.1,0,0,1-2.59-.14l1.26-3.79a15.39,15.39,0,0,0,1.89,1,16,16,0,0,0,2.07.77,9.87,9.87,0,0,0,2.17.42A5.36,5.36,0,0,0,103,221Z"/><path d="M102,225a3.2,3.2,0,0,0-1.56-1.82,8.41,8.41,0,0,0-2.26-.84,15.17,15.17,0,0,0-2.41-.35c-.4,0-.81,0-1.21,0a5.56,5.56,0,0,0-1.06.06v-3a8.53,8.53,0,0,1,1.48.35c.44.13.87.28,1.3.45a17,17,0,0,1,2.47,1.15,9.48,9.48,0,0,1,2.17,1.65A3.57,3.57,0,0,1,102,225Z"/><path class="cls-6" d="M100,138s-30,16-36,28c-9.4,18.8,19,34,19,34l8.2-3.8c-3.19,1.48-7.1-1.48-9.76-2.91a24.49,24.49,0,0,1-11.1-13.52,17.75,17.75,0,0,1-1-8.74c1.36-8.13,8.94-15.06,14.85-20.12C89.59,146.23,96.43,140.14,100,138Z"/><path class="cls-1" d="M80,200s-2,3,1.05,6c1.9,1.9,3.81,1.9,5.71,1.9,5.43,0,13.94-9.06,16.91-13.61,9.75-14.95,4.33-20.27.23-20.66-1.42-.14-3.81.84-3.81,1.9,0,3.81,0,7.62-3.81,13.33A27.64,27.64,0,0,1,80,200Z"/><g id="text5675" class="cls-21"><text class="cls-22" transform="translate(121.15 39.43) rotate(-16.73)">J</text></g><path id="path42" class="cls-17" d="M153,66.3s-6,.63-4.88,4.62,8.06,1.92,8.75,1.35"/><path id="path104-2" data-name="path104" d="M151.16,63c1.27,1.4,2.14,3.07,3.36,4.48a23.54,23.54,0,0,0,4.29,3.62,6.9,6.9,0,0,1,1.66,1.49c1.46,2-.39,4.44-2.13,5.48a12.58,12.58,0,0,1-6.64,1.52,4.87,4.87,0,0,1-2.57-.58,2.47,2.47,0,0,1-.76-3.08c.33-1,3.87-.38,4.66-.43,1.62-.1,3.59-.56,4.52-2-2.38-2.33-6.74-7-6.39-10.48"/><path class="cls-3" d="M80,200l1,6,8,3,6-5a6.46,6.46,0,0,1-5-3c-1-1.46-1-5-1-5Z"/><polygon class="cls-3" points="100 178.14 100.74 173.14 108 176.06 108 185 105 179 100 178.14"/><path class="cls-4" d="M86.76,207.88s2.57,7.27,3.81,9.52a10,10,0,0,0,3.81,3.81,7.5,7.5,0,0,0,3.81,7.62c7.74,4.65,13.33-1.9,13.33-1.9s5.49,2.13,7.62,0a16.33,16.33,0,0,0,3.81-5.71,6.5,6.5,0,0,0,3.81-3.81A25.75,25.75,0,0,0,128,210a9.26,9.26,0,0,0,3-5c1.25-6.87-4.8-12.8-8.07-16.16-3-3.1-14.28-9.68-14.28-9.68s.8,6-6.66,17.3C97,204,86.76,207.88,86.76,207.88Z"/><path class="cls-4" d="M80,200s-2,3,1.05,6c1.9,1.9,3.81,1.9,5.71,1.9,5.43,0,13.94-9.06,16.91-13.61,9.75-14.95,4.33-20.27.23-20.66-1.42-.14-3.81.84-3.81,1.9,0,3.81,0,7.62-3.81,13.33A27.64,27.64,0,0,1,80,200Z"/><path d="M201,44a3.27,3.27,0,0,0-.35-2.83c-.22-.43-.49-.84-.77-1.28-.14-.22-.29-.45-.44-.7a4.51,4.51,0,0,1-.23-.45c0-.1-.08-.17-.11-.29S199,38.15,199,38h4l-.06-.06s0,.06,0,.09a1.5,1.5,0,0,0-.06.31c0,.25,0,.52,0,.81a16.6,16.6,0,0,1-.15,1.77,6.24,6.24,0,0,1-.51,1.77A3.07,3.07,0,0,1,201,44Z"/><path id="path40" class="cls-17" d="M134,102.09s.6-7.85,2.72-7.25a2.91,2.91,0,0,1,2.11,2.72s-5.13,3.32-4.83,4.53"/><path id="path132" class="cls-17" d="M119,115.18c.34-.45,2.21-1.14,4.84.12,0,0-3.11.52-2.85,5.7l-1.29-.26s-1.34-4.7-.69-5.56"/><path id="path132-2" data-name="path132" class="cls-17" d="M66,95c.76-1.2,8.15-6.44,14-3.09,0,0-17,2.09-4,22.09,0,0-6-3-8-7-.92-1.84-3.44-5.72-2-8Z"/><path class="cls-23" d="M93,118s9,7,18,13c3.39,2.26,12.09,3.88,16,5,5.18,1.48,16.89,3.21,24.5-1.5C162,128,167,111,168,105c2.5-14.5.17-25.26-3-31-2.73-4.94-1.3-10-2.5-15.5C160,47,146.43,45.27,131.87,49.65,102.5,58.5,105.39,67.83,96.26,73.42,94.34,74.59,89.75,76.58,88,78c-3.23,2.62-8,12-8,12-5-3-13.18,2.1-14.33,7.4s2.7,12,6.33,15.6C86,127,93,118,93,118Z"/><path class="cls-24" d="M71,102s-1.17-4.49,3.38-5.72c11-3,10.1,12.35,10.1,12.35s-1.16-7-4-7.31c-4.65-.55-4.77,2.63-4.77,2.63s-1.06-.52-.42-2.32,2.92-1.32,2.92-1.32-.56-2.09-4-1.86C71.58,98.62,71,102,71,102Z"/><path d="M92,112a8.25,8.25,0,0,1,1.71,2.81,13.3,13.3,0,0,1,.5,1.63,10.77,10.77,0,0,1,.28,1.77l-3-.42a7.9,7.9,0,0,0,.44-1.32,11.42,11.42,0,0,0,.27-1.45A7.5,7.5,0,0,0,92,112Z"/></svg>