<svg xmlns="http://www.w3.org/2000/svg" xmlns:xlink="http://www.w3.org/1999/xlink" width="500" zoomAndPan="magnify" viewBox="0 0 375 374.999991" height="500" preserveAspectRatio="xMidYMid meet" version="1.0"><defs><clipPath id="id1"><path d="M 23 11 L 351 11 L 351 374.925781 L 23 374.925781 Z M 23 11 " clip-rule="nonzero"/></clipPath><clipPath id="id2"><path d="M 179.132812 110.785156 L 240.847656 110.785156 L 240.847656 171.535156 L 179.132812 171.535156 Z M 179.132812 110.785156 " clip-rule="nonzero"/></clipPath><clipPath id="id3"><path d="M 276 110.785156 L 337.136719 110.785156 L 337.136719 171.535156 L 276 171.535156 Z M 276 110.785156 " clip-rule="nonzero"/></clipPath></defs><path fill="rgb(100%, 87.838745%, 69.799805%)" d="M 107.183594 279.609375 C 102.640625 282.332031 32.695312 326.8125 32.695312 329.535156 C 32.695312 333.167969 32.695312 333.167969 32.695312 333.167969 L 45.414062 365.847656 L 328.828125 365.847656 C 328.828125 365.847656 342.457031 322.273438 341.546875 311.382812 C 341.546875 305.933594 296.128906 275.976562 296.128906 275.976562 C 296.128906 275.976562 331.554688 240.574219 332.464844 163.410156 C 332.464844 156.148438 332.464844 148.886719 331.554688 141.621094 C 325.195312 54.472656 269.785156 23.609375 211.648438 20.886719 C 152.601562 19.070312 119.898438 46.304688 119.898438 46.304688 C 119.898438 46.304688 82.65625 59.011719 79.023438 88.96875 C 79.023438 88.96875 49.953125 94.417969 65.398438 153.425781 C 53.585938 162.503906 50.863281 175.210938 50.863281 184.289062 C 50.863281 196.089844 54.496094 209.707031 61.761719 217.878906 C 77.207031 234.21875 89.921875 230.585938 89.921875 230.585938 C 89.921875 230.585938 95.375 259.636719 107.183594 279.609375 Z M 107.183594 279.609375 " fill-opacity="1" fill-rule="nonzero"/><path fill="rgb(95.689392%, 26.269531%, 21.179199%)" d="M 303.394531 310.472656 C 301.578125 298.671875 296.128906 293.226562 284.320312 293.226562 L 282.503906 293.226562 C 278.867188 294.132812 273.417969 295.949219 257.976562 306.84375 L 248.890625 313.195312 C 247.074219 312.289062 244.347656 311.382812 241.625 311.382812 C 237.082031 311.382812 233.449219 313.195312 229.816406 315.917969 L 220.730469 311.382812 L 205.289062 303.210938 C 197.113281 299.578125 188.9375 296.855469 182.578125 296.855469 C 178.039062 296.855469 174.402344 297.765625 170.769531 299.578125 C 166.226562 303.210938 164.410156 308.65625 165.320312 315.917969 C 165.320312 319.550781 166.226562 324.089844 166.226562 327.722656 C 168.042969 346.785156 168.953125 360.402344 187.121094 361.308594 C 188.03125 361.308594 188.9375 361.308594 189.847656 361.308594 C 199.839844 361.308594 211.648438 357.679688 222.546875 349.507812 L 230.722656 344.0625 C 233.449219 345.878906 237.082031 347.691406 240.714844 347.691406 C 245.257812 347.691406 248.890625 345.878906 251.617188 344.0625 L 264.335938 346.785156 C 269.785156 347.691406 274.328125 348.601562 278.867188 348.601562 L 282.5 348.601562 C 287.042969 348.601562 291.585938 348.601562 296.128906 345.878906 C 301.578125 343.152344 304.304688 336.800781 304.304688 326.8125 C 304.304688 322.273438 303.394531 317.734375 303.394531 314.105469 Z M 303.394531 310.472656 " fill-opacity="1" fill-rule="nonzero"/><path fill="rgb(100%, 100%, 100%)" d="M 166.226562 328.628906 C 166.226562 324.996094 165.320312 321.367188 165.320312 316.828125 C 164.410156 311.382812 165.320312 307.75 167.136719 304.117188 C 121.71875 303.210938 107.183594 279.609375 107.183594 279.609375 C 107.183594 279.609375 104.457031 294.132812 117.175781 310.472656 C 136.25 333.167969 165.320312 335.890625 165.320312 335.890625 L 167.136719 335.890625 C 167.136719 334.074219 167.136719 331.351562 166.226562 328.628906 Z M 166.226562 328.628906 " fill-opacity="1" fill-rule="nonzero"/><path fill="rgb(32.939148%, 43.139648%, 47.839355%)" d="M 177.128906 365.847656 L 170.769531 353.140625 C 169.863281 350.417969 168.953125 347.691406 168.042969 343.152344 L 167.136719 336.800781 L 160.777344 335.890625 C 152.601562 334.074219 132.617188 328.628906 118.082031 311.382812 C 113.542969 305.933594 110.816406 299.578125 109 293.226562 L 105.367188 281.421875 L 95.375 287.777344 C 77.207031 299.578125 47.230469 318.644531 37.238281 326.8125 L 31.785156 331.351562 L 45.414062 365.847656 Z M 177.128906 365.847656 " fill-opacity="1" fill-rule="nonzero"/><path fill="rgb(27.059937%, 35.289001%, 39.219666%)" d="M 79.929688 365.847656 L 177.128906 365.847656 L 170.769531 353.140625 C 169.863281 350.417969 168.953125 347.691406 168.042969 343.152344 L 167.136719 336.800781 L 160.777344 335.890625 C 152.601562 334.074219 132.617188 328.628906 118.082031 311.382812 C 117.175781 310.472656 116.265625 308.65625 115.359375 307.75 L 69.03125 338.613281 Z M 79.929688 365.847656 " fill-opacity="1" fill-rule="nonzero"/><path fill="rgb(32.939148%, 43.139648%, 47.839355%)" d="M 338.820312 306.84375 C 333.371094 301.394531 317.019531 289.59375 310.660156 285.054688 L 304.304688 280.515625 C 302.488281 282.332031 298.851562 286.871094 292.496094 291.410156 L 298.851562 297.765625 C 301.578125 300.488281 303.394531 305.027344 304.304688 309.566406 L 304.304688 312.289062 C 305.210938 315.917969 305.210938 320.457031 305.210938 324.996094 C 305.210938 340.429688 299.761719 343.152344 297.035156 344.0625 C 295.21875 344.96875 292.496094 345.878906 289.769531 345.878906 L 290.675781 364.03125 L 327.921875 364.03125 L 329.738281 357.679688 C 334.28125 343.152344 339.730469 322.273438 340.640625 313.195312 L 340.640625 308.65625 Z M 338.820312 306.84375 " fill-opacity="1" fill-rule="nonzero"/><path fill="rgb(27.059937%, 35.289001%, 39.219666%)" d="M 328.828125 365.847656 L 330.648438 359.492188 C 333.371094 352.230469 335.1875 342.246094 337.914062 334.074219 L 304.304688 315.917969 C 304.304688 318.644531 305.210938 322.273438 305.210938 325.90625 C 305.210938 341.339844 299.761719 344.0625 297.035156 344.96875 C 295.21875 345.878906 292.496094 346.785156 289.769531 346.785156 L 290.675781 364.941406 Z M 328.828125 365.847656 " fill-opacity="1" fill-rule="nonzero"/><path fill="rgb(38.038635%, 38.038635%, 38.038635%)" d="M 62.671875 155.238281 C 62.671875 155.238281 63.582031 154.332031 62.671875 155.238281 L 63.582031 154.332031 C 68.121094 150.699219 74.480469 147.976562 79.929688 147.976562 C 85.382812 147.976562 88.105469 149.792969 90.832031 150.699219 C 102.640625 157.054688 105.367188 168.855469 106.273438 177.027344 L 106.273438 178.84375 C 111.726562 177.027344 117.175781 175.210938 118.992188 174.304688 C 118.992188 173.394531 118.992188 171.582031 118.082031 168.855469 C 117.175781 165.226562 116.265625 160.6875 114.449219 156.148438 C 110.816406 146.160156 111.726562 133.453125 117.175781 117.113281 L 118.082031 115.296875 C 118.992188 111.664062 120.808594 108.035156 120.808594 105.3125 C 120.808594 102.585938 121.71875 99.863281 121.71875 98.957031 C 121.71875 96.234375 120.808594 94.417969 119.898438 91.695312 L 118.082031 87.15625 L 120.808594 82.617188 C 128.984375 69 158.960938 23.609375 219.824219 23.609375 C 221.640625 23.609375 223.457031 23.609375 226.183594 23.609375 L 224.363281 23.609375 C 220.730469 21.792969 216.191406 20.886719 211.648438 20.886719 C 209.832031 20.886719 207.105469 20.886719 205.289062 20.886719 C 156.234375 20.886719 126.257812 41.765625 120.808594 45.394531 L 118.992188 47.210938 C 113.542969 49.027344 85.382812 60.828125 79.929688 85.339844 L 78.113281 88.0625 L 74.480469 89.878906 C 70.847656 91.695312 68.121094 94.417969 66.304688 98.046875 C 59.945312 108.941406 59.039062 125.28125 63.582031 147.976562 L 64.488281 152.515625 L 60.855469 157.054688 C 60.855469 157.054688 59.945312 157.964844 59.945312 157.964844 C 60.855469 157.054688 61.761719 156.148438 62.671875 155.238281 Z M 62.671875 155.238281 " fill-opacity="1" fill-rule="nonzero"/><path fill="rgb(14.898682%, 19.60907%, 21.958923%)" d="M 223.457031 347.691406 L 277.960938 347.691406 L 277.960938 365.847656 L 223.457031 365.847656 Z M 98.097656 178.84375 C 97.191406 170.671875 94.464844 163.410156 88.105469 159.777344 C 85.382812 158.871094 83.566406 157.964844 80.839844 157.964844 C 76.296875 157.964844 70.847656 159.777344 66.304688 166.132812 L 59.945312 147.976562 C 68.121094 143.4375 75.390625 140.714844 82.65625 140.714844 C 87.199219 140.714844 91.738281 141.621094 96.28125 143.4375 C 99.914062 145.253906 103.550781 147.976562 106.273438 150.699219 C 104.457031 137.992188 107.183594 124.375 110.816406 113.480469 C 112.632812 108.941406 113.542969 104.402344 114.449219 101.679688 C 115.359375 96.234375 114.449219 95.324219 112.632812 92.601562 C 95.375 94.417969 80.839844 98.957031 80.839844 98.957031 L 76.296875 81.707031 C 77.207031 81.707031 95.375 76.261719 116.265625 74.445312 L 122.625 73.539062 L 125.351562 78.984375 C 125.351562 78.984375 126.257812 79.894531 126.257812 80.800781 C 128.984375 83.523438 132.617188 88.96875 133.527344 98.046875 C 133.527344 99.863281 133.527344 103.496094 132.617188 106.21875 C 131.710938 110.757812 129.890625 114.390625 128.984375 119.835938 C 125.351562 130.730469 122.625 143.4375 126.257812 152.515625 C 128.074219 157.964844 128.984375 163.410156 129.890625 167.042969 C 130.800781 170.671875 131.710938 178.84375 128.074219 181.566406 C 124.441406 184.289062 103.550781 190.644531 103.550781 190.644531 C 103.550781 190.644531 99.007812 187.011719 98.097656 178.84375 Z M 98.097656 178.84375 " fill-opacity="1" fill-rule="nonzero"/><path fill="rgb(14.898682%, 19.60907%, 21.958923%)" d="M 128.074219 89.878906 L 111.726562 82.617188 C 111.726562 81.707031 145.335938 8.175781 229.816406 13.625 L 228.90625 31.78125 C 156.234375 28.148438 128.074219 89.878906 128.074219 89.878906 Z M 128.074219 89.878906 " fill-opacity="1" fill-rule="nonzero"/><path fill="rgb(100%, 100%, 100%)" d="M 168.953125 304.117188 C 122.625 304.117188 107.183594 279.609375 107.183594 279.609375 C 107.183594 279.609375 104.457031 294.132812 117.175781 310.472656 C 136.25 333.167969 165.320312 335.890625 165.320312 335.890625 " fill-opacity="1" fill-rule="nonzero"/><path fill="rgb(14.898682%, 19.60907%, 21.958923%)" d="M 164.410156 344.96875 C 163.503906 344.96875 131.710938 341.339844 110.816406 315.917969 C 95.375 295.949219 98.097656 279.609375 99.007812 277.792969 L 103.550781 254.191406 L 116.265625 275.070312 C 117.175781 275.976562 129.890625 295.039062 169.863281 295.039062 L 169.863281 313.195312 C 150.785156 313.195312 136.25 309.566406 125.351562 304.117188 C 125.351562 304.117188 125.351562 304.117188 125.351562 305.027344 C 141.703125 324.089844 166.226562 326.8125 167.136719 326.8125 Z M 284.320312 356.769531 C 283.410156 356.769531 282.5 356.769531 281.59375 356.769531 C 265.242188 356.769531 249.800781 351.324219 248.890625 351.324219 L 255.25 334.074219 C 255.25 334.074219 267.96875 338.613281 280.683594 338.613281 L 281.59375 338.613281 C 286.136719 338.613281 290.675781 338.613281 293.402344 337.707031 C 296.128906 335.890625 296.128906 329.535156 296.128906 325.90625 C 296.128906 322.273438 295.21875 317.734375 295.21875 314.105469 L 295.21875 311.382812 C 294.3125 304.117188 291.585938 301.394531 284.320312 301.394531 C 278.867188 302.304688 261.609375 315.011719 255.25 319.550781 L 250.707031 323.183594 L 239.808594 308.65625 L 243.441406 305.933594 C 260.699219 293.226562 274.328125 284.148438 283.410156 284.148438 C 299.761719 284.148438 309.753906 293.226562 312.480469 309.566406 L 312.480469 312.289062 C 313.386719 315.917969 313.386719 321.367188 314.296875 325.90625 C 314.296875 339.523438 310.660156 349.507812 301.578125 353.140625 C 295.21875 356.769531 289.769531 356.769531 284.320312 356.769531 Z M 284.320312 356.769531 " fill-opacity="1" fill-rule="nonzero"/><path fill="rgb(14.898682%, 19.60907%, 21.958923%)" d="M 189.847656 371.296875 C 188.9375 371.296875 188.03125 371.296875 187.121094 371.296875 C 160.777344 369.480469 158.960938 348.601562 158.050781 329.535156 C 158.050781 325.90625 157.144531 322.273438 157.144531 318.644531 C 155.328125 304.117188 161.6875 296.855469 166.226562 293.226562 C 178.039062 285.054688 196.203125 288.6875 209.832031 295.039062 L 237.082031 309.566406 L 228.90625 325.90625 L 201.65625 311.382812 C 190.753906 305.933594 179.855469 305.027344 177.128906 307.75 C 175.3125 309.566406 175.3125 313.195312 175.3125 315.917969 C 176.21875 319.550781 176.21875 324.089844 176.21875 327.722656 C 178.039062 349.507812 179.855469 352.230469 188.9375 353.140625 C 208.015625 354.957031 227.089844 336.800781 227.089844 335.890625 L 239.808594 348.601562 C 237.992188 350.417969 216.191406 371.296875 189.847656 371.296875 Z M 159.871094 115.296875 C 159.871094 115.296875 158.050781 120.742188 154.417969 120.742188 C 152.601562 120.742188 150.785156 117.113281 150.785156 113.480469 C 150.785156 102.585938 158.050781 88.96875 165.320312 82.617188 C 170.769531 78.078125 178.039062 75.355469 186.210938 75.355469 C 189.847656 75.355469 194.386719 75.355469 198.023438 77.167969 C 202.5625 78.984375 205.289062 82.617188 205.289062 89.878906 C 205.289062 89.878906 205.289062 93.507812 193.480469 93.507812 C 186.210938 93.507812 177.128906 94.417969 173.496094 98.046875 C 169.863281 101.679688 164.410156 105.3125 159.871094 115.296875 Z M 208.921875 166.132812 C 204.378906 166.132812 198.929688 165.226562 194.386719 164.316406 C 188.9375 163.410156 186.210938 157.964844 188.03125 153.425781 L 189.847656 150.699219 C 190.753906 148.886719 192.570312 147.976562 194.386719 147.976562 C 195.296875 147.976562 196.203125 147.976562 197.113281 147.976562 C 204.378906 149.792969 215.28125 149.792969 218.914062 149.792969 C 214.371094 132.542969 215.28125 119.835938 218.007812 119.835938 C 220.730469 119.835938 228 140.714844 231.632812 145.253906 C 235.265625 149.792969 234.355469 155.238281 230.722656 158.871094 C 224.363281 164.316406 217.097656 166.132812 208.921875 166.132812 Z M 299.761719 166.132812 C 297.945312 166.132812 297.035156 166.132812 295.21875 166.132812 C 289.769531 165.226562 287.042969 161.59375 287.042969 156.148438 C 287.042969 156.148438 287.953125 147.976562 292.496094 147.976562 C 296.128906 147.976562 300.667969 149.792969 302.488281 149.792969 C 300.667969 138.898438 297.945312 120.742188 300.667969 120.742188 C 303.394531 120.742188 309.753906 142.53125 322.472656 150.699219 C 326.105469 153.425781 326.105469 158.871094 320.65625 162.503906 C 313.386719 165.226562 307.027344 166.132812 299.761719 166.132812 Z M 317.019531 107.125 C 315.203125 99.863281 307.027344 93.507812 297.945312 90.785156 C 286.136719 88.0625 277.960938 93.507812 277.960938 93.507812 C 277.960938 85.339844 284.320312 78.984375 287.042969 78.078125 C 290.675781 76.261719 292.496094 75.355469 296.128906 75.355469 C 315.203125 75.355469 322.472656 87.15625 328.828125 98.957031 Z M 317.019531 107.125 " fill-opacity="1" fill-rule="nonzero"/><path fill="rgb(14.898682%, 19.60907%, 21.958923%)" d="M 258.882812 220.601562 C 257.976562 220.601562 256.160156 220.601562 255.25 220.601562 C 248.890625 220.601562 243.441406 218.785156 239.808594 214.246094 C 232.539062 206.078125 231.632812 195.183594 234.355469 193.367188 C 237.082031 191.550781 238.898438 197.90625 247.984375 200.628906 C 247.984375 200.628906 254.34375 201.539062 256.160156 201.539062 C 257.976562 201.539062 258.882812 201.539062 260.699219 201.539062 C 272.507812 201.539062 282.5 198.8125 286.136719 196.089844 C 287.042969 195.183594 287.042969 193.367188 287.042969 193.367188 C 287.042969 193.367188 287.042969 190.644531 275.234375 179.75 C 263.425781 168.855469 259.792969 155.238281 259.792969 143.4375 C 259.792969 129.820312 261.609375 120.742188 263.425781 120.742188 C 266.152344 120.742188 268.875 149.792969 287.953125 166.132812 C 301.578125 177.933594 305.210938 186.105469 305.210938 194.273438 C 305.210938 202.445312 300.667969 206.984375 297.945312 209.707031 C 287.953125 218.785156 271.601562 220.601562 258.882812 220.601562 Z M 254.34375 247.835938 C 226.183594 246.925781 211.648438 229.679688 211.648438 229.679688 C 211.648438 229.679688 243.441406 232.402344 264.335938 232.402344 L 264.335938 247.835938 Z M 274.328125 247.835938 L 274.328125 231.496094 C 276.144531 230.585938 290.675781 232.402344 307.027344 226.046875 C 303.394531 245.113281 275.234375 247.835938 274.328125 247.835938 Z M 233.449219 275.070312 C 213.464844 275.070312 203.472656 269.621094 196.203125 246.019531 C 196.203125 246.019531 195.296875 244.203125 198.023438 243.296875 C 200.746094 242.386719 201.65625 244.203125 201.65625 244.203125 C 205.289062 254.191406 220.730469 256.914062 239.808594 256.914062 C 240.714844 256.914062 241.625 256.914062 242.53125 256.914062 C 251.617188 256.914062 269.785156 256.914062 269.785156 256.914062 C 269.785156 256.914062 266.152344 275.070312 247.074219 275.070312 C 244.347656 275.070312 235.265625 275.070312 233.449219 275.070312 Z M 233.449219 275.070312 " fill-opacity="1" fill-rule="nonzero"/><path fill="rgb(14.898682%, 19.60907%, 21.958923%)" d="M 232.539062 311.382812 C 203.472656 311.382812 180.761719 302.304688 156.234375 275.976562 C 142.609375 261.453125 142.609375 242.386719 144.425781 240.574219 C 146.242188 238.757812 148.96875 251.464844 159.871094 263.269531 C 181.671875 286.871094 212.554688 294.132812 238.898438 292.316406 C 273.417969 289.59375 287.953125 269.621094 290.675781 267.804688 L 306.121094 278.699219 C 305.210938 279.609375 284.320312 306.84375 240.714844 310.472656 C 237.082031 311.382812 235.265625 311.382812 232.539062 311.382812 Z M 90.832031 238.757812 L 89.921875 229.679688 L 89.015625 220.601562 C 89.015625 220.601562 90.832031 219.695312 94.464844 216.96875 C 97.191406 215.15625 99.914062 215.15625 102.640625 216.96875 L 107.183594 220.601562 C 109.90625 223.324219 109.90625 227.863281 107.183594 230.585938 C 99.007812 237.847656 91.738281 238.757812 90.832031 238.757812 Z M 87.199219 184.289062 L 101.734375 189.734375 C 100.824219 186.105469 96.28125 169.765625 83.566406 166.132812 C 79.929688 165.226562 73.574219 167.949219 72.664062 174.304688 C 72.664062 174.304688 72.664062 176.117188 72.664062 177.027344 C 72.664062 177.027344 72.664062 177.933594 72.664062 177.933594 C 73.574219 193.367188 87.199219 202.445312 87.199219 202.445312 Z M 87.199219 184.289062 " fill-opacity="1" fill-rule="nonzero"/><path fill="rgb(14.898682%, 19.60907%, 21.958923%)" d="M 241.625 356.769531 C 226.183594 356.769531 214.371094 344.96875 214.371094 329.535156 C 214.371094 314.105469 226.183594 302.304688 241.625 302.304688 C 257.066406 302.304688 268.875 314.105469 268.875 329.535156 C 268.875 344.96875 257.066406 356.769531 241.625 356.769531 Z M 241.625 320.457031 C 237.082031 320.457031 232.539062 324.089844 232.539062 329.535156 C 232.539062 334.984375 236.175781 338.613281 241.625 338.613281 C 247.074219 338.613281 250.707031 334.984375 250.707031 329.535156 C 250.707031 324.089844 247.074219 320.457031 241.625 320.457031 Z M 241.625 320.457031 " fill-opacity="1" fill-rule="nonzero"/><g clip-path="url(#id1)"><path fill="rgb(14.898682%, 19.60907%, 21.958923%)" d="M 328.828125 374.925781 L 45.414062 374.925781 C 41.777344 374.925781 38.144531 373.109375 37.238281 369.480469 L 24.519531 337.707031 C 23.609375 334.984375 23.609375 334.074219 23.609375 332.261719 L 23.609375 328.628906 C 24.519531 319.550781 75.390625 287.777344 95.375 275.976562 C 89.015625 262.359375 84.472656 247.835938 82.65625 238.757812 C 75.390625 237.847656 66.304688 234.21875 55.40625 223.324219 C 45.414062 213.339844 41.777344 196.089844 41.777344 184.289062 C 41.777344 176.117188 43.59375 162.503906 54.496094 150.699219 C 49.046875 126.191406 49.953125 107.125 58.128906 94.417969 C 61.761719 88.0625 66.304688 85.339844 69.9375 82.617188 C 77.207031 54.472656 107.183594 41.765625 114.449219 38.132812 C 121.71875 32.6875 155.328125 9.992188 211.648438 11.808594 C 287.953125 14.53125 335.1875 61.738281 340.640625 140.714844 C 341.546875 147.976562 341.546875 155.238281 341.546875 162.503906 C 341.546875 221.507812 320.65625 257.820312 309.753906 272.34375 C 350.632812 300.488281 350.632812 305.027344 350.632812 309.566406 C 351.539062 321.367188 340.640625 356.769531 337.003906 367.664062 C 336.097656 372.203125 332.464844 374.925781 328.828125 374.925781 Z M 51.769531 356.769531 L 321.5625 356.769531 C 327.011719 339.523438 331.554688 321.367188 332.464844 314.105469 C 327.011719 308.65625 307.9375 294.132812 290.675781 283.238281 C 288.859375 281.421875 287.042969 279.609375 287.042969 276.882812 C 287.042969 274.160156 287.953125 271.4375 289.769531 269.621094 C 289.769531 269.621094 322.472656 236.035156 323.378906 163.410156 C 323.378906 157.054688 323.378906 149.792969 322.472656 142.53125 C 316.113281 48.121094 249.800781 31.78125 210.738281 29.964844 C 156.234375 28.148438 125.351562 52.660156 124.441406 53.566406 C 123.535156 54.472656 122.625 54.472656 121.71875 55.382812 C 121.71875 55.382812 89.921875 66.277344 87.199219 90.785156 C 86.289062 94.417969 83.566406 98.046875 79.929688 98.957031 C 73.574219 100.773438 63.582031 114.390625 73.574219 152.515625 C 74.480469 156.148438 73.574219 159.777344 70.847656 161.59375 C 61.761719 168.855469 60.855469 179.75 60.855469 185.195312 C 60.855469 196.089844 64.488281 206.984375 69.9375 212.429688 C 80.839844 224.230469 89.015625 222.417969 89.015625 222.417969 C 91.738281 221.507812 94.464844 222.417969 96.28125 223.324219 C 98.097656 225.140625 99.914062 226.957031 99.914062 229.679688 C 99.914062 229.679688 104.457031 257.820312 116.265625 275.976562 C 117.175781 277.792969 118.082031 280.515625 117.175781 283.238281 C 116.265625 285.960938 115.359375 287.777344 112.632812 288.6875 C 106.273438 292.316406 55.40625 324.996094 42.6875 334.074219 Z M 333.371094 315.011719 Z M 333.371094 315.011719 " fill-opacity="1" fill-rule="nonzero"/></g><path fill="rgb(100%, 100%, 100%)" d="M 209.648438 115.710938 C 195.550781 115.710938 184.074219 127.132812 184.074219 141.175781 C 184.074219 155.222656 195.550781 166.644531 209.648438 166.644531 C 212.296875 166.644531 214.886719 166.242188 217.375 165.453125 C 208.386719 164.675781 201.308594 157.136719 201.308594 147.984375 C 201.308594 138.316406 209.207031 130.449219 218.917969 130.449219 C 226.210938 130.449219 232.574219 134.828125 235.226562 141.382812 C 235.226562 141.3125 235.226562 141.246094 235.226562 141.175781 C 235.226562 127.132812 223.753906 115.710938 209.648438 115.710938 " fill-opacity="1" fill-rule="nonzero"/><path fill="rgb(100%, 100%, 100%)" d="M 306.613281 115.710938 C 292.511719 115.710938 281.039062 127.132812 281.039062 141.175781 C 281.039062 142.566406 281.15625 143.941406 281.375 145.300781 C 282.675781 136.902344 289.984375 130.449219 298.777344 130.449219 C 308.492188 130.449219 316.386719 138.316406 316.386719 147.984375 C 316.386719 157.550781 308.65625 165.351562 299.089844 165.515625 C 301.515625 166.269531 304.039062 166.644531 306.613281 166.644531 C 320.71875 166.644531 332.191406 155.222656 332.191406 141.175781 C 332.191406 127.132812 320.71875 115.710938 306.613281 115.710938 " fill-opacity="1" fill-rule="nonzero"/><path fill="rgb(100%, 100%, 100%)" d="M 229.667969 139.8125 C 228.796875 138.949219 227.886719 138.476562 226.871094 138.363281 C 225.898438 138.25 225.078125 138.554688 224.351562 139.273438 C 223.699219 139.925781 223.402344 140.585938 223.449219 141.285156 C 223.496094 142.019531 223.757812 142.613281 224.257812 143.109375 C 224.828125 143.679688 225.425781 143.980469 226.082031 144.03125 C 226.707031 144.082031 227.21875 143.894531 227.660156 143.453125 C 227.761719 143.355469 227.953125 143.121094 228.238281 142.753906 C 228.652344 142.332031 229.023438 142.261719 229.292969 142.277344 C 229.625 142.277344 229.953125 142.425781 230.246094 142.71875 C 230.980469 143.445312 231.355469 144.621094 231.363281 146.207031 C 231.371094 146.976562 231.277344 148.019531 231.078125 149.3125 L 231.097656 149.320312 C 231.761719 147.0625 231.917969 145.136719 231.554688 143.597656 C 231.171875 141.949219 230.535156 140.679688 229.667969 139.8125 " fill-opacity="1" fill-rule="nonzero"/><path fill="rgb(100%, 100%, 100%)" d="M 310.960938 149.320312 C 311.625 147.0625 311.78125 145.140625 311.417969 143.597656 C 311.03125 141.949219 310.398438 140.679688 309.527344 139.8125 C 308.671875 138.960938 307.734375 138.472656 306.734375 138.363281 C 305.765625 138.25 304.9375 138.554688 304.210938 139.273438 C 303.5625 139.925781 303.265625 140.585938 303.3125 141.285156 C 303.359375 142.019531 303.621094 142.613281 304.121094 143.109375 C 304.695312 143.679688 305.285156 143.980469 305.941406 144.03125 C 306.574219 144.082031 307.082031 143.894531 307.523438 143.453125 C 307.621094 143.355469 307.8125 143.121094 308.101562 142.753906 C 308.515625 142.332031 308.902344 142.269531 309.152344 142.277344 C 309.484375 142.277344 309.8125 142.425781 310.109375 142.71875 C 310.839844 143.445312 311.214844 144.621094 311.226562 146.207031 C 311.234375 146.976562 311.136719 148.023438 310.9375 149.3125 L 310.960938 149.320312 " fill-opacity="1" fill-rule="nonzero"/><g clip-path="url(#id2)"><path fill="rgb(6.269836%, 5.879211%, 5.099487%)" d="M 235.226562 141.382812 C 232.574219 134.828125 226.210938 130.449219 218.917969 130.449219 C 209.207031 130.449219 201.308594 138.316406 201.308594 147.984375 C 201.308594 157.136719 208.386719 164.675781 217.375 165.453125 C 214.886719 166.242188 212.296875 166.644531 209.648438 166.644531 C 195.550781 166.644531 184.074219 155.222656 184.074219 141.175781 C 184.074219 127.132812 195.550781 115.710938 209.648438 115.710938 C 223.753906 115.710938 235.226562 127.132812 235.226562 141.175781 C 235.226562 141.246094 235.226562 141.3125 235.226562 141.382812 Z M 231.097656 149.320312 L 231.078125 149.3125 C 231.277344 148.019531 231.371094 146.976562 231.363281 146.207031 C 231.355469 144.621094 230.980469 143.445312 230.246094 142.71875 C 229.953125 142.425781 229.625 142.277344 229.292969 142.277344 C 229.023438 142.261719 228.652344 142.332031 228.238281 142.753906 C 227.953125 143.121094 227.761719 143.355469 227.660156 143.453125 C 227.21875 143.894531 226.707031 144.082031 226.082031 144.03125 C 225.425781 143.980469 224.828125 143.679688 224.257812 143.109375 C 223.757812 142.613281 223.496094 142.019531 223.449219 141.285156 C 223.402344 140.585938 223.699219 139.925781 224.351562 139.273438 C 225.078125 138.554688 225.898438 138.25 226.871094 138.363281 C 227.886719 138.476562 228.796875 138.949219 229.667969 139.8125 C 230.535156 140.679688 231.171875 141.949219 231.554688 143.597656 C 231.917969 145.136719 231.761719 147.0625 231.097656 149.320312 Z M 209.648438 110.785156 C 192.820312 110.785156 179.132812 124.417969 179.132812 141.175781 C 179.132812 157.933594 192.820312 171.566406 209.648438 171.566406 C 226.476562 171.566406 240.167969 157.933594 240.167969 141.175781 C 240.167969 124.417969 226.476562 110.785156 209.648438 110.785156 " fill-opacity="1" fill-rule="nonzero"/></g><g clip-path="url(#id3)"><path fill="rgb(6.269836%, 5.879211%, 5.099487%)" d="M 310.109375 142.71875 C 309.8125 142.425781 309.484375 142.277344 309.152344 142.277344 C 308.902344 142.269531 308.515625 142.332031 308.101562 142.753906 C 307.8125 143.121094 307.621094 143.355469 307.523438 143.453125 C 307.082031 143.894531 306.574219 144.082031 305.941406 144.03125 C 305.285156 143.980469 304.695312 143.679688 304.121094 143.109375 C 303.621094 142.613281 303.359375 142.019531 303.3125 141.285156 C 303.265625 140.585938 303.5625 139.925781 304.210938 139.273438 C 304.9375 138.554688 305.765625 138.25 306.734375 138.363281 C 307.734375 138.472656 308.671875 138.960938 309.527344 139.8125 C 310.398438 140.679688 311.03125 141.949219 311.417969 143.597656 C 311.78125 145.140625 311.625 147.0625 310.960938 149.320312 L 310.9375 149.3125 C 311.136719 148.023438 311.234375 146.976562 311.226562 146.207031 C 311.214844 144.621094 310.839844 143.445312 310.109375 142.71875 Z M 306.613281 166.644531 C 304.039062 166.644531 301.515625 166.269531 299.089844 165.515625 C 308.65625 165.351562 316.386719 157.550781 316.386719 147.984375 C 316.386719 138.316406 308.492188 130.449219 298.777344 130.449219 C 289.984375 130.449219 282.675781 136.902344 281.375 145.300781 C 281.15625 143.941406 281.039062 142.566406 281.039062 141.175781 C 281.039062 127.132812 292.511719 115.710938 306.613281 115.710938 C 320.71875 115.710938 332.191406 127.132812 332.191406 141.175781 C 332.191406 155.222656 320.71875 166.644531 306.613281 166.644531 Z M 306.613281 110.785156 C 289.785156 110.785156 276.101562 124.417969 276.101562 141.175781 C 276.101562 157.933594 289.785156 171.566406 306.613281 171.566406 C 323.445312 171.566406 337.136719 157.933594 337.136719 141.175781 C 337.136719 124.417969 323.445312 110.785156 306.613281 110.785156 " fill-opacity="1" fill-rule="nonzero"/></g></svg>