<svg id="Слой_1" data-name="Слой 1" xmlns="http://www.w3.org/2000/svg" xmlns:xlink="http://www.w3.org/1999/xlink" viewBox="0 0 611.48 793.76"><defs><style>.cls-1,.cls-14,.cls-21,.cls-24,.cls-27,.cls-28,.cls-29,.cls-7,.cls-9{fill:none;}.cls-2{clip-path:url(#clip-path);}.cls-3{isolation:isolate;}.cls-4{clip-path:url(#clip-path-2);}.cls-5{font-size:135.9px;fill:#211c1d;font-family:Georgia-Bold, Georgia;font-weight:700;}.cls-6{fill:#adc455;}.cls-14,.cls-21,.cls-27,.cls-28,.cls-29,.cls-7,.cls-9{stroke:#201600;}.cls-21,.cls-24,.cls-27,.cls-29,.cls-7{stroke-miterlimit:10;}.cls-14,.cls-7,.cls-9{stroke-width:4px;}.cls-8{fill:#5d90ce;}.cls-28,.cls-9{stroke-linecap:round;}.cls-14,.cls-28,.cls-9{stroke-linejoin:round;}.cls-10{fill:#4d67a2;}.cls-11{fill:#dfbd6b;}.cls-12{fill:#d8a748;}.cls-13{fill:#c68749;}.cls-15{fill:#fff;}.cls-16{fill:#edd4b7;}.cls-17{fill:#ae8551;}.cls-18{fill:#eab572;}.cls-19{fill:#f5e2cc;}.cls-20{fill:#d4514d;}.cls-22{fill:#201600;}.cls-23{fill:#c9c8c8;}.cls-24{stroke:#fff;}.cls-25{fill:#994c45;}.cls-26{fill:#f1c05d;}.cls-27,.cls-28{stroke-width:8px;}.cls-29{stroke-width:3px;}.cls-30{fill:#a17e49;}.cls-31{fill:#ba964d;}.cls-32{fill:#d1a44a;}</style><clipPath id="clip-path"><rect class="cls-1" width="611.48" height="793.76"/></clipPath><clipPath id="clip-path-2"><rect class="cls-1" x="29.93" y="659.36" width="549.69" height="156.23"/></clipPath></defs><title>logoМонтажная область 1</title><g class="cls-2"><g class="cls-3"><g class="cls-4"><g class="cls-3"><g class="cls-4"><text class="cls-5" transform="translate(29.93 774.39)">Jenkins</text></g></g></g></g><path class="cls-6" d="M205.63,158.65C187.89,144,171.34,130,172.09,105.52c.47-15.12,7.09-29.44,16.15-41.55C196,53.63,205.62,45.36,214.8,36.32,220,31.2,232.48,17.43,232,10c1.58,26,5.84,53.22-11.45,74.89-6.86,8.6-15.08,16.19-21.08,25.4-2.25,3.44-4.2,7.19-4.68,11.27-1.34,11.31,7.35,26.21,10.82,37.12"/><path class="cls-7" d="M205.63,158.65C187.89,144,171.34,130,172.09,105.52c.47-15.12,7.09-29.44,16.15-41.55C196,53.63,205.62,45.36,214.8,36.32,220,31.2,232.48,17.43,232,10c1.58,26,5.84,53.22-11.45,74.89-6.86,8.6-15.08,16.19-21.08,25.4-2.25,3.44-4.2,7.19-4.68,11.27C193.48,132.84,202.16,147.74,205.63,158.65Z"/><path class="cls-6" d="M36.08,471.57c25.73-10,50.1-19.2,74.88-10.74a62.32,62.32,0,0,1,33.15,26.64c6,9.71,8.78,20.32,12.6,30.8,2.16,5.93,8.88,20.66,16.83,22.67-27.8-7-58.37-12.19-70.35-33.41-4.76-8.43-7.66-17.65-13.54-25.55a21.92,21.92,0,0,0-8.82-7.47c-10.86-4.72-31.42-2.3-44.75-2.92"/><path class="cls-7" d="M36.08,471.57c25.73-10,50.1-19.2,74.88-10.74a62.32,62.32,0,0,1,33.15,26.64c6,9.71,8.78,20.32,12.6,30.8,2.16,5.93,8.88,20.66,16.83,22.67-27.8-7-58.37-12.19-70.35-33.41-4.76-8.43-7.66-17.65-13.54-25.55a21.92,21.92,0,0,0-8.82-7.47C70,469.78,49.4,472.19,36.08,471.57Z"/><path class="cls-6" d="M130.37,112.14s17.63.73,11.56,12.09-16.66-2.35-16.66-2.35Z"/><path class="cls-7" d="M130.37,112.14s17.63.73,11.56,12.09-16.66-2.35-16.66-2.35Z"/><path class="cls-8" d="M121.21,115.56c-4.06-.5-8.53-1.9-12.55-.75-6.62,1.91-13.21,3.92-19.81,5.88a115.4,115.4,0,0,1-13.21,2.75c-5.27.92-9,2.59-14.35,1.94,3.61-2.08,7.05-6.22,10.67-8.29-4.55-4.88-14.12-2.72-22.64-3.52,5.3-1.4,12-7.07,17.32-8.47-5.09-7-17.2-7.73-24-11.92,8.05-.32,20.5,1.94,28.56,1.62-8.46-3-10.21-10.17-11.6-15.28,6.88,2.89,13.74,10.66,20.63,8.67.93-3.24-3.34-7.11-5-10.67,4.3,1.61,9.51,2.74,13.4,5.11,4.17,2.54,8.29,6.61,11.72,10.09s6.53,7,10.28,10.08c4.09,3.32,8.18,5.21,13,7.45a66.5,66.5,0,0,0-3.66-7.28c-1.12-1.67-2.6-2.52-4.29-3.73-3.31-2.35-6.66-4.64-9.83-7.18L80.07,71.41,92.9,73c.6-5.21-5.92-9.28-10.77-16.71,4.2,2.93,9.9,2.44,14.09,5.38C84.86,47,92.29,43.28,90.33,34.09c5,5.83,7.09,16.32,14.49,20.53-3.65-9.75,2.53-13.24,3.55-18.33,2.49,6.45.84,18,6.07,22,5-1.21,5-10.77,6.78-14.83,2.73,10.08,5.81,20.09,5.45,30.79-.17,5.18-2.17,10.35-2.33,15.53-.14,4.6,1.25,9.56,1.91,14.1,1.16-1.83,2.91-3.84,3.64-5.87.81-2.25.77-5.14,1.13-7.49.73-4.86,1.57-9.72,2.15-14.6.71-6,.74-12.38,2.06-18.28,1.06-4.75,3.26-9.49,4.87-14.11,1.35,4.45.76,10.94,4,13.35,1.28-14.81,7.55-14.36,11.33-21.53-.88,5.85-2.19,13.74-3.07,19.59,7.72-14.77,15-16.65,22.27-24-3.2,8.37,1.4,10.57-10.62,22.42,5.73-2.47,12.5-2.25,18.23-4.72-6.18,6.7-7.38,11.06-17.87,16.75,4.56-.75,8.45,1.85,13,1.11-6.54,7.78-13,15.25-21.13,21.44-5.13,3.9-10.65,7.26-15.81,11.14-3.73,2.8-6.9,6.46-10.23,9.74,2.14-.1,4.79.21,6.84-.44,2.82-.9,5.7-3.08,8.31-4.49,4.8-2.59,8.71-6.64,12.95-10.08a129.94,129.94,0,0,1,13.27-9.12c4-2.47,9-3.47,13.41-5-2.85,4.12-10.1,8.1-8.55,12.37L198.63,87c-4.56,3.54-11,5.86-13.68,10.63,7.33,5,12.55,2.95,21.58,4.05-9,3.38-16.16,3.22-25.13,6.59,2.61,5.78,13.23,5.6,18.87,8.34-8,.33-14.17,3.33-22.12,3.66.61,2.79,3.85,5.24,7.54,7.63-8.24,5.16-23.84-1.14-27.39-3.11-4.22-2.34-8.94-6.14-13.59-7.48s-10.63-.92-15.54-1.34c2.46,4.53,4.52,9.87,7.58,14,2.41,3.24,6.25,5.59,9.13,8.45,3.85,3.83,8.23,7.91,11.47,12.27,2.82,3.81,4.85,8.51,7.19,12.65-4.73-1.88-8.53-5.94-14.2-5.65,6.49,7.44,5.27,15.55,7.9,23.32-3.92-4.39-7.55-10.46-11.75-13.17-4.81,6.92,4.17,18.1,2.28,27.46-4-6.45-8.34-14.95-13.22-19.3.38,7.93-5.35,11.27-8,16.91q-.22-11.49-.44-23l-7.68,10.8c.05-10.05-.29-19.69,1.61-29.61.84-4.41,1.89-8.72,2.05-13.18l.62-17.05c-1.57,3.81-3.82,7.81-4.67,11.81-1,4.79-1.1,10-1.64,14.82l-3.65,33.08-4.35-12.27c-5.07,1.77-8,13.93-12,20.89.26-5.37-.42-12.19-.17-17.57-7.3,4.64-11.89,15.53-18.31,22.58,2.39-8.28,2.82-18.41,7.18-24.83-4.08-.47-12.15,4.19-17.49,7.26,5.95-7.1,10-13.22,17.81-19-3.61-1.8-9.3-.15-13.8,1A127.92,127.92,0,0,1,95.42,137c9-6.8,17.33-14,25.79-21.47"/><path class="cls-9" d="M121.21,115.56c-4.06-.5-8.53-1.9-12.55-.75-6.62,1.91-13.21,3.92-19.81,5.88a115.4,115.4,0,0,1-13.21,2.75c-5.27.92-9,2.59-14.35,1.94,3.61-2.08,7.05-6.22,10.67-8.29-4.55-4.88-14.12-2.72-22.64-3.52,5.3-1.4,12-7.07,17.32-8.47-5.09-7-17.2-7.73-24-11.92,8.05-.32,20.5,1.94,28.56,1.62-8.46-3-10.21-10.17-11.6-15.28,6.88,2.89,13.74,10.66,20.63,8.67.93-3.24-3.34-7.11-5-10.67,4.3,1.61,9.51,2.74,13.4,5.11,4.17,2.54,8.29,6.61,11.72,10.09s6.53,7,10.28,10.08c4.09,3.32,8.18,5.21,13,7.45a66.5,66.5,0,0,0-3.66-7.28c-1.12-1.67-2.6-2.52-4.29-3.73-3.31-2.35-6.66-4.64-9.83-7.18L80.07,71.41,92.9,73c.6-5.21-5.92-9.28-10.77-16.71,4.2,2.93,9.9,2.44,14.09,5.38C84.86,47,92.29,43.28,90.33,34.09c5,5.83,7.09,16.32,14.49,20.53-3.65-9.75,2.53-13.24,3.55-18.33,2.49,6.45.84,18,6.07,22,5-1.21,5-10.77,6.78-14.83,2.73,10.08,5.81,20.09,5.45,30.79-.17,5.18-2.17,10.35-2.33,15.53-.14,4.6,1.25,9.56,1.91,14.1,1.16-1.83,2.91-3.84,3.64-5.87.81-2.25.77-5.14,1.13-7.49.73-4.86,1.57-9.72,2.15-14.6.71-6,.74-12.38,2.06-18.28,1.06-4.75,3.26-9.49,4.87-14.11,1.35,4.45.76,10.94,4,13.35,1.28-14.81,7.55-14.36,11.33-21.53-.88,5.85-2.19,13.74-3.07,19.59,7.72-14.77,15-16.65,22.27-24-3.2,8.37,1.4,10.57-10.62,22.42,5.73-2.47,12.5-2.25,18.23-4.72-6.18,6.7-7.38,11.06-17.87,16.75,4.56-.75,8.45,1.85,13,1.11-6.54,7.78-13,15.25-21.13,21.44-5.13,3.9-10.65,7.26-15.81,11.14-3.73,2.8-6.9,6.46-10.23,9.74,2.14-.1,4.79.21,6.84-.44,2.82-.9,5.7-3.08,8.31-4.49,4.8-2.59,8.71-6.64,12.95-10.08a129.94,129.94,0,0,1,13.27-9.12c4-2.47,9-3.47,13.41-5-2.85,4.12-10.1,8.1-8.55,12.37L198.63,87c-4.56,3.54-11,5.86-13.68,10.63,7.33,5,12.55,2.95,21.58,4.05-9,3.38-16.16,3.22-25.13,6.59,2.61,5.78,13.23,5.6,18.87,8.34-8,.33-14.17,3.33-22.12,3.66.61,2.79,3.85,5.24,7.54,7.63-8.24,5.16-23.84-1.14-27.39-3.11-4.22-2.34-8.94-6.14-13.59-7.48s-10.63-.92-15.54-1.34c2.46,4.53,4.52,9.87,7.58,14,2.41,3.24,6.25,5.59,9.13,8.45,3.85,3.83,8.23,7.91,11.47,12.27,2.82,3.81,4.85,8.51,7.19,12.65-4.73-1.88-8.53-5.94-14.2-5.65,6.49,7.44,5.27,15.55,7.9,23.32-3.92-4.39-7.55-10.46-11.75-13.17-4.81,6.92,4.17,18.1,2.28,27.46-4-6.45-8.34-14.95-13.22-19.3.38,7.93-5.35,11.27-8,16.91q-.22-11.49-.44-23l-7.68,10.8c.05-10.05-.29-19.69,1.61-29.61.84-4.41,1.89-8.72,2.05-13.18l.62-17.05c-1.57,3.81-3.82,7.81-4.67,11.81-1,4.79-1.1,10-1.64,14.82l-3.65,33.08-4.35-12.27c-5.07,1.77-8,13.93-12,20.89.26-5.37-.42-12.19-.17-17.57-7.3,4.64-11.89,15.53-18.31,22.58,2.39-8.28,2.82-18.41,7.18-24.83-4.08-.47-12.15,4.19-17.49,7.26,5.95-7.1,10-13.22,17.81-19-3.61-1.8-9.3-.15-13.8,1A127.92,127.92,0,0,1,95.42,137C104.4,130.23,112.75,123,121.21,115.56Z"/><path class="cls-10" d="M148.34,81.88c-2.42-4.33,5.4-11.87,8.11-17.8-3.63,3-11,9-12.39,14.12-2.83-1.35,1.67-9.61,1.75-11.92l-7.85,8.35c2.26-5.12-.71-6.15-1.45-9.37a196.92,196.92,0,0,1-3.08,22.4c-.52,2.4-.08,5.45-.8,7.82-.56,1.83-.41,4-5.13,10a1.91,1.91,0,0,1-3-.75c-.56-2.48-.76-4.28-1.32-6.63a36.36,36.36,0,0,1-.68-10.37,179.93,179.93,0,0,0,1.26-18.35l-3.28,10.51L116,65.34c-.15,4.26.87,9-.46,12.77-5.14-3.87-7.09-10.55-10.64-15.83.58,4.62-.68,8.79,2.36,14.68-3.27.76-4.45-3.27-6.37-4.49.92,3.63,4.41,7.26,2.76,10.89l-8.93-3.91a198.25,198.25,0,0,0,17.49,14.3c1.93,1.43,6.29,4.4,7.9,6.21a29.83,29.83,0,0,1,5.54,10.15c.11.39-.54,1.59-.54,1.59a1.44,1.44,0,0,1-1.37.6c-1.94-.75-4-1.45-5.21-1.87a34.93,34.93,0,0,1-5.14-2.67,36.55,36.55,0,0,1-7.63-5.76,174.75,174.75,0,0,0-14-11.77c2,3,6.91,6.44,5.94,9-3.28.58-5.55-3.56-10.26-5.38,3.18,2.72,2.51,5.37,5.69,8.1-4,2.77-9-1.77-15.35-2.25,3.94,2.38,4,5.56,8,7.93-2.21.74-6.58,2.7-8.79,3.44,3.4,1.51,10.63-1.57,12.37,3.29l-8.76,4.17c7.19-.36,15-2.52,22.39-4.45,2.37-.62,5.16-2,7.62-2,6.2,0,9.83.81,12,1.58a1.29,1.29,0,0,1,.47,2.15,59.35,59.35,0,0,0-5,5.25c-1.22,1.7-2.88,2.58-4.34,4.09a50,50,0,0,1-8.14,6.51c-5.14,3.16-8.66,7.9-13.6,11.46,3.47-1.18,8-6,9-4.66.55.76-9.64,12.39-9.64,12.39s12.72-9.75,10.72-7.22c-2.94,3.7-7,18.07-7,18.07s8.48-14.59,10.17-12.09c.4.59.36,9.34.36,9.34,2.47-2.92,2.13-9.28,6.2-9.76,2.2,2.38,1.12,5,2,8.19.67-6.08,1.68-12.71,2-20.3a45.2,45.2,0,0,1,1.36-8c.42-1.68,3-6.35,5.12-9.78.67-1.07,2.91.14,3,.52.42,2,0,5.87.11,7.91.15,3-.46,5.81-.36,9.07.19,6.51-1,7.17-1.76,13.36,1.51-3.36,1.38-3.85,3-5.71-.94,3.94,1.66,8.57,2.52,13.58.68-4.22-.45-9.84,2.09-11.23,3.79,2.44,5.71,11.39,8.56,17.08.88-5.05,1.68-10.07,0-14,2.19-.28,3.49,2.92,5.23,4.37-.46-3.73-4.53-9.26-3.27-11.82,2.46,0,4.3,1.9,7.29,3.26-4-5.9-6.67-7.28-12-12.44a40.59,40.59,0,0,1-4.59-6.19c-1.28-1.86-2.89-7-5-10.19-.83-1.29.67-3,2.2-3,.7,0,8.21-.44,10.19,0,2.87.65,5.82,1,8.38,2.44,5.35,3,7.15,3.15,12.79,5.57-3.46-5.12-4-3.66-4.94-5.43,4.35-1.7,4.46,1,9.5,1.48-3.8-1.78-2-3.69-4-5.56,5.08-3.57,3.82,3.6,17.33-3-4.45-1.25-14.43.18-16.83-2.59,4.37-.38,7-2.74,9-4-3.7-.56-10.39,2.42-13.56-.33,5.15-1.46,5.45-7.36,7.72-9.86-6.67,3.77-10.85,9.34-17.52,13.11a69.89,69.89,0,0,1-9.09,4.24,22.77,22.77,0,0,1-8.33.79c-1,0-2.37-1.15-1.95-2.09A11.14,11.14,0,0,1,130.9,105c1.4-1.52,3.15-3.37,4.67-4.77,2.21-2,5.59-5,8.26-6.41,5.59-2.87,9.82-8.29,15.11-11.7-3.52,1-6.11,3.85-9.63,4.85a30.23,30.23,0,0,0,9.55-13.45Z"/><path class="cls-11" d="M48.08,174.61c11.72,8.57,17.62,20.46,13.18,26.55S43.74,205.25,32,196.68C22.2,189.5,14,171.62,11.59,166a1.12,1.12,0,0,1,1.13-1.55c6.06.58,25.55,3,35.37,10.14"/><path class="cls-7" d="M48.08,174.61c11.72,8.57,17.62,20.46,13.18,26.55S43.74,205.25,32,196.68C22.2,189.5,14,171.62,11.59,166a1.12,1.12,0,0,1,1.13-1.55C18.78,165,38.26,167.43,48.08,174.61Z"/><path class="cls-12" d="M51.3,180.87c9,6.59,13.55,15.73,10.14,20.41S48,204.42,38.95,197.84c-7.55-5.52-13.86-19.26-15.7-23.57a.86.86,0,0,1,.87-1.19c4.66.45,19.64,2.27,27.19,7.8"/><path class="cls-13" d="M55.41,189.14c5.36,3.92,8.06,9.36,6,12.14s-8,1.87-13.38-2c-4.49-3.28-8.24-11.46-9.34-14a.51.51,0,0,1,.52-.71c2.77.27,11.68,1.35,16.17,4.64"/><path class="cls-11" d="M55.92,196.46c14,3.78,23.8,12.76,21.85,20s-14.89,10.12-28.91,6.33c-11.74-3.17-25.83-16.9-30.08-21.27a1.12,1.12,0,0,1,.5-1.85c5.86-1.63,24.9-6.42,36.65-3.25"/><path class="cls-7" d="M55.92,196.46c14,3.78,23.8,12.76,21.85,20s-14.89,10.12-28.91,6.33c-11.74-3.17-25.83-16.9-30.08-21.27a1.12,1.12,0,0,1,.5-1.85C25.14,198.08,44.18,193.29,55.92,196.46Z"/><path class="cls-12" d="M61.17,201.14c10.78,2.91,18.3,9.81,16.8,15.41s-11.45,7.78-22.23,4.87c-9-2.44-19.86-13-23.13-16.35a.86.86,0,0,1,.38-1.42c4.51-1.26,19.14-4.94,28.17-2.5"/><path class="cls-13" d="M68,207.39c6.41,1.73,10.88,5.83,10,9.16s-6.81,4.63-13.22,2.9C59.38,218,52.94,211.72,51,209.72a.51.51,0,0,1,.23-.85c2.68-.75,11.39-2.94,16.76-1.49"/><path class="cls-11" d="M70.18,213.79c14.31,2.43,24.9,10.43,23.65,17.87S80,243.15,65.66,240.71c-12-2-27.32-14.37-32-18.31a1.12,1.12,0,0,1,.32-1.89c5.68-2.18,24.18-8.76,36.17-6.72"/><path class="cls-7" d="M70.18,213.79c14.31,2.43,24.9,10.43,23.65,17.87S80,243.15,65.66,240.71c-12-2-27.32-14.37-32-18.31a1.12,1.12,0,0,1,.32-1.89C39.69,218.33,58.18,211.75,70.18,213.79Z"/><path class="cls-12" d="M75.85,218c11,1.87,19.15,8,18.19,13.74s-10.66,8.83-21.66,7c-9.22-1.57-21-11-24.58-14.08a.86.86,0,0,1,.24-1.45c4.37-1.68,18.59-6.74,27.81-5.17"/><path class="cls-13" d="M83.22,223.53c6.54,1.11,11.39,4.77,10.82,8.17s-6.34,5.25-12.88,4.14c-5.48-.93-12.49-6.57-14.62-8.37a.51.51,0,0,1,.15-.86c2.6-1,11.06-4,16.54-3.07"/><path class="cls-11" d="M74.78,185.22c7.28,12.56,7.9,25.82,1.39,29.61s-17.7-3.31-25-15.87c-6.1-10.53-6.42-30.19-6.36-36.29a1.12,1.12,0,0,1,1.66-1c5.31,3,22.19,13,28.3,23.51"/><path class="cls-7" d="M74.78,185.22c7.28,12.56,7.9,25.82,1.39,29.61s-17.7-3.31-25-15.87c-6.1-10.53-6.42-30.19-6.36-36.29a1.12,1.12,0,0,1,1.66-1C51.8,164.68,68.68,174.69,74.78,185.22Z"/><path class="cls-12" d="M75.21,192.25c5.6,9.66,6.07,19.85,1.06,22.77s-13.6-2.55-19.2-12.2c-4.69-8.09-4.94-23.21-4.89-27.9a.86.86,0,0,1,1.27-.74c4.08,2.28,17.06,10,21.76,18.08"/><path class="cls-13" d="M75.64,201.47c3.33,5.74,3.61,11.81.63,13.54s-8.09-1.52-11.42-7.26c-2.79-4.81-2.93-13.81-2.91-16.59a.51.51,0,0,1,.76-.44c2.43,1.36,10.15,5.94,12.94,10.75"/><path class="cls-11" d="M98.07,205.23c4.69,13.74,2.71,26.86-4.42,29.31s-16.71-6.7-21.4-20.44c-3.93-11.51-.4-30.86.84-36.83a1.12,1.12,0,0,1,1.81-.62c4.63,4,19.23,17.07,23.16,28.58"/><path class="cls-7" d="M98.07,205.23c4.69,13.74,2.71,26.86-4.42,29.31s-16.71-6.7-21.4-20.44c-3.93-11.51-.4-30.86.84-36.83a1.12,1.12,0,0,1,1.81-.62C79.54,180.59,94.15,193.71,98.07,205.23Z"/><path class="cls-12" d="M97.12,212.2c3.6,10.56,2.08,20.66-3.4,22.54S80.88,229.59,77.27,219c-3-8.85-.31-23.73.65-28.32a.86.86,0,0,1,1.4-.48c3.56,3,14.79,13.13,17.81,22"/><path class="cls-13" d="M95.74,221.34c2.14,6.28,1.24,12.29-2,13.41s-7.64-3.07-9.78-9.35c-1.8-5.27-.18-14.11.38-16.84a.51.51,0,0,1,.83-.29c2.12,1.81,8.79,7.81,10.59,13.07"/><path class="cls-11" d="M93.54,233.23c14.31,2.43,24.9,10.43,23.65,17.87S103.34,262.59,89,260.16c-12-2-27.32-14.37-32-18.31a1.12,1.12,0,0,1,.32-1.89c5.68-2.18,24.18-8.76,36.17-6.72"/><path class="cls-7" d="M93.54,233.23c14.31,2.43,24.9,10.43,23.65,17.87S103.34,262.59,89,260.16c-12-2-27.32-14.37-32-18.31a1.12,1.12,0,0,1,.32-1.89C63.05,237.77,81.55,231.2,93.54,233.23Z"/><path class="cls-12" d="M99.22,237.4c11,1.87,19.15,8,18.19,13.74s-10.66,8.83-21.66,7c-9.22-1.57-21-11-24.58-14.08a.86.86,0,0,1,.24-1.45c4.37-1.68,18.59-6.74,27.81-5.17"/><path class="cls-13" d="M106.59,243c6.54,1.11,11.39,4.77,10.82,8.17s-6.34,5.25-12.88,4.14C99,254.35,92,248.71,89.9,246.91A.51.51,0,0,1,90,246c2.6-1,11.06-4,16.54-3.07"/><path class="cls-11" d="M119.22,218.76c3.5,14.09.41,27-6.9,28.83s-16.08-8.1-19.58-22.19c-2.93-11.81,2.22-30.79,4-36.63a1.13,1.13,0,0,1,1.86-.47c4.28,4.33,17.71,18.65,20.65,30.45"/><path class="cls-7" d="M119.22,218.76c3.5,14.09.41,27-6.9,28.83s-16.08-8.1-19.58-22.19c-2.93-11.81,2.22-30.79,4-36.63a1.13,1.13,0,0,1,1.86-.47C102.85,192.63,116.29,207,119.22,218.76Z"/><path class="cls-12" d="M117.68,225.62c2.69,10.83.32,20.76-5.3,22.17S100,241.56,97.32,230.73c-2.26-9.08,1.71-23.67,3.06-28.16a.86.86,0,0,1,1.43-.36c3.29,3.33,13.62,14.34,15.87,23.41"/><path class="cls-13" d="M115.53,234.61c1.6,6.44.19,12.35-3.16,13.18s-7.35-3.7-9-10.15c-1.34-5.4,1-14.08,1.82-16.75a.51.51,0,0,1,.85-.21c2,2,8.1,8.53,9.44,13.92"/><path class="cls-11" d="M112.29,249.15c14.48,1,25.83,7.87,25.33,15.39S125,277.37,110.51,276.39c-12.14-.82-28.63-11.54-33.65-15a1.12,1.12,0,0,1,.13-1.91c5.43-2.75,23.17-11.15,35.31-10.33"/><path class="cls-7" d="M112.29,249.15c14.48,1,25.83,7.87,25.33,15.39S125,277.37,110.51,276.39c-12.14-.82-28.63-11.54-33.65-15a1.12,1.12,0,0,1,.13-1.91C82.42,256.73,100.16,248.33,112.29,249.15Z"/><path class="cls-12" d="M118.36,252.72c11.14.75,19.86,6.05,19.48,11.84s-9.71,9.86-20.85,9.11c-9.33-.63-22-8.87-25.87-11.53a.86.86,0,0,1,.1-1.47c4.18-2.11,17.82-8.58,27.15-7.94"/><path class="cls-13" d="M126.25,257.52c6.62.45,11.81,3.6,11.58,7s-5.78,5.87-12.4,5.42c-5.55-.37-13.09-5.28-15.39-6.86a.51.51,0,0,1,.06-.87c2.48-1.26,10.6-5.1,16.15-4.73"/><path class="cls-11" d="M139.52,236c4,14,1.32,27-5.93,29s-16.34-7.56-20.31-21.52c-3.33-11.7,1.19-30.84,2.74-36.74a1.12,1.12,0,0,1,1.84-.53c4.42,4.18,18.33,18,21.66,29.74"/><path class="cls-7" d="M139.52,236c4,14,1.32,27-5.93,29s-16.34-7.56-20.31-21.52c-3.33-11.7,1.19-30.84,2.74-36.74a1.12,1.12,0,0,1,1.84-.53C122.29,210.47,136.2,224.33,139.52,236Z"/><path class="cls-12" d="M138.21,242.94c3.05,10.74,1,20.73-4.56,22.33s-12.56-5.81-15.62-16.55c-2.56-9,.92-23.71,2.11-28.25a.86.86,0,0,1,1.42-.41c3.4,3.22,14.09,13.87,16.65,22.87"/><path class="cls-13" d="M136.36,252c1.82,6.39.6,12.33-2.71,13.28s-7.47-3.46-9.29-9.84c-1.52-5.35.54-14.1,1.25-16.8a.51.51,0,0,1,.84-.24c2,1.91,8.38,8.25,9.9,13.6"/><path class="cls-11" d="M125.58,266.42c14.52.11,26.25,6.32,26.21,13.86s-11.85,13.56-26.36,13.44c-12.17-.1-29.26-9.82-34.48-13a1.12,1.12,0,0,1,0-1.92c5.26-3.07,22.47-12.51,34.63-12.42"/><path class="cls-7" d="M125.58,266.42c14.52.11,26.25,6.32,26.21,13.86s-11.85,13.56-26.36,13.44c-12.17-.1-29.26-9.82-34.48-13a1.12,1.12,0,0,1,0-1.92C96.21,275.77,113.42,266.32,125.58,266.42Z"/><path class="cls-12" d="M131.85,269.62c11.16.09,20.18,4.86,20.15,10.65s-9.11,10.42-20.27,10.33c-9.35-.07-22.5-7.55-26.51-10a.86.86,0,0,1,0-1.47c4-2.36,17.27-9.62,26.63-9.55"/><path class="cls-13" d="M140,273.94c6.64.05,12,2.89,12,6.34s-5.42,6.2-12.06,6.15c-5.56,0-13.38-4.49-15.77-5.93a.51.51,0,0,1,0-.88c2.4-1.4,10.27-5.72,15.84-5.68"/><path class="cls-11" d="M159.07,252c4,14,1.32,27-5.93,29s-16.34-7.56-20.31-21.52c-3.33-11.7,1.19-30.84,2.74-36.74a1.12,1.12,0,0,1,1.84-.53c4.42,4.18,18.33,18,21.66,29.74"/><path class="cls-7" d="M159.07,252c4,14,1.32,27-5.93,29s-16.34-7.56-20.31-21.52c-3.33-11.7,1.19-30.84,2.74-36.74a1.12,1.12,0,0,1,1.84-.53C141.83,226.48,155.74,240.34,159.07,252Z"/><path class="cls-12" d="M157.75,259c3.05,10.74,1,20.74-4.56,22.33s-12.56-5.81-15.62-16.55c-2.56-9,.92-23.71,2.11-28.25a.86.86,0,0,1,1.42-.41C144.5,239.3,155.2,250,157.75,259"/><path class="cls-13" d="M155.91,268c1.82,6.39.6,12.33-2.71,13.28s-7.47-3.46-9.29-9.84c-1.52-5.35.54-14.1,1.25-16.8a.51.51,0,0,1,.84-.24c2,1.91,8.38,8.25,9.9,13.6"/><path class="cls-11" d="M145,281.67c14.52.11,26.25,6.32,26.21,13.86S159.32,309.08,144.8,309c-12.16-.1-29.26-9.82-34.48-13a1.12,1.12,0,0,1,0-1.92c5.26-3.07,22.47-12.51,34.63-12.42"/><path class="cls-7" d="M145,281.67c14.52.11,26.25,6.32,26.21,13.86S159.32,309.08,144.8,309c-12.16-.1-29.26-9.82-34.48-13a1.12,1.12,0,0,1,0-1.92C115.59,291,132.8,281.57,145,281.67Z"/><path class="cls-12" d="M151.23,284.87c11.16.09,20.18,4.86,20.15,10.65s-9.11,10.42-20.27,10.33c-9.35-.07-22.5-7.55-26.51-10a.86.86,0,0,1,0-1.47c4-2.36,17.27-9.62,26.63-9.55"/><path class="cls-13" d="M159.39,289.19c6.64.05,12,2.89,12,6.34s-5.42,6.2-12.06,6.15c-5.56,0-13.38-4.49-15.77-5.93a.51.51,0,0,1,0-.88c2.4-1.4,10.27-5.72,15.84-5.68"/><path class="cls-11" d="M176,265c4,14,1.32,27-5.93,29s-16.34-7.56-20.31-21.52c-3.33-11.7,1.19-30.84,2.74-36.74a1.12,1.12,0,0,1,1.84-.53c4.42,4.18,18.33,18,21.66,29.74"/><path class="cls-7" d="M176,265c4,14,1.32,27-5.93,29s-16.34-7.56-20.31-21.52c-3.33-11.7,1.19-30.84,2.74-36.74a1.12,1.12,0,0,1,1.84-.53C158.79,239.43,172.7,253.29,176,265Z"/><path class="cls-12" d="M174.72,271.9c3.05,10.74,1,20.74-4.56,22.33s-12.56-5.81-15.62-16.55c-2.56-9,.92-23.71,2.11-28.25a.86.86,0,0,1,1.42-.41c3.4,3.22,14.09,13.87,16.65,22.87"/><path class="cls-13" d="M172.87,281c1.82,6.39.6,12.33-2.71,13.28s-7.47-3.46-9.29-9.84c-1.52-5.35.54-14.1,1.25-16.8a.51.51,0,0,1,.84-.24c2,1.91,8.38,8.25,9.9,13.6"/><path class="cls-11" d="M162.79,294.9c14.35-2.18,26.92,2.09,28.07,9.54s-9.56,15.26-23.91,17.44c-12,1.83-30.45-5.07-36.1-7.35a1.12,1.12,0,0,1-.29-1.9c4.71-3.86,20.21-15.91,32.23-17.74"/><path class="cls-7" d="M162.79,294.9c14.35-2.18,26.92,2.09,28.07,9.54s-9.56,15.26-23.91,17.44c-12,1.83-30.45-5.07-36.1-7.35a1.12,1.12,0,0,1-.29-1.9C135.26,308.78,150.76,296.73,162.79,294.9Z"/><path class="cls-12" d="M169.48,297.07c11-1.68,20.7,1.61,21.58,7.34s-7.35,11.73-18.38,13.41c-9.25,1.4-23.41-3.9-27.76-5.65a.86.86,0,0,1-.22-1.46c3.62-3,15.54-12.23,24.78-13.64"/><path class="cls-13" d="M178.23,300c6.56-1,12.31,1,12.83,4.36s-4.37,7-10.93,8c-5.5.84-13.92-2.32-16.51-3.36a.51.51,0,0,1-.13-.87c2.15-1.76,9.24-7.27,14.74-8.11"/><path class="cls-11" d="M196.87,278.95c4,14,1.32,27-5.93,29s-16.34-7.56-20.31-21.52c-3.33-11.7,1.19-30.84,2.74-36.74a1.12,1.12,0,0,1,1.84-.53c4.42,4.18,18.33,18,21.66,29.74"/><path class="cls-7" d="M196.87,278.95c4,14,1.32,27-5.93,29s-16.34-7.56-20.31-21.52c-3.33-11.7,1.19-30.84,2.74-36.74a1.12,1.12,0,0,1,1.84-.53C179.63,253.39,193.54,267.24,196.87,278.95Z"/><path class="cls-12" d="M195.56,285.86c3.05,10.74,1,20.74-4.56,22.33s-12.56-5.81-15.62-16.55c-2.56-9,.92-23.71,2.11-28.25a.86.86,0,0,1,1.42-.41c3.4,3.22,14.09,13.87,16.65,22.87"/><path class="cls-13" d="M193.71,294.91c1.82,6.39.6,12.33-2.71,13.28s-7.47-3.46-9.29-9.84c-1.52-5.35.54-14.1,1.25-16.8a.51.51,0,0,1,.84-.24c2,1.91,8.38,8.25,9.9,13.6"/><path class="cls-6" d="M470,224s20.4,17.18,2.65,25.15c-17.58,7.89-17.75-18.22-17.75-18.22Z"/><path class="cls-7" d="M470,224s20.4,17.18,2.65,25.15c-17.58,7.89-17.75-18.22-17.75-18.22Z"/><path class="cls-8" d="M455.9,219.58c-4.4-4.35-8.44-10.16-14.32-12.5-9.67-3.84-19.42-7.53-29.13-11.3-6.42-2.49-12.27-5.72-18.35-8.93-7.15-3.77-13.2-5.26-19-11,6.24.86,14.19-.91,20.43,0-.93-10-14.37-16.3-23.82-25.14,7.64,3.22,20.91,2.67,28.55,5.89.39-13.08-13.42-25.16-17.73-36.5,9.93,7.06,22.72,21.29,32.65,28.35-7.36-11.39-2.8-21.61.27-29,5.55,9.82,6.58,25.45,16.65,29.45,4.11-3,2.59-11.59,3.89-17.39,3.64,5.9,8.84,12.07,11.3,18.51,2.64,6.89,3.79,15.57,4.68,22.91s1.3,14.45,3,21.57c1.82,7.75,5,13.8,8.64,20.93.77-4,2.1-8.09,2.37-12.09.2-3-.77-5.42-1.69-8.42-1.79-5.88-3.67-11.71-5.11-17.68l-11.66-48.5,13.89,13.74c5.53-5.67,1.5-16.58,2.58-29.94,2.3,7.39,9.58,12.07,11.88,19.47,0-28,12.28-25.6,18.43-38.4.58,11.59-6.62,26.08-1.67,38,4.65-15,15.27-13.49,21.2-18.64-3,10-15.61,22.25-13.08,31.91,7.12,3.19,15.92-8.26,21.83-11.46-6.06,14.59-11.64,29.4-22,41.87-5,6-12.17,10.37-17.15,16.42-4.42,5.37-7.34,12.59-10.75,18.64,3.08-1.12,7-1.9,9.77-3.65,3-1.94,5.68-5.43,8.28-7.91,5.37-5.14,10.87-10.18,16.08-15.48,6.39-6.51,12.34-14.12,19.37-20,5.66-4.71,12.68-8.33,18.87-12.37-2.51,6.57-9.21,13.78-7.52,19.7,15.23-16.53,22.31-10.18,33.47-15.27-6.47,6.18-15.32,14.41-21.79,20.59,22.89-10.53,33.32-6,48.79-8.05-11.56,7-8.11,13.94-33.44,17,9.14,2.35,17,8.86,26.17,11.21-13.58,2.3-19.06,6.41-36.86,3.5,6.14,3.32,8.4,10,14.54,13.36-15,3.26-29.63,6.22-45.1,6.09-9.74-.08-19.46-1.17-29.2-1.3-7.05-.1-14.23,1.35-21.24,2.18,2.65,1.86,5.53,4.69,8.58,5.8,4.21,1.53,9.66,1.59,14.09,2.32,8.14,1.34,16.55.12,24.8-.08a196.31,196.31,0,0,1,24.31,1.37c7,.72,14,4.18,20.63,6.47-7.22,2.3-19.58.35-21.66,6.89L574.9,257c-8.73,0-18.6-3.18-26.19.06,4.18,12.72,12.29,15.14,22.06,24.81-13.85-4.26-22.3-11.09-36.15-15.35-2.22,9.33,10.65,18.93,14.85,27.42-9.82-7-20-9.12-29.85-16.08-1.85,3.9-.24,9.82,2,16.09-14.62-1.45-27.45-23.41-29.88-29.06-2.88-6.71-5-15.61-9.33-21.51s-11.87-10.93-17.34-16c-1.26,7.7-3.73,16-3.87,23.74-.11,6.11,2.3,12.46,3.1,18.55,1.06,8.14,2.53,17.07,2.36,25.28-.14,7.16-2.08,14.66-3.1,21.78-3.92-6.63-4.7-15-11.76-19.89.88,14.9-8.08,23.47-12.12,35.2-.62-8.87.64-19.49-1.87-26.62-12.15,3.83-11.75,25.5-22.67,35,1.2-11.4,3.85-25.59,2-35.31-6.88,9.84-16.82,8.54-25.23,12.8L412.63,290l-19.17,5.82c9.36-12,17.87-23.81,29.31-33.93,5.08-4.49,10.33-8.68,14.65-13.86l16.52-19.82c-5.4,3.11-11.79,5.8-16.51,9.8-5.65,4.79-10.54,10.91-15.67,16.21l-35,36.18,6.14-18.7c-7.71-2.57-22.47,9.24-33.7,13.86,5.28-6.19,10.77-15,16-21.16-13-1.21-28.59,7.58-42.77,10.07,10.52-7.69,20.4-19.4,31.56-23.06-4.45-4.33-18.41-6.24-27.64-7.5,13.68-3,24.14-6.59,38.84-6.2-2.66-5.5-11-8.78-17.41-11.6,15.61-3.73,31.27-4.93,47.35-4.76,17,.18,33.68-.72,50.7-1.82"/><path class="cls-9" d="M455.9,219.58c-4.4-4.35-8.44-10.16-14.32-12.5-9.67-3.84-19.42-7.53-29.13-11.3-6.42-2.49-12.27-5.72-18.35-8.93-7.15-3.77-13.2-5.26-19-11,6.24.86,14.19-.91,20.43,0-.93-10-14.37-16.3-23.82-25.14,7.64,3.22,20.91,2.67,28.55,5.89.39-13.08-13.42-25.16-17.73-36.5,9.93,7.06,22.72,21.29,32.65,28.35-7.36-11.39-2.8-21.61.27-29,5.55,9.82,6.58,25.45,16.65,29.45,4.11-3,2.59-11.59,3.89-17.39,3.64,5.9,8.84,12.07,11.3,18.51,2.64,6.89,3.79,15.57,4.68,22.91s1.3,14.45,3,21.57c1.82,7.75,5,13.8,8.64,20.93.77-4,2.1-8.09,2.37-12.09.2-3-.77-5.42-1.69-8.42-1.79-5.88-3.67-11.71-5.11-17.68l-11.66-48.5,13.89,13.74c5.53-5.67,1.5-16.58,2.58-29.94,2.3,7.39,9.58,12.07,11.88,19.47,0-28,12.28-25.6,18.43-38.4.58,11.59-6.62,26.08-1.67,38,4.65-15,15.27-13.49,21.2-18.64-3,10-15.61,22.25-13.08,31.91,7.12,3.19,15.92-8.26,21.83-11.46-6.06,14.59-11.64,29.4-22,41.87-5,6-12.17,10.37-17.15,16.42-4.42,5.37-7.34,12.59-10.75,18.64,3.08-1.12,7-1.9,9.77-3.65,3-1.94,5.68-5.43,8.28-7.91,5.37-5.14,10.87-10.18,16.08-15.48,6.39-6.51,12.34-14.12,19.37-20,5.66-4.71,12.68-8.33,18.87-12.37-2.51,6.57-9.21,13.78-7.52,19.7,15.23-16.53,22.31-10.18,33.47-15.27-6.47,6.18-15.32,14.41-21.79,20.59,22.89-10.53,33.32-6,48.79-8.05-11.56,7-8.11,13.94-33.44,17,9.14,2.35,17,8.86,26.17,11.21-13.58,2.3-19.06,6.41-36.86,3.5,6.14,3.32,8.4,10,14.54,13.36-15,3.26-29.63,6.22-45.1,6.09-9.74-.08-19.46-1.17-29.2-1.3-7.05-.1-14.23,1.35-21.24,2.18,2.65,1.86,5.53,4.69,8.58,5.8,4.21,1.53,9.66,1.59,14.09,2.32,8.14,1.34,16.55.12,24.8-.08a196.31,196.31,0,0,1,24.31,1.37c7,.72,14,4.18,20.63,6.47-7.22,2.3-19.58.35-21.66,6.89L574.9,257c-8.73,0-18.6-3.18-26.19.06,4.18,12.72,12.29,15.14,22.06,24.81-13.85-4.26-22.3-11.09-36.15-15.35-2.22,9.33,10.65,18.93,14.85,27.42-9.82-7-20-9.12-29.85-16.08-1.85,3.9-.24,9.82,2,16.09-14.62-1.45-27.45-23.41-29.88-29.06-2.88-6.71-5-15.61-9.33-21.51s-11.87-10.93-17.34-16c-1.26,7.7-3.73,16-3.87,23.74-.11,6.11,2.3,12.46,3.1,18.55,1.06,8.14,2.53,17.07,2.36,25.28-.14,7.16-2.08,14.66-3.1,21.78-3.92-6.63-4.7-15-11.76-19.89.88,14.9-8.08,23.47-12.12,35.2-.62-8.87.64-19.49-1.87-26.62-12.15,3.83-11.75,25.5-22.67,35,1.2-11.4,3.85-25.59,2-35.31-6.88,9.84-16.82,8.54-25.23,12.8L412.63,290l-19.17,5.82c9.36-12,17.87-23.81,29.31-33.93,5.08-4.49,10.33-8.68,14.65-13.86l16.52-19.82c-5.4,3.11-11.79,5.8-16.51,9.8-5.65,4.79-10.54,10.91-15.67,16.21l-35,36.18,6.14-18.7c-7.71-2.57-22.47,9.24-33.7,13.86,5.28-6.19,10.77-15,16-21.16-13-1.21-28.59,7.58-42.77,10.07,10.52-7.69,20.4-19.4,31.56-23.06-4.45-4.33-18.41-6.24-27.64-7.5,13.68-3,24.14-6.59,38.84-6.2-2.66-5.5-11-8.78-17.41-11.6,15.61-3.73,31.27-4.93,47.35-4.76C422.24,221.58,438.89,220.68,455.9,219.58Z"/><path class="cls-10" d="M519.5,204.4c1.11-7.42,17.44-9.19,26.16-13.79-7.15.28-21.4.57-27.88,5.42-2.13-4.23,10.88-9.95,13.12-12.64l-17.12,2.73c7.45-4,4.85-8,6.93-12.55-7.91,8.34-15.28,16.25-24.4,23.95-2.83,2.39-5.14,6.44-8.19,8.61-2.36,1.67-4.17,4.37-15.36,7.19-1.78.45-3.73-2.05-2.95-3.71,1.63-3.49,3.05-5.82,4.56-9.15a54.93,54.93,0,0,1,8.78-13,272.18,272.18,0,0,0,18.48-20.79L488,176.16l8.13-21.46c-4.12,5-7.29,11.59-12.36,14.85-2.56-9.39,1.28-19.17,1.92-28.76-3.58,6.06-8.95,9.88-10.75,19.74-4.61-2.11-2.3-8-3.46-11.27-2.26,5.19-1.44,12.76-6.77,15.57l-7.07-12.94a299.44,299.44,0,0,0,7.7,33.27c1,3.5,3.45,11.09,3.71,14.73a45.09,45.09,0,0,1-2.76,17.26c-.24.57-2.12,1.4-2.12,1.4A2.17,2.17,0,0,1,462,218c-1.63-2.69-3.43-5.43-4.5-7.06-1.67-2.55-2.44-5.18-3.68-8a55.28,55.28,0,0,1-3.8-14c-1.23-9.17-3.7-18-5.88-27-.4,5.41,2.3,14.09-1.2,16.23-4.46-2.34-3.35-9.39-7.29-15.91,1.28,6.2-2,8.75-.68,14.95-7.31-.35-9.08-10.39-16.29-16.89,2.52,6.49-.3,10.39,2.22,16.88-3.32-1.16-10.37-2.85-13.69-4,2.67,4.95,14.16,8,11.75,15.38l-14.33-3.11c8.93,6.23,20.3,10.88,30.89,15.38,3.42,1.45,8,2.41,10.95,4.67,7.43,5.72,11,10.07,12.93,13a2,2,0,0,1-1.43,3,89.59,89.59,0,0,0-10.8,1.68c-3,.91-5.84.42-9,.88a75.47,75.47,0,0,1-15.76.26c-9.08-1-17.66,1.44-26.86,1.13,5.24,1.79,15.18.19,15.1,2.77,0,1.42-23,5.9-23,5.9s24.24.11,19.49,1.28c-6.93,1.71-25.1,15.13-25.1,15.13s23.63-9.61,23.35-5.06c-.07,1.08-8.2,11.5-8.2,11.5,5.65-1.2,11.14-9.13,16.45-5.93.43,4.88-3.3,7-5.14,11.68,6.42-6.65,13.78-13.65,21.23-22.38a68.2,68.2,0,0,1,9-8.25c2.06-1.63,9.42-4.84,15.17-7,1.8-.66,3.35,2.85,3.09,3.39-1.34,2.76-5.42,7-7.18,9.55-2.56,3.67-5.92,6.52-8.82,10.52-5.79,8-7.8,7.67-14.47,14.35,4.91-2.61,5.2-3.32,8.92-4-4.77,3.84-5.94,11.79-9.54,18.57,4.71-4.42,8.56-12.18,12.89-11.5,2.28,6.43-3.71,18.9-5.56,28.35,5.73-5.23,11.33-10.49,12.95-16.79,2.87,1.69,1.48,6.71,2.22,10.07,2.9-4.89,3.15-15.26,7-17.16,2.93,2.29,3.39,6.26,5.7,10.65.66-10.77-1.24-14.87-2.9-26-.54-3.59,0-8,.24-11.65.19-3.41,3-11,3.49-16.77.21-2.31,3.53-2.91,5.39-1.53.86.63,10.23,7.07,12.18,9.43,2.82,3.43,6,6.59,7.76,10.67,3.64,8.52,5.64,10.38,10.15,18.49.6-9.32-1.34-8-.88-11.07,6.78,2,4.44,5.27,10,10.55-2.9-5.65,1-6.25.35-10.35,9.37.42,1.24,7.84,23.47,12.49-4.17-5.61-17.42-13.13-17.73-18.67,5.58,3.59,10.9,3.2,14.42,3.48-3.91-4.09-14.66-6.72-15.91-12.94,7.5,3,13.32-3.76,18.35-4.65-11.46-1.66-21.61,1.14-33.08-.53a105.86,105.86,0,0,1-14.79-3.34c-3.31-1.16-6.44-3.18-10.69-6.76-1.18-1-1.77-3.57-.4-4.3,2.82-1.5,4.07-1.36,6.71-1.81,3.08-.52,6.88-1.11,10-1.39,4.53-.4,11.34-.85,15.81,0,9.34,1.74,19.41-.83,28.89,0-5.13-2.06-10.87-1-16-3.1a45.71,45.71,0,0,0,23.86-7.26Z"/><path class="cls-6" d="M110.78,381.12s19.53,4.94,10.1,16.21-18.07-6.52-18.07-6.52Z"/><path class="cls-7" d="M110.78,381.12s19.53,4.94,10.1,16.21-18.07-6.52-18.07-6.52Z"/><path class="cls-8" d="M99.73,382.8c-4.42-1.5-9.09-4.12-13.85-3.77-7.84.58-15.68,1.29-23.51,1.94A131.78,131.78,0,0,1,47,381c-6.1-.2-10.7.78-16.49-1.18,4.52-1.47,9.34-5.3,13.86-6.77-3.94-6.51-15.14-6.33-24.47-9.22,6.25-.33,15.08-5.09,21.33-5.42-4.05-9-17.42-12.66-24.09-18.95,9.07,1.52,22.46,7,31.53,8.49-8.76-5.31-9-13.75-9.39-19.79,7,4.84,12.87,15.12,21,14.51,1.79-3.41-2.06-8.73-3.1-13.1,4.42,2.81,10,5.29,13.78,8.85,4.06,3.81,7.71,9.32,10.74,14s5.65,9.38,9.13,13.67c3.79,4.66,7.93,7.74,12.78,11.36-.78-2.94-1.25-6.19-2.38-9-.86-2.13-2.31-3.42-3.92-5.17-3.15-3.4-6.36-6.74-9.31-10.32l-23.92-29.1,14,4.75c1.88-5.68-4.45-11.75-8.13-21.19,4,4.26,10.49,5,14.49,9.3-9.28-19-.1-21.44-.15-32.17,4.22,7.68,4.11,19.9,11.39,26.33-1.81-11.75,5.92-14.2,8.25-19.65,1.27,7.79-3.26,20.27,1.64,26,5.89-.18,8.09-10.86,11-15,.7,11.91,1.79,23.81-1.1,35.69-1.4,5.75-4.84,11.06-6.23,16.81-1.23,5.11-.83,11-1.16,16.21,1.72-1.77,4.14-3.61,5.43-5.71,1.43-2.33,2.07-5.56,3-8.11,2-5.26,4-10.5,5.81-15.82,2.2-6.53,3.72-13.66,6.57-20,2.29-5.06,5.86-9.84,8.74-14.63.46,5.29-1.71,12.4,1.39,15.86,4.89-16.25,11.79-14.28,17.69-21.42-2.35,6.34-5.65,14.84-8,21.18,12.07-14.7,20.64-15.1,30.48-21.57-5.53,8.6-.91,12.14-17.11,22.57,7-1.42,14.49.4,21.48-1-8.47,6-10.83,10.64-23.88,14.54,5.27.23,9,4,14.28,4.28-9.12,7.17-18.08,14-28.62,19-6.64,3.16-13.61,5.63-20.27,8.75-4.82,2.26-9.22,5.61-13.71,8.49,2.42.39,5.3,1.36,7.74,1.11,3.37-.35,7.09-2.11,10.34-3.07,6-1.78,11.28-5.38,16.82-8.24a148,148,0,0,1,17-7.09c5-1.83,10.87-1.77,16.15-2.41-4.15,3.94-13.19,6.7-12.44,11.83l26-.55c-5.92,2.89-13.68,4-17.77,8.68,7,7.26,13.34,6.23,23.17,9.57-10.82,1.68-18.81-.18-29.62,1.5,1.57,7.07,13.48,9.35,19.14,13.73-9-1.49-16.61.41-25.58-1.08,0,3.26,3.08,6.75,6.64,10.29-10.41,3.84-26.37-6.84-29.89-9.88-4.17-3.61-8.56-8.95-13.44-11.53s-11.67-3.51-17.05-5.13c1.69,5.64,2.74,12.08,5.2,17.4,1.94,4.19,5.68,7.71,8.22,11.58,3.41,5.18,7.35,10.76,9.95,16.39,2.27,4.91,3.43,10.65,5.08,15.82-4.85-3.21-8.14-8.63-14.56-9.63,5.51,9.83,2.25,18.61,3.38,27.91-3.35-5.82-6-13.45-10.05-17.47-7,6.61.43,21.2-3.87,31.23-2.94-8.14-5.83-18.66-10.27-24.65-1.43,9-8.61,11.35-12.91,17l4.88-25.77-11.1,10.28c2.41-11.22,4.28-22.07,8.71-32.72,2-4.73,4.15-9.3,5.38-14.25l4.68-18.91c-2.64,3.89-6.09,7.83-8,12.11C91,406.56,89.72,412.33,88,417.63L76.17,453.74l-2-14.73c-6.09.8-12.22,13.69-18.32,20.54,1.54-5.94,2.38-13.73,3.92-19.67-9.24,3.48-16.92,14.58-25.73,21,4.61-8.69,7.46-19.91,13.83-26.08-4.45-1.47-14.56,1.84-21.25,4,8.3-6.54,14.22-12.44,24.34-17-3.62-2.86-10.36-2.34-15.65-2.13a146,146,0,0,1,30.6-18.86c11.62-5.5,22.64-11.61,33.84-18"/><path class="cls-9" d="M99.73,382.8c-4.42-1.5-9.09-4.12-13.85-3.77-7.84.58-15.68,1.29-23.51,1.94A131.78,131.78,0,0,1,47,381c-6.1-.2-10.7.78-16.49-1.18,4.52-1.47,9.34-5.3,13.86-6.77-3.94-6.51-15.14-6.33-24.47-9.22,6.25-.33,15.08-5.09,21.33-5.42-4.05-9-17.42-12.66-24.09-18.95,9.07,1.52,22.46,7,31.53,8.49-8.76-5.31-9-13.75-9.39-19.79,7,4.84,12.87,15.12,21,14.51,1.79-3.41-2.06-8.73-3.1-13.1,4.42,2.81,10,5.29,13.78,8.85,4.06,3.81,7.71,9.32,10.74,14s5.65,9.38,9.13,13.67c3.79,4.66,7.93,7.74,12.78,11.36-.78-2.94-1.25-6.19-2.38-9-.86-2.13-2.31-3.42-3.92-5.17-3.15-3.4-6.36-6.74-9.31-10.32l-23.92-29.1,14,4.75c1.88-5.68-4.45-11.75-8.13-21.19,4,4.26,10.49,5,14.49,9.3-9.28-19-.1-21.44-.15-32.17,4.22,7.68,4.11,19.9,11.39,26.33-1.81-11.75,5.92-14.2,8.25-19.65,1.27,7.79-3.26,20.27,1.64,26,5.89-.18,8.09-10.86,11-15,.7,11.91,1.79,23.81-1.1,35.69-1.4,5.75-4.84,11.06-6.23,16.81-1.23,5.11-.83,11-1.16,16.21,1.72-1.77,4.14-3.61,5.43-5.71,1.43-2.33,2.07-5.56,3-8.11,2-5.26,4-10.5,5.81-15.82,2.2-6.53,3.72-13.66,6.57-20,2.29-5.06,5.86-9.84,8.74-14.63.46,5.29-1.71,12.4,1.39,15.86,4.89-16.25,11.79-14.28,17.69-21.42-2.35,6.34-5.65,14.84-8,21.18,12.07-14.7,20.64-15.1,30.48-21.57-5.53,8.6-.91,12.14-17.11,22.57,7-1.42,14.49.4,21.48-1-8.47,6-10.83,10.64-23.88,14.54,5.27.23,9,4,14.28,4.28-9.12,7.17-18.08,14-28.62,19-6.64,3.16-13.61,5.63-20.27,8.75-4.82,2.26-9.22,5.61-13.71,8.49,2.42.39,5.3,1.36,7.74,1.11,3.37-.35,7.09-2.11,10.34-3.07,6-1.78,11.28-5.38,16.82-8.24a148,148,0,0,1,17-7.09c5-1.83,10.87-1.77,16.15-2.41-4.15,3.94-13.19,6.7-12.44,11.83l26-.55c-5.92,2.89-13.68,4-17.77,8.68,7,7.26,13.34,6.23,23.17,9.57-10.82,1.68-18.81-.18-29.62,1.5,1.57,7.07,13.48,9.35,19.14,13.73-9-1.49-16.61.41-25.58-1.08,0,3.26,3.08,6.75,6.64,10.29-10.41,3.84-26.37-6.84-29.89-9.88-4.17-3.61-8.56-8.95-13.44-11.53s-11.67-3.51-17.05-5.13c1.69,5.64,2.74,12.08,5.2,17.4,1.94,4.19,5.68,7.71,8.22,11.58,3.41,5.18,7.35,10.76,9.95,16.39,2.27,4.91,3.43,10.65,5.08,15.82-4.85-3.21-8.14-8.63-14.56-9.63,5.51,9.83,2.25,18.61,3.38,27.91-3.35-5.82-6-13.45-10.05-17.47-7,6.61.43,21.2-3.87,31.23-2.94-8.14-5.83-18.66-10.27-24.65-1.43,9-8.61,11.35-12.91,17l4.88-25.77-11.1,10.28c2.41-11.22,4.28-22.07,8.71-32.72,2-4.73,4.15-9.3,5.38-14.25l4.68-18.91c-2.64,3.89-6.09,7.83-8,12.11C91,406.56,89.72,412.33,88,417.63L76.17,453.74l-2-14.73c-6.09.8-12.22,13.69-18.32,20.54,1.54-5.94,2.38-13.73,3.92-19.67-9.24,3.48-16.92,14.58-25.73,21,4.61-8.69,7.46-19.91,13.83-26.08-4.45-1.47-14.56,1.84-21.25,4,8.3-6.54,14.22-12.44,24.34-17-3.62-2.86-10.36-2.34-15.65-2.13a146,146,0,0,1,30.6-18.86C77.52,395.27,88.54,389.16,99.73,382.8Z"/><path class="cls-10" d="M137.93,351.51c-1.7-5.4,8.81-12,13.22-18-4.77,2.55-14.35,7.45-17.15,12.88-2.84-2.17,4.11-10.35,4.74-12.91L128,341c3.73-5.19.65-7,.57-10.82-2.62,8.27-5,16.08-8.68,24.32-1.14,2.56-1.36,6.07-2.73,8.55-1,1.91-1.39,4.34-8.06,9.95-1.06.89-3.21-.16-3.23-1.55,0-2.91.15-5,.08-7.72A41.51,41.51,0,0,1,107.63,352a205.34,205.34,0,0,0,5.69-20.22l-6.12,11-1.56-17.26c-1.17,4.72-1.13,10.28-3.5,14.17-4.84-5.53-5.46-13.45-8.19-20.17-.43,5.3-2.82,9.66-.79,17-3.83.09-4.21-4.69-6.07-6.51.18,4.27,3.23,9.14.54,12.81l-9.07-6.46a226.14,226.14,0,0,0,16.21,20.06c1.83,2,6,6.39,7.38,8.78A34.07,34.07,0,0,1,106,377.74c0,.47-1,1.65-1,1.65a1.64,1.64,0,0,1-1.67.35c-2-1.29-4.12-2.56-5.39-3.31a39.85,39.85,0,0,1-5.12-4.19A41.74,41.74,0,0,1,85.63,364c-3.86-5.82-8.47-11-12.92-16.43,1.51,3.81,6.22,8.81,4.54,11.42-3.8-.12-5.37-5.28-10.2-8.4C70,354.39,68.6,357.2,71.52,361c-5.08,2.17-9.6-4.07-16.63-6.1,3.85,3.58,3.22,7.16,7.07,10.73-2.64.31-8,1.49-10.62,1.79,3.45,2.48,12.24.73,13.06,6.57L53.63,376.6c8.12,1.28,17.38.7,26.06.26,2.8-.14,6.24-1,9-.44,6.93,1.44,10.8,3.2,13.08,4.58a1.47,1.47,0,0,1,0,2.51,67.81,67.81,0,0,0-6.78,4.7c-1.76,1.62-3.83,2.21-5.81,3.56a57,57,0,0,1-10.62,5.37c-6.49,2.34-11.52,6.8-17.88,9.63,4.15-.51,10.38-4.88,11.17-3.1.44,1-13.67,11.6-13.67,11.6s16.5-7.92,13.67-5.56c-4.14,3.45-12.06,18.56-12.06,18.56S72.68,413.94,74,417.12c.31.75-1.77,10.52-1.77,10.52,3.44-2.68,4.55-9.88,9.21-9.46,1.9,3.17.08,5.87.36,9.63,2.17-6.63,4.86-13.82,7-22.2A51.48,51.48,0,0,1,92.2,397c.86-1.79,4.8-6.4,8-9.73,1-1,3.22.83,3.22,1.28,0,2.32-1.37,6.56-1.73,8.86-.52,3.34-1.87,6.39-2.52,10.05-1.3,7.32-2.77,7.79-5.09,14.52,2.47-3.4,2.44-4,4.74-5.67-2,4.18-.15,10-.35,15.76,1.74-4.56,1.79-11.1,5-12.06,3.67,3.61,3.72,14.06,5.58,21.09,2.17-5.44,4.23-10.86,3.26-15.68,2.51.2,3.22,4.07,4.83,6.11.36-4.27-2.89-11.41-.89-14,2.75.59,4.36,3.13,7.39,5.35-3.1-7.54-5.75-9.69-10.56-16.72-1.55-2.27-2.62-5.45-3.69-8-1-2.38-1.6-8.44-3.16-12.55-.62-1.64,1.44-3.14,3.16-2.82.79.15,9.28,1.43,11.39,2.39,3,1.4,6.26,2.49,8.79,4.68,5.29,4.59,7.25,5.19,13,9.21-2.67-6.53-3.56-5-4.25-7.23,5.26-.88,4.75,2.11,10.27,3.87-3.83-2.88-1.35-4.59-3.18-7.14,6.51-2.8,3.43,4.91,20.06.74-4.68-2.44-16.17-3.17-18.2-6.83,5,.6,8.46-1.42,10.94-2.4-4-1.49-12.18.27-15.08-3.54,6.09-.43,7.81-7,10.93-9.21-8.34,2.65-14.31,7.9-22.64,10.56a80.09,80.09,0,0,1-11.15,2.62c-2.63.3-5.42,0-9.49-1.07-1.13-.29-2.38-1.84-1.69-2.79,1.42-1.95,2.31-2.27,4-3.44,1.92-1.37,4.31-3,6.34-4.24,2.94-1.76,7.42-4.32,10.73-5.23,6.92-1.9,12.91-7,19.62-9.55-4.17.29-7.73,2.88-11.9,3.17a34.52,34.52,0,0,0,13.81-12.8Z"/><path class="cls-6" d="M136.95,544.29s26.5-18.2,30.1,5.09c3.56,23.06-26.86,14.77-26.86,14.77Z"/><path class="cls-7" d="M136.95,544.29s26.5-18.2,30.1,5.09c3.56,23.06-26.86,14.77-26.86,14.77Z"/><path class="cls-8" d="M134.33,544.43c-5.12-2-11.73-2-15.37-6.12-11.53-13.17-31.82-21.66-36.56-23.55,2.4,2.89,5.52,9.25,7.92,12.14-18.36-10.71-31.14,3-38.46,1.19,3.61,3.65,23.72.66,27.33,4.31-7.42.63-8.77,3.54-16.19,4.17,7.59,3,30.15.25,34,6.27-12.65-.2-33.69,6.43-39.66,7.92,12,4.66,19.26.78,26.7,2.64-4.3,5.84-17.31,5.27-23.64,8.26,6.08.76,10.77,3.59,22.13,1.36-7.67,4.67-17.67,12.06-25.34,16.73,9.69-1.66,36-16.19,46.76-13.17-4.63,3.67-28,16-32.59,19.66C75,586,82,586.78,86.16,584c.34,7.85-11.2,11.67-17.52,13.21,2.29.11,11.69,1,14.34,1l-10.88,14c3.43-1.38,14.54-9,20.6-16.1-.47,1.81-7.94,19.73-8.41,21.54,2.93-2,12.82-18.7,22-20.49-4.43,6.31-5.43,20.2-6.57,23.12,3-3.17,21.27-28,23.25-33.09,2.25-5.77,4.21-10.88,7.53-16.05,1.68-2.62,2.17-3.54,4.85-4.85,2-1,4.92-1.58,5.39-3.53.71-3-.92-8.17-1.27-11.21l-1-8.71-4.16,1.54"/><path class="cls-14" d="M134.33,544.43c-5.12-2-11.73-2-15.37-6.12-11.53-13.17-31.82-21.66-36.56-23.55,2.4,2.89,5.52,9.25,7.92,12.14-18.36-10.71-31.14,3-38.46,1.19,3.61,3.65,23.72.66,27.33,4.31-7.42.63-8.77,3.54-16.19,4.17,7.59,3,30.15.25,34,6.27-12.65-.2-33.69,6.43-39.66,7.92,12,4.66,19.26.78,26.7,2.64-4.3,5.84-17.31,5.27-23.64,8.26,6.08.76,10.77,3.59,22.13,1.36-7.67,4.67-17.67,12.06-25.34,16.73,9.69-1.66,36-16.19,46.76-13.17-4.63,3.67-28,16-32.59,19.66C75,586,82,586.78,86.16,584c.34,7.85-11.2,11.67-17.52,13.21,2.29.11,11.69,1,14.34,1l-10.88,14c3.43-1.38,14.54-9,20.6-16.1-.47,1.81-7.94,19.73-8.41,21.54,2.93-2,12.82-18.7,22-20.49-4.43,6.31-5.43,20.2-6.57,23.12,3-3.17,21.27-28,23.25-33.09,2.25-5.77,4.21-10.88,7.53-16.05,1.68-2.62,2.17-3.54,4.85-4.85,2-1,4.92-1.58,5.39-3.53.71-3-.92-8.17-1.27-11.21l-1-8.71Z"/><path class="cls-10" d="M136.28,548.77c-2.35-2.93-15.19-3.64-17.8-6.95-3-3.85-13.28-11.73-18-15.42,1.73,3.26.13,2,1.86,5.29-2.3,1.39-7.08-5.18-6.75-3.62a12.93,12.93,0,0,0,4.21,7.27s-14.2-2.62-11.3-1.2c5.86,2.86,12.16,3.87,14.81,5.46,2.33,1.4,1.18,3.57,3.44,3.44,5-.29,18.11,5.7,24.23,8.72-10.11-3.31-17.38-7.05-29.31-7.35l6.17,4.32c-2.11,3.8-10.08-2.19-16.81-1.19,1.63,1.88,8.3,3.19,9.93,5.06-3.55,1-10.73,3.26-14.27,4.3,4.77.84,6.33,1.68,11.72.64-3.73,1.94-6.27,5.16-10,7.1,7.27-1.52,18.29-7.28,20.53-6.65-.79,1.21-1.67,5.08-2.46,6.29,17.38-13,18.57-5,27.3-8.71-1.83,1.21-6.94,5.48-12.89,5.66-7.47.22-12.93,6.68-17.46,9.4,3.67-.53,6.09.44,9.76-.09a15.52,15.52,0,0,1-4.78,4.84c-2.57,1.76-5.94,2.81-8.76,4.14,2.41.23,4.76,1.77,8,.29,1.13,1.33-4.74,6.6-6.74,9.69,4.1-2.58,8.32-3.74,12.58-9.41.33,3.5-3.42,9.37-5,13.21,4.49-5.9,7.23-7,10.63-17.85,2.15.42.74,6.13.91,7.51,4.18-6.82,13.61-19.83,17.25-23.86,0,0,.27-5.48.24-5.48-1.22-.35,0-4.46-1.23-4.84"/><path class="cls-11" d="M561.83,279.17c-10.7,10.8-23.95,15.07-29.58,9.54s-1.53-18.76,9.17-29.55c9-9,28.78-14.77,35-16.39a1.18,1.18,0,0,1,1.43,1.41c-1.54,6.17-7,26-16,35"/><path class="cls-7" d="M561.83,279.17c-10.7,10.8-23.95,15.07-29.58,9.54s-1.53-18.76,9.17-29.55c9-9,28.78-14.77,35-16.39a1.18,1.18,0,0,1,1.43,1.41C576.28,250.34,570.8,270.12,561.83,279.17Z"/><path class="cls-12" d="M554.84,281.53c-8.23,8.3-18.41,11.58-22.75,7.33s-1.17-14.42,7.05-22.72c6.9-7,22.13-11.36,26.88-12.6a.91.91,0,0,1,1.1,1.08c-1.18,4.75-5.4,20-12.29,26.91"/><path class="cls-13" d="M545.62,284.5c-4.89,4.94-11,6.89-13.53,4.36s-.7-8.58,4.2-13.52c4.1-4.14,13.16-6.76,16-7.5a.54.54,0,0,1,.66.64c-.7,2.82-3.21,11.87-7.31,16"/><path class="cls-11" d="M538,283.9c-6.09,13.91-16.91,22.64-24.16,19.5s-8.19-17-2.1-30.86c5.1-11.66,21.53-24.1,26.71-27.83a1.18,1.18,0,0,1,1.85.8c.79,6.31,2.81,26.74-2.29,38.39"/><path class="cls-7" d="M538,283.9c-6.09,13.91-16.91,22.64-24.16,19.5s-8.19-17-2.1-30.86c5.1-11.66,21.53-24.1,26.71-27.83a1.18,1.18,0,0,1,1.85.8C541,251.82,543.06,272.25,538,283.9Z"/><path class="cls-12" d="M532.28,288.61c-4.69,10.69-13,17.41-18.58,15s-6.3-13-1.61-23.73c3.93-9,16.55-18.53,20.54-21.39a.91.91,0,0,1,1.42.61c.61,4.85,2.16,20.56-1.76,29.52"/><path class="cls-13" d="M524.75,294.68C522,301,517,305,513.7,303.6s-3.75-7.76-1-14.12c2.33-5.33,9.84-11,12.22-12.72a.54.54,0,0,1,.84.36c.36,2.89,1.28,12.23-1,17.56"/><path class="cls-11" d="M517.77,296c-4.74,14.42-14.68,24.14-22.19,21.7s-9.77-16.1-5-30.53c4-12.09,19.13-26,23.94-30.23a1.18,1.18,0,0,1,1.91.62c1.39,6.21,5.35,26.35,1.38,38.43"/><path class="cls-7" d="M517.77,296c-4.74,14.42-14.68,24.14-22.19,21.7s-9.77-16.1-5-30.53c4-12.09,19.13-26,23.94-30.23a1.18,1.18,0,0,1,1.91.62C517.78,263.74,521.74,283.88,517.77,296Z"/><path class="cls-12" d="M512.57,301.19c-3.64,11.09-11.28,18.56-17.06,16.69s-7.51-12.38-3.87-23.47c3.05-9.29,14.71-20,18.4-23.24a.91.91,0,0,1,1.47.48c1.07,4.78,4.11,20.26,1.06,29.55"/><path class="cls-13" d="M505.65,308c-2.17,6.6-6.71,11-10.15,9.93s-4.47-7.36-2.3-14c1.82-5.53,8.75-11.9,10.95-13.82a.54.54,0,0,1,.88.28c.63,2.84,2.45,12,.63,17.58"/><path class="cls-11" d="M546.69,305.13c-14.16,5.59-28,4.19-30.93-3.13s6.17-17.79,20.33-23.38c11.86-4.68,32.31-2,38.63-1a1.17,1.17,0,0,1,.74,1.86c-3.9,5-16.91,20.95-28.77,25.63"/><path class="cls-7" d="M546.69,305.13c-14.16,5.59-28,4.19-30.93-3.13s6.17-17.79,20.33-23.38c11.86-4.68,32.31-2,38.63-1a1.17,1.17,0,0,1,.74,1.86C571.56,284.54,558.56,300.45,546.69,305.13Z"/><path class="cls-12" d="M539.34,304.49c-10.88,4.3-21.53,3.22-23.78-2.41s4.75-13.67,15.63-18c9.12-3.6,24.84-1.52,29.7-.76a.9.9,0,0,1,.57,1.43c-3,3.87-13,16.1-22.12,19.71"/><path class="cls-13" d="M529.7,303.51c-6.47,2.56-12.81,1.92-14.15-1.43s2.82-8.13,9.3-10.69c5.43-2.14,14.78-.91,17.66-.45a.54.54,0,0,1,.34.85c-1.78,2.3-7.73,9.58-13.15,11.72"/><path class="cls-11" d="M522.34,326.13c-15,2.73-28.29-1.34-29.72-9.09s9.54-16.24,24.52-19c12.55-2.29,32.08,4.34,38.08,6.55a1.17,1.17,0,0,1,.37,2c-4.81,4.18-20.68,17.25-33.23,19.54"/><path class="cls-7" d="M522.34,326.13c-15,2.73-28.29-1.34-29.72-9.09s9.54-16.24,24.52-19c12.55-2.29,32.08,4.34,38.08,6.55a1.17,1.17,0,0,1,.37,2C550.76,310.77,534.89,323.85,522.34,326.13Z"/><path class="cls-12" d="M515.25,324.07c-11.52,2.1-21.75-1-22.85-7s7.33-12.49,18.85-14.59c9.65-1.76,24.66,3.34,29.28,5a.9.9,0,0,1,.28,1.51c-3.7,3.21-15.9,13.27-25.55,15"/><path class="cls-13" d="M506,321.24c-6.85,1.25-12.94-.61-13.59-4.16s4.36-7.43,11.21-8.67c5.74-1,14.67,2,17.41,3a.54.54,0,0,1,.17.9c-2.2,1.91-9.46,7.89-15.2,8.94"/><path class="cls-11" d="M494,317.13c-4.74,14.42-14.68,24.14-22.19,21.7s-9.77-16.1-5-30.53c4-12.09,19.13-26,23.94-30.23a1.18,1.18,0,0,1,1.91.62C494,284.91,498,305,494,317.13"/><path class="cls-7" d="M494,317.13c-4.74,14.42-14.68,24.14-22.19,21.7s-9.77-16.1-5-30.53c4-12.09,19.13-26,23.94-30.23a1.18,1.18,0,0,1,1.91.62C494,284.91,498,305,494,317.13Z"/><path class="cls-12" d="M488.79,322.36c-3.64,11.09-11.28,18.56-17.06,16.69s-7.51-12.38-3.87-23.47c3.05-9.29,14.71-20,18.4-23.24a.91.91,0,0,1,1.47.48c1.07,4.78,4.11,20.26,1.06,29.55"/><path class="cls-13" d="M481.87,329.12c-2.17,6.6-6.71,11-10.15,9.93s-4.47-7.36-2.3-14c1.82-5.53,8.75-11.9,10.95-13.82a.54.54,0,0,1,.88.28c.63,2.84,2.45,12,.63,17.58"/><path class="cls-11" d="M505,345.91c-15.16,1.45-28.07-3.73-28.84-11.58s10.89-15.37,26-16.82c12.7-1.21,31.59,7,37.38,9.76a1.17,1.17,0,0,1,.2,2C534.66,333,517.73,344.7,505,345.91"/><path class="cls-7" d="M505,345.91c-15.16,1.45-28.07-3.73-28.84-11.58s10.89-15.37,26-16.82c12.7-1.21,31.59,7,37.38,9.76a1.17,1.17,0,0,1,.2,2C534.66,333,517.73,344.7,505,345.91Z"/><path class="cls-12" d="M498.15,343.26c-11.65,1.11-21.58-2.87-22.17-8.9s8.37-11.82,20-12.93c9.76-.93,24.29,5.42,28.74,7.5a.9.9,0,0,1,.15,1.54c-4,2.89-17,11.87-26.74,12.8"/><path class="cls-13" d="M489.16,339.65c-6.93.66-12.84-1.71-13.19-5.29s5-7,11.91-7.69c5.81-.56,14.45,3.22,17.09,4.46a.54.54,0,0,1,.09.91c-2.36,1.72-10.1,7.06-15.9,7.61"/><path class="cls-11" d="M474.58,334.06c-3.26,14.83-12.16,25.49-19.89,23.82s-11.35-15-8.1-29.87c2.73-12.42,16.4-27.82,20.76-32.48a1.18,1.18,0,0,1,2,.42c2,6,8,25.68,5.26,38.1"/><path class="cls-7" d="M474.58,334.06c-3.26,14.83-12.16,25.49-19.89,23.82s-11.35-15-8.1-29.87c2.73-12.42,16.4-27.82,20.76-32.48a1.18,1.18,0,0,1,2,.42C471.33,302,477.31,321.64,474.58,334.06Z"/><path class="cls-12" d="M469.93,339.79c-2.5,11.4-9.35,19.6-15.29,18.32s-8.73-11.56-6.22-23c2.1-9.55,12.61-21.39,16-25a.91.91,0,0,1,1.51.33c1.54,4.64,6.14,19.74,4,29.29"/><path class="cls-13" d="M463.74,347.21c-1.49,6.78-5.56,11.66-9.09,10.89s-5.19-6.88-3.7-13.66c1.25-5.68,7.5-12.72,9.49-14.85a.54.54,0,0,1,.9.19c.92,2.76,3.65,11.74,2.4,17.42"/><path class="cls-11" d="M484,364.24c-15.1,2-28.18-2.79-29.21-10.61s10.37-15.73,25.47-17.68c12.65-1.64,31.81,6,37.69,8.5a1.17,1.17,0,0,1,.26,2c-5,3.93-21.55,16.17-34.2,17.8"/><path class="cls-7" d="M484,364.24c-15.1,2-28.18-2.79-29.21-10.61s10.37-15.73,25.47-17.68c12.65-1.64,31.81,6,37.69,8.5a1.17,1.17,0,0,1,.26,2C513.15,350.36,496.63,362.6,484,364.24Z"/><path class="cls-12" d="M477,361.82c-11.61,1.5-21.67-2.15-22.46-8.15s8-12.1,19.58-13.6c9.73-1.26,24.46,4.6,29,6.54a.9.9,0,0,1,.2,1.53c-3.86,3-16.57,12.43-26.3,13.69"/><path class="cls-13" d="M467.9,358.51c-6.91.89-12.89-1.28-13.36-4.85s4.74-7.19,11.64-8.09c5.79-.75,14.55,2.74,17.23,3.89a.54.54,0,0,1,.12.91c-2.3,1.8-9.85,7.39-15.64,8.14"/><path class="cls-11" d="M454.61,345.14c-2.36,15-10.61,26.17-18.43,25s-12.23-14.34-9.87-29.33c2-12.56,14.71-28.74,18.78-33.66a1.18,1.18,0,0,1,2,.31c2.37,5.91,9.51,25.16,7.53,37.72"/><path class="cls-7" d="M454.61,345.14c-2.36,15-10.61,26.17-18.43,25s-12.23-14.34-9.87-29.33c2-12.56,14.71-28.74,18.78-33.66a1.18,1.18,0,0,1,2,.31C449.45,313.33,456.59,332.58,454.61,345.14Z"/><path class="cls-12" d="M450.32,351.13c-1.82,11.53-8.16,20.12-14.17,19.19s-9.4-11-7.59-22.55c1.52-9.66,11.31-22.1,14.44-25.88a.91.91,0,0,1,1.53.24c1.82,4.54,7.31,19.34,5.79,29"/><path class="cls-13" d="M444.57,358.9c-1.08,6.86-4.85,12-8.43,11.41s-5.59-6.56-4.51-13.41c.9-5.74,6.73-13.14,8.59-15.39a.54.54,0,0,1,.91.14c1.08,2.7,4.35,11.5,3.44,17.25"/><path class="cls-11" d="M464.34,382c-15.1,2-28.18-2.79-29.21-10.61s10.37-15.73,25.47-17.68c12.65-1.64,31.81,6,37.69,8.5a1.17,1.17,0,0,1,.26,2c-5,3.93-21.55,16.17-34.2,17.8"/><path class="cls-7" d="M464.34,382c-15.1,2-28.18-2.79-29.21-10.61s10.37-15.73,25.47-17.68c12.65-1.64,31.81,6,37.69,8.5a1.17,1.17,0,0,1,.26,2C493.52,368.1,477,380.34,464.34,382Z"/><path class="cls-12" d="M457.37,379.56c-11.61,1.5-21.67-2.15-22.46-8.15s8-12.1,19.58-13.6c9.73-1.26,24.46,4.6,29,6.54a.9.9,0,0,1,.2,1.53c-3.86,3-16.57,12.43-26.3,13.69"/><path class="cls-13" d="M448.27,376.25c-6.91.89-12.89-1.28-13.36-4.85s4.74-7.19,11.64-8.09c5.79-.75,14.55,2.74,17.23,3.89a.54.54,0,0,1,.12.91c-2.3,1.8-9.85,7.39-15.64,8.14"/><path class="cls-11" d="M435.79,362.83c-2.36,15-10.61,26.17-18.43,25s-12.23-14.34-9.87-29.33c2-12.56,14.71-28.74,18.78-33.66a1.18,1.18,0,0,1,2,.31c2.37,5.91,9.51,25.16,7.53,37.72"/><path class="cls-7" d="M435.79,362.83c-2.36,15-10.61,26.17-18.43,25s-12.23-14.34-9.87-29.33c2-12.56,14.71-28.74,18.78-33.66a1.18,1.18,0,0,1,2,.31C430.63,331,437.77,350.26,435.79,362.83Z"/><path class="cls-12" d="M431.5,368.81c-1.82,11.53-8.16,20.12-14.17,19.19s-9.4-11-7.59-22.55c1.52-9.66,11.31-22.1,14.44-25.88a.91.91,0,0,1,1.53.24c1.82,4.54,7.31,19.34,5.79,29"/><path class="cls-13" d="M425.76,376.59c-1.08,6.86-4.85,12-8.43,11.41s-5.59-6.56-4.51-13.41c.9-5.74,6.73-13.14,8.59-15.39a.54.54,0,0,1,.91.14c1.08,2.7,4.35,11.5,3.44,17.25"/><path class="cls-11" d="M448.28,397.52c-15.1,2-28.18-2.79-29.21-10.61s10.37-15.73,25.47-17.68c12.65-1.64,31.81,6,37.69,8.5a1.17,1.17,0,0,1,.26,2c-5,3.93-21.55,16.17-34.2,17.8"/><path class="cls-7" d="M448.28,397.52c-15.1,2-28.18-2.79-29.21-10.61s10.37-15.73,25.47-17.68c12.65-1.64,31.81,6,37.69,8.5a1.17,1.17,0,0,1,.26,2C477.46,383.64,460.94,395.88,448.28,397.52Z"/><path class="cls-12" d="M441.31,395.1c-11.61,1.5-21.67-2.15-22.46-8.15s8-12.1,19.58-13.6c9.73-1.26,24.46,4.6,29,6.54a.9.9,0,0,1,.2,1.53c-3.86,3-16.57,12.43-26.3,13.69"/><path class="cls-13" d="M432.21,391.79c-6.91.89-12.89-1.28-13.36-4.85s4.74-7.19,11.64-8.09c5.79-.75,14.55,2.74,17.23,3.89a.54.54,0,0,1,.12.91c-2.3,1.8-9.85,7.39-15.64,8.14"/><path class="cls-11" d="M419.31,379.22c0,15.18-6.33,27.51-14.24,27.55s-14.35-12.23-14.39-27.41c0-12.72,10-30.7,13.21-36.19a1.18,1.18,0,0,1,2,0c3.27,5.46,13.38,23.34,13.41,36.06"/><path class="cls-7" d="M419.31,379.22c0,15.18-6.33,27.51-14.24,27.55s-14.35-12.23-14.39-27.41c0-12.72,10-30.7,13.21-36.19a1.18,1.18,0,0,1,2,0C409.17,348.62,419.27,366.5,419.31,379.22Z"/><path class="cls-12" d="M416,385.81c0,11.67-4.87,21.15-10.95,21.18s-11-9.4-11.07-21.07c0-9.78,7.66-23.6,10.15-27.83a.91.91,0,0,1,1.55,0C408.22,362.28,416,376,416,385.81"/><path class="cls-13" d="M411.58,394.39c0,6.94-2.9,12.58-6.51,12.6s-6.56-5.59-6.58-12.53c0-5.82,4.56-14,6-16.55a.54.54,0,0,1,.92,0c1.5,2.5,6.12,10.68,6.13,16.49"/><path class="cls-11" d="M430.59,416.91c-15.1,2-28.18-2.79-29.21-10.61s10.37-15.73,25.47-17.68c12.65-1.64,31.81,6,37.69,8.5a1.17,1.17,0,0,1,.26,2c-5,3.93-21.55,16.17-34.2,17.8"/><path class="cls-7" d="M430.59,416.91c-15.1,2-28.18-2.79-29.21-10.61s10.37-15.73,25.47-17.68c12.65-1.64,31.81,6,37.69,8.5a1.17,1.17,0,0,1,.26,2C459.76,403,443.24,415.28,430.59,416.91Z"/><path class="cls-12" d="M423.61,414.49c-11.61,1.5-21.67-2.15-22.46-8.15s8-12.1,19.58-13.6c9.73-1.26,24.46,4.6,29,6.54a.9.9,0,0,1,.2,1.53c-3.86,3-16.57,12.43-26.3,13.69"/><path class="cls-13" d="M414.51,411.19c-6.91.89-12.89-1.28-13.36-4.85s4.74-7.19,11.64-8.09c5.79-.75,14.55,2.74,17.23,3.89a.54.54,0,0,1,.12.91c-2.3,1.8-9.85,7.39-15.64,8.14"/><polygon class="cls-15" points="342.29 505.62 233.28 510 233.28 528.38 242.47 592.3 238.1 597.55 161.93 571.72 156.67 562.53 149.23 476.29 131.72 424.19 127.78 411.93 188.63 369.91 207.89 362.46 224.46 378.7 333.88 396.03 392.56 348.29 406.33 362.46 429.54 389.23 395.27 500.68 342.29 505.62"/><polygon class="cls-16" points="365.68 372.47 324 411.6 307.2 391.16 271.18 385.51 239.86 378.97 220.16 372.85 202.65 353.58 189.08 314.62 186.01 306.3 167.63 300.17 157.12 282.66 149.68 257.27 158 234.95 177.69 227.94 193.89 235.38 201.34 252.02 210.53 250.71 213.59 246.77 210.53 229.25 209.65 206.93 214.03 176.28 214.03 158.77 228.04 136.45 252.56 118.94 295.46 100.55 342.74 107.55 383.89 137.32 403.15 167.97 415.41 190.29 418.47 245.45 409.28 292.73 392.64 334.76 376.44 357.08 365.68 372.47"/><polygon class="cls-17" points="157.56 235.82 177.26 228.82 193.46 236.26 200.9 252.9 210.09 251.58 212.28 242.39 207.9 224.88 212.28 182.85 208.34 160.09 221.91 143.89 251.68 120.25 243.36 108.87 201.34 129.44 183.82 143.01 173.76 164.47 158.43 185.04 154.06 209.56 157.56 235.82"/><path class="cls-18" d="M188.64,164.46S200,136,246,122.44s2.19-10.07,2.19-10.07l-49.47,19.26-19.26,19.26-8.32,15.32,17.51-1.75"/><path class="cls-18" d="M165.88,230.57s-16.2-53.41,45.09-60.85l-2.19-9.19-42,10.07-12.26,39.84,3.06,25.83,8.32-5.69"/><path class="cls-19" d="M190.39,301.49l10.07-9.63s4.38.44,5.25,5.69,3.07,53.41,35.9,79.24c3.06,2.19-24.52-3.94-24.52-3.94l-24.51-38.09"/><path class="cls-19" d="M330.48,287s1.75-23.2,7.88-21.45a8.44,8.44,0,0,1,6.13,7.88s-14.88,10.07-14,13.57"/><path class="cls-19" d="M394,202.55s-12.7,2.63-13.57,13.57c-1.31,10.94,13.57,2.19,16.2,1.31"/><path class="cls-19" d="M301.59,203.43S285,205.62,285,216.56c0,10.51,19.26,10.07,24.51,5.25"/><path class="cls-19" d="M197.83,252.89s-28.89-17.51-32-.88-10.07,28.89,4.38,46.4l-10.07-3.07L151,271.72,147.93,249l17.51-18.39,19.7,1.31,11.38,9.19,1.31,11.82"/><path class="cls-19" d="M211.4,204.74s13.13-67,78.8-80.11c53.85-10.51,82.3,2.19,93.25,14.45,0,0-48.16-57.35-93.68-39.84-46,17.51-79.24,49.47-78.8,70,1.31,35.46.44,35.46.44,35.46"/><path class="cls-19" d="M388.7,146.52s-22.33-.88-22.76,19.26a17.44,17.44,0,0,0,1.31,6.13s17.51-19.7,28.46-9.19"/><path class="cls-19" d="M292,174.1S288,143.45,262.19,161.4C245.55,172.78,246.86,189,249.93,192s2.19,9.19,4.38,4.82,1.75-17.95,10.07-21.89,21.89-7.88,27.58-.88"/><polygon class="cls-20" points="254.31 653.46 238.55 589.54 230.67 542.26 229.35 507.24 300.71 503.3 345.36 503.3 341.42 583.41 348.43 645.14 347.55 656.52 289.77 660.9 254.31 653.46"/><polyline class="cls-21" points="254.31 653.46 238.55 589.54 230.67 542.26 229.35 507.24 300.71 503.3 345.36 503.3 341.42 583.41 348.43 645.14 347.55 656.52 289.77 660.9 254.31 653.46"/><polyline class="cls-16" points="381.7 566.34 411.47 558.02 467.94 554.96 476.26 529.13 460.94 484.04 443.43 481.85 418.91 489.29 395.27 500.68 383.01 498.49 373.38 502.43"/><path class="cls-19" d="M381.26,551S401,541.83,404,542.7l-8.32-42,10.07-3.94s7,39.84,7,44.21c0,0,42.9,2.19,46.4,2.19,0,0,9.19-17.51,7-35.9l8.32,24.51.88,13.57-12.26,18.39-13.57,3.06-22.76-.88-7.44-10.07-26.7,3.94-8.32,3.06"/><path class="cls-17" d="M292,174.1c-21-4.81-31.08,8.76-37.65,22.76-5.69-1.31-3.5-9.19-1.75-13.13,3.94-10.07,18.82-24.08,31.08-21.89,4.82.88,12.26,5.69,8.32,12.26"/><path class="cls-22" d="M393.08,197.74H394c4.82,9.63,8.76,20.14,14.88,28.89-3.94,9.19-30.21,17.51-29.77.88,5.69-2.63,15.32-.44,20.58-3.5-3.07-8.32-7-14.88-6.57-26.27"/><path class="cls-22" d="M302.46,197.74c4.38,8.32,6.13,16.64,12.26,22.76,3.06,2.63,8.32,6.13,5.69,14-.44,1.75-5.25,5.69-7.88,6.57-10.07,3.06-32.83.44-25.39-11.82,8.32.44,19.26,5.25,25.39-.44-4.82-7.44-13.13-22.33-10.07-31.08"/><path class="cls-22" d="M389.58,280.91c-14.88,9.63-31.52,20.14-56,17.51-5.25-4.38-7-14.45-2.19-21.45,2.63,4.38.88,12.69,8.32,14,14,2.19,30.21-8.32,39.84-12.26,6.13-10.51-.44-14.45-6.13-21-11.38-13.57-26.7-30.64-26.27-51.22,4.82-3.5,4.82,5.25,5.69,6.57,6.13,14,21,32,32,43.78,2.63,3.06,7,5.69,7.44,7.88,1.75,5.69-3.5,12.7-2.63,16.2"/><path class="cls-22" d="M192.58,270.84c-4.82-2.63-5.69-14.45-11.38-14.88-7.88-.44-6.57,15.32-6.57,24.52-5.25-4.82-6.57-20.14-2.19-27.58-4.38-2.19-6.57,2.63-9.19,3.94,3.5-23.2,34.58-10.94,29.33,14"/><path class="cls-17" d="M398.77,291c-7,13.13-16.64,27.58-37.21,28-.44-4.38-.87-10.94,0-13.13,15.76-1.75,25.39-9.63,37.21-14.88"/><path class="cls-17" d="M301.15,299.3c13.13,7,36.77,7.44,54.72,7,.88,3.94.88,8.76.88,13.57-22.76.88-49.47-4.38-55.6-20.58"/><path class="cls-22" d="M299,312c9.19,22.76,39.84,20.14,66.1,19.26-1.31,3.07-3.5,6.57-6.57,7.44-8.32,3.5-31.52,6.13-42.9,0-7.44-3.94-12.26-12.7-16.2-17.95-2.63-2.19-12.26-8.76-.44-8.76"/><path class="cls-22" d="M445.18,501.55c-11.82,2.19-20.14,14-31.52,13.13,6.13-8.76,17.07-12.7,31.52-13.13"/><path class="cls-23" d="M218,377.68l-68.88,30.66a3.81,3.81,0,0,0-2.16,4.37c4.37,18.14,25.92,111.58,15,148.07a3.81,3.81,0,0,1-5,2.46l-4.43-1.66a3.81,3.81,0,0,1-2.47-3.5l-.82-42.1a3.84,3.84,0,0,0-.1-.78l-19.56-84.77a3.83,3.83,0,0,0-.12-.41l-7.27-20.65a3.82,3.82,0,0,1,1.47-4.43l69.83-47a3.82,3.82,0,0,1,4.8.44L218,377.68"/><path class="cls-23" d="M225.48,446.67l9.2,11.2a3.82,3.82,0,0,1,.87,2.42v40.78a3.82,3.82,0,0,1-3.82,3.82H227a3.81,3.81,0,0,1-3.81-3.65c-.34-8.5-1.16-29.13-1.16-32.24,0-3.94,1.31-17.51,1.31-17.51"/><path class="cls-23" d="M225.48,510.64l-22.76.88a3.82,3.82,0,0,0-.46,7.58l23.66,3.8"/><polygon class="cls-15" points="346.82 504.68 375.27 503.8 382.28 573.85 353.38 577.79 346.82 504.68"/><path class="cls-23" d="M369.95,497.51l-23,4.53a3.82,3.82,0,0,0-3,4.43l2.84,15.45a3.75,3.75,0,0,0,3,3c10.09,1.79,24.15-8.2,24.15-8.2"/><path class="cls-23" d="M388.45,364.94c2.42,1.8,36.87,38.69,37.09,35.69l.69-14.6a3.82,3.82,0,0,0-1.22-3.07l-32.36-33.37Z"/><rect class="cls-20" x="304.37" y="580.85" width="7.86" height="7.86"/><rect class="cls-15" x="288.61" y="596.57" width="7.86" height="7.86"/><rect class="cls-24" x="288.61" y="596.57" width="7.86" height="7.86"/><polygon class="cls-15" points="304.37 596.57 304.37 588.71 296.5 588.71 296.5 596.57 296.5 604.43 296.5 612.29 304.37 612.29 304.37 604.43 312.23 604.43 312.23 596.57 304.37 596.57"/><polygon class="cls-24" points="304.37 596.57 304.37 588.71 296.5 588.71 296.5 596.57 296.5 604.43 296.5 612.29 304.37 612.29 304.37 604.43 312.23 604.43 312.23 596.57 304.37 596.57"/><polygon class="cls-20" points="288.61 612.29 288.61 620.15 288.61 628.02 296.47 628.02 296.47 620.15 296.47 612.29 296.47 604.43 288.61 604.43 288.61 612.29"/><polygon class="cls-20" points="288.61 580.85 288.61 588.71 288.61 596.57 296.47 596.57 296.47 588.71 296.47 580.85 296.47 572.99 288.61 572.99 288.61 580.85"/><polygon class="cls-20" points="280.71 596.57 280.71 604.43 280.71 612.29 288.57 612.29 288.57 604.43 288.57 596.57 288.57 588.71 280.71 588.71 280.71 596.57"/><rect class="cls-20" x="272.82" y="596.57" width="7.86" height="7.86"/><polygon class="cls-20" points="304.37 565.13 296.5 565.13 296.5 572.99 296.5 580.85 296.5 588.71 304.37 588.71 304.37 580.85 312.23 580.85 312.23 572.99 304.37 572.99 304.37 565.13"/><polygon class="cls-20" points="304.37 612.29 296.5 612.29 296.5 620.15 296.5 628.02 296.5 635.88 304.37 635.88 304.37 628.02 312.23 628.02 312.23 620.15 312.23 612.29 312.23 604.43 304.37 604.43 304.37 612.29"/><polygon class="cls-20" points="312.26 596.57 312.26 604.43 312.26 612.29 320.12 612.29 320.12 604.43 320.12 596.57 320.12 588.71 312.26 588.71 312.26 596.57"/><rect class="cls-20" x="304.37" y="588.71" width="7.86" height="7.86"/><rect class="cls-20" x="320.16" y="596.57" width="7.86" height="7.86"/><rect class="cls-20" x="256.85" y="512.51" width="7.86" height="7.86"/><rect class="cls-15" x="241.09" y="528.23" width="7.86" height="7.86"/><rect class="cls-24" x="241.09" y="528.23" width="7.86" height="7.86"/><polygon class="cls-15" points="256.85 528.24 256.85 520.37 248.99 520.37 248.99 528.24 248.99 536.1 248.99 543.96 256.85 543.96 256.85 536.1 264.71 536.1 264.71 528.24 256.85 528.24"/><polygon class="cls-24" points="256.85 528.24 256.85 520.37 248.99 520.37 248.99 528.24 248.99 536.1 248.99 543.96 256.85 543.96 256.85 536.1 264.71 536.1 264.71 528.24 256.85 528.24"/><polygon class="cls-20" points="241.09 543.96 241.09 551.82 241.09 559.68 248.95 559.68 248.95 551.82 248.95 543.96 248.95 536.1 241.09 536.1 241.09 543.96"/><polygon class="cls-20" points="241.09 512.51 241.09 520.37 241.09 528.24 248.95 528.24 248.95 520.37 248.95 512.51 248.95 504.65 241.09 504.65 241.09 512.51"/><polygon class="cls-20" points="233.19 528.24 233.19 536.1 233.19 543.96 241.05 543.96 241.05 536.1 241.05 528.24 241.05 520.37 233.19 520.37 233.19 528.24"/><polygon class="cls-20" points="228.33 536.1 233.16 536.1 233.16 528.24 227.04 527.27 228.33 536.1"/><polygon class="cls-20" points="248.99 504.65 248.99 512.51 248.99 520.37 256.85 520.37 256.85 512.51 264.71 512.51 264.71 504.65 256.85 504.65 248.99 504.65"/><polygon class="cls-20" points="256.85 543.96 248.99 543.96 248.99 551.82 248.99 559.68 248.99 567.54 256.85 567.54 256.85 559.68 264.71 559.68 264.71 551.82 264.71 543.96 264.71 536.1 256.85 536.1 256.85 543.96"/><polygon class="cls-20" points="264.74 528.24 264.74 536.1 264.74 543.96 272.6 543.96 272.6 536.1 272.6 528.24 272.6 520.37 264.74 520.37 264.74 528.24"/><rect class="cls-20" x="256.85" y="520.37" width="7.86" height="7.86"/><rect class="cls-20" x="272.64" y="528.23" width="7.86" height="7.86"/><polygon class="cls-15" points="233.19 551.82 233.19 559.68 233.19 567.54 241.05 567.54 241.05 559.68 241.05 551.82 241.05 543.96 233.19 543.96 233.19 551.82"/><polygon class="cls-24" points="233.19 551.82 233.19 559.68 233.19 567.54 241.05 567.54 241.05 559.68 241.05 551.82 241.05 543.96 233.19 543.96 233.19 551.82"/><polygon class="cls-15" points="241.09 567.54 241.09 575.4 248.95 575.4 248.95 567.54 248.95 559.68 241.09 559.68 241.09 567.54"/><polygon class="cls-24" points="241.09 567.54 241.09 575.4 248.95 575.4 248.95 567.54 248.95 559.68 241.09 559.68 241.09 567.54"/><polygon class="cls-15" points="225.3 520.37 227.7 528.23 233.16 528.23 233.16 520.37 233.16 512.51 225.3 512.51 225.3 520.37"/><polygon class="cls-24" points="225.3 520.37 227.7 528.23 233.16 528.23 233.16 520.37 233.16 512.51 225.3 512.51 225.3 520.37"/><polygon class="cls-15" points="233.19 504.65 233.19 512.51 233.19 520.37 241.05 520.37 241.05 512.51 241.05 504.65 233.19 504.65"/><polygon class="cls-24" points="233.19 504.65 233.19 512.51 233.19 520.37 241.05 520.37 241.05 512.51 241.05 504.65 233.19 504.65"/><polygon class="cls-15" points="272.64 543.96 272.64 551.82 280.5 551.82 280.5 543.96 280.5 536.1 272.64 536.1 272.64 543.96"/><polygon class="cls-24" points="272.64 543.96 272.64 551.82 280.5 551.82 280.5 543.96 280.5 536.1 272.64 536.1 272.64 543.96"/><polygon class="cls-15" points="264.74 551.82 264.74 559.68 264.74 567.54 272.6 567.54 272.6 559.68 272.6 551.82 272.6 543.96 264.74 543.96 264.74 551.82"/><polygon class="cls-24" points="264.74 551.82 264.74 559.68 264.74 567.54 272.6 567.54 272.6 559.68 272.6 551.82 272.6 543.96 264.74 543.96 264.74 551.82"/><polygon class="cls-15" points="256.85 567.54 248.99 567.54 248.99 575.4 248.99 583.26 256.85 583.26 256.85 575.4 264.71 575.4 264.71 567.54 264.71 559.68 256.85 559.68 256.85 567.54"/><polygon class="cls-24" points="256.85 567.54 248.99 567.54 248.99 575.4 248.99 583.26 256.85 583.26 256.85 575.4 264.71 575.4 264.71 567.54 264.71 559.68 256.85 559.68 256.85 567.54"/><polygon class="cls-15" points="272.64 520.37 272.64 528.23 280.5 528.23 280.5 520.37 280.5 512.51 272.64 512.51 272.64 520.37"/><polygon class="cls-24" points="272.64 520.37 272.64 528.23 280.5 528.23 280.5 520.37 280.5 512.51 272.64 512.51 272.64 520.37"/><polygon class="cls-15" points="280.54 528.24 280.54 536.1 280.54 543.96 288.4 543.96 288.4 536.1 288.4 528.24 288.4 520.37 280.54 520.37 280.54 528.24"/><polygon class="cls-24" points="280.54 528.24 280.54 536.1 280.54 543.96 288.4 543.96 288.4 536.1 288.4 528.24 288.4 520.37 280.54 520.37 280.54 528.24"/><rect class="cls-15" x="288.43" y="528.23" width="7.86" height="7.86"/><rect class="cls-24" x="288.43" y="528.23" width="7.86" height="7.86"/><polygon class="cls-15" points="264.74 504.65 264.74 512.51 264.74 520.37 272.6 520.37 272.6 512.51 272.6 504.65 272.6 500.21 264.74 500.21 264.74 504.65"/><polygon class="cls-24" points="264.74 504.65 264.74 512.51 264.74 520.37 272.6 520.37 272.6 512.51 272.6 504.65 272.6 500.21 264.74 500.21 264.74 504.65"/><polygon class="cls-20" points="332.84 543.39 332.84 551.25 332.84 559.12 340.7 559.12 340.7 551.25 340.7 543.39 340.7 535.53 332.84 535.53 332.84 543.39"/><polygon class="cls-20" points="332.84 511.95 332.84 519.81 332.84 527.67 340.7 527.67 340.7 519.81 340.7 511.95 340.7 504.09 332.84 504.09 332.84 511.95"/><polygon class="cls-20" points="324.94 527.67 324.94 535.53 324.94 543.39 332.81 543.39 332.81 535.53 332.81 527.67 332.81 519.81 324.94 519.81 324.94 527.67"/><rect class="cls-20" x="317.05" y="527.67" width="7.86" height="7.86"/><polygon class="cls-20" points="348.6 543.39 340.74 543.39 340.74 551.25 340.74 559.12 340.74 566.98 348.6 566.98 348.6 559.12 348.6 535.53 348.6 543.39"/><polygon class="cls-15" points="272.81 612.29 272.81 620.15 280.68 620.15 280.68 612.29 280.68 604.43 272.81 604.43 272.81 612.29"/><polygon class="cls-24" points="272.81 612.29 272.81 620.15 280.68 620.15 280.68 612.29 280.68 604.43 272.81 604.43 272.81 612.29"/><polygon class="cls-15" points="280.71 620.15 280.71 628.02 280.71 635.88 288.57 635.88 288.57 628.02 288.57 620.15 288.57 612.29 280.71 612.29 280.71 620.15"/><polygon class="cls-24" points="280.71 620.15 280.71 628.02 280.71 635.88 288.57 635.88 288.57 628.02 288.57 620.15 288.57 612.29 280.71 612.29 280.71 620.15"/><polygon class="cls-15" points="288.61 635.88 288.61 643.74 296.47 643.74 296.47 635.88 296.47 628.02 288.61 628.02 288.61 635.88"/><polygon class="cls-24" points="288.61 635.88 288.61 643.74 296.47 643.74 296.47 635.88 296.47 628.02 288.61 628.02 288.61 635.88"/><polygon class="cls-15" points="272.81 588.71 272.81 596.57 280.68 596.57 280.68 588.71 280.68 580.85 272.81 580.85 272.81 588.71"/><polygon class="cls-24" points="272.81 588.71 272.81 596.57 280.68 596.57 280.68 588.71 280.68 580.85 272.81 580.85 272.81 588.71"/><polygon class="cls-15" points="264.92 596.57 264.92 604.43 264.92 612.29 272.78 612.29 272.78 604.43 272.78 596.57 272.78 588.71 264.92 588.71 264.92 596.57"/><polygon class="cls-24" points="264.92 596.57 264.92 604.43 264.92 612.29 272.78 612.29 272.78 604.43 272.78 596.57 272.78 588.71 264.92 588.71 264.92 596.57"/><rect class="cls-15" x="257.02" y="596.57" width="7.86" height="7.86"/><rect class="cls-24" x="257.02" y="596.57" width="7.86" height="7.86"/><polygon class="cls-15" points="304.37 549.4 296.5 549.4 296.5 557.26 296.5 565.13 304.37 565.13 304.37 572.99 312.23 572.99 312.23 565.13 312.23 557.26 304.37 557.26 304.37 549.4"/><polygon class="cls-24" points="304.37 549.4 296.5 549.4 296.5 557.26 296.5 565.13 304.37 565.13 304.37 572.99 312.23 572.99 312.23 565.13 312.23 557.26 304.37 557.26 304.37 549.4"/><polygon class="cls-15" points="288.61 565.13 288.61 572.99 296.47 572.99 296.47 565.13 296.47 557.26 288.61 557.26 288.61 565.13"/><polygon class="cls-24" points="288.61 565.13 288.61 572.99 296.47 572.99 296.47 565.13 296.47 557.26 288.61 557.26 288.61 565.13"/><polygon class="cls-15" points="280.71 572.99 280.71 580.85 280.71 588.71 288.57 588.71 288.57 580.85 288.57 572.99 288.57 565.13 280.71 565.13 280.71 572.99"/><polygon class="cls-24" points="280.71 572.99 280.71 580.85 280.71 588.71 288.57 588.71 288.57 580.85 288.57 572.99 288.57 565.13 280.71 565.13 280.71 572.99"/><polygon class="cls-15" points="320.16 612.29 320.16 620.15 328.02 620.15 328.02 612.29 328.02 604.43 320.16 604.43 320.16 612.29"/><polygon class="cls-24" points="320.16 612.29 320.16 620.15 328.02 620.15 328.02 612.29 328.02 604.43 320.16 604.43 320.16 612.29"/><polygon class="cls-15" points="312.26 620.15 312.26 628.02 312.26 635.88 320.12 635.88 320.12 628.02 320.12 620.15 320.12 612.29 312.26 612.29 312.26 620.15"/><polygon class="cls-24" points="312.26 620.15 312.26 628.02 312.26 635.88 320.12 635.88 320.12 628.02 320.12 620.15 320.12 612.29 312.26 612.29 312.26 620.15"/><polygon class="cls-15" points="304.37 635.88 296.5 635.88 296.5 643.74 296.5 651.6 304.37 651.6 304.37 643.74 312.23 643.74 312.23 635.88 312.23 628.02 304.37 628.02 304.37 635.88"/><polygon class="cls-24" points="304.37 635.88 296.5 635.88 296.5 643.74 296.5 651.6 304.37 651.6 304.37 643.74 312.23 643.74 312.23 635.88 312.23 628.02 304.37 628.02 304.37 635.88"/><polygon class="cls-15" points="320.16 588.71 320.16 596.57 328.02 596.57 328.02 588.71 328.02 580.85 320.16 580.85 320.16 588.71"/><polygon class="cls-24" points="320.16 588.71 320.16 596.57 328.02 596.57 328.02 588.71 328.02 580.85 320.16 580.85 320.16 588.71"/><polygon class="cls-15" points="328.06 596.57 328.06 604.43 328.06 612.29 335.92 612.29 335.92 604.43 335.92 596.57 335.92 588.71 328.06 588.71 328.06 596.57"/><polygon class="cls-24" points="328.06 596.57 328.06 604.43 328.06 612.29 335.92 612.29 335.92 604.43 335.92 596.57 335.92 588.71 328.06 588.71 328.06 596.57"/><polygon class="cls-15" points="312.26 572.99 312.26 580.85 312.26 588.71 320.12 588.71 320.12 580.85 320.12 572.99 320.12 565.13 312.26 565.13 312.26 572.99"/><polygon class="cls-24" points="312.26 572.99 312.26 580.85 312.26 588.71 320.12 588.71 320.12 580.85 320.12 572.99 320.12 565.13 312.26 565.13 312.26 572.99"/><path class="cls-22" d="M450.43,519.94c-9.63.88-21,2.63-30.64,1.75,4.38-7,22.33-4.38,30.64-1.75"/><path class="cls-22" d="M453.49,536.14a301.39,301.39,0,0,1-34.58-.88c6.13-6.57,27.58-2.63,34.58.88"/><path class="cls-25" d="M368.13,579.91c1.75,13.57,7,27.14,6.13,42-6.13,2.19-9.63,3.94-17.51,3.94-.44-12.69-2.19-32-1.75-44.21,3.94.44,9.63-2.63,13.13-1.75"/><path class="cls-21" d="M368.13,579.91c1.75,13.57,7,27.14,6.13,42-6.13,2.19-9.63,3.94-17.51,3.94-.44-12.69-2.19-32-1.75-44.21,3.94.44,9.63-2.63,13.13-1.75"/><path class="cls-25" d="M335.29,502.43s-3.94,79.24,7.44,135.71c0,0-22.76,14.45-56.47,18.39l63.91-2.19,7.44-4.38-9.19-125.2L346.24,498"/><rect class="cls-15" x="336.44" y="596.57" width="7.38" height="7.86"/><rect class="cls-15" x="332.84" y="527.67" width="7.86" height="7.86"/><polygon class="cls-23" points="348.6 527.67 348.6 519.81 340.74 519.81 340.74 527.67 340.74 535.53 340.74 543.39 348.6 543.39 348.6 535.53 348.6 527.67"/><path class="cls-20" d="M372,503.29c9.35-1.53,17.17-2.13,26.38-4.34a521.25,521.25,0,0,1,7.36,51.75c.87,8.6-.32,14.84-9.23,18.32-8.5,3.32-8.13,1.44-16.68,4.63.87-23.38-4.63-47.19-7.82-70.37"/><path class="cls-21" d="M372,503.29c9.35-1.53,17.17-2.13,26.38-4.34a521.25,521.25,0,0,1,7.36,51.75c.87,8.6-.32,14.84-9.23,18.32-8.5,3.32-8.13,1.44-16.68,4.63C380.65,550.28,375.15,526.47,372,503.29Z"/><polygon class="cls-15" points="317.05 543.39 317.05 551.25 324.91 551.25 324.91 543.39 324.91 535.53 317.05 535.53 317.05 543.39"/><polygon class="cls-24" points="317.05 543.39 317.05 551.25 324.91 551.25 324.91 543.39 324.91 535.53 317.05 535.53 317.05 543.39"/><polygon class="cls-15" points="324.94 551.25 324.94 559.12 324.94 566.98 332.81 566.98 332.81 559.12 332.81 551.25 332.81 543.39 324.94 543.39 324.94 551.25"/><polygon class="cls-24" points="324.94 551.25 324.94 559.12 324.94 566.98 332.81 566.98 332.81 559.12 332.81 551.25 332.81 543.39 324.94 543.39 324.94 551.25"/><polygon class="cls-15" points="332.84 566.98 332.84 574.84 340.7 574.84 340.7 566.98 340.7 559.12 332.84 559.12 332.84 566.98"/><polygon class="cls-15" points="317.05 519.81 317.05 527.67 324.91 527.67 324.91 519.81 324.91 511.95 317.05 511.95 317.05 519.81"/><polygon class="cls-24" points="317.05 519.81 317.05 527.67 324.91 527.67 324.91 519.81 324.91 511.95 317.05 511.95 317.05 519.81"/><polygon class="cls-15" points="309.15 527.67 309.15 535.53 309.15 543.39 317.01 543.39 317.01 535.53 317.01 527.67 317.01 519.81 309.15 519.81 309.15 527.67"/><polygon class="cls-24" points="309.15 527.67 309.15 535.53 309.15 543.39 317.01 543.39 317.01 535.53 317.01 527.67 317.01 519.81 309.15 519.81 309.15 527.67"/><rect class="cls-15" x="301.26" y="527.67" width="7.86" height="7.86"/><rect class="cls-24" x="301.26" y="527.67" width="7.86" height="7.86"/><polygon class="cls-15" points="324.94 504.08 324.94 511.95 324.94 519.81 332.81 519.81 332.81 511.95 332.81 504.08 332.81 496.22 324.94 496.22 324.94 504.08"/><polygon class="cls-24" points="324.94 504.08 324.94 511.95 324.94 519.81 332.81 519.81 332.81 511.95 332.81 504.08 332.81 496.22 324.94 496.22 324.94 504.08"/><polygon class="cls-23" points="348.6 566.98 340.74 566.98 340.74 574.84 340.74 582.7 348.6 582.7 348.6 574.84 352.11 574.84 352.46 567.54 348.6 559.12 348.6 566.98"/><path class="cls-22" d="M355,581.66c-.44,12.26,1.31,31.52,1.75,44.22,7.88,0,11.38-1.75,17.51-3.94.88-14.88-4.82-28.46-6.13-42-3.5-1.31-9.19,1.75-13.13,1.75M230.23,512.93c5.25,48.59,13.13,89.31,27.14,132.65,31.08,9.63,68.73,10.07,96.31,1.75-5.25-24.08-3.07-53.85-5.69-79.68-2.19-19.26-.88-39-3.94-59.1-33.71-7-81-1.75-113.82,4.38m120.52-6.18c-.44,21,2.43,48,4.18,68.62,7.2-1.2,19.34-.07,21.25-10.82,2.37-13.34-1-52.6-6.83-56.41-5.14-3.34-12.91-3.57-18.6-1.38m41-1.43c-9.31.43-13.34,0-12.87,6,1,13.07,5.17,42.82,6.73,55,.62,4.84,13.66-1.4,15.29-6s1.76-55.51-9.14-55m61.71,56.19c11.82-3.06,19.26-17.51,16.2-32.39-2.19-10.07-6.13-28.89-10.51-35.46-3.06-4.82-11.82-10.94-18.39-6.57-10.94,7-30.64,9.19-38.52,17.95,3.94,13.57,5.18,29.52,5.18,52.54,14,.88,32.9-7.45,44.29-2.19C443.86,558,433.36,558,426.35,562c5.25,2.19,18.39,1.75,27.14-.44m-95-66.1a70.64,70.64,0,0,0,32.4-5.25c3.94-1.31,6.57-10.51,9.63-17.51,7.88-19.26,16.64-43.78,20.14-62.6.88-4.38,3.07-13.57,2.63-17.07-.87-6.57-21.8-29.28-30.56-36.29-4.27,4.23-42.88,35-44.4,36.33-9.89,8.8-4.1,25.82-12.25,25-4.35-.43-84.68-22-117.69-33.12-6.16-2.07-17.06-18.64-18.81-17.77-25.39,10.07-49,27.14-70.48,43.78,20.14,43.34,28.46,96.75,29.77,148,23.2,10.94,43.34,26.27,74.86,28-3.5-25.83-7-48.59-9.19-73.11-7.88-3.5-19.26,0-26.7-.88,0-8.76,11.38-3.94,12.26-10.07C211,498.49,204,498,206.15,491c5.69,2.19,8.75,6.57,14.88,8.32,5.69-12.26,0-34.15.88-44.65,0-1.75.88-10.51,5.25-9.19,3.94,1.31-.44,23.2,0,33.27.44,9.19-.88,17.51,2.63,23.2,30.21-3.94,61.29-7,94.12-7.88l34.58,1.31M168.94,181.54c-10.07,10.94-7.88,32-6.57,46.84,18.39-11.38,42.46.88,42,20.58,8.76-.44,3.07-10.95,1.75-17.51-5.25-22.33,8.75-46.84.44-67a52.48,52.48,0,0,0-37.65,17.07m72.23-64.35c-22.76,6.57-52.1,23.2-61.29,43.78,7.44-.87,12.26-4.82,19.26-5.25,2.63,0,6.13,1.31,9.19.44,6.13-1.75,11.38-15.32,16.2-20.58,4.38-5.25,10.07-7,14-11.82,2.63-1.31,6.13-.87,6.13-4.82-1.31-1.31-2.19-2.19-3.5-1.75m84.54,299c31.83-19.47,45.81-53.73,50.73-59.09-10.77,7-31.9,21.72-55.16,22.71-13.92.6-30-5.28-36-8.3-10.53-5.24-20.43-12.22-27.87-21-8.76-10.07-17.95-20.58-18.39-33.27,17.07,23.64,31.08,43.78,61.73,54.28,23.2,7.88,50.34-3.5,68.29-16.2,7.44-5.25,11.82-13.57,17.07-21,19.7-28.46,28.89-68.73,26.7-108.13-.88-16.2-2.38-30.73-6.13-43.34-4.21-12.61-4.21-12.61-11.07-25.39-7.77-14.48-22.2-26.7-35.77-34.15-23.64-13.57-63.92-23.64-88.87-10.94-20.14,10.07-47.72,26.7-57.35,48.16,8.76,20.58-2.63,39.4-3.5,60-.44,10.95,5.25,20.58,5.69,32.83-3.07,4.82-12.26,5.69-18.39,5.25-2.19-10.51-5.69-22.76-17.07-24.08-15.76-1.75-27.14,11.38-27.58,24.52-.88,15.76,12.26,42,30.64,40.27,7-.88,8.76-7.88,16.64-7.88,4.38,8.32-6.57,10.94-7.44,17.07-.44,1.75.88,7.44,1.75,10.51,3.5,14,10.94,31.52,17.95,42,7.88,11.82,16.84,17.67,67.66,22.54,8.81.84,34.48,29.84,45.77,32.6M404,488.42c18.39-9.19,53-25,64.79,0,4.38,9.19,9.19,24.52,11.38,34.15,3.06,13.13-3.5,41.15-17.07,46-12.26,3.94-26.27,3.5-40.71.88-1.75-1.31-3.5-3.94-4.82-6.57-4.7-.2-6.78-.44-11,.56.88,7.88-21.8,13-26.61,14.76-3.5,14.45,7.44,33.27,4.82,46-1.75,9.19-13.13,10.94-21.89,12.7-.44,5.25.44,9.63.88,14-1.75,7-10.51,10.94-18.82,12.26-27.14,3.07-67.86,4.82-93.68-4.82-7.44-17.51-13.13-39.4-18.82-59.54-25.39,2.63-45.53-10.94-64.79-19.7-6.57-3.06-15.76-4.82-18.39-10.07s-1.31-14.89-2.19-24.08c-1.31-23.64-2.63-46.84-9.19-70.92C135.23,463,130,453.4,126.91,442.89c-3.06-9.63-8.76-21.89-10.07-31.52C114.66,396.92,128.23,396,137,389.92c13.57-9.63,24.08-14.88,38.52-23.64,4.38-2.63,17.07-9.19,18.82-12.26,3.06-6.13-5.25-14.45-7-19.26-3.5-7.44-5.25-13.57-5.69-21-12.26-1.75-21.45-9.19-27.14-17.51-9.19-13.57-15.76-38.52-7.44-57.79.44-1.31,3.94-4.38,4.38-6.57.88-4.38-1.75-10.51-1.75-15.32-.88-25,4.38-46,21-53.41,6.57-27.14,31.08-35.9,53.85-49.47,8.32-4.82,17.95-8.32,27.58-11.82,35-12.7,88.43-10.51,117.32,11.38,12.26,9.19,32,28.89,39,42.9,18.39,37.21,17.07,99.81,4.38,145.34-1.75,6.13-4.38,14.88-7.88,22.33-2.63,5.25-10.07,15.32-9.19,19.7.88,4.82,17.51,17.07,21,20.58,6.57,6.13,18.39,14.45,19.26,21.89.88,8.32-3.5,19.7-6.13,27.58-9.19,27.14-16.64,51.22-25.83,74.86"/><path class="cls-19" d="M280.57,305c.88-1.31,6.57-3.5,14.45.44,0,0-9.19,1.31-8.32,16.64l-3.94-.87c0,.44-3.94-13.57-2.19-16.2"/><path class="cls-17" d="M367.35,170.89c20.37-12.18,36.8,1.82,36.51,5.86-1.18-8.19-8.47-23.71-20.48-23.11-20.55,0-16,17.25-16,17.25"/><path class="cls-26" d="M371.95,139.09c11.92-12.69,31.4-29.12,47.5-32.67,17.87-3.94,19.18,6.39,20.38,21.33,2.73,33.9-66.53,31-67.89,11.34"/><path class="cls-27" d="M371.95,139.09c11.92-12.69,31.4-29.12,47.5-32.67,17.87-3.94,19.18,6.39,20.38,21.33C442.56,161.65,373.31,158.72,371.95,139.09Z"/><path class="cls-26" d="M408.4,156.15c-7.89-24.87-54.89-73.32-73.83-89.81a31.87,31.87,0,0,0-28.19-7L182.27,88.38a28.42,28.42,0,0,0-20,17.46c-4.7,12.19-10.71,29.91-11.88,43.43-1.09,12.56,20.63-.22,32.23,1.87,37,6.67,67,8.5,104.36,7.52,24.6-.65,32.23.92,56.6-2.17,3.87-.49,23.91,4.27,26.33,1.85,4.5-4.51,40.58,4.27,38.53-2.19"/><path class="cls-27" d="M408.4,156.15c-7.89-24.87-54.89-73.32-73.83-89.81a31.87,31.87,0,0,0-28.19-7L182.27,88.38a28.42,28.42,0,0,0-20,17.46c-4.7,12.19-10.71,29.91-11.88,43.43-1.09,12.56,20.63-.22,32.23,1.87,37,6.67,67,8.5,104.36,7.52,24.6-.65,32.23.92,56.6-2.17,3.87-.49,23.91,4.27,26.33,1.85C374.38,153.83,410.45,162.61,408.4,156.15Z"/><rect class="cls-20" x="313.22" y="405.29" width="47.21" height="13.61" transform="translate(-160.82 600.86) rotate(-71.51)"/><rect class="cls-28" x="313.22" y="405.29" width="47.21" height="13.61" transform="translate(-160.82 600.86) rotate(-71.51)"/><rect class="cls-20" x="314.6" y="391.35" width="15.65" height="66.43" transform="translate(-134.13 149.3) rotate(-21.7)"/><rect class="cls-28" x="314.6" y="391.35" width="15.65" height="66.43" transform="translate(-134.13 149.3) rotate(-21.7)"/><path class="cls-20" d="M324,411.6s-57.32-8.18-73.36-12.75c-37.08-10.57-60.26-31.8-60.26-31.8l4.62-25.2s43.81,31,59.49,35.93c19.36,6.07,43.14,8.77,56.45,9.75C324,388.48,324,411.6,324,411.6"/><path class="cls-27" d="M324,411.6s-57.32-8.18-73.36-12.75c-37.08-10.57-60.26-31.8-60.26-31.8l4.62-25.2s43.81,31,59.49,35.93c19.36,6.07,43.14,8.77,56.45,9.75C324,388.48,324,411.6,324,411.6Z"/><path class="cls-20" d="M333.08,406.43c2.87-1.39,35.44-17,42.76-22.77,6.44-5.07,25.2-22.57,26.7-24.41.08-.09-10.71-15.21-10.71-15.21a.31.31,0,0,0-.52-.07c-2.2,2.74-15.5,19.21-21.3,23.87-5.43,4.36-26.51,11.39-32.16,19.71-6.4,9.42-4.93,19-4.77,18.88"/><path class="cls-27" d="M333.08,406.43c2.87-1.39,35.44-17,42.76-22.77,6.44-5.07,25.2-22.57,26.7-24.41.08-.09-10.71-15.21-10.71-15.21a.31.31,0,0,0-.52-.07c-2.2,2.74-15.5,19.21-21.3,23.87-5.43,4.36-26.51,11.39-32.16,19.71C331.45,397,332.93,406.51,333.08,406.43Z"/><polygon class="cls-23" points="337.06 596.57 337.8 604.43 343.81 604.43 343.81 596.57 337.06 596.57"/><polygon class="cls-23" points="335.24 566.98 335.59 574.84 340.74 574.84 340.74 566.98 340.74 559.12 334.97 559.12 335.24 566.98"/><polygon class="cls-23" points="334.63 535.53 340.74 535.53 340.74 527.67 334.67 527.67 334.63 535.53"/><polygon class="cls-26" points="368.52 136.46 376.58 121.69 387.71 119.52 385.77 131.32 368.52 136.46"/><polygon class="cls-29" points="368.52 136.46 376.58 121.69 387.71 119.52 385.77 131.32 368.52 136.46"/><polygon class="cls-26" points="359.87 131.68 374.71 139.6 391.96 134.43 377.11 126.5 359.87 131.68"/><polygon class="cls-29" points="359.87 131.68 374.71 139.6 391.96 134.43 377.11 126.5 359.87 131.68"/><polygon class="cls-30" points="377.09 128.22 391.94 136.14 394.41 133.98 386.76 125.32 377.09 128.22"/><polygon class="cls-29" points="377.09 128.22 391.94 136.14 394.41 133.98 386.76 125.32 377.09 128.22"/><polygon class="cls-30" points="357.05 138.42 365.11 123.65 382.36 118.51 374.3 133.28 357.05 138.42"/><polygon class="cls-29" points="357.05 138.42 365.11 123.65 382.36 118.51 374.3 133.28 357.05 138.42"/><polygon class="cls-31" points="343.91 137.05 358.76 144.97 376 139.8 361.15 131.88 343.91 137.05"/><polygon class="cls-29" points="343.91 137.05 358.76 144.97 376 139.8 361.15 131.88 343.91 137.05"/><polygon class="cls-26" points="339.19 144.97 347.25 130.2 364.51 125.06 356.44 139.83 339.19 144.97"/><polygon class="cls-29" points="339.19 144.97 347.25 130.2 364.51 125.06 356.44 139.83 339.19 144.97"/><polygon class="cls-30" points="326.78 142.01 341.63 149.93 358.87 144.76 344.02 136.83 326.78 142.01"/><polygon class="cls-29" points="326.78 142.01 341.63 149.93 358.87 144.76 344.02 136.83 326.78 142.01"/><polygon class="cls-31" points="323.91 147.79 331.97 133.02 349.23 127.88 341.16 142.65 323.91 147.79"/><polygon class="cls-29" points="323.91 147.79 331.97 133.02 349.23 127.88 341.16 142.65 323.91 147.79"/><polygon class="cls-26" points="310.98 144.84 325.28 153.71 342.82 149.66 328.52 140.79 310.98 144.84"/><polygon class="cls-29" points="310.98 144.84 325.28 153.71 342.82 149.66 328.52 140.79 310.98 144.84"/><polygon class="cls-30" points="308.34 151.44 316.41 136.66 333.66 131.53 325.6 146.3 308.34 151.44"/><polygon class="cls-29" points="308.34 151.44 316.41 136.66 333.66 131.53 325.6 146.3 308.34 151.44"/><polygon class="cls-31" points="296.31 147.91 310.62 156.78 328.16 152.74 313.85 143.87 296.31 147.91"/><polygon class="cls-29" points="296.31 147.91 310.62 156.78 328.16 152.74 313.85 143.87 296.31 147.91"/><polygon class="cls-26" points="293.81 154.93 301.88 140.15 319.13 135.01 311.06 149.79 293.81 154.93"/><polygon class="cls-29" points="293.81 154.93 301.88 140.15 319.13 135.01 311.06 149.79 293.81 154.93"/><polygon class="cls-30" points="279.3 157.75 287.36 142.98 304.61 137.84 296.55 152.61 279.3 157.75"/><polygon class="cls-29" points="279.3 157.75 287.36 142.98 304.61 137.84 296.55 152.61 279.3 157.75"/><polygon class="cls-31" points="265.17 160.28 273.23 145.51 290.49 140.37 282.42 155.14 265.17 160.28"/><polygon class="cls-29" points="265.17 160.28 273.23 145.51 290.49 140.37 282.42 155.14 265.17 160.28"/><polygon class="cls-30" points="250.25 163.57 258.31 148.8 275.57 143.66 267.5 158.43 250.25 163.57"/><polygon class="cls-29" points="250.25 163.57 258.31 148.8 275.57 143.66 267.5 158.43 250.25 163.57"/><polygon class="cls-26" points="239.02 163.66 247.09 148.89 263.57 145.16 256.27 158.53 239.02 163.66"/><polygon class="cls-29" points="239.02 163.66 247.09 148.89 263.57 145.16 256.27 158.53 239.02 163.66"/><path class="cls-7" d="M398.57,134.77s-47.86,13.68-86.34,21.6c-36.21,7.45-149.1,23.93-149.1,23.93l-6-18.46s107.95-16.42,143.26-22.92c36.38-6.69,85.89-21.39,85.89-21.39Z"/><path class="cls-32" d="M403.48,112.89c15.49-12.8,49.3-23.14,44.3,9.69-3.25,21.35-21,38.22-41,46.5-45.47,18.88-100.14,8.89-148.14,14.22-21.24,2.36-42.42,7.13-61.33,17.41a122.68,122.68,0,0,0-26.82,19.78c-3.05,3-21.07,28.61-22.61,28.48-20.62-1.72-36-16-41.92-35.54-3.58-11.91-3.67-25.36,2.33-36.26,7.07-12.83,21.25-20.06,35.28-24.27,47.24-14.16,91.45,2.95,138.67,3.78,38.19.67,80.9-2,116.51-17.12,27.73-11.73,54.83-49.82,4.68-26.67"/><path class="cls-28" d="M403.48,112.89c15.49-12.8,49.3-23.14,44.3,9.69-3.25,21.35-21,38.22-41,46.5-45.47,18.88-100.14,8.89-148.14,14.22-21.24,2.36-42.42,7.13-61.33,17.41a122.68,122.68,0,0,0-26.82,19.78c-3.05,3-21.07,28.61-22.61,28.48-20.62-1.72-36-16-41.92-35.54-3.58-11.91-3.67-25.36,2.33-36.26,7.07-12.83,21.25-20.06,35.28-24.27,47.24-14.16,91.45,2.95,138.67,3.78,38.19.67,80.9-2,116.51-17.12C426.52,127.82,453.62,89.74,403.48,112.89Z"/><path class="cls-26" d="M434.42,104.94c3.12,7.34,1.21,13.92-3.67,20.23-8.94,11.58-21.75,19.44-36.65,26.24-32.41,14.8-82.66,15.63-124.7,13.76-24.49-1.09-45.8-4.91-70.25-6.47-25.58-1.64-54-2.1-73.85,17.62-7.35,7.31-12.9,17.08-12.79,27.45.1,9.27,4.73,17.66,10.79,24.41,4.63,5.16,14.54,15.09,21.67,16.3-37.71-6.4-51.41-59.31-20.43-78.28,42.32-25.91,102.4-9.71,142.46-6.19,13.79,1.21,38.35,1.38,54.12.49a262.13,262.13,0,0,0,70.5-14c14.25-4.82,26.85-13.78,35.32-22.14,5.12-5.05,8.4-11.78,7.47-19.43"/></g></svg>