<?xml version="1.0" encoding="UTF-8" standalone="no"?>
<!-- Created with Inkscape (https://www.inkscape.org/) -->

<svg
   xmlns:dc="https://purl.org/dc/elements/1.1/"
   xmlns:cc="https://creativecommons.org/ns#"
   xmlns:rdf="http://www.w3.org/1999/02/22-rdf-syntax-ns#"
   xmlns:svg="http://www.w3.org/2000/svg"
   xmlns="http://www.w3.org/2000/svg"
   xmlns:sodipodi="https://sodipodi.sourceforge.net/DTD/sodipodi-0.dtd"
   xmlns:inkscape="https://www.inkscape.org/namespaces/inkscape"
   id="svg2"
   version="1.1"
   inkscape:version="0.48.0 r9654"
   width="226"
   height="312"
   xml:space="preserve"
   sodipodi:docname="logo.svg"><metadata
     id="metadata8"><rdf:RDF><cc:Work
         rdf:about=""><dc:format>image/svg+xml</dc:format><dc:type
           rdf:resource="https://purl.org/dc/dcmitype/StillImage" /><dc:title /></cc:Work></rdf:RDF></metadata><defs
     id="defs6"><clipPath
       clipPathUnits="userSpaceOnUse"
       id="clipPath18"><path
         d="M 0,2494.84 0,0 l 1804.34,0 0,2494.84 -1804.34,0 z"
         id="path20"
         inkscape:connector-curvature="0" /></clipPath></defs><sodipodi:namedview
     pagecolor="#ffffff"
     bordercolor="#666666"
     borderopacity="1"
     objecttolerance="10"
     gridtolerance="10"
     guidetolerance="10"
     inkscape:pageopacity="0"
     inkscape:pageshadow="2"
     inkscape:window-width="1500"
     inkscape:window-height="844"
     id="namedview4"
     showgrid="false"
     inkscape:zoom="1"
     inkscape:cx="-65.859116"
     inkscape:cy="172.53076"
     inkscape:window-x="2189"
     inkscape:window-y="496"
     inkscape:window-maximized="0"
     inkscape:current-layer="g10" /><g
     id="g10"
     inkscape:groupmode="layer"
     inkscape:label="ink_ext_XXXXXX"
     transform="matrix(1.25,0,0,-1.25,0,312)"><g
       id="g3393"><path
         d="m 95.3887,214.532 c -9.0852,2.116 -13.5996,-3.802 -16.3535,-9.94 -2.459,0.596 -1.4805,3.94 -0.8594,5.644 1.6262,4.472 8.1797,10.425 13.5344,9.618 2.3043,-0.347 5.4226,-2.454 3.6785,-5.322"
         style="fill:#231f20;fill-opacity:1;fill-rule:evenodd;stroke:none"
         id="path100"
         inkscape:connector-curvature="0" /><path
         d="m 139.655,204.186 c 0.143,-0.006 0.288,-0.011 0.431,-0.017 2.053,-4.265 3.83,-8.783 6.42,-12.548 -1.735,-4.041 -13.138,-7.617 -12.962,-0.361 2.466,1.078 6.723,0.22 8.909,1.597 -1.264,3.469 -3.088,6.422 -2.798,11.329"
         style="fill:#231f20;fill-opacity:1;fill-rule:evenodd;stroke:none"
         id="path102"
         inkscape:connector-curvature="0" /><path
         d="m 100.04,204.075 c 1.948,-3.571 2.582,-7.323 5.351,-10.022 1.247,-1.215 3.672,-2.696 2.47,-6.075 -0.281,-0.797 -2.334,-2.574 -3.519,-2.923 -4.329,-1.278 -14.4162,-0.264 -11.0002,5.133 3.5801,-0.167 8.3922,-2.325 11.0682,0.274 -2.055,3.285 -5.7186,9.784 -4.37,13.613"
         style="fill:#231f20;fill-opacity:1;fill-rule:evenodd;stroke:none"
         id="path104"
         inkscape:connector-curvature="0" /><path
         d="m 138.03,167.781 c -6.518,-4.187 -13.786,-8.74 -24.466,-7.684 -2.282,1.984 -3.152,6.399 -0.935,9.315 1.154,-1.984 0.429,-5.633 3.645,-6.182 6.06,-1.037 13.113,3.707 17.472,5.365 2.703,4.557 -0.233,6.233 -2.668,9.166 -4.985,6.009 -11.672,13.457 -11.429,22.453 2.015,1.461 2.189,-2.23 2.478,-2.902 2.603,-6.092 9.154,-13.883 13.935,-19.097 1.174,-1.284 3.107,-2.516 3.322,-3.365 0.62,-2.469 -1.613,-5.427 -1.354,-7.069"
         style="fill:#231f20;fill-opacity:1;fill-rule:evenodd;stroke:none"
         id="path106"
         inkscape:connector-curvature="0" /><path
         d="m 52.1016,172.189 c -2.043,1.166 -2.5293,6.302 -4.9278,6.448 -3.4277,0.208 -2.8027,-6.663 -2.789,-10.681 -2.3594,2.142 -2.7743,8.737 -1.041,12.124 -1.9754,0.97 -2.8575,-1.07 -3.9532,-1.789 1.4082,10.23 14.9649,4.745 12.711,-6.102"
         style="fill:#231f20;fill-opacity:1;fill-rule:evenodd;stroke:none"
         id="path108"
         inkscape:connector-curvature="0" /><path
         d="m 142.18,163.521 c -3.034,-5.775 -7.326,-12.135 -16.229,-12.32 -0.181,1.865 -0.32,4.703 0.01,5.826 6.806,0.654 11.008,4.118 16.219,6.494"
         style="fill:#231f20;fill-opacity:1;fill-rule:evenodd;stroke:none"
         id="path110"
         inkscape:connector-curvature="0" /><path
         d="m 99.5266,159.777 c 5.6784,-2.986 16.1144,-3.307 23.8324,-3.081 0.414,-1.691 0.404,-3.78 0.42,-5.842 -9.921,-0.495 -21.651,1.96 -24.2524,8.923"
         style="fill:#231f20;fill-opacity:1;fill-rule:evenodd;stroke:none"
         id="path112"
         inkscape:connector-curvature="0" /><path
         d="m 98.4473,154.209 c 3.9267,-9.859 17.4227,-8.724 28.8037,-8.452 -0.501,-1.28 -1.587,-2.792 -2.937,-3.339 -3.647,-1.484 -13.706,-2.61 -18.769,0.079 -3.211,1.707 -5.274,5.564 -7.0333,7.825 -0.8496,1.092 -5.0801,3.881 -0.0644,3.887"
         style="fill:#231f20;fill-opacity:1;fill-rule:evenodd;stroke:none"
         id="path114"
         inkscape:connector-curvature="0" /><path
         d="m 162.352,71.4609 c -5.159,-1.0328 -8.784,-6.0468 -13.817,-5.725 2.766,3.8993 7.613,5.543 13.817,5.725"
         style="fill:#231f20;fill-opacity:1;fill-rule:evenodd;stroke:none"
         id="path118"
         inkscape:connector-curvature="0" /><path
         d="m 164.628,63.3871 c -4.205,-0.4441 -9.144,-1.125 -13.409,-0.7742 2.019,3.084 9.798,2.0199 13.409,0.7742"
         style="fill:#231f20;fill-opacity:1;fill-rule:evenodd;stroke:none"
         id="path120"
         inkscape:connector-curvature="0" /><path
         d="m 166.085,56.4262 c -4.726,-0.1024 -10.6,-0.0082 -15.092,0.3687 2.657,2.8539 12.027,1.059 15.092,-0.3687"
         style="fill:#231f20;fill-opacity:1;fill-rule:evenodd;stroke:none"
         id="path122"
         inkscape:connector-curvature="0" /><path
         d="m 123.02,36.516 c -0.221,-5.266 0.518,-13.7109 0.765,-19.2351 3.501,-0.0047 5.002,0.766 7.615,1.6472 0.295,6.5 -2.058,12.5137 -2.736,18.4489 -1.383,0.3691 -3.922,-0.975 -5.644,-0.861 z M 68.5059,66.4648 C 70.8145,45.2418 74.1582,27.4012 80.291,8.60781 93.9023,4.475 110.311,4.11484 122.342,7.84414 120.133,18.4512 121.098,31.3648 119.807,42.684 c -0.973,8.5078 -0.477,17.068 -1.811,25.748 -14.578,3.0328 -35.1835,0.709 -49.4901,-1.9672 z m 52.9371,1.834 c -0.123,-9.1148 0.408,-18.1058 1.104,-27.232 3.5,0.5254 5.875,0.8762 9.127,1.5891 -1.056,8.7859 -0.926,18.6722 -3.077,26.4441 -2.486,-0.0238 -4.675,0.0289 -7.154,-0.8012 z m 17.755,1.4692 c -1.661,0.3808 -3.595,0.0148 -5.182,-0.016 0.746,-7.4301 2.556,-15.629 3.193,-23.4282 2.497,-0.0777 3.831,1.1 5.885,1.4961 0.11,6.8461 -0.598,16.2781 -3.896,21.9481 z m 26.884,-24.5629 c 5.205,1.264 8.478,7.639 7.022,14.1859 -0.977,4.4 -2.717,12.6852 -4.579,15.5 -1.376,2.082 -5.107,4.8078 -8.086,2.9 -4.846,-3.1031 -13.383,-4.0039 -16.917,-7.7601 1.772,-5.9 2.322,-14.0039 3.053,-21.4797 6.054,-0.3774 13.503,1.666 18.538,-0.5024 -3.515,-1.1386 -8.076,-1.1476 -11.113,-2.807 2.482,-1.1988 8.293,-0.9566 12.082,-0.0367 z M 117.679,76.859 c -3.656,8.598 -6.976,17.5078 -12.435,24.436 C 99.9551,97.748 94.1309,94.4121 92.6445,87.9711 100.215,83.6879 109.041,79.4629 117.679,76.859 z m 9.012,26.625 c -0.346,-8.5988 -1.327,-19.8781 -3.619,-26.6172 5.467,6.9613 9.876,15.0672 14.484,22.9594 -1.964,3.1528 -6.07,5.9018 -10.865,3.6578 z m -10.216,3.63 c -2.071,0.223 -3.829,-2.381 -6.522,-1.255 -0.617,-0.682 -1.178,-1.421 -1.807,-2.087 5.948,-7.1681 8.651,-17.338 13.245,-25.7618 2.465,8.0918 2.181,16.957 2.724,25.7888 -3.387,-0.215 -5.266,3.063 -7.64,3.315 z m -6.569,8.67 c -0.221,-2.455 0.35,-3.258 0.844,-6.072 8.07,-2.523 6.661,11.076 -0.844,6.072 z m -8.949,2.938 c -3.4773,1.9 -8.7011,3.969 -13.1925,4.826 -5.5672,1.065 -5.0457,-7.594 -4.8094,-12.76 0.1855,-4.09 2.3125,-8.415 3.2363,-11.1321 0.4336,-1.2688 0.5313,-2.6149 1.616,-2.8668 1.9172,-0.4469 8.2414,2.082 10.0434,3.0648 3.8112,2.0781 6.7682,5.3781 10.0052,7.5941 0.042,1.078 0.083,2.155 0.126,3.233 -1.946,0.97 -4.195,1.658 -7.052,1.783 1.938,0.975 4.789,0.961 6.555,2.121 0.017,0.432 0.035,0.863 0.05,1.291 -3.224,0.248 -4.453,1.684 -6.578,2.846 z m -33.2136,6.033 c -2.886,-2.93 8.0945,-6.924 11.5906,-7.139 -0.0195,1.854 1.0566,3.602 0.8398,4.932 -4.1523,0.729 -9.6093,0.248 -12.4304,2.207 z m 35.5516,-1.376 c -0.014,-0.286 -0.387,-0.182 -0.448,-0.415 3.713,-2.902 6.471,-3.502 11.525,-3.252 2.279,1.654 4.3,3.588 6.673,5.137 -5.463,-0.488 -12.34,-3.881 -17.75,-1.47 z m 32.632,-9.895 c -0.156,3.255 -1.011,9.949 -3.023,11.121 -4.223,2.465 -11.73,-4.977 -14.91,-6.112 0.346,-0.996 0.917,-1.785 0.961,-3.058 1.881,0.463 4.171,0.146 5.801,-0.655 -1.885,-0.211 -3.975,-0.197 -5.222,-1.095 -0.457,-1.321 0.112,-3.121 -0.192,-4.955 4.474,-1.262 9.584,-1.934 15.24,-2.1 1.1,1.43 1.475,4.154 1.345,6.854 z m -73.0422,8.437 c -0.9063,0.646 -7.0371,8.623 -7.877,8.292 C 43.9141,125.838 33.541,118.273 24.2715,111.118 33.1094,92.1539 36.677,68.9199 37.3074,46.5262 47.4316,41.791 56.3242,34.9648 70.0625,34.252 68.4727,45.5 67.0215,55.5352 66.1191,66.125 c -3.4519,1.4551 -8.4043,-0.066 -11.6347,0.4512 -0.0274,3.8929 4.9336,1.7047 5.3468,4.3226 0.3114,1.9801 -2.7296,2.1301 -1.7394,5.2481 2.5254,-0.918 3.8516,-2.9457 6.5449,-3.7071 2.461,5.384 -0.0344,14.9102 0.3203,19.4102 0.0672,0.8449 0.4219,4.6809 2.3145,4.0078 1.675,-0.5957 -0.0957,-10.2019 0.0879,-14.4609 0.1672,-3.9239 -0.4739,-7.7207 1.1152,-10.184 13.2754,1.807 26.7656,2.975 41.1294,3.3691 -3.16,1.3559 -6.914,2.6391 -11.0298,4.959 -2.2312,1.2578 -9.2644,3.875 -9.9082,5.9942 -1.0273,3.3769 2.6953,5.1757 3.332,8.0707 -6.7011,-3.6547 -8.0085,3.5031 -9.5937,8.5741 -1.4363,4.593 -2.2539,8.024 -2.6063,10.673 -5.7726,2.752 -11.9445,5.539 -16.9132,9.068 z m 67.1792,7.327 c 9.243,4.482 10.909,-16.751 7.286,-23.591 0.56,-2.04 2.486,-2.821 3.272,-4.655 -5.158,-9.2399 -10.887,-17.8649 -16.15,-26.9961 3.915,2.4371 9.507,0.4359 14.114,2.2601 1.684,0.666 2.903,4.5211 4.178,7.6051 3.507,8.4848 7.189,19.1819 8.827,27.2789 0.37,1.845 1.378,5.865 1.152,7.507 -0.403,2.94 -4.392,5.12 -6.421,6.938 -3.738,3.358 -6.092,6.313 -9.991,9.453 -1.581,-2.334 -4.974,-3.902 -6.267,-5.8 z m -88.3179,81.968 c -4.4043,-4.846 -3.4824,-13.926 -2.9492,-20.386 7.9609,5.008 18.5273,-0.396 18.4277,-8.914 3.8008,0.101 1.4199,4.747 0.7324,7.74 -2.2468,9.776 3.7852,20.397 0.2735,29.337 -6.8184,-0.517 -12.42,-3.302 -16.4844,-7.777 z m 31.5137,28.126 c -9.9707,-2.826 -22.7493,-10.071 -26.8465,-19.028 3.1726,0.461 5.375,2.061 8.5047,2.259 1.1828,0.077 2.7324,-0.496 4.0918,-0.158 2.709,0.672 4.9953,6.746 7.039,9.006 1.9922,2.207 4.3867,3.15 6.0254,5.162 1.0528,0.508 2.6094,0.473 2.6692,2.054 -0.4563,0.488 -0.9368,0.86 -1.4836,0.705 z m 51.9032,-2.658 c -10.349,5.839 -27.8661,10.231 -38.8747,4.743 -8.8828,-4.429 -20.8899,-11.757 -24.9836,-21.043 3.8242,-8.961 -1.1328,-17.172 -1.4492,-26.27 -0.168,-4.841 2.2793,-9.067 2.4668,-14.337 -1.3086,-2.159 -5.3067,-2.425 -8.0743,-2.277 -0.9316,4.662 -2.5625,9.902 -7.3632,10.428 -6.793,0.743 -11.7598,-4.879 -12.0684,-10.754 -0.3652,-6.909 5.3066,-18.36 13.3457,-17.565 3.1055,0.307 3.8684,3.42 7.252,3.388 1.8339,-3.659 -2.8289,-4.808 -3.3086,-7.425 -0.125,-0.676 0.3867,-3.318 0.6843,-4.557 1.4602,-6.033 4.7153,-13.841 7.9192,-18.434 4.0664,-5.826 12.0555,-6.704 20.6504,-7.275 1.5351,3.307 7.1902,3.035 10.875,2.17 -4.416,1.749 -8.5215,5.989 -11.9239,9.742 -3.9082,4.306 -7.8671,8.925 -8.0671,14.553 7.3855,-10.246 13.4871,-19.194 26.9168,-23.701 10.1618,-3.408 22.0298,1.562 29.8378,7.045 3.24,2.279 5.174,5.895 7.477,9.205 8.617,12.395 12.638,30.087 11.754,47.235 -0.364,7.072 -0.348,14.12 -2.721,18.878 -2.48,4.975 -10.868,9.426 -15.778,4.926 -0.91,4.838 4.083,7.83 9.948,6.089 -4.182,5.397 -8.571,11.882 -14.515,15.236 z M 144.444,77.1168 c 8.087,4.0203 23.197,10.8211 28.267,-0.0148 1.871,-3.9942 4.066,-10.7461 5.035,-14.8692 1.369,-5.8168 -1.484,-18.043 -7.463,-19.9949 -5.281,-1.7238 -11.443,-1.6188 -17.804,-0.341 -0.749,0.623 -1.583,1.709 -2.166,2.841 -4.542,0.1762 -8.795,-0.2438 -12.383,-2.1109 0.34,-3.359 -1.932,-3.8981 -4.062,-4.5899 -1.579,-6.2609 3.159,-14.4371 2.025,-20.1461 -0.809,-4.0672 -5.813,-4.6961 -9.491,-5.457 -0.12,-2.2602 0.161,-4.14689 0.412,-6.059 -0.841,-3.09883 -4.613,-4.86289 -8.187,-5.29492 -11.759,-1.414064 -29.6133,-2.049221 -40.9239,2.01797 -3.1562,7.74175 -5.6426,17.15785 -8.2715,25.99805 -11.0312,-1.1781 -19.9531,4.7598 -28.364,8.65 -2.9121,1.35 -6.9406,2.0937 -8.0285,4.4117 -1.0547,2.2442 -0.6231,6.5453 -0.8848,10.6082 -0.666,10.377 -1.2363,20.386 -3.9766,31.011 -1.2304,4.7679 -3.375,8.975 -4.8711,13.5691 -1.3828,4.2579 -3.7988,9.5199 -4.4289,13.7659 -0.9343,6.293 4.9914,6.643 8.7805,9.37 5.8574,4.217 10.4551,6.549 16.7988,10.355 1.8789,1.127 7.545,3.98 8.1895,5.294 1.2812,2.605 -2.1992,6.278 -3.1297,8.32 -1.4719,3.229 -2.2395,5.972 -2.4504,9.158 -5.3215,0.841 -9.3555,4.008 -11.7922,7.579 -4.0308,5.91 -6.8262,16.844 -3.3387,25.161 0.2735,0.655 1.6375,1.943 1.8387,2.949 0.3969,1.981 -0.7469,4.615 -0.818,6.722 -0.3664,10.81 1.829,20.124 9.1063,23.384 2.9543,11.769 13.5281,15.682 23.4902,21.531 3.7239,2.186 7.8289,3.583 12.0684,5.143 15.2082,5.597 38.5419,4.543 51.1639,-5.003 5.352,-4.048 13.907,-12.595 16.967,-18.783 8.082,-16.337 7.508,-43.64 1.855,-63.513 -0.76,-2.668 -1.862,-6.59 -3.401,-9.795 -1.073,-2.238 -4.408,-6.716 -4.003,-8.692 0.417,-2.043 7.604,-7.5 9.145,-8.986 2.775,-2.677 8.047,-6.23 8.474,-9.608 0.459,-3.595 -1.584,-8.513 -2.619,-11.982 -3.46,-11.5769 -6.836,-22.2781 -10.759,-32.5992"
         style="fill:#231f20;fill-opacity:1;fill-rule:evenodd;stroke:none"
         id="path130"
         inkscape:connector-curvature="0" /><path
         d="m 119.717,99.934 c 0,-1.0121 -0.821,-1.8328 -1.834,-1.8328 -1.012,0 -1.833,0.8207 -1.833,1.8328 0,1.012 0.821,1.834 1.833,1.834 1.013,0 1.834,-0.822 1.834,-1.834"
         style="fill:#1d1919;fill-opacity:1;fill-rule:evenodd;stroke:none"
         id="path134"
         inkscape:connector-curvature="0" /><path
         d="m 121.55,91.434 c 0,-1.0121 -0.821,-1.8328 -1.834,-1.8328 -1.012,0 -1.833,0.8207 -1.833,1.8328 0,1.0121 0.821,1.834 1.833,1.834 1.013,0 1.834,-0.8219 1.834,-1.834"
         style="fill:#1d1919;fill-opacity:1;fill-rule:evenodd;stroke:none"
         id="path136"
         inkscape:connector-curvature="0" /></g></g></svg>