<svg width="692" height="628" viewBox="0 0 692 628" fill="none" xmlns="http://www.w3.org/2000/svg">
<path d="M691.615 41.5416C691.615 44.1072 691.163 46.4448 690.262 48.5525C689.361 50.6624 688.138 52.4648 686.596 53.9623C685.053 55.4597 683.265 56.6194 681.233 57.4453C679.2 58.2693 677.07 58.6824 674.84 58.6824C672.364 58.6824 670.096 58.2469 668.033 57.3762C665.972 56.5054 664.198 55.3071 662.717 53.7771C661.234 52.2512 660.074 50.4406 659.234 48.347C658.393 46.2535 657.972 43.9851 657.972 41.5416C657.972 38.9741 658.424 36.6365 659.325 34.5287C660.226 32.4189 661.449 30.6163 662.991 29.1189C664.533 27.6235 666.33 26.4619 668.377 25.6359C670.423 24.8119 672.578 24.3989 674.84 24.3989C677.07 24.3989 679.2 24.8119 681.233 25.6359C683.265 26.4619 685.053 27.6235 686.596 29.1189C688.138 30.6163 689.361 32.4189 690.262 34.5287C691.163 36.6365 691.615 38.9741 691.615 41.5416ZM687.949 41.5416C687.949 39.4624 687.611 37.554 686.939 35.8125C686.268 34.0688 685.336 32.5735 684.144 31.3203C682.952 30.067 681.562 29.0966 679.973 28.4089C678.384 27.7212 676.673 27.3774 674.84 27.3774C672.975 27.3774 671.241 27.7212 669.638 28.4089C668.033 29.0966 666.635 30.067 665.443 31.3203C664.253 32.5735 663.319 34.0688 662.647 35.8125C661.976 37.554 661.64 39.4624 661.64 41.5416C661.64 43.4968 661.946 45.3298 662.556 47.0409C663.166 48.752 664.045 50.2493 665.193 51.5331C666.338 52.8148 667.719 53.832 669.339 54.5808C670.958 55.3295 672.792 55.7039 674.84 55.7039C676.673 55.7039 678.384 55.36 679.973 54.6724C681.562 53.9846 682.952 53.0142 684.144 51.761C685.336 50.5098 686.268 49.0184 686.939 47.2932C687.611 45.5659 687.949 43.6494 687.949 41.5416ZM671.449 51.3479H668.332V32.3741H675.528C677.819 32.3741 679.544 32.8014 680.706 33.658C681.867 34.5125 682.447 35.9041 682.447 37.8286C682.447 39.5397 681.973 40.793 681.027 41.5864C680.079 42.3818 678.903 42.8539 677.497 43.0065L682.816 51.3479H679.286L674.38 43.2363H671.449V51.3479ZM674.932 40.5773C675.512 40.5773 676.069 40.5549 676.604 40.5101C677.139 40.4634 677.605 40.3331 678.002 40.1195C678.399 39.9059 678.72 39.6089 678.964 39.2263C679.208 38.8439 679.33 38.3027 679.33 37.5988C679.33 37.0189 679.2 36.5612 678.942 36.2234C678.681 35.8877 678.354 35.6273 677.957 35.4442C677.558 35.2611 677.115 35.1472 676.627 35.1003C676.138 35.0557 675.664 35.0332 675.207 35.0332H671.449V40.5773H674.932Z" fill="#AB2B28"/>
<path d="M629.704 11.4258C663.464 45.1704 569.878 193.488 554.061 209.315C538.237 225.112 498.059 210.58 464.31 176.827C430.554 143.082 416.014 102.892 431.834 87.0718C447.65 71.2448 595.959 -22.3269 629.704 11.4258Z" fill="#AB2B28"/>
<path d="M156.329 47.1289C104.789 17.8866 31.4643 -14.64 8.13496 8.68847C-15.507 32.3186 18.2147 107.302 47.762 158.933C74.0557 113.215 111.466 74.7292 156.329 47.1289Z" fill="#AB2B28"/>
<path d="M578.227 197.673C582.969 213.771 582.113 227.07 574.422 234.749C556.44 252.735 507.881 233.592 464.11 191.93C461.049 189.193 458.023 186.348 455.043 183.365C439.22 167.529 426.9 150.668 419.024 135.149C403.69 107.649 399.854 83.3556 411.446 71.7687C417.76 65.4546 427.863 63.7351 440.187 65.9551C448.228 60.8749 457.711 55.2081 468.115 49.4103C425.809 27.3457 377.713 14.8794 326.683 14.8794C157.453 14.8794 20.25 152.056 20.25 321.305C20.25 490.529 157.453 627.721 326.683 627.721C495.92 627.721 633.119 490.529 633.119 321.305C633.119 266.651 618.776 215.398 593.712 170.968C588.299 180.851 583.031 189.91 578.227 197.673Z" fill="#AB2B28"/>
</svg>
