<?xml version="1.0" encoding="UTF-8"?>
<svg width="33px" height="27px" viewBox="0 0 33 27" version="1.1" xmlns="http://www.w3.org/2000/svg" xmlns:xlink="http://www.w3.org/1999/xlink">
    <title>google-cloud</title>
    <g id="Page-1" stroke="none" stroke-width="1" fill="none" fill-rule="evenodd">
        <g id="google-cloud" transform="translate(0.0448, 0.1439)" fill-rule="nonzero">
            <path d="M20.8052488,7.26613263 L21.8052488,7.26613263 L24.6552488,4.41613263 L24.7952488,3.20613263 C21.4759683,0.276417876 16.8791857,-0.731667162 12.6385039,0.54013041 C8.39782205,1.81192798 5.11445662,5.18330118 3.95524878,9.45613263 C4.27275154,9.32599414 4.62446324,9.30489144 4.95524878,9.39613263 L10.6552488,8.45613263 C10.6552488,8.45613263 10.9452488,7.97613263 11.0952488,8.00613263 C13.6307516,5.22149932 17.8977826,4.89697692 20.8252488,7.26613263 L20.8052488,7.26613263 Z" id="Path" fill="#EA4335"></path>
            <path d="M28.7152488,9.45613263 C28.0601622,7.04376565 26.7151577,4.87507615 24.8452488,3.21613263 L20.8452488,7.21613263 C22.5343134,8.5962576 23.496428,10.6753097 23.4552488,12.8561326 L23.4552488,13.5661326 C25.4213825,13.5661326 27.0152488,15.1599989 27.0152488,17.1261326 C27.0152488,19.0922663 25.4213825,20.6861326 23.4552488,20.6861326 L16.3352488,20.6861326 L15.6252488,21.4061326 L15.6252488,25.6761326 L16.3352488,26.3861326 L23.4552488,26.3861326 C27.5375886,26.4179156 31.1590967,23.772495 32.3703669,19.8738628 C33.5816372,15.9752306 32.0968515,11.74333 28.7152488,9.45613263 Z" id="Path" fill="#4285F4"></path>
            <path d="M9.20524878,26.3461326 L16.3252488,26.3461326 L16.3252488,20.6461326 L9.20524878,20.6461326 C8.69798104,20.6460205 8.19666181,20.5368898 7.73524878,20.3261326 L6.73524878,20.6361326 L3.86524878,23.4861326 L3.61524878,24.4861326 C5.22468063,25.7014396 7.18852733,26.3548842 9.20524878,26.3461326 L9.20524878,26.3461326 Z" id="Path" fill="#34A853"></path>
            <path d="M9.20524878,7.85607369 C5.25033179,7.87975766 1.74697093,10.4125759 0.484784459,14.1607504 C-0.777402006,17.9089248 0.480231277,22.0449935 3.61524878,24.4561326 L7.74524878,20.3261326 C6.30228093,19.6742041 5.46332321,18.1475858 5.6865481,16.5799961 C5.90977299,15.0124063 7.14152247,13.7806568 8.70911222,13.5574319 C10.276702,13.3342071 11.8033203,14.1731648 12.4552488,15.6161326 L16.5852488,11.4861326 C14.828036,9.188905 12.0974703,7.84582185 9.20524878,7.85607369 Z" id="Path" fill="#FBBC05"></path>
        </g>
    </g>
</svg>