<?xml version="1.0" encoding="UTF-8"?>
<svg width="777px" height="754px" viewBox="0 0 777 754" version="1.1" xmlns="http://www.w3.org/2000/svg" xmlns:xlink="http://www.w3.org/1999/xlink">
    <title>Combined Shape</title>
    <g id="Page-1" stroke="none" stroke-width="1" fill="none" fill-rule="evenodd">
        <g id="kubernetes" transform="translate(-0.0002, -0)" fill="#2651d6" fill-rule="nonzero">
            <path d="M385.806722,0.0664545677 C394.446816,-0.37041714 403.05916,1.35205105 410.853346,5.07577728 L681.011331,134.074486 C695.173903,140.838118 705.460647,153.629793 708.959897,168.828824 L775.704811,458.747732 C779.204596,473.953801 775.529542,489.912957 765.720718,502.104292 L578.821133,734.606039 C569.010624,746.77832 554.147574,753.860199 538.43562,753.848747 L238.601714,753.917789 C222.88388,753.917789 208.019782,746.825755 198.216201,734.640528 L11.2475197,502.173387 C10.2022409,500.862844 9.22223601,499.502364 8.31101964,498.096826 C0.718694692,486.480957 -1.8110026,472.312162 1.29796679,458.816827 L67.9392404,168.897919 C71.4384921,153.698887 81.7252393,140.907211 95.8878141,134.14358 L366.011257,5.07577728 C372.207694,2.11555477 378.937789,0.412476713 385.806722,0.0664545677 Z M388.483391,98.7296074 C379.554192,98.7296074 372.314238,106.773234 372.315293,116.694134 C372.315304,116.846395 372.346436,116.99189 372.349814,117.143243 C372.336618,118.491259 372.271588,120.115241 372.315293,121.288889 C372.528236,127.010989 373.77556,131.390437 374.526311,136.66233 C375.886392,147.945855 377.026047,157.299208 376.32276,165.992788 C375.638792,169.271051 373.224154,172.269198 371.071601,174.353174 L370.691586,181.193488 C360.988759,181.997382 351.221029,183.46944 341.464774,185.684606 C299.483625,195.216475 263.33859,216.841158 235.819877,246.038315 C234.034238,244.820128 230.910285,242.579034 229.981366,241.89267 C227.0947,242.282492 224.177229,243.173164 220.377289,240.959898 C213.141852,236.089451 206.551968,229.366539 198.57809,221.26808 C194.924416,217.394179 192.278562,213.705297 187.937593,209.97119 C186.951794,209.123189 185.447358,207.97625 184.344705,207.103779 C180.95093,204.397983 176.948097,202.986859 173.082367,202.854497 C168.112126,202.68431 163.327442,204.627563 160.196311,208.554755 C154.629861,215.536447 156.412037,226.207538 164.169225,232.392229 C164.247979,232.454937 164.331758,232.503646 164.411051,232.56496 C165.477008,233.429049 166.782321,234.53622 167.762113,235.25964 C172.368618,238.660784 176.576538,240.401841 181.166374,243.10182 C190.836231,249.073548 198.852664,254.025167 205.211131,259.995333 C207.694114,262.642094 208.128096,267.305955 208.458547,269.323032 L213.640611,273.952339 C185.899688,315.700309 173.060958,367.267484 180.648222,419.810018 L173.877003,421.779199 C172.092387,424.08375 169.570598,427.709945 166.932988,428.792255 C158.613912,431.41253 149.251259,432.374745 137.948003,433.559741 C132.641241,434.001007 128.062374,433.737677 122.436373,434.803434 C121.198127,435.038007 119.472831,435.487497 118.117996,435.8053 L117.979807,435.839821 C117.905909,435.856923 117.808944,435.892817 117.737981,435.908863 C108.208361,438.211408 102.086514,446.970557 104.057342,455.600691 C106.028634,464.232842 115.336972,469.482269 124.923768,467.415786 C124.993021,467.399951 125.093459,467.397312 125.165594,467.381265 C125.273823,467.356457 125.369109,467.303989 125.476514,467.277703 C126.812907,466.984349 128.487667,466.657962 129.656712,466.344931 C135.187934,464.863962 139.193849,462.687962 144.166476,460.782861 C154.864392,456.945899 163.724792,453.740542 172.356879,452.49156 C175.962129,452.209196 179.76057,454.716016 181.650036,455.773539 L188.697634,454.564388 C204.915603,504.845907 238.90325,545.486738 281.940138,570.987972 L279.003643,578.03557 C280.062073,580.77216 281.229482,584.474808 280.441043,587.177352 C277.302859,595.315199 271.927573,603.904731 265.806666,613.480854 C262.842966,617.905 259.809813,621.338353 257.13535,626.401452 C256.495372,627.612968 255.680309,629.474004 255.062532,630.754382 C250.907112,639.645259 253.955213,649.885377 261.937399,653.728178 C269.96972,657.595101 279.939972,653.51665 284.254791,644.607752 C284.261125,644.595189 284.283189,644.585899 284.289312,644.573231 L284.289312,644.53871 C284.903901,643.275614 285.774598,641.615348 286.293046,640.427617 C288.583799,635.179752 289.346025,630.682511 290.956895,625.606922 C295.234786,614.861258 297.585143,603.586326 303.474074,596.560749 C305.086654,594.63691 307.715691,593.897033 310.44144,593.167238 L314.103423,586.534207 C351.622348,600.935404 393.618773,604.799878 435.570881,595.274608 C445.141209,593.101659 454.380442,590.289386 463.312164,586.914223 C464.341373,588.739777 466.254064,592.249066 466.766873,593.132696 C469.536823,594.033882 472.560212,594.499249 475.023622,598.142018 C479.429494,605.669383 482.442557,614.574428 486.113229,625.330555 C487.724363,630.406048 488.520593,634.90349 490.811631,640.151239 C491.333805,641.347341 492.200142,643.030927 492.815354,644.296884 C497.121104,653.234719 507.122943,657.327115 515.167298,653.451852 C523.148502,649.607014 526.199961,639.367825 522.042165,630.478066 C521.424315,629.197731 520.574826,627.33661 519.934795,626.125137 C517.260068,621.062186 514.2274,617.663058 511.263479,613.239081 C505.142065,603.663275 500.065063,595.708304 496.926457,587.570616 C495.884293,584.2376 496.636956,581.905284 497.502999,579.720263 L497.696636,579.236781 C497.728992,579.156489 497.761333,579.076313 497.793573,578.996208 L497.98512,578.516097 C498.048111,578.356117 498.110015,578.196078 498.170149,578.035633 C497.557947,577.333887 496.247883,573.370295 495.47548,571.506239 C540.20137,545.097739 573.190951,502.941335 588.683442,454.253521 C590.775494,454.582324 594.411665,455.225659 595.592851,455.462671 C598.024453,453.858916 600.260226,451.766389 604.644182,452.111609 C613.276322,453.360126 622.136468,456.566496 632.834574,460.402899 C637.807307,462.307757 641.813053,464.518837 647.344338,465.999521 C648.513404,466.312479 650.188122,466.60446 651.524536,466.897751 C651.631994,466.924037 651.727175,466.976716 651.835456,467.001314 C651.907665,467.017466 652.008082,467.019999 652.077293,467.035834 C661.664638,469.099763 670.974633,463.853407 672.943708,455.22074 C674.91233,446.590099 668.793313,437.828912 659.26308,435.528922 C657.876849,435.213705 655.910909,434.678367 654.564678,434.423408 C648.938624,433.357947 644.359841,433.620707 639.053047,433.179715 C627.749738,431.9953 618.387275,431.032061 610.068072,428.412229 C606.676092,427.096359 604.263027,423.06021 603.089506,421.399173 L596.560112,419.499087 C599.945463,395.007247 599.032633,369.517689 593.174497,344.013763 C587.261824,318.272381 576.812607,294.729381 562.876735,273.986881 C563.53473,273.388715 564.422395,272.593256 565.312104,271.797879 L565.796234,271.365232 C567.000225,270.289566 568.131058,269.280784 568.611546,268.83937 C568.627435,268.663549 568.641535,268.487212 568.654671,268.310353 L568.692017,267.778196 L568.728548,267.242861 C568.898548,264.826639 569.19453,262.312632 571.651688,259.684402 C578.009828,253.713898 586.026894,248.763124 595.696434,242.790889 C600.286133,240.090668 604.528922,238.350095 609.135237,234.948708 C610.176903,234.179536 611.599302,232.961454 612.693583,232.081298 C620.449135,225.894527 622.234742,215.22408 616.666497,208.243824 C611.098253,201.263579 600.308197,200.606077 592.552656,206.792848 C591.448736,207.667145 589.950813,208.807655 588.959757,209.660258 C584.618989,213.394609 581.938192,217.083058 578.284718,220.957149 C570.311273,229.05603 563.720713,235.812681 556.48553,240.683519 C553.350303,242.508768 548.758081,241.877215 546.674105,241.75447 L540.524727,246.141952 C505.459415,209.372194 457.717189,185.863735 406.309633,181.297072 C406.165849,179.142745 405.977483,175.248659 405.929618,174.076732 C403.825056,172.062885 401.282712,170.343596 400.643917,165.992725 C399.94063,157.299144 401.114827,147.945792 402.474909,136.662266 C403.225659,131.390374 404.472983,127.010926 404.685926,121.288825 C404.734382,119.988062 404.656683,118.100539 404.651405,116.69407 C404.650349,106.773171 397.412517,98.7296074 388.483391,98.7296074 Z M394.632696,468.832294 C397.46225,470.194857 399.648078,472.340274 401.023901,474.912568 L401.334821,474.912568 L442.480375,549.257836 C437.140453,551.047909 431.650741,552.577756 426.035972,553.852602 C394.568268,560.997376 363.200547,558.832534 334.797191,549.1542 L375.839098,474.94712 L375.90814,474.94712 C378.370843,470.343339 383.041385,467.596752 387.96506,467.41586 C390.203156,467.333622 392.474083,467.792814 394.632696,468.832294 Z M462.13765,433.076026 L462.275839,432.903295 L546.467011,447.13668 C534.145599,481.753494 510.56813,511.742637 479.065704,531.811514 L446.384194,452.871491 L446.487757,452.733302 C443.48563,445.757575 446.489868,437.577311 453.397166,434.250634 C455.165587,433.398939 457.013152,432.927333 458.855598,432.8342 C459.961154,432.778354 461.061801,432.878011 462.13765,433.076026 Z M317.45457,433.179726 C323.879482,433.269723 329.642353,437.729108 331.135208,444.26928 C331.834093,447.331063 331.493941,450.364755 330.340626,453.044233 L330.582452,453.355153 L298.246404,531.500594 C268.013967,512.100515 243.933718,483.052874 231.05238,447.413111 L314.518075,433.248821 L314.656264,433.421552 C315.58987,433.24975 316.536725,433.166847 317.45457,433.179726 Z M401.47301,363.670996 L417.641034,383.881018 L411.837129,409.100374 L388.483317,420.32817 L365.060412,409.065821 L359.256506,383.846476 L375.459083,363.670996 L401.47301,363.670996 Z M245.56225,302.488205 L309.059632,359.283567 L308.99059,359.62904 C314.721949,364.611528 315.56712,373.257655 310.787039,379.251774 C308.828975,381.707151 306.207951,383.35401 303.393968,384.122908 L303.324926,384.399286 L221.93206,407.891276 C217.789423,370.010937 226.717303,333.188225 245.56225,302.488205 Z M530.955466,302.522726 C540.389884,317.8147 547.534162,334.894297 551.787265,353.410536 C555.989358,371.704752 557.043935,389.966264 555.311059,407.614866 L473.503625,384.053781 L473.434583,383.708308 C466.108949,381.70619 461.606862,374.254444 463.312301,366.780243 C464.011017,363.718418 465.636319,361.128198 467.837961,359.214441 L467.80344,359.04171 L530.955466,302.522726 Z M368.238743,224.135427 L363.436704,308.948504 L363.091231,309.121246 C362.769152,316.708721 356.524571,322.767332 348.857846,322.767332 C345.717318,322.767332 342.818533,321.758793 340.462908,320.03811 L340.324719,320.107152 L270.7815,270.808508 C292.154961,249.791562 319.493299,234.260053 350.999768,227.106475 C356.755017,225.799737 362.507701,224.830132 368.238743,224.135427 Z M408.762445,224.13548 C445.546455,228.659568 479.564579,245.315667 505.632389,270.843103 L436.53828,319.830827 L436.296443,319.727264 C430.163713,324.206432 421.523096,323.09507 416.742815,317.10169 C414.784613,314.646408 413.757157,311.759456 413.633578,308.844941 L413.564431,308.81042 L408.762445,224.13548 Z" id="Combined-Shape"></path>
        </g>
    </g>
</svg>
