<svg height="512" viewBox="0 0 135.46666 135.46667" width="512" xmlns="http://www.w3.org/2000/svg"><path d="m80.901277 125.82759c-.38229-1.43785-1.2198-4.10301-1.45676-4.6358-.16646-.37427-.70348-1.72446-1.19338-3.00044-.9967-2.59596-1.09594-2.69869-2.60694-2.69852l-.88513.00009-.29772 1.50096c-.16374.82552-.29771 1.8144-.29771 2.1975 0 1.13426-1.12106 3.07391-1.53651 2.65845-.0886-.0886-.39003-1.5066-.6698-3.15107-.27977-1.64448-.55515-3.11108-.61195-3.25912-.0882-.22977-1.11516-.53695-2.27869-.68156-.4597-.0572-3.0589 5.647-3.66806 8.04986-.40676 1.60443-.68526 1.84759-1.32439 1.15627-.34716-.3755-.37368-.57424-.38219-2.86387-.009-2.46591-.3528-4.86725-1.01616-7.10103-.307094-1.0341-.613614-1.28033-2.1412-1.72002-.597591-.17201-1.209381-.36537-1.359536-.4297-.306953-.13151-.594155.44745-1.49403 3.01178-.747966 2.13144-.774361 2.16959-1.426083 2.06126-1.395389-.23194-1.315363-.15749-1.312035-1.22049.0017-.53622.115136-1.70222.252129-2.5911.330021-2.14135.323593-2.54213-.04253-2.65114-.163741-.0487-.60393-.23795-.978196-.42044s-.80335-.33158-.953519-.33132c-.742097.001-2.986987 3.03809-4.651815 6.2928-.547198 1.06976-1.063102 1.87349-1.202581 1.87349-.134348 0-.353391-.17225-.486764-.38277-.213451-.33693-.194527-.65784.158002-2.67941.478699-2.7451.800251-6.44279.653421-7.51403-.0941-.68658-.211814-.85498-1.062471-1.52003-1.786248-1.3965-2.926034-2.05775-3.18149-1.84574-.626738.52014-2.259969 2.70505-2.712354 3.62853-.548492 1.11968-1.017029 1.36847-1.794044.95263-.488937-.26168-.38453-.77408.788724-3.87095.506143-1.33599.92026-2.64867.92026-2.91707 0-.39053-.23943-.70027-1.198779-1.55079-1.189317-1.054408-1.203753-1.061298-1.828803-.872418-1.708415.51624-4.613743 2.823118-5.890872 4.677458-.714605 1.03757-1.53266 1.71926-1.89591 1.57987-.401575-.1541-.293526-.5165.862277-2.89211.608183-1.25004 1.105788-2.32313 1.105788-2.38463s.388692-1.117538.863761-2.346748c1.145708-2.96445 1.193408-4.3064.193798-5.45237-.71478-.81944-2.768886.001-4.658796 1.86212-.683174.67255-1.04822.91719-1.251974.839-.442657-.16986-.180892-1.14337.502189-1.86765.69546-.7374 1.966366-2.62987 2.482789-3.69704l.37725-.77957-1.019181-2.28261c-.560549-1.25543-1.072336-2.45485-1.137305-2.66537-.13253-.42945-.404364-.48573-.821784-.17012-.15469.11696-.670097 1.28051-1.145349 2.58566-.475252 1.30516-1.018216 2.62239-1.20659 2.92719-1.214531 1.96515-4.793224 3.782-8.048242 4.08596-.849293.0793-1.088286.0484-1.16459-.15041-.146891-.38279.09664-.64536.825188-.88968.526214-.17647.76125-.40057 1.136068-1.08322.708303-1.29003.672211-1.95764-.311526-5.76257-.939417-3.63352-2.41846-7.01766-4.720793-10.80145-2.368083-3.89185-6.8248844-9.25565-8.3471794-10.04589-.943871-.48998-2.246347-.47968-3.061642.0242-.48321003.29864-.67425203.33636-.95166003.1879-.190896-.10217-.342858-.27876-.337693-.39242.0159-.35006 2.37332903-2.02761 4.02102503-2.86138 1.854414-.938366 3.54014-1.386127 5.310048-1.410443 2.1162054-.02908 2.7072934.145373 4.6370414 1.368533.967286.6131 1.796978 1.16881 1.843761 1.23491.04678.0661.812329.65756 1.701212 1.31437s2.369073 1.81765 3.289311 2.57964c1.866161 1.54526 2.495774 1.79035 3.441073 1.33958.312494-.14903.693068-.46157.84572-.69454.384468-.58678 1.286126-3.03634 1.201091-3.26304-.126317-.33676-1.941965-1.43426-3.083793-1.86404-.616922-.23221-1.504691-.61629-1.97282-.85351-1.566905-.794008-.625508-1.148357 1.758843-.662042 1.661039.338792 3.144727.378792 3.667729.09889.292367-.156493.37963-.354534.37963-.86159 0-.615842-.07422-.713087-1.148318-1.504616-.631575-.465421-1.607644-1.132728-2.169044-1.482907-2.802681-1.748193-3.266748-2.227911-3.030217-3.13241.104511-.399645.9313-.865151 1.536603-.865151.225778 0 1.290724.390481 2.366548.867736 1.336667.592967 2.268043.896024 2.941366.957079l.985322.08935.347584-1.339852c.191172-.736921.384205-1.503793.428963-1.704163.06817-.305167-.124096-.481872-1.184349-1.088501-.696151-.398309-1.739436-.895721-2.318411-1.105362-.587831-.21285-1.052682-.483413-1.052682-.612709 0-.264487.576503-.275018 3.222927-.05887l1.69184.138181-.841234-1.071018c-1.044501-1.32978-3.993852-4.161322-5.455737-5.23778-.969628-.713987-1.090227-.865621-1.04763-1.317233.04438-.470503.105033-.51447.776605-.562941.628336-.04536 1.00248.09916 2.721938 1.05136 2.23728 1.238957 4.237711 1.978337 5.352483 1.978337 1.118503 0 2.510168-.456774 2.510168-.823889 0-.517325-.923299-1.779099-1.92758-2.634218-1.062359-.904571-1.264672-1.475405-.522908-1.475405.242865 0 .644776.143112.893136.318027.959279.675598 3.598806 1.837019 3.598806 1.583512 0-.07422-1.337952-1.585056-2.973228-3.357409-1.853094-2.008429-2.974694-3.356731-2.97712-3.578865.361089-1.340855 1.463449-1.472806 2.332213-1.095575.395975.17975 1.244112.745036 1.884751 1.25619 2.646527 2.111622 5.216454 3.544331 5.892386 3.284952.323245-.124042.774985-1.202253.770472-1.838963-.0094-1.319943-1.44556-3.797245-3.779527-6.519287-.724245-.844665-1.317542-1.692693-1.318439-1.884505-.0019-.409852.301555-.757039.661717-.757039.14028 0 1.139316.862606 2.220081 1.916903 2.942577 2.870515 3.474511 3.241813 5.298824 3.698648.672018.168282.87536.151993 1.44603-.115839.843399-.395835.916865-.869847.332735-2.146884-.238828-.522133-.434233-1.027044-.434233-1.12203 0-.09498-.277562-.704066-.616806-1.353517s-.564389-1.265632-.500323-1.369292c.269401-.435901.757898-.106321 1.851229 1.248992.637672.790468 1.517983 1.674729 1.956245 1.965022l.796841.527806.297861-.367843c.406041-.501439.374417-1.106976-.127442-2.440292-.233917-.621459-.425303-1.289712-.425303-1.485007s-.344495-1.375817-.765545-2.623382-.765545-2.568438-.765545-2.935273c0-.665586.0017-.667202.79833-.776397.439082-.06018.854786-.05145.923789.0194.069.07086.7176 1.277147 1.441331 2.680647 1.412953 2.740079 1.997745 3.683544 2.67152 4.310054.405972.377491.448364.383425.851624.119199.758458-.496961 1.379152-1.621185 1.345733-2.437443-.04605-1.124792-.662513-3.541577-1.673643-6.56135-.848569-2.534288-.897025-2.762041-.62938-2.958321.159482-.116958.389423-.212651.510979-.212651.298159 0 1.196456 1.259673 2.365676 3.317362 2.209644 3.888712 3.797199 5.358816 5.786954 5.358816.515025 0 .572443-.05367.682527-.637954.0661-.350875.03131-1.254364-.07736-2.007753-.10865-.753389-.197542-1.581509-.197542-1.840266 0-.40934.0497-.455181.382771-.352809.210524.06471.394287.127286.408362.139054.01408.01177.228727.633833.477017 1.382366s.71602 1.76288 1.03941 2.254105c.54451.827107.63758.893136 1.25901.893136.64029 0 .67664-.02924.79326-.637954.0702-.366371.00064-1.615655-.16341-2.93459-.55129-4.432854-.3751-5.290044.93262-4.537413.54926.316112.66852.501476.89292 1.38787.14245.562665.67193 2.133069 1.17664 3.489785.9779 2.628739 1.01777 2.675944 2.08999 2.474794l.57844-.108516-.006-1.055547c-.006-1.028648-.35081-3.30798-.59113-3.905078-.098-.243508-.028-.297712.38423-.297712.47704 0 .53112.07516 1.00973 1.403499.52786 1.465027 1.2989 2.84953 1.58694 2.84953.17815 0 .56716-.380068 1.06734-1.042796.45565-.603726.9613-2.39722 1.24084-4.401081.72149-5.1719577.88001-5.8077287 1.41331-5.6682677.47075.123103.80271 1.6875297 1.04034 4.9027227.10373 1.403499.26014 2.872512.34759 3.264471.3817 1.710867 1.24469 3.285192 1.80083 3.285192.33059 0 .99234-1.260007 1.60825-3.062179.30377-.888883.56726-1.637432.58552-1.663441.0183-.02601.23417.02912.47982.122513.3957.150448.42748.220122.27877.611259-.25318.665911-.21685 4.421071.0448 4.631859.11695.09422.45383.222834.74862.285811.51955.111.54406.08947.80046-.703371.14546-.449831.42677-1.468588.62512-2.263904.19834-.795317.50622-1.777108.68415-2.181759.28134-.639796.37396-.719864.71025-.61405.21269.06692.58962.28317.83761.480548.39255.312431.46463.523967.55704 1.634776.25035 3.009235.48144 5.068636.58814 5.241274.063.101959.45303.336911.86669.522116 1.24382.556872 1.71774.01781 2.08542-2.372032.23092-1.500988.53955-1.956785 1.02065-1.507366.18928.176805.23637.50072.18337 1.26095-.0392.562664.0309 1.749297.15575 2.636961.2126 1.510871.25634 1.624217.68497 1.774959.60353.212252 1.05769-.03927 2.52662-1.399271 1.70047-1.574373 2.99769-3.694436 3.780333-6.17823.12495-.396546.95773-.569901 1.26442-.263208.21502.21502.13391.632479-.63816 3.284737-.76895 2.641527-.89615 3.29396-.9738 4.994804-.0839 1.838186-.0675 1.975991.27166 2.280736.35508.319045.37116.319045.98427 0 .34281-.178389 1.22134-.879363 1.95228-1.557721s1.36351-1.233378 1.40572-1.233378c.1819 0 .61139.556685.61139.79247 0 .141791-.42894.683332-.95321 1.203421-1.54199 1.52973-1.96693 2.54499-1.33127 3.180652.36227.362276.53433.336661.7754-.115439.43782-.82108 2.07324-2.679409 2.35802-2.679409.52511 0 .70811.402451.53445 1.175352-.0869.386576-.26484.873566-.39553 1.082197-.13069.208632-.42206.979551-.64751 1.713155-.37364 1.215837-.38755 1.373848-.15717 1.786272.41032.734547 1.10098.68262 3.05219-.229476.92911-.434313 1.76784-.741114 1.86384-.681782.39019.241148.12767.774576-.71859 1.460148-1.70012 1.377312-2.05643 2.099951-1.24858 2.5323.49729.26614 1.43201.07746 3.76363-.759712 1.9404-.696707 3.72498-1.593417 5.34017-2.683303l1.26303-.852258.3973.461901c.48821.567574.5736.428894-2.01806 3.277599-1.78575 1.962882-3.54076 4.302114-3.54322 4.722733-.00051.09859-.1082.384631-.23915.635636-.39574.758529-.50705 1.523261-.24582 1.688787.36433.23085 1.30327.177981 3.30673-.186183 2.18137-.396509 2.28292-.403133 2.28292-.148929 0 .288891-.43365.583668-2.12651 1.445519-1.88689.960626-2.127 1.167651-2.12468 1.831903.002.542685.37376 1.932071.6485 2.423003.0855.152835.68191.670493 1.3253 1.150352 1.13642.847588 1.40882 1.180825 3.57477 4.373141.42.619018.86917 1.476157.99816 1.904751.21727.721938.20938.811221-.10719 1.213678-.18794.238929-.49967.434415-.69273.434415-.31972 0-.34137.07038-.24284.789289.0595.43411.10819 1.116074.10819 1.515478 0 .626544.10126.830394.73793 1.485484.99491 1.02368 2.20846 2.87995 2.93755 4.49333.33014.73055.81987 1.7876 1.08829 2.349.5819 1.21704 1.24149 3.44163 1.52583 5.14617.20472 1.22723.20843 1.23338.74327 1.23401.77444.00064 1.62035.58173 1.92471 1.32153.82044 1.99426 1.6825 3.60526 2.23606 4.17865 1.15803 1.19957 2.36618 1.55377 2.94027.86204.36139-.43545.76878-.27395.971.38493.17622.57419.14407.70793-.40718 1.69367-.7922 1.41657-2.20388 2.70057-3.34012 3.03799-1.16457.34584-4.52797.34898-5.68524.005-.4697-.13948-1.11516-.43356-1.43438-.6535l-.58039-.3999-3.35907 3.41797-3.35907 3.41798.79931 1.17245c.43962.64485 1.17456 1.58303 1.6332 2.08485.79385.8686.95776 1.42196.42072 1.42039-.30398-.00064-1.22635-.57867-2.43677-1.52642-1.20867-.94637-1.50491-1.1111-2.25338-1.25302-.42656-.0809-.5846-.0402-.66568.17101-.13784.35918.60331 2.50367 1.09746 3.17549.41879.56938.4824.96712.19984 1.24968-.231.231-1.66174-.28773-2.44828-.88765-.75435-.57537-.99249-.52953-1.5389.29615-1.04278 1.57575-.56299 2.63205 2.8299 6.23013 2.45408 2.60252 2.63674 2.98817 1.48823 3.14222-.6215.0834-.74978.0381-1.11136-.39155-.57291-.68086-2.66745-1.68885-5.11322-2.46071-2.0668-.65226-2.08242-.65434-2.72194-.36267-.65663.29947-1.18171.7169-1.8948 1.50635l-.40098.44391.8986 1.66195c.49421.91407 1.30623 2.27098 1.80447 3.01534.49823.74438.90588 1.48294.90588 1.64125 0 .5987-1.12577 1.17262-1.84956.9429-.18865-.0599-1.10384-1.04286-2.03373-2.18441-.9299-1.14154-1.89169-2.26167-2.13733-2.48919-.4279-.39633-.46984-.40257-1.00163-.14898-.30527.14558-1.20445.68362-1.998183 1.19567-.79373.51204-1.69419 1.06081-2.00103 1.21948-.30685.15867-.51898.35147-.47141.42845.0476.077.24098 1.08805.4298 2.24686.39164 2.4036.79097 3.77769 1.51421 5.2104.62437 1.23687.84952 2.25532.49859 2.25532-.13301 0-1.37963-1.20573-2.77025-2.6794-2.80743-2.9751-3.77361-3.85195-4.67058-4.23876-.60694-.26174-2.28233-.39365-2.48066-.19532-.097.097.11225 1.76104.6105 4.85409.23562 1.46263.14173 1.94953-.45076 2.33774-.36728.24066-.52532.25609-.92536.0904-.77283-.32011-.94559-.6258-1.84484-3.26439-1.18203-3.46831-.97466-3.20968-2.31628-2.88868l-1.11368.26646-.57899 1.79568c-.7979 2.47457-1.12741 4.1844-1.2421 6.44528-.0674 1.32872-.17279 2.00268-.33917 2.16905-.2981.29811-.54982.30968-.62452.0287zm.13499-5.614c.86596-3.02966.95467-3.78736.48511-4.1438-.39794-.30209-1.2246-.2942-1.97376.0188-.57126.23869-.60018.28624-.43624.71744.0966.25399.23833.54086.31502.6375.0767.0966.39476.96038.70682 1.91943.31206.95906.58547 1.74375.60758 1.74375.0221 0 .15506-.40191.29547-.89314zm-15.45197-2.17745c.3403-1.25852.65551-2.41248.70045-2.56435.0899-.30367-.68786-.65954-1.44138-.65954-.41988 0-.42235.009-.31372 1.14832.0602.63157.15847 1.89626.21834 2.81042.0599.91416.13331 1.63764.16321 1.60774s.33279-1.08406.6731-2.34259zm23.31051-.0995c-.88828-5.21704-1.2506-9.42705-1.04608-12.15503.14259-1.90187.24919-2.16215.78721-1.92208.36954.1649.37874.24072.41137 3.39164.0279 2.69619.23481 4.87352.48707 5.12577.16233.16234 4.42382-1.39613 6.61458-2.41903 3.0323-1.41582 3.41897-1.72422 3.26033-2.60044-.40413-2.2321-1.39896-3.63135-3.24521-4.56444-.80457-.40663-1.3527-.79317-1.38852-.97921-.0534-.27731.0297-.29536.84991-.18462.76514.10331 1.17899.31888 2.61333 1.36127 3.146603 2.28677 6.141143 5.2337 7.647793 7.5262.26134.39766.50761.72301.54726.72301.0397 0-.12607-.32535-.36828-.72301-2.30037-3.77669-4.11376-8.09325-4.92201-11.716308-.72227-3.23761-.58511-3.62284.41671-1.17036.28666.70174.59123 1.42901.67683 1.61615.15674.34266 1.73814 4.493778 1.93391 5.076468.093.27682.2021.23195.94176-.38732 1.2986-1.08725 4.13166-4.398848 4.4264-5.174078.0942-.24791.27991-.45074.41256-.45074.49418 0 .60369-1.16874.20004-2.13481-.18531-.4435-.44329-.67664-1.02435-.92571-.79157-.33931-1.0497-.66008-.88227-1.09638.13644-.35557 1.01009-.0794 3.24763 1.02653 1.02239.50533 1.91073.91879 1.9741.91879.0633 0-.0598-.36573-.27375-.81274-.57914-1.21011-1.26949-3.36316-1.38144-4.30842-.0799-.67458-.0496-.83308.15938-.83308.39907 0 .62624.37813.98673 1.64246.18263.6405.3711 1.26755.41884 1.39345.11255.29686 6.40579-5.72399 7.77697-7.44037 1.33994-1.67726 2.22355-3.4891 2.88728-5.9203.4832-1.76998.54937-2.27217.55607-4.2206.0109-3.16179-.58911-5.28792-2.79141-9.89185-1.12446-2.35068-1.51953-2.72849-2.36299-2.25983-.36898.20503-1.53519 1.99937-1.553 2.38946-.003.0576.43891.26657.9812.4643 1.21948.44464 2.27428 1.32645 2.74173 2.29206.26947.55666.3552 1.06233.3552 2.09519 0 1.59894-.31897 2.81107-1.12044 4.25783-.6996 1.26287-.76245 2.32544-.23799 4.02344.61076 1.97742.6588 2.54388.34527 4.07113-.37836 1.84309-.74435 2.57771-1.82626 3.66572-2.03541 2.04686-5.26087 2.74812-7.39958 1.60876-1.37654-.73334-2.29215-.1598-3.09233 1.93701-.25474.66751-.61137 1.34778-.79251 1.51172-.30605.27697-.33712.27786-.43894.0125-.30989-.80756.66607-4.01219 1.62507-5.33605l.49109-.67792-.49295-1.83745c-.63985-2.38505-.95185-3.34276-1.48302-4.55219-.4003-.91147-.46926-.98088-.87411-.87988-.57593.14368-.93738.48046-1.73246 1.61423-2.3242 3.31425-2.91304 4.00003-3.85115 4.48515-.58889.30452-.99785.35491-1.131073.13937-.0472-.0764.614183-.97589 1.469723-1.99892 3.5147-4.20271 5.11416-7.4176 5.7375-11.53231.2282-1.50629.0671-2.87488-.52432-4.45572-.90298-2.41344-4.23612-4.40353-9.126443-5.44903-.77192-.16503-1.4035-.38654-1.4035-.49224 0-.410554.44749-.600476 1.41484-.600476.96073 0 1.00188-.01743.90421-.382772-.0563-.210525-.19164-1.014348-.3008-1.786272-.21508-1.520939-.29561-1.599265-1.17609-1.143949l-.50191.259547v-.824038c0-3.40427 3.12532-7.354862 8.889363-11.236669.72543-.488546 1.43356-.932237 1.57362-.985981.4073-.156296.29146.302829-.26045 1.032245-.27809.367544-.50563.793523-.50563.946622 0 .1531.69926 1.230364 1.55392 2.393921 1.63275 2.222909 3.22529 4.610496 4.29279 6.435936.73914 1.263932.65849 1.552651-.34746 1.243916-.34842-.106935-.65077-.177142-.6719-.156019-.0211.02112.0764.497103.21678 1.057732.14035.560627.26359 1.823146.27387 2.805595.0208 1.985442-.29036 3.384772-.99205 4.462032-.22724.34887-.41316.71233-.41316.80768 0 .0954-.2639.5407-.58643.98965-.86704 1.20685-.95852 1.55081-.7338 2.75913.18591.99973.0739 2.30009-.32073 3.7233l-.11314.40801.55356-.32295c.69092-.40308 1.52006-1.39349 2.90514-3.47019 1.15213-1.72742 2.43388-3.05741 2.9494-3.06036.23465-.001.28388-.0784.19139-.29953-.82676-1.97677-.84007-2.09464-.87855-7.783043-.039-5.770753-.11627-6.535813-.96509-9.561735-.44165-1.574366-1.74655-5.034778-2.34185-6.210223-.17582-.347148-.31966-.710782-.31966-.808076 0-.270353.7811-.210448 1.02073.07828.28586.344445.51036.321722.51036-.05166 0-.675598.99219-2.230319 2.27824-3.569895l1.35608-1.412528-1.68957.842251c-2.02554 1.009735-3.22868 1.384831-4.44189 1.384831-.80363 0-.98176-.06998-1.6001-.628607-.38268-.345734-1.16052-1.22935-1.72853-1.963591-.568-.734243-1.09249-1.27433-1.16552-1.200196-.21567.218902-.9743 2.998463-1.46292 5.35997-.687 3.320273-1.1855 3.675864-1.11827.797676.0538-2.303926.89033-6.117072 1.84303-8.401305.0773-.185348-.43901.250137-1.14737.967746-.70835.717608-1.86968 1.684529-2.58074 2.148712-1.705333 1.11325-4.023463 1.908683-4.023463 1.380593 0-.09792.23543-.308443.52319-.467833 1.71127-.947902 3.672023-2.359917 4.670863-3.363684l1.14846-1.154127-.40679-.329877c-.22373-.181433-1.28774-.851356-2.36445-1.488716-2.021103-1.196389-2.839263-1.874744-2.643393-2.191676.15915-.257518.71776-.226888 1.16209.06372l.37678.246434.0336-1.394752c.0185-.767114.18433-1.958665.36851-2.647893.18418-.689227.27983-1.186832.21256-1.105787-.0673.08104-.46277.600372-.87888 1.154061-.88005 1.171051-2.92585 2.991139-3.36206 2.991139-.69861 0-2.45919-.584708-4.30355-1.429262l-1.97556-.904626-.1034 1.340934c-.0568.737514-.0711 1.549718-.0316 1.804898.0395.255181.11269 1.393231.16264 2.529001l.0908 2.065036-.51439.0755c-.96386.141464-1.03315-.03978-1.22196-3.196408-.0948-1.584272-.18152-4.373305-.1928-6.197855l-.0205-3.317362-.54364 2.18138c-.69731 2.797892-1.24914 4.227364-2.1524 5.575575-.82311 1.228573-2.44009 2.657812-2.70605 2.391854-.11106-.11106-.0383-.30345.21367-.565312 1.11096-1.154393 1.94829-2.958669 2.79888-6.031046.12826-.46326-.27111-.629716-2.63086-1.096543-2.01675-.398973-2.96508-.844038-3.50432-1.644635-.51399-.763098-.94465-2.654714-1.0699-4.699258l-.10573-1.726013-.20408 1.786272c-.36237 3.1717-1.13347 4.951953-2.43178 5.614305-.9466.482919-2.46859.850299-3.52263.850299-.8707 0-.8996.01519-.89011.467833.0132.629214.4821 2.263507 1.34133 4.67492.48834 1.370491.6635 2.080459.55926 2.266725-.12823.229124-.23377.177831-.68009-.330503-.29058-.330945-.79301-1.159587-1.11652-1.841424-.51813-1.092033-2.53023-6.717591-3.2424-9.065278l-.25803-.850605.10682 1.701211c.18191 2.897317.0993 5.689946-.2089 7.060028-.28284 1.25745-1.16313 3.333513-1.69514 3.997847-.25738.321387-.26861.293103-.2027-.510364.0384-.467833.22593-1.577873.41679-2.466756.19087-.888883.39917-2.216902.46289-2.951153.10819-1.2465.0951-1.328628-.19791-1.238855-.17258.05288-1.02279.180927-1.88935.284546-1.914108.228878-3.619767.01582-4.920405-.614638-1.112172-.539096-2.379952-1.933102-3.098705-3.40722-.301657-.618682-.581869-1.091473-.622693-1.050649-.04082.04082.207071.871835.550879 1.84669 1.224427 3.471819.702381 5.771026-1.521299 6.700139-.349598.146071-.635633.303443-.635633.349716 0 .344489 2.178359 3.450782 3.11932 4.448084 1.259761 1.335191 1.366602 1.800096.287125 1.249389-1.889693-.964049-3.778614-3.443242-6.547216-8.593169-.905425-1.684199-1.72303-3.138736-1.816897-3.232302-.09387-.09357.033.36576.28193 1.020727 2.458225 6.467937 2.943473 8.217176 3.091797 11.145392.08538 1.685538.06038 1.991085-.179145 2.189874-.500755.415591-.730098-.03131-.841308-1.639366-.08508-1.230251-.770431-4.324742-1.011128-4.565438-.03621-.03621-.634655.473004-1.32987 1.131597-3.098745 2.935499-4.287979 3.175423-7.100675 1.432542l-.733011-.454208.624626 1.240341c1.041765 2.068669.991156 3.483718-.163167 4.562107-.242805.226836-.441466.464087-.441466.527228 0 .191623 3.288184 1.674962 4.269894 1.926198.940794.240768 1.148258.524871.624527.855233-.451966.285093-2.737845-.2534-4.409933-1.038865-.781084-.366915-2.415363-1.344826-3.63173-2.173135-4.501422-3.065338-5.719035-3.83418-5.897501-3.723882-.104797.06477 1.262905 1.537324 3.204495 3.450169 3.296051 3.247246 4.917335 5.135329 6.109017 7.114314.63666 1.057276.712061 1.513904.33306 2.016992-.23755.315324-.291045.283209-1.185409-.71167-1.105495-1.229736-1.978457-1.594981-3.812112-1.594981-.90521 0-1.399107.0999-2.094549.423641-1.509114.70253-3.19275.534414-5.92294-.591426-.687678-.283577-1.283104-.482812-1.323168-.442749-.04006.04006.662297.856849 1.560806 1.815077 1.063439 1.134125 1.816276 2.113202 2.156876 2.805059l.523228 1.062825-.449508 2.014527c-.24723 1.10799-.560241 2.391181-.69558 2.851533-.13534.460355-.213702.869375-.174143.908935.134643.134644 3.240825.548284 4.12634.549491.922307.0012 1.754816.229001 1.754816.480049 0 .272428-.82391.525274-2.08358.639421-2.30913.209248-5.292455-.396994-8.880409-1.804588-.930815-.365169-1.716311-.64002-1.74555-.610781-.02924.02924 1.128968.836116 2.573791 1.79306 2.900866 1.921316 4.732606 3.406577 5.916622 4.797472.858176 1.00812 1.83743 2.58293 1.83743 2.9549 0 .37216-.36812.50586-.541218.19655-.08589-.15348-.266756-.27906-.401913-.27906s-.605372-.35455-1.044923-.78787c-.765101-.75427-1.627758-1.25359-2.165791-1.25359-.359904 0-1.126432 1.06873-1.308646 1.82457-.08515.35321-.221058 2.15988-.302019 4.01485-.08456 1.93742-.223696 3.44914-.326951 3.5524-.278975.27897-.736185-.98153-.766623-2.11353-.0254-.94438-.0361-.96521-.369229-.71804-.933617.69271-2.062458 1.09191-3.092269 1.09354-.972088.001-1.112243-.0491-1.935349-.69976-.488052-.38578-1.923475-1.65557-3.18983-2.82175-2.651457-2.44171-4.268458-3.63194-5.627581-4.14232-.834585-.3134-1.232964-.35135-3.0848594-.29383-1.825738.0567-2.240811.12374-2.93459.47403-.451778.22811-.805216.52433-.80159.67182.0035.14509.386258.67098.850425 1.16862l.843939.90481 1.233559-.18604c1.362083-.20543 3.3241044-.27023 3.4794114-.11492.134031.13403-.07759.19442-2.2033214.62877-1.005842.20552-1.828803.43438-1.828803.50857 0 .29814.953876 1.24223 1.475153 1.46004.375766.157 1.2962874.23205 2.8463984.23205 2.143168 0 3.372755.18818 3.08798.47259-.06764.0676-1.016054.10271-2.107579.0781-1.091524-.0246-2.240578.0144-2.553452.0866l-.568863.13133 1.167583 1.44765c.64217.79621 1.379851 1.80986 1.639291 2.25257l.471708.80491 1.65151.006c1.110013.004 1.790958.0857 2.076813.24916.38881.22227.268386.24364-1.4035.24915-1.662001.006-1.828802.0347-1.828802.31991 0 .67904.568996.91784 2.205273.92551.845566.004 1.537392.0369 1.537392.0731 0 .19154-1.282273.55887-1.950929.55887-.424055 0-.771009.035-.771009.0777 0 .0428.542481 1.1145 1.205513 2.3817 1.363986 2.60685 1.306341 2.57003 2.902186 1.85385.551654-.24756 1.0506-.40252 1.108773-.34435.193557.19356-.306939.61104-1.278569 1.0665-.52843.2477-.988952.47549-1.023379.50619-.126596.11289.561035 1.77358.734156 1.77306.09847-.00034.638373-.30627 1.199773-.67994.561399-.37367 1.080835-.67965 1.154302-.67994.305803-.001-.277246.70392-.984181 1.1903-1.247126.85805-1.246956.85681-.484733 3.53249l.255134.89562.47106-.33543c.259084-.18448.865764-.6903 1.348178-1.12403.946901-.85135 1.188805-.73168.38093.18844-.272903.31082-.559983.67293-.637954.80469-.07797.13177-.470542.45502-.87238.71835-.515979.33813-.699327.55812-.62412.74886.05857.14854.149594.82509.202274 1.50345.05713.73566.172258 1.23338.285297 1.23338.401151 0 2.328141-1.41469 3.146161-2.30973 1.050826-1.14977 1.981591-2.99431 2.309913-4.57766.255587-1.23257.543461-1.61867 1.206891-1.61867.679031 0 .832603-.40219.611587-1.60169-.272885-1.48099-.248751-2.04057.106948-2.47983.283069-.34959.321978-.356.543073-.0896.130986.15783.271005.74107.311152 1.29609.04015.55503.133777 1.0467.208066 1.09261.362615.22411 1.260176-.9373 2.133195-2.76027.930447-1.94289 1.291376-2.29042 1.402414-1.35037.08915.75476-.435398 2.02613-1.418962 3.43919l-.925534 1.3297.923787.28582c.508084.15721 1.272028.50584 1.697656.77474.612035.38667.773932.58675.774172.95674.00034.63124-.249001.60289-1.871028-.21265-1.289178-.64818-2.381696-.88083-2.381696-.50717 0 .49916.940845 2.74354 1.767559 4.2165.517144.9214 1.022609 1.89186 1.123257 2.15658.180495.47474.203383.45016 1.675543-1.79916.820901-1.25426 1.982973-3.07243 2.582383-4.04038 1.089226-1.75892 1.090004-1.75969 1.393696-1.38465.167123.20639.303861.52483.303861.70764 0 .63472-.747812 2.10662-1.986845 3.91067l-1.245863 1.814 1.318641-.50684c.725254-.27876 1.790502-.73868 2.367216-1.02204.684494-.33633 1.171808-.4761 1.403499-.40256.367239.11655.500471.60008.165349.60008-.394392 0-2.969718 1.65161-3.880068 2.48837-1.168855 1.07436-2.30848 2.68164-2.119943 2.98986.07429.12146.197412.29738.273605.39095.07619.0936.702562.94494 1.391934 1.89195 1.243111 1.70768 3.128556 3.72799 4.4598 4.7788l.692207.54638.773835-1.65217c1.061901-2.26721 1.232433-2.76562 1.597748-4.66965.308638-1.60864.614218-2.13684.939571-1.62409.547035.86213-.907554 6.98582-3.062402 12.892438-.290147.79532-.433855 1.29995-.319351 1.12142 1.1704-1.82489 6.549768-7.433528 7.832483-8.166298.809701-.46256 1.309056-.48667 1.304952-.063-.0012.1199-.635512.87715-1.409665 1.68279-1.256884 1.308008-2.262055 2.804198-2.569925 3.825308-.08881.29457.06318.46875.873838 1.00146.539743.35468 1.478954 1.04719 2.087138 1.53892 1.31843 1.06596 2.4993 1.77804 3.657604 2.20555.467833.17267.980866.42432 1.140073.55921.261443.22151.340088.16544.812268-.57911.761241-1.20035.915604-1.94488.859794-4.14696-.02727-1.07602-.05872-2.37056-.06989-2.87676-.04977-2.255798.843841-.1675 1.340201 3.13194.526434 3.49935.508895 4.43356-.185247 9.86703l-.08693.68048.356906-.68048c.196298-.37427.778797-1.75225 1.294443-3.06218 1.089555-2.76788 2.219679-4.95536 3.120092-6.0393.349754-.42106.743037-.9378.873954-1.14832.281476-.45265.422533-.48047.564199-.1113.0625.16284-.542929 1.56526-1.512893 3.50455-.88938 1.7782-1.61706 3.32707-1.61706 3.44193 0 .24453 4.545593 1.72584 7.857423 2.56056l2.26478.57082.11779-.62392c.3233-1.71255-.013-4.35588-.87936-6.91119-.44772-1.32061-.48422-1.55628-.27363-1.76688.2106-.21058.35003-.03 1.04534 1.35375 1.82209 3.62621 3.10892 7.54663 3.55826 10.8405.13042.95599.23161 1.35879.2418.96248.0536-2.0855 1.24165-9.63186 1.71043-10.86485.22787-.59933.83171-.693 1.07172-.16624.15707.34472.0648 1.12522-.49207 4.16187-.44463 2.42461-.62447 3.77524-.51195 3.84478.31583.1952 4.74931.0753 7.23146-.1955 1.34332-.14658 2.4725-.2665 2.50929-.2665.0368 0 .066-.36364.0649-.80808-.004-1.53116-.73094-3.44221-1.97434-5.18909-.3165-.44466-.57546-.94731-.57546-1.11701s-.26794-.54577-.59542-.8357c-.66859-.59192-.71631-.75444-.31846-1.08462.24255-.2013.38368-.11406 1.13587.70219 1.15905 1.25775 2.57891 3.46682 3.37373 5.24899.35989.80694 1.20678 3.16738 1.88198 5.2454.67521 2.07803 1.25393 3.75196 1.28605 3.71984.0322-.0321-.0572-.73712-.1984-1.56666zm-10.21795-7.41997c-.0381-.11696-.23664-.90164-.44108-1.74375-.72077-2.96896-2.8198-8.18762-3.67193-9.129198-.40696-.44969-.13022-.69783.44596-.39987.82642.42735 2.26089 3.052648 3.14577 5.757228.61924 1.89267.64362 1.88008.93197-.48118.47802-3.9144.77071-5.188698 1.19177-5.188698h.3064c.2282 0 .15957 1.073038-.16866 2.636878-.38116 1.81601-.65661 5.52533-.48144 6.48327.0877.47944.0577.74008-.10204.88937-.12433.11614-.22606.38422-.22606.59574 0 .63844-.75757 1.11074-.93066.58021zm14.16471-3.40382c-.32667-.492-.8813-1.41747-1.23251-2.05661-1.18709-2.16027-2.93054-4.62402-4.29628-6.071268-.74742-.79202-1.44885-1.6104-1.55873-1.81863-.17804-.3374-.15351-.39021.22552-.48533.34323-.0862.5159.003.8947.46365.25816.31371.85897.99144 1.33513 1.50606 1.61487 1.745288 3.14937 3.584828 3.34074 4.004828.2167.47561.54791.57402.40593.12061-.16524-.52774-.58879-2.966788-.8605-4.955258-.14547-1.0646-.30828-2.11009-.3618-2.32333-.0535-.21323-.0116-.54794.0933-.74379.20742-.38758.68896-.4871.68896-.1424 0 1.03464.65598 5.27245 1.35677 8.765108.47015 2.34314.85481 4.34365.85481 4.44557 0 .40038-.31862.14534-.88601-.70921zm-27.66777.25658c-.0855-.16374-.24884-.9867-.36289-1.8288-.42706-3.1531-1.02391-5.559918-1.67414-6.751008-.64111-1.1744-.65046-1.4413-.0437-1.24872.79283.25163 1.23618 1.19968 1.96864 4.209658l.70742 2.90704.73751-1.85513c.78084-1.96408 1.51459-3.512488 1.92094-4.053658.2388-.31801.25363-.31509.52823.104.27312.41683.262.4674-.33385 1.518048-.69614 1.2275-1.25823 2.60327-2.19908 5.38242-.63775 1.88384-.91909 2.24785-1.24908 1.61615zm-13.873622-6.64841c-.04802-.0777.02356-.55617.159073-1.063258.578399-2.16438.963862-4.62887 1.022272-6.53598.04925-1.60812.114781-2.05247.308705-2.09336.590074-.1244.787928 2.75633.365776 5.32566-.326403 1.98659-.334573 1.94371.223561 1.17323.583512-.80551 2.593327-2.67693 3.484086-3.24415.403674-.25707.773129-.37274.980393-.30696.281678.0894.182494.21664-.647789.83103-1.116828.82643-2.023723 1.77634-3.100982 3.24806-1.716182 2.344608-2.519851 3.111088-2.795095 2.665728zm54.767645-3.205218c-.55785-.43891-1.62961-1.38711-2.3817-2.10712-1.65435-1.58379-3.24128-2.63428-4.562533-3.02021-.81143-.23702-.97553-.34707-.93588-.62766.0391-.27657.1595-.33195.6435-.29595.70531.0525 4.957963 2.16041 5.480403 2.71652.75038.79875.61003.31443-.62141-2.14436-1.20799-2.41193-1.25862-2.55973-1.07831-3.14724.10406-.33905.28328-.61645.39825-.61645.11499 0 .49659.74641.84801 1.65868.35143.91228 1.24332 2.99461 1.98198 4.62741.74452 1.64576 1.32051 3.1438 1.2925 3.36157-.0482.37451-.0978.35561-1.06481-.40519zm-36.725603-.76836c-.13741-.21634-.30502-.81438-.37247-1.329-.18587-1.41807-.48129-2.24499-1.1759-3.29147-.34734-.52327-.58753-1.0226-.53376-1.1096.0537-.087.35577-.15818.67111-.15818h.57336l.64058 2.05235.64058 2.05234.31129-.82004c.32563-.85785 1.12337-1.83931 1.37073-1.68644.2826.17466.1372 1.02086-.28121 1.63661-.23392.34425-.42531.6758-.42531.7368s-.10344.35214-.22987.64698c-.12642.29484-.29867.75948-.38277 1.03253-.19801.64295-.49341.72981-.80636.23712zm11.38105-1.10948c-1.03512-1.43845-2.07796-2.55304-2.68936-2.87442-.25732-.13525-.46784-.35877-.46784-.49672 0-.58341.98766-.0726 2.48724 1.28638.61579.55804 1.18845 1.01463 1.27258 1.01463.0841 0 .15409-.55502.15547-1.23338.003-1.33952.25025-2.0461.75055-2.14244.29265-.0563.30835.0143.1889.8491-.0717.50081-.15814 1.75267-.19218 2.7819-.0791 2.39146-.28907 2.50514-1.50536.81495zm14.6377-1.07013c-.45836-.42105-1.57638-1.60764-2.48449-2.63688-1.15673-1.311-1.95831-2.05203-2.67704-2.47481-.90047-.52969-1.00002-.63891-.81412-.89314.11649-.15931.28764-.28965.38033-.28965.31088 0 2.33355 1.65527 3.61743 2.96036.6994.71097 1.31977 1.29266 1.37858 1.29266.0588 0 .00064-.40191-.12922-.89313-.21032-.79549-.72356-3.958-.73162-4.50821-.002-.11696.14999-.21265.33712-.21265s.34024.035.34024.0779c0 .65285.96969 5.42981 1.29043 6.35704.2371.68542.40738 1.41269.37841 1.61616-.0483.339-.12236.30593-.88605-.39561zm-36.062913-.20182c-.04903-.40362-.13004-1.3273-.180028-2.05263-.04999-.72532-.197786-1.57462-.328443-1.88733-.226527-.54215-.298503-.57838-1.550083-.78029-1.996916-.32213-4.087099-.97184-5.829563-1.81205-2.073721-.99994-2.084323-1.16755-.170121-2.6894.771924-.6137 1.609792-1.2899 1.861926-1.50268.472247-.39851.954894-1.36095 1.741177-3.47205.764543-2.05273 2.322652-3.83117 3.801425-4.33899.754903-.25924 4.549223-.29703 7.783953-.0775 2.05644.13955 2.27414.12503 3.01061-.20074.72136-.3191 1.49243-.34575 1.49243-.0516 0 .21429-1.09785 1.16229-1.69509 1.46372-.8101.40885-3.13469.37665-5.52534-.0765-2.3759-.45041-2.819355-.44351-3.811488.0592-1.044394.52923-1.526856 1.10814-3.768089 4.52136-1.325365 2.01842-2.210679 3.16331-3.151347 4.07534l-1.308177 1.26833.377011.30528c.207355.16791.598919.30529.870144.30529.515646 0 .728629-.23879 1.858798-2.08399.827889-1.35166.871415-.90143.05546.57371-.420371.75997-.723838 1.48724-.674372 1.61615.04946.1289.323584.23437.609147.23437.424546 0 .619374-.14319 1.068598-.78535.856376-1.22419 1.995417-2.67104 1.995417-2.53465 0 .19316-.852457 1.84511-1.098709 2.12915-.121677.14035-.347259.50399-.501295.80808-.254747.50291-.255504.55289-.0084.55289.388111 0 .553013-.20662 1.828071-2.29062.627703-1.02593 1.141273-1.8089 1.141273-1.73996 0 .0689-.315594.75303-.701318 1.5202-.385726.76717-.800782 1.67676-.922349 2.02132-.20823.59019-.199636.6322.148425.72556 1.187615.31855 1.824633-.10067 2.65623-1.74806.777823-1.54086.818832-1.30416.110843.63981-.368998 1.01321-.347349 1.09004.223949.79461.722038-.37338 1.467789-1.34638 2.278108-2.97233.91785-1.8417 1.04016-1.34218.14111.57633-.51458 1.09808-.60714 1.41325-.37924 1.29127.39389-.2108 1.33462-1.36757 2.15024-2.64405.80103-1.25365 1.96626-2.51729 2.78195-3.01691.33744-.20668 1.03239-.71511 1.54431-1.12983.51193-.41472 1.31569-.93238 1.78614-1.15035l.85537-.39629.40388.40387c.43889.4389.36752.7795-.16333.7795-.50353 0-2.15781.9009-3.24803 1.76882-1.03092.82073-1.84628 1.7746-3.88217 4.54163-.70175.95377-1.65868 2.04058-2.12651 2.41513-.97647.78179-2.366131 1.4776-2.955858 1.48002-.365029.001-.393305.055-.292876.55456.06114.30409.196759 1.06964.301379 1.70121.104617.63158.252701 1.14832.329068 1.14832.07637 0 .447737-.45486.825268-1.0108.689169-1.01484 1.256224-1.54102 1.660749-1.54102.30901 0 .27.50083-.0486.62306-.14622.0561-.823626.83854-1.505362 1.73874-1.679061 2.21716-1.754331 2.27157-1.866377 1.34917zm-18.308037-3.33459c0-.16726.390333-.684.867407-1.14831 1.970557-1.91786 5.256954-6.85058 5.256954-7.89043 0-.43761.291841-.60601.602875-.34787.603043.50048-.105616 2.59538-1.499929 4.43402-1.993612 2.62892-2.073657 2.75212-1.719421 2.64639.175912-.0525.549503-.14952.830203-.21557.2807-.0661 1.307978-.41865 2.28284-.78355l1.772477-.66346.424651.42466.424654.42464-.495919-.005c-.794498-.008-4.21567 1.32906-7.084334 2.7688-1.486097.74585-1.662458.78359-1.662458.3557zm33.17961-1.2158c-.0969-.18098-.17657-.54461-.17715-.80808-.00051-.26346-.12585-.70867-.27839-.98937-.76663-1.41077-.78665-1.46891-.57609-1.67307.22745-.22054.41684-.0235 1.10217 1.14641l.38907.66419.29761-.91937c.39295-1.2139.61686-1.45329.98197-1.04985.25751.28455.22518.40989-.47319 1.8341-.41227.84077-.7523 1.66264-.7556 1.82639-.008.39611-.29093.37874-.5104-.0314zm11.23436-2.33076c-.19393-.24653-.35259-.51847-.35259-.6043 0-.0858-.53588-.72222-1.19085-1.41421-.65496-.69199-1.19085-1.33871-1.19085-1.43716 0-.41962.7556-.12236 1.52986.60186.45914.42947.90513.73738.99109.68425.086-.0531.20851-.42365.27231-.82338.1434-.89846.51554-1.49233.93513-1.49233.52081 0 .53734.44211.0555 1.48372-.3575.77281-.45601 1.24662-.46064 2.21559-.003.6779-.0577 1.23292-.12114 1.23337-.0634.00052-.27391-.20087-.46783-.44741zm-16.58931-1.40715c-.0524-.0848-.15909-.62069-.23706-1.19085-.12626-.92317-.10963-1.03666.15186-1.03666.17135 0 .3381.17714.40039.4253.13248.52782.36744.54379.6259.0425.2481-.48118.84948-1.14832 1.03511-1.14832.34644 0 .0877.70262-.44311 1.20328-.32096.30275-.63333.74872-.69416.99107-.18158.72348-.60844 1.08659-.83893.71365zm24.69285-3.34871c-.13873-.26478-.66248-.79487-1.16388-1.17797-.95758-.73166-1.211-1.20223-.74395-1.38146.18067-.0693.47269.0807.82875.42582.30238.29308.60851.53287.6803.53287.0718 0 .10822-.49667.081-1.1037-.0372-.8291.0174-1.17062.21938-1.37265.24517-.24518.29457-.0777.559 1.89559.25474 1.90092.25972 2.19489.0409 2.41373-.21884.21885-.27991.19056-.50143-.23223zm-16.51213-3.0007c-.90774-1.18535-.77771-1.54085.2106-.57579.34628.33813.68276.61478.74773.61478.065 0 .23009-.26794.36692-.59542.27683-.66255.60639-.79011.60639-.23472 0 .34102-.83045 1.83136-1.02789 1.84465-.0507.003-.45741-.47065-.90375-1.0535zm-31.412109.25741c0-.14067.383476-.67536.85217-1.18819.468693-.51282 1.171534-1.48048 1.561869-2.15036 1.075463-1.84567 1.375709-2.13213 1.547235-1.47622.06052.23143-.253409.81467-1.000884 1.85955-.598981.83731-1.089058 1.59346-1.089058 1.68031 0 .0869.631575.1985 1.4035.2481s1.616006.1884 1.875738.30847c.895461.41395.421061.58437-1.677261.60251-1.115005.01-2.352636.0972-2.750294.19457-.608513.149-.723015.13653-.723015-.0787zm-11.057875-.66914c0-.18522 1.043556-1.35382 2.485897-2.78378 2.658494-2.63567 4.331883-4.6926 4.664727-5.73387.268836-.84102.403813-.97017.67388-.64476.604223.72804-.898166 3.68465-2.536761 4.99219-.689366.55009-2.565804 2.69534-2.565804 2.93338 0 .0647 1.014347-.26379 2.254105-.72989l2.254105-.84746 1.906332.0598c1.062294.0333 1.98818.14166 2.091194.24467.336385.33638-.27936.60975-1.740709.77278-1.617613.18046-5.462832 1.01223-6.895374 1.49153-.536492.17951-1.339075.37998-1.783516.4455-.719254.10604-.808076.084-.808076-.2001zm64.315244-1.15404c-.26169-.31531.2328-1.1441.59882-1.00365.29661.11382.30004.20475.0297.7869-.24302.52327-.34494.55842-.62851.21675zm-12.20902-.64935c-.51842-.36647-1.00083-1.10394-.83234-1.27244.0441-.0441.39593.17361.78187.48376.85303.68552 1.01557.54002 1.01944-.91253.002-.75493.0608-.97819.25779-.97819.28743 0 .31575.39134.14588 2.0165-.0959.9179-.15339 1.04568-.47023 1.04568-.19851 0-.6046-.17225-.90241-.38278zm-59.193954-.73386c-.120633-.31436.199714-1.09494.449359-1.09494.09557 0 .173768.18513.173768.41139 0 .82968-.399067 1.26745-.623127.68355zm29.146773-1.88884c-.384172-.38416.135387-1.07743.807468-1.07743.230927 0 .227128.0716-.03134.59124-.282791.56848-.535518.7268-.776122.48619zm24.474911-2.37386c-.14177-.94535.13804-1.4002.41433-.67352l.17761.46714.5236-.44058c.60837-.5119 1.00868-.41678.55331.13148-1.29303 1.55681-1.50297 1.62165-1.66885.51548zm-46.189618.28335c-.08956-.16733-.711787-.50773-1.382734-.75642-1.20136-.4453-2.254264-.53481-4.66066-.39621-.581896.0335-.68805-.0139-.7327-.32719-.04166-.29237.07862-.4088.595424-.57639 1.174676-.3809 3.010119-1.3758 4.257336-2.30768 1.344393-1.00448 1.578998-1.08968 1.578998-.57347 0 .47649-1.20378 1.73686-2.126271 2.22625-.421184.22343-.765788.45378-.765788.51187 0 .12185 1.058391.31564 1.738892.31839.707885.003 2.28012.76693 2.608083 1.26746.160811.24543.262876.46453.22681.48689-.03607.0224-.315096.12841-.620068.23569-.48004.16887-.576358.15421-.717322-.10919zm62.159018-.32272c.17825-.20097.42951-.36541.55837-.36541.12885 0 .51889-.12088.86676-.26862l.63249-.26862-.76161-.66239c-.41888-.36432-.97389-.75033-1.23337-.85781-.44105-.18269-.59918-.48039-.3745-.70506.0535-.0535.57024.16585 1.14832.48744 1.11764.62177 2.04871 1.49363 1.9408 1.81735-.10277.30832-1.49381.94788-2.33579 1.07392l-.76554.11462zm-45.011499-.67645c-.718592-.24998-1.353493-.50249-1.410889-.56114-.0574-.0586.377432-.54312.966287-1.07662.863358-.78219 1.082663-.9109 1.132701-.66485.03916.1926-.178891.50743-.591233.85361l-.653281.54846.421109.16246c1.497326.57765 1.867141.77226 1.867141.98253 0 .31669-.199818.28849-1.731835-.24445zm14.746109.0854c-.88746-.34727-1.27591-.6281-1.27591-.92241 0-.34558 1.83921-2.12423 2.05723-1.98949.33592.20761.11841.59406-.62052 1.10244-.98869.68024-.95653.81271.337 1.38826 1.05121.46772.59898.85037-.4978.4212zm6.57907.0773c-.29367-.18618.0368-1.52371.41214-1.66771.38945-.14944.49759.0779.29383.61772-.12266.32496-.12792.54689-.0156.65917.36698.36698-.21142.69443-.69033.39082zm-13.513126-2.13627c-1.140603-.40701-1.187138-.5198-.602501-1.46028.284817-.45818.661659-.96319.837426-1.12226.300939-.27235.319579-.27213.319579.004 0 .16109-.191382.54382-.425301.8505-.233916.30668-.425302.63446-.425302.72839 0 .0939.306218.29107.680484.43808.3941.15481.680482.38046.680482.53618 0 .32267-.217905.32793-1.064867.0257zm32.443646-2.56175c-.1289-.85957-.01-1.34031.30638-1.23652.39339.12914.36024 1.99997-.0354 1.99997-.0861 0-.20798-.34355-.27094-.76345zm-8.07218-.59751c0-.18714.0908-.34025.20169-.34025.11093 0 .37497-.16279.58677-.36176.3724-.34985.91275-.34391.91275.01 0 .20747-1.18693 1.0322-1.48551 1.0322-.11863 0-.2157-.15311-.2157-.34024zm-37.251094-.84298c-.437651-.61462-2.016463-1.4103-3.819918-1.92513-.741248-.2116-1.374104-.46387-1.406344-.56059-.136418-.40926 2.288769-1.16913 4.332884-1.35761.837224-.0772 1.540356-.25085 1.939799-.47908.698387-.39904.943565-.31787.657029.21753-.268331.50138-1.667147 1.16591-2.748819 1.30586-1.67396.21658-1.725075.30715-.491157.8702 1.346155.61426 2.12097 1.2464 2.356756 1.92277.155973.44743.138796.50878-.142448.50878-.175893 0-.480896-.22622-.677782-.50273zm-8.00113-.28712c-.554498-.38462-1.897776-.84482-3.474563-1.19037-.36716-.0805-.697523-.23787-.734138-.34979-.03662-.11192.257774-.40824.6542-.6585.396428-.25025.857213-.57973 1.023968-.73217.596739-.54552 3.212986-1.92896 3.464997-1.83226.382439.14676.315983.36476-.301824.99009-.758471.76771-1.181322 1.08627-1.988429 1.49803-.377116.19239-.685665.41703-.685665.49921 0 .0822.581529.36149 1.292285.62072 1.315955.47996 1.499699.64181 1.400577 1.23374-.05378.32116-.07941.31807-.651408-.0787zm32.917144-.26103c-.18043-.46523-.0208-1.06795.29901-1.1289.37484-.0714.40885.60278.0547 1.08401-.22029.29933-.25339.30353-.3537.0449zm6.7877-.21173c-.14008-.36507.24131-.94896.61985-.94896.41773 0 .41912.31002.004.80807-.3717.44557-.49579.47361-.62347.14089zm-13.22265-.89226c-.38861-.38861.2746-1.36333.73431-1.07921.20862.12894.2018.19835-.0464.47262-.16002.17683-.29095.41116-.29095.52076 0 .21809-.21763.26516-.39695.0858zm-11.511533-2.40683c0-.0762-.459327-.68424-1.020727-1.35118-.5614-.666943-1.020727-1.284945-1.020727-1.373339 0-.08839.516743-.20129 1.148318-.250884.631575-.04959 1.298494-.115647 1.482042-.146787.208162-.03532.35634.05263.393836.233765.04818.232785-.111564.313159-.805377.405196-.476018.06315-.910408.187495-.965312.276333-.0549.08884.09057.365825.323273.61553.707175.758836 1.063514 1.729916.634795 1.729916-.09357 0-.170121-.0624-.170121-.13855zm7.831385-1.386729c-.441893-.441889-1.239995-2.02906-1.145053-2.277135.05118-.133702.470762-.168563 1.32843-.11037 1.023301.06943 1.264131.140312 1.310821.385794.0511.268823-.0435.288901-.891529.189227-1.102642-.129593-1.184976.01327-.552774.959109.730893 1.093491.701023 1.604294-.04989.853375zm-17.858201-.822942c-.323451-.917994-1.283595-2.456066-2.193086-3.513148-.860344-.999958-3.152837-2.96618-4.111728-3.526544-1.050379-.613827-2.066319-2.153329-1.360969-2.062345.281622.03633 4.600608 1.63267 4.87338 1.801251.09401.0581 1.077844.342726 2.186292.632496 1.490962.389765 2.305063.513653 3.128751.476124.91568-.04172 1.123398-.0018 1.16973.224727.04118.201319-.149282.32723-.707666.467833-1.170418.294714-2.737884.224747-4.611187-.205831l-1.701211-.391022 1.209383 1.20269c1.488461 1.480226 2.60976 3.613479 2.616502 4.977847.0031.625765-.26396.580696-.498191-.08408zm37.246199-.327023c0-.459474.11002-.980184.24561-1.162494.24289-.326565.25277-.326455.89113.01002.35503.187134.67117.474214.70253.637955.0702.366334-.40131.403478-.53982.04253-.18768-.489073-.55361-.255182-.71388.456277-.2345 1.041022-.58557 1.050445-.58557.01571zm-10.06699.429615c-.19436-.150787-.30259-.536404-.34024-1.212279l-.0552-.991151.4997.100139c.74012.148313 2.30729.900361 2.30729 1.107209 0 .295237-.73471.196084-1.19084-.16071-.66735-.522008-.82758-.427996-.88425.518838-.0464.774922-.0794.837416-.33645.637954zm18.64182-2.491639c.13301-1.177479.14811-1.169654-.83507-.432621-.67302.504526-1.44528.8014-1.44528.555604 0-.310647.93705-1.077825 2.02427-1.657307 1.18282-.630438 1.15904-.661266.85162 1.104088-.10246.588381-.30582 1.16881-.4519 1.289843-.23788.197082-.25287.107326-.14364-.859607zm-37.908321-.463321c-.146892-.146893-.30895-.47225-.360129-.723015-.05118-.250765-.16392-.723877-.250541-1.051361-.222025-.839406-2.805498-5.124785-3.316076-5.500596-.461465-.33966-.491427-.423698-.273599-.767397.200452-.316283.838238.03026 2.46677 1.340353 1.407617 1.132369 3.097016 2.205702 3.471722 2.205702.44807 0 1.396688.548145 1.396688.807054 0 .420182-1.31404.173215-2.7408-.515117-.690399-.333081-1.279823-.581051-1.309829-.551043-.03001.03001.180955.521101.468801 1.091322.799503 1.583804 1.320211 3.931176.872041 3.931176-.08688 0-.278155-.120185-.425048-.267078zm20.657311-2.785172c0-.298214 1.13563-2.474258 1.41017-2.702106.28953-.240284.55578.09494 1.02628 1.29212.51777 1.317481.24438 1.755029-.32334.517488-.17976-.391845-.40339-.734885-.49696-.762308-.0936-.02742-.39978.344382-.68048.826236-.4866.835315-.93567 1.232976-.93567.82857zm-6.70646-.83899c-.0505-.08172.1359-1.096065.41424-2.254105.27835-1.158042.55126-2.335194.6065-2.615893l.10043-.510364.34375.42368c.41075.50625 1.15325 1.941484 1.33842 2.587126.12145.423477.10549.445232-.19086.260159-.17786-.111078-.49392-.523408-.70234-.916289s-.43036-.682557-.49319-.643723c-.0628.03883-.32342.913765-.57908 1.944294-.43235 1.742722-.60601 2.100279-.83787 1.725115zm18.05252-.656726c-.0415-.0717-.12909-.589692-.19448-1.151092-.0654-.561399-.15968-1.192384-.20949-1.402186l-.0906-.381459-.53478.379924c-.29413.20896-.93332.704112-1.42043 1.100338-1.05436.85764-1.39437.660056-.43998-.255676.99699-.956603 2.78467-2.463279 2.84066-2.394138.0855.105526.44181 2.926779.44158 3.49605-.00017.519802-.23388.881898-.39252.608239zm9.62138-1.36296c-.30289-.102077-.27405-.331463.29771-2.367662.2807-.999662.51036-1.851652.51036-1.893315 0-.04166-.27402.133257-.60893.388708-.88022.671373-3.1518 1.20236-3.52921.824958-.16663-.16663.22422-.568546.55289-.568546.15724 0 .93255-.307794 1.72292-.683986 1.15539-.549937 1.6433-.908351 2.4895-1.828802.78609-.855071 1.10174-1.09612 1.24716-.952407.14595.144239.0978.378495-.19237.935667-.21288.408791-.81238 1.974859-1.33222 3.480153-.62949 1.822805-1.01618 2.712962-1.15781 2.665232zm-34.195965-1.401974c-.116074-.185864-.213433-.817439-.21635-1.403499-.003-.586061-.116149-1.98422-.251623-3.10702-.310532-2.573684-.313681-2.466756.07265-2.466756.21472 0 .651819.464864 1.279892 1.361192.982875 1.402671 1.820591 2.097544 2.762886 2.291792.75782.156219.98593.473971.59454.828178-.28944.261937-.37348.241159-1.317837-.325839-.554774-.333092-1.200072-.776558-1.433988-.985482-1.123166-1.003157-1.057371-1.120668-.922766 1.648051.101529 2.088347.08229 2.497317-.117473 2.497317-.131387 0-.333855-.15207-.449928-.337934zm-7.526253-1.642666c0-.527457-.206019-1.276099-.620304-2.254105-.62862-1.483981-.942029-2.003142-3.028975-5.017493-1.232055-1.779563-1.917742-3.240578-1.610107-3.430709.198266-.122535.113067-.188215 2.471182 1.90503 3.207806 2.847496 4.669264 3.79193 5.879 3.799174.777723.0047 1.162233.146056 1.162233.427399 0 .499418-1.669078.567048-2.856785.115754-.820622-.311812-2.627611-1.454846-3.191744-2.018977-.366915-.366914-.386867-.413812.846637 1.989923.552169 1.076017 1.175465 2.491392 1.385098 3.14528.342189 1.067355.356317 1.236908.13821 1.658681-.358483.69323-.574445.572943-.574445-.319957zm20.515708-2.872521c-.67745-.353285-.89325-.674025-1.2843-1.908722-.18513-.584531-.44007-1.260274-.56654-1.501652-.22291-.425441-.24114-.397055-.59573.92779-.20118.751661-.48195 1.644671-.62392 1.984468-.27725.663549-.65277.717494-.74265.106686-.0299-.203196-.12079-.369447-.20198-.369447-.0812 0 .0834-.509592.36585-1.13243.56011-1.235283 1.16641-3.402101 1.16641-4.168538 0-.735169.44129-.593925.74939.239864.14695.397659.46834 1.373728.71419 2.169045.49482 1.600728.92484 2.527906 1.55827 3.359892.47024.617633.28087.720596-.53899.293044zm10.81374-1.166468c-.0874-.316641-.29751-1.163385-.46684-1.881655l-.30788-1.305945-.28953.563218c-.15924.309769-.60998.926851-1.00164 1.371292-.53683.609166-.83171.808075-1.19799.808075-.55755 0-.78362-.239178-.46715-.494248 1.23639-.996487 1.52644-1.35021 2.14331-2.613804.37594-.770087.81829-1.840346.98299-2.378354.17095-.558373.3978-.978197.52858-.978197.18216 0 .22247.461866.19674 2.254105-.0296 2.063949.006 2.357884.42031 3.484289.56448 1.534031.56879 1.746936.0354 1.746936-.32947 0-.45076-.121177-.57626-.575712zm8.83525-1.124501c-.27478-1.28125-.22673-3.0331.15401-5.614996.18627-1.263149.33903-2.372166.33946-2.464484.00052-.09232-.28001.252177-.6232.765544-1.43299 2.143574-3.11081 3.736847-4.29178 4.075548-.5389.154554-.53208.139918.40743-.87487.52552-.567628 1.33717-1.57792 1.80365-2.245092.86325-1.234611.98476-1.396094 2.51302-3.339552.47826-.608183 1.10238-1.548901 1.38695-2.090483.51045-.971478.84957-1.135994.8426-.408763-.002.205002-.19533 1.023445-.42971 1.818761-.73073 2.479582-1.13713 5.164585-1.24857 8.248949-.0904 2.503059-.14213 2.897341-.38602 2.943962-.21459.04102-.32593-.152842-.46784-.814524zm-31.243972-4.211496c-.0098-2.476685-.06346-2.923962-.708619-5.911709-.824693-3.819062-.878574-4.200882-.605754-4.292703.159954-.05384 1.750312 2.128078 1.750312 2.401368 0 .09442 2.422613 4.342535 2.970423 5.208696.26629.42105.82611 1.211858 1.24405 1.757352.51619.673748.70426 1.047416.58646 1.165215-.61319.613185-2.13263-1.133991-3.651232-4.198474-1.114016-2.248044-1.174495-2.333964-1.077714-1.531091.254034 2.107522.293218 6.467907.06485 7.217217-.425323 1.395555-.56175.963051-.572776-1.815871zm12.514542-.324175c0-.06133.27974-1.228793.62164-2.594347.3419-1.365553.93921-4.047148 1.32735-5.9591.38813-1.911952.78652-3.503215.8853-3.536143.10433-.03477.22749.352711.29386.924459.23489 2.023545 1.132 5.995608 1.87318 8.293629.42144 1.306684.72802 2.414016.6813 2.460738-.20062.200619-.68783-.346084-1.19728-1.343489-.59322-1.161396-1.11051-2.939943-1.42737-4.907647-.11023-.684469-.22629-1.218605-.25793-1.186971-.0316.03163-.25085 1.123211-.48715 2.425726-.35758 1.971015-.56055 2.633746-1.2102 3.951438-.42932.870777-.85305 1.583231-.94164 1.583231-.0886 0-.16106-.05018-.16106-.111524zm23.75433 78.239656c-.23-.44559-.97787-2.83052-1.20103-3.83011-.10489-.46977-.1055-.46996-.65404-.19275-.30198.1526-.71764.43152-.92369.61981l-.37463.34235 1.65054 1.76216c.9078.96919 1.67165 1.76311 1.69744 1.76427.0258.001-.0618-.20842-.19459-.46573zm-47.738491-4.25303c.300172-.53801.843362-1.37683 1.207088-1.86403.363726-.48721.66132-.96047.66132-1.05168 0-.23255-.925913-.86604-1.511121-1.03388l-.489025-.14025-.122099 1.72221c-.06715.94722-.179848 2.08753-.250429 2.53402-.07058.44649-.108793.81181-.08491.81181.02387 0 .289009-.44019.589181-.9782zm57.668144-.55289c-.10015-.18714-.22037-.34025-.26715-.34025-.0468 0-.003.15311.097.34025.10015.18713.22037.34024.26716.34024.0468 0 .003-.15311-.097-.34024zm4.72179-9.13103c-.49173-.74818-.97862-1.50639-1.08198-1.68494-.16527-.28549-.22316-.29537-.48027-.082-.16079.13344-.43807.52827-.61618.8774l-.32384.63477 1.65471.82264c.91009.45245 1.67427.81584 1.69817.80753.0239-.008-.35887-.62724-.85061-1.37541zm-76.250325-3.463028c.403911-.2779.816281-.50527.916382-.50527.100099 0 .181999-.24958.181999-.55463 0-.61727-.548751-1.32199-1.353414-1.7381-.487998-.25235-.492834-.24999-.606734.29616-.173648.83264-1.038528 3.24662-1.457305 4.067488l-.370801.72683.977747-.89361c.53776-.49148 1.308216-1.120978 1.712126-1.398868zm81.106515-12.24554c1.18844-.36707 1.86443-.9592 2.47945-2.17187.89431-1.76336.94227-4.57999.10624-6.23962-.82811-1.64388-1.75288-2.02305-2.63217-1.07925-.2868.30785-.34539.60144-.34756 1.74169-.003 1.64506-.25641 2.27003-.41232 1.01737-.37542-3.01636-.75081-3.56905-2.65529-3.90957-2.38436-.42632-4.71888-.21729-4.53355.40593.0466.15682.44042 1.62484.87508 3.26226.93355 3.51683 1.92149 5.7378 2.9761 6.69058.65541.59212.75241.62463 1.86382.62463.69402 0 1.62447-.13961 2.2802-.34215zm12.55399-2.03722c.22365-.002.18623-.17119-.21265-.96196-.26623-.52781-.48405-1.06369-.48405-1.19085 0-.49206.35389-.19253.78207.66193.55663 1.11077.88294 1.48855 1.28575 1.48855.4299 0 .40261-.0896-.28155-.92455-.32748-.39965-.59448-.87186-.59333-1.04936.001-.24307.21559-.10229.86711.57042.47575.49122.94424.89313 1.04108.89313.0968 0 .44019-.16323.76299-.36274l.58693-.36274-.52325-.25341c-.72973-.35342-1.56146-1.32215-2.31676-2.69834-.96131-1.75157-1.81954-2.82655-2.60795-3.26663-.81405-.45438-.7358-.5575-1.13817 1.49999-.32477 1.6606-1.0455 4.05929-1.32178 4.39902-.19104.23492.0214.47773.78462.89702.28085.15428.29588.0997.19073-.69295-.0628-.47324-.0673-.86043-.01-.86043s.28852.36364.51389.80808c.60756 1.19809 1.22423 1.63898 2.06271 1.47477.18713-.0366.46237-.0677.61164-.069zm-8.71721-12.03336c1.11851-2.68335.34452-4.56414-2.19578-5.33573-.97127-.29502-1.41256-.34076-2.33469-.24201-1.34365.1439-1.5129.29028-3.41347 2.95229-1.45853 2.04288-2.71765 3.51901-3.5211 4.12796l-.5862.44429.83045.0983c2.62687.31112 5.36866-.86452 7.62798-3.27074.70693-.75289.89111-.87642.89313-.59902.005.64037-1.91151 3.13801-2.40749 3.13801-.078 0-.14177.30869-.14177.68597 0 .55237.0746.71593.38277.83982 2.55083.6815 3.89359-.58606 4.86617-2.83919zm-12.0131-8.29844c1.51371-1.82558 2.15733-5.719453 1.31672-7.966172-.57903-1.547588-.43008-1.504528-4.51981-1.306591-1.95657.0947-3.94015.267664-4.40799.384379l-.850603.212206-.0521 1.013974c-.0482.938414.319153 2.962949.628453 3.463402.0732.118385.85053.482002 1.72747.808032s1.9422.79594 2.36724 1.04425c.9973.5826 2.25644 1.77465 2.65367 2.51226.34462.63991.48601.61929 1.13694-.16574zm-2.01778-4.235666c-.71651-.320788-1.08509-.894291-1.08509-1.68838 0-.945701.87792-1.816466 1.83138-1.816466.82789 0 1.4753.470325 1.73639 1.26144.24339.737463.0949 1.310474-.48297 1.864138-.5736.549542-1.3082.688866-1.99971.379268zm11.31918 3.519076c1.00475-1.21893 1.32137-3.645248.76495-5.861864-.35048-1.396245-.58855-1.612093-1.89869-1.721493l-1.06326-.08879v.643455.643456l.76095-.08577c.69606-.07846.81212-.0346 1.36097.514249.67766.677664.77706 1.329327.33354 2.186984-.28943.559711-1.27236 1.073343-1.75866.918993-.28059-.0891-.28547-.009-.0794 1.31094.40909 2.61911.38251 2.53471.73823 2.34433.17539-.0939.55399-.45588.84134-.80449zm1.4277-8.911862c-.68332-1.171665-3.14594-3.896178-3.52167-3.896178-.13201 0-.10716 1.871805.0395 2.972109l.11269.845596 1.53109.284451c2.27068.421853 2.20862.428805 1.83842-.205978zm-17.99993-.580969c3.39829-.5246 6.12189-.684715 7.56042-.444463.6027.100659 1.12855.150285 1.16856.110281.19571-.195714-1.42824-2.690131-2.93664-4.510721-2.08931-2.52174-2.16671-2.541889-4.03746-1.051088-1.61183 1.284474-2.31635 2.081913-3.199903 3.621931-.39618.690517-.90296 1.540924-1.12621 1.889792-.43325.677062-.48036.813843-.2783.808091.0702-.002 1.35246-.192718 2.849533-.423823z" stroke-width=".170121"/></svg>