<svg width="1509" height="851" viewBox="0 0 1509 851" fill="none" xmlns="http://www.w3.org/2000/svg">
<path fill-rule="evenodd" clip-rule="evenodd" d="M1497.94 286.618C1461.32 114.755 1288.9 -13.8309 1113.71 1.44001C1030.04 6.10131 948.661 41.5 887.224 98.3132C885.231 100.395 883.209 102.498 881.167 104.621C842.051 145.3 795.56 193.648 802.853 253.657C812.831 320.19 907.606 343.833 947.875 290.521C996.057 239.259 948.148 146.143 878.783 154.371C848.085 155.807 862.788 136.146 885.282 113.951C1005.53 -9.46658 1216 -24.3273 1352.13 81.52C1493.76 182.1 1539.76 389.867 1454.74 541.023C1382.84 679.769 1215.82 756.157 1063.36 724.49C994.256 703.969 930.054 669.31 866.513 635.008C856.397 629.548 846.298 624.096 836.199 618.712C776.412 587.89 723.769 546.573 671.144 505.27C617.771 463.379 564.416 421.504 503.648 390.609C489.069 384.633 474.091 380.191 459.32 375.811C420.088 364.176 382.317 352.975 357.382 314.621C311.114 266.355 242.938 244.389 177.155 254.928C134.166 257.884 102.366 282.618 70.6491 307.287C57.3102 317.662 43.986 328.025 29.8504 336.752C-28.9703 358.663 14.3398 373.456 48.2985 385.055C55.8237 387.626 62.8897 390.039 68.2833 392.338C109.689 427.949 146.299 475.132 161.48 527.627C172.655 626.453 261.814 687.825 344.853 725.987C311.524 737.958 346.319 826.159 351.48 772.307C351.274 742.655 365.147 752.845 377.25 761.734C387.593 769.331 396.642 775.977 394.507 756C409.821 753.49 428.886 759.595 449.226 766.107C471.748 773.318 495.832 781.029 518.119 778.103C574.17 787.336 544.5 830.796 503.589 833.926C435.001 866.708 537.59 842.35 558.56 833.482C597.881 833.139 607.471 808.045 617.206 782.571C625.749 760.215 634.403 737.566 663.363 731.098C682.005 718.664 708.937 720.726 734.387 722.674C769.594 725.369 801.966 727.847 805.639 691.435C846.213 702.046 884.341 720.581 922.458 739.112C945.525 750.326 968.589 761.538 992.188 770.99C1031.78 798.687 1058.36 777.394 1059.61 736.001C1133.94 745.025 1212.11 742.717 1281.64 711.519C1444.21 646.517 1540.71 456.192 1497.94 286.618ZM900.373 166.013C893.12 164.44 885.653 162.96 878.24 164.173C870.72 165.333 863.173 166.813 856.147 169.8C834.36 178.92 817.493 199.147 812.8 222.333C808.427 241.147 812.8 261.533 823.493 277.48C833.587 292.747 849.507 304.347 867.48 308.267C887.4 313.533 909.347 308.813 926.107 297.08C942.04 285.773 953.427 268.053 956.467 248.68C959.573 229.933 954.76 210.093 943.587 194.747C933.173 180.52 917.747 169.64 900.373 166.013Z" fill="#95D834"/>
<path d="M873.505 187.928C888.015 183.523 903.623 189.297 915.232 198.151C927.461 207.963 934.821 223.503 935.261 239.089C933.05 255.554 924.426 271.911 909.576 280.216C898.007 287.288 883.089 290.958 870.151 285.445C848.849 278.956 833.369 257.479 833.332 235.325C835.202 213.233 851.893 193.228 873.505 187.928Z" fill="#4763A6"/>
<path d="M134.133 316C139.947 315.173 146.493 315.227 151.373 318.973C157.627 323.173 162.173 330.24 161.427 338C162.2 345.453 157.813 352.133 152.013 356.373C146.32 361.253 138.08 361.093 131.253 359.173C125.68 356.827 120.867 352.28 118.253 346.827C116.613 340.827 116.387 334.093 118.627 328.227C121.893 322.413 127.36 317.16 134.133 316Z" fill="#5E8B19"/>
<path d="M138.147 324.013C147.16 323.52 156.24 334.133 151.853 342.8C149.6 347.8 144.547 351.667 139.027 352.04C131.987 351.093 125.733 345.28 125.333 337.987C125.72 331.08 131.373 325.133 138.147 324.013Z" fill="#D5F591"/>
</svg>
