<?xml version="1.0" encoding="UTF-8"?>
<svg width="1131px" height="639px" viewBox="0 0 1131 639" version="1.1" xmlns="http://www.w3.org/2000/svg" xmlns:xlink="http://www.w3.org/1999/xlink">
    <title>Shape</title>
    <g id="Page-1" stroke="none" stroke-width="1" fill="none" fill-rule="evenodd">
        <path d="M1123.205,215.46353 C1155.2806,342.64411 1082.9065,485.38803 960.9814,534.13959 C908.83351,557.53738 850.20782,559.26852 794.45774,552.50099 C793.51826,583.5457 773.58149,599.51508 743.89109,578.74281 C730.316346,573.305526 716.977978,567.091957 703.693327,560.696818 L700.373178,559.094595 L695.395764,556.681592 L687.102279,552.651347 C660.006103,539.496483 632.816598,526.617681 603.97926,519.07625 C599.23293,566.1267 530.59478,526.59727 497.2725,548.82375 C450.80286,559.20236 474.04187,625.12931 418.67,625.61125 C402.94255,632.26225 326.00088,650.53099 377.44141,625.94484 C408.12492,623.59678 430.37744,591.00226 388.33953,584.07703 C356.52782,588.25417 319.83276,563.53384 295.63,567.5 C299.10548,600.0157 263.07292,538.48786 263.36,579.73 C259.48947,620.11888 233.39325,553.96821 258.39,544.99 C196.11028,516.36896 129.24118,470.34004 120.86,396.22 C109.47391,356.84906 82.01691,321.46188 50.9625,294.75375 C28.662372,285.24725 -31.753624,273.13916 22.137813,253.06422 C31.4484044,247.315935 40.2896371,240.621161 49.0811864,233.805307 L56.2200331,228.25849 L59.0139349,226.098263 L61.0149074,224.5619 L62.3514905,223.542329 C62.7974098,223.203183 63.2437387,222.864783 63.6905308,222.527235 L65.0323508,221.517251 L66.9434293,220.092885 C86.3013,205.755666 106.760264,193.473897 132.61594,191.69609 C181.95362,183.79181 233.08578,200.26589 267.78648,236.46561 C286.063307,264.57882 313.535266,273.240605 342.239267,281.764581 L347.100954,283.207394 L350.685724,284.278665 C359.6549,286.975938 368.667856,289.842167 377.48578,293.45656 C416.909259,313.499598 452.172314,339.704666 486.882995,366.748897 L491.760915,370.556975 L496.633782,374.372827 L513.001441,387.210059 C549.209697,415.551085 585.804528,443.348281 626.8991,464.5336 C633.059826,467.81809 639.220379,471.136084 645.387658,474.46398 L655.085625,479.69829 C658.026682,481.284858 660.970083,482.870869 663.916574,484.453773 L667.453894,486.351605 L671.097144,488.300301 C711.800481,510.033361 753.206224,530.782626 797.2675,543.8675 C911.61772,567.61779 1036.8785,510.32693 1090.8059,406.26725 C1154.5668,292.90062 1120.0729,137.07475 1013.845,61.64 C911.74649,-17.745459 753.89736,-6.599942 663.71153,85.96312 L662.70652,86.9595079 C646.413256,103.192957 636.273833,117.333805 658.83703,116.27859 C710.8609,110.10748 746.79286,179.94413 710.65592,218.39102 C680.4541,258.37495 609.37283,240.64223 601.89,190.7425 C596.1348,143.38638 635.03822,105.71322 665.1676,74.23491 C711.24599,31.625 772.2783,5.075975 835.03,1.58 C966.4227,-9.873203 1095.7417,86.56641 1123.205,215.46353 Z M100.35,237.5 C95.27,238.37 91.17,242.31 88.72,246.67 C87.04,251.07 87.21,256.12 88.44,260.62 C90.4,264.71 94.01,268.12 98.19,269.88 C103.31,271.32 109.49,271.44 113.76,267.78 C118.11,264.6 121.4,259.59 120.82,254 C121.38,248.18 117.97,242.88 113.28,239.73 C109.62,236.92 104.71,236.88 100.35,237.5 Z M113.64,257.6 C111.95,261.35 108.16,264.25 104.02,264.53 C98.74,263.82 94.05,259.46 93.75,253.99 C94.04,248.81 98.28,244.35 103.36,243.51 C110.12,243.14 116.93,251.1 113.64,257.6 Z M658.43,123.63 C652.79,124.5 647.13,125.61 641.86,127.85 C625.52,134.69 612.87,149.86 609.35,167.25 C606.116857,181.158429 609.257624,196.213384 617.029193,208.095403 L617.37,208.61 C624.94,220.06 636.88,228.76 650.36,231.7 C665.3,235.65 681.76,232.11 694.33,223.31 C706.28,214.83 714.82,201.54 717.1,187.01 C719.43,172.95 715.82,158.07 707.44,146.56 C699.752031,136.056719 688.420645,127.985613 675.639703,125.141473 L673.86191,124.758925 C668.790204,123.681735 663.592857,122.785 658.43,123.63 Z M686.17397,149.11308 C695.34584,156.472 700.86565,168.12693 701.19548,179.81698 C699.53745,192.1656 693.06955,204.4332 681.93227,210.66224 C673.25505,215.96597 662.06643,218.7183 652.36291,214.5837 C636.38641,209.71713 624.77684,193.60915 624.74878,176.99369 C626.15161,160.42469 638.66986,145.42072 654.87887,141.44591 C665.76135,138.14192 677.46713,142.47313 686.17397,149.11308 Z" id="Shape" fill="currentColor" fill-rule="nonzero"></path>
    </g>
</svg>
