<svg width="195" height="168" viewBox="0 0 195 168" fill="none" xmlns="http://www.w3.org/2000/svg">
<path d="M110.924 0C109.285 3.8104 109.744 8.25612 108.549 12.2163C108.274 13.1285 107.372 15.8841 106.053 15.6933C103.355 15.3032 104.753 10.1209 101.64 10.0174L102.617 17.5915C97.9398 18.179 98.578 10.8772 96.6793 7.91101C94.4885 4.48833 93.9609 9.4637 94.1073 10.9947C94.2009 11.9759 94.399 12.948 94.5166 13.9266C94.721 15.6297 94.7694 17.1115 94.5544 18.8132C90.085 18.7604 91.7256 12.8776 88.4463 11.972L88.6906 19.0575C83.7356 19.0159 81.4773 14.5433 79.3019 10.7504C78.3934 9.16716 77.1852 6.10793 75.0083 7.08547C76.0266 11.487 78.4362 15.7002 78.682 20.2791C78.7455 21.463 77.6282 24.4683 75.9863 23.9154C72.1924 22.6373 72.7016 15.7542 69.5402 13.943C68.9011 13.5768 67.8915 13.8966 67.1898 13.9266C67.1922 17.578 68.7982 21.9918 70.0746 25.41C70.3492 26.1452 71.1203 28.7299 69.5188 28.6818C66.6562 28.5958 65.9435 23.0461 63.0363 23.6997C63.392 25.1967 64.2814 26.4117 64.7774 27.8532C65.0803 28.734 65.6415 29.6241 65.8043 30.5406C66.1595 32.5448 63.6207 32.7073 62.3033 32.319C59.1908 31.4014 56.9555 28.8569 54.7292 26.6316C54.1123 26.0149 52.4843 23.8437 51.4572 24.8292C50.3147 25.9253 52.5581 27.851 53.1943 28.5862C55.0959 30.7844 57.1534 33.3591 58.0618 36.1604C58.4522 37.3639 58.5287 39.0742 57.3337 39.9C56.1482 40.7192 54.2198 39.2323 53.2632 38.6029C50.334 36.6754 47.4221 33.3071 43.7345 33.2284L42.8708 35.4274L45.2224 38.6036L51.3086 45.4448L44.2231 42.5129C44.5092 44.3651 48.947 46.6097 48.0732 48.5186C47.5555 49.6501 44.9881 49.6689 43.9788 49.525C40.3664 49.0102 37.8103 46.3204 34.4501 45.3563C31.483 44.5051 32.0351 46.8066 33.7173 48.136C34.301 48.5973 34.8635 49.0811 35.4274 49.5666C36.4428 50.4403 37.4115 51.3384 38.3593 52.2859C39.8414 53.7675 41.14 55.3517 42.5129 56.9281L35.4274 56.6838V57.1724L42.2685 60.3487L41.0469 65.2352C39.0715 65.23 37.4699 64.6921 35.6717 63.91C34.4462 63.3769 33.1561 62.4912 31.7625 62.5892C30.0988 62.706 29.1096 64.225 30.2242 65.6445C31.8951 67.7723 35.2424 68.9844 37.3808 70.6422C38.1968 71.275 39.3791 72.3564 38.456 73.4365C36.6331 75.57 31.7202 72.8328 29.3192 73.5424V74.031C31.5475 75.3315 36.1164 76.0736 37.4277 78.4714C38.4531 80.3466 35.5371 84.5974 33.4727 84.431C31.6335 84.2824 29.943 82.2064 28.5862 81.1167C25.3391 78.5085 21.865 75.4403 18.0802 73.6405C11.5902 70.5545 5.14442 75.4696 0 78.6732C0.657982 80.7495 3.25516 78.5395 4.88653 78.9095C7.08225 79.4071 8.75034 81.45 10.158 83.0711C16.96 90.9047 22.6532 99.7867 25.1967 109.947C25.8661 112.622 27.0091 115.822 25.01 118.219C24.474 118.861 23.6747 118.945 23.0834 119.476C22.6414 119.872 22.6643 120.434 23.2706 120.62C24.3899 120.962 26.0218 120.442 27.1203 120.177C30.7065 119.313 34.8004 117.378 36.4289 113.856C37.4418 111.665 37.7983 107.403 40.3139 106.526C40.8705 108.875 43.5112 111.981 43.2541 114.345C43.0257 116.444 40.8148 118.877 39.5218 120.431C39.0639 120.982 37.9586 122.189 38.62 122.979C39.2782 123.765 40.6367 122.072 41.0469 121.684C42.9011 119.933 46.954 117.168 48.0544 121.186C49.0112 124.68 45.9371 130.329 44.4015 133.402C43.9742 134.257 42.0061 136.93 42.7745 137.883C43.6604 138.982 45.5139 136.119 45.9088 135.601C47.4487 133.584 52.8415 127.607 55.7065 129.755C59.2006 132.375 57.9958 134.248 56.6716 137.8C56.2985 138.801 54.9207 141.31 55.8575 142.261C56.7639 143.182 57.9543 142.339 58.4175 141.461C59.256 139.871 61.5122 135.147 63.7693 136.352C65.182 137.107 67.3423 138.387 68.164 139.797C69.4484 142.001 68.3313 146.4 67.989 148.795C67.7919 150.174 66.309 154.478 67.54 155.474C68.677 156.395 69.5965 153.627 69.938 152.949C71.1416 150.558 72.5262 148.111 74.3178 146.107C74.9609 145.388 75.87 144.183 76.9629 144.388C82.6379 145.45 76.84 151.103 79.1687 153.989C79.64 154.573 80.9181 154.531 81.6051 154.659L84.537 147.085C86.0282 147.659 88.2215 147.858 89.3212 149.092C90.2452 150.128 90.4268 151.879 90.6938 153.193C91.4415 156.872 91.8507 160.45 91.3782 164.188C91.8427 164.522 92.5751 165.297 93.1986 164.9C93.9873 164.396 94.088 162.343 94.3575 161.5C95.2195 158.804 96.5345 156.227 97.7563 153.682C98.5611 152.005 100.755 150.219 102.339 152.528C103.963 154.896 103.313 159.039 104.328 161.744C106.923 160.465 107.205 155.063 107.259 152.46L110.625 152.951L112.647 157.102L116.3 167.608C118.19 166.885 117.591 163.25 117.803 161.5C118.091 159.128 118.641 154.363 120.38 152.598C121.081 151.886 122.476 151.826 123.385 151.483C124.422 154.011 124.991 156.878 126.246 159.297C126.735 160.24 127.85 161.257 128.978 160.679C130.057 160.125 130.017 158.865 129.878 157.835C129.538 155.303 128.962 152.814 128.76 150.261C133.604 149.919 136.445 153.835 139.489 157.102C140.665 158.365 141.689 160.037 143.42 160.523L140.908 153.193L139.511 146.352C141.268 145.616 144.988 142.021 146.84 142.545C149.6 143.324 151.708 151.013 155.133 149.206C156.594 148.435 155.839 147.129 155.153 146.107C154.131 144.586 151.058 140.933 151.391 139.023C151.638 137.607 154.009 135.958 155.392 135.977C158.559 136.021 164.067 138.432 165.898 140.976L168.097 140.732C167.767 136.358 161.212 134.363 160.274 129.982C160.18 129.546 160.196 129.019 160.304 128.585C161 125.777 162.689 127.004 164.432 127.758C164.976 127.993 166.163 128.597 166.613 127.924C167.109 127.183 166.23 126.204 165.908 125.584C165.25 124.317 164.647 122.855 164.921 121.43C167.203 122.027 168.612 123.385 170.54 124.668C170.996 124.971 172.002 125.731 172.577 125.307C173.182 124.862 172.289 123.963 172.001 123.629C171.14 122.631 168.504 120.22 168.764 118.765C168.939 117.782 170.597 116.73 171.273 116.055C173.507 113.825 176.051 111.552 177.87 108.97H178.114C182.43 114.004 195.958 110.474 194.24 102.862C193.164 103.015 192.164 103.861 191.064 103.482C186.251 101.823 187.414 94.1139 182.023 94.0658C181.626 89.0407 179.607 84.0178 177.171 79.6505C176.054 77.648 173.731 75.816 172.92 73.7771C172.471 72.6466 172.547 70.8545 172.495 69.6331C175.321 69.1928 173.928 66.3315 172.899 64.7466C171.752 62.9803 170.539 60.8848 169.051 59.3941C167.223 57.5631 164.501 56.3696 164.735 53.2635C164.954 50.3704 169.939 50.7381 170.784 48.1324C169.306 48.1959 167.845 48.5621 166.387 48.805C162.756 49.4097 162.124 48.1886 163.819 44.9561C165.3 42.1319 167.658 39.989 169.737 37.6263C170.403 36.8704 172.456 35.1476 171.398 34.0525C170.524 33.1476 169.082 34.529 168.341 35.0201C165.644 36.8081 162.633 38.1294 159.545 39.0859C158.626 39.3708 155.914 40.4314 155.607 38.8018C155.193 36.6018 159.357 36.1911 158.812 33.7171C157.146 34.1129 153.872 36.7423 152.271 35.5234C150.345 34.0565 153.174 30.3117 153.477 28.5865C153.783 26.839 152.378 26.7748 151.389 27.8677C151.042 28.2505 150.728 28.6693 150.409 29.0749C149.856 29.7766 149.398 30.4573 149.039 31.2738C145.038 28.9376 152.609 26.2231 151.184 24.0607C150.676 23.2901 149.739 24.0614 149.284 24.4603C148.334 25.2917 144.763 29.4064 143.986 26.3861C143.127 23.0455 144.862 19.0328 145.76 15.8812C145.995 15.0582 147.054 12.8374 146.026 12.2461C144.526 11.3831 143.868 14.2945 143.517 15.1483C142.434 17.777 140.645 20.0624 138.533 21.947C137.838 22.5678 136.658 23.7726 135.616 23.4857C134.103 23.0693 134.098 18.8743 134.145 17.5915C134.168 16.9808 134.511 15.9271 133.915 15.4846C133.136 14.9074 132.73 16.0653 132.614 16.6153C132.236 18.4142 131.119 23.5532 128.453 20.1837C126.04 17.1347 129.771 10.81 124.851 9.52874L122.163 18.0802C118.943 17.3772 119.657 12.7722 120.453 10.2617L118.987 9.77307C118.756 10.7699 118.428 11.741 118.085 12.705C116.783 16.3595 115.043 17.0712 113.699 12.9493C112.674 9.80336 113.038 6.40923 112.527 3.17625C112.324 1.88697 112.203 0.579142 110.924 0Z" fill="black"/>
<path d="M111.169 7.32983C111.024 14.3107 108.916 19.541 101.151 19.5462L103.839 30.5409C100.923 27.4851 99.8597 23.208 98.545 19.3018C97.7104 16.8225 96.6478 14.3308 96.2647 11.7277H96.0203C96.1115 16.1385 97.0414 20.5152 96.155 24.9214C95.6675 27.3436 94.3023 29.2264 93.5771 31.5182H93.3328L94.7987 20.7678C89.3441 21.1989 84.6352 22.0254 81.0612 16.8586C80.2847 15.736 79.6852 14.4506 79.1618 13.1937H78.9175C79.5298 17.2819 83.1705 22.0523 78.8955 25.4814C78.2427 26.0049 77.4889 26.3265 76.7185 26.6316L80.5809 32.4859L82.8267 35.4274C76.6455 31.3337 72.9684 24.2042 69.8774 17.5916H69.6331C70.4213 22.8539 73.6195 27.6111 74.4153 32.9841C74.6916 34.851 75.4145 37.492 73.7866 38.848L71.832 29.5636C68.9861 31.04 66.7959 35.4787 63.0362 34.852C61.4371 34.5855 60.1429 33.2908 58.6384 32.7398C59.3467 34.9781 61.3074 37.0947 60.1891 39.5809C59.7755 40.5009 58.968 41.206 58.394 42.0242L66.2125 44.9562C64.7859 46.6633 61.8156 45.3229 60.1043 44.5208C56.8604 43.0003 53.9737 40.9912 51.0642 38.9191C49.4109 37.7414 47.4653 36.0624 45.4447 35.6717C46.6891 38.34 49.8832 40.6015 52.0415 42.5544C53.8261 44.1689 55.1591 46.0356 56.6642 47.8881C58.1465 49.7127 60.0838 51.7716 59.3713 54.2406C56.7727 51.6204 54.5034 49.7156 50.5756 50.6331C49.1499 50.9659 47.9474 51.8034 46.422 51.7658C43.7056 51.6988 41.082 50.3152 38.6036 49.354C40.0424 52.4394 43.8349 54.1008 44.6436 57.6611C45.238 60.2771 43.3516 63.6154 43.0015 66.2126L51.3085 67.4342V67.9229C44.1847 69.8076 39.1655 65.8952 32.4954 64.7466V64.9909C36.9942 67.1193 42.093 70.714 45.3006 74.5197C46.4672 75.9038 47.8978 77.511 47.888 79.4062C46.5752 78.3427 44.095 75.5646 42.2687 75.8446C40.8113 76.068 40.3295 77.6854 40.1367 78.9176C39.6163 82.2433 39.5809 85.8149 39.5809 89.1793C38.1814 87.9569 38.3592 86.2544 38.3592 84.5371C36.6209 85.682 34.7427 87.1184 32.4954 86.6678C30.2222 86.2119 27.9578 83.4122 26.3872 81.8497C23.2843 78.7629 19.8445 75.7186 15.3925 75.1122C13.0706 74.796 6.03907 75.1225 9.1818 78.6686C9.50585 79.0341 9.83053 79.414 10.2713 79.6437C11.9257 80.5062 15.4563 79.4062 17.3471 79.4062V79.6505L11.239 80.8722C13.6931 86.0155 19.0073 81.4045 21.9894 84.5371C19.9519 83.9348 16.4527 83.9348 14.4152 84.5371L17.8288 88.935L19.397 90.9866L25.1656 91.6226V91.8669H20.0347C20.3378 94.5576 23.4496 93.8249 25.4099 93.5771V93.8215L21.2564 94.5545C21.9088 96.0686 23.5031 100.559 25.0166 101.247C26.2011 101.786 27.8478 100.745 28.8305 100.174C27.4816 102.633 25.0708 101.642 26.3872 105.061L30.2965 103.106C29.4252 104.088 27.9605 104.865 27.3724 106.041C26.6936 107.398 27.84 109.858 28.3418 111.169L32.2511 108.237L28.5307 112.413L28.8305 116.788C32.1057 115.424 34.7593 113.004 36.1567 109.703C36.7364 108.333 36.7968 106.619 37.4877 105.337C37.9927 104.401 39.4526 104.552 39.7465 103.539C40.3092 101.601 39.112 100.027 40.0695 97.975H40.3139L41.0468 101.884C43.5148 101.191 44.9854 97.3102 45.689 95.0431H46.1777C46.8591 98.1781 44.022 100.209 43.0015 102.862C44.7261 103.261 47.8281 104.098 47.6437 106.282L41.5355 104.083L46.1777 114.345H46.422C48.6571 110.967 50.817 105.595 53.9962 103.106C55.1064 106.71 51.2594 109.639 49.8426 112.635C51.9377 112.062 55.7367 109.249 57.661 110.436C54.9686 111.557 52.5764 113.172 50.5983 115.322C49.9482 116.029 48.7575 117.217 48.7717 118.254C48.7863 119.316 50.0911 120.6 50.6792 121.43C52.8143 124.446 55.3956 127.621 58.6384 129.493C59.9656 126.971 61.087 124.448 61.7836 121.675C62.1034 120.402 62.0521 118.687 63.2806 118.01C64.4763 124.751 59.655 132.181 58.1497 138.533C62.7426 134.638 65.5164 128.339 71.3433 125.828C71.2094 128.969 66.1597 130.632 65.8893 134.132C65.7945 135.359 67.3208 135.999 68.1669 136.585C70.5363 138.226 72.5415 140.051 75.2526 141.147C76.2277 141.541 77.149 142.37 78.0553 141.424C79.702 139.705 79.8435 136.362 79.5808 134.135C79.4142 132.725 78.828 130.569 79.8948 129.493L81.5955 139.511L80.6278 151.238H80.8721C83.1561 145.434 85.1801 139.124 89.6679 134.624C89.6945 137.686 86.2307 141.992 85.0256 144.886C89.6075 147.029 94.9763 148.323 99.9296 149.284C100.317 146.215 100.204 143.249 99.4031 140.244C99.0441 138.898 97.8662 137.098 98.7079 135.846C101.738 142.367 105.056 148.981 105.06 156.369H105.305C105.308 151.889 106.089 147.318 106.966 142.931C107.126 142.13 107.357 138.828 108.49 138.828C109.725 138.828 109.241 140.806 109.119 141.465C108.563 144.465 107.888 147.48 107.504 150.505L118.01 150.243L121.668 149.591L121.57 145.863L116.544 137.067C118.455 136.631 120.344 140.033 121.231 141.465C124.467 146.683 126.647 153.334 128.027 159.301H128.271C127.633 151.225 125.528 143.773 126.561 135.601C128.939 136.556 127.658 142.573 127.958 144.886C128.055 145.63 127.943 147.575 128.838 147.869C129.674 148.145 131.139 147.425 131.936 147.165C134.812 146.228 137.499 144.876 140.243 143.621C141.292 143.141 142.778 142.555 142.853 141.22C143.118 136.514 138.884 135.176 136.09 132.669C138.556 132.413 140.356 134.031 142.198 135.461C144.95 137.597 147.661 140.022 149.909 142.687C151.205 144.222 152.165 146.283 153.681 147.573C152.845 144.95 150.83 142.485 149.588 139.999C147.181 135.182 145.322 129.964 144.641 124.607H144.886L149.528 136.823C152.051 135.965 154.099 132.968 155.731 130.959C156.465 130.056 157.374 129.225 157.346 128.027C161.448 126.552 156.189 123.297 155.392 121.919C158.233 121.492 160.788 124.241 163.455 124.851C162.266 122.305 160.199 118.977 160.767 116.055H161.256L162.966 120.942C167.246 116.985 172.314 112.924 175.5 107.992C180 101.028 179.971 92.2202 176.823 84.7814C175.961 82.7449 175.14 79.8568 173.621 78.2207C171.459 75.8926 169.587 79.8108 169.318 81.6052C170.381 81.7644 171.353 82.1219 172.249 82.7288C175.563 84.9715 175.733 88.9022 174.339 92.3555C173.747 93.8198 172.652 95.1281 172.547 96.7534C172.416 98.7667 173.499 100.679 173.847 102.617C174.425 105.834 172.85 109.259 170.54 111.39C168.396 113.367 165.392 114.458 162.477 114.027C161.129 113.828 159.695 112.555 158.325 113.061C156.175 113.856 155.758 117.108 154.414 118.743C153.808 115.069 156.597 112.954 157.179 109.703C157.482 108.012 156.244 105.212 155.717 103.595C155.3 102.315 154.655 98.7144 152.707 99.4481C151.449 99.9216 150.816 101.35 150.079 102.373C148.338 104.785 146.756 107.74 143.664 108.481C144.8 105.549 147.88 103.095 149.603 100.418C153.022 95.1076 156.647 86.1298 152.12 80.3838C150.756 78.6525 148.567 77.4289 146.596 76.5036C143.885 75.2304 140.901 74.8341 138.045 74.031V73.5424L141.465 73.0537L140.732 67.6785L138.533 68.4115C138.558 59.4662 147.51 54.5861 153.681 49.8427L152.553 53.0189L155.599 57.6611L161.744 67.1899L159.301 66.9455C159.772 70.445 160.608 73.7237 159.375 77.2073C158.581 79.4463 156.631 81.3124 156.04 83.5598C155.742 84.6929 156.285 85.8413 156.286 86.9803C156.288 88.569 155.742 90.0953 155.392 91.6226C159.768 89.5402 160.605 83.1554 165.165 81.6052C164.793 79.4429 163.874 77.4907 163.721 75.2527C163.39 70.4245 164.344 65.6518 163.592 60.8374C162.768 55.5685 160.475 50.8481 158.568 45.9334L160.767 46.9108C161.273 43.5315 164.058 41.7046 165.898 39.0923C163.073 40.1202 158.734 43.6224 155.636 41.7777C153.499 40.5055 152.723 37.7055 150.505 36.649L147.573 48.3767H147.329C146.04 42.962 148.808 37.8396 150.017 32.7398C146.294 35.7514 143.693 39.5519 138.533 40.3139L145.619 35.1613L147.244 32.7823L145.13 30.9557L139.755 27.1203L142.198 27.609L143.175 19.7905H142.931C142.376 20.7647 141.718 21.654 140.954 22.4781C139.945 23.5677 138.62 25.312 137.171 25.81C134.329 26.787 130.403 23.4773 127.783 22.7224V33.9614C125.287 33.5444 125.611 31.0242 125.585 28.8306C125.527 24.0008 125.376 19.2488 125.584 14.4153H125.339C124.608 19.8472 122.827 27.5877 117.521 30.2965C119.04 27.8579 120.484 25.7745 121.289 22.9667C121.526 22.1393 122.221 20.7254 121.349 20.0689C118.886 18.215 115.11 19.7991 113.087 16.8548C111.099 13.9608 112.404 10.2738 111.169 7.32983Z" fill="url(#paint0_radial_5_22)"/>
<path d="M108.97 24.1882L105.06 41.7798C108.072 39.9444 108.708 33.254 108.97 30.0521H109.214C109.737 32.8689 109.991 35.6911 111.138 38.3592C111.592 39.4161 112.09 40.8232 113.367 40.8024L110.239 29.8077L108.97 24.1882Z" fill="black"/>
<path d="M85.0256 27.3645C85.0774 33.6117 88.1667 39.2984 86.9802 45.689C88.1523 44.9722 88.1858 43.298 88.2009 42.0241C88.2361 39.068 87.7213 36.1705 87.7132 33.2284H87.9575C88.8083 36.1813 91.1165 42.0532 94.5544 42.5128C94.1417 40.9254 92.8429 39.7242 91.9733 38.3592C90.0412 35.3261 88.1494 29.2062 85.0256 27.3645Z" fill="black"/>
<path d="M135.113 30.0522C132.396 34.3182 129.158 40.1388 125.095 43.2459V43.4902C128.176 42.9407 131.505 39.0476 132.425 36.1604H132.669C132.633 40.5065 130.636 45.1143 132.425 49.3541H132.669C133.969 44.9559 133.292 39.7674 134.411 35.1831C134.762 33.7452 136.056 31.3489 135.113 30.0522Z" fill="black"/>
<path d="M118.987 39.8252C117.545 43.0796 116.84 46.1027 113.856 48.3766V48.8653C116.001 49.4299 117.495 46.7384 118.01 44.9561H118.254C118.466 46.5979 118.666 50.0114 120.453 50.5756L119.253 44.9561L118.987 39.8252Z" fill="black"/>
<path d="M66.7012 40.0696C67.2291 46.0793 75.3122 50.141 74.2753 56.6838C75.5749 55.9244 75.2333 54.5083 74.7969 53.2632C73.8946 50.6883 72.3852 48.4355 71.3434 45.9334C73.6813 48.0674 77.1359 50.4801 80.3835 49.1097L75.2563 46.9852L66.7012 40.0696Z" fill="black"/>
<path d="M100.418 42.0242C99.6792 44.4562 97.6051 49.2042 98.4637 51.5529H98.9524L100.663 45.6891H100.907C101.511 47.9007 102.143 51.2551 104.816 51.5529L100.907 42.0242H100.418Z" fill="black"/>
<path d="M84.0483 48.1323L85.27 58.394H85.7586L85.5143 51.0642C87.1076 52.1735 89.2632 54.9082 91.3781 53.9961C90.5618 53.1122 89.3798 52.957 88.4472 52.2021C86.9309 50.9746 86.1312 48.2965 84.0483 48.1323Z" fill="black"/>
<path d="M137.8 49.5984C135.223 52.1829 133.07 53.9579 129.493 54.9736V55.4622C131.609 56.0701 133.656 54.8961 135.357 53.752C135.079 55.1864 133.249 58.9417 134.624 59.8601L136.971 52.7746L137.8 49.5984Z" fill="black"/>
<path d="M140.488 65.4795C146.078 64.1332 152.191 63.3377 157.835 64.5021C156.994 61.5834 154.815 59.1861 152.882 56.928C152.221 56.1559 151.379 54.7276 150.26 54.6428C148.934 54.5422 147.778 55.8205 146.84 56.5591C144.096 58.7214 141.73 62.1959 140.488 65.4795Z" fill="url(#paint1_radial_5_22)"/>
<path d="M96.0204 55.2178L94.5544 62.7919C95.7807 61.8625 96.0653 58.8966 96.2647 57.4167L98.4636 59.86C98.2069 58.213 97.245 56.349 96.0204 55.2178Z" fill="black"/>
<path d="M119.964 55.9509L115.322 60.5932L119.72 57.4169L120.453 61.8148C121.307 60.5623 120.86 57.131 119.964 55.9509ZM68.1671 56.6839V56.9282C70.2265 59.0062 71.921 61.8685 73.2066 64.5024C73.9144 65.9524 73.7136 67.5508 75.2526 68.4116C75.1299 65.5549 73.9086 63.389 72.8094 60.8375C74.5399 61.8475 76.8598 63.3565 78.9175 62.7921V62.3034C76.1449 61.071 73.9982 60.0226 71.5877 58.1027C70.5605 57.2847 69.5097 56.227 68.1671 56.6839Z" fill="black"/>
<path d="M51.7972 58.8828C52.0267 60.9432 53.713 61.7124 55.2178 62.8504C57.2829 64.4122 59.2018 66.1034 60.7797 68.1672C61.8073 69.5115 62.4408 71.8356 63.7692 72.8095C63.4834 69.2171 61.3638 64.9893 57.9054 63.525V63.2807C61.4222 63.9626 64.9237 65.27 68.4115 63.7693V63.2807L64.2579 63.1172L51.7972 58.8828Z" fill="black"/>
<path d="M165.409 59.6157L165.898 65.4796L171.273 66.2125C170.373 63.8391 167.806 60.5449 165.409 59.6157Z" fill="url(#paint2_radial_5_22)"/>
<path d="M106.282 59.8601L104.083 64.0136L106.526 61.326L107.992 63.7693L106.282 59.8601Z" fill="black"/>
<path d="M129.737 65.7239L125.584 68.9001L129.249 66.9455L128.76 69.8775C129.799 69.1525 130.187 66.8751 129.737 65.7239Z" fill="black"/>
<path d="M154.17 80.3835C156.023 79.5005 156.911 77.389 157.411 75.497C158.027 73.1683 158.827 67.0278 155.87 65.8712C154.243 65.235 151.525 65.9682 149.772 65.9682C148.185 65.9682 144.798 65.7261 143.567 66.9098C142.431 68.0022 143.281 72.1213 144.117 73.2308C144.986 74.3836 147.054 74.612 148.306 75.1993C150.804 76.3702 152.813 77.949 154.17 80.3835Z" fill="white"/>
<path d="M165.409 67.1899V69.3889C169.839 67.7866 170.843 74.2681 166.142 74.0311L167.119 79.6506C170.393 78.1228 171.901 70.7554 169.213 68.0006C168.402 67.1696 166.508 67.2767 165.409 67.1899Z" fill="white"/>
<path d="M152.948 68.1672C152.448 68.6818 151.718 69.0556 151.35 69.6853C148.768 74.1002 158.527 74.2148 155.769 69.4404C155.455 68.8971 154.898 68.5428 154.414 68.1672L152.948 68.9002V68.1672Z" fill="black"/>
<path d="M153.193 68.1672V68.4116H154.17L153.193 68.1672Z" fill="#020202"/>
<path d="M152.949 68.6559V68.9002L154.17 68.6559H152.949Z" fill="#010101"/>
<path d="M166.142 68.9001L166.875 69.3888V69.1445L166.142 68.9001Z" fill="#020202"/>
<path d="M101.64 69.1445C101.64 70.3886 101.4 71.6496 102.617 72.3208V69.8775L105.549 70.8548L101.64 69.1445Z" fill="black"/>
<path d="M165.898 69.1445L166.386 69.6332V69.1445H165.898Z" fill="#010101"/>
<path d="M116.544 72.5649L117.765 70.366L119.231 71.3433C118.158 68.4695 116.561 70.5277 116.544 72.5649Z" fill="black"/>
<path d="M86.9802 69.8773C87.4119 71.4547 88.0892 72.8017 89.4235 73.7865L87.9575 70.6103L90.8895 70.8546C90.1325 69.4817 88.3595 69.8773 86.9802 69.8773Z" fill="black"/>
<path d="M74.5197 71.3433L77.9402 75.4969L75.9856 72.0763L78.9175 71.5877L78.6732 70.6104L74.5197 71.3433Z" fill="black"/>
<path d="M164.188 70.6104V71.3433H164.432L164.188 70.6104Z" fill="white"/>
<path d="M164.188 71.5876V72.3206H164.432L164.188 71.5876Z" fill="white"/>
<path d="M49.8427 78.1846V78.6732L56.9281 81.1165C56.784 79.2596 54.3827 78.7057 52.7746 78.4289L57.6611 74.031C55.0641 73.7264 51.9473 76.8906 49.8427 78.1846Z" fill="black"/>
<path d="M166.875 73.7866V74.031H167.608L166.875 73.7866Z" fill="#010101"/>
<path d="M60.1044 77.2071V77.6958L65.4796 79.6272L68.6558 81.8493C68.3081 79.2546 65.5548 78.8185 63.7693 77.4514C66.0391 77.0239 69.1196 76.9877 70.1218 74.5195L60.1044 77.2071Z" fill="black"/>
<path d="M94.5544 78.9176L95.2873 77.2073C94.2475 77.3732 93.4288 78.1768 94.5544 78.9176Z" fill="black"/>
<path d="M103.35 78.6731L103.106 80.3834C103.87 79.936 104 79.5348 103.839 78.6731H103.35Z" fill="black"/>
<path d="M113.612 80.3834L114.345 78.6731C113.397 78.9475 112.611 79.6284 113.612 80.3834Z" fill="black"/>
<path d="M120.942 81.8494V82.8268L123.385 81.1165L120.942 81.8494Z" fill="black"/>
<path d="M132.669 81.3608V84.2928C133.587 83.3941 133.587 82.2595 132.669 81.3608Z" fill="black"/>
<path d="M84.537 86.2473L87.4689 86.9803L85.8421 85.4122L86.7359 83.071C85.5578 83.6816 84.8358 84.9751 84.537 86.2473Z" fill="black"/>
<path d="M155.392 93.8215V94.0659C161.539 94.8428 164.308 91.9046 168.83 88.4464C168.18 90.196 164.956 92.4423 165.041 94.0656C165.132 95.8043 167.865 95.9645 169.074 95.4854C171.383 94.5702 172.844 92.0194 173.345 89.668C174.387 84.7864 167.978 80.7899 163.966 83.9056C160.527 86.5763 159.008 91.1388 155.392 93.8215Z" fill="url(#paint3_radial_5_22)"/>
<path d="M40.3138 88.4463C40.6305 90.269 42.4378 89.2903 43.7344 89.2015C45.5976 89.074 49.0578 89.6775 50.0869 91.3783L51.7972 91.1339C51.3601 88.3686 47.3734 88.3735 45.2004 88.202C46.8002 86.5848 49.092 86.1035 49.5982 83.5598L40.3138 88.4463Z" fill="black"/>
<path d="M96.7533 85.5144L94.0657 88.935L97.4863 90.1566L95.043 88.6907C95.5515 87.6239 97.5473 86.6979 96.7533 85.5144Z" fill="black"/>
<path d="M75.4969 86.2473L72.5649 88.9349C73.7091 89.3214 76.352 90.8267 77.2072 89.6679L74.0309 88.4463L75.4969 86.2473ZM138.777 86.2473L142.198 88.9349V89.4236L139.022 91.1338C140.694 90.9973 142.119 90.4896 143.42 89.4236C142.469 87.8142 140.614 86.6013 138.777 86.2473Z" fill="black"/>
<path d="M60.3486 87.2246C58.8697 90.5406 56.5916 93.2407 53.9962 95.7724C52.5065 97.2256 50.1839 98.576 49.5983 100.663L60.3486 98.3808L65.9682 97.242C62.6179 94.8549 56.7419 97.5117 53.5075 98.9523C55.7294 94.4916 60.0919 92.7227 61.0816 87.4689L60.8373 87.2246H60.3486Z" fill="black"/>
<path d="M105.06 89.668L106.526 89.9123V87.469C105.466 87.8125 105.345 88.6679 105.06 89.668Z" fill="black"/>
<path d="M116.544 89.1792L116.788 91.8668C117.921 91.2665 118.662 90.4285 118.987 89.1792L117.277 90.4009L116.544 89.1792Z" fill="black"/>
<path d="M82.0937 94.3101L82.5824 92.5999C81.534 92.905 80.9583 93.6602 82.0937 94.3101Z" fill="black"/>
<path d="M125.828 94.0657L125.584 97.4862L123.385 96.0203C123.614 97.5028 124.651 98.206 126.072 98.4636L126.317 94.0657H125.828Z" fill="black"/>
<path d="M159.057 94.0657V94.31H159.79L159.057 94.0657Z" fill="#010101"/>
<path d="M65.4795 101.64C67.0964 101.57 72.7282 101.787 73.5423 100.663L68.167 99.9296L71.099 94.3101C69.3213 94.8659 66.2692 99.9161 65.4795 101.64ZM85.2699 122.896C87.1126 121.84 89.5122 118.694 90.4008 116.788C88.4447 117.374 87.5896 119.291 86.2472 120.697L85.5142 115.566C91.2283 115.068 93.7385 108.824 97.1022 105.07C99.1492 102.786 101.714 101.796 104.327 100.418C102.787 98.575 100.644 100.523 99.1966 101.637C95.3186 104.623 93.0808 108.242 89.6678 111.657L91.6224 106.526H91.3781C90.3167 109.076 89.048 111.797 86.4916 113.123L87.4689 109.703H87.2245C86.1974 112.157 85.0388 113.366 82.338 113.368L84.7813 107.748H84.537L81.3607 113.123L80.3834 112.879L82.8267 108.237H82.5823C81.347 110.214 80.0445 113.025 77.4515 112.39L79.6504 108.237C78.4263 109.195 77.8959 111.486 76.4515 112.056C75.7923 112.316 74.5501 111.833 74.8144 110.961C75.158 109.828 77.0222 108.713 77.7571 107.748C80.2593 104.462 82.2879 99.1055 86.0029 97.0839C89.0448 95.4286 93.6735 97.5262 96.9976 97.4853C98.9021 97.4619 101.071 96.8088 101.64 94.7987C100.086 94.6311 98.6178 95.6338 96.9976 95.6365C92.8912 95.6431 86.1524 93.5979 82.6239 96.3854C79.4115 98.923 79.2292 102.328 77.2089 105.548C76.2223 107.12 74.4792 108.184 73.0548 109.318C72.5271 109.738 71.5713 110.348 71.7714 111.152C72.0172 112.142 73.7015 112.673 74.5196 113.048C76.372 113.896 78.386 114.559 80.3834 114.968C81.4509 115.186 83.0397 115.151 83.9459 115.808C85.6005 117.007 85.042 121.092 85.2699 122.896Z" fill="black"/>
<path d="M39.5808 95.5317L39.3365 96.9977L40.3138 95.5317H39.5808Z" fill="black"/>
<path d="M166.386 102.617C165.826 100.96 166.082 98.9571 165.006 97.497C163.599 95.5888 160.445 95.7508 158.324 95.7769C157.592 95.786 156.371 95.7413 155.897 96.4364C155.332 97.2649 156.361 99.2906 156.582 100.174C157.502 103.834 158.322 108.884 161.501 111.336C163.59 112.948 167.794 111.892 169.537 110.165C172.318 107.411 173.069 100.975 170.243 98.0015C166.75 94.3244 166.803 100.866 166.386 102.617Z" fill="url(#paint4_radial_5_22)"/>
<path d="M181.535 97.2419L180.229 103.35L179.303 106.516L181.046 107.748L180.557 105.549H180.802C181.932 108.263 183.122 108.725 185.933 108.725L184.222 105.06C185.349 106.357 185.758 108.189 187.643 108.481L185.933 105.305C187.496 107.002 188.269 108.174 190.575 107.015V106.526C186.504 104.589 186.134 98.0751 181.535 97.2419Z" fill="url(#paint5_radial_5_22)"/>
<path d="M142.442 99.1966L143.175 97.4863C142.177 97.7768 141.653 98.3371 142.442 99.1966Z" fill="black"/>
<path d="M109.458 99.4409L112.146 102.373L113.368 99.4409L112.146 101.396L109.458 99.4409ZM134.135 99.4409L133.891 103.106L131.448 101.64C131.312 103.251 133.779 105.081 135.113 105.793L134.624 99.4409H134.135Z" fill="black"/>
<path d="M67.9228 103.594C67.1573 107.254 64.5415 110.549 62.197 113.368C61.0797 114.711 59.3611 116.061 58.8827 117.765C62.9317 116.599 67.4835 112.486 71.832 112.879C70.7135 110.712 65.4961 113.718 63.5249 114.101C65.1098 111.752 67.2768 109.706 68.2971 107.015C68.7254 105.886 68.9954 104.368 67.9228 103.594Z" fill="black"/>
<path d="M122.408 109.458C121.374 108.428 120.322 107.004 118.743 107.259L123.385 112.879L124.607 105.793C122.745 106.088 122.836 107.935 122.408 109.458Z" fill="black"/>
<path d="M99.441 108.237L99.1966 107.015H98.4636L98.708 110.191C100.131 109.945 101.612 107.386 101.884 106.038L99.441 108.237Z" fill="black"/>
<path d="M108.481 109.947L107.259 113.123H107.015L105.06 110.436L106.771 116.055H107.015C107.665 114.423 109.966 111.42 108.481 109.947Z" fill="black"/>
<path d="M134.868 111.657L136.334 119.72C134.777 118.36 129.974 112.09 128.027 114.345C132.522 115.777 134.395 121.029 138.289 123.385L137.071 118.743L135.601 111.413L134.868 111.657Z" fill="black"/>
<path d="M147.818 113.368C146.58 116.397 149.6 119.647 150.75 122.408C147.573 120.771 144.753 118.042 140.976 118.01V118.987C146.417 119.462 149.318 125.029 153.681 127.539C153.641 122.985 149.732 117.749 148.306 113.368H147.818Z" fill="black"/>
<path d="M98.2193 117.032L96.509 117.277C97.0854 118.647 98.1023 119.754 98.5802 121.186C99.1096 122.772 98.7661 124.961 100.418 125.828C101.183 124.11 103.064 121.31 102.617 119.476C101.229 120.158 100.571 121.644 100.418 123.141H100.174L98.2193 117.032Z" fill="black"/>
<path d="M75.4969 117.277C75.4969 122.072 74.8446 126.58 73.5424 131.203C75.2424 131.266 76.1329 129.498 77.0541 128.272C78.8733 125.85 80.6977 123.18 83.5597 121.919V121.675C80.6574 121.299 77.0299 125.638 75.9856 128.027H75.7413C76.6016 124.702 77.367 120.545 75.9856 117.277H75.4969Z" fill="black"/>
<path d="M117.032 122.652L111.413 118.743C111.726 119.743 112.519 120.041 113.26 120.728C114.718 122.08 115.991 125.243 118.01 125.584L118.498 117.521C116.526 118.273 117.032 120.92 117.032 122.652Z" fill="black"/>
<path d="M130.959 122.163C129.236 125.218 131.747 131.512 132.181 134.868H131.936C130.575 131.992 127.951 129.616 125.828 127.294C125.529 126.967 123.981 124.859 123.428 125.746C122.851 126.67 125.679 128.864 126.21 129.493C128.162 131.807 129.926 134.425 131.404 137.067C132.259 138.595 133.003 140.637 134.624 141.465C133.402 135.162 131.466 128.617 131.448 122.163H130.959Z" fill="black"/>
<path d="M49.5983 124.607L46.9106 132.181L52.5302 128.272C52.432 126.383 51.4092 125.145 49.5983 124.607Z" fill="url(#paint6_radial_5_22)"/>
<path d="M90.1566 126.561L89.9122 126.806C91.1077 130.09 92.2844 132.811 92.8637 136.334C93.133 137.971 92.9658 140.101 94.3101 141.221C95.6837 138.614 96.1785 135.59 97.4331 132.914C98.1531 131.378 99.3284 130.029 98.9524 128.272C96.6041 129.427 95.2178 134.642 94.5545 137.067C93.3426 133.837 93.7132 128.225 90.1566 126.561Z" fill="black"/>
<path d="M106.771 129.004C109.533 134.491 111.579 139.652 113.123 145.619C114.846 144.653 114.609 142.947 114.59 141.221C114.546 137.2 116.09 133.197 115.811 129.249C114.658 129.644 114.452 130.825 114.251 131.936C113.769 134.602 113.76 137.355 113.123 139.999C111.798 136.921 110.748 129.641 106.771 129.004Z" fill="black"/>
<path d="M158.324 130.959L156.613 133.891L161.989 136.334L158.324 130.959Z" fill="url(#paint7_radial_5_22)"/>
<path d="M70.1217 141.954L69.6331 149.528C71.7805 147.235 75.361 142.415 70.1217 141.954Z" fill="url(#paint8_radial_5_22)"/>
<path d="M134.624 149.284C135.565 151.304 137.701 153.384 139.511 154.659L137.312 147.818L134.624 149.284Z" fill="url(#paint9_radial_5_22)"/>
<path d="M93.0885 159.79H93.3328L95.5318 151.971L92.7509 151.499L92.5999 153.681L93.0885 159.79Z" fill="url(#paint10_radial_5_22)"/>
<path d="M113.368 153.437L116.055 161.256C116.658 159.858 118.52 154.46 117.199 153.34C116.177 152.473 114.477 153.144 113.368 153.437Z" fill="url(#paint11_radial_5_22)"/>
<path d="M166.747 95.6769C165.781 95.501 165.025 94.782 165.025 94.039C165.025 93.3376 165.474 92.6296 167.303 90.4479C168.763 88.7078 168.586 88.7539 165.886 90.8182C162.899 93.1013 160.761 93.9705 157.78 94.113C156.396 94.1792 155.263 94.1446 155.263 94.0362C155.263 93.9277 155.671 93.4957 156.17 93.0761C156.668 92.6566 158.342 90.6192 159.889 88.5486C162.715 84.767 164.095 83.4852 165.911 82.9524C168.783 82.1099 172.48 84.3283 173.313 87.3931C174.085 90.2384 171.576 94.8205 168.828 95.5838C168.236 95.7481 167.687 95.8657 167.608 95.8451C167.53 95.8245 167.142 95.7488 166.747 95.6769Z" fill="#FEF666"/>
<path d="M162.871 112.056C161.931 111.795 160.721 110.814 159.84 109.599C158.792 108.152 158.052 106.171 156.81 101.484C156.265 99.4315 155.755 97.5394 155.675 97.2797C155.274 95.9699 158.129 95.3038 161.621 95.8927C164.368 96.3561 165.378 97.2779 165.871 99.7715C166.057 100.714 166.245 101.613 166.288 101.771C166.331 101.929 166.534 101.174 166.738 100.093C166.965 98.8905 167.361 97.8352 167.755 97.3763L168.401 96.6258L169.448 97.3324C171.093 98.4425 172.024 100.621 172.007 103.318C171.982 107.135 170.411 110.11 167.76 111.356C166.448 111.972 163.891 112.339 162.871 112.056Z" fill="#FEF67A"/>
<defs>
<radialGradient id="paint0_radial_5_22" cx="0" cy="0" r="1" gradientUnits="userSpaceOnUse" gradientTransform="translate(93.7184 83.3154) scale(85.3317 89.3846)">
<stop stop-color="#FFF68E"/>
<stop offset="0.731002" stop-color="#EED26A"/>
<stop offset="1" stop-color="#D6AA4A"/>
</radialGradient>
<radialGradient id="paint1_radial_5_22" cx="0" cy="0" r="1" gradientUnits="userSpaceOnUse" gradientTransform="translate(149.161 60.0583) scale(8.6736 5.42113)">
<stop stop-color="#FFF68E"/>
<stop offset="0.5" stop-color="#FAEA82"/>
<stop offset="1" stop-color="#D6AA4A"/>
</radialGradient>
<radialGradient id="paint2_radial_5_22" cx="0" cy="0" r="1" gradientUnits="userSpaceOnUse" gradientTransform="translate(168.341 62.9141) scale(2.93191 3.29841)">
<stop stop-color="#FFF68E"/>
<stop offset="0.5" stop-color="#FAEA82"/>
<stop offset="1" stop-color="#D6AA4A"/>
</radialGradient>
<radialGradient id="paint3_radial_5_22" cx="0" cy="0" r="1" gradientUnits="userSpaceOnUse" gradientTransform="translate(164.425 89.2617) scale(9.03321 6.45702)">
<stop stop-color="#FFF68E"/>
<stop offset="0.5" stop-color="#FAEA82"/>
<stop offset="1" stop-color="#D6AA4A"/>
</radialGradient>
<radialGradient id="paint4_radial_5_22" cx="0" cy="0" r="1" gradientUnits="userSpaceOnUse" gradientTransform="translate(163.879 103.948) scale(8.14904 8.18562)">
<stop stop-color="#FFF68E"/>
<stop offset="0.5" stop-color="#FAEA82"/>
<stop offset="1" stop-color="#D6AA4A"/>
</radialGradient>
<radialGradient id="paint5_radial_5_22" cx="0" cy="0" r="1" gradientUnits="userSpaceOnUse" gradientTransform="translate(163.296 115.364) scale(79.7771 81.2764)">
<stop stop-color="#FFF68E"/>
<stop offset="0.5" stop-color="#FAEA82"/>
<stop offset="1" stop-color="#D6AA4A"/>
</radialGradient>
<radialGradient id="paint6_radial_5_22" cx="0" cy="0" r="1" gradientUnits="userSpaceOnUse" gradientTransform="translate(49.7204 128.394) scale(2.80976 3.78707)">
<stop stop-color="#FFF68E"/>
<stop offset="0.5" stop-color="#FAEA82"/>
<stop offset="1" stop-color="#D6AA4A"/>
</radialGradient>
<radialGradient id="paint7_radial_5_22" cx="0" cy="0" r="1" gradientUnits="userSpaceOnUse" gradientTransform="translate(159.301 133.647) scale(2.68758 2.6876)">
<stop stop-color="#FFF68E"/>
<stop offset="0.5" stop-color="#FAEA82"/>
<stop offset="1" stop-color="#D6AA4A"/>
</radialGradient>
<radialGradient id="paint8_radial_5_22" cx="0" cy="0" r="1" gradientUnits="userSpaceOnUse" gradientTransform="translate(71.2347 145.741) scale(1.60168 3.78707)">
<stop stop-color="#FFF68E"/>
<stop offset="0.5" stop-color="#FAEA82"/>
<stop offset="1" stop-color="#D6AA4A"/>
</radialGradient>
<radialGradient id="paint9_radial_5_22" cx="0" cy="0" r="1" gradientUnits="userSpaceOnUse" gradientTransform="translate(137.067 151.238) scale(2.44326 3.42058)">
<stop stop-color="#FFF68E"/>
<stop offset="0.5" stop-color="#FAEA82"/>
<stop offset="1" stop-color="#D6AA4A"/>
</radialGradient>
<radialGradient id="paint10_radial_5_22" cx="0" cy="0" r="1" gradientUnits="userSpaceOnUse" gradientTransform="translate(94.0658 155.644) scale(1.46596 4.14526)">
<stop stop-color="#FFF68E"/>
<stop offset="0.5" stop-color="#FAEA82"/>
<stop offset="1" stop-color="#D6AA4A"/>
</radialGradient>
<radialGradient id="paint11_radial_5_22" cx="0" cy="0" r="1" gradientUnits="userSpaceOnUse" gradientTransform="translate(115.515 157.084) scale(2.14739 4.17166)">
<stop stop-color="#FFF68E"/>
<stop offset="0.5" stop-color="#FAEA82"/>
<stop offset="1" stop-color="#D6AA4A"/>
</radialGradient>
</defs>
</svg>
