<svg width="320" height="200" viewBox="0 0 320 200" fill="none" xmlns="http://www.w3.org/2000/svg">
<g clip-path="url(#clip0_7_717)">
<path fill-rule="evenodd" clip-rule="evenodd" d="M29.2893 29.2893C48.043 10.5357 73.4784 0 100 0H220C246.522 0 271.957 10.5357 290.711 29.2893C309.464 48.043 320 73.4784 320 100C320 126.522 309.464 151.957 290.711 170.711C271.957 189.464 246.522 200 220 200H100C73.4784 200 48.043 189.464 29.2893 170.711C10.5357 151.957 0 126.522 0 100C0 73.4784 10.5357 48.043 29.2893 29.2893ZM100 40C84.087 40 68.8258 46.3214 57.5736 57.5736C46.3214 68.8258 40 84.087 40 100C40 115.913 46.3214 131.174 57.5736 142.426C68.8258 153.679 84.087 160 100 160H220C235.913 160 251.174 153.679 262.426 142.426C273.679 131.174 280 115.913 280 100C280 84.087 273.679 68.8258 262.426 57.5736C251.174 46.3214 235.913 40 220 40H100Z" fill="#C74634"/>
</g>
<defs>
<clipPath id="clip0_7_717">
<rect width="320" height="200" fill="white"/>
</clipPath>
</defs>
</svg>
