<?xml version="1.0" encoding="utf-8"?>
<!-- Generator: Adobe Illustrator 21.0.2, SVG Export Plug-In . SVG Version: 6.00 Build 0)  -->
<svg version="1.1" xmlns="http://www.w3.org/2000/svg" xmlns:xlink="http://www.w3.org/1999/xlink" x="0px" y="0px"
	 viewBox="0 0 308.4 461.4" style="enable-background:new 0 0 308.4 461.4;" xml:space="preserve">
<style type="text/css">
	.st0{fill:#81B0C4;stroke:#000000;stroke-width:4;stroke-miterlimit:10;}
	.st1{fill:#D33833;stroke:#000000;stroke-width:4;stroke-miterlimit:10;}
	.st2{fill:#335061;stroke:#000000;stroke-width:4;stroke-miterlimit:10;}
	.st3{fill:#FFFFFF;}
	.st4{fill:#DCD9D8;}
	.st5{fill:#F0D6B7;}
	.st6{fill:#D1D1D1;}
	.st7{fill:#6D6B6D;}
	.st8{fill:#F7E4CD;}
	.st9{fill:#333333;}
	.st10{fill:#B8B8B8;}
	.st11{fill:#696969;}
	.st12{fill:#231F20;}
	.st13{font-family:'Georgia-Bold';}
	.st14{font-size:72px;}
	.st15{fill:none;stroke:#000000;stroke-width:3.8321;stroke-miterlimit:10;}
	.st16{fill:none;stroke:#000000;stroke-width:3.8321;stroke-linecap:round;stroke-miterlimit:10;}
	.st17{fill:#D33833;stroke:#000000;stroke-width:2.1176;stroke-miterlimit:10;}
	.st18{font-family:'SnellRoundhand-Bold';}
	.st19{font-size:56.1492px;}
	.st20{font-family:'SnellRoundhand-Black';}
	.st21{font-size:51.2112px;}
	.st22{fill:#999999;stroke:#000000;stroke-width:3.8321;stroke-miterlimit:10;}
	.st23{fill:#EBEBEB;}
	.st24{fill:#442400;}
	.st25{fill:none;stroke:#000000;stroke-width:3;stroke-miterlimit:10;}
	.st26{fill:#932724;}
	.st27{fill:#D33833;}
	.st28{fill:#301A00;}
	.st29{fill:none;stroke:#000000;stroke-width:4.0832;stroke-miterlimit:10;}
	.st30{fill:#442400;stroke:#000000;stroke-width:4.432;stroke-miterlimit:10;}
	.st31{fill:none;stroke:#000000;stroke-width:4;stroke-miterlimit:10;}
	.st32{fill:#CCCCCC;}
</style>
<g id="svg2" inkscape:version="0.48.1 r9760" sodipodi:docname="logo above title.svg" xmlns:cc="https://creativecommons.org/ns#" xmlns:dc="https://purl.org/dc/elements/1.1/" xmlns:inkscape="https://www.inkscape.org/namespaces/inkscape" xmlns:rdf="http://www.w3.org/1999/02/22-rdf-syntax-ns#" xmlns:sodipodi="https://sodipodi.sourceforge.net/DTD/sodipodi-0.dtd" xmlns:svg="http://www.w3.org/2000/svg">
	<polygon class="st0" points="15.5,56.9 41.5,360.1 194.2,274.2 67.6,309.7 	"/>
	<polygon class="st1" points="48.7,369.5 301.3,264.2 64.4,115.3 248,258.8 	"/>
	<polygon class="st2" points="296.5,248.2 15.5,23 59.5,205 50.7,83.3 	"/>
	<path id="path68_2_" inkscape:connector-curvature="0" class="st3" d="M140.4,374.8l-8.6-35l-4.3-25.8l-0.7-19.2l39-2.1l24.3,0
		l-2.2,43.8l3.8,33.7l-0.4,6.2l-31.7,2.5L140.4,374.8"/>
	<path id="path70_2_" inkscape:connector-curvature="0" class="st4" d="M184.7,292.3c0,0-2.1,43.3,4.2,74.2c0,0-12.5,7.9-30.8,10
		l35-1.2l4.2-2.5l-5-68.3l-1.2-14.6"/>
	
		<sodipodi:namedview  bordercolor="#666666" borderopacity="1" fit-margin-bottom="10" fit-margin-left="10" fit-margin-right="10" fit-margin-top="10" gridtolerance="10" guidetolerance="10" id="namedview4" inkscape:current-layer="g10" inkscape:cx="68.62908" inkscape:cy="265.90962" inkscape:pageopacity="0" inkscape:pageshadow="2" inkscape:window-height="1190" inkscape:window-maximized="0" inkscape:window-width="1881" inkscape:window-x="2091" inkscape:window-y="175" inkscape:zoom="1" objecttolerance="10" pagecolor="#ffffff" showgrid="false">
		</sodipodi:namedview>
	<path id="path28" inkscape:connector-curvature="0" class="st5" d="M200.3,218.6l-16.7,2.5l-19.1,6.7l-18-3.8l-14.2-0.4l-10.8-3.3
		l-9.6-10.4l-7.5-21.2l-1.7-4.6l-10-3.3l-5.8-9.6l-4.2-13.8l4.6-12.1l10.8-3.8l8.8,4.2l4.2,9.2l5-0.8l1.7-2.1l-1.7-9.6l-0.4-12.1
		l2.5-16.7l-0.1-9.5l7.6-12.1l13.3-9.6l23.3-10l25.8,3.8l22.5,16.2l10.4,16.7l6.7,12.1l1.7,30l-5,25.8l-9.2,22.9l-8.8,12.1"/>
	<path id="path30" inkscape:connector-curvature="0" class="st6" d="M186.1,290.7l-59.6,2.5v10l5,35l-2.5,2.9l-41.7-14.2l-2.9-5
		l-4.2-47.1l-9.6-28.3l-2.1-6.7l33.3-22.9l10.4-4.2l9.2,11.2l34.6,8.6l39.1-3.8l17.6-22.3l22.1,20.4l-17.5,62.9L186.1,290.7"/>
	<path id="path32" inkscape:connector-curvature="0" class="st7" d="M87.3,145.3l10.8-3.8l8.8,4.2l4.2,9.2l5-0.8l1.2-5l-2.5-9.6
		l2.5-22.9l-2.1-12.5l7.5-8.8L139,82.4l-4.6-6.2l-22.9,11.2l-9.6,7.5l-5.4,11.7l-8.3,11.2l-2.5,13.3L87.3,145.3"/>
	<path id="path34" inkscape:connector-curvature="0" class="st4" d="M104.4,106.1c0,0,6.2-15.4,31.2-22.9s1.2-5.4,1.2-5.4
		l-27.1,10.4L99.4,98.6l-4.6,8.3L104.4,106.1"/>
	<path id="path36" inkscape:connector-curvature="0" class="st4" d="M91.9,142.4c0,0-8.8-29.2,24.6-33.3l-1.2-5l-22.9,5.4l-6.7,21.7
		l1.7,14.2L91.9,142.4"/>
	<path id="path38" inkscape:connector-curvature="0" class="st8" d="M105.3,181.1l5.5-5.3c0,0,2.5,0.3,2.9,3.2
		c0.4,2.9,1.7,29.2,19.6,43.3c1.6,1.3-13.3-2.1-13.3-2.1l-13.3-20.8"/>
	<path id="path40" inkscape:connector-curvature="0" class="st8" d="M181.9,173.2c0,0,1-12.6,4.4-11.7s3.4,4.4,3.4,4.4
		S181.4,171.2,181.9,173.2"/>
	<path id="path42" inkscape:connector-curvature="0" class="st8" d="M216.5,126.9c0,0-6.9,1.4-7.5,7.5c-0.6,6.1,7.5,1.2,8.8,0.8"/>
	<path id="path44" inkscape:connector-curvature="0" class="st8" d="M166.1,127.4c0,0-9.2,1.2-9.2,7.1c0,5.8,10.4,5.4,13.3,2.9"/>
	<path id="path46" inkscape:connector-curvature="0" class="st8" d="M109.4,154.4c0,0-15.8-9.6-17.5-0.4c-1.7,9.2-5.4,15.8,2.5,25.4
		l-5.4-1.7l-5-12.9l-1.7-12.5l9.6-10l10.8,0.8l6.2,5L109.4,154.4"/>
	<path id="path48" inkscape:connector-curvature="0" class="st8" d="M116.9,128.2c0,0,7.1-36.7,42.9-43.8c29.5-5.8,45,1.2,50.8,7.9
		c0,0-26.2-31.2-51.3-21.7c-25,9.6-43.3,27.1-42.9,38.3C117.2,128.2,116.9,128.2,116.9,128.2"/>
	<path id="path50" inkscape:connector-curvature="0" class="st8" d="M213.6,96.5c0,0-12.1-0.4-12.5,10.4c0,0,0,1.7,0.8,3.3
		c0,0,9.6-10.8,15.4-5"/>
	<path id="path52" inkscape:connector-curvature="0" class="st8" d="M160.7,111.4c0,0-2.1-16.6-16.3-7c-9.2,6.2-8.3,15-6.7,16.7
		c1.7,1.7,1.2,5,2.5,2.7c1.3-2.3,0.9-9.8,5.4-11.9C150.3,109.9,157.8,107.5,160.7,111.4"/>
	<path id="path30_1_" inkscape:connector-curvature="0" class="st9" d="M174.2,289.5l-49.6,4.5l-1-36.9c0,0-14.6-12.5-25.1-14.5
		c-10.3-1.9-29.8-3-29.8-3l32.3-19.9l10.4-4.2l9.2,11.2l34.6,8.6l39.1-6.8l17.6-19.3l24.1,20.4l-19.5,60.9l-31.2-0.2L174.2,289.5z"
		/>
	<path id="path54" inkscape:connector-curvature="0" class="st10" d="M121.5,224l-39.2,17.5c0,0,16.2,64.6,7.9,84.6l-5.8-2.1
		L84,299.4l-10.8-46.7l-4.6-12.9l40.8-27.5L121.5,224"/>
	<path id="path56" inkscape:connector-curvature="0" class="st11" d="M125.7,259.7l6,6.8v25h-7.2c0,0-0.9-17.5-0.9-19.6
		c0-2.1,0.9-9.6,0.9-9.6"/>
	<path id="path58" inkscape:connector-curvature="0" class="st10" d="M125.7,295.3l-18.8,0.8l5.4,3.8l13.3,2.1"/>
	<path id="path66" inkscape:connector-curvature="0" class="st11" d="M204.8,215.3l29.2,21.7l0.8-10l-22.1-20.4L204.8,215.3"/>
	<path id="path72" inkscape:connector-curvature="0" class="st5" d="M209.7,325.7l16.2-4.6l30.8-1.7l4.6-14.2l-8.3-24.6l-9.6-1.2
		l-13.3,4.2l-12.8,6.2l-6.8-1.2l-5.3,2.1"/>
	<path id="path74" inkscape:connector-curvature="0" class="st8" d="M209.4,317.4c0,0,10.8-5,12.5-4.6l-4.6-22.9l5.4-2.1
		c0,0,3.8,21.7,3.8,24.2c0,0,23.3,1.2,25.4,1.2c0,0,5-9.6,3.8-19.6l4.6,13.3l0.4,7.5l-6.7,10l-7.5,1.7l-12.5-0.4l-4.2-5.4l-14.6,2.1
		l-4.6,1.7"/>
	<path id="path80" inkscape:connector-curvature="0" class="st3" d="M143.9,224.9l-11.5-1.3l-10.8-3.3v3.8l5.3,5.8l16.7,7.5"/>
	<path id="path82" inkscape:connector-curvature="0" class="st4" d="M125.3,226.1c0,0,12.9,5.4,17.1,4.2l0.4,5l-11.7-2.5l-7.1-5
		L125.3,226.1"/>
	<path id="path100" inkscape:connector-curvature="0" d="M160.7,111.4c-11.4-2.6-17,4.8-20.4,12.4c-3.1-0.7-1.9-4.9-1.1-7.1
		c2-5.6,10.2-13,16.9-12C159,105.2,162.9,107.8,160.7,111.4"/>
	<path id="path102" inkscape:connector-curvature="0" d="M216,124.3c0.2,0,0.4,0,0.5,0c2.6,5.3,4.8,11,8,15.7
		c-2.2,5.1-16.4,9.5-16.2,0.5c3.1-1.3,8.4-0.3,11.1-2C217.9,134.2,215.6,130.5,216,124.3"/>
	<path id="path104" inkscape:connector-curvature="0" d="M166.5,124.5c2.4,4.5,3.2,9.2,6.7,12.5c1.6,1.5,4.6,3.4,3.1,7.6
		c-0.4,1-2.9,3.2-4.4,3.7c-5.4,1.6-18,0.3-13.8-6.4c4.5,0.2,10.5,2.9,13.8-0.3C169.4,137.4,164.8,129.3,166.5,124.5"/>
	<path id="path106" inkscape:connector-curvature="0" d="M214,169.8c-8.1,5.2-17.2,10.9-30.6,9.6c-2.9-2.5-3.9-8-1.2-11.6
		c1.4,2.5,0.5,7,4.6,7.7c7.6,1.3,16.4-4.6,21.8-6.7c3.4-5.7-0.3-7.8-3.3-11.5c-6.2-7.5-14.6-16.8-14.3-28.1c2.5-1.8,2.7,2.8,3.1,3.6
		c3.3,7.6,11.4,17.4,17.4,23.9c1.5,1.6,3.9,3.1,4.2,4.2C216.4,164.1,213.7,167.8,214,169.8"/>
	<path id="path108" inkscape:connector-curvature="0" d="M106.6,164.3c-2.6-1.5-3.2-7.9-6.2-8.1c-4.3-0.3-3.5,8.3-3.5,13.4
		c-2.9-2.7-3.5-10.9-1.3-15.2c-2.5-1.2-3.6,1.3-4.9,2.2C92.4,143.9,109.4,150.8,106.6,164.3"/>
	<path id="path114" inkscape:connector-curvature="0" d="M164.5,187.8c4.9,12.3,21.8,10.9,36,10.6c-0.6,1.6-2,3.5-3.7,4.2
		c-4.6,1.9-17.1,3.3-23.5-0.1c-4-2.1-6.6-7-8.8-9.8C163.5,191.3,158.2,187.8,164.5,187.8"/>
	<path id="path118" inkscape:connector-curvature="0" d="M244.4,290.2c-6.4,1.3-11,7.6-17.3,7.2
		C230.6,292.5,236.6,290.5,244.4,290.2"/>
	<path id="path60" inkscape:connector-curvature="0" class="st6" d="M189.8,291.1l15.4-0.4L209,329l-15.8,2.1L189.8,291.1"/>
	<path id="path120" inkscape:connector-curvature="0" d="M247.2,300.3c-5.3,0.6-11.4,1.4-16.8,1C233,297.4,242.7,298.8,247.2,300.3"
		/>
	<path id="path122" inkscape:connector-curvature="0" d="M249,309c-5.9,0.1-13.2,0-18.9-0.5C233.5,305,245.2,307.2,249,309"/>
	<path id="path126" inkscape:connector-curvature="0" class="st5" d="M192.7,223.5c-3,1.9-5.5,4.4-8.3,6.4
		c-6.3,0.3-9.8-0.4-14.4-4.1c0.1-0.3,0.5-0.2,0.6-0.5C177.3,228.4,185.9,224.1,192.7,223.5"/>
	<path id="path64" inkscape:connector-curvature="0" class="st10" d="M204.4,290.2l-14.6,0.9l2.1,11.7c5.4,2.5,14.6-4.2,14.6-4.2
		L204.4,290.2z"/>
	<path id="path124" inkscape:connector-curvature="0" class="st4" d="M202.3,332.8c0.8,7.4,3.8,14.9,3.4,23.1
		c-3.3,1.1-5.1,2.1-9.5,2.1c-0.3-6.9-1.2-17.5-1-24C197.4,334.1,200.5,332.4,202.3,332.8"/>
	<path id="path130" inkscape:connector-curvature="0" d="M195.2,333.9c-0.3,6.6,0.6,17.1,1,24c4.4,0,6.3-1,9.5-2.1
		c0.4-8.1-2.6-15.6-3.4-23.1C200.5,332.4,197.4,334.1,195.2,333.9z M194.4,370c0,0-1.6-29.7-3.2-43.8c-1.2-10.6-0.6-21.3-2.3-32.2
		c-18.2-3.8-43-0.9-60.9,2.5c2.7,31.2,8.2,58.1,13.7,72.6C143.5,373.6,189.8,375.1,194.4,370z M193.2,294.2
		c-0.2,11.4,0.5,22.6,1.4,34c4.4-0.7,7.3-1.1,11.4-2c-1.3-11-1.2-23.3-3.8-33.1C199.1,293.2,196.3,293.2,193.2,294.2z M215.4,292.4
		c-2.1-0.5-4.5,0-6.5,0c0.9,9.3,3.2,19.5,4,29.3c3.1,0.1,4.8-1.4,7.4-1.9C220.4,311.2,219.6,299.4,215.4,292.4L215.4,292.4z
		 M249,323.1c6.5-1.6,10.6-9.5,8.8-17.7c-1.2-5.5-3.4-15.9-5.7-19.4c-1.7-2.6-6.4-6-10.1-3.6c-6.1,3.9-16.7,5-21.1,9.7
		c2.2,7.4,2.9,17.5,3.8,26.8c7.6,0.5,16.9-2.1,23.2,0.6c-4.4,1.4-10.1,1.4-13.9,3.5C237,324.5,244.3,324.2,249,323.1L249,323.1z
		 M126.1,223.6c-3.6,3.7,10.1,8.7,14.5,8.9c0-2.3,1.3-4.5,1-6.2C136.5,225.5,129.6,226.1,126.1,223.6z M170.6,225.3
		c0,0.4-0.5,0.2-0.6,0.5c4.6,3.6,8.1,4.4,14.4,4.1c2.8-2.1,5.4-4.5,8.3-6.4C185.9,224.1,177.3,228.4,170.6,225.3z M204,218
		 M214.7,286.2c2.1-0.8,3.6-7.7,5.2-11.5c4.4-10.6,9-24,11-34.1c0.5-2.3,1.7-7.3,1.4-9.4c-0.5-3.7-5.5-6.4-8-8.7
		c-4.7-4.2-7.6-7.9-12.5-11.8c-2,2.9-6.2,4.9-7.8,7.3l-8.9,10.8l-43.5,10.1c-9,0-25.5-7.3-31.7-11.7l0,0c-1.1-0.8-8.8-10.8-9.8-10.4
		c-13.9,5.5-26.8,14.9-38.4,23.9c11,23.7,15.5,52.7,16.3,80.7c12.7,5.9,23.8,14.5,40.9,15.3c-2-14.1-3.8-26.6-4.9-39.8
		c-4.3-1.8-10.5,0.1-14.5-0.6c0-4.9,6.2-2.1,6.7-5.4c0.4-2.5-3.4-2.7-2.2-6.6c3.2,1.1,4.8,3.7,8.2,4.6c3.1-6.7,0-18.6,0.4-24.3
		c0.1-1.1,0.5-5.9,2.9-5c2.1,0.7-0.1,12.8,0.1,18.1c0.2,4.9-0.6,9.7,1.4,12.7c16.6-2.3,33.5-3.7,51.4-2.2
		C187.5,289.1,198.2,291.1,214.7,286.2z M93.6,115.5c-5.5,6.1-4.4,17.4-3.7,25.5c10-6.3,23.2,0.5,23,11.1c4.8-0.1,1.8-5.9,0.9-9.7
		c-2.8-12.2,4.7-25.5,0.3-36.7C105.7,106.5,98.7,110,93.6,115.5L93.6,115.5z M133,80.4c-12.5,3.5-28.4,12.6-33.6,23.8
		c4-0.6,6.7-2.6,10.6-2.8c1.5-0.1,3.4,0.6,5.1,0.2c3.4-0.8,6.2-8.4,8.8-11.3c2.5-2.8,5.5-3.9,7.5-6.5c1.3-0.6,3.3-0.6,3.3-2.6
		C134.3,80.7,133.7,80.2,133,80.4z M197.9,83.7c-12.9-7.3-34.8-12.8-48.6-5.9c-11.1,5.5-26.1,14.7-31.2,26.3
		c4.8,11.2-1.4,21.5-1.8,32.8c-0.2,6.1,2.8,11.3,3.1,17.9c-1.6,2.7-6.6,3-10.1,2.8c-1.2-5.8-3.2-12.4-9.2-13
		c-8.5-0.9-14.7,6.1-15.1,13.4c-0.5,8.6,6.6,23,16.7,22c3.9-0.4,4.8-4.3,9.1-4.2c2.3,4.6-3.5,6-4.1,9.3c-0.2,0.8,0.5,4.1,0.9,5.7
		c1.8,7.5,5.9,17.3,9.9,23c5.1,7.3,15.1,8.4,25.8,9.1c15.2,1.9,16.7,0.8,21.3,1.9c-5.5-2.2-18.4-12.1-22.7-16.8
		c-4.9-5.4-9.8-11.2-10.1-18.2c9.2,12.8,16.9,24,33.6,29.6c12.7,4.3,27.5-2,37.3-8.8c4.1-2.8,6.5-7.4,9.3-11.5
		c10.8-15.5,15.8-37.6,14.7-59c-0.5-8.8-0.4-17.7-3.4-23.6c-3.1-6.2-13.6-11.8-19.7-6.2c-1.1-6,5.1-9.8,12.4-7.6
		C210.8,96,205.3,87.9,197.9,83.7L197.9,83.7z M222,283.2c10.1-5,29-13.5,35.3,0c2.3,5,5.1,13.4,6.3,18.6c1.7,7.3-1.9,22.6-9.3,25
		c-6.6,2.2-14.3,2-22.3,0.4c-0.9-0.8-2-2.1-2.7-3.6c-5.7-0.2-11,0.3-15.5,2.6c0.4,4.2-2.4,4.9-5.1,5.7c-2,7.8,3.9,18,2.5,25.2
		c-1,5.1-7.3,5.9-11.9,6.8c-0.2,2.8,1.6,7.6-1.5,10.9c-4.7,4.9-39,7.9-59.7,0.6c-3.6-13.9-8.5-20.1-10.1-32.3
		c-13.8,1.5-24.9-5.9-35.5-10.8c-3.6-1.7-8.7-2.6-10-5.5c-1.3-2.8-0.8-8.2-1.1-13.3c-0.8-13-1.5-25.5-5-38.8c-1.5-6-4.2-11.2-6.1-17
		c-1.7-5.3-4.7-11.9-5.5-17.2c-1.2-7.9,6.2-8.3,11-11.7c7.3-5.3,13.1-8.2,21-12.9c2.3-1.4,9.4-5,10.2-6.6c1.6-3.3-2.7-7.8-3.9-10.4
		c-1.8-4-2.8-7.5-3.1-11.4c-6.7-1.1-11.7-5-14.7-9.5c-5-7.4-8.5-21.1-4.2-31.5c0.3-0.8,2-2.4,2.3-3.7c0.5-2.5-0.9-5.8-1-8.4
		c-0.5-13.5,2.3-25.2,11.4-29.2c3.7-14.7,16.9-19.6,29.4-26.9c4.7-2.7,9.8-4.5,15.1-6.4c19-7,48.2-5.7,64,6.3
		c6.7,5.1,17.4,15.7,21.2,23.5c10.1,20.4,9.4,54.5,2.3,79.4c-0.9,3.3-2.3,8.2-4.3,12.2c-1.3,2.8-5.5,8.4-5,10.9
		c0.5,2.6,9.5,9.4,11.4,11.2c3.5,3.3,10.1,7.8,10.6,12c0.6,4.5-2,10.6-3.3,15C231.1,256.9,226.9,270.3,222,283.2"/>
	<path id="path132" inkscape:connector-curvature="0" class="st8" d="M154.6,183c0.5-0.7,3.6-1.8,7.8,0.2c0,0-5,0.8-4.6,9.2
		l-2.1-0.4C155.7,191.9,153.5,184.4,154.6,183"/>
	<text transform="matrix(1 0 0 1 9.4023 450.109)" class="st12 st13 st14">Jenkins</text>
	<path class="st15" d="M175.3,289.8"/>
	<path class="st15" d="M175.3,230.7"/>
	<path class="st15" d="M181.9,290.1"/>
	<path class="st15" d="M181.9,231"/>
	<path class="st15" d="M187.8,290.3"/>
	<path class="st15" d="M187.8,230.2"/>
	<path id="path54_1_" inkscape:connector-curvature="0" class="st11" d="M125.2,222.3l-39.2,17.5l-13.7-1.7l40.8-27.5L125.2,222.3"
		/>
	<path class="st16" d="M68.6,239.9c0,0,50.5-2.7,55.8,23.5"/>
	<text transform="matrix(0.8566 -0.1773 0.2027 0.9793 148.5345 374.1205)" class="st17 st18 st19">C</text>
	<text transform="matrix(0.8566 -0.1773 0.2027 0.9793 138.7167 344.5741)" class="st17 st20 st21">N</text>
</g>
<g id="Слой_2">
	<path class="st22" d="M92.7,237.1c17.7,23,44.2,38,73.8,41.8c46.3,5.8,65.5-33.7,62.1-66.1c-2.5-23.5-20.2,6.7-58.2,6.7
		c-63.6,0.1-64.3-37.7-64.3-37.7s-9.6,5.2-16,0.7c-4-2.8-7-16.6-7-16.6S67.8,204.7,92.7,237.1z"/>
	<path class="st3" d="M93.7,228.4c18.9,22.1,37.6,39.3,76.8,42.2c46.6,3.4,62.5-28.2,59.1-60.7c-2.5-23.5-7.6-25.5-7.6-25.5
		s-13,33.8-46.5,35.2c-63.6,2.6-67.3-37.7-67.3-37.7s-12,2.4-19.2-4.3c-5.7-5.3-5.9-17.6-5.9-17.6S73.2,204.5,93.7,228.4z"/>
	<path class="st23" d="M82.6,178.4c3.2,4.3,19.6,11.2,19.6,11.2s21.3,67.6,85.8,59.9c24.4-2.9,33.4-63.2,33.4-63.2
		s-13,33.8-46.5,35.2c-63.6,2.6-68.3-40.7-68.3-40.7s-12.1,0.7-15.2-1.2c-2.9-1.8-8.8-13.7-8.8-13.7S78.2,172.5,82.6,178.4z"/>
	<path class="st15" d="M99.2,235.4c19.1,22,41.2,31.5,70.8,35.2c46.3,5.8,63.5-27.2,60.1-59.7c-2.5-23.5-7.6-25.5-7.6-25.5
		s-13,33.8-46.5,35.2c-63.6,2.6-68.3-39.7-68.3-39.7s-11.2,3.2-17-1.8c-7.7-6.5-8-13.1-8-13.1S72.1,204.2,99.2,235.4z"/>
	<path class="st24" d="M119.9,165.3c0.6,6.5,1.2,13.3,4.1,18.3c10.8,18.9,27.5,14.4,36.9,12.7c3.2-0.6,9,8.6,11.6,10.4
		c7.4,5.1,12.5,6,17.8,5.6c7.3-0.6,30.1-23.9,30.1-23.9s-18.1,55.5-33.8,55.8c-13.6,0.3-25.3-3.1-36.2-10.8
		c-10.9-7.6-22.5-17.2-31.6-26.9c-17.6-19-9.6-29.8-12-45c-1.4-8.7-4.4-22.8-15.2-18c-2.1,0.9-4,2.5-6.2,2.8
		c-1.8,0.2-3.7-0.4-5.3-1.3c-3.8-1.8-7.2-4.6-9.1-8.3c-3.9-7.5-1-16.8,3.7-23.8c0.8-1.1,1.6-2.2,2.8-2.8c0.8-0.4,1.8-0.5,2.7-0.6
		c12.3-1.2,24.6-2.3,37-3.5c1.5,7.5-0.6,15.2-1.1,22.8C115.3,141.3,118.8,153.1,119.9,165.3z"/>
	<g>
		<path d="M221.6,83.3l-1-47.1c0,0-29.8-16.7-56-17.3c-28.6-0.7-54.2,9.8-54.2,9.8l-1.8,50.6L221.6,83.3z"/>
		<path class="st9" d="M157.8,80.5c0,0-35.3-2.4-15.1-43.8c5.6-11.4,23-18.6,23-18.6s-13.8,0-28,2.1c-6.6,1-26.2,7.8-26.2,7.8
			l-1.8,50.6L157.8,80.5z"/>
		<path class="st25" d="M222.8,82.5l-1-47.1c0,0-29.8-16.7-56-17.3c-28.6-0.7-54.2,9.8-54.2,9.8l-1.8,50.6L222.8,82.5z"/>
	</g>
	<g>
		<path class="st26" d="M139.7,46.9c-1.6-3.9-0.3-11.3-0.3-11.3l-7.6,6c0,0-0.6-6.1-1.8-7.6c-2.2-2.7-4.1-1.9-12.1-6.4
			c-5.4-3-11.9-4.5-11.9-4.5l2.9,8.5l-8.4-9.4c0,0-8.2-3.7-16.1-3.4C77,19,70.2,15.9,70.2,15.9l-0.9,3.8l-2.5-4.5l-15-5.5l-1.9,4
			l-4.5-5.1L31.4,5c0,0,1.9,6.9,4.8,12.3c2.9,5.6,2.7,9.3,2.7,9.3l8.7-0.1l-5.7,3.1c0,0,2.2,4.7,3.2,4.5c5.7-1.2,7.5,6.6,7.5,6.6
			l13.6-0.1l-6.8,4l21.8,8.9l7.5-6.3l-3.4,7.8l10.6,4.7l4.2-4.4l-2,5.3l3.4,1.9c0,0-1-5.9,7-7.8c4.2-1,18.7-2.7,18.7-2.7l8.4,4.5
			C135.7,56.5,141.3,50.9,139.7,46.9z"/>
		<path class="st27" d="M129.8,47.1c-2.8-1.2-5.2-10.9-5.2-10.9l-13.8-6.8c0,0,6.4,12.5,4.1,13.2c-3.4,1-12.6-13.8-12.6-13.8
			s-12.1-5-17.9-4.9c-5.4,0.2-10.3-2.1-10.3-2.1s-1.1,8.6-2.9,7.9c-1.1-0.4-8.6-11.2-8.6-11.2s-8.2,3.3-11,2.8
			c-3.8-0.7-12.6-9.1-12.6-9.1l3.2,10.3c0,0,12.7,1,14,3.2c1,1.8-6.4,6.1-5.1,6.1c6-0.3,7.9,4.7,7.9,4.7s16.6-0.2,17.5,0.6
			c1.2,1-8.1,6.5-8.1,6.5l11.5,4c0,0,10.7-10,13.8-7.6c2.6,2-3.5,12.7-3.5,12.7l5.2,2.2c0,0,7.9-10.3,10.2-9.6
			c2.1,0.6-1.2,6.7-1.2,6.7l25.6-0.3l5.1-6.3C135.3,45.4,131.2,47.6,129.8,47.1z"/>
		<g>
			<path d="M141.9,63c-1.5-1.2-3.3-2.4-5-3.5c-1.8-1.1-3.5-2.2-5.4-3.3c-3.6-2.1-7.4-4.1-11.2-5.9c-1-0.5-1.9-0.9-2.9-1.3
				c-1-0.4-1.9-0.9-2.9-1.3c-2-0.8-4-1.5-6-2.2c-4-1.3-8.1-2.6-12.2-3.8c-8.2-2.4-16.5-4.9-24.4-8.1c-7.9-3.2-15.6-7.3-22.2-12.8
				c6.8,5.2,14.6,9,22.6,11.8c8,2.9,16.3,5,24.6,7.1c4.2,1,8.3,2.1,12.5,3.3c4.2,1.2,8.3,2.6,12.3,4.1c4.1,1.5,8.1,3.1,12.1,4.9
				c2,0.9,3.9,1.9,5.9,2.9c2,1,3.8,2,5.8,3.3L141.9,63z"/>
		</g>
		<path class="st25" d="M139.4,46.9c-1.6-3.9-0.3-11.3-0.3-11.3l-7.6,6c0,0-0.6-6.1-1.8-7.6c-2.2-2.7-4.1-1.9-12.1-6.4
			c-5.4-3-11.9-4.5-11.9-4.5l2.9,8.5l-8.4-9.4c0,0-8.2-3.7-16.1-3.4C76.8,19,70,15.9,70,15.9l-0.9,3.8l-2.5-4.5l-15-5.5l-1.9,4
			l-4.5-5.1L31.2,5c0,0,1.9,6.9,4.8,12.3c2.9,5.6,2.7,9.3,2.7,9.3l8.7-0.1l-5.7,3.1c0,0,2.2,4.7,3.2,4.5c5.7-1.2,7.5,6.6,7.5,6.6
			L66,40.7l-6.8,4L81,53.6l7.5-6.3L85,55.1l10.6,4.7l4.2-4.4l-2,5.3l3.4,1.9c0,0-1-5.9,7-7.8c4.2-1,18.7-2.7,18.7-2.7l8.4,4.5
			C135.4,56.5,141.1,50.9,139.4,46.9z"/>
	</g>
	<g>
		<path class="st28" d="M108.6,179c0,0,0.8,26.5,41.9,54c36.8,24.6,51.8-3,51.8-3s-25.6,5.8-40.7-1.9
			C118.2,206.1,108.6,179,108.6,179z"/>
		<g>
			<path class="st28" d="M81.5,148.3c0,0,6.7-20.1,13.5-28.4c8-9.6,23-15.8,23-15.8l-1.8,32.8c0,0-3.1-13.3-17.5-4.7
				C93.7,135.3,81.5,148.3,81.5,148.3"/>
			<path class="st29" d="M119.9,164.9c0.6,6.5,1.2,13.3,4.1,18.3c10.8,18.9,27.5,14.4,36.9,12.7c3.2-0.6,9,8.6,11.6,10.4
				c7.4,5.1,12.4,5.9,17.8,5.6c9-0.5,30.1-23.9,30.1-23.9s-18.1,55.5-33.8,55.8c-13.6,0.3-25.3-3.1-36.2-10.8
				c-10.9-7.6-28.3-19.9-35.9-32.5c-8.7-14.3-5.2-23.8-7.7-39.1c-1.4-8.7-4.4-23.2-15.2-18.4c-2.1,0.9-4,2.5-6.2,2.8
				c-1.8,0.2-3.7-0.4-5.3-1.3c-3.8-1.8-7.2-4.6-9.1-8.3c-3.9-7.5-1-16.8,3.7-23.8c0.8-1.1,1.6-2.2,2.8-2.8c0.8-0.4,1.8-0.5,2.7-0.6
				c12.3-1.2,24.6-2.3,37-3.5c1.5,7.5-0.6,15.2-1.1,22.8C115.3,140.8,118.8,152.7,119.9,164.9z"/>
		</g>
	</g>
	<path class="st30" d="M190.6,187.5c0,0-10.4-9.9-19.7-2.4c-17,13.7-21.3-2.1-23.3-0.3c-3.2,3.1,4.5,17.4,19.1,17.8
		c17.5,0.5,23.8-9.5,23.8-9.5s6.3,5.2,17.5,5.4c24.8,0.6,17-16.4,15.9-14.2c-3,6.3-9.3,5-12.6,2.1
		C199.2,175.5,190.6,187.5,190.6,187.5z"/>
	<g>
		<g>
			<path class="st11" d="M229.1,155.2c0,0,23.5-4.4,29.6-26c7.2-25.4-9.7-63.6-71.9-76.7C126.3,39.7,78.3,50.4,65.3,84.8
				c-15.1,39.9,16.2,63.5,16.2,63.5S100.9,86.9,180,89c37.2,1,46.2,18.3,48.6,36.2C230.6,139.5,229.1,155.2,229.1,155.2z"/>
			<path class="st9" d="M229.1,154.1c0,0,14.5,2.6,20.6-19c7.2-25.4-17.8-49.9-49.9-57.7c-34-8.3-83.1,0.2-106.5,33.3
				c-11.7,16.5-11.8,36.5-11.8,36.5s19.4-61.3,98.5-59.3c37.2,1,46.2,18.3,48.6,36.2C230.7,138.3,229.1,154.1,229.1,154.1z"/>
			<path class="st31" d="M229.1,155.2c0,0,23.5-4.4,29.6-26c7.2-25.4-9.7-63.6-71.9-76.7C126.3,39.7,78.3,50.4,65.3,84.8
				c-15.1,39.9,16.2,63.5,16.2,63.5S100.9,86.9,180,89c37.2,1,46.2,18.3,48.6,36.2C230.6,139.5,229.1,155.2,229.1,155.2z"/>
		</g>
		<g>
			<path class="st32" d="M71.6,132.6c-0.3-1.3-0.9-2.4-1.4-3.6c-0.5-1.2-1.1-2.4-1.6-3.6c-1-2.4-1.9-4.9-2.6-7.4
				c-1.4-5.1-1.9-10.4-1.4-15.7c0.4-5.3,1.8-10.5,3.8-15.4c2-4.9,4.6-9.6,8.1-13.8c3.4-4.2,7.5-7.7,12-10.6c4.5-2.9,9.4-5.2,14.4-7
				c5-1.8,10.2-3.1,15.4-4c5.2-0.9,10.5-1.4,15.8-1.6c21.1-0.7,42.1,2.8,62,9.2c10,3.3,19.7,7.3,28.8,12.4c4.6,2.6,9,5.4,13.1,8.6
				c4.1,3.2,8,6.8,11.1,11c-1.7-2-3.6-3.8-5.6-5.4c-2-1.7-4-3.2-6.2-4.7c-4.3-2.9-8.8-5.5-13.4-7.8c-9.2-4.6-19-8.2-28.8-11.2
				c-9.9-2.9-20-5.1-30.2-6.5c-10.2-1.5-20.5-2.1-30.7-1.7c-10.2,0.4-20.4,1.9-30.1,5.2c-4.8,1.6-9.4,3.7-13.7,6.4
				c-4.2,2.7-8.2,5.9-11.5,9.7c-1.7,1.9-3.1,3.9-4.5,6.1c-1.3,2.1-2.5,4.4-3.6,6.7c-2.1,4.6-3.6,9.5-4.3,14.6
				c-0.7,5-0.5,10.2,0.6,15.3c0.5,2.5,1.2,5,2.1,7.5c0.4,1.2,0.9,2.4,1.3,3.7C70.9,130.1,71.4,131.4,71.6,132.6z"/>
		</g>
	</g>
	<path class="st15" d="M183.1,190.6"/>
	<path class="st15" d="M316.5,230.5"/>
	<g>
		<polygon points="109.8,193.5 81,192.4 109.6,189.5 		"/>
	</g>
	<g>
		<polygon points="115.2,203 84.9,209 114.1,199.1 		"/>
	</g>
	<g>
		<polygon points="122.4,211.4 92,225.5 120.6,207.9 		"/>
	</g>
	<g>
		<polygon points="129.9,219.2 101.1,238.7 127.5,216 		"/>
	</g>
	<g>
		<polygon points="138.8,224.8 115.4,250.3 135.7,222.2 		"/>
	</g>
	<g>
		<polygon points="148.8,231 130.4,259.2 145.4,229 		"/>
	</g>
	<g>
		<polygon points="158,237.7 146.4,265.2 154.3,236.4 		"/>
	</g>
	<g>
		<polygon points="190.8,243.1 195.2,269.2 186.9,244.1 		"/>
	</g>
	<g>
		<polygon points="182.2,243.7 178.6,270.2 178.2,243.5 		"/>
	</g>
	<g>
		<polygon points="170.3,240.1 163.6,269.5 166.3,239.5 		"/>
	</g>
	<g>
		<polygon points="197.5,237.6 211.2,261.4 194.2,239.9 		"/>
	</g>
	<g>
		<polygon points="203.2,230 222.2,252 200.4,232.8 		"/>
	</g>
	<g>
		<polygon points="206.1,224.3 227.6,236.7 204.4,227.9 		"/>
	</g>
	<g>
		<polygon points="209.2,217.3 228.9,225.8 208,221.1 		"/>
	</g>
	<g>
		<polygon points="211.8,209.3 230.7,215.9 210.9,213.2 		"/>
	</g>
	<g>
		<polygon points="215,203.7 230.2,206.3 214.8,207.7 		"/>
	</g>
	<g>
		<polygon points="215,197.1 228.2,199.7 214.8,201.1 		"/>
	</g>
	<g>
		<polygon points="107.8,183.8 81,182.7 107.6,179.8 		"/>
	</g>
</g>
</svg>
