<svg id="Слой_1" data-name="Слой 1" xmlns="http://www.w3.org/2000/svg" viewBox="0 0 595.28 683"><defs><style>.cls-1,.cls-17,.cls-5,.cls-7{fill:#fff;}.cls-2{fill:#999;opacity:0.72;}.cls-20,.cls-3{fill:none;}.cls-17,.cls-18,.cls-21,.cls-29,.cls-3,.cls-4,.cls-7{stroke:#201600;}.cls-17,.cls-18,.cls-19,.cls-21,.cls-22,.cls-23,.cls-26,.cls-27,.cls-28,.cls-29,.cls-3,.cls-4,.cls-5,.cls-6,.cls-7{stroke-miterlimit:10;}.cls-3{stroke-width:3.53px;}.cls-14,.cls-23,.cls-28,.cls-4,.cls-6{fill:#ce1700;}.cls-21,.cls-22,.cls-23,.cls-24,.cls-4{stroke-width:7.32px;}.cls-19,.cls-20,.cls-22,.cls-23,.cls-24,.cls-26,.cls-27,.cls-28,.cls-5,.cls-6{stroke:#000;}.cls-5,.cls-6,.cls-7{stroke-width:7px;}.cls-8{fill:#ecd3b6;}.cls-9{fill:#6d6b6d;}.cls-10{fill:#dbd7d6;}.cls-11{fill:#f4e1cb;}.cls-12{fill:#48443e;}.cls-13,.cls-18{fill:#201600;}.cls-15{fill:#9b1100;}.cls-16{fill:#6b6966;}.cls-17,.cls-26,.cls-27,.cls-29{stroke-width:3.66px;}.cls-18{stroke-width:1.83px;}.cls-19{stroke-width:0.92px;}.cls-20,.cls-24{stroke-linecap:round;stroke-linejoin:round;}.cls-20{stroke-width:5.49px;}.cls-24{fill:#585551;}.cls-25{fill:#969594;}.cls-26{fill:#fbeb4b;}.cls-27,.cls-29{fill:#3c5eab;}.cls-28{stroke-width:4px;}.cls-30{fill:#53a1ff;}.cls-31{fill:#fff76c;}.cls-32{fill:#ff5343;}</style></defs><title>logoМонтажная область 1</title><polygon points="519.67 420.41 332.91 634.28 325.6 627.45 515.36 416.59 519.67 420.41"/><polygon class="cls-1" points="338.06 630.31 319.94 650.73 311.63 641.91 328.75 622.49 338.06 630.31"/><rect class="cls-1" x="510.08" y="411.86" width="21.55" height="5.76" transform="translate(-135.06 529.07) rotate(-48.42)"/><polygon class="cls-2" points="528.2 406.78 316.02 646.03 311.27 642.24 525.87 406.68 528.2 406.78"/><path class="cls-3" d="M529.17,409.73,323,647.12a5.08,5.08,0,0,1-6.84.76l-1.08-.79a5.86,5.86,0,0,1-.88-8.66L523,407.92a4.3,4.3,0,0,1,6-.33h0A1.52,1.52,0,0,1,529.17,409.73Z"/><path id="path22" class="cls-4" d="M422.91,396.05c0,113.37-89.73,204.86-200.48,204.86S22,509,22,396.05C22,282.68,111.69,191.2,222.43,191.2s200.48,91.48,200.48,204.86"/><path id="path22-2" data-name="path22" class="cls-5" d="M388.25,396.05c0,97.29-74.22,175.79-165.82,175.79S56.62,493,56.62,396.05c0-97.29,74.22-175.79,165.82-175.79s165.82,78.5,165.82,175.79"/><path id="path22-3" data-name="path22" class="cls-6" d="M355.65,396.05c0,76.06-59.63,137.43-133.21,137.43S89.22,471.82,89.22,396.05c0-76.06,59.63-137.43,133.21-137.43S355.65,320,355.65,396.05"/><path id="path22-4" data-name="path22" class="cls-7" d="M321,396.05c0,58.41-44.14,105.55-98.61,105.55s-98.61-47.36-98.61-105.55c0-58.41,44.14-105.55,98.61-105.55S321,337.64,321,396.05"/><path id="path26" d="M81.39,249.74a201.15,201.15,0,0,0-56.9,140.51h0a201.15,201.15,0,0,0,56.9,140.51h0c35,35.89,83.61,58.22,137,58.22h0c53.4,0,102-22.32,137-58.22h0a201.15,201.15,0,0,0,56.9-140.51h0a201.15,201.15,0,0,0-56.9-140.51h0c-35-35.89-83.61-58.22-137-58.22h0a192.92,192.92,0,0,0-137,58.22ZM72.64,539.51A213.37,213.37,0,0,1,12.23,390.25h0A213.37,213.37,0,0,1,72.64,241h0a203.6,203.6,0,0,1,146.2-61.72h0c56.9,0,108.56,23.64,146.2,61.72h0a213.37,213.37,0,0,1,60.41,149.26h0A213.37,213.37,0,0,1,365,539.51h0a203.6,203.6,0,0,1-146.2,61.72h0c-57.34.44-109-23.2-146.2-61.72h0"/><path id="path28" class="cls-8" d="M302.35,410.78l-30.89,4.41L230,419.61l-26.92.88-26-.88-19.86-6.18L139.49,394l-13.68-39.28-3.09-8.39-18.54-6.18L93.59,322.51l-7.5-25.6,8.39-22.51,19.86-7.06,16.33,7.5,7.5,16.77,9.27-1.32,3.09-4-3.09-17.65-.88-22.51L151,215.26V197.6l14.12-22.51,24.72-17.65,43.25-18.54L280.73,146l41.49,30,19.42,30.89L354,229.38,357.08,285l-9.27,47.67L331,375l-16.33,22.51"/><path id="path30" d="M276.31,544.07l-109.9,4.41h0l145.21-4.41,4.72,69L179.53,627.28,94.48,610.71l-5.3-9.27-7.5-86.95L64,462l-4-12.36,61.35-42.37,19.42-7.5,16.77,20.74,14.56,13.24,16.77,5.3,7.5,2.21,9.27,40.16,7.06,8.39,17.65-6.18-12.36,23.83,67.09,31.34-8.83,5.3"/><path id="path32" class="cls-9" d="M94,275.28l19.86-7.06,16.33,7.5,7.5,16.77,9.27-1.32,2.21-9.27-4.41-17.65,4.41-42.37-4-23,13.68-16.33,30-23.83-8.39-11.48L138.17,168l-17.65,13.68-10.15,21.63L94.92,224.09,90.5,248.8,94,275.28"/><path id="path34" class="cls-10" d="M125.37,203.34s11.48-28.69,57.82-42.37,2.21-10.15,2.21-10.15l-49.87,19.42L116.1,189.66l-8.39,15.45,17.65-1.77"/><path id="path36" class="cls-10" d="M115.24,270c.61,2-12.66-55.85,32.64-61.35l-2.21-9.27L103.3,209.52,90.94,249.68l3.09,26,8.39-5.74"/><path id="path38" class="cls-11" d="M127.14,341.49l10.15-9.71s4.41.44,5.3,5.74,3.09,53.85,36.19,79.89c3.09,2.21-24.72-4-24.72-4L129.34,375"/><path id="path46" class="cls-11" d="M134.64,292.5s-29.13-17.65-32.22-.88-10.15,29.13,4.41,46.78l-10.15-3.09-9.27-23.83-3.09-23L102,270l19.86,1.32,11.48,9.27,1.32,11.92"/><path id="path48" class="cls-11" d="M148.32,243.95s13.24-67.53,79.44-80.77c54.29-10.59,83,2.21,94,14.56,0,0-48.55-57.82-94.45-40.16-46.34,17.65-79.89,49.87-79.44,70.62,1.32,35.75.44,35.75.44,35.75"/><path id="path54" class="cls-12" d="M157.15,420.93,84.77,453.15s30,119.17,14.56,156.24l-10.59-4L87.85,560,68,473.89l-8.39-23.83,75.47-50.76,22.07,21.63"/><path id="path56" class="cls-12" d="M165.57,486.69l10.15,12.36v46.34H163.36S162,513.17,162,509.2s1.32-17.65,1.32-17.65"/><path id="path60" class="cls-13" d="M283.38,545l28.69-.88,7.06,70.62-29.13,4L283.38,545"/><path id="path62" d="M290.88,545l43.25-2.21s17.65-44.58,17.65-46.78,15.45-64.44,15.45-64.44l-34.43-36.19-7.06-6.18-18.54,18.54v71.5L290.88,545"/><path class="cls-12" d="M164.65,550.29l-34.43,5,10.15,3.4,24.72,4s81.34-1.24,108.47-1.48c10.92-.09,40.71-2.53,40.71-2.53l-4-19.42-26.92,5.3Z"/><path id="path66" class="cls-12" d="M310.74,404.6l53.85,40.16,1.32-18.54-40.6-37.52L310.74,404.6"/><path id="path72" class="cls-1" d="M320,608.51l30-8.39L407,597l8.39-26-15.45-45.46-17.65-2.21-24.72,7.5L333.69,542.3l-12.36-2.21-9.71,4"/><path id="path74" class="cls-10" d="M319.57,593.06s19.86-9.27,23-8.39l-8.39-42.37,10.15-4s7.06,40.16,7.06,44.58c0,0,43.25,2.21,46.78,2.21,0,0,9.27-17.65,7.06-36.19l8.39,24.72.88,13.68L402.1,605.86l-13.68,3.09-23-.88L358,597.92l-26.92,4L322.66,605"/><path id="path76" class="cls-1" d="M292.12,538.77l-18.24-43.25-19.2-25.6s4.32-10.59,10.08-10.59H284l18.24,6.18-1.44,28.69-8.64,44.58"/><path id="path78" class="cls-10" d="M292.64,524.21S271,482.72,271,476.54c0,0,4-9.27,9.27-7.06s16.77,8.39,16.77,8.39V463.3L271,458l-17.65,2.21,30,70.62,6.18.88"/><path id="path80" class="cls-1" d="M198.19,422.26,177,420l-19.86-6.18v7.06l9.71,10.59,30.89,13.68"/><path id="path82" class="cls-10" d="M163.77,424.9s23.83,10.15,31.34,7.5l.88,9.27-21.63-4.41L161.12,428l2.65-3.09"/><path id="path84" class="cls-14" d="M321.74,463.05c-13.24-.44-24.72-1.77-35.31-4.85.88-4.41-.44-8.39.44-11.48,3.09-2.21,7.5-2.21,11.92-2.65-4-1.77-9.27-2.65-13.24-1.32,0-3.09-1.32-4.85-2.21-7.06,7.5-2.65,24.72-19.86,34.43-14.12,4.85,2.65,6.62,18.1,7.06,25.6,0,6.18-.88,12.8-3.09,15.89"/><path id="path88" class="cls-14" d="M257.92,440.89v3.18c-4.09,2.73,24.79-11.92,20.25-9.65,6.82.45-2.37,16.47,2.17,18.74,0,2.73-18.31,4.09-18.77,6.81-7.73,5.46-17.3,14.1-26.39,19.1-4.09,2.27-19.55,8.18-24.1,7.27-2.73-.45-2.73-3.64-3.64-6.82-2.27-6.37-7.27-16.82-7.73-26.37-.45-12.28-1.82-32.74,11.37-30.46,10.46,1.82,23.19,6.82,31.37,11.37,5,2.73,7.73,5.91,15.46,6.82"/><path id="path96" class="cls-15" d="M290.72,461.29s-5.3-7.5-1.32-10.15c4-2.21,7.5,0,10.15-4,2.21-4,0-6.18.88-10.59s4.41-5.3,8.39-6.18,14.56-2.21,16.33,1.32L320.74,418l-9.27-3.09-29.13,16.77L281,440.1v16.77"/><path id="path98" class="cls-15" d="M209.28,487.73c-.91-12.28-1.82-24.55-3.18-37.28-1.82-18.64,4.55-15.46,20.46-15.46,2.27,0,15,2.73,15.91,4.55,4.55,8.64-7.27,6.82,5,13.64,10.46,5.46,28.64-3.64,24.55-15.91-2.27-2.73-12.28-.91-15.46-2.73-6.37-3.18-12.28-6.37-18.64-9.55-7.73-4.09-25.92-10-34.55-4.55-21.37,14.55,1.36,50.47,9.09,65.93"/><path id="path108" d="M129.34,310.59c-4.85-2.65-5.74-14.56-11.48-15-7.94-.44-6.62,15.45-6.62,24.72-5.3-4.85-6.62-20.3-2.21-27.81-4.41-2.21-6.62,2.65-9.27,4,3.53-23.39,34.87-11,29.57,14.12"/><path id="path114" d="M236.59,352.08c9.27,23,45.75,26,79.46,18.5-1.32,3.09-16.35,7.54-19.44,8.42-8.39,3.53-31.78,6.18-43.25,0-7.5-4-12.36-12.8-16.33-18.1-2.65-2.21-12.36-8.83-.44-8.83"/><path id="path116" class="cls-16" d="M326.63,477.87c-10.59,18.1-20.74,37.07-33.54,53,5.3-15.45,7.5-41.49,8.39-61.35,11-5.3,20.74.88,25.16,8.39"/><path id="path118" d="M384,543.19c-11.92,2.21-20.3,14.12-31.78,13.24,6.18-8.83,17.21-12.8,31.78-13.24"/><path id="path120" d="M389.3,561.72c-9.71.88-21.19,2.65-30.89,1.77,4.41-7.06,22.51-4.41,30.89-1.77"/><path id="path122" d="M392.39,578.05a304,304,0,0,1-34.87-.88c6.18-6.62,27.81-2.65,34.87.88"/><path id="path126" class="cls-8" d="M288.67,420c-5.3,3.53-10.15,7.94-15.45,11.92-11.48.44-18.1-.88-26.48-7.5,0-.44.88-.44.88-.88,12.36,5.3,28.25-2.65,41-3.53"/><path id="path128" class="cls-16" d="M218.06,507.44c3.53-15,23.46-25.63,35.82-34,12.8,15.89,22.88,40.39,31.27,60.25-19.86-6.18-45.9-17.79-63.56-27.5Z"/><path id="path130" d="M332,547c-4-.88-8.39,0-11.92,0,1.77,17.21,5.74,36.19,7.5,54.29,5.74,0,8.83-2.65,13.68-3.53,0-15.89-1.77-37.52-9.27-50.76Zm61.79,56.49c11.92-3.09,19.42-17.65,16.33-32.66-2.21-10.15-6.18-29.13-10.59-35.75-3.09-4.85-11.92-11-18.54-6.62-11,7.06-30.89,9.27-38.84,18.1,4,13.68,5.3,32.22,7.06,49.43,14.12.88,31.34-4,42.81,1.32-7.94,2.65-18.54,2.65-25.6,6.62,5.3,2.21,18.54,1.77,27.36-.44ZM282.08,530.67c-8.39-19.86-15.89-40.6-28.69-56.49-12.36,8.39-25.6,15.89-29.13,30.89C241.92,514.78,262.22,524.49,282.08,530.67Zm20.74-61.35c-.88,19.86-3.09,45.9-8.39,61.35,12.8-15.89,23-34.87,33.54-53C323.57,470.2,313.86,464,302.83,469.32Zm-23.39-8.39c-4.85-.44-8.83,5.3-15,3.09-1.32,1.77-2.65,3.09-4,4.85,13.68,16.33,19.86,40.16,30.45,59.58,5.74-18.54,4.85-39.28,6.18-59.58C289.14,468.88,284.73,461.37,279.43,460.93Zm-15-20.3c-.44,5.74.88,7.5,1.77,14.12C284.73,460.49,281.64,429.15,264.43,440.63ZM243.68,434c-7.94-4.41-20.3-9.27-30.45-11-12.8-2.65-11.48,17.65-11,29.57.44,9.27,5.3,19.42,7.5,25.6.88,3.09,1.32,6.18,3.53,6.62,4.41.88,19-4.85,23.39-7.06,8.83-4.85,15.45-12.36,23-17.65a42.82,42.82,0,0,1,.44-7.5,35.64,35.64,0,0,0-16.33-4c4.41-2.21,11-2.21,15-4.85v-3.09C251.19,439.75,248.54,436.66,243.68,434Zm-76.8-14.12c-6.62,6.62,18.54,15.89,26.92,16.33,0-4.41,2.65-8.39,1.77-11.48C185.87,423.42,173.51,424.74,166.89,419.89ZM249,423c0,.44-.88.44-.88.88,8.39,6.62,15,7.94,26.48,7.5,5.3-4,9.71-8.39,15.45-11.92C277.23,420.77,261.34,428.71,249,423Zm75.47,23c-.44-7.5-2.21-23-7.06-25.6-9.71-5.74-26.92,11.48-34.43,14.12.88,2.21,2.21,4,2.21,7.06,4.41-.88,9.71-.44,13.24,1.32-4.41.44-9.27.44-11.92,2.65-.88,3.09.44,7.06-.44,11.48,10.15,3.09,22.07,4.41,35.31,4.85C323.57,458.72,324.45,452.1,324.45,445.93ZM293.56,613.2c7.94-1.32,13.68-2.21,21.19-3.53-2.65-20.3-2.21-43.25-7.06-60.91-6.18,0-54.93,3.36-54.93,3.36-53.44,1.77-109.26,3.26-116.76,2.38,0-8.83,11.48-4,12.36-10.15.88-4.41-6.18-4.85-4-11.92,5.74,2.21,8.83,6.62,15,8.39,5.74-12.36,0-34.43.88-45,0-1.77.88-10.59,5.3-9.27,4,1.32-.44,23.39,0,33.54.44,9.27-.88,17.65,2.65,23.39,30.45-4,61.79-7.06,94.89-7.94-7.5-3.09-15.89-6.18-25.6-11.48-5.3-3.09-21.19-8.83-23-13.68-2.21-7.94,6.18-11.92,7.5-18.54-15.45,8.39-18.54-7.94-22.07-19.86a141.63,141.63,0,0,1-6.18-24.72c-12.36-6.18-26.48-12.36-38-20.74h0c-2.21-1.32-16.33-19.86-18.1-19-25.6,10.15-49.43,27.36-71.06,44.14,20.3,43.69,28.69,97.54,30,149.18,23.39,11,45.46,19.18,77.24,20.94Zm17.21-203.47C332,399.58,335.93,448.57,327.54,464c1.32,4.85,5.74,6.62,7.5,10.59-11.92,21.19-25.16,41-37.07,62.23,8.83-5.74,22.07-.88,32.66-5.3,4-1.32,6.62-10.59,9.71-17.65,7.94-19.42,16.77-44.14,20.3-63.11.88-4.41,3.09-13.68,2.65-17.21-.88-6.62-10.15-11.92-15-15.89-8.83-7.94-14.12-14.56-23-21.63-4,5.74-11.48,9.27-14.56,13.68ZM106.86,220.39c-10.15,11-7.94,32.22-6.62,47.23,18.54-11.48,42.81.88,42.37,20.74,8.83-.44,3.09-11,1.77-17.65-5.3-22.51,8.83-47.23.44-67.53a52.91,52.91,0,0,0-38,17.21Zm72.82-64.88c-23,6.62-52.52,23.39-61.79,44.14,7.5-.88,12.36-4.85,19.42-5.3,2.65,0,6.18,1.32,9.27.44,6.18-1.77,11.48-15.45,16.33-20.74,4.41-5.3,10.15-7.06,14.12-11.92,2.65-1.32,6.18-.88,6.18-4.85C181.89,156,181,155.07,179.69,155.51Zm119.61,6.18c-23.83-13.68-64.44-23.83-89.6-11-20.3,10.15-48.11,26.92-57.82,48.55,8.83,20.74-2.65,39.72-3.53,60.47-.44,11,5.3,20.74,5.74,33.1-3.09,4.85-12.36,5.74-18.54,5.3-2.21-10.59-5.74-23-17.21-24.27C102.45,272,91,285.27,90.53,298.51c-.88,15.89,12.36,42.37,30.89,40.6,7.06-.88,8.83-7.94,16.77-7.94,4.41,8.39-6.62,11-7.5,17.21-.44,1.77.88,7.5,1.77,10.59,3.53,14.12,11,31.78,18.1,42.37,9.27,13.24,27.81,15.45,47.67,16.77,3.53-7.5,16.77-7.06,25.16-4.85-10.15-4-19.86-13.68-27.36-22.51-8.83-10.15-18.1-20.74-18.54-33.54,17.21,23.83,31.34,44.14,62.23,54.73,23.39,7.94,50.76-3.53,68.85-16.33,7.5-5.3,11.92-13.68,17.21-21.19,19.86-28.69,29.13-69.29,26.92-109-.88-16.33-.88-32.66-6.18-43.69-1.28-22.35-33.54-52.52-47.23-60Zm44.58,368.09c18.54-9.27,53.4-25.16,65.32,0,4.41,9.27,9.27,24.72,11.48,34.43,3.09,13.24-3.53,41.49-17.21,46.34-12.36,4-26.48,3.53-41,.88-1.77-1.32-3.53-4-4.85-6.62-10.59-.44-20.3.44-28.69,4.85.88,7.94-103,19.61-129.7,21.26-25.69,1.58-74.21-1-93.63-9.78C98.92,618.05,89.65,616.29,87,611s-1.32-15-2.21-24.27c-1.32-23.83-2.65-47.23-9.27-71.5-2.65-11-7.94-20.74-11-31.34-3.09-9.71-8.83-22.07-10.15-31.78-2.21-14.56,11.48-15.45,20.3-21.63,13.68-9.71,24.27-15,38.84-23.83,4.41-2.65,17.21-9.27,19-12.36,3.09-6.18-5.3-14.56-7.06-19.42-3.53-7.5-5.3-13.68-5.74-21.19C107.31,351.92,98,344.41,92.3,336c-9.27-13.68-15.89-38.84-7.5-58.26.44-1.32,4-4.41,4.41-6.62.88-4.41-1.77-10.59-1.77-15.45-.88-25.16,4.41-46.34,21.19-53.85,6.62-27.36,31.34-36.19,54.29-49.87,8.39-4.85,18.1-8.39,27.81-11.92C226,127.27,279.88,129.47,309,151.54c12.36,9.27,32.22,29.13,39.28,43.25,18.54,37.52,17.21,100.63,4.41,146.53-1.77,6.18-4.41,15-7.94,22.51-2.65,5.3-10.15,15.45-9.27,19.86.88,4.85,17.65,17.21,21.19,20.74,6.62,6.18,18.54,14.56,19.42,22.07.88,8.39-3.53,19.86-6.18,27.81-9.27,27.36-16.77,51.64-26,75.47"/><path id="path132" class="cls-11" d="M218.06,345c.88-1.32,6.62-3.53,14.56.44,0,0-9.27,1.32-8.39,16.77l-4-.88c0,.44-4-13.68-2.21-16.33"/><path id="path134" d="M285.58,477.42a4.41,4.41,0,1,1-4.41-4.41c2.65.44,4.41,2.21,4.41,4.41"/><path id="path136" d="M289.55,497.29a4.41,4.41,0,1,1-4.41-4.41,4.17,4.17,0,0,1,4.41,4.41"/><path class="cls-17" d="M241.68,288.19c-1.22,14-8.63,24.49-22.66,24.49s-22.66-13.2-22.66-27.23S205,257.29,219,257.29,243.4,268.37,241.68,288.19Z"/><path class="cls-18" d="M234.32,285.43c0,10-5.33,19.88-15.3,19.88s-16.21-9.91-16.21-19.88,6.25-21.71,16.21-21.71S234.32,275.46,234.32,285.43Z"/><ellipse class="cls-1" cx="208.85" cy="275.15" rx="9.15" ry="6.47" transform="translate(-133.86 318.44) rotate(-60)"/><path class="cls-17" d="M345.64,274.61v.27a48.39,48.39,0,0,1-5.13,23.85c-3,6-9.12,16.83-17.22,11.73-6-3.78-7.7-12.44-8.19-19a40.77,40.77,0,0,1,5.23-23.24,22.2,22.2,0,0,1,6.37-7.39,11.78,11.78,0,0,1,9.33-2,11.93,11.93,0,0,1,7.4,6.34A23.44,23.44,0,0,1,345.64,274.61Z"/><path class="cls-18" d="M338,283.8a32.94,32.94,0,0,1-5.21,16.45,11.07,11.07,0,0,1-5.42,4.47,6.73,6.73,0,0,1-6.69-1.21c-2.37-2.25-2.65-6.31-3-9.37a54,54,0,0,1,0-12.09,22.05,22.05,0,0,1,3-9.64c1.87-2.84,5-5,8.37-5.11,6.39-.13,8.28,6.65,8.78,11.79A32.87,32.87,0,0,1,338,283.8Z"/><path class="cls-1" d="M327.36,275.86c-1.88,3.35-4.76,4.73-6.43,3.09s-1.5-5.67.39-9,4.76-4.73,6.43-3.09S329.25,272.52,327.36,275.86Z"/><path class="cls-1" d="M191.35,312.65s19.26-.06,25.68.47c7.72.64,7.69.74,25.68,3.76"/><path class="cls-13" d="M191.35,312.65a106.56,106.56,0,0,1,12.93-1.37,110.36,110.36,0,0,1,13,0c2.15.18,4.32.39,6.49.74s4.29.79,6.4,1.27a117.46,117.46,0,0,1,12.5,3.56,120.2,120.2,0,0,1-13-.72l-6.37-.67c-2.1-.21-4.21-.36-6.35-.53-4.16-.31-8.5-.47-12.77-.81S195.65,313.41,191.35,312.65Z"/><line class="cls-1" x1="346.7" y1="302.85" x2="322.53" y2="315.94"/><path class="cls-13" d="M346.79,303c-1.88,1.35-3.8,2.61-5.7,3.92s-3.84,2.53-5.78,3.75-3.73,2.74-5.87,3.59a26.06,26.06,0,0,1-3.28,1.16,16.93,16.93,0,0,1-3.55.66.2.2,0,0,1-.17-.32,16.93,16.93,0,0,1,2.5-2.61,26.06,26.06,0,0,1,2.76-2.11c1.89-1.33,4.13-2,6.22-2.95s4.19-1.89,6.31-2.79,4.24-1.79,6.39-2.63a.18.18,0,0,1,.17.32Z"/><path class="cls-19" d="M185.34,264.83c-1.84-6.33-1.35-12.66,5.49-19.59s16.75-9.57,26.21-10.81c-7-6.2-17.94-10.73-27.42-10.69,28.22-7,75,16.83,88,45.25-5.05-3.74-11.48-7.3-17.59-8.37,4.68,10.64,7.94,21,3.3,32.56a50.61,50.61,0,0,0-14.88-32.85c-10-9.79-25.5-15.91-39.7-13.46C193.5,249.5,187.5,259.5,185.34,264.83Z"/><path class="cls-18" d="M307.18,271.67c4.4-12.87,21.29-33.69,37.06-31.68,21.2,2.7,15.58,31.79,9.15,44.22-.71-10.35,1.58-29.36-11.45-33.4C330.68,247.33,315.59,264.9,307.18,271.67Z"/><path class="cls-20" d="M285,320.81c25.37-8.76,25.57-2.93,11.84,18.32"/><path class="cls-21" d="M335.05,150.07c9.82-7.27,24.19-18.14,36.95-18.62,17.8-.68,17.26,9.45,15.83,24-3.27,32.94-30.8,43.2-59.08,51.77Z"/><path class="cls-22" d="M341.2,177.74c-4.74-25.18-10.16-50.18-14.51-75.38-2.64-15.27-3.58-30.56-5.76-45.88-1.81-12.7-6.86-26.07-17.9-32.61-6.4-3.79-14-4.81-21.47-5.15-30.25-1.37-62,5.53-91.33,12.56C160.43,38.44,91.5,66.5,83.5,73.5c-2,1.76,30.9,36.61,24,58-10,31,.65,46.75,7,53,8.75,8.61,10.8,3.21,22.47,6,37.23,9,67.7,12.84,106,14.42,25.21,1,51.62,4.53,76.81,3.18,4-.21,10,1.64,12.66-.55C337.45,203.52,339.34,184.07,341.2,177.74Z"/><path class="cls-23" d="M329.5,118.5s-64,34-225,27c-5,16-14.69,46.48-4.52,59.73,7.19,9.36,0,5,10.34,7.42,8.72,2.07,22-1.49,31.14-2.35,30.39-2.88,61.05-11.81,90.57-19.57,30-7.89,58.54-10,89.3-13.53,19.89-2.28,18.78-3.39,16.6-24.49C337.5,148.5,329.5,118.5,329.5,118.5Z"/><path class="cls-15" d="M333.76,150.84S298,207,104.19,168.19c4.86,4.13,1.74,38,9.53,41.2,5.5,2.23-.57,1.62,8.62,1.23,7.75-.33,20.32-3,28.78-4.35C179.26,201.84,255,203,301.57,190.79c18.1-4.75,36.12-15.53,35-21.9C335.81,164.46,333.76,150.84,333.76,150.84Z"/><path class="cls-24" d="M351.54,140.17c29.15-22.78,56.79,2.19,45.17,35-13.26,37.47-69.38,44.93-102.53,46-77.94,2.5-188.8-37.9-207.23,71-50.62-28.92-75.15-93.14-15.48-126.58,42.23-23.67,89.06,5,130,16.66,38.92,11.09,98,28.34,137.79,12.76C366.53,184.4,400.95,119,351.54,140.17Z"/><path class="cls-25" d="M378.21,136c6.16,5.46,5.52,15.28,3,23.11a71.48,71.48,0,0,1-30.49,38.67c-23.46,14.31-53,13.8-80.15,9.55-34.23-5.36-67.44-15.88-100.06-27.57-15.1-5.41-30.24-11.12-46.12-13.45-28-4.11-63.88,6.27-76.21,34.31-13.94,31.72,13.68,64.75,35.27,84.88C39.38,254.25,13.79,202.4,73.46,169c42.23-23.67,90,5.91,130.92,17.58,38.92,11.09,99.09,30.06,137.79,11.84C360.53,189.73,388.5,158.22,378.21,136Z"/><circle class="cls-26" cx="545.09" cy="221.18" r="11.72"/><circle class="cls-27" cx="513.2" cy="219.89" r="11.72"/><circle class="cls-27" cx="441.67" cy="283.77" r="11.72"/><circle class="cls-27" cx="451.61" cy="237.55" r="11.72"/><circle class="cls-28" cx="472.89" cy="288.13" r="11.72"/><circle class="cls-27" cx="471.06" cy="397.76" r="11.72"/><circle class="cls-29" cx="497.09" cy="360.31" r="11.72"/><circle class="cls-26" cx="480.78" cy="225.83" r="11.72"/><circle class="cls-28" cx="427.14" cy="341.4" r="11.72"/><circle class="cls-27" cx="405.07" cy="318.02" r="11.72"/><circle class="cls-28" cx="405.77" cy="285.47" r="11.72"/><circle class="cls-26" cx="425.08" cy="256.93" r="11.72"/><circle class="cls-26" cx="532.34" cy="362.79" r="11.72"/><circle class="cls-27" cx="459.34" cy="353.84" r="11.72"/><circle class="cls-26" cx="482.78" cy="332.02" r="11.72"/><circle class="cls-28" cx="504.22" cy="400.33" r="11.72"/><circle class="cls-27" cx="515.94" cy="320.3" r="11.72"/><circle class="cls-28" cx="550.56" cy="319.63" r="11.72"/><circle class="cls-27" cx="412.31" cy="191.52" r="11.72"/><circle class="cls-26" cx="441.75" cy="169.3" r="11.72"/><circle class="cls-27" cx="473.8" cy="150.62" r="11.72"/><circle class="cls-28" cx="393.42" cy="249.77" r="11.72"/><circle class="cls-28" cx="571.28" cy="237.89" r="11.72"/><circle class="cls-28" cx="533.92" cy="278.73" r="11.72"/><circle class="cls-27" cx="504.22" cy="286.77" r="11.72"/><circle class="cls-26" cx="564.56" cy="266.62" r="11.72"/><circle class="cls-26" cx="392.05" cy="217.73" r="11.72"/><circle class="cls-27" cx="562.73" cy="347.36" r="11.72" transform="translate(93.33 813.18) rotate(-76.47)"/><circle class="cls-26" cx="443.76" cy="380" r="11.72"/><path id="path110" d="M340.23,334.87c-7.33,13.74-17.41,28.86-38.94,29.32-.46-4.58-.92-11.45,0-13.74,16.49-1.83,26.57-10.08,38.94-15.58"/><path id="path112" d="M238.06,343.57c13.74,7.33,38.48,7.79,57.27,7.33.92,4.12.92,9.16.92,14.2-23.82.92-51.77-4.58-58.18-21.53"/><path class="cls-30" d="M472,143a6.49,6.49,0,0,1,4.56-.56,7.39,7.39,0,0,1,4.13,2.61,7.51,7.51,0,0,1,1.61,4.58A7.6,7.6,0,0,1,481,154c-.36-1.5-.61-2.82-1-4a10.2,10.2,0,0,0-1.63-3.09,9.6,9.6,0,0,0-2.61-2.27A18.5,18.5,0,0,0,472,143Z"/><path class="cls-30" d="M411,184a6.49,6.49,0,0,1,4.56-.56,7.39,7.39,0,0,1,4.13,2.61,7.51,7.51,0,0,1,1.61,4.58A7.6,7.6,0,0,1,420,195c-.36-1.5-.61-2.82-1-4a10.2,10.2,0,0,0-1.63-3.09,9.6,9.6,0,0,0-2.61-2.27A18.5,18.5,0,0,0,411,184Z"/><path class="cls-30" d="M450,230a6.49,6.49,0,0,1,4.56-.56,7.39,7.39,0,0,1,4.13,2.61,7.51,7.51,0,0,1,1.61,4.58A7.6,7.6,0,0,1,459,241c-.36-1.5-.61-2.82-1-4a10.2,10.2,0,0,0-1.63-3.09,9.6,9.6,0,0,0-2.61-2.27A18.5,18.5,0,0,0,450,230Z"/><path class="cls-30" d="M511,212a6.49,6.49,0,0,1,4.56-.56,7.39,7.39,0,0,1,4.13,2.61,7.51,7.51,0,0,1,1.61,4.58A7.6,7.6,0,0,1,520,223c-.36-1.5-.61-2.82-1-4a10.2,10.2,0,0,0-1.63-3.09,9.6,9.6,0,0,0-2.61-2.27A18.5,18.5,0,0,0,511,212Z"/><path class="cls-30" d="M440,276a6.49,6.49,0,0,1,4.56-.56,7.39,7.39,0,0,1,4.13,2.61,7.51,7.51,0,0,1,1.61,4.58A7.6,7.6,0,0,1,449,287c-.36-1.5-.61-2.82-1-4a10.2,10.2,0,0,0-1.63-3.09,9.6,9.6,0,0,0-2.61-2.27A18.5,18.5,0,0,0,440,276Z"/><path class="cls-30" d="M502,279a6.49,6.49,0,0,1,4.56-.56,7.39,7.39,0,0,1,4.13,2.61,7.51,7.51,0,0,1,1.61,4.58A7.6,7.6,0,0,1,511,290c-.36-1.5-.61-2.82-1-4a10.2,10.2,0,0,0-1.63-3.09,9.6,9.6,0,0,0-2.61-2.27A18.5,18.5,0,0,0,502,279Z"/><path class="cls-30" d="M514,313a6.49,6.49,0,0,1,4.56-.56,7.39,7.39,0,0,1,4.13,2.61,7.51,7.51,0,0,1,1.61,4.58A7.6,7.6,0,0,1,523,324c-.36-1.5-.61-2.82-1-4a10.2,10.2,0,0,0-1.63-3.09,9.6,9.6,0,0,0-2.61-2.27A18.5,18.5,0,0,0,514,313Z"/><path class="cls-30" d="M561,340a6.49,6.49,0,0,1,4.56-.56,7.39,7.39,0,0,1,4.13,2.61,7.51,7.51,0,0,1,1.61,4.58A7.6,7.6,0,0,1,570,351c-.36-1.5-.61-2.82-1-4a10.2,10.2,0,0,0-1.63-3.09,9.6,9.6,0,0,0-2.61-2.27A18.5,18.5,0,0,0,561,340Z"/><path class="cls-30" d="M495,352a6.49,6.49,0,0,1,4.56-.56,7.39,7.39,0,0,1,4.13,2.61,7.51,7.51,0,0,1,1.61,4.58A7.6,7.6,0,0,1,504,363c-.36-1.5-.61-2.82-1-4a10.2,10.2,0,0,0-1.63-3.09,9.6,9.6,0,0,0-2.61-2.27A18.5,18.5,0,0,0,495,352Z"/><path class="cls-30" d="M458,346a6.49,6.49,0,0,1,4.56-.56,7.39,7.39,0,0,1,4.13,2.61,7.51,7.51,0,0,1,1.61,4.58A7.6,7.6,0,0,1,467,357c-.36-1.5-.61-2.82-1-4a10.2,10.2,0,0,0-1.63-3.09,9.6,9.6,0,0,0-2.61-2.27A18.5,18.5,0,0,0,458,346Z"/><path class="cls-30" d="M403,310a6.49,6.49,0,0,1,4.56-.56,7.39,7.39,0,0,1,4.13,2.61,7.51,7.51,0,0,1,1.61,4.58A7.6,7.6,0,0,1,412,321c-.36-1.5-.61-2.82-1-4a10.2,10.2,0,0,0-1.63-3.09,9.6,9.6,0,0,0-2.61-2.27A18.5,18.5,0,0,0,403,310Z"/><path class="cls-30" d="M469,390a6.49,6.49,0,0,1,4.56-.56,7.39,7.39,0,0,1,4.13,2.61,7.51,7.51,0,0,1,1.61,4.58A7.6,7.6,0,0,1,478,401c-.36-1.5-.61-2.82-1-4a10.2,10.2,0,0,0-1.63-3.09,9.6,9.6,0,0,0-2.61-2.27A18.5,18.5,0,0,0,469,390Z"/><path class="cls-31" d="M440,162a6.49,6.49,0,0,1,4.56-.56,7.39,7.39,0,0,1,4.13,2.61,7.51,7.51,0,0,1,1.61,4.58A7.6,7.6,0,0,1,449,173c-.36-1.5-.61-2.82-1-4a10.2,10.2,0,0,0-1.63-3.09,9.6,9.6,0,0,0-2.61-2.27A18.5,18.5,0,0,0,440,162Z"/><path class="cls-31" d="M479,218a6.49,6.49,0,0,1,4.56-.56,7.39,7.39,0,0,1,4.13,2.61,7.51,7.51,0,0,1,1.61,4.58A7.6,7.6,0,0,1,488,229c-.36-1.5-.61-2.82-1-4a10.2,10.2,0,0,0-1.63-3.09,9.6,9.6,0,0,0-2.61-2.27A18.5,18.5,0,0,0,479,218Z"/><path class="cls-31" d="M390,210a6.49,6.49,0,0,1,4.56-.56,7.39,7.39,0,0,1,4.13,2.61,7.51,7.51,0,0,1,1.61,4.58A7.6,7.6,0,0,1,399,221c-.36-1.5-.61-2.82-1-4a10.2,10.2,0,0,0-1.63-3.09,9.6,9.6,0,0,0-2.61-2.27A18.5,18.5,0,0,0,390,210Z"/><path class="cls-31" d="M423,249a6.49,6.49,0,0,1,4.56-.56,7.39,7.39,0,0,1,4.13,2.61,7.51,7.51,0,0,1,1.61,4.58A7.6,7.6,0,0,1,432,260c-.36-1.5-.61-2.82-1-4a10.2,10.2,0,0,0-1.63-3.09,9.6,9.6,0,0,0-2.61-2.27A18.5,18.5,0,0,0,423,249Z"/><path class="cls-31" d="M544,214a6.49,6.49,0,0,1,4.56-.56,7.39,7.39,0,0,1,4.13,2.61,7.51,7.51,0,0,1,1.61,4.58A7.6,7.6,0,0,1,553,225c-.36-1.5-.61-2.82-1-4a10.2,10.2,0,0,0-1.63-3.09,9.6,9.6,0,0,0-2.61-2.27A18.5,18.5,0,0,0,544,214Z"/><path class="cls-31" d="M563,259a6.49,6.49,0,0,1,4.56-.56,7.39,7.39,0,0,1,4.13,2.61,7.51,7.51,0,0,1,1.61,4.58A7.6,7.6,0,0,1,572,270c-.36-1.5-.61-2.82-1-4a10.2,10.2,0,0,0-1.63-3.09,9.6,9.6,0,0,0-2.61-2.27A18.5,18.5,0,0,0,563,259Z"/><path class="cls-31" d="M481,324a6.49,6.49,0,0,1,4.56-.56,7.39,7.39,0,0,1,4.13,2.61,7.51,7.51,0,0,1,1.61,4.58A7.6,7.6,0,0,1,490,335c-.36-1.5-.61-2.82-1-4a10.2,10.2,0,0,0-1.63-3.09,9.6,9.6,0,0,0-2.61-2.27A18.5,18.5,0,0,0,481,324Z"/><path class="cls-31" d="M531,355a6.49,6.49,0,0,1,4.56-.56,7.39,7.39,0,0,1,4.13,2.61,7.51,7.51,0,0,1,1.61,4.58A7.6,7.6,0,0,1,540,366c-.36-1.5-.61-2.82-1-4a10.2,10.2,0,0,0-1.63-3.09,9.6,9.6,0,0,0-2.61-2.27A18.5,18.5,0,0,0,531,355Z"/><path class="cls-31" d="M442,372a6.49,6.49,0,0,1,4.56-.56,7.39,7.39,0,0,1,4.13,2.61,7.51,7.51,0,0,1,1.61,4.58A7.6,7.6,0,0,1,451,383c-.36-1.5-.61-2.82-1-4a10.2,10.2,0,0,0-1.63-3.09,9.6,9.6,0,0,0-2.61-2.27A18.5,18.5,0,0,0,442,372Z"/><path class="cls-32" d="M391,242a6.49,6.49,0,0,1,4.56-.56,7.39,7.39,0,0,1,4.13,2.61,7.51,7.51,0,0,1,1.61,4.58A7.6,7.6,0,0,1,400,253c-.36-1.5-.61-2.82-1-4a10.2,10.2,0,0,0-1.63-3.09,9.6,9.6,0,0,0-2.61-2.27A18.5,18.5,0,0,0,391,242Z"/><path class="cls-32" d="M404,278a6.49,6.49,0,0,1,4.56-.56,7.39,7.39,0,0,1,4.13,2.61,7.51,7.51,0,0,1,1.61,4.58A7.6,7.6,0,0,1,413,289c-.36-1.5-.61-2.82-1-4a10.2,10.2,0,0,0-1.63-3.09,9.6,9.6,0,0,0-2.61-2.27A18.5,18.5,0,0,0,404,278Z"/><path class="cls-32" d="M471,280a6.49,6.49,0,0,1,4.56-.56,7.39,7.39,0,0,1,4.13,2.61,7.51,7.51,0,0,1,1.61,4.58A7.6,7.6,0,0,1,480,291c-.36-1.5-.61-2.82-1-4a10.2,10.2,0,0,0-1.63-3.09,9.6,9.6,0,0,0-2.61-2.27A18.5,18.5,0,0,0,471,280Z"/><path class="cls-32" d="M425,334a6.49,6.49,0,0,1,4.56-.56,7.39,7.39,0,0,1,4.13,2.61,7.51,7.51,0,0,1,1.61,4.58A7.6,7.6,0,0,1,434,345c-.36-1.5-.61-2.82-1-4a10.2,10.2,0,0,0-1.63-3.09,9.6,9.6,0,0,0-2.61-2.27A18.5,18.5,0,0,0,425,334Z"/><path class="cls-32" d="M532,271a6.49,6.49,0,0,1,4.56-.56,7.39,7.39,0,0,1,4.13,2.61,7.51,7.51,0,0,1,1.61,4.58A7.6,7.6,0,0,1,541,282c-.36-1.5-.61-2.82-1-4a10.2,10.2,0,0,0-1.63-3.09,9.6,9.6,0,0,0-2.61-2.27A18.5,18.5,0,0,0,532,271Z"/><path class="cls-32" d="M569,230a6.49,6.49,0,0,1,4.56-.56,7.39,7.39,0,0,1,4.13,2.61,7.51,7.51,0,0,1,1.61,4.58A7.6,7.6,0,0,1,578,241c-.36-1.5-.61-2.82-1-4a10.2,10.2,0,0,0-1.63-3.09,9.6,9.6,0,0,0-2.61-2.27A18.5,18.5,0,0,0,569,230Z"/><path class="cls-32" d="M549,312a6.49,6.49,0,0,1,4.56-.56,7.39,7.39,0,0,1,4.13,2.61,7.51,7.51,0,0,1,1.61,4.58A7.6,7.6,0,0,1,558,323c-.36-1.5-.61-2.82-1-4a10.2,10.2,0,0,0-1.63-3.09,9.6,9.6,0,0,0-2.61-2.27A18.5,18.5,0,0,0,549,312Z"/><path class="cls-32" d="M502,393a6.49,6.49,0,0,1,4.56-.56,7.39,7.39,0,0,1,4.13,2.61,7.51,7.51,0,0,1,1.61,4.58A7.6,7.6,0,0,1,511,404c-.36-1.5-.61-2.82-1-4a10.2,10.2,0,0,0-1.63-3.09,9.6,9.6,0,0,0-2.61-2.27A18.5,18.5,0,0,0,502,393Z"/></svg>