<?xml version="1.0" encoding="UTF-8" standalone="no"?><svg
        id="svg4136"
        version="1.1"
        inkscape:version="1.3.1 (9b9bdc1480, 2023-11-25, custom)"
        xml:space="preserve"
        width="542.04126"
        height="129.17876"
        viewBox="0 0 542.04126 129.17876"
        sodipodi:docname="yk_logo.svg" xmlns:inkscape="http://www.inkscape.org/namespaces/inkscape" xmlns:sodipodi="http://sodipodi.sourceforge.net/DTD/sodipodi-0.dtd" xmlns="http://www.w3.org/2000/svg" xmlns:svg="http://www.w3.org/2000/svg" xmlns:rdf="http://www.w3.org/1999/02/22-rdf-syntax-ns#" xmlns:cc="http://creativecommons.org/ns#" xmlns:dc="http://purl.org/dc/elements/1.1/"><metadata
     id="metadata4142"><rdf:RDF><cc:Work
         rdf:about=""><dc:format>image/svg+xml</dc:format><dc:type
        rdf:resource="http://purl.org/dc/dcmitype/StillImage" /></cc:Work></rdf:RDF></metadata><defs
        id="defs4140" /><sodipodi:namedview
        pagecolor="#ffffff"
        bordercolor="#666666"
        borderopacity="1"
        objecttolerance="10"
        gridtolerance="10"
        guidetolerance="10"
        inkscape:pageopacity="0"
        inkscape:pageshadow="2"
        inkscape:window-width="1850"
        inkscape:window-height="1016"
        id="namedview4138"
        showgrid="false"
        inkscape:zoom="0.54291411"
        inkscape:cx="152.87869"
        inkscape:cy="114.19854"
        inkscape:window-x="0"
        inkscape:window-y="0"
        inkscape:window-maximized="1"
        inkscape:current-layer="g4144"
        inkscape:showpageshadow="2"
        inkscape:pagecheckerboard="0"
        inkscape:deskcolor="#d1d1d1" /><g
        id="g4144"
        inkscape:groupmode="layer"
        inkscape:label="yk_logo"
        transform="matrix(1.25,0,0,-1.25,-125.36125,590.77)"><g
       id="g4146"><path
         d="m 139.777,471.788 -30.761,-22.351 4.589,-5.321 c 0.004,0 9.762,-10.898 13.473,-15.047 -3.555,-0.765 -19.937,-4.312 -19.937,-4.312 l -6.852,-1.602 12.184,-37.507 6.48,2.726 c 0,0 13.508,5.981 18.621,8.235 -0.375,-3.633 -2.086,-20.321 -2.086,-20.321 l -0.586,-7.015 h 39.43 l -0.586,7 c 0,0.007 -1.512,14.761 -2.086,20.336 3.336,-1.477 18.637,-8.239 18.637,-8.239 l 6.465,-2.715 12.183,37.493 -6.84,1.609 c -0.003,0 -14.492,3.117 -19.968,4.297 2.429,2.711 13.48,15.055 13.48,15.055 l 4.598,5.328 -31.895,23.179 -3.648,-6.015 c -0.012,-0.024 -7.277,-12.524 -10.055,-17.305 -1.824,3.141 -10.058,17.305 -10.058,17.305 l -3.641,6.015 z"
         style="fill:#0a0a0a;fill-opacity:1;fill-rule:nonzero;stroke:none"
         id="path4148"
         inkscape:connector-curvature="0" /><path
        d="m 198.383,421.796 c 0,0 -16.449,3.859 -31.164,6.469 10.328,10.726 21.265,23.398 21.265,23.398 l -20.523,14.922 c 0,0 -8.598,-14.187 -15.59,-27.273 -6.988,13.086 -15.586,27.273 -15.586,27.273 l -20.531,-14.922 c 0,0 10.941,-12.672 21.273,-23.398 2.399,-2.387 7.231,-7.336 7.231,-7.336 0,0 -1.024,-5.524 -1.594,-10.211 -2.066,-14.797 -3.48,-31.656 -3.48,-31.656 h 25.379 c 0,0 -1.418,16.859 -3.485,31.656 13.418,-6.531 28.965,-13.063 28.965,-13.063 z"
        style="fill:#ff5e00;fill-opacity:1;fill-rule:nonzero;stroke:none"
        id="path4150"
        inkscape:connector-curvature="0" /><path
        d="m 140.379,409.382 c 0.074,0.547 0.144,1.109 0.223,1.648 0,0 1.082,6.954 1.406,9.008 -1.918,1.946 -6.317,6.399 -6.34,6.43 -0.395,0.406 -0.793,0.832 -1.188,1.234 -0.71,-0.133 -1.351,-0.238 -1.675,-0.304 -13.297,-2.516 -26.442,-5.598 -26.442,-5.598 l 7.84,-24.145 c 0,0 12.352,5.188 24.547,10.946 0.316,0.156 0.938,0.453 1.629,0.781"
        style="fill:#ffffff;fill-opacity:1;fill-rule:nonzero;stroke:none"
        id="path4152"
        inkscape:connector-curvature="0" /><path
        d="m 296.523,418.804 c -1.105,-2.531 -2.304,-9.106 -2.253,-12.426 0.054,-3.164 1.57,-3.887 2.718,-3.887 2.789,0 3.965,2.696 4.582,4.75 0.883,2.852 1.825,7.446 1.774,10.938 -0.016,1.183 -0.211,3.953 -2.86,3.953 -2.367,0 -3.472,-2.219 -3.961,-3.328 m 26.059,-2.453 c 0.199,-13.383 -9.859,-25.735 -27.066,-25.735 -17.911,0 -20.379,11.485 -20.465,17.024 -0.192,13.074 8.844,26.367 27.265,26.367 14.836,0 20.125,-8.867 20.266,-17.656"
        style="fill:#0a0a0a;fill-opacity:1;fill-rule:nonzero;stroke:none"
        id="path4154"
        inkscape:connector-curvature="0" /><path
        d="M 366.313,391.562 H 349.25 l 1.191,7.125 h -0.148 c -4.254,-7.524 -10.77,-8.067 -14.07,-8.067 -5.735,0 -10.504,2.688 -10.61,9.582 -0.019,1.344 0.11,2.614 0.301,3.953 l 4.938,28.907 h 18.054 l -4.074,-24 c -0.199,-1.024 -0.262,-1.977 -0.25,-3.008 0.012,-0.469 0.121,-2.617 2.418,-2.617 3.293,0 3.879,3.726 4.211,5.625 l 4.078,24 h 18.059 z"
        style="fill:#0a0a0a;fill-opacity:1;fill-rule:nonzero;stroke:none"
        id="path4156"
        inkscape:connector-curvature="0" /><path
        d="m 397.43,433.062 -1.649,-9.426 h 0.282 c 2.226,4.91 6.796,10.371 13.109,10.371 1.144,0 2.152,-0.234 2.863,-0.387 l -2.824,-16.636 c -0.867,0.242 -2.238,0.644 -3.953,0.644 -6.016,0 -10.098,-4.918 -11.149,-11.008 l -2.574,-15.058 H 373.48 l 7.032,41.5 z"
        style="fill:#0a0a0a;fill-opacity:1;fill-rule:nonzero;stroke:none"
        id="path4158"
        inkscape:connector-curvature="0" /><path
        d="m 257.32,425.21 h -0.297 l -4.191,25.664 h -20.926 l 12.254,-42.277 -2.898,-17.035 h 19.211 l 2.898,17.035 25.227,42.277 h -19.922 z"
        style="fill:#0a0a0a;fill-opacity:1;fill-rule:nonzero;stroke:none"
        id="path4160"
        inkscape:connector-curvature="0" /><path
        d="m 476.164,451.273 h -21.789 l -18.004,-24.571 h -0.293 l 4.461,24.571 H 421.43 l -10.188,-59.711 h 19.207 l 3.922,25 h 0.285 l 8.41,-25 H 466 l -13.516,30.941 z"
        style="fill:#0a0a0a;fill-opacity:1;fill-rule:nonzero;stroke:none"
        id="path4162"
        inkscape:connector-curvature="0" /><path
        d="m 498.277,451.273 -2.304,-13.852 h -18.055 l 2.293,13.852 z m -21.086,-18.211 h 18.063 l -7.043,-41.5 h -18.059 z"
        style="fill:#0a0a0a;fill-opacity:1;fill-rule:nonzero;stroke:none"
        id="path4164"
        inkscape:connector-curvature="0" /><path
        d="m 529.246,451.273 h -18.57 l -2.985,-18.211 h -6.378 l -2.043,-11.879 h 6.375 l -2.43,-14.41 c -0.332,-1.985 -0.516,-3.805 -0.485,-5.789 0.11,-7.446 5.817,-10.368 12.977,-10.368 5.238,0 9.094,1.266 11.375,2.141 l 2.035,11.953 c -1.996,-0.555 -3.215,-0.789 -4.215,-0.789 -1.933,0 -3.312,1.188 -3.347,3.563 -0.012,0.632 0.047,1.265 0.183,1.898 l 1.969,11.801 h 8.168 l 2.047,11.879 h -8.176 z"
        style="fill:#0a0a0a;fill-opacity:1;fill-rule:nonzero;stroke:none"
        id="path4166"
        inkscape:connector-curvature="0" /></g></g></svg>
