<svg xmlns:xlink="http://www.w3.org/1999/xlink" xmlns="http://www.w3.org/2000/svg" class="h-[33px] w-[180px] lg:h-[25.7px] lg:w-[140px] 2xl:h-[41.1px] 2xl:w-[224px]" width="224"  height="41" ><defs><symbol xmlns="http://www.w3.org/2000/svg" viewBox="0 0 131 23" id="logo">
  <defs>
    <linearGradient id="logo_a" x1="30.672%" x2="58.298%" y1="4.937%" y2="81.83%">
      <stop offset="0%" stop-color="#77CFFE"></stop>
      <stop offset="100%" stop-color="#289CE1"></stop>
    </linearGradient>
    <linearGradient id="logo_b" x1="32.375%" x2="66.888%" y1="10.504%" y2="58.447%">
      <stop offset="0%" stop-color="#289CE1"></stop>
      <stop offset="100%" stop-color="#006AB0"></stop>
    </linearGradient>
    <linearGradient id="logo_c" x1="0%" x2="100%" y1="50%" y2="50%">
      <stop offset="0%" stop-color="#006AB0" stop-opacity=".5"></stop>
      <stop offset="100%" stop-color="#006AB0" stop-opacity="0"></stop>
    </linearGradient>
  </defs>
  <g fill="none" fill-rule="evenodd">
    <path fill="url(&quot;#logo_a&quot;)" d="M13.141 9.491v3.33h3.19c1.76 0 3.186 1.395 3.186 3.116s-1.43 3.117-3.19 3.117c-1.759 0-3.187-1.41-3.187-3.132l.001-9.527c0-1.427-.49-2.867-1.372-3.971-.334-.387-.223-.379-.62-.052a.436.436 0 00-.028.025L9.285 4.194c-.308.301-.277.193-.062.53a3.06 3.06 0 01.507 1.671v9.542c0 3.562 2.957 6.444 6.598 6.444 3.64 0 6.594-2.882 6.594-6.444 0-3.561-2.954-6.446-6.594-6.446H13.14z" transform="translate(.508)"></path>
    <path fill="url(&quot;#logo_b&quot;)" d="M6.56 3.34c.702 0 1.316.18 1.842.54L10.8 1.519C9.607.506 8.194 0 6.56 0 2.943 0 0 2.9 0 6.463c0 3.564 2.943 6.463 6.56 6.463h2.32V9.587H6.56c-1.748 0-3.17-1.401-3.17-3.124S4.811 3.34 6.56 3.34z" transform="translate(.508)"></path>
    <path fill="url(&quot;#logo_c&quot;)" d="M13.135 9.515h3.357v3.332h-3.357z" transform="translate(.508)"></path>
    <path fill="#1E252C" fill-rule="nonzero" d="M129.058 14.66c.844 0 1.525.678 1.525 1.509 0 .83-.681 1.513-1.525 1.513a1.51 1.51 0 110-3.023zm0 .298c-.664 0-1.188.523-1.188 1.21 0 .688.524 1.216 1.188 1.216.665 0 1.188-.528 1.188-1.215 0-.688-.523-1.211-1.188-1.211zm.071.376c.324 0 .565.225.565.516a.51.51 0 01-.366.486l.374.643h-.361l-.349-.614h-.125v.614h-.315v-1.645h.577zm-.046.27h-.216v.491h.216c.187 0 .291-.09.291-.241 0-.16-.104-.25-.29-.25zm-16.669-7.79c3.317 0 4.837 2.554 4.837 5.347 0 .126-.006.264-.015.408l-.007.108-.015.22h-6.912c.278 1.267 1.167 1.93 2.427 1.93.92 0 1.593-.279 2.345-.953l.064-.059 1.613 1.415c-.927 1.14-2.261 1.838-4.059 1.838-2.953 0-5.144-2.035-5.187-5l-.001-.09v-.121c.04-2.774 2.049-5.044 4.91-5.044zm-11.153 0c3.317 0 4.837 2.554 4.837 5.347 0 .126-.006.264-.015.408l-.007.108-.015.22h-6.912c.278 1.267 1.167 1.93 2.427 1.93.92 0 1.593-.279 2.345-.953l.064-.059 1.613 1.415c-.927 1.14-2.261 1.838-4.059 1.838-2.953 0-5.144-2.035-5.188-5v-.211c.04-2.774 2.049-5.044 4.91-5.044zm-47.264 0c3.045 0 5.31 2.215 5.355 5.005V13.026c-.046 2.79-2.328 5.042-5.392 5.042-3.045 0-5.31-2.215-5.355-5.006V12.856c.046-2.791 2.328-5.043 5.392-5.043zM38.08 4.762c2.408 0 3.864.783 5.058 1.93l.057.054-1.816 2.077c-1-.9-2.02-1.452-3.317-1.452-2.165 0-3.73 1.765-3.761 3.94V11.48c.03 2.176 1.56 3.978 3.76 3.978 1.39 0 2.276-.517 3.22-1.34l.064-.054.126-.113 1.816 1.819c-1.334 1.415-2.816 2.297-5.318 2.297-3.779 0-6.596-2.864-6.651-6.505l-.001-.11v-.147c.055-3.607 2.82-6.543 6.763-6.543zm84.154 3.087c1.26 0 2.632.423 3.706 1.14l-1.074 1.93c-.982-.57-1.965-.92-2.687-.92-.686 0-1.038.294-1.038.68v.037c0 .551.945.809 2.02 1.176l.161.054.165.057c1.285.452 2.637 1.13 2.675 2.742v.106c0 2.187-1.648 3.18-3.798 3.18-1.39 0-2.946-.46-4.262-1.49l1.205-1.837c1.074.772 2.205 1.176 3.131 1.176.816 0 1.186-.294 1.186-.735v-.037c0-.595-.928-.8-1.996-1.12l-.268-.08-.108-.035c-1.285-.407-2.614-1.077-2.649-2.793v-.107c0-2.003 1.63-3.124 3.631-3.124zM81.635 4.432v13.416H78.82v-1.415c-.686.918-1.63 1.598-3.095 1.598-2.293 0-4.477-1.765-4.52-4.992l-.001-.098v-.135c.043-3.227 2.191-4.993 4.521-4.993 1.415 0 2.319.604 2.977 1.335l.04.045.078.09V4.433h2.816zm-18.12 3.565v5.495c0 1.323.63 2.003 1.705 2.003 1.057 0 1.737-.657 1.76-1.937V7.997h2.817v9.85H66.98v-1.396c-.648.827-1.482 1.58-2.91 1.58-2.107 0-3.345-1.366-3.371-3.584v-6.45h2.816zm26.612-3.014c1.482 0 2.65.404 3.39 1.14.575.57.872 1.26.89 2.104v.196c-.027 1.404-.794 2.193-1.704 2.698l.134.053c1.4.561 2.266 1.406 2.292 3.03l.001.078v.107c-.038 2.283-1.918 3.435-4.768 3.458h-6.258V4.984h6.023zm-42.803-.551v13.416h-2.817V4.432h2.817zm29.123 5.752c-1.298 0-2.398 1.037-2.427 2.653V13.007c.03 1.598 1.129 2.654 2.427 2.654s2.38-1.056 2.408-2.654V12.904c0-1.636-1.092-2.72-2.408-2.72zm-22.487.037c-1.59 0-2.55 1.199-2.575 2.625v.152c.027 1.428 1.076 2.663 2.612 2.663 1.59 0 2.55-1.199 2.575-2.626v-.151c-.027-1.428-1.076-2.663-2.612-2.663zm36.222 2.315h-3.298v2.83h3.391c1.238 0 1.994-.425 2.02-1.347v-.129c-.022-.838-.673-1.354-2.113-1.354zm22.232-2.48c-1.147 0-1.9.799-2.137 2.03l-.012.065h4.243c-.166-1.25-.908-2.096-2.094-2.096zm-11.153 0c-1.147 0-1.9.799-2.137 2.03l-.012.065h4.243c-.166-1.25-.908-2.096-2.094-2.096zm-11.56-2.592h-2.817v2.72h2.631c1.239 0 2.03-.39 2.057-1.312V8.787c0-.845-.667-1.323-1.871-1.323z"></path>
  </g>
</symbol></defs><use xlink:href="#logo"></use></svg>