<?xml version="1.0" encoding="UTF-8"?>
<svg id="Layer_2" data-name="Layer 2" xmlns="http://www.w3.org/2000/svg" viewBox="0 0 1235.39023 195">
  <defs>
    <style>
      .cls-1 {
        fill: #1a1a1a;
        stroke-width: 0px;
      }
    </style>
  </defs>
  <g id="Layer_1-2" data-name="Layer 1">
    <g>
      <g>
        <path class="cls-1" d="M109.09003,45c-1.52002-8.2998-4.91003-15.9502-9.72003-22.5C89.37,8.85986,73.21997,0,55,0,24.62,0,0,24.62012,0,55c0,18.21973,8.85999,34.37012,22.5,44.37012,9.09998,6.67969,20.34003,10.62988,32.5,10.62988h20v-25h-20c-16.57001,0-30-13.43018-30-30s13.42999-30,30-30c13.06,0,24.16998,8.33984,28.28003,20h25.81Z"/>
        <path class="cls-1" d="M172.5,95.62988c-9.09998-6.67969-20.34003-10.62988-32.5-10.62988h-20v25h20c16.57001,0,30,13.43018,30,30s-13.42999,30-30,30-30-13.43018-30-30v-46.1001h0v-38.8999h-25v46.1001h0v38.8999c0,12.16016,3.95001,23.3999,10.63,32.5,10,13.64014,26.15002,22.5,44.37,22.5,30.38,0,55-24.62012,55-55,0-18.22021-8.85999-34.37012-22.5-44.37012Z"/>
      </g>
      <g>
        <path class="cls-1" d="M1022.11072,117.31738c0-11.09277-2.11719-20.91309-6.34961-29.45215-4.23633-8.54102-10.25781-15.21973-18.06641-20.03711-7.81152-4.81738-16.89844-7.22656-27.2627-7.22656-10.51172,0-19.78418,2.375-27.81152,7.11719-8.03027,4.74609-14.30859,11.42383-18.83203,20.03711-4.52588,8.61523-6.7876,18.6123-6.7876,30,0,11.38672,2.26172,21.42578,6.7876,30.10938,4.52344,8.6875,10.91113,15.40332,19.16113,20.14551,8.24609,4.74316,17.7002,7.11719,28.3584,7.11719,7.73633,0,14.89062-1.31348,21.45996-3.94238,6.56934-2.62695,12.15332-6.34961,16.75195-11.16797,4.59863-4.81641,7.97559-11.0918,9.72754-17.51758l-21.86523.00049c-1.96875,3.30664-4.6748,6.22705-8.11816,8.75928-4.96484,3.65039-10.94824,5.47363-17.95605,5.47363-9.49121,0-17.04688-2.95605-22.66504-8.86816-4.76819-5.01514-8.17126-11.45801-8.94812-22.86523h82.15015c.08984-1.50293.26575-5.72412.26575-7.68262ZM948.97107,87.75586c5.54688-5.54688,12.62695-8.32227,21.24219-8.32227,8.46484,0,15.32812,2.70312,20.58398,8.10254,4.50586,4.6333,7.82385,12.46387,8.56946,19.96387h-59.42432c.96936-7.5,4.29236-15.0083,9.02869-19.74414Z"/>
        <path class="cls-1" d="M1134.66145,117.31738c0-11.09277-2.11719-20.91309-6.34961-29.45215-4.23633-8.54102-10.25781-15.21973-18.06641-20.03711-7.81152-4.81738-16.89844-7.22656-27.2627-7.22656-10.51172,0-19.78418,2.375-27.81152,7.11719-8.03027,4.74609-14.30859,11.42383-18.83203,20.03711-4.52588,8.61523-6.7876,18.6123-6.7876,30,0,11.38672,2.26172,21.42578,6.7876,30.10938,4.52344,8.6875,10.91113,15.40332,19.16113,20.14551,8.24609,4.74316,17.7002,7.11719,28.3584,7.11719,7.73633,0,14.89062-1.31348,21.45996-3.94238,6.56934-2.62695,12.15332-6.34961,16.75195-11.16797,4.59863-4.81641,7.97559-11.0918,9.72754-17.51758l-21.86523.00049c-1.96875,3.30664-4.6748,6.22705-8.11816,8.75928-4.96484,3.65039-10.94824,5.47363-17.95605,5.47363-9.49121,0-17.04688-2.95605-22.66504-8.86816-4.76819-5.01514-8.17126-11.45801-8.94812-22.86523h82.15015c.08984-1.50293.26575-5.72412.26575-7.68262ZM1061.52181,87.75586c5.54688-5.54688,12.62695-8.32227,21.24219-8.32227,8.46484,0,15.32812,2.70312,20.58398,8.10254,4.50586,4.6333,7.82385,12.46387,8.56946,19.96387h-59.42432c.96936-7.5,4.29236-15.0083,9.02869-19.74414Z"/>
        <path class="cls-1" d="M900.94512,105.35999c-5.47998-6.42999-12.37012-10.46002-20.69995-12.09003v-1.53998c7.59009-2.58002,13.51001-6.71997,17.73999-12.40002,4.22998-5.67999,6.3501-12.32996,6.3501-19.94995,0-7.04004-1.86011-13.33002-5.58008-18.87-3.71997-5.53003-8.97998-9.89001-15.77002-13.05005-6.79004-3.15997-14.70996-4.81995-23.76001-4.95996h-64.1001v80h60.82007c8.8999,0,15.94995,2.19,21.12988,6.56,5.18018,4.38,7.77002,10.48999,7.77002,18.33002,0,7.68994-2.58984,13.79999-7.77002,18.31995-5.17993,4.53003-12.80981,6.79004-22.87988,6.79004h-36.57007v-40h-22.5v60h65.42017c9.48999,0,17.91992-1.85004,25.29004-5.54999,7.36987-3.70001,13.09985-8.76001,17.18994-15.20001,4.07983-6.44,6.12988-13.79999,6.12988-22.08002,0-9.77002-2.73999-17.87-8.20996-24.31ZM873.24517,76.87c-4.82007,3.75-11.54004,5.63-20.15015,5.63h-35.46997v-40h35.03003c8.91016,0,15.77002,1.67999,20.59009,5.02997,4.82007,3.35004,7.21997,8.17004,7.21997,14.47003,0,6.15997-2.3999,11.12-7.21997,14.87Z"/>
        <path class="cls-1" d="M1211.34284,92.49991c-1.67107-4.54584-4.45673-8.09796-8.36081-10.65714-4.23633-2.77148-9.41699-4.16113-15.54785-4.16113-6.13184,0-11.38672,1.31445-15.7666,3.94238s-6.56934,6.4248-6.56934,11.38672c0,4.08887,1.45801,7.19238,4.37988,9.30664,2.91797,2.11816,6.49414,3.46973,10.72949,4.05078l24.30664,3.50391h.43848c4.81738.73242,9.37793,1.93652,13.68555,3.61328,4.30469,1.67969,8.1748,4.56348,11.60645,8.64941,3.42773,4.08887,5.14551,9.71094,5.14551,16.86133,0,7.30176-2.0459,13.76172-6.13086,19.37988-4.08887,5.62207-9.71094,9.92871-16.86133,12.91895-7.15527,2.99121-15.18555,4.49023-24.08789,4.49023-9.34473,0-17.40918-1.49902-24.19727-4.49023-6.78809-2.99023-12.15332-6.89648-16.09473-11.71484-3.94141-4.81738-6.64206-11.36016-7.42817-17.07933l21.8652-.00051c1.36943,4.06958,4.07665,7.57212,8.11765,10.5105,4.81738,3.50391,11.02051,5.25586,18.61328,5.25586,7.29785,0,13.17285-1.67676,17.62793-5.03613,4.45117-3.35742,6.67871-7.58984,6.67871-12.70117,0-4.08594-1.31445-6.96973-3.94141-8.65039-2.62793-1.67578-6.35059-2.88086-11.16797-3.61328-.14746-.14258-.43848-.21875-.87598-.21875l-25.83984-3.72266c-8.90625-1.31348-15.8418-4.66992-20.80273-10.07227-4.96484-5.39941-7.44531-12.04395-7.44531-19.92773,0-6.85938,1.86133-12.88184,5.58398-18.06543,3.72266-5.18066,8.97754-9.19727,15.7666-12.04395,6.78809-2.84668,14.56152-4.26953,23.32129-4.26953,7.44531,0,14.26758,1.13281,20.47461,3.39355,6.20312,2.26465,11.38672,5.58398,15.54688,9.96387,4.16113,4.37891,8.11733,12.4126,9.09515,19.19666l-21.8652.00051Z"/>
        <path class="cls-1" d="M393.63545,22.5h22.5v150h-22.5V22.5Z"/>
        <path class="cls-1" d="M456.8918,167.68262c-8.39648-4.81738-14.96582-11.53027-19.70801-20.14551-4.74609-8.61328-7.11719-18.53906-7.11719-29.78125,0-11.09375,2.37109-20.98438,7.11719-29.67188,4.74219-8.68359,11.31152-15.43848,19.70801-20.25586,8.39307-4.81738,17.99023-7.22656,28.7959-7.22656,10.6543,0,20.14551,2.40918,28.4668,7.22656s14.85303,11.57227,19.59863,20.25586c4.74219,8.6875,7.11719,18.57812,7.11719,29.67188,0,11.0957-2.375,20.9873-7.11719,29.6709-4.74561,8.6875-11.27734,15.43848-19.59863,20.25586s-17.8125,7.22559-28.4668,7.22559c-10.80566,0-20.40283-2.4082-28.7959-7.22559ZM502.6584,151.04004c5.03613-3.06543,8.97803-7.44531,11.82471-13.13867s4.27002-12.33496,4.27002-19.92676c0-7.73633-1.42334-14.4873-4.27002-20.25586-2.84668-5.76562-6.78857-10.18262-11.82471-13.24805-5.03662-3.06641-10.76758-4.59863-17.18994-4.59863-6.27881,0-11.93408,1.53223-16.97119,4.59863-5.03613,3.06543-8.97754,7.48242-11.82422,13.24805-2.84717,5.76855-4.27051,12.51953-4.27051,20.25586,0,7.5918,1.42334,14.2334,4.27051,19.92676,2.84668,5.69336,6.78809,10.07324,11.82422,13.13867,5.03711,3.06543,10.69238,4.59863,16.97119,4.59863,6.42236,0,12.15332-1.5332,17.18994-4.59863Z"/>
        <path class="cls-1" d="M564.62862,163.95996c-7.22607-7.44531-10.83936-17.51855-10.83936-30.21973V62.5h22.33594v65.98535c0,7.88379,1.9707,14.41895,5.91211,19.59863,3.94189,5.18359,10.2168,7.77344,18.83203,7.77344,8.75977,0,15.72949-3.1748,20.91309-9.52539,5.17969-6.35059,7.77344-14.63379,7.77344-24.85352v-58.97852h22.5v110h-22.5v-18.17578h-1.09473c-2.92188,6.42578-7.26416,11.49707-13.0293,15.21973-5.76855,3.72266-12.95752,5.58398-21.56934,5.58398-12.2627,0-22.00781-3.72266-29.23389-11.16797Z"/>
        <path class="cls-1" d="M690.54219,167.46289c-7.52051-4.81641-13.43311-11.56836-17.7373-20.25488-4.30762-8.68457-6.45996-18.50391-6.45996-29.45215,0-10.94922,2.11426-20.69336,6.35059-29.23438,4.23242-8.54004,10.10693-15.21875,17.62744-20.03711,7.51709-4.81641,16.02002-7.22559,25.51123-7.22559,8.75879,0,16.2041,1.93652,22.33594,5.80273,6.13086,3.87012,10.58301,8.57812,13.35742,14.12402h1.09473V22.5h22.5v150h-22.5v-17.51758h-1.09473c-2.62793,5.54883-7.08252,10.21875-13.35742,14.01367-6.27881,3.79492-13.65234,5.69336-22.11719,5.69336-9.49121,0-17.99365-2.4082-25.51074-7.22656ZM736.96553,151.25977c4.88916-3.06641,8.79346-7.44531,11.71533-13.13965,2.91895-5.69336,4.37988-12.33496,4.37988-19.92676,0-7.58887-1.42383-14.26758-4.27051-20.03711-2.84668-5.76465-6.75391-10.18164-11.71484-13.24805-4.96484-3.06543-10.51123-4.59766-16.64258-4.59766-9.34473,0-16.9707,3.43164-22.88379,10.29102-5.91211,6.86328-8.86816,15.91406-8.86816,27.1543,0,7.73828,1.38574,14.45215,4.16016,20.14551,2.77148,5.69336,6.56934,10.11035,11.38721,13.24805,4.81787,3.1416,10.2168,4.70801,16.20459,4.70801,6.13135,0,11.63965-1.5332,16.53271-4.59766Z"/>
        <path class="cls-1" d="M357.59473,122.4707c-3.23047,9.08398-8.44434,16.53418-15.66406,22.32715-7.37354,5.91211-16.75195,8.86816-28.13916,8.86816-9.19678,0-17.62744-2.11719-25.29199-6.34961-7.66406-4.23633-13.79541-10.54883-18.39404-18.94141-4.59814-8.39648-6.89795-18.90771-6.89795-30.87646s2.2998-22.47998,6.89795-30.87646c4.59863-8.39258,10.72998-14.70508,18.39404-18.94141,7.66455-4.23242,16.09521-6.34961,25.29199-6.34961,11.38721,0,20.76562,2.95605,28.13916,8.86816,7.21265,5.78711,12.42285,13.22949,15.6543,22.30078h23.44336s-.18506-2.06201-1.10498-5.3291c-2.33691-8.61328-6.42578-16.49609-12.2627-23.65039-5.84082-7.15039-13.32324-12.84473-22.44531-17.08008-9.125-4.23242-19.45508-6.35059-30.98535-6.35059-14.30908,0-27.08203,3.25098-38.32129,9.74512-11.24316,6.49707-20.03711,15.62207-26.38721,27.37109-6.3042,11.66943-9.47607,25.1001-9.52148,40.29248.04541,15.19238,3.21729,28.62305,9.52148,40.29248,6.3501,11.74902,15.14404,20.87402,26.38721,27.37109,11.23926,6.49414,24.01221,9.74512,38.32129,9.74512,11.53027,0,21.86035-2.11816,30.98535-6.35059,9.12207-4.23535,16.60449-9.92969,22.44531-17.08008,5.83691-7.1543,9.92578-15.03711,12.2627-23.65039.91992-3.26709,1.10498-5.3291,1.10498-5.3291h-23.42578l-.00781-.02637Z"/>
      </g>
    </g>
  </g>
</svg>