<svg width="249" height="70" viewBox="0 0 249 70" fill="none" xmlns="http://www.w3.org/2000/svg">
<path fill-rule="evenodd" clip-rule="evenodd" d="M15 0C6.71573 0 0 6.71573 0 15V55C0 63.2843 6.71573 70 15 70H65C73.2843 70 80 63.2843 80 55V15C80 6.71573 73.2843 0 65 0H15ZM17 14C15.3431 14 14 15.3431 14 17V53C14 54.6569 15.3431 56 17 56H63C64.6569 56 66 54.6569 66 53V17C66 15.3431 64.6569 14 63 14H17Z" fill="#aa321e"/>
<path fill-rule="evenodd" clip-rule="evenodd" d="M193 0H179V55C179 63.2843 185.716 70 194 70H249V56H209C201.458 56 197.686 56 195.343 53.6569C193 51.3137 193 47.5425 193 40V0Z" fill="#aa321e"/>
<path fill-rule="evenodd" clip-rule="evenodd" d="M88 15C88 6.71573 94.7157 0 103 0H166V14H107C104.239 14 102 16.2386 102 19V23C102 25.7614 104.239 28 107 28H152V28.0328C159.818 28.5474 166 35.0518 166 43V55C166 63.2843 159.284 70 151 70H88V56H147C149.761 56 152 53.7614 152 51V47C152 44.2386 149.761 42 147 42H102V41.9672C94.182 41.4526 88 34.9482 88 27V15Z" fill="#aa321e"/>
</svg>
