<svg id="Слой_1" data-name="Слой 1" xmlns="http://www.w3.org/2000/svg" viewBox="0 0 306 416"><defs><style>.cls-1,.cls-10,.cls-13,.cls-22,.cls-29,.cls-33,.cls-34,.cls-35,.cls-36,.cls-37,.cls-38,.cls-39,.cls-41,.cls-42,.cls-5{fill:none;}.cls-1,.cls-10,.cls-11,.cls-12,.cls-13,.cls-14,.cls-17,.cls-2,.cls-24,.cls-25,.cls-29,.cls-30,.cls-31,.cls-32,.cls-33,.cls-34,.cls-35,.cls-36,.cls-37,.cls-38,.cls-39,.cls-40,.cls-41,.cls-42,.cls-43,.cls-5{stroke:#000;}.cls-1,.cls-10,.cls-12,.cls-13,.cls-2,.cls-21,.cls-25,.cls-26,.cls-27,.cls-28,.cls-29,.cls-30,.cls-31,.cls-33,.cls-34,.cls-35,.cls-36,.cls-37,.cls-38,.cls-39,.cls-40,.cls-41,.cls-42,.cls-43,.cls-5{stroke-miterlimit:10;}.cls-1,.cls-2{stroke-width:5px;}.cls-2,.cls-3{fill:#d33833;}.cls-4{fill:#932724;}.cls-5{stroke-width:3.1px;}.cls-6,.cls-7{isolation:isolate;}.cls-7{font-size:72px;fill:#231f20;font-family:Georgia-Bold, Georgia;font-weight:700;}.cls-31,.cls-8{fill:#49728b;}.cls-17,.cls-24,.cls-30,.cls-40,.cls-43,.cls-9{fill:#335061;}.cls-10,.cls-14{stroke-width:3.82px;}.cls-11,.cls-32{fill:#81b0c4;}.cls-11,.cls-14,.cls-17,.cls-24,.cls-32{stroke-linejoin:round;}.cls-11,.cls-13{stroke-width:4px;}.cls-12,.cls-14,.cls-28{fill:#464646;}.cls-12{stroke-width:2.86px;}.cls-14,.cls-17{stroke-linecap:round;}.cls-15{fill:#a5a3a2;}.cls-16{fill:#616161;}.cls-17,.cls-24,.cls-30,.cls-31,.cls-32{stroke-width:2px;}.cls-18,.cls-26,.cls-27{fill:#fff;}.cls-19{fill:#dcd9d8;}.cls-20{fill:#d0e662;}.cls-21{fill:#99a557;stroke:#99a557;}.cls-21,.cls-26,.cls-28{stroke-width:0.65px;}.cls-22{stroke:#d33833;stroke-width:1.58px;}.cls-23{fill:#ef3d3a;}.cls-25{stroke-width:1.96px;}.cls-26,.cls-27{stroke:#fff;}.cls-27{stroke-width:0.46px;}.cls-28{stroke:#464646;}.cls-29{stroke-width:3.94px;}.cls-33,.cls-34,.cls-35,.cls-36,.cls-37,.cls-38,.cls-39{stroke-width:1.8px;}.cls-34{stroke-dasharray:3.24 3.24;}.cls-35{stroke-dasharray:3.7 3.7;}.cls-36{stroke-dasharray:2.9 2.9;}.cls-37{stroke-dasharray:3.69 3.69;}.cls-38{stroke-dasharray:3.97 3.97;}.cls-39{stroke-dasharray:3.48 3.48;}.cls-40{stroke-width:1.2px;}.cls-41,.cls-42{stroke-width:1.5px;}.cls-42{stroke-dasharray:2.67 2.67;}</style></defs><title>logoМонтажная область 1</title><line class="cls-1" x1="59.2" y1="152.37" x2="58.38" y2="21.09"/><line class="cls-1" x1="72.96" y1="167.99" x2="71.97" y2="5.55"/><line class="cls-1" x1="86.63" y1="168.03" x2="85.64" y2="5.6"/><line class="cls-1" x1="100.22" y1="152.5" x2="99.4" y2="21.22"/><line class="cls-1" x1="140.56" y1="65.67" x2="18.04" y2="66.89"/><line class="cls-1" x1="156.14" y1="79.21" x2="2.46" y2="80.7"/><line class="cls-1" x1="156.14" y1="92.88" x2="2.46" y2="94.38"/><line class="cls-1" x1="140.56" y1="106.69" x2="18.04" y2="107.92"/><circle class="cls-2" cx="79.3" cy="86.79" r="49.01" transform="translate(-0.62 0.58) rotate(-0.41)"/><ellipse class="cls-3" cx="254.78" cy="252.54" rx="8.24" ry="8.46" transform="translate(-78.81 384.49) rotate(-66.33)"/><path class="cls-4" d="M263.53,254.94a8.47,8.47,0,0,1-15.5-6.8c1.83-4.17,1.78,6,6.06,7.85S265.36,250.77,263.53,254.94Z"/><ellipse class="cls-5" cx="254.78" cy="252.54" rx="8.24" ry="8.46" transform="translate(-78.81 384.49) rotate(-66.33)"/><ellipse class="cls-3" cx="60.87" cy="248.43" rx="8.24" ry="8.46" transform="translate(-122.94 70.57) rotate(-32.17)"/><path class="cls-4" d="M66.77,255.33a8.47,8.47,0,0,1-9-14.33c3.85-2.42-1.88,5.94.61,9.9S70.62,252.9,66.77,255.33Z"/><ellipse class="cls-5" cx="60.87" cy="248.43" rx="8.24" ry="8.46" transform="translate(-122.94 70.57) rotate(-32.17)"/><g id="text5675" class="cls-6"><text class="cls-7" transform="translate(5.92 394.58)">Jenkins</text></g><path class="cls-8" d="M214.94,311.16c-.17,7.5-27.12,20.28-62.74,19.68s-64.59-15.9-64.42-23.4,27.32-10,62.94-9.4S215.11,303.66,214.94,311.16Z"/><path class="cls-9" d="M132,314c-.17,7.5,25,17,20.2,16.84-35.61-1.19-64.59-15.9-64.42-23.4s27.33-8.24,62.94-9.4C152,298,132.17,306.5,132,314Z"/><path class="cls-10" d="M214.94,311.16c-.17,7.5-27.12,20.28-62.74,19.68s-64.59-15.9-64.42-23.4,27.32-10,62.94-9.4S215.11,303.66,214.94,311.16Z"/><path class="cls-8" d="M297.52,276.84C297.2,290.58,222,315,159.4,312,64.21,307.53,14.47,284.2,14.78,270.46s60.3-31.66,146.62-30.19C241.77,241.64,297.83,263.09,297.52,276.84Z"/><path class="cls-11" d="M159.4,312c-89.68-4.26-138-25.21-143.15-39.11,6.39,23.44,46.91,43.08,142.09,47.6,62.61,3,133.16-16.2,139.54-41.51C290.51,293,218.8,314.87,159.4,312Z"/><path class="cls-12" d="M223.4,262.9c-.15,6.55-36,18.19-65.79,16.77-45.34-2.15-69-13.26-68.89-19.81s28.72-15.08,69.84-14.38C196.85,246.14,223.55,256.35,223.4,262.9Z"/><path class="cls-9" d="M159.4,312C64.21,307.53,14.47,284.2,14.78,270.46S58,247,90,243c37.82-4.73-40.14,11.71-24,29C83.89,291.17,192.33,313.61,159.4,312Z"/><path class="cls-13" d="M298.52,276.84C298.2,290.58,223,315,160.4,312,65.21,307.53,15.47,284.2,15.78,270.46s60.3-31.66,146.62-30.19C242.77,241.64,298.83,263.09,298.52,276.84Z"/><path class="cls-14" d="M223.48,243.33c-.15,6.55-36,18.19-65.79,16.77-45.34-2.15-69-13.26-68.89-19.81s28.72-15.08,69.84-14.38C196.93,226.56,223.63,236.78,223.48,243.33Z"/><path class="cls-11" d="M88.73,263.68l.09-23.39s30.71,19.76,68.89,19.81c42.63.05,65.79-16.77,65.79-16.77l-.09,21.49s-12.8,16.72-65.79,14.86C106.73,277.9,88.73,263.68,88.73,263.68Z"/><path d="M99.46,260.57a85.63,85.63,0,0,0,14.2,6.43,116.34,116.34,0,0,0,14.89,4.24,120.4,120.4,0,0,0,15.27,2.24,131.57,131.57,0,0,0,15.42.41,152.64,152.64,0,0,0,30.6-4.23,233.22,233.22,0,0,0,29.74-9.43,135.91,135.91,0,0,1-29,12.31,130.49,130.49,0,0,1-15.44,3.59,138.74,138.74,0,0,1-15.81,1.57,125.05,125.05,0,0,1-15.89-.63,102,102,0,0,1-15.62-2.95,94.22,94.22,0,0,1-14.9-5.4A65,65,0,0,1,99.46,260.57Z"/><path d="M108,261.45a86,86,0,0,0,13.32,4.6,122,122,0,0,0,13.75,2.82A138.34,138.34,0,0,0,163.06,270a159.53,159.53,0,0,0,27.7-4.2,225,225,0,0,0,26.92-8.42A137.34,137.34,0,0,1,191.32,268a132.39,132.39,0,0,1-13.9,3.22c-4.69.82-9.44,1.33-14.19,1.67a132.64,132.64,0,0,1-14.3,0,108.87,108.87,0,0,1-14.18-1.77A98.94,98.94,0,0,1,121,267.38,66.34,66.34,0,0,1,108,261.45Z"/><path id="path30" class="cls-15" d="M178.38,223.28l-47,2v7.88l3.94,27.58-2,2.3-32.84-11.17-2.3-3.94L95,210.8l-7.55-22.33-1.64-5.25L112,165.16l8.21-3.28,7.22,8.87,6.24,5.58,7.23,2.3,3.28,1,3.94,17.08,3,3.61,48.77-41.85,17.78,18.39L202.43,220.1l-24.06,3.18"/><path id="path54" class="cls-16" d="M127.48,170.74,96.61,184.53s12.81,50.9,6.24,66.66l-4.6-1.64-.33-19.38L89.39,193.4l-3.61-10.18L118,161.54l9.52,9.19"/><polygon class="cls-17" points="91.5 176.5 130.05 200.92 87.5 192.5 86 183 91.5 176.5"/><path id="path56" class="cls-16" d="M130.65,198.89l4.38,5.34v19.7h-5.25s-.66-13.79-.66-15.43.66-7.55.66-7.55"/><path id="path58" class="cls-16" d="M130.76,226.89l-11.78.66,1.27,3,10.51,1.64"/><path id="path60" class="cls-15" d="M181.33,223.61l12.15-.33,3,30.21L184,255.14l-2.63-31.53"/><path id="path64" class="cls-16" d="M192.83,221.31l-11.49,2.3,1.64,9.2c4.27,2,11.49-3.28,11.49-3.28"/><path id="path66" class="cls-16" d="M191,166l25.14,14.92.66-7.88-16.91-14.59-8.74,7.4"/><path id="path68" class="cls-18" d="M142.16,288.31l-6.8-27.59L132,240.36l-.56-15.11,30.77-1.64h19.14l-1.74,34.48,3,26.6-.33,4.93-25,2-15.11-3.28"/><path id="path70" class="cls-19" d="M177.07,223.28s-1.64,34.15,3.28,58.45a62.74,62.74,0,0,1-24.3,7.88l27.59-1,3.28-2L183,232.81l-1-11.5"/><path id="path72" class="cls-20" d="M197,250.87l12.81-3.61,24.3-1.31,3.61-11.16-6.57-19.38-7.55-1-10.51,3.28L203,222.62l-5.35-1-4.17,1.64"/><path id="path74" class="cls-21" d="M196.77,244.3s8.54-3.94,9.85-3.61L203,222.62l4.27-1.64s3,17.08,3,19c0,0,18.39,1,20,1,0,0,3.94-7.55,3-15.43l3.61,10.51.33,5.91-5.25,7.88L226,251.19l-9.85-.33-3.28-4.27-11.49,1.64-3.61,1.31"/><path id="path80" class="cls-18" d="M145.11,171.4l-9.1-1-8.54-2.63v3l4.17,4.6,13.14,5.91"/><path id="path82" class="cls-19" d="M130.43,172.38s10.18,4.27,13.46,3.28l.33,3.94-9.19-2-5.58-3.94,1-1.31"/><path id="path84" class="cls-3" d="M197,188.28a62.4,62.4,0,0,1-15-2.07c.3-1.81-.26-3.58.19-4.88,1.23-.88,3.29-.87,5.14-1.08a9,9,0,0,0-5.72-.65,9.14,9.14,0,0,0-.95-3c3.13-1.12,10.53-8.45,14.69-6,2,1.15,2.82,7.75,3,11,.13,2.66-.24,5.34-1.33,6.75"/><path id="path86" class="cls-22" d="M197,188.28a62.4,62.4,0,0,1-15-2.07c.3-1.81-.26-3.58.19-4.88,1.23-.88,3.29-.87,5.14-1.08a9,9,0,0,0-5.72-.65,9.14,9.14,0,0,0-.95-3c3.13-1.12,10.53-8.45,14.69-6,2,1.15,2.82,7.75,3,11C198.42,184.19,198,186.87,197,188.28Z"/><path id="path88" class="cls-3" d="M170.32,179.17c0,.42,0,.85,0,1.27-1.74,1.14-4.55,1.13-6.46,2.09a16.78,16.78,0,0,1,6.95,1.76q-.06,1.59-.12,3.19c-3.19,2.18-6.1,5.43-9.86,7.48-1.78,1-8,3.46-9.89,3-1.07-.25-1.16-1.57-1.59-2.82-.91-2.68-3-6.94-3.19-11-.23-5.09-.75-13.62,4.74-12.57a49,49,0,0,1,13,4.75c2.09,1.14,3.3,2.56,6.48,2.8"/><path id="path90" class="cls-22" d="M170.32,179.17c0,.42,0,.85,0,1.27-1.74,1.14-4.55,1.13-6.46,2.09a16.78,16.78,0,0,1,6.95,1.76q-.06,1.59-.12,3.19c-3.19,2.18-6.1,5.43-9.86,7.48-1.78,1-8,3.46-9.89,3-1.07-.25-1.16-1.57-1.59-2.82-.91-2.68-3-6.94-3.19-11-.23-5.09-.75-13.62,4.74-12.57a49,49,0,0,1,13,4.75C165.93,177.51,167.14,178.93,170.32,179.17Z"/><path id="path92" class="cls-3" d="M173.49,185.24c-.49-2.77-1-3.56-.83-6,7.39-4.93,8.78,8.47.83,6"/><path id="path94" class="cls-22" d="M173.49,185.24c-.49-2.77-1-3.56-.83-6C180,174.33,181.44,187.73,173.49,185.24Z"/><path id="path96" class="cls-23" d="M184.19,187.49s-2.3-3.28-.66-4.27,3.28,0,4.27-1.64,0-2.63.33-4.6,2-2.3,3.61-2.63,6.24-1,6.9.66l-2-5.91-3.94-1.31L180.25,175l-.66,3.61v7.22"/><path id="path98" class="cls-23" d="M149.71,198.33q-.59-7.69-1.28-15.36c-.7-7.64,1.84-6.31,8.46-6.31,1,0,6.23,1.21,6.61,2,1.79,3.66-3,2.85,2.06,5.6,4.27,2.33,11.81-1.41,10.09-6.59-1-1.15-5-.36-6.49-1.11l-7.7-4c-3.26-1.69-10.81-4.16-14.29-1.8-8.82,6,.56,21,3.7,27.24"/><path id="path118" d="M224.32,222.93c-5.08,1-8.65,6-13.61,5.64,2.73-3.84,7.5-5.46,13.61-5.64"/><path id="path120" d="M226.57,230.88c-4.14.44-9,1.11-13.21.76,2-3,9.65-2,13.21-.76"/><path id="path122" d="M228,237.74c-4.66.1-10.44,0-14.87-.36,2.62-2.81,11.85-1,14.87.36"/><polyline class="cls-17" points="103.14 252.13 129.5 223.5 108.11 255.44"/><path id="path124" class="cls-19" d="M191.13,256.51c.67,5.85,3,11.77,2.7,18.18-2.57.87-4.05,1.63-7.5,1.62-.24-5.44-1-13.76-.75-19,1.7.11,4.2-1.21,5.56-.85"/><polyline class="cls-24" points="99.5 245.5 129.5 223.5 98.39 239.97"/><path id="path126" class="cls-20" d="M183.63,170.33c-2.34,1.53-4.33,3.43-6.57,5.06-5,.25-7.7-.34-11.35-3.2.06-.23.43-.13.44-.41,5.33,2.38,12.1-1,17.49-1.45"/><path id="path130" d="M185.57,257.35c-.22,5.19.51,13.51.75,19,3.45,0,4.93-.75,7.5-1.62.29-6.4-2-12.33-2.7-18.18C189.77,256.14,187.27,257.47,185.57,257.35Zm-53.71-29.5c2.27,20.91,5.57,38.48,11.61,57,13.41,4.07,29.58,4.43,41.43.75-2.18-10.45-1.23-23.17-2.5-34.32-1-8.38-.47-16.82-1.78-25.37C166.26,222.92,146,225.21,131.87,227.85ZM184,226c-.12,9,.4,17.84,1.09,26.83,3.45-.52,5.79-.86,9-1.57-1-8.66-.91-18.4-3-26.05A21.36,21.36,0,0,0,184,226Zm17.49-1.45c-1.64-.38-3.54,0-5.11,0,.73,7.32,2.52,15.4,3.15,23.08,2.46.08,3.77-1.08,5.8-1.47.11-6.74-.59-16-3.84-21.62ZM228,248.79c5.13-1.25,8.35-7.53,6.92-14-1-4.33-2.68-12.5-4.51-15.27-1.36-2.05-5-4.74-8-2.86-4.77,3.06-13.18,3.94-16.67,7.65,1.75,5.81,2.29,13.8,3,21.16,6,.37,13.3-1.64,18.26.49-3.46,1.12-8,1.13-10.95,2.77,2.45,1.18,8.17.94,11.9,0Zm-55.34-69.53c-.22,2.42.34,3.21.83,6C181.44,187.73,180,174.33,172.65,179.26Zm-8.82-2.89a49,49,0,0,0-13-4.75c-5.48-1-5,7.48-4.74,12.57.18,4,2.28,8.29,3.19,11,.43,1.25.52,2.58,1.59,2.82,1.89.44,8.12-2.05,9.89-3,3.75-2,6.67-5.3,9.86-7.48q.06-1.59.12-3.19a16.78,16.78,0,0,0-6.95-1.76c1.91-1,4.72-.95,6.46-2.09,0-.43,0-.85,0-1.27C167.14,178.93,165.93,177.51,163.84,176.37Zm-32.72-5.94c-2.84,2.89,8,6.82,11.42,7,0-1.83,1-3.55.83-4.86C139.27,171.88,133.9,172.35,131.12,170.42Zm35,1.36c0,.28-.38.18-.44.41,3.66,2.86,6.38,3.45,11.35,3.2,2.25-1.63,4.24-3.53,6.57-5.06C178.25,170.81,171.47,174.15,166.14,171.78Zm32.15,9.75c-.15-3.21-1-9.8-3-11-4.16-2.43-11.56,4.9-14.69,6a9.14,9.14,0,0,1,.95,3,9,9,0,0,1,5.72.65c-1.86.21-3.92.19-5.14,1.08-.45,1.3.11,3.07-.19,4.88a62.4,62.4,0,0,0,15,2.07C198,186.87,198.42,184.19,198.29,181.53Zm2.62,36.67c1.66-.66,2.86-4.45,4.12-7.49,3.46-8.36,7.08-18.9,8.7-26.87.36-1.82,1.36-5.78,1.13-7.4-.4-2.9-4.33-5-6.33-6.84-3.68-3.31-6-6.22-9.84-9.31-1.56,2.3-4.9,3.84-6.17,5.71h0c8.32-4,11.17,14.74,7.42,23.16a3.21,3.21,0,0,1-3.24,1.89s-7.57-.44-10-1c-3.37-.73-5.19-2-7.53-2.27-2-.22-2.26,2.43-6.43,1.24a18.66,18.66,0,0,1-1.78,2.06c-3.63,3-15.91,10-15.91,10-6.6,3.6-7.89-3.45-9.45-8.45A65.66,65.66,0,0,1,143,182.15c-5.69-2.71-11.77-5.46-16.66-8.93h0c-.89-.64-6.93-8.5-7.76-8.17-10.93,4.31-21.15,11.76-30.28,18.81,8.71,18.68,12.22,41.57,12.84,63.63,10,4.67,18.73,11.39,32.27,12.09-1.57-11.08-3-21-3.88-31.4-3.4-1.43-8.28.07-11.46-.44,0-3.84,4.86-1.68,5.27-4.26.31-2-2.69-2.1-1.71-5.17,2.49.9,3.79,2.9,6.45,3.65,2.42-5.3,0-14.69.32-19.12.07-.83.42-4.61,2.28-3.95,1.65.59-.09,10.05.09,14.25.16,3.87-.47,7.61,1.1,10,13.08-1.78,27.37-1.93,41.52-2.32C173.36,220.85,196.37,220,200.91,218.19Zm5.77-.84c8-4,22.85-10.66,27.85,0a90.52,90.52,0,0,1,5,14.65c1.35,5.73-1.46,17.78-7.35,19.7-5.2,1.7-11.27,1.59-17.54.34a9.56,9.56,0,0,1-2.13-2.8c-4.47-.17-8.66.24-12.2,2.08.33,3.31-1.9,3.84-4,4.52-1.56,6.17,3.11,14.22,2,19.85-.8,4-5.73,4.63-9.35,5.38a30.78,30.78,0,0,0,.41,6c-.83,3.05-4.54,4.79-8.07,5.22-11.58,1.39-29.17,2-40.32-2-3.11-7.63-5.56-16.9-8.15-25.61-10.87,1.16-19.66-4.69-27.94-8.52-2.87-1.33-6.84-2.06-7.91-4.35s-.61-6.45-.87-10.45c-.66-10.22-1.22-20.08-3.92-30.55-1.21-4.7-3.32-8.84-4.8-13.37C86,193.23,83.6,188,83,183.86c-.92-6.2,4.92-6.54,8.65-9.23,5.77-4.15,10.3-6.45,16.55-10.2,1.85-1.11,8.68-4.05,11.23-4.38,6.08,4.56,16.46,11.73,26.57,7.74,3.52-1.39,17.13,3.12,28.11,2.54,4.77-.25,17.78-7.86,25.33-13.86,1.57,1.78,10.58,7.61,12.09,9.07,2.73,2.64,7.93,4.56,8.35,7.89.45,3.54-1.56,8.39-2.58,11.8-3.41,11.41-6.73,21.95-10.6,32.12"/><path class="cls-20" d="M135.47,13.44C125.7,15.88,67,31.64,98.93,126.13c12.13,35.89,45.21,49.47,58.88,50.59,5.73.47,75-11.43,61.12-107.51C212,21.12,161.25,7,135.47,13.44Z"/><path class="cls-21" d="M154.48,106.74c9.76,15.41,13.5,34.35,1.55,41.5-15.34,9.18-34.82-7.79-41.52-20.64-5.38-10.32-10.26-34.7,3.07-41.53C129.58,79.94,144.91,91.64,154.48,106.74Z"/><path class="cls-25" d="M125,93.21A16.18,16.18,0,0,0,120.59,98c-12.11,19,5.33,56,29.62,51.91,12.15-2,11.32-15.41,7.86-24.21S138.23,84.18,125,93.21Z"/><path class="cls-21" d="M217.89,118.61c1.89-12.91,3.45-29.3.48-46.86-8.18-48.29-58.53-63-84.31-56.51-9.78,2.45-67,16.4-35.1,110.89C111.09,162,144.4,174,157.84,176.72,165.87,178.37,211.57,161.87,217.89,118.61Zm-54.21,53a32.82,32.82,0,0,1-17-2.12c-17-6.66-32.37-23.72-39.66-40.24-10.47-23.71-15.41-56.5-4.71-80.86C112.77,24.61,141.11,14.74,165,23.74c29,10.92,46.7,41.92,43.55,72.32a8,8,0,0,1-.61,2.68,9.63,9.63,0,0,1-2.89,3,36.84,36.84,0,0,0-12.83,22.71,38.35,38.35,0,0,0,.38,13.69c.24,1.2,2.53,7.95,3.6,9.42a.55.55,0,0,1,0,.67C191.09,155,176.65,169.68,163.68,171.6Z"/><path class="cls-25" d="M193.9,146.55c-3.26-2.65-1.9-13.9.27-18.43,1.94-4.07,9.06-15.93,14.77-14.9,5,.9,4.24,9,3.23,12.61a45,45,0,0,1-11.66,18.59C197.35,147.28,195.24,147.64,193.9,146.55Z"/><ellipse class="cls-26" cx="137.31" cy="109.74" rx="5.64" ry="14.4" transform="translate(-38.35 116.06) rotate(-40.69)"/><ellipse class="cls-27" cx="204.18" cy="122.48" rx="7.03" ry="2.76" transform="translate(-17.06 210.48) rotate(-52.65)"/><path id="path114" d="M155.4,159.23c2.74,6.57,11.78,5.67,19.41,5.36a4.08,4.08,0,0,1-1.93,2.27c-2.43,1-9.17,1.9-12.59.15-2.17-1.11-3.6-3.68-4.8-5.17-.58-.72-3.45-2.55-.08-2.61"/><path id="path100" d="M130.61,71.93c-14.06-3-20.88,6.2-25,15.73-3.81-.86-2.38-6-1.46-8.68,2.4-6.94,12.36-16.28,20.64-15.16,3.56.48,8.42,3.65,5.8,8.12"/><path id="path100-2" data-name="path100" d="M199,97.15c-2.18-3.91,1.56-6.86,4.36-7.39,6.49-1.21,14.6,6.84,16.67,13,.79,2.33,2.06,6.91-.92,7.77C215.6,102.11,210,94.06,199,97.15"/><path class="cls-28" d="M135.06,141.79s9.28,7.17,17.55,3c5-2.5,2.14-14.17,2.14-14.17s-.46,5.9-4.34,8.81C146.34,142.52,135.06,141.79,135.06,141.79Z"/><path class="cls-28" d="M194.81,136.74s-1.18,5,.57,5.65c2.22.82,5.38-2.57,5.38-2.57a5.49,5.49,0,0,1-3.53-.3A5.76,5.76,0,0,1,194.81,136.74Z"/><path class="cls-29" d="M135.47,13.44C92,24.31,84.32,69.11,93.38,107.79c7.31,31.2,29,66,64.43,68.93,19.48,1.59,37.09-14,47.56-28.84C217.94,130,222.21,107.47,221,86c-1.34-24.34-9.87-47.52-30.78-61.27C174.79,14.54,153.78,8.86,135.47,13.44Z"/><path id="path110" d="M187.91,151.69c-2.55,4.67-6.13,9.8-13.39,9.83a17.92,17.92,0,0,1,.08-4.75c5.56-.44,9-3.21,13.31-5.08"/><path id="path112" d="M153.09,154.18c4.59,2.51,13.09,2.91,19.39,2.82a22,22,0,0,1,.27,4.77c-8.09.27-17.63-1.88-19.66-7.59"/><ellipse class="cls-3" cx="41.78" cy="272.54" rx="8.24" ry="8.46" transform="translate(-224.61 201.38) rotate(-66.33)"/><path class="cls-4" d="M50.53,274.94a8.47,8.47,0,0,1-15.5-6.8c1.83-4.17,1.78,6,6.06,7.85S52.36,270.77,50.53,274.94Z"/><ellipse class="cls-5" cx="41.78" cy="272.54" rx="8.24" ry="8.46" transform="translate(-224.61 201.38) rotate(-66.33)"/><ellipse class="cls-3" cx="85.78" cy="287.54" rx="8.24" ry="8.46" transform="translate(-212.01 250.66) rotate(-66.33)"/><path class="cls-4" d="M94.53,289.94a8.47,8.47,0,0,1-15.5-6.8c1.83-4.17,1.78,6,6.06,7.85S96.36,285.77,94.53,289.94Z"/><ellipse class="cls-5" cx="85.78" cy="287.54" rx="8.24" ry="8.46" transform="translate(-212.01 250.66) rotate(-66.33)"/><ellipse class="cls-3" cx="131.78" cy="296.54" rx="8.24" ry="8.46" transform="translate(-192.73 298.17) rotate(-66.33)"/><path class="cls-4" d="M140.53,298.94a8.47,8.47,0,0,1-15.5-6.8c1.83-4.17,1.78,6,6.06,7.85S142.36,294.77,140.53,298.94Z"/><ellipse class="cls-5" cx="131.78" cy="296.54" rx="8.24" ry="8.46" transform="translate(-192.73 298.17) rotate(-66.33)"/><ellipse class="cls-3" cx="192.78" cy="296.54" rx="8.24" ry="8.46" transform="translate(-156.22 354.04) rotate(-66.33)"/><path class="cls-4" d="M201.53,298.94a8.47,8.47,0,0,1-15.5-6.8c1.83-4.17,1.78,6,6.06,7.85S203.36,294.77,201.53,298.94Z"/><ellipse class="cls-5" cx="192.78" cy="296.54" rx="8.24" ry="8.46" transform="translate(-156.22 354.04) rotate(-66.33)"/><ellipse class="cls-3" cx="238.78" cy="288.54" rx="8.24" ry="8.46" transform="translate(-121.36 391.38) rotate(-66.33)"/><path class="cls-4" d="M247.53,290.94a8.47,8.47,0,0,1-15.5-6.8c1.83-4.17,1.78,6,6.06,7.85S249.36,286.77,247.53,290.94Z"/><ellipse class="cls-5" cx="238.78" cy="288.54" rx="8.24" ry="8.46" transform="translate(-121.36 391.38) rotate(-66.33)"/><ellipse class="cls-3" cx="276.78" cy="274.54" rx="8.24" ry="8.46" transform="translate(-85.79 417.81) rotate(-66.33)"/><path class="cls-4" d="M285.53,276.94a8.47,8.47,0,0,1-15.5-6.8c1.83-4.17,1.78,6,6.06,7.85S287.36,272.77,285.53,276.94Z"/><ellipse class="cls-5" cx="276.78" cy="274.54" rx="8.24" ry="8.46" transform="translate(-85.79 417.81) rotate(-66.33)"/><circle class="cls-30" cx="176" cy="196" r="3"/><circle class="cls-30" cx="176" cy="206.5" r="3"/><circle class="cls-30" cx="176" cy="217" r="3"/><polygon class="cls-31" points="196.63 201.88 184.51 202.12 190.36 191.51 196.63 201.88"/><polygon class="cls-32" points="202.63 204.88 190.51 205.12 196.36 194.51 202.63 204.88"/><polygon class="cls-30" points="197.63 209.88 185.51 210.12 191.36 199.51 197.63 209.88"/><line class="cls-33" x1="138" y1="236" x2="139.66" y2="236.69"/><line class="cls-34" x1="142.66" y1="237.92" x2="147.15" y2="239.78"/><polyline class="cls-33" points="148.65 240.39 150.31 241.08 150.83 242.8"/><line class="cls-35" x1="151.89" y1="246.35" x2="153.49" y2="251.67"/><polyline class="cls-33" points="154.03 253.44 154.54 255.16 153.53 256.65"/><line class="cls-36" x1="151.9" y1="259.05" x2="149.46" y2="262.65"/><polyline class="cls-33" points="148.64 263.85 147.63 265.33 148.73 266.75"/><line class="cls-37" x1="151" y1="269.67" x2="158.93" y2="279.87"/><polyline class="cls-33" points="160.06 281.33 161.17 282.75 162.74 281.88"/><line class="cls-38" x1="166.21" y1="279.97" x2="171.42" y2="277.1"/><polyline class="cls-33" points="173.16 276.14 174.74 275.27 173.47 274"/><line class="cls-39" x1="171.02" y1="271.52" x2="157.53" y2="257.91"/><line class="cls-33" x1="156.3" y1="256.67" x2="155.04" y2="255.39"/><circle class="cls-40" cx="137.66" cy="235.69" r="3.62" transform="translate(-32.59 22.35) rotate(-8.3)"/><circle class="cls-40" cx="150.94" cy="241.72" r="2.88" transform="matrix(0.99, -0.14, 0.14, 0.99, -33.32, 24.33)"/><circle class="cls-40" cx="155.92" cy="254.88" r="3.23" transform="matrix(0.99, -0.14, 0.14, 0.99, -35.17, 25.18)"/><circle class="cls-40" cx="145.9" cy="265.77" r="3.52" transform="translate(-36.84 23.85) rotate(-8.3)"/><circle class="cls-40" cx="174.93" cy="275.45" r="3.27" transform="translate(-37.94 28.14) rotate(-8.3)"/><circle class="cls-40" cx="162.44" cy="282.77" r="3.13" transform="translate(-39.13 26.42) rotate(-8.3)"/><line class="cls-41" x1="168" y1="231" x2="168.14" y2="232.49"/><polyline class="cls-42" points="168.38 235.15 169 242 174.87 247.13"/><line class="cls-41" x1="175.87" y1="248.01" x2="177" y2="249"/><circle class="cls-43" cx="167.8" cy="231.1" r="2.4" transform="matrix(0.99, -0.14, 0.14, 0.99, -31.61, 26.65)"/><circle class="cls-43" cx="169.27" cy="242.08" r="2.42" transform="translate(-33.18 26.98) rotate(-8.3)"/><circle class="cls-43" cx="177.25" cy="248.89" r="2.61" transform="translate(-127.57 270.08) rotate(-58.52)"/></svg>