<?xml version="1.0" encoding="utf-8"?>
<!-- Generator: Adobe Adobe Illustrator 24.2.0, SVG Export Plug-In . SVG Version: 6.00 Build 0)  -->
<svg version="1.1" xmlns="http://www.w3.org/2000/svg" xmlns:xlink="http://www.w3.org/1999/xlink" x="0px" y="0px" width="1354px"
	 height="1080px" viewBox="0 0 1354 1080" style="enable-background:new 0 0 1354 1080;" xml:space="preserve">
<style type="text/css">
	.st0{fill:#FFF700;}
	.st1{fill:#0071BC;}
	.st2{opacity:0.2196;fill:#757778;}
	.st3{fill:none;stroke:#000000;stroke-width:20;stroke-linecap:round;stroke-linejoin:round;stroke-miterlimit:10;}
	.st4{fill:#E8E8E8;}
	.st5{opacity:0.2196;}
	.st6{fill:none;}
	.st7{fill:#EF3D3A;stroke:#FF0000;stroke-width:6;stroke-miterlimit:10;}
	.st8{font-family:'BradleyHandITCTT-Bold';}
	.st9{font-size:118px;}
	.st10{fill:none;stroke:#000000;stroke-width:4;stroke-linecap:round;stroke-linejoin:round;stroke-miterlimit:10;}
	.st11{fill:none;stroke:#000000;stroke-width:10;stroke-linecap:round;stroke-linejoin:round;stroke-miterlimit:10;}
	.st12{fill:#7A4206;stroke:#000000;stroke-width:10;stroke-linecap:round;stroke-linejoin:round;stroke-miterlimit:10;}
	.st13{fill:#402201;stroke:#000000;stroke-width:10;stroke-linecap:round;stroke-linejoin:round;stroke-miterlimit:10;}
	.st14{fill:#F7E4CD;}
	.st15{fill:#F0D6B7;}
	.st16{fill:#335061;}
	.st17{fill:#6D6B6D;}
	.st18{fill:#DCD9D8;}
	.st19{fill:#49728B;}
	.st20{fill:#FFFFFF;}
	.st21{fill:#D33833;}
	.st22{fill:none;stroke:#D33833;stroke-width:2;}
	.st23{fill:#EF3D3A;}
	.st24{fill:#81B0C4;}
	.st25{fill:#F0F0F0;stroke:#000000;stroke-width:7;stroke-miterlimit:10;}
	.st26{fill:none;stroke:#000000;stroke-width:8;stroke-miterlimit:10;}
	.st27{fill:#F0F0F0;}
</style>
<g id="Layer_4">
	<g id="_x3C_Group_x3E_">
		<g>
			<path class="st0" d="M807.16,462.12v8.29H33.72v-1.62c0,0.54-0.01,1.08-0.01,1.62c0,213.61,173.16,386.77,386.77,386.77
				s386.77-173.16,386.77-386.77C807.25,467.64,807.22,464.88,807.16,462.12z"/>
		</g>
	</g>
	<g>
		<g>
			<path class="st1" d="M27.15,478.21h773.44v8.29c0.06-2.76,0.09-5.52,0.09-8.29c0-213.61-173.16-386.77-386.77-386.77
				S27.14,264.6,27.14,478.21c0,0.54,0.01,1.07,0.01,1.61V478.21z"/>
		</g>
	</g>
	<path class="st2" d="M33.61,470.76C25.23,257.31,196.87,100.08,409.87,83.99c57.32-4.33-269.48,27.28-315.9,370.57
		c-13.96,103.22,37.25,287.58,37.25,287.58S43.04,711.07,33.61,470.76z"/>
	<circle class="st3" cx="413.91" cy="478.21" r="386.77"/>
</g>
<g id="Layer_3">
	<g id="Layer_2">
		<path class="st4" d="M735.92,584.09c0,0,58.17-15.49,147.51-15.49c80.32,0,132.02,26.65,132.02,26.65s-40.46,28.34-8.68,68.18
			c21.76,27.27,94.56,0.25,138.21,19.21c41.53,18.04,44.01,59.5,44.01,59.5s20.39-71.02,50.2-138.21
			c44.28-99.78,91.73-142.55,91.73-142.55s-29.6,8.76-55.16-8.06c-24.11-15.87-41.53-56.4-41.53-56.4s34.7-74-30.37-128.92
			c-139.38-117.64-370.01-1.24-370.01-1.24s4.31,83.54-10.06,150.28C807.77,491.37,735.92,584.09,735.92,584.09z"/>
		<g class="st5">
			<g>
				<g>
					<path d="M828.62,417.04c-16,74.33-87.86,167.05-87.86,167.05s0.61-0.16,1.78-0.45c17.88-4.64,165.37-45.98,178.03-150.84
						c16.91-139.98-81.88-166.05-81.88-166.05S842.99,350.3,828.62,417.04z"/>
					<path d="M1280.59,453.32c-24.11-15.87-41.53-56.4-41.53-56.4s34.7-74-30.37-128.92c-139.38-117.64-370.01-1.24-370.01-1.24
						s234.46-116.97,369.78,5.32c51.29,46.36,34.4,113.66,17.16,141.93c-19.77,32.41-58.84,70.29-89.57,110.05
						c-21.4,27.68-36.68,59.12-35.28,93.59c1.74,43.01-34.71,28.66-38.43,23.02c-28.06-42.54-42.05-45.42-42.05-45.42
						s-40.46,28.34-8.68,68.18c21.76,27.27,94.56,0.25,138.21,19.21c41.53,18.04,44.01,59.5,44.01,59.5s20.39-71.02,50.2-138.21
						c44.28-99.78,91.73-142.55,91.73-142.55S1306.15,470.14,1280.59,453.32z"/>
				</g>
			</g>
		</g>
		<polygon class="st6" points="899.97,241.51 1212.37,317.05 1107.4,615.08 795,539.55 		"/>
		<text transform="matrix(0.9799 0.1995 -0.1895 0.9309 878.8888 330.1273)"><tspan x="0" y="0" class="st7 st8 st9">STOP</tspan><tspan x="68.7" y="97.89" class="st7 st8 st9">the</tspan><tspan x="-15.58" y="195.79" class="st7 st8 st9">WAR</tspan></text>
		<rect x="965.47" y="818.98" class="st6" width="0" height="0"/>
		<g>
			<path d="M744.24,578.04c4.76-1.09,9.72-2.5,14.56-3.95c2.42-0.75,4.86-1.48,7.27-2.3c2.42-0.79,4.83-1.59,7.23-2.46
				c9.6-3.39,19.12-7.11,28.48-11.23c9.33-4.16,18.62-8.49,27.65-13.32c4.57-2.32,9-4.89,13.49-7.38c2.26-1.22,4.43-2.59,6.63-3.9
				l6.61-3.96l-6.34,4.38c-2.12,1.45-4.2,2.96-6.38,4.33c-4.32,2.78-8.6,5.65-13.03,8.27c-8.75,5.43-17.78,10.39-26.91,15.19
				c-9.15,4.76-18.51,9.14-28.03,13.22c-2.37,1.03-4.77,2.01-7.17,2.97c-2.39,0.99-4.82,1.89-7.25,2.82
				c-4.89,1.82-9.71,3.54-14.87,5.08L744.24,578.04z"/>
		</g>
		<g>
			<path d="M743.13,575.2c1.61-0.7,3.4-1.54,5.1-2.37c1.72-0.84,3.43-1.7,5.14-2.58c3.41-1.77,6.8-3.62,10.16-5.52
				c6.71-3.82,13.3-7.89,19.77-12.16c6.46-4.27,12.8-8.76,18.99-13.43c6.19-4.69,12.22-9.59,18.12-14.65
				c5.92-5.05,11.59-10.38,17.17-15.81c5.55-5.46,10.91-11.13,16.1-16.94c10.34-11.68,19.87-24.11,28.49-37.18
				c-7.91,13.51-16.8,26.49-26.58,38.79c-4.92,6.13-10.01,12.13-15.32,17.94c-5.34,5.78-10.79,11.47-16.51,16.9
				c-5.7,5.45-11.55,10.74-17.58,15.84c-6.04,5.08-12.24,9.99-18.59,14.7c-6.36,4.71-12.87,9.22-19.54,13.51
				c-3.34,2.14-6.72,4.22-10.16,6.24c-1.72,1.01-3.45,2-5.2,2.97c-1.77,0.98-3.48,1.9-5.41,2.87L743.13,575.2z"/>
		</g>
		<g>
			<path d="M1213.15,594.63c0.6-6.2,1.85-12.31,3.23-18.38c1.44-6.06,3.19-12.05,5.19-17.97c4.02-11.82,9.17-23.3,15.46-34.17
				c3.19-5.41,6.66-10.66,10.45-15.69c3.85-4.99,8-9.74,12.5-14.16c4.54-4.37,9.44-8.36,14.64-11.89c5.27-3.42,10.82-6.38,16.63-8.6
				c-5.21,3.42-10.21,6.97-14.85,10.95c-4.6,4.03-8.95,8.28-13.01,12.8c-4,4.57-7.78,9.32-11.32,14.26
				c-3.49,4.98-6.77,10.09-9.85,15.34c-6.1,10.54-11.49,21.52-16.25,32.82C1221.21,571.25,1216.93,582.8,1213.15,594.63z"/>
		</g>
		<g>
			<path d="M1247.24,497.32c-2.02,1.77-4.13,3.4-6.06,5.24c-2.01,1.74-3.9,3.62-5.79,5.47c-3.7,3.79-7.27,7.68-10.52,11.83
				c-3.26,4.13-6.31,8.4-9.11,12.84c-2.74,4.46-5.34,9-7.66,13.69c-9.27,18.77-14.76,39.19-17.89,59.93
				c-3.12,20.77-3.82,41.93-3.16,63.08c0.16,5.29,0.49,10.58,0.82,15.87c0.33,5.29,0.79,10.58,1.33,15.87
				c1.01,10.59,2.39,21.15,4.12,31.71c-3.46-10.15-5.89-20.61-8-31.14c-1-5.27-1.88-10.57-2.66-15.89
				c-0.78-5.32-1.34-10.67-1.84-16.03c-1.01-10.72-1.4-21.51-1.19-32.31c0.11-5.4,0.39-10.8,0.8-16.2
				c0.46-5.39,1.08-10.78,1.86-16.14c3.22-21.41,9.58-42.64,20.31-61.65c2.72-4.72,5.61-9.34,8.84-13.72
				c3.27-4.35,6.75-8.53,10.48-12.47c3.79-3.88,7.78-7.54,12-10.9C1238.17,503.05,1242.63,500.03,1247.24,497.32z"/>
		</g>
		<g>
			<path d="M1147.46,543.8c-0.96,1.03-1.91,2.07-2.82,3.13c-0.93,1.04-1.83,2.1-2.73,3.17c-1.77,2.15-3.49,4.31-5.15,6.51
				c-3.32,4.4-6.37,8.94-9.07,13.62c-2.7,4.69-5.04,9.52-6.88,14.49c-1.85,4.97-3.2,10.07-3.82,15.25l-0.15,0.97l-0.08,0.97
				l-0.15,1.95c-0.15,1.3-0.12,2.6-0.11,3.9l-0.02,1.95c0,0.65,0.09,1.3,0.13,1.95l0.15,1.95c0.05,0.65,0.09,1.3,0.21,1.94
				c0.58,5.2,2.13,10.27,3.93,15.29c3.87,9.97,9.79,19.32,16.49,28.38c-9.06-6.71-16.83-15.44-22.24-25.82l-0.52-0.96l-0.44-1
				l-0.88-2.02c-0.58-1.35-1.18-2.69-1.59-4.11c-0.44-1.41-0.93-2.81-1.32-4.23l-0.94-4.35c-0.18-0.72-0.27-1.46-0.35-2.2
				l-0.25-2.22c-0.07-0.74-0.19-1.48-0.22-2.22l-0.06-2.23c-0.03-1.49-0.07-2.98,0.07-4.46l0.15-2.23l0.08-1.11
				c0.04-0.37,0.1-0.74,0.16-1.1c0.24-1.46,0.44-2.94,0.73-4.39l1.03-4.32l1.35-4.21c0.48-1.39,1.06-2.74,1.61-4.1
				c2.32-5.39,5.26-10.45,8.66-15.11c3.41-4.66,7.23-8.96,11.42-12.83c2.11-1.92,4.26-3.77,6.53-5.48
				C1142.66,546.81,1144.98,545.18,1147.46,543.8z"/>
		</g>
		<g>
			<path d="M965.86,237.63c4.96-1.38,10.01-2.39,15.07-3.31c5.06-0.94,10.16-1.63,15.28-2.27c10.23-1.2,20.54-1.86,30.87-2.03
				c10.33-0.16,20.68,0.19,31,1.07c5.16,0.49,10.31,1.04,15.45,1.78l3.85,0.55l3.84,0.66c2.55,0.46,5.12,0.83,7.66,1.39
				c10.2,1.97,20.26,4.73,30.14,7.98c2.46,0.86,4.92,1.69,7.37,2.58l7.26,2.89c1.21,0.47,2.41,0.97,3.59,1.53l3.56,1.62
				c2.36,1.09,4.74,2.15,7.03,3.4l6.9,3.64l6.7,4c2.25,1.3,4.38,2.79,6.53,4.26l3.2,2.21l1.6,1.1l1.54,1.19l6.11,4.8
				c1.03,0.78,1.96,1.69,2.94,2.54l2.87,2.6l2.85,2.61c0.94,0.88,1.81,1.84,2.71,2.76c1.77,1.88,3.55,3.73,5.28,5.62
				c-8.35-6.02-16.65-11.85-25.47-16.83l-1.62-0.98l-1.67-0.89l-3.34-1.78c-2.23-1.18-4.41-2.44-6.71-3.47l-6.79-3.28l-6.93-2.98
				c-9.29-3.83-18.69-7.34-28.35-10.1c-2.39-0.76-4.81-1.41-7.24-2.06c-2.43-0.64-4.83-1.36-7.29-1.89l-7.32-1.76l-7.38-1.52
				c-2.45-0.56-4.94-0.94-7.41-1.4l-3.71-0.67l-3.73-0.58c-2.49-0.37-4.96-0.84-7.47-1.13l-7.49-0.99
				c-10.01-1.21-20.08-2.06-30.19-2.65c-10.11-0.59-20.25-0.87-30.43-0.92C986.31,236.9,976.11,237.09,965.86,237.63z"/>
		</g>
		<path class="st10" d="M735.92,584.09c0,0,58.17-15.49,147.51-15.49c80.32,0,132.02,26.65,132.02,26.65s-40.46,28.34-8.68,68.18
			c21.76,27.27,94.56,0.25,138.21,19.21c41.53,18.04,44.01,59.5,44.01,59.5s20.39-71.02,50.2-138.21
			c44.28-99.78,91.73-142.55,91.73-142.55s-29.6,8.76-55.16-8.06c-24.11-15.87-41.53-56.4-41.53-56.4s34.7-74-30.37-128.92
			c-139.38-117.64-370.01-1.24-370.01-1.24s4.31,83.54-10.06,150.28C807.77,491.37,735.92,584.09,735.92,584.09z"/>
		<path class="st11" d="M735.92,584.09c0,0,58.17-15.49,147.51-15.49c80.32,0,132.02,26.65,132.02,26.65s-40.46,28.34-8.68,68.18
			c21.76,27.27,94.56,0.25,138.21,19.21c41.53,18.04,44.01,59.5,44.01,59.5s20.39-71.02,50.2-138.21
			c44.28-99.78,91.73-142.55,91.73-142.55s-29.6,8.76-55.16-8.06c-24.11-15.87-41.53-56.4-41.53-56.4s34.7-74-30.37-128.92
			c-139.38-117.64-370.01-1.24-370.01-1.24s4.31,83.54-10.06,150.28C807.77,491.37,735.92,584.09,735.92,584.09z"/>
		<g>
			<path d="M1238.81,398.9c-4.65,10.22-10.34,19.86-16.62,28.98c-6.29,9.13-13.17,17.75-20.32,26.06
				c-14.32,16.63-29.7,32.05-44.32,48.04c-14.59,15.98-28.61,32.62-39.23,51.46c-5.29,9.41-9.69,19.35-12.69,29.75
				c-3.02,10.39-4.66,21.21-4.88,32.09c-0.2-10.88,1.02-21.8,3.67-32.41c2.63-10.62,6.7-20.86,11.69-30.61
				c10.04-19.53,23.62-36.94,37.68-53.58c14.1-16.66,28.86-32.65,42.3-49.52c13.41-16.84,25.55-34.71,33.55-54.24
				c1.05-2.56,3.97-3.78,6.52-2.73c2.56,1.05,3.78,3.97,2.73,6.52c-0.02,0.05-0.04,0.11-0.07,0.16L1238.81,398.9z"/>
		</g>
		<g>
			<path d="M834.81,263.32c0.74,0.64,1.3,1.2,1.91,1.8c0.6,0.59,1.18,1.19,1.74,1.8c1.14,1.21,2.22,2.47,3.27,3.74
				c2.09,2.55,3.99,5.24,5.7,8.03c1.72,2.78,3.14,5.74,4.34,8.75c1.19,3.02,1.93,6.17,2.41,9.3c-1.13-2.97-2.47-5.8-4.19-8.39
				c-1.73-2.58-3.61-5.02-5.74-7.24c-2.12-2.22-4.37-4.29-6.75-6.19c-1.19-0.95-2.4-1.86-3.64-2.72c-0.62-0.43-1.24-0.85-1.87-1.25
				c-0.61-0.39-1.29-0.81-1.82-1.1L834.81,263.32z"/>
		</g>
		<g>
			<path d="M1015.73,589.88c0.58,0.22,0.86,0.38,1.27,0.56l1.08,0.54c0.72,0.36,1.36,0.75,2.05,1.13c1.31,0.79,2.61,1.58,3.84,2.44
				c2.49,1.67,4.82,3.51,7.07,5.39c4.49,3.8,8.55,7.97,12.33,12.33l2.77,3.32c0.91,1.11,1.74,2.28,2.62,3.42
				c1.77,2.25,3.32,4.66,4.94,7c0.83,1.16,1.54,2.4,2.29,3.6l2.23,3.63c1.4,2.47,2.75,4.96,4.11,7.43
				c-1.72-2.25-3.41-4.51-5.14-6.72l-2.71-3.23c-0.91-1.07-1.78-2.17-2.75-3.18c-1.92-2.05-3.76-4.15-5.79-6.06
				c-1-0.97-1.97-1.97-3-2.9l-3.11-2.77c-4.2-3.6-8.59-6.94-13.2-9.8c-2.31-1.41-4.65-2.76-7.05-3.89c-1.19-0.6-2.4-1.1-3.59-1.6
				c-0.6-0.22-1.2-0.48-1.78-0.66l-0.87-0.29c-0.24-0.06-0.62-0.19-0.7-0.19L1015.73,589.88z"/>
		</g>
	</g>
	<path class="st12" d="M611.29,938.33l193.14-698.85l40.54-14.75c0,0-166.37,467.8-186.6,730.97
		C657.5,966.99,611.29,938.33,611.29,938.33z"/>
	
		<ellipse transform="matrix(0.3351 -0.9422 0.9422 0.3351 -471.5403 1228.0806)" class="st13" cx="634.32" cy="948.12" rx="14.78" ry="25.13"/>
</g>
<g id="Layer_1">
	<g>
		<path id="path132" class="st14" d="M508.75,404.26c0,0-71.63,6.16-83.01,31.08"/>
		<path id="path28" class="st15" d="M556.82,524.71l-55.37,8.34l-75.05,8.34l-48.7,1.33l-47.03-1.33l-36.36-11.34l-32.02-34.69
			l-25.02-70.71l-5.34-15.34l-33.36-11.34l-19.68-31.69l-13.68-46.03l15.34-40.36l36.36-12.68l29.35,13.68l13.68,30.35l16.68-3
			l5.34-7l-5.34-32.02l-1.33-40.36l8.34-55.37l-0.33-31.69l25.35-40.36l44.7-32.02l78.05-33.36l86.39,12.68l75.05,54.04l34.69,55.37
			l22.01,40.36l5.34,100.07l-16.68,86.39l-30.35,76.38L578.5,501.7"/>
		<path id="path30" class="st16" d="M509.46,764.87l-198.8,8.34v33.36l16.68,116.74l-8.34,9.67l-138.76-47.03l-9.67-16.68
			l-13.68-157.11l-32.02-94.06l-7-22.01l111.41-76.72l34.69-13.68l30.35,37.36l26.35,23.68l30.35,9.67l13.68,4l16.68,72.05
			l12.68,15.34l32.02-11.34l-21.68,43.36l120.75,57.04L509.46,764.87"/>
		<path id="path32" class="st17" d="M179.9,279.88l36.36-12.68l29.35,13.68l13.68,30.35l16.68-3l4-16.68l-8.34-32.02l8.34-76.38
			l-7-41.69l25.02-29.35l54.04-43.03l-15.34-21.01l-76.38,37.36l-32.02,25.02l-18.01,38.69l-28.02,37.36l-8.34,44.7L179.9,279.88"/>
		<path id="path34" class="st18" d="M237.27,149.46c0,0,20.68-51.37,104.07-76.38s4-18.01,4-18.01l-90.39,34.69l-34.69,34.69
			l-15.34,28.02L237.27,149.46"/>
		<path id="path36" class="st18" d="M195.58,270.54c0,0-29.35-97.07,82.06-111.41l-4-16.68l-76.38,18.01l-22.68,72.72l5.34,47.03
			L195.58,270.54"/>
		<path id="path38" class="st14" d="M239.61,399.63l18.35-17.34c0,0,8.34,0.67,9.67,10.67c1.33,9.67,5.34,97.07,65.38,144.76
			c5.34,4-44.7-7-44.7-7L243.61,461"/>
		<path id="path40" class="st14" d="M495.78,372.94c0,0,3.34-42.03,14.68-38.69s11.34,14.68,11.34,14.68
			S494.11,366.61,495.78,372.94"/>
		<path id="path46" class="st14" d="M253.95,310.57c0,0-53.04-32.02-58.37-1.33c-5.34,30.35-18.01,53.04,8.34,84.72l-18.01-5.34
			l-16.68-43.03l-5.34-41.69l32.02-33.36l36.36,3l20.68,16.68L253.95,310.57"/>
		<path id="path48" class="st14" d="M278.97,222.84c0,0,23.68-122.08,143.1-146.1c98.4-19.68,150.1,4,169.78,26.35
			c0,0-87.39-104.4-170.78-72.05s-144.76,90.39-143.1,128.09C279.64,222.84,278.97,222.84,278.97,222.84"/>
		<path id="path52" class="st14" d="M481.1,200.7c23.05-30.59-11.11-73.28-67.19-63.68c-36.2,6.21-52.54,28.38-49.29,35.73
			c2.64,7.07-3.28,16.83,3.71,11.96c6.99-4.88,16.3-28.49,32.87-28.63c16.12,0.03,42.51,3.27,45.9,19.12"/>
		<path id="path52_1_" class="st14" d="M560.51,206.95c-23.05-30.59,8.04-73.18,68.01-59.78c25.12,5.61-35.53,14.04-38.93,29.89"/>
		<path id="path54" class="st19" d="M293.98,542.73L163.56,601.1c0,0,54.04,215.48,26.35,282.19l-19.68-7l-1.33-82.06l-36.02-155.44
			l-15.34-43.03l136.42-91.73L293.98,542.73"/>
		<path id="path56" class="st19" d="M307.66,661.81L326,684.49v83.39h-22.01c0,0-3-58.37-3-65.38c0-7,3-32.02,3-32.02"/>
		<path id="path58" class="st19" d="M307.99,780.22l-62.71,3l18.01,12.68l44.7,7"/>
		<path id="path60" class="st16" d="M521.8,766.54l51.37-1.33l12.68,128.09l-52.7,6.67L521.8,766.54"/>
		<path id="path62" class="st16" d="M536.14,766.54l78.05-4c0,0,32.02-80.39,32.02-84.72c0-4.34,28.02-116.74,28.02-116.74
			l-62.71-65.38l-12.68-11.34l-33.36,33.36v129.42L536.14,766.54"/>
		<path id="path64" class="st19" d="M570.83,756.54l-48.7,9.67l7,38.69c18.01,8.34,48.7-13.68,48.7-13.68"/>
		<path id="path66" class="st19" d="M571.83,513.37l97.07,72.05l3-33.36l-73.72-68.05L571.83,513.37"/>
		<path id="path68" class="st20" d="M356.35,1040.06l-28.69-116.75l-14.01-86.39l-2.67-63.71l130.09-7h80.72l-7.34,146.1
			l12.68,112.74l-1.33,20.68l-105.4,8.34L356.35,1040.06"/>
		<path id="path70" class="st18" d="M504.12,764.87c0,0-7,144.76,13.68,247.17c0,0-41.69,26.35-103.07,33.36l116.75-4l13.68-8.34
			L528.47,804.9l-4-48.7"/>
		<path id="path72" class="st20" d="M588.18,881.62l54.04-15.34l103.07-5.34l15.34-47.03l-28.02-82.06l-32.02-4l-44.7,13.68
			l-42.7,20.68l-22.68-4l-17.34,7"/>
		<path id="path74" class="st18" d="M587.51,854.27c0,0,36.36-16.68,41.69-15.34l-15.34-76.38l18.01-7c0,0,12.68,72.05,12.68,80.39
			c0,0,78.05,4.34,84.72,4.34c0,0,16.68-32.02,12.68-65.38l15.34,44.7l1.33,25.02l-22.01,33.36l-25.02,5.34l-41.69-1.33
			l-13.68-18.01l-48.7,7l-15.34,5.34"/>
		<path id="path76" class="st20" d="M532.81,755.2l-30.35-78.05l-32.02-46.03c0,0,7-19.68,16.68-19.68c9.67,0,32.02,0,32.02,0
			l30.35,11.34l-3,51.37L532.81,755.2"/>
		<path id="path78" class="st18" d="M538.48,729.18c0,0-38.69-75.05-38.69-86.39c0,0,7-16.68,16.68-12.68s30.35,15.34,30.35,15.34
			v-26.02l-47.03-10.01l-32.02,4l54.04,128.09l11.34,1.33"/>
		<path id="path80" class="st20" d="M369.03,545.73l-38.36-4l-36.36-11.34v12.68l17.34,19.68l55.37,25.02"/>
		<path id="path82" class="st18" d="M306.65,549.73c0,0,43.03,18.01,57.04,13.68l1.33,16.68l-38.69-8.34l-23.68-16.68L306.65,549.73
			"/>
		<path id="path84" class="st21" d="M588.18,616.77c-23.68-0.67-45.03-3.34-63.38-8.67c1.33-7.34-1.33-15.01,0.67-20.68
			c5-3.67,13.68-3.67,21.68-4.67c-6.67-3.34-16.34-4.67-24.02-3c0-5.34-2.67-8.67-4-13.01c13.34-4.67,44.7-36.02,62.04-25.35
			c8.34,5,12.01,33.02,12.68,46.36C594.51,599.43,592.85,611.1,588.18,616.77"/>
		<path id="path86" class="st22" d="M588.18,616.77c-23.68-0.67-45.03-3.34-63.38-8.67c1.33-7.34-1.33-15.01,0.67-20.68
			c5-3.67,13.68-3.67,21.68-4.67c-6.67-3.34-16.34-4.67-24.02-3c0-5.34-2.67-8.67-4-13.01c13.34-4.67,44.7-36.02,62.04-25.35
			c8.34,5,12.01,33.02,12.68,46.36C594.51,599.43,592.85,611.1,588.18,616.77z"/>
		<path id="path88" class="st21" d="M475.1,578.08c0,1.67,0,3.67-0.33,5.34c-7.34,5-19.35,4.67-27.35,8.67
			c12.01,0.33,21.35,3.34,29.69,7.34c0,4.67-0.33,9.34-0.33,13.34c-13.34,9.34-26.02,23.02-41.69,31.69
			c-7.34,4-33.69,14.68-41.69,13.01c-4.67-1.33-5-6.67-6.67-12.01c-3.67-11.34-13.01-29.35-13.34-46.36
			c-0.67-21.68-3.34-57.37,20.01-53.37c18.68,3.67,40.36,12.01,55.04,20.01C456.76,571.41,461.76,577.42,475.1,578.08"/>
		<path id="path90" class="st22" d="M475.1,578.08c0,1.67,0,3.67-0.33,5.34c-7.34,5-19.35,4.67-27.35,8.67
			c12.01,0.33,21.35,3.34,29.69,7.34c0,4.67-0.33,9.34-0.33,13.34c-13.34,9.34-26.02,23.02-41.69,31.69
			c-7.34,4-33.69,14.68-41.69,13.01c-4.67-1.33-5-6.67-6.67-12.01c-3.67-11.34-13.01-29.35-13.34-46.36
			c-0.67-21.68-3.34-57.37,20.01-53.37c18.68,3.67,40.36,12.01,55.04,20.01C456.76,571.41,461.76,577.42,475.1,578.08z"/>
		<path id="path92" class="st21" d="M488.44,604.1c-2-11.67-4.67-15.01-3.34-25.35C516.46,557.74,522.47,614.44,488.44,604.1"/>
		<path id="path94" class="st22" d="M488.44,604.1c-2-11.67-4.67-15.01-3.34-25.35C516.46,557.74,522.47,614.44,488.44,604.1z"/>
		<path id="path96" class="st23" d="M534.14,613.44c0,0-9.67-13.68-3-18.01c6.67-4,13.68,0,18.01-7c4-7,0-11.34,1.33-19.68
			c1.33-8.34,8.34-9.67,15.34-11.34s26.35-4,29.35,3l-8.34-25.02l-16.68-5.34l-52.7,30.35l-3,15.34v30.35"/>
		<path id="path98" class="st23" d="M388.04,659.47c-1.67-21.68-3.34-43.36-5.34-65.04c-3-32.69,8.01-26.68,36.02-26.68
			c4,0,26.35,5,28.02,8.34c7.34,15.34-12.68,12.01,8.67,23.68c18.01,10.01,50.03-6,42.7-28.02c-4-5-21.35-1.67-27.35-4.67
			c-10.67-5.34-21.68-11.34-32.69-17.01c-13.68-7-46.03-17.34-60.37-7.34c-37.36,25.35,2.67,88.73,16.01,115.08"/>
		<path id="path100_1_" d="M477.69,206.95c-31.09-46.17-74.63-38.73-111.54-23.77c-8.15-12.88,9.37-23.19,18.99-27.87
			c25.19-12.92,77.75-11.87,97.74,13.43C492.32,179.55,497.03,200.96,477.69,206.95"/>
		<path id="path100_2_" d="M567.34,209.59c14.53-30.33,37.42-39.39,61.35-39.39c10.88,0,2.92-19.8-2.69-20.2
			c-24.32-1.71-56.57,7.07-68.06,27.02C551.12,187.63,549.75,206.85,567.34,209.59"/>
		<path id="path110_1_" class="st14" d="M588.83,448.06c-2.17-11.58-22.93-51.51-60.75-46.03c-0.62,7.4-1.98,12.99-0.75,17
			c26.2,2.77,37.23,16.28,57.27,25.53"/>
		<path id="path106" d="M602.52,361.6c-27.02,17.34-57.37,36.36-102.07,32.02c-9.67-8.34-13.34-26.68-3.67-38.69
			c5,8.34,1.67,23.35,15.01,26.02c25.35,4,54.7-15.34,73.05-22.68c11.34-19.35-0.67-26.02-11.34-38.36
			c-20.68-25.02-48.7-56.37-47.37-93.73c8.34-6.34,9.34,9.34,10.34,12.01c10.67,25.35,38.36,58.04,58.04,79.72
			c5,5.34,13.01,10.34,13.68,14.01C610.86,342.59,601.52,354.93,602.52,361.6"/>
		<path id="path108" d="M244.28,343.26c-8.34-5-10.34-26.35-20.35-26.68c-14.68-0.67-11.67,28.02-11.67,44.7
			c-10.01-8.67-11.67-36.36-4-50.37c-8.34-4-12.01,4.67-16.68,7.34C197.25,275.55,253.95,298.23,244.28,343.26"/>
		<path id="path110" d="M589.59,449.49c-11.71-22.19-28.05-46.55-62.27-47.47c-0.62,7.4-1.23,18.19,0,22.19
			C553.53,426.99,569.56,440.25,589.59,449.49"/>
		<path id="path112_1_" class="st14" d="M426.74,433.47c21.89-11.71,60.2-15.99,90.1-15.38c1.54-6.47,1.54-9.58,1.54-17.6
			c-41.57-7.54-89.96,8.01-92.37,34.29"/>
		<path id="path112" d="M424.99,435.32c21.89-11.71,61.96-12.64,91.86-12.02c1.54-6.47,1.54-14.49,1.54-22.5
			C480.47,398.63,435.41,410.25,424.99,435.32"/>
		<path id="path116" class="st24" d="M610.55,645.64c-25.78,37.83-49.77,76.43-80.44,110.06c12.89-32.1,18.22-85.99,20-126.88
			C576.33,617.74,599.44,630.35,610.55,645.64"/>
		<path id="path118" d="M704.25,763.54c-21.68,4-36.69,25.02-57.37,23.68C657.89,771.21,677.9,764.21,704.25,763.54"/>
		<path id="path120" d="M713.26,796.9c-17.34,1.67-38.03,4.67-56.04,3.34C665.9,787.56,698.25,791.89,713.26,796.9"/>
		<path id="path122" d="M719.6,826.25c-19.68,0.33-44.03,0-63.04-1.67C667.9,812.91,706.59,820.24,719.6,826.25"/>
		<path id="path124" class="st18" d="M563.49,905.3c3,24.68,12.68,49.7,11.34,76.72c-10.67,3.67-17.01,7-31.69,6.67
			c-0.67-23.02-4-58.37-3.34-80.05C546.82,909.64,557.82,904.3,563.49,905.3"/>
		<path id="path126" class="st15" d="M531.47,541.06c-9.67,6.34-18.01,14.68-27.35,21.35c-21.35,0.67-32.69-1.33-48.03-13.68
			c0.33-0.67,1.67-0.33,1.67-1.67C480.1,557.4,509.12,543.06,531.47,541.06"/>
		<path id="path128" class="st24" d="M413.06,694.83c6.34-26.68,30.35-41.03,52.7-55.37c23.02,28.69,36.69,66.04,52.03,101.73
			C481.44,730.18,444.75,712.51,413.06,694.83"/>
		<path id="path130" d="M539.81,909.3c-0.67,22.01,2,57.04,3.34,80.05c14.68,0,20.68-3.34,31.69-6.67
			c1.33-27.02-8.67-52.03-11.34-76.72C557.82,904.3,546.82,909.64,539.81,909.3z M312.66,784.55
			c9.67,88.39,23.68,163.11,49.37,241.5c56.7,17.01,125.08,18.68,175.45,3.34c-9.34-44.03-5-98.07-10.34-145.1
			c-4-35.36-2-71.38-7.34-107.07C458.09,763.54,372.37,773.21,312.66,784.55z M533.14,776.55c-0.33,38.03,1.67,75.38,4.67,113.41
			c14.68-2,24.68-3.67,38.03-6.67c-4.67-36.69-3.67-78.05-13.01-110.07C552.82,773.21,543.48,773.21,533.14,776.55z M607.52,770.88
			c-7-1.67-15.01,0-21.68,0c3,30.69,10.67,65.04,13.34,97.4c10.34,0.33,16.01-4.67,24.68-6.34
			C624.2,833.59,621.2,794.23,607.52,770.88L607.52,770.88z M719.6,872.95c21.68-5.34,35.36-31.69,29.35-59.04
			c-4-18.35-11.34-53.04-19.35-64.71c-6-8.67-21.35-20.01-33.69-12.01c-20.01,13.01-56.04,16.68-70.38,32.69
			c7.34,24.68,9.67,58.37,13.01,89.73c25.35,1.67,56.37-7,77.05,2c-14.68,4.67-33.69,4.67-46.36,11.67
			C679.57,877.95,703.59,876.62,719.6,872.95L719.6,872.95z M517.8,741.19c-15.34-35.69-29.35-73.05-52.03-102.07
			c-22.01,14.68-46.36,28.69-52.7,55.37C444.75,712.51,481.44,730.18,517.8,741.19z M555.15,629.78
			c-1.33,36.02-5.34,83.06-15.01,110.74c23.02-29.35,41.36-63.04,60.37-96.06C592.51,631.78,575.17,620.78,555.15,629.78z
			 M512.79,614.77c-8.67-0.67-16.34,10.01-27.02,5.34c-2.67,3-5,6-7.34,8.67c24.68,29.69,36.02,72.05,55.04,107.07
			c10.34-33.69,9.34-70.71,11.34-107.74C530.14,629.45,522.47,616.11,512.79,614.77z M485.11,578.42
			c-0.67,10.34,1.33,13.68,3.34,25.35C522.47,614.44,516.46,557.74,485.11,578.42z M448.08,566.41
			c-14.68-8.01-36.36-16.68-55.04-20.01c-23.35-4.67-20.68,31.69-20.01,53.37c0.67,17.01,9.67,35.02,13.34,46.36
			c1.67,5.34,2,10.67,6.67,12.01c8.01,1.67,34.02-8.67,41.69-13.01c16.01-8.67,28.35-22.68,41.69-31.69c0-4.67,0.33-9.34,0.33-13.34
			c-8.01-4-17.34-7-29.69-7.34c8.01-4,20.01-4,27.35-8.67c0-1.67,0-3.67,0.33-5.34C461.76,577.42,456.76,571.41,448.08,566.41z
			 M309.32,541.39c-12.01,12.01,33.69,28.69,48.37,29.69c0-8.01,4.67-15.01,3.34-20.35C344.01,547.39,321.33,549.4,309.32,541.39z
			 M457.76,546.73c0,1.33-1.67,0.67-1.67,1.67c15.34,12.01,27.02,14.68,48.03,13.68c9.67-6.67,18.01-15.01,27.35-21.35
			C509.12,543.06,480.1,557.4,457.76,546.73z M593.51,588.09c-0.67-13.68-4-41.36-12.68-46.36c-17.34-10.34-48.7,20.68-62.04,25.35
			c1.33,4,3.67,7.34,4,13.01c8.01-2,17.34-0.33,24.02,3c-8.01,0.67-16.68,0.67-21.68,4.67c-2,5.34,0.33,13.01-0.67,20.68
			c18.68,5.34,40.03,8.01,63.38,8.67C592.85,611.1,594.51,599.43,593.51,588.09z M289.31,553.07c-3.67-2.67-29.35-36.02-33.02-34.69
			c-46.36,18.35-89.73,49.7-128.09,79.72c36.69,79.39,51.7,176.12,54.04,269.18c42.03,19.68,79.39,48.37,136.76,51.37
			c-6.67-46.7-12.68-88.73-16.34-133.09c-14.68-6.34-35.02,0.33-48.37-2c0-16.34,20.35-7,22.01-18.01c1.33-8.34-11.34-8.67-7-21.68
			c10.34,3.67,16.34,12.01,27.02,15.34c10.34-22.68,0-62.04,1.33-81.05c0.33-3.34,1.67-19.68,9.67-16.68
			c7,2.67-0.33,42.7,0.33,60.37c0.67,16.34-2,32.02,4.67,42.7c55.37-7.34,111.74-12.68,171.45-14.01
			c-13.34-6-28.69-10.67-46.03-20.68c-9.34-5.34-38.69-16.34-41.36-25.02c-4-14.01,11.34-21.68,13.68-33.69
			c-28.02,15.34-33.36-14.68-40.03-36.02c-6-19.35-9.67-33.36-10.67-44.7C335.67,579.42,309.99,567.74,289.31,553.07L289.31,553.07z
			 M569.5,522.71c38.36-18.68,45.36,70.05,30.35,98.4c2.67,8.34,10.34,11.67,13.68,19.68c-21.68,38.36-45.36,74.72-67.38,112.74
			c16.34-10.01,39.69-1.67,58.71-9.67c7-3,12.01-18.68,17.34-31.69c14.68-35.36,30.02-80.05,36.69-113.74c1.67-7.34,6-24.68,5-31.35
			c-1.67-12.01-18.35-21.35-26.68-28.69c-15.34-14.01-25.35-26.35-41.69-39.69C589.18,508.04,574.83,514.71,569.5,522.71
			L569.5,522.71z M200.92,180.82c-18.35,20.01-14.68,58.04-12.01,85.06c33.36-20.68,77.05,1.67,76.72,37.02
			c16.01-0.33,6-19.68,3-32.02c-9.34-40.69,16.01-85.06,1.33-122.08C241.28,150.46,217.93,162.14,200.92,180.82L200.92,180.82z
			 M332.67,63.74c-41.69,11.67-94.73,42.03-111.74,79.39c13.34-2,22.68-8.67,35.36-9.67c5-0.33,11.34,2,17.01,0.67
			c11.34-3,20.68-28.02,29.35-37.36c8.34-9.34,18.35-13.01,25.02-21.68c4.67-2,10.67-2,11.34-8.67
			C336.67,64.4,334.67,62.74,332.67,63.74z M549.15,74.41c-43.03-24.35-116.41-42.36-162.11-19.68
			c-37.02,18.35-87.06,49.37-104.07,87.39c16.01,37.36-4.67,71.71-6,109.74c-0.67,20.01,9.67,38.03,10.34,59.71
			c-5.34,9.34-22.01,10.01-33.69,9.67c-3.67-19.68-10.67-41.36-30.69-43.36c-28.35-3-49.37,20.35-50.37,45.03
			c-1.67,28.69,22.01,76.72,55.37,73.38c13.01-1.33,16.34-14.01,30.35-14.01c7.34,15.34-11.67,20.01-13.68,30.69
			c-0.33,3,1.67,13.68,3,19.35c6.34,25.02,19.68,57.37,33.02,76.72c17.01,24.02,50.37,28.02,86.39,30.35
			c6.34-13.68,30.02-12.68,45.36-9.34c-18.35-7-35.36-25.02-49.7-40.36c-16.34-18.01-33.02-37.02-33.69-60.71
			c30.69,42.7,56.37,80.05,112.08,98.73c42.7,14.01,91.73-6.67,124.08-29.35c13.34-9.67,21.68-24.68,31.35-38.36
			c36.02-51.7,52.7-125.42,49.37-196.8c-1.67-29.69-3.72-57.68-11.34-78.72C614.47,129.06,595.64,107.03,549.15,74.41L549.15,74.41z
			 M629.2,739.86c33.69-16.68,96.73-45.03,118.08,0c8.01,16.68,17.01,44.7,20.68,62.04c6,24.35-6.34,75.05-31.35,83.39
			c-22.01,7-47.37,6.67-74.05,1.33c-3-2.67-6.67-7-9.34-11.67c-18.68-0.67-36.69,0.67-51.7,8.67c1.33,14.01-8.01,16.34-17.01,19.35
			c-6.67,26.35,13.34,60.04,8.34,83.72c-3.34,17.01-24.02,19.68-39.69,23.02c-0.33,9.67,0.67,17.01,1.67,25.35
			c-3.34,13.01-19.35,20.35-34.02,22.01c-49.37,5.67-123.42,8.34-170.45-8.34c-13.34-32.02-23.35-71.71-34.69-108.41
			c-46.03,5-83.39-20.01-118.41-36.36c-12.01-5.34-28.69-8.67-33.36-18.35c-4.67-9.34-2.67-27.02-3.67-44.03
			c-3-43.36-5-85.06-16.68-129.42c-5-20.01-14.01-37.36-20.35-56.7c-6-18.01-16.01-39.69-18.35-57.37
			c-3.67-26.35,20.68-27.35,36.69-39.36c24.68-17.34,43.7-27.02,70.05-43.36c8.01-4.67,31.35-16.68,34.02-22.01
			c5.34-10.67-9.34-26.35-13.01-34.69c-6.34-13.34-9.34-25.02-10.34-38.36c-22.01-3.34-39.36-16.68-49.37-31.69
			c-16.68-24.68-28.35-70.05-13.68-105.07c1.33-3,6.67-8.01,7.34-12.01c1.67-8.34-3-19.35-3.34-28.02
			c-1.67-45.03,7.34-83.72,38.03-97.4c12.68-49.37,56.37-65.38,98.07-89.73c15.34-9.01,32.69-15.01,50.37-21.35
			c63.38-23.35,157.27-14.96,210.31,24.4c22.68,16.68,58.04,52.37,70.71,78.39c33.69,68.05,34.53,178.07,11.18,261.13
			c-3.34,11.34-8.01,27.35-14.01,40.69c-4.67,9.34-18.35,28.02-16.68,36.36s31.69,31.35,38.03,37.36
			c11.67,11.34,33.36,26.02,35.36,40.03c2,15.01-6.67,35.36-10.67,50.03C659.56,652.47,645.88,696.83,629.2,739.86"/>
		<path id="path134" d="M526.14,644.79c0,4-3.34,7.34-7.34,7.34s-7.34-3.34-7.34-7.34s3.34-7.67,7.34-7.67
			S526.14,640.79,526.14,644.79"/>
		<path id="path136" d="M534.14,680.15c0,4-3.34,7.34-7.34,7.34s-7.34-3.34-7.34-7.34c0-4,3.34-7.67,7.34-7.67
			C530.14,672.81,534.14,676.15,534.14,680.15"/>
	</g>
</g>
<g id="Layer_5">
	<g id="Layer_6">
		<g>
			<path d="M432.87,457.51c2.04-1.61,4.14-3.1,6.28-4.46c2.14-1.39,4.32-2.68,6.52-3.95l3.32-1.83c1.13-0.56,2.27-1.07,3.41-1.61
				c1.14-0.54,2.29-1.03,3.45-1.53c1.15-0.5,2.31-1.02,3.47-1.47c4.61-2.02,9.46-3.42,14.31-4.82c2.43-0.69,4.86-1.34,7.37-1.82
				l7.51-1.35c10.12-1.36,20.55-1.9,31.09,0.2c0.65,0.08,1.31,0.25,1.97,0.43l1.96,0.52c1.3,0.35,2.6,0.68,3.87,1.1
				c1.29,0.51,2.57,0.99,3.82,1.54c0.63,0.27,1.25,0.53,1.86,0.82c0.62,0.34,1.23,0.66,1.83,1.02c2.4,1.33,4.72,2.97,6.68,4.98
				c1.97,1.95,3.68,4.31,4.34,7.08l0.01,0.06c0.06,0.27-0.1,0.54-0.37,0.6c-0.21,0.05-0.42-0.04-0.54-0.21
				c-0.59-0.9-1.42-1.81-2.33-2.54c-0.47-0.36-0.91-0.76-1.4-1.1l-1.52-0.93c-2.06-1.19-4.28-2.14-6.59-2.81l-1.71-0.57
				c-0.58-0.15-1.18-0.26-1.76-0.4l-3.53-0.78l-3.6-0.44c-1.2-0.12-2.39-0.35-3.61-0.38c-9.68-0.73-19.42,0.36-29.03,1.72
				c-4.8,0.81-9.63,1.42-14.38,2.56c-4.76,1.03-9.55,1.97-14.25,3.31c-9.47,2.36-18.78,5.3-28.16,8.05
				c-0.26,0.08-0.53-0.07-0.61-0.33c-0.06-0.2,0.01-0.4,0.17-0.52L432.87,457.51z"/>
		</g>
	</g>
	<g>
		<path class="st14" d="M572.55,243.2c0,0,10.87,47.56,41.65,44.84c23.78-2.1,50.41-57.89,11.45-74.63
			C603.67,203.97,572.55,243.2,572.55,243.2z"/>
		<path class="st6" d="M566.36,238.44c0,0,10.87,47.56,41.65,44.84c23.78-2.1,57.19-63.05,16.91-73.88
			C601.82,203.2,566.36,238.44,566.36,238.44z"/>
		<path class="st25" d="M566.36,238.44c0,0,10.87,47.56,41.65,44.84c23.78-2.1,57.19-63.05,16.91-73.88
			C601.82,203.2,566.36,238.44,566.36,238.44z"/>
		<path class="st20" d="M566.36,238.44c0,0,10.79,46.28,41.65,44.84c18.72-0.87,43.16-55.02,6.91-65.97
			C592.03,210.39,566.36,238.44,566.36,238.44z"/>
		<path class="st26" d="M566.36,238.44c0,0,10.87,47.56,41.65,44.84c23.78-2.1,57.19-63.05,16.91-73.88
			C601.82,203.2,566.36,238.44,566.36,238.44z"/>
		<g>
			<path d="M601.8,199.47c5.59-1.71,11.49-2.34,17.44-1.8c5.92,0.56,11.98,2.27,17.25,5.7c0.67,0.39,1.28,0.9,1.92,1.36l0.94,0.71
				l0.89,0.77c0.59,0.52,1.17,1.05,1.7,1.63c0.54,0.58,1.11,1.11,1.58,1.75c2,2.42,3.62,5.14,4.74,8.02c2.23,5.73,2.8,12,1.21,17.68
				c-1.34-5.66-3.36-10.79-6.14-15.23c-2.76-4.44-6.38-8.04-10.65-10.82c-4.26-2.79-9.2-4.69-14.41-6.17
				C613.05,201.56,607.53,200.66,601.8,199.47z"/>
		</g>
		<g>
			<path d="M601.8,199.47c5.59-1.71,11.49-2.34,17.44-1.8c5.92,0.56,11.98,2.27,17.25,5.7c0.67,0.39,1.28,0.9,1.92,1.36l0.94,0.71
				l0.89,0.77c0.59,0.52,1.17,1.05,1.7,1.63c0.54,0.58,1.11,1.11,1.58,1.75c2,2.42,3.62,5.14,4.74,8.02c2.23,5.73,2.8,12,1.21,17.68
				c-1.34-5.66-3.36-10.79-6.14-15.23c-2.76-4.44-6.38-8.04-10.65-10.82c-4.26-2.79-9.2-4.69-14.41-6.17
				C613.05,201.56,607.53,200.66,601.8,199.47z"/>
		</g>
		<path class="st6" d="M589.47,292.96c29.09-22.46,43.51,1.66,43.51,1.66"/>
		<g>
			<path d="M587.02,290.99c2.76-3.12,6.32-5.65,10.3-7.11l1.49-0.59c0.5-0.18,1.02-0.28,1.53-0.42c1.03-0.27,2.07-0.52,3.12-0.73
				c1.05-0.15,2.11-0.25,3.18-0.37c1.06-0.14,2.13-0.05,3.19-0.08c4.25,0.07,8.46,0.9,12.37,2.42c0.97,0.41,1.93,0.81,2.87,1.28
				c0.93,0.5,1.85,0.97,2.73,1.55c1.76,1.12,3.43,2.41,4.83,4.02c-4.17-0.52-7.99-1.09-11.78-1.51c-3.78-0.43-7.47-0.68-11.14-0.76
				c-1.84-0.11-3.66,0.04-5.5,0.03c-0.92,0.05-1.82,0.17-2.75,0.2c-0.46,0.03-0.93,0.04-1.39,0.09l-1.38,0.18
				C594.9,289.47,591.25,290.41,587.02,290.99z"/>
		</g>
		<path class="st14" d="M474.46,242.74c0,0-4.89,59.64-46.9,59.64c-47.24,0-69.25-75.36-36.39-90.72
			C423.07,196.74,474.46,242.74,474.46,242.74z"/>
		<ellipse cx="605.67" cy="250.79" rx="21.75" ry="25.5"/>
		<polyline class="st20" points="620.33,226.47 609.82,243.86 630.15,238.78 		"/>
		<path class="st27" d="M486.35,239.91c0,0-4.89,59.64-46.9,59.64c-47.24,0-69.25-75.36-36.39-90.72
			C434.96,193.91,486.35,239.91,486.35,239.91z"/>
		<path class="st20" d="M486.35,239.91c0,0-4.89,59.64-46.9,59.64c-31.72-0.25-55.73-64.37-22.86-79.73
			C448.49,204.9,486.35,239.91,486.35,239.91z"/>
		<ellipse cx="439.97" cy="259.77" rx="25.55" ry="31.22"/>
		<polyline class="st20" points="458.04,228.54 447.89,253.18 471.96,246.33 		"/>
		<path class="st26" d="M486.35,239.91c0,0-4.89,59.64-46.9,59.64c-47.24,0-69.25-75.36-36.39-90.72
			C434.96,193.91,486.35,239.91,486.35,239.91z"/>
		<g>
			<path d="M371.45,249.87c-0.46-4.27-0.52-8.68,0.21-13.03l0.27-1.64c0.08-0.55,0.18-1.09,0.34-1.63l0.87-3.23
				c0.28-1.09,0.76-2.11,1.14-3.16l0.61-1.58c0.22-0.52,0.5-1.01,0.75-1.52c1.93-4.11,4.67-7.86,7.85-11.14
				c3.19-3.28,6.85-6.11,10.8-8.35c7.91-4.48,16.69-6.88,25.4-7.75c4.37-0.43,8.74-0.48,13.07-0.16c2.16,0.16,4.32,0.41,6.45,0.77
				c2.13,0.37,4.26,0.8,6.32,1.45c-4.29,0.47-8.47,1.02-12.61,1.7c-4.13,0.67-8.21,1.45-12.19,2.43c-7.97,1.94-15.62,4.63-22.48,8.5
				l-2.53,1.5l-2.42,1.66c-0.83,0.53-1.54,1.19-2.33,1.77c-0.79,0.58-1.49,1.25-2.22,1.9c-2.89,2.61-5.52,5.53-7.69,8.84
				c-0.28,0.41-0.58,0.81-0.85,1.22l-0.75,1.29l-0.76,1.29c-0.25,0.43-0.53,0.86-0.73,1.32l-1.34,2.73c-0.5,0.9-0.78,1.88-1.2,2.82
				c-0.86,1.88-1.43,3.87-2.15,5.86c-0.39,0.99-0.61,2.02-0.9,3.04C372.07,247.8,371.79,248.84,371.45,249.87z"/>
		</g>
		<g>
			<path d="M408.49,309.69c0.89-1.15,1.79-2.35,2.87-3.35c0.52-0.52,1.05-1.06,1.62-1.53l1.75-1.39c2.42-1.75,5.07-3.25,7.88-4.35
				c2.81-1.1,5.75-1.91,8.72-2.39c2.98-0.47,5.99-0.65,8.98-0.62c5.98,0.14,11.86,1.23,17.42,3.1c5.54,1.9,10.88,4.44,15.48,8.12
				c-5.76-1-11.27-1.99-16.76-2.77c-5.48-0.79-10.91-1.31-16.29-1.45c-2.69-0.06-5.37,0.02-8.03,0.2c-2.67,0.19-5.3,0.57-7.94,1.07
				c-2.64,0.49-5.23,1.25-7.85,2.12C413.72,307.31,411.19,308.49,408.49,309.69z"/>
		</g>
		<path class="st6" d="M404.58,311.19c25.13-21.19,64.58-2.36,64.58-2.36"/>
	</g>
</g>
</svg>
