<?xml version="1.0" encoding="utf-8"?>
<!-- Generator: Adobe Adobe Illustrator 24.2.0, SVG Export Plug-In . SVG Version: 6.00 Build 0)  -->
<svg version="1.1" xmlns="http://www.w3.org/2000/svg" xmlns:xlink="http://www.w3.org/1999/xlink" x="0px" y="0px" width="530px"
	 height="418px" viewBox="0 0 530 418" style="enable-background:new 0 0 530 418;" xml:space="preserve">
<style type="text/css">
	.st0{fill:#FFFF00;}
	.st1{fill:#0071BC;}
	.st2{opacity:0.2196;fill:#757778;}
	.st3{fill:none;stroke:#000000;stroke-width:9;stroke-miterlimit:10;}
	.st4{fill:#7A4206;stroke:#000000;stroke-width:4;stroke-linecap:round;stroke-linejoin:round;stroke-miterlimit:10;}
	.st5{fill:#402201;stroke:#000000;stroke-width:4;stroke-linecap:round;stroke-linejoin:round;stroke-miterlimit:10;}
	.st6{fill:#E8E8E8;}
	.st7{opacity:0.2196;}
	.st8{fill:none;}
	.st9{fill:#EF3D3A;stroke:#FF0000;stroke-width:2;stroke-miterlimit:10;}
	.st10{font-family:'BradleyHandITCTT-Bold';}
	.st11{font-size:51px;}
	.st12{fill:none;stroke:#000000;stroke-width:4;stroke-linecap:round;stroke-linejoin:round;stroke-miterlimit:10;}
	.st13{fill:#F0D6B7;}
	.st14{fill:#335061;}
	.st15{fill:#6D6B6D;}
	.st16{fill:#DCD9D8;}
	.st17{fill:#F7E4CD;}
	.st18{fill:#49728B;}
	.st19{fill:#FFFFFF;}
	.st20{fill:#D33833;}
	.st21{fill:none;stroke:#D33833;stroke-width:2;}
	.st22{fill:#EF3D3A;}
	.st23{fill:#81B0C4;}
</style>
<g id="Layer_4">
	<g>
		<g>
			<path class="st0" d="M313.37,185.07v2.84H18.97v-0.3c0,0.1,0,0.2,0,0.3c0,81.31,65.91,147.22,147.22,147.22
				s147.22-65.91,147.22-147.22C313.41,186.96,313.39,186.01,313.37,185.07z"/>
		</g>
	</g>
	<g>
		<g>
			<path class="st1" d="M18.97,187.9h294.41v2.84c0.02-0.94,0.04-1.89,0.04-2.84c0-81.31-65.91-147.22-147.22-147.22
				S18.96,106.6,18.97,187.9c0,0.1,0,0.2,0,0.3V187.9z"/>
		</g>
	</g>
	<path class="st2" d="M21.42,185.07c-3.19-81.25,62.14-141.1,143.22-147.22C186.46,36.2,62.07,48.23,44.4,178.9
		c-5.31,39.29,14.18,109.47,14.18,109.47S25.02,276.54,21.42,185.07z"/>
	<circle class="st3" cx="166.18" cy="187.9" r="147.22"/>
</g>
<g id="Layer_3">
	<path class="st4" d="M241.31,363.05l73.52-266.01l15.43-5.61c0,0-63.33,178.06-71.03,278.24
		C258.9,373.96,241.31,363.05,241.31,363.05z"/>
	
		<ellipse transform="matrix(0.3351 -0.9422 0.9422 0.3351 -179.2881 479.5027)" class="st5" cx="250.08" cy="366.78" rx="5.63" ry="9.57"/>
	<g id="Layer_2">
		<path class="st6" d="M288.75,228.21c0,0,22.14-5.9,56.15-5.9c30.57,0,50.25,10.14,50.25,10.14s-15.4,10.79-3.3,25.95
			c8.28,10.38,35.99,0.09,52.61,7.31c15.81,6.87,16.75,22.65,16.75,22.65s7.76-27.04,19.11-52.61
			c16.86-37.98,34.92-54.26,34.92-54.26s-11.27,3.34-21-3.07c-9.18-6.04-15.81-21.47-15.81-21.47s13.21-28.17-11.56-49.07
			c-53.06-44.78-140.84-0.47-140.84-0.47s1.64,31.8-3.83,57.21C316.11,192.91,288.75,228.21,288.75,228.21z"/>
		<g class="st7">
			<g>
				<g>
					<path d="M324.04,164.62c-6.09,28.29-33.44,63.59-33.44,63.59s0.23-0.06,0.66-0.17c6.73-1.74,62.96-17.47,67.78-57.42
						c6.44-53.28-31.17-63.21-31.17-63.21S329.51,139.22,324.04,164.62z"/>
					<path d="M496.08,178.43c-9.18-6.04-15.81-21.47-15.81-21.47s13.21-28.17-11.56-49.07c-53.06-44.78-140.84-0.47-140.84-0.47
						s89.25-44.52,140.75,2.03c19.52,17.65,13.09,43.26,6.53,54.02c-7.53,12.34-22.4,26.75-34.1,41.89
						c-8.15,10.54-13.96,22.5-13.43,35.63c0.66,16.37-13.21,10.91-14.63,8.76c-10.68-16.19-16.01-17.29-16.01-17.29
						s-15.4,10.79-3.3,25.95c8.28,10.38,35.99,0.09,52.61,7.31c15.81,6.87,16.75,22.65,16.75,22.65s7.76-27.04,19.11-52.61
						c16.86-37.98,34.92-54.26,34.92-54.26S505.81,184.83,496.08,178.43z"/>
				</g>
			</g>
		</g>
		
			<rect x="295.77" y="129.32" transform="matrix(0.1392 -0.9903 0.9903 0.1392 140.7973 559.0161)" class="st8" width="192.33" height="138.4"/>
		<text transform="matrix(0.9903 0.1392 -0.1322 0.9408 333.0544 132.8681)"><tspan x="0" y="0" class="st9 st10 st11">STOP</tspan><tspan x="35.27" y="36.84" class="st9 st10 st11">the</tspan><tspan x="4.41" y="73.68" class="st9 st10 st11">WAR</tspan></text>
		<rect x="376.13" y="317.62" class="st8" width="0" height="0"/>
		<g>
			<path d="M291.93,225.93c3.67-0.86,7.42-2.04,11.06-3.32c3.66-1.29,7.28-2.71,10.84-4.28c3.55-1.58,7.09-3.23,10.52-5.08
				c3.46-1.79,6.83-3.77,10.17-5.8c-3.2,2.24-6.45,4.43-9.8,6.46c-3.33,2.07-6.77,3.95-10.25,5.78c-3.48,1.81-7.05,3.48-10.67,5.02
				c-3.64,1.54-7.28,2.96-11.15,4.13L291.93,225.93z"/>
		</g>
		<g>
			<path d="M291.67,225.19c5.24-2.42,10.4-5.46,15.29-8.74c4.91-3.28,9.63-6.88,14.08-10.8l1.68-1.45l1.62-1.52
				c1.07-1.02,2.17-2.02,3.22-3.07c2.05-2.15,4.17-4.23,6.07-6.51c3.99-4.41,7.45-9.26,10.8-14.19
				c-3.13,5.06-6.41,10.07-10.22,14.68c-1.82,2.38-3.86,4.56-5.84,6.81c-1.01,1.1-2.08,2.15-3.12,3.23l-1.57,1.61l-1.64,1.54
				c-4.32,4.15-8.95,7.99-13.8,11.53c-4.87,3.55-9.87,6.82-15.33,9.62L291.67,225.19z"/>
		</g>
		<g>
			<path d="M470.41,232.22c0.57-4.7,1.78-9.31,3.32-13.79c1.53-4.49,3.52-8.84,5.9-12.98c1.22-2.05,2.54-4.05,3.96-5.96
				c1.47-1.89,3.02-3.71,4.73-5.39c1.71-1.67,3.57-3.19,5.53-4.55c1.99-1.32,4.09-2.45,6.29-3.33c-2,1.27-3.91,2.61-5.69,4.11
				c-1.77,1.51-3.43,3.14-4.99,4.85c-3.08,3.46-5.77,7.26-8.1,11.28c-2.34,4.01-4.37,8.22-6.17,12.52
				C473.39,223.3,471.79,227.7,470.41,232.22z"/>
		</g>
		<g>
			<path d="M483.39,195.18c-3.17,2.55-6.15,5.29-8.71,8.41c-2.53,3.14-4.7,6.52-6.55,10.08c-3.57,7.18-5.81,14.98-6.96,22.93
				c-0.63,3.97-0.98,7.99-1.13,12.01c-0.18,4.03-0.13,8.06,0.02,12.1c0.18,4.04,0.5,8.07,0.97,12.09c0.43,4.03,1.05,8.04,1.82,12.03
				c-2.3-7.81-3.69-15.89-4.35-24.03c-0.63-8.14-0.55-16.38,0.69-24.5c0.65-4.05,1.46-8.09,2.74-12.01
				c1.28-3.91,2.81-7.75,4.82-11.35c2.02-3.59,4.43-6.95,7.19-9.99C476.79,199.99,479.96,197.36,483.39,195.18z"/>
		</g>
		<g>
			<path d="M445.4,212.87c-3.04,2.98-5.71,6.28-7.87,9.84c-1.06,1.79-2.02,3.63-2.73,5.56c-0.74,1.92-1.28,3.9-1.51,5.92
				c-0.55,4.03,0.07,8.17,1.63,11.99c1.58,3.82,3.95,7.34,6.66,10.63c-3.29-2.71-6.13-6.07-8.08-10c-0.94-1.97-1.68-4.07-2.05-6.26
				c-0.36-2.19-0.4-4.42-0.13-6.62c0.57-4.41,2.44-8.53,4.93-12.07C438.74,218.32,441.83,215.22,445.4,212.87z"/>
		</g>
		<g>
			<path d="M376.28,96.33c7.61-1.79,15.46-2.49,23.29-2.57c3.92-0.06,7.85,0.14,11.77,0.46c3.92,0.37,7.81,0.95,11.68,1.68
				c7.72,1.57,15.32,3.96,22.37,7.51c3.56,1.71,6.9,3.84,10.1,6.11c3.18,2.32,6.11,4.96,8.77,7.8c-3.12-2.35-6.24-4.64-9.59-6.57
				c-0.8-0.53-1.68-0.95-2.51-1.43c-0.84-0.46-1.67-0.95-2.55-1.35l-2.58-1.28l-2.63-1.16c-3.54-1.47-7.12-2.87-10.81-3.92
				c-3.67-1.1-7.39-2.08-11.16-2.78c-7.53-1.53-15.2-2.36-22.91-2.75C391.81,95.73,384.06,95.77,376.28,96.33z"/>
		</g>
		<path class="st12" d="M288.75,228.21c0,0,22.14-5.9,56.15-5.9c30.57,0,50.25,10.14,50.25,10.14s-15.4,10.79-3.3,25.95
			c8.28,10.38,35.99,0.09,52.61,7.31c15.81,6.87,16.75,22.65,16.75,22.65s7.76-27.04,19.11-52.61
			c16.86-37.98,34.92-54.26,34.92-54.26s-11.27,3.34-21-3.07c-9.18-6.04-15.81-21.47-15.81-21.47s13.21-28.17-11.56-49.07
			c-53.06-44.78-140.84-0.47-140.84-0.47s1.64,31.8-3.83,57.21C316.11,192.91,288.75,228.21,288.75,228.21z"/>
		<path class="st12" d="M288.75,228.21c0,0,22.14-5.9,56.15-5.9c30.57,0,50.25,10.14,50.25,10.14s-15.4,10.79-3.3,25.95
			c8.28,10.38,35.99,0.09,52.61,7.31c15.81,6.87,16.75,22.65,16.75,22.65s7.76-27.04,19.11-52.61
			c16.86-37.98,34.92-54.26,34.92-54.26s-11.27,3.34-21-3.07c-9.18-6.04-15.81-21.47-15.81-21.47s13.21-28.17-11.56-49.07
			c-53.06-44.78-140.84-0.47-140.84-0.47s1.64,31.8-3.83,57.21C316.11,192.91,288.75,228.21,288.75,228.21z"/>
		<g>
			<path d="M480.27,157.76c-3.57,7.8-8.65,14.65-14.1,20.96c-5.46,6.33-11.32,12.19-16.89,18.27c-5.56,6.08-10.9,12.4-14.95,19.57
				c-2.02,3.58-3.69,7.36-4.84,11.32c-1.15,3.95-1.78,8.07-1.87,12.21c-0.08-4.14,0.38-8.3,1.39-12.34c1-4.04,2.54-7.95,4.44-11.66
				c3.81-7.44,8.98-14.08,14.33-20.42c5.36-6.35,10.98-12.44,16.08-18.87c5.1-6.41,9.7-13.21,12.74-20.64
				c0.42-1.02,1.59-1.51,2.61-1.1s1.51,1.59,1.1,2.61C480.29,157.7,480.28,157.73,480.27,157.76z"/>
		</g>
		<g>
			<path d="M326.38,106.13c1.01,0.91,1.83,1.81,2.64,2.79c0.8,0.97,1.52,1.99,2.17,3.05c0.66,1.06,1.2,2.18,1.65,3.32
				c0.45,1.15,0.74,2.35,0.92,3.54c-0.43-1.13-0.94-2.21-1.59-3.2c-0.66-0.98-1.37-1.91-2.18-2.76c-0.8-0.85-1.66-1.64-2.57-2.36
				c-0.89-0.71-1.88-1.42-2.79-1.94L326.38,106.13z"/>
		</g>
		<g>
			<path d="M395.3,230.32c0.71,0.3,1.15,0.56,1.68,0.86c0.5,0.3,1,0.61,1.46,0.94c0.95,0.64,1.83,1.35,2.69,2.07
				c1.71,1.46,3.25,3.05,4.68,4.72c1.43,1.67,2.72,3.44,3.92,5.25c0.6,0.9,1.14,1.85,1.71,2.76l1.56,2.84l-1.97-2.55
				c-0.7-0.81-1.37-1.65-2.09-2.43c-1.44-1.57-2.94-3.08-4.54-4.45c-1.6-1.36-3.28-2.63-5.03-3.71c-0.88-0.53-1.77-1.04-2.68-1.47
				c-0.45-0.22-0.91-0.41-1.36-0.6c-0.43-0.17-0.96-0.36-1.27-0.42L395.3,230.32z"/>
		</g>
	</g>
</g>
<g id="Layer_1">
	<g>
		<path id="path28" class="st13" d="M220.58,205.61l-21.08,3.17l-28.57,3.17l-18.54,0.51l-17.9-0.51l-13.84-4.32l-12.19-13.2
			l-9.52-26.92l-2.03-5.84l-12.7-4.32l-7.49-12.06l-5.21-17.52l5.84-15.36l13.84-4.82l11.17,5.21l5.21,11.55l6.35-1.14l2.03-2.67
			l-2.03-12.19l-0.51-15.36l3.17-21.08l-0.13-12.06l9.65-15.36l17.01-12.19l29.71-12.7l32.88,4.82l28.57,20.57l13.2,21.08
			l8.38,15.36l2.03,38.09l-6.35,32.88l-11.55,29.08l-11.17,15.36"/>
		<path id="path30" class="st14" d="M202.55,297.02l-75.67,3.17v12.7l6.35,44.44l-3.17,3.68l-52.82-17.9l-3.68-6.35l-5.21-59.8
			l-12.19-35.8l-2.67-8.38l42.41-29.2l13.2-5.21l11.55,14.22l10.03,9.01l11.55,3.68l5.21,1.52l6.35,27.42l4.82,5.84l12.19-4.32
			l-8.25,16.51l45.96,21.71L202.55,297.02"/>
		<path id="path32" class="st15" d="M77.11,112.41l13.84-4.82l11.17,5.21l5.21,11.55l6.35-1.14l1.52-6.35l-3.17-12.19l3.17-29.08
			l-2.67-15.87l9.52-11.17l20.57-16.38l-5.84-8l-29.08,14.22l-12.19,9.52l-6.86,14.73L78,76.86l-3.17,17.01L77.11,112.41"/>
		<path id="path34" class="st16" d="M98.95,62.77c0,0,7.87-19.55,39.61-29.08s1.52-6.86,1.52-6.86l-34.41,13.2l-13.2,13.2
			l-5.84,10.67L98.95,62.77"/>
		<path id="path36" class="st16" d="M83.08,108.86c0,0-11.17-36.95,31.23-42.41l-1.52-6.35l-29.08,6.86l-8.63,27.68l2.03,17.9
			L83.08,108.86"/>
		<path id="path38" class="st17" d="M99.84,157.99l6.98-6.6c0,0,3.17,0.25,3.68,4.06c0.51,3.68,2.03,36.95,24.89,55.1
			c2.03,1.52-17.01-2.67-17.01-2.67l-17.01-26.54"/>
		<path id="path40" class="st17" d="M197.35,147.84c0,0,1.27-16,5.59-14.73s4.32,5.59,4.32,5.59S196.71,145.42,197.35,147.84"/>
		<path id="path42" class="st17" d="M241.28,89.18c0,0-8.76,1.9-9.52,9.52s9.52,1.52,11.17,1.14"/>
		<path id="path44" class="st17" d="M177.16,89.81c0,0-11.55,1.52-11.55,9.01c0,7.49,13.2,6.86,17.01,3.68"/>
		<path id="path46" class="st17" d="M105.3,124.09c0,0-20.19-12.19-22.22-0.51c-2.03,11.55-6.86,20.19,3.17,32.25l-6.86-2.03
			l-6.35-16.38l-2.03-15.87l12.19-12.7L97.04,110l7.87,6.35L105.3,124.09"/>
		<path id="path48" class="st17" d="M114.82,90.7c0,0,9.01-46.47,54.47-55.61c37.46-7.49,57.14,1.52,64.63,10.03
			c0,0-33.27-39.74-65.01-27.42s-55.1,34.41-54.47,48.76C115.07,90.7,114.82,90.7,114.82,90.7"/>
		<path id="path50" class="st17" d="M237.47,50.58c0,0-15.36-0.51-15.87,13.2c0,0,0,2.03,1.14,4.32c0,0,12.19-13.84,19.55-6.35"/>
		<path id="path52" class="st17" d="M170.3,69.5c0,0-2.67-21.08-20.57-8.89c-11.55,7.87-10.67,19.05-8.38,21.08
			c2.03,2.03,1.52,6.35,3.17,3.56s1.14-12.44,6.86-15.11C156.97,67.59,166.62,64.55,170.3,69.5"/>
		<path id="path54" class="st18" d="M120.53,212.46l-49.64,22.22c0,0,20.57,82.02,10.03,107.41l-7.49-2.67l-0.51-31.23l-13.71-59.17
			l-5.84-16.38l51.93-34.92L120.53,212.46"/>
		<path id="path56" class="st18" d="M125.74,257.79l6.98,8.63v31.74h-8.38c0,0-1.14-22.22-1.14-24.89c0-2.67,1.14-12.19,1.14-12.19"
			/>
		<path id="path58" class="st18" d="M125.87,302.86L102,304.01l6.86,4.82l17.01,2.67"/>
		<path id="path60" class="st14" d="M207.25,297.66l19.55-0.51l4.82,48.76l-20.06,2.54L207.25,297.66"/>
		<path id="path62" class="st14" d="M212.71,297.66l29.71-1.52c0,0,12.19-30.6,12.19-32.25s10.67-44.44,10.67-44.44l-23.87-24.89
			l-4.82-4.32l-12.7,12.7v49.26L212.71,297.66"/>
		<path id="path64" class="st18" d="M225.92,293.85l-18.54,3.68l2.67,14.73c6.86,3.17,18.54-5.21,18.54-5.21"/>
		<path id="path66" class="st18" d="M226.3,201.29l36.95,27.42l1.14-12.7l-28.06-25.9L226.3,201.29"/>
		<path id="path68" class="st19" d="M144.28,401.77l-10.92-44.44l-5.33-32.88l-1.02-24.25l49.52-2.67h30.73l-2.79,55.61l4.82,42.91
			l-0.51,7.87l-40.12,3.17L144.28,401.77"/>
		<path id="path70" class="st16" d="M200.52,297.02c0,0-2.67,55.1,5.21,94.08c0,0-15.87,10.03-39.23,12.7l44.44-1.52l5.21-3.17
			l-6.35-86.85l-1.52-18.54"/>
		<path id="path72" class="st19" d="M232.52,341.46l20.57-5.84l39.23-2.03l5.84-17.9l-10.67-31.23l-12.19-1.52l-17.01,5.21
			l-16.25,7.87l-8.63-1.52l-6.6,2.67"/>
		<path id="path74" class="st16" d="M232.26,331.05c0,0,13.84-6.35,15.87-5.84l-5.84-29.08l6.86-2.67c0,0,4.82,27.42,4.82,30.6
			c0,0,29.71,1.65,32.25,1.65c0,0,6.35-12.19,4.82-24.89l5.84,17.01l0.51,9.52l-8.38,12.7l-9.52,2.03l-15.87-0.51l-5.21-6.86
			l-18.54,2.67l-5.84,2.03"/>
		<path id="path76" class="st19" d="M211.44,293.34l-11.55-29.71l-12.19-17.52c0,0,2.67-7.49,6.35-7.49c3.68,0,12.19,0,12.19,0
			l11.55,4.32l-1.14,19.55L211.44,293.34"/>
		<path id="path78" class="st16" d="M213.6,283.44c0,0-14.73-28.57-14.73-32.88c0,0,2.67-6.35,6.35-4.82
			c3.68,1.52,11.55,5.84,11.55,5.84v-9.9l-17.9-3.81l-12.19,1.52l20.57,48.76l4.32,0.51"/>
		<path id="path80" class="st19" d="M149.1,213.61l-14.6-1.52l-13.84-4.32v4.82l6.6,7.49l21.08,9.52"/>
		<path id="path82" class="st16" d="M125.36,215.13c0,0,16.38,6.86,21.71,5.21l0.51,6.35l-14.73-3.17l-9.01-6.35L125.36,215.13"/>
		<path id="path84" class="st20" d="M232.52,240.65c-9.01-0.25-17.14-1.27-24.12-3.3c0.51-2.79-0.51-5.71,0.25-7.87
			c1.9-1.4,5.21-1.4,8.25-1.78c-2.54-1.27-6.22-1.78-9.14-1.14c0-2.03-1.02-3.3-1.52-4.95c5.08-1.78,17.01-13.71,23.62-9.65
			c3.17,1.9,4.57,12.57,4.82,17.65C234.93,234.05,234.29,238.49,232.52,240.65"/>
		<path id="path86" class="st21" d="M232.52,240.65c-9.01-0.25-17.14-1.27-24.12-3.3c0.51-2.79-0.51-5.71,0.25-7.87
			c1.9-1.4,5.21-1.4,8.25-1.78c-2.54-1.27-6.22-1.78-9.14-1.14c0-2.03-1.02-3.3-1.52-4.95c5.08-1.78,17.01-13.71,23.62-9.65
			c3.17,1.9,4.57,12.57,4.82,17.65C234.93,234.05,234.29,238.49,232.52,240.65z"/>
		<path id="path88" class="st20" d="M189.48,225.92c0,0.63,0,1.4-0.13,2.03c-2.79,1.9-7.36,1.78-10.41,3.3
			c4.57,0.13,8.13,1.27,11.3,2.79c0,1.78-0.13,3.56-0.13,5.08c-5.08,3.56-9.9,8.76-15.87,12.06c-2.79,1.52-12.82,5.59-15.87,4.95
			c-1.78-0.51-1.9-2.54-2.54-4.57c-1.4-4.32-4.95-11.17-5.08-17.65c-0.25-8.25-1.27-21.84,7.62-20.31
			c7.11,1.4,15.36,4.57,20.95,7.62C182.49,223.38,184.4,225.67,189.48,225.92"/>
		<path id="path90" class="st21" d="M189.48,225.92c0,0.63,0,1.4-0.13,2.03c-2.79,1.9-7.36,1.78-10.41,3.3
			c4.57,0.13,8.13,1.27,11.3,2.79c0,1.78-0.13,3.56-0.13,5.08c-5.08,3.56-9.9,8.76-15.87,12.06c-2.79,1.52-12.82,5.59-15.87,4.95
			c-1.78-0.51-1.9-2.54-2.54-4.57c-1.4-4.32-4.95-11.17-5.08-17.65c-0.25-8.25-1.27-21.84,7.62-20.31
			c7.11,1.4,15.36,4.57,20.95,7.62C182.49,223.38,184.4,225.67,189.48,225.92z"/>
		<path id="path92" class="st20" d="M194.55,235.82c-0.76-4.44-1.78-5.71-1.27-9.65C205.22,218.18,207.51,239.76,194.55,235.82"/>
		<path id="path94" class="st21" d="M194.55,235.82c-0.76-4.44-1.78-5.71-1.27-9.65C205.22,218.18,207.51,239.76,194.55,235.82z"/>
		<path id="path96" class="st22" d="M211.95,239.38c0,0-3.68-5.21-1.14-6.86c2.54-1.52,5.21,0,6.86-2.67c1.52-2.67,0-4.32,0.51-7.49
			c0.51-3.17,3.17-3.68,5.84-4.32c2.67-0.63,10.03-1.52,11.17,1.14l-3.17-9.52l-6.35-2.03l-20.06,11.55l-1.14,5.84v11.55"/>
		<path id="path98" class="st22" d="M156.34,256.9c-0.63-8.25-1.27-16.51-2.03-24.76c-1.14-12.44,3.05-10.16,13.71-10.16
			c1.52,0,10.03,1.9,10.67,3.17c2.79,5.84-4.82,4.57,3.3,9.01c6.86,3.81,19.05-2.29,16.25-10.67c-1.52-1.9-8.13-0.63-10.41-1.78
			c-4.06-2.03-8.25-4.32-12.44-6.48c-5.21-2.67-17.52-6.6-22.98-2.79c-14.22,9.65,1.02,33.77,6.09,43.8"/>
		<path id="path100" d="M170.3,69.5c-14.47-3.3-21.58,6.09-26.03,15.74c-3.94-1.02-2.41-6.22-1.4-8.89
			c2.54-7.11,12.95-16.51,21.46-15.24C168.15,61.5,172.97,64.8,170.3,69.5"/>
		<path id="path102" d="M240.64,85.75c0.13,0,0.51,0,0.63,0c3.3,6.86,6.09,13.97,10.16,19.81c-2.67,6.35-20.82,12.06-20.57,0.63
			c3.94-1.78,10.67-0.25,14.09-2.54C243.06,98.32,240.14,93.62,240.64,85.75"/>
		<path id="path104" d="M177.67,86c3.05,5.71,4.06,11.55,8.63,15.87c1.9,1.9,5.84,4.32,3.94,9.65c-0.51,1.27-3.68,4.06-5.59,4.57
			c-6.86,2.03-22.85,0.51-17.52-8.13c5.71,0.25,13.33,3.68,17.65-0.51C181.48,102.51,175.51,92.1,177.67,86"/>
		<path id="path106" d="M237.98,143.52c-10.28,6.6-21.84,13.84-38.85,12.19c-3.68-3.17-5.08-10.16-1.4-14.73
			c1.9,3.17,0.63,8.89,5.71,9.9c9.65,1.52,20.82-5.84,27.81-8.63c4.32-7.36-0.25-9.9-4.32-14.6c-7.87-9.52-18.54-21.46-18.03-35.68
			c3.17-2.41,3.56,3.56,3.94,4.57c4.06,9.65,14.6,22.09,22.09,30.35c1.9,2.03,4.95,3.94,5.21,5.33
			C241.15,136.28,237.6,140.98,237.98,143.52"/>
		<path id="path108" d="M101.61,136.54c-3.17-1.9-3.94-10.03-7.74-10.16c-5.59-0.25-4.44,10.67-4.44,17.01
			c-3.81-3.3-4.44-13.84-1.52-19.17c-3.17-1.52-4.57,1.78-6.35,2.79C83.71,110.76,105.3,119.4,101.61,136.54"/>
		<path id="path110" d="M244.58,150.38c-4.82,9.14-11.55,19.17-25.65,19.55c-0.25-3.05-0.51-7.49,0-9.14
			C229.72,159.64,236.33,154.19,244.58,150.38"/>
		<path id="path112" d="M176.78,156.22c9.01,4.82,25.52,5.21,37.84,4.95c0.63,2.67,0.63,5.97,0.63,9.27
			C199.63,171.33,180.97,167.39,176.78,156.22"/>
		<path id="path114" d="M175.13,165.1c6.22,15.74,27.68,13.84,45.71,13.46c-0.76,2.03-2.54,4.44-4.57,5.21
			c-5.71,2.41-21.71,4.06-29.84-0.13c-5.08-2.67-8.38-8.89-11.17-12.44C173.99,169.55,167.13,165.1,175.13,165.1"/>
		<path id="path116" class="st23" d="M241.03,251.64c-9.81,14.4-18.95,29.09-30.62,41.89c4.91-12.22,6.94-32.73,7.61-48.3
			C228.01,241.02,236.8,245.82,241.03,251.64"/>
		<path id="path118" d="M276.7,296.52c-8.25,1.52-13.97,9.52-21.84,9.01C259.05,299.44,266.67,296.77,276.7,296.52"/>
		<path id="path120" d="M280.13,309.21c-6.6,0.63-14.47,1.78-21.33,1.27C262.1,305.66,274.42,307.31,280.13,309.21"/>
		<path id="path122" d="M282.54,320.38c-7.49,0.13-16.76,0-24-0.63C262.86,315.31,277.59,318.1,282.54,320.38"/>
		<path id="path124" class="st16" d="M223.12,350.48c1.14,9.4,4.82,18.92,4.32,29.2c-4.06,1.4-6.48,2.67-12.06,2.54
			c-0.25-8.76-1.52-22.22-1.27-30.47C216.77,352.13,220.96,350.1,223.12,350.48"/>
		<path id="path126" class="st13" d="M210.93,211.83c-3.68,2.41-6.86,5.59-10.41,8.13c-8.13,0.25-12.44-0.51-18.28-5.21
			c0.13-0.25,0.63-0.13,0.63-0.63C191.38,218.05,202.43,212.59,210.93,211.83"/>
		<path id="path128" class="st23" d="M165.86,270.36c2.41-10.16,11.55-15.62,20.06-21.08c8.76,10.92,13.97,25.14,19.81,38.72
			C191.89,283.82,177.92,277.09,165.86,270.36"/>
		<path id="path130" d="M214.11,352c-0.25,8.38,0.76,21.71,1.27,30.47c5.59,0,7.87-1.27,12.06-2.54c0.51-10.28-3.3-19.81-4.32-29.2
			C220.96,350.1,216.77,352.13,214.11,352z M127.64,304.51c3.68,33.65,9.01,62.09,18.79,91.92c21.58,6.48,47.61,7.11,66.78,1.27
			c-3.56-16.76-1.9-37.33-3.94-55.23c-1.52-13.46-0.76-27.17-2.79-40.76C183,296.52,150.37,300.2,127.64,304.51z M211.57,301.47
			c-0.13,14.47,0.63,28.69,1.78,43.17c5.59-0.76,9.4-1.4,14.47-2.54c-1.78-13.97-1.4-29.71-4.95-41.9
			C219.06,300.2,215.5,300.2,211.57,301.47z M239.88,299.31c-2.67-0.63-5.71,0-8.25,0c1.14,11.68,4.06,24.76,5.08,37.07
			c3.94,0.13,6.09-1.78,9.4-2.41C246.23,323.18,245.09,308.2,239.88,299.31L239.88,299.31z M282.54,338.16
			c8.25-2.03,13.46-12.06,11.17-22.47c-1.52-6.98-4.32-20.19-7.36-24.63c-2.29-3.3-8.13-7.62-12.82-4.57
			c-7.62,4.95-21.33,6.35-26.79,12.44c2.79,9.4,3.68,22.22,4.95,34.15c9.65,0.63,21.46-2.67,29.33,0.76
			c-5.59,1.78-12.82,1.78-17.65,4.44C267.31,340.06,276.45,339.56,282.54,338.16L282.54,338.16z M205.73,288.01
			c-5.84-13.59-11.17-27.81-19.81-38.85c-8.38,5.59-17.65,10.92-20.06,21.08C177.92,277.09,191.89,283.82,205.73,288.01z
			 M219.95,245.6c-0.51,13.71-2.03,31.61-5.71,42.15c8.76-11.17,15.74-24,22.98-36.57C234.17,246.36,227.57,242.17,219.95,245.6z
			 M203.82,239.89c-3.3-0.25-6.22,3.81-10.28,2.03c-1.02,1.14-1.9,2.29-2.79,3.3c9.4,11.3,13.71,27.42,20.95,40.76
			c3.94-12.82,3.56-26.92,4.32-41.01C210.43,245.47,207.51,240.4,203.82,239.89z M193.28,226.05c-0.25,3.94,0.51,5.21,1.27,9.65
			C207.51,239.76,205.22,218.18,193.28,226.05z M179.19,221.48c-5.59-3.05-13.84-6.35-20.95-7.62c-8.89-1.78-7.87,12.06-7.62,20.31
			c0.25,6.48,3.68,13.33,5.08,17.65c0.63,2.03,0.76,4.06,2.54,4.57c3.05,0.63,12.95-3.3,15.87-4.95c6.09-3.3,10.79-8.63,15.87-12.06
			c0-1.78,0.13-3.56,0.13-5.08c-3.05-1.52-6.6-2.67-11.3-2.79c3.05-1.52,7.62-1.52,10.41-3.3c0-0.63,0-1.4,0.13-2.03
			C184.4,225.67,182.49,223.38,179.19,221.48z M126.37,211.96c-4.57,4.57,12.82,10.92,18.41,11.3c0-3.05,1.78-5.71,1.27-7.74
			C139.58,214.24,130.94,215,126.37,211.96z M182.87,213.99c0,0.51-0.63,0.25-0.63,0.63c5.84,4.57,10.28,5.59,18.28,5.21
			c3.68-2.54,6.86-5.71,10.41-8.13C202.43,212.59,191.38,218.05,182.87,213.99z M234.55,229.73c-0.25-5.21-1.52-15.74-4.82-17.65
			c-6.6-3.94-18.54,7.87-23.62,9.65c0.51,1.52,1.4,2.79,1.52,4.95c3.05-0.76,6.6-0.13,9.14,1.14c-3.05,0.25-6.35,0.25-8.25,1.78
			c-0.76,2.03,0.13,4.95-0.25,7.87c7.11,2.03,15.24,3.05,24.12,3.3C234.29,238.49,234.93,234.05,234.55,229.73z M118.76,216.4
			c-1.4-1.02-11.17-13.71-12.57-13.2c-17.65,6.98-34.15,18.92-48.76,30.35C71.4,263.76,77.11,300.58,78,336
			c16,7.49,30.22,18.41,52.06,19.55c-2.54-17.78-4.82-33.77-6.22-50.66c-5.59-2.41-13.33,0.13-18.41-0.76
			c0-6.22,7.74-2.67,8.38-6.86c0.51-3.17-4.32-3.3-2.67-8.25c3.94,1.4,6.22,4.57,10.28,5.84c3.94-8.63,0-23.62,0.51-30.85
			c0.13-1.27,0.63-7.49,3.68-6.35c2.67,1.02-0.13,16.25,0.13,22.98c0.25,6.22-0.76,12.19,1.78,16.25
			c21.08-2.79,42.53-4.82,65.26-5.33c-5.08-2.29-10.92-4.06-17.52-7.87c-3.56-2.03-14.73-6.22-15.74-9.52
			c-1.52-5.33,4.32-8.25,5.21-12.82c-10.67,5.84-12.7-5.59-15.24-13.71c-2.29-7.36-3.68-12.7-4.06-17.01
			C136.4,226.43,126.63,221.99,118.76,216.4L118.76,216.4z M225.41,204.84c14.6-7.11,17.27,26.66,11.55,37.46
			c1.02,3.17,3.94,4.44,5.21,7.49c-8.25,14.6-17.27,28.44-25.65,42.91c6.22-3.81,15.11-0.63,22.35-3.68
			c2.67-1.14,4.57-7.11,6.6-12.06c5.59-13.46,11.43-30.47,13.97-43.3c0.63-2.79,2.29-9.4,1.9-11.93
			c-0.63-4.57-6.98-8.13-10.16-10.92c-5.84-5.33-9.65-10.03-15.87-15.11C232.9,199.26,227.44,201.8,225.41,204.84L225.41,204.84z
			 M85.11,74.7c-6.98,7.62-5.59,22.09-4.57,32.38c12.7-7.87,29.33,0.63,29.2,14.09c6.09-0.13,2.29-7.49,1.14-12.19
			c-3.56-15.49,6.09-32.38,0.51-46.47C100.47,63.15,91.58,67.59,85.11,74.7L85.11,74.7z M135.26,30.14
			c-15.87,4.44-36.06,16-42.53,30.22c5.08-0.76,8.63-3.3,13.46-3.68c1.9-0.13,4.32,0.76,6.48,0.25c4.32-1.14,7.87-10.67,11.17-14.22
			c3.17-3.56,6.98-4.95,9.52-8.25c1.78-0.76,4.06-0.76,4.32-3.3C136.78,30.39,136.02,29.76,135.26,30.14z M217.66,34.2
			c-16.38-9.27-44.31-16.12-61.71-7.49c-14.09,6.98-33.14,18.79-39.61,33.27c6.09,14.22-1.78,27.3-2.29,41.77
			c-0.25,7.62,3.68,14.47,3.94,22.73c-2.03,3.56-8.38,3.81-12.82,3.68c-1.4-7.49-4.06-15.74-11.68-16.51
			c-10.79-1.14-18.79,7.74-19.17,17.14c-0.63,10.92,8.38,29.2,21.08,27.93c4.95-0.51,6.22-5.33,11.55-5.33
			c2.79,5.84-4.44,7.62-5.21,11.68c-0.13,1.14,0.63,5.21,1.14,7.36c2.41,9.52,7.49,21.84,12.57,29.2
			c6.48,9.14,19.17,10.67,32.88,11.55c2.41-5.21,11.43-4.82,17.27-3.56c-6.98-2.67-13.46-9.52-18.92-15.36
			c-6.22-6.86-12.57-14.09-12.82-23.11c11.68,16.25,21.46,30.47,42.66,37.58c16.25,5.33,34.92-2.54,47.23-11.17
			c5.08-3.68,8.25-9.4,11.93-14.6c13.71-19.68,20.06-47.74,18.79-74.91c-0.63-11.3-0.51-22.35-4.32-29.96
			c-3.94-7.87-17.27-14.98-25.14-7.74c-1.4-7.62,6.48-12.44,15.74-9.65C233.91,49.95,226.93,39.66,217.66,34.2L217.66,34.2z
			 M248.13,287.5c12.82-6.35,36.82-17.14,44.95,0c3.05,6.35,6.48,17.01,7.87,23.62c2.29,9.27-2.41,28.57-11.93,31.74
			c-8.38,2.67-18.03,2.54-28.19,0.51c-1.14-1.02-2.54-2.67-3.56-4.44c-7.11-0.25-13.97,0.25-19.68,3.3
			c0.51,5.33-3.05,6.22-6.48,7.36c-2.54,10.03,5.08,22.85,3.17,31.87c-1.27,6.48-9.14,7.49-15.11,8.76
			c-0.13,3.68,0.25,6.48,0.63,9.65c-1.27,4.95-7.36,7.74-12.95,8.38c-18.79,2.16-46.98,3.17-64.88-3.17
			c-5.08-12.19-8.89-27.3-13.2-41.26c-17.52,1.9-31.74-7.62-45.07-13.84c-4.57-2.03-10.92-3.3-12.7-6.98
			c-1.78-3.56-1.02-10.28-1.4-16.76c-1.14-16.51-1.9-32.38-6.35-49.26c-1.9-7.62-5.33-14.22-7.74-21.58
			c-2.29-6.86-6.09-15.11-6.98-21.84c-1.4-10.03,7.87-10.41,13.97-14.98c9.4-6.6,16.63-10.28,26.66-16.51
			c3.05-1.78,11.93-6.35,12.95-8.38c2.03-4.06-3.56-10.03-4.95-13.2c-2.41-5.08-3.56-9.52-3.94-14.6
			c-8.38-1.27-14.98-6.35-18.79-12.06c-6.35-9.4-10.79-26.66-5.21-39.99c0.51-1.14,2.54-3.05,2.79-4.57
			c0.63-3.17-1.14-7.36-1.27-10.67c-0.63-17.14,2.79-31.87,14.47-37.07c4.82-18.79,21.46-24.89,37.33-34.15
			c5.84-3.43,12.44-5.71,19.17-8.13c24.12-8.89,61.07-7.11,81.26,7.87c8.63,6.35,22.09,19.93,26.92,29.84
			c12.82,25.9,11.93,69.2,3.05,100.81c-1.27,4.32-3.05,10.41-5.33,15.49c-1.78,3.56-6.98,10.67-6.35,13.84
			c0.63,3.17,12.06,11.93,14.47,14.22c4.44,4.32,12.7,9.9,13.46,15.24c0.76,5.71-2.54,13.46-4.06,19.05
			C259.69,254.24,254.48,271.12,248.13,287.5"/>
		<path id="path132" class="st17" d="M162.56,160.41c0.63-1.02,4.57-2.41,9.9,0.25c0,0-6.35,1.14-5.84,11.55l-2.67-0.51
			C163.96,171.71,161.29,162.18,162.56,160.41"/>
		<path id="path134" d="M208.9,251.31c0,1.52-1.27,2.79-2.79,2.79c-1.52,0-2.79-1.27-2.79-2.79c0-1.52,1.27-2.92,2.79-2.92
			C207.63,248.39,208.9,249.79,208.9,251.31"/>
		<path id="path136" d="M211.95,264.77c0,1.52-1.27,2.79-2.79,2.79c-1.52,0-2.79-1.27-2.79-2.79c0-1.52,1.27-2.92,2.79-2.92
			C210.43,261.98,211.95,263.25,211.95,264.77"/>
	</g>
</g>
</svg>
