<?xml version="1.0" encoding="UTF-8"?>
<!DOCTYPE svg PUBLIC "-//W3C//DTD SVG 1.1//EN" "http://www.w3.org/Graphics/SVG/1.1/DTD/svg11.dtd">
<!-- Creator: CorelDRAW Standard 2024 -->
<svg xmlns="http://www.w3.org/2000/svg" xml:space="preserve" width="8in" height="8in" version="1.1" style="shape-rendering:geometricPrecision; text-rendering:geometricPrecision; image-rendering:optimizeQuality; fill-rule:evenodd; clip-rule:evenodd"
viewBox="0 0 8000 8000"
 xmlns:xlink="http://www.w3.org/1999/xlink"
 xmlns:xodm="http://www.corel.com/coreldraw/odm/2003">
 <defs>
  <style type="text/css">
   <![CDATA[
    .str15 {stroke:aqua;stroke-width:6.94;stroke-miterlimit:2.61313}
    .str1 {stroke:#360505;stroke-width:6.94;stroke-miterlimit:2.61313}
    .str4 {stroke:#4B0401;stroke-width:6.94;stroke-miterlimit:2.61313}
    .str7 {stroke:#544850;stroke-width:6.94;stroke-miterlimit:2.61313}
    .str11 {stroke:#6B0B08;stroke-width:6.94;stroke-miterlimit:2.61313}
    .str3 {stroke:#6E5D4C;stroke-width:6.94;stroke-miterlimit:2.61313}
    .str2 {stroke:#9E0411;stroke-width:6.94;stroke-miterlimit:2.61313}
    .str0 {stroke:#C39D38;stroke-width:6.94;stroke-miterlimit:2.61313}
    .str13 {stroke:#C3C3BB;stroke-width:6.94;stroke-miterlimit:2.61313}
    .str5 {stroke:#C6130B;stroke-width:6.94;stroke-miterlimit:2.61313}
    .str12 {stroke:#E6E6E6;stroke-width:6.94;stroke-miterlimit:2.61313}
    .str6 {stroke:#F8C22D;stroke-width:6.94;stroke-miterlimit:2.61313}
    .str9 {stroke:#FDFBA0;stroke-width:6.94;stroke-miterlimit:2.61313}
    .str8 {stroke:#FDFBA0;stroke-width:6.94;stroke-miterlimit:2.61313}
    .str10 {stroke:white;stroke-width:6.94;stroke-miterlimit:2.61313}
    .str14 {stroke:#544850;stroke-width:3;stroke-miterlimit:2.61313}
    .fil16 {fill:none}
    .fil31 {fill:#231F20}
    .fil33 {fill:#360505}
    .fil5 {fill:#360505}
    .fil19 {fill:#4B0401}
    .fil32 {fill:#4B0401}
    .fil24 {fill:#544850}
    .fil6 {fill:#5B5242}
    .fil27 {fill:#6B0B08}
    .fil14 {fill:#8B858B}
    .fil9 {fill:#9E0411}
    .fil18 {fill:#9E0411}
    .fil15 {fill:#C39D38}
    .fil4 {fill:#C39D38}
    .fil29 {fill:#C3C3BB}
    .fil30 {fill:#C3C3BB}
    .fil20 {fill:#C6130B}
    .fil0 {fill:#D33833}
    .fil11 {fill:#DCD9D8}
    .fil28 {fill:#E6E6E6}
    .fil22 {fill:#F0160B}
    .fil10 {fill:#F0D6B7}
    .fil23 {fill:#F45623}
    .fil12 {fill:#F7E4CD}
    .fil3 {fill:#F8C22D}
    .fil7 {fill:#F8C22D}
    .fil26 {fill:#FDFBA0}
    .fil25 {fill:#FDFBA0}
    .fil8 {fill:white}
    .fil2 {fill:#231F20;fill-rule:nonzero}
    .fil1 {fill:#EF3D3A;fill-rule:nonzero}
    .fil13 {fill:#F7E4CD;fill-rule:nonzero}
    .fil17 {fill:url(#id2)}
    .fil21 {fill:url(#id3)}
   ]]>
  </style>
   <mask id="id0">
  <linearGradient id="id1" gradientUnits="userSpaceOnUse" x1="6373.11" y1="1169.1" x2="6045.07" y2="1399.5">
   <stop offset="0" style="stop-opacity:0; stop-color:white"/>
   <stop offset="1" style="stop-opacity:0.231373; stop-color:white"/>
  </linearGradient>
    <rect style="fill:url(#id1)" x="5356.78" y="336.75" width="1041.96" height="3425.98"/>
   </mask>
  <linearGradient id="id2" gradientUnits="userSpaceOnUse" x1="5162.19" y1="3271.4" x2="7018.49" y2="1003.06">
   <stop offset="0" style="stop-opacity:1; stop-color:#826E5B"/>
   <stop offset="1" style="stop-opacity:1; stop-color:#AA9D8C"/>
  </linearGradient>
  <linearGradient id="id3" gradientUnits="userSpaceOnUse" x1="4790.25" y1="3342.39" x2="6616.79" y2="1661.22">
   <stop offset="0" style="stop-opacity:1; stop-color:#3C2D31"/>
   <stop offset="1" style="stop-opacity:1; stop-color:#6E5D4C"/>
  </linearGradient>
 </defs>
 <g id="Layer_x0020_1">
  <metadata id="CorelCorpID_0Corel-Layer"/>
  <g id="_2118157566000">
   <path id="path22" class="fil0" d="M5259.09 4266.25c0,889.78 -705.2,1611.1 -1575.11,1611.1 -869.9,0 -1575.11,-721.32 -1575.11,-1611.1 0,-889.8 705.2,-1611.14 1575.11,-1611.14 869.91,0 1575.11,721.33 1575.11,1611.14z"/>
   <g>
    <path id="path24" class="fil1" d="M2173.06 4665.27c0,0 -114.03,-1680.11 1434.09,-1728.13l-108 -180.02 -840.06 282.02 -240.02 276.02 -210.01 402.04 -120.02 468.04 36.01 312.02 48 168.01zm0 0l0 0 0 0z"/>
   </g>
   <g>
    <path id="path26" class="fil2" d="M2605.17 3167.18c-276.35,282.76 -447.37,673.17 -447.37,1105.08l0 0c0,431.81 171.01,822.28 447.37,1104.99l0 0c276.49,282.72 657.53,457.17 1078.79,457.17l0 0c421.27,0 802.34,-174.45 1078.8,-457.16l0 0c276.34,-282.71 447.39,-673.17 447.39,-1104.99l0 0c0,-431.91 -171.05,-822.32 -447.39,-1105.08l0 0c-276.46,-282.66 -657.53,-457.11 -1078.8,-457.15l0 0c-421.26,0.03 -802.3,174.48 -1078.79,457.14l0 0zm-69.95 2278.46c-293.7,-300.37 -475.28,-715.48 -475.28,-1173.38l0 0c0,-457.97 181.57,-873.04 475.28,-1173.43l0 0c293.63,-300.44 700.1,-486.67 1148.74,-486.61l0 0c448.65,-0.06 855.16,186.17 1148.74,486.61l0 0c293.73,300.39 475.33,715.5 475.29,1173.43l0 0c0.04,457.9 -181.56,873.01 -475.29,1173.39l0 0c-293.58,300.42 -700.09,486.63 -1148.74,486.63l0 0c-448.65,0 -855.11,-186.2 -1148.74,-486.63l0 0 0 -0zm0 0l0 0 0 0z"/>
   </g>
  </g>
  <path class="fil3" d="M2916.06 5077.58c-84.61,114.91 -171.68,220.92 -221.09,335.03 5.78,67.65 18.85,287.63 29.61,189.43 34.27,-86.39 110.44,-227.37 163.59,-315.95 53.15,-88.59 79.14,-157.22 100.69,-188.63 -20.83,-6.3 -44.9,-12.94 -72.8,-19.87z"/>
  <path class="fil3" d="M3020.46 5098.19c-79.64,116.71 -230.02,443.46 -291.17,594.2 0.91,21.12 1.69,42.21 2.3,63.26 14.78,6.7 29.41,13.63 43.95,20.73 47.28,-113.44 149.33,-354.38 196.69,-436.19 49.08,-84.79 106.56,-170.74 129.3,-204.2 -15.44,-7.56 -52.06,-27.99 -81.06,-37.79z"/>
  <path class="fil4 str0" d="M2988.86 5097.45c-20.83,-6.3 -44.92,-12.94 -72.8,-19.87 -0.16,0.22 -0.31,0.43 -0.48,0.65 -18.42,25.13 -36.41,50.61 -53.86,76.44 17.48,9.77 39.9,25.21 62.46,41.83 5.63,-9.09 11.35,-18.17 17.15,-27.22 3.65,-5.69 19.44,-26.73 31.84,-44.74 5.64,-10.82 10.78,-19.92 15.7,-27.08z"/>
  <path class="fil4 str0" d="M3027.07 5109.83c-24.04,36.65 -47.16,74.02 -69.43,111.99 21.59,16.73 40.9,32.36 53.04,42.32 19.06,-33.06 39.14,-65.97 60.55,-98.93l19.06 -29.23c-14.97,-7.56 -35.1,-16.35 -63.22,-26.15z"/>
  <path class="fil4 str0" d="M3609.91 5326.29l-193.48 12.09c0,0 -84.65,421.71 -18.14,660.54l282.66 -33.25c0,0 -42.33,-252.43 -52.91,-364.28 -10.58,-111.85 -18.14,-275.1 -18.14,-275.1z"/>
  <path class="fil5 str1" d="M4711.21 5048.85c-26.32,79.91 -46.15,139.56 -51.09,156.12 44.4,-22.07 100.56,-48.79 159.76,-69.74l-108.67 -86.38z"/>
  <polygon class="fil6" points="5194.51,5366.86 5116.58,5196.75 5009.03,5156.49 4924.29,5149.36 5087.41,4035.51 5448.26,4071.76 5232.41,5380.04 "/>
  <g>
   <path id="path72" class="fil7" d="M4483.24 5817.35l234.02 -66.01 444.02 -24 66.01 -204.01 -120.02 -354.04 -138 -18 -192.02 60 -184.23 89.95 -97.8 -17.94 -76.22 29.95 64.23 504.09zm0 0l0 0 0 0z"/>
  </g>
  <g>
   <path id="path74" class="fil4" d="M4479.01 5697.28c0,0 156,-71.99 180.01,-66l-66 -330.04 78 -29.99c0,0 54,312.02 54,348.02 0,0 336.01,18 366.02,18 0,0 72,-138.01 54,-282.02l66.01 192.01 5.99 108.01 -96 144.01 -108.01 24 -180.01 -6 -60 -78 -210.02 29.99 -66.01 24.02 -17.99 -96.01zm0 0l0 0 0 0z"/>
  </g>
  <path class="fil8" d="M3279.41 4347.42c-51.72,52.51 360.13,194.56 513.56,194.53 259.24,11.04 468.28,40.9 577.77,-11.36 86.94,-41.5 188,-221.05 225.94,-293.26 -20.58,-20.52 -41.72,-40.84 -66.06,-61.5 -37.43,61.93 -129.89,206.48 -199.7,245.26 -89.59,49.77 -437.98,72.17 -707.36,21.41 -35.22,-6.63 -66.88,-13.57 -94.95,-20.6l-30.8 -6.69c-5.97,-2.39 -12.28,-4.69 -18.88,-6.93 -7.94,-2.4 -15.46,-4.78 -22.55,-7.16 -52.28,-15.66 -117.32,-29.88 -176.98,-53.71z"/>
  <path class="fil9 str2" d="M3572.24 4555.21c14.19,91.69 55.35,361.5 103.63,714.5 74.48,-5.96 149.88,-10.76 226.54,-14.31 43.1,-2 86.6,-3.61 130.56,-4.81l267.64 10.37c30.15,-18.77 65.83,-22.91 103.29,-24.08 1.43,-92.09 0.56,-335.9 -37.56,-631.31 -32.16,10.58 -74.24,18.34 -132.45,22.07 -161.04,10.33 -324.06,-5.38 -428.91,-22.53l-3.15 0.08c-10.52,-2.04 -20.79,-4.06 -30.92,-6.07 -8.08,-1.53 -15.65,-3.05 -22.65,-4.54l-0.29 -0.06c-67,-13.61 -125.07,-26.69 -175.72,-39.3z"/>
  <g>
   <path id="path28" class="fil10" d="M4347.02 4275.18l-240.03 36.01 -324.03 36 -210.02 5.99 -204.01 -5.99 -156.02 -48.01 -138.01 -150.01 -108.01 -306.02 -24 -66.01 -144.01 -47.99 -84.01 -138.02 -60 -198.02 66.02 -174.02 156 -54 126.01 60.02 60.02 132 72 -12.01 23.99 -29.99 -23.99 -138.02 -6.01 -174.02 36 -240.01 -1.41 -137.09 109.41 -174.92 192.02 -138.02 336.04 -144.01 372.02 54 324.02 234.02 150.02 240.01 96 174.02 24 432.03 -72 372.04 -132 330.02 -126.01 174.02 -90 95.99zm0 0l0 0 0 0z"/>
  </g>
  <g>
   <path id="path34" class="fil11" d="M2966.89 2655.06c0,0 90,-222.01 450.03,-330.02 360.03,-108.01 18,-78.02 18,-78.02l-390.02 150.02 -150.02 150.01 -66 120.02 138 -12.01 0 0zm0 0l0 0 0 0z"/>
  </g>
  <g>
   <path id="path38" class="fil12" d="M2978.9 3735.14l78.57 -76.13c0,0 35.46,4.12 41.45,46.12 5.99,42.01 23.99,420.04 282.01,624.07 23.54,18.61 -192,-30.03 -192,-30.03l-192.03 -300.01 -18 -264.02zm0 0l0 0 0 0z"/>
  </g>
  <path id="path40" class="fil12" d="M4083.02 3621.13c0,0 13.99,-181.89 62.97,-167.9 48.98,13.99 48.98,62.97 48.98,62.97 0,0 -118.95,76.96 -111.95,104.93z"/>
  <g>
   <path id="path42" class="fil13" d="M4581.02 2955.09c0,0 -98.9,20.88 -108.01,108.01 -9.11,87.15 108.01,18 126.01,12.01l-18 -120.02zm0 0l0 0 0 0z"/>
  </g>
  <g>
   <path id="path44" class="fil13" d="M3854.97 2961.1c0,0 -132.02,18 -132.02,102 0,84.01 150.03,78.02 192.03,42.02l-60 -144.01zm0 0l0 0 0 0z"/>
  </g>
  <g>
   <path id="path46" class="fil12" d="M3038.9 3351.11c0,0 -228.03,-138.02 -252.02,-5.99 -24,132 -78.02,228.02 36,366.02l-78 -24 -72 -186.01 -23.99 -180.01 138 -144.03 156.02 12.01 90 72 6 90 -0 0zm0 0l0 0 0 0z"/>
  </g>
  <path id="path48" class="fil12" d="M3146.91 2973.09c0,0 102.01,-528.04 618.06,-630.05 424.85,-83.98 648.04,18 732.05,114 0,0 -378.03,-450.02 -738.06,-312.02 -360.03,138.02 -624.04,390.03 -618.04,552.02 10.22,275.93 6,276.04 6,276.04z"/>
  <g>
   <path id="path50" class="fil12" d="M4539.02 2517.04c0,0 -174,-5.99 -180.01,150.02 0,0 -0.02,24 11.99,47.99 0,0 138.04,-156.02 222.03,-72l-54 -126.01zm0 0l0 0 0 0z"/>
  </g>
  <g>
   <path id="path52" class="fil12" d="M3777.06 2731.31c0,0 -29.96,-239.47 -234.12,-100.25 -132.01,90 -120,216.02 -96,240.01 24,24.01 17.47,72.35 35.74,39.17 18.26,-33.18 12.25,-141.19 78.26,-171.18 66.01,-30 174.21,-63.52 216.12,-7.76l-0 -0zm0 0l0 0 0 0z"/>
  </g>
  <path class="fil3" d="M3105 4857.88c-20.19,38.56 -49.57,106.49 -62.42,115.67 -12.85,9.18 -47.74,-7.35 -130.35,-34.89 -82.62,-27.54 -279.07,-95.47 -521.42,-78.94 -242.35,16.52 -268.06,45.9 -297.43,60.59 -29.37,14.69 -25.7,12.85 -33.05,44.06 -7.35,31.21 -7.35,69.77 -7.35,69.77 0,0 173.54,-83.15 472.33,-71.87 298.79,11.28 588.87,143.47 601.72,141.63 12.85,-1.83 25.7,14.69 42.22,-16.52 16.52,-31.21 75.28,-113.83 88.13,-156.06 12.85,-42.23 -115.67,-358.02 -178.09,-482.86 -62.43,-124.85 -139.54,-284.58 -167.07,-304.78 -27.54,-20.19 -82.62,-11.01 -112,12.85 -29.37,23.87 91.5,167.5 304.77,701.34z"/>
  <path class="fil14" d="M3009.54 4905.61c9.18,3.67 22.03,-45.9 34.88,-62.42 12.85,-16.52 -113.83,-313.95 -176.25,-431.46 -12.44,-23.42 -27.81,-49.25 -44.11,-75.71 -80.92,35.95 -505.14,389.54 -610.17,477.58 434.25,-82.14 787.09,88.59 795.65,92.01z"/>
  <path class="fil15" d="M2421.89 4499.3c-66.72,63.3 -203.57,-17.11 -268.58,-118.04 -65.01,-100.93 -30.8,-251.48 -30.8,-251.48 -193.31,135.15 -239.5,260.03 -239.5,260.03 0,0 -6.84,37.64 42.77,205.29 49.61,167.65 191.46,240.75 191.46,240.75 4.44,-1.21 8.87,-2.34 13.3,-3.5l0.08 -0.07c44.37,-39.57 396.8,-385.76 667.56,-537.72 -7.76,-12.35 -15.51,-24.65 -23.04,-36.7 -28.72,0.23 -78.81,4.48 -144.55,-13.45 -75.27,-20.53 -140.28,-100.93 -140.28,-100.93l-112.91 59.87c0,0 34.21,15.4 73.56,78.69 39.35,63.3 37.64,153.96 -29.08,217.26z"/>
  <path class="fil3" d="M2282.84 4691.25c-121.43,-39.78 -140.81,-109 -140.81,-109 -8.67,136.45 25.78,186.63 40.45,201.57 26.24,-24.6 60.5,-56.49 100.36,-92.57z"/>
  <path class="fil14" d="M4488.91 3988.44c-0.04,49.1 -14.85,97.56 -29.83,133.14 35.05,10.61 90.05,40.56 124.3,60.26l46.91 -70.73 4.2 -216.59c-11.74,9.14 -19.7,12.28 -19.7,12.28l2.99 -38.5c0,0 -16.94,57.11 -54.16,77.26 -37.21,20.15 -68.22,17.06 -60.47,6.2 7.75,-10.85 9.3,-38.76 9.3,-38.76 0,0 -10.4,9.27 -23.53,18.37 0,10.01 0.01,27.51 -0.02,57.08zm-1808.44 -782.48l57.9 -37.28c219.73,-80.6 220.48,85.54 212.52,14.44 -9.36,-83.59 -17.19,-162.73 -26.52,-223.41 2,-44 22,6 24,38 2,32 26,247.99 64,413.99 38,166 58,208 144,333.99 52.92,77.53 91.44,102.05 113.26,109.44 -7.98,-12.06 -14.79,-23.64 -19.72,-34.58 -21.42,-47.6 -78.54,-130.91 -104.72,-209.45 -26.18,-78.54 -19.04,-114.24 -19.04,-114.24 0,0 16.67,49.98 78.55,176.13 31.78,64.78 65.44,117 90.67,152.49l-9.39 8.66 28.52 29.85c65,197.66 139.29,386.03 139.29,386.03 0,0 289.2,216.23 321.03,230.82 7.17,3.29 12.87,6.11 17.38,8.5 -13.19,-36.88 -31.05,-66.45 -55.87,-103.45 0,0 -2.88,-19.2 0.96,-25.92 3.84,-6.72 26.88,15.36 42.24,36.48 15.36,21.12 74.88,127.69 84.48,239.06 9.6,111.37 -13.22,205.44 -13.22,205.44 0,0 48.75,-80.63 60.27,-160.31 11.52,-79.69 -9.6,-178.57 -11.52,-197.77 -1.92,-19.2 0.96,-28.8 9.6,-18.24 8.64,10.56 37.44,76.8 42.24,168.01 4.8,91.21 -25.92,170.89 -25.92,170.89 52.8,-43.2 83.52,-107.53 114.26,-211.25 30.73,-103.72 22.07,-161.26 31.67,-164.14 9.6,-2.88 20.13,10.97 27.84,31.68 6.59,17.7 6.82,13.56 6.75,12.59 0.59,0.91 9.02,2.16 20.13,37.34 11.52,36.48 13.44,182.41 -6.72,260.18 -20.16,77.76 -36.48,106.57 -36.48,106.57 0,0 15.24,-6.67 33.6,-24.96 18.37,-18.29 65.49,-90.29 80.65,-151.69 15.15,-61.4 11.16,-37.43 16.97,-35.31 5.81,2.11 7.03,55.47 -18.89,114.04 -25.92,58.57 -55.69,83.52 -55.69,83.52 0,0 96.01,-41.28 142.09,-94.09 46.08,-52.8 72.96,-120.01 78.72,-191.05 5.76,-71.04 -14.4,-168.01 -17.28,-179.53 -2.88,-11.52 10.56,-9.6 25.92,6.72 15.36,16.32 51.84,77.76 57.6,171.85 5.76,94.09 -49.92,203.54 -49.92,203.54 61.48,-76.55 68.31,-107.35 89.28,-182.41 20.98,-75.06 16.52,-197.18 25.7,-163.06 9.18,34.12 15.14,116.28 15.14,116.28 5.32,-28.54 3.32,-73.23 3.32,-73.23l7.68 35.52c6.72,67.2 -20.16,170.89 -20.16,170.89 0,0 38.4,-30.72 65.59,-127.85 27.19,-97.13 -4.17,-219.97 -4.17,-219.97 0,0 66.26,136.61 31.17,244.64l47.15 -112.36c0,0 24.07,-86.27 -8.34,-147.77 -32.42,-61.5 -56.26,-86.18 -98,-112.06 -41.74,-25.88 -80.97,-46.94 -117.37,-46.15 -36.4,0.8 -110.35,22.07 -110.35,22.07 0,0 24.25,12.32 53.17,38.12 28.92,25.8 48.74,77.06 55.18,96.3 6.44,19.24 9.03,58.19 -7.02,33.11 -16.05,-25.08 -31.1,-55.18 -77.24,-97.31 -46.15,-42.13 -79.25,-46.15 -94.3,-52.17 -15.05,-6.02 -42.13,3.01 -42.13,3.01 0,0 -15.05,13.04 -35.11,5.02 -20.06,-8.02 -89.28,-9.03 -89.28,-9.03 0,0 23.07,12.04 43.14,70.22 20.06,58.19 13.04,84.27 10.07,98.19 -2.97,13.92 -7.06,-29.97 -7.06,-29.97 0,0 -21.07,-74.24 -57.18,-96.31 -36.11,-22.07 -57.18,-29.09 -129.41,-25.08 -70.99,3.94 -73.42,6.92 -73.48,7.02 0,0 -43.78,-65 -57.04,-120.71 -13.26,-55.71 -21.22,-126.02 -21.22,-126.02l14.79 -46.69c-1.5,-3.91 -2.82,-8.1 -3.91,-12.57 -3.26,-13.39 -6.48,-28.05 -8.3,-43.46 -21.5,8.15 -51.46,18.74 -82.17,27.11 -58.37,15.92 -159.18,11.94 -177.75,3.98 -18.57,-7.96 -168.47,-122.04 -168.47,-122.04l-1.46 -7.06 -33.14 30.57c-8.89,-31.3 -18.78,-70 -25.99,-109.14 -16.66,-90.44 -47.6,-245.16 -61.88,-378.44 -14.28,-133.28 -0,-530.76 16.66,-630.73 16.66,-99.96 54.86,-241.99 100.14,-304.44 45.28,-62.45 95.74,-119.93 128.7,-141 32.97,-21.06 -22.75,61.09 -22.75,61.09 -35.19,65.07 -61.9,121.7 -82.42,172.43 14.09,-3.96 99.42,-26.96 179.35,-26.96 87.46,0 205.69,21.06 205.69,21.06 0,0 -121.47,-38.87 -197.59,-43.73 -76.12,-4.86 -82.6,-8.1 -63.17,-11.34 19.43,-3.24 64.78,-9.72 147.38,-1.62 82.6,8.1 129.57,27.53 191.11,50.21 61.54,22.68 166.82,51.83 166.82,51.83 0,0 -53.45,-46.97 -90.7,-82.6 -37.25,-35.63 -111.75,-55.07 -134.43,-61.55 -22.67,-6.48 42.11,-1.62 102.03,21.06 59.92,22.67 127.95,98.8 173.3,131.19 45.35,32.39 53.45,14.58 68.02,9.72 14.57,-4.86 90.7,-87.46 149,-139.28 58.3,-51.83 105.9,-64.98 187.15,-82.32 81.24,-17.34 149.73,41.83 177.26,74.22 27.53,32.39 35.63,51.83 24.3,51.83 -11.33,0 -14.58,-25.91 -74.5,-61.54 -59.93,-35.63 -170.76,-13.69 -242.93,24.29 -36.13,19.01 -71.39,53.88 -106.33,88.44 88.3,-11.94 211.09,-16.65 258.15,-19.13 32.33,-1.7 72.01,9.22 102.48,24.63 18.82,9.52 34.12,20.76 42,31.79 20.64,28.89 22.02,50.91 8.26,50.91 -7.31,0 -13.07,-17.87 -40.18,-36.06 135.86,128.57 164.13,466.9 176.56,588.09 8.12,79.18 8.07,102.98 -2.71,242.8l67.72 128.44c0,0 -29.84,-224.27 -27.18,-420.8 2.67,-196.53 56.79,-436.97 56.79,-436.97 0,0 -6.3,254.47 19.96,357.52 0,0 18.38,-181.37 70.6,-347.07 53.63,-170.15 35.66,-569.28 -313.98,-610.5 -150.09,-17.69 -438.62,234.25 -438.62,234.25 -23.02,-47.16 118.62,-151.09 180.56,-198.69 -70.42,7 -218.87,20.41 -317.71,93.7 -98.85,73.28 -70.28,17.16 -43.94,-11.06 26.34,-28.22 93.97,-73.11 93.97,-73.11 0,0 -330.7,-16.84 -447.22,16.74 92.69,47.33 179.83,102.16 234.99,143.69 0,0 24.89,49.77 -47,8.3 -71.89,-41.48 -287.64,-128.88 -370.52,-160.38 -82.89,-31.5 -265.45,-41.48 -345.64,-5.53 -80.19,35.94 -149.31,127.2 -190.79,262.69 -41.48,135.49 -57.48,141.89 -56.93,222.07 0.56,80.18 -35.91,29.79 -28.79,-119.76 1.31,-27.63 7.41,-63.8 17.06,-103.61 -23.71,22.79 -58.85,57.37 -87.93,89.36 -48.92,53.81 -197.5,176.12 -171.23,398.71 26.28,222.59 53.55,363.99 53.55,363.99zm38.96 517.24c-73.22,121.61 -131.9,370.13 -145.51,430.74 68.43,64.48 137.69,75.98 186.11,79.51 -41.83,-68.2 -71.62,-124.04 -49.76,-131.99 40.39,-14.69 75.28,-51.41 161.56,-38.56 45.89,6.83 78.29,36 116.24,99.11 9.86,-7.41 16.98,-14.08 19.57,-19.37 23.06,-46.89 -39.59,-113.01 -56.34,-149.77 -26.5,-58.13 -40.31,-107.5 -44.11,-164.85 -79.7,-12.59 -143.36,-54.18 -187.76,-104.82zm1517.04 178.94c51.66,-24.53 75.98,-72.87 75.98,-72.87 0,0 7.75,49.61 26.36,54.27 18.61,4.65 17.06,20.16 38.76,6.2 21.7,-13.96 40.31,-54.27 49.61,-63.57 9.3,-9.3 12.79,-32.99 24.81,-12.4 12.02,20.59 -21.71,58.92 -6.2,91.48 15.51,32.56 18.61,18.6 54.27,-12.41 35.66,-31.01 26.36,-89.93 44.96,-83.73 18.61,6.2 -12.41,106.99 -15.51,117.84 -2.96,10.38 21.94,14.16 42.57,-21.74 0.93,-1.71 1.85,-3.42 2.78,-5.14 21.09,-41.36 42.67,-113.8 47.92,-126.06 3.11,-7.26 10.05,-16.58 15.37,-13.96 3.67,1.8 6.56,9.27 6.91,26.98 0.09,4.44 0.15,8.64 0.19,12.61 0.34,34.79 -0.99,51.33 -0.99,51.33 0,0 32.89,-58.77 29.52,-78.44 -1.31,-7.63 0.95,-18.05 -3.82,-34.64 -2.37,-8.22 -6.46,-17.95 -13.56,-29.61 -15.56,-25.52 -45.59,-60.25 -103.61,-108.5l-25.62 -15.68c-112.91,72.02 -240.17,145.18 -422.91,127.11 -22.5,-19.56 -37.38,-52.26 -39.67,-86.45 -17.56,4.37 -45.54,13.61 -74.64,32.39 -48.07,31.01 -139.55,86.83 -151.95,141.1 -1.84,8.05 -3.24,15.67 -4.28,22.81 -6,40.98 -0.42,66.11 -0.42,66.11 0,0 6.5,-14.21 18.54,-31.78 6.97,-10.17 15.8,-21.46 26.31,-31.77 9.33,-9.16 27.77,-28.51 31.06,-25 7.35,7.85 -0.46,38.72 -1.5,50.21 -1.55,17.05 -3.04,36.24 -3.04,36.24 0,0 37.01,-34.57 63.68,-54.19 26.67,-19.62 42.11,-19.2 58.26,-24.17 16.14,-4.96 33.12,-3.81 22.27,3.94 -10.85,7.75 -71.33,97.68 -68.22,110.09 3.1,12.41 69.77,-6.2 93.03,-23.26 23.26,-17.06 54.27,-49.62 54.27,-49.62 0,0 19.35,-16.23 10.85,12.41 -8.5,28.63 -40.31,63.57 -40.31,63.57 0,0 -14.09,26.34 29.46,-10.85 43.54,-37.19 75.98,-80.63 75.98,-80.63 0,0 17.22,-5.08 7.75,20.16 -9.46,25.24 -43.41,54.27 -43.41,54.27 0,0 16.57,19.88 68.22,-4.65zm-130.5 570.24c-0.02,-0.04 -0.03,-0.07 -0.03,-0.1 0,-0.14 0.02,-0.06 0.03,0.1z"/>
  <path class="fil16" d="M5393.01 340.22c-11.99,122.93 -41.97,350.8 -29.98,371.78 11.99,20.98 56.96,62.96 179.89,131.92 122.93,68.96 479.71,287.83 539.68,317.81 59.96,29.98 44.98,20.99 98.94,86.95 53.96,65.96 107.94,164.9 143.91,215.87 35.98,50.97 14.99,65.96 6,143.91 -9,77.95 -224.87,1217.27 -233.86,1256.25 -8.99,38.98 -20.98,56.97 -80.95,242.85 -59.96,185.89 -206.46,587.91 -216.63,621.83 -10.17,33.91 -6.78,33.91 57.65,61.04 64.43,27.13 270.96,125.5 308.26,142.45 37.3,16.96 -27.13,-128.87 -44.09,-264.52 -16.96,-135.65 -40.69,-152.61 -27.13,-189.91 13.56,-37.3 156,-288.26 156,-288.26 0,0 325.57,-1363.29 332.35,-1417.55 6.78,-54.26 30.52,-74.61 44.09,-78 13.56,-3.39 193.3,-57.65 193.3,-57.65l-386.6 -637.56c0,0 -796.95,-451.04 -851.21,-481.56 -54.26,-30.52 -189.61,-177.66 -189.61,-177.66z"/>
  <path class="fil7" d="M5340.35 4828.36c21.65,1.28 16.56,7.64 36.93,-6.37 20.37,-14 110.77,-91.68 115.87,-104.41 5.09,-12.73 40.75,-143.88 47.11,-193.54 6.37,-49.66 21.65,-124.78 19.1,-159.16 -2.55,-34.38 -40.74,-201.18 -58.57,-213.91 -17.83,-12.73 -80.22,-21.65 -134.97,-20.37 -54.75,1.28 -91.68,11.46 -95.5,33.11 -3.82,21.65 -17.83,52.2 1.27,62.39 19.1,10.19 61.12,7.65 98.04,25.47 36.93,17.82 44.57,40.74 40.75,47.11 -3.82,6.37 -17.82,1.28 -58.57,-6.37 -40.75,-7.64 -72.57,-3.82 -89.13,14 -16.56,17.83 -25.47,50.93 -20.37,63.67 5.09,12.73 -3.81,20.38 20.37,22.92 24.19,2.54 78.94,15.28 92.95,31.83 14,16.55 16.55,44.57 6.37,36.93 -10.19,-7.64 -90.4,-36.93 -119.69,-24.19 -29.29,12.73 -43.3,52.2 -42.02,77.67 1.28,25.47 11.46,53.48 17.83,50.93 6.37,-2.55 45.84,-5.1 73.85,7.64 28.01,12.74 34.37,33.1 31.83,43.29 -2.54,10.19 -22.91,-10.19 -67.48,-14 -44.57,-3.82 -62.39,10.19 -66.21,19.1 -3.82,8.91 -16.56,59.84 -11.46,67.48 5.09,7.64 108.23,7.65 132.42,22.92 24.19,15.28 34.38,19.09 36.93,33.1 2.55,14.01 -7.64,82.76 -7.64,82.76z"/>
  <path class="fil17 str3" d="M5800 3729.39c-10.17,33.91 -6.78,33.91 57.65,61.04 64.43,27.13 270.96,125.5 308.26,142.45 37.3,16.96 -27.13,-128.87 -44.09,-264.52 -16.96,-135.65 -40.69,-152.61 -27.13,-189.91 13.56,-37.3 156,-288.26 156,-288.26 0,0 325.57,-1363.29 332.35,-1417.55 6.78,-54.26 30.52,-74.61 44.09,-78 13.56,-3.39 193.3,-57.65 193.3,-57.65l-386.6 -637.56c0,0 -796.95,-451.04 -851.21,-481.56 -54.26,-30.52 -189.61,-177.66 -189.61,-177.66 -11.99,122.93 -41.97,350.8 -29.98,371.78 11.99,20.98 56.96,62.96 179.89,131.92 122.93,68.96 479.71,287.83 539.68,317.81 59.96,29.98 44.98,20.99 98.94,86.95 53.96,65.96 107.94,164.9 143.91,215.87 35.98,50.97 14.99,65.96 6,143.91 -9,77.95 -224.87,1217.27 -233.86,1256.25 -8.99,38.98 -20.98,56.97 -80.95,242.85 -59.96,185.89 -206.46,587.91 -216.63,621.83z"/>
  <path class="fil8" d="M4253.74 5045.76c-5.14,-34.95 -11.93,-73.24 -51.94,-95.32 -40.01,-22.07 -79.35,0.72 -99.13,13.78 -19.78,13.06 -58.55,82.37 -65.47,100.57 -6.92,18.2 -38.99,17.81 -49.62,7.72 -10.63,-10.09 -37.53,-85.18 -59.59,-93.75 -22.06,-8.57 -69.61,-30.73 -107.75,2.05 -38.14,32.78 -40.83,44.37 -35.23,72.69 5.2,26.34 66.26,166.99 99.44,202.76 5.97,-0.29 11.96,-0.57 17.94,-0.85 43.1,-2 86.6,-3.61 130.56,-4.81l133.63 5.18c23.31,-45.36 91.41,-181.01 87.15,-210.01z"/>
  <path class="fil8" d="M4424.38 4767.12c11.71,182.05 20.65,413.23 22.73,469.07 26.76,-0.41 53.69,-1.54 79.5,-7.36 31.33,-226.52 57.01,-545.2 77.5,-663.73l-0.57 0.69 -15.93 22.07c-37.7,104.24 -144.48,181.51 -135.1,159.95 5.9,-13.56 18.31,-67.33 27.02,-106.8 -9.8,32.96 -25.66,71.12 -42.37,105.84 -3.2,6.65 -7.56,13.44 -12.77,20.27z"/>
  <path class="fil8" d="M3627.17 5273.78l-114.59 -734.14c-85.72,-23.47 -146.43,-45.35 -192.6,-66.1 54.65,298.88 118.18,685.01 139.7,816.94 55.43,-6.22 111.22,-11.79 167.49,-16.7z"/>
  <path class="fil18 str2" d="M3717.47 5372.44c4.43,169.19 22.71,420.83 38.5,501.69 2.63,13.48 5.49,25.63 8.42,36.61 104.85,-16.9 210.17,-34.88 313.18,-53.71 1.14,-7.49 2.53,-15.46 4.21,-23.96 17.26,-87.19 69.37,-154.85 90.15,-178.07 50.14,-56.04 -130.1,-96.19 -163.74,-201.62 -9.47,-29.68 -5.56,-61.63 4.13,-91.33l-294.85 10.39zm524.11 302.11c-41.03,68.3 -56.79,109.63 -72.05,165.3 88.63,-16.9 174.85,-34.41 256.79,-52.37 -18.31,-157.44 -13.57,-301.31 -51.46,-438.21 -25.47,0.24 -49.21,0.04 -73.16,2.58l-157.88 5.56c-8.63,21.36 -17.69,48.87 -18.31,71.52 -1.22,43.99 9.43,74.89 73.31,109.97 63.88,35.09 92.45,52.93 42.77,135.64z"/>
  <path class="fil19 str4" d="M3387.54 5298.95c-13.07,-97.56 -47.19,-343.05 -75.26,-465.55 -24.39,-106.43 -51.14,-296.89 -83.76,-409.76 -13.02,-8.54 -24.9,-16.93 -36.56,-25.21 -16.31,-11.63 -126.68,-155.22 -141.8,-149.27 -4.29,1.69 -8.57,3.43 -12.86,5.16 21.87,44.31 46.8,97.58 76.9,161.09 117.5,247.86 205.63,490.2 187.27,528.76 -3.65,7.69 -10.9,21.36 -20.37,38.28 -3.9,51.83 -10.15,109.34 -8.59,145.47 3.01,70.63 -8.53,138.98 20.07,183.32 31.58,-4.3 63.23,-8.39 94.97,-12.29z"/>
  <path class="fil19 str4" d="M4668.39 4613.84c-7.53,80.33 -78.44,445.73 -109.64,604.45 28.23,-16.29 49.22,-81.92 71.13,-134.91 63.13,-152.74 129.41,-345.3 158.9,-491.06 6.66,-33.21 24.8,-105.58 20.74,-135.14 -7.26,-52.92 -79.06,-92.17 -115.59,-124.89 -17.62,-15.83 -33.52,-31.15 -48.67,-46.18 21.01,58.38 20.44,63.88 18.21,133.69 -0.2,6.29 -0.7,12.44 -1.46,18.47 0,0 16.07,72.24 6.39,175.57z"/>
  <path class="fil15" d="M3768.43 4540.93l-155.3 -100.41c-31.07,-6.03 -59.26,-12.28 -84.53,-18.61l-30.8 -6.69c-5.97,-2.39 -12.28,-4.69 -18.88,-6.93 -4.96,-1.5 -9.74,-2.99 -14.37,-4.48 -59.06,-17.9 -124.93,-32.33 -185.15,-56.39 -49.17,49.91 320.58,180.75 489.03,193.51z"/>
  <path class="fil20 str5" d="M5146.81 4269.53l90.37 -31.46c-6.43,-7.9 -13.94,-16.32 -16.52,-23.43 -2.05,-5.63 -2.44,-20.74 0.79,-38.04l-83.54 34.69c9.32,17.83 10.14,37.26 8.91,58.24zm-300.96 2181.56c-1.9,-57.91 -14.52,-518.99 -13.46,-606.98 -9.19,-1.57 -18.39,-3.29 -27.63,-5.15 -13.48,-11.21 -28.5,-30.76 -39,-51.14 -4.41,-0.17 -8.8,-0.31 -13.17,-0.41 -2.96,89.55 -9.72,312.7 -6.53,399.59 4.03,109.87 12.09,343.71 11.09,363.87 0,0 83.66,2.02 93.74,-2.02 10.08,-4.03 -3.02,-36.28 -5.04,-97.77zm25.89 -601.1c1.56,117.44 7.8,527.88 19.55,598.4 1.27,7.61 2.45,15.03 3.54,22.24 20.65,-2.04 47.7,-4.46 47.7,-4.46 0,0 -1.17,-46.99 -4.7,-70.49 -3.52,-23.5 -3.52,-326.6 -8.22,-378.3 -3.49,-38.39 5.33,-121.47 10.1,-161.7 -22.34,-0.86 -45.03,-2.79 -67.97,-5.69zm373.59 -677.3l-82.4 20.6 27.85 63.12 42.1 -10.73c3.76,-22.13 7.95,-46.72 12.45,-72.99zm-54.44 -283.59l-35.69 15.26c24.61,30.61 120.36,149.03 125.54,145.73 5.94,-3.78 9.19,-47 9.19,-47l-99.03 -113.99zm73.98 -142.67c-103.23,46.47 -212.54,102.43 -314.97,143.68l-8.16 70.37 16.32 0.69c49.28,-18.85 277.27,-121.18 349.13,-153.51 4.07,-19.17 7.78,-35.53 10.69,-48.35 -16.21,-5.84 -34.7,-9.87 -53,-12.88zm-195.78 60.71l32.83 -14.52 -108.5 -120.23c-0.69,4.11 -12.06,52.44 -7.51,57.88l83.19 76.87zm-63.2 -181.77l144.3 -46.11 -30.75 -42.55 -106.02 42.47 -7.53 46.19zm63.92 -241.61l89.32 127.78c3.41,-30.59 10.59,-47.89 25.7,-69.87l-64.87 -90.81 -50.16 32.9z"/>
  <path class="fil4 str0" d="M5090.38 4316.34c10.56,-20.23 21.99,-79.16 7.04,-83.56 -14.95,-4.4 -31.67,-10.56 -68.61,29.91 -36.94,40.46 -53.65,69.49 -66.85,101.15 -13.2,31.67 -25.51,84.44 -14.07,128.42 12.83,49.36 -2.19,61.43 50.7,74.18l24.8 -151.02c-7.27,-5.47 -10.78,-22.5 2.79,-36.63 21.11,-21.99 53.65,-42.22 64.21,-62.45z"/>
  <path class="fil3" d="M2870.07 4687.88c2.52,-26.35 -19.32,-52.27 -48.78,-57.89 -29.46,-5.63 -55.38,11.17 -57.9,37.52 -2.52,26.35 19.32,52.27 48.78,57.9 29.46,5.63 55.38,-11.18 57.9,-37.53z"/>
  <path class="fil21 str1" d="M5335.61 1047.94c-9.28,167 -92.78,1544.69 -176.27,2328.63 -33.15,311.2 -47.28,473.19 -52.28,555.5 88.52,16.42 293.75,60.35 322.88,44.67 34.48,-18.57 156.48,-50.39 177.7,-50.39 21.22,0 34.48,-2.65 31.83,18.57 -2.65,21.22 -10.61,34.48 -10.61,34.48 0,0 254.61,95.48 339.48,143.22 84.87,47.74 124.66,100.78 172.4,92.83 47.74,-7.96 -10.61,-87.52 -47.74,-167.09 -37.13,-79.57 -93.11,-147.94 -93.1,-147.94 -59.97,-28.61 -117.67,-55.39 -154.04,-69.25 -97.41,-37.11 -120.61,-32.47 -106.69,-69.58 13.92,-37.11 51.02,-139.16 106.69,-282.96 55.67,-143.8 194.83,-538.09 208.74,-579.84 13.91,-41.75 236.57,-1284.92 241.21,-1335.95 4.64,-51.03 9.28,-51.02 -9.28,-78.86 -18.56,-27.83 -162.35,-250.49 -190.19,-264.41 -27.83,-13.92 -431.4,-264.41 -579.83,-343.26 -148.44,-78.86 -125.25,-92.78 -157.72,-88.13 -32.47,4.64 -13.92,92.77 -23.19,259.77z"/>
  <path class="fil22" d="M5449.39 3638.78c27.88,-8.2 293.6,-203.39 326.41,-221.43 32.8,-18.04 41,-26.24 3.28,-44.28 -37.72,-18.04 -226.35,-104.98 -226.35,-104.98 0,0 -106.62,-113.18 -131.22,-129.58 -24.6,-16.4 -70.53,-14.76 -88.57,-19.68 -18.04,-4.92 213.23,257.52 213.23,257.52 0,0 -90.21,200.11 -104.97,223.07 -14.76,22.96 8.2,39.36 8.2,39.36zm59.05 -86.93c39.37,-75.45 82.01,-155.82 86.93,-168.94 4.92,-13.12 -55.77,-82.01 -55.77,-82.01l208.31 85.29 -239.47 165.67zm139.42 -316.56c-34.44,-21.32 -113.17,-147.62 -180.42,-167.3 -67.25,-19.68 -193.55,-68.89 -201.75,-67.25 -8.2,1.64 -1.64,-45.93 47.57,-57.41 49.2,-11.48 216.51,-37.72 300.16,-24.6 83.65,13.12 244.39,96.77 229.63,104.97 -14.76,8.2 -101.69,-36.08 -208.31,-65.61 -106.62,-29.52 -269,14.76 -269,14.76 0,0 134.5,41 172.22,68.89 37.72,27.89 101.69,136.14 111.54,136.14 9.84,0 121.38,-119.73 142.7,-129.57 21.32,-9.84 49.2,-4.92 49.2,-4.92l-193.55 191.91zm-338.6 -488.46c5.47,36.82 2.49,99.51 27.37,103.99 24.88,4.48 174.64,4.48 188.07,-2.98 13.43,-7.46 22.39,-28.36 -58.21,-64.19 -80.6,-35.82 -151.25,-59.71 -151.25,-59.71l-5.97 22.89zm40.3 27.86c0.5,20.9 2.49,35.33 2.49,35.33 0,0 99.51,12.44 108.96,8.96 9.45,-3.48 -91.55,-45.78 -100.01,-49.76 -8.46,-3.98 -12.44,-6.47 -11.44,5.47zm324.93 -151.03c48.63,-14.23 126.91,-28.47 150.64,-41.52 23.72,-13.05 13.05,-33.21 -9.49,-36.77 -22.54,-3.56 -148.26,-27.28 -256.2,-47.44 -107.94,-20.17 -151.83,-36.77 -180.3,-41.52 -28.47,-4.74 -37.96,15.42 -33.21,27.28 4.74,11.86 23.72,17.79 23.72,17.79 0,0 17.79,119.81 23.72,131.67 5.93,11.86 29.65,39.15 54.56,59.31 24.91,20.16 131.66,110.31 164.87,131.66 33.21,21.35 104.38,51 163.69,66.42 59.31,15.42 104.38,21.35 105.57,9.49 1.19,-11.86 -29.65,-34.4 -83.03,-83.03 -53.38,-48.63 -136.41,-174.36 -136.41,-174.36 0,0 -15.42,-9.49 11.86,-18.98zm102.01 208.76c0,0 -88.96,-96.08 -122.17,-147.08 -33.21,-51 -53.38,-64.06 -27.28,-78.29 26.1,-14.23 150.64,-45.07 150.64,-45.07 0,0 -157.76,-17.79 -241.97,-29.65 -84.22,-11.86 -131.66,-24.91 -131.66,-24.91 0,0 28.46,94.89 39.14,110.31 10.68,15.42 130.47,136.41 182.67,164.87 52.19,28.47 96.08,42.7 150.64,49.82zm-10.92 -772.25c36.56,-78.89 63.5,-100.06 40.41,-100.06 -23.09,0 -259.76,28.86 -259.76,28.86 0,0 454.11,-513.76 471.43,-536.85 17.32,-23.09 0,-46.18 -19.24,-28.86 -19.24,17.32 -506.06,550.31 -498.37,571.48 7.7,21.17 1.93,36.56 30.79,28.87 28.86,-7.7 236.68,-32.71 236.68,-32.71l-28.87 40.41c0,0 -284.78,44.25 -302.1,46.18 -17.31,1.93 -32.7,-17.32 -30.78,-28.86 1.92,-11.54 90.44,-171.26 140.46,-227.06 50.03,-55.8 384.84,-504.14 406,-513.76 21.17,-9.62 34.63,-7.7 67.35,36.56 32.71,44.26 7.7,25.02 17.32,44.26 9.62,19.24 36.56,28.86 36.56,5.77 0,-23.09 -69.28,-130.85 -86.59,-130.85 -17.31,0 -48.11,-5.77 -59.65,11.55 -11.54,17.31 -340.58,444.49 -371.37,475.28 -30.79,30.79 -125.07,188.57 -146.24,227.06 -21.17,38.48 -42.33,67.35 -36.56,75.04 5.77,7.7 28.86,53.88 44.26,53.88 15.39,0 101.98,-15.39 348.28,-46.18zm294.4 75.04c3.85,15.39 -11.55,30.79 -84.67,28.86 -73.12,-1.93 -527.23,-30.78 -542.62,-26.94 -15.39,3.85 -36.56,21.17 -34.63,36.56 1.92,15.39 17.32,76.96 15.39,125.07 -1.93,48.11 -9.62,46.18 13.47,61.57 23.09,15.39 461.8,128.92 461.8,128.92 0,0 -51.95,-44.26 -46.18,-67.35 5.77,-23.09 223.2,-238.6 223.2,-238.6l1.93 25.02 -184.72 215.51 67.35 88.51 -28.86 17.32 -534.93 -130.85 -15.39 -40.41 1.93 -142.39 -1.93 -71.19 58.69 -26.76 630.17 17.14z"/>
  <path class="fil23" d="M5530.82 2023.62c-28.86,7.7 -23.09,-7.7 -30.79,-28.87 -7.7,-21.17 479.12,-554.17 498.37,-571.48 8.63,-7.77 16.88,-7.41 21.78,-2.56l24.89 -21.2c-3.24,-3.02 -6.12,-6.72 -8.19,-10.87 -9.62,-19.24 15.39,0 -17.32,-44.26 -32.71,-44.26 -46.18,-46.18 -67.35,-36.56 -21.17,9.62 -355.98,457.96 -406,513.76 -50.03,55.8 -138.54,215.51 -140.46,227.06 -1.92,11.54 13.47,30.79 30.78,28.86 17.31,-1.93 302.1,-46.18 302.1,-46.18l28.87 -40.41c0,0 -207.81,25.02 -236.68,32.71zm444.49 140.46c-73.12,-1.93 -527.23,-30.78 -542.62,-26.94 -15.39,3.85 -36.56,21.17 -34.63,36.56 1.92,15.39 17.32,76.96 15.39,125.07 -1.93,48.11 -9.62,46.18 13.47,61.57 23.09,15.39 461.8,128.92 461.8,128.92 0,0 -51.95,-44.26 -46.18,-67.35 5.77,-23.09 223.2,-238.6 223.2,-238.6l-23.92 -25.37c-13.08,4.44 -34.14,6.98 -66.52,6.13zm-198.81 668.34c0,0 -88.96,-96.08 -122.17,-147.08 -33.21,-51 -53.38,-64.06 -27.28,-78.29 26.1,-14.23 150.64,-45.07 150.64,-45.07 0,0 -157.76,-17.79 -241.97,-29.65 -84.22,-11.86 -131.66,-24.91 -131.66,-24.91 0,0 28.46,94.89 39.14,110.31 10.68,15.42 130.47,136.41 182.67,164.87 52.19,28.47 96.08,42.7 150.64,49.82zm-426.93 -57.74c0.5,20.9 2.49,35.33 2.49,35.33 0,0 99.51,12.44 108.96,8.96 9.45,-3.48 -91.55,-45.78 -100.01,-49.76 -8.46,-3.98 -12.44,-6.47 -11.44,5.47zm470.33 246.54c-35.49,-10.2 -104.72,-40.87 -185.15,-63.15 -106.62,-29.52 -269,14.76 -269,14.76 0,0 134.5,41 172.22,68.89 37.72,27.89 101.69,136.14 111.54,136.14 9.84,0 121.38,-119.73 142.7,-129.57 7.76,-3.58 16.39,-5.21 24.23,-5.83l3.46 -21.24zm-311.45 530.61c39.37,-75.45 82.01,-155.82 86.93,-168.94 4.92,-13.12 -55.77,-82.01 -55.77,-82.01l208.31 85.29 -239.47 165.67z"/>
  <path class="fil4 str0" d="M4940.35 4291.73c-36.38,-29.45 -207.38,-156.74 -259.13,-176.24 -1.49,17.35 -7.52,28.56 -15.31,43.37 34.49,30.1 69.56,58.15 82.5,70.63 43.5,41.96 121.08,95.89 145.48,149.28l18.41 15.58c2.21,-42.98 -0.35,-71.48 28.06,-102.62z"/>
  <path class="fil3" d="M4974.35 4008.96c16.57,4.7 33.35,10.08 50.49,16.34 1.89,-3.45 9.38,-13.9 16.34,-30.99l-22.15 -9.11c-22.81,-10.74 -44.69,12.07 -44.69,23.76z"/>
  <path class="fil3" d="M4769.59 3972.92c-8.85,-15.54 -24.82,-39.53 -40.79,-43.16 -23.91,-5.43 -61.96,7.61 -61.96,7.61l1.88 21.32c35.33,5.85 68.66,10.18 100.87,14.23z"/>
  <path class="fil14" d="M5057.49 4098.49c-60.77,-22.47 -250.31,-76.07 -384.66,-93.12l6.65 75.62c44.86,21.98 162.89,80.64 204.72,109.59 38.98,26.98 74.59,57.34 90.04,70.9l1.79 -1.43c29.34,-23.35 46.86,-50.78 65.04,-69.24 3.25,-16.2 8.45,-44.28 16.42,-92.33z"/>
  <path class="fil3" d="M4918.98 5051.17l-167.54 -125.12c-9.9,30.41 -19.52,59.81 -28.59,87.42l152.54 104.29c11.34,-3.09 22.7,-5.85 34.01,-8.23l9.58 -58.36z"/>
  <path class="fil15" d="M4772.07 4862.39c39.04,26.24 83.7,51.89 117.4,70.37 -18.91,-73.92 -43.8,-167.59 -65.08,-235.52 -16.65,53.76 -34.59,110.19 -52.31,165.15z"/>
  <path class="fil3" d="M4854.88 4596.61c50.16,81.93 83.59,180.7 92.85,264.56l2.65 -1.2 18.97 -115.5c-5.06,-4.88 -8.61,-9.35 -8.61,-13.77 0,0 -40.85,-92.41 -90.71,-186.48 -4.66,16.54 -9.74,34.09 -15.14,52.39z"/>
  <path class="fil7 str6" d="M5339.89 4891.19l-9.31 49.35c23.2,-0.54 78.77,-5.89 91.27,-13.85 14.96,-9.52 5.44,-44.87 5.44,-44.87 0,0 -40.04,17.75 -87.4,9.37z"/>
  <path class="fil4 str0" d="M5299.87 5103.38l-8.2 43.49c11.27,-1.82 25.26,-4.24 37.52,-6.79l21.55 -124.17 -27.42 7.2c-2.66,17.89 -9.67,46.67 -11.24,58.85 -2.16,16.74 -6.59,22.3 -12.2,21.42z"/>
  <path class="fil24 str7" d="M2763.4 4374c31.3,65.33 154.07,320.95 186.8,379.02 37.61,66.72 -8.49,76.43 -8.49,76.43l-50.86 30.88c72.72,23.45 115.77,44.12 118.69,45.29 9.18,3.67 22.03,-45.9 34.88,-62.42 12.85,-16.52 -113.83,-313.95 -176.25,-431.46 -12.44,-23.42 -27.81,-49.25 -44.11,-75.71 -12.66,5.63 -33.73,19.03 -60.66,37.97z"/>
  <path class="fil25 str8" d="M2055.27 4791.97c-55.86,-114.46 -113.5,-259.72 -107.43,-352.12 6.78,-103.3 40.64,-140.56 40.64,-140.56l71.72 -57.54 32.37 -25.97 17.54 -14.07 3.98 -3.19c1.98,-40.37 8.43,-68.75 8.43,-68.75 -2.89,2.02 -5.74,4.03 -8.56,6.04 -5.12,3.65 -10.13,7.29 -15.04,10.93 -12.78,9.46 -24.85,18.84 -36.24,28.11 -143.3,116.6 -179.67,214.95 -179.67,214.95 0,0 -6.84,37.64 42.77,205.29 27.88,94.22 84.89,158.57 129.49,196.87z"/>
  <path class="fil26 str9" d="M2093.38 4920.3c-29.37,14.69 -25.7,12.85 -33.05,44.06 -7.35,31.21 -7.35,69.77 -7.35,69.77 0,0 14.82,-7.1 43.25,-16.87 29.06,-63.13 86.15,-111.59 86.15,-111.59 0,0 21.43,-2.98 52.54,-6.85 14.36,-1.79 30.79,-3.77 48.11,-5.74 59.24,-6.73 129.06,-13.31 163.17,-11.57 65.7,3.34 348.52,40.08 348.52,40.08l157.2 30.63c-11.82,-4.12 -25,-8.67 -39.69,-13.56 -82.62,-27.54 -279.07,-95.47 -521.42,-78.94 -46.51,3.17 -85.04,6.81 -117.15,10.74 -17.74,2.17 -33.52,4.42 -47.6,6.72 -20.23,3.31 -36.96,6.73 -50.96,10.16 -50.53,12.38 -65.57,24.89 -81.72,32.96z"/>
  <path class="fil26 str9" d="M2141.4 4593.56c-6.13,127.95 26.83,175.74 41.08,190.26 2.34,-2.19 4.74,-4.44 7.21,-6.75 0.21,-0.2 0.43,-0.4 0.65,-0.61 -13.38,-52.45 -17.41,-114.65 -18.62,-149.49 -0.04,-0.04 -0.09,-0.09 -0.13,-0.14 -23.96,-24.63 -29.56,-44.58 -29.56,-44.58 -0.24,3.84 -0.45,7.61 -0.63,11.31z"/>
  <path class="fil25 str8" d="M2377.42 4203.34c0,0 34.21,15.4 73.56,78.69 39.35,63.3 37.64,153.96 -29.08,217.26 66.79,-50.59 81.6,-96.35 80.25,-143.45 -1.35,-47.11 -32.92,-158.96 -68.28,-182.44l-56.45 29.94z"/>
  <path class="fil4 str0" d="M3188.89 4904.89c-8.91,33.41 -102.44,113.57 -102.44,113.57l-123.59 -10.02c0,0 -131.66,-23.35 -292.02,-31.93 241.19,36.89 445.46,128.92 456.2,127.39 12.85,-1.83 25.7,14.69 42.22,-16.52 16.52,-31.21 75.28,-113.83 88.13,-156.06 8.75,-28.76 -48.07,-184.43 -104.93,-320.23 13.19,78.98 43.45,267.5 36.43,293.8z"/>
  <path class="fil25 str8" d="M2812.18 4725.41c-19.68,-35.42 -23.98,-46.67 -7.43,-71.05 6.9,-10.17 17.56,-16.85 27.64,-21.19 -3.54,-1.37 -7.25,-2.45 -11.09,-3.19 -29.46,-5.63 -55.38,11.17 -57.9,37.52 -2.52,26.35 19.32,52.27 48.78,57.9z"/>
  <path class="fil8 str10" style="mask:url(#id0)" d="M5363.03 712c11.99,20.98 56.96,62.96 179.89,131.92 122.93,68.96 479.71,287.83 539.68,317.81 59.96,29.98 44.98,20.99 98.94,86.95 53.96,65.96 107.94,164.9 143.91,215.87 35.98,50.97 14.99,65.96 6,143.91 -9,77.95 -224.87,1217.27 -233.86,1256.25 -8.99,38.98 -20.98,56.97 -80.95,242.85 -59.96,185.89 -206.46,587.91 -216.63,621.83 -4.39,14.63 -6.26,22.95 -1.78,29.86l236.91 -567.9 144.05 -437.69 216.08 -1157.95 -27.7 -221.61 -138.51 -188.37 -173.18 -400.16c-214.12,-121.16 -444.93,-251.74 -473.26,-267.68 -54.26,-30.52 -189.61,-177.66 -189.61,-177.66 -11.99,122.93 -41.97,350.8 -29.98,371.78z"/>
  <path class="fil27 str11" d="M4198.81 5538.91c63.88,35.09 92.45,52.93 42.77,135.64 -15.06,25.07 -26.72,46.52 -36.2,66.36 -8.97,18.78 -15.98,36.14 -22.08,53.8 -5.02,14.52 -9.41,29.24 -13.77,45.14 35,-6.67 69.61,-13.44 103.74,-20.29 52.31,-10.5 103.46,-21.2 153.04,-32.07 -1.42,-12.22 -2.7,-24.35 -3.88,-36.41 -0.31,-3.16 -0.61,-6.32 -0.9,-9.47l-181.63 35.71c0,0 0.51,-1.35 1.46,-3.76 3.68,-9.26 13.94,-34.15 27.01,-57.74 6.33,-11.42 13.33,-22.54 20.55,-31.43 45.9,-56.46 35.31,-96.46 -30.39,-133.03 -36.46,-20.29 -83.25,-40.09 -127.59,-78.56 8.24,23.29 27.35,43.85 67.86,66.1z"/>
  <path class="fil27 str11" d="M3572.24 4555.21c6,38.72 16.8,109.22 30.91,204.34 63.67,25.64 112.98,38.41 168.77,48.26 15.28,2.7 31.33,5.5 48.01,8.3 7.45,-52.74 6.94,-123.37 -2.8,-207.72 -3.56,-0.54 -7.6,-1.59 -12.17,-3.27l-3.15 0.08c-10.52,-2.04 -20.79,-4.06 -30.92,-6.07 -8.08,-1.53 -15.65,-3.05 -22.65,-4.54l-0.29 -0.06c-67,-13.61 -125.07,-26.69 -175.72,-39.3zm440.32 225.2c-15.3,22.31 -32.28,40.92 -48.41,55.69 9.45,0.95 18.95,1.83 28.48,2.6 70.6,-77.65 75.17,-166.68 75.17,-166.68 0,0 -11.33,44.39 -55.23,108.39zm340.11 -48.92c-12.59,26.55 -33.49,53.7 -57.46,78.33 6.91,-2.35 13.98,-4.83 21.22,-7.45 27.03,-40.02 36.24,-70.88 36.24,-70.88z"/>
  <path class="fil28 str12" d="M4587.61 4587.86c-23.83,65.88 -75.24,120.98 -107.49,147.18 38.14,-17.04 75.14,-34.26 107.83,-49.8 5.7,-49.33 11.09,-90.85 16.15,-120.14l-0.57 0.69 -15.93 22.07zm-108.09 53.15c-9.8,32.96 -25.66,71.12 -42.37,105.84 -1.47,3.06 -3.19,6.16 -5.13,9.28 6.93,-2.98 13.86,-5.98 20.78,-9.01 6.01,-14.61 18.17,-67.28 26.72,-106.11zm-1130.72 -6.63c79.69,43.16 141.93,75 194,98.99l-30.24 -193.73c-85.72,-23.48 -146.42,-45.35 -192.6,-66.1 9.44,51.6 19.13,105.8 28.84,160.84z"/>
  <path class="fil24 str7" d="M5043.3 4179.43c-100,-76.7 -219.26,-133.63 -274.1,-157.89 -33.51,-6.71 -66.31,-12.35 -96.36,-16.17l6.65 75.62c44.86,21.98 162.89,80.64 204.72,109.59 38.98,26.98 74.59,57.34 90.04,70.9l1.79 -1.43c29.34,-23.35 46.86,-50.78 65.04,-69.24 0.66,-3.28 1.4,-7.06 2.22,-11.39z"/>
  <path class="fil4 str0" d="M5372.39 4576.17c0,0 28.7,-83.37 42.37,-168.1 13.67,-84.73 20.71,-170.58 8.99,-187.79 -11.72,-17.21 -75.96,-48.64 -75.96,-48.64l-2.99 -40.04c-13.05,0.97 -24.73,2.59 -34.77,4.88 -2.5,0.59 -4.92,1.22 -7.24,1.9 -18.04,5.29 -30.39,13.47 -32.48,25.32 -3.82,21.65 -17.83,52.2 1.27,62.39 8.38,4.47 21.17,6.49 36,8.85 18.98,3.02 41.31,6.61 62.05,16.62 36.93,17.82 44.57,40.74 40.75,47.11 -2.14,3.56 -7.45,3.54 -18.85,1.49 -18.38,-2.97 -47.11,-10.9 -74.14,-11.58 -3.26,-0.04 -6.43,0.02 -9.49,0.2 -19.7,1.12 -35.24,6.78 -45.22,17.53 -1.46,1.57 -2.86,3.26 -4.19,5.04 -13.82,18.46 -20.83,47.01 -16.18,58.62 4.39,10.97 -1.61,18.16 12.09,21.57 2.21,0.55 4.93,1 8.28,1.35 9.97,1.05 25.15,3.83 40.51,7.9 21.9,5.8 44.21,14.2 52.44,23.93 14,16.55 16.55,44.57 6.37,36.93 -5.73,-4.3 -33.63,-15.45 -62.15,-22.11 -17.98,-4.2 -36.22,-6.62 -49.3,-4.41 -3.05,0.51 -5.81,1.28 -8.24,2.33 -29.29,12.73 -43.3,52.2 -42.02,77.67 1.28,25.47 11.46,53.48 17.83,50.93 1.97,-0.79 7.11,-1.58 14.11,-1.91 13.01,-0.63 32.43,0.32 49.73,5.75 3.44,1.08 6.8,2.34 10.01,3.8 28.01,12.74 34.37,33.1 31.83,43.29 -2.15,8.62 -17.06,-4.64 -48.59,-11.24 -5.74,-1.2 -12.02,-2.18 -18.89,-2.77 -12.66,-1.08 -23.15,-0.73 -31.79,0.54 -21.77,3.19 -31.69,12.18 -34.42,18.56 -3.82,8.91 -16.56,59.84 -11.46,67.48 1.45,2.18 10.86,3.73 24.13,5.2 14.19,1.57 32.8,3.04 50.83,5.04 24.3,2.71 47.53,6.41 57.46,12.68 13.43,8.48 22.54,13.43 28.42,18.54 4.72,4.11 7.37,8.32 8.5,14.56 2.55,14.01 -7.64,82.76 -7.64,82.76 21.65,1.28 16.56,7.64 36.93,-6.37 20.37,-14 110.77,-91.68 115.87,-104.41 0.85,-2.12 2.55,-7.54 4.82,-15.33 -26.34,-43.79 -72.27,-79.61 -72.27,-79.61l-53.3 -46.46z"/>
  <path class="fil29" d="M2783.93 3943.44c-17.17,-11.11 -41.69,-30.6 -66.74,-51.63 -24.84,70.33 -42.7,138.13 -47.55,154.61 -9.31,31.66 0,-40.97 3.72,-72.63 1.67,-14.23 8.62,-55.19 20.66,-101.71 -10.76,-9.29 -21.23,-18.47 -30.81,-26.97 -45.74,121.64 -79.41,264.78 -89.3,308.81 68.43,64.48 137.69,75.99 186.11,79.52 -6.57,-10.71 -12.84,-21.12 -18.67,-31.08 -31.25,-53.48 -49.53,-94.2 -31.09,-100.91 18.45,-6.71 35.76,-18.02 57.33,-27.09 2.6,-13.09 5.08,-25.75 7.26,-37.18 12.09,-63.5 60.48,-60.47 9.07,-93.74zm189.26 -1301.5c1.52,46.78 4.09,91.1 8.07,133.3 1.48,15.67 3.15,31.05 5.03,46.15 1.02,8.23 2.11,16.37 3.26,24.43 1.42,9.94 3.24,20.67 5.41,32.08 2.69,14.1 5.92,29.26 9.63,45.26 8.81,37.98 20.33,80.75 33.62,125.65 28.42,96.05 64.96,201.86 100.56,291.49 31.77,79.98 62.79,147.07 86.63,182.83 13.54,20.31 27.29,39.99 40.7,58.56 -14.74,-80.66 -30.81,-175.26 -40,-260.99 -7.22,-67.36 -7.14,-202.21 -3.15,-332.03 1.51,-48.96 3.57,-97.2 6.01,-140.85 0.85,-15.19 1.74,-29.82 2.68,-43.73 0.57,-8.59 1.17,-16.9 1.77,-24.9 1.05,-13.95 2.14,-26.94 3.26,-38.78 0.67,-7.11 1.35,-13.81 2.04,-20.05 1.33,-11.94 2.68,-22.18 4.05,-30.4 0.9,-5.42 1.87,-10.96 2.9,-16.61 0.28,-1.54 0.56,-3.09 0.85,-4.64 10.27,-98.75 16.43,-166.15 26,-217.02 0.07,-0.36 0.14,-0.72 0.2,-1.07 6.26,-32.95 13.98,-58.94 25.23,-82.07 12.68,-26.06 29.85,-48.47 54.46,-73.09 10.2,-10.2 19.59,-19.37 28.24,-27.6 70.8,-67.35 92.65,-71.85 116.91,-69.16 8.23,0.91 40.83,11.24 84.81,26.71 14.65,5.15 30.57,10.88 47.27,17.02 69.49,25.54 152.55,58.23 214.54,86.67 26.15,12 48.56,23.25 64.62,32.88 72.44,43.46 115.24,138 147.51,170.34 9.2,5.76 16.59,9.09 22.71,10.79 18.24,5.04 25.21,-4.47 35.26,-7.82 10.58,-3.53 53.57,-48 98.64,-91.93 17.04,-16.61 34.37,-33.13 50.36,-47.35 10.26,-9.13 20.2,-17.05 30.04,-24.01 9.06,-8.24 17.44,-15.91 25.25,-23.07 4.41,-4.04 8.65,-7.91 12.72,-11.63 7.83,-7.13 15.08,-13.7 21.93,-19.77 58.6,-51.95 86.89,-67.12 184.51,-88.6 151.19,-33.26 226.78,-15.12 290.28,72.57 63.5,87.69 42.72,287.13 42.07,343.12 -0.01,0.9 -0.03,1.83 -0.06,2.8 -0.59,27.99 -4.62,258.02 20.03,354.72 0,0 18.38,-181.37 70.6,-347.07 53.63,-170.15 35.66,-569.28 -313.98,-610.5 -113.87,-13.42 -307.42,128.35 -394.2,197.56 -9.74,7.76 -18.13,14.61 -24.92,20.23 -12.46,10.31 -19.5,16.46 -19.5,16.46 -4.02,-8.24 -3.02,-18.2 1.71,-29.3 3.35,-7.86 8.56,-16.3 15.18,-25.07 37.53,-49.79 120.22,-110.91 163.67,-144.31 -65.03,6.47 -196.61,18.4 -294.22,77.91 -8.09,4.93 -15.94,10.18 -23.5,15.79 -18.09,13.41 -31.92,22.49 -42.27,28.2 -24.75,13.65 -29.63,8.01 -25.52,-3.7 3.56,-10.15 13.87,-24.86 23.86,-35.56 5.84,-6.26 13.72,-13.34 22.44,-20.57 30.58,-25.36 71.54,-52.54 71.54,-52.54 0,0 -330.7,-16.84 -447.22,16.74 26.37,13.46 52.28,27.54 77.15,41.73 14.28,8.15 28.2,16.35 41.66,24.5 45.52,27.54 85.73,54.53 116.19,77.46 0,0 24.89,49.77 -47,8.3 -27.02,-15.59 -74.37,-37.67 -127.35,-60.83 -16.37,-7.16 -33.28,-14.42 -50.3,-21.63 -74.39,-31.5 -150.77,-61.93 -192.87,-77.92 -82.89,-31.5 -265.45,-41.48 -345.64,-5.53 -68.28,30.61 -128.55,101.32 -170.55,205.31 -1.57,60.7 -2.8,118.07 -3.3,172.45 -0.56,60.8 -0.23,117.86 1.52,171.68zm-136.82 214.02c16.35,-55.31 24.69,-126.61 28.82,-192.06 1.51,-23.93 2.46,-47.08 3.03,-68.37 0.68,-25.35 0.83,-48.08 0.75,-66.38 -0.75,-13.89 -1.06,-29.37 -0.78,-46.39 0.13,-8.07 0.4,-16.5 0.82,-25.26 1.31,-27.63 7.41,-63.8 17.06,-103.61 -23.71,22.79 -58.85,57.37 -87.93,89.36 -48.92,53.81 -197.5,176.12 -171.23,398.71 6.56,55.59 13.81,106.6 21,151.85 2.72,17.14 5.44,33.46 8.1,48.89 0.14,0.81 0.28,1.62 0.42,2.42 3.91,22.54 7.7,43.14 11.25,61.61 0.56,2.92 1.12,5.79 1.67,8.6l105.51 -42.74c0,0 6.44,-24.41 19.09,-69.57 0.91,-3.26 1.86,-6.63 2.84,-10.1 5.77,-20.48 12.66,-44.68 20.66,-72.3 5.74,-19.82 12.05,-41.41 18.92,-64.66z"/>
  <path class="fil30 str13" d="M3605.28 4298.73c72.68,51.45 76.82,36.06 145.48,-47.83 32.24,-39.4 50.02,-75.64 59.81,-102.99 -6.16,-14.25 -11.57,-29.15 -14.97,-43.44 -13.26,-55.71 -21.22,-126.02 -21.22,-126.02l14.79 -46.69c-1.5,-3.91 -2.82,-8.1 -3.91,-12.57 -3.26,-13.39 -6.48,-28.05 -8.3,-43.46 -21.5,8.15 -51.46,18.74 -82.17,27.11 -58.37,15.92 -159.18,11.94 -177.75,3.98 -15.74,-6.74 -125.84,-89.74 -159.02,-114.87 11.98,34.55 23.11,78.59 32.1,120.04 91.48,144.02 147.29,338.68 215.16,386.73z"/>
  <path class="fil30 str13" d="M4389.52 4267.08c4.29,8.01 6.38,11.92 0,0zm-547.27 -58.39c-59.54,-21.52 -87.04,56.89 -85.36,139.24 -2.56,4.98 -5.24,10.13 -8.07,15.44 9,6.82 21.28,20.11 30.69,33.05 6.72,9.24 21.88,34.82 37.62,69.99 10.13,22.65 20.5,49.26 29.02,78.06 2.35,7.96 4.56,16.08 6.59,24.33 8.46,-7.98 15.41,-15.62 21.11,-22.83 26.69,-33.75 26.12,-57.99 25.76,-62.42 -0.03,-0.26 -0.06,-0.5 -0.08,-0.73 -0.5,-5.04 -0.68,-9.17 -0.58,-12.47 0.44,-14.47 6.26,-12.79 13.91,0.35 3.24,5.56 6.8,13.19 10.41,22.5 30.41,13.69 79.17,37.17 78.6,46.65 -0.2,3.28 2.53,8.49 7.01,14.22 7.93,10.16 21.37,21.98 33.84,27.71 2.47,-8.83 4.65,-17.31 6.58,-25.42 8.82,-37.04 12.43,-66.48 14.55,-87.78 2.53,-25.31 2.95,-39.12 7.53,-40.49 9.6,-2.88 20.13,10.97 27.84,31.68 0.96,2.59 1.8,4.72 2.51,6.46 0,0 73.51,41.73 99.42,75.61 3.97,5.19 6.95,11.41 9.24,18.14 8.46,24.93 7.37,56.74 11.61,68.36 2.09,5.7 5.46,6.54 11.89,-0.72 12.98,-14.63 39.49,-41.87 58.77,-74.61 14.97,-25.43 25.57,-54.17 22.09,-82.92 -5.41,-44.63 17.78,13.44 34.94,69.12 4.05,13.13 7.76,26.13 10.69,37.62 1.08,-13.33 1.24,-27.58 0.78,-42 -1.55,-48.53 -10.2,-99.06 -15.07,-123.52 -1.39,-7 -2.48,-11.87 -3,-13.94 -2.47,-9.88 7.07,-9.87 19.53,0.63 2.06,1.74 4.21,3.77 6.39,6.09 6.63,7.04 17.19,22.49 27.52,45.33 0,0 16,17.08 30.09,39.08 8.67,13.54 16.61,28.95 19.65,43.37 7.97,37.86 28.8,21.15 28.8,21.15 10.71,-70.01 9.07,-146.98 16.6,-119.01 2.39,8.87 4.56,21 6.46,34.09 0,0 5.25,6.22 12.2,15.34 -0.1,-4 -0.2,-6.38 -0.2,-6.38l1.85 8.55c13.01,17.28 30.69,43.24 31.93,58.23 1.99,23.91 18.21,-122.39 3.98,-159.43 -3.66,-9.53 -9,-21.81 -15.42,-35.13 -15.18,-31.49 -36.41,-68.81 -55.79,-89.42 -4.28,-4.55 -8.47,-8.29 -12.49,-10.96 -16.17,-10.78 -9.6,7.6 -2.68,32.74 5.87,21.33 11.99,47.53 4.67,64.91 -8.01,19.02 -16.83,-36.12 -32.49,-58.27 -15.5,-21.93 -37.83,-10.71 -44.17,-21.2 -0.01,-0.03 -6.83,7.72 -6.84,7.69 -1.59,-2.63 37.69,154.92 23.72,121.6 -4.12,-9.81 -8.64,-19.23 -13.54,-28.24 -19.52,-35.85 -45.16,-65.34 -75.91,-88.45 -10.16,-7.63 -20.87,-14.57 -32.11,-20.81 -31.5,-17.5 -65.74,-39.79 -88.71,-55.26 -3.18,0.84 -5.16,1.5 -5.16,1.5 0,0 -15.05,13.04 -35.11,5.02 -20.06,-8.02 -89.28,-9.03 -89.28,-9.03 6.24,3.25 13.02,10.74 19.67,20.92 7.23,10.68 15.59,26.43 23.47,49.3 5.01,14.52 8.33,27.05 10.44,37.88 1.96,10.06 2.89,18.66 3.17,26.05 0.62,16.54 -2.01,27.04 -3.55,34.26 -0.42,1.98 -0.86,2.8 -1.31,2.72 -2.04,-0.22 -4.23,-18.24 -5.22,-27.43 -0.41,-3.39 -0.7,-5.83 -0.83,-6.28 -0.01,-0.03 -0.02,-0.06 -0.03,-0.1 -0.4,-1.32 -0.81,-2.66 -1.25,-4.02 -1.6,-4.98 -4.39,-13.18 -8.29,-22.76 -4.29,-10.53 -9.91,-22.73 -16.76,-34.18 -8.14,-13.56 -17.56,-25.34 -27.97,-32.56 -0.85,-0.59 -1.71,-1.15 -2.58,-1.68 -36.11,-22.07 -57.18,-29.09 -129.41,-25.08l-73.48 7.02c0,0 -4.2,-6.24 -10.39,-16.5z"/>
  <path class="fil30 str13" d="M3968.33 3830.89c26.67,-19.62 42.11,-19.2 58.26,-24.17 16.14,-4.96 33.12,-3.81 22.27,3.94 -10.85,7.75 -71.33,97.68 -68.22,110.09 3.1,12.41 69.77,-6.2 93.03,-23.26 6.57,-4.82 13.77,-10.88 20.71,-17.1 17.61,-15.76 33.56,-32.52 33.56,-32.52 0,0 14.97,-12.55 12.8,3.9 22.7,-11.24 54.35,-24.11 96.29,-35.3 101.48,-27.07 75.72,-71.74 61.78,-73.73 -13.95,-1.99 -109.61,-3.98 -194.54,-31.52 -20.2,-17.56 -34.24,-45.7 -38.57,-76 -21.18,3.69 -54.2,8.04 -75.74,21.94 -48.06,31.01 -139.55,86.83 -151.95,141.1 -1.77,7.76 -3.17,15.43 -4.23,22.84 5.2,12.39 11.22,23.82 18.07,34.31 6.94,-10.13 15.73,-21.38 26.19,-31.65 0.04,-0.04 0.08,-0.08 0.12,-0.12 9.33,-9.16 27.77,-28.51 31.06,-25 7.35,7.85 -0.46,38.72 -1.5,50.21 -1.55,17.05 -3.04,36.24 -3.04,36.24 0,0 37.01,-34.57 63.68,-54.19z"/>
  <path class="fil30 str13" d="M4633.94 3922.79c-82.26,28.56 -44.8,77.16 -66.07,114.97 -15.16,26.94 -27.63,85.62 -33.54,117.1 17.95,9.36 35.2,19.01 49.05,26.97l40.69 -61.34 6.23 -9.39 3.65 -188.31z"/>
  <path class="fil30 str13" d="M4585.63 3876.6c17.22,-40.89 32.8,-92.42 37.15,-102.58 3.19,-7.46 6.67,-11.65 9.85,-13.35 2.17,-1.31 4.33,-1.52 6.24,-0.06 2.37,1.46 4.06,4.76 4.53,9.16l0.02 0.31c0.91,4.15 1.5,9.71 1.65,16.96l-0.08 6.17 0.23 3.42 -0.06 3.24 -0.9 51.11c0,0 13.5,-24.13 22.31,-46.63 4.5,-11.97 7.69,-23.91 7.07,-32.63 -0,-0.04 -0.01,-0.07 -0.02,-0.11 -0.73,-4.78 -0.73,-9.24 -0.87,-14 -0.38,-6.23 -0.8,-11.44 -1.96,-16.81 -0.23,-0.99 -0.49,-2 -0.78,-3.04 -0,-0.02 -0.01,-0.04 -0.02,-0.06 -1.4,-4.98 -3.52,-10.6 -6.79,-17.15 -1.4,-2.76 -3.02,-5.75 -4.9,-9.02l-1.92 -3.23c-15.56,-25.52 -45.6,-60.24 -103.61,-108.5 -74.69,64.63 -188.11,76.44 -166.85,90.62 21.27,14.18 158.32,-2.36 174.86,35.44 16.54,37.81 24.85,150.75 24.85,150.75z"/>
  <path class="fil31" d="M5118.81 4785.15c-12.54,-14.24 -85.31,-96.82 -110.42,-125.15l166.84 -66.31c-9.93,12.24 -29.7,50.36 -29.7,71.68 0,24.19 8.91,59.85 26.74,67.48 7.53,3.23 25.52,5.09 47.72,7.61 -26.73,11.79 -63.23,27.9 -101.19,44.68zm201.05 439.16c-14.65,84.73 -38.51,222.95 -54.56,292.55 5.25,112.75 -45.84,285.22 -140.05,315.98 -43.2,14.1 -89.67,21.4 -138.26,23.01 -2.49,36.9 -5.61,97.15 -3.33,142.74 3.52,70.49 19.97,364.2 28.19,425.29 8.22,61.09 5.88,81.06 -15.27,90.46 -17.98,7.99 -56.33,7.49 -94.85,8.6 4.7,42.69 5.26,71.31 2.58,77.33 -4.03,9.07 -155.23,11.09 -181.43,7.06 -26.2,-4.03 -11.09,-3.02 -12.09,-72.57 -1.01,-69.55 -21.17,-388.06 -13.1,-491.89 5.91,-76.11 10.86,-196.5 13.08,-255.35 -61.03,1.94 -118.04,12.36 -167.91,38.31 -59.61,-8.48 -86.59,37.82 -124.93,50.27 -96.01,10.48 -179.56,22.42 -261.63,36.16 -1.6,12.35 -3.75,24.5 -6.4,29.8 -6.36,12.72 -39.96,18.17 -56.31,14.53 -8.13,-1.81 -15.37,-10.81 -18.46,-30.14 -88.46,16.08 -179.42,34.39 -286.52,55.33 8.29,21.7 9.98,30.59 -5.79,36.9 -30.98,12.39 -88.99,69.14 -97.06,26.85 -1.83,-9.57 -5.26,-24.04 -9.6,-42 -75.07,14.32 -158.33,29.75 -253.17,46.39 1.53,10.45 2.85,19.13 3.88,25.68 8.37,53.58 -73.68,63.63 -85.4,43.54 -5.21,-8.94 -12.41,-26.83 -19.83,-51.74l-11.82 2c-198.57,21.2 -359.19,-85.69 -510.59,-155.71 -52.42,-24.3 -124.94,-37.69 -144.52,-79.42 -18.99,-40.4 -11.22,-117.82 -15.93,-190.96 -10.69,-166.54 -20.01,-327.83 -56.86,-496.39 -26.08,18.39 -53.59,41.88 -82.02,72.07 -136.09,144.52 -133.22,216.07 -163.81,231.89 -53.37,27.6 -169.37,-52.99 -146.98,-102.96 6.83,-15.24 13.55,-41.19 35.02,-79.19 -7.62,-66.09 -13.19,-158 -12.15,-224.8 -17.48,2.8 -32.64,5.7 -45.13,8.55 -104.65,23.87 -126.68,69.77 -174.42,23.87 -47.74,-45.9 -14.69,-128.52 5.51,-161.57 12.19,-19.95 26.39,-35.88 51.88,-50.63l-0.02 0.01c-192.5,-221.9 -200.97,-402.52 -202.68,-436.73 -1.71,-34.21 0,-44.48 51.32,-133.44 51.32,-88.96 266.87,-275.43 287.4,-289.11 20.53,-13.69 51.32,11.98 27.37,35.93 -23.95,23.95 -76.98,157.39 -46.19,282.27 30.79,124.89 261,240.97 273.72,95.8 12.71,-145.17 -107.78,-196.73 -124.88,-193.31 -17.11,3.42 -13.69,-17.11 -13.69,-34.22 0,-17.11 20.53,-29.08 106.06,-75.27 54,-29.16 84.81,-31.05 100.2,-28.47 8.63,-48.81 43.84,-193.29 179.85,-415.33 -83.17,-140.37 -93.7,-337.61 -53.43,-433.65 2.33,-5.59 9.07,-13.74 15.91,-22.69l0 0c-31.78,-109.85 -35.83,-174.56 -58.06,-307.95 -24.46,-146.76 -19.57,-266.63 66.04,-408.5 75.05,-124.36 221.51,-250.6 282.88,-314.46 34.61,-82.61 77.26,-153.53 118.2,-172.72 88.48,-41.48 201.85,-30.42 356.7,-2.77 58.02,10.36 126.54,35.35 195.21,66.81 38.94,-19.65 89.14,-30.13 208.91,-43.62 133.59,-15.05 365.04,28.22 413.96,26.34 48.92,-1.88 305.44,-48.26 305.44,-48.26l-0.04 0.03c18.38,-6.6 37.43,-11.63 57.62,-15.07 135.32,-23.08 403.33,22.63 443.49,319.82 40.16,297.19 -44.5,403.1 -64.09,480.3 -19.6,77.2 -64.26,273.4 -62.1,342.56 2.16,69.16 -29.22,40.21 -33.41,14.48 -4.19,-25.73 -42.13,-134.52 -36.54,-183.06 0,0 16.54,527.81 44.27,640.72 27.74,112.9 -45.66,22.11 -65.37,-11.94 -10.33,-17.85 -34.69,-63.44 -55.54,-102.78 -12.7,83.52 -29.96,164.23 -51.26,239.07 -5.54,19.44 -12.09,42.57 -19.75,67.06 -0.79,2.82 -1.69,5.66 -2.7,8.52 -8.98,28.04 -19.41,57.46 -31.46,84.84l1.56 17.67c0.18,-0.07 45.69,-16.94 81.5,-7.18 32.49,8.86 29.31,16.83 52.65,70.76 49.17,6.23 96.28,12.75 144.61,24.3 33.53,-39.06 44.8,-51.03 72.31,-59.19 3.65,-1.08 6.96,-1.78 9.96,-2.16 1.72,-4.66 3.07,-9.83 3.72,-15.63 4.64,-41.75 255.13,-3191.43 296.88,-3673.85 0,0 -27.83,-125.24 4.64,-129.89 32.47,-4.64 218.02,241.21 301.52,296.88 83.5,55.67 654.06,403.57 723.64,445.31 69.58,41.75 134.52,46.39 171.63,92.78 37.11,46.39 333.98,584.48 375.73,658.7 41.75,74.22 46.39,51.02 27.83,69.58 -18.56,18.56 -273.69,74.22 -282.96,92.78 -9.28,18.56 -296.88,1359.14 -310.8,1400.89 -13.92,41.75 -194.82,361.82 -194.82,361.82 0,0 88.13,347.9 102.05,408.2 13.92,60.3 23.19,69.57 -13.92,60.3 -15.15,-3.79 -65.91,-27.7 -127.28,-57.19l-0.52 -0.25c19.52,27.12 46.89,69.33 66.84,116.92 34.48,82.22 47.74,180.35 47.74,180.35 0,0 -55.7,42.44 -87.52,45.09 -31.83,2.65 -209.53,-103.44 -273.18,-137.92 -63.65,-34.48 -291.74,-111.39 -291.74,-111.39l0 -34.48c0,0 -39.78,5.31 -68.96,21.22 -13.24,7.22 -19.38,7.34 -23.13,8.3 86.07,23.22 135.65,36.89 111.72,47.15 -23.93,10.26 -31.41,23.47 -65.28,28.83 9.93,7.13 16.62,15.09 21.96,24.18 12.73,21.65 48.38,103.13 56.02,140.06 7.64,36.93 21.65,89.13 5.09,194.81 -16.55,105.68 -56.02,267.39 -77.67,283.94 -16.92,12.94 -56.41,69.45 -84.39,91.07 22.93,27.85 37.85,55.25 27.5,69.04 -12.24,16.32 -17.67,73.43 -29.91,76.15 -5.07,1.13 -29.22,7.37 -55.8,14.31 -16.4,47.84 -23.02,84.06 -25.69,105 -1.7,13.33 -1.8,20.47 -1.8,20.47 16.12,-7.33 49.82,8.79 49.82,8.79l-19.05 51.57 -45.73 28.49 -20.08 2.37zm-28.2 -77.44c11.27,-1.82 25.26,-4.24 37.52,-6.79l21.55 -124.17 -27.42 7.2c-2.66,17.89 -9.67,46.67 -11.24,58.85 -2.16,16.74 -6.59,22.3 -12.2,21.42l-8.2 43.49zm-1058.95 492.75c-14.54,28.16 -68.28,123.51 -85.53,177.1 -17.26,53.59 -2.75,72.36 -10.46,98.85 -7.71,26.49 -36.59,29.54 -38.59,18.32 -2,-11.22 -2.73,-74.48 5.45,-111.72 8.18,-37.24 49.05,-102.63 71.76,-136.24 22.7,-33.61 35.42,-48.14 29.06,-64.49 -6.36,-16.35 -36.33,-46.32 -59.94,-63.58 -23.61,-17.26 -99.91,-78.11 -108.08,-105.36 -8.18,-27.25 -6.36,-84.47 14.53,-125.34 20.89,-40.87 59.04,-89.92 82.65,-95.37 23.61,-5.45 36.41,-0.52 35.92,18.36 -0.49,18.88 -29.17,46.83 -48.63,67.02 -55.16,57.23 -60.3,132.49 18.17,200.73 66.99,58.25 83.56,59.94 93.55,76.3 9.99,16.35 0.16,45.43 0.16,45.43zm-550.71 -356.04c-11.18,-7.69 -48.53,-5.62 -51.33,-1.43 -2.8,4.19 -8.18,418.37 73.89,701.03l35.96 -16.87c0,0 -32.61,-140.09 -41.73,-294.09 -9.12,-154 -16.79,-388.65 -16.79,-388.65zm-286.46 42.52c-11.69,68.18 -29.22,198.7 -29.22,268.82 0,70.13 4.69,332.9 17.18,409.11 12.49,76.21 17.49,79.96 -1.25,82.46 -18.74,2.5 -33.73,6.24 -39.98,-32.48 -6.25,-38.73 -19.99,-128.69 -24.99,-199.9 -5,-71.21 -3.74,-256.11 1.25,-324.83 5,-68.72 11.24,-153.67 18.74,-179.91 7.5,-26.24 7.5,-26.24 58.27,-23.26zm201.07 82.96c-27.93,-11.05 -63.65,-6.32 -99.36,2.44 -33.67,8.26 -70.71,26.59 -90.59,50.46 3.47,-26.69 7.51,-52.98 12.13,-78.99l175.81 -6.19c0.56,10.23 1.24,21.04 2.02,32.29zm-198.01 127.51c7.3,13.3 19.71,23.47 37.18,26.26 55.95,8.95 124.69,2.15 170.59,-36.31 7.52,81.24 16.36,165.52 21.56,223.7 5.23,58.59 17.93,122.76 30.24,177.31 -42.95,6.65 -85.65,13.11 -127.92,19.36 42.33,-13.09 111.79,-67.81 100.85,-117.83 -7.42,-33.93 -55.15,-47.72 -100.74,-47.72 -45.59,0 -97.3,25.52 -114.52,42.42 -6.78,6.65 -12.33,18.1 -16.06,30.5 -2.53,-28.67 -4.68,-58.06 -6.13,-86.98 7.42,8.71 20.46,13.69 46.91,11.59 70.01,-5.56 166.16,-33.84 172.91,-119.93 2.54,-32.32 7.67,-82.27 -103.89,-73.91 -28.59,8.37 -85.76,29.98 -108.77,57.17 -3.4,4.02 -6.27,8.67 -8.7,13.75 0.96,-40.99 3.14,-80.69 6.49,-119.39zm7.14 378.2c16.26,17.82 49.38,42.94 62.67,41.15 -19.11,2.76 -38.11,5.48 -56.98,8.14 -1.91,-15.59 -3.83,-32.12 -5.69,-49.29zm-104.99 60.5c-1.62,-9.74 -3.14,-19.84 -4.52,-30.27 -11.72,-88.75 -36.84,-232.76 -30.14,-329.88 4.02,-58.3 8.65,-152.79 16.41,-227.35l-97.73 3.44 0 0c-50.16,-0.89 -104.33,9.87 -144.06,3.51 -0.49,-70.08 88.81,-30.69 96.25,-77.81 5.61,-35.65 -49.14,-38.34 -31.31,-94.47 45.46,16.53 69.33,53.03 117.81,66.73 27.93,-61.1 20.39,-151.82 12.61,-230.84 -35.48,56.54 -74.74,111 -90.7,108 -8.31,-1.55 -14.42,-6.05 -25.14,-13.03l1.05 0.69c-36.7,55.75 -178.47,281.58 -314.17,639.31 148.26,77.29 291.79,166.31 493.62,181.98zm-7.19 -664.16c2.82,-13.04 5.93,-23.13 9.38,-29.23 10.59,-18.73 45.45,-32.46 77.45,-35.38 -15.94,-115.4 -44.22,-308.81 -68.12,-413.09 -24.39,-106.43 -51.14,-296.89 -83.76,-409.76 -13.02,-8.54 -24.91,-16.93 -36.57,-25.22l0 0.02c-16.31,-11.63 -126.68,-155.22 -141.8,-149.27 -4.29,1.69 -8.57,3.43 -12.86,5.17l-2.4 -4.85c22.45,45.26 48.09,100.09 79.3,165.93 117.5,247.86 205.63,490.2 187.27,528.76 -3.65,7.69 -10.9,21.36 -20.37,38.28 -3.9,51.83 -10.15,109.34 -8.59,145.47 3.01,70.63 -8.53,138.98 20.07,183.32l1 -0.13zm425.23 -77.19c-0.86,8.77 -1.46,19.8 -1.84,32.63 29.79,-2.2 59.74,-4.22 89.86,-6.04 -63.3,-90.31 -105.86,-161.39 -96.22,-222.86 10.13,-64.67 64.56,-87.29 114.98,-106.63 50.43,-19.33 130.62,-5.1 149.65,20.05 19.03,25.15 41.83,50.34 41.83,50.34 0,0 29.23,-67.78 69.99,-83.9l4.41 -1.76c-32.5,3.76 -62.63,4.41 -80.56,4.87 -38.54,0.99 -67.2,-5.76 -67.2,-5.76 -3.39,-8.64 -14.72,-26.58 -9.05,-34.13 5.67,-7.56 31.16,-16.06 31.16,-16.06 96.33,-82.16 101.99,-192.66 101.99,-192.66 0,0 -11.33,44.39 -55.23,108.39 -43.9,64.01 -101.54,97.48 -113.81,97.48 -12.28,0 -20.78,-12.28 -20.78,-12.28 -21.72,27.39 -96.33,58.55 -77.44,20.78 18.89,-37.78 32.11,-111.44 19.83,-246.48 -1.01,-11.11 -2.08,-21.58 -3.23,-31.53 -3.56,-0.54 -7.6,-1.59 -12.17,-3.27l-3.15 0.08c-10.52,-2.04 -20.79,-4.06 -30.92,-6.07 -8.08,-1.53 -15.65,-3.05 -22.65,-4.54l-0.29 -0.06c-67,-13.61 -125.07,-26.69 -175.72,-39.3 13.62,87.98 52.06,340 97.81,672.13 27.99,1.63 48.75,6.57 48.75,6.57zm-1.33 138.52c4.43,169.19 22.71,420.83 38.5,501.69 2.63,13.48 5.49,25.63 8.42,36.61 104.85,-16.9 210.17,-34.88 313.18,-53.71 1.14,-7.49 2.53,-15.46 4.21,-23.96 17.26,-87.19 69.37,-154.85 90.15,-178.07 20.77,-23.22 3.67,-43.99 -37.88,-73.32 -41.55,-29.33 -107.53,-70.87 -125.86,-128.3 -9.47,-29.68 -5.56,-61.63 4.13,-91.33l-294.85 10.39zm-126.6 -95.39c-4.01,-45.36 -9.78,-42.74 29.3,-48.12l-107.59 -689.29c-85.72,-23.48 -146.42,-45.35 -192.6,-66.1 54.65,298.88 118.18,685.01 139.7,816.94 43.49,-4.88 87.2,-9.35 131.19,-13.43zm578.66 562.8c15.26,-55.67 31.02,-97 72.05,-165.3 49.69,-82.71 21.11,-100.55 -42.77,-135.64 -63.88,-35.09 -74.54,-65.98 -73.31,-109.97 0.63,-22.65 9.68,-50.17 18.31,-71.52l157.88 -5.56c23.95,-2.54 47.69,-2.33 73.16,-2.58 37.84,136.73 32.54,271.98 50.21,427.41l1.26 10.8c-81.93,17.96 -168.16,35.46 -256.79,52.37zm12.29 -614.15c-7.37,-21.18 -21.63,-41.46 -56.32,-25.28 -36.13,16.86 -46.42,31.62 -56.85,51.54l-35.69 -1.39c-43.95,1.2 -87.45,2.82 -130.56,4.81l-17.93 0.85c-33.19,-35.74 -94.25,-176.42 -99.46,-202.76 -5.59,-28.31 -2.91,-39.91 35.23,-72.69 38.13,-32.78 85.69,-10.61 107.75,-2.05 22.06,8.57 48.96,83.65 59.59,93.75 10.63,10.09 42.7,10.48 49.62,-7.72 6.92,-18.19 45.7,-87.51 65.47,-100.57 19.78,-13.06 59.12,-35.85 99.13,-13.78 40.01,22.07 46.8,60.37 51.94,95.32 3.54,24.06 -42.75,121.54 -71.93,179.95zm529.39 -176.86l108.67 86.38c-59.2,20.95 -115.36,47.67 -159.76,69.74 4.94,-16.56 24.77,-76.2 51.09,-156.12zm164.18 68.91l-152.54 -104.29c9.07,-27.61 18.7,-57.01 28.59,-87.42l167.54 125.12 -9.58 58.36c-11.31,2.38 -22.67,5.15 -34.01,8.23zm-103.32 -255.37c39.04,26.24 83.7,51.89 117.4,70.37 -18.91,-73.92 -43.8,-167.59 -65.08,-235.52 -16.65,53.76 -34.59,110.19 -52.31,165.15zm146.91 188.78l0 -0 -0 0zm28.75 -190c-3.89,-35.19 -14.67,-98.58 -44.55,-168.38 -19.08,-44.57 -35.58,-75.4 -48.3,-96.17 5.4,-18.3 10.48,-35.84 15.14,-52.39 49.86,94.06 90.71,186.48 90.71,186.48 0,4.42 3.56,8.89 8.61,13.77l-18.97 115.5 -2.65 1.2zm382.85 79.37c23.2,-0.54 78.77,-5.89 91.27,-13.85 14.96,-9.52 5.44,-44.87 5.44,-44.87 0,0 -40.04,17.75 -87.4,9.37l-9.31 49.35zm-79.56 198.96c-41.02,8.47 -85.59,16.87 -110.02,21.4 -49.25,-58.48 -124.18,-70.16 -203.78,-58.14l18.48 -114.78c28.85,-11.23 100.19,-41.31 172.64,-72.17 7.16,7 21.45,21.52 42.72,45.68 19.63,22.29 61.8,70.61 92.62,104.65 -4.35,25.13 -8.6,49.75 -12.66,73.37zm-88.09 53.8l82.4 -20.6c-4.5,26.27 -8.7,50.86 -12.45,72.99l-42.1 10.73c-7.36,-18.66 -14.72,-36.02 -21.82,-51.18 -1.93,-4.12 -3.94,-8.09 -6.03,-11.94zm39.96 95l24.26 -8.75c-3.63,21.52 -6.62,39.44 -8.8,52.65 -5.01,-14.82 -10.19,-29.57 -15.46,-43.9zm-521.68 -1172.8c51.75,19.5 222.75,146.79 259.13,176.24 -17.6,19.3 -25.61,39.17 -26.76,73.87 -0.31,9.36 -0.79,18.94 -1.3,28.74l-18.41 -15.58c-24.39,-53.39 -101.97,-107.31 -145.48,-149.28 -12.94,-12.48 -48.01,-40.52 -82.5,-70.63 2.87,-5.46 5.64,-10.97 8.28,-16.55 3.93,-8.3 6.24,-17.52 7.04,-26.83zm293.03 145.99c-15.45,-13.56 -51.06,-43.92 -90.04,-70.9 -41.83,-28.95 -159.86,-87.61 -204.72,-109.59l-6.65 -75.62c134.35,17.05 323.89,70.65 384.66,93.12 -7.97,48.04 -13.17,76.13 -16.42,92.33 -18.18,18.46 -35.7,45.88 -65.04,69.24l-1.79 1.43zm247.2 -84.88l-83.54 34.69c3.97,7.6 6.75,15.78 7.89,24.13 1.38,10.14 1.73,21.91 1.02,34.11l90.37 -31.46c-6.43,-7.9 -13.94,-16.32 -16.52,-23.43 -2.05,-5.63 -2.44,-20.74 0.79,-38.04zm-106.4 7.11l124.36 -52.33c6.83,-9.63 15.7,-17.69 27.09,-22.43 19.88,-8.28 47.9,-15.61 77.63,-20.21 -15.67,-2.73 -32.8,-5.62 -51.61,-8.65 -75.34,-12.12 -143.22,-23.37 -191.87,-31.52l-1.67 8.89c23.69,13.93 12.94,23.12 14.31,38.17 1.18,12.98 -9.8,20.31 -24.57,16.56l-10.89 58.08c12.56,-0.79 25.78,4.47 37.22,13.44zm127.96 80.89l-102.71 45.82c-0.57,2.1 -1.19,4.17 -1.83,6.21l50.73 61.12c6,-31.99 19.83,-81.06 27.65,-91.81 7.65,-10.52 19.6,-15.29 26.17,-21.33zm-123.03 86.25l64.87 90.81c-7.28,10.57 -16.52,24.79 -21.48,45.45 -1.89,7.86 -3.31,16.18 -4.22,24.42l-89.32 -127.78c14.43,-9.06 30.78,-18.23 44.31,-27.83 2.05,-1.45 4,-3.15 5.85,-5.07zm30.22 228.39l-30.75 -42.55 -106.02 42.47 -7.53 46.19 144.32 -46.12 -0.02 0zm-58.21 -80.54l-46.76 -64.7 -14.69 90.17 61.46 -25.47zm-100.37 266.14c14.76,13.84 40.24,37.95 55.22,52.14 -25.53,11.31 -49.19,21.82 -68.1,30.26l12.88 -82.41zm77.49 42.28c-17.5,-16.06 -55.59,-51.03 -73.52,-67.72l-8.52 -8.01c-0.63,-0.6 -1.02,-1 -1.15,-1.15 -2.21,-2.65 -1.33,-6.62 0,-16.79 1.24,-9.53 6.76,-37.31 7.44,-40.74l0.03 -0.15 0.02 -0.11 0.02 -0.07 0 -0.02 108.5 120.23 -32.83 14.52zm86.1 97.22l35.69 -15.26 99.03 113.99c0,0 -3.24,43.22 -9.19,47 -5.18,3.3 -100.92,-115.13 -125.54,-145.73zm53.6 -22.92c37.21,-15.94 69.94,-30.01 91.31,-39.21 -6.74,34.24 -13.79,74.26 -19.57,117.35 -26.69,-28.8 -58.26,-62.34 -71.74,-78.13zm98.39 -73.78c-71.86,32.33 -299.85,134.66 -349.13,153.51l-16.31 -0.69 -0 -0 8.16 -70.36 0 -0c102.43,-41.25 211.74,-97.21 314.97,-143.68 18.31,3.01 36.79,7.04 53,12.88 -2.91,12.82 -6.62,29.19 -10.69,48.35zm33.16 20.7c21.65,1.28 16.56,7.64 36.93,-6.37 20.37,-14 110.77,-91.68 115.87,-104.41 5.09,-12.73 40.75,-143.88 47.11,-193.54 6.37,-49.66 21.65,-124.78 19.1,-159.16 -2.55,-34.38 -40.74,-201.18 -58.57,-213.91 -17.83,-12.73 -80.22,-21.65 -134.97,-20.37 -54.75,1.28 -91.68,11.46 -95.5,33.11 -3.82,21.65 -17.83,52.2 1.27,62.39 19.1,10.19 61.12,7.65 98.04,25.47 36.93,17.82 44.57,40.74 40.75,47.11 -3.82,6.37 -17.82,1.28 -58.57,-6.37 -40.75,-7.64 -72.57,-3.82 -89.13,14 -16.56,17.83 -25.47,50.93 -20.37,63.67 5.09,12.73 -3.81,20.38 20.37,22.92 24.19,2.54 78.94,15.28 92.95,31.83 14,16.55 16.55,44.57 6.37,36.93 -10.19,-7.64 -90.4,-36.93 -119.69,-24.19 -29.29,12.73 -43.3,52.2 -42.02,77.67 1.28,25.47 11.46,53.48 17.83,50.93 6.37,-2.55 45.84,-5.1 73.85,7.64 28.01,12.74 34.37,33.1 31.83,43.29 -2.54,10.19 -22.91,-10.19 -67.48,-14 -44.57,-3.82 -62.39,10.19 -66.21,19.1 -3.82,8.91 -16.56,59.84 -11.46,67.48 5.09,7.64 108.23,7.65 132.42,22.92 24.19,15.28 34.38,19.09 36.93,33.1 2.55,14.01 -7.64,82.76 -7.64,82.76zm-400.63 1027.33c-4.77,40.23 -13.59,123.31 -10.1,161.7 4.7,51.69 4.7,354.8 8.22,378.3 3.52,23.5 4.7,70.49 4.7,70.49 0,0 -27.06,2.42 -47.7,4.46 -1.09,-7.2 -2.27,-14.63 -3.54,-22.24 -11.75,-70.52 -17.99,-480.96 -19.55,-598.4 22.94,2.9 45.63,4.83 67.97,5.69zm-187.12 -68.27c-2.96,89.55 -9.72,312.7 -6.53,399.59 4.03,109.87 12.09,343.71 11.09,363.87 0,0 83.66,2.02 93.74,-2.02 10.08,-4.03 -3.02,-36.28 -5.04,-97.77 -1.9,-57.91 -14.52,-518.99 -13.46,-606.98 -9.19,-1.57 -18.39,-3.29 -27.63,-5.15 -13.48,-11.21 -28.5,-30.76 -39,-51.14 -4.41,-0.17 -8.8,-0.31 -13.17,-0.41zm270.79 -1371.99c-7.27,-5.47 -10.78,-22.5 2.79,-36.63 21.11,-21.99 53.65,-42.22 64.21,-62.45 10.56,-20.23 21.99,-79.16 7.04,-83.56 -14.95,-4.4 -31.67,-10.56 -68.61,29.91 -36.94,40.46 -53.65,69.49 -66.85,101.15 -13.2,31.67 -25.51,84.44 -14.07,128.42 11.43,43.98 2.64,51.89 22.87,64.21 8.1,4.93 18.6,7.75 27.83,9.97l24.8 -151.02zm-4.34 -430.23c4.46,2.65 10.85,5.36 19.7,8.31l2.45 0.8c-6.96,17.09 -14.46,27.54 -16.34,30.99 -17.14,-6.26 -33.93,-11.65 -50.49,-16.34l0 -0c14.01,-38.2 44.69,-23.76 44.69,-23.76zm-2677.48 653.56c-60.59,2.29 -92.2,-4.59 -139.83,-48.55 -51.74,-47.76 -40.8,-103.49 -40.8,-103.49 0,0 -19.9,-36.81 -38.81,-6.96 -18.43,29.1 -90.74,211.42 24.59,337.65 -7.15,6.7 -12.58,11.75 -16.09,14.87l-0.08 0.07c-4.43,1.16 -8.86,2.29 -13.3,3.5 0,0 -141.85,-73.1 -191.46,-240.75 -49.61,-167.65 -42.77,-205.29 -42.77,-205.29 0,0 46.19,-124.89 239.5,-260.03 0,0 -34.21,150.55 30.8,251.48 65.01,100.93 201.86,181.34 268.58,118.04 66.72,-63.3 68.43,-153.97 29.08,-217.26 -39.35,-63.3 -73.56,-78.69 -73.56,-78.69l112.91 -59.87c0,0 65.01,80.41 140.28,100.93 65.74,17.93 115.83,13.67 144.55,13.45 7.53,12.06 15.28,24.35 23.04,36.7 -149.15,83.71 -323.06,226.34 -456.63,344.2zm2325.28 -701.39c0,0 38.05,-13.04 61.96,-7.61 15.97,3.63 31.94,27.62 40.79,43.16 -32.21,-4.06 -65.54,-8.38 -100.87,-14.23l-1.88 -21.32zm-474.03 951.64c13.85,0.44 27.61,3.45 40.84,10.31 49.21,25.5 88.74,109.05 69.64,166.96 -16.62,50.38 -66.13,163.2 -78.73,191.73l76.03 2.95c30.15,-18.77 65.83,-22.91 103.29,-24.08 1.09,-70.32 0.83,-229.09 -16.31,-431.74 -36.71,31.77 -81.35,58.18 -99.96,63.61 -29.54,8.61 -18.46,-9.57 -18.46,-9.57 64.32,-63.36 83.52,-127.69 83.52,-127.69 -30.35,63.99 -100.8,122.89 -154.57,154.57 -1.72,1.01 -3.48,2 -5.28,2.95zm-1268.46 -1929.31c7.4,48.09 13.85,107.8 20.87,172.11 -82.09,-16.27 -185.74,22.08 -259.2,62.91 -10.7,-46.85 -38.35,-176.89 -59.11,-352.76 -26.28,-222.59 122.31,-344.9 171.23,-398.71 29.08,-31.99 64.22,-66.57 87.93,-89.36 -9.66,39.81 -15.75,75.98 -17.06,103.61 -7.12,149.55 29.34,199.94 28.79,119.76 -0.56,-80.18 15.45,-86.58 56.93,-222.07 41.48,-135.49 110.6,-226.74 190.79,-262.69 80.19,-35.94 262.76,-25.96 345.64,5.53 82.89,31.5 298.63,118.9 370.52,160.38 71.89,41.48 47,-8.3 47,-8.3 -55.16,-41.53 -142.3,-96.36 -234.99,-143.69l0.01 -0c116.51,-33.57 447.21,-16.74 447.21,-16.74 0,0 -67.63,44.89 -93.97,73.11 -26.34,28.22 -54.91,84.35 43.94,11.06 98.85,-73.28 247.3,-86.69 317.71,-93.7 -61.94,47.61 -203.58,151.54 -180.56,198.69 0,0 288.53,-251.94 438.62,-234.25 349.65,41.22 367.61,440.35 313.98,610.5 -52.22,165.7 -70.6,347.07 -70.6,347.07 -26.26,-103.05 -19.96,-357.52 -19.96,-357.52 0,0 -54.12,240.44 -56.79,436.97 -2.67,196.53 27.18,420.8 27.18,420.8l-58.76 -111.45c29.61,-287.25 4.44,-592.26 -98.02,-799.36 -15.47,-31.28 -38.74,-65.92 -66.35,-101.17l-53.7 -41.48 -84.56 -4.88c-107.22,11.91 -54.5,21.19 -12.05,28.72 -55.83,2.71 -160.8,7.61 -238.83,18.17 34.94,-34.56 70.2,-69.44 106.33,-88.44 72.18,-37.98 183.01,-59.92 242.93,-24.29 59.93,35.63 63.17,61.54 74.5,61.54 11.33,0 3.24,-19.43 -24.3,-51.83 -27.53,-32.39 -96.02,-91.56 -177.26,-74.22 -81.24,17.34 -128.84,30.5 -187.15,82.32 -58.3,51.83 -134.43,134.43 -149,139.28 -14.57,4.86 -22.68,22.67 -68.02,-9.72 -45.35,-32.39 -113.37,-108.51 -173.3,-131.19 -59.92,-22.67 -124.7,-27.54 -102.03,-21.06 22.67,6.48 97.18,25.92 134.43,61.55 37.25,35.63 90.7,82.6 90.7,82.6 0,0 -105.28,-29.15 -166.82,-51.83 -61.54,-22.68 -108.51,-42.11 -191.11,-50.21 -82.6,-8.1 -127.95,-1.62 -147.38,1.62 -19.43,3.24 -12.95,6.48 63.17,11.34 76.12,4.86 197.59,43.73 197.59,43.73 0,0 -118.23,-21.06 -205.69,-21.06 -79.93,0 -165.26,23 -179.35,26.96 20.52,-50.73 47.23,-107.37 82.42,-172.43 0,0 55.72,-82.15 22.75,-61.09 -32.97,21.06 -83.43,78.54 -128.7,141 -45.28,62.45 -83.48,204.48 -100.14,304.44 -16.66,99.96 -30.94,497.44 -16.66,630.73 14.28,133.28 45.22,288 61.88,378.44 16.66,90.44 47.6,178.51 47.6,178.51 0,0 -69.02,-78.54 -130.91,-204.69 -61.88,-126.15 -78.55,-176.13 -78.55,-176.13 0,0 -7.14,35.7 19.04,114.24 22.3,66.91 67.05,137.27 93.07,186.07 -142.49,-121.26 -183.04,-269.39 -215.11,-454.99 -20.22,-117.06 -74.77,-344.47 -74.77,-344.47 -2,-32 -22,-82 -24,-38zm34.34 290.41c6.04,49.33 12.87,98.91 21.1,146.01 -41.55,-120.79 -203.24,-155.61 -223.62,-7.56 19.72,-12.94 35.6,-49.67 71.16,-32.21 -31.2,60.97 -23.73,179.69 18.74,218.25 -0.25,-72.33 -11.5,-196.02 50.2,-192.27 43.18,2.62 51.93,95.08 88.71,116.07 3.8,-18.31 5.12,-35.78 4.32,-52.23 8.27,39.89 17.8,77.03 29.03,109.51 56,162 116,249.99 188,307.99 38.05,30.65 65.7,48.46 84.98,54.3 16.25,56.23 34.32,121.69 44.37,167.53 21.22,96.84 78.27,200.31 78.27,200.31 0,0 15.27,17.25 50.99,47.23 -131.31,-11.42 -248.49,-35.23 -312.19,-126.5 -57.67,-82.69 -116.27,-223.24 -142.56,-331.84 -5.36,-22.3 -14.57,-69.86 -12.32,-82.03 8.64,-47.11 92.57,-67.8 59.56,-133.66 -60.91,-0.58 -74.64,55.46 -130.54,60.99 -144.72,14.31 -246.81,-191.83 -240.24,-316.2 5.56,-105.76 94.97,-206.96 217.25,-193.59 18.67,2.04 39.12,24.11 54.78,39.89zm1567.91 1978.72c31.33,-226.52 57.01,-545.2 77.5,-663.73l-0.58 0.7 0.01 -0 -15.91 22.08 -0.01 -0.02c-37.7,104.24 -144.48,181.51 -135.1,159.95 9.6,-22.08 36.48,-150.73 36.48,-150.73 -3.84,38.4 -26.88,97.93 -51.84,149.77 -3.2,6.65 -7.56,13.44 -12.77,20.27 11.71,182.05 20.65,413.23 22.73,469.07 26.76,-0.41 53.69,-1.54 79.5,-7.36zm96.92 -732.38c14.1,-48.03 15.81,-96.49 15.88,-98.73 -3.43,-89.85 -35.98,-148.3 -133.26,-204.48 -82.38,-47.58 -112.47,-30.93 -202.83,-9.18 17,-4.63 0,0 0,0 0,0 8.78,4.46 22.07,13.63l0.41 0.29 0.11 0.07 0.31 0.22c10.42,7.28 20.2,15.02 29.73,23.44l0.54 0.48c28.92,25.8 48.74,77.06 55.18,96.3l0.1 0.3 0.1 0.3 0.1 0.31 0 0 0.1 0.31c2.06,6.85 3.37,13.61 4.13,20.72l0.04 0.36 0 0.04 0.03 0.32c1.43,14.78 -0.73,26.21 -10.37,12.32l-0.04 -0.06 -0.04 -0.06 -0.04 -0.06 -0.04 -0.06 -0.04 -0.06 -0.07 -0.11 -0.04 -0.06 -0.04 -0.06 -0.04 -0.06 -0.04 -0.06 -0.04 -0.06 -0.04 -0.06 -0.01 -0.02 -0.02 -0.04 -0.04 -0.06 -0.04 -0.06 -0.04 -0.06 -0.04 -0.06 -0.04 -0.06 -0.04 -0.06 -0.08 -0.12 -0.04 -0.06 -0.04 -0.06 -0.04 -0.06 -0.12 -0.19 -0.04 -0.06 -0.04 -0.06 -0.04 -0.06 -0.04 -0.06c-16.05,-25.08 -44.94,-82.24 -121.89,-129.93 -23.06,-12.68 -40.06,-15.71 -49.66,-19.55 -15.05,-6.02 -42.13,3.01 -42.13,3.01 0,0 -15.05,13.04 -35.11,5.02 -20.06,-8.02 -89.28,-9.03 -89.28,-9.03 0,0 23.07,12.04 43.14,70.22 7.16,20.77 12.57,41.9 13.61,63.93 0.47,11.44 -0.73,21.15 -3.11,32.22l-0.05 0.22 -0.1 0.48 -0.03 0.14 -0.12 0.54 -0.02 0.07 -0.13 0.59c-2.97,13.92 -7.06,-29.97 -7.06,-29.97l-0 -0.02 -0.01 -0.04 -0 -0.01 -0.02 -0.08 -0.02 -0.07 -0.01 -0.04 -0.04 -0.14 -0.02 -0.08 -0.03 -0.09 -0.06 -0.2 -0.02 -0.06 -0.05 -0.17c-1.09,-3.61 -2.27,-7.23 -3.52,-10.82l-0.04 -0.12c-10.36,-29.63 -28.68,-69.34 -53.33,-84.36 -36.11,-22.07 -57.18,-29.09 -129.41,-25.08 -70.99,3.94 -73.42,6.92 -73.48,7.02l0 0c0,0 -43.78,-65 -57.04,-120.71 -13.26,-55.71 -21.22,-126.02 -21.22,-126.02l14.79 -46.69c-1.5,-3.91 -2.82,-8.1 -3.91,-12.57 -3.26,-13.39 -6.48,-28.05 -8.3,-43.46 -21.5,8.15 -51.46,18.74 -82.17,27.11 -58.37,15.92 -159.18,11.94 -177.75,3.98 -15.74,-6.74 -125.84,-89.74 -159.02,-114.87 29.43,84.87 53.72,226.93 53.72,247.56 0,21.42 -16.66,7.14 -49.98,-52.36 -3.93,-7.02 -8.19,-14.04 -12.69,-21.04 54.17,155.78 104.69,283.89 104.69,283.89 0,0 289.2,216.23 321.03,230.82 7.17,3.29 12.86,6.11 17.37,8.5 -13.19,-36.88 -31.04,-66.45 -55.86,-103.45 0,0 -2.88,-19.2 0.96,-25.92 3.84,-6.72 26.88,15.36 42.24,36.48 15.36,21.12 74.88,127.69 84.48,239.06 9.6,111.37 -13.22,205.44 -13.22,205.44 0,0 48.75,-80.63 60.27,-160.31 11.52,-79.69 -9.6,-178.57 -11.52,-197.77 -1.92,-19.2 0.96,-28.8 9.6,-18.24 8.64,10.56 37.44,76.8 42.24,168.01 4.8,91.21 -25.92,170.89 -25.92,170.89 52.8,-43.2 83.52,-107.53 114.26,-211.25 30.73,-103.72 22.07,-161.26 31.67,-164.14 9.6,-2.88 20.13,10.97 27.84,31.68 7.71,20.71 6.72,11.52 6.72,12.48 0,0.96 8.64,0.96 20.16,37.44 11.52,36.48 13.44,182.41 -6.72,260.18 -20.16,77.76 -36.48,106.57 -36.48,106.57 0,0 15.24,-6.67 33.6,-24.96 18.37,-18.29 65.49,-90.29 80.65,-151.69 15.15,-61.4 11.16,-37.43 16.97,-35.31 5.81,2.11 7.03,55.47 -18.89,114.04 -25.92,58.57 -55.69,83.52 -55.69,83.52 0,0 96.01,-41.28 142.09,-94.09 46.08,-52.8 72.96,-120.01 78.72,-191.05 5.76,-71.04 -14.4,-168.01 -17.28,-179.53 -2.88,-11.52 10.56,-9.6 25.92,6.72 15.36,16.32 51.84,77.76 57.6,171.85 5.76,94.09 -49.92,203.54 -49.92,203.54 2.69,-3.36 5.28,-6.62 7.77,-9.8l0.52 -0.67 0.2 -0.26 0.72 -0.93 0.72 -0.93 0.71 -0.92 0.25 -0.33 0.46 -0.59 0.7 -0.91 0.7 -0.91 0.69 -0.9 0 -0.01 0.69 -0.9 0.68 -0.89 0.68 -0.89 0.42 -0.56 0.24 -0.33 0.67 -0.88 0.66 -0.88 0.65 -0.87 0.17 -0.24 0.47 -0.63 0.64 -0.87 0.64 -0.86 0.57 -0.78 0.06 -0.08 0.63 -0.85 0.62 -0.85 0.61 -0.85 0.34 -0.46 0.28 -0.38 0.61 -0.84 0.6 -0.84 0.59 -0.83 0.11 -0.15 0.48 -0.68 0.59 -0.83 0.58 -0.82 0.48 -0.68 0.1 -0.14 0.57 -0.82 0.57 -0.81 0.56 -0.81 0.26 -0.37 0.3 -0.43 0.56 -0.8 0.55 -0.8 0.55 -0.8 0.06 -0.08 0.48 -0.71 0.54 -0.79 0.53 -0.79 0.39 -0.58 0.13 -0.2 0.52 -0.78 0.52 -0.78 0.52 -0.78 0.19 -0.3 0.31 -0.48 0.51 -0.77 0.5 -0.77 0.5 -0.76 0.01 -0.01 0.48 -0.75 0.49 -0.76 0.48 -0.76 0.32 -0.5 0.17 -0.26 0.48 -0.75 0.47 -0.75 0.47 -0.75 0.14 -0.22 0.33 -0.53 0.92 -1.48 0.42 -0.69 0.03 -0.05 0.45 -0.74 0.89 -1.47 0.25 -0.42 0.19 -0.31 0.44 -0.73c22.92,-38.52 30.65,-69.12 44.94,-120.26 20.98,-75.06 16.52,-197.18 25.7,-163.06 9.18,34.12 15.14,116.28 15.14,116.28 5.32,-28.54 3.32,-73.23 3.32,-73.23l7.68 35.52c6.72,67.2 -20.16,170.89 -20.16,170.89 0,0 38.4,-30.72 65.59,-127.85 27.19,-97.13 -4.17,-219.97 -4.17,-219.97 0,0 54.74,112.87 38.35,214.56l26.13 -53.78zm38.47 -58.18l0 0c0,0 16.07,72.24 6.39,175.56 -7.53,80.33 -78.44,445.73 -109.64,604.45 28.23,-16.29 49.22,-81.92 71.13,-134.91 63.13,-152.74 129.41,-345.3 158.9,-491.06 6.66,-33.21 24.8,-105.58 20.74,-135.14 -7.26,-52.92 -79.06,-92.17 -115.59,-124.89 -17.62,-15.83 -33.52,-31.15 -48.67,-46.18 21.01,58.38 20.44,63.88 18.21,133.69 -0.2,6.29 -0.7,12.44 -1.46,18.47zm-1840.24 173.39c41.72,5.31 83.99,45.65 80.44,82.74 -3.55,37.09 -37.86,68.23 -92.69,57.56 -54.83,-10.67 -73.26,-45.64 -69.72,-82.74 3.55,-37.09 40.24,-62.87 81.96,-57.56zm-0.46 18.33c29.46,5.62 51.3,31.54 48.78,57.89 -2.52,26.35 -28.44,43.15 -57.9,37.53 -29.46,-5.63 -51.3,-31.55 -48.78,-57.9 2.52,-26.35 28.44,-43.15 57.9,-37.52zm1012.41 -809c5.21,12.43 11.25,23.9 18.11,34.41 6.97,-10.17 15.8,-21.47 26.31,-31.78 9.33,-9.16 27.77,-28.51 31.06,-25 7.35,7.85 -0.46,38.72 -1.5,50.21 -1.55,17.05 -3.04,36.24 -3.04,36.24 0,0 37.01,-34.57 63.68,-54.19 26.67,-19.62 42.11,-19.2 58.26,-24.17 16.14,-4.96 33.12,-3.81 22.27,3.94 -10.85,7.75 -71.33,97.68 -68.22,110.09 3.1,12.41 69.77,-6.2 93.03,-23.26 23.26,-17.06 54.27,-49.62 54.27,-49.62 0,0 19.35,-16.23 10.85,12.41 -8.5,28.63 -40.31,63.57 -40.31,63.57 0,0 -14.09,26.34 29.46,-10.85 43.54,-37.19 75.98,-80.63 75.98,-80.63 0,0 17.22,-5.08 7.75,20.16 -9.46,25.24 -43.41,54.27 -43.41,54.27 0,0 16.57,19.88 68.22,-4.65 51.66,-24.53 75.98,-72.87 75.98,-72.87 0,0 7.75,49.61 26.36,54.27 18.61,4.65 17.06,20.16 38.76,6.2 21.7,-13.96 40.31,-54.27 49.61,-63.57 9.3,-9.3 12.79,-32.99 24.81,-12.4 12.02,20.59 -21.71,58.92 -6.2,91.48 15.51,32.56 18.61,18.6 54.27,-12.41 35.66,-31.01 26.36,-89.93 44.96,-83.73 18.61,6.2 -12.41,106.99 -15.51,117.84 -2.95,10.34 21.76,14.14 42.34,-21.35l0.02 -0.04 0.24 -0.43 0.04 -0.08 0.04 -0.08 0.04 -0.08 2.52 -4.66 0.04 -0.08 0.04 -0.08 0.35 -0.69c20.98,-41.47 42.35,-113.18 47.57,-125.37 3.11,-7.26 10.05,-16.58 15.37,-13.96l0.04 0.02 0.13 0.07 0.29 0.17 0.05 0.03 0.33 0.24 0.03 0.02 0.14 0.11 0.26 0.22 0.01 0.01 0.06 0.06 0.26 0.26 0.06 0.07 0.01 0.01 0.15 0.17 0.16 0.19 0.08 0.1 0.07 0.1 0.3 0.41 0.01 0.01c0.24,0.35 0.48,0.75 0.71,1.19l0.02 0.04 0.14 0.28c0.14,0.28 0.28,0.58 0.41,0.89l0.1 0.24 0.03 0.07 0.26 0.67 0.03 0.08 0.22 0.64 0.08 0.25 0.04 0.12 0.24 0.78 0.01 0.05 0.21 0.78 0.06 0.25 0.04 0.19 0.11 0.44 0.11 0.46 0 0.01 0.1 0.46 0.1 0.48 0.05 0.24 0 0.02 0.22 1.23 0.01 0.04 0.17 1.07 0.03 0.21 0.05 0.35 0.08 0.57 0.06 0.48 0.01 0.1 0.14 1.21 0.02 0.18 0.05 0.44 0.06 0.64 0.04 0.48 0.02 0.17 0.06 0.67 0.06 0.68 0.01 0.13 0.11 1.57 0.01 0.16 0.01 0.26 0.04 0.74 0.04 0.75 0 0.07 0.03 0.69 0.03 0.78 0.02 0.43 0.01 0.36 0.02 0.81 0.02 0.82 0 0.21 0 0.21 0 0.2 0 0.21 0 0.2 0 0.21 0 0.2 0 0.2 0 0.2 0 0.16 0 0.04 0 0.2 0 0.2 0 0.2 0 0.2 0 0.2 0 0.2 0 0.2 0 0.2 0 0.2 0 0.11 0 0.09 0 0.2 0 0.2 0 0.2 0 0.2 0 0.2 0 0.2 0 0.2 0 0.2 0 0.2 0 0.06 0 0.13 0 0.2 0 0.2 0 0.2 0 0.2 0 0.2 0 0.2 0 0.19 0 0.2 0 0.19 0 0.02 0 0.17 0 0.19 0 0.19 0 0.19 0 0.19 0 0.19 0 0.19 0 0.19 0 0.19 0 0.17 0 0.02 0 0.19 0 0.19 0 0.19 0 0.19 0 0.19 0 0.19 0 0.19 0 0.19 0 0.19 0 0.13 0 0.06 0 0.19 0 0.19 0 0.19 0 0.19 0 0.19 0.01 0.82 0.01 0.8 0.01 0.99 0 0.6 0.01 1.15 0 0.41 0.01 1.3 0 0.24 0 1.45 0 0.06 0 1.49 0 0.11 0 1.35 0 1.43 0 0.43 0 0.98 0 0.58 -0.01 0.8 0 0.72 -0 0.63 -0 0.86 -0 0.47 -0 0.99 -0 0.31 -0.01 1.11 -0 0.16 -0.01 1.23 0 0.02 -0.02 1.22 0 0.12 -0.02 1.07 0 0.25 -0.02 0.92 -0 0.38 -0.01 0.76 -0.01 0.5 -0.01 0.62 -0.01 0.61 -0.01 0.48 -0.01 0.72 -0.01 0.35 -0.02 0.82 -0.01 0.22 -0.02 0.91 -0 0.1 -0.02 0.99 0 0.01 -0.03 0.95 0 0.12 -0.02 0.82 -0 0.22 -0.02 0.69 -0.01 0.31 -0.02 0.57 -0.01 0.4 -0.02 0.46 -0.01 0.49 -0.01 0.35 -0.02 0.56 -0.01 0.24 -0.02 0.63 -0 0.15 -0.03 0.7 0 0.06 -0.03 0.73 0 0.03 -0.03 0.68 -0 0.11 -0.02 0.57 -0.01 0.18 -0.02 0.48 -0.01 0.24 -0.02 0.39 -0.02 0.3 -0.01 0.3 -0.02 0.35 -0.01 0.22 -0.02 0.4 -0.01 0.15 -0.02 0.44 -0.01 0.09 -0.02 0.48 0 0.02 -0.02 0.48 -0 0.03 -0.02 0.43 -0 0.08 -0.02 0.35 -0 0.12 -0.02 0.29 -0.01 0.15 -0.01 0.22 -0.01 0.19 -0.01 0.17 -0.02 0.21 -0 0.12 -0.02 0.23 -0 0.07 -0.02 0.24 -0 0.04 -0.02 0.25 0 0.01 -0.02 0.23 0 0.02 -0.02 0.19 0 0.04 -0.01 0.15 -0 0.05 -0.01 0.11 -0 0.06 -0 0.07 -0 0.06 -0 0.05 -0 0.06 -0 0.02 -0 0.05 0 0.01 -0 0.03 0 0 0 0.01c0,0 32.89,-58.77 29.52,-78.44l-0.14 -0.93 0 -0 -0.02 -0.15 -0.04 -0.37 -0.04 -0.37 -0 -0.06 -0.03 -0.32 -0.03 -0.39 -0.02 -0.29 -0 -0.1 -0.03 -0.4 -0.02 -0.4 -0 -0.13 -0.03 -0.69 -0.01 -0.37 -0 -0.04 -0.01 -0.42 -0.01 -0.43 -0 -0.21 -0 -0.22 -0.01 -0.44 -0.01 -0.44 0 -0.03 -0.01 -0.42 -0 -0.45 -0 -0.3 0 -0.17 -0.01 -0.46 -0 -0.47 0 -0.11 -0 -0.37 -0.01 -0.48 -0 -0.39 -0 -0.09 -0.01 -0.49 -0.01 -0.5 -0 -0.19 -0.01 -0.31 -0.01 -0.51 -0.02 -0.5 0 -0.02 -0.02 -0.53 -0.02 -0.53 -0.01 -0.3 -0.01 -0.24 -0.06 -1.1 -0 -0.07 -0.03 -0.49 -0.04 -0.57 -0.03 -0.41 -0.01 -0.17 -0.09 -1.17 -0.02 -0.17 -0.15 -1.55 -0.01 -0.08 -0.07 -0.61 -0.07 -0.63 -0.04 -0.28 -0.22 -1.64 -0 -0.02c-0.16,-1.08 -0.34,-2.19 -0.57,-3.33l-0.02 -0.13 -0.11 -0.56 -0.15 -0.7 -0.11 -0.55 -0.04 -0.17 -0.16 -0.72 -0.17 -0.73 -0.06 -0.26 -0.12 -0.48 -0.37 -1.45 -0.01 -0.05 -0.43 -1.54 -0.11 -0.39 -0 -0.02 -0.11 -0.37 -0.24 -0.78 -0.12 -0.39 -0.13 -0.4 -0.03 -0.1 -0.1 -0.3 -0.13 -0.4 -0.27 -0.81 -0.14 -0.41 -0.06 -0.19 -0.08 -0.23 -0.6 -1.67 -0.1 -0.28 -0.06 -0.15 -0.66 -1.72 -0.15 -0.38 -0.02 -0.06 -0.18 -0.44 -0.54 -1.33 -0.19 -0.44 -0.01 -0.04 -0.18 -0.42 -0.8 -1.82 -0.06 -0.13 -0.15 -0.33c-0.63,-1.39 -1.31,-2.81 -2.04,-4.28l-0.17 -0.34 -0.07 -0.15 -1.02 -1.98 -0.24 -0.45 -0.03 -0.05 -0.27 -0.5 -1.09 -2 -0.02 -0.04 -0.03 -0.06 -0.04 -0.08 -1.41 -2.48 -0.1 -0.17 -0.21 -0.36 -1.28 -2.15 -0.17 -0.29 -0.16 -0.26c-15.56,-25.52 -45.6,-60.24 -103.61,-108.5l-26 -15.44c-112.82,71.94 -239.99,144.92 -422.53,126.87 -20.2,-17.56 -34.24,-45.7 -38.57,-76 -21.18,3.69 -54.2,8.04 -75.74,21.94 -48.06,31.01 -139.55,86.83 -151.95,141.1 -1.83,8.03 -3.23,15.62 -4.27,22.74zm96.57 104.98c2.32,1.25 4.66,2.46 7.03,3.64 2.45,-4.48 5.87,-9.1 10.6,-13.44 12.65,-11.59 -0.69,-5.59 -17.63,9.8zm92.78 32.27c7.86,1.65 15.86,3.11 23.97,4.42 -3.8,-5.78 -0.68,-12.37 -0.68,-12.37 0,0 -9.78,3.85 -23.29,7.96zm61.95 9.39c84.66,8.68 178.57,3.8 265.61,1.72 -9.02,23.04 -28.57,50.26 -52.87,60.11 -65.65,26.72 -246.73,46.98 -337.87,-1.42 -40,-21.26 -70.1,-61.06 -95.34,-97.04 -4.13,9.79 -7.88,20.5 -9.5,30.06 -2.46,14.47 -19.05,17.72 -35.81,8.22 -7.85,61.74 27.35,178.91 35.67,205.38 69.21,-13.41 188.61,2.37 188.61,2.37 0,0 -20.07,5.02 44.14,-12.04 64.2,-17.05 120.38,-13.04 137.44,-13.04 17.06,0 36.11,6.02 36.11,6.02 0,0 0,0 34.11,-10.03 29.83,-8.77 84.98,-28.29 128.54,-30.36 33.4,-51.49 35.48,-113.23 38.04,-171.28 -9.39,3.39 -17.69,3.69 -22.29,-2.3 -15.5,-20.16 -18.61,-49.62 -18.61,-49.62 0,0 -31.01,46.51 -68.22,24.81 -37.21,-21.7 -38.76,-32.56 -38.76,-32.56 0,0 -44.97,48.06 -93.03,52.72 -48.06,4.65 -77.52,0 -77.52,0 0,0 -32.96,20.2 -58.42,28.28zm-220.25 -1051.48c35.07,64.28 42.5,135.22 92.35,183.81 22.45,21.87 66.1,48.53 44.46,109.36 -5.06,14.35 -42.02,46.33 -63.35,52.62 -77.93,23 -259.51,4.75 -198.02,-92.4 64.44,3 151.07,41.85 199.24,-4.93 -36.99,-59.13 -98.97,-179.53 -74.69,-248.46zm706.93 655.98c48.68,33.63 66.23,60.7 95.42,101.95 49.67,-165.81 70.42,-349.14 61.14,-529.14 -6.56,-127.31 -6.26,-254.18 -48.98,-339.83 -44.65,-89.56 -195.64,-169.68 -284.02,-88.68 -16.38,-87.09 73.5,-140.95 179.08,-109.61 -16.12,-20.8 -24.15,-59.77 -40.87,-90.53 -19.61,-4.69 -43.24,-8.28 -71.89,-10.06 -111.07,-6.88 -229.84,20.64 -288.65,36.93 -16.3,13.93 -32.59,25.91 -48.94,34.27 -22.67,25.91 -76.12,3.24 -136.04,-19.43 -59.93,-22.67 -207.31,-61.54 -207.31,-61.54 0,0 8.1,9.72 -8.1,17.81 -16.2,8.1 -145.76,-32.39 -307.72,-29.15 -48.48,0.97 -80.69,1.65 -102.05,2.13 -32.34,81.78 -48.47,148.15 -58.29,210.04 -16.19,102.03 -26.01,292.6 -26.01,442.54 0,123.69 30.77,423.88 58.91,571.99 26.91,22.63 161.26,134.92 186.3,143.27 25.74,8.58 162.48,6.96 253,-24.86 4.72,-38.27 23.98,-78.12 74.87,-113.25 93.42,-64.48 93.42,-66.03 136.83,-84.63 27.05,-11.59 57.12,-13.09 75.95,-12.57 -0.82,-26.66 6.09,-53.9 23.08,-76.24 20.78,35.72 7.72,101.4 65.61,111.28 109.09,18.67 236.06,-66.73 314.52,-96.58 48.66,-82.03 -4.2,-112.2 -48.03,-165 -89.74,-108.17 -210.11,-242.24 -205.74,-404.19 36.27,-26.3 39.41,40.14 44.61,52.24 46.86,109.66 164.78,249.91 250.85,343.77 21.14,23.12 55.93,45.29 59.8,60.57 11.16,44.45 -29.04,97.7 -24.37,127.26l27.04 -0.76zm2.22 -654.58c2.57,0.11 5.19,0.2 7.76,0.3 36.96,76.78 68.94,158.11 115.57,225.88 -31.23,72.74 -236.5,137.12 -233.33,6.5 44.39,-19.41 121.02,-3.96 160.38,-28.75 -22.75,-62.44 -55.59,-115.6 -50.37,-203.93zm-796.85 -186.24c-163.54,-38.09 -244.81,68.44 -294.39,178.93 -44.27,-10.73 -26.65,-70.93 -15.47,-101.6 29.27,-80.5 147.25,-187.67 243.63,-173.14 41.48,6.25 97.61,44.17 66.22,95.8zm-685.46 2405.34l-1.31 -0.67 -0.05 0.07 -1.01 1.53 -0.36 0.54 -0.75 1.14 -0.69 1.06 -0.46 0.7 -1.06 1.61 -0.14 0.22 -1.25 1.9 -0.21 0.32 -1.08 1.65 -0.59 0.9 -0.75 1.15 -0.99 1.52 -0.39 0.59 -1.42 2.18 -0 0 -1.46 2.24 -0.42 0.64 -1.08 1.67 -0.85 1.32 -0.68 1.06 -1.32 2.04 -0.26 0.4 -1.61 2.5 -0.19 0.3c-125,192.44 -204.99,383.33 -297.08,611.16 -14.11,-7.1 -28.3,-14.03 -42.63,-20.73 -0.59,-21.05 -1.34,-42.14 -2.22,-63.26l2.85 -7.19 0.08 -0.2 2.92 -7.21 0.17 -0.42c80.37,-195.53 175.37,-390.09 291.75,-567.53 28.95,10.09 49.43,19.11 64.53,26.82zm-367.02 465.39c-2.23,-35.6 -20.37,-163.43 -9.85,-186.91 53.73,-119.98 123.72,-231.72 201.32,-337.54 27.89,6.93 51.98,13.56 72.81,19.86 0,8.08 -41.33,62.14 -47.54,71.82 -88.28,137.72 -156.04,279.74 -216.75,432.77zm-25.29 -264.29l-26.89 -171.56 -0.08 -0.43 -0.11 -0.59 -1.35 -7.28 -0.68 -3.63 -0.13 -0.66 -1.94 -10.23 -0.37 -1.91 -0.33 -1.71 -2.03 -10.41 -0.09 -0.46c-1.56,-7.92 -3.15,-15.83 -4.76,-23.72l-0.33 -1.57c57.52,-23.51 155.8,-22.01 156.18,-48.31l48.18 10.21c-69.31,80.99 -123.3,174.64 -165.28,272.28zm-125.37 -1183.82c13.74,-61.16 73.33,-313.47 147.44,-433.87 6.48,7.99 13.24,15.69 20.35,23.01 -41.89,74.25 -65.09,203.05 -68.34,230.74 -3.72,31.66 -13.04,104.3 -3.72,72.63 7.87,-26.75 50.03,-188.75 100.67,-277.27 37,29.72 81.06,50.55 132.8,58.17l4.08 0.68c3.8,57.35 17.61,106.73 44.11,164.85 16.75,36.76 79.4,102.88 56.34,149.77 -0.18,0.37 -0.38,0.74 -0.61,1.12l-0.01 0.02c-0.22,0.37 -0.45,0.74 -0.71,1.12l-0.02 0.03 -0.01 0.02 -0.01 0.02 -0.76 1.06 -0.08 0.11 -0.13 0.16c-0.9,1.18 -1.96,2.4 -3.18,3.67l-0.05 0.05 -1.19 1.2 -0.09 0.09 -0.85 0.83 -0.33 0.31 -0.25 0.24 -0.08 0.07 -0.33 0.31 -0.69 0.63 -0.35 0.31 -0.09 0.08 -0.27 0.24 -1.1 0.96 -0.27 0.23 -0.11 0.09 -1.55 1.31 -0.07 0.06 -0.33 0.27 -0.41 0.33 -0.82 0.67 -0.27 0.22 -0.15 0.12 -1.71 1.35 -0.06 0.04 -1.72 1.33 -0.28 0.21 -0.18 0.14 -0.46 0.35 3.22 5.42c-39.36,-66.87 -72.27,-97.5 -119.46,-104.53 -86.29,-12.85 -121.17,23.87 -161.56,38.56 -21.87,7.95 7.93,63.8 49.76,131.99l-0 0c-48.41,-3.53 -117.67,-15.04 -186.11,-79.52zm-391.44 629.89c-14.66,-14.94 -49.13,-65.1 -40.45,-201.57 0,0 19.4,69.21 140.82,108.99 -39.87,36.09 -74.12,67.97 -100.37,92.57zm85.56 252.52c50.5,-5.77 111.88,-10.19 179.72,-11.31 -73.38,39.46 -129.99,116.13 -178.81,177.84l-0.06 0.08c-6.99,-36.08 -15.19,-101.44 -0.84,-166.61zm556.02 -700.31c16.3,26.46 31.67,52.29 44.11,75.71 62.42,117.5 189.1,414.93 176.25,431.46 -12.85,16.52 -25.7,66.09 -34.88,62.42 -8.56,-3.42 -361.4,-174.15 -795.65,-92.01 105.04,-88.04 529.26,-441.63 610.17,-477.58zm35.21 -24.72c0.54,-2.81 -0.87,-5.15 -3.58,-7.1 -48.94,-96.97 -69.59,-136.19 -55.46,-147.67 29.37,-23.87 84.46,-33.05 112,-12.85 27.54,20.19 104.65,179.93 167.07,304.78 62.43,124.85 190.94,440.63 178.09,482.86 -12.85,42.23 -71.61,124.85 -88.13,156.06 -16.52,31.21 -29.37,14.69 -42.22,16.52 -12.85,1.83 -302.94,-130.35 -601.72,-141.63 -298.79,-11.28 -472.33,71.87 -472.33,71.87 0,0 0,-38.56 7.35,-69.77 7.35,-31.21 3.67,-29.37 33.05,-44.06 29.37,-14.69 55.08,-44.06 297.43,-60.59 242.35,-16.52 438.8,51.41 521.42,78.94 82.62,27.54 117.5,44.06 130.35,34.89 12.85,-9.18 42.23,-77.11 62.42,-115.67 -108.24,-270.93 -192.65,-441.3 -245.73,-546.57zm1764.79 -190.81l-40.69 61.34c-34.25,-19.7 -89.26,-49.65 -124.3,-60.26 17.67,-41.89 29.79,-87.54 29.83,-133.14 0.03,-29.57 0.02,-47.07 0.02,-57.08 13.13,-9.09 23.53,-18.37 23.53,-18.37 0,0 -1.55,27.91 -9.3,38.76 -6.27,8.8 12.88,12.48 40.17,2.87l0.24 -0.08 0.06 -0.02 0.3 -0.11 0.3 -0.11 0.3 -0.11 0.3 -0.11 0.3 -0.11 0.02 -0 0.28 -0.11 0.31 -0.11 0.3 -0.11 0.31 -0.11 0.31 -0.12 0.1 -0.04 0.21 -0.08 0.31 -0.12 0.31 -0.12 0.31 -0.12 0.31 -0.12 0.19 -0.07 0.13 -0.05 0.31 -0.13 0.31 -0.13 0.31 -0.13 0.31 -0.13 0.27 -0.11 0.04 -0.02 0.31 -0.13 0.31 -0.13 0.31 -0.13 0.31 -0.13 0.31 -0.13 0.04 -0.02 0.28 -0.12 0.31 -0.14 0.31 -0.14 0.32 -0.14 0.32 -0.14 0.13 -0.06 0.19 -0.09 0.32 -0.14 0.32 -0.15 0.32 -0.15 0.32 -0.15 0.21 -0.09 0.11 -0.05 0.32 -0.15 0.32 -0.15 0.32 -0.15 0.32 -0.15 0.3 -0.14 0.02 -0.01 0.32 -0.16 0.32 -0.15 0.32 -0.16 0.33 -0.16 0.32 -0.16 0.07 -0.03 0.26 -0.13 0.33 -0.17 0.33 -0.16 0.33 -0.17 0.33 -0.17 0.15 -0.07 0.17 -0.09 0.33 -0.17 0.33 -0.17 0.33 -0.17 0.33 -0.17 0.24 -0.13 0.09 -0.05 0.33 -0.17 0.33 -0.18 0.33 -0.18 0.33 -0.18 0.33 -0.18c37.21,-20.15 54.16,-77.26 54.16,-77.26l-2.99 38.5c0,0 7.96,-3.13 19.7,-12.28l-1.1 56.56 -3.11 160.04 -6.23 9.39zm-855.63 420.43c-168.44,-12.76 -538.2,-143.59 -489.03,-193.51l-0 0c59.66,23.83 124.7,38.06 176.98,53.71 7.09,2.37 14.61,4.76 22.55,7.16 6.6,2.24 12.91,4.54 18.88,6.93l30.8 6.69c25.27,6.33 53.46,12.58 84.53,18.61l155.3 100.41zm797.25 796.33c-29.9,-6.85 -64.72,-0.27 -93.28,0.29 13.43,133.76 46.01,281.35 57.48,421.74 44.94,1.4 68.96,-19.8 105.93,-26.93 1.98,-123.24 -10.76,-293.02 -70.13,-395.09zm483.94 442.17c93.69,-22.75 152.61,-137.51 126.41,-255.37 -17.59,-79.2 -48.91,-228.35 -82.43,-279.02 -24.77,-37.48 -91.93,-86.55 -145.56,-52.2 -87.23,55.86 -240.91,72.07 -304.52,139.69 31.9,106.2 41.8,252.09 54.96,386.67 108.98,6.79 243.07,-29.99 333.71,9.04 -63.28,20.5 -145.38,20.66 -200.05,50.53 44.68,21.58 149.28,17.22 217.49,0.66l-0 -0.01zm343.38 -5439.2c-11.99,122.93 -41.97,350.8 -29.98,371.78 11.99,20.98 56.96,62.96 179.89,131.92 122.93,68.96 479.71,287.83 539.68,317.81 59.96,29.98 44.98,20.99 98.94,86.95 53.96,65.96 107.94,164.9 143.91,215.87 35.98,50.97 14.99,65.96 6,143.91 -9,77.95 -224.87,1217.27 -233.86,1256.25 -8.99,38.98 -20.98,56.97 -80.95,242.85 -59.96,185.89 -206.46,587.91 -216.63,621.83 -10.17,33.91 -6.78,33.91 57.65,61.04 64.43,27.13 270.96,125.5 308.26,142.45 37.3,16.96 -27.13,-128.87 -44.09,-264.52 -16.96,-135.65 -40.69,-152.61 -27.13,-189.91 13.56,-37.3 156,-288.26 156,-288.26 0,0 325.57,-1363.29 332.35,-1417.55 6.78,-54.26 30.52,-74.61 44.09,-78 13.56,-3.39 193.3,-57.65 193.3,-57.65l-386.6 -637.56c0,0 -796.95,-451.04 -851.21,-481.56 -54.26,-30.52 -189.61,-177.66 -189.61,-177.66zm-285.94 3591.85c5,-82.31 19.13,-244.3 52.28,-555.5 83.5,-783.94 167,-2161.63 176.27,-2328.63 9.28,-167 -9.28,-255.13 23.19,-259.77 32.47,-4.64 9.28,9.28 157.72,88.13 148.44,78.86 552,329.35 579.83,343.26 27.83,13.92 171.63,236.57 190.19,264.41 18.56,27.83 13.91,27.83 9.28,78.86 -4.64,51.03 -227.3,1294.2 -241.21,1335.95 -13.91,41.75 -153.07,436.04 -208.74,579.84 -55.67,143.8 -92.77,245.85 -106.69,282.96 -13.92,37.11 9.28,32.47 106.69,69.58 36.37,13.85 94.07,40.63 154.04,69.25l-0.01 0c0,0 55.98,68.37 93.11,147.94 37.13,79.57 95.48,159.13 47.74,167.09 -47.74,7.96 -87.53,-45.09 -172.4,-92.83 -84.87,-47.74 -339.48,-143.22 -339.48,-143.22 0,0 7.96,-13.26 10.61,-34.48 2.65,-21.22 -10.61,-18.57 -31.83,-18.57 -21.22,0 -143.22,31.83 -177.7,50.39 -29.13,15.69 -234.35,-28.25 -322.88,-44.67z"/>
  <path class="fil32 str4" d="M3296.24 5944.99c-11.72,-88.75 -36.84,-232.76 -30.14,-329.88 4.02,-58.3 8.65,-152.79 16.41,-227.35l-97.73 3.44c-50.16,-0.89 -104.33,9.87 -144.06,3.51 -0.49,-70.08 88.81,-30.69 96.25,-77.81 5.61,-35.65 -49.14,-38.34 -31.31,-94.47 45.46,16.53 69.33,53.03 117.81,66.73 27.93,-61.1 20.39,-151.82 12.61,-230.84 -35.48,56.54 -74.74,111 -90.7,108 -8.03,-1.5 -14.01,-5.76 -24.09,-12.35 -36.7,55.75 -178.47,281.58 -314.17,639.31 148.26,77.29 291.79,166.31 493.62,181.98 -1.62,-9.74 -3.14,-19.84 -4.52,-30.27z"/>
  <path class="fil15" d="M2644.33 5090.85c15.83,76.96 38.28,191.25 48.61,270.18 27.11,-63.35 88.48,-199.18 171.63,-295.57 -8.31,-1.86 -16.9,-3.73 -25.78,-5.63 -7.46,-1.59 -14.93,-3.12 -22.4,-4.59 -0.12,8.5 -24.28,5.95 -46.53,10.76 -22.25,4.81 -64.5,-0.09 -125.53,24.85z"/>
  <path class="fil3" d="M2739.56 5042.3c-48.52,1.05 -106.76,3.7 -157.4,33.23 -50.64,29.54 -113.94,87.56 -183.56,181.44 -43.93,59.25 -68.97,96.66 -81.46,116.19 -11.27,17.63 -12.23,17.59 -32.94,13.73 -13.65,-2.55 -25.73,-7.82 -33.29,-25.48 -5.99,-13.98 -5.54,-32.37 2.99,-52.13 36.74,-85.14 215.72,-263.69 271.21,-284.06 12.48,-4.58 214.44,17.08 214.44,17.08z"/>
  <path class="fil24 str14" d="M2268.04 5036.33c-14.35,65.17 -6.15,130.53 0.85,166.61 0.02,-0.02 0.04,-0.05 0.06,-0.08 48.82,-61.7 105.42,-138.39 178.79,-177.85 -67.83,1.12 -129.2,5.54 -179.7,11.31z"/>
  <path class="fil7 str6" d="M3579.24 5454.84c6.3,37.05 -45.72,67 -68.57,70.94 -22.86,3.94 -59.9,0 -67,-22.07 -7.09,-22.07 19.7,-59.91 59.9,-68.57 40.2,-8.67 66.21,-7.09 75.67,19.7zm-4.11 178.3c-11.16,-25.8 -67.64,-23.01 -94.13,-4.19 -26.49,18.83 -57.87,44.63 -63.45,81.58 -5.57,36.95 63.45,27.89 101.8,13.25 38.35,-14.64 68.33,-73.21 55.78,-90.64zm-11.89 243.63c28.63,-20.15 32.87,-27.57 30.75,-43.48 -2.12,-15.91 -47.72,-37.11 -90.13,-21.21 -42.42,15.91 -77.41,42.42 -74.23,64.69 3.18,22.27 46.66,36.06 90.13,18.03 43.48,-18.03 43.48,-18.03 43.48,-18.03zm669.48 -237.16c-14.54,28.16 -68.28,123.51 -85.53,177.1 -17.26,53.59 -2.75,72.36 -10.46,98.85 -7.71,26.49 -36.59,29.54 -38.59,18.32 -2,-11.22 -2.73,-74.48 5.45,-111.72 8.18,-37.24 49.05,-102.63 71.76,-136.24 22.7,-33.61 35.42,-48.14 29.06,-64.49 -6.36,-16.35 -36.33,-46.32 -59.94,-63.58 -23.61,-17.26 -99.91,-78.11 -108.08,-105.36 -8.18,-27.25 -6.36,-84.47 14.53,-125.34 20.89,-40.87 59.04,-89.92 82.65,-95.37 23.61,-5.45 36.41,-0.52 35.92,18.36 -0.49,18.88 -29.17,46.83 -48.63,67.02 -55.16,57.23 -60.3,132.49 18.17,200.73 66.99,58.25 83.56,59.94 93.55,76.3 9.99,16.35 0.16,45.43 0.16,45.43zm-550.71 -356.04c-11.18,-7.69 -48.53,-5.62 -51.33,-1.43 -2.8,4.19 -8.18,418.37 73.89,701.03l35.96 -16.87c0,0 -32.61,-140.09 -41.73,-294.09 -9.12,-154 -16.79,-388.65 -16.79,-388.65zm-286.46 42.52c-11.69,68.18 -29.22,198.7 -29.22,268.82 0,70.13 4.69,332.9 17.18,409.11 12.49,76.21 17.49,79.96 -1.25,82.46 -18.74,2.5 -33.73,6.24 -39.98,-32.48 -6.25,-38.73 -19.99,-128.69 -24.99,-199.9 -5,-71.21 -3.74,-256.11 1.25,-324.83 5,-68.72 11.24,-153.67 18.74,-179.91 7.5,-26.24 7.5,-26.24 58.27,-23.26z"/>
  <path class="fil16 str15" d="M3753.65 5861.13c0,0 285.91,-40.96 310.51,-48.7 24.6,-7.74 29.53,-23.19 29.53,-23.19"/>
  <path class="fil33 str1" d="M3159.68 5785.94c-17.25,21.49 -31.83,34.65 -42.23,42.5 -10.93,8.24 -17.26,10.61 -17.26,10.61l-154.39 -87.8 -99.74 -56.74c-12.96,31.7 -25.97,64.64 -38.92,98.78 148.26,77.29 291.79,166.31 493.62,181.98 -1.62,-9.74 -3.14,-19.84 -4.52,-30.27 -2.47,-18.72 -5.54,-39.9 -8.78,-62.58 -2.67,-18.73 -5.47,-38.49 -8.14,-58.72 -2.01,-15.26 -3.96,-30.78 -5.73,-46.35 -6.53,-57.34 -10.73,-115.26 -7.49,-162.22 0.32,-4.62 0.64,-9.46 0.97,-14.5 -19.31,39.89 -50.63,101.55 -81.17,148.77 -9.24,14.28 -18.03,26.36 -26.22,36.56z"/>
  <path class="fil33 str1" d="M3040.73 5394.71c-0.49,-70.08 88.81,-30.69 96.25,-77.81 5.61,-35.65 -49.14,-38.34 -31.31,-94.47 45.46,16.53 69.33,53.03 117.81,66.73 27.93,-61.1 20.39,-151.82 12.61,-230.84 -35.48,56.54 -74.74,111 -90.7,108 -8.03,-1.5 -14.01,-5.76 -24.09,-12.35 -21.39,32.5 -78.48,122.78 -149.26,263.29l90.9 -20.63c-7.78,-0.22 -15.22,-0.81 -22.21,-1.93z"/>
  <path class="fil4 str0" d="M3366.15 6022.74c-8.79,9.48 -19.63,7.79 -28.18,3.81 1.63,10.7 3.11,20.02 4.31,27.44 6.25,38.73 21.24,34.98 39.98,32.48 18.74,-2.5 13.74,-6.25 1.25,-82.46 -3.56,-21.72 -6.49,-58.6 -8.85,-101.85 -0.98,-17.93 -1.86,-36.94 -2.66,-56.43 -0.59,-14.59 -1.13,-29.45 -1.63,-44.31 -0.7,-21.25 -1.31,-42.51 -1.82,-63 -1.87,19.57 -3.93,40.42 -6.12,61.28 -1.52,14.48 -3.11,28.96 -4.73,43.03 -2.3,19.92 -2.53,38.52 -1.61,55.66 3.52,65.38 23.8,109.51 10.06,124.34z"/>
  <path class="fil4 str0" d="M3691.02 5932.26c4.22,17.35 8.73,34.37 13.54,50.93l35.96 -16.87c0,0 -2.97,-12.75 -7.37,-34.79 -2.89,-14.48 -6.39,-32.98 -10.08,-54.5 5.89,36.82 -6.63,35.76 -33.75,48.17 0.56,2.36 1.13,4.72 1.7,7.07z"/>
  <path class="fil25 str8" d="M3371.71 5385.3l15.96 -9.49c2.74,-18.54 5.43,-35.48 7.87,-49.71 -50.77,-2.97 -50.77,-2.97 -58.27,23.26 -4.69,16.4 -8.89,55.76 -12.59,99.74 21.46,-45.24 47.03,-63.8 47.03,-63.8z"/>
  <path class="fil25 str8" d="M3630.67 5282.15c-0.83,1.24 -1.87,38.2 -0.83,96.96 24.2,-39.39 43.57,-58.14 53.17,-65.93 -0.65,-18.68 -1.01,-29.61 -1.01,-29.61 -11.18,-7.69 -48.53,-5.62 -51.33,-1.43z"/>
  <path class="fil25 str8" d="M3480.99 5628.96c-26.49,18.83 -57.87,44.63 -63.45,81.58 -0.56,3.67 -0.37,6.89 0.44,9.69 13.5,-21.5 38.03,-54.56 73.57,-79.6 15.74,-11.09 29.95,-19.68 42.29,-26.31 -18.83,-0.18 -39.6,5.22 -52.85,14.64z"/>
  <path class="fil25 str8" d="M3442.79 5491.98c5.94,-7.87 15.57,-13.9 38.35,-25.92 26.04,-13.74 52.48,-27.48 73.07,-34.09 -12.87,-3.06 -29.86,-1.32 -50.65,3.16 -33.71,7.27 -58,35.06 -60.78,56.85z"/>
  <path class="fil25 str8" d="M3483.07 5821.02c-21.47,10.5 -39.11,23.44 -47.81,36.36 -4.43,6.58 -6.54,13.16 -5.65,19.4 0.71,5 3.46,9.57 7.78,13.45 7.3,-11.24 14.31,-20.82 21.35,-29.22 13.09,-15.63 26.28,-27.17 41.56,-37.77 8,-5.55 16.57,-10.84 26,-16.32 -7.41,0.73 -14.98,2.38 -22.45,5.18 -7.19,2.7 -14.17,5.7 -20.78,8.93z"/>
  <path class="fil4 str0" d="M3510.66 5525.78c19.05,-3.28 58.33,-24.63 67.27,-53.08 -10.8,10.55 -27.62,23.06 -52.5,32.44 -23.83,8.99 -41.88,15.19 -54.48,19.28 13.07,3.33 28.19,3.34 39.71,1.36z"/>
  <path class="fil4 str0" d="M3577.79 5640.43c-12.59,11.52 -36.32,33.63 -56.27,54.49 -3.11,3.24 -6.55,6.37 -10.22,9.36 -17.45,14.2 -40.07,25.36 -56.08,32.26 20.78,-0.11 45.91,-5.8 64.13,-12.76 34.05,-13 61.51,-60.65 58.44,-83.36z"/>
  <path class="fil4 str0" d="M3594.41 5837.96c-11.03,11.7 -27.2,23.2 -44.61,33.63 -20.5,12.28 -42.7,23.07 -60.23,30.96 9.71,-1.02 19.94,-3.5 30.18,-7.75 43.48,-18.03 43.48,-18.03 43.48,-18.03 1.82,-1.28 3.54,-2.51 5.17,-3.7 21.34,-15.52 26.53,-23.13 26.01,-35.12z"/>
  <path class="fil4 str0" d="M2525.69 5116.4c20.15,-17.19 39.06,-30.72 56.46,-40.87 50.64,-29.54 108.88,-32.18 157.4,-33.23 0,0 -152.42,-16.34 -200.62,-17.63l-13.25 91.74z"/>
  <path class="fil27 str11" d="M4064.15 5812.43c-24.6,7.74 -310.51,48.7 -310.51,48.7 0.78,4.72 1.56,9.06 2.32,13 0.1,0.52 0.2,1.04 0.31,1.56 2.54,12.85 5.3,24.5 8.11,35.06 104.85,-16.9 210.17,-34.88 313.18,-53.71 1.14,-7.49 2.53,-15.46 4.21,-23.96 0.53,-2.68 1.09,-5.35 1.69,-7.99 2.79,-12.39 6.26,-24.37 10.21,-35.84 0,0 -4.93,15.45 -29.53,23.19z"/>
  <path class="fil4 str0" d="M4101.35 5834.25c-2.09,13.56 -3.33,29.02 -3.97,43.72 -1.13,25.94 -0.4,49.48 0.75,55.91 2,11.22 30.88,8.17 38.59,-18.32 4.67,-16.06 1.18,-29.29 1.56,-49.16 0.24,-12.9 2.11,-28.6 8.91,-49.69 1.17,-3.63 2.5,-7.44 3.98,-11.41 5.93,-15.94 14.16,-34.41 23.2,-53.24 22.01,-45.86 48.75,-93.83 58.35,-112.45 0,0 5.54,-16.39 4.08,-31.48 -4.3,12.54 -9.86,26.58 -17.03,41.6 -19.99,41.87 -39.97,60.8 -74.12,111.96 -10.17,15.24 -21.59,33.33 -34.65,55.74 -3.11,5.35 -6.32,10.94 -9.63,16.8z"/>
  <path class="fil25 str8" d="M4066.04 5300.82c69.17,-31.95 102.53,-44.98 102.54,-44.98 0.54,-1.97 0.85,-3.88 0.89,-5.7 0.49,-18.88 -12.3,-23.81 -35.92,-18.36 -8.78,2.03 -19.57,10.08 -30.74,21.51 -12.56,12.85 -25.59,29.95 -36.77,47.52z"/>
 </g>
</svg>
