<svg id="Layer_1" data-name="Layer 1" xmlns="http://www.w3.org/2000/svg" viewBox="0 0 825.64 1024"><defs><style>.cls-1{fill:#a1a1a1;}.cls-1,.cls-10,.cls-14,.cls-18,.cls-21,.cls-22,.cls-25,.cls-26,.cls-3,.cls-6{stroke:#000;}.cls-1,.cls-10,.cls-11,.cls-13,.cls-22,.cls-25,.cls-26,.cls-3,.cls-6,.cls-9{stroke-miterlimit:10;}.cls-1,.cls-10,.cls-11,.cls-18,.cls-2,.cls-21,.cls-22,.cls-24,.cls-25,.cls-26,.cls-3,.cls-6,.cls-9{stroke-width:7.63px;}.cls-10,.cls-18,.cls-2,.cls-21{fill:none;}.cls-2{stroke:#fff;}.cls-14,.cls-18,.cls-2,.cls-24,.cls-26{stroke-linecap:round;}.cls-14,.cls-18,.cls-2,.cls-21,.cls-24{stroke-linejoin:round;}.cls-3{fill:#6b6b6b;}.cls-25,.cls-26,.cls-4{fill:#f0d6b7;}.cls-5{fill:#f7e4cd;}.cls-6{fill:#6d6b6d;}.cls-22,.cls-7{fill:#394a5c;}.cls-11,.cls-8{fill:#2d3e51;}.cls-15,.cls-9{fill:#e79623;}.cls-9{stroke:#201600;}.cls-11{stroke:#231f20;}.cls-12,.cls-13{isolation:isolate;}.cls-13{font-size:77.51px;fill:#201600;stroke-width:2.54px;font-family:Georgia-Bold, Georgia;font-weight:700;}.cls-13,.cls-24{stroke:#000105;}.cls-14{stroke-width:2.54px;}.cls-16{fill:#c85213;}.cls-17{fill:#715139;}.cls-19,.cls-24{fill:#da7b1d;}.cls-20{fill:#4f3928;}.cls-23{fill:#40311e;}</style></defs><title>Untitled-2</title><path class="cls-1" d="M759.59,346.06c-1.61-.62-3.22-1.21-4.85-1.78-45.93-16.09-94.59-21.46-141.7-33-49.19-12-99.15-21-148.62-31.91-62.82-13.8-193.87-50.69-229.12-60.69a19.74,19.74,0,0,1-12.58-10.78c-15.82-34.53-28.46-68.62-69.16-78.14C98.2,116.85,36,141.6,9.71,192.48-4.6,220.14,93.8,200.16,104.12,201c41.37,3.39,44.84,51.82,30.48,82.58-17.46,37.35-64,14.32-92.31,6.91C33,288.06,23.46,295.41,24.46,305c6.44,61.55,86.78,80.14,135.69,58.68,20.63-9.05,36.26-34.29,59.89-34.64,38.49-.56,75.86,20,112.33,30.09,44,12.15,88.18,23.72,132.75,33.6,55.79,12.36,109.16,33.13,163.15,51.45,44.14,15,112.87,46.77,157.64,19.29,21.09-12.95,32-40,27-64.26C807,371,784.58,355.62,759.59,346.06Zm-9,96.07A28.41,28.41,0,1,1,777.18,412,28.41,28.41,0,0,1,750.58,442.13Z"/><path class="cls-2" d="M749.17,460.54C718.6,462.43,681.66,449,652,438.23c-6.83-2.48-13.33-4.84-19.37-6.89-12-4.08-24-8.29-36.07-12.51-41.5-14.53-84.41-29.57-128.49-39.34C429.34,370.91,388.6,360.6,336,346.06c-11.17-3.09-22.41-7.2-34.32-11.55-26.14-9.56-53.16-19.44-81.82-19-.74,0-1.48,0-2.21.08-18,1.11-31.48,12.22-43.35,22-6.79,5.6-13.21,10.89-19.57,13.69a93.53,93.53,0,0,1-31.39,7.21c-39.3,2.43-81.23-15.61-85.38-54.82,0,0,.05,0,.09,0a4,4,0,0,1,.55-.12c4.5,1.13,9.36,2.68,14.51,4.31,16.13,5.12,34.4,10.93,51.8,9.86,19.34-1.2,33.85-11,42-28.43,9.87-21.13,13.75-52.91.19-76.28-8.82-15.18-23.28-24-41.83-25.53a29.42,29.42,0,0,0-4.33,0c-3.71.23-9.33.94-16.45,1.85-10.81,1.37-24.25,3.08-36.91,3.86-11.42.71-18.44.41-22.65-.11,18.47-30.53,52.87-50.55,91.48-52.94a117.29,117.29,0,0,1,34.1,2.81c31.33,7.32,42.48,32,56.6,63.24l3.33,7.34a33.29,33.29,0,0,0,21.2,18.17c38.08,10.8,167.21,47.12,229.91,60.9,19,4.17,38.31,8.12,57,11.94,30.06,6.15,61.15,12.51,91.32,19.89,17.47,4.27,35.29,7.74,52.53,11.09,29.32,5.7,59.63,11.6,87.9,21.51,1.51.53,3,1.07,4.5,1.64,26.59,10.19,40.86,23.92,44.86,43.24,4,19.12-4.78,40.13-20.8,50-8.29,5.09-18,7.91-29.65,8.63Z"/><path class="cls-3" d="M704,361.8,458,304.06l-117.8-27.65-46.53-10.92c-18-4.22-35.65-17.28-54.18-7.09-15.36,8.46-18.85,31.46-3.79,42.2,18.32,13.06,55.14,16,76.91,22.1Q446.5,360.1,580.1,398.36l106.14,30.23s-9.67-24.1-2.7-43.62C689.14,369.29,704,361.8,704,361.8Z"/><path class="cls-4" d="M478,386.06c33.53-13.95,55.89-60.93,61.72-77.9,14-40.92,12.33-73.23,5.82-91.39-5.6-15.61.9-29.6,0-46.16-1.87-34.55-40.44-45.94-84.76-40-89.4,11.92-85.39,40.36-114.51,52.29-6.13,2.51-20.38,6.14-26.12,9.44-10.61,6.09-28.85,31.08-28.85,31.08-13.1-11-39.23-.07-45.05,14.78s2.23,36,11.05,48.23c34.08,47.2,58.62,24.36,58.62,24.36s4.72,18.7,10.37,32.72c8,19.82,16.67,37.27,16.67,37.27l-6.7,11.54a10,10,0,0,1-5.65,4.53l-13,4.13a8.75,8.75,0,0,1-4.19.26l-11.06-2.05A13.83,13.83,0,0,0,291.2,402c-21.83,17.51-107.84,88.8-111.34,127.73C178,551,213,596.26,228.1,612.89c14.2,15.66,44.46,38.34,56,54,7.64,10.36,14.14,35,26.8,46.22,7.22,6.38,25,18.21,34.57,17,5.93-.74,13.42-15.2,13.42-15.2s6.08.33,9.54-.59c11.78-3.12,12.84-24.73,12.84-24.73s13.31-6.74,16-13c4.18-9.83,3.16-20.78.77-26.38-2.66-6.22-20.26-17.9-20.26-17.9s4.81-18.11-30.4-23.51a12.93,12.93,0,0,0-9.26,2c-11.46,7.88-13.4,15.18-13.4,15.18s-20.51-46.22-27.39-55.77c-6.45-8.93-25-17.6-25-17.6l49.81-46.17,36.34,45.63,201.51,6.68s62.14,45.75,83.75,37.91c39.8-14.43,43.53-131.94,43.53-131.94l-59.45-19.37-14.43,47.85s-12.78-51.87-36.91-64.6C552.7,416.19,478,386.06,478,386.06Z"/><path id="path100" d="M417.15,170.82c-29-7.5-44,11.17-53.33,30.68-7.86-2.1-4.46-12.78-2.33-18.2,5.57-14.25,27.1-32.88,44.25-29.87,7.38,1.3,17.23,8.31,11.41,17.39"/><path id="path100-2" data-name="path100" d="M483.25,161.49c28.82-19.29,49.06-.15,60.47,11.33,6.72-4.59,0-13.53-3.82-17.95-10-11.61-36.44-22.07-51.63-13.57-6.54,3.66-13.52,13.54-5,20.19"/><path id="path44" class="cls-5" d="M416.55,198.36s-18.22,2.78-18,14.39,20.92,10.47,26.65,5.4"/><path id="path104" d="M413.19,185.92c3.37,5.19,5.34,11.06,8.55,16.3s7.67,9.67,12,14a22.65,22.65,0,0,1,4.6,5.7c3.68,7.38-3.57,14.21-9.78,16.67-7,2.78-15,2.77-22.32,1.45-2.88-.52-5.86-1.28-8-3.24-3.19-2.85-2.69-6.94-.87-10.39,1.57-3,12.73.79,15.35,1,5.29.53,11.93.06,15.7-4.21-6.48-8.79-18.18-26.27-15.22-37.32"/><path id="path106" d="M451.53,308.11c-8.46-1.1-13.15-17.78-7.55-26.45,3.68,5.33,2.43,15.74,11.58,16.59,17.26,1.6,35.67-10.11,45.05-19.32,15.15-14.87,2.17-18.44-5.6-25.65-16.13-15-36.69-34.38-37.95-59.71,5.35-4.55,5.8,3.53,7.59,7.62,15.29,34.77,50.68,55.37,53.36,59.4,4,6,1.12,10.37-1.34,14.36C506.8,290.93,469.45,310.43,451.53,308.11Z"/><path id="path110" d="M528.32,291.83c-7.28,16.89-18,35.7-43,38.14-.91-5.2-1.91-13.15-1.23-16.38,19-3.31,30-13.95,44.19-21.76"/><path id="path112" d="M409.24,311.57c16.6,7.17,46,5.82,67.65,3.51,1.53,4.67,1.95,10.54,2.44,16.33-27.78,3.54-61.28-.83-70.09-19.84"/><path id="path114" d="M408.34,321.65c13.17,26.86,50.86,20.76,82.79,17.53-1.13,3.71-3.86,8.19-7.53,10-9.93,5-38,10.3-52.78,3.84-9.39-4.11-16-14.5-21.46-20.48-2.62-2.88-15.11-9.81-1-10.91"/><path class="cls-6" d="M291.35,223.38s13.58,8.15,18,17.79c5.18,11.35,2.06,24.16,6.92,30.91,2.72,3.77,24.35-11.75,22.85-21.63-1.17-7.78-5.33-3.84-12-27.25-2.44-8.6,3.11-27.6-4-30.43-5.22-2.08-13.84,9.54-19,15.26C300.36,212.22,291.35,223.38,291.35,223.38Z"/><path class="cls-7" d="M265.74,147.75s-30.3,12.12-35.66,45.28c-4.46,27.63,15,47.78,15,47.78s3.26-14.14,20.15-19.43c11.94-3.74,22.1,3.57,22.1,3.57l33.88-34.23s23-1.95,36.72-16.75c14.28-15.38,53.74-35,74.34-39,111.24-21.73,113.37,35.32,113.37,35.32s42.26-15.86,34.77-39.75c-6-19.26-33.66-22.44-33.66-22.44s1.19-98.7-50.37-101C453.85,5.2,375.83,2.24,333.91,39.34,290.74,77.54,265.74,147.75,265.74,147.75Z"/><path class="cls-8" d="M304.6,188.05s-33.37,28.41-43.14,21.38c-20.32-14.62-13.45-44,4.44-50.19,29.26-10.16,31.5-32.71,31.5-32.71s-17.13,13.9-27.82,12.57c-3.71-.46-3.84,8.65-3.84,8.65s-38.89,6.81-45.49,47.67c-3.27,20.3,24.8,45.39,24.8,45.39s8.2-15.69,20.15-19.43c5.34-1.68,22.1,3.57,22.1,3.57l33.88-34.23s19.35-4.72,25.14-7.86c18.64-10.1,65.44-54,65.44-54s-31.93,14.58-58.49,38.65c-20.75,18.78-56.63,5.37-56.63,5.37s-4.47,5.07,2.86,12.28A11.79,11.79,0,0,0,304.6,188.05Z"/><path d="M265.1,144a39.88,39.88,0,0,0,6.54-.76c1.11-.19,2.18-.52,3.29-.79s2.18-.65,3.25-1.07a49.3,49.3,0,0,0,6.36-2.85,44.81,44.81,0,0,0,6-3.78,45.24,45.24,0,0,1-4.87,5.33,52.24,52.24,0,0,1-5.67,4.66c-1,.74-2.06,1.39-3.12,2.07s-2.16,1.28-3.31,1.82a46,46,0,0,1-7.16,2.88Z"/><circle class="cls-9" cx="454.81" cy="68.27" r="44.49"/><path class="cls-7" d="M555.43,109.47S546.16,96.64,478.06,97C414.24,97.31,352.2,139,352.2,139"/><path d="M555.43,109.47a12.19,12.19,0,0,0-2.77-1.8l-1.5-.69c-.51-.22-1-.39-1.55-.59a49.74,49.74,0,0,0-6.32-1.86c-1.06-.29-2.14-.48-3.22-.7s-2.15-.46-3.24-.62c-2.19-.31-4.34-.72-6.54-.91-4.37-.56-8.77-.91-13.17-1.18l-6.61-.34-6.62-.19-3.31-.09h-3.31l-6.63-.06-13.25.18a183.26,183.26,0,0,0-26,2.62,280.15,280.15,0,0,0-50.66,14.08c-8.25,3.1-16.46,6.42-24.53,10.08s-16.1,7.5-24,11.64a200.1,200.1,0,0,1,22.31-15c3.88-2.24,7.83-4.37,11.81-6.46s8.05-4,12.16-5.84a215.76,215.76,0,0,1,51.66-16.05,162.52,162.52,0,0,1,27.18-2.32c4.51.07,9,.17,13.46.34l6.73.39,3.36.21,3.36.3a195,195,0,0,1,26.71,4,96.75,96.75,0,0,1,13,3.88,49.81,49.81,0,0,1,6.17,2.83c.49.29,1,.55,1.47.86l1.41,1A11.25,11.25,0,0,1,555.43,109.47Z"/><path class="cls-10" d="M265.74,147.75s-41,20.12-45.2,45.87c-2.92,17.72,24.51,47.19,24.51,47.19s3.26-14.14,20.15-19.43c11.94-3.74,26.15,2,26.15,2s19.91-27.77,29.83-32.66c9.05-4.46,23-1.95,36.72-16.75,14.28-15.38,53.74-35,74.34-39,111.24-21.73,113.37,35.32,113.37,35.32s44.07-16.51,34.77-39.75c-6.06-15.15-33.66-22.44-33.66-22.44s1.19-84.51-40.53-96.81C453.26-4.34,357.45,19.61,329.43,44.4,286.26,82.6,265.74,147.75,265.74,147.75Z"/><path class="cls-11" d="M497.33,131.36c48,6.2,48.28,38.9,48.28,38.9s42.26-15.86,34.77-39.75S534.75,105,515.26,102.09c-81.41-12.25-159.85,75-159.85,75S411.92,120.32,497.33,131.36Z"/><path class="cls-10" d="M363.47,168.78s42.59-51,101.76-62.53c55.62-10.87,90.2,3.22,90.2,3.22"/><g id="text5675" class="cls-12"><text class="cls-13" transform="translate(434.73 95.89) rotate(-7.56)">J</text></g><path id="path42" class="cls-5" d="M514.21,188.76s-17.67-1-16.33,11.12,22.5,9.36,24.77,8"/><path id="path104-2" data-name="path104" d="M510.56,178.33c3,4.65,4.78,9.9,7.65,14.59s6.87,8.65,10.77,12.53a20.17,20.17,0,0,1,4.12,5.1c3.29,6.6-3.2,12.71-8.76,14.91-6.29,2.49-13.4,2.49-20,1.31-2.58-.47-5.24-1.15-7.2-2.9-2.85-2.56-2.41-6.22-.77-9.3,1.41-2.66,11.4.7,13.73.94,4.74.47,10.69.05,14.07-3.77-5.81-7.87-16.29-23.51-13.63-33.41"/><path id="path40" class="cls-5" d="M442.42,283.77s5.43-22.5,11.28-19.76a8.56,8.56,0,0,1,4.86,8.88s-16.45,7.23-16.14,10.88"/><path id="path132" class="cls-5" d="M392.72,314.75c1.2-1.16,7-2.28,14,2.61,0,0-9.26.05-10.94,15.21l-3.63-1.36s-1.69-14.27.59-16.46"/><path id="path132-2" data-name="path132" class="cls-5" d="M248.37,231.33c2.77-3.13,26.67-14.86,42.09-2.41,0,0-50.33-1.89-22,62.25,0,0-16-11.52-19.95-24.07-1.81-5.78-7.3-18.21-2.05-24.16Z"/><path class="cls-14" d="M259.69,254s-1.29-13.58,12.49-15c33.44-3.48,23.54,40.57,23.54,40.57s-.11-20.79-8.23-23.1c-13.24-3.77-15.08,5.4-15.08,5.4s-2.83-2-.15-6.94,9.09-2.45,9.09-2.45-.65-6.34-10.65-7.26C262.87,244.46,259.69,254,259.69,254Z"/><path d="M315.88,292.86a21.53,21.53,0,0,1,2.09,4.25,29.64,29.64,0,0,1,1.24,4.71,38,38,0,0,1,.53,4.91c0,.83.06,1.66,0,2.5a23.29,23.29,0,0,1-.17,2.65l-7.28-2.27a15.72,15.72,0,0,0,.92-1.76c.3-.64.58-1.3.84-2a34.19,34.19,0,0,0,1.31-4.13,26.23,26.23,0,0,0,.68-4.36A20.4,20.4,0,0,0,315.88,292.86Z"/><polygon class="cls-15" points="293.67 395.76 222.66 459.19 291.5 533.89 319.54 504.29 355.58 545.15 565.03 544.16 599.78 467.8 588.1 435.09 497.85 394.15 465.63 466.52 429.29 420.89 332.12 398.17 293.67 395.76"/><path class="cls-16" d="M355.58,545.15l-33.51-38.62s7.35-7.15,8.95-10.13c1.78-3.33,3.88-14.61,3.88-14.61l25,17.61Z"/><path class="cls-17" d="M459.89,984.7l189.39,3.82s11.59-36.71-10.17-58.47c-14-14-108-19.07-151.26,16.52-11.92,9.82-28,25.42-28,25.42Z"/><path class="cls-16" d="M252.43,455.85c2.67-16.18,29.87-40.63,44.36-48.31,5.49-2.91,24.57-3.63,24.57-3.63s-13.53-10.76-18.89-10.28c-20.28,1.81-63.52,51-63.52,51l-12.48,7.18L291,531.17,306.5,520s-25.94-34.26-34.2-43.95C265.57,468.18,252,458.19,252.43,455.85Z"/><path class="cls-16" d="M596.29,450.39l-11.91-18.56s-53.33-35.74-60.25-21.34c-4.83,10,28.36,17.63,37.66,23.75,20,13.13,14.27,23.18,14.27,23.18s-12.88,15.43-13.41,29.26c-.91,23.88,3.27,14.33,3.27,14.33l35.8-40.51Z"/><path class="cls-18" d="M324.68,626.07S307.71,584,297,569.85c-12.58-16.59-24.7-17.15-24.7-17.15l49.81-46.17,36.34,45.63,201.51,6.68s62.14,45.75,83.75,37.91c39.8-14.43,44.49-132,44.49-132l-58.71-20.3s-4.77.29-12.22,23.23c-2.74,8.4-3.91,25.64-3.91,25.64s-12.78-51.87-36.91-64.6C552.7,416.19,478,386.06,478,386.06c33.53-13.95,55.89-60.93,61.72-77.9,14-40.92,12.33-73.23,5.82-91.39-5.6-15.61.9-29.6,0-46.16-1.87-34.55-40.44-45.94-84.76-40-89.4,11.92-85.39,40.36-114.51,52.29-6.13,2.51-20.38,6.14-26.12,9.44-10.61,6.09-28.85,31.08-28.85,31.08-13.1-11-39.23-.07-45.05,14.78s2.23,36,11.05,48.23c34.08,47.2,58.62,24.36,58.62,24.36s4.72,18.7,10.37,32.72c8,19.82,16.67,37.27,16.67,37.27l-6.7,11.54a10,10,0,0,1-5.65,4.53s-11.34-.42-12.73-.68l-15.83-1.75a13.82,13.82,0,0,0-11.19,2.81c-21.83,17.51-107.55,93.57-111,132.5-1.91,21.29,19.9,58.47,48.54,88,30.68,31.62,44.16,33.57,55.71,49.22"/><path class="cls-19" d="M603.37,460.62C590.26,443.89,552.79,521,552.79,521l7.72,47.4s18.49-10.72,35.8-40.52c14-24.09,17-34.57,17.44-50.34.1-3.8-6.67-7.78-6.67-7.78A18.17,18.17,0,0,0,603.37,460.62Z"/><path class="cls-16" d="M609,472s2.15,4.16-2.24,9.4c-5.55,6.62-17.37,9-17.37,9s11.75-10,14.26-19.45C604,469.62,609,472,609,472Z"/><path class="cls-20" d="M459.89,984.7,584.45,986s-61-15.43-63.55-33c-2.54-17.8,12.71-22.88,12.71-22.88l-33.05,13.72L459.89,972Z"/><path class="cls-21" d="M603.37,460.62C590.26,443.89,552.79,521,552.79,521l7.72,47.4s18.49-10.72,35.8-40.52c14-24.09,17-34.57,17.44-50.34.1-3.8-6.67-7.78-6.67-7.78A18.17,18.17,0,0,0,603.37,460.62Z"/><path class="cls-21" d="M458.62,984.7,648,988.52s11.58-36.71-10.17-58.47c-14-14-108-19.07-151.26,16.52-11.92,9.82-28,25.42-28,25.42Z"/><path d="M554.47,539.58a30.42,30.42,0,0,1-1.75,5,33,33,0,0,1-2.61,4.76,41.76,41.76,0,0,1-3.34,4.43c-.62.7-1.26,1.39-1.93,2.06-.34.33-.68.67-1,1a15.05,15.05,0,0,1-1.19,1l-3.7-6.67a7.34,7.34,0,0,0,1-.34c.36-.13.72-.29,1.08-.45.73-.32,1.45-.67,2.17-1a34.79,34.79,0,0,0,4.17-2.59,30.84,30.84,0,0,0,3.83-3.24A30.11,30.11,0,0,0,554.47,539.58Z"/><path class="cls-7" d="M415.4,954.2c10.17,2.54,22.88,12.71,22.88,12.71s2.34-13.31,2.54-17.8c.45-9.91-14-26.69-14-26.69l7.63-10.17S432,880.91,431.93,869C431.76,839.27,465,725,465,725l-1,24.36s-4.59,96,.92,127.33c1.19,6.75,5.09,25.43,5.09,25.43s-12.95,23.62-15.25,33c-2.13,8.67,2.54,35.59,2.54,35.59s25.42-20.33,55.92-35.59c34.64-17.31,83.89-17.79,83.89-17.79l-12.71-38.13L566.66,866.5l5.08-12.72L543.16,672.25s9.15-6.75,9-10.13-10.13-9-10.13-9,16.48-50.79,19.71-68.25c7.18-38.75,4.53-81.68,4.53-81.68L555.5,484.75l-195.57,12.1s-1,22-3,28.92c-1.55,5.37-3.85,12.76-3.85,12.76s11,25.1,16.64,39.12c4.62,11.44,9,36.37,8.15,48.68-1.9,26.5-27.31,101.25-27.31,101.25s-30.49,116-30.49,128.75c0,6.63,2.55,20.33,2.55,20.33s-13.28,18.28-15.26,25.43c-1.86,6.73,0,28,0,28a55.88,55.88,0,0,1,33.05-10.17c52.11,1.27,61,35.59,61,35.59S409.89,952.82,415.4,954.2Z"/><path class="cls-8" d="M546.32,696.17l-3.16-21.38s-8-1.2-9.54.59c-4.48,5.07-19.08,1.19-19.08,1.19s8.9,6.89,19.07,9.44C544,688.6,546.32,696.17,546.32,696.17Z"/><path class="cls-8" d="M396.22,621.64c1.62-22.24-7.25-64.32-14.2-93l18.43,6.58,32.21-21.14-5.89-17.88L374.3,498.7l-.06-.19-14.31.89s-1,22-3,28.91c-1.55,5.37-3.85,12.76-3.85,12.76s11,25.1,16.64,39.12c4.62,11.44,9,36.37,8.15,48.68C376,655.38,358,704.62,350.56,730.12c-1.38,4.72-24.24,88.9-26.82,107.39-2,14.1-1.12,41.7-1.12,41.7s-13.27,16.3-15.26,22.88,0,28,0,28,15.57-7.27,21.13-8.46a59.47,59.47,0,0,1,12.35-1s-13.14-3.3-10.6-18.55c1-6.18,12.71-10.17,12.71-10.17s-7.62-12.71-2.54-38.14l22.88-114.39s11.07-1.31,29-22C404,703.8,409.47,688,411.59,680.92,419.22,655.5,395.38,633.24,396.22,621.64Z"/><path class="cls-16" d="M505.14,447.32l-11.31-28-20.9,49.17s13.19-23.68,22.38-25.32C497.94,442.67,505.14,447.32,505.14,447.32Z"/><polygon class="cls-8" points="503.03 490.54 503.91 504.85 538.19 517.1 562.91 501.76 555.5 487.3 503.03 490.54"/><path class="cls-8" d="M477.68,754.64c0-15.25,7.63-12.71,7.63-12.71a7.87,7.87,0,0,0-2.54-5.08c-3-3.05-15.5-11.57-15.5-11.57l-.82,34c-.41,23-1.41,93.56,1.07,119.93a124,124,0,0,1,0,22.88c-1.1,10.28-9.21,28-10.71,38.22-1.11,7.56,3.08,30.41,3.08,30.41L498,945.3s-12.71,5.3-12.71-10.17c0-10.17,15.25-10.17,15.25-10.17s-15.25-15.25-17.79-40.67C481.84,875,477.68,795.4,477.68,754.64Z"/><path class="cls-8" d="M543.16,674.79S571.74,836,571.74,858.87c0,4.28-5.08,11.26-5.08,11.26s12.71,4,17.79,14.16a116.45,116.45,0,0,1,11.44,36.86l-11.42-2.71a30.66,30.66,0,0,0-3.83-25.25c-8.9-14-35.59-10.17-35.59-10.17s19.47-23.84,17.8-35.59c-1.28-8.9-24.15-164-24.15-164Z"/><path class="cls-8" d="M464.72,722.74s.48-1.42.25-1.14c-22.88,28-41.59,130.33-44.48,156.34-1.27,11.43,3.87,15.94,2.54,28C421.76,917.34,404,927.51,404,927.51s17.8,10.16,20.34,17.79-3.81,8.9-3.81,8.9l17.79,15.25s2.8-11.39,2.54-15.25c-1.27-19.07-15.25-30.51-15.25-30.51s8.9-3.81,10.17-12.71c2-13.84-6.36-16.52,0-55.92C441.57,818.9,464.72,722.74,464.72,722.74Z"/><path class="cls-21" d="M415.4,956.74c10.17,2.54,22.88,12.71,22.88,12.71s2.34-13.3,2.54-17.79c.45-9.92-14-26.7-14-26.7l8.9-8.89s-3.75-27.53-3.81-39.41C431.76,846.9,465,727.51,465,727.51s-5.56,120.33,0,151.7c1.19,6.74,5.09,25.42,5.09,25.42s-12.95,23.62-15.25,33c-2.13,8.67,2.54,35.59,2.54,35.59s25.42-20.33,55.92-35.59c34.64-17.31,83.89-17.79,83.89-17.79s-6.58-30.58-12.71-38.13C581.4,878,566.66,869,566.66,869l5.08-12.71L543.16,674.79s9.15-6.75,9-10.13S542,655.72,542,655.72s16.48-50.79,19.71-68.26c7.18-38.75,4.53-81.68,4.53-81.68L555.5,487.3,359.93,499.4s-1,22-3,28.91c-1.55,5.37-3.85,12.76-3.85,12.76s11,25.1,16.64,39.12c4.62,11.44,9,36.37,8.15,48.68-1.9,26.51-27.31,101.25-27.31,101.25S318.8,847.43,320.07,858.87c.74,6.59,2.55,20.34,2.55,20.34s-13.28,18.27-15.26,25.42c-1.86,6.73,0,28,0,28a55.88,55.88,0,0,1,33.05-10.17c52.11,1.27,61,35.59,61,35.59S409.89,955.36,415.4,956.74Z"/><path class="cls-17" d="M437,987.25l-153.8-3.82s-6.16-50.95,47.83-60.55c52.59-9.36,69.11,35.13,69.11,35.13s11.21-3.89,19.07-1.27c15.25,5.08,17.79,12.71,17.79,12.71Z"/><path class="cls-22" d="M513.16,499.49l24.44,8.07,23.26-11c-.79-12.72-2.07-33.39-23.51-70.37C529.77,413.1,521.86,408,521.86,408l-34.27-12.24s8.18,16.25,17,42S513.16,499.49,513.16,499.49Z"/><path class="cls-16" d="M470.7,471s-28.84-12.14-39.05-11.95c-4.86.09-18.35,6.37-18.35,6.37l-7.63-14,19.74-15.9Z"/><path class="cls-22" d="M315.28,396.82s24.44,29.37,31.28,41.16c21.44,37,23.8,75.13,23.8,75.13l29.5,12.54,23-15.78s1.22-57.53-43.48-83.5c-14.61-8.48-40.81-40.56-40.81-40.56s-11.09-.69-14.31.88C321.19,388.17,315.28,396.82,315.28,396.82Z"/><path class="cls-23" d="M459.89,986v22.88h22.88l10.17-15.25,15.25,15.25h66.09l7.63-7.62,5.09,7.62h33l2.54-2.54,2.55,2.54h25.42s3.81-6.35,2.54-12.71-5.08-7.62-5.08-7.62Z"/><path class="cls-23" d="M437,988.52v22.88H421.76l-7.63-15.26L404,1011.4H358.21l-5.09-7.63L348,1011.4H327.7l-5.08-7.63-5.09,7.63H299.74l-5.09-7.63-5.08,7.63h-7.63s-6.35-8.9-5.08-15.26c1.76-8.81,7.62-12.71,7.62-12.71Z"/><path class="cls-21" d="M459.89,986v22.88h22.88l10.17-15.25,15.25,15.25h66.09l7.63-7.62,5.09,7.62h33l2.54-7.62,7.63,7.62h20.34s3.81-6.35,2.54-12.71-5.08-7.62-5.08-7.62Z"/><path class="cls-21" d="M438.28,987.25v25.42l-16.52-1.27-7.63-15.26L404,1011.4H358.21l-5.09-7.63L348,1011.4H327.7l-5.08-7.63-5.09,7.63H299.74l-5.09-7.63-5.08,7.63h-7.63s-6.35-8.9-5.08-15.26c1.76-8.81,7.62-12.71,7.62-12.71Z"/><path class="cls-8" d="M333.46,393.44l52.25,82.48a2.52,2.52,0,0,0,3.91.47c5.71-5.64,20.25-21.2,19.53-32.71-1.22-19.76-52.73-45-72.52-53.93A2.54,2.54,0,0,0,333.46,393.44Z"/><path d="M370.45,359.89a48,48,0,0,0,5.83,4.13c2.05,1.21,4.14,2.35,6.29,3.38,4.28,2.08,8.69,3.87,13.13,5.62l6.68,2.62c2.22.87,4.49,1.83,6.63,2.71a125.88,125.88,0,0,0,13.39,4.47,116,116,0,0,0,27.66,4.32c9.22.23,18.5-1,26.52-4.6l2.93,7a58.1,58.1,0,0,1-7.37,2.21,62.27,62.27,0,0,1-7.5,1.21,79.88,79.88,0,0,1-14.91.05,121.39,121.39,0,0,1-28.56-6.21,128,128,0,0,1-13.5-5.42c-2.23-1.05-4.28-2.15-6.44-3.19l-6.45-3.14c-4.3-2.1-8.6-4.26-12.75-6.69-2.07-1.21-4.1-2.52-6.06-3.9A49.75,49.75,0,0,1,370.45,359.89Z"/><path class="cls-24" d="M391.26,463.94a273.67,273.67,0,0,0-24.5-34.74c-8.77-10.35-33-43.1-33-43.1l4.6-14.47s16.57,16.7,53.82,30c17.14,6.12,43.6,15.54,43.6,15.54l32.37,51.58L424.48,435Z"/><path class="cls-8" d="M479.62,733.94c-1.25-6.09-11-23.26-22.88-25.14"/><path d="M479.62,733.94l-3.16-3.43c-.49-.54-1-1.07-1.47-1.62s-1-1.07-1.43-1.61c-1.86-2.13-3.63-4.24-5.37-6.32s-3.41-4.13-5.2-6.14a45.86,45.86,0,0,0-6.25-6,14,14,0,0,1,2.48-.5,13.21,13.21,0,0,1,5,.72,19.47,19.47,0,0,1,2.32,1,23.75,23.75,0,0,1,7.54,6.12,27.47,27.47,0,0,1,4.7,8.24c.24.76.48,1.52.68,2.29s.33,1.58.43,2.38A12.71,12.71,0,0,1,479.62,733.94Z"/><path class="cls-20" d="M437,987.25l-52.11-3.82s31.33-2.7,34.32-10.17C424.3,960.55,400.15,958,400.15,958s11.21-3.89,19.07-1.27c15.25,5.08,17.79,12.71,17.79,12.71Z"/><path class="cls-8" d="M487.44,625.57C501,624.26,530.75,618.84,539,608c11.7-15.31,4.82-76.91,4.82-76.91s-25.79,8.78-61.42,13.38c-30.89,4-76.61,0-76.61,0s1.31,58.21,14,70.95c12.87,13,49.47,11.94,67.66,10.18"/><path d="M487.44,625.57c5.52-.78,11-1.93,16.36-3.21a145.78,145.78,0,0,0,15.88-4.73c5.13-1.89,10.22-4.16,14.36-7.35a21.49,21.49,0,0,0,2.76-2.61,10.15,10.15,0,0,0,1.06-1.47l.49-.77.4-.85a34.24,34.24,0,0,0,2.38-7.44A100.63,100.63,0,0,0,542.87,581c.25-5.47.21-11,.06-16.49s-.48-11-.91-16.53-.89-11-1.52-16.46l4.43,2.82c-5.7,1.93-11.29,3.53-17,5.06s-11.39,2.89-17.15,4.08-11.52,2.28-17.33,3.22-11.62,1.75-17.56,2.33a325.37,325.37,0,0,1-35.29.88q-8.79-.18-17.56-.66c-5.85-.34-11.66-.76-17.54-1.31l3.78-3.54c.24,11.76,1.07,23.65,2.41,35.36a166.08,166.08,0,0,0,2.9,17.35,81.11,81.11,0,0,0,2.36,8.32,28.53,28.53,0,0,0,3.61,7.34,15.2,15.2,0,0,0,2.74,2.76,24.91,24.91,0,0,0,3.42,2.3,43.19,43.19,0,0,0,7.86,3.31,91.93,91.93,0,0,0,17.2,3.54,223,223,0,0,0,35.65.93,187.77,187.77,0,0,1-35.89,1.81,93.67,93.67,0,0,1-18-2.6,46.88,46.88,0,0,1-8.78-3.22,30.34,30.34,0,0,1-4.13-2.51,19.43,19.43,0,0,1-3.71-3.41,33.23,33.23,0,0,1-4.71-8.44,73.5,73.5,0,0,1-2.86-8.81,167.52,167.52,0,0,1-3.63-17.85q-1.4-9-2.17-18c-.54-6-.95-12-1.18-18.06l-.15-3.84,3.93.29c5.71.42,11.52.71,17.29.95s11.56.44,17.34.53,11.54,0,17.3-.08,11.49-.48,17.18-.94,11.37-1.25,17.06-2.15,11.37-1.89,17-3,11.28-2.39,16.87-3.75,11.21-2.87,16.58-4.57l4-1.28.39,4.1c1.07,11.24,1.57,22.4,1.53,33.65s-.49,22.55-3.27,33.77a38.17,38.17,0,0,1-3.1,8.28l-.55,1-.67,1a16.24,16.24,0,0,1-1.47,1.84,24.38,24.38,0,0,1-3.48,2.92,57,57,0,0,1-15.68,6.92A150.54,150.54,0,0,1,487.44,625.57Z"/><path class="cls-21" d="M438.28,987.25l-153.8-3.82s-6.16-50.95,47.83-60.55C384.9,913.52,401.42,958,401.42,958s11.21-3.89,19.07-1.27c15.25,5.08,17.79,12.71,17.79,12.71Z"/><path class="cls-25" d="M633.85,293.16c-16-4.26-24.33,15-24.33,15l14.37,4.14S645.17,296.17,633.85,293.16Z"/><path class="cls-25" d="M656.5,299.18s-4.16-7.17-11.56-6.71-16.07,10.28-19.07,18.87c-2.41,6.88,2.57,25.6,9.2,28.63C652.08,347.73,656.5,299.18,656.5,299.18Z"/><path class="cls-25" d="M679.15,305.21s-13.91-11.15-19.18-10c-8.33,1.89-19.91,18.76-20.59,27.27-1,13.06,5.64,27.25,12.93,28.91C666.42,354.63,679.15,305.21,679.15,305.21Z"/><path class="cls-26" d="M284.11,666.88c7.64,10.36,14.14,35,26.8,46.22,7.22,6.38,20.26,17.9,34.57,17s13.42-15.2,13.42-15.2,19.38,3.59,23.26-11c2.75-10.33-.88-14.31-.88-14.31s9.54-.59,16-13c4.92-9.48-.91-25-4.3-30.86-5.36-9.24-15.19-13.42-15.19-13.42s3-28.14-30.4-23.51c-18.78,2.61-22.66,17.22-22.66,17.22"/><path class="cls-25" d="M708.5,329a34,34,0,0,0-22.18-27.94c-10.39-4-23.47,10.74-28.22,24-2.49,7-1.51,27,5.53,29.36,19,6.25,18.13-13,21-19.87,3.24-7.63,8.73-8.33,12.41-8C700,326.79,708.5,329,708.5,329Z"/><path class="cls-19" d="M218.07,450.72c-5.54,2.23-3.89,14.6-3.89,14.6s-16.86,1.42-18.78,5.95c-8.36,19.67,21.45,48.59,32.45,60.24,10.16,10.75,39.69,27.77,53.58,22.7,3-1.1,4.84-7.16,4.84-7.16a17.52,17.52,0,0,0,9.25-5.36c9-10.13-12.62-36.94-32.46-60.24C247.57,463.25,232.08,445.06,218.07,450.72Z"/><path class="cls-16" d="M286.27,547.05l-6.69,7.87s-7.32-2.22-7.91-11.76l-.59-9.54Z"/><path class="cls-16" d="M204.64,465.91s-2.35,6.94,5.66,14c10.13,8.94,24.44,8.06,24.44,8.06s-4.77.29-15.2-13.42c-1.86-2.45-3.95-9-3.95-9Z"/><path class="cls-21" d="M218.07,450.72c-5.54,2.23-3.89,14.6-3.89,14.6s-16.86,1.42-18.78,5.95c-8.36,19.67,17.26,46.81,32.45,60.24,11.08,9.79,39.69,27.77,53.58,22.7,3-1.1,4.84-7.16,4.84-7.16a17.52,17.52,0,0,0,9.25-5.36c9-10.13-12.62-36.94-32.46-60.24C247.57,463.25,232.08,445.06,218.07,450.72Z"/><path d="M217.82,464.17c.07.46.23,1.11.37,1.69s.31,1.19.5,1.78c.36,1.19.78,2.37,1.24,3.54a42.61,42.61,0,0,0,3.39,6.75,31.11,31.11,0,0,0,4.84,5.87,23.58,23.58,0,0,0,6.58,4.19,25,25,0,0,1-7.68-2.63,34.72,34.72,0,0,1-6.69-5,48.65,48.65,0,0,1-5.45-6.42c-.82-1.15-1.59-2.34-2.31-3.56-.37-.61-.71-1.24-1.06-1.87s-.66-1.24-1-2Z"/><path d="M284.78,550.56c-.54-.33-.89-.59-1.3-.89s-.76-.59-1.13-.88c-.74-.6-1.45-1.22-2.13-1.85a40.14,40.14,0,0,1-3.79-4.05,33.67,33.67,0,0,1-3.1-4.47,29.43,29.43,0,0,1-2.25-4.8,28.36,28.36,0,0,0,3.71,3.57,30.85,30.85,0,0,0,4.14,2.82,35.22,35.22,0,0,0,4.42,2.14c.75.3,1.51.58,2.26.82.38.12.76.24,1.13.34s.78.2,1,.23Z"/><path d="M615.46,490.13c.27.22.42.36.59.52s.33.31.49.46c.31.31.61.62.89.93.58.62,1.08,1.27,1.61,1.91a35.57,35.57,0,0,1,2.68,4.06,35,35,0,0,1,3.55,8.79c.22.74.33,1.52.49,2.28l.23,1.14c0,.38.08.76.13,1.15l.24,2.28,0,2.29,0,1.13c0,.38,0,.75-.07,1.13l-.17,2.24c-.16,1.49-.46,3-.68,4.41-.09-1.48-.11-3-.27-4.41l-.31-2.16c-.06-.36-.1-.72-.16-1.08l-.25-1.06-.5-2.09-.68-2c-.11-.34-.21-.67-.34-1l-.43-1c-.29-.64-.52-1.3-.87-1.92a31,31,0,0,0-4.63-6.8,30.26,30.26,0,0,0-2.88-2.79c-.52-.4-1-.82-1.55-1.17a8,8,0,0,0-.77-.52,3.21,3.21,0,0,0-.38-.23,2.8,2.8,0,0,0-.29-.15Z"/><circle class="cls-24" cx="395.78" cy="498.37" r="14.34"/><path d="M610.52,471.38c-.71,1.07-1.35,1.91-2.06,2.81s-1.42,1.74-2.15,2.58a62.94,62.94,0,0,1-4.65,4.73,47.62,47.62,0,0,1-5.15,4.09,36.43,36.43,0,0,1-5.64,3.15,35.84,35.84,0,0,0,4.35-4.55,45.68,45.68,0,0,0,3.49-5.11,56,56,0,0,0,2.81-5.44c.42-.93.81-1.86,1.17-2.8a28.89,28.89,0,0,0,.94-2.74Z"/><path d="M435.7,723.09a50.28,50.28,0,0,1,6.88-2.54,66.79,66.79,0,0,1,7.21-1.32c1.21-.12,2.45-.13,3.68-.16a35.32,35.32,0,0,1,3.71,0,42.16,42.16,0,0,1,7.43,1.21,31.12,31.12,0,0,1,13.56,7c.47.46.91.93,1.36,1.4a13.67,13.67,0,0,1,1.28,1.45,22.81,22.81,0,0,1,2.13,3.23,15.31,15.31,0,0,1,2,7.23,30.32,30.32,0,0,0-5-4.87c-.83-.73-1.78-1.31-2.65-1.94s-1.87-1.09-2.74-1.66a49.88,49.88,0,0,0-11.94-4.47,25.37,25.37,0,0,0-3.15-.76c-1.07-.22-2.15-.41-3.23-.66l-6.63-1.07c-2.25-.23-4.53-.6-6.85-.94A56.94,56.94,0,0,1,435.7,723.09Z"/><path d="M514.54,676.57a46.47,46.47,0,0,0,8.6-.24,41.25,41.25,0,0,0,8.23-1.83,41.84,41.84,0,0,0,7.56-3.31c1.19-.66,2.34-1.39,3.44-2.14.54-.4,1.09-.78,1.59-1.19.27-.19.51-.4.75-.6l.35-.31a2.08,2.08,0,0,0,.26-.26,4,4,0,0,1,6.51,4.49,4,4,0,0,1-1.08,1.06l-.81.53-.62.36-.55.3c-.37.19-.73.38-1.09.54-.72.36-1.45.66-2.17,1-1.45.58-2.92,1.1-4.4,1.53a46.51,46.51,0,0,1-9,1.76,44.09,44.09,0,0,1-9,0A48.42,48.42,0,0,1,514.54,676.57Z"/><path d="M319,504.33c1.54-1.66,3.1-3.43,4.61-5.19s3-3.57,4.42-5.41,2.81-3.71,4.07-5.66a34.4,34.4,0,0,0,1.74-3,9.87,9.87,0,0,0,1.11-3.28,10.36,10.36,0,0,1-.21,3.59,35.08,35.08,0,0,1-.91,3.49c-.72,2.3-1.59,4.55-2.5,6.77s-1.89,4.41-2.91,6.58-2.05,4.31-3.18,6.5Z"/><path d="M343.12,692a16.59,16.59,0,0,0,3.06,6.23,40.32,40.32,0,0,0,4.57,5.2c1.66,1.61,3.39,3.15,5.19,4.6s3.68,2.87,5.49,4.08l-5.05,5.71c-1.71-2-3.16-3.87-4.61-5.88s-2.79-4.06-4-6.18a43.22,43.22,0,0,1-3.23-6.63A17.69,17.69,0,0,1,343.12,692Z"/><path class="cls-8" d="M512.16,437.31l18.31,10.88a1.85,1.85,0,0,0,2.78-1.94C527.81,426.76,512,403.8,512,403.8Z"/><path d="M360.75,673.65a6.75,6.75,0,0,0,1.66,2.79,14.93,14.93,0,0,0,2.45,2.1,37.44,37.44,0,0,0,5.67,3.18c2,.9,4,1.71,6.07,2.44s4.18,1.41,6.17,1.93l-3,7c-2.1-1.26-4-2.53-5.87-3.9s-3.72-2.78-5.47-4.3a39.92,39.92,0,0,1-4.91-5,16.89,16.89,0,0,1-1.92-2.94A7.31,7.31,0,0,1,360.75,673.65Z"/><polygon class="cls-24" points="468.16 468.76 484.11 391.16 506.96 399.32 523.83 439.78 492.24 419.39 468.16 468.76"/><path d="M363.13,628.48a48.18,48.18,0,0,0,4.2,6.16,30.22,30.22,0,0,0,4.22,4.18,14.5,14.5,0,0,1,1.19.87,3.42,3.42,0,0,0,.62.43c.22.14.44.27.65.42.81.65,1.82,1.09,2.76,1.75s2.06,1.12,3.13,1.86a23.59,23.59,0,0,1,3.49,2.22,16.78,16.78,0,0,1-4.06,1.48,19.49,19.49,0,0,1-4.26.19,16.06,16.06,0,0,1-8.27-3.26,14.23,14.23,0,0,1-4.93-7.72A10.94,10.94,0,0,1,363.13,628.48Z"/><path class="cls-10" d="M368.51,641.24c14-9.17,8.34-23.19,3.27-27.66"/><path class="cls-7" d="M430.84,562s25,17.61,47.69,16.2c29.81-1.84,47.71-22.1,47.71-22.1S494,567.5,482.71,568.41C469.1,569.5,430.84,562,430.84,562Z"/><path d="M430.84,562c8.38.08,16.42.38,24.42.51s15.88.17,23.73-.13c2,0,3.93-.16,5.88-.26s3.92-.23,5.87-.41,3.9-.37,5.86-.52c1-.09,1.94-.24,2.92-.35s2-.2,2.93-.36c3.92-.46,7.81-1.16,11.76-1.87s7.88-1.68,12-2.51a61.29,61.29,0,0,1-22,12.17,81.69,81.69,0,0,1-12.32,3c-2.08.39-4.17.58-6.27.85s-4.2.34-6.3.41a105.64,105.64,0,0,1-25-2.11,101.13,101.13,0,0,1-12.07-3.3A63.73,63.73,0,0,1,430.84,562Z"/><path d="M301.71,177.41a43,43,0,0,0,6,4.82,44.13,44.13,0,0,0,6.61,3.65,33.8,33.8,0,0,0,6.94,2.24,29.2,29.2,0,0,0,6.93.55l-.65,7.6a35.47,35.47,0,0,1-8.16-2.75,38.1,38.1,0,0,1-7-4.38,46.42,46.42,0,0,1-5.89-5.47A44.55,44.55,0,0,1,301.71,177.41Z"/><path class="cls-5" d="M197,535.81c7.27,9.84,14.3,19.55,21.52,29.09s14.58,18.88,22.16,28,15.46,18,23.62,26.65q3.12,3.2,6.18,6.47l6.4,6.28,3.18,3.22,3.31,3.06c2.22,2,4.4,4.17,6.57,6.37q-4.15-1.92-8.23-4.07c-1.36-.71-2.72-1.44-4.06-2.19l-3.87-2.47c-2.56-1.68-5.16-3.34-7.66-5.13s-4.85-3.75-7.25-5.67a189.3,189.3,0,0,1-26-26,217.57,217.57,0,0,1-21-30.12c-1.48-2.68-3-5.34-4.38-8.06s-2.75-5.46-4-8.25l-1.84-4.2c-.59-1.41-1.16-2.84-1.71-4.26A91.89,91.89,0,0,1,197,535.81Z"/><path class="cls-5" d="M636.57,456a82.13,82.13,0,0,1-2,10.74c-.83,3.41-1.73,6.71-2.71,10s-2,6.5-3.09,9.78-2.17,6.59-3.84,10.15a22,22,0,0,1-1-2.71q-.21-.69-.39-1.38l-.25-1.39c-.15-.93-.29-1.87-.37-2.81s-.08-1.88-.08-2.81a38.88,38.88,0,0,1,1.71-11,43.06,43.06,0,0,1,4.5-10.12A29.67,29.67,0,0,1,636.57,456Z"/><circle class="cls-24" cx="536.97" cy="480.36" r="14.34"/><polygon points="325 873.69 335.33 886.83 320.23 879.64 325 873.69"/><path d="M410.32,926.24a9.89,9.89,0,0,0,4.13-.11,23.28,23.28,0,0,0,3.92-1.18,40.5,40.5,0,0,0,3.76-1.66c1.2-.6,2.47-1.28,3.51-1.94l2.41,7.23a44,44,0,0,1-4.63.28c-1.51,0-3,0-4.54-.13a26.2,26.2,0,0,1-4.49-.69A10.71,10.71,0,0,1,410.32,926.24Z"/><polygon points="472.75 901.93 485.31 919.88 467.36 907.32 472.75 901.93"/><path d="M552.68,880.48a53.2,53.2,0,0,0,6.81-8.39c1-1.49,2-3,2.85-4.54s1.8-3.12,2.54-4.61l6.1,4.57c-1.45,1.38-2.85,2.56-4.31,3.78s-2.94,2.34-4.44,3.45A54.86,54.86,0,0,1,552.68,880.48Z"/></svg>