<svg id="Layer_1" data-name="Layer 1" xmlns="http://www.w3.org/2000/svg" viewBox="0 0 832.2 1024"><defs><style>.cls-1{fill:#a1a1a1;}.cls-1,.cls-11,.cls-15,.cls-19,.cls-23,.cls-24,.cls-26,.cls-27,.cls-28,.cls-29,.cls-3,.cls-7{stroke:#020608;}.cls-1,.cls-10,.cls-11,.cls-12,.cls-14,.cls-24,.cls-27,.cls-28,.cls-29,.cls-3,.cls-7{stroke-miterlimit:10;}.cls-1,.cls-10,.cls-11,.cls-12,.cls-19,.cls-2,.cls-23,.cls-24,.cls-26,.cls-27,.cls-28,.cls-29,.cls-3,.cls-7{stroke-width:7.63px;}.cls-11,.cls-19,.cls-2,.cls-23{fill:none;}.cls-2{stroke:#fff;}.cls-15,.cls-19,.cls-2,.cls-28{stroke-linecap:round;}.cls-15,.cls-19,.cls-2,.cls-23,.cls-26{stroke-linejoin:round;}.cls-3{fill:#6b6b6b;}.cls-27,.cls-28,.cls-4{fill:#edd4b7;}.cls-15,.cls-5{fill:#020608;}.cls-6{fill:#f5e2cc;}.cls-7{fill:#6d6b6d;}.cls-24,.cls-8{fill:#39495b;}.cls-12,.cls-9{fill:#354251;}.cls-10,.cls-29{fill:#fff;}.cls-10{stroke:#060809;}.cls-12,.cls-14{stroke:#211c1d;}.cls-13,.cls-14{isolation:isolate;}.cls-14{font-size:77.53px;fill:#211c1d;stroke-width:2.54px;font-family:Georgia-Bold, Georgia;font-weight:700;}.cls-15{stroke-width:2.54px;}.cls-16{fill:#5c83bb;}.cls-17{fill:#4c648e;}.cls-18{fill:#6f5039;}.cls-20,.cls-26{fill:#86b6da;}.cls-21{fill:#6489a4;}.cls-22{fill:#4e3828;}.cls-25{fill:#3e3121;}</style></defs><title>JCasC</title><path class="cls-1" d="M761.46,350.79c-1.6-.62-3.22-1.21-4.84-1.77-45.94-16.1-94.61-21.47-141.73-33-49.2-12-99.17-21-148.65-31.91-62.83-13.8-193.91-50.7-229.18-60.7a19.72,19.72,0,0,1-12.57-10.79C208.67,178.09,196,144,155.31,134.48c-55.37-12.95-117.56,11.81-143.88,62.7-14.31,27.67,84.11,7.68,94.43,8.53,41.38,3.4,44.85,51.84,30.48,82.6-17.45,37.36-64,14.33-92.33,6.91-9.31-2.43-18.83,4.92-17.83,14.5,6.44,61.55,86.8,80.15,135.72,58.69,20.63-9.05,36.27-34.3,59.9-34.65,38.51-.56,75.88,20,112.36,30.09,44,12.16,88.2,23.73,132.78,33.61,55.8,12.37,109.18,33.14,163.18,51.46,44.15,15,112.89,46.78,157.68,19.29,21.09-12.94,32-40,27-64.27C808.92,375.73,786.46,360.36,761.46,350.79Zm-9,96.09a28.41,28.41,0,1,1,26.61-30.11A28.41,28.41,0,0,1,752.46,446.88Z"/><path class="cls-2" d="M751,465.3c-30.57,1.89-67.51-11.53-97.2-22.32-6.83-2.48-13.33-4.84-19.37-6.89-12-4.08-24.06-8.29-36.07-12.51C556.89,409,514,394,469.87,384.23c-38.72-8.58-79.47-18.89-132.1-33.44-11.17-3.09-22.42-7.2-34.32-11.55-26.15-9.56-53.18-19.45-81.84-19-.75,0-1.48,0-2.21.08-18,1.12-31.49,12.23-43.37,22-6.79,5.6-13.21,10.9-19.57,13.69a93.29,93.29,0,0,1-31.4,7.22c-39.31,2.43-81.24-15.62-85.39-54.84,0,0,0,.05.09,0s.32-.1.55-.12c4.5,1.14,9.36,2.68,14.51,4.32,16.13,5.12,34.41,10.93,51.81,9.85,19.34-1.2,33.86-11,42-28.43,9.87-21.14,13.76-52.92.19-76.29-8.82-15.19-23.29-24-41.84-25.55a31.22,31.22,0,0,0-4.33,0c-3.71.23-9.33.94-16.45,1.85-10.81,1.37-24.26,3.08-36.92,3.87-11.43.7-18.44.4-22.66-.12,18.48-30.54,52.88-50.56,91.5-52.95a117.33,117.33,0,0,1,34.11,2.81c31.34,7.32,42.49,32,56.61,63.25l3.34,7.35a33.27,33.27,0,0,0,21.19,18.17c38.1,10.8,167.25,47.13,230,60.91,19,4.17,38.31,8.12,57,11.95,30.07,6.15,61.16,12.51,91.33,19.89,17.48,4.27,35.31,7.74,52.54,11.09,29.33,5.71,59.65,11.61,87.93,21.51q2.26.79,4.5,1.65c26.6,10.18,40.86,23.93,44.87,43.25,4,19.12-4.78,40.13-20.8,50-8.3,5.1-18,7.92-29.67,8.64Z"/><path class="cls-3" d="M705.87,366.54l-246-57.75L342,281.13l-46.54-10.92c-18-4.23-35.66-17.29-54.19-7.09-15.36,8.45-18.86,31.46-3.8,42.2,18.33,13.07,55.16,16,76.93,22.1q133.91,37.41,267.54,75.68l106.17,30.25s-9.68-24.11-2.7-43.64C691,374,705.87,366.54,705.87,366.54Z"/><path class="cls-4" d="M479.86,390.8c33.53-13.95,55.9-60.94,61.73-77.91,14.06-40.93,12.34-73.25,5.82-91.41-5.6-15.62.9-29.61,0-46.18-1.87-34.56-40.45-46-84.77-40-89.43,11.92-85.42,40.36-114.54,52.3C342,190.07,327.72,193.7,322,197c-10.61,6.09-28.85,31.09-28.85,31.09C280,217,253.89,228,248.07,242.87s2.23,36,11.06,48.24c34.08,47.21,58.62,24.36,58.62,24.36s4.72,18.71,10.38,32.73c8,19.82,16.68,37.28,16.68,37.28L338.1,397a10.09,10.09,0,0,1-5.65,4.53l-13,4.12a8.59,8.59,0,0,1-4.18.26l-11.07-2.05A13.84,13.84,0,0,0,293,406.71c-21.83,17.51-107.86,88.82-111.36,127.75-1.92,21.29,33.17,66.58,48.25,83.22,14.19,15.66,44.47,38.35,56,54,7.64,10.36,14.14,35.05,26.8,46.24,7.22,6.37,25,18.2,34.58,17,5.93-.74,13.43-15.2,13.43-15.2s6.07.33,9.54-.59C382,716,383.08,694.4,383.08,694.4s13.31-6.73,16-13c4.18-9.83,3.15-20.78.76-26.38-2.66-6.22-20.27-17.91-20.27-17.91s4.82-18.11-30.4-23.51a12.93,12.93,0,0,0-9.26,2c-11.47,7.89-13.41,15.18-13.41,15.18s-20.5-46.23-27.39-55.77c-6.45-8.94-25-17.61-25-17.61l49.82-46.19,36.35,45.65,201.56,6.68s62.15,45.76,83.76,37.92c39.81-14.44,43.54-132,43.54-132L629.6,450.19l-14.43,47.87s-12.79-51.89-36.92-64.62C554.54,420.94,479.86,390.8,479.86,390.8Z"/><path id="path100" class="cls-5" d="M419,175.52c-29-7.51-44,11.17-53.34,30.69-7.86-2.11-4.45-12.79-2.32-18.22,5.57-14.25,27.1-32.87,44.25-29.87,7.38,1.3,17.24,8.31,11.41,17.4"/><path id="path100-2" data-name="path100" class="cls-5" d="M485.07,166.18c28.83-19.29,49.07-.14,60.48,11.33,6.72-4.58,0-13.53-3.82-17.95-10-11.61-36.45-22.08-51.64-13.57-6.54,3.66-13.53,13.54-5,20.19"/><path id="path44" class="cls-6" d="M418.35,203.06s-18.22,2.78-18,14.4,20.93,10.46,26.66,5.39"/><path id="path104" class="cls-5" d="M415,190.62c3.38,5.19,5.35,11.06,8.55,16.3s7.68,9.67,12,14a22.48,22.48,0,0,1,4.6,5.7c3.68,7.37-3.57,14.21-9.78,16.67-7,2.78-15,2.77-22.33,1.45-2.88-.51-5.86-1.28-8-3.24-3.19-2.85-2.69-6.94-.87-10.39,1.57-3,12.74.79,15.35,1,5.29.52,11.94.06,15.71-4.21-6.48-8.79-18.19-26.27-15.23-37.33"/><path id="path106" class="cls-5" d="M453.34,312.83c-8.45-1.09-13.15-17.77-7.54-26.45,3.67,5.33,2.42,15.74,11.58,16.59,17.26,1.61,35.67-10.11,45.06-19.33,15.14-14.86,2.16-18.43-5.61-25.64-16.13-15-36.69-34.39-37.95-59.73,5.34-4.55,5.79,3.54,7.59,7.62,15.29,34.78,50.69,55.39,53.37,59.42,4,6,1.12,10.37-1.34,14.36C508.63,295.65,471.27,315.16,453.34,312.83Z"/><path id="path110" class="cls-5" d="M530.15,296.56c-7.28,16.89-18,35.69-43,38.14-.91-5.21-1.91-13.15-1.23-16.38,19-3.31,30.06-14,44.2-21.76"/><path id="path112" class="cls-5" d="M411,316.3c16.61,7.17,46,5.81,67.67,3.51,1.53,4.66,2,10.54,2.44,16.33-27.78,3.54-61.29-.83-70.11-19.84"/><path id="path114" class="cls-5" d="M410.15,326.38c13.17,26.87,50.87,20.76,82.8,17.54-1.13,3.7-3.86,8.19-7.53,10-9.94,5-38,10.3-52.79,3.83-9.39-4.1-16-14.5-21.46-20.48-2.63-2.88-15.12-9.81-1-10.91"/><path class="cls-7" d="M293.13,228.09s13.58,8.15,18,17.8c5.18,11.35,2.06,24.16,6.93,30.9,2.72,3.77,24.35-11.74,22.85-21.63-1.17-7.78-5.33-3.84-12-27.25-2.44-8.61,3.11-27.61-4-30.44-5.23-2.08-13.85,9.55-19,15.26C302.14,216.93,293.13,228.09,293.13,228.09Z"/><path class="cls-8" d="M267.52,152.45s-30.32,12.12-35.67,45.28c-4.46,27.64,15,47.79,15,47.79s3.26-14.14,20.15-19.44c11.95-3.74,22.11,3.57,22.11,3.57L323,195.43s23-2,36.74-16.76c14.28-15.39,53.75-35,74.35-39C545.32,117.9,547.45,175,547.45,175s42.26-15.86,34.77-39.75c-6-19.27-33.67-22.45-33.67-22.45s1.19-98.72-50.38-101C455.66,9.86,377.63,6.9,335.7,44,292.52,82.21,267.52,152.45,267.52,152.45Z"/><path class="cls-9" d="M306.38,192.75S273,221.17,263.23,214.14c-20.33-14.63-13.45-44,4.45-50.21,29.27-10.15,31.5-32.71,31.5-32.71s-17.14,13.9-27.83,12.57c-3.71-.46-3.83,8.66-3.83,8.66s-38.9,6.8-45.5,47.67c-3.28,20.31,24.8,45.4,24.8,45.4S255,229.83,267,226.08c5.34-1.67,22.11,3.57,22.11,3.57L323,195.43s19.36-4.73,25.15-7.87c18.65-10.1,65.45-54,65.45-54s-31.93,14.59-58.5,38.66c-20.75,18.79-56.64,5.38-56.64,5.38s-4.47,5.07,2.87,12.28A11.73,11.73,0,0,0,306.38,192.75Z"/><path class="cls-5" d="M266.87,148.69a39.76,39.76,0,0,0,6.54-.76c1.11-.19,2.19-.52,3.29-.79s2.19-.65,3.26-1.07a49.17,49.17,0,0,0,6.35-2.85,43.39,43.39,0,0,0,6-3.79,45.41,45.41,0,0,1-4.87,5.34,51.4,51.4,0,0,1-5.68,4.66c-1,.74-2.06,1.39-3.11,2.07s-2.16,1.28-3.31,1.82a46.75,46.75,0,0,1-7.16,2.88Z"/><circle class="cls-10" cx="456.62" cy="70.4" r="44.5"/><path class="cls-8" d="M557.26,114.15s-9.27-12.83-77.38-12.49C416.05,102,354,143.72,354,143.72"/><path class="cls-5" d="M557.26,114.15a12.67,12.67,0,0,0-2.77-1.8l-1.5-.69c-.5-.21-1-.39-1.54-.58a47.89,47.89,0,0,0-6.33-1.87c-1.06-.29-2.14-.48-3.22-.7s-2.15-.46-3.24-.62c-2.19-.3-4.34-.71-6.54-.91-4.37-.56-8.77-.91-13.17-1.18l-6.61-.34-6.62-.18-3.31-.1h-3.32l-6.63,0-13.25.17a184.58,184.58,0,0,0-26,2.62A280,280,0,0,0,402.56,122c-8.26,3.1-16.47,6.43-24.54,10.09s-16.1,7.5-24,11.64a200,200,0,0,1,22.3-15c3.89-2.24,7.84-4.38,11.82-6.46s8.05-4,12.16-5.85a215.84,215.84,0,0,1,51.67-16,162.64,162.64,0,0,1,27.19-2.32c4.51.07,9,.17,13.46.34l6.73.39,3.36.21,3.37.3a195.23,195.23,0,0,1,26.71,4,96.75,96.75,0,0,1,13,3.88,50.69,50.69,0,0,1,6.18,2.84c.49.28,1,.55,1.47.85l1.4,1A11.28,11.28,0,0,1,557.26,114.15Z"/><path class="cls-11" d="M267.52,152.45s-41,20.11-45.21,45.87c-2.93,17.72,24.51,47.2,24.51,47.2s3.26-14.14,20.15-19.44c11.95-3.74,26.16,2,26.16,2S313,200.31,323,195.43c9.06-4.47,23-2,36.74-16.76,14.28-15.39,53.75-35,74.35-39C545.32,117.9,547.45,175,547.45,175s44.07-16.5,34.77-39.75c-6.06-15.16-33.67-22.45-33.67-22.45S549.74,28.22,508,15.92C455.07.32,359.24,24.28,331.22,49.07,288,87.28,267.52,152.45,267.52,152.45Z"/><path class="cls-12" d="M499.15,136.05c48,6.2,48.3,38.9,48.3,38.9s42.26-15.86,34.77-39.75-45.64-25.49-65.13-28.43C435.66,94.52,357.2,181.83,357.2,181.83S413.73,125,499.15,136.05Z"/><path class="cls-11" d="M365.27,173.47s42.59-51,101.77-62.54c55.63-10.87,90.22,3.22,90.22,3.22"/><g id="text5675" class="cls-13"><text class="cls-14" transform="translate(436.54 100.57) rotate(-7.56)">J</text></g><path id="path42" class="cls-6" d="M516,193.46s-17.68-1-16.34,11.13,22.51,9.36,24.77,8"/><path id="path104-2" data-name="path104" class="cls-5" d="M512.38,183c3,4.65,4.79,9.9,7.66,14.59s6.87,8.66,10.77,12.53a20.35,20.35,0,0,1,4.12,5.1c3.3,6.6-3.2,12.72-8.76,14.92-6.29,2.49-13.4,2.48-20,1.31-2.58-.47-5.25-1.15-7.2-2.9-2.86-2.56-2.41-6.22-.78-9.31,1.41-2.65,11.4.71,13.74.94,4.74.47,10.69.06,14.06-3.77-5.8-7.87-16.28-23.51-13.63-33.41"/><path id="path40" class="cls-6" d="M444.23,288.49s5.43-22.51,11.28-19.76a8.56,8.56,0,0,1,4.87,8.88s-16.46,7.23-16.15,10.88"/><path id="path132" class="cls-6" d="M394.52,319.47c1.2-1.15,7-2.28,14,2.62,0,0-9.27,0-10.95,15.21l-3.63-1.36s-1.69-14.27.59-16.47"/><path id="path132-2" data-name="path132" class="cls-6" d="M250.14,236c2.78-3.13,26.67-14.87,42.1-2.42,0,0-50.34-1.89-22,62.27,0,0-16-11.52-19.94-24.07-1.82-5.79-7.31-18.21-2.06-24.16Z"/><path class="cls-15" d="M261.47,258.68s-1.3-13.58,12.49-15c33.44-3.48,23.54,40.58,23.54,40.58s-.11-20.8-8.23-23.11c-13.24-3.77-15.09,5.4-15.09,5.4s-2.83-2-.14-6.93,9.09-2.46,9.09-2.46-.65-6.34-10.65-7.26C264.64,249.18,261.47,258.68,261.47,258.68Z"/><path class="cls-5" d="M317.66,297.59a21.75,21.75,0,0,1,2.1,4.24,29.92,29.92,0,0,1,1.24,4.71,38.19,38.19,0,0,1,.53,4.91c0,.83.05,1.67,0,2.51a23.29,23.29,0,0,1-.17,2.65l-7.28-2.27a15,15,0,0,0,.92-1.76c.3-.64.58-1.3.84-2a33.79,33.79,0,0,0,1.31-4.14,26.28,26.28,0,0,0,.69-4.35A20.36,20.36,0,0,0,317.66,297.59Z"/><polygon class="cls-16" points="295.45 400.51 224.43 463.94 293.28 538.66 321.32 509.06 357.37 549.93 566.87 548.94 601.62 472.56 589.94 439.84 499.67 398.9 467.45 471.28 431.1 425.64 333.91 402.92 295.45 400.51"/><path class="cls-17" d="M357.37,549.93l-33.52-38.64s7.36-7.15,9-10.13c1.78-3.33,3.88-14.61,3.88-14.61l25,17.61Z"/><path class="cls-18" d="M461.7,989.57l189.43,3.82S662.72,956.67,641,934.9c-14-14-108.06-19.06-151.29,16.53-11.92,9.82-28,25.43-28,25.43Z"/><path class="cls-17" d="M254.2,460.61c2.67-16.18,29.88-40.64,44.37-48.32,5.49-2.91,24.58-3.64,24.58-3.64s-13.54-10.76-18.9-10.28c-20.28,1.82-63.53,51-63.53,51l-12.49,7.19,64.58,79.36,15.47-11.13s-25.95-34.27-34.2-44C267.35,472.94,253.82,463,254.2,460.61Z"/><path class="cls-17" d="M598.13,455.15l-11.91-18.57S532.88,400.83,526,415.23c-4.82,10,28.37,17.64,37.68,23.76,20,13.13,14.27,23.18,14.27,23.18S565,477.61,564.49,491.45c-.91,23.88,3.27,14.33,3.27,14.33l35.8-40.53Z"/><path class="cls-19" d="M326.46,630.86s-17-42.05-27.72-56.23C286.16,558,274,557.48,274,557.48l49.82-46.19,36.35,45.65,201.56,6.68s62.15,45.76,83.76,37.92C685.33,587.1,690,469.48,690,469.48L631.3,449.17s-4.77.29-12.23,23.24c-2.73,8.4-3.9,25.65-3.9,25.65s-12.79-51.89-36.92-64.62c-23.71-12.5-98.39-42.64-98.39-42.64,33.53-13.95,55.9-60.94,61.73-77.91,14.06-40.93,12.34-73.25,5.82-91.41-5.6-15.62.9-29.61,0-46.18-1.87-34.56-40.45-46-84.77-40-89.43,11.92-85.42,40.36-114.54,52.3C342,190.07,327.72,193.7,322,197c-10.61,6.09-28.85,31.09-28.85,31.09C280,217,253.89,228,248.07,242.87s2.23,36,11.06,48.24c34.08,47.21,58.62,24.36,58.62,24.36s4.72,18.71,10.38,32.73c8,19.82,16.68,37.28,16.68,37.28L338.1,397a10.09,10.09,0,0,1-5.65,4.53s-11.34-.43-12.74-.68l-15.83-1.76a13.83,13.83,0,0,0-11.19,2.82c-21.84,17.51-107.57,93.59-111.07,132.52-1.92,21.29,19.9,58.48,48.54,88,30.69,31.63,44.18,33.58,55.73,49.23"/><path class="cls-20" d="M605.22,465.38c-13.11-16.74-50.59,60.37-50.59,60.37l7.72,47.41s18.49-10.72,35.8-40.53c14-24.1,17-34.57,17.44-50.35.11-3.8-6.67-7.78-6.67-7.78A18.1,18.1,0,0,0,605.22,465.38Z"/><path class="cls-21" d="M610.88,476.77s2.16,4.16-2.23,9.4c-5.55,6.63-17.38,9-17.38,9s11.76-10,14.27-19.45C605.89,474.38,610.88,476.77,610.88,476.77Z"/><path class="cls-22" d="M461.7,989.57l124.59,1.27s-61-15.43-63.56-33.05c-2.54-17.8,12.71-22.89,12.71-22.89l-33.05,13.73L461.7,976.86Z"/><path class="cls-23" d="M605.22,465.38c-13.11-16.74-50.59,60.37-50.59,60.37l7.72,47.41s18.49-10.72,35.8-40.53c14-24.1,17-34.57,17.44-50.35.11-3.8-6.67-7.78-6.67-7.78A18.1,18.1,0,0,0,605.22,465.38Z"/><path class="cls-23" d="M460.43,989.57l189.43,3.82s11.59-36.72-10.17-58.49c-14-14-108.06-19.06-151.29,16.53-11.92,9.82-28,25.43-28,25.43Z"/><path class="cls-5" d="M556.3,544.35a30.37,30.37,0,0,1-1.74,5,33.14,33.14,0,0,1-2.62,4.77,39.12,39.12,0,0,1-3.34,4.42c-.62.7-1.25,1.4-1.92,2.07-.34.33-.68.66-1,1s-.7.63-1.2,1l-3.7-6.67a8.4,8.4,0,0,0,1-.34l1.09-.45c.72-.32,1.45-.68,2.17-1a36.54,36.54,0,0,0,4.17-2.6,29.24,29.24,0,0,0,3.82-3.24A27.48,27.48,0,0,0,556.3,544.35Z"/><path class="cls-8" d="M417.21,959.06c10.17,2.54,22.88,12.71,22.88,12.71s2.34-13.31,2.54-17.8c.45-9.91-14-26.69-14-26.69l7.63-10.17s-2.48-31.35-2.54-43.23c-.17-29.77,33.1-144.1,33.1-144.1l-1,24.36s-4.59,96,.92,127.37c1.18,6.74,5.09,25.43,5.09,25.43s-12.95,23.63-15.26,33c-2.12,8.67,2.54,35.6,2.54,35.6s25.43-20.34,55.94-35.6c34.64-17.32,83.91-17.8,83.91-17.8l-12.72-38.14L568.5,871.34l5.08-12.71L545,677.05s9.16-6.75,9-10.13S543.81,658,543.81,658s16.48-50.8,19.72-68.27C570.71,551,568.05,508,568.05,508l-10.72-18.49-195.6,12.1s-1,22-3,28.92c-1.56,5.37-3.85,12.77-3.85,12.77s11,25.1,16.64,39.12c4.61,11.44,9,36.38,8.15,48.69-1.91,26.51-27.31,101.27-27.31,101.27s-30.5,116.06-30.5,128.78c0,6.63,2.54,20.34,2.54,20.34s-13.28,18.28-15.25,25.43c-1.87,6.73,0,28,0,28a55.88,55.88,0,0,1,33.05-10.17c52.12,1.28,61,35.6,61,35.6S411.69,957.68,417.21,959.06Z"/><path class="cls-9" d="M548.15,701,545,679.6s-8-1.2-9.54.59c-4.48,5.06-19.09,1.18-19.09,1.18s8.91,6.9,19.08,9.44C545.81,693.4,548.15,701,548.15,701Z"/><path class="cls-9" d="M398,626.43c1.61-22.25-7.26-64.33-14.21-93L402.25,540l32.22-21.15-5.9-17.88-52.48,2.53,0-.19-14.31.88s-1,22-3,28.92c-1.56,5.37-3.85,12.77-3.85,12.77s11,25.1,16.64,39.12c4.61,11.45,9,36.38,8.15,48.69-1.91,26.51-19.83,75.76-27.31,101.27-1.39,4.73-24.25,88.92-26.84,107.42-2,14.1-1.12,41.7-1.12,41.7s-13.26,16.31-15.25,22.89,0,28,0,28,15.57-7.27,21.13-8.46a59.89,59.89,0,0,1,12.35-.94s-13.14-3.31-10.6-18.56c1-6.18,12.71-10.17,12.71-10.17s-7.63-12.72-2.54-38.14l22.88-114.42s11.08-1.31,29-22c11.71-13.56,17.22-29.39,19.33-36.44C421,660.3,397.19,638,398,626.43Z"/><path class="cls-17" d="M507,452.07l-11.32-28-20.9,49.18s13.19-23.68,22.38-25.33C499.76,447.42,507,452.07,507,452.07Z"/><polygon class="cls-9" points="504.85 495.31 505.74 509.62 540.02 521.86 564.75 506.52 557.33 492.06 504.85 495.31"/><path class="cls-9" d="M479.5,759.46c0-15.25,7.63-12.71,7.63-12.71a7.9,7.9,0,0,0-2.54-5.09c-3-3-15.51-11.56-15.51-11.56l-.81,34c-.41,23-1.41,93.59,1.06,119.95a123.26,123.26,0,0,1,0,22.89c-1.09,10.28-9.21,28-10.71,38.23-1.11,7.56,3.08,30.42,3.08,30.42l38.14-25.43s-12.71,5.3-12.71-10.17c0-10.17,15.26-10.17,15.26-10.17s-15.26-15.26-17.8-40.68C483.66,879.86,479.5,800.22,479.5,759.46Z"/><path class="cls-9" d="M545,679.6s28.59,161.23,28.59,184.11c0,4.28-5.08,11.26-5.08,11.26s12.71,4,17.79,14.17A116.35,116.35,0,0,1,597.74,926l-11.43-2.72A30.66,30.66,0,0,0,582.48,898c-8.9-14-35.6-10.17-35.6-10.17s19.48-23.85,17.8-35.6c-1.27-8.9-24.15-164-24.15-164Z"/><path class="cls-9" d="M466.54,727.55s.47-1.42.25-1.14c-22.88,28-41.61,130.36-44.5,156.37-1.27,11.44,3.88,16,2.55,28-1.27,11.44-19.07,21.61-19.07,21.61s17.8,10.17,20.34,17.8-3.82,8.9-3.82,8.9l17.8,15.26s2.8-11.4,2.54-15.26c-1.27-19.07-15.25-30.51-15.25-30.51s8.9-3.82,10.17-12.71c2-13.85-6.36-16.53,0-55.94C443.38,823.73,466.54,727.55,466.54,727.55Z"/><path class="cls-23" d="M417.21,961.6c10.17,2.55,22.88,12.72,22.88,12.72s2.34-13.31,2.54-17.8c.45-9.92-14-26.7-14-26.7l8.9-8.9s-3.75-27.54-3.81-39.41c-.17-29.77,33.1-149.19,33.1-149.19s-5.56,120.35,0,151.73c1.18,6.74,5.09,25.43,5.09,25.43s-12.95,23.63-15.26,33c-2.12,8.67,2.54,35.6,2.54,35.6s25.43-20.34,55.94-35.6c34.64-17.32,83.91-17.8,83.91-17.8s-6.59-30.58-12.72-38.14c-3-3.75-17.79-12.71-17.79-12.71l5.08-12.71L545,679.6s9.16-6.76,9-10.13-10.13-9-10.13-9,16.48-50.8,19.72-68.26c7.18-38.76,4.52-81.7,4.52-81.7l-10.72-18.49-195.6,12.1s-1,22-3,28.92c-1.56,5.37-3.85,12.77-3.85,12.77s11,25.1,16.64,39.12c4.61,11.45,9,36.38,8.15,48.69-1.91,26.51-27.31,101.27-27.31,101.27s-31.77,117.34-30.5,128.78c.73,6.6,2.54,20.34,2.54,20.34s-13.28,18.28-15.25,25.43c-1.87,6.74,0,28,0,28a55.8,55.8,0,0,1,33.05-10.17c52.12,1.27,61,35.59,61,35.59S411.69,960.22,417.21,961.6Z"/><path class="cls-18" d="M438.82,992.11,285,988.3s-6.16-51,47.83-60.57c52.61-9.35,69.13,35.14,69.13,35.14S413.17,959,421,961.6c15.26,5.09,17.8,12.72,17.8,12.72Z"/><path class="cls-24" d="M515,504.26l24.45,8.06,23.26-11c-.79-12.73-2.06-33.4-23.51-70.39-7.58-13.07-15.49-18.19-15.49-18.19l-34.28-12.25s8.19,16.25,17,42S515,504.26,515,504.26Z"/><path class="cls-17" d="M472.51,475.76s-28.84-12.15-39.05-12c-4.86.1-18.36,6.38-18.36,6.38l-7.62-14,19.73-15.9Z"/><path class="cls-24" d="M317.07,401.56s24.44,29.38,31.28,41.17c21.44,37,23.8,75.15,23.8,75.15l29.51,12.54,23-15.78s1.23-57.55-43.48-83.52c-14.61-8.49-40.82-40.57-40.82-40.57s-11.09-.69-14.31.88C323,392.92,317.07,401.56,317.07,401.56Z"/><path class="cls-25" d="M461.7,990.84v22.89h22.89l10.17-15.26L510,1013.73h66.1l7.63-7.63,5.09,7.63h33l2.54-2.55,2.55,2.55H652.4s3.82-6.36,2.55-12.72-5.09-7.62-5.09-7.62Z"/><path class="cls-25" d="M438.82,993.39v22.88H423.57L415.94,1001l-10.17,15.26H360l-5.09-7.63-5.08,7.63H329.49l-5.09-7.63-5.08,7.63h-17.8l-5.09-7.63-5.08,7.63h-7.63s-6.36-8.9-5.09-15.26c1.77-8.81,7.63-12.71,7.63-12.71Z"/><path class="cls-23" d="M461.7,990.84v22.89h22.89l10.17-15.26L510,1013.73h66.1l7.63-7.63,5.09,7.63h33l2.54-7.63,7.63,7.63H652.4s3.82-6.36,2.55-12.72-5.09-7.62-5.09-7.62Z"/><path class="cls-23" d="M440.09,992.11v25.43l-16.52-1.27L415.94,1001l-10.17,15.26H360l-5.09-7.63-5.08,7.63H329.49l-5.09-7.63-5.08,7.63h-17.8l-5.09-7.63-5.08,7.63h-7.63s-6.36-8.9-5.09-15.26c1.77-8.81,7.63-12.71,7.63-12.71Z"/><path class="cls-9" d="M335.25,398.18l52.26,82.5a2.52,2.52,0,0,0,3.91.47c5.71-5.64,20.25-21.2,19.54-32.72-1.22-19.76-52.74-45-72.54-53.94A2.54,2.54,0,0,0,335.25,398.18Z"/><path class="cls-5" d="M372.25,364.63a47.28,47.28,0,0,0,5.83,4.13c2.05,1.21,4.14,2.34,6.29,3.38,4.28,2.07,8.69,3.87,13.13,5.62l6.68,2.62c2.23.87,4.49,1.83,6.64,2.71a125.13,125.13,0,0,0,13.39,4.47,116.5,116.5,0,0,0,27.66,4.33c9.23.22,18.5-1,26.53-4.61l2.93,7a59.46,59.46,0,0,1-7.38,2.22,64.46,64.46,0,0,1-7.49,1.2,79.88,79.88,0,0,1-14.91.05A121,121,0,0,1,423,391.58a129.76,129.76,0,0,1-13.5-5.42c-2.23-1.05-4.28-2.15-6.43-3.19l-6.45-3.14c-4.31-2.11-8.61-4.26-12.76-6.7-2.08-1.21-4.1-2.52-6.06-3.9A47.9,47.9,0,0,1,372.25,364.63Z"/><path class="cls-26" d="M393.06,468.7A275.38,275.38,0,0,0,368.56,434c-8.78-10.35-33-43.11-33-43.11l4.6-14.47s16.57,16.7,53.83,30c17.14,6.13,43.61,15.55,43.61,15.55L470,473.52l-43.69-33.74Z"/><path class="cls-9" d="M481.44,738.75c-1.25-6.09-11-23.26-22.89-25.14"/><path class="cls-5" d="M481.44,738.75l-3.16-3.42c-.49-.55-1-1.08-1.47-1.62s-1-1.07-1.43-1.61c-1.86-2.14-3.64-4.25-5.37-6.33s-3.42-4.13-5.2-6.14a46.59,46.59,0,0,0-6.26-6,14.15,14.15,0,0,1,2.48-.5,21.73,21.73,0,0,1,2.53.12,22.56,22.56,0,0,1,2.46.6,20.94,20.94,0,0,1,2.32.95,23.75,23.75,0,0,1,7.54,6.12,27.47,27.47,0,0,1,4.7,8.24c.24.76.48,1.52.67,2.3a23.74,23.74,0,0,1,.44,2.38A12.65,12.65,0,0,1,481.44,738.75Z"/><path class="cls-22" d="M438.82,992.11,386.7,988.3S418,985.6,421,978.13c5.09-12.71-19.07-15.26-19.07-15.26S413.17,959,421,961.6c15.26,5.09,17.8,12.72,17.8,12.72Z"/><path class="cls-9" d="M489.26,630.36c13.56-1.3,43.32-6.73,51.6-17.55,11.7-15.31,4.81-76.93,4.81-76.93s-25.79,8.78-61.43,13.38c-30.9,4-76.62,0-76.62,0s1.31,58.23,14,71c12.87,13,49.48,11.93,67.67,10.17"/><path class="cls-5" d="M489.26,630.36c5.52-.78,11-1.92,16.36-3.2a147.58,147.58,0,0,0,15.89-4.74c5.13-1.89,10.22-4.16,14.36-7.35a21.49,21.49,0,0,0,2.76-2.61,10.15,10.15,0,0,0,1.06-1.47l.49-.77.41-.85a34.22,34.22,0,0,0,2.37-7.44,99.75,99.75,0,0,0,1.74-16.19c.26-5.47.21-11,.06-16.49s-.48-11-.91-16.53-.89-11-1.52-16.46l4.43,2.81c-5.7,1.93-11.29,3.53-17,5.07s-11.4,2.88-17.15,4.07-11.53,2.29-17.34,3.22-11.62,1.76-17.56,2.34a328,328,0,0,1-35.29.88q-8.81-.2-17.57-.66c-5.86-.34-11.67-.76-17.55-1.31l3.78-3.55c.24,11.77,1.07,23.66,2.41,35.37a164.13,164.13,0,0,0,2.91,17.36,80.21,80.21,0,0,0,2.36,8.31,28.74,28.74,0,0,0,3.6,7.35,15.6,15.6,0,0,0,2.75,2.76,25.43,25.43,0,0,0,3.41,2.3,43.59,43.59,0,0,0,7.87,3.31,92.1,92.1,0,0,0,17.2,3.54,223.16,223.16,0,0,0,35.66.93,188.7,188.7,0,0,1-35.9,1.82,94.45,94.45,0,0,1-18-2.6,47.63,47.63,0,0,1-8.78-3.23,29.46,29.46,0,0,1-4.14-2.51,20,20,0,0,1-3.71-3.41A33.23,33.23,0,0,1,414,612a77.92,77.92,0,0,1-2.86-8.81,168.53,168.53,0,0,1-3.63-17.85q-1.39-9-2.17-18c-.53-6-.94-12-1.18-18.07l-.15-3.83,3.93.29c5.72.42,11.53.7,17.3.94s11.56.45,17.34.53,11.55,0,17.3-.08,11.5-.47,17.19-.93,11.37-1.25,17.07-2.16,11.37-1.88,17-3,11.28-2.38,16.87-3.75,11.21-2.87,16.58-4.57l4-1.27.39,4.09c1.07,11.24,1.57,22.41,1.54,33.66s-.49,22.55-3.28,33.78a38.37,38.37,0,0,1-3.1,8.28l-.55,1-.67,1a16.24,16.24,0,0,1-1.47,1.84A23.84,23.84,0,0,1,538,618a57,57,0,0,1-15.68,6.92A150.53,150.53,0,0,1,489.26,630.36Z"/><path class="cls-23" d="M440.09,992.11,286.26,988.3s-6.16-51,47.84-60.57c52.6-9.35,69.12,35.14,69.12,35.14s11.22-3.89,19.07-1.27c15.26,5.09,17.8,12.72,17.8,12.72Z"/><path class="cls-27" d="M635.7,297.88c-16-4.26-24.33,15-24.33,15l14.37,4.15S647,300.89,635.7,297.88Z"/><path class="cls-27" d="M658.36,303.91s-4.16-7.17-11.56-6.72-16.08,10.28-19.08,18.87c-2.41,6.88,2.57,25.61,9.2,28.64C653.93,352.46,658.36,303.91,658.36,303.91Z"/><path class="cls-27" d="M681,309.93S667.1,298.78,661.83,300c-8.34,1.88-19.92,18.75-20.6,27.27-1.05,13.06,5.65,27.26,12.93,28.91C668.28,359.37,681,309.93,681,309.93Z"/><path class="cls-28" d="M285.89,671.68c7.64,10.36,14.14,35.05,26.8,46.24,7.22,6.37,20.27,17.9,34.58,17s13.43-15.2,13.43-15.2,19.38,3.59,23.26-11c2.75-10.33-.88-14.32-.88-14.32s9.54-.59,16-13c4.92-9.48-.92-25-4.31-30.86-5.36-9.25-15.2-13.43-15.2-13.43s3-28.14-30.4-23.51c-18.78,2.61-22.67,17.22-22.67,17.22"/><path class="cls-27" d="M710.36,333.72a34,34,0,0,0-22.18-28c-10.38-4-23.47,10.74-28.22,24-2.5,7-1.51,27,5.53,29.37,19,6.25,18.13-13,21-19.88,3.25-7.63,8.73-8.33,12.41-8C701.86,331.52,710.36,333.72,710.36,333.72Z"/><path class="cls-20" d="M219.83,455.47c-5.54,2.24-3.89,14.61-3.89,14.61s-16.86,1.42-18.78,5.95c-8.36,19.67,21.45,48.6,32.46,60.25C239.77,547,269.31,564.06,283.2,559c3-1.1,4.85-7.17,4.85-7.17a17.44,17.44,0,0,0,9.25-5.36c8.95-10.13-12.63-36.94-32.47-60.25C249.34,468,233.85,449.82,219.83,455.47Z"/><path class="cls-21" d="M288.05,551.82l-6.7,7.88s-7.32-2.22-7.91-11.76l-.59-9.55Z"/><path class="cls-21" d="M206.4,470.67s-2.35,6.94,5.66,14c10.13,8.95,24.44,8.06,24.44,8.06s-4.77.3-15.19-13.42c-1.86-2.45-3.95-9-3.95-9Z"/><path class="cls-23" d="M219.83,455.47c-5.54,2.24-3.89,14.61-3.89,14.61s-16.86,1.42-18.78,5.95c-8.36,19.67,17.26,46.82,32.46,60.25,11.08,9.79,39.69,27.78,53.58,22.71,3-1.1,4.85-7.17,4.85-7.17a17.44,17.44,0,0,0,9.25-5.36c8.95-10.13-12.63-36.94-32.47-60.25C249.34,468,233.85,449.82,219.83,455.47Z"/><path class="cls-5" d="M219.58,468.93c.07.46.23,1.11.37,1.68s.32,1.19.51,1.79c.36,1.19.77,2.37,1.24,3.54a42.56,42.56,0,0,0,3.38,6.75,31.16,31.16,0,0,0,4.85,5.87,23.53,23.53,0,0,0,6.57,4.19,24.56,24.56,0,0,1-7.68-2.63,34,34,0,0,1-6.68-5,47.17,47.17,0,0,1-5.45-6.42c-.82-1.15-1.6-2.34-2.32-3.56-.37-.61-.71-1.24-1.06-1.87s-.65-1.24-1-2Z"/><path class="cls-5" d="M286.56,555.33c-.55-.33-.89-.59-1.3-.88s-.76-.59-1.14-.89c-.74-.59-1.44-1.21-2.13-1.85a41.2,41.2,0,0,1-3.78-4.05,33,33,0,0,1-3.1-4.47,30.35,30.35,0,0,1-2.26-4.8,29.68,29.68,0,0,0,3.71,3.57,31,31,0,0,0,4.15,2.82,36,36,0,0,0,4.42,2.15c.75.29,1.51.57,2.26.81.38.12.76.24,1.13.34a6.72,6.72,0,0,0,1,.23Z"/><path class="cls-5" d="M617.3,494.9a7.67,7.67,0,0,1,.6.51c.18.16.33.31.49.47.31.3.61.61.88.92.59.62,1.09,1.27,1.62,1.91a36,36,0,0,1,6.23,12.85c.22.75.33,1.53.49,2.29l.23,1.13c0,.39.08.77.13,1.15l.24,2.29,0,2.28,0,1.14c0,.37,0,.75-.07,1.13l-.17,2.24c-.16,1.49-.46,3-.68,4.42-.09-1.49-.11-3-.27-4.42l-.31-2.16c-.06-.36-.1-.72-.16-1.08l-.25-1.06-.5-2.1-.68-2c-.11-.34-.22-.68-.34-1l-.43-1c-.29-.64-.53-1.3-.87-1.92a30.71,30.71,0,0,0-4.64-6.8,27.94,27.94,0,0,0-2.87-2.79c-.52-.4-1-.83-1.55-1.18-.26-.19-.52-.36-.78-.52l-.37-.22a1.3,1.3,0,0,0-.29-.15Z"/><circle class="cls-29" cx="397.58" cy="503.14" r="14.34"/><path class="cls-20" d="M608.92,474.5s-6,12.67-16.2,19"/><path class="cls-5" d="M612.37,476.14c-.71,1.07-1.35,1.91-2.06,2.81s-1.42,1.74-2.15,2.58a61.23,61.23,0,0,1-4.66,4.73,45.75,45.75,0,0,1-5.15,4.09,36.34,36.34,0,0,1-5.63,3.15,35.11,35.11,0,0,0,4.34-4.55,44.86,44.86,0,0,0,3.5-5.11,58.32,58.32,0,0,0,2.81-5.44c.41-.93.81-1.86,1.17-2.8s.71-1.93.94-2.74Z"/><path class="cls-5" d="M437.51,727.9a53.06,53.06,0,0,1,6.88-2.54A66.79,66.79,0,0,1,451.6,724c1.22-.12,2.45-.13,3.68-.16a33,33,0,0,1,3.72,0,41,41,0,0,1,7.42,1.2,31.12,31.12,0,0,1,13.57,7c.47.45.91.93,1.36,1.4a13.67,13.67,0,0,1,1.28,1.45,22.16,22.16,0,0,1,2.13,3.22,15.38,15.38,0,0,1,2,7.24,29.62,29.62,0,0,0-5-4.88c-.83-.72-1.78-1.31-2.65-1.93s-1.87-1.09-2.75-1.67a50.07,50.07,0,0,0-11.93-4.47,25.1,25.1,0,0,0-3.16-.76c-1.07-.22-2.15-.41-3.22-.66L451.5,730c-2.26-.22-4.54-.6-6.86-.94A55.16,55.16,0,0,1,437.51,727.9Z"/><path class="cls-5" d="M516.36,681.37a45.7,45.7,0,0,0,8.61-.24,40.56,40.56,0,0,0,8.23-1.83,41.84,41.84,0,0,0,7.56-3.31c1.19-.66,2.34-1.38,3.44-2.14.54-.39,1.09-.77,1.6-1.18.26-.2.5-.41.74-.61s.25-.21.35-.31a1.71,1.71,0,0,0,.27-.26,4,4,0,0,1,6.5,4.49,3.89,3.89,0,0,1-1.08,1.06l-.81.53c-.25.16-.42.26-.61.36l-.56.3c-.36.19-.73.38-1.09.54-.72.36-1.44.66-2.17,1-1.45.58-2.91,1.1-4.39,1.54a46.58,46.58,0,0,1-9,1.75,43.47,43.47,0,0,1-9,0A47,47,0,0,1,516.36,681.37Z"/><path class="cls-5" d="M320.74,509.1c1.54-1.66,3.1-3.43,4.6-5.2s3-3.57,4.43-5.41,2.81-3.71,4.07-5.66a33,33,0,0,0,1.74-3,9.87,9.87,0,0,0,1.11-3.28,10.36,10.36,0,0,1-.21,3.59,32.76,32.76,0,0,1-.92,3.5c-.72,2.3-1.58,4.54-2.49,6.76s-1.89,4.41-2.91,6.59-2.05,4.31-3.19,6.5Z"/><path class="cls-5" d="M344.91,696.77A16.73,16.73,0,0,0,348,703a40.32,40.32,0,0,0,4.57,5.2c1.66,1.61,3.39,3.15,5.19,4.6s3.68,2.87,5.49,4.08l-5.05,5.71c-1.7-2-3.15-3.87-4.61-5.88s-2.79-4.06-4-6.18a42.81,42.81,0,0,1-3.24-6.63A17.72,17.72,0,0,1,344.91,696.77Z"/><path class="cls-9" d="M514,442.06l18.32,10.88a1.84,1.84,0,0,0,2.78-1.94c-5.44-19.49-21.23-42.45-21.23-42.45Z"/><path class="cls-5" d="M362.54,678.46a6.93,6.93,0,0,0,1.66,2.79,15.43,15.43,0,0,0,2.46,2.1,37.39,37.39,0,0,0,5.67,3.17c2,.91,4,1.71,6.07,2.44s4.17,1.41,6.17,1.93l-3,7c-2.09-1.26-4-2.53-5.86-3.89s-3.72-2.78-5.48-4.31a38.52,38.52,0,0,1-4.9-5,16.94,16.94,0,0,1-1.93-2.94A7.3,7.3,0,0,1,362.54,678.46Z"/><polygon class="cls-26" points="469.98 473.52 485.93 395.9 508.79 404.07 525.65 444.53 494.06 424.14 469.98 473.52"/><path class="cls-5" d="M364.93,633.27a47.51,47.51,0,0,0,4.19,6.16,29.73,29.73,0,0,0,4.23,4.18c.41.27.8.56,1.19.87a2.78,2.78,0,0,0,.62.44l.65.41c.81.65,1.82,1.1,2.76,1.76s2.06,1.12,3.13,1.86a22.79,22.79,0,0,1,3.49,2.22,16.78,16.78,0,0,1-4.06,1.48,20.16,20.16,0,0,1-4.26.19,16.14,16.14,0,0,1-8.27-3.26,14.29,14.29,0,0,1-4.94-7.72A10.93,10.93,0,0,1,364.93,633.27Z"/><path class="cls-11" d="M370.31,646c14-9.17,8.34-23.19,3.27-27.66"/><path class="cls-8" d="M432.65,566.82s25,17.61,47.7,16.21c29.81-1.85,47.72-22.11,47.72-22.11s-32.27,11.36-43.54,12.27C470.92,574.28,432.65,566.82,432.65,566.82Z"/><path class="cls-5" d="M432.65,566.82c8.25.61,16.29,1.16,24.31,1.5s16,.45,23.9.15c4-.11,7.91-.38,11.85-.74s7.87-.85,11.79-1.45a186,186,0,0,0,23.57-5.36,67.26,67.26,0,0,1-22.22,11.2,87.36,87.36,0,0,1-12.24,2.78c-2.07.37-4.15.55-6.23.8s-4.16.32-6.25.39a115.32,115.32,0,0,1-24.84-1.83A92,92,0,0,1,432.65,566.82Z"/><path class="cls-5" d="M303.49,182.11a43.26,43.26,0,0,0,6,4.82,44.53,44.53,0,0,0,6.6,3.65,34,34,0,0,0,6.94,2.24,29.29,29.29,0,0,0,6.93.55l-.65,7.6a35.8,35.8,0,0,1-8.16-2.75,38.1,38.1,0,0,1-7-4.38,46.42,46.42,0,0,1-5.89-5.47A44.55,44.55,0,0,1,303.49,182.11Z"/><path class="cls-6" d="M198.76,540.58c7.27,9.85,14.3,19.56,21.53,29.1s14.58,18.88,22.16,28,15.47,18,23.63,26.65q3.1,3.2,6.18,6.47l6.4,6.29,3.18,3.21,3.31,3.06c2.22,2.06,4.4,4.18,6.57,6.38q-4.16-1.92-8.23-4.08c-1.36-.71-2.72-1.43-4.06-2.19L275.55,641c-2.55-1.69-5.15-3.35-7.65-5.14s-4.86-3.75-7.26-5.67a189.93,189.93,0,0,1-26-26,218.46,218.46,0,0,1-21-30.13c-1.49-2.68-3-5.34-4.39-8.06s-2.75-5.46-4-8.26l-1.84-4.2q-.89-2.12-1.71-4.26A90.94,90.94,0,0,1,198.76,540.58Z"/><path class="cls-6" d="M638.42,460.73a79.21,79.21,0,0,1-1.95,10.74c-.83,3.41-1.73,6.71-2.7,10s-2,6.5-3.1,9.78a108.33,108.33,0,0,1-3.84,10.16,23.23,23.23,0,0,1-1-2.71c-.14-.46-.27-.92-.39-1.39l-.25-1.39c-.15-.93-.29-1.87-.37-2.81s-.08-1.87-.08-2.81a38.88,38.88,0,0,1,1.71-11A43.1,43.1,0,0,1,631,469.15,29.63,29.63,0,0,1,638.42,460.73Z"/><circle class="cls-29" cx="538.8" cy="485.12" r="14.34"/><polygon class="cls-5" points="326.78 878.53 337.12 891.68 322.02 884.49 326.78 878.53"/><path class="cls-5" d="M412.12,931.09a9.77,9.77,0,0,0,4.14-.1,23.56,23.56,0,0,0,3.92-1.18c1.28-.5,2.53-1,3.76-1.66a39.6,39.6,0,0,0,3.5-1.95l2.42,7.24c-1.65.19-3.1.24-4.63.28s-3,0-4.55-.13a26.35,26.35,0,0,1-4.49-.69A10.88,10.88,0,0,1,412.12,931.09Z"/><polygon class="cls-5" points="474.57 906.78 487.13 924.73 469.18 912.17 474.57 906.78"/><path class="cls-5" d="M554.51,885.32a52.31,52.31,0,0,0,6.81-8.39q1.5-2.23,2.86-4.54c.89-1.52,1.8-3.12,2.54-4.61l6.1,4.58c-1.45,1.37-2.85,2.56-4.31,3.77s-2.94,2.35-4.45,3.46A54.81,54.81,0,0,1,554.51,885.32Z"/></svg>