<svg id="Layer_1" data-name="Layer 1" xmlns="http://www.w3.org/2000/svg" viewBox="0 0 913.78 1007.67"><defs><style>.cls-1,.cls-27{fill:#ce1700;}.cls-14,.cls-2{fill:#fff;}.cls-17,.cls-19,.cls-25,.cls-3,.cls-5{fill:none;}.cls-22,.cls-3{stroke:#000105;}.cls-14,.cls-15,.cls-18,.cls-20,.cls-21,.cls-22,.cls-26,.cls-27,.cls-28,.cls-3,.cls-5{stroke-miterlimit:10;}.cls-3{stroke-width:19.02px;}.cls-4{fill:#999;opacity:0.72;isolation:isolate;}.cls-14,.cls-15,.cls-20,.cls-5{stroke:#201600;}.cls-5{stroke-width:5.59px;}.cls-6{fill:#ecd3b6;}.cls-7{fill:#6d6b6d;}.cls-8{fill:#dbd7d6;}.cls-9{fill:#f4e1cb;}.cls-10{fill:#48443e;}.cls-11,.cls-22{fill:#006a27;}.cls-12{fill:#00501d;}.cls-13{fill:#6b6966;}.cls-14{stroke-width:5.8px;}.cls-15,.cls-16{fill:#201600;}.cls-15{stroke-width:2.9px;}.cls-18,.cls-19,.cls-21,.cls-23,.cls-25,.cls-26,.cls-27,.cls-28{stroke:#000;}.cls-18{stroke-width:1.46px;}.cls-19,.cls-23,.cls-25{stroke-linecap:round;stroke-linejoin:round;}.cls-19{stroke-width:8.7px;}.cls-20,.cls-21,.cls-22,.cls-23,.cls-25{stroke-width:11.6px;}.cls-23{fill:#585551;}.cls-24{fill:#969594;}.cls-26{fill:#3c5eab;}.cls-26,.cls-27,.cls-28{stroke-width:5px;}.cls-28{fill:#fbeb4b;}.cls-29{fill:#ff5343;}.cls-30{fill:#53a1ff;}.cls-31{fill:#fff76c;}</style></defs><title>Evergreen</title><circle class="cls-1" cx="331.98" cy="616.77" r="318.94"/><circle class="cls-1" cx="331.98" cy="616.77" r="299"/><circle class="cls-1" cx="331.98" cy="616.77" r="279.07"/><circle class="cls-2" cx="331.98" cy="616.77" r="259.14"/><circle class="cls-2" cx="331.98" cy="616.77" r="239.2"/><circle class="cls-2" cx="331.98" cy="616.77" r="219.27"/><circle class="cls-1" cx="331.98" cy="616.77" r="199.34"/><circle class="cls-1" cx="331.98" cy="616.77" r="179.4"/><circle class="cls-1" cx="331.98" cy="616.77" r="159.47"/><circle class="cls-2" cx="331.98" cy="616.77" r="139.53"/><circle class="cls-2" cx="331.98" cy="616.77" r="119.6"/><circle class="cls-2" cx="331.98" cy="616.77" r="99.67"/><circle class="cls-1" cx="331.98" cy="616.77" r="79.73"/><circle class="cls-1" cx="331.98" cy="616.77" r="59.8"/><circle class="cls-1" cx="331.98" cy="616.77" r="39.87"/><circle class="cls-2" cx="331.98" cy="616.77" r="19.93"/><circle class="cls-3" cx="331.98" cy="616.77" r="322.47"/><polygon points="810.92 642.66 514.95 981.6 503.36 970.78 804.09 636.61 810.92 642.66"/><polygon class="cls-2" points="523.11 975.31 494.39 1007.67 481.22 993.69 508.36 962.92 523.11 975.31"/><rect class="cls-2" x="799.56" y="633.71" width="34.15" height="9.13" transform="translate(-206.63 820.89) rotate(-48.42)"/><polygon class="cls-4" points="824.44 621.06 488.18 1000.22 480.65 994.22 820.75 620.91 824.44 621.06"/><path class="cls-5" d="M829.82,630.39,503.09,1006.6a8.05,8.05,0,0,1-10.84,1.2l-1.71-1.25a9.29,9.29,0,0,1-2-13,8.89,8.89,0,0,1,.61-.74L820,627.52a6.81,6.81,0,0,1,9.51-.52h0A2.41,2.41,0,0,1,829.82,630.39Z" transform="translate(-3.84 -4.65)"/><path id="path28" class="cls-6" d="M470.36,632.05l-48.95,7-65.71,7L313,647.44l-41.2-1.39-31.48-9.8-28.09-30.79-21.68-62.25-4.9-13.3-29.38-9.79-16.79-27.95L127.64,451.6l13.29-35.68,31.48-11.19,25.88,11.89,11.88,26.58,14.69-2.1,4.9-6.34-4.9-28-1.39-35.67,7-48.92v-28l22.37-35.67,39.18-28,68.54-29.38,75.5,11.25L501.85,260l30.78,48.95,19.58,35.65,4.89,88.14-14.69,75.55-26.64,67.08L489.89,611" transform="translate(-3.84 -4.65)"/><path id="path30" d="M429.09,843.29l-174.16,7h0l230.12-7,7.48,109.35L275.72,975.16,140.93,948.9l-8.39-14.69-11.89-137.8-28-83.18-6.34-19.59,97.23-67.15,30.77-11.89,26.58,32.87,23.07,21,26.58,8.39,11.89,3.51L317.1,744l11.19,13.3,28-9.8-19.59,37.77L443,834.94l-14,8.39" transform="translate(-3.84 -4.65)"/><path id="path32" class="cls-7" d="M140.17,417.32l31.48-11.19L197.53,418l11.88,26.58,14.69-2.09,3.51-14.69-7-28,7-67.15-6.34-36.45L243,270.36l47.54-37.76-13.3-18.2-67,32.9L182.2,269l-16.08,34.28-24.49,32.93-7,39.16,5.54,42" transform="translate(-3.84 -4.65)"/><path id="path34" class="cls-8" d="M189.89,303.31s18.19-45.47,91.63-67.15,3.5-16.08,3.5-16.08l-79,30.77L175.2,281.63l-13.3,24.48,28-2.8" transform="translate(-3.84 -4.65)"/><path id="path36" class="cls-8" d="M173.83,409c1,3.17-20.06-88.51,51.73-97.23L222.06,297,154.91,313.1l-19.59,63.65,4.9,41.2,13.3-9.1" transform="translate(-3.84 -4.65)"/><path id="path38" class="cls-9" d="M192.69,522.24l16.09-15.38s7,.69,8.4,9.09,4.9,85.34,57.35,126.61c4.9,3.5-39.17-6.34-39.17-6.34l-39.18-60.87" transform="translate(-3.84 -4.65)"/><path id="path46" class="cls-9" d="M204.58,444.61s-46.17-28-51.06-1.4-16.09,46.17,7,74.14l-16.09-4.9-14.69-37.76-4.9-36.45,28-29.29L184.33,411l18.19,14.69,2.09,18.89" transform="translate(-3.84 -4.65)"/><path id="path48" class="cls-9" d="M226.26,367.67s21-107,125.89-128c86-16.78,131.54,3.51,149,23.08,0,0-76.94-91.63-149.68-63.65-73.44,28-126.61,79-125.89,111.92,2.09,56.66.69,56.66.69,56.66" transform="translate(-3.84 -4.65)"/><path id="path54" class="cls-10" d="M240.25,648.14,125.55,699.2s47.54,188.86,23.07,247.6l-16.78-6.33-1.41-71.94L99,732.07,85.67,694.3l119.61-80.44,35,34.28" transform="translate(-3.84 -4.65)"/><path id="path56" class="cls-10" d="M253.6,752.35l16.08,19.59v73.44H250.09s-2.15-51.06-2.15-57.35,2.09-28,2.09-28" transform="translate(-3.84 -4.65)"/><path id="path62" d="M452.18,844.76l68.55-3.5s28-70.65,28-74.14S573.18,665,573.18,665l-54.56-57.35-11.19-9.8-29.38,29.39V740.55L452.18,844.76" transform="translate(-3.84 -4.65)"/><path class="cls-10" d="M252.14,853.14l-54.57,7.93,16.09,5.39,39.18,6.34s128.9-2,171.9-2.35c17.3-.14,64.51-4,64.51-4l-6.34-30.78-42.66,8.4Z" transform="translate(-3.84 -4.65)"/><path id="path66" class="cls-10" d="M483.66,622.26,569,685.9l2.09-29.38-64.34-59.46-23.09,25.2" transform="translate(-3.84 -4.65)"/><path id="path72" class="cls-2" d="M498.33,945.41l47.55-13.3,90.33-4.94L649.5,886,625,813.92l-28-3.5L557.87,822.3,520,840.48,500.44,837l-15.39,6.34" transform="translate(-3.84 -4.65)"/><path id="path74" class="cls-8" d="M497.65,920.93s31.47-14.7,36.45-13.3l-13.3-67.15,16.09-6.34s11.19,63.65,11.19,70.65c0,0,68.54,3.5,74.13,3.5,0,0,14.69-28,11.19-57.35l13.3,39.18,1.39,21.68-19.65,29.41-21.68,4.9-36.45-1.4-11.76-16.08L515.89,935l-13.34,4.88" transform="translate(-3.84 -4.65)"/><path id="path76" class="cls-2" d="M454.15,834.89l-28.91-68.54-30.42-40.57s6.84-16.79,16-16.79h30.49l28.91,9.8-2.29,45.46L454.21,834.9" transform="translate(-3.84 -4.65)"/><path id="path78" class="cls-8" d="M455,811.81s-34.29-65.75-34.29-75.54c0,0,6.34-14.69,14.69-11.19S462,738.38,462,738.38V715.29l-41.27-8.4-28,3.5,47.54,111.92L450,823.7" transform="translate(-3.84 -4.65)"/><path id="path80" class="cls-2" d="M305.29,650.25l-33.58-3.59-31.47-9.79v11.19l15.38,16.78,49,21.68" transform="translate(-3.84 -4.65)"/><path id="path82" class="cls-8" d="M250.74,654.43s37.77,16.09,49.67,11.89L301.8,681l-34.27-7-21-14.68,4.2-4.89" transform="translate(-3.84 -4.65)"/><path id="path84" class="cls-11" d="M501.09,714.89c-21-.7-39.18-2.81-56-7.69,1.4-7-.7-13.29.7-18.19,4.9-3.5,11.88-3.5,18.89-4.2-6.34-2.8-14.69-4.2-21-2.09,0-4.9-2.09-7.69-3.51-11.19,11.89-4.2,39.18-31.47,54.57-22.38,7.68,4.2,10.49,28.69,11.19,40.57,0,9.8-1.4,20.29-4.9,25.19" transform="translate(-3.84 -4.65)"/><path id="path88" class="cls-11" d="M400,679.77v5c-6.48,4.33,39.29-18.89,32.09-15.29,10.81.71-3.75,26.1,3.44,29.7,0,4.32-29,6.48-29.75,10.79-12.25,8.65-27.41,22.34-41.82,30.27-6.48,3.59-31,13-38.19,11.52-4.33-.71-4.33-5.77-5.77-10.81-3.6-10.09-11.52-26.66-12.25-41.79-.71-19.46-2.88-51.89,18-48.27,16.58,2.88,36.75,10.81,49.71,18,7.93,4.32,12.25,9.36,24.5,10.8" transform="translate(-3.84 -4.65)"/><path id="path96" class="cls-12" d="M451.93,712.1s-8.4-11.89-2.09-16.09c6.34-3.5,11.88,0,16.08-6.33,3.51-6.34,0-9.8,1.4-16.79s7-8.4,13.29-9.79,23.08-3.5,25.88,2.09l-7-21.69-14.7-4.9-46.16,26.57-2.12,13.35V705.1" transform="translate(-3.84 -4.65)"/><path id="path98" class="cls-12" d="M322.87,754c-1.45-19.46-2.89-38.9-5-59.08-2.89-29.54,7.21-24.5,32.42-24.5,3.6,0,23.77,4.33,25.22,7.21,7.21,13.69-11.53,10.81,7.92,21.62C400,707.9,428.78,693.48,422.3,674c-3.6-4.32-19.47-1.44-24.51-4.32-10.09-5-19.46-10.1-29.54-15.14-12.25-6.48-41.07-15.84-54.75-7.21-33.87,23.06,2.16,80,14.41,104.49" transform="translate(-3.84 -4.65)"/><path id="path108" d="M196.18,473.27c-7.69-4.19-9.1-23.07-18.19-23.77-12.59-.69-10.49,24.49-10.49,39.18C159.1,481,157,456.51,164,444.61c-7-3.51-10.49,4.2-14.69,6.34,5.6-37.07,55.26-17.44,46.86,22.37" transform="translate(-3.84 -4.65)"/><path id="path114" d="M366.15,539c14.69,36.45,72.5,41.2,125.92,29.32-2.09,4.89-25.91,11.94-30.81,13.34-13.29,5.59-50.36,9.79-68.54,0-11.88-6.34-19.58-20.29-25.88-28.69-4.2-3.5-19.58-14-.69-14" transform="translate(-3.84 -4.65)"/><path id="path116" class="cls-13" d="M508.84,738.38c-16.78,28.68-32.87,58.74-53.15,84,8.4-24.49,11.88-65.75,13.29-97.23,17.44-8.4,32.87,1.4,39.88,13.3" transform="translate(-3.84 -4.65)"/><path id="path118" d="M599.76,841.89c-18.89,3.51-32.17,22.38-50.37,21,9.8-14,27.28-20.29,50.37-21" transform="translate(-3.84 -4.65)"/><path id="path120" d="M608.16,871.26c-15.39,1.39-33.58,4.2-49,2.8,7-11.18,35.68-7,49-2.8" transform="translate(-3.84 -4.65)"/><path id="path122" d="M613.05,897.14a480.71,480.71,0,0,1-55.26-1.4c9.8-10.49,44.08-4.2,55.26,1.4" transform="translate(-3.84 -4.65)"/><path id="path126" class="cls-6" d="M448.68,646.66c-8.4,5.6-16.08,12.59-24.48,18.9-18.2.69-28.69-1.4-42-11.89,0-.7,1.4-.7,1.4-1.4,19.58,8.4,44.77-4.19,65-5.59" transform="translate(-3.84 -4.65)"/><path id="path128" class="cls-13" d="M336.78,785.24c5.6-23.77,37.18-40.62,56.77-53.89,20.28,25.19,36.26,64,49.55,95.49-31.47-9.8-72.74-28.2-100.72-43.58Z" transform="translate(-3.84 -4.65)"/><path id="path130" d="M517.35,847.93c-6.34-1.39-13.3,0-18.89,0,2.8,27.27,9.1,57.35,11.89,86,9.09,0,14-4.2,21.67-5.6,0-25.18-2.8-59.46-14.69-80.44Zm97.92,89.52c18.89-4.89,30.78-28,25.88-51.75-3.5-16.09-9.79-46.17-16.78-56.66-4.9-7.69-18.89-17.43-29.38-10.49-17.43,11.19-49,14.69-61.55,28.68,6.33,21.68,8.39,51.06,11.18,78.34,22.38,1.39,49.67-6.34,67.85,2.09-12.59,4.2-29.38,4.2-40.57,10.49,8.4,3.5,29.38,2.81,43.36-.7Zm-177-115.4c-13.3-31.47-25.18-64.34-45.47-89.52-19.59,13.29-40.57,25.18-46.16,49C374.59,796.87,406.76,812.26,438.24,822.05Zm32.87-97.22c-1.4,31.47-4.9,72.74-13.3,97.22,20.28-25.18,36.45-55.26,53.15-84-7-11.84-22.36-21.67-39.84-13.23ZM434,711.53c-7.69-.7-14,8.4-23.77,4.9-2.1,2.8-4.2,4.89-6.34,7.68,21.68,25.88,31.47,63.65,48.25,94.42,9.1-29.38,7.69-62.25,9.8-94.42-12.55,0-19.54-11.88-27.94-12.58Zm-23.77-32.17c-.7,9.1,1.39,11.88,2.8,22.38,29.37,9.09,24.47-40.57-2.8-22.38Zm-32.89-10.51c-12.58-7-32.17-14.69-48.25-17.43-20.29-4.2-18.2,28-17.44,46.86.7,14.69,8.4,30.78,11.89,40.57,1.39,4.9,2.09,9.79,5.59,10.49,7,1.4,30.11-7.68,37.07-11.19,14-7.68,24.49-19.58,36.45-28a68.43,68.43,0,0,1,.7-11.88A56.46,56.46,0,0,0,377.51,692c7-3.5,17.43-3.5,23.77-7.69v-4.9C389.28,678,385.08,673.07,377.38,668.85ZM255.67,646.47c-10.49,10.5,29.38,25.19,42.66,25.88,0-7,4.2-13.29,2.81-18.19-15.37-2.08-35,0-45.45-7.67Zm130.14,4.95c0,.7-1.39.7-1.39,1.39,13.3,10.49,23.77,12.59,42,11.89,8.4-6.34,15.39-13.3,24.49-18.89C430.55,647.89,405.37,660.47,385.81,651.42Zm119.61,36.45c-.7-11.89-3.51-36.45-11.19-40.57-15.39-9.1-42.66,18.19-54.57,22.38,1.4,3.5,3.51,6.33,3.51,11.18,7-1.39,15.38-.69,21,2.1-7,.69-14.69.69-18.89,4.2-1.4,4.89.7,11.18-.7,18.19,16.09,4.9,35,7,56,7.69,3.47-5,4.86-15.5,4.86-25.28Zm-49,265c12.58-2.09,21.68-3.5,33.58-5.59-4.2-32.17-3.5-68.54-11.19-96.53-9.79,0-87.05,5.32-87.05,5.32-84.69,2.81-173.15,5.17-185,3.78,0-14,18.2-6.34,19.59-16.09,1.4-7-9.79-7.68-6.34-18.89,9.1,3.5,14,10.49,23.77,13.3,9.1-19.59,0-54.57,1.4-71.32,0-2.8,1.39-16.78,8.4-14.69,6.34,2.09-.7,37.07,0,53.15.7,14.7-1.4,28,4.2,37.07C306,836,355.67,831.16,408.13,829.77c-11.89-4.9-25.18-9.79-40.57-18.19-8.4-4.9-33.58-14-36.45-21.68-3.5-12.59,9.79-18.89,11.88-29.39-24.48,13.3-29.38-12.58-35-31.47a224.08,224.08,0,0,1-9.8-39.17c-19.58-9.8-42-19.59-60.22-32.87h0c-3.5-2.09-25.88-31.48-28.68-30.11C168.75,643,131,670.25,96.7,696.84c32.17,69.24,45.47,154.58,47.55,236.41,37.06,17.44,72,30.4,122.4,33.19Zm27.28-322.45c33.64-16.09,39.87,61.55,26.57,86,2.09,7.69,9.1,10.5,11.89,16.79-18.89,33.58-39.88,65-58.75,98.62,14-9.1,35-1.4,51.76-8.4,6.34-2.09,10.49-16.78,15.39-28,12.58-30.78,26.57-69.95,32.17-100,1.39-7,4.89-21.68,4.2-27.27-1.4-10.49-16.09-18.89-23.77-25.18-14-12.59-22.38-23.08-36.45-34.28-6.34,9.09-18.2,14.69-23.08,21.68ZM160.55,330.33c-16.08,17.43-12.58,51.06-10.49,74.85,29.38-18.2,67.85,1.39,67.15,32.87,14-.7,4.9-17.44,2.8-28-8.39-35.67,14-74.84.7-107a83.83,83.83,0,0,0-60.22,27.28ZM276,227.51C239.51,238,192.73,264.58,178,297.46c11.89-1.39,19.59-7.69,30.78-8.4,4.2,0,9.79,2.09,14.69.7,9.8-2.81,18.19-24.49,25.88-32.87,7-8.4,16.09-11.19,22.38-18.89,4.2-2.09,9.79-1.39,9.79-7.69-2.09-2-3.5-3.5-5.58-2.8Zm189.55,9.79c-37.76-21.68-102.12-37.76-142-17.43-32.17,16.09-76.25,42.66-91.64,76.94,14,32.87-4.19,62.95-5.59,95.83-.7,17.43,8.4,32.87,9.1,52.46-4.9,7.68-19.59,9.09-29.38,8.4-3.51-16.79-9.1-36.45-27.28-38.47-25.16-2.91-43.31,18.12-44.06,39.1-1.39,25.18,19.59,67.15,49,64.34,11.19-1.39,14-12.58,26.58-12.58,7,13.3-10.5,17.43-11.89,27.27-.7,2.81,1.39,11.89,2.8,16.79,5.6,22.37,17.44,50.36,28.69,67.14,14.69,21,44.07,24.49,75.54,26.58,5.6-11.89,26.58-11.19,39.88-7.69-16.09-6.34-31.48-21.68-43.36-35.67-14-16.09-28.69-32.87-29.38-53.15,27.27,37.76,49.66,70,98.62,86.73,37.06,12.58,80.44-5.59,109.11-25.88,11.88-8.4,18.89-21.68,27.27-33.58C539,529,553.66,464.62,550.15,401.69c-1.39-25.88-1.39-51.76-9.79-69.24-2-35.42-53.15-83.23-74.85-95.08Zm70.65,583.34c29.38-14.69,84.63-39.87,103.52,0,7,14.69,14.69,39.18,18.19,54.56,4.9,21-5.59,65.76-27.27,73.44-19.59,6.34-42,5.6-65,1.4-2.8-2.09-5.59-6.34-7.68-10.49-16.79-.7-32.17.69-45.47,7.68,1.39,12.59-163.23,31.08-205.55,33.69-40.71,2.51-117.6-1.58-148.38-15.49-10.57-4.9-25.26-7.69-29.46-16.07s-2.09-23.78-3.5-38.47c-2.09-37.76-4.2-74.84-14.69-113.31-4.2-17.43-12.59-32.87-17.43-49.66-4.9-15.39-14-35-16.09-50.37-3.5-23.07,18.19-24.48,32.17-34.28,21.68-15.38,38.46-23.77,61.55-37.76,7-4.2,27.28-14.69,30.11-19.59,4.9-9.79-8.4-23.07-11.18-30.78-5.6-11.88-8.4-21.68-9.1-33.58-19.65-2.79-34.41-14.69-43.44-28-14.69-21.68-25.18-61.55-11.89-92.32.7-2.1,6.34-7,7-10.5,1.4-7-2.8-16.78-2.8-24.48-1.4-39.87,7-73.44,33.58-85.34,10.49-43.36,49.67-57.35,86-79,13.29-7.69,28.68-13.3,44.07-18.89,55.89-20.23,141.28-16.74,187.43,18.24,19.59,14.69,51.06,46.16,62.25,68.54,29.38,59.46,27.27,159.47,7,232.21-2.81,9.8-7,23.78-12.58,35.68-4.2,8.4-16.09,24.48-14.7,31.47,1.4,7.69,28,27.28,33.59,32.87,10.49,9.79,29.38,23.07,30.77,35,1.4,13.29-5.59,31.47-9.79,44.07-14.69,43.36-26.58,81.84-41.21,119.6" transform="translate(-3.84 -4.65)"/><path id="path132" class="cls-9" d="M336.78,527.81c1.4-2.1,10.49-5.6,23.08.69,0,0-14.7,2.1-13.3,26.58l-6.34-1.39c0,.69-6.34-21.68-3.5-25.88" transform="translate(-3.84 -4.65)"/><path id="path134" d="M443.78,737.66a7,7,0,1,1-7-7c4.2.7,7,3.51,7,7" transform="translate(-3.84 -4.65)"/><path id="path136" d="M450.08,769.15a7,7,0,1,1-7-7,6.62,6.62,0,0,1,7,6.21q0,.39,0,.78" transform="translate(-3.84 -4.65)"/><path class="cls-14" d="M374.21,437.78c-1.93,22.18-13.67,38.81-35.91,38.81s-35.91-20.92-35.91-43.16,13.69-44.62,35.88-44.62S376.94,406.37,374.21,437.78Z" transform="translate(-3.84 -4.65)"/><path class="cls-15" d="M362.55,433.4c0,15.85-8.45,31.51-24.25,31.51s-25.69-15.71-25.69-31.51S322.52,399,338.3,399,362.55,417.6,362.55,433.4Z" transform="translate(-3.84 -4.65)"/><ellipse class="cls-2" cx="322.19" cy="417.1" rx="14.5" ry="10.25" transform="translate(-203.97 482.93) rotate(-60)"/><path class="cls-14" d="M539,416.25v.43a76.76,76.76,0,0,1-8.13,37.8c-4.76,9.51-14.46,26.67-27.29,18.59-9.51-6-12.21-19.72-13-30.11a64.56,64.56,0,0,1,8.29-36.83A35,35,0,0,1,509,394.42a18.64,18.64,0,0,1,14.79-3.17,18.88,18.88,0,0,1,11.72,10A37.27,37.27,0,0,1,539,416.25Z" transform="translate(-3.84 -4.65)"/><path class="cls-15" d="M526.86,430.82a52.23,52.23,0,0,1-8.26,26.07A17.5,17.5,0,0,1,510,464a10.65,10.65,0,0,1-10.6-1.92c-3.76-3.56-4.2-10-4.75-14.84a85.25,85.25,0,0,1,0-19.16,34.93,34.93,0,0,1,4.75-15.28c3-4.5,7.92-7.93,13.26-8.1,10.13-.21,13.13,10.54,13.92,18.68A51.78,51.78,0,0,1,526.86,430.82Z" transform="translate(-3.84 -4.65)"/><path class="cls-2" d="M510,418.24c-3,5.3-7.55,7.49-10.19,4.89s-2.38-9,.61-14.26,7.55-7.5,10.19-4.9S513,412.94,510,418.24Z" transform="translate(-3.84 -4.65)"/><path class="cls-2" d="M294.45,476.54s30.52-.1,40.7.74c12.23,1,12.19,1.18,40.7,6" transform="translate(-3.84 -4.65)"/><path class="cls-16" d="M294.45,476.54a167.67,167.67,0,0,1,20.49-2.17,172.66,172.66,0,0,1,20.6,0c3.41.28,6.85.62,10.29,1.17s6.8,1.25,10.14,2a186.36,186.36,0,0,1,19.81,5.65,189.07,189.07,0,0,1-20.6-1.15L345.09,481c-3.33-.33-6.68-.57-10.07-.84-6.59-.49-13.47-.74-20.24-1.28S301.27,477.74,294.45,476.54Z" transform="translate(-3.84 -4.65)"/><line class="cls-17" x1="536.8" y1="456.36" x2="498.5" y2="477.1"/><path class="cls-16" d="M540.79,461.25c-3,2.14-6,4.13-9,6.21s-6.09,4-9.16,5.94-5.92,4.34-9.31,5.69a41.13,41.13,0,0,1-5.2,1.84,26.79,26.79,0,0,1-5.62,1.05.32.32,0,0,1-.33-.31.25.25,0,0,1,.06-.2,27.22,27.22,0,0,1,4-4.14,39.54,39.54,0,0,1,4.38-3.34c3-2.11,6.54-3.17,9.85-4.68s6.64-3,10-4.42,6.72-2.84,10.13-4.17a.29.29,0,1,1,.27.51Z" transform="translate(-3.84 -4.65)"/><path class="cls-18" d="M284.93,400.76c-2.92-10-2.14-20.07,8.7-31.05s26.54-15.17,41.53-17.13c-11.09-9.83-28.43-17-43.45-16.94,44.72-11.1,118.86,26.67,139.46,71.71-8-5.93-18.19-11.57-27.88-13.27,7.42,16.87,12.59,33.28,5.23,51.6a80.18,80.18,0,0,0-23.58-52.06c-15.85-15.51-40.41-25.21-62.91-21.33C297.86,376.46,288.35,392.31,284.93,400.76Z" transform="translate(-3.84 -4.65)"/><path class="cls-15" d="M478,411.6c7-20.4,33.74-53.4,58.73-50.21,33.59,4.28,24.69,50.38,14.5,70.08-1.13-16.4,2.5-46.53-18.15-52.93C515.26,373,491.34,400.87,478,411.6Z" transform="translate(-3.84 -4.65)"/><path class="cls-19" d="M442.87,489.47c40.2-13.88,40.52-4.64,18.76,29" transform="translate(-3.84 -4.65)"/><path class="cls-20" d="M522.18,218.89c15.57-11.52,38.34-28.75,58.56-29.51,28.21-1.08,27.35,15,25.09,38-5.18,52.21-48.81,68.47-93.63,82Z" transform="translate(-3.84 -4.65)"/><path class="cls-21" d="M531.93,262.74c-7.51-39.91-16.1-79.53-23-119.46-4.18-24.2-5.67-48.43-9.12-72.71-2.87-20.13-10.88-41.32-28.37-51.68-10.14-6-22.19-7.62-34-8.16-47.94-2.17-98.25,8.76-144.73,19.9C245.45,42,136.21,86.45,123.53,97.54c-3.17,2.79,49,58,38,91.92-15.85,49.13,1,74.09,11.09,84,13.87,13.65,17.12,5.09,35.61,9.51,59,14.26,107.29,20.35,168,22.85,39.95,1.59,81.8,7.18,121.72,5,6.34-.33,15.85,2.6,20.07-.87C526,303.59,529,272.77,531.93,262.74Z" transform="translate(-3.84 -4.65)"/><path class="cls-22" d="M513.39,168.86S412,222.74,156.81,211.64c-7.92,25.36-23.28,73.67-7.16,94.66,11.4,14.84,0,7.93,16.39,11.76,13.82,3.28,34.86-2.36,49.35-3.72,48.16-4.57,96.75-18.72,143.53-31,47.54-12.5,92.77-15.84,141.52-21.44,31.52-3.61,29.76-5.37,26.31-38.81C526.07,216.4,513.39,168.86,513.39,168.86Z" transform="translate(-3.84 -4.65)"/><path class="cls-12" d="M520.14,220.11s-56.67,89-363.82,27.49c7.7,6.55,2.76,60.22,15.11,65.3,8.71,3.53-.91,2.56,13.66,2,12.28-.53,32.2-4.76,45.61-6.9,44.59-7,164.62-5.18,238.43-24.53,28.68-7.53,57.24-24.61,55.46-34.71C523.39,241.69,520.14,220.11,520.14,220.11Z" transform="translate(-3.84 -4.65)"/><path class="cls-23" d="M548.32,203.2c46.19-36.1,90,3.47,71.58,55.47-21,59.38-109.95,71.2-162.49,72.89-123.51,4-299.2-60.06-328.41,112.52-80.22-45.83-119.09-147.6-24.53-200.6,66.92-37.51,141.14,7.93,206,26.41,61.68,17.57,155.31,44.91,218.37,20.22C572.07,273.29,626.62,169.65,548.32,203.2Z" transform="translate(-3.84 -4.65)"/><path class="cls-24" d="M584.24,193.42c8.54,3.62,12.17,8.18,12.22,21.52.09,24.27-22.24,61.2-52.61,79.56C506.58,317,463,316.37,420,309.63c-54.25-8.49-106.88-25.16-158.57-43.69-23.94-8.57-47.93-17.62-73.09-21.32C144,238.11,87.1,254.56,67.56,299c-22.09,50.27,21.68,102.61,55.89,134.51C53.61,384,13.06,301.82,107.62,248.89c66.93-37.51,142.63,9.36,207.48,27.86,61.68,17.57,157,41.3,218.37,12.42C562.56,275.4,600.55,228.63,584.24,193.42Z" transform="translate(-3.84 -4.65)"/><path id="path110" d="M530.39,511.75c-11.61,21.78-27.59,45.74-61.71,46.47-.73-7.26-1.46-18.15,0-21.78,26.13-2.9,42.11-16,61.71-24.69" transform="translate(-3.84 -4.65)"/><path id="path112" d="M368.48,525.54c21.77,11.62,61,12.35,90.76,11.62,1.45,6.53,1.45,14.51,1.45,22.5-37.75,1.46-82-7.26-92.2-34.12" transform="translate(-3.84 -4.65)"/><path class="cls-25" d="M547.66,202.37c46.2-36.1,90,3.47,71.58,55.47-21,59.38-109.95,71.2-162.48,72.9-123.52,4-299.21-60.07-328.41,112.51-80.23-45.83-119.1-147.6-24.54-200.6,66.93-37.51,141.14,7.93,206,26.41C371.51,286.63,465.14,314,528.2,289.28,571.42,272.46,626,168.82,547.66,202.37Z" transform="translate(-3.84 -4.65)"/><circle class="cls-26" cx="851.21" cy="326.93" r="18.57"/><circle class="cls-27" cx="804.51" cy="329.54" r="18.57" transform="translate(346.52 1066.22) rotate(-80.78)"/><circle class="cls-26" cx="687.31" cy="426.12" r="18.57"/><circle class="cls-26" cx="703.06" cy="352.87" r="18.57"/><circle class="cls-27" cx="736.78" cy="433.03" r="18.57"/><circle class="cls-27" cx="733.88" cy="606.77" r="18.57"/><circle class="cls-26" cx="775.14" cy="547.42" r="18.57"/><circle class="cls-28" cx="749.29" cy="334.3" r="18.57"/><circle class="cls-27" cx="664.28" cy="517.45" r="18.57"/><circle class="cls-26" cx="629.31" cy="480.4" r="18.57"/><circle class="cls-28" cx="630.41" cy="428.82" r="18.57"/><circle class="cls-27" cx="661.02" cy="383.59" r="18.57"/><circle class="cls-27" cx="831" cy="551.35" r="18.57"/><circle class="cls-28" cx="715.31" cy="537.17" r="18.57"/><circle class="cls-28" cx="752.46" cy="502.59" r="18.57"/><circle class="cls-28" cx="786.44" cy="610.84" r="18.57"/><circle class="cls-27" cx="808.85" cy="488.66" r="18.57" transform="translate(193.09 1204.15) rotate(-80.78)"/><circle class="cls-26" cx="859.87" cy="482.95" r="18.57"/><circle class="cls-26" cx="640.78" cy="279.93" r="18.57"/><circle class="cls-28" cx="610.84" cy="372.24" r="18.57"/><circle class="cls-26" cx="833.5" cy="418.13" r="18.57"/><circle class="cls-28" cx="786.44" cy="430.88" r="18.57"/><circle class="cls-27" cx="882.06" cy="398.94" r="18.57"/><circle class="cls-27" cx="608.67" cy="321.46" r="18.57"/><circle class="cls-28" cx="882.96" cy="531.51" r="18.57" transform="translate(155.79 1260.96) rotate(-76.47)"/><circle class="cls-26" cx="690.62" cy="578.62" r="18.57"/><circle class="cls-27" cx="738.23" cy="215.11" r="18.57"/><path class="cls-29" d="M739.22,207.68a10.28,10.28,0,0,1,7.22-.88,11.68,11.68,0,0,1,6.55,4.13,11.88,11.88,0,0,1,2.55,7.26,12.07,12.07,0,0,1-2.06,6.93c-.57-2.38-1-4.47-1.58-6.34a16.24,16.24,0,0,0-2.59-4.9,15.3,15.3,0,0,0-4.13-3.6A30.33,30.33,0,0,0,739.22,207.68Z" transform="translate(-3.84 -4.65)"/><path class="cls-30" d="M704.35,345.56a10.31,10.31,0,0,1,7.23-.89,11.72,11.72,0,0,1,6.54,4.14,11.89,11.89,0,0,1,2.56,7.26,12.09,12.09,0,0,1-2.06,6.92c-.57-2.38-1-4.47-1.59-6.34a16.33,16.33,0,0,0-2.58-4.9,15.15,15.15,0,0,0-4.14-3.59A28.71,28.71,0,0,0,704.35,345.56Z" transform="translate(-3.84 -4.65)"/><path class="cls-29" d="M801,317a10.36,10.36,0,0,1,7.23-.89,11.74,11.74,0,0,1,6.55,4.14,12.09,12.09,0,0,1,.49,14.18c-.57-2.37-1-4.46-1.59-6.33a16,16,0,0,0-2.58-4.9,15.19,15.19,0,0,0-4.14-3.6A29.25,29.25,0,0,0,801,317Z" transform="translate(-3.84 -4.65)"/><path class="cls-30" d="M688.51,418.46a10.23,10.23,0,0,1,7.22-.89,11.74,11.74,0,0,1,6.55,4.14,12.09,12.09,0,0,1,.49,14.18c-.57-2.38-1-4.47-1.59-6.34a16.11,16.11,0,0,0-2.58-4.9,15.15,15.15,0,0,0-4.14-3.59A28.87,28.87,0,0,0,688.51,418.46Z" transform="translate(-3.84 -4.65)"/><path class="cls-31" d="M786.76,423.21a10.31,10.31,0,0,1,7.23-.89,11.72,11.72,0,0,1,6.54,4.14,11.88,11.88,0,0,1,2.55,7.26,12,12,0,0,1-2.06,6.92c-.57-2.37-1-4.46-1.58-6.33a16.21,16.21,0,0,0-2.58-4.9,15.19,15.19,0,0,0-4.14-3.6A29.25,29.25,0,0,0,786.76,423.21Z" transform="translate(-3.84 -4.65)"/><path class="cls-29" d="M805.78,477.09a10.28,10.28,0,0,1,7.22-.88,11.68,11.68,0,0,1,6.55,4.13,11.9,11.9,0,0,1,2.55,7.26,12,12,0,0,1-2.06,6.93c-.57-2.38-1-4.47-1.58-6.34a16.24,16.24,0,0,0-2.59-4.9,15.3,15.3,0,0,0-4.13-3.6A30.33,30.33,0,0,0,805.78,477.09Z" transform="translate(-3.84 -4.65)"/><path class="cls-31" d="M880.26,519.88a10.3,10.3,0,0,1,7.23-.88,11.65,11.65,0,0,1,6.54,4.13,12,12,0,0,1,2.56,7.26,12.22,12.22,0,0,1-2.06,6.93c-.57-2.38-1-4.47-1.59-6.34a16.21,16.21,0,0,0-2.58-4.9,15.19,15.19,0,0,0-4.14-3.6A29.82,29.82,0,0,0,880.26,519.88Z" transform="translate(-3.84 -4.65)"/><path class="cls-30" d="M775.67,538.9a10.28,10.28,0,0,1,7.22-.89,11.74,11.74,0,0,1,6.55,4.14,11.88,11.88,0,0,1,2.55,7.26,12,12,0,0,1-2.06,6.92c-.57-2.37-1-4.47-1.58-6.34a16.19,16.19,0,0,0-2.59-4.89,15.3,15.3,0,0,0-4.13-3.6A29.18,29.18,0,0,0,775.67,538.9Z" transform="translate(-3.84 -4.65)"/><path class="cls-31" d="M717,529.39a10.31,10.31,0,0,1,7.23-.89,11.72,11.72,0,0,1,6.54,4.14,11.88,11.88,0,0,1,2.55,7.26,12,12,0,0,1-2.06,6.92c-.57-2.37-1-4.46-1.58-6.33a16.21,16.21,0,0,0-2.58-4.9A15.19,15.19,0,0,0,723,532,29.25,29.25,0,0,0,717,529.39Z" transform="translate(-3.84 -4.65)"/><path class="cls-29" d="M734.46,599.12a10.31,10.31,0,0,1,7.23-.89,11.74,11.74,0,0,1,6.55,4.14,11.94,11.94,0,0,1,2.55,7.26,12.09,12.09,0,0,1-2.06,6.92c-.57-2.37-1-4.46-1.59-6.33a16.21,16.21,0,0,0-2.58-4.9,15.19,15.19,0,0,0-4.14-3.6A29.25,29.25,0,0,0,734.46,599.12Z" transform="translate(-3.84 -4.65)"/><circle class="cls-28" cx="687.43" cy="244.71" r="18.57"/><path class="cls-31" d="M688.51,237.79a10.28,10.28,0,0,1,7.22-.88,11.68,11.68,0,0,1,6.55,4.13,12.1,12.1,0,0,1,.49,14.19c-.57-2.38-1-4.47-1.59-6.34a16,16,0,0,0-2.58-4.9,15.19,15.19,0,0,0-4.14-3.6A30,30,0,0,0,688.51,237.79Z" transform="translate(-3.84 -4.65)"/><path class="cls-31" d="M750.31,326.54a10.31,10.31,0,0,1,7.23-.89,11.72,11.72,0,0,1,6.54,4.14,11.88,11.88,0,0,1,2.55,7.26,12,12,0,0,1-2.06,6.92c-.57-2.37-1-4.47-1.58-6.34a16.28,16.28,0,0,0-2.58-4.89,15.19,15.19,0,0,0-4.14-3.6A29.25,29.25,0,0,0,750.31,326.54Z" transform="translate(-3.84 -4.65)"/><path class="cls-29" d="M609.27,313.86a10.28,10.28,0,0,1,7.22-.88,11.68,11.68,0,0,1,6.55,4.13,11.88,11.88,0,0,1,2.55,7.26,12.07,12.07,0,0,1-2.06,6.93c-.57-2.38-1-4.47-1.59-6.34a16,16,0,0,0-2.58-4.9,15.3,15.3,0,0,0-4.13-3.6A30.33,30.33,0,0,0,609.27,313.86Z" transform="translate(-3.84 -4.65)"/><path class="cls-29" d="M661.56,375.67a10.31,10.31,0,0,1,7.23-.89,11.74,11.74,0,0,1,6.55,4.14,12.09,12.09,0,0,1,.49,14.18c-.57-2.38-1-4.47-1.59-6.34a15.94,15.94,0,0,0-2.58-4.89,15.19,15.19,0,0,0-4.14-3.6A28.71,28.71,0,0,0,661.56,375.67Z" transform="translate(-3.84 -4.65)"/><path class="cls-30" d="M853.32,320.2a10.31,10.31,0,0,1,7.23-.89,11.72,11.72,0,0,1,6.54,4.14,11.88,11.88,0,0,1,2.55,7.26,12,12,0,0,1-2.06,6.92c-.57-2.37-1-4.46-1.58-6.33a16.21,16.21,0,0,0-2.58-4.9,15.19,15.19,0,0,0-4.14-3.6A29.25,29.25,0,0,0,853.32,320.2Z" transform="translate(-3.84 -4.65)"/><path class="cls-29" d="M883.43,391.52a10.25,10.25,0,0,1,7.23-.89,11.67,11.67,0,0,1,6.54,4.14,11.94,11.94,0,0,1,2.56,7.25A12.17,12.17,0,0,1,897.7,409c-.58-2.38-1-4.47-1.59-6.34a16.21,16.21,0,0,0-2.58-4.9,15,15,0,0,0-4.14-3.59A28.71,28.71,0,0,0,883.43,391.52Z" transform="translate(-3.84 -4.65)"/><path class="cls-31" d="M753.48,494.53a10.25,10.25,0,0,1,7.23-.89,11.7,11.7,0,0,1,6.54,4.14A11.87,11.87,0,0,1,769.8,505a12,12,0,0,1-2.06,6.93c-.57-2.38-1-4.47-1.58-6.34a16.21,16.21,0,0,0-2.58-4.9,15.13,15.13,0,0,0-4.14-3.59A28.71,28.71,0,0,0,753.48,494.53Z" transform="translate(-3.84 -4.65)"/><path class="cls-29" d="M832.72,543.65a10.3,10.3,0,0,1,7.23-.88,11.68,11.68,0,0,1,6.54,4.13,11.9,11.9,0,0,1,2.55,7.26,12,12,0,0,1-2.06,6.93c-.57-2.38-1-4.47-1.58-6.34a16.24,16.24,0,0,0-2.59-4.9,15.3,15.3,0,0,0-4.13-3.6A30.07,30.07,0,0,0,832.72,543.65Z" transform="translate(-3.84 -4.65)"/><path class="cls-30" d="M691.67,570.6a10.25,10.25,0,0,1,7.23-.89,11.73,11.73,0,0,1,6.55,4.13,12.1,12.1,0,0,1,.49,14.19c-.57-2.38-1-4.47-1.59-6.34a16,16,0,0,0-2.58-4.9,15.19,15.19,0,0,0-4.14-3.6A29.22,29.22,0,0,0,691.67,570.6Z" transform="translate(-3.84 -4.65)"/><path class="cls-31" d="M610.85,364.58a10.25,10.25,0,0,1,7.23-.89,11.65,11.65,0,0,1,6.54,4.13,11.9,11.9,0,0,1,2.55,7.26,12,12,0,0,1-2.06,6.93c-.57-2.38-1-4.47-1.58-6.34a16.21,16.21,0,0,0-2.58-4.9,15.19,15.19,0,0,0-4.14-3.6A29.22,29.22,0,0,0,610.85,364.58Z" transform="translate(-3.84 -4.65)"/><path class="cls-31" d="M631.45,421.63a10.25,10.25,0,0,1,7.23-.89,11.74,11.74,0,0,1,6.55,4.14,11.93,11.93,0,0,1,2.55,7.25,12.1,12.1,0,0,1-2.06,6.93c-.57-2.38-1-4.47-1.59-6.34a16.33,16.33,0,0,0-2.58-4.9,15.15,15.15,0,0,0-4.14-3.59A28.71,28.71,0,0,0,631.45,421.63Z" transform="translate(-3.84 -4.65)"/><path class="cls-29" d="M737.63,424.8a10.25,10.25,0,0,1,7.23-.89,11.63,11.63,0,0,1,6.54,4.14A11.88,11.88,0,0,1,754,435.3a12.1,12.1,0,0,1-2.06,6.93c-.57-2.38-1-4.47-1.59-6.34a16.21,16.21,0,0,0-2.58-4.9,15,15,0,0,0-4.14-3.59A28.71,28.71,0,0,0,737.63,424.8Z" transform="translate(-3.84 -4.65)"/><path class="cls-29" d="M664.73,510.37a10.3,10.3,0,0,1,7.23-.88,11.68,11.68,0,0,1,6.55,4.13,12,12,0,0,1,2.55,7.26,12.12,12.12,0,0,1-2.06,6.93c-.57-2.38-1-4.47-1.59-6.34a16.21,16.21,0,0,0-2.58-4.9,15.19,15.19,0,0,0-4.14-3.6A29.82,29.82,0,0,0,664.73,510.37Z" transform="translate(-3.84 -4.65)"/><path class="cls-30" d="M834.3,410.53a10.3,10.3,0,0,1,7.23-.88,11.68,11.68,0,0,1,6.55,4.13,12.1,12.1,0,0,1,.49,14.19c-.57-2.38-1-4.47-1.59-6.34a16,16,0,0,0-2.58-4.9,15.19,15.19,0,0,0-4.14-3.6A29.82,29.82,0,0,0,834.3,410.53Z" transform="translate(-3.84 -4.65)"/><circle class="cls-28" cx="892.71" cy="353.41" r="18.57"/><path class="cls-31" d="M892.94,345.56a10.31,10.31,0,0,1,7.23-.89,11.75,11.75,0,0,1,6.54,4.14,11.88,11.88,0,0,1,2.55,7.26A12,12,0,0,1,907.2,363c-.57-2.38-1-4.47-1.58-6.34a16.33,16.33,0,0,0-2.58-4.9,15.3,15.3,0,0,0-4.14-3.59A28.71,28.71,0,0,0,892.94,345.56Z" transform="translate(-3.84 -4.65)"/><path class="cls-30" d="M861.25,475.51a10.28,10.28,0,0,1,7.22-.89,11.74,11.74,0,0,1,6.55,4.14,12.09,12.09,0,0,1,.49,14.18c-.57-2.38-1-4.47-1.59-6.34a15.94,15.94,0,0,0-2.58-4.89,15.19,15.19,0,0,0-4.14-3.6A28.87,28.87,0,0,0,861.25,475.51Z" transform="translate(-3.84 -4.65)"/><path class="cls-30" d="M641.2,272.05a10.31,10.31,0,0,1,7.23-.89A11.75,11.75,0,0,1,655,275.3a11.88,11.88,0,0,1,2.55,7.26,12,12,0,0,1-2.06,6.92c-.57-2.37-1-4.47-1.58-6.34a16.16,16.16,0,0,0-2.58-4.89,15.34,15.34,0,0,0-4.14-3.6A28.71,28.71,0,0,0,641.2,272.05Z" transform="translate(-3.84 -4.65)"/><path class="cls-30" d="M629.87,472.65a10.31,10.31,0,0,1,7.23-.89,11.75,11.75,0,0,1,6.54,4.14,11.88,11.88,0,0,1,2.55,7.26,12,12,0,0,1-2.06,6.92c-.57-2.38-1-4.47-1.58-6.34a16.19,16.19,0,0,0-2.59-4.89,15.3,15.3,0,0,0-4.13-3.6A29,29,0,0,0,629.87,472.65Z" transform="translate(-3.84 -4.65)"/><path class="cls-31" d="M786.76,603.29a10.3,10.3,0,0,1,7.23-.88,11.65,11.65,0,0,1,6.54,4.13,11.9,11.9,0,0,1,2.55,7.26,12,12,0,0,1-2.06,6.93c-.57-2.38-1-4.47-1.58-6.34a16.21,16.21,0,0,0-2.58-4.9,15.34,15.34,0,0,0-4.14-3.6A29.82,29.82,0,0,0,786.76,603.29Z" transform="translate(-3.84 -4.65)"/></svg>