<?xml version="1.0" encoding="UTF-8"?>
<svg width="478px" height="438px" viewBox="0 0 478 438" version="1.1" xmlns="http://www.w3.org/2000/svg" xmlns:xlink="http://www.w3.org/1999/xlink">
    <defs>
        <radialGradient cx="25.058282%" cy="22.0511063%" fx="25.058282%" fy="22.0511063%" r="105.424251%" gradientTransform="translate(0.250583,0.220511),scale(0.921808,1.000000),rotate(42.583923),translate(-0.250583,-0.220511)" id="radialGradient-1">
            <stop stop-color="#F2709C" offset="0%"></stop>
            <stop stop-color="#8058FF" offset="65.5405858%"></stop>
            <stop stop-color="#FF9472" offset="100%"></stop>
        </radialGradient>
        <radialGradient cx="25.058282%" cy="22.0511063%" fx="25.058282%" fy="22.0511063%" r="105.768073%" gradientTransform="translate(0.250583,0.220511),scale(0.916303,1.000000),rotate(42.412985),translate(-0.250583,-0.220511)" id="radialGradient-2">
            <stop stop-color="#F2709C" offset="0%"></stop>
            <stop stop-color="#8058FF" offset="65.5405858%"></stop>
            <stop stop-color="#FF9472" offset="100%"></stop>
        </radialGradient>
        <radialGradient cx="13.2733434%" cy="95.1190276%" fx="13.2733434%" fy="95.1190276%" r="106.670935%" gradientTransform="translate(0.132733,0.951190),scale(0.916303,1.000000),rotate(-63.088310),translate(-0.132733,-0.951190)" id="radialGradient-3">
            <stop stop-color="#B2F4FF" offset="0%"></stop>
            <stop stop-color="#8058FF" stop-opacity="0" offset="65.5405858%"></stop>
            <stop stop-color="#FF8862" offset="100%"></stop>
        </radialGradient>
    </defs>
    <g id="Page-1" stroke="none" stroke-width="1" fill="none" fill-rule="evenodd">
        <path d="M31.5352921,273.546606 L15.8079834,257.571734 L149.509636,19.4953461 L170.19397,19.4953461 L294.847983,254.966346 L296.227783,252.015686 L244.138733,144.574158 L315.04516,124.490417 L402.471436,154.769318 L453.536316,234.371887 L453.536316,318.68219 L389.875183,409.556152 L313.519932,422.996643 L232.113068,393.826294 L167.998352,318.68219 L167.998352,273.546606 L31.5352921,273.546606 Z M290.241983,264.821346 L287.514983,268.124346 L288.72406,268.069397 L290.241983,264.821346 Z" id="Combined-Shape" fill-opacity="0.2" fill="url(#radialGradient-1)" fill-rule="nonzero"></path>
        <path d="M125.374965,18.3067432 C135.223948,0.682247264 157.495604,-5.62105146 175.120099,4.2279318 C181.025253,7.52787147 185.898972,12.4015892 189.198911,18.306743 L189.198911,18.306743 L247.844826,123.249551 C309.559487,96.245027 382.348319,109.673897 430.398104,158.485357 C482.358127,211.269039 492.492615,292.32782 455.127593,356.279491 C417.762571,420.231163 342.171824,451.203288 270.676182,431.85557 C204.379368,413.914729 156.861753,356.83505 150.289683,289.572564 L36.0920373,289.571734 C15.9023044,289.571734 -0.4647079,273.204722 -0.4647079,253.014989 C-0.4647079,246.771497 1.13435576,240.632045 4.18006478,235.181828 L4.18006478,235.181828 Z M263.546876,151.350059 L310.393811,235.181828 C320.242793,252.806323 313.939495,275.077979 296.314999,284.926962 C290.864783,287.972671 284.725331,289.571734 278.481839,289.571734 L278.481839,289.571734 L182.48078,289.572598 C188.910444,342.346594 226.704371,386.805175 279.035163,400.966616 C336.581165,416.539368 397.423268,391.610268 427.497935,340.136319 C457.572601,288.662372 449.415471,223.419113 407.59346,180.934147 C369.665835,142.405302 312.5879,131.265851 263.546876,151.350059 Z M159.308563,32.0560469 C157.146119,30.9833756 154.499616,31.7867306 153.309157,33.9170264 L153.309157,33.9170264 L32.1142566,250.792111 C31.7346131,251.471473 31.5352921,252.236747 31.5352921,253.014989 C31.5352921,255.53161 33.5754163,257.571734 36.0920373,257.571734 L36.0920373,257.571734 L278.481839,257.571734 C279.260082,257.571734 280.025356,257.372413 280.704716,256.99277 C282.901583,255.765109 283.68728,252.988979 282.459619,250.792112 L282.459619,250.792112 L161.264719,33.9170266 C160.853387,33.1809585 160.245884,32.5734559 159.509814,32.1621224 L159.509814,32.1621224 Z" id="Combined-Shape" fill="url(#radialGradient-2)" fill-rule="nonzero"></path>
        <path d="M174.876188,4.66440354 C180.347582,7.72194742 184.921223,12.1492933 188.151764,17.4996905 L188.460189,18.0203374 L188.762441,18.5506581 L247.629968,123.890024 C278.628186,110.223595 312.453815,106.80885 344.529648,113.000017 C376.210754,119.114995 406.184877,134.60104 430.041782,158.836119 C455.94259,185.147502 471.418892,218.506109 475.763603,253.256458 C480.108314,288.006808 473.321435,324.1489 454.69588,356.027254 C436.070325,387.905607 407.917472,411.56421 375.511299,424.842132 C343.105125,438.120055 306.44563,441.017297 270.806791,431.37293 C237.886144,422.464144 209.610151,403.875147 188.709539,379.173026 C167.765545,354.419632 154.227471,323.527757 150.843282,290.086709 L150.743842,289.072567 L36.0920373,289.071734 C26.135242,289.071734 17.1210557,285.035945 10.5960682,278.510958 C4.07108077,271.985971 0.0352921,262.971784 0.0352921,253.014989 C0.0352921,247.267432 1.40920167,241.609266 4.03296442,236.513144 L4.31885881,235.969303 L4.61653652,235.425739 L125.811437,18.5506538 C130.668574,9.85893424 138.588902,3.95880288 147.467876,1.44588582 C156.34685,-1.06703124 166.184469,-0.192734017 174.876188,4.66440354 Z M340.199282,143.746049 C314.677795,138.504481 287.711905,140.79052 262.835662,151.102322 L262.835662,151.102322 L309.957338,235.425738 L310.223086,235.909777 C314.845696,244.481485 315.642238,254.119502 313.175856,262.834051 C310.662939,271.713024 304.762808,279.633353 296.071088,284.49049 C290.874606,287.394406 285.042881,288.965002 279.097287,289.066482 L279.097287,289.066482 L278.477573,289.071752 L181.917379,289.072602 L182.026696,289.976082 C185.322817,316.454406 196.486085,340.832656 213.403079,360.349657 C230.234992,379.768501 252.762782,394.374929 278.904554,401.449256 C307.786536,409.265124 337.495665,406.917177 363.757871,396.156649 C390.020077,385.396122 412.835359,366.223013 427.929648,340.388556 C443.023937,314.5541 448.524075,285.264278 445.003089,257.102335 C441.482102,228.940391 428.939991,201.906326 407.949783,180.583385 C389.005256,161.338554 365.300907,148.901386 340.199282,143.746049 Z M159.530752,31.6081271 C158.353568,31.0241901 157.047377,30.9404547 155.849323,31.3120837 C154.682103,31.6741484 153.615444,32.469463 152.878123,33.663384 L152.878123,33.663384 L31.6777849,250.5482 L31.5447916,250.802923 C31.2100611,251.491006 31.0352921,252.247312 31.0352921,253.014989 C31.0352921,254.368289 31.5669177,255.597412 32.4326804,256.504954 C33.2995209,257.413627 34.5003736,258.006484 36.0815313,258.071734 L36.0815313,258.071734 L278.481839,258.071734 L278.769074,258.063571 C279.53302,258.02011 280.278489,257.803731 280.948627,257.429242 C282.127713,256.770341 282.940471,255.709484 283.311358,254.513822 C283.682735,253.31658 283.617629,251.981716 282.901505,250.557889 L282.901505,250.557889 L161.701191,33.6731159 L161.618981,33.5314048 C161.223961,32.875842 160.660285,32.2964501 159.530752,31.6081271 Z" id="Combined-Shape" stroke-opacity="0.2" stroke="#FFFFFF" fill="url(#radialGradient-3)" fill-rule="nonzero"></path>
    </g>
</svg>