<svg id="Layer_1" data-name="Layer 1" xmlns="http://www.w3.org/2000/svg" xmlns:xlink="http://www.w3.org/1999/xlink" viewBox="0 0 252.7 325.9"><defs><style>.cls-1,.cls-20{fill:none;}.cls-2{fill:#c7322c;}.cls-3{opacity:0.2;}.cls-4{opacity:0.6;}.cls-5{fill:#74527c;}.cls-14,.cls-22,.cls-6,.cls-9{fill:#fff;}.cls-6{opacity:0.19;}.cls-16,.cls-19,.cls-7{fill:#231f20;}.cls-8{fill:#f0d6b7;}.cls-10{fill:#6d6b6d;}.cls-11{fill:#dcd9d8;}.cls-12{fill:#f7e4cd;}.cls-13{fill:#d4af37;}.cls-13,.cls-18,.cls-19,.cls-20,.cls-26,.cls-27,.cls-28,.cls-29,.cls-30{stroke:#231f20;}.cls-13,.cls-16,.cls-18,.cls-19,.cls-20,.cls-26,.cls-27,.cls-28,.cls-29,.cls-30{stroke-miterlimit:10;}.cls-14{opacity:0.5;}.cls-15{fill:#3a3a3a;}.cls-16{stroke:#443f40;stroke-width:0.5px;}.cls-17{fill:#e5bf7c;}.cls-18,.cls-21{fill:#ceaa72;}.cls-18,.cls-20,.cls-26,.cls-27{stroke-width:2px;}.cls-22{opacity:0.7;}.cls-23{fill:#e2e2e2;}.cls-24{fill:#ddb33a;}.cls-25{opacity:0.4;}.cls-26{fill:url(#New_Pattern);}.cls-27{fill:url(#New_Pattern-3);}.cls-28{fill:url(#New_Pattern-5);}.cls-29{fill:url(#New_Pattern-7);}.cls-30{fill:url(#New_Pattern-9);}</style><pattern id="New_Pattern" data-name="New Pattern" width="292.61" height="292.76" patternTransform="translate(60.22 86.44) scale(0.4)" patternUnits="userSpaceOnUse" viewBox="0 0 292.61 292.76"><rect class="cls-1" width="292.61" height="292.76"/><rect class="cls-2" x="36.58" y="219.65" width="36.58" height="36.58"/><rect x="73.15" y="256.23" width="36.58" height="36.58"/><rect class="cls-2" x="73.15" y="219.65" width="36.58" height="36.58"/><rect class="cls-3" x="73.15" y="219.65" width="36.58" height="36.58"/><rect class="cls-2" x="109.73" y="219.65" width="36.58" height="36.58"/><rect x="36.58" y="256.15" width="36.58" height="36.58"/><rect class="cls-2" x="36.58" y="256.15" width="36.58" height="36.58"/><rect class="cls-2" x="109.73" y="256.23" width="36.58" height="36.58"/><rect class="cls-4" x="36.58" y="256.23" width="36.58" height="36.58"/><rect class="cls-4" x="109.73" y="256.23" width="36.58" height="36.58"/><polyline points="0 256.23 36.58 256.23 36.58 292.8 0 292.8"/><polyline class="cls-2" points="0 219.65 36.58 219.65 36.58 256.23 0 256.23"/><polyline class="cls-3" points="0 219.65 36.58 219.65 36.58 256.23 0 256.23"/><rect class="cls-2" x="182.88" y="219.57" width="36.58" height="36.58"/><rect x="219.46" y="256.15" width="36.58" height="36.58"/><rect class="cls-2" x="219.46" y="219.57" width="36.58" height="36.58"/><rect class="cls-3" x="219.46" y="219.57" width="36.58" height="36.58"/><rect class="cls-2" x="256.03" y="219.57" width="36.58" height="36.58"/><rect x="182.88" y="256.07" width="36.58" height="36.58"/><rect class="cls-2" x="182.88" y="256.07" width="36.58" height="36.58"/><rect class="cls-2" x="256.03" y="256.15" width="36.58" height="36.58"/><rect class="cls-4" x="182.88" y="256.15" width="36.58" height="36.58"/><rect class="cls-4" x="256.03" y="256.15" width="36.58" height="36.58"/><polyline points="146.31 256.15 182.88 256.15 182.88 292.73 146.31 292.73"/><polyline class="cls-2" points="146.31 219.57 182.88 219.57 182.88 256.15 146.31 256.15"/><polyline class="cls-3" points="146.31 219.57 182.88 219.57 182.88 256.15 146.31 256.15"/><rect class="cls-2" x="182.88" y="292.73" width="36.58" height="36.58"/><rect class="cls-2" x="219.46" y="292.73" width="36.58" height="36.58"/><rect class="cls-3" x="219.46" y="292.73" width="36.58" height="36.58"/><rect class="cls-2" x="256.03" y="292.73" width="36.58" height="36.58"/><polyline class="cls-2" points="146.31 292.73 182.88 292.73 182.88 329.3 146.31 329.3"/><polyline class="cls-3" points="146.31 292.73 182.88 292.73 182.88 329.3 146.31 329.3"/><rect class="cls-2" x="36.58" y="73.27" width="36.58" height="36.58"/><rect x="73.15" y="109.84" width="36.58" height="36.58"/><rect class="cls-2" x="73.15" y="73.27" width="36.58" height="36.58"/><rect class="cls-3" x="73.15" y="73.27" width="36.58" height="36.58"/><rect class="cls-2" x="109.73" y="73.27" width="36.58" height="36.58"/><rect x="36.58" y="109.77" width="36.58" height="36.58"/><rect class="cls-2" x="36.58" y="109.77" width="36.58" height="36.58"/><rect class="cls-2" x="109.73" y="109.84" width="36.58" height="36.58"/><rect class="cls-4" x="36.58" y="109.84" width="36.58" height="36.58"/><rect class="cls-4" x="109.73" y="109.84" width="36.58" height="36.58"/><polyline points="0 109.84 36.58 109.84 36.58 146.42 0 146.42"/><polyline class="cls-2" points="0 73.27 36.58 73.27 36.58 109.84 0 109.84"/><polyline class="cls-3" points="0 73.27 36.58 73.27 36.58 109.84 0 109.84"/><rect class="cls-2" x="36.58" y="146.42" width="36.58" height="36.58"/><rect x="73.15" y="183" width="36.58" height="36.58"/><rect class="cls-2" x="73.15" y="146.42" width="36.58" height="36.58"/><rect class="cls-3" x="73.15" y="146.42" width="36.58" height="36.58"/><rect class="cls-2" x="109.73" y="146.42" width="36.58" height="36.58"/><rect x="36.58" y="182.92" width="36.58" height="36.58"/><rect class="cls-2" x="36.58" y="182.92" width="36.58" height="36.58"/><rect class="cls-2" x="109.73" y="183" width="36.58" height="36.58"/><rect class="cls-4" x="36.58" y="183" width="36.58" height="36.58"/><rect class="cls-4" x="109.73" y="183" width="36.58" height="36.58"/><polyline points="0 183 36.58 183 36.58 219.57 0 219.57"/><polyline class="cls-2" points="0 146.42 36.58 146.42 36.58 183 0 183"/><polyline class="cls-3" points="0 146.42 36.58 146.42 36.58 183 0 183"/><rect class="cls-2" x="182.88" y="73.19" width="36.58" height="36.58"/><rect x="219.46" y="109.77" width="36.58" height="36.58"/><rect class="cls-2" x="219.46" y="73.19" width="36.58" height="36.58"/><rect class="cls-3" x="219.46" y="73.19" width="36.58" height="36.58"/><rect class="cls-2" x="256.03" y="73.19" width="36.58" height="36.58"/><rect x="182.88" y="109.69" width="36.58" height="36.58"/><rect class="cls-2" x="182.88" y="109.69" width="36.58" height="36.58"/><rect class="cls-2" x="256.03" y="109.77" width="36.58" height="36.58"/><rect class="cls-4" x="182.88" y="109.77" width="36.58" height="36.58"/><rect class="cls-4" x="256.03" y="109.77" width="36.58" height="36.58"/><polyline points="146.31 109.77 182.88 109.77 182.88 146.34 146.31 146.34"/><polyline class="cls-2" points="146.31 73.19 182.88 73.19 182.88 109.77 146.31 109.77"/><polyline class="cls-3" points="146.31 73.19 182.88 73.19 182.88 109.77 146.31 109.77"/><rect class="cls-2" x="182.88" y="146.34" width="36.58" height="36.58"/><rect x="219.46" y="182.92" width="36.58" height="36.58"/><rect class="cls-2" x="219.46" y="146.34" width="36.58" height="36.58"/><rect class="cls-3" x="219.46" y="146.34" width="36.58" height="36.58"/><rect class="cls-2" x="256.03" y="146.34" width="36.58" height="36.58"/><rect x="182.88" y="182.84" width="36.58" height="36.58"/><rect class="cls-2" x="182.88" y="182.84" width="36.58" height="36.58"/><rect class="cls-2" x="256.03" y="182.92" width="36.58" height="36.58"/><rect class="cls-4" x="182.88" y="182.92" width="36.58" height="36.58"/><rect class="cls-4" x="256.03" y="182.92" width="36.58" height="36.58"/><polyline points="146.31 182.92 182.88 182.92 182.88 219.5 146.31 219.5"/><polyline class="cls-2" points="146.31 146.34 182.88 146.34 182.88 182.92 146.31 182.92"/><polyline class="cls-3" points="146.31 146.34 182.88 146.34 182.88 182.92 146.31 182.92"/><rect x="73.15" y="-36.54" width="36.58" height="36.58"/><rect class="cls-2" x="109.73" y="-36.54" width="36.58" height="36.58"/><rect class="cls-4" x="36.58" y="-36.54" width="36.58" height="36.58"/><rect class="cls-4" x="109.73" y="-36.54" width="36.58" height="36.58"/><polyline points="0 -36.54 36.58 -36.54 36.58 0.04 0 0.04"/><rect class="cls-2" x="36.58" y="0.04" width="36.58" height="36.58"/><rect x="73.15" y="36.61" width="36.58" height="36.58"/><rect class="cls-2" x="73.15" y="0.04" width="36.58" height="36.58"/><rect class="cls-3" x="73.15" y="0.04" width="36.58" height="36.58"/><rect class="cls-2" x="109.73" y="0.04" width="36.58" height="36.58"/><rect x="36.58" y="36.54" width="36.58" height="36.58"/><rect class="cls-2" x="36.58" y="36.54" width="36.58" height="36.58"/><rect class="cls-2" x="109.73" y="36.61" width="36.58" height="36.58"/><rect class="cls-4" x="36.58" y="36.61" width="36.58" height="36.58"/><rect class="cls-4" x="109.73" y="36.61" width="36.58" height="36.58"/><polyline points="0 36.62 36.58 36.62 36.58 73.19 0 73.19"/><polyline class="cls-2" points="0 0.04 36.58 0.04 36.58 36.62 0 36.62"/><polyline class="cls-3" points="0 0.04 36.58 0.04 36.58 36.62 0 36.62"/><rect class="cls-2" x="182.88" y="-0.04" width="36.58" height="36.58"/><rect x="219.46" y="36.54" width="36.58" height="36.58"/><rect class="cls-2" x="219.46" y="-0.04" width="36.58" height="36.58"/><rect class="cls-3" x="219.46" y="-0.04" width="36.58" height="36.58"/><rect class="cls-2" x="256.03" y="-0.04" width="36.58" height="36.58"/><rect x="182.88" y="36.46" width="36.58" height="36.58"/><rect class="cls-2" x="182.88" y="36.46" width="36.58" height="36.58"/><rect class="cls-2" x="256.03" y="36.54" width="36.58" height="36.58"/><rect class="cls-4" x="182.88" y="36.54" width="36.58" height="36.58"/><rect class="cls-4" x="256.03" y="36.54" width="36.58" height="36.58"/><polyline points="146.31 36.54 182.88 36.54 182.88 73.11 146.31 73.11"/><polyline class="cls-2" points="146.31 -0.04 182.88 -0.04 182.88 36.54 146.31 36.54"/><polyline class="cls-3" points="146.31 -0.04 182.88 -0.04 182.88 36.54 146.31 36.54"/></pattern><pattern id="New_Pattern-3" data-name="New Pattern" width="292.61" height="292.76" patternTransform="matrix(0.49, -0.1, 0.1, 0.49, 101.47, 95.83)" patternUnits="userSpaceOnUse" viewBox="0 0 292.61 292.76"><rect class="cls-1" width="292.61" height="292.76"/><rect class="cls-2" x="36.58" y="219.65" width="36.58" height="36.58"/><rect x="73.15" y="256.23" width="36.58" height="36.58"/><rect class="cls-2" x="73.15" y="219.65" width="36.58" height="36.58"/><rect class="cls-3" x="73.15" y="219.65" width="36.58" height="36.58"/><rect class="cls-2" x="109.73" y="219.65" width="36.58" height="36.58"/><rect x="36.58" y="256.15" width="36.58" height="36.58"/><rect class="cls-2" x="36.58" y="256.15" width="36.58" height="36.58"/><rect class="cls-2" x="109.73" y="256.23" width="36.58" height="36.58"/><rect class="cls-4" x="36.58" y="256.23" width="36.58" height="36.58"/><rect class="cls-4" x="109.73" y="256.23" width="36.58" height="36.58"/><polyline points="0 256.23 36.58 256.23 36.58 292.8 0 292.8"/><polyline class="cls-2" points="0 219.65 36.58 219.65 36.58 256.23 0 256.23"/><polyline class="cls-3" points="0 219.65 36.58 219.65 36.58 256.23 0 256.23"/><rect class="cls-2" x="182.88" y="219.57" width="36.58" height="36.58"/><rect x="219.46" y="256.15" width="36.58" height="36.58"/><rect class="cls-2" x="219.46" y="219.57" width="36.58" height="36.58"/><rect class="cls-3" x="219.46" y="219.57" width="36.58" height="36.58"/><rect class="cls-2" x="256.03" y="219.57" width="36.58" height="36.58"/><rect x="182.88" y="256.07" width="36.58" height="36.58"/><rect class="cls-2" x="182.88" y="256.07" width="36.58" height="36.58"/><rect class="cls-2" x="256.03" y="256.15" width="36.58" height="36.58"/><rect class="cls-4" x="182.88" y="256.15" width="36.58" height="36.58"/><rect class="cls-4" x="256.03" y="256.15" width="36.58" height="36.58"/><polyline points="146.31 256.15 182.88 256.15 182.88 292.73 146.31 292.73"/><polyline class="cls-2" points="146.31 219.57 182.88 219.57 182.88 256.15 146.31 256.15"/><polyline class="cls-3" points="146.31 219.57 182.88 219.57 182.88 256.15 146.31 256.15"/><rect class="cls-2" x="182.88" y="292.73" width="36.58" height="36.58"/><rect class="cls-2" x="219.46" y="292.73" width="36.58" height="36.58"/><rect class="cls-3" x="219.46" y="292.73" width="36.58" height="36.58"/><rect class="cls-2" x="256.03" y="292.73" width="36.58" height="36.58"/><polyline class="cls-2" points="146.31 292.73 182.88 292.73 182.88 329.3 146.31 329.3"/><polyline class="cls-3" points="146.31 292.73 182.88 292.73 182.88 329.3 146.31 329.3"/><rect class="cls-2" x="36.58" y="73.27" width="36.58" height="36.58"/><rect x="73.15" y="109.84" width="36.58" height="36.58"/><rect class="cls-2" x="73.15" y="73.27" width="36.58" height="36.58"/><rect class="cls-3" x="73.15" y="73.27" width="36.58" height="36.58"/><rect class="cls-2" x="109.73" y="73.27" width="36.58" height="36.58"/><rect x="36.58" y="109.77" width="36.58" height="36.58"/><rect class="cls-2" x="36.58" y="109.77" width="36.58" height="36.58"/><rect class="cls-2" x="109.73" y="109.84" width="36.58" height="36.58"/><rect class="cls-4" x="36.58" y="109.84" width="36.58" height="36.58"/><rect class="cls-4" x="109.73" y="109.84" width="36.58" height="36.58"/><polyline points="0 109.84 36.58 109.84 36.58 146.42 0 146.42"/><polyline class="cls-2" points="0 73.27 36.58 73.27 36.58 109.84 0 109.84"/><polyline class="cls-3" points="0 73.27 36.58 73.27 36.58 109.84 0 109.84"/><rect class="cls-2" x="36.58" y="146.42" width="36.58" height="36.58"/><rect x="73.15" y="183" width="36.58" height="36.58"/><rect class="cls-2" x="73.15" y="146.42" width="36.58" height="36.58"/><rect class="cls-3" x="73.15" y="146.42" width="36.58" height="36.58"/><rect class="cls-2" x="109.73" y="146.42" width="36.58" height="36.58"/><rect x="36.58" y="182.92" width="36.58" height="36.58"/><rect class="cls-2" x="36.58" y="182.92" width="36.58" height="36.58"/><rect class="cls-2" x="109.73" y="183" width="36.58" height="36.58"/><rect class="cls-4" x="36.58" y="183" width="36.58" height="36.58"/><rect class="cls-4" x="109.73" y="183" width="36.58" height="36.58"/><polyline points="0 183 36.58 183 36.58 219.57 0 219.57"/><polyline class="cls-2" points="0 146.42 36.58 146.42 36.58 183 0 183"/><polyline class="cls-3" points="0 146.42 36.58 146.42 36.58 183 0 183"/><rect class="cls-2" x="182.88" y="73.19" width="36.58" height="36.58"/><rect x="219.46" y="109.77" width="36.58" height="36.58"/><rect class="cls-2" x="219.46" y="73.19" width="36.58" height="36.58"/><rect class="cls-3" x="219.46" y="73.19" width="36.58" height="36.58"/><rect class="cls-2" x="256.03" y="73.19" width="36.58" height="36.58"/><rect x="182.88" y="109.69" width="36.58" height="36.58"/><rect class="cls-2" x="182.88" y="109.69" width="36.58" height="36.58"/><rect class="cls-2" x="256.03" y="109.77" width="36.58" height="36.58"/><rect class="cls-4" x="182.88" y="109.77" width="36.58" height="36.58"/><rect class="cls-4" x="256.03" y="109.77" width="36.58" height="36.58"/><polyline points="146.31 109.77 182.88 109.77 182.88 146.34 146.31 146.34"/><polyline class="cls-2" points="146.31 73.19 182.88 73.19 182.88 109.77 146.31 109.77"/><polyline class="cls-3" points="146.31 73.19 182.88 73.19 182.88 109.77 146.31 109.77"/><rect class="cls-2" x="182.88" y="146.34" width="36.58" height="36.58"/><rect x="219.46" y="182.92" width="36.58" height="36.58"/><rect class="cls-2" x="219.46" y="146.34" width="36.58" height="36.58"/><rect class="cls-3" x="219.46" y="146.34" width="36.58" height="36.58"/><rect class="cls-2" x="256.03" y="146.34" width="36.58" height="36.58"/><rect x="182.88" y="182.84" width="36.58" height="36.58"/><rect class="cls-2" x="182.88" y="182.84" width="36.58" height="36.58"/><rect class="cls-2" x="256.03" y="182.92" width="36.58" height="36.58"/><rect class="cls-4" x="182.88" y="182.92" width="36.58" height="36.58"/><rect class="cls-4" x="256.03" y="182.92" width="36.58" height="36.58"/><polyline points="146.31 182.92 182.88 182.92 182.88 219.5 146.31 219.5"/><polyline class="cls-2" points="146.31 146.34 182.88 146.34 182.88 182.92 146.31 182.92"/><polyline class="cls-3" points="146.31 146.34 182.88 146.34 182.88 182.92 146.31 182.92"/><rect x="73.15" y="-36.54" width="36.58" height="36.58"/><rect class="cls-2" x="109.73" y="-36.54" width="36.58" height="36.58"/><rect class="cls-4" x="36.58" y="-36.54" width="36.58" height="36.58"/><rect class="cls-4" x="109.73" y="-36.54" width="36.58" height="36.58"/><polyline points="0 -36.54 36.58 -36.54 36.58 0.04 0 0.04"/><rect class="cls-2" x="36.58" y="0.04" width="36.58" height="36.58"/><rect x="73.15" y="36.61" width="36.58" height="36.58"/><rect class="cls-2" x="73.15" y="0.04" width="36.58" height="36.58"/><rect class="cls-3" x="73.15" y="0.04" width="36.58" height="36.58"/><rect class="cls-2" x="109.73" y="0.04" width="36.58" height="36.58"/><rect x="36.58" y="36.54" width="36.58" height="36.58"/><rect class="cls-2" x="36.58" y="36.54" width="36.58" height="36.58"/><rect class="cls-2" x="109.73" y="36.61" width="36.58" height="36.58"/><rect class="cls-4" x="36.58" y="36.61" width="36.58" height="36.58"/><rect class="cls-4" x="109.73" y="36.61" width="36.58" height="36.58"/><polyline points="0 36.62 36.58 36.62 36.58 73.19 0 73.19"/><polyline class="cls-2" points="0 0.04 36.58 0.04 36.58 36.62 0 36.62"/><polyline class="cls-3" points="0 0.04 36.58 0.04 36.58 36.62 0 36.62"/><rect class="cls-2" x="182.88" y="-0.04" width="36.58" height="36.58"/><rect x="219.46" y="36.54" width="36.58" height="36.58"/><rect class="cls-2" x="219.46" y="-0.04" width="36.58" height="36.58"/><rect class="cls-3" x="219.46" y="-0.04" width="36.58" height="36.58"/><rect class="cls-2" x="256.03" y="-0.04" width="36.58" height="36.58"/><rect x="182.88" y="36.46" width="36.58" height="36.58"/><rect class="cls-2" x="182.88" y="36.46" width="36.58" height="36.58"/><rect class="cls-2" x="256.03" y="36.54" width="36.58" height="36.58"/><rect class="cls-4" x="182.88" y="36.54" width="36.58" height="36.58"/><rect class="cls-4" x="256.03" y="36.54" width="36.58" height="36.58"/><polyline points="146.31 36.54 182.88 36.54 182.88 73.11 146.31 73.11"/><polyline class="cls-2" points="146.31 -0.04 182.88 -0.04 182.88 36.54 146.31 36.54"/><polyline class="cls-3" points="146.31 -0.04 182.88 -0.04 182.88 36.54 146.31 36.54"/></pattern><pattern id="New_Pattern-5" data-name="New Pattern" width="292.61" height="292.76" patternTransform="translate(75.72 92.96) scale(0.4)" patternUnits="userSpaceOnUse" viewBox="0 0 292.61 292.76"><rect class="cls-1" width="292.61" height="292.76"/><rect class="cls-2" x="36.58" y="219.65" width="36.58" height="36.58"/><rect x="73.15" y="256.23" width="36.58" height="36.58"/><rect class="cls-2" x="73.15" y="219.65" width="36.58" height="36.58"/><rect class="cls-3" x="73.15" y="219.65" width="36.58" height="36.58"/><rect class="cls-2" x="109.73" y="219.65" width="36.58" height="36.58"/><rect x="36.58" y="256.15" width="36.58" height="36.58"/><rect class="cls-2" x="36.58" y="256.15" width="36.58" height="36.58"/><rect class="cls-2" x="109.73" y="256.23" width="36.58" height="36.58"/><rect class="cls-4" x="36.58" y="256.23" width="36.58" height="36.58"/><rect class="cls-4" x="109.73" y="256.23" width="36.58" height="36.58"/><polyline points="0 256.23 36.58 256.23 36.58 292.8 0 292.8"/><polyline class="cls-2" points="0 219.65 36.58 219.65 36.58 256.23 0 256.23"/><polyline class="cls-3" points="0 219.65 36.58 219.65 36.58 256.23 0 256.23"/><rect class="cls-2" x="182.88" y="219.57" width="36.58" height="36.58"/><rect x="219.46" y="256.15" width="36.58" height="36.58"/><rect class="cls-2" x="219.46" y="219.57" width="36.58" height="36.58"/><rect class="cls-3" x="219.46" y="219.57" width="36.58" height="36.58"/><rect class="cls-2" x="256.03" y="219.57" width="36.58" height="36.58"/><rect x="182.88" y="256.07" width="36.58" height="36.58"/><rect class="cls-2" x="182.88" y="256.07" width="36.58" height="36.58"/><rect class="cls-2" x="256.03" y="256.15" width="36.58" height="36.58"/><rect class="cls-4" x="182.88" y="256.15" width="36.58" height="36.58"/><rect class="cls-4" x="256.03" y="256.15" width="36.58" height="36.58"/><polyline points="146.31 256.15 182.88 256.15 182.88 292.73 146.31 292.73"/><polyline class="cls-2" points="146.31 219.57 182.88 219.57 182.88 256.15 146.31 256.15"/><polyline class="cls-3" points="146.31 219.57 182.88 219.57 182.88 256.15 146.31 256.15"/><rect class="cls-2" x="182.88" y="292.73" width="36.58" height="36.58"/><rect class="cls-2" x="219.46" y="292.73" width="36.58" height="36.58"/><rect class="cls-3" x="219.46" y="292.73" width="36.58" height="36.58"/><rect class="cls-2" x="256.03" y="292.73" width="36.58" height="36.58"/><polyline class="cls-2" points="146.31 292.73 182.88 292.73 182.88 329.3 146.31 329.3"/><polyline class="cls-3" points="146.31 292.73 182.88 292.73 182.88 329.3 146.31 329.3"/><rect class="cls-2" x="36.58" y="73.27" width="36.58" height="36.58"/><rect x="73.15" y="109.84" width="36.58" height="36.58"/><rect class="cls-2" x="73.15" y="73.27" width="36.58" height="36.58"/><rect class="cls-3" x="73.15" y="73.27" width="36.58" height="36.58"/><rect class="cls-2" x="109.73" y="73.27" width="36.58" height="36.58"/><rect x="36.58" y="109.77" width="36.58" height="36.58"/><rect class="cls-2" x="36.58" y="109.77" width="36.58" height="36.58"/><rect class="cls-2" x="109.73" y="109.84" width="36.58" height="36.58"/><rect class="cls-4" x="36.58" y="109.84" width="36.58" height="36.58"/><rect class="cls-4" x="109.73" y="109.84" width="36.58" height="36.58"/><polyline points="0 109.84 36.58 109.84 36.58 146.42 0 146.42"/><polyline class="cls-2" points="0 73.27 36.58 73.27 36.58 109.84 0 109.84"/><polyline class="cls-3" points="0 73.27 36.58 73.27 36.58 109.84 0 109.84"/><rect class="cls-2" x="36.58" y="146.42" width="36.58" height="36.58"/><rect x="73.15" y="183" width="36.58" height="36.58"/><rect class="cls-2" x="73.15" y="146.42" width="36.58" height="36.58"/><rect class="cls-3" x="73.15" y="146.42" width="36.58" height="36.58"/><rect class="cls-2" x="109.73" y="146.42" width="36.58" height="36.58"/><rect x="36.58" y="182.92" width="36.58" height="36.58"/><rect class="cls-2" x="36.58" y="182.92" width="36.58" height="36.58"/><rect class="cls-2" x="109.73" y="183" width="36.58" height="36.58"/><rect class="cls-4" x="36.58" y="183" width="36.58" height="36.58"/><rect class="cls-4" x="109.73" y="183" width="36.58" height="36.58"/><polyline points="0 183 36.58 183 36.58 219.57 0 219.57"/><polyline class="cls-2" points="0 146.42 36.58 146.42 36.58 183 0 183"/><polyline class="cls-3" points="0 146.42 36.58 146.42 36.58 183 0 183"/><rect class="cls-2" x="182.88" y="73.19" width="36.58" height="36.58"/><rect x="219.46" y="109.77" width="36.58" height="36.58"/><rect class="cls-2" x="219.46" y="73.19" width="36.58" height="36.58"/><rect class="cls-3" x="219.46" y="73.19" width="36.58" height="36.58"/><rect class="cls-2" x="256.03" y="73.19" width="36.58" height="36.58"/><rect x="182.88" y="109.69" width="36.58" height="36.58"/><rect class="cls-2" x="182.88" y="109.69" width="36.58" height="36.58"/><rect class="cls-2" x="256.03" y="109.77" width="36.58" height="36.58"/><rect class="cls-4" x="182.88" y="109.77" width="36.58" height="36.58"/><rect class="cls-4" x="256.03" y="109.77" width="36.58" height="36.58"/><polyline points="146.31 109.77 182.88 109.77 182.88 146.34 146.31 146.34"/><polyline class="cls-2" points="146.31 73.19 182.88 73.19 182.88 109.77 146.31 109.77"/><polyline class="cls-3" points="146.31 73.19 182.88 73.19 182.88 109.77 146.31 109.77"/><rect class="cls-2" x="182.88" y="146.34" width="36.58" height="36.58"/><rect x="219.46" y="182.92" width="36.58" height="36.58"/><rect class="cls-2" x="219.46" y="146.34" width="36.58" height="36.58"/><rect class="cls-3" x="219.46" y="146.34" width="36.58" height="36.58"/><rect class="cls-2" x="256.03" y="146.34" width="36.58" height="36.58"/><rect x="182.88" y="182.84" width="36.58" height="36.58"/><rect class="cls-2" x="182.88" y="182.84" width="36.58" height="36.58"/><rect class="cls-2" x="256.03" y="182.92" width="36.58" height="36.58"/><rect class="cls-4" x="182.88" y="182.92" width="36.58" height="36.58"/><rect class="cls-4" x="256.03" y="182.92" width="36.58" height="36.58"/><polyline points="146.31 182.92 182.88 182.92 182.88 219.5 146.31 219.5"/><polyline class="cls-2" points="146.31 146.34 182.88 146.34 182.88 182.92 146.31 182.92"/><polyline class="cls-3" points="146.31 146.34 182.88 146.34 182.88 182.92 146.31 182.92"/><rect x="73.15" y="-36.54" width="36.58" height="36.58"/><rect class="cls-2" x="109.73" y="-36.54" width="36.58" height="36.58"/><rect class="cls-4" x="36.58" y="-36.54" width="36.58" height="36.58"/><rect class="cls-4" x="109.73" y="-36.54" width="36.58" height="36.58"/><polyline points="0 -36.54 36.58 -36.54 36.58 0.04 0 0.04"/><rect class="cls-2" x="36.58" y="0.04" width="36.58" height="36.58"/><rect x="73.15" y="36.61" width="36.58" height="36.58"/><rect class="cls-2" x="73.15" y="0.04" width="36.58" height="36.58"/><rect class="cls-3" x="73.15" y="0.04" width="36.58" height="36.58"/><rect class="cls-2" x="109.73" y="0.04" width="36.58" height="36.58"/><rect x="36.58" y="36.54" width="36.58" height="36.58"/><rect class="cls-2" x="36.58" y="36.54" width="36.58" height="36.58"/><rect class="cls-2" x="109.73" y="36.61" width="36.58" height="36.58"/><rect class="cls-4" x="36.58" y="36.61" width="36.58" height="36.58"/><rect class="cls-4" x="109.73" y="36.61" width="36.58" height="36.58"/><polyline points="0 36.62 36.58 36.62 36.58 73.19 0 73.19"/><polyline class="cls-2" points="0 0.04 36.58 0.04 36.58 36.62 0 36.62"/><polyline class="cls-3" points="0 0.04 36.58 0.04 36.58 36.62 0 36.62"/><rect class="cls-2" x="182.88" y="-0.04" width="36.58" height="36.58"/><rect x="219.46" y="36.54" width="36.58" height="36.58"/><rect class="cls-2" x="219.46" y="-0.04" width="36.58" height="36.58"/><rect class="cls-3" x="219.46" y="-0.04" width="36.58" height="36.58"/><rect class="cls-2" x="256.03" y="-0.04" width="36.58" height="36.58"/><rect x="182.88" y="36.46" width="36.58" height="36.58"/><rect class="cls-2" x="182.88" y="36.46" width="36.58" height="36.58"/><rect class="cls-2" x="256.03" y="36.54" width="36.58" height="36.58"/><rect class="cls-4" x="182.88" y="36.54" width="36.58" height="36.58"/><rect class="cls-4" x="256.03" y="36.54" width="36.58" height="36.58"/><polyline points="146.31 36.54 182.88 36.54 182.88 73.11 146.31 73.11"/><polyline class="cls-2" points="146.31 -0.04 182.88 -0.04 182.88 36.54 146.31 36.54"/><polyline class="cls-3" points="146.31 -0.04 182.88 -0.04 182.88 36.54 146.31 36.54"/></pattern><pattern id="New_Pattern-7" data-name="New Pattern" width="292.61" height="292.76" patternTransform="translate(62.37 77.22) scale(0.4)" patternUnits="userSpaceOnUse" viewBox="0 0 292.61 292.76"><rect class="cls-1" width="292.61" height="292.76"/><rect class="cls-2" x="36.58" y="219.65" width="36.58" height="36.58"/><rect x="73.15" y="256.23" width="36.58" height="36.58"/><rect class="cls-2" x="73.15" y="219.65" width="36.58" height="36.58"/><rect class="cls-3" x="73.15" y="219.65" width="36.58" height="36.58"/><rect class="cls-2" x="109.73" y="219.65" width="36.58" height="36.58"/><rect x="36.58" y="256.15" width="36.58" height="36.58"/><rect class="cls-2" x="36.58" y="256.15" width="36.58" height="36.58"/><rect class="cls-2" x="109.73" y="256.23" width="36.58" height="36.58"/><rect class="cls-4" x="36.58" y="256.23" width="36.58" height="36.58"/><rect class="cls-4" x="109.73" y="256.23" width="36.58" height="36.58"/><polyline points="0 256.23 36.58 256.23 36.58 292.8 0 292.8"/><polyline class="cls-2" points="0 219.65 36.58 219.65 36.58 256.23 0 256.23"/><polyline class="cls-3" points="0 219.65 36.58 219.65 36.58 256.23 0 256.23"/><rect class="cls-2" x="182.88" y="219.57" width="36.58" height="36.58"/><rect x="219.46" y="256.15" width="36.58" height="36.58"/><rect class="cls-2" x="219.46" y="219.57" width="36.58" height="36.58"/><rect class="cls-3" x="219.46" y="219.57" width="36.58" height="36.58"/><rect class="cls-2" x="256.03" y="219.57" width="36.58" height="36.58"/><rect x="182.88" y="256.07" width="36.58" height="36.58"/><rect class="cls-2" x="182.88" y="256.07" width="36.58" height="36.58"/><rect class="cls-2" x="256.03" y="256.15" width="36.58" height="36.58"/><rect class="cls-4" x="182.88" y="256.15" width="36.58" height="36.58"/><rect class="cls-4" x="256.03" y="256.15" width="36.58" height="36.58"/><polyline points="146.31 256.15 182.88 256.15 182.88 292.73 146.31 292.73"/><polyline class="cls-2" points="146.31 219.57 182.88 219.57 182.88 256.15 146.31 256.15"/><polyline class="cls-3" points="146.31 219.57 182.88 219.57 182.88 256.15 146.31 256.15"/><rect class="cls-2" x="182.88" y="292.73" width="36.58" height="36.58"/><rect class="cls-2" x="219.46" y="292.73" width="36.58" height="36.58"/><rect class="cls-3" x="219.46" y="292.73" width="36.58" height="36.58"/><rect class="cls-2" x="256.03" y="292.73" width="36.58" height="36.58"/><polyline class="cls-2" points="146.31 292.73 182.88 292.73 182.88 329.3 146.31 329.3"/><polyline class="cls-3" points="146.31 292.73 182.88 292.73 182.88 329.3 146.31 329.3"/><rect class="cls-2" x="36.58" y="73.27" width="36.58" height="36.58"/><rect x="73.15" y="109.84" width="36.58" height="36.58"/><rect class="cls-2" x="73.15" y="73.27" width="36.58" height="36.58"/><rect class="cls-3" x="73.15" y="73.27" width="36.58" height="36.58"/><rect class="cls-2" x="109.73" y="73.27" width="36.58" height="36.58"/><rect x="36.58" y="109.77" width="36.58" height="36.58"/><rect class="cls-2" x="36.58" y="109.77" width="36.58" height="36.58"/><rect class="cls-2" x="109.73" y="109.84" width="36.58" height="36.58"/><rect class="cls-4" x="36.58" y="109.84" width="36.58" height="36.58"/><rect class="cls-4" x="109.73" y="109.84" width="36.58" height="36.58"/><polyline points="0 109.84 36.58 109.84 36.58 146.42 0 146.42"/><polyline class="cls-2" points="0 73.27 36.58 73.27 36.58 109.84 0 109.84"/><polyline class="cls-3" points="0 73.27 36.58 73.27 36.58 109.84 0 109.84"/><rect class="cls-2" x="36.58" y="146.42" width="36.58" height="36.58"/><rect x="73.15" y="183" width="36.58" height="36.58"/><rect class="cls-2" x="73.15" y="146.42" width="36.58" height="36.58"/><rect class="cls-3" x="73.15" y="146.42" width="36.58" height="36.58"/><rect class="cls-2" x="109.73" y="146.42" width="36.58" height="36.58"/><rect x="36.58" y="182.92" width="36.58" height="36.58"/><rect class="cls-2" x="36.58" y="182.92" width="36.58" height="36.58"/><rect class="cls-2" x="109.73" y="183" width="36.58" height="36.58"/><rect class="cls-4" x="36.58" y="183" width="36.58" height="36.58"/><rect class="cls-4" x="109.73" y="183" width="36.58" height="36.58"/><polyline points="0 183 36.58 183 36.58 219.57 0 219.57"/><polyline class="cls-2" points="0 146.42 36.58 146.42 36.58 183 0 183"/><polyline class="cls-3" points="0 146.42 36.58 146.42 36.58 183 0 183"/><rect class="cls-2" x="182.88" y="73.19" width="36.58" height="36.58"/><rect x="219.46" y="109.77" width="36.58" height="36.58"/><rect class="cls-2" x="219.46" y="73.19" width="36.58" height="36.58"/><rect class="cls-3" x="219.46" y="73.19" width="36.58" height="36.58"/><rect class="cls-2" x="256.03" y="73.19" width="36.58" height="36.58"/><rect x="182.88" y="109.69" width="36.58" height="36.58"/><rect class="cls-2" x="182.88" y="109.69" width="36.58" height="36.58"/><rect class="cls-2" x="256.03" y="109.77" width="36.58" height="36.58"/><rect class="cls-4" x="182.88" y="109.77" width="36.58" height="36.58"/><rect class="cls-4" x="256.03" y="109.77" width="36.58" height="36.58"/><polyline points="146.31 109.77 182.88 109.77 182.88 146.34 146.31 146.34"/><polyline class="cls-2" points="146.31 73.19 182.88 73.19 182.88 109.77 146.31 109.77"/><polyline class="cls-3" points="146.31 73.19 182.88 73.19 182.88 109.77 146.31 109.77"/><rect class="cls-2" x="182.88" y="146.34" width="36.58" height="36.58"/><rect x="219.46" y="182.92" width="36.58" height="36.58"/><rect class="cls-2" x="219.46" y="146.34" width="36.58" height="36.58"/><rect class="cls-3" x="219.46" y="146.34" width="36.58" height="36.58"/><rect class="cls-2" x="256.03" y="146.34" width="36.58" height="36.58"/><rect x="182.88" y="182.84" width="36.58" height="36.58"/><rect class="cls-2" x="182.88" y="182.84" width="36.58" height="36.58"/><rect class="cls-2" x="256.03" y="182.92" width="36.58" height="36.58"/><rect class="cls-4" x="182.88" y="182.92" width="36.58" height="36.58"/><rect class="cls-4" x="256.03" y="182.92" width="36.58" height="36.58"/><polyline points="146.31 182.92 182.88 182.92 182.88 219.5 146.31 219.5"/><polyline class="cls-2" points="146.31 146.34 182.88 146.34 182.88 182.92 146.31 182.92"/><polyline class="cls-3" points="146.31 146.34 182.88 146.34 182.88 182.92 146.31 182.92"/><rect x="73.15" y="-36.54" width="36.58" height="36.58"/><rect class="cls-2" x="109.73" y="-36.54" width="36.58" height="36.58"/><rect class="cls-4" x="36.58" y="-36.54" width="36.58" height="36.58"/><rect class="cls-4" x="109.73" y="-36.54" width="36.58" height="36.58"/><polyline points="0 -36.54 36.58 -36.54 36.58 0.04 0 0.04"/><rect class="cls-2" x="36.58" y="0.04" width="36.58" height="36.58"/><rect x="73.15" y="36.61" width="36.58" height="36.58"/><rect class="cls-2" x="73.15" y="0.04" width="36.58" height="36.58"/><rect class="cls-3" x="73.15" y="0.04" width="36.58" height="36.58"/><rect class="cls-2" x="109.73" y="0.04" width="36.58" height="36.58"/><rect x="36.58" y="36.54" width="36.58" height="36.58"/><rect class="cls-2" x="36.58" y="36.54" width="36.58" height="36.58"/><rect class="cls-2" x="109.73" y="36.61" width="36.58" height="36.58"/><rect class="cls-4" x="36.58" y="36.61" width="36.58" height="36.58"/><rect class="cls-4" x="109.73" y="36.61" width="36.58" height="36.58"/><polyline points="0 36.62 36.58 36.62 36.58 73.19 0 73.19"/><polyline class="cls-2" points="0 0.04 36.58 0.04 36.58 36.62 0 36.62"/><polyline class="cls-3" points="0 0.04 36.58 0.04 36.58 36.62 0 36.62"/><rect class="cls-2" x="182.88" y="-0.04" width="36.58" height="36.58"/><rect x="219.46" y="36.54" width="36.58" height="36.58"/><rect class="cls-2" x="219.46" y="-0.04" width="36.58" height="36.58"/><rect class="cls-3" x="219.46" y="-0.04" width="36.58" height="36.58"/><rect class="cls-2" x="256.03" y="-0.04" width="36.58" height="36.58"/><rect x="182.88" y="36.46" width="36.58" height="36.58"/><rect class="cls-2" x="182.88" y="36.46" width="36.58" height="36.58"/><rect class="cls-2" x="256.03" y="36.54" width="36.58" height="36.58"/><rect class="cls-4" x="182.88" y="36.54" width="36.58" height="36.58"/><rect class="cls-4" x="256.03" y="36.54" width="36.58" height="36.58"/><polyline points="146.31 36.54 182.88 36.54 182.88 73.11 146.31 73.11"/><polyline class="cls-2" points="146.31 -0.04 182.88 -0.04 182.88 36.54 146.31 36.54"/><polyline class="cls-3" points="146.31 -0.04 182.88 -0.04 182.88 36.54 146.31 36.54"/></pattern><pattern id="New_Pattern-9" data-name="New Pattern" width="292.61" height="292.76" patternTransform="translate(19.42 -18.08)" patternUnits="userSpaceOnUse" viewBox="0 0 292.61 292.76"><rect class="cls-1" width="292.61" height="292.76"/><rect class="cls-2" x="36.58" y="219.65" width="36.58" height="36.58"/><rect x="73.15" y="256.23" width="36.58" height="36.58"/><rect class="cls-2" x="73.15" y="219.65" width="36.58" height="36.58"/><rect class="cls-3" x="73.15" y="219.65" width="36.58" height="36.58"/><rect class="cls-2" x="109.73" y="219.65" width="36.58" height="36.58"/><rect x="36.58" y="256.15" width="36.58" height="36.58"/><rect class="cls-2" x="36.58" y="256.15" width="36.58" height="36.58"/><rect class="cls-2" x="109.73" y="256.23" width="36.58" height="36.58"/><rect class="cls-4" x="36.58" y="256.23" width="36.58" height="36.58"/><rect class="cls-4" x="109.73" y="256.23" width="36.58" height="36.58"/><polyline points="0 256.23 36.58 256.23 36.58 292.8 0 292.8"/><polyline class="cls-2" points="0 219.65 36.58 219.65 36.58 256.23 0 256.23"/><polyline class="cls-3" points="0 219.65 36.58 219.65 36.58 256.23 0 256.23"/><rect class="cls-2" x="182.88" y="219.57" width="36.58" height="36.58"/><rect x="219.46" y="256.15" width="36.58" height="36.58"/><rect class="cls-2" x="219.46" y="219.57" width="36.58" height="36.58"/><rect class="cls-3" x="219.46" y="219.57" width="36.58" height="36.58"/><rect class="cls-2" x="256.03" y="219.57" width="36.58" height="36.58"/><rect x="182.88" y="256.07" width="36.58" height="36.58"/><rect class="cls-2" x="182.88" y="256.07" width="36.58" height="36.58"/><rect class="cls-2" x="256.03" y="256.15" width="36.58" height="36.58"/><rect class="cls-4" x="182.88" y="256.15" width="36.58" height="36.58"/><rect class="cls-4" x="256.03" y="256.15" width="36.58" height="36.58"/><polyline points="146.31 256.15 182.88 256.15 182.88 292.73 146.31 292.73"/><polyline class="cls-2" points="146.31 219.57 182.88 219.57 182.88 256.15 146.31 256.15"/><polyline class="cls-3" points="146.31 219.57 182.88 219.57 182.88 256.15 146.31 256.15"/><rect class="cls-2" x="182.88" y="292.73" width="36.58" height="36.58"/><rect class="cls-2" x="219.46" y="292.73" width="36.58" height="36.58"/><rect class="cls-3" x="219.46" y="292.73" width="36.58" height="36.58"/><rect class="cls-2" x="256.03" y="292.73" width="36.58" height="36.58"/><polyline class="cls-2" points="146.31 292.73 182.88 292.73 182.88 329.3 146.31 329.3"/><polyline class="cls-3" points="146.31 292.73 182.88 292.73 182.88 329.3 146.31 329.3"/><rect class="cls-2" x="36.58" y="73.27" width="36.58" height="36.58"/><rect x="73.15" y="109.84" width="36.58" height="36.58"/><rect class="cls-2" x="73.15" y="73.27" width="36.58" height="36.58"/><rect class="cls-3" x="73.15" y="73.27" width="36.58" height="36.58"/><rect class="cls-2" x="109.73" y="73.27" width="36.58" height="36.58"/><rect x="36.58" y="109.77" width="36.58" height="36.58"/><rect class="cls-2" x="36.58" y="109.77" width="36.58" height="36.58"/><rect class="cls-2" x="109.73" y="109.84" width="36.58" height="36.58"/><rect class="cls-4" x="36.58" y="109.84" width="36.58" height="36.58"/><rect class="cls-4" x="109.73" y="109.84" width="36.58" height="36.58"/><polyline points="0 109.84 36.58 109.84 36.58 146.42 0 146.42"/><polyline class="cls-2" points="0 73.27 36.58 73.27 36.58 109.84 0 109.84"/><polyline class="cls-3" points="0 73.27 36.58 73.27 36.58 109.84 0 109.84"/><rect class="cls-2" x="36.58" y="146.42" width="36.58" height="36.58"/><rect x="73.15" y="183" width="36.58" height="36.58"/><rect class="cls-2" x="73.15" y="146.42" width="36.58" height="36.58"/><rect class="cls-3" x="73.15" y="146.42" width="36.58" height="36.58"/><rect class="cls-2" x="109.73" y="146.42" width="36.58" height="36.58"/><rect x="36.58" y="182.92" width="36.58" height="36.58"/><rect class="cls-2" x="36.58" y="182.92" width="36.58" height="36.58"/><rect class="cls-2" x="109.73" y="183" width="36.58" height="36.58"/><rect class="cls-4" x="36.58" y="183" width="36.58" height="36.58"/><rect class="cls-4" x="109.73" y="183" width="36.58" height="36.58"/><polyline points="0 183 36.58 183 36.58 219.57 0 219.57"/><polyline class="cls-2" points="0 146.42 36.58 146.42 36.58 183 0 183"/><polyline class="cls-3" points="0 146.42 36.58 146.42 36.58 183 0 183"/><rect class="cls-2" x="182.88" y="73.19" width="36.58" height="36.58"/><rect x="219.46" y="109.77" width="36.58" height="36.58"/><rect class="cls-2" x="219.46" y="73.19" width="36.58" height="36.58"/><rect class="cls-3" x="219.46" y="73.19" width="36.58" height="36.58"/><rect class="cls-2" x="256.03" y="73.19" width="36.58" height="36.58"/><rect x="182.88" y="109.69" width="36.58" height="36.58"/><rect class="cls-2" x="182.88" y="109.69" width="36.58" height="36.58"/><rect class="cls-2" x="256.03" y="109.77" width="36.58" height="36.58"/><rect class="cls-4" x="182.88" y="109.77" width="36.58" height="36.58"/><rect class="cls-4" x="256.03" y="109.77" width="36.58" height="36.58"/><polyline points="146.31 109.77 182.88 109.77 182.88 146.34 146.31 146.34"/><polyline class="cls-2" points="146.31 73.19 182.88 73.19 182.88 109.77 146.31 109.77"/><polyline class="cls-3" points="146.31 73.19 182.88 73.19 182.88 109.77 146.31 109.77"/><rect class="cls-2" x="182.88" y="146.34" width="36.58" height="36.58"/><rect x="219.46" y="182.92" width="36.58" height="36.58"/><rect class="cls-2" x="219.46" y="146.34" width="36.58" height="36.58"/><rect class="cls-3" x="219.46" y="146.34" width="36.58" height="36.58"/><rect class="cls-2" x="256.03" y="146.34" width="36.58" height="36.58"/><rect x="182.88" y="182.84" width="36.58" height="36.58"/><rect class="cls-2" x="182.88" y="182.84" width="36.58" height="36.58"/><rect class="cls-2" x="256.03" y="182.92" width="36.58" height="36.58"/><rect class="cls-4" x="182.88" y="182.92" width="36.58" height="36.58"/><rect class="cls-4" x="256.03" y="182.92" width="36.58" height="36.58"/><polyline points="146.31 182.92 182.88 182.92 182.88 219.5 146.31 219.5"/><polyline class="cls-2" points="146.31 146.34 182.88 146.34 182.88 182.92 146.31 182.92"/><polyline class="cls-3" points="146.31 146.34 182.88 146.34 182.88 182.92 146.31 182.92"/><rect x="73.15" y="-36.54" width="36.58" height="36.58"/><rect class="cls-2" x="109.73" y="-36.54" width="36.58" height="36.58"/><rect class="cls-4" x="36.58" y="-36.54" width="36.58" height="36.58"/><rect class="cls-4" x="109.73" y="-36.54" width="36.58" height="36.58"/><polyline points="0 -36.54 36.58 -36.54 36.58 0.04 0 0.04"/><rect class="cls-2" x="36.58" y="0.04" width="36.58" height="36.58"/><rect x="73.15" y="36.61" width="36.58" height="36.58"/><rect class="cls-2" x="73.15" y="0.04" width="36.58" height="36.58"/><rect class="cls-3" x="73.15" y="0.04" width="36.58" height="36.58"/><rect class="cls-2" x="109.73" y="0.04" width="36.58" height="36.58"/><rect x="36.58" y="36.54" width="36.58" height="36.58"/><rect class="cls-2" x="36.58" y="36.54" width="36.58" height="36.58"/><rect class="cls-2" x="109.73" y="36.61" width="36.58" height="36.58"/><rect class="cls-4" x="36.58" y="36.61" width="36.58" height="36.58"/><rect class="cls-4" x="109.73" y="36.61" width="36.58" height="36.58"/><polyline points="0 36.62 36.58 36.62 36.58 73.19 0 73.19"/><polyline class="cls-2" points="0 0.04 36.58 0.04 36.58 36.62 0 36.62"/><polyline class="cls-3" points="0 0.04 36.58 0.04 36.58 36.62 0 36.62"/><rect class="cls-2" x="182.88" y="-0.04" width="36.58" height="36.58"/><rect x="219.46" y="36.54" width="36.58" height="36.58"/><rect class="cls-2" x="219.46" y="-0.04" width="36.58" height="36.58"/><rect class="cls-3" x="219.46" y="-0.04" width="36.58" height="36.58"/><rect class="cls-2" x="256.03" y="-0.04" width="36.58" height="36.58"/><rect x="182.88" y="36.46" width="36.58" height="36.58"/><rect class="cls-2" x="182.88" y="36.46" width="36.58" height="36.58"/><rect class="cls-2" x="256.03" y="36.54" width="36.58" height="36.58"/><rect class="cls-4" x="182.88" y="36.54" width="36.58" height="36.58"/><rect class="cls-4" x="256.03" y="36.54" width="36.58" height="36.58"/><polyline points="146.31 36.54 182.88 36.54 182.88 73.11 146.31 73.11"/><polyline class="cls-2" points="146.31 -0.04 182.88 -0.04 182.88 36.54 146.31 36.54"/><polyline class="cls-3" points="146.31 -0.04 182.88 -0.04 182.88 36.54 146.31 36.54"/></pattern></defs><title>baturro</title><path id="path22" class="cls-5" d="M517.39,919.7c0,61.79-49,111.88-109.38,111.88S298.64,981.49,298.64,919.7s49-111.87,109.37-111.87S517.39,857.91,517.39,919.7" transform="translate(-295.24 -755.38)"/><path id="path24" class="cls-6" d="M303.09,947.41s-7.91-116.67,99.59-120l-7.5-12.5-58.34,19.58-16.66,19.17-14.59,27.92-8.33,32.5,2.5,21.66" transform="translate(-295.24 -755.38)"/><path id="path26" class="cls-7" d="M333.1,843.38A109.45,109.45,0,0,0,302,920.12h0a109.42,109.42,0,0,0,31.07,76.73h0A104.41,104.41,0,0,0,408,1028.59h0a104.41,104.41,0,0,0,74.91-31.74h0A109.42,109.42,0,0,0,514,920.12h0a109.45,109.45,0,0,0-31.07-76.74h0A104.45,104.45,0,0,0,408,811.64h0a104.45,104.45,0,0,0-74.91,31.74Zm-4.86,158.22a116.24,116.24,0,0,1-33-81.48h0a116.24,116.24,0,0,1,33-81.48h0A111.17,111.17,0,0,1,408,804.85h0a111.17,111.17,0,0,1,79.77,33.79h0a116.24,116.24,0,0,1,33,81.48h0a116.24,116.24,0,0,1-33,81.48h0A111.25,111.25,0,0,1,408,1035.39h0a111.25,111.25,0,0,1-79.77-33.79h0" transform="translate(-295.24 -755.38)"/><path id="path28" class="cls-8" d="M454.05,920.32l-16.66,2.5-13.2,7.77L401.41,926l-15.27-.64L375.3,922l-9.58-10.42-7.5-21.25-1.67-4.58-10-3.33-5.83-9.59-4.17-13.75L341.14,847,352,843.24l8.75,4.17,4.17,9.16,5-.83,1.66-2.08-1.66-9.59L369.47,832l2.5-16.67-.1-9.52,7.6-12.14,13.33-9.59,23.34-10L442,777.82l22.5,16.25,10.42,16.67,6.66,12.08,1.67,30-5,25.84-9.17,22.91-8.75,12.09" transform="translate(-295.24 -755.38)"/><path id="path30" class="cls-9" d="M439.89,992.4l-59.59,2.5v10l5,35-2.5,2.92-41.66-14.17-2.92-5-4.17-47.08-9.58-28.33-2.08-6.67,33.33-22.91,10.42-4.17,9.16,11.25,7.92,7.08,9.17,2.92.41,12.79,8.75,10.12,3.75,4.59,9.59-3.34-6.67,12.92,36.25,17.08-4.58,2.5" transform="translate(-295.24 -755.38)"/><path id="path32" class="cls-10" d="M341.14,847,352,843.24l8.75,4.17,4.17,9.16,5-.83,1.25-5-2.5-9.58,2.5-22.92-2.09-12.5,7.5-8.75,16.25-12.92-4.58-6.25L365.3,789.07l-9.58,7.5-5.42,11.67L342,819.49l-2.5,13.33L341.14,847" transform="translate(-295.24 -755.38)"/><path id="path34" class="cls-11" d="M358.22,807.82s6.25-15.41,31.25-22.91,1.25-5.42,1.25-5.42l-27.08,10.42-10.42,10.41-4.58,8.34,9.58-.84" transform="translate(-295.24 -755.38)"/><path id="path36" class="cls-11" d="M345.72,844.07S337,814.9,370.3,810.74l-1.25-5-22.91,5.42-6.67,21.66L341.14,847l4.58-2.92" transform="translate(-295.24 -755.38)"/><path id="path38" class="cls-12" d="M359.05,882.82l5.46-5.28a3.51,3.51,0,0,1,2.88,3.2c.41,2.92,1.66,29.17,19.58,43.33,1.63,1.3-13.33-2.08-13.33-2.08L360.3,901.16" transform="translate(-295.24 -755.38)"/><path id="path40" class="cls-12" d="M435.72,874.91s1-12.63,4.37-11.66a4.68,4.68,0,0,1,3.4,4.37s-8.26,5.34-7.77,7.29" transform="translate(-295.24 -755.38)"/><path id="path42" class="cls-12" d="M470.3,828.66s-6.87,1.45-7.5,7.5,7.5,1.25,8.75.83" transform="translate(-295.24 -755.38)"/><path id="path44" class="cls-12" d="M419.89,829.07s-9.17,1.25-9.17,7.09,10.42,5.41,13.33,2.91" transform="translate(-295.24 -755.38)"/><path id="path46" class="cls-12" d="M363.22,856.16s-15.84-9.59-17.5-.42-5.42,15.83,2.5,25.42l-5.42-1.67-5-12.92-1.66-12.5,9.58-10,10.83.84,6.25,5,.42,6.25" transform="translate(-295.24 -755.38)"/><path id="path48" class="cls-12" d="M370.72,829.91s7.08-36.67,42.92-43.75c29.5-5.84,45,1.25,50.83,7.91,0,0-26.25-31.25-51.25-21.66s-43.33,27.08-42.92,38.33c.71,19.16.42,19.17.42,19.17" transform="translate(-295.24 -755.38)"/><path id="path50" class="cls-12" d="M467.39,798.24s-12.09-.42-12.5,10.42a8.14,8.14,0,0,0,.83,3.33s9.58-10.84,15.42-5" transform="translate(-295.24 -755.38)"/><path id="path52" class="cls-12" d="M414.48,813.12s-2.09-16.63-16.26-7c-9.17,6.25-8.33,15-6.67,16.66s1.21,5,2.48,2.72.85-9.8,5.44-11.88,12.09-4.42,15-.54" transform="translate(-295.24 -755.38)"/><g id="chaleco"><path id="chaleco-2" data-name="chaleco" d="M324,942.54s55.86,1.37,57.29,22.05c1.81,26-3.84,29.47-3.84,29.47l26.7-2.13,28.13-2.35L463.57,991l9.39-3.37,5.53-15.17,11-36.69L483.74,925,463,912.15l-31.88,19.5-53.74-8.2-14.9-6.65Z" transform="translate(-295.24 -755.38)"/><circle class="cls-13" cx="122.15" cy="227.91" r="3.11"/><path class="cls-14" d="M418.51,981.06a2.34,2.34,0,0,1,1.05,2.27c0,1.07-3.79,2.72-1.88,2.16a2.24,2.24,0,0,0,2.56-2.2A2,2,0,0,0,418.51,981.06Z" transform="translate(-295.24 -755.38)"/><circle class="cls-13" cx="169.79" cy="226.38" r="3.11"/><path class="cls-14" d="M465.48,979.54a2.33,2.33,0,0,1,1,2.26,2.62,2.62,0,0,1-1.88,2.17,2.24,2.24,0,0,0,2.56-2.21A2,2,0,0,0,465.48,979.54Z" transform="translate(-295.24 -755.38)"/></g><path id="path54" class="cls-15" d="M375.3,925.74l-39.16,17.5s16.25,64.58,7.91,84.58l-5.83-2.08-.42-24.59L327,954.49l-4.58-12.92,40.83-27.5,12.08,11.67" transform="translate(-295.24 -755.38)"/><path id="path56" class="cls-15" d="M384.89,968.24" transform="translate(-295.24 -755.38)"/><path id="path56-2" data-name="path56" class="cls-15" d="M379.33,961.46" transform="translate(-295.24 -755.38)"/><path id="path54-2" data-name="path54" class="cls-11" d="M336.84,943.18s16.4,64.85,7.21,84.64l-5.83-2.08-.42-24.59L327,954.49l-4.58-12.92" transform="translate(-295.24 -755.38)"/><g id="castañuelas"><path class="cls-7" d="M510,916.54s-4.67,13.92-4.95,18.86c-.29,5.15,3,19.81,3,19.81h-2.83s-2-14.83-1.72-20.06c.28-4.85,5.5-19.17,5.5-19.17Z" transform="translate(-295.24 -755.38)"/><path class="cls-7" d="M505,916s-3.76,13.07-3.56,18c.2,5.15-3.32,19.76-3.32,19.76l2.83.05s2.27-14.8,2.07-20c-.2-4.85,3.51-17.61,3.51-17.61Z" transform="translate(-295.24 -755.38)"/><rect class="cls-16" x="500.37" y="934.24" width="6.13" height="1.75" rx="0.88" ry="0.88" transform="translate(-278.84 -764.02) rotate(1)"/><rect class="cls-16" x="500.37" y="936.33" width="6.13" height="1.75" rx="0.88" ry="0.88" transform="translate(-278.81 -764.02) rotate(1)"/><rect class="cls-16" x="500.37" y="938.42" width="6.13" height="1.75" rx="0.88" ry="0.88" transform="translate(-278.77 -764.02) rotate(1)"/><path class="cls-17" d="M542.56,966.89c7.38,11.1,5.4,26-4.41,33.24s-23.74,4.16-31.12-6.94a26.19,26.19,0,0,1-3.75-20.44c.38-1.59-10-4.57-9.71-8.2s8.17-12.84,11.07-15c2.45-1.82,15-4.1,17.82-4.66,2.1-.42,1.16,11,3.29,11.21A23.86,23.86,0,0,1,542.56,966.89Z" transform="translate(-295.24 -755.38)"/><circle class="cls-18" cx="227.45" cy="225.78" r="19.06"/><path class="cls-7" d="M540.89,999.1a21.52,21.52,0,0,1-2.19,1.86,20.76,20.76,0,0,1-17.15,3.55,24.92,24.92,0,0,1-15.25-10.78,27.28,27.28,0,0,1-4-21,21.51,21.51,0,0,0-2.86-1.7c-3.31-1.78-7.06-3.79-6.81-6.65.35-4,8.41-13.43,11.43-15.66,2.09-1.55,10.23-3.27,17.08-4.59l1.07-.21a1.41,1.41,0,0,1,1.2.32c1,.8,1.24,2.8,1.57,6,.17,1.63.45,4.31.89,4.9a24.77,24.77,0,0,1,17.39,11.2,27.46,27.46,0,0,1,4.42,18.8A23.54,23.54,0,0,1,540.89,999.1Zm-37.25-47.35c-3.43,3.32-8.92,10.24-9.16,13-.13,1.44,3.53,3.4,5.71,4.58,2.7,1.44,4.32,2.31,4,3.76a25.12,25.12,0,0,0,3.6,19.6,22.94,22.94,0,0,0,14,9.93,19.17,19.17,0,0,0,15.79-3.28,21.28,21.28,0,0,0,8.29-14.55,25.3,25.3,0,0,0-4.06-17.32h0a22.85,22.85,0,0,0-16.12-10.33c-1.84-.22-2.16-3.25-2.52-6.75a21.85,21.85,0,0,0-.73-4.42l-.86.16c-3.55.69-14.35,2.78-16.41,4.3A17,17,0,0,0,503.64,951.75Zm19-5.86h0Z" transform="translate(-295.24 -755.38)"/><rect class="cls-19" x="501.76" y="954.47" width="10.52" height="1.07" rx="0.53" ry="0.53" transform="translate(-733.58 -325.17) rotate(-33)"/><path class="cls-20" d="M525.24,955.45" transform="translate(-295.24 -755.38)"/><path class="cls-20" d="M503.26,972.1" transform="translate(-295.24 -755.38)"/><path class="cls-21" d="M530.48,980.88c3.13,13-3.81,26.26-15.51,29.73s-23.74-4.22-26.87-17.16a26.18,26.18,0,0,1,3.47-20.5c.9-1.36-7.87-7.72-6.33-11s12.07-9.27,15.53-10.3c2.92-.87,15.52,1.29,18.34,1.72,2.12.33-2.66,10.69-.74,11.66A23.88,23.88,0,0,1,530.48,980.88Z" transform="translate(-295.24 -755.38)"/><path class="cls-7" d="M517.89,1010.58a21.11,21.11,0,0,1-2.69,1,20.8,20.8,0,0,1-17.33-2.52,24.87,24.87,0,0,1-10.64-15.35,27.23,27.23,0,0,1,3.44-21.07,20.84,20.84,0,0,0-2.11-2.58c-2.5-2.8-5.34-6-4.12-8.58,1.71-3.67,12.49-9.74,16.09-10.8,2.5-.75,10.73.42,17.63,1.52l1.08.17a1.44,1.44,0,0,1,1,.71c.65,1.1.21,3.06-.57,6.17-.4,1.59-1.06,4.2-.84,4.9a24.79,24.79,0,0,1,12.51,16.48,27.47,27.47,0,0,1-2.28,19.18A23.52,23.52,0,0,1,517.89,1010.58Zm-18.81-57.24c-4.35,1.95-11.89,6.57-13,9-.61,1.31,2.16,4.4,3.81,6.25,2,2.28,3.27,3.66,2.45,4.9A25.11,25.11,0,0,0,489,993.19a23,23,0,0,0,9.8,14.13,19.14,19.14,0,0,0,16,2.32A21.34,21.34,0,0,0,527.5,998.8a25.24,25.24,0,0,0,2.1-17.66h0A22.8,22.8,0,0,0,518,965.92c-1.65-.84-.91-3.79-.06-7.21a21.26,21.26,0,0,0,.83-4.4l-.86-.14c-3.57-.57-14.44-2.3-16.9-1.57A17.11,17.11,0,0,0,499.08,953.34Zm19.91,1Z" transform="translate(-295.24 -755.38)"/><path class="cls-22" d="M508,977.58s-14-1.45-14.43-1c-4.07,4.4-2.57,14.06-2.57,14.06s16.07,12.13,7.19,13.45a19.19,19.19,0,0,0,9.55,2.55c10.64,0,18.65-7.85,19.27-19.28A24.15,24.15,0,0,0,525.24,977a21.34,21.34,0,0,0-7.13-8.18Z" transform="translate(-295.24 -755.38)"/><rect class="cls-19" x="496.51" y="956.88" width="10.52" height="1.07" rx="0.53" ry="0.53" transform="translate(-497.75 -617.97) rotate(-13)"/><polyline class="cls-20" points="196.52 216.96 211.32 218.1 222.88 208.83"/></g><path id="path58" class="cls-23" d="M379.47,997l-18.75.83,5.42,3.75,13.33,2.08" transform="translate(-295.24 -755.38)"/><path id="path60" class="cls-9" d="M443.64,992.82l15.41-.42,3.75,38.34L447,1032.82l-3.33-40" transform="translate(-295.24 -755.38)"/><path id="path64" class="cls-11" d="M458.22,989.9l-14.58,2.92,2.08,11.67c5.41,2.5,14.58-4.17,14.58-4.17" transform="translate(-295.24 -755.38)"/><path id="path66" class="cls-15" d="M456.74,918.92l31.06,19.74.84-10-22.09-20.42L458.64,917" transform="translate(-295.24 -755.38)"/><path class="cls-9" d="M378.32,925.22l38.12,28.56,9.63,19.33,2.08,17.53,29.28-.58s-.61-20.83-4.69-30.73c-.21-.5-3.75-21.41-3.75-21.41l-3.81-6.67,11.18,17.11,1.71-14.53L460.32,916l-12.43,10.43-47.4.24Z" transform="translate(-295.24 -755.38)"/><path id="path68" class="cls-24" d="M393.93,1074.91l-8.63-35L381,1014.08l-.71-19.18,39-2.07h25.13l2.55,44.79L449,1068l1.76,4.87-37.63,6.26-19.16-4.17" transform="translate(-295.24 -755.38)"/><path id="path70" class="cls-25" d="M438.22,992.4s-2.08,43.34,4.17,74.17a79.56,79.56,0,0,1-30.84,10l35-1.25,4.17-2.5-5-68.33-1.25-14.59" transform="translate(-295.24 -755.38)"/><path id="path72" class="cls-9" d="M464.2,1027.23l16.25-4.58,30.83-1.67,4.58-14.16-8.33-24.59L498,981l-13.34,4.17-12.79,6.24L465,990.15l-5.29,2.08" transform="translate(-295.24 -755.38)"/><path id="path74" class="cls-11" d="M463.22,1019.07s10.83-5,12.5-4.58l-4.58-22.92,5.41-2.08s3.75,21.66,3.75,24.16c0,0,23.33,1.25,25.42,1.25,0,0,5-9.58,3.75-19.58l4.58,13.33.42,7.5-6.67,10-7.5,1.67-12.5-.42-4.16-5.41-14.59,2.08-4.58,1.67" transform="translate(-295.24 -755.38)"/><path id="path100" class="cls-7" d="M414.48,813.12c-11.36-2.65-17,4.75-20.45,12.42-3.07-.74-1.85-4.92-1.07-7,2-5.59,10.22-13,16.92-12,2.88.44,6.78,3.07,4.6,6.66" transform="translate(-295.24 -755.38)"/><path id="path102" class="cls-7" d="M469.81,826.05l.54,0c2.56,5.33,4.78,11,8,15.69-2.17,5-16.42,9.52-16.2.45,3.08-1.35,8.4-.28,11.14-2-1.58-4.34-3.86-8-3.5-14.16" transform="translate(-295.24 -755.38)"/><path id="path104" class="cls-7" d="M420.29,826.19c2.43,4.46,3.23,9.15,6.69,12.53,1.56,1.51,4.59,3.37,3.09,7.59-.36,1-2.92,3.22-4.4,3.65-5.41,1.6-18,.33-13.75-6.41,4.47.21,10.49,2.9,13.83-.35-2.57-4.1-7.15-12.23-5.46-17" transform="translate(-295.24 -755.38)"/><path id="path106" class="cls-7" d="M467.78,871.56c-8.15,5.23-17.24,10.92-30.59,9.6-2.85-2.48-3.94-8-1.16-11.64,1.44,2.48.53,7,4.55,7.72,7.58,1.3,16.39-4.63,21.84-6.7,3.38-5.7-.29-7.79-3.33-11.46-6.23-7.51-14.59-16.82-14.29-28.07,2.52-1.82,2.74,2.79,3.1,3.63,3.25,7.62,11.44,17.36,17.42,23.87,1.46,1.61,3.88,3.15,4.15,4.21.77,3.09-2,6.78-1.69,8.84" transform="translate(-295.24 -755.38)"/><path id="path108" class="cls-7" d="M360.37,866.05c-2.56-1.46-3.17-7.88-6.16-8.06-4.29-.26-3.51,8.32-3.49,13.35-3-2.68-3.47-10.92-1.3-15.16-2.47-1.21-3.57,1.34-4.94,2.24,1.76-12.79,18.7-5.93,15.89,7.63" transform="translate(-295.24 -755.38)"/><path id="path110" class="cls-7" d="M473,876.88c-3.79,7.22-9.15,15.17-20.28,15.4-.23-2.33-.4-5.88,0-7.28,8.51-.82,13.76-5.15,20.27-8.12" transform="translate(-295.24 -755.38)"/><path id="path112" class="cls-7" d="M419.65,881.56c7.1,3.73,20.14,4.13,29.79,3.85a33.68,33.68,0,0,1,.52,7.3c-12.4.62-27.06-2.45-30.31-11.15" transform="translate(-295.24 -755.38)"/><path id="path114" class="cls-7" d="M418.3,888.52c4.91,12.32,21.78,10.91,36,10.57a7.55,7.55,0,0,1-3.67,4.17c-4.56,1.85-17.13,3.26-23.46-.1-4-2.13-6.59-6.95-8.79-9.78-1.06-1.37-6.35-4.85-.08-4.86" transform="translate(-295.24 -755.38)"/><path id="path118" class="cls-7" d="M498.18,992c-6.45,1.29-11,7.55-17.27,7.15,3.46-4.87,9.51-6.93,17.27-7.15" transform="translate(-295.24 -755.38)"/><path id="path120" class="cls-7" d="M501,1002.05c-5.25.55-11.43,1.4-16.76,1,2.53-3.86,12.25-2.53,16.76-1" transform="translate(-295.24 -755.38)"/><path id="path122" class="cls-7" d="M502.85,1010.75c-5.91.13-13.25,0-18.87-.46,3.32-3.57,15-1.33,18.87.46" transform="translate(-295.24 -755.38)"/><path id="path124" class="cls-11" d="M456.07,1034.56c.85,7.42,3.79,14.94,3.42,23.06-3.27,1.1-5.14,2.07-9.52,2.06-.31-6.9-1.23-17.46-1-24,2.16.14,5.33-1.54,7.06-1.08" transform="translate(-295.24 -755.38)"/><path id="path130" class="cls-7" d="M449,1035.64c-.27,6.58.65,17.14,1,24,4.38,0,6.25-1,9.52-2.06.37-8.12-2.57-15.64-3.42-23.06C454.34,1034.1,451.17,1035.78,449,1035.64ZM380.87,998.2c2.89,26.53,7.07,48.83,14.73,72.32,17,5.17,37.53,5.62,52.57,1-2.76-13.26-1.56-29.4-3.17-43.55-1.22-10.64-.6-21.34-2.27-32.19C424.51,992,398.75,994.86,380.87,998.2ZM447,995.91c-.15,11.39.51,22.63,1.38,34,4.38-.66,7.35-1.1,11.41-2-1.32-11-1.16-23.34-3.84-33.05C452.88,994.94,450.14,994.87,447,995.91Zm22.2-1.84c-2.08-.47-4.5,0-6.48,0,.93,9.29,3.19,19.54,4,29.29,3.12.09,4.79-1.38,7.36-1.87.13-8.56-.75-20.35-4.87-27.44Zm33.6,30.71c6.51-1.58,10.6-9.55,8.78-17.74-1.22-5.5-3.4-15.85-5.72-19.37-1.72-2.6-6.39-6-10.11-3.63-6.06,3.88-16.73,5-21.15,9.7,2.22,7.38,2.9,17.51,3.82,26.85,7.57.47,16.88-2.08,23.17.63-4.39,1.42-10.09,1.43-13.89,3.51,3.1,1.5,10.37,1.19,15.1,0ZM379.92,925.34c-2.05,2.08,28.21,19.14,39.73,30.86,7,7.15,8.65,23.66,8.65,31.79,0,1.61,16.88.27,16.88.27s-2.1-22.53-4.77-31.22c-5.67-18.41-14.5-22.93-14.5-22.93L418,954.62l-3.21-2.82,9.39-18.14s-17.88-4.36-22.37-5.2C392.8,926.78,383.44,927.79,379.92,925.34Zm45.53,2.6c0,.35-1.58-.65-1.65-.36,4.64,3.62,7.37,3.32,13.69,3,2.85-2.07,4-3,7-4.92C437.64,926.28,432.21,931,425.45,927.94Zm-51.6.94c-1.14-.81-8.8-10.78-9.85-10.36-13.87,5.46-26.83,14.92-38.42,23.86,11.05,23.71,15.51,52.75,16.29,80.74,12.66,5.92,23.77,14.46,40.95,15.35-2-14.06-3.8-26.61-4.93-39.84-4.32-1.82-10.51.08-14.55-.57,0-4.86,6.17-2.13,6.69-5.4.39-2.48-3.41-2.66-2.18-6.56,3.16,1.15,4.82,3.68,8.19,4.63,2-4.45,3.17-17,1.62-25.78-.8-4.48-7.57-13.37-26.25-16.09-11.06-1.6-26.42-4.41-26.42-4.41v-2.88s15.68,1.95,27.92,4.21c24.16,4.47,28,14,28.91,19.17.21,4.9-.5,23.83-1,27.32a330.67,330.67,0,0,1,43-3.51c.66-3,1.78-17.93-9.32-31.72-7.76-9.63-38.39-26.57-40.63-28.16Zm83.73,24.23-12.72-20.78s-4.73,16.42-4.7,16.5c5.15,19.26,3.41,12.63,7,39.2,2.71-1.69,3.71-1.92,8.16-1.75.16,0-1.6-12.8-4.29-26.79-.71-3.71-2-20.4-2-20.4l3.11,4.74s-.62,1.59,2.19,15.59c3,14.75,5.31,26.92,5.44,26.92,2.51,0,6.88.34,8.73-.39,2.11-.83,3.63-5.65,5.22-9.51,4.39-10.6,9-24,11-34.1.46-2.3,1.72-7.33,1.44-9.38-.51-3.67-5.49-6.4-8-8.67-4.67-4.2-7.61-7.89-12.49-11.82-2.47,2.63-19.79,17.24-19.79,17.24l10.57,18.1,3.78-31.11s1.27-1.16,1.3-.7C461.85,922.56,457.58,953.11,457.58,953.11ZM347.42,817.26c-5.5,6.06-4.35,17.41-3.68,25.48,9.95-6.26,23.15.5,23,11.15,4.75-.13,1.77-5.94.92-9.68-2.81-12.22,4.73-25.49.34-36.67a30.22,30.22,0,0,0-20.61,9.72Zm39.39-35.16c-12.46,3.54-28.43,12.59-33.55,23.79,4-.58,6.71-2.58,10.63-2.82,1.48-.1,3.41.62,5.11.19,3.39-.84,6.25-8.43,8.8-11.25s5.48-3.94,7.53-6.46c1.32-.63,3.26-.59,3.34-2.56C388.1,782.38,387.5,781.91,386.81,782.1Zm64.88,3.33c-12.93-7.3-34.83-12.79-48.59-5.93C392,785,377,794.19,371.87,805.8c4.78,11.2-1.42,21.47-1.81,32.84-.21,6.05,2.85,11.33,3.08,17.92-1.63,2.7-6.63,3-10.09,2.85-1.17-5.83-3.2-12.38-9.2-13-8.5-.93-14.7,6.1-15.09,13.44-.46,8.64,6.63,23,16.68,22,3.88-.38,4.84-4.27,9.07-4.23,2.29,4.57-3.54,6-4.14,9.28a25.61,25.61,0,0,0,.86,5.69c1.82,7.54,5.89,17.3,9.9,23,4.86,7.89,20.32,9.68,31.07,10.4,11.25,2.37,17,2.12,21.6,3.2-6.23-1.32-24.17-14.4-28.17-19.4-4.89-5.38-9.84-11.16-10.09-18.19,9.24,12.81,16.86,24,33.65,29.62,12.7,4.26,27.54-2,37.3-8.8,4.05-2.85,6.46-7.37,9.34-11.51,10.77-15.49,15.8-37.61,14.7-59-.46-8.84-.44-17.65-3.41-23.6-3.1-6.22-13.58-11.78-19.72-6.16-1.14-6,5.11-9.78,12.44-7.61-5.23-6.74-10.72-14.85-18.15-19Zm24.1,199.46c10.11-5,29-13.53,35.34,0a115,115,0,0,1,6.29,18.59c1.71,7.27-1.85,22.55-9.33,25-6.6,2.16-14.3,2-22.25.43a12.16,12.16,0,0,1-2.71-3.55c-5.68-.22-11,.3-15.48,2.64.43,4.2-2.41,4.87-5.08,5.74-2,7.82,3.95,18,2.54,25.18-1,5.08-7.27,5.87-11.87,6.82a38.54,38.54,0,0,0,.52,7.57c-1.05,3.88-5.77,6.08-10.24,6.62-14.7,1.77-37,2.56-51.15-2.52-3.95-9.68-7.06-21.45-10.34-32.5-13.79,1.47-24.94-6-35.46-10.81-3.64-1.69-8.67-2.62-10-5.52s-.78-8.18-1.11-13.26c-.83-13-1.54-25.48-5-38.76-1.54-6-4.22-11.22-6.09-17-1.73-5.32-4.75-11.9-5.53-17.21-1.17-7.86,6.24-8.3,11-11.71,7.32-5.27,13.07-8.19,21-12.94,2.35-1.41,9.43-5,10.24-6.62,1.6-3.26-2.75-7.85-3.91-10.4a31.46,31.46,0,0,1-3.07-11.45,22.1,22.1,0,0,1-14.74-9.47c-5-7.39-8.53-21.06-4.17-31.45.34-.82,2-2.43,2.3-3.69.49-2.48-.94-5.77-1-8.4-.45-13.52,2.29-25.16,11.39-29.23,3.69-14.71,16.91-19.61,29.36-26.92,4.65-2.73,9.79-4.48,15.09-6.43,19-7,48.17-5.67,64,6.26,6.69,5.06,17.38,15.74,21.21,23.48,10.1,20.42,9.38,54.55,2.32,79.39a80.22,80.22,0,0,1-4.25,12.24c-1.34,2.8-5.51,8.4-5,10.87s9.51,9.37,11.43,11.23c3.47,3.35,10.06,7.79,10.6,12,.57,4.49-2,10.64-3.28,15-4.32,14.47-8.54,27.84-13.45,40.75" transform="translate(-295.24 -755.38)"/><path class="cls-8" d="M387.82,910.83s-.3-11,1.87-8.28a82.35,82.35,0,0,0,8.57,9.92c8.46,7.93,20.32,12,24.73,12.88,6.85,1.32,8.73.94,17.08-.6,5.27-1,19.45-9.37,19.45-9.37s-5.13,4.57-7.51,6.37c-.79.6-7.93,6.84-7.93,6.84l-5.27,18.27s-7-13.48-11.61-15c-.37-.13-1.93-.84-1.93-.84l-24.58-5.32Z" transform="translate(-295.24 -755.38)"/><path id="path132" class="cls-12" d="M408.35,884.71c.55-.73,3.57-1.84,7.79.2,0,0-5,.83-4.59,9.17l-2.08-.42s-2.16-7.56-1.12-8.95" transform="translate(-295.24 -755.38)"/><g id="cachirulo"><path class="cls-26" d="M339.47,818.78s-12.73,8.75-.73,24.59c1.39,1.84,5.61-2,9.9-2.56a24.37,24.37,0,0,1,10.75,1.35l1.78-13.5Z" transform="translate(-295.24 -755.38)"/><path class="cls-27" d="M359.83,838c118.75-37,122.58-11.93,122.58-11.93s-1.73-21.2-8.71-36.93c-1.9-4.28-7.29-8.76-7.29-12.76,0-8.39-26.81-19.85-26.81-19.85s-20.86,14.42-29.72,20.24c-7.54,5-44.06,35.82-49.25,43.58C351.05,834.65,358,838.55,359.83,838Z" transform="translate(-295.24 -755.38)"/><path class="cls-7" d="M358.43,831.19c-12.86.14-17.32-2.66-17.32-2.66s2.5,3.67,17.3,4.94C358.75,833.5,358.59,831.19,358.43,831.19Z" transform="translate(-295.24 -755.38)"/><path class="cls-7" d="M358.46,832.58c-12.59,2.59-17.5.69-17.5.69s3.15,3.13,17.92,1.55C359.22,834.78,358.61,832.55,358.46,832.58Z" transform="translate(-295.24 -755.38)"/><path class="cls-7" d="M368,826.87c22.83-25.34,61.73-43.53,61.73-43.53s-28.5,7.8-62.24,40C366.83,824,367.74,827.18,368,826.87Z" transform="translate(-295.24 -755.38)"/><path class="cls-7" d="M369.35,826.88c14.46-14,38.08-23.06,38.08-23.06s-17.07,3.42-38.23,21C368.77,825.14,369.17,827.05,369.35,826.88Z" transform="translate(-295.24 -755.38)"/><path class="cls-28" d="M378.78,838c2.75,4.65,14.4,19-.15,14-6.35-2.18-18-9.85-18-15.26s0-5.38,6.75-5.38S374.88,831.35,378.78,838Z" transform="translate(-295.24 -755.38)"/><path class="cls-29" d="M337.79,796.58s-4.56,12.08,3.82,22.91A49.41,49.41,0,0,0,363,835.33l2.39-2.38s-2.85-21.8-7.81-26.6C354.18,803.07,337.79,796.58,337.79,796.58Z" transform="translate(-295.24 -755.38)"/><path class="cls-7" d="M361.89,830.6c8.44,9.7,14.64,13.34,14.64,13.34s-5.08-.91-16.16-11.64C360.13,832.06,361.78,830.48,361.89,830.6Z" transform="translate(-295.24 -755.38)"/><path class="cls-30" d="M366.13,834l-6.3,4a4.5,4.5,0,0,1-6.07-1.86l-1.32-2.48a4.51,4.51,0,0,1,1.85-6.07l5.38-2.86c2.18-1.16,7.75-1.83,8.9.35l1.33,2.48C371.05,829.72,368.31,832.87,366.13,834Z" transform="translate(-295.24 -755.38)"/></g></svg>