<?xml version="1.0" encoding="utf-8"?>
<!-- Generator: Adobe Illustrator 24.1.0, SVG Export Plug-In . SVG Version: 6.00 Build 0)  -->
<svg version="1.1" id="Calque_1" xmlns="http://www.w3.org/2000/svg" xmlns:xlink="http://www.w3.org/1999/xlink" x="0px" y="0px"
	 viewBox="0 0 922 1280" style="enable-background:new 0 0 922 1280;" xml:space="preserve">
<style type="text/css">
	.st0{fill-rule:evenodd;clip-rule:evenodd;fill:#D33833;}
	.st1{fill:#EF3D3A;}
	.st2{fill:#231F20;}
	.st3{fill-rule:evenodd;clip-rule:evenodd;fill:#231F20;}
	.st4{fill-rule:evenodd;clip-rule:evenodd;fill:#6D6B6D;}
	.st5{fill-rule:evenodd;clip-rule:evenodd;fill:#F0D6B7;}
	.st6{fill-rule:evenodd;clip-rule:evenodd;fill:#335061;}
	.st7{fill-rule:evenodd;clip-rule:evenodd;fill:#F7E4CD;}
	.st8{fill:#F7E4CD;}
	.st9{display:none;fill-rule:evenodd;clip-rule:evenodd;fill:#F7E4CD;}
	.st10{fill-rule:evenodd;clip-rule:evenodd;fill:#49728B;}
	.st11{fill-rule:evenodd;clip-rule:evenodd;fill:#A3BADB;}
	.st12{fill-rule:evenodd;clip-rule:evenodd;fill:#7B96B7;}
	.st13{fill-rule:evenodd;clip-rule:evenodd;fill:#FFFFFF;}
	.st14{fill-rule:evenodd;clip-rule:evenodd;fill:#DCD9D8;}
	.st15{fill:#FFFFFF;}
	.st16{fill-rule:evenodd;clip-rule:evenodd;fill:#81B0C4;}
	.st17{fill-rule:evenodd;clip-rule:evenodd;fill:#1D1919;}
	.st18{fill-rule:evenodd;clip-rule:evenodd;fill:#EF3D3A;}
	.st19{fill:#1E1E1C;}
	.st20{clip-path:url(#SVGID_2_);}
	.st21{fill:#E61F3D;}
</style>
<g id="g3393_1_">
	<path id="path22_1_" class="st0" d="M908.8,619c0,252.8-200.3,457.7-447.5,457.7c-247.1,0-447.4-204.9-447.4-457.7
		c0-252.8,200.3-457.7,447.4-457.7C708.5,161.3,908.8,366.2,908.8,619"/>
	<path id="path24_1_" class="st1" d="M32.1,732.3c0,0-32.4-477.3,407.4-490.9l-30.7-51.1l-238.6,80.1L102,348.8L42.4,463L8.3,596
		l10.2,88.6"/>
	<path id="path26_1_" class="st2" d="M154.9,306.8C76.4,387.1,27.8,498,27.8,620.7l0,0c0,122.7,48.6,233.6,127.1,313.9l0,0
		c78.5,80.3,186.8,129.9,306.5,129.9l0,0c119.7,0,227.9-49.6,306.5-129.9l0,0c78.5-80.3,127.1-191.2,127.1-313.9l0,0
		c0-122.7-48.6-233.6-127.1-313.9l0,0C689.3,226.5,581,176.9,461.3,176.9l0,0C341.7,176.9,233.4,226.5,154.9,306.8L154.9,306.8z
		 M135,954C51.6,868.7,0,750.8,0,620.7l0,0c0-130.1,51.6-248,135-333.3l0,0c83.4-85.3,198.9-138.2,326.3-138.2l0,0
		c127.5,0,242.9,52.9,326.3,138.2l0,0c83.4,85.3,135,203.3,135,333.3l0,0c0,130.1-51.6,248-135,333.3l0,0
		c-83.4,85.3-198.9,138.2-326.3,138.2l0,0C333.9,1092.3,218.4,1039.4,135,954L135,954"/>
	
		<ellipse transform="matrix(0.9451 -0.3267 0.3267 0.9451 -118.6854 87.6114)" class="st3" cx="201.4" cy="397.1" rx="117.7" ry="154"/>
	<path class="st4" d="M129.5,450.1c-24.2-70.1-1.7-141.6,50.5-159.6c27-9.3,56.6-2.5,82.2,16c-29.5-33.1-69.3-48.6-104.7-36.4
		c-52.1,18-74.7,89.5-50.5,159.6c11.7,33.8,32.2,61.1,56,78.3C149.1,492.3,137.4,472.6,129.5,450.1z"/>
	<path id="path28_1_" class="st5" d="M647.2,614.1l-65.7,17.7l-88.6,13.7l-63.1-1.7l-58-1.7l-44.3-13.6l-39.2-42.6l-30.7-86.9
		l-6.8-18.8l-40.9-13.6l-23.9-39.2l-17-56.3l18.8-49.4l44.3-15.3l35.8,17l17,37.5l20.5-3.4l6.8-8.5l-6.8-39.2l-1.7-49.4l10.2-68.2
		l-0.4-38.9l31.1-49.7l54.5-39.2l95.5-40.9l105.7,15.3l92,66.5l42.6,68.2l27.3,49.4l6.8,122.7l-20.5,105.7l-37.5,93.8l-35.8,49.4
		L647.2,614.1z"/>
	<path id="path30_1_" class="st6" d="M591.7,916.4L348,926.6v40.9l20.5,143.2l-10.2,11.9l-170.5-58l-11.9-20.5l-17-192.6
		l-39.2-115.9l-8.5-27.3l136.4-93.8l42.6-17l46,40.4l23.9,34.6l37.5,11.9l17,5.1l20.5,88.6l15.3,18.8l39.2-13.6l-27.3,52.8
		l148.3,69.9L591.7,916.4"/>
	<path id="path32_1_" class="st3" d="M187.8,321.5l44.3-15.3l35.8,17l17,37.5l20.5-3.4l5.1-20.5l-10.2-39.2l10.2-93.8l-8.5-51.1
		l30.7-35.8l66.5-52.8l-18.8-25.6l-93.8,46l-39.2,30.7L225.3,163l-34.1,46l-10.2,54.5L187.8,321.5"/>
	<path id="path34_1_" class="st4" d="M257.6,161.3c0,0,25.6-63.1,127.8-93.8s5.1-22.2,5.1-22.2L279.8,88l-42.6,42.6l-18.7,34.1
		L257.6,161.3"/>
	<path id="path36_1_" class="st4" d="M206.5,309.6c0,0-35.8-119.3,100.6-136.4l-5.1-20.5l-93.7,22.2l-27.3,88.6l6.8,58L206.5,309.6"
		/>
	<path id="path38_1_" class="st7" d="M261.1,468.1l22.3-21.6c0,0,10.1,1.2,11.8,13.1c1.7,11.9,6.8,119.3,80.1,177.3
		c6.7,5.3-54.5-8.5-54.5-8.5l-54.5-85.2L261.1,468.1z"/>
	<path id="path40_1_" class="st7" d="M574.7,435.7c0,0,4-51.7,17.9-47.7c13.9,4,13.9,17.9,13.9,17.9S572.7,427.8,574.7,435.7"/>
	<path id="path42_1_" class="st8" d="M716.2,246.5c0,0-28.1,5.9-30.7,30.7c-2.6,24.8,30.7,5.1,35.8,3.4"/>
	<path id="path44_1_" class="st8" d="M509.9,248.2c0,0-37.5,5.1-37.5,29c0,23.9,42.6,22.2,54.5,11.9"/>
	<path id="path46_1_" class="st7" d="M278.1,359c0,0-64.8-39.2-71.6-1.7c-6.8,37.5-22.2,64.8,10.2,104l-22.2-6.8l-20.5-52.8
		l-6.8-51.1l39.2-40.9l44.3,3.4l25.6,20.5L278.1,359"/>
	<path id="path48_1_" class="st9" d="M308.8,251.6c0,0,29-150,175.6-179c120.7-23.9,184.1,5.1,208,32.4c0,0-107.4-127.8-209.7-88.6
		C380.4,55.6,305.4,127.2,307.1,173.2C310,251.6,308.8,251.6,308.8,251.6"/>
	<path id="path50_1_" class="st7" d="M704.2,122.1c0,0-49.4-1.7-51.1,42.6c0,0,0,6.8,3.4,13.6c0,0,39.2-44.3,63.1-20.5"/>
	<path id="path52_1_" class="st7" d="M487.8,182.9c0,0-8.5-68-66.5-28.5c-37.5,25.6-34.1,61.4-27.3,68.2c6.8,6.8,5,20.6,10.2,11.1
		c5.2-9.4,3.5-40.1,22.2-48.6C445.1,176.6,475.9,167.1,487.8,182.9"/>
	<path id="path54_1_" class="st10" d="M167.3,715.3c0,0,66.5,264.2,32.4,346l-23.9-8.5l-1.7-100.6l-44.3-190.9l-18.8-52.8l167-112.5
		l58,42.1"/>
	<path id="path56_1_" class="st10" d="M344,789.8l22.7,27.7v102.3h-27.3c0,0-3.4-71.6-3.4-80.1c0-8.5,3.4-39.2,3.4-39.2"/>
	<path id="path58_1_" class="st10" d="M344.6,935.2l-76.7,3.4l22.2,15.3l54.5,8.5"/>
	<path id="path60_1_" class="st6" d="M607.1,918.1l63.1-1.7l15.3,156.8l-64.8,8.5L607.1,918.1"/>
	<path id="path62_1_" class="st6" d="M624.1,918.1l95.5-5.1c0,0,39.2-98.9,39.2-104s34.1-143.2,34.1-143.2l-76.7-80.1l-15.3-13.6
		L659.9,613v158.5L624.1,918.1"/>
	<path id="path64_1_" class="st10" d="M666.7,906.2l-59.7,11.9l8.5,47.7c22.2,10.2,59.7-17,59.7-17"/>
	<path id="path66_1_" class="st10" d="M668.5,607.9l119.3,88.6l3.4-40.9l-90.3-83.5L668.5,607.9"/>
	<path id="path68_1_" class="st11" d="M403.7,1253.9l-35.3-143.2l-17.6-105.7l-2.9-78.4l159.7-8.5l99.4,0l-9,179l15.3,138.1
		l-1.7,25.6L482.1,1271L403.7,1253.9"/>
	<path id="path70_1_" class="st12" d="M584.9,916.4c0,0-8.5,177.3,17,303.4c0,0-51.1,32.4-126.1,40.9l143.2-5.1l17-10.2l-20.5-279.5
		l-5.1-59.7"/>
	<path id="path72_1_" class="st13" d="M688.4,1059.6l66.5-18.8L881,1034l18.8-58l-34.1-100.6l-39.2-5.1l-54.5,17L719.6,913
		l-27.8-5.1l-21.7,8.5"/>
	<path id="path74_1_" class="st14" d="M687.2,1025.5c0,0,44.3-20.5,51.1-18.7L719.6,913l22.2-8.5c0,0,15.3,88.6,15.3,98.9
		c0,0,95.5,5.1,104,5.1c0,0,20.5-39.2,15.3-80.1l18.8,54.5l1.7,30.7l-27.3,40.9l-30.7,6.8l-51.1-1.7l-17-22.2l-59.7,8.5l-18.8,6.8"
		/>
	<path id="path76_1_" class="st15" d="M620.2,904.5L582.7,809l-39.2-56.3c0,0,8.5-23.9,20.5-23.9c11.9,0,39.2,0,39.2,0l37.5,13.6
		l-3.4,63.1L620.2,904.5"/>
	<path id="path78_1_" class="st14" d="M627.5,872.1c0,0-47.7-92-47.7-105.7c0,0,8.5-20.5,20.5-15.3c11.9,5.1,37.5,18.7,37.5,18.7
		l-8.4-62.6l-49.5,18.3l-51.7-9.6l78.9,171.5l13.6,1.7"/>
	<path id="path100_1_" class="st3" d="M487.8,182.9c-46.5-10.8-69.5,19.4-83.6,50.8c-12.6-3-7.6-20.1-4.4-28.9
		c8.3-22.9,41.8-53.3,69.2-49.2C480.8,157.5,496.7,168.3,487.8,182.9"/>
	<path id="path106_1_" class="st3" d="M705.8,422c-33.3,21.4-70.5,44.7-125.1,39.3c-11.7-10.1-16.1-32.7-4.8-47.6
		c5.9,10.1,2.2,28.8,18.6,31.6c31,5.3,67.1-19,89.3-27.4c13.8-23.3-1.2-31.9-13.6-46.9c-25.5-30.7-59.7-68.8-58.4-114.8
		c10.3-7.5,11.2,11.4,12.7,14.8c13.3,31.2,46.8,71,71.3,97.7c6,6.6,15.9,12.9,17,17.2C715.9,398.5,704.5,413.6,705.8,422"/>
	<path class="st2" d="M561.3,295.3c-4.2-2.2-9.3-1.1-12.3,2.4c-3.1-4.1-7.2-7.2-10-10c-14.2-13.8-17.4-33-27.4-51.2
		c-6.9,19.6,11.8,52.8,22.3,69.6c-13.7,13.3-38.3,2.3-56.6,1.4c-13,20.5,14.5,27.7,29.8,28.6c11,0.7,20.7-0.6,30.8-4.8
		c9.7-4.1,19.2-10,25.3-18.8c0.8-1.2,1.6-2.4,2.2-3.7C568.1,303.9,566.2,297.8,561.3,295.3z"/>
	<path id="path108_1_" class="st3" d="M266.4,399.5c-10.4-6-12.9-32.2-25.2-33c-17.5-1.1-14.3,34.1-14.3,54.6
		c-12.1-11-14.2-44.7-5.3-62c-10.1-5-14.6,5.5-20.2,9.1C208.6,316,278,344,266.4,399.5"/>
	<path class="st3" d="M651.8,533.8c0,0-3.9,0.2-10.5-2.2c-6.6-2.4-14.9-10.9-29.6-12.9c-9.9-1.3-19.1-0.9-26,0.9
		c-6-3.5-14.7-6.3-24.6-7.7c-11.2-1.5-28.6,0.2-39.1-0.5c-4.1-0.3-7.8-2.3-10.3-5.5c-3.3-4.2-6.1-9.1-8.3-14.6
		c-25.6,0-4,14.3,0.3,19.9c9,11.6,19.5,31.3,36,40c25.9,13.8,82.7,8.5,96,0.4c13.3-8.1,15-17.1,15-17.1h0L651.8,533.8z"/>
	<path class="st2" d="M752.1,281.6c-4.4-2.3-9.6-1-12.5,2.7c-8.5-15.4-15.5-32.3-23.2-48.4c-0.7,0-1.5-0.1-2.2-0.1
		c-1.5,25.1,7.8,40.2,14.3,57.9c-11.2,7-32.9,2.7-45.6,8.2c-0.6,0.3,0.4,5.8,0.5,6.5c0.4,2,1.1,3.9,2.1,5.7c1.8,3.2,4.7,5.6,8.1,7.1
		c11.3,4.9,24.5,1.2,35.2-3.5c10.3-4.4,20.5-11.1,26.4-20.8c0.4-0.6,0.7-1.2,1.1-1.9C758.9,290.2,757,284.1,752.1,281.6z"/>
	<path id="path116_1_" class="st16" d="M703.4,769.5c-23.6,40.4-46.1,81.8-74.1,117.4c11.7-34.5,16.7-92.1,18.5-136.1
		C672.4,739.3,693.4,753.4,703.4,769.5"/>
	<path id="path118_1_" class="st3" d="M830.2,914.6c-26.4,5.3-44.9,30.9-70.7,29.3C773.7,923.9,798.5,915.5,830.2,914.6"/>
	<path id="path120_1_" class="st3" d="M841.9,955.9c-21.5,2.3-46.8,5.8-68.6,4C783.6,944,823.4,949.5,841.9,955.9"/>
	<path id="path122_1_" class="st3" d="M849.3,991.5c-24.2,0.5-54.2,0-77.2-1.9C785.7,975,833.6,984.1,849.3,991.5"/>
	<path id="path124_1_" class="st12" d="M658,1088.9c3.5,30.4,15.5,61.1,14,94.3c-13.4,4.5-21,8.4-38.9,8.4
		c-1.3-28.2-5-71.4-3.9-98.4C637.9,1093.8,650.9,1087,658,1088.9"/>
	<path id="path128_1_" class="st16" d="M473.8,830.1c7.6-32.9,37.4-50,64.4-68.1c27.9,35.4,44.9,81,63.6,125
		C557.6,873.6,512.5,852,473.8,830.1"/>
	<path id="path130_1_" class="st3" d="M629.1,1093.3c-1.1,26.9,2.6,70.1,3.9,98.4c17.9,0,25.6-3.9,38.9-8.4
		c1.5-33.2-10.5-64-14-94.3C650.9,1087,637.9,1093.8,629.1,1093.3z M350.3,940.1c11.8,108.5,28.9,199.8,60.3,295.9
		c69.6,21.1,153.5,23,215,3.9c-11.3-54.2-6.4-120.3-13-178.2c-5-43.5-2.4-87.3-9.3-131.7C528.9,914.5,423.5,926.4,350.3,940.1z
		 M621,930.7c-0.6,46.6,2.1,92.6,5.6,139.3c17.9-2.7,30-4.5,46.7-8.1c-5.4-44.9-4.7-95.5-15.7-135.2
		C644.9,926.8,633.7,926.5,621,930.7z M711.8,923.2c-8.5-1.9-18.4-0.1-26.5,0.1c3.8,38,13.1,79.9,16.3,119.8
		c12.8,0.4,19.6-5.6,30.1-7.7C732.3,1000.5,728.7,952.2,711.8,923.2L711.8,923.2z M849.3,1048.8c26.6-6.5,43.4-39.1,35.9-72.5
		c-5-22.5-13.9-64.9-23.4-79.3c-7-10.6-26.1-24.6-41.3-14.8c-24.8,15.9-68.4,20.5-86.5,39.7c9.1,30.2,11.9,71.6,15.6,109.8
		c31,1.9,69.1-8.5,94.8,2.6c-18,5.8-41.3,5.9-56.8,14.4C800.2,1054.8,829.9,1053.5,849.3,1048.8L849.3,1048.8z M601.8,887
		c-18.7-44-35.7-89.5-63.6-125c-27,18.1-56.8,35.2-64.4,68.1C512.5,852,557.6,873.6,601.8,887z M647.9,750.8
		c-1.8,44-6.8,101.7-18.5,136.1c28-35.6,50.5-77,74.1-117.4C693.4,753.4,672.4,739.3,647.9,750.8z M595.6,732.2
		c0,0-41.2-12.1-55-17.9c-3.2,3.5-9.2-1.9-12.5,1.5c30.4,36.7,69.1,122.1,92.6,165.2c12.6-41.4,11.2-86.7,13.9-131.9
		C629.4,665.7,595.6,732.2,595.6,732.2z M281.3,614.1c-56.7,22.4-109.8,61.1-157.2,97.6c45.2,97,63.4,215.8,66.7,330.3
		c51.8,24.2,97.2,59.1,167.5,62.8c-8.1-57.5-15.6-108.8-20.2-163c-17.7-7.4-43,0.3-59.5-2.3c-0.1-19.9,25.2-8.7,27.3-22.1
		c1.6-10.1-14-10.9-8.9-26.8c12.9,4.7,19.7,15.1,33.5,19c12.6-27.5-0.2-76.2,1.6-99.3c0.3-4.3,2.2-23.9,11.8-20.5
		c8.6,3-0.5,52.2,0.4,73.9c0.9,20.1-2.4,39.5,5.7,52.1c67.9-9.2,136.9-15.2,210.3-17.2c-16.2-6.9-35.4-13.5-56.4-25.4
		c-11.4-6.4-47.4-19.8-50.7-30.7c-5.3-17.3,13.8-26.5,17-41.3c-34.3,18.7-41-17.9-49.1-43.8c-5-19.8-2.9-25.9-11.9-33.6
		c-10.7-9-33.4-19.6-48.7-48c-10.6-19.7-23.8-33.5-36.4-43C303.3,616.9,284,613.1,281.3,614.1z M697.2,589.4l-8.1,11.9l38.4,117.9
		l-25.1,20.4c2.9,10.4,12.7,14.4,16.7,23.8c-26.4,47.3-55.7,91.4-82.6,138.1c20-12.5,48.6-2.2,72.2-11.6
		c8.6-3.4,14.8-23.1,21.4-38.9c17.9-43.4,36.8-98.1,45.1-139.5c1.9-9.4,7-30,5.9-38.4c-2.1-15-22.5-26.2-32.8-35.5
		C729.1,620.6,717.1,605.5,697.2,589.4 M213.5,199.9c-22.5,24.8-17.8,71.2-15.1,104.2c40.7-25.6,94.7,2,94.2,45.6
		c19.4-0.5,7.3-24.3,3.7-39.6c-11.5-50,19.4-104.3,1.4-150C262.9,162.8,234.3,177,213.5,199.9L213.5,199.9z M374.6,56.1
		c-51,14.5-116.3,51.5-137.3,97.3c16.2-2.4,27.5-10.5,43.5-11.6c6-0.4,14,2.5,20.9,0.8c13.9-3.4,25.5-34.5,36-46.1
		c10.2-11.3,22.4-16.1,30.8-26.4c5.4-2.6,13.3-2.4,13.6-10.5C379.9,57.2,377.4,55.3,374.6,56.1z M640,69.7
		c-52.9-29.9-142.5-52.3-198.8-24.3C395.8,68.1,334.4,105.5,313.5,153c19.6,45.8-5.8,87.8-7.4,134.3c-0.9,24.8,11.7,46.4,12.6,73.3
		c-6.7,11-27.1,12.4-41.3,11.6c-4.8-23.8-13.1-50.6-37.7-53.3c-34.7-3.8-60.1,24.9-61.7,55c-1.9,35.3,27.1,93.9,68.2,89.8
		c15.9-1.6,19.8-17.5,37.1-17.3c9.4,18.7-14.5,24.6-16.9,38c-0.6,3.5,2,17,3.5,23.3c7.5,30.9,24.1,70.8,40.5,94.3
		c20.8,29.8,154.3,43.7,194.1,40.1c0,0-76.5-44.6-93.9-63.8c-20-22-40.2-45.6-41.3-74.4c37.8,52.4,69,98.2,137.6,121.2
		c52,17.4,112.7-8,152.6-36c16.6-11.7,26.5-30.1,38.2-47.1c44.1-63.4,64.6-153.9,60.1-241.5c-1.9-36.2-1.8-72.2-13.9-96.5
		c-12.7-25.4-55.6-48.2-80.7-25.2c-4.7-24.7,20.9-40,50.9-31.1C692.9,120,670.4,86.8,640,69.7L640,69.7z M738.6,885.6
		c41.4-20.6,118.6-55.3,144.5,0.1c9.6,20.4,20.8,55,25.7,76c7,29.7-7.6,92.3-38.2,102.2c-27,8.8-58.5,8.3-91,1.7
		c-3.8-3.2-8.1-8.7-11.1-14.5c-23.2-0.9-45,1.2-63.3,10.8c1.7,17.2-9.9,19.9-20.8,23.5c-8.1,32,16.2,73.8,10.4,103
		c-4.1,20.8-29.7,24-48.5,27.9c-0.6,11.6,0.8,21.2,2.1,31c-4.3,15.8-23.6,24.9-41.9,27.1c-60.1,7.2-151.4,10.5-209.3-10.3
		c-16.1-39.6-28.9-87.7-42.3-132.9c-56.4,6-102-24.3-145-44.2c-14.9-6.9-35.5-10.7-41.1-22.6c-5.4-11.5-3.2-33.5-4.5-54.2
		c-3.4-53.1-6.3-104.2-20.3-158.6c-6.3-24.4-17.3-45.9-24.9-69.4c-7.1-21.8-19.4-48.7-22.6-70.4c-4.8-32.2,25.5-34,44.9-47.9
		c30-21.6,53.5-33.5,85.9-53c9.6-5.8,38.6-20.4,41.9-27.1c6.6-13.3-11.2-32.1-16-42.5c-7.5-16.5-11.5-30.5-12.5-46.8
		c-27.2-4.3-47.8-20.5-60.3-38.8c-20.6-30.2-34.9-86.1-17.1-128.7c1.4-3.3,8.4-9.9,9.4-15.1c2-10.1-3.8-23.6-4.2-34.4
		c-1.9-55.3,9.4-102.9,46.6-119.6c15.1-60.2,69.2-80.2,120.1-110.1c19-11.2,40-18.3,61.7-26.3C474.7-7,594-1.6,658.6,47.2
		c27.4,20.7,71.1,64.4,86.8,96.1c41.3,83.5,38.4,223.2,9.5,324.8c-3.9,13.6-9.5,33.7-17.4,50.1c-5.5,11.4-22.5,34.3-20.5,44.4
		c2.1,10.4,38.9,38.4,46.8,46c14.2,13.7,41.2,31.9,43.3,49.1c2.3,18.4-8.1,43.5-13.4,61.3C776,778.1,758.7,832.9,738.6,885.6"/>
	<path class="st16" d="M629.4,674.1l61-25.7c0,0,23,48.2,23,66c-28,21.8-66.2,21.8-66.2,21.8L629.4,674.1z"/>
	<path class="st16" d="M505.4,705.7l-75.9,16.8c0,0,5.4,55.8,23.1,66c20,8.9,77.5-36.4,77.5-39C525.9,730.1,505.4,705.7,505.4,705.7
		z"/>
	<path id="path132_1_" class="st7" d="M462.7,475.8c2.2-3,14.6-7.5,31.8,0.8c0,0-20.5,3.4-18.8,37.5l-8.5-1.7
		C467.3,512.4,458.5,481.5,462.7,475.8"/>
	<path class="st13" d="M334.1,634.3c0,0,7.7,11.3,75.9,19c21.9,2.5,58.6,1.8,77.5-0.2c6.8-0.7,15.5,3.3,20.3,8.2l85.7,82l-87.1-36.6
		l-102,21.8c-5,1.1-10.2-1-13.1-5.2L334.1,634.3z"/>
	<path class="st14" d="M426,712.7c-11.3,1-26-23.5-33.2-37c-2.2-4.1,0.6-9.1,5.2-9.5c6.7-0.5,62.5-0.4,77.7,2.7
		c15.2,3.1,57.2,20.4,60.3,21.5l-25.8-31.7c-4.8-4.9-16.1-6.3-22.9-5.6c-18.9,2-55.6,2.7-77.5,0.2c-68.2-7.7-75.9-19-75.9-19
		l66.2,84.1C400.3,718.4,441.5,711.3,426,712.7z"/>
	<path class="st13" d="M687.8,582.8l9.4,6.6l23.7,71.2c1,3-0.7,6.2-3.7,7.1l-67.5,19.2l-56.1,56.5l21.2-105.2
		C614.6,638.1,656.3,617.2,687.8,582.8z"/>
	<path class="st14" d="M634.7,654.4c1.8-8.7,5.6-11.8,13.3-16.3c13.1-7.8,26.9-14.3,46.4-33.7l2.8-15l-9.4-6.6
		c-31.4,34.4-73.1,55.3-73.1,55.3l-21.2,105.2l33.3-42.8L634.7,654.4z"/>
	<path class="st5" d="M478.6,626.5c56,37.8,141.1,9.9,141.1,9.9l-26.2,106.9L478.6,626.5z"/>
	<path class="st3" d="M614.8,637.1c0,0,12.3-6,9.3-4.3c-3,1.7-17.1,78.8-17.1,78.8c-0.4,1.8,1.9,3,3.2,1.6l16.2-18.4
		c8.6-9.7,19.8-16.8,32.2-20.3l50.5-14.3c1.9-0.5,3-2.6,2.4-4.4l-22-66.2c-0.6-1.9-3-2.5-4.5-1.1c-13.3,12.6-27.4,22.8-38.7,30.3
		c13-9.2,28.2-24.7,41.5-39.3l8.6,6.9l25.2,76.3c0.6,1.9-0.4,3.9-2.4,4.5l-56.7,16.1c-8.4,2.4-16.1,6.9-22.3,13.1l-46.7,47
		c0,0-2,0.3-1.6-1.6C600.7,730.5,614.8,637.1,614.8,637.1z"/>
	<path class="st3" d="M593.4,743.3c-27.7-27-84-95.6-84-95.6c-3.2-3.6-7.9-5.6-12.8-5.2c-0.9,0.1-1.8,0.1-2.8,0.2
		c0,0-11.3,3.4,3.8,10.8c8.1,5.3,51.6,52,51.6,52c1.7,1.9-0.5,4.8-2.8,3.7l-25.9-12.8c-5.2-2.6-11.1-3.3-16.8-2.1l-93.2,19.9
		c-5,1.1-10.2-1-13.1-5.2l-43.2-67.2c-16.1-2.2-26.7-13.5-26.7-13.5l61.8,92.3l0,0l1.9,2.7c2.9,4.2,8.1,6.2,13.1,5.2l101.9-21.7l0,0
		l0.1,0C506.3,706.7,589,745.5,593.4,743.3z"/>
	<path id="path134_3_" class="st17" d="M612.2,769c0,5.2-4.2,9.4-9.4,9.4c-5.2,0-9.4-4.2-9.4-9.4c0-5.2,4.2-9.4,9.4-9.4
		C608,759.6,612.2,763.8,612.2,769"/>
	<path id="path134_2_" class="st17" d="M612.2,769c0,5.2-4.2,9.4-9.4,9.4c-5.2,0-9.4-4.2-9.4-9.4c0-5.2,4.2-9.4,9.4-9.4
		C608,759.6,612.2,763.8,612.2,769"/>
	<path id="path136_1_" class="st17" d="M621.6,812.4c0,5.2-4.2,9.4-9.4,9.4c-5.2,0-9.4-4.2-9.4-9.4s4.2-9.4,9.4-9.4
		C617.4,803.1,621.6,807.3,621.6,812.4"/>
	<path class="st3" d="M264.5,145.5c0,0,76.4,20.2,114.6-0.9c29.4-16.2,49.8-39.8,57.8-70.5c8-30.8,13.2-61.6,50.9-71.4
		s236.6,1,268.5,144.4c0,0-232.6-24.8-315.6-107.8L264.5,145.5z"/>
	<path class="st4" d="M477.7,26.4c-6.1-4.9-6.4-9.4-3.5-13.4c-15,5.7-28.6,14.3-15.5,24.8c80.1,64.4,277.3,93.9,277.3,93.9
		c-1.2-5.4-2.7-10.5-4.4-15.4C677,106.3,540.9,77.2,477.7,26.4z"/>
	<circle class="st0" cx="253.8" cy="450.6" r="24.3"/>
	<path class="st18" d="M238.4,459.4c0-13.4,10.9-24.3,24.3-24.3c4.4,0,8.6,1.2,12.2,3.3c-4.2-7.2-12-12.1-21-12.1
		c-13.4,0-24.3,10.9-24.3,24.3c0,9,4.9,16.8,12.1,21C239.6,467.9,238.4,463.8,238.4,459.4z"/>
	<g id="Calque_2_2_">
		<g id="Calque_1-2_1_">
			<g>
				<path class="st15" d="M477.2,1039.6c6.1,5.7,15.8,10.8,45.8,59.1c17.5,28.3,40.9,87.5,13.3,95.7c-12.4,3.7-26.2-15.9-40.5-14
					c-15.6,2.1-26.6,35.9-46.2,19.6c-11-9.2-5.5-54.6,1.3-91.3S477.2,1039.6,477.2,1039.6z"/>
				<path class="st19" d="M460,1210.2c-4.3,0-9-1.6-14.1-5.8c-4-3.3-16.2-13.5-0.7-96.9c6.9-37.3,26.2-69.6,27-71l3.7-6.2l5.3,5
					c0.7,0.7,1.5,1.4,2.4,2.1c6.6,5.7,17.8,15.3,44.4,58.1c14.2,22.9,33.4,67.6,24.7,90.6c-2.6,6.9-7.7,11.7-14.6,13.8
					c-8.8,2.6-17.1-2.5-24.5-7.1c-5.8-3.6-11.9-7.3-16.9-6.7c-3.9,0.5-8.6,5.3-13.2,10C477.6,1202.1,469.6,1210.2,460,1210.2z
					 M478.8,1048.8c-5.8,10.9-17.3,34.9-22.1,60.9c-10.5,56.6-8.4,81.6-3.3,85.8c6.9,5.8,11.1,3.4,21.7-7.5
					c5.9-6.1,12.1-12.4,20-13.4c9.1-1.2,17.3,3.8,24.5,8.3c5.8,3.6,11.3,7,15.1,5.8c3.4-1,5.7-3.2,7-6.7
					c6.8-17.8-10.1-58.4-23.7-80.3C495.9,1066.2,485.2,1054.7,478.8,1048.8z"/>
			</g>
			<circle class="st19" cx="467.6" cy="1110.4" r="4"/>
			<circle class="st19" cx="507.1" cy="1105.2" r="4"/>
			<g>
				<defs>
					
						<rect id="SVGID_1_" x="398.1" y="983.9" transform="matrix(0.9913 -0.1315 0.1315 0.9913 -133.6568 72.5205)" width="167.9" height="128"/>
				</defs>
				<clipPath id="SVGID_2_">
					<use xlink:href="#SVGID_1_"  style="overflow:visible;"/>
				</clipPath>
				<g class="st20">
					<path class="st19" d="M477.2,1039.6c6.1,5.7,15.8,10.8,45.8,59.1c17.5,28.3,40.9,87.5,13.3,95.7c-12.4,3.7-26.2-15.9-40.5-14
						c-15.6,2.1-26.6,35.9-46.2,19.6c-11-9.2-5.5-54.6,1.3-91.3S477.2,1039.6,477.2,1039.6z"/>
				</g>
			</g>
			
				<ellipse transform="matrix(0.9913 -0.1315 0.1315 0.9913 -141.8604 73.8895)" class="st21" cx="488.3" cy="1110.7" rx="23.9" ry="19.9"/>
			<g>
				<path class="st15" d="M489.7,1137.4c-2.8,2.5-7.1,2.2-9.6-0.6"/>
				<path class="st19" d="M485.2,1144c-3.2,0-6.4-1.3-8.7-3.8l7.2-6.5c0.7,0.8,1.9,0.9,2.7,0.2l6.4,7.3
					C490.7,1143,487.9,1144,485.2,1144z"/>
			</g>
			<path class="st19" d="M552.9,1154.8c-1.3,0-2.5-0.4-3.6-1.2c-2.5-2-10.8-9-11.1-16.5c-0.1-2.8,0.7-5.7,1.7-8.7
				c1.2-4,2.5-8.1,0.9-10.6c-0.5-0.8-3.7-5.1-14.3-6.5l1.6-11.5c14.4,2,20.3,8.3,22.6,11.8c3.8,6,2.7,12.4,1.2,17.6
				c0.3,1.4,1,2.6,2,3.7c2.9,3.4,5.4,6.9,7.4,10.6c1.2,2.4,0.7,5.2-1.2,7l-3.1,2.8C555.7,1154.3,554.3,1154.8,552.9,1154.8z"/>
			
				<ellipse transform="matrix(0.7791 -0.6269 0.6269 0.7791 -594.0211 596.4765)" class="st19" cx="549.4" cy="1141.2" rx="3.4" ry="7.5"/>
			<path class="st19" d="M436.1,1170.3c-0.9,0-1.8-0.2-2.7-0.6l-3.8-1.9c-2.4-1.2-3.6-3.9-3-6.4c0.9-4.1,2.3-8.1,4.1-11.9
				c0.8-1.5,1.2-2.9,1.1-4.4c-2.8-4.6-5.5-10.5-3.4-17.3c1.2-4,5.3-11.6,18.7-17.3l4.5,10.7c-9.6,4.1-11.7,8.7-12.1,10
				c-0.9,2.9,1.4,6.5,3.6,10c1.7,2.7,3.3,5.2,3.9,8c1.6,7.3-4.5,16.2-6.4,18.8C439.6,1169.5,437.8,1170.3,436.1,1170.3z"/>
			
				<ellipse transform="matrix(0.402 -0.9157 0.9157 0.402 -796.9921 1091.8005)" class="st19" cx="437.3" cy="1156" rx="7.5" ry="3.4"/>
			
				<ellipse transform="matrix(0.9913 -0.1315 0.1315 0.9913 -128.6353 70.9759)" class="st19" cx="472.9" cy="1009.1" rx="12.1" ry="30.8"/>
			<polygon class="st21" points="528.5,1063.8 477.2,1037.1 519.8,997.9 			"/>
			<polygon class="st21" points="425.8,1010.4 477.2,1037.1 434.6,1076.2 			"/>
		</g>
	</g>
</g>
</svg>
