<svg xmlns="http://www.w3.org/2000/svg" viewBox="0 0 24 24" height="24" width="24">
    <g stroke="none" stroke-width="1" fill="none" fill-rule="evenodd">
        <g transform="translate(0.000000, 4.000000)" fill="#0b6aa2" fill-rule="nonzero">
            <path d="M5.45454545,15.2727273 C4.00791006,15.2727273 2.62052508,14.6980536 1.59759938,13.6751279 C0.574673675,12.6522022 0,11.2648172 0,9.81818182 C0,6.80571955 2.44208318,4.36363636 5.45454545,4.36363636 C6.54545455,1.8 9.05454545,3.87568765e-15 12,3.87568765e-15 C15.7418182,3.87568765e-15 18.8072727,2.90181818 19.0909091,6.57818182 L19.6363636,6.54545455 C22.0463335,6.54545455 24,8.49912109 24,10.9090909 C24,13.3190607 22.0463335,15.2727273 19.6363636,15.2727273 L5.45454545,15.2727273 M19.6363636,8.72727273 L17.4545455,8.72727273 L17.4545455,7.63636364 C17.4545455,4.62390136 15.0124623,2.18181818 12,2.18181818 C9.27272727,2.18181818 7.03636364,4.16727273 6.61090909,6.75272727 C6.2404402,6.61691899 5.84912034,6.54677675 5.45454545,6.54545455 C3.64706809,6.54545455 2.18181818,8.01070446 2.18181818,9.81818182 C2.18181818,11.6256592 3.64706809,13.0909091 5.45454545,13.0909091 L19.6363636,13.0909091 C20.8413485,13.0909091 21.8181818,12.1140758 21.8181818,10.9090909 C21.8181818,9.704106 20.8413485,8.72727273 19.6363636,8.72727273 Z" id="Shape"></path>
        </g>
    </g>
</svg>
