<svg width="24" height="24" viewBox="0 0 24 24" fill="none" xmlns="http://www.w3.org/2000/svg">
    <path d="M4.85825 10.6545C5.01166 10.6315 5.15375 10.5603 5.26394 10.4511C5.37412 10.3419 5.44666 10.2004 5.47104 10.0473C6.06917 6.27288 8.80725 4 12 4C14.965 4 16.9404 5.9415 17.7255 7.9875C17.7717 8.10892 17.8491 8.216 17.95 8.29792C18.0508 8.37984 18.1715 8.43371 18.2998 8.45408C20.8623 8.86108 23 10.5638 23 13.5333C23 16.5583 20.525 18.6667 17.5 18.6667H5.58333C3.0625 18.6667 1 17.409 1 14.6333C1 12.1386 3.01163 10.9295 4.85825 10.6545Z" stroke="#385172" stroke-width="1.5" stroke-linejoin="round"/>
</svg>
