<svg xmlns="http://www.w3.org/2000/svg" viewBox="0 0 24 24" height="24" width="24">
    <g stroke="none" stroke-width="1" fill="none" fill-rule="evenodd">
        <g transform="translate(0.000000, 1.000000)" fill="#0b6aa2" fill-rule="nonzero">
            <path d="M8.72727273,11 C9.30545455,11.154 9.65454545,11.759 9.50181818,12.342 L8.08363636,17.655 C7.93090909,18.249 7.33090909,18.59 6.75272727,18.436 C6.47237636,18.365187 6.23311582,18.1814942 6.09083689,17.9278322 C5.94855796,17.6741701 5.91572218,17.372756 6,17.094 L7.39636364,11.781 C7.54909091,11.187 8.14909091,10.846 8.72727273,11 M13.0909091,11 C13.6690909,11.154 14.0181818,11.759 13.8654545,12.342 L11.6072727,20.845 C11.4545455,21.45 10.8545455,21.78 10.2654545,21.626 C9.68727273,21.45 9.33818182,20.867 9.49090909,20.273 L11.76,11.781 C11.9127273,11.187 12.5127273,10.846 13.0909091,11 M17.4545455,11 C18.0327273,11.154 18.3818182,11.759 18.2290909,12.342 L16.8109091,17.655 C16.6581818,18.249 16.0581818,18.59 15.48,18.436 C15.1996491,18.365187 14.9603886,18.1814942 14.8181096,17.9278322 C14.6758307,17.6741701 14.6429949,17.372756 14.7272727,17.094 L16.1236364,11.781 C16.2763636,11.187 16.8763636,10.846 17.4545455,11 M17.4545455,8.8 L17.4545455,7.7 C17.4545455,4.66243388 15.0124623,2.2 12,2.2 C9.27272727,2.2 7.03636364,4.202 6.61090909,6.809 C6.2404402,6.67205998 5.84912034,6.60133322 5.45454545,6.6 C3.64706809,6.6 2.18181818,8.07746033 2.18181818,9.9 C2.18181818,11.121 2.83636364,12.188 3.81818182,12.76 L3.81818182,12.749 C4.36363636,13.057 4.51636364,13.75 4.22181818,14.256 C3.91636364,14.773 3.27272727,14.96 2.72727273,14.652 L2.72727273,14.663 C1.03636399,13.6838855 -0.00447451729,11.8661304 -1.43689321e-05,9.9 C-1.43689321e-05,6.86243388 2.44208318,4.4 5.45454545,4.4 C6.54545455,1.815 9.05454545,-1.95399252e-15 12,-1.95399252e-15 C15.7418182,-1.95399252e-15 18.8072727,2.926 19.0909091,6.633 L19.6363636,6.6 C22.0463335,6.6 24,8.5699471 24,11 C24,12.65 23.1272727,14.047 21.8181818,14.806 C21.2727273,15.103 20.6290909,14.927 20.3236364,14.399 C20.0290909,13.871 20.1818182,13.2 20.7272727,12.892 L20.7272727,12.903 C21.3818182,12.529 21.8181818,11.814 21.8181818,11 C21.8181818,9.78497355 20.8413485,8.8 19.6363636,8.8 L17.4545455,8.8 L17.4545455,8.8 Z" id="Shape"></path>
        </g>
    </g>
</svg>
