<svg width="24" height="24" viewBox="0 0 24 24" fill="none" xmlns="http://www.w3.org/2000/svg">
    <path d="M9.5625 13.6875L8.875 17.8125H10.9375V21.25L14.375 16.4375H12.3125L13 13.6875" stroke="#ffb31a" stroke-width="1.5" stroke-linecap="round" stroke-linejoin="round"/>
    <path d="M17.9986 7.19449H17.4773C17.1555 4.2709 14.6388 2 11.625 2C10.4141 1.99884 9.23259 2.37278 8.24289 3.07042C7.25314 3.76806 6.50386 4.75515 6.09793 5.89598H5.90156C3.7557 5.89598 2 7.6491 2 9.79153C2 11.9344 3.7557 13.6875 5.90156 13.6875H17.9986C19.7891 13.6875 21.25 12.2266 21.25 10.4408C21.25 8.65543 19.7891 7.19449 17.9986 7.19449Z" stroke="#385172" stroke-width="1.5" stroke-linecap="round" stroke-linejoin="round"/>
    <path d="M5.78125 15.75L4.75 17.8125M6.46875 19.1875L5.78125 20.5625M17.8125 15.75L16.7812 17.8125M18.5 19.1875L17.8125 20.5625" stroke="#32ade6" stroke-width="1.5" stroke-linecap="round" stroke-linejoin="round"/>
</svg>
