<svg xmlns="http://www.w3.org/2000/svg" viewBox="0 0 24 24" height="24" width="24">
    <g stroke="none" stroke-width="1" fill="none" fill-rule="evenodd">
        <g transform="translate(1.000000, 0.000000)" fill="#0b6aa2" fill-rule="nonzero">
            <path d="M10.8,6 C14.1137085,6 16.8,8.6862915 16.8,12 C16.8,15.3137085 14.1137085,18 10.8,18 C7.4862915,18 4.8,15.3137085 4.8,12 C4.8,8.6862915 7.4862915,6 10.8,6 M10.8,8.4 C8.8117749,8.4 7.2,10.0117749 7.2,12 C7.2,13.9882251 8.8117749,15.6 10.8,15.6 C12.7882251,15.6 14.4,13.9882251 14.4,12 C14.4,10.0117749 12.7882251,8.4 10.8,8.4 M10.8,0 L13.668,4.104 C12.7487597,3.76983548 11.7780941,3.59925827 10.8,3.6 C9.792,3.6 8.82,3.78 7.932,4.104 L10.8,0 M0.408,6 L5.4,5.58 C4.65522041,6.20908528 4.02228249,6.95968473 3.528,7.8 C3,8.688 2.7,9.6 2.532,10.548 L0.408,6 M0.432,18 L2.544,13.476 C2.89665685,15.4110521 3.90525776,17.1655091 5.4,18.444 L0.432,18 M21.18,6 L19.056,10.548 C18.7161518,8.60491495 17.7054771,6.8426039 16.2,5.568 L21.18,6 M21.168,18 L16.2,18.432 C16.908,17.82 17.544,17.064 18.048,16.2 C18.552,15.324 18.876,14.4 19.044,13.452 L21.168,18 M10.8,24 L7.908,19.872 C8.796,20.196 9.768,20.4 10.8,20.4 C11.784,20.4 12.756,20.196 13.644,19.872 L10.8,24 Z" id="Shape"></path>
        </g>
    </g>
</svg>
