<?xml version="1.0" encoding="utf-8"?>
<!-- Generator: Adobe Illustrator 21.0.2, SVG Export Plug-In . SVG Version: 6.00 Build 0)  -->
<svg version="1.1" id="Слой_1" xmlns="http://www.w3.org/2000/svg" xmlns:xlink="http://www.w3.org/1999/xlink" x="0px" y="0px"
	 viewBox="0 0 308.4 403.7" style="enable-background:new 0 0 308.4 403.7;" xml:space="preserve">
<style type="text/css">
	.st0{clip-path:url(#SVGID_2_);enable-background:new    ;}
	.st1{clip-path:url(#SVGID_4_);}
	.st2{fill:#231F20;}
	.st3{font-family:'Georgia-Bold';}
	.st4{font-size:72px;}
	.st5{clip-path:url(#SVGID_2_);fill:#81B0C4;}
	.st6{clip-path:url(#SVGID_2_);fill:none;stroke:#000000;stroke-width:4;stroke-miterlimit:10;}
	.st7{clip-path:url(#SVGID_2_);fill:#552300;}
	.st8{clip-path:url(#SVGID_2_);fill:none;stroke:#000000;stroke-width:2;stroke-miterlimit:10;}
	.st9{clip-path:url(#SVGID_2_);}
	.st10{clip-path:url(#SVGID_2_);fill:#D33833;}
	.st11{clip-path:url(#SVGID_2_);fill:#932724;}
	.st12{clip-path:url(#SVGID_2_);fill:none;stroke:#000000;stroke-miterlimit:10;}
	.st13{clip-path:url(#SVGID_2_);fill:#FFFFFF;}
	.st14{clip-path:url(#SVGID_2_);fill:#DCD9D8;}
	.st15{clip-path:url(#SVGID_2_);fill:none;stroke:#000000;stroke-width:3.52;stroke-miterlimit:10;}
	.st16{clip-path:url(#SVGID_2_);fill:none;stroke:#000000;stroke-width:3.424;stroke-miterlimit:10;}
	.st17{clip-path:url(#SVGID_2_);fill:none;stroke:#000000;stroke-width:1.329;stroke-miterlimit:10;}
	.st18{clip-path:url(#SVGID_2_);fill:none;stroke:#FFFFFF;stroke-width:1.375;stroke-miterlimit:10;}
	.st19{clip-path:url(#SVGID_2_);fill:none;stroke:#000000;stroke-width:2.751;stroke-miterlimit:10;}
	.st20{clip-path:url(#SVGID_2_);fill:none;stroke:#303030;stroke-width:2;stroke-miterlimit:10;}
	.st21{clip-path:url(#SVGID_2_);fill:none;stroke:#303030;stroke-width:2;stroke-miterlimit:10;stroke-dasharray:4.726,4.726;}
	.st22{clip-path:url(#SVGID_2_);fill:none;stroke:#303030;stroke-width:2;stroke-miterlimit:10;stroke-dasharray:5.056,5.056;}
	.st23{clip-path:url(#SVGID_2_);fill:none;stroke:#303030;stroke-width:2;stroke-miterlimit:10;stroke-dasharray:5.455,5.455;}
	.st24{clip-path:url(#SVGID_2_);fill:none;stroke:#303030;stroke-width:2;stroke-miterlimit:10;stroke-dasharray:4.928,4.928;}
	.st25{clip-path:url(#SVGID_2_);fill:#49728B;}
	.st26{clip-path:url(#SVGID_2_);fill:none;stroke:#000000;stroke-width:2;stroke-miterlimit:10;stroke-dasharray:6.95,6.95;}
	.st27{clip-path:url(#SVGID_2_);fill:#335061;}
	.st28{clip-path:url(#SVGID_2_);fill:none;stroke:#000000;stroke-width:2;stroke-miterlimit:10;stroke-dasharray:6.909,6.909;}
	.st29{clip-path:url(#SVGID_2_);fill:none;stroke:#000000;stroke-width:2;stroke-miterlimit:10;stroke-dasharray:6.885,6.885;}
	.st30{clip-path:url(#SVGID_2_);fill:none;stroke:#000000;stroke-width:2;stroke-miterlimit:10;stroke-dasharray:6.993,6.993;}
	.st31{clip-path:url(#SVGID_2_);fill:none;stroke:#000000;stroke-width:2;stroke-miterlimit:10;stroke-dasharray:6.875,6.875;}
	.st32{clip-path:url(#SVGID_2_);fill:none;stroke:#000000;stroke-width:3.865;stroke-miterlimit:10;}
	.st33{clip-path:url(#SVGID_2_);fill:none;stroke:#000000;stroke-width:1.546;stroke-miterlimit:10;}
	.st34{clip-path:url(#SVGID_2_);fill:none;stroke:#000000;stroke-width:3.878;stroke-miterlimit:10;}
	.st35{clip-path:url(#SVGID_2_);fill:none;stroke:#000000;stroke-width:1.994;stroke-miterlimit:10;}
</style>
<g>
	<defs>
		<rect id="SVGID_1_" width="308.4" height="403.7"/>
	</defs>
	<clipPath id="SVGID_2_">
		<use xlink:href="#SVGID_1_"  style="overflow:visible;"/>
	</clipPath>
	<g class="st0">
		<g>
			<defs>
				<rect id="SVGID_3_" x="7.7" y="328.6" width="291.2" height="82.8"/>
			</defs>
			<clipPath id="SVGID_4_">
				<use xlink:href="#SVGID_3_"  style="overflow:visible;"/>
			</clipPath>
			<g class="st1">
				<text transform="matrix(1 0 0 1 7.6802 389.5799)" class="st2 st3 st4">Jenkins</text>
			</g>
		</g>
	</g>
	<path class="st5" d="M155.5,53.5c0,0-136.1-21.1-147.3,34.1c-7.9,39,42.9,54.6,42.9,54.6s-2.1,4.6-0.6,12.3
		c1.7,8.5,6.5,12.3,6.5,12.3s-14.4,7-18.8,18.8c-5.9,16.1,5.3,25.8,5.3,25.8s-37.6,13.3-36.1,33c4.5,60.8,86.6,58.3,86.6,58.3
		s15.7,21.7,51.5,21.7c40.1,0,61.4-32.4,61.4-32.4s41.7,13.2,64,0c33.9-20.1,9.3-57.1,9.3-57.1s32.9-19.2,23.5-50.5
		c-6.6-22.2-37-38.2-37-38.2s28.4-13.3,17.6-47C267.9,48.2,155.5,53.5,155.5,53.5"/>
	<path class="st6" d="M155.5,53.5c0,0-136.1-21.1-147.3,34.1c-7.9,39,42.9,54.6,42.9,54.6s-2.1,4.6-0.6,12.3
		c1.7,8.5,6.5,12.3,6.5,12.3s-14.4,7-18.8,18.8c-5.9,16.1,5.3,25.8,5.3,25.8s-37.6,13.3-36.1,33c4.5,60.8,86.6,58.3,86.6,58.3
		s15.7,21.7,51.5,21.7c40.1,0,61.4-32.4,61.4-32.4s41.7,13.2,64,0c33.9-20.1,9.3-57.1,9.3-57.1s32.9-19.2,23.5-50.5
		c-6.6-22.2-37-38.2-37-38.2s28.4-13.3,17.6-47C267.9,48.2,155.5,53.5,155.5,53.5z"/>
	<path class="st7" d="M39.3,83.5h-6c-1.6,0-2.9-1.3-2.9-2.9v-4.9h11.5V81C41.9,82.4,40.7,83.5,39.3,83.5"/>
	<line class="st8" x1="34" y1="76.4" x2="34" y2="73.5"/>
	<line class="st8" x1="38.2" y1="76.4" x2="38.2" y2="73.5"/>
	<path class="st9" d="M25.2,64.8l6.4,8.8h8.6l6.6-8.9c0,0-4.5,1-10.8,1.1C31,65.9,25.2,64.8,25.2,64.8"/>
	<path class="st8" d="M25.2,64.8l6.4,8.8h8.6l6.6-8.9c0,0-4.5,1-10.8,1.1C31,65.9,25.2,64.8,25.2,64.8"/>
	<path class="st10" d="M25.2,64.8c0,0,5.1,0.9,11.2,0.9c6.7,0,10.4-1,10.4-1S68.2,42.2,61,26.3C52.9,8.1,27,5.8,14,21.6
		C0,38.8,25.2,64.8,25.2,64.8"/>
	<path class="st8" d="M25.2,64.8c0,0,5.1,0.9,11.2,0.9c6.7,0,10.4-1,10.4-1S68.2,42.2,61,26.3C52.9,8.1,27,5.8,14,21.6
		C0,38.8,25.2,64.8,25.2,64.8z"/>
	<path class="st11" d="M36,10.9c0,0-18.2,0.1-24.4,16.8c-5.8,15.8,15,36.9,15,36.9h5.8c0,0-10.8-18.4-9.6-32.7
		C24.1,16.6,36,10.9,36,10.9"/>
	<path class="st8" d="M27.5,65.1c0,0,4,0.6,8.9,0.6c5.9,0,8.9-0.7,8.9-0.7s19.8-23.5,12.8-40.7c-5.1-12.4-28.5-19.7-40.7-5
		C3.3,36.2,27.5,65.1,27.5,65.1z"/>
	<path class="st8" d="M30.3,65.4c0,0,3.2,0.3,6.1,0.3c3.1,0,6-0.3,6-0.3s15.7-26.9,8.7-44.1C46,8.8,30.5,8.5,25,15.4
		C11.3,32.8,30.3,65.4,30.3,65.4z"/>
	<path class="st8" d="M28.9,37.9c2.7,23,5.5,27.7,5.5,27.7h2h2c0,0,5.1-15.2,5.6-28.1C45.7-1.7,25.1,6.4,28.9,37.9z"/>
	<path class="st12" d="M39.3,83.5h-6c-1.6,0-2.9-1.3-2.9-2.9v-4.9h11.5V81C41.9,82.4,40.7,83.5,39.3,83.5z"/>
	<path class="st13" d="M182,263.8c0,0-15.4,0.7-13.7,10.1c1.1,6.1,4.3,11,11,9.6c3.7-0.8,5.6-3.5,9.6-1.4c1.6,0.9,3.2,2.1,5,2.4
		c3.5,0.5,6.8-2.6,10.3-2.3c4,0.4,6.9,4.1,11.1,4.6c2.5,0.3,11.9-3.8,12.3-3.6c3.1,1.5,6.3,3,9.7,3.6c5.5,0.9,10.6-1.3,13.9-5.6
		c0,0,14.2,5.9,16.8-5.8c3.6-15.8-13.3-11.7-13.3-11.7c-5.8-7.1-11.4-12.6-21.3-9c-2.8-6.4-9.7-10.8-16.7-10.5
		c-7,0.3-13.5,5.4-15.6,12.1c-4.2-2.4-10.3-2.9-14.3,0C185.9,257.1,182.2,263.8,182,263.8"/>
	<path class="st14" d="M181.3,278.4c0,0-9.6-6-10.9-2.2c-2.1,5.9,1.5,9.3,8.3,7.8c3.7-0.8,5.6-3.5,9.6-1.4c1.6,0.9,3.2,2.1,5,2.4
		c3.5,0.5,6.8-2.6,10.3-2.3c4,0.4,6.9,4.1,11.1,4.6c2.5,0.3,11.9-3.8,12.3-3.6c3.1,1.5,6.3,3,9.7,3.6c5.5,0.9,10.6-1.3,13.9-5.6
		c0,0,13.2,5.7,16.8-5.8c1.3-4-13.3,2.4-13.3,2.4c-5.8-7.1-6.8-6.7-16.7-3.1c-2.8-6.4-9.7-10.8-16.7-10.5s-13.5,5.4-15.6,12.1
		c-4.2-2.4-6.3-7.1-16.3-4.1C187.7,273.1,181.5,278.4,181.3,278.4"/>
	<path class="st15" d="M182,263.8c0,0-15.4,0.7-13.7,10.1c1.1,6.1,4.3,11,11,9.6c3.7-0.8,5.6-3.5,9.6-1.4c1.6,0.9,3.2,2.1,5,2.4
		c3.5,0.5,6.8-2.6,10.3-2.3c4,0.4,6.9,4.1,11.1,4.6c2.5,0.3,11.9-3.8,12.3-3.6c3.1,1.5,6.3,3,9.7,3.6c5.5,0.9,10.6-1.3,13.9-5.6
		c0,0,14.2,5.9,16.8-5.8c3.6-15.8-13.3-11.7-13.3-11.7c-5.8-7.1-11.4-12.6-21.3-9c-2.8-6.4-9.7-10.8-16.7-10.5
		c-7,0.3-13.5,5.4-15.6,12.1c-4.2-2.4-10.3-2.9-14.3,0C185.9,257.1,182.2,263.8,182,263.8z"/>
	<path class="st13" d="M14.7,156.8c0,0-15,0.7-13.3,9.8c1.1,6,4.2,10.7,10.7,9.3c3.6-0.8,5.5-3.4,9.3-1.3c1.6,0.9,3.1,2.1,4.9,2.3
		c3.4,0.5,6.6-2.6,10.1-2.2c3.9,0.4,6.7,4,10.8,4.5c2.4,0.3,11.6-3.7,12-3.5c3,1.5,6.1,2.9,9.5,3.5c5.3,0.9,10.3-1.2,13.6-5.5
		c0,0,13.8,5.7,16.4-5.6c3.5-15.4-12.9-11.3-12.9-11.3c-5.7-6.9-11.1-12.2-20.8-8.7c-2.7-6.3-9.5-10.5-16.3-10.2
		c-6.8,0.3-13.2,5.2-15.2,11.7c-4-2.4-10.1-2.8-13.9,0C18.5,150.3,15,156.8,14.7,156.8"/>
	<path class="st14" d="M14,171c0,0-9.4-5.8-10.6-2.2c-2,5.7,1.5,9,8,7.6c3.6-0.8,5.5-3.4,9.3-1.3c1.6,0.9,3.1,2.1,4.9,2.3
		c3.4,0.5,6.6-2.6,10.1-2.2c3.9,0.4,6.7,4,10.8,4.5c2.4,0.3,11.6-3.7,12-3.5c3,1.5,6.1,2.9,9.5,3.5c5.3,0.9,10.3-1.2,13.6-5.5
		c0,0,12.9,5.5,16.4-5.6c1.1-3.9-13,2.4-13,2.4c-5.7-6.9-6.6-6.5-16.2-3c-2.7-6.3-9.5-10.5-16.3-10.2s-13.2,5.2-15.2,11.7
		c-4-2.4-6.1-6.9-15.9-4C20.3,165.8,14.2,170.9,14,171"/>
	<path class="st16" d="M14.7,156.8c0,0-15,0.7-13.3,9.8c1.1,6,4.2,10.7,10.7,9.3c3.6-0.8,5.5-3.4,9.3-1.3c1.6,0.9,3.1,2.1,4.9,2.3
		c3.4,0.5,6.6-2.6,10.1-2.2c3.9,0.4,6.7,4,10.8,4.5c2.4,0.3,11.6-3.7,12-3.5c3,1.5,6.1,2.9,9.5,3.5c5.3,0.9,10.3-1.2,13.6-5.5
		c0,0,13.8,5.7,16.4-5.6c3.5-15.4-12.9-11.3-12.9-11.3c-5.7-6.9-11.1-12.2-20.8-8.7c-2.7-6.3-9.5-10.5-16.3-10.2
		c-6.8,0.3-13.2,5.2-15.2,11.7c-4-2.4-10.1-2.8-13.9,0C18.5,150.3,15,156.8,14.7,156.8z"/>
	<path class="st9" d="M137.1,269.9l1.5-11.9c0.1-1.1,1-1.9,2.1-1.9h21c1.1,0,2,0.8,2.2,1.8l2,11.6l-3.7-8.9
		c-0.4-0.8-1.2-1.4-2.1-1.4l-17.1-0.1c-1.1,0-2.2,0.7-2.5,1.8L137.1,269.9z"/>
	<path class="st17" d="M137.1,269.9l1.5-11.9c0.1-1.1,1-1.9,2.1-1.9h21c1.1,0,2,0.8,2.2,1.8l2,11.6l-3.7-8.9
		c-0.4-0.8-1.2-1.4-2.1-1.4l-17.1-0.1c-1.1,0-2.2,0.7-2.5,1.8L137.1,269.9z"/>
	<path class="st7" d="M163.7,301.1h-23.2c-6.2,0-11.3-5-11.3-11.3v-18.6h44.4v20C173.6,296.6,169.1,301.1,163.7,301.1"/>
	<path class="st18" d="M129.2,271.1c0,0,1.1,3,2.1,3.3c2.9,0.8,2.3,3.7,2.3,3.7s5.3,1.9,8.4,1.8c4.2,0,9-1.8,9-1.8s5.3,1.8,9.5,1.8
		c3.1,0,8.2-1.8,8.2-1.8s-0.3-3.3,3.1-3.3c0.9,0,1.7-3.6,1.7-3.6"/>
	<path class="st19" d="M163.7,301.1h-23.2c-6.2,0-11.3-5-11.3-11.3v-18.6h44.4v20C173.6,296.6,169.1,301.1,163.7,301.1z"/>
	<path class="st10" d="M133.5,278.1c3.4,0,6.1,2.7,6.1,6.1c0,3.4-2.7,6.1-6.1,6.1c-3.4,0-6.1-2.7-6.1-6.1
		C127.4,280.8,130.1,278.1,133.5,278.1"/>
	<path class="st10" d="M168.7,278.1c3.4,0,6.1,2.7,6.1,6.1c0,3.4-2.7,6.1-6.1,6.1c-3.4,0-6.1-2.7-6.1-6.1
		C162.6,280.8,165.3,278.1,168.7,278.1"/>
	<path class="st10" d="M151,278.1c3.4,0,6.1,2.7,6.1,6.1c0,3.4-2.7,6.1-6.1,6.1c-3.4,0-6.1-2.7-6.1-6.1
		C144.9,280.8,147.6,278.1,151,278.1"/>
	<polyline class="st17" points="140,244.7 143.2,255.9 146.7,244.7 	"/>
	<line class="st17" x1="143.2" y1="255.9" x2="143.2" y2="244.7"/>
	<polyline class="st17" points="156.1,244.8 159.4,256 162.9,244.8 	"/>
	<line class="st17" x1="159.4" y1="256" x2="159.4" y2="244.8"/>
	<path class="st9" d="M109.7,211.1l24.5,33.6h33.1l25.4-34.2c0,0-17.1,3.9-41.5,4.4C131.9,215.3,109.7,211.1,109.7,211.1"/>
	<path class="st6" d="M109.7,211.1l24.5,33.6h33.1l25.4-34.2c0,0-17.1,3.9-41.5,4.4C131.9,215.3,109.7,211.1,109.7,211.1"/>
	<polyline class="st20" points="134.6,238.6 136.2,240.8 138.9,240.8 	"/>
	<line class="st21" x1="143.7" y1="240.8" x2="160.2" y2="240.8"/>
	<polyline class="st20" points="162.6,240.8 165.3,240.8 167,238.6 	"/>
	<line class="st22" x1="170" y1="234.6" x2="180.6" y2="220.4"/>
	<path class="st20" d="M182.1,218.3l1.6-2.2c-0.9,0.1-1.8,0.3-2.7,0.4"/>
	<path class="st23" d="M175.6,217.3c-6.7,0.9-15,1.6-24.3,1.6c-12.3-0.1-20.6-0.8-27.4-1.6"/>
	<path class="st20" d="M121.2,216.8c-0.9-0.1-1.8-0.3-2.7-0.4l1.6,2.2"/>
	<line class="st24" x1="123" y1="222.7" x2="133.1" y2="236.6"/>
	<path class="st25" d="M109.7,211.1c0,0,19.5,3.4,43.1,3.4c25.8,0,39.9-4,39.9-4s81.9-85.9,54.4-147.3
		C215.9-6.3,116.5-15.4,66.7,45.5C12.8,111.4,109.7,211.1,109.7,211.1"/>
	<path class="st6" d="M109.7,211.1c0,0,19.5,3.4,43.1,3.4c25.8,0,39.9-4,39.9-4s81.9-85.9,54.4-147.3
		C215.9-6.3,116.5-15.4,66.7,45.5C12.8,111.4,109.7,211.1,109.7,211.1z"/>
	<path class="st26" d="M152.9,210.6c-19.6,0-36.6-2.4-41.2-3.1c-4.5-4.8-25.1-27.6-40.3-56.4c-9.9-18.8-15.5-36.4-16.8-52.3
		C53,79.2,58.1,62.1,69.8,47.9c20.3-24.8,50.7-39.1,83.3-39.1c40.3,0,75,21.5,90.5,56c24.8,55.2-44.8,133.4-52.9,142.2
		C187,207.9,173.9,210.6,152.9,210.6z"/>
	<path class="st27" d="M118.5,212.3c0,0,15.5,2.2,34.4,2.2c22.8,0,34.3-2.7,34.3-2.7s76.1-90.4,49.2-156.5
		C216.8,7.6,126.6-20.2,80,35.9C25.5,101.4,118.5,212.3,118.5,212.3"/>
	<path class="st6" d="M118.5,212.3c0,0,15.5,2.2,34.4,2.2c22.8,0,34.3-2.7,34.3-2.7s76.1-90.4,49.2-156.5
		C216.8,7.6,126.6-20.2,80,35.9C25.5,101.4,118.5,212.3,118.5,212.3z"/>
	<path class="st28" d="M152.9,210.6c-15,0-28-1.4-32.3-1.9c-4.5-5.6-24.1-30.8-38.2-61.7c-9.3-20.4-14.5-39.3-15.4-56.1
		c-1.2-20.7,4.2-38.4,16-52.5c20.4-24.6,46.8-29.8,65.3-29.8c36.9,0,73.2,20.7,84.4,48.1c24.3,59.5-39.5,141.4-47.7,151.5
		C181.5,208.9,170.7,210.6,152.9,210.6z"/>
	<path class="st5" d="M129.1,213.4c0,0,12.3,1,23.4,1.1c12,0,23.2-1.1,23.2-1.1S235.9,110,209,44C189.6-3.7,129.8-4.8,109,21.5
		C56.2,88.4,129.1,213.4,129.1,213.4"/>
	<path class="st6" d="M129.1,213.4c0,0,12.3,1,23.4,1.1c12,0,23.2-1.1,23.2-1.1S235.9,110,209,44C189.6-3.7,129.8-4.8,109,21.5
		C56.2,88.4,129.1,213.4,129.1,213.4z"/>
	<path class="st8" d="M134.9,210c-1.4-0.1-2.5-0.2-3.4-0.2c-0.4-0.8-1-1.8-1.6-3"/>
	<path class="st29" d="M126.7,200.6c-6.3-12.4-16.4-34.3-23.7-59.3c-6.6-22.6-9.7-43.3-9.2-61.6c0.6-22.5,6.8-41.2,18.3-55.8
		C119.9,14,134,8.2,149.8,8.2c19.5,0,44.4,9.8,55.6,37.3c21.7,53.3-15.8,133.1-28.8,158.2"/>
	<path class="st8" d="M174.9,206.7c-0.7,1.2-1.2,2.2-1.6,3c-0.9,0.1-2.1,0.2-3.4,0.3"/>
	<path class="st30" d="M162.9,210.4c-3.2,0.1-6.7,0.2-10.2,0.2h-0.1c-4.8,0-9.9-0.2-14.1-0.4"/>
	<path class="st13" d="M123.7,107.9c10.6,88.2,21,106.5,21,106.5s4.4,0.2,7.8,0.1c4.4-0.1,7.6-0.1,7.6-0.1s19.6-58.5,21.7-107.9
		C188.1-44,109.2-13,123.7,107.9"/>
	<path class="st6" d="M123.7,107.9c10.6,88.2,21,106.5,21,106.5s4.4,0.2,7.8,0.1c4.4-0.1,7.6-0.1,7.6-0.1s19.6-58.5,21.7-107.9
		C188.1-44,109.2-13,123.7,107.9z"/>
	<path class="st8" d="M150.7,210.6c-1.2,0-2.4,0-3.4-0.1c-0.3-0.8-0.7-1.8-1.2-3.2"/>
	<path class="st31" d="M144,200.8c-3.9-13.6-10.2-41.1-16.4-93.4c-2.6-21.8-2.3-42.3,1-59.3c2.8-14.6,7.6-26.4,13.7-33.3
		c2.4-2.7,6.2-5.9,10.5-5.9c3,0,5.9,1.5,8.7,4.4c12.2,12.7,18.4,47.5,16.5,93c-1.5,36.8-13.1,79.3-18.6,97.6"/>
	<path class="st8" d="M158.3,207.3c-0.4,1.3-0.7,2.4-1,3.3h-3.4"/>
	<path class="st9" d="M151.6,123.4c3.5,0,6.3,2.8,6.3,6.3s-2.8,6.3-6.3,6.3c-3.5,0-6.3-2.8-6.3-6.3S148.1,123.4,151.6,123.4"/>
	<circle class="st32" cx="151.6" cy="129.7" r="6.3"/>
	<path class="st9" d="M151.6,157c3.5,0,6.3,2.8,6.3,6.3c0,3.5-2.8,6.3-6.3,6.3c-3.5,0-6.3-2.8-6.3-6.3
		C145.3,159.8,148.1,157,151.6,157"/>
	<circle class="st32" cx="151.6" cy="163.3" r="6.3"/>
	<path class="st9" d="M151.6,89.8c3.5,0,6.3,2.8,6.3,6.3c0,3.5-2.8,6.3-6.3,6.3c-3.5,0-6.3-2.8-6.3-6.3
		C145.3,92.6,148.1,89.8,151.6,89.8"/>
	<circle class="st32" cx="151.6" cy="96.1" r="6.3"/>
	<path class="st10" d="M139.4,54.3c0,0-10-11.8-17-15.8c-6.1-3.5-15.3-6.1-21.2-8c-2.4-0.8-5.1,0-6.7,2c-3.5,4.3-8.6,13.7-8.6,32.2
		c0,10.1,2.4,20.2,4.1,26.3c1,3.5,4.4,5.7,8,5.2c7.1-1,16.4-1.8,22.6-4.7c10.6-5.1,18.8-16.7,18.8-16.7V54.3z"/>
	<path class="st10" d="M159.6,54.3c0,0,4.8-7.3,17-15.8c7.4-5.2,22.5-15,27.8-6c2.8,4.8,8.6,13.7,8.6,32.2c0,10.1-2.4,20.2-4.1,26.3
		c-1,3.5-4.4,5.1-8,5.2c-7.2,0.1-16.5-1-22.6-4.7c-8.6-5.3-18.8-16.7-18.8-16.7V54.3H159.6z"/>
	<path class="st11" d="M138.8,53.1l-12-9.7c0,0,5.9,6,3.8,8.9c-1.5,2.1-18,0.8-18,0.8s10.4,5.3,13.8,10.7c3.4,5.3-13,13.9-13,13.9
		s8.2,10.5,14.4,7.5c10.6-5.1,11-11.6,11-11.6V53.1z"/>
	<path class="st11" d="M161,52.6l12-9.7c0,0-5.9,6-3.8,8.9c1.5,2.1,18,0.8,18,0.8s-10.4,5.3-13.8,10.7c-3.4,5.3,9.5,13,9.5,13
		S166.5,84,161,73C158.7,68.5,161,52.6,161,52.6"/>
	<path class="st9" d="M117.9,53.8c3.7,0.8,7.5,1.8,11.1,3c1.8,0.6,3.7,1.3,5.5,2.1c1.8,0.8,3.6,1.7,5.4,3c1.1,0.8,1.4,2.4,0.5,3.5
		c-0.9,1.1-2.4,1.4-3.5,0.5c-0.2-0.1-0.3-0.3-0.4-0.4c-1-1.2-2.5-2.4-3.9-3.5c-1.5-1.1-3.1-2.1-4.7-3.1
		C124.7,57.1,121.3,55.4,117.9,53.8"/>
	<path class="st9" d="M181.4,54.1c-2.9,0.9-5.6,2.2-8.2,3.6c-2.6,1.4-5,3-7.3,4.8c-1.1,0.9-2.7,0.7-3.6-0.4
		c-0.9-1.1-0.7-2.7,0.4-3.6c0.2-0.1,0.4-0.3,0.6-0.3c2.9-1.2,5.9-2.1,8.9-2.8C175.4,54.6,178.4,54.2,181.4,54.1"/>
	<path class="st9" d="M119.5,76.2c2.8-1.3,5.6-2.7,8.3-4.2c1.3-0.8,2.7-1.5,3.9-2.4c1.2-0.8,2.5-1.7,3.5-2.6s2.6-0.9,3.5,0.2
		c0.9,1,0.9,2.6-0.2,3.5c-0.2,0.2-0.3,0.3-0.5,0.4h-0.1c-1.6,0.8-3.1,1.4-4.6,1.9s-3.1,0.9-4.6,1.3
		C125.6,75.1,122.6,75.7,119.5,76.2"/>
	<path class="st9" d="M176.4,75c-1.4,0.3-2.9,0.5-4.4,0.6s-3.1,0-4.6-0.2c-1.6-0.3-3.2-0.8-4.7-1.9c-0.7-0.6-1.5-1.3-2-2.2
		s-0.9-1.8-1.1-2.8v-0.2c-0.3-1.3,0.6-2.7,1.9-3c1.3-0.3,2.7,0.6,3,1.9c0.1,0.3,0.1,0.5,0,0.8c-0.1,1,0,1.9,0.7,2.8
		c0.6,0.9,1.7,1.7,2.9,2.3c1.2,0.6,2.6,1,4,1.4C173.5,74.7,174.9,74.9,176.4,75"/>
	<path class="st9" d="M129.2,66.7c0.9-0.1,1.7-0.2,2.6-0.3c0.9-0.1,1.7-0.3,2.5-0.5s1.6-0.5,2.3-0.8c0.4-0.2,0.7-0.4,1-0.6
		c0.2-0.1,0.3-0.2,0.4-0.3l0.2-0.2c0,0,0.1-0.1,0-0.1l2.1,2.3c-0.3,0.2-0.3,0.2-0.5,0.3c-0.1,0.1-0.3,0.1-0.4,0.2
		c-0.3,0.1-0.5,0.2-0.8,0.3c-0.5,0.1-1,0.2-1.5,0.3c-1,0.1-1.9,0.2-2.8,0.1c-0.9,0-1.8-0.1-2.7-0.2C130.9,67,130.1,66.8,129.2,66.7"
		/>
	<path class="st13" d="M136.1,269c0.9-1-8.4-1.3-15.1,4.7c-8.4,7.6-16.9,9.9-16.9,9.9c0.6,0.6,5.6,4.4,3.5,7.3
		c-4,5.6,0.1,10.9,0.1,10.9s7.1-3.8,17.9-17.3c5.2-6.5,10-9.6,11.8-11.3C139.7,271.1,133.5,271.8,136.1,269"/>
	<path class="st14" d="M136,269c0.9-1-4.9,2.9-10.4,10c-14.3,18.3-18.6,12.8-18.6,12.8c-2.8,3.9,0.8,10.1,0.8,10.1
		s10.7-9.2,29.6-28.7C139.5,271,133.4,271.8,136,269"/>
	<path class="st33" d="M136,269c0.9-1-8.4-1.3-15.1,4.7c-8.4,7.6-16.9,9.9-16.9,9.9c0.6,0.6,5.6,4.4,3.5,7.3
		c-4,5.6,0.1,10.9,0.1,10.9s7.1-3.8,17.9-17.3c5.2-6.5,10-9.6,11.8-11.3C139.5,271.1,133.4,271.8,136,269z"/>
	<path class="st13" d="M137.4,269.1c0.8-0.5-5.3-2.5-10.9,0.1c-7,3.3-17.1,0.7-17.1,0.7c-0.5,0.8-0.6,3.1,2.8,8.2c1.4,2,0,7.1,0,7.1
		s5.4-1.1,15.2-7.8c4.7-3.3,8.5-4.3,10-5.1C139.3,271.3,135.2,270.5,137.4,269.1"/>
	<path class="st7" d="M69.9,292.2h-6c-1.6,0-2.9-1.3-2.9-2.9v-4.9h11.5v5.2C72.5,291.1,71.3,292.2,69.9,292.2"/>
	<line class="st8" x1="64.6" y1="285.1" x2="64.6" y2="282.2"/>
	<line class="st8" x1="68.8" y1="285.1" x2="68.8" y2="282.2"/>
	<path class="st9" d="M55.9,273.4l6.4,8.8h8.6l6.6-8.9c0,0-4.5,1-10.8,1.1C61.6,274.5,55.9,273.4,55.9,273.4"/>
	<path class="st8" d="M55.9,273.4l6.4,8.8h8.6l6.6-8.9c0,0-4.5,1-10.8,1.1C61.6,274.5,55.9,273.4,55.9,273.4"/>
	<path class="st10" d="M55.9,273.4c0,0,5.1,0.9,11.2,0.9c6.7,0,10.4-1,10.4-1s21.3-22.4,14.2-38.3c-8.1-18.1-34-20.5-47-4.6
		C30.6,247.5,55.9,273.4,55.9,273.4"/>
	<path class="st8" d="M55.9,273.4c0,0,5.1,0.9,11.2,0.9c6.7,0,10.4-1,10.4-1s21.3-22.4,14.2-38.3c-8.1-18.1-34-20.5-47-4.6
		C30.6,247.5,55.9,273.4,55.9,273.4z"/>
	<path class="st11" d="M66.7,219.6c0,0-18.2,0.1-24.4,16.8c-5.8,15.8,14.9,36.9,14.9,36.9H63c0,0-10.8-18.4-9.6-32.7
		C54.8,225.3,66.7,219.6,66.7,219.6"/>
	<path class="st8" d="M58.1,273.8c0,0,4,0.6,8.9,0.6c5.9,0,8.9-0.7,8.9-0.7s19.8-23.5,12.8-40.7c-5.1-12.4-28.5-19.7-40.7-5
		C33.9,244.9,58.1,273.8,58.1,273.8z"/>
	<path class="st8" d="M60.9,274c0,0,3.2,0.3,6.1,0.3c3.1,0,6-0.3,6-0.3s15.7-26.9,8.7-44.1c-5.1-12.4-20.6-12.7-26-5.8
		C41.9,241.5,60.9,274,60.9,274z"/>
	<path class="st8" d="M59.5,246.6c2.7,23,5.5,27.7,5.5,27.7h2h2c0,0,5.1-15.2,5.6-28.1C76.3,207,55.7,215.1,59.5,246.6z"/>
	<path class="st12" d="M69.9,292.2h-6c-1.6,0-2.9-1.3-2.9-2.9v-4.9h11.5v5.2C72.5,291.1,71.3,292.2,69.9,292.2z"/>
	<path class="st34" d="M139.4,54.3c0,0-10-11.8-17-15.8c-6.1-3.5-15.3-6.1-21.2-8c-2.4-0.8-5.1,0-6.7,2c-3.5,4.3-8.6,13.7-8.6,32.2
		c0,10.1,2.4,20.2,4.1,26.3c1,3.5,4.4,5.7,8,5.2c7.1-1,16.4-1.8,22.6-4.7c10.6-5.1,18.8-16.7,18.8-16.7V54.3z"/>
	<path class="st34" d="M161,54.3c0,0,4.8-7.3,17-15.8c7.4-5.2,22.5-15,27.8-6c2.8,4.8,8.6,13.7,8.6,32.2c0,10.1-2.4,20.2-4.1,26.3
		c-1,3.5-4.4,5.1-8,5.2c-7.2,0.1-16.5-1-22.6-4.7c-8.6-5.3-18.8-16.7-18.8-16.7V54.3H161z"/>
	<path class="st10" d="M163.6,62.4c0,7.7-6.2,13.9-13.9,13.9c-7.7,0-13.9-6.2-13.9-13.9c0-7.7,6.2-8.4,13.9-8.4
		C157.4,54,163.6,54.7,163.6,62.4"/>
	<path class="st11" d="M163.6,60.9c0,7.7-6.2,13.9-13.9,13.9c-7.7,0-13.9-6.2-13.9-13.9c0-7.7,7.4,7.8,15.1,7.8
		C158.6,68.7,163.6,53.2,163.6,60.9"/>
	<path class="st34" d="M163.6,62.4c0,7.7-6.2,13.9-13.9,13.9c-7.7,0-13.9-6.2-13.9-13.9c0-7.7,6.2-8.4,13.9-8.4
		C157.4,54,163.6,54.7,163.6,62.4z"/>
	<path class="st9" d="M170.4,68.2c-1.2,0.4-2.5,0.6-3.8,0.6c-0.7,0-1.4,0-2.1-0.3c-0.7-0.2-1.5-0.7-2.1-1.6l-0.2-0.3
		c-0.4-0.6-0.2-1.4,0.5-1.8c0.6-0.4,1.4-0.2,1.8,0.5c0.1,0.2,0.2,0.4,0.2,0.6c0,0.3,0.2,0.6,0.6,0.9c0.4,0.3,0.9,0.5,1.5,0.7
		C167.9,68,169.2,68.2,170.4,68.2"/>
	<path class="st14" d="M137.4,269.1c0.8-0.5-2.5,0.1-7.7,3.5c-13.3,8.6-18,3.9-18,3.9s1.9,1.4,0.5,6.6c-0.9,3.3,5.4,0.9,15.2-5.8
		c4.7-3.3,8.5-4.3,10-5.1C139.3,271.3,135.2,270.5,137.4,269.1"/>
	<path class="st33" d="M137.4,269.1c0.8-0.5-5.3-2.5-10.9,0.1c-7,3.3-17.1,0.7-17.1,0.7c-0.5,0.8-0.6,3.1,2.8,8.2c1.4,2,0,7.1,0,7.1
		s5.4-1.1,15.2-7.8c4.7-3.3,8.5-4.3,10-5.1C139.3,271.3,135.2,270.5,137.4,269.1z"/>
	<path class="st11" d="M129.7,281.9c0,0-5.8,5.4,3.3,8.1c5.1,1.5,6.6-5.5,6.6-5.5s-1.7,2.1-5.3,1.8
		C131.7,286.1,129.7,281.9,129.7,281.9"/>
	<circle class="st35" cx="133.6" cy="284.2" r="6.1"/>
	<path class="st11" d="M147.1,281.9c0,0-5.8,5.4,3.3,8.1c5.1,1.5,6.6-5.5,6.6-5.5s-1.7,2.1-5.3,1.8
		C149.2,286.1,147.1,281.9,147.1,281.9"/>
	<circle class="st35" cx="151" cy="284.2" r="6.1"/>
	<path class="st11" d="M164.8,281.9c0,0-5.8,5.4,3.3,8.1c5.1,1.5,6.6-5.5,6.6-5.5s-1.7,2.1-5.3,1.8
		C166.9,286.1,164.8,281.9,164.8,281.9"/>
	<circle class="st35" cx="168.7" cy="284.2" r="6.1"/>
	<path class="st7" d="M263.8,229.6h-6c-1.6,0-2.9-1.3-2.9-2.9v-4.9h11.5v5.2C266.4,228.5,265.2,229.6,263.8,229.6"/>
	<line class="st8" x1="258.5" y1="222.5" x2="258.5" y2="219.6"/>
	<line class="st8" x1="262.7" y1="222.6" x2="262.7" y2="219.6"/>
	<path class="st9" d="M249.8,210.9l6.4,8.8h8.6l6.6-8.9c0,0-4.5,1-10.8,1.1C255.5,212,249.8,210.9,249.8,210.9"/>
	<path class="st8" d="M249.8,210.9l6.4,8.8h8.6l6.6-8.9c0,0-4.5,1-10.8,1.1C255.5,212,249.8,210.9,249.8,210.9"/>
	<path class="st10" d="M249.8,210.9c0,0,5.1,0.9,11.2,0.9c6.7,0,10.4-1,10.4-1s21.3-22.4,14.2-38.3c-8.1-18.1-34-20.5-47-4.6
		C224.5,184.9,249.8,210.9,249.8,210.9"/>
	<path class="st8" d="M249.8,210.9c0,0,5.1,0.9,11.2,0.9c6.7,0,10.4-1,10.4-1s21.3-22.4,14.2-38.3c-8.1-18.1-34-20.5-47-4.6
		C224.5,184.9,249.8,210.9,249.8,210.9z"/>
	<path class="st11" d="M260.6,157c0,0-18.2,0.1-24.4,16.8c-5.8,15.8,14.9,36.9,14.9,36.9h5.8c0,0-10.8-18.4-9.6-32.7
		C248.7,162.7,260.6,157,260.6,157"/>
	<path class="st8" d="M252.1,211.2c0,0,4,0.6,8.9,0.6c5.9,0,8.9-0.7,8.9-0.7s19.8-23.5,12.8-40.7c-5.1-12.4-28.5-19.7-40.7-5
		C227.9,182.3,252.1,211.2,252.1,211.2z"/>
	<path class="st8" d="M254.8,211.5c0,0,3.2,0.3,6.1,0.3c3.1,0,6-0.3,6-0.3s15.7-26.9,8.7-44.1c-5.1-12.4-20.6-12.7-26-5.8
		C235.8,178.9,254.8,211.5,254.8,211.5z"/>
	<path class="st8" d="M253.4,184c2.7,23,5.5,27.7,5.5,27.7h2h2c0,0,5.1-15.2,5.6-28.1C270.2,144.4,249.6,152.5,253.4,184z"/>
	<path class="st12" d="M263.8,229.6h-6c-1.6,0-2.9-1.3-2.9-2.9v-4.9h11.5v5.2C266.4,228.5,265.2,229.6,263.8,229.6z"/>
</g>
</svg>
