<?xml version="1.0" encoding="UTF-8" standalone="no"?>
<svg
   xmlns:inkscape0="https://www.inkscape.org/namespaces/inkscape"
   xmlns:dc="http://purl.org/dc/elements/1.1/"
   xmlns:cc="http://creativecommons.org/ns#"
   xmlns:rdf="http://www.w3.org/1999/02/22-rdf-syntax-ns#"
   xmlns:svg="http://www.w3.org/2000/svg"
   xmlns="http://www.w3.org/2000/svg"
   xmlns:sodipodi="http://sodipodi.sourceforge.net/DTD/sodipodi-0.dtd"
   xmlns:inkscape="http://www.inkscape.org/namespaces/inkscape"
   inkscape:export-ydpi="67.534431"
   inkscape:export-xdpi="67.534431"
   inkscape:export-filename="/home/you/Pictures/draw/jenkins/punkins-small.png"
   width="59.674786mm"
   height="96.282745mm"
   viewBox="0 0 59.674786 96.282745"
   version="1.1"
   id="svg2093"
   inkscape:version="1.0 (4035a4fb49, 2020-05-01)"
   sodipodi:docname="punkins.svg">
  <defs
     id="defs2087" />
  <sodipodi:namedview
     id="base"
     pagecolor="#ffffff"
     bordercolor="#666666"
     borderopacity="1.0"
     inkscape:pageopacity="0.0"
     inkscape:pageshadow="2"
     inkscape:zoom="2.2368581"
     inkscape:cx="25.595403"
     inkscape:cy="181.95163"
     inkscape:document-units="mm"
     inkscape:current-layer="layer1"
     inkscape:document-rotation="0"
     showgrid="false"
     fit-margin-top="0"
     fit-margin-left="0"
     fit-margin-right="0"
     fit-margin-bottom="0"
     inkscape:window-width="1920"
     inkscape:window-height="1059"
     inkscape:window-x="1366"
     inkscape:window-y="0"
     inkscape:window-maximized="0" />
  <metadata
     id="metadata2090">
    <rdf:RDF>
      <cc:Work
         rdf:about="">
        <dc:format>image/svg+xml</dc:format>
        <dc:type
           rdf:resource="http://purl.org/dc/dcmitype/StillImage" />
        <dc:title />
      </cc:Work>
    </rdf:RDF>
  </metadata>
  <g
     inkscape:label="Layer 1"
     inkscape:groupmode="layer"
     id="layer1"
     transform="translate(-27.614988,-106.27784)">
    <g
       id="g2378">
      <path
         inkscape0:connector-curvature="0"
         id="path22-4"
         style="fill:#d33833;fill-opacity:1;fill-rule:evenodd;stroke:none;stroke-width:0.330729"
         d="m 86.391514,155.69334 c 0,16.34754 -12.956315,29.59999 -28.938802,29.59999 -15.982222,0 -28.938554,-13.25245 -28.938554,-29.59999 0,-16.34794 12.956332,-29.60059 28.938554,-29.60059 15.982487,0 28.938802,13.25265 28.938802,29.60059" />
      <path
         inkscape0:connector-curvature="0"
         id="path24-5"
         style="fill:#ef3d3a;fill-opacity:1;fill-rule:nonzero;stroke:none;stroke-width:0.330729"
         d="m 29.693417,163.02428 c 0,0 -2.094966,-30.86794 26.347875,-31.75 l -1.984243,-3.30729 -15.433939,5.18153 -4.409811,5.07107 -3.858424,7.38651 -2.205035,8.59896 0.661459,5.73252" />
      <path
         inkscape0:connector-curvature="0"
         id="path26-2"
         style="fill:#231f20;fill-opacity:1;fill-rule:nonzero;stroke:none;stroke-width:0.330729"
         d="m 37.632214,135.50067 c -5.077355,5.19509 -8.219271,12.36795 -8.219271,20.30313 v 0 c 0,7.93353 3.141916,15.10731 8.219271,20.30144 v 0 c 5.079801,5.19414 12.080509,8.39924 19.820101,8.39924 v 0 c 7.73979,0 14.740996,-3.2051 19.820334,-8.39924 v 0 c 5.077024,-5.19413 8.219612,-12.36791 8.219612,-20.30144 v 0 c 0,-7.93518 -3.142588,-15.10804 -8.219612,-20.30313 v 0 c -5.079338,-5.19311 -12.080544,-8.39821 -19.820334,-8.39887 v 0 c -7.739592,6.6e-4 -14.7403,3.20576 -19.820101,8.39887 z M 36.347,177.36175 c -5.396045,-5.51851 -8.732012,-13.14519 -8.732012,-21.55795 v 0 c 0,-8.41408 3.335967,-16.04003 8.732012,-21.55891 v 0 c 5.394788,-5.51987 12.862552,-8.94126 21.105315,-8.94027 v 0 c 8.242829,-9.8e-4 15.711355,3.4204 21.105217,8.94027 v 0 c 5.396508,5.51888 8.732904,13.14549 8.732242,21.55891 v 0 c 5.3e-4,8.41276 -3.335734,16.03944 -8.732242,21.55795 v 0 c -5.393862,5.51957 -12.862388,8.94054 -21.105217,8.94054 v 0 c -8.242763,0 -15.710527,-3.42097 -21.105315,-8.94054 v 0" />
      <path
         inkscape0:connector-curvature="0"
         id="path28-5"
         style="fill:#f0d6b7;fill-opacity:1;fill-rule:evenodd;stroke:none;stroke-width:0.330729"
         d="m 69.634459,155.85738 -4.409942,0.66146 -5.953192,0.66145 -3.858683,0.11014 -3.748087,-0.11014 -2.866496,-0.88205 -2.535635,-2.75597 -1.984375,-5.62239 -0.440928,-1.21279 -2.645833,-0.88172 -1.543447,-2.5357 -1.102386,-3.63802 1.21285,-3.19716 1.570884,-6.39085 0.780452,-3.45552 2.959095,-0.88311 2.821511,-0.16771 2.010206,-3.2137 3.527822,-2.5357 6.173788,-2.64583 6.834912,0.99219 5.953125,4.29947 2.756297,4.40962 1.763779,3.19716 0.440862,7.9375 -1.322917,6.83517 -2.425237,6.06326 -2.315104,3.19716"
         sodipodi:nodetypes="cccccccccccccccccccccccccccc" />
      <path
         id="rect1697"
         style="fill:#deaa87;fill-opacity:1;stroke-width:0.264583"
         d="m 69.862975,119.92286 c 4.322185,1.88477 7.950425,11.83486 7.034461,19.14209 -0.915964,7.30722 -4.062802,14.58971 -8.66412,16.37551 3.692491,-3.29895 3.647588,-7.41616 4.271002,-12.38738 0.154969,-1.28182 -3.705953,2.03356 -2.847094,0.82834 1.537425,-2.15744 1.0116,-2.49332 0.994111,-5.96753 -0.0087,-1.7371 2.177823,-7.30647 2.567845,-10.25558 0.390022,-2.9491 -3.329826,-5.89604 -3.356205,-7.73545 z"
         sodipodi:nodetypes="csccsssc" />
      <path
         inkscape0:connector-curvature="0"
         id="path30-4"
         style="fill:#335061;fill-opacity:1;fill-rule:evenodd;stroke:none;stroke-width:0.330729"
         d="m 65.885975,174.92921 -15.765,0.66145 v 2.64584 l 0.745242,5.00569 -0.08378,5.02665 -11.024132,-3.74849 -0.771922,-1.32291 -1.102387,-12.45725 -2.535237,-7.49664 -0.551392,-1.76378 8.819224,-6.06325 2.756297,-1.10265 2.425171,2.97656 2.094574,1.87424 2.425568,0.77159 1.102254,0.33073 1.322916,5.73253 0.992188,1.21272 2.535767,-0.88199 -1.76411,3.41775 9.591212,4.51975 -1.212453,0.66146"
         sodipodi:nodetypes="cccccccccccccccccccccc" />
      <path
         inkscape0:connector-curvature="0"
         id="path38-3"
         style="fill:#f7e4cd;fill-opacity:1;fill-rule:evenodd;stroke:none;stroke-width:0.330729"
         d="m 44.49858,145.9355 1.443468,-1.39865 c 0,0 0.651502,0.0757 0.761569,0.84733 0.110067,0.77192 0.440796,7.71723 5.181203,11.46572 0.432396,0.34197 -3.527557,-0.55166 -3.527557,-0.55166 l -3.527954,-5.51193" />
      <path
         inkscape0:connector-curvature="0"
         id="path44-6"
         style="fill:#f7e4cd;fill-opacity:1;fill-rule:nonzero;stroke:none;stroke-width:0.330729"
         d="m 60.594242,131.71448 c 0,0 -2.425568,0.33073 -2.425568,1.87391 0,1.54352 2.756363,1.43338 3.527955,0.77193" />
      <path
         inkscape0:connector-curvature="0"
         id="path46-8"
         style="fill:#f7e4cd;fill-opacity:1;fill-rule:evenodd;stroke:none;stroke-width:0.330729"
         d="m 45.600966,138.88006 c 0,0 -4.189412,-2.5357 -4.630208,-0.11013 -0.440928,2.42523 -1.43338,4.18934 0.661458,6.72471 l -1.433116,-0.44086 -1.322916,-3.41742 -0.440796,-3.30729 2.53537,-2.64617 2.866363,0.2206 1.653646,1.32291 0.110199,1.65365" />
      <path
         inkscape0:connector-curvature="0"
         id="path48-8"
         style="fill:#f7e4cd;fill-opacity:1;fill-rule:evenodd;stroke:none;stroke-width:0.330729"
         d="m 49.822846,125.73129 c 0,0 -0.363329,-3.49782 9.11775,-5.37206 7.805606,-1.54285 11.905986,0.33073 13.449499,2.0945 0,0 -6.945313,-8.26789 -13.559962,-5.73252 -7.831455,2.42301 -13.843831,4.41758 -16.710957,9.63322"
         sodipodi:nodetypes="ccccc" />
      <path
         id="rect1865"
         style="fill:#49728b;fill-opacity:0.508612;stroke:none;stroke-width:0.529167;stroke-miterlimit:4;stroke-dasharray:none;stroke-opacity:1"
         d="m 53.44533,119.17991 c 0,0 -3.086065,1.68263 -6.023094,6.13592 l -5.145429,0.43022 c 1.397664,-4.13723 11.300968,-7.81308 11.168523,-6.56614 z"
         sodipodi:nodetypes="cccc" />
      <path
         inkscape0:connector-curvature="0"
         id="path50-4"
         style="fill:#f7e4cd;fill-opacity:1;fill-rule:evenodd;stroke:none;stroke-width:0.330729"
         d="m 62.716992,129.42546 c 0,0 3.196828,0.11014 3.307291,-2.75629 0,0 2.65e-4,-0.44087 -0.220265,-0.88173 0,0 -2.536032,2.86643 -4.079214,1.32292" />
      <path
         inkscape0:connector-curvature="0"
         id="path52-31"
         style="fill:#f7e4cd;fill-opacity:1;fill-rule:evenodd;stroke:none;stroke-width:0.330729"
         d="m 59.162812,127.49272 c 0,0 -0.550365,-4.39969 -4.301429,-1.84183 -2.425303,1.65365 -2.204641,3.96875 -1.763845,4.40962 0.440928,0.44119 0.32104,1.3292 0.656696,0.71966 0.335491,-0.60953 0.225028,-2.59391 1.437878,-3.1449 1.212718,-0.55133 3.200699,-1.16714 3.9707,-0.14255" />
      <path
         inkscape0:connector-curvature="0"
         id="path54-4"
         style="fill:#49728b;fill-opacity:1;fill-rule:evenodd;stroke:none;stroke-width:0.330729"
         d="m 48.798059,157.29043 -10.362671,4.63021 c 0,0 4.299479,17.08778 2.094442,22.37945 l -1.543447,-0.551 -0.110199,-6.50451 -2.865967,-12.34705 -1.21285,-3.41776 10.803599,-7.27571 3.197093,3.08637" />
      <path
         inkscape0:connector-curvature="0"
         id="path56-9"
         style="fill:#49728b;fill-opacity:1;fill-rule:evenodd;stroke:none;stroke-width:0.330729"
         d="m 49.863636,166.74174 1.470189,1.79381 v 6.61458 h -1.764109 c 0,0 -0.220266,-4.6302 -0.220266,-5.1816 0,-0.55126 0.220266,-2.53563 0.220266,-2.53563" />
      <path
         inkscape0:connector-curvature="0"
         id="path58-2"
         style="fill:#49728b;fill-opacity:1;fill-rule:evenodd;stroke:none;stroke-width:0.330729"
         d="m 49.900445,176.14232 -4.960937,0.22027 1.43338,0.99218 3.527557,0.55126" />
      <path
         inkscape0:connector-curvature="0"
         id="path62-6"
         style="fill:#335061;fill-opacity:1;fill-rule:evenodd;stroke:none;stroke-width:0.330729"
         d="m 67.980483,175.03967 6.173721,-0.33073 c 0,0 2.53537,-6.39405 2.53537,-6.72478 0,-0.33073 2.204971,-9.26035 2.204971,-9.26035 l -4.960937,-5.18121 -0.992188,-0.88205 -2.645833,2.64583 v 10.25261 l -2.315104,9.48068" />
      <path
         inkscape0:connector-curvature="0"
         id="path72-4"
         style="fill:#f0d6b7;fill-opacity:1;fill-rule:evenodd;stroke:none;stroke-width:0.330729"
         d="m 72.137087,184.19095 5.937237,-1.21272 c 0.965964,1.64501 5.17626,0.98743 6.520008,-0.44093 l 1.212784,-3.74812 -2.204972,-6.50448 -2.53537,-0.33073 -3.527888,1.10238 -3.384682,1.65259 -1.796851,-0.32967 -1.400308,0.5502"
         sodipodi:nodetypes="cccccccccc" />
      <path
         sodipodi:nodetypes="cccc"
         d="m 71.096129,175.32405 c 0.590653,-0.90278 1.554406,-1.90062 4.101319,-0.0574 -1.380413,1.99727 0.02328,6.62482 2.764282,7.61236 -3.951832,1.94707 -7.830915,0.59226 -6.865601,-7.55498 z"
         style="fill:#deaa87;fill-opacity:1;stroke-width:0.281654"
         id="rect1694-8" />
      <path
         inkscape0:connector-curvature="0"
         id="path60-0"
         style="fill:#335061;fill-opacity:1;fill-rule:evenodd;stroke:none;stroke-width:0.330729"
         d="m 66.878162,175.03967 4.078883,-0.1102 0.992188,10.14254 -4.189347,0.55099 -0.881724,-10.58333" />
      <path
         inkscape0:connector-curvature="0"
         id="path64-89"
         style="fill:#49728b;fill-opacity:1;fill-rule:evenodd;stroke:none;stroke-width:0.330729"
         d="m 70.736449,174.26801 -3.858287,0.77166 0.550995,3.08703 c 1.43305,0.66145 3.858617,-1.10266 3.858617,-1.10266" />
      <path
         inkscape0:connector-curvature="0"
         id="path66-2"
         style="fill:#49728b;fill-opacity:1;fill-rule:evenodd;stroke:none;stroke-width:0.330729"
         d="m 70.846912,154.97565 7.716904,5.73253 0.220596,-2.64583 -5.842992,-5.4018 -2.094508,2.3151" />
      <path
         inkscape0:connector-curvature="0"
         id="path68-6"
         style="fill:#ffffff;fill-opacity:1;fill-rule:evenodd;stroke:none;stroke-width:0.330729"
         d="m 53.72632,196.75864 -2.282428,-9.26173 -1.135195,-6.83379 -0.187722,-5.07246 10.33026,-0.54993 6.426927,-0.001 -0.584398,11.57658 0.992188,8.92967 -0.110133,1.65365 -8.37823,0.66146 -5.071269,-1.10239" />
      <path
         inkscape0:connector-curvature="0"
         id="path76-5"
         style="fill:#ffffff;fill-opacity:1;fill-rule:nonzero;stroke:none;stroke-width:0.330729"
         d="m 67.727144,174.15897 -2.425237,-6.17375 -2.5357,-3.63802 c 0,0 0.550995,-1.54352 1.322916,-1.54352 0.771922,0 2.535701,0 2.535701,0 l 2.425237,0.88206 -0.220266,4.07895 -1.102651,6.39428" />
      <path
         inkscape0:connector-curvature="0"
         id="path78-0"
         style="fill:#dcd9d8;fill-opacity:1;fill-rule:evenodd;stroke:none;stroke-width:0.330729"
         d="m 68.201079,172.06311 c 0,0 -3.087026,-5.95286 -3.087026,-6.83485 0,0 0.550995,-1.32292 1.322917,-0.99219 0.771922,0.33073 2.425567,1.21245 2.425567,1.21245 v -2.0945 l -3.748484,-0.77193 -2.53537,0.33073 4.299479,10.14247 0.881724,0.11047" />
      <path
         inkscape0:connector-curvature="0"
         id="path80-4"
         style="fill:#ffffff;fill-opacity:1;fill-rule:nonzero;stroke:none;stroke-width:0.330729"
         d="m 54.71864,157.51235 -3.054085,-0.33206 -2.866496,-0.88205 v 0.99219 l 1.400572,1.5445 4.409678,1.98438" />
      <path
         inkscape0:connector-curvature="0"
         id="path82-8"
         style="fill:#dcd9d8;fill-opacity:1;fill-rule:evenodd;stroke:none;stroke-width:0.330729"
         d="m 49.790643,157.84275 c 0,0 3.417755,1.43338 4.520142,1.10265 l 0.10967,1.32159 -3.086233,-0.66014 -1.874308,-1.32291 0.330729,-0.44119" />
      <path
         inkscape0:connector-curvature="0"
         id="path84-7"
         style="fill:#d33833;fill-opacity:1;fill-rule:evenodd;stroke:none;stroke-width:0.330729"
         d="m 72.125181,163.17906 c -1.870604,-0.0549 -3.560631,-0.27715 -5.040313,-0.69453 0.100542,-0.60656 -0.08764,-1.20187 0.0635,-1.63876 0.412419,-0.297 1.103643,-0.29237 1.727068,-0.36215 -0.539089,-0.26492 -1.296458,-0.36976 -1.91856,-0.21663 -0.01455,-0.42102 -0.203398,-0.68196 -0.317831,-1.01137 1.051719,-0.37538 3.534503,-2.83633 4.931172,-2.02142 0.665427,0.38762 0.948201,2.60152 0.999794,3.67804 0.043,0.89297 -0.08103,1.79388 -0.44483,2.26682" />
      <path
         inkscape0:connector-curvature="0"
         id="path86-1"
         style="fill:none;stroke:#d33833;stroke-width:0.661458;stroke-linecap:butt;stroke-linejoin:miter;stroke-miterlimit:4;stroke-dasharray:none;stroke-opacity:1"
         d="m 72.125181,163.17906 c -1.870604,-0.0549 -3.560631,-0.27715 -5.040313,-0.69453 0.100542,-0.60656 -0.08764,-1.20187 0.0635,-1.63876 0.412419,-0.297 1.103643,-0.29237 1.727068,-0.36215 -0.539089,-0.26492 -1.296458,-0.36976 -1.91856,-0.21663 -0.01455,-0.42102 -0.203398,-0.68196 -0.317831,-1.01137 1.051719,-0.37538 3.534503,-2.83633 4.931172,-2.02142 0.665427,0.38762 0.948201,2.60152 0.999794,3.67804 0.043,0.89297 -0.08103,1.79388 -0.44483,2.26682 z" />
      <path
         inkscape0:connector-curvature="0"
         id="path88-72"
         style="fill:#d33833;fill-opacity:1;fill-rule:evenodd;stroke:none;stroke-width:0.330729"
         d="m 63.179949,160.12114 c -0.0049,0.14155 -0.0109,0.28409 -0.01654,0.42697 -0.584067,0.38365 -1.526976,0.37902 -2.167929,0.70148 0.944893,0.0413 1.688703,0.26888 2.332302,0.58969 -0.01421,0.35652 -0.02778,0.71272 -0.04167,1.06924 -1.07057,0.7329 -2.048536,1.82431 -3.309011,2.51159 -0.595974,0.32504 -2.687572,1.16143 -3.321646,1.01362 -0.358743,-0.0833 -0.391054,-0.5285 -0.534458,-0.94813 -0.305528,-0.89863 -1.008989,-2.32903 -1.07034,-3.68171 -0.07815,-1.70855 -0.250627,-4.572 1.590609,-4.22011 1.485437,0.28344 3.2131,0.96772 4.363145,1.5961 0.7028,0.38431 1.109266,0.85924 2.175537,0.94126" />
      <path
         inkscape0:connector-curvature="0"
         id="path90-7"
         style="fill:none;stroke:#d33833;stroke-width:0.661458;stroke-linecap:butt;stroke-linejoin:miter;stroke-miterlimit:4;stroke-dasharray:none;stroke-opacity:1"
         d="m 63.179949,160.12114 c -0.0049,0.14155 -0.0109,0.28409 -0.01654,0.42697 -0.584067,0.38365 -1.526976,0.37902 -2.167929,0.70148 0.944893,0.0413 1.688703,0.26888 2.332302,0.58969 -0.01421,0.35652 -0.02778,0.71272 -0.04167,1.06924 -1.07057,0.7329 -2.048536,1.82431 -3.309011,2.51159 -0.595974,0.32504 -2.687572,1.16143 -3.321646,1.01362 -0.358743,-0.0833 -0.391054,-0.5285 -0.534458,-0.94813 -0.305528,-0.89863 -1.008989,-2.32903 -1.07034,-3.68171 -0.07815,-1.70855 -0.250627,-4.572 1.590609,-4.22011 1.485437,0.28344 3.2131,0.96772 4.363145,1.5961 0.7028,0.38431 1.109266,0.85924 2.175537,0.94126 z" />
      <path
         inkscape0:connector-curvature="0"
         id="path92-2"
         style="fill:#d33833;fill-opacity:1;fill-rule:evenodd;stroke:none;stroke-width:0.330729"
         d="m 64.243243,162.15975 c -0.16338,-0.93067 -0.352226,-1.19624 -0.279135,-2.00818 2.482122,-1.65497 2.94812,2.84261 0.279135,2.00818" />
      <path
         inkscape0:connector-curvature="0"
         id="path94-2"
         style="fill:none;stroke:#d33833;stroke-width:0.661458;stroke-linecap:butt;stroke-linejoin:miter;stroke-miterlimit:4;stroke-dasharray:none;stroke-opacity:1"
         d="m 64.243243,162.15975 c -0.16338,-0.93067 -0.352226,-1.19624 -0.279135,-2.00818 2.482122,-1.65497 2.94812,2.84261 0.279135,2.00818 z" />
      <path
         inkscape0:connector-curvature="0"
         id="path96-6"
         style="fill:#ef3d3a;fill-opacity:1;fill-rule:evenodd;stroke:none;stroke-width:0.330729"
         d="m 67.837277,162.91415 c 0,0 -0.771922,-1.10265 -0.220596,-1.43338 0.551325,-0.33073 1.102651,2.6e-4 1.43338,-0.551 0.330729,-0.55132 0,-0.88205 0.110133,-1.54351 0.110133,-0.66146 0.661789,-0.77192 1.212784,-0.88206 0.550994,-0.11013 2.094838,-0.33073 2.315104,0.2206 l -0.661459,-1.98437 -1.322916,-0.44087 -4.189347,2.42524 -0.220596,1.21278 v 2.42524" />
      <path
         inkscape0:connector-curvature="0"
         id="path98-1"
         style="fill:#ef3d3a;fill-opacity:1;fill-rule:evenodd;stroke:none;stroke-width:0.330729"
         d="m 56.261822,166.5522 c -0.132424,-1.72049 -0.272587,-3.43862 -0.428524,-5.15742 -0.233331,-2.56646 0.616479,-2.11865 2.841159,-2.11865 0.339791,0 2.092161,0.40514 2.217508,0.66145 0.601265,1.228 -1.005417,0.95515 0.692546,1.88119 1.433381,0.78151 3.965443,-0.47459 3.386336,-2.21192 -0.324114,-0.38629 -1.688703,-0.12038 -2.177851,-0.37405 -0.861219,-0.44648 -1.722438,-0.89297 -2.583754,-1.33945 -1.095772,-0.56853 -3.628332,-1.39733 -4.7966,-0.60292 -2.960158,2.01315 0.186828,7.04321 1.242814,9.1433" />
      <path
         inkscape0:connector-curvature="0"
         id="path108-4"
         style="fill:#231f20;fill-opacity:1;fill-rule:evenodd;stroke:none;stroke-width:0.330729"
         d="m 44.846507,141.49679 c -0.67568,-0.38563 -0.836512,-2.08426 -1.629767,-2.13254 -1.133639,-0.0688 -0.926934,2.20365 -0.922404,3.53251 -0.780322,-0.70842 -0.917541,-2.88957 -0.344289,-4.00975 -0.653323,-0.32081 -0.945057,0.35388 -1.307439,0.59167 0.465733,-3.38336 4.949331,-1.56931 4.203899,2.01811" />
      <path
         inkscape0:connector-curvature="0"
         id="path116-7"
         style="fill:#81b0c4;fill-opacity:1;fill-rule:evenodd;stroke:none;stroke-width:0.330729"
         d="m 73.108769,165.42928 c -1.524,2.61018 -2.982185,5.29103 -4.790281,7.59334 0.758031,-2.22882 1.082477,-5.95921 1.196909,-8.80309 1.585846,-0.74215 2.94382,0.16702 3.593372,1.20975" />
      <path
         inkscape0:connector-curvature="0"
         id="path118-7"
         style="fill:#231f20;fill-opacity:1;fill-rule:evenodd;stroke:none;stroke-width:0.365072"
         d="m 81.037858,174.19361 c -2.716757,1.18795 -4.018341,3.2366 -4.638016,2.92941 1.568233,-1.41189 4.384871,-3.47494 4.638016,-2.92941"
         sodipodi:nodetypes="ccc"
         inkscape:transform-center-x="0.4289763"
         inkscape:transform-center-y="-1.6256223" />
      <path
         inkscape0:connector-curvature="0"
         id="path122-1"
         style="fill:#231f20;fill-opacity:1;fill-rule:evenodd;stroke:none;stroke-width:0.365072"
         d="m 76.304534,175.39244 c 1.570368,0.23323 4.907703,0.47641 4.995905,1.02104 -0.169426,0.29825 -5.000819,-0.51669 -4.995905,-1.02104"
         sodipodi:nodetypes="ccc"
         inkscape:transform-center-x="-1.4700237"
         inkscape:transform-center-y="-1.4026894" />
      <path
         inkscape0:connector-curvature="0"
         id="path126-9"
         style="fill:#f0d6b7;fill-opacity:1;fill-rule:evenodd;stroke:none;stroke-width:0.330729"
         d="m 67.6481,157.15351 c -0.78482,0.5123 -1.453224,1.15193 -2.206956,1.69895 -1.671505,0.0827 -2.583656,-0.11575 -3.811653,-1.07553 0.02016,-0.0771 0.143536,-0.0427 0.148166,-0.13725 1.789245,0.79739 4.06367,-0.32478 5.870443,-0.48617" />
      <path
         inkscape0:connector-curvature="0"
         id="path128-7"
         style="fill:#81b0c4;fill-opacity:1;fill-rule:evenodd;stroke:none;stroke-width:0.330729"
         d="m 58.255225,169.3501 c 0.491596,-2.13022 2.417829,-3.2335 4.167023,-4.4066 1.805451,2.29136 2.903472,5.23809 4.112618,8.0817 -2.856839,-0.86119 -5.775855,-2.25852 -8.279641,-3.6751" />
      <path
         id="path52-31-5"
         style="fill:#f7e4cd;fill-opacity:1;fill-rule:evenodd;stroke:none;stroke-width:0.330729"
         d="m 47.132758,125.90014 c 0,0 -0.914448,-1.75406 -4.665522,0.8038 -2.425303,1.65365 -1.875481,8.41619 -1.434685,8.85705 0.440928,0.44119 0.892993,-3.11823 1.228648,-3.72777 0.335492,-0.60953 0.07384,-1.40997 1.286685,-1.96096 1.212718,-0.55133 2.16893,-0.58122 2.938931,0.44338"
         sodipodi:nodetypes="cccccc" />
      <path
         id="rect1694-8-9"
         style="fill:#deaa87;fill-opacity:1;stroke-width:0.281654"
         d="m 85.496627,181.6295 c -0.590653,0.90279 -4.845516,3.78548 -7.392429,1.94223 0.66299,-0.13327 1.26351,-0.36451 1.799307,-0.67358 0.535799,-0.30907 2.731293,-0.18926 3.135402,-0.63385 0.404109,-0.44458 -0.983168,-1.45356 -0.715251,-1.99338 0.267917,-0.53982 0.872977,-1.12805 1.000205,-1.72282 0.127227,-0.59476 -0.223377,-1.19606 -0.24134,-1.80548 -0.01797,-0.60943 0.481404,-1.21631 0.313751,-1.80011 -0.167653,-0.5838 -1.002329,-1.14452 -1.324173,-1.66241 -0.321845,-0.51789 -0.721908,-0.99275 -1.202444,-1.40444 4.433122,1.50422 5.173903,5.45393 4.626972,9.75384 z"
         sodipodi:nodetypes="ccssssssscc" />
      <path
         id="path130-7"
         style="fill:#231f20;fill-opacity:1;fill-rule:evenodd;stroke:none;stroke-width:0.330729"
         d="m 60.329397,115.93368 c -2.512682,-0.0149 -4.999628,0.37403 -7.042981,1.12603 -1.402128,0.51594 -2.759885,0.9777 -3.991486,1.70068 -3.294758,1.93443 -5.801793,3.0152 -7.768518,7.12101 -0.35813,1.39214 -1.19203,4.70795 -1.603521,9.38599 -0.06654,0.33271 -1.655693,1.32953 -1.746146,1.54616 -1.15342,2.75067 -0.228778,6.36684 1.104325,8.32145 0.805889,1.18104 2.140048,2.22868 3.90002,2.50682 0.06976,1.05371 0.324006,1.96084 0.810805,3.02876 0.307744,0.67535 1.458809,1.89022 1.035079,2.75177 -0.213157,0.43458 -2.08747,1.37807 -2.708879,1.7508 -2.098045,1.25876 -3.618521,2.02991 -5.555734,3.4246 -1.253164,0.9019 -3.213216,1.01775 -2.904214,3.09903 0.208391,1.40428 1.007694,3.14448 1.465027,4.5527 0.494805,1.5194 1.203825,2.9107 1.610754,4.48758 0.906296,3.514 1.095415,6.82424 1.31568,10.25622 0.08655,1.34372 -0.05633,2.76661 0.292489,3.50883 0.359799,0.76663 1.692021,1.01234 2.655136,1.45882 2.194719,1.0151 7.32195,2.94249 9.986685,3.31227 l -0.184179,-1.95474 c -3.246263,-0.7338 -8.334002,-2.99263 -11.046357,-4.26122 -0.208492,-7.40626 -1.387898,-15.09054 -4.310848,-21.36252 3.065692,-2.36637 6.496261,-4.86844 10.16527,-6.31538 0.0087,-0.003 0.01902,-0.004 0.03101,-0.002 0.371758,0.0554 2.283629,2.53756 2.574001,2.74454 1.643296,1.16714 3.684291,2.08913 5.593459,2.9993 0.116549,0.8761 0.38745,2.01046 0.862478,3.5295 0.524272,1.67712 0.95617,4.04472 3.172417,2.836 -0.210573,0.95746 -1.441495,1.55225 -1.101743,2.66909 0.212926,0.70088 2.538881,1.56631 3.276804,1.98231 1.361215,0.76725 2.602735,1.19177 3.647839,1.64021 -4.750527,0.13033 -9.212225,0.51651 -13.602787,1.11414 -0.525561,-0.81468 -0.313156,-2.07 -0.368454,-3.36775 -0.06072,-1.40858 0.525034,-4.58564 -0.02894,-4.78266 -0.625938,-0.22261 -0.74362,1.04607 -0.765845,1.3255 -0.117308,1.48828 0.707988,4.6386 -0.105936,6.41925 -0.890754,-0.25182 -1.328986,-0.92216 -2.16421,-1.22577 -0.327488,1.03121 0.678148,1.08042 0.575159,1.7353 -0.136657,0.86581 -1.777417,0.14239 -1.768369,1.42989 1.068388,0.17105 2.706182,-0.33191 3.847828,0.14934 0.0048,0.056 0.01064,0.11104 0.0155,0.16691 h 0.807189 c -0.01045,-0.0946 -0.02276,-0.18459 -0.03307,-0.27957 3.049669,-0.57047 6.964677,-1.09243 10.653612,-1.12292 0.24593,-0.002 0.490725,-0.002 0.734321,5.3e-4 1.771619,0.0179 3.472863,0.15835 4.979541,0.4718 0.04773,0.31054 0.08547,0.62053 0.120406,0.93018 h 1.015442 c -2.6e-5,-0.2952 1.43e-4,-0.59035 0.0041,-0.88625 0.819877,-0.27454 1.544071,-0.2567 2.366264,-0.26459 0.711398,2.5704 0.668258,5.83997 1.017508,8.74572 -0.654331,0.14345 -1.223619,0.24321 -1.812293,0.33797 v 1.41851 h 0.352433 c 0.09725,-0.0178 0.191466,-0.0315 0.276468,-0.032 0.06785,-5.3e-4 0.13093,0.006 0.188103,0.0212 5.3e-4,0.004 0.0011,0.007 0.0016,0.0108 h 1.676384 c 0.01363,-0.0765 0.024,-0.15399 0.04289,-0.22892 0.704453,-0.2288 1.456033,-0.40734 1.343586,-1.51825 1.186656,-0.61751 2.593186,-0.75643 4.095358,-0.69815 0.192815,0.37438 0.468519,0.73395 0.716235,0.93999 2.103768,0.42261 4.141949,0.45694 5.88853,-0.11317 1.977429,-0.64555 2.920833,-4.68873 2.468065,-6.61252 -0.320477,-1.36363 -1.046218,-3.59704 -1.665013,-4.91804 -1.676797,-3.58375 -6.674178,-1.33428 -9.348785,-0.005 1.297451,-3.41349 2.414117,-6.95295 3.55844,-10.78177 0.342305,-1.1473 1.017902,-2.77358 0.866098,-3.96255 -0.141222,-1.1172 -1.885157,-2.29222 -2.80293,-3.17759 -0.509654,-0.49146 -2.886192,-2.29623 -3.024106,-2.97191 -0.133945,-0.65352 0.969079,-2.13458 1.323952,-2.87476 0.508992,-1.05999 0.873125,-2.35721 1.124479,-3.23959 1.869612,-6.57258 2.059553,-15.60232 -0.6134,-21.00544 -1.012031,-2.04655 -3.841482,-4.87323 -5.611545,-6.21202 -2.478619,-1.87451 -6.206112,-2.75892 -9.878499,-2.78067 z m -0.270267,1.83452 c 3.124335,-0.031 6.597759,1.07065 8.950876,2.3983 1.965854,1.10927 3.41763,3.25402 4.80074,5.03897 l 1.928048,3.64267 c 0.78482,1.57361 0.779301,3.90463 0.899686,6.24355 0.292365,5.67134 -1.037209,11.52291 -3.887102,15.6223 -0.761669,1.09471 -1.40167,2.29053 -2.473232,3.04426 -2.582334,1.81339 -6.50733,3.45721 -9.868133,2.33009 -4.441592,-1.4906 -6.459181,-4.45015 -8.901782,-7.8388 0.06615,1.86134 1.374981,3.38903 2.667537,4.81315 1.125273,1.24122 2.483445,2.64357 3.943945,3.22202 -1.218671,-0.28608 -3.088976,-0.37594 -3.596679,0.71778 -2.842583,-0.18884 -5.484681,-0.47922 -6.829558,-2.40605 -1.059622,-1.51904 -2.136547,-4.1015 -2.619478,-6.09679 -0.09842,-0.40977 -0.267684,-1.28331 -0.226343,-1.50688 0.15865,-0.86552 1.70103,-1.24553 1.094507,-2.45566 -1.119055,-0.0106 -1.37174,1.01881 -2.398818,1.12034 -2.658766,0.26293 -4.534469,-3.52445 -4.413687,-5.80946 0.102069,-1.94304 1.744845,-3.80211 3.991489,-3.55637 2.016429,0.61445 2.667791,2.51436 3.370336,2.20916 0.702546,-0.30519 1.59629,0.36638 1.218015,-0.17156 -0.378272,-0.53795 -1.378463,-4.20225 -2.604492,-4.28605 -1.226029,-0.0838 -2.121313,-0.0785 -3.962033,0.97875 -0.176344,-2.13651 0.420804,-5.20608 1.393714,-7.93956 1.344216,-1.48001 2.492452,-1.41495 4.747496,-1.58594 3.354014,-2.36237 4.67243,-6.80632 8.868727,-6.89882 1.137769,-0.5672 2.48607,-0.81529 3.906221,-0.8294 z m -8.148338,1.50792 c 0.15363,-0.009 0.292216,0.1032 0.424262,0.24443 -0.733097,0.93466 -1.753264,1.74935 -2.49405,2.54762 -0.67591,0.74745 -1.813822,2.59517 -2.709767,2.81742 -1.639033,0.51778 -2.967392,0.50356 -4.166153,0.69505 1.355063,-2.96234 5.581443,-5.35851 8.879043,-6.29315 0.0226,-0.006 0.04472,-0.0101 0.06667,-0.0114 z m 20.793046,34.50435 c 1.289513,1.03849 2.067925,2.01583 3.30419,3.12642 0.67105,0.60127 1.990101,1.32209 2.123385,2.29444 0.07475,0.54306 -0.258487,1.87285 -0.380855,2.48305 -0.541737,2.67791 -1.759336,6.2155 -2.919203,9.02167 -0.42168,1.01997 -0.824878,2.29483 -1.381826,2.51509 -1.523669,0.60332 -3.373128,-0.0583 -4.667933,0.74776 1.740628,-3.01995 3.635375,-5.87275 5.341276,-8.92865 -0.259953,-0.60656 -0.896898,-0.86476 -1.082106,-1.53944 1.198232,-2.26219 0.647258,-9.28444 -2.409672,-7.80211 0.427633,-0.62772 1.549861,-1.14631 2.072744,-1.91823 z m -1.858285,3.29127 c 0.261659,-0.0121 0.506274,0.0349 0.724503,0.16227 0.665427,0.38761 0.948346,2.6018 0.99994,3.67833 0.04299,0.89296 -0.08113,1.79358 -0.444934,2.26652 -1.870605,-0.0549 -3.560321,-0.27715 -5.040003,-0.69453 0.100541,-0.60656 -0.08758,-1.20177 0.06356,-1.63866 0.412419,-0.29699 1.103603,-0.29247 1.727028,-0.36225 -0.539089,-0.26491 -1.296647,-0.36965 -1.918748,-0.21653 -0.01455,-0.42101 -0.203377,-0.6819 -0.31781,-1.0113 0.887389,-0.31673 2.793498,-2.11825 4.206464,-2.18385 z m -3.197223,0.0816 c -0.78482,0.5123 -1.453367,1.1521 -2.207098,1.69912 -1.671506,0.0827 -2.583657,-0.11561 -3.811654,-1.07538 0.02016,-0.0771 0.143679,-0.0429 0.148309,-0.13746 1.789245,0.79738 4.06367,-0.32488 5.870443,-0.48628 z m -17.62838,0.031 c 0.933021,0.6479 2.737575,0.48909 4.11086,0.73019 0.0717,0.43987 -0.283959,1.01774 -0.277503,1.63091 -1.156261,-0.0711 -4.787842,-1.39206 -3.833357,-2.3611 z m 6.299358,0.37001 c 0.09986,-0.002 0.206865,0.007 0.321943,0.0295 1.485437,0.28343 3.212999,0.96789 4.363042,1.59628 0.7028,0.38431 1.109306,0.85901 2.175577,0.94103 -0.0049,0.14155 -0.0109,0.28397 -0.01654,0.42684 -0.584068,0.38365 -1.526873,0.37931 -2.167826,0.70177 0.944893,0.0413 1.68856,0.26882 2.332159,0.58963 -0.01423,0.35652 -0.02745,0.71266 -0.04134,1.06919 -1.070571,0.73289 -2.048886,1.82418 -3.309361,2.51147 -0.595974,0.32504 -2.687685,1.16169 -3.321759,1.01389 -0.358741,-0.0833 -0.39093,-0.52863 -0.534334,-0.94826 -0.305533,-0.89863 -1.008872,-2.32926 -1.070221,-3.68195 -0.07327,-1.60176 -0.229246,-4.2187 1.268658,-4.24935 z m 8.656318,2.22828 c 1.539647,-0.0107 1.5197,3.08117 -0.732256,2.37712 -0.16338,-0.93067 -0.352142,-1.19621 -0.279051,-2.00815 0.387832,-0.25859 0.726186,-0.36699 1.011307,-0.36897 z m 1.033528,3.23288 c 0.0421,-0.002 0.08483,-0.001 0.127641,0.004 0.785151,0.0833 1.406281,1.16716 2.526461,1.09605 -0.179586,2.92094 -0.08548,5.85301 -0.900718,8.5292 -1.519378,-2.786 -2.413437,-6.14919 -4.380614,-8.51989 0.208029,-0.22027 0.393838,-0.46484 0.597897,-0.6904 0.834988,0.34913 1.397823,-0.3861 2.029333,-0.41858 z m 4.645195,0.93328 c 1.081407,-0.008 1.967468,0.69848 2.454632,1.48053 -1.524,2.61018 -2.982309,5.29103 -4.790406,7.59333 0.758032,-2.22882 1.082392,-5.9592 1.196827,-8.80308 0.396457,-0.18554 0.778478,-0.26795 1.138947,-0.27078 z m -8.232056,0.99477 c 1.805451,2.29136 2.903265,5.23807 4.112411,8.08167 -2.856838,-0.86118 -5.775812,-2.25864 -8.279598,-3.67522 0.491596,-2.13023 2.417995,-3.23336 4.167187,-4.40645 z m 19.024161,7.56026 c 0.784032,0.0196 1.563481,0.65559 1.904794,1.17202 0.615818,0.93094 1.190998,3.6711 1.51412,5.1263 0.481542,2.16525 -0.600892,4.27367 -2.322338,4.69171 -1.253132,0.30423 -3.174754,0.38458 -3.995623,-0.0119 1.004424,-0.54881 2.512716,-0.55206 3.675229,-0.92863 -1.300649,-0.56014 -3.086486,-0.27359 -4.76095,-0.17932 l -1.02526,0.6041 -1.945619,-0.22117 c -0.459219,0.16452 -0.866008,0.38651 -1.496549,0.3669 -0.210675,-2.57942 -0.809538,-5.29101 -1.056267,-7.74836 0.393657,-0.008 0.852043,-0.0775 1.288296,-0.0589 h 1.864484 c -0.0031,-0.0106 -0.0056,-0.0225 -0.0088,-0.0331 1.168797,-1.24229 3.992292,-1.54049 5.595006,-2.56677 0.246311,-0.15774 0.508124,-0.21946 0.769461,-0.21291 z"
         sodipodi:nodetypes="scccccccccccccccccccccsccccccccccsccccccccccccccccccccccccccccccccccccccccssccccccccccccccccccsssccccscccccsscscccccccccsccccccccsccccccccccscccccccccccsccscccccccscccsccccscccccccccccccssssc" />
      <path
         inkscape0:connector-curvature="0"
         id="path132-6"
         style="fill:#deaa87;fill-opacity:1;fill-rule:evenodd;stroke:none;stroke-width:0.314039"
         d="m 57.007019,152.13173 c 0.111286,0.22704 0.723172,0.57188 1.579321,-0.0599 0,0 -1.014695,-0.25931 -0.930272,-2.85201 l -0.422825,0.12985 c 0,0 -0.436978,2.35089 -0.226224,2.78203" />
      <path
         inkscape0:connector-curvature="0"
         id="path134-7"
         style="fill:#1d1919;fill-opacity:1;fill-rule:evenodd;stroke:none;stroke-width:0.330729"
         d="m 67.208892,165.39362 c 0,0.33473 -0.271529,0.60616 -0.606558,0.60616 -0.334698,0 -0.606226,-0.27143 -0.606226,-0.60616 0,-0.33469 0.271528,-0.60655 0.606226,-0.60655 0.335029,0 0.606558,0.27186 0.606558,0.60655" />
      <path
         inkscape0:connector-curvature="0"
         id="path136-3"
         style="fill:#1d1919;fill-opacity:1;fill-rule:evenodd;stroke:none;stroke-width:0.330729"
         d="m 67.815118,168.20482 c 0,0.33473 -0.271528,0.60616 -0.606557,0.60616 -0.334698,0 -0.606227,-0.27143 -0.606227,-0.60616 0,-0.33473 0.271529,-0.60656 0.606227,-0.60656 0.335029,0 0.606557,0.27183 0.606557,0.60656" />
      <path
         d="m 60.606545,131.71448 c 0,0 -2.426229,0.33073 -2.426229,1.87325 0,1.54252 2.756958,1.43934 3.516313,0.77259"
         class="cls-8"
         id="path44-7"
         style="fill:#566d49;stroke-width:0.264583" />
      <path
         style="stroke-width:0.264583"
         d="m 60.712379,130.94984 c 0.642937,1.18004 0.854604,2.42093 1.770062,3.31523 0.41275,0.40216 1.214438,0.89164 0.817563,2.00818 -0.0926,0.26459 -0.772584,0.85196 -1.164167,0.96573 -1.431396,0.42334 -4.7625,0.0873 -3.638021,-1.69862 1.185333,0.0556 2.775479,0.76993 3.661833,-0.09 -0.679979,-1.08744 -1.89177,-3.23586 -1.444625,-4.49792"
         id="path104-5" />
      <circle
         id="circle71"
         transform="rotate(-4.22)"
         r="4.9133124"
         cy="139.25844"
         cx="48.682983"
         class="cls-15"
         style="fill:#ffffff;stroke:#000000;stroke-width:0.529167px;stroke-linecap:round;stroke-miterlimit:10" />
      <path
         id="path73"
         d="m 57.03467,132.67492 1.635125,1.61396 c 0,0 1.780646,-0.16669 2.38125,-0.16669 0.642938,0 2.619375,0.3466 2.619375,0.3466 0,0 -0.264583,-0.91281 -0.388937,-1.2012 -0.08202,-0.18786 -0.399521,-0.71173 -0.399521,-0.71173 0,0 -1.981729,-0.2884 -2.645833,-0.28311 -0.809625,0.0106 -3.201459,0.40217 -3.201459,0.40217 z"
         class="cls-16"
         style="fill:#b2b1b0;stroke-width:0.264583" />
      <path
         id="path75"
         d="m 54.124254,133.77823 c 0,0 2.566458,-1.2065 4.402666,-1.4261 a 15.041562,15.041562 0 0 1 4.352396,0.20637 c 0,0 -1.711854,-2.36537 -4.442354,-2.16429 -3.106208,0.23019 -4.312708,3.38402 -4.312708,3.38402 z"
         class="cls-17"
         style="fill:#f7e4cd;fill-opacity:1;stroke:#000000;stroke-width:0.79375px;stroke-linejoin:round" />
      <path
         d="m 56.431994,139.84928 c 3.890889,1.67397 8.604793,-1.70665 6.877384,-6.40851 0.508719,-0.76437 1.669603,3.52112 1.828281,4.053 l 0.782789,2.62387 c -1.890869,1.03867 -4.339318,1.20219 -6.654369,1.39171 -1.384853,0.11336 -2.412423,-1.29482 -2.834085,-1.66004 z"
         id="path232-7-6-0"
         style="fill:#deaa87;fill-opacity:1;stroke-width:0.600631"
         sodipodi:nodetypes="ccscscc" />
      <circle
         id="circle77"
         transform="rotate(-4.22)"
         r="4.9133124"
         cy="139.25844"
         cx="48.682983"
         class="cls-18"
         style="fill:none;stroke:#000000;stroke-width:0.79375px;stroke-linecap:round;stroke-miterlimit:10" />
      <circle
         id="circle81"
         transform="rotate(-4.22)"
         r="3.8999584"
         cy="138.74045"
         cx="62.078163"
         class="cls-19"
         style="fill:#ffffff;stroke:#000000;stroke-width:0.756708px;stroke-linecap:round;stroke-miterlimit:10" />
      <path
         id="path83"
         d="m 72.42988,131.8943 0.264583,1.34673 c 0.603917,0.11507 1.179841,0.34598 1.69598,0.67998 0.415843,0.28418 0.79449,0.61927 1.127125,0.99748 l 0.333375,-1.32292 c 0,0 -1.162013,-1.12232 -1.587992,-1.33134 -0.42598,-0.20902 -1.833071,-0.36993 -1.833071,-0.36993 z"
         class="cls-16"
         style="fill:#b2b1b0;stroke-width:0.264583"
         sodipodi:nodetypes="cccccsc" />
      <circle
         id="circle85"
         transform="rotate(-4.22)"
         r="2.6167293"
         cy="138.50101"
         cx="60.906658"
         class="cls-20"
         style="stroke:#000000;stroke-width:0.079375px;stroke-linecap:round;stroke-miterlimit:10" />
      <ellipse
         id="ellipse87"
         transform="rotate(-4.22)"
         ry="1.0080625"
         rx="1.1244792"
         cy="138.52023"
         cx="60.615265"
         class="cls-21"
         style="fill:#ffffff;stroke:#000000;stroke-width:0.03175px;stroke-linecap:round;stroke-miterlimit:10" />
      <circle
         id="circle89"
         transform="rotate(-4.22)"
         r="3.8999584"
         cy="138.74045"
         cx="62.078178"
         class="cls-22"
         style="fill:none;stroke:#000000;stroke-width:0.756708px;stroke-linecap:round;stroke-miterlimit:10" />
      <path
         id="path93"
         d="m 67.783064,132.93767 a 13.580638,13.580638 0 0 0 4.272873,-1.95984 c 2.40961,-1.81863 3.222045,-3.69344 3.222045,-3.69344 l -3.314785,-2.87518 c 0,0 0.251564,1.98756 -1.460111,4.62022 -1.523584,2.36506 -2.720022,3.90824 -2.720022,3.90824 z"
         class="cls-23"
         style="stroke:#000000;stroke-width:0.387443px;stroke-miterlimit:10" />
      <path
         sodipodi:nodetypes="ccccsc"
         style="fill:#deaa87;fill-opacity:1;stroke-width:0.197216"
         id="path232-7-6"
         d="m 64.951832,134.70644 c 1.290616,0.54408 2.080934,-0.34063 2.373598,-0.93331 0.168743,-0.24844 0.520525,0.80701 0.610902,0.96418 l -0.0291,0.0177 c -0.627206,0.3376 -1.247416,0.42945 -2.015324,0.49105 -0.459359,0.0368 -0.800206,-0.42085 -0.940072,-0.53956 z" />
      <path
         id="rect1694"
         style="fill:#deaa87;fill-opacity:1;stroke-width:0.264583"
         d="m 63.355651,141.86985 c 0.521224,-0.90278 1.885638,-5.1675 3.866774,-0.86294 -2.549681,-2.72284 -2.458916,2.75468 -1.871088,4.53112 -1.856142,-0.4181 -4.152787,0.76525 -1.995686,-3.66818 z"
         sodipodi:nodetypes="cccc" />
      <path
         d="m 66.288726,142.4102 c -0.299421,0.21296 -0.850878,1.77181 0.183679,2.31229 0,0 -0.742256,0.49595 2.599481,-0.449 l -0.378968,-1.07923 c -0.500478,-0.91117 -0.740841,-1.37794 -2.404168,-0.78406"
         style="fill:#deaa87;fill-opacity:1;fill-rule:evenodd;stroke:none;stroke-width:0.505764"
         id="path132-6-6"
         inkscape0:connector-curvature="0"
         inkscape:transform-center-x="11.196164"
         inkscape:transform-center-y="2.4288654"
         sodipodi:nodetypes="ccccc" />
      <path
         style="stroke-width:0.264583"
         d="m 73.277441,142.96457 c -2.156354,1.38377 -4.558771,2.89189 -8.090958,2.54264 -0.850998,-0.81342 -0.984488,-2.12476 -0.314854,-3.09298 0.381,0.65617 0.142875,1.85209 1.2065,2.04523 2.002895,0.34396 4.33652,-1.22502 5.7785,-1.77535 0.894291,-1.50813 -0.07673,-2.06111 -0.881063,-3.03213 -1.648354,-1.98702 -3.860271,-4.45029 -3.780896,-7.42685 0.66675,-0.48419 0.724959,0.73819 0.820209,0.96044 0.859895,2.01347 3.026833,4.59052 4.609041,6.3156 0.388938,0.42333 1.026584,0.83344 1.098021,1.1139 0.203729,0.81756 -0.529167,1.79387 -0.447146,2.33891"
         id="path106-5"
         sodipodi:nodetypes="ccccccccccc" />
      <path
         id="path91"
         d="m 76.090134,133.50661 c 0,0 -1.449917,-1.25677 -2.677583,-1.70656 a 8.255,8.255 0 0 0 -4.479396,-0.22754 c 0,0 1.510771,-2.45269 4.550833,-1.39965 2.214563,0.762 2.606146,3.33375 2.606146,3.33375 z"
         class="cls-17"
         style="fill:#deaa87;fill-opacity:1;stroke:#000000;stroke-width:0.79375px;stroke-linejoin:round" />
      <path
         id="path100-2"
         d="m 64.288908,132.00747 a 10.256189,10.256189 0 0 1 -5.538124,-1.04401 9.3311072,9.3311072 0 0 1 -3.60104,-3.31612 L 57.389979,124.57 c 0,0 1.256787,2.84045 2.480493,4.21136 1.738693,1.961 4.418436,3.22611 4.418436,3.22611 z"
         class="cls-24"
         style="stroke:#000000;stroke-width:0.349089;stroke-miterlimit:10" />
      <circle
         id="circle102"
         transform="rotate(-4.22)"
         r="3.061229"
         cy="139.20525"
         cx="47.169815"
         class="cls-25"
         style="stroke:#000000;stroke-width:0.0926042px;stroke-linecap:round;stroke-miterlimit:10" />
      <ellipse
         id="ellipse104"
         transform="rotate(-4.0041729)"
         ry="1.1802769"
         rx="1.3181969"
         cy="138.95828"
         cx="47.432682"
         class="cls-26"
         style="fill:#ffffff;stroke:#000000;stroke-width:0.0371324px;stroke-linecap:round;stroke-miterlimit:10" />
      <path
         id="path225"
         d="m 67.821733,149.28546 c -5.376334,-1.41552 -8.588375,0.88371 -8.588375,0.88371"
         class="cls-18"
         style="fill:none;stroke:#000000;stroke-width:0.79375px;stroke-linecap:round;stroke-miterlimit:10" />
      <path
         style="stroke-width:0.264583"
         id="path227"
         d="m 70.824754,150.16917 a 8.6280625,8.6280625 0 0 0 -1.521355,-0.37571 9.4271042,9.4271042 0 0 0 -1.529291,-0.11642 0.39952083,0.39952083 0 0 1 0,-0.79375 0.42333333,0.42333333 0 0 1 0.100541,0 10.027708,10.027708 0 0 1 1.545167,0.52917 8.8238542,8.8238542 0 0 1 1.404938,0.75671 z" />
      <path
         id="path229"
         d="m 67.821733,149.28546 a 9.2762917,9.2762917 0 0 0 -3.902604,1.00542 c -1.119188,0.61383 -2.479146,1.57162 -3.14325,1.41023 C 60.265233,151.57675 59.70167,149.894 59.70167,149.894 a 14.004396,14.004396 0 0 1 4.061354,-1.05833 c 1.016,-0.0952 4.058709,0.44979 4.058709,0.44979 z"
         class="cls-39"
         style="fill:#ffffff;stroke:#000000;stroke-width:0.79375px;stroke-linejoin:round" />
      <path
         style="stroke-width:0.264583"
         id="path232"
         d="m 57.960839,149.04055 a 1.2938125,1.2938125 0 0 0 -0.3175,0.635 1.6536458,1.6536458 0 0 0 0.02117,0.67998 1.9314583,1.9314583 0 0 0 0.264583,0.60854 0.98954167,0.98954167 0 0 0 0.394229,0.37836 0.40745833,0.40745833 0 1 1 -0.418042,0.68262 l -0.03175,-0.0291 a 1.6959792,1.6959792 0 0 1 -0.486833,-0.79375 2.428875,2.428875 0 0 1 -0.108479,-0.81756 1.9499792,1.9499792 0 0 1 0.187854,-0.77788 1.3943542,1.3943542 0 0 1 0.494771,-0.5662 z" />
      <path
         style="stroke-width:0.264583"
         d="m 72.869983,150.07657 c -1.733021,-0.7673 -3.132667,-1.89707 -5.386917,-2.09021 -0.113771,-0.37042 -0.07673,-1.30969 -0.02381,-1.92617 2.944812,0.0291 4.386791,2.11667 5.410729,4.01638"
         id="path110-1" />
      <path
         style="stroke-width:0.264583"
         d="m 58.751816,148.99177 c 0.836083,-2.31245 4.706938,-3.175 7.987771,-3.03741 a 8.937625,8.937625 0 0 1 -0.119063,1.9341 c -2.553229,-0.0476 -6.003395,0.0952 -7.871354,1.10331"
         id="path112-2" />
      <path
         id="path236"
         d="m 59.931858,150.06598 2.791354,-1.09802 3.595687,0.0767 a 28.855458,28.855458 0 0 0 -4.093104,0.83079 7.5273958,7.5273958 0 0 0 -1.931458,0.83609 z"
         class="cls-16"
         style="fill:#b2b1b0;stroke-width:0.264583" />
      <path
         id="path238"
         d="m 67.821733,149.28546 a 9.2762917,9.2762917 0 0 0 -3.902604,1.00542 c -1.119188,0.61383 -2.479146,1.57162 -3.14325,1.41023 C 60.265233,151.57675 59.70167,149.894 59.70167,149.894 a 14.004396,14.004396 0 0 1 4.061354,-1.05833 c 1.016,-0.0952 4.058709,0.44979 4.058709,0.44979 z"
         class="cls-37"
         style="fill:none;stroke:#000000;stroke-width:0.79375px;stroke-linejoin:round" />
      <path
         d="m 64.651387,129.7056 c 0.979276,1.29061 -0.613082,2.08093 -1.679834,2.37359 -0.447154,0.16875 1.452506,0.52053 1.735396,0.61091 l 0.03175,-0.0291 c 0.607629,-0.62721 0.772949,-1.24742 0.88382,-2.01533 0.06632,-0.45936 -0.757471,-0.8002 -0.971132,-0.94007 z"
         id="path232-7"
         style="fill:#000000;stroke-width:0.264583"
         sodipodi:nodetypes="ccccsc" />
      <path
         style="stroke-width:0.264583"
         d="m 68.692918,143.19426 c -0.109865,-0.21481 -0.277611,-0.39462 -0.484288,-0.51913 -0.197479,-0.11637 -0.416999,-0.19043 -0.64462,-0.21745 -0.221271,-0.0265 -0.44545,-0.0144 -0.662614,0.0356 -0.183079,0.0314 -0.732637,1.28828 -0.871149,1.41204 -0.314174,0.36015 -0.539581,-1.5855 -0.114827,-1.80459 l 0.03835,-0.0196 c 0.281893,-0.14383 0.598401,-0.20592 0.913739,-0.17924 0.276516,0.0149 0.548444,0.077 0.804024,0.18364 0.249698,0.10169 0.475596,0.25406 0.663421,0.44749 0.177623,0.18348 0.301445,0.41221 0.35796,0.66125 z"
         id="path232-3"
         sodipodi:nodetypes="ccccccscccc" />
      <path
         inkscape:transform-center-y="1.775046"
         inkscape:transform-center-x="10.269733"
         inkscape0:connector-curvature="0"
         id="path132-6-6-9"
         style="fill:#deaa87;fill-opacity:1;fill-rule:evenodd;stroke:none;stroke-width:0.414091"
         d="m 64.171972,151.91094 c -0.274648,0.15564 -0.707366,1.03739 0.01585,2.30321 0,0 0.344911,-1.47121 3.433572,-1.27355 l -0.139962,-0.6199 c 0,0 -2.787909,-0.70447 -3.309437,-0.40976" />
      <path
         d="m 70.660582,141.912 c 0.180711,-2.24062 -1.284449,-3.15849 -1.752928,-3.08858 -0.468741,0.0699 -0.933553,-0.40772 -0.734885,0.0756 0.198744,0.48319 1.417209,1.31822 1.164688,2.31316"
         style="fill:#f7e4cd;fill-opacity:1;fill-rule:evenodd;stroke:none;stroke-width:0.251166"
         id="path52-31-4"
         inkscape0:connector-curvature="0"
         sodipodi:nodetypes="cccc" />
      <path
         sodipodi:nodetypes="ccc"
         d="m 83.093853,179.08218 c 0.526653,1.47201 1.111734,3.32478 1.463535,4.77353 -0.924047,-1.45262 -1.590744,-3.66253 -1.463535,-4.77353"
         style="fill:#231f20;fill-opacity:1;fill-rule:evenodd;stroke:none;stroke-width:0.330729"
         id="path122-1-1"
         inkscape0:connector-curvature="0" />
      <path
         inkscape0:connector-curvature="0"
         id="path122-1-1-2"
         style="fill:#231f20;fill-opacity:1;fill-rule:evenodd;stroke:none;stroke-width:0.330729"
         d="m 83.68263,176.90681 c 0.526654,1.47202 1.111735,3.32479 1.463535,4.77354 -0.924046,-1.45263 -1.590744,-3.66253 -1.463535,-4.77354"
         sodipodi:nodetypes="ccc" />
      <path
         style="fill:#ffffff;stroke-width:0.264583"
         class="cls-10"
         d="m 54.063815,196.46133 c 0,0 1.023937,-2.14048 1.754187,-1.96321 0.550334,0.13494 1.521355,2.71992 1.521355,2.71992 0,0 0.243416,-5.47423 1.058333,-5.38163 1.034521,0.11906 3.175,5.91609 3.175,5.91609 0,0 2.278062,-1.96057 2.674937,-2.0029 0.624417,-0.0661 1.643063,1.62719 1.643063,1.62719 0,0 -0.277813,-3.70417 0.187854,-3.87086 1.031875,-0.35983 3.103563,2.69875 3.103563,2.69875 0,0 -1.105959,-5.95048 -1.103313,-10.6336 0,-2.84692 -0.881062,-10.82675 -0.881062,-10.82675 0,0 -4.497917,-0.43127 -8.503709,-0.0688 -4.521729,0.4101 -8.654521,1.03187 -8.654521,1.03187 0,0 0.907521,8.04334 1.349375,10.71563 0.706438,4.35239 2.674938,10.03829 2.674938,10.03829 z"
         id="path163" />
      <path
         style="fill:#e0e0df;stroke-width:0.264583"
         class="cls-32"
         d="m 52.780586,197.7525 c 0,0 1.624541,-2.38125 2.354791,-2.19869 0.550334,0.13494 2.032,1.77006 2.032,1.77006 0,0 0.243417,-5.47423 1.058334,-5.38162 1.034521,0.11906 3.439583,5.91608 3.439583,5.91608 0,0 2.013479,-1.96056 2.410354,-2.0029 0.624417,-0.0662 1.643063,1.62719 1.643063,1.62719 0,0 -0.277813,-3.70417 0.187854,-3.87085 1.031875,-0.35984 3.103562,2.69875 3.103562,2.69875 0,0 -1.105958,-5.95048 -1.103312,-10.63361 0,-2.84691 -0.881063,-10.82675 -0.881063,-10.82675 0,0 -1.799166,-0.10054 -2.354791,3.72534 -0.362479,2.49502 2.100791,7.69672 0,10.58333 -1.836209,2.53206 -7.762875,-1.24619 -9.720792,2.47385 -0.931333,1.76213 -2.169583,6.11982 -2.169583,6.11982 z"
         id="path165" />
      <path
         style="fill:none;stroke:#231f20;stroke-width:1.32292px;stroke-miterlimit:10;stroke-opacity:1"
         class="cls-28"
         d="m 52.598023,199.44318 c 0,0 1.807104,-4.06664 2.537354,-3.88673 0.550334,0.13494 2.116667,1.66159 2.116667,1.66159 0,0 0.243417,-5.47423 1.058333,-5.38163 1.034521,0.11906 3.175,5.91609 3.175,5.91609 0,0 2.278063,-1.96057 2.674938,-2.0029 0.624417,-0.0661 1.643062,1.62719 1.643062,1.62719 0,0 -0.277812,-3.70417 0.187855,-3.87086 1.031875,-0.35983 3.103562,2.69875 3.103562,2.69875 0,0 -1.103312,-5.95312 -1.103312,-10.63625 0,-2.84691 -0.881063,-10.82675 -0.881063,-10.82675 0,0 -3.688292,0.0503 -7.709958,-0.0688 a 38.541854,38.541854 0 0 0 -9.448271,1.03188 c 0,0 0.907521,8.04333 1.349375,10.71562 0.709083,4.35504 1.296458,13.02279 1.296458,13.02279 z"
         id="path167" />
      <path
         style="fill:#e0e0df;stroke-width:0.264583"
         class="cls-32"
         d="m 68.092023,185.88064 3.212042,-0.16139 0.447146,7.14375 c 0,0 -1.095375,-2.06905 -1.661584,-1.92882 -0.206375,0.0503 -1.529291,1.15094 -1.5875,0.635 l -0.227541,-1.94204 z"
         id="path169" />
      <path
         style="fill:none;stroke:#231f20;stroke-width:1.32292px;stroke-miterlimit:10;stroke-opacity:1"
         class="cls-28"
         d="m 67.991482,185.56843 3.175,-0.42068 0.46302,7.40833 c 0,0 -1.058333,-1.95263 -1.621895,-1.8124 -0.206375,0.0503 -1.56898,1.03188 -1.629834,0.52917 l -0.227541,-1.94204 z"
         id="path171" />
      <path
         style="fill:#335061;fill-opacity:1;stroke:#231f20;stroke-width:0.79375px;stroke-miterlimit:10;stroke-opacity:1"
         class="cls-36"
         d="m 56.490044,184.29843 c 0,0.85461 -1.637771,3.24379 -2.291292,3.24379 -0.65352,0 -0.60325,-5.21229 -0.60325,-3.24379 0,-0.8546 0.529167,-1.54781 1.182688,-1.54781 0.653521,0 1.711854,0.69321 1.711854,1.54781 z"
         id="path195" />
      <path
         style="fill:#335061;fill-opacity:1;stroke:#231f20;stroke-width:0.79375px;stroke-miterlimit:10;stroke-opacity:1"
         class="cls-36"
         d="m 54.07969,180.89854 c 0,0.54768 -1.349375,0 -1.767417,0 -0.418041,0 -0.386291,-1.02129 -0.386291,-1.56634 0,-0.54504 0.338666,-0.98954 0.756708,-0.98954 0.418042,0 1.397,2.00819 1.397,2.55588 z"
         id="path197" />
      <path
         id="path1835"
         d="m 42.641633,110.94211 c 6.136452,-4.99572 14.674205,-7.62688 27.757599,1.70782 l -3.42066,10.14637 -4.558623,0.45942 c -3.475373,0.73342 -5.014963,-10.09392 -16.848066,-1.50361 z"
         style="color:#000000;font-style:normal;font-variant:normal;font-weight:normal;font-stretch:normal;font-size:medium;line-height:normal;font-family:sans-serif;font-variant-ligatures:normal;font-variant-position:normal;font-variant-caps:normal;font-variant-numeric:normal;font-variant-alternates:normal;font-variant-east-asian:normal;font-feature-settings:normal;font-variation-settings:normal;text-indent:0;text-align:start;text-decoration:none;text-decoration-line:none;text-decoration-style:solid;text-decoration-color:#000000;letter-spacing:normal;word-spacing:normal;text-transform:none;writing-mode:lr-tb;direction:ltr;text-orientation:mixed;dominant-baseline:auto;baseline-shift:baseline;text-anchor:start;white-space:normal;shape-padding:0;shape-margin:0;inline-size:0;clip-rule:nonzero;display:inline;overflow:visible;visibility:visible;isolation:auto;mix-blend-mode:normal;color-interpolation:sRGB;color-interpolation-filters:linearRGB;solid-color:#000000;solid-opacity:1;vector-effect:none;fill:#335061;fill-opacity:1;fill-rule:nonzero;stroke:none;stroke-width:0.529167;stroke-linecap:butt;stroke-linejoin:miter;stroke-miterlimit:4;stroke-dasharray:none;stroke-dashoffset:0;stroke-opacity:1;color-rendering:auto;image-rendering:auto;shape-rendering:auto;text-rendering:auto;enable-background:accumulate;stop-color:#000000"
         sodipodi:nodetypes="cccccc" />
      <path
         id="path1835-3"
         d="m 44.232951,111.7946 c 0.141105,-0.0313 2.047066,7.91319 2.209943,7.88644 0.16288,-0.0267 -1.329222,-8.18562 -1.146463,-8.20802 0.182755,-0.0224 1.624388,6.36209 1.825127,6.34385 0.20074,-0.0182 -0.856258,-5.73671 -0.639426,-5.75097 0.216828,-0.0143 1.674103,5.94563 1.905127,5.93516 0.231021,-0.0105 -0.749194,-7.40067 -0.505873,-7.40754 0.243324,-0.007 1.710185,7.36959 1.963912,7.36614 0.253725,-0.004 -0.540223,-8.84087 -0.278069,-8.84109 0.262237,-2.2e-4 1.442127,7.06926 1.710978,7.07208 0.268851,0.003 0.11733,-5.41603 0.390896,-5.41034 0.273571,0.006 1.005694,5.90732 1.282091,5.91567 0.276397,0.008 0.349203,-7.90767 0.626531,-7.89683 0.277328,0.0109 0.944274,7.08175 1.220637,7.0949 0.276362,0.0132 1.044069,-5.14821 1.317572,-5.13294 0.273505,0.0153 0.323916,5.41937 0.592666,5.43657 0.268751,0.0172 1.512962,-4.62623 1.775064,-4.60729 0.262101,0.0189 -0.71963,5.49358 -0.466072,5.51407 0.253558,0.0205 2.320139,-5.71292 2.56326,-5.69105 0.24312,0.0219 -1.282753,6.29881 -1.051965,6.32187 0.230785,0.0231 2.889879,-7.19587 3.106441,-7.17181 0.216559,0.0241 -2.15329,7.94868 -1.952855,7.97355 0.200438,0.0249 1.961255,-5.12573 2.143675,-5.10023 0.18242,0.0255 -1.213559,5.22712 -1.051052,5.25306 0.162507,0.0259 2.196576,-5.61162 2.337276,-5.58542 0.1407,0.0262 -1.611966,5.71618 -1.494967,5.74245 0.116999,0.0263 2.473587,-5.94397 2.56499,-5.91781 -2.186985,6.86816 -1.691418,3.69498 -2.934832,10.42449 -3.475379,0.73343 -5.014969,-10.09392 -16.848072,-1.5036 0.2319,-3.20408 -1.348949,-6.54018 -1.166632,-10.05536 z"
         style="color:#000000;font-style:normal;font-variant:normal;font-weight:normal;font-stretch:normal;font-size:medium;line-height:normal;font-family:sans-serif;font-variant-ligatures:normal;font-variant-position:normal;font-variant-caps:normal;font-variant-numeric:normal;font-variant-alternates:normal;font-variant-east-asian:normal;font-feature-settings:normal;font-variation-settings:normal;text-indent:0;text-align:start;text-decoration:none;text-decoration-line:none;text-decoration-style:solid;text-decoration-color:#000000;letter-spacing:normal;word-spacing:normal;text-transform:none;writing-mode:lr-tb;direction:ltr;text-orientation:mixed;dominant-baseline:auto;baseline-shift:baseline;text-anchor:start;white-space:normal;shape-padding:0;shape-margin:0;inline-size:0;clip-rule:nonzero;display:inline;overflow:visible;visibility:visible;opacity:1;isolation:auto;mix-blend-mode:normal;color-interpolation:sRGB;color-interpolation-filters:linearRGB;solid-color:#000000;solid-opacity:1;vector-effect:none;fill:#49728b;fill-opacity:1;fill-rule:nonzero;stroke:none;stroke-width:0.529167;stroke-linecap:butt;stroke-linejoin:miter;stroke-miterlimit:4;stroke-dasharray:none;stroke-dashoffset:0;stroke-opacity:1;color-rendering:auto;image-rendering:auto;shape-rendering:auto;text-rendering:auto;enable-background:accumulate;stop-color:#000000;stop-opacity:1"
         sodipodi:nodetypes="csssssssssssssssssssssssssccccc" />
      <path
         sodipodi:nodetypes="scccccsssscccccsccccsssssssccc"
         id="path1837"
         d="m 52.067975,106.35689 c -4.892889,0.25674 -9.812401,4.28749 -9.812398,4.28749 l -0.233579,0.0667 0.04703,0.23875 3.323026,11.25975 0.335378,-0.24339 c 2.934687,-2.13045 5.209966,-3.03955 7.009392,-3.23701 1.799429,-0.19747 3.133497,0.30212 4.245737,1.04799 1.112237,0.74588 1.988439,1.74569 2.820498,2.5368 0.416031,0.39556 0.821502,0.7404 1.257289,0.96945 0.435785,0.22905 0.913686,0.33666 1.414384,0.23099 l -0.02842,0.005 4.728393,-0.47645 3.551721,-10.53528 -0.218075,-0.0982 c -7.10226,-4.46426 -8.37839,-6.58025 -18.440376,-6.05227 z m 17.386531,6.6426 -3.587356,9.63454 -3.48801,0.35996 1.054282,-5.02409 c -0.368146,0.0777 -1.766726,5.03442 -2.126567,4.84529 -0.359841,-0.18913 -0.737542,-0.50255 -1.139465,-0.8847 -0.803847,-0.76429 -1.703528,-1.79711 -2.889748,-2.59261 -0.296552,-0.19887 -0.61188,-0.38244 -0.948147,-0.54263 -0.33627,-0.16019 -0.693481,-0.29699 -1.073809,-0.40234 -0.380328,-0.10534 -0.783773,-0.17922 -1.212503,-0.21355 -0.428731,-0.0343 -0.882748,-0.0291 -1.364226,0.0237 -1.849001,0.2029 -4.108612,1.12391 -6.923609,3.1104 l -2.866697,-10.45901 c 7.551052,-6.37707 18.159791,-4.91784 26.565855,2.14503 z"
         style="color:#000000;font-style:normal;font-variant:normal;font-weight:normal;font-stretch:normal;font-size:medium;line-height:normal;font-family:sans-serif;font-variant-ligatures:normal;font-variant-position:normal;font-variant-caps:normal;font-variant-numeric:normal;font-variant-alternates:normal;font-variant-east-asian:normal;font-feature-settings:normal;font-variation-settings:normal;text-indent:0;text-align:start;text-decoration:none;text-decoration-line:none;text-decoration-style:solid;text-decoration-color:#000000;letter-spacing:normal;word-spacing:normal;text-transform:none;writing-mode:lr-tb;direction:ltr;text-orientation:mixed;dominant-baseline:auto;baseline-shift:baseline;text-anchor:start;white-space:normal;shape-padding:0;shape-margin:0;inline-size:0;clip-rule:nonzero;display:inline;overflow:visible;visibility:visible;isolation:auto;mix-blend-mode:normal;color-interpolation:sRGB;color-interpolation-filters:linearRGB;solid-color:#000000;solid-opacity:1;vector-effect:none;fill:#231f20;fill-opacity:1;fill-rule:nonzero;stroke:none;stroke-width:0.529167;stroke-linecap:butt;stroke-linejoin:miter;stroke-miterlimit:4;stroke-dasharray:none;stroke-dashoffset:0;stroke-opacity:1;color-rendering:auto;image-rendering:auto;shape-rendering:auto;text-rendering:auto;enable-background:accumulate;stop-color:#000000" />
      <ellipse
         style="fill:#deaa87;fill-opacity:1;stroke:none;stroke-width:0.0267885px;stroke-linecap:round;stroke-miterlimit:10"
         class="cls-26"
         cx="43.021133"
         cy="145.03545"
         rx="0.95099699"
         ry="0.85149628"
         transform="rotate(-4.0041729)"
         id="ellipse104-9" />
    </g>
  </g>
</svg>
