<svg id="svg2" xmlns="http://www.w3.org/2000/svg" viewBox="0 0 308.42 432.76"><defs><style>.cls-1{fill:#f5efdd;}.cls-2{fill:#bab39f;}.cls-17,.cls-3{fill:#98b760;}.cls-4{fill:#516844;}.cls-36,.cls-5{fill:#625836;}.cls-6{fill:#6d6b6d;}.cls-7{fill:#dcd9d8;}.cls-8{fill:#566d49;}.cls-9{fill:#4a4229;}.cls-10,.cls-15,.cls-19,.cls-21,.cls-26,.cls-39{fill:#fff;}.cls-11,.cls-33,.cls-34{fill:#333;}.cls-12{fill:#262222;}.cls-13,.cls-14{isolation:isolate;}.cls-14{font-size:72px;font-family:Georgia-Bold, Georgia;font-weight:700;}.cls-15,.cls-17,.cls-18,.cls-19,.cls-20,.cls-21,.cls-22,.cls-23,.cls-24,.cls-25,.cls-26,.cls-27,.cls-28,.cls-30,.cls-33,.cls-34,.cls-35,.cls-36,.cls-37,.cls-38,.cls-39{stroke:#000;}.cls-15,.cls-18,.cls-19,.cls-20,.cls-21,.cls-22,.cls-25,.cls-26,.cls-38{stroke-linecap:round;}.cls-15,.cls-18,.cls-19,.cls-20,.cls-21,.cls-22,.cls-23,.cls-24,.cls-25,.cls-26,.cls-27,.cls-28,.cls-30,.cls-33,.cls-36,.cls-38{stroke-miterlimit:10;}.cls-15{stroke-width:2px;}.cls-16,.cls-35{fill:#b2b1b0;}.cls-17,.cls-34,.cls-35,.cls-37,.cls-39{stroke-linejoin:round;}.cls-17,.cls-18,.cls-33,.cls-34,.cls-35,.cls-36,.cls-37,.cls-39{stroke-width:3px;}.cls-18,.cls-22,.cls-28,.cls-30,.cls-37,.cls-38{fill:none;}.cls-19,.cls-22{stroke-width:2.86px;}.cls-20{stroke-width:0.3px;}.cls-21{stroke-width:0.12px;}.cls-23{stroke-width:0.96px;}.cls-25{stroke-width:0.35px;}.cls-26{stroke-width:0.14px;}.cls-27{fill:#afa172;}.cls-27,.cls-28{stroke-width:5px;}.cls-29{fill:#999;}.cls-30,.cls-38{stroke-width:4px;}.cls-31{fill:#8f8256;}.cls-32{fill:#e0e0df;}</style></defs><title>JenkinsteinМонтажная область 2</title><circle class="cls-1" cx="151.65" cy="188.09" r="108.67"/><circle class="cls-2" cx="66.12" cy="164.83" r="9.1"/><path id="path26" d="M76.84,111.35a109.42,109.42,0,0,0-31.06,76.74h0a109.41,109.41,0,0,0,31.06,76.73h0a104.41,104.41,0,0,0,74.91,31.75h0a104.41,104.41,0,0,0,74.91-31.75h0a109.42,109.42,0,0,0,31.07-76.73h0a109.43,109.43,0,0,0-31.07-76.74h0a104.43,104.43,0,0,0-74.91-31.74h0a104.43,104.43,0,0,0-74.91,31.74ZM72,269.57a116.22,116.22,0,0,1-33-81.48h0A116.22,116.22,0,0,1,72,106.6h0a111.22,111.22,0,0,1,79.77-33.79h0a111.21,111.21,0,0,1,79.77,33.79h0a116.21,116.21,0,0,1,33,81.48h0a116.2,116.2,0,0,1-33,81.48h0a111.23,111.23,0,0,1-79.77,33.79h0A111.24,111.24,0,0,1,72,269.57h0"/><path d="M194.37,127.32s14.4-5.53,20.48-3.3c4.75,1.74,9.2,5.5,10.2,8.7,4.11,13,12.2,18.48,12.2,18.48l.52-5.43s1.78,1.76,2.56,1.81,1.84-1,2.48-.82c2.76.62,2.59,2.36,3.55,3,.72.5,3.51-.13,3.51-.13L246.75,154s5.23,1.71,9.31.05c5.57-2.25,17.35-7.73,23.18-6.3,11.38,2.79,15.92,17.06,15.92,17.06s-4.44-3.19-8.06-1.74a13.26,13.26,0,0,0-7.21,7.8s-4.26-5.31-9.16-5.61c-7.06-.43-10.57,6.59-10.57,6.59s-2.38-5.43-8-5.33c-4.6.08-6.17,5.56-6.17,5.56s-2-3.39-4.1-4c-2.94-.88-4.35,2.48-6.25,1.61-1.25-.58-.64-3.69-1.78-4.46-1.34-.9-6.47-.38-6.47-.38s2-4-.6-6.61c-4.32-4.43-10.24-2.63-10.24-2.63s2-5.72-1.68-9.87c-4.41-5-12.75-3.35-12.75-3.35s2.57-5,1-8.7C201.43,129.66,194.37,127.32,194.37,127.32Z"/><path d="M14.13,352.87s7.37-13.55,13.44-15.8c4.75-1.76,10.57-1.78,13.41,0,11.59,7.26,21.27,6.14,21.27,6.14l-3.12-4.47s2.49.19,3.12-.28.77-1.93,1.35-2.23c2.5-1.32,3.51.11,4.67,0,.87-.09,2.58-2.37,2.58-2.37l.43,5.31s5.08-2.09,7.12-6C81.18,327.83,86.59,316,92,313.32c10.47-5.26,23.18,2.65,23.18,2.65s-5.45.46-7.26,3.91a13.26,13.26,0,0,0-.42,10.61s-6.69-1.28-10.61,1.68C91.19,336.43,93.07,344,93.07,344s-5.34-2.59-9.53,1.12c-3.45,3-1.09,8.24-1.09,8.24s-3.76-1.25-5.73-.39c-2.81,1.24-1.7,4.71-3.71,5.28-1.32.37-2.88-2.39-4.25-2.23-1.61.19-5.17,3.91-5.17,3.91s-1-4.3-4.75-4.64c-6.16-.56-9.5,4.64-9.5,4.64s-2.2-5.64-7.68-6.42c-6.6-.95-11.87,5.73-11.87,5.73s-1.28-5.46-4.89-7.26C21,350.07,14.13,352.87,14.13,352.87Z"/><circle class="cls-2" cx="247.11" cy="181.52" r="9.1"/><circle class="cls-2" cx="251.66" cy="194.71" r="4.55"/><circle class="cls-2" cx="244.76" cy="203.08" r="4.55"/><circle class="cls-2" cx="60.11" cy="179.87" r="4.55"/><path class="cls-3" d="M204.21,259.5s12.56-11.66,22-14.23c11.25-3.05,13.42,5.63,13.42,5.63s12.1-5.91,18.69,1c5.15,5.38,2.81,13.31,2.81,13.31a14,14,0,0,1,1.58,7.3,11,11,0,0,1-2.56,6.45,11.22,11.22,0,0,1-.32,7.53c-1.19,2.68-5.39,4.23-5.39,4.23s-.63,8.47-18.59,9.52c-12.74.74-31-4.28-31-4.28L193.44,276.8Z"/><path class="cls-4" d="M203.34,260.53s6.51,4.29,9.5,7.74c2.6,3-9.42,9-9,10.93.23,1.2,9.32,1.32,10.39,3.88.88,2.1,1.79,12.85,16.94,10.89a88.08,88.08,0,0,0,13.52-3.25s9.57-1.32,10.14-7.88c.06-.74-10.5,0-8.81,0s11.76-3.06,13.54-3.51c5.06-1.29-5,18.88-23.63,20.89-5,.54-19.88-3.46-19.88-3.46l-17.71-.54-4.86-19.43Z"/><path class="cls-5" d="M106.21,182.48l-42.61,24s8,24.77,11.19,32.85c9.58,24.6,6.42,54.79,6.42,54.79s27.3,12.59,37.08,14.37c37.33,6.81,85.92-8.88,85.92-8.88s.34-1-.42-5.22c-.5-2.76,7.08-6,6.65-8.67-.79-4.91-12.68-.92-12.64-4.3,0-2.57,7.37-8.11,11-10.69a1.61,1.61,0,0,0-.06-2.66c-2.28-1.47-5.77-3.87-6.7-5.3a6.45,6.45,0,0,1-1.06-2.69l16.14-8.82,15.41-52.36-21.05-22.61-30.14,26.19Z"/><path id="path28" class="cls-3" d="M197,188.73l-1.33,8.14-32,6.65L151,201.78l-21.88-8.05-10.83-3.33L108.71,180l-7.5-21.25-1.67-4.58-10-3.33-5.83-9.58-4.17-13.75,4.58-12.08L95,111.64l8.75,4.17,4.17,9.17,5-.83,1.67-2.08-1.67-9.58-.42-12.08L115,83.73l-.1-9.52,7.6-12.15L135.8,48.48l15.85-15.72L182,37.36l39.39,12.56,1.11,26.32,2.07,15,1.67,30-5,25.83L212,170l-8.75,12.08Z"/><path id="path32" class="cls-6" d="M84.13,115.39,95,111.64l8.75,4.17,4.17,9.17,5-.83,1.25-5-2.5-9.58,2.5-22.92L112,74.14l7.5-8.75L135.8,52.48l-4.58-6.25L108.3,57.48,98.71,65,93.3,76.64,85,87.89l-2.5,13.33,1.67,14.17"/><path id="path34" class="cls-7" d="M101.21,76.23s6.25-15.42,31.25-22.92c4.12-6.48,1.25-5.42,1.25-5.42L106.63,58.31,96.21,68.73l-4.58,8.33,9.58-.83"/><path id="path36" class="cls-7" d="M88.71,112.48S80,83.31,113.3,79.14l-1.25-5L89.13,79.56l-6.67,21.67,1.67,14.17,4.58-2.92"/><path id="path38" class="cls-8" d="M102,151.23l5.46-5.29a3.51,3.51,0,0,1,2.88,3.2c.42,2.92,1.67,29.17,19.58,43.33,1.63,1.29-13.33-2.08-13.33-2.08L103.3,169.56"/><path id="path40" class="cls-8" d="M178.72,143.31s-.45-12.35,4.37-11.66a4.68,4.68,0,0,1,3.4,4.37,10,10,0,0,0-7.77,7.29"/><path id="path42" class="cls-8" d="M213.3,97.06s-6.87,1.45-7.5,7.5,7.5,1.25,8.75.83"/><path id="path44" class="cls-8" d="M162.88,97.48s-9.17,1.25-9.17,7.08S164.13,110,167,107.48"/><path id="path46" class="cls-8" d="M106.21,124.56s-15.83-9.58-17.5-.42-5.42,15.83,2.5,25.42L85.8,147.9,80.8,135l-1.67-12.5,9.58-10,10.83.83,6.25,5,.42,6.25"/><path id="path54" class="cls-9" d="M118.3,194.14l-39.17,17.5S95.38,276.23,87,296.23l-5.83-2.08-.42-24.58L70,222.9,65.38,210l40.83-27.5,12.08,11.67"/><path id="path56" class="cls-9" d="M122.32,229.87l5.56,6.78v25h-6.67s-.83-17.5-.83-19.58.83-9.58.83-9.58"/><path id="path66" class="cls-9" d="M202.48,188.24l29.17,21.67.83-10L210.4,179.49l-7.92,8.75"/><path id="path80" class="cls-10" d="M140.67,195l-11.54-1.25-10.83-3.33v3.75l5.29,5.84,16.67,7.5"/><path id="path82" class="cls-7" d="M122,196.23s12.92,5.42,17.08,4.17l.41,5-11.66-2.5-7.08-5,1.25-1.67"/><path id="path104" d="M163.28,94.59c2.43,4.46,3.23,9.15,6.69,12.53,1.56,1.52,4.59,3.37,3.09,7.59-.35,1-2.92,3.22-4.4,3.65-5.41,1.6-18,.33-13.75-6.42,4.48.21,10.49,2.91,13.84-.34-2.57-4.11-7.15-12.23-5.46-17"/><path id="path108" d="M103.36,134.45c-2.55-1.46-3.16-7.88-6.16-8.06-4.28-.26-3.5,8.33-3.49,13.35-2.95-2.68-3.47-10.92-1.3-15.15-2.47-1.21-3.57,1.34-4.94,2.24,1.76-12.79,18.71-5.93,15.89,7.63"/><path class="cls-11" d="M139.13,200.2l38.28,61.25,29.93-2.91-7.29-70s-12.08,12-18.7,13.79C171.81,204.9,139.13,200.2,139.13,200.2Z"/><path class="cls-12" d="M165.79,203.43,145,200.73l32.37,60.92,23.58-2.2s-9.14-4.14-19.29-19.09C173.32,228,165.79,203.43,165.79,203.43Z"/><path class="cls-4" d="M134.69,171.36s12.8,25.34,34.59,28.87c19.4,3.14,27.77-11.5,27.77-11.5s-22.41,5.57-30,5.05C152.35,192.77,134.69,171.36,134.69,171.36Z"/><path class="cls-9" d="M206.34,258.53a219.45,219.45,0,0,1,6.28-22.05c4.86-14.23,9.59-21.29,9.59-21.29s-12.63-2.33-13-6.28c-.37-4.28,14-6.45,14-6.45s-5.29-9.26-6.47-11.86c-1.59-3.5-5.61-13.56-5.61-13.56l-8.65,34.84Z"/><path class="cls-9" d="M201,257.9l8.3,12.53s-56.39-1.91-73.16-1.62c-6.57.11-22.37,2.26-30.71,1.37-4.81-.51,2.66-5,3.7-5.32,13.94-4.47,58.49-2.84,58.49-2.84Z"/><path id="path130" d="M152,202.78c-20.33-5.56-41.8-17.87-42.85-17.46-13.87,5.47-29,16.52-40.58,25.47,11,23.71,15.51,52.75,16.29,80.74,12.66,5.92,23.75,15.38,40.94,15.34,31.68-.06,65.61-7.52,65.61-7.52,4.38-.66,8.15,1.32,11-1.67.69-.71.52-1.46.16-3.12-.83-3.85,6.32-9.11,6.32-9.11s-1.61-1.65-5.15-1.52a54,54,0,0,1-6-.19,1.72,1.72,0,0,1-1.16-2.86,100.16,100.16,0,0,1,9.48-9.47,2.18,2.18,0,0,0-.4-3.59,54.78,54.78,0,0,1-6.72-4.52,11.07,11.07,0,0,0-9.58-1.3s-49.85,3.87-68.52,5a73.82,73.82,0,0,1-14.54-.56c0-4.87,6.17-2.13,6.68-5.4.39-2.48-3.41-2.66-2.17-6.56,3.16,1.15,4.81,3.68,8.18,4.63,1.77-9-1-18.64-.6-24.26.08-1.06,1.53-5.85,3.89-5,2.09.74.88,12.75,1.11,18.08.21,4.9-.59,9.65,1.39,12.73,15.65.35,31.11-1.35,47.81-2,9.4-.36,32.15-1.24,35.66-2.63,2.11-.83,6.8-7.34,8.39-11.2,4.38-10.61,9-24,11-34.1.46-2.31,1.72-7.33,1.44-9.38-.5-3.68-5.49-6.4-8-8.67-4.67-4.2-7.61-7.89-12.49-11.82-2,2.92-9.62,13.29-11.94,15-6.13,4.52-10.2,8.92-18.36,9.65A78.92,78.92,0,0,1,152,202.78ZM90.42,85.67c-5.51,6.06-4.35,17.41-3.69,25.48,10-6.26,23.16.49,23,11.14,4.75-.13,1.77-5.93.92-9.68-2.81-12.22,4.73-25.5.34-36.67a30.2,30.2,0,0,0-20.61,9.72Zm39.39-35.16C117.35,54,101.37,63.1,96.25,74.3c4-.58,6.72-2.58,10.63-2.82,1.48-.1,3.42.62,5.11.2,3.39-.84,6.24-8.43,8.8-11.26s5.48-3.94,7.53-6.45c1.32-.63,3.26-.59,3.34-2.57C131.09,50.78,130.49,50.32,129.81,50.51Zm63.79-8.08c-12.94-7.3-33.74-5.38-47.5,1.48C135,49.44,120,62.6,114.86,74.21c4.78,11.2-1.42,21.46-1.81,32.84-.21,6.05,3.74,10.15,4,16.74-1.64,2.7-7.35,3-10.81,2.77-1.16-5.83-3.37-11.12-9.37-11.78-8.49-.93-14.7,6.1-15.09,13.44-.46,8.64,6.63,23,16.68,22,3.88-.38,4.84-4.27,9.06-4.24,2.29,4.57-3.54,6-4.14,9.28a26.28,26.28,0,0,0,.86,5.7c1.83,7.54,5.89,17.3,9.9,23,5.08,7.28,17.56,2.89,26.55,8.81,12.21,8,37.86,7.49,37.86,7.49s9.25-2.63,13.52-8.53c1.79-2.48-16,10.55-38.52-1.38-7.35-3.89-10.65-7.49-14.9-12.18-4.89-5.38-9.83-11.16-10.08-18.19,9.23,12.81,16.86,24,33.65,29.63,12.7,4.26,27.54-2,37.3-8.81,4.05-2.85,6.47-7.37,9.35-11.51,10.77-15.49,15.8-37.61,14.69-59-.45-8.84-1-17.11-2.4-23.6-2.54-11.6-3.54-34.62-11-38.82Zm12,255.72c-2,7.83-67,17.29-80.55,15.18a130,130,0,0,1-35.45-10.81c-3.64-1.69-8.68-2.62-10-5.51s-.78-8.18-1.11-13.26c-.83-13-1.55-25.48-5-38.76-1.54-6-4.22-11.22-6.09-17-1.73-5.32-4.75-11.9-5.54-17.21-1.17-7.87,6.24-8.3,11-11.71,7.32-5.27,13.07-8.19,21-12.94,2.35-1.41,9.43-5,10.24-6.62,1.6-3.26-2.75-7.85-3.91-10.4a31.28,31.28,0,0,1-3.06-11.45,22.08,22.08,0,0,1-14.74-9.47c-5-7.39-8.53-21.05-4.17-31.45.34-.82,2-2.43,2.3-3.69.5-2.48-.93-5.77-1-8.4C79,91.15,81.72,79.51,90.81,75.43c3.69-14.71,16.91-19.6,29.36-26.91,4.65-2.73,9.79-4.48,15.09-6.43,19-7,70.33-10,86.11,1.9,6.69,5.06-4.77,20.1-.94,27.83,10.1,20.42,9.38,54.55,2.32,79.39a79.91,79.91,0,0,1-4.25,12.24c-1.34,2.8-5.51,8.4-5,10.87s9.51,9.38,11.43,11.23c3.47,3.35,10.06,7.79,10.59,12,.57,4.49-2,10.64-3.27,15-4.33,14.47-6.93,23.5-11.83,36.41,0,0-8.52,11.77-15.9,12.49-2.43.24,3.86,5.35,6.61,6.9a1.43,1.43,0,0,1,.27,2.29l-10.22,8.93a.67.67,0,0,0,.47,1.18c3-.18,8.36.11,10.3,4,1.26,2.56-6.92,7.11-6.75,9.24Z"/><path class="cls-4" d="M200.34,87.53a30,30,0,0,1,8.46-10.47,27.06,27.06,0,0,1,11.62-5.24l.76,9.18Z"/><g id="text5675" class="cls-13"><text class="cls-14" transform="translate(6.2 420.23)">Jenkins</text></g><path class="cls-8" d="M135.8,35.94c-30.92,6.28-28.62,90.28-28.62,90.28l11.26-1.07s10.45-19.87,5.22-36.33C116.1,65,129,59.66,134.73,58.19c2.86-.74,7.14,2.77,7.14,2.77s2.35-5.38,4.43-8.9a37.29,37.29,0,0,0,2.88-6.61,60,60,0,0,1,5.48,5.61c2.65,3.38,7.92,3,7.92,3s.53-3.51,2.48-3.79c3.62-.52,7.37,11.25,7.37,11.25S183.82,53.6,185,46.75c.26-1.54,1.47,2.49,1.56,3.43a35.54,35.54,0,0,1-.62,8.93s7.58-2.7,9.7-5.71c.83-1.17,3.6-4.14,4.74-2.59s2.79,8.1,7.72,10.49c0,0,5.58-4.52,8.63-4.64C224.52,56.34,191.76,24.57,135.8,35.94Z"/><path class="cls-11" d="M221.37,85s0-26.07,4.56-51.44c3.22-17.9-82.45-25-102.82-26.09-18.26-.94-44,16.49-47.63,37.92-3.37,19.73,7.26,66.18,7.26,66.18s8.9-6.44,18.1-1.13c7.35,4.24,5.43,15.22,5.43,15.22l9.87-1.83s8.21-18.7,3.22-34.24c-7.63-23.74,8.4-34.16,14.08-35.63,2.86-.74,7.14,1.77,7.14,1.77s2.35-5.38,4.43-8.9a16.35,16.35,0,0,0,1.88-6.61s5.67,4.31,7.48,6.61a10.9,10.9,0,0,0,5.92,4s1.53-5.5,3.48-5.79c4.25-.62,10.37,12.25,10.37,12.25s10.29-8.4,5.61-16.07c-1.11-1.82,5.42.79,8.43,4.65a11.35,11.35,0,0,1,2,7.72s5.21-4.27,7.13-5.42c1.23-.74,4.57-2.13,5.71-.58s1.53,7.07,4.76,9.47a7.89,7.89,0,0,1,5.07-2.34C220.66,54.45,221.37,85,221.37,85Z"/><path class="cls-4" d="M149.4,91.6c-5.17.89-10.32,4.23-14.2,12.55-2,4.22-3.17,16.75-.67,20.68,2.25,3.53,10.92,7,15.11,7.25,6.52.35,21.61.55,25.7-4.52,3.94-4.88,3.44-24.61-1.63-29.5S162.72,89.3,149.4,91.6Z"/><path class="cls-4" d="M130.62,108.32c-.56,1.69-1.65,3.12-2.2,4.79a25.18,25.18,0,0,0-1.22,9.7c.49,5.87,4.8,9.17,10.42,9.91-2.72-.36-5.63-4.24-6.6-6.45C128.71,121,130,113.79,130.62,108.32Z"/><circle class="cls-15" cx="156.05" cy="111.02" r="18.57" transform="translate(-7.75 11.79) rotate(-4.22)"/><path class="cls-16" d="M149.38,101.11l6.18,6.1s6.73-.63,9-.63c2.43,0,9.9,1.31,9.9,1.31s-1-3.45-1.47-4.54c-.31-.71-1.51-2.69-1.51-2.69s-7.49-1.09-10-1.07C158.42,99.63,149.38,101.11,149.38,101.11Z"/><path class="cls-17" d="M138.38,105.28s9.7-4.56,16.64-5.39a56.85,56.85,0,0,1,16.45.78s-6.47-8.94-16.79-8.18C142.94,93.36,138.38,105.28,138.38,105.28Z"/><circle class="cls-18" cx="156.05" cy="111.02" r="18.57" transform="translate(-7.75 11.79) rotate(-4.22)"/><path class="cls-4" d="M189.54,103.2s2.31-5.57,6.65-8.27c6.46-4,14-4,20.65,1,2.8,2.1,5.16,7.17,5.68,11.32.43,3.46.17,14.26-3,16a70.54,70.54,0,0,1-12.95,5.27Z"/><circle class="cls-19" cx="205.78" cy="109.53" r="14.74" transform="translate(-7.5 15.44) rotate(-4.22)"/><path class="cls-16" d="M207.55,102.2l1,5.09a18,18,0,0,1,6.41,2.57,22.82,22.82,0,0,1,4.26,3.77l1.26-5s-4.52-2.89-6.13-3.68S207.55,102.2,207.55,102.2Z"/><circle class="cls-20" cx="200.99" cy="108.45" r="9.89" transform="translate(-7.44 15.09) rotate(-4.22)"/><ellipse class="cls-21" cx="200.13" cy="108.42" rx="4.25" ry="3.81" transform="translate(-7.44 15.02) rotate(-4.22)"/><circle class="cls-22" cx="205.78" cy="109.3" r="14.74" transform="translate(-7.49 15.44) rotate(-4.22)"/><path class="cls-17" d="M220.48,108.45S215,103.7,210.36,102a31.2,31.2,0,0,0-16.93-.86s5.71-9.27,17.2-5.29C219,98.73,220.48,108.45,220.48,108.45Z"/><path class="cls-23" d="M199,89.44a33.65,33.65,0,0,1,8.09-8.38c6.23-4.14,11.28-4.5,11.28-4.5l4,10.11s-4.44-2.22-12-.38C203.59,87.91,199,89.44,199,89.44Z"/><ellipse class="cls-3" cx="191.76" cy="122.85" rx="7.64" ry="18.17" transform="translate(-35.73 112.34) rotate(-30)"/><path id="path106" d="M210.77,140c-8.15,5.23-17.23,10.93-30.58,9.61A9.05,9.05,0,0,1,179,137.92c1.44,2.48.54,7,4.56,7.73,7.57,1.3,16.39-4.63,21.84-6.71,3.38-5.7-.29-7.79-3.33-11.46-6.23-7.51-14.59-16.82-14.29-28.07,2.52-1.83,2.74,2.79,3.1,3.63,3.25,7.61,11.44,17.35,17.42,23.87,1.47,1.6,3.88,3.15,4.15,4.21.77,3.09-2,6.78-1.69,8.84"/><path class="cls-4" d="M171.8,91.86s-9.16-5.93-18.92-7.86c-2.71-.54-11.56.14-11.56.14l5.36-12s8.52.76,15.23,5.44C170.55,83.6,171.8,91.86,171.8,91.86Z"/><path class="cls-24" d="M171.8,91.86a29.38,29.38,0,0,0-10.48-12.28,26.73,26.73,0,0,0-13.37-4.23l-4.46,9.95s8.85-.92,14,.17C164.84,87,171.8,91.86,171.8,91.86Z"/><circle class="cls-25" cx="150.33" cy="111.24" r="11.57" transform="translate(-7.78 11.37) rotate(-4.22)"/><ellipse class="cls-26" cx="149.32" cy="110.22" rx="4.97" ry="4.45" transform="matrix(1, -0.07, 0.07, 1, -7.71, 11.29)"/><path d="M147.71,69.45c1.26-.5,2.55-1,3.84-1.4.64-.23,1.3-.44,1.95-.65a19,19,0,0,1,2-.57,72.6,72.6,0,0,1,8.05-1.63c1.36-.18,2.72-.37,4.09-.52l4.12-.2c.69,0,1.38-.06,2.06-.07l2.07.06c1.38.07,2.76.07,4.13.2A68.88,68.88,0,0,1,196.15,68a47.83,47.83,0,0,1,14.54,7.57A104.3,104.3,0,0,0,195.31,71a121.46,121.46,0,0,0-15.65-2.37c-1.31-.15-2.63-.15-3.95-.25l-2-.13-2,0-4-.07-4,.13-2,0c-.67,0-1.33.1-2,.13l-4,.26c-1.35,0-2.67.28-4,.38S149.08,69.37,147.71,69.45Z"/><path d="M154.92,62.45a12.16,12.16,0,0,1,1.78,2.42A19.44,19.44,0,0,1,158,67.49a19.1,19.1,0,0,1,.85,2.78,12,12,0,0,1,.32,3,12,12,0,0,1-1.78-2.42,19.1,19.1,0,0,1-1.25-2.62,19.44,19.44,0,0,1-.85-2.78A12.16,12.16,0,0,1,154.92,62.45Z"/><path d="M163.76,61a12.08,12.08,0,0,1,1.52,2.58,19.3,19.3,0,0,1,1,2.73,19,19,0,0,1,.55,2.84,11.93,11.93,0,0,1,0,3,11.93,11.93,0,0,1-1.52-2.58,19,19,0,0,1-1-2.73,19.3,19.3,0,0,1-.55-2.84A12.08,12.08,0,0,1,163.76,61Z"/><path d="M173.21,62.45a7.12,7.12,0,0,1,.78,2.12,10.52,10.52,0,0,1,.22,2.12,10.33,10.33,0,0,1-.21,2.12,7,7,0,0,1-.79,2.12,7,7,0,0,1-.79-2.12,10.33,10.33,0,0,1-.21-2.12,10.52,10.52,0,0,1,.22-2.12A7.12,7.12,0,0,1,173.21,62.45Z"/><path d="M181,62.45a7.2,7.2,0,0,1,.53,2.22,10.67,10.67,0,0,1,0,2.15,10.47,10.47,0,0,1-.46,2.1,7.12,7.12,0,0,1-1,2,7.12,7.12,0,0,1-.53-2.22,10.48,10.48,0,0,1,0-2.15,10.66,10.66,0,0,1,.47-2.1A7.2,7.2,0,0,1,181,62.45Z"/><path d="M189.54,62.45a9.3,9.3,0,0,1,.2,2.6,14.39,14.39,0,0,1-.35,2.47,14.13,14.13,0,0,1-.77,2.38,9.19,9.19,0,0,1-1.33,2.25,9.19,9.19,0,0,1-.21-2.6,14.13,14.13,0,0,1,.35-2.47,14.39,14.39,0,0,1,.77-2.38A9.3,9.3,0,0,1,189.54,62.45Z"/><path d="M196.19,64.32a6.65,6.65,0,0,1,.2,2.17,9.68,9.68,0,0,1-.35,2,9.51,9.51,0,0,1-.76,1.9A6.57,6.57,0,0,1,194,72.15a6.57,6.57,0,0,1-.2-2.17,9.51,9.51,0,0,1,.35-2,9.68,9.68,0,0,1,.77-1.9A6.65,6.65,0,0,1,196.19,64.32Z"/><path d="M202.65,67.85a5.53,5.53,0,0,1-.25,2,7.68,7.68,0,0,1-.73,1.67,7.54,7.54,0,0,1-1.1,1.45,5.46,5.46,0,0,1-1.6,1.16,5.46,5.46,0,0,1,.24-2,7.54,7.54,0,0,1,.74-1.67A7.68,7.68,0,0,1,201.06,69,5.53,5.53,0,0,1,202.65,67.85Z"/><path class="cls-9" d="M106.21,182.48s3.87,3.83,11.08,19.72a81.29,81.29,0,0,1,5.08,15.69l20.75-2.14-15.25,13.61s17.93,10.62,23.18,14.87A170.78,170.78,0,0,1,169.61,262l7.8-.37L139.13,200.4Z"/><path class="cls-27" d="M99.82,174.73a2.32,2.32,0,0,0,1.27,2.46c2.59,1.3,9.58,5.5,17.07,15.87,2.89,4,7.91,18.08,7.91,18.08l20,1.33L134.38,227.1s24.75,12.25,39.09,33.95c1.32,2,9.57.26,9.57.26s-19.11-41.73-28.11-56.46c-8.73-14.28-37.84-28.06-50.27-32.85A3.6,3.6,0,0,0,99.82,174.73Z"/><path class="cls-27" d="M216.6,215.12s-11.28,18.73-12.16,42c0,1.29-5,1.49-5,1.49s-10-46.9-4.13-61c2.86-6.93,15.77-20.55,15.77-20.55s.78,9.33,1.29,12.41a24.28,24.28,0,0,0,4.71,10.21l-12.34,8.9Z"/><path class="cls-12" d="M226,27.79S215.17,16.5,167,10.63c-12.14-1.48-36.7-6.37-48.75-4.25C97.88,10,82.16,27.6,76.81,40.31c-6.85,16.28,5.92,70.21,5.92,70.21s14.22-3.47,18.1-1.13c3.66,2.2,3.06,14,7,15.56,4.88,1.87,7.92-5.32,1.94-20.81S80.36,90.9,88.42,46.23c3.8-21,28.86-28.58,41.07-30.33C162.64,11.15,226,27.79,226,27.79Z"/><path class="cls-28" d="M221.37,83.95s0-26.07,4.56-51.44c3.22-17.9-82.45-25-102.82-26.09-18.26-.94-44,16.49-47.63,37.92-3.37,19.73,7.26,66.18,7.26,66.18s8.9-6.44,18.1-1.13c7.35,4.24,7,15.56,7,15.56l8.26-1.07s8.21-19.79,3.22-35.33c-7.63-23.74,8.4-34.16,14.08-35.63,2.86-.74,7.14,1.77,7.14,1.77s2.35-5.38,4.43-8.9a16.35,16.35,0,0,0,1.88-6.61s5.67,4.31,7.48,6.61a10.9,10.9,0,0,0,5.92,4s1.53-5.5,3.48-5.79c4.25-.62,10.37,12.25,10.37,12.25s10.29-8.4,5.61-16.07c-1.11-1.82,5.42.79,8.43,4.65a11.35,11.35,0,0,1,2,7.72s5.21-4.27,7.13-5.42c1.23-.74,4.57-2.13,5.71-.58s1.53,7.07,4.76,9.47a7.89,7.89,0,0,1,5.07-2.34C220.66,53.36,221.37,83.95,221.37,83.95Z"/><path class="cls-29" d="M96.51,222.37s-4.08-5.3-17.21-8.17c-4.87-1.07-16.61-.91-24.28.24-1.81.27,1.13,11,2.87,11.5a10.28,10.28,0,0,1,5.62,4.45s1.79-8.51,8.13-11.72C85.25,211.76,96.51,222.37,96.51,222.37Z"/><path class="cls-11" d="M69.57,219.5a18.07,18.07,0,0,1-7.07,0C60.87,219.11,58,216,58,216s9.37-1.66,12.53-1.66c3.63,0,14.39,1.93,14.39,1.93s-5.73-.95-10.24.44A38.46,38.46,0,0,0,69.57,219.5Z"/><path d="M84.63,196.57a14.7,14.7,0,0,0-1.9,0,2.28,2.28,0,0,0-1.25.43,3.9,3.9,0,0,0-.94,2.18,19.23,19.23,0,0,0-.27,3.23c0,.57,0,1.14.07,1.72a4.56,4.56,0,0,0,.46,1.78A3,3,0,0,1,79,204.7a6.59,6.59,0,0,1-1-1.87,8.16,8.16,0,0,1-.37-4.25,6,6,0,0,1,.87-2.21,3.82,3.82,0,0,1,2.17-1.61,3.43,3.43,0,0,1,2.45.35A4.52,4.52,0,0,1,84.63,196.57Z"/><path class="cls-30" d="M96.51,222.37s-4.08-5.3-17.21-8.17c-4.87-1.07-11.28.65-17.22,1-2.31.13-9-1.86-8.06.26.75,1.67,2.13,10,3.87,10.5a10.28,10.28,0,0,1,5.62,4.45s1.79-8.51,8.13-11.72C85.25,211.76,96.51,222.37,96.51,222.37Z"/><path class="cls-29" d="M58,185.27c1,3.87,12.81,2.67,12.81,2.67s4.28,7.89,10,8.29c3.59.25,9,11.63,9,11.63s-11-4.36-12.79-5.77c-1.12-.88-3.78-.69-5.34-1.31s-7.18,3.71-7.18,3.71L62,207.25s-2.08.62-2.79.23c-1.19-.66-3.77-7.95-4.68-9-1.16-1.28-.87-7.75-.89-9.48C53.58,187,57.67,184,58,185.27Z"/><path class="cls-11" d="M70.83,194.91c1.76,1.29,8.35,3.21,8.71,3.91,1.08,2.06,7.26,5.75,7.26,5.75l-10.26-3.83-3.07.11L62,207.25,60.38,199s-1.09-1.52-1.39-2.07a9.59,9.59,0,0,1-.86-3.88s7.18,3.25,8.68,2.63C67.61,195.37,70.14,194.41,70.83,194.91Z"/><path class="cls-30" d="M56.92,186.32c1.24-.45,3.38,2.1,4.62,2.58,1,.39,9.29-1,9.29-1a16.8,16.8,0,0,0,4.35,5.71c1.82,1.44,5.5,1.77,7.3,3.25,2.78,2.29,8.23,12,8.23,12S78.76,203.5,77,202.09c-1.12-.88-1.94-.63-3.5-1.24s-10.44,7-10.44,7-3.86-.38-5-5.78c-.74-3.44-4.79-3.34-5.12-5C52.07,192.77,55,187,56.92,186.32Z"/><path d="M71.42,202.23a12.73,12.73,0,0,1-4.17-1.36,21.69,21.69,0,0,1-3.44-2.24,33.1,33.1,0,0,1-3-2.65,37.79,37.79,0,0,1-2.67-2.91,37.42,37.42,0,0,0,3.15,2.33,32,32,0,0,0,3.33,2,19.81,19.81,0,0,0,3.48,1.42,10.13,10.13,0,0,0,3.42.44Z"/><path class="cls-3" d="M64.39,214.67a15.57,15.57,0,0,1,.13-8.33c1.18-3.89,7.07-5.69,8.95-5.49,7.78.83,16.29,7,20.28,11,4.65,4.7,15.41,18.78,15.41,18.78s-20.67-13.81-31-15.61A58.86,58.86,0,0,0,64.39,214.67Z"/><path class="cls-8" d="M64.51,209.09s2.9-8.13,10.84-3.7c7.25,4,9.67,9.83,11,10.39,3.08,1.27,17.88,10.26,17.88,10.26s-9.67-14-13.55-17.18c-2.47-2-15.56-8.2-17.23-8.3C64.45,200,64.51,209.09,64.51,209.09Z"/><path class="cls-31" d="M183,261.31l-5.62.33s-10.09-12.08-24.51-47.74c-9.72-24.05-53.08-39.17-53.08-39.17s20.56-1.57,52.18,28.05C164.09,214.1,183,261.31,183,261.31Z"/><path class="cls-30" d="M63.7,214.6c-1.74-1-1.44-3.68-.1-8.1,1.18-3.89,8-6.15,9.87-5.95,7.78.83,16.29,7,20.28,11,4.65,4.7,15.41,18.78,15.41,18.78s-20.67-13.81-31-15.61C71.71,213.64,66.81,216.46,63.7,214.6Z"/><path class="cls-31" d="M201,257.9s-6.86-30.44-7.47-40.79C192,191.73,211.13,177,211.13,177s6.75,2.45-8.54,20.48C195.6,205.75,201.4,260.56,201,257.9Z"/><path class="cls-28" d="M99.47,175.45a2.32,2.32,0,0,0,1.27,2.46c2.59,1.3,9.58,5.5,17.07,15.87,2.89,4,7.91,18.08,7.91,18.08l20,1.33L134,227.82s24.75,12.25,39.09,33.95c1.32,2,9.57.26,9.57.26s-19.11-41.73-28.11-56.46c-8.73-14.28-37.84-28.06-50.27-32.85A3.6,3.6,0,0,0,99.47,175.45Z"/><path class="cls-28" d="M216.6,215.12s-11.28,18.73-12.16,42c0,1.29-5,1.49-5,1.49s-10-46.9-4.13-61c2.86-6.93,15.77-20.55,15.77-20.55s.78,9.33,1.29,12.41a24.28,24.28,0,0,0,4.71,10.21l-12.34,8.9Z"/><path class="cls-10" d="M137.36,342.4s3.87-8.09,6.63-7.42c2.08.51,5.75,10.28,5.75,10.28s.92-20.69,4-20.34c3.91.45,12,22.36,12,22.36s8.61-7.41,10.11-7.57c2.36-.25,6.21,6.15,6.21,6.15s-1.05-14,.71-14.63c3.9-1.36,11.73,10.2,11.73,10.2s-4.18-22.49-4.17-40.19c0-10.76-3.33-40.92-3.33-40.92s-17-1.63-32.14-.26c-17.09,1.55-32.71,3.9-32.71,3.9s3.43,30.4,5.1,40.5C129.92,320.91,137.36,342.4,137.36,342.4Z"/><path class="cls-32" d="M132.51,347.28s6.14-9,8.9-8.31c2.08.51,7.68,6.69,7.68,6.69s.92-20.69,4-20.34c3.91.45,13,22.36,13,22.36s7.61-7.41,9.11-7.57c2.36-.25,6.21,6.15,6.21,6.15s-1.05-14,.71-14.63c3.9-1.36,11.73,10.2,11.73,10.2s-4.18-22.49-4.17-40.19c0-10.76-3.33-40.92-3.33-40.92s-6.8-.38-8.9,14.08c-1.37,9.43,7.94,29.09,0,40-6.94,9.57-29.34-4.71-36.74,9.35C137.19,330.81,132.51,347.28,132.51,347.28Z"/><path class="cls-28" d="M131.82,353.67s6.83-15.37,9.59-14.69c2.08.51,8,6.28,8,6.28s.92-20.69,4-20.34c3.91.45,12,22.36,12,22.36s8.61-7.41,10.11-7.57c2.36-.25,6.21,6.15,6.21,6.15s-1.05-14,.71-14.63c3.9-1.36,11.73,10.2,11.73,10.2S190,318.93,190,301.23c0-10.76-3.33-40.92-3.33-40.92s-13.94.19-29.14-.26a145.67,145.67,0,0,0-35.71,3.9s3.43,30.4,5.1,40.5C129.6,320.91,131.82,353.67,131.82,353.67Z"/><path class="cls-32" d="M190.38,302.41l12.14-.61,1.69,27s-4.14-7.82-6.28-7.29c-.78.19-5.78,4.35-6,2.4l-.86-7.34Z"/><path class="cls-28" d="M190,301.23,202,299.64l1.75,28s-4-7.38-6.13-6.85c-.78.19-5.93,3.9-6.16,2l-.86-7.34Z"/><path d="M98.88,205.34a37.85,37.85,0,0,1-3.4,5.61,63.83,63.83,0,0,1-4,5,62.71,62.71,0,0,1-4.52,4.62,37.36,37.36,0,0,1-5.16,4,37.36,37.36,0,0,1,3.39-5.61,62.71,62.71,0,0,1,4-5,63.83,63.83,0,0,1,4.52-4.62A37.85,37.85,0,0,1,98.88,205.34Z"/><path d="M95,229.87a35,35,0,0,1-.18-6.32,59.13,59.13,0,0,1,.66-6.18,58.1,58.1,0,0,1,1.3-6.08,34.52,34.52,0,0,1,2.14-5.94,34.52,34.52,0,0,1,.18,6.32,58.1,58.1,0,0,1-.66,6.18,59.14,59.14,0,0,1-1.3,6.08A35,35,0,0,1,95,229.87Z"/><path d="M110.72,221.66a18.81,18.81,0,0,1-3.4,3.09,30.4,30.4,0,0,1-3.79,2.34,29.87,29.87,0,0,1-4.09,1.77,18.59,18.59,0,0,1-4.48,1,18.59,18.59,0,0,1,3.4-3.1,29.87,29.87,0,0,1,3.79-2.33,30.4,30.4,0,0,1,4.09-1.76A18.81,18.81,0,0,1,110.72,221.66Z"/><rect class="cls-33" x="90.97" y="163.72" width="19.9" height="10.73" rx="4.72" ry="4.72" transform="translate(-34.46 26.09) rotate(-12.6)"/><path d="M109.12,237.06a14.73,14.73,0,0,1-.77-4,23.14,23.14,0,0,1,.08-3.88,22.73,22.73,0,0,1,.72-3.82,14.56,14.56,0,0,1,1.57-3.73,14.56,14.56,0,0,1,.77,4,22.73,22.73,0,0,1-.08,3.88,23.14,23.14,0,0,1-.72,3.82A14.73,14.73,0,0,1,109.12,237.06Z"/><path class="cls-29" d="M108.34,165.92a9.29,9.29,0,0,1-2.59,1.81,13.41,13.41,0,0,1-2.78,1,13.17,13.17,0,0,1-2.93.36,9.18,9.18,0,0,1-3.12-.48,9.18,9.18,0,0,1,2.58-1.82,13.17,13.17,0,0,1,2.78-1,13.41,13.41,0,0,1,2.93-.35A9.29,9.29,0,0,1,108.34,165.92Z"/><path class="cls-34" d="M87.79,160.32l-4.7.57.66,3.18a18.63,18.63,0,0,0,3.91,19l.5,2.41,4.7-.57c4-.83,6.15-7,4.75-13.78S91.81,159.49,87.79,160.32Z"/><ellipse class="cls-35" cx="85.62" cy="173.16" rx="7.43" ry="12.53" transform="translate(-33.25 20.89) rotate(-11.67)"/><line class="cls-11" x1="83.13" y1="166.48" x2="88.38" y2="181.01"/><path d="M83.13,166.48a14.69,14.69,0,0,1,2.42,3.23,23.06,23.06,0,0,1,1.62,3.52,22.66,22.66,0,0,1,1,3.74,14.52,14.52,0,0,1,.2,4A14.52,14.52,0,0,1,86,177.78a22.66,22.66,0,0,1-1.61-3.52,23.06,23.06,0,0,1-1-3.74A14.69,14.69,0,0,1,83.13,166.48Z"/><path d="M234.84,186.53a20,20,0,0,1-.42,3.56,30.77,30.77,0,0,1-.88,3.33,38.28,38.28,0,0,1-2.63,6.21L228,196.08c.92-.25,1.84-.46,2.78-.63s1.89-.29,2.85-.38a26.47,26.47,0,0,1,2.94-.06,16.66,16.66,0,0,1,3.06.38,16.66,16.66,0,0,1-2.41,1.92,26.47,26.47,0,0,1-2.54,1.48c-.87.43-1.74.83-2.63,1.17s-1.79.65-2.7.92l-5.48,1.62,2.59-5.16a38.28,38.28,0,0,1,3.52-5.75,30.77,30.77,0,0,1,2.2-2.65A20,20,0,0,1,234.84,186.53Z"/><path class="cls-36" d="M146.53,296.43c0,3.23-6.19,12.26-8.66,12.26s-2.28-19.7-2.28-12.26c0-3.23,2-5.85,4.47-5.85S146.53,293.2,146.53,296.43Z"/><path class="cls-36" d="M137.42,283.58c0,2.07-5.1,0-6.68,0s-1.46-3.86-1.46-5.92,1.28-3.74,2.86-3.74S137.42,281.51,137.42,283.58Z"/><path class="cls-4" d="M154,91.86c-1.78-.78,15.36,3.89,14.45,7.14-.67,2.42-8,.61-8,.61S160.28,94.59,154,91.86Z"/><path class="cls-37" d="M139,105.28s8.7-4.56,15.64-5.39a56.85,56.85,0,0,1,16.45.78s-6.47-8.94-16.79-8.18C142.55,93.36,139,105.28,139,105.28Z"/><path class="cls-4" d="M206.84,96.1c-1.78-.78,13.64,1,12.45,9.14-.36,2.49-6-1.39-6-1.39S213.09,98.84,206.84,96.1Z"/><path class="cls-37" d="M220.48,108.45S215,103.7,210.36,102a31.2,31.2,0,0,0-16.93-.86s5.71-9.27,17.2-5.29C219,98.73,220.48,108.45,220.48,108.45Z"/><path class="cls-4" d="M247.88,252.67a23.85,23.85,0,0,1-4,1.18c-1.6.24-5.86-2.73-5.86-2.73a6.63,6.63,0,0,1-3.59,5.47c-2.83,1.4-7.17.5-7.17.5s4.74,4.44,10.06,3C248.72,257.11,247.88,252.67,247.88,252.67Z"/><path d="M227.24,257.09a8.5,8.5,0,0,0,4.83,1.58,6.31,6.31,0,0,0,1.09-.13l.53-.13c.21-.08.42-.14.63-.2l2.51-.77,5-1.51c1.73-.49,3.47-1,5.49-1.39a11.73,11.73,0,0,1-4.06,4.38,16.75,16.75,0,0,1-5.44,2.34,15.12,15.12,0,0,1-3,.4c-.25,0-.5,0-.75,0h-.86a7.63,7.63,0,0,1-1.69-.31A6.62,6.62,0,0,1,227.24,257.09Z"/><path class="cls-30" d="M239.67,250.91s.68,4.93-1,8.27"/><path class="cls-4" d="M258.32,267.71a11.87,11.87,0,0,1-.87,7.37,15.65,15.65,0,0,1-8,7.77s14.49-2.44,13.26-12.78C262.14,265.41,258.32,267.71,258.32,267.71Z"/><path class="cls-4" d="M257.77,253.85s.91,5.13-.87,9.37c-2.35,5.58-9,8.77-9,8.77s15.49-3.44,14.26-13.78C261.59,253.55,257.77,253.85,257.77,253.85Z"/><path d="M244.32,272a22,22,0,0,0,4.58-.77,19.34,19.34,0,0,0,4.2-1.71,20.22,20.22,0,0,0,3.66-2.51,21.77,21.77,0,0,0,1.58-1.51,13.46,13.46,0,0,0,1.3-1.57l3,2.59a17.12,17.12,0,0,1-2.09,1.66,25,25,0,0,1-2.16,1.31,22.72,22.72,0,0,1-4.59,1.88,20.83,20.83,0,0,1-4.79.84A22.51,22.51,0,0,1,244.32,272Z"/><path d="M244.65,282.73a21.24,21.24,0,0,0,4-.48,22.94,22.94,0,0,0,3.79-1.17,27.67,27.67,0,0,0,3.53-1.7,23.05,23.05,0,0,0,3.12-2.12l2.17,3.36a26.37,26.37,0,0,1-4.14,1.53A30.17,30.17,0,0,1,253,283a24.44,24.44,0,0,1-4.2.23A21.77,21.77,0,0,1,244.65,282.73Z"/><path d="M240.05,289.41a24.77,24.77,0,0,0,4.14.71,21.62,21.62,0,0,0,4.1,0,20.91,20.91,0,0,0,3.94-.77c.64-.18,1.25-.41,1.85-.64a11.9,11.9,0,0,0,1.62-.8l1.65,3.65a15.7,15.7,0,0,1-2.37.53c-.76.11-1.52.19-2.27.22a23.41,23.41,0,0,1-4.46-.19,23.12,23.12,0,0,1-4.26-1A25.31,25.31,0,0,1,240.05,289.41Z"/><path class="cls-38" d="M202,262.81a24.39,24.39,0,0,0,8.54-4.91c5-4.2,5.76-10.12,15.67-12.63,11.3-2.86,13.42,5.63,13.42,5.63s12.1-5.91,18.69,1c5.15,5.38,2.81,13.31,2.81,13.31a14,14,0,0,1,1.58,7.3,11,11,0,0,1-2.56,6.45,11.22,11.22,0,0,1-.32,7.53c-1.19,2.68-5.39,4.23-5.39,4.23s2.05,7.94-20.59,9.52c-5.87.41-14.06-1.13-17.88-3.46-5.59-3.4-11.14,0-11.14,0"/><path class="cls-18" d="M190.15,163.89c-20.32-5.35-32.46,3.34-32.46,3.34"/><path d="M201.5,167.23a32.61,32.61,0,0,0-5.75-1.42,35.63,35.63,0,0,0-5.78-.44,1.51,1.51,0,0,1,0-3,1.6,1.6,0,0,1,.38,0,37.9,37.9,0,0,1,5.84,2A33.35,33.35,0,0,1,201.5,167.23Z"/><path class="cls-39" d="M190.15,163.89a35.06,35.06,0,0,0-14.75,3.8c-4.23,2.32-9.37,5.94-11.88,5.33-1.93-.47-4.06-6.83-4.06-6.83a52.93,52.93,0,0,1,15.35-4C178.65,161.83,190.15,163.89,190.15,163.89Z"/><path id="path132" class="cls-8" d="M148.18,172.4a6.64,6.64,0,0,1-1-4.24c.4-2.35,2.31-6.68,5.18-6.71.17,0,1.31.32,1.32.31s-4.87,4,1.18,10c.52.51-1.18,2.48-1.55,2.68C151.21,175.56,149.3,174.27,148.18,172.4Z"/><path d="M153.7,161.76a4.89,4.89,0,0,0-1.2,2.4,6.25,6.25,0,0,0,.08,2.57,7.3,7.3,0,0,0,1,2.3,3.74,3.74,0,0,0,1.49,1.43,1.54,1.54,0,1,1-1.58,2.58l-.12-.11a6.41,6.41,0,0,1-1.84-3,9.18,9.18,0,0,1-.41-3.09,7.37,7.37,0,0,1,.71-2.94A5.27,5.27,0,0,1,153.7,161.76Z"/><path id="path110" d="M209.23,166.88c-6.55-2.9-11.84-7.17-20.36-7.9-.43-1.4-.29-4.95-.09-7.28,11.13.11,16.58,8,20.45,15.18"/><path id="path112" d="M155.87,162.78c3.16-8.74,17.79-12,30.19-11.48a33.78,33.78,0,0,1-.45,7.31c-9.65-.18-22.69.36-29.75,4.17"/><path class="cls-16" d="M160.33,166.84l10.55-4.15,13.59.29A109.06,109.06,0,0,0,169,166.12a28.45,28.45,0,0,0-7.3,3.16Z"/><path class="cls-37" d="M190.15,163.89a35.06,35.06,0,0,0-14.75,3.8c-4.23,2.32-9.37,5.94-11.88,5.33-1.93-.47-4.06-6.83-4.06-6.83a52.93,52.93,0,0,1,15.35-4C178.65,161.83,190.15,163.89,190.15,163.89Z"/></svg>