<svg id="svg2" xmlns="http://www.w3.org/2000/svg" viewBox="0 0 308.42 419.09"><defs><style>.cls-1,.cls-27,.cls-35{fill:#1062ff;}.cls-1,.cls-10,.cls-11,.cls-12,.cls-14,.cls-15,.cls-2,.cls-21,.cls-24,.cls-25,.cls-26,.cls-27,.cls-28,.cls-3,.cls-30,.cls-31,.cls-32,.cls-33,.cls-34,.cls-35,.cls-36,.cls-37,.cls-38,.cls-39,.cls-4,.cls-5,.cls-6,.cls-7,.cls-8,.cls-9{stroke:#000;}.cls-1,.cls-10,.cls-11,.cls-12,.cls-14,.cls-15,.cls-2,.cls-21,.cls-25,.cls-26,.cls-27,.cls-28,.cls-3,.cls-30,.cls-32,.cls-33,.cls-34,.cls-35,.cls-36,.cls-37,.cls-39,.cls-4,.cls-5,.cls-6,.cls-7,.cls-8,.cls-9{stroke-miterlimit:10;}.cls-1,.cls-3,.cls-4{stroke-width:5.37px;}.cls-2,.cls-26,.cls-3,.cls-34{fill:#fff;}.cls-2{stroke-width:4.57px;}.cls-25,.cls-33,.cls-4,.cls-40{fill:#ff4034;}.cls-15,.cls-5{fill:#b0b0b0;}.cls-11,.cls-12,.cls-36,.cls-5,.cls-6,.cls-7{stroke-width:3px;}.cls-6,.cls-9{fill:#3e2a1d;}.cls-14,.cls-7{fill:#7b543a;}.cls-10,.cls-14,.cls-15,.cls-9{stroke-width:2px;}.cls-10,.cls-11,.cls-42{fill:#ca895f;}.cls-12{fill:#393939;}.cls-13,.cls-28,.cls-32{fill:#ccc;}.cls-16{fill:#f0d6b7;}.cls-17{fill:#f7e4cd;}.cls-18,.cls-21{fill:#232323;}.cls-19{fill:#dcd9d8;}.cls-20{fill:#464646;}.cls-21,.cls-31,.cls-36,.cls-38{stroke-linecap:round;}.cls-21,.cls-39{stroke-width:5px;}.cls-22,.cls-23{isolation:isolate;}.cls-23{font-size:72px;fill:#231f20;font-family:Georgia-Bold, Georgia;font-weight:700;}.cls-24,.cls-30,.cls-31,.cls-36,.cls-37,.cls-38,.cls-39{fill:none;}.cls-24,.cls-31,.cls-38{stroke-linejoin:round;}.cls-24{stroke-width:6px;}.cls-25,.cls-26,.cls-27{stroke-width:2.9px;}.cls-28,.cls-30,.cls-31{stroke-width:4px;}.cls-29{fill:#999;}.cls-32,.cls-37,.cls-38{stroke-width:4.55px;}.cls-33,.cls-34,.cls-35{stroke-width:2.64px;}.cls-41{fill:#bf3027;}</style></defs><title>logo_Austin_3</title><path class="cls-1" d="M155.65,310.76c-80.13,0-145.09-65.22-145.09-145.67s65-145.67,145.09-145.67Z"/><path class="cls-2" d="M75,148.19,57.13,95.38l-17.87,52.8-26.75.33a147.73,147.73,0,0,0-1,16.88c0,1.47,0,2.94.07,4.41l16.61,12.38L19,211.7a145,145,0,0,0,5.7,14.44l32.41-22.95,45.5,32.21L86,182.18l44.69-33.32Z"/><path class="cls-3" d="M156.21,19.49c80.13,0,145.09,65.22,145.09,145.67l-145.09,1.23V19.49"/><path class="cls-4" d="M156.21,310.68c80.13,0,145.09-65.22,145.09-145.67l-145.09-1.23v146.9"/><line class="cls-5" x1="263.43" y1="124.08" x2="267.82" y2="125.02"/><line class="cls-5" x1="260.88" y1="132.15" x2="265.9" y2="133.35"/><line class="cls-5" x1="259.8" y1="139.9" x2="264.17" y2="140.82"/><line class="cls-5" x1="296.13" y1="137.65" x2="293.02" y2="134.85"/><line class="cls-5" x1="291.88" y1="144.49" x2="288.22" y2="141.3"/><line class="cls-5" x1="287.18" y1="150.5" x2="283.75" y2="147.32"/><path class="cls-6" d="M259.1,272.8s-.51-9.06,1.19-13.84,5-5.82,7.76-10.09c6.84-10.6-3.34-22.93-3.34-22.93L246.31,253Z"/><path class="cls-6" d="M188.48,334.86c75.82,25.24,75.82-39.42,75.82-39.42s-26.39,35-70.27,23.92c-18.93-4.79-42.44-40.07-42.44-40.07S141.43,319.2,188.48,334.86Z"/><path class="cls-7" d="M203.25,211.84c-10.58,10.7-1.55,21.62-6.71,27.24-9,9.81-23.8,12.44-34.17,20.43-14.13,10.88-13.66,29.8-3,42.85,10,12.16,25.46,19.9,40.27,24.35,12.88,3.87,29.46,4.62,42.35-.67a35.29,35.29,0,0,0,21-24.53,43.37,43.37,0,0,0,.11-21.35c-2.15-8.24-9.54-14.41-10.45-23-1-9.2,12.64-9.29,15.28-17.05,5.68-16.74-18.14-27.66-30.2-31.14C227.39,206,211.8,203.2,203.25,211.84Z"/><ellipse class="cls-8" cx="224.19" cy="247.64" rx="15.75" ry="16.49"/><path class="cls-9" d="M240.2,243.63l13.3-28,4.22,1.65s-.56-2.3,1.12-9.81c2.89-13,20.46-49.06,20.46-49.06l-6.3-2.7-39,85.15Z"/><polygon class="cls-10" points="216.34 237.95 260.53 149.69 275.58 156.91 233.62 246.82 216.34 237.95"/><polygon class="cls-11" points="262.94 146.16 270.09 115.15 283.07 116.63 283.59 120.46 287.34 118.11 298.41 127.61 279.3 153.31 262.94 146.16"/><path class="cls-12" d="M265.56,145.81l9.23-25.49a9.64,9.64,0,0,1,2.52,0,11.54,11.54,0,0,1,2.35,1.9l-10.39,25.14Z"/><path class="cls-12" d="M276.48,150.69l14.17-23.11a9.55,9.55,0,0,0-1.51-2.32,10.05,10.05,0,0,0-2.85-.64l-13.68,24.16Z"/><polygon class="cls-13" points="268.76 144.94 278.11 122.87 275.58 124.21 268.25 144.94 268.76 144.94"/><polygon class="cls-13" points="286.31 129.55 288.7 128.26 276.24 149.69 275.24 149.41 286.31 129.55"/><path class="cls-14" d="M261.67,144.86c-1.58.42-1.63,5.81-1.63,5.81l18.45,9.39s4-3.65,3.7-5.05c-.49-2.65-3.81-4.76-8.84-7.16C267.88,145.25,263.21,144.45,261.67,144.86Z"/><ellipse class="cls-15" cx="263.43" cy="124.08" rx="3.36" ry="1.48" transform="translate(46.69 318.53) rotate(-67.12)"/><ellipse class="cls-15" cx="260.88" cy="132.15" rx="3.36" ry="1.48" transform="matrix(0.25, -0.97, 0.97, 0.25, 67.12, 351.18)"/><ellipse class="cls-15" cx="259.8" cy="139.9" rx="3.36" ry="1.48" transform="matrix(0.25, -0.97, 0.97, 0.25, 58.81, 355.93)"/><ellipse class="cls-15" cx="296.13" cy="137.65" rx="3.36" ry="1.48" transform="translate(13.87 301.88) rotate(-55.12)"/><ellipse class="cls-15" cx="291.88" cy="144.49" rx="3.36" ry="1.48" transform="translate(6.44 301.32) rotate(-55.12)"/><ellipse class="cls-15" cx="287.18" cy="150.5" rx="3.36" ry="1.48" transform="translate(-0.5 300.04) rotate(-55.12)"/><line class="cls-9" x1="269.25" y1="146.49" x2="202.24" y2="281.44"/><line class="cls-9" x1="273.91" y1="147.32" x2="206.3" y2="283.09"/><line class="cls-9" x1="276.17" y1="148.75" x2="210.78" y2="284.91"/><line class="cls-9" x1="266.49" y1="145.34" x2="198.5" y2="279.93"/><line class="cls-9" x1="224.35" y1="267.19" x2="215.25" y2="286.73"/><path class="cls-16" d="M204.82,239.85l-78.75,2.5-2.92-15.09L81.9,238.6,84.29,272l37.47,17.7,86.48-15.83,9.1-2.12,17.06-1.92,22.55.46,2.24-21-6.58-19.41L234.4,231.3l-20.52,6Z"/><path id="path74" class="cls-17" d="M210.84,273.52l15.86-4.08,4.53,5.42,13.6.42L253,273.6l7.25-10-.45-7.5-5-13.33c1.36,10,.24,17.07-4.08,19.58-2,1.14-23.89,5.6-29.64,1.75-3.5-2.34-7.08-12.17-7.08-12.17s-.94,10.88-5.91,14c-7.79,4.9-42.59,9.33-42.59,9.33s-32.87,4.9-44.29,3c-6.44-1.07-26.7-11.47-26.7-11.47l-.74-32L81.9,238.6,84.29,272l22.06,12.38,15.41,5.32L200,275.41Z"/><path id="path28" class="cls-16" d="M199.82,167.77l-1.42,3.13-15,12-35.2-3-16.31-7.09-10.83-3.33L111.49,159,104,137.77l-1.67-4.58-10-3.33-5.83-9.58-4.17-13.75L86.9,94.43l10.83-3.75,8.75,4.17,4.17,9.17,5-.83,1.67-2.08-1.67-9.58-.42-12.08,2.5-16.67-.1-9.52,7.6-12.15,13.33-9.58,23.33-10,25.83,3.75,22.5,16.25,10.42,16.67,6.67,12.08,1.67,30-5,25.83L214.82,149l-8.75,12.08Z"/><path id="path30" class="cls-18" d="M185.65,239.85l-59.58,2.5-3.43-14L79.82,224l-9.58-28.33L68.15,189l33.33-22.92,10.42-4.17,9.17,3.2,5.39,4.34,9,3.48,6.82,5.48,38.62,5,33.79-25.52L236.4,179.1l-20,61.15-26.15.1-4.58-.5"/><path id="path32" class="cls-13" d="M86.9,94.43l10.83-3.75,8.75,4.17,4.17,9.17,5-.83,1.25-5-2.5-9.58,2.5-22.92-2.08-12.5,7.5-8.75,16.25-12.92L134,25.27,111.07,36.52,101.49,44,96.07,55.68,87.74,66.93l-2.5,13.33L86.9,94.43"/><path id="path34" class="cls-19" d="M104,55.27s6.25-15.42,31.25-22.92,1.25-5.42,1.25-5.42L109.4,37.35,99,47.77,94.4,56.1l9.58-.83"/><path id="path36" class="cls-19" d="M91.49,91.52s-8.75-29.17,24.58-33.33l-1.25-5L91.9,58.6,85.24,80.27,86.9,94.43l4.58-2.92"/><path id="path38" class="cls-17" d="M104.82,130.27l5.46-5.29a3.51,3.51,0,0,1,2.88,3.2c.42,2.92,1.67,29.17,19.58,43.33,1.63,1.29-13.33-2.08-13.33-2.08L106.07,148.6"/><path id="path40" class="cls-17" d="M181.49,122.35s1-12.63,4.37-11.66a4.68,4.68,0,0,1,3.4,4.37s-8.26,5.34-7.77,7.29"/><path id="path42" class="cls-17" d="M216.07,76.1s-6.87,1.45-7.5,7.5,7.5,1.25,8.75.83"/><path id="path44" class="cls-17" d="M165.65,76.52s-9.17,1.25-9.17,7.08S166.9,89,169.82,86.52"/><path id="path46" class="cls-17" d="M109,103.6s-15.83-9.58-17.5-.42S86.07,119,94,128.6l-5.42-1.67-5-12.92-1.67-12.5,9.58-10,10.83.83,6.25,5,.42,6.25"/><path id="path48" class="cls-17" d="M116.49,77.35s7.08-36.67,42.92-43.75c29.5-5.83,45,1.25,50.83,7.92,0,0-26.25-31.25-51.25-21.67s-43.33,27.08-42.92,38.33c.71,19.16.42,19.17.42,19.17"/><path id="path50" class="cls-17" d="M213.15,45.68s-12.08-.42-12.5,10.42a8.28,8.28,0,0,0,.83,3.33s9.58-10.83,15.42-5"/><path id="path52" class="cls-17" d="M160.24,60.56s-2.08-16.63-16.26-7c-9.17,6.25-8.33,15-6.67,16.67s1.21,5,2.48,2.72.85-9.8,5.43-11.89,12.1-4.41,15-.54"/><path id="path56" class="cls-20" d="M125.1,208.9l5.56,6.78v25H124s-.83-17.5-.83-19.58.83-9.58.83-9.58"/><path id="path66" class="cls-20" d="M204.4,164.43l29.17,21.67.83-10-22.08-20.42-7.92,8.75"/><path id="path100" d="M166.24,66.56c-11.36-2.64-17,4.75-20.44,12.43-3.07-.74-1.85-4.93-1.07-7.05,2-5.59,10.22-13,16.92-12,2.88.43,6.78,3.07,4.6,6.65"/><path id="path102" d="M215.58,73.49l.54,0c2.57,5.33,4.79,11,8,15.69-2.17,5.05-16.42,9.52-16.2.45,3.08-1.35,8.4-.28,11.14-2-1.58-4.34-3.86-8-3.5-14.16"/><path id="path104" d="M166.06,73.63c2.43,4.46,3.23,9.15,6.69,12.53,1.56,1.52,4.59,3.37,3.09,7.59-.35,1-2.92,3.22-4.4,3.65-5.41,1.6-18,.33-13.75-6.42,4.48.21,10.49,2.91,13.84-.34-2.57-4.11-7.15-12.23-5.46-17"/><path id="path106" d="M213.55,119c-8.15,5.23-17.23,10.93-30.58,9.61A9.05,9.05,0,0,1,181.79,117c1.44,2.48.54,7,4.56,7.73,7.57,1.3,16.39-4.63,21.84-6.71,3.38-5.7-.29-7.79-3.33-11.46C198.62,99,190.27,89.7,190.57,78.46c2.52-1.83,2.74,2.79,3.1,3.63,3.25,7.61,11.44,17.35,17.42,23.87,1.47,1.6,3.88,3.15,4.15,4.21.77,3.09-2,6.78-1.69,8.84"/><path id="path108" d="M106.14,113.49c-2.55-1.46-3.16-7.88-6.16-8.06-4.28-.26-3.5,8.33-3.49,13.35-2.95-2.68-3.47-10.92-1.3-15.15-2.47-1.21-3.57,1.34-4.94,2.24C92,93.07,109,99.93,106.14,113.49"/><path id="path118" d="M243.95,239.4c-6.45,1.29-11,7.56-17.27,7.16,3.46-4.87,9.52-6.93,17.27-7.16"/><path id="path120" d="M246.79,249.49c-5.26.56-11.43,1.41-16.76,1,2.52-3.85,12.25-2.52,16.76-1"/><polygon class="cls-10" points="192.66 276.51 190.9 282.61 218.22 294.9 222.11 288.47 192.66 276.51"/><path id="path122" d="M248.61,258.19c-5.91.13-13.25,0-18.86-.46,3.32-3.57,15-1.32,18.86.46"/><path id="path130" d="M205.6,275.41,219.88,269m-25.68,4.44c4.38-.66,25-5.36,25-5.36,7.57.47,21.88-2.08,28.17.63-4.39,1.42-10.1,1.43-13.89,3.51,3.1,1.5,10.37,1.2,15.1,0h0c6.51-1.58,10.6-9.55,8.78-17.73-1.22-5.5-3.4-15.86-5.72-19.37-1.72-2.6-4.81-4.48-10.11-3.63-4,.64-15.88,1.52-26.15,10.7l-22.6,1.17-69.15,1.72c-5.05-.81-10.51,1.08-14.54.44,0-4.87,6.17-2.13,6.68-5.4.39-2.48-3.41-2.66-2.17-6.56,3.16,1.15,4.81,3.68,8.18,4.63,3.08-6.73,0-18.64.4-24.26.08-1.06.53-5.85,2.89-5,2.09.74-.12,12.75.11,18.08.21,4.9-.59,9.65,1.39,12.73,18.56,1,80.88,1,86.64-1.32,2.79-4.35,4.63-10.65,6.22-14.51,4.38-10.61,9-24,11-34.1.46-2.31,1.72-7.33,1.44-9.38-.5-3.68-5.49-6.4-8-8.67-4.67-4.2-7.61-7.89-12.49-11.82-2,2.92-6.3,4.82-7.83,7.25-4.65,7.36-12.8,11.35-21.29,16-9.15,5-31.59-3.51-41.54-6.5-7.66-2.3-17.31-7.44-22.22-12.41-3.83-3.88-7.72,1.3-8.77,1.71-13.87,5.47-26.83,14.92-38.42,23.87,11,23.71,15.51,52.75,16.29,80.74,12.66,5.92,23.77,14.45,40.94,15.34ZM93.19,64.71c-5.51,6.06-4.35,17.41-3.69,25.48,10-6.26,23.16.49,23,11.14,4.75-.13,1.77-5.93.92-9.68-2.81-12.22,4.73-25.5.34-36.67a30.2,30.2,0,0,0-20.61,9.72Zm39.39-35.16C120.12,33.08,104.15,42.14,99,53.33c4-.58,6.72-2.58,10.63-2.82,1.48-.1,3.42.62,5.11.2,3.39-.84,6.24-8.43,8.8-11.26s5.48-3.94,7.53-6.45c1.32-.63,3.26-.59,3.34-2.57C133.87,29.82,133.27,29.35,132.58,29.55ZM156.3,169.38c-5.52-2.19-10.65-7.49-14.9-12.18-4.89-5.38-9.83-11.16-10.08-18.19,9.23,12.81,16.86,24,33.65,29.63,12.7,4.26,27.54-2,37.3-8.81,4.05-2.85,6.47-7.37,9.35-11.51,10.77-15.49,15.8-37.61,14.69-59-.45-8.84-.44-17.65-3.4-23.6-3.1-6.22-18-28.62-25.43-32.81h0c-12.94-7.3-34.83-12.79-48.59-5.93-11.1,5.54-26.11,14.7-31.23,26.3,4.78,11.2-1.42,21.46-1.81,32.84-.21,6.05,2.85,11.33,3.08,17.92-1.64,2.7-6.63,3-10.09,2.85-1.16-5.83-3.2-12.38-9.2-13-8.49-.93-14.7,6.1-15.09,13.44-.46,8.64,6.63,23,16.68,22,3.88-.38,4.84-4.27,9.06-4.24,2.29,4.57-3.54,6-4.14,9.28A26.28,26.28,0,0,0,107,140c1.83,7.54,5.89,17.3,9.9,23,5.08,7.28,13.45,13.56,24.19,14.28,0,0,14.23,3.3,19,4.32,10,2.14,17.57.8,23.89.49,7-1.15,11.8-10.16,13.34-12.42-6.37,2.22-20.58,6.52-27.19,4.84A98.89,98.89,0,0,1,156.3,169.38Zm100.6,63a114.85,114.85,0,0,1,6.29,18.59c1.71,7.27-1.85,22.55-9.33,25-6.6,2.15-14.3,2-22.26.43-.94-.78-4-3.14-4.71-4.55-7.54-1.11-85.61,21.82-99.1,19.55-14.49-2.43-24.94-6.95-35.45-11.81-3.64-1.69-8.68-3.62-10-6.51s-.78-5.18-1.11-10.26c-.83-13-1.55-25.48-5-38.76-1.54-6-4.22-11.22-6.09-17-1.73-5.32-4.75-11.9-5.54-17.21-1.17-7.87,6.24-8.3,11-11.71,7.32-5.27,13.07-8.19,21-12.94,2.35-1.41,9.43-5,10.24-6.62,1.6-3.26-2.75-7.85-3.91-10.4a31.28,31.28,0,0,1-3.06-11.45,22.08,22.08,0,0,1-14.74-9.47c-5-7.39-8.53-21.05-4.17-31.45.34-.82,2-2.43,2.3-3.69.5-2.48-.93-5.77-1-8.4-.46-13.51,2.29-25.15,11.38-29.23,3.69-14.71,16.91-19.6,29.36-26.91,4.65-2.73,9.79-4.48,15.09-6.43,19-7,48.18-5.68,64,6.25,6.69,5.06,17.38,15.74,21.21,23.48,10.1,20.42,9.38,54.55,2.32,79.39a79.91,79.91,0,0,1-4.25,12.24c-1.34,2.8-5.51,8.4-5,10.87s9.51,9.38,11.43,11.23c3.47,3.35,10.06,7.79,10.59,12,.57,4.49-2,10.64-3.27,15-4.33,14.47-10.54,30.85-15.45,43.75C219.56,235.33,250.56,218.8,256.9,232.35Z"/><path class="cls-21" d="M70.15,193c0,14,2.35,45.91,2.35,45.91l49.65-11.66,1.43-19.89"/><path id="path54" class="cls-20" d="M121.07,173.18,81.9,190.68s-4.07,21,4.68,42.4l-11.76,2.71S73.34,211,72.08,202.5A69.32,69.32,0,0,1,71.15,190L109,161.52l12.08,11.67"/><path id="path132" class="cls-17" d="M154.12,132.16c.55-.73,3.56-1.84,7.78.19,0,0-5,.83-4.58,9.17l-2.08-.42s-2.15-7.56-1.11-8.95"/><g id="text5675" class="cls-22"><text class="cls-23" transform="translate(11.07 399.27)">Jenkins</text></g><path class="cls-24" d="M109.51,157.33s23.59,25.84,68.27,25.63c18.7-.09,35-27,35-27"/><polygon class="cls-25" points="111.96 158.74 188.21 241.71 178.53 240.92 105.11 164.11 111.96 158.74"/><polygon class="cls-26" points="96.86 169.49 104.8 164.12 180.53 240.92 170.54 240.62 96.86 169.49"/><polygon class="cls-27" points="87.62 173.72 160.97 240.92 170.54 240.62 96.45 168.3 87.62 173.72"/><path id="path100-2" data-name="path100" d="M202.41,65c9.31-7,17.47-2.55,23.73,3.06,2.51-1.93-.31-5.25-1.88-6.88-4.13-4.28-14.63-7.76-20.34-4.12-2.46,1.57-5,5.55-1.5,7.95"/><path class="cls-28" d="M220.35,139.62l5.33-18.8s3.77,10.59,7.73,20.53c1.62,4.06,8.87,15.07,8.87,15.07s8.83,6.36,10.54,9.73c2,3.87,2.15,17.32,2.15,17.32s-11-3.19-15-9.58c-3.29-5.29-4.54-15.49-4.54-15.49Z"/><path class="cls-29" d="M220.35,139.62l5.33-18.8s3.77,10.59,7.73,20.53c1.62,4.06,3.56,11.79,8.5,26.56C243.28,172,254,180.47,254,180.47s-10-.19-14-6.58c-3.29-5.29-4.54-15.49-4.54-15.49Z"/><path class="cls-30" d="M220.35,139.62l5.33-18.8s3.77,10.59,7.73,20.53c1.62,4.06,8.87,15.07,8.87,15.07s8.83,6.36,10.54,9.73c2,3.87,2.15,17.32,2.15,17.32s-11-3.19-15-9.58c-3.29-5.29-4.54-15.49-4.54-15.49Z"/><polyline class="cls-31" points="241.61 152.16 234.31 160.92 245.79 155.51"/><path class="cls-32" d="M105.32,144.5l-3.2-10.81L93,130.16s1.71,5.55-1.15,17.4C90.72,152.39,88.32,166,88.32,166S79.38,174.55,78,178.62c-1.59,4.68.35,19.86.35,19.86s11.94-5.37,15.39-13.21c2.85-6.49,2.63-18.18,2.63-18.18Z"/><polygon class="cls-33" points="212.75 160.24 184.51 241.28 191.35 241.01 217.35 163.38 212.75 160.24"/><polygon class="cls-34" points="222.11 166.5 217.61 163.38 190.51 241.03 196.25 241.34 222.11 166.5"/><polygon class="cls-35" points="226.74 169.45 202.94 241.31 196.54 241.39 222.49 166.31 226.74 169.45"/><path class="cls-28" d="M216.46,136.93c-9.13-9.85-15.11-2.53-19.84-1.91-8.86,1.17-25.37-10.89-34.65-3.43-17,13.7-28.62,15-40.17-12.95a97.05,97.05,0,0,1-5.33-17.06s-8.63-3.93-4.68,9.24c4.42,14.76,1.48,37.71,13.59,44,11.89,6.14,40.65,20.27,54.24,20.8,18.23.71,29-18.26,35.26-26.65C220.27,141.64,219.46,140.16,216.46,136.93Z"/><path id="path114" d="M164.07,136c4.91,12.32,21.78,10.9,36,10.56a7.61,7.61,0,0,1-3.67,4.17c-4.56,1.85-17.13,3.26-23.46-.1-4-2.13-6.59-7-8.79-9.78-1.06-1.36-6.35-4.85-.08-4.86"/><path class="cls-29" d="M184.88,168.06c-8.91.59-13.41.62-26.65-4.43-16.83-6.43-20.29-7.48-30.17-14.95-2.45-1.85-3.11-12-7.22-23.71-4.95-14.06-2.73-30.55-14.39-43.61-7.56-8.47,8.72-16.73,8.72-16.73a58,58,0,0,0-15,10.14c-5.32,4.93-13.31,16.51-13.31,16.51s8.47-5.16,17.26-1,8.31,16.56,10,24.6c3.11,15.09,2,33.54,10.59,38,11.89,6.14,40.71,19.41,54.24,20.8,19.14,2,34.26-25.65,34.26-25.65S197,167.27,184.88,168.06Z"/><path class="cls-36" d="M106.41,160.87c4.73,4.65-8,17.58-3.28,22.23s17.45-8.28,22.18-3.63-8,17.58-3.28,22.23,17.45-8.28,22.18-3.63-8,17.58-3.27,22.24,17.45-8.28,22.18-3.63-8,17.58-3.27,22.24,17.46-8.27,22.18-3.62"/><path class="cls-36" d="M227.24,166.88c-1.76,4.67-15-.33-16.78,4.34s11.51,9.66,9.75,14.32-15-.33-16.78,4.34,11.51,9.66,9.75,14.32-15-.33-16.78,4.34,11.51,9.66,9.75,14.32-15-.32-16.78,4.34,11.51,9.66,9.75,14.33"/><path class="cls-29" d="M106.4,143.57l-3.2-10.81-9.09-3.53s11.37,38.83-6,53.37c-4.3,3.61-8.72,15-8.72,15s11.94-5.37,15.39-13.21c2.85-6.49,2.63-18.18,2.63-18.18Z"/><path class="cls-37" d="M105.4,143.57l-3.2-10.81-9.09-3.53s1.71,5.55-1.15,17.4C90.8,151.46,88.4,165,88.4,165s-8.93,8.59-10.31,12.65c-1.59,4.68.35,19.86.35,19.86s11.94-5.37,15.39-13.21c2.85-6.49,2.63-18.18,2.63-18.18Z"/><polyline class="cls-38" points="88.38 161.04 98.01 169.75 84.2 165.49"/><path class="cls-13" d="M92.1,60.47c-.4-1.77-.66-29.34,43.93-42.34,49.9-14.55,71.8,16.05,71.8,16.05Z"/><path class="cls-29" d="M136.08,18c2.89-.82-9.17,5.45-15.14,13.56-9.15,12.43,22.89,7.69,22.89,7.69L94.24,54.63S96.1,29.41,136.08,18Z"/><path class="cls-39" d="M92.14,60.38c-.27-1.19-.47-14,12.85-26.18,6.55-6,16.38-11.88,31.08-16.17,49.9-14.55,71.8,16.05,71.8,16.05Z"/><path class="cls-40" d="M94.24,54.63s-7.42,3-10.13,15.48c-3.87,17.82,4.72,24.18,4.72,24.18s36.72-27.47,73.33-37.73c30.95-8.67,61.78.67,61.78.67s4-6.65-10.37-21.6c-4.73-4.93-6.89-6.86-10.08-8-13.13-4.5-31.31-1.5-55.29,3.84C123.58,37,94.24,54.63,94.24,54.63Z"/><path class="cls-41" d="M122,40.47c1,.12-14.45,11.24-13.35,14.16,1.65,4.37,4.31,3,11.85,3.83,0,0-13.71,9.08-14.8,12.24-2.61,7.6,3.47,10.22,3.47,10.22L86.9,94.43s-3.76-12.9-3.7-17.33,4.26-17.67,4.26-17.67S118.79,40.08,122,40.47Z"/><path d="M81,75.59a45.35,45.35,0,0,1,4.1-3.94c.7-.62,1.44-1.18,2.15-1.77l2.23-1.66a56.83,56.83,0,0,1,9.6-5.48,53.86,53.86,0,0,1,5.13-2c.87-.28,1.77-.49,2.65-.74l1.32-.36,1.35-.25a45.09,45.09,0,0,1,10.83-.78,44.56,44.56,0,0,0-10.6,1.75l-1.29.36-1.25.47c-.83.32-1.67.6-2.49,1a52.07,52.07,0,0,0-4.76,2.38,54.34,54.34,0,0,0-8.66,6.06l-2,1.76c-.62.62-1.27,1.21-1.87,1.85a42.26,42.26,0,0,0-3.37,3.88Z"/><path class="cls-41" d="M196.24,27.67s6.77,1.88,5.6,2.92c-1.4,1.25-3.16-.58-9.66,4.18,0,0,17.59,5,19.17,7.65s-2.75,4.84-2.75,4.84S213.93,50,215,53.83c1.82,6.28,9.89,1.74,9.89,1.74S219.31,42.36,216.36,39s-13.79-11.56-13.79-11.56Z"/><path d="M217,42.22A65.11,65.11,0,0,0,211.32,39a55.6,55.6,0,0,0-6.09-2.65,32.65,32.65,0,0,0-6.4-1.73,16.31,16.31,0,0,0-6.65.16,16.81,16.81,0,0,1,6.73-1.15,34.11,34.11,0,0,1,6.87.8,58.07,58.07,0,0,1,6.69,1.8,68.25,68.25,0,0,1,6.52,2.5Z"/><path class="cls-30" d="M94.24,54.63s-7.42,3-10.13,15.48c-3.87,17.82,4.72,24.18,4.72,24.18s36.72-27.47,73.33-37.73c30.95-8.67,61.78.67,61.78.67s4-6.65-10.37-21.6c-4.73-4.93-6.89-6.86-10.08-8-13.13-4.5-31.31-1.5-55.29,3.84C123.58,37,94.24,54.63,94.24,54.63Z"/><polygon points="222.15 51.42 208.6 47.25 222.81 47.48 222.15 51.42"/><path d="M84.17,83.48c-.13,0-.1,0-.11,0s0,0,0,0l.09,0,.27,0a5,5,0,0,0,.64,0,12.45,12.45,0,0,0,1.42-.16,28.44,28.44,0,0,0,3-.68,59.68,59.68,0,0,0,6-2.09,60.69,60.69,0,0,1-5.12,3.9,31,31,0,0,1-2.85,1.7,15.86,15.86,0,0,1-1.6.73,8.73,8.73,0,0,1-.9.3l-.52.12-.3,0-.18,0a1.76,1.76,0,0,1-.3,0Z"/><path class="cls-14" d="M204.84,209.78c-10.33,10.93-1.55,21.62-6.71,27.24-1.89,2.05-4.33,4.33-4.33,4.33l21.93-1.22L232,206.61C229.81,206.15,212.93,201.22,204.84,209.78Z"/><path class="cls-42" d="M162.88,298.11s20.74,31.79,67.34,25.71c34.37-4.48,29.58-40.33,29.58-40.33s-.13,29.13-31.46,34.64C192.5,324.45,162.88,298.11,162.88,298.11Z"/><path class="cls-42" d="M199.19,239.4s3.27-3.08,3.78-5.13c1.31-5.24-2.17-15.34,2.83-21.57,7.13-8.91,21.75-5.41,21.75-5.41s-13.92-1.38-19.52,7.32c-4.62,7.18-1.23,16.2-3.55,21.28C203.34,238.35,199.19,239.4,199.19,239.4Z"/></svg>