<?xml version="1.0" encoding="utf-8"?>
<!-- Generator: Adobe Adobe Illustrator 24.2.0, SVG Export Plug-In . SVG Version: 6.00 Build 0)  -->
<svg version="1.1" xmlns="http://www.w3.org/2000/svg" xmlns:xlink="http://www.w3.org/1999/xlink" x="0px" y="0px" width="1254px"
	 height="1080px" viewBox="0 0 1254 1080" style="enable-background:new 0 0 1254 1080;" xml:space="preserve">
<style type="text/css">
	.st0{fill:#0071BC;stroke:#424242;stroke-miterlimit:10;}
	.st1{fill:#FFFF00;stroke:#424242;stroke-miterlimit:10;}
	.st2{opacity:0.102;}
	.st3{display:none;}
	.st4{display:inline;fill:#E83E3B;stroke:#E83E3B;stroke-width:3;stroke-miterlimit:10;}
	.st5{fill:#DBDBDB;}
	.st6{fill:none;}
	.st7{fill:#E83E3B;stroke:#E83E3B;stroke-width:3;stroke-miterlimit:10;}
	.st8{font-family:'BradleyHandITCTT-Bold';}
	.st9{font-size:69px;}
	.st10{opacity:0.4196;fill:#949494;}
	.st11{fill:#949494;}
	.st12{fill:none;stroke:#000000;stroke-width:6;stroke-linecap:round;stroke-linejoin:round;stroke-miterlimit:10;}
	.st13{fill:#734312;stroke:#000000;stroke-width:5;stroke-linecap:round;stroke-linejoin:round;stroke-miterlimit:10;}
	.st14{fill:#9B9087;stroke:#000000;stroke-width:5;stroke-miterlimit:10;}
	.st15{fill:#E83E3B;stroke:#E83E3B;stroke-width:5;stroke-linecap:round;stroke-miterlimit:10;}
	.st16{font-size:144px;}
	.st17{fill:none;stroke:#000000;stroke-width:10;stroke-linecap:round;stroke-linejoin:round;stroke-miterlimit:10;}
	.st18{fill:#734312;stroke:#000000;stroke-width:10;stroke-linecap:round;stroke-linejoin:round;stroke-miterlimit:10;}
	.st19{fill:#9B9087;stroke:#000000;stroke-width:10;stroke-miterlimit:10;}
	.st20{fill:#FFFFFF;}
	.st21{fill:#D6D4D4;}
	.st22{fill:#EED4B5;}
	.st23{fill:#F3E0CA;}
	.st24{fill:#F2E0CB;}
	.st25{fill:#F4E1CB;}
	.st26{fill:#F5E2CB;}
	.st27{fill:#F6E2CB;}
	.st28{fill:none;stroke:#D13833;stroke-width:7;stroke-linecap:round;stroke-linejoin:round;stroke-miterlimit:10;}
	.st29{fill:none;stroke:#D13833;stroke-width:7;stroke-miterlimit:10;}
	.st30{fill:none;stroke:#000000;stroke-width:10;stroke-miterlimit:10;}
	.st31{fill:none;stroke:#D13833;stroke-width:3;stroke-linecap:round;stroke-linejoin:round;stroke-miterlimit:10;}
	.st32{fill:#424242;}
	.st33{stroke:#000000;stroke-miterlimit:10;}
	.st34{fill:#FFFFFF;stroke:#000000;stroke-width:7;stroke-linecap:round;stroke-linejoin:round;stroke-miterlimit:10;}
</style>
<g id="Layer_2">
	<path class="st0" d="M35.45,595.96c0-196.75,159.5-356.25,356.25-356.25s356.25,159.5,356.25,356.25
		c0,205.29-196.54,345.03-355.71,345.03C195.49,940.99,35.45,792.71,35.45,595.96z"/>
	<path class="st1" d="M31.49,596.99c-0.81-13.64,713.56-20.85,712.5,0c-8.91,175.3-152.95,326.33-349.7,326.33
		S43.1,793.4,31.49,596.99z"/>
	<g>
		<g>
			<path d="M388.02,220.3c-200.9,0-363.76,162.86-363.76,363.76s162.86,363.76,363.76,363.76s363.76-162.86,363.76-363.76
				S588.92,220.3,388.02,220.3z M388.02,928.15c-190.03,0-344.09-154.05-344.09-344.09s154.05-344.09,344.09-344.09
				s344.09,154.05,344.09,344.09S578.05,928.15,388.02,928.15z"/>
		</g>
	</g>
	<path class="st2" d="M35.6,574.8c0-195.62,226.87-388.92,354.2-354.2c29.76,8.11-190.99-45.08-281.17,271.31
		c-53.62,188.13,68.51,363.74,48.1,349.6C75.65,785.35,35.6,681.17,35.6,574.8z"/>
</g>
<g id="Layer_9">
	<path class="st5" d="M762.98,396.62c71.84-26.75,177.35-53.26,233.77-45.99c201.48,25.96,133.7,168.65,142.22,168.09
		c7.55-0.5,10.65,57.37,81.35,57.37c-64.33,64.33-101.17,159.21-125.41,252.23c-16.89-43.85-40.92-65.54-131.58-57.59
		c-18.84,1.65-38.55-0.81-41.54-19.49c-2.99-18.68-0.15-44.08,11.21-51.49c-92.21-35.2-166.06-32.09-266.92-11.14
		C730.65,646.51,792,505.46,762.98,396.62z"/>
	
		<rect x="728.61" y="346.93" transform="matrix(0.2079 -0.9781 0.9781 0.2079 184.5087 1341.3654)" class="st6" width="383.73" height="419.65"/>
	<text transform="matrix(0.7043 0.1497 -0.1414 0.6651 885.0353 407.4953)"><tspan x="0" y="0" class="st7 st8 st9">STOP</tspan><tspan x="47.71" y="61.76" class="st7 st8 st9">the</tspan><tspan x="5.97" y="123.53" class="st7 st8 st9">WAR</tspan></text>
	<path class="st10" d="M767.89,399.28c71.84-26.75,177.35-53.26,233.77-45.99c201.48,25.96,133.7,168.65,142.22,168.09
		c7.55-0.5,31.24-127.22-185.75-152.77c-30.52-3.59-186.64,32.71-186.64,32.71s96.81,24.57,71.63,149.92
		c-17.15,85.34-54.39,96.2-172.12,140.04C735.57,649.18,796.91,508.13,767.89,399.28z"/>
	<path class="st10" d="M1138.97,523.46c2.29-7.21,10.65,57.37,81.35,57.37c-64.33,64.33-101.17,159.21-125.41,252.23
		c-16.89-43.85-40.92-65.54-131.58-57.59c-18.84,1.65-38.55-0.81-41.54-19.49c-2.99-18.68-0.15-44.08,11.21-51.49
		c19.5-9.57,43.99,4.95,55.64,26.99c9.77,18.49,32.18,11.69,27.07-2.79C996.07,672.94,1130.34,550.68,1138.97,523.46z"/>
	<path class="st12" d="M1141.52,521.11c33.79,82.5,93.36,48.32,81.35,57.37c-58.8,44.28-125.41,252.23-125.41,252.23
		s-5.74-40.53-50.92-54.95c-27.01-8.62-91.41,5.95-112.85-11.21c-23.42-18.75-11.13-47.18,1.86-62.4"/>
	<g>
		<path d="M812.93,568.95c-7.82,12.62-16.16,24.94-25.39,36.6c-9.25,11.64-19.41,22.59-30.58,32.45
			c-11.16,9.86-23.22,18.73-36.01,26.37c-12.81,7.6-26.09,14.34-39.75,20.2c-0.05,0.02-0.11,0-0.13-0.05c-0.02-0.05,0-0.1,0.05-0.13
			c13.15-6.89,26.25-13.86,38.79-21.72c12.56-7.81,24.76-16.24,36-25.87c11.23-9.64,21.48-20.4,30.85-31.88
			c9.41-11.45,17.96-23.61,26-36.08c0.03-0.05,0.09-0.06,0.14-0.03C812.95,568.84,812.96,568.9,812.93,568.95z"/>
	</g>
	<g>
		<path d="M1151.33,480.03c0.41,6.43-0.34,12.81-1.93,18.85c-1.57,6.06-3.82,11.85-6.42,17.42c-5.23,11.14-11.79,21.45-18.73,31.39
			c-6.97,9.93-14.39,19.5-21.97,28.9c-7.58,9.41-15.31,18.67-23.01,27.94c-15.37,18.56-30.84,37.07-44.15,57.12
			c-6.59,10.04-12.67,20.5-16.88,31.76c-2.09,5.62-3.69,11.46-4.27,17.45c-0.66,5.97-0.12,12.08,1.73,17.83
			c-1.97-5.7-2.64-11.84-2.11-17.86c0.45-6.04,1.95-11.96,3.94-17.67c4.01-11.44,9.91-22.1,16.32-32.32
			c12.96-20.43,28.1-39.32,43.08-58.2c15-18.87,30.2-37.6,43.59-57.49c6.65-9.95,12.87-20.21,17.67-31.02
			c2.38-5.4,4.39-10.94,5.73-16.59c1.37-5.64,1.89-11.4,1.42-17l-0.01-0.07c-0.14-1.65,1.09-3.1,2.74-3.24
			c1.65-0.14,3.1,1.09,3.24,2.74C1151.33,479.99,1151.33,480.02,1151.33,480.03z"/>
	</g>
	<path class="st12" d="M938.53,699.42c-67.35-25.07-209.03-34.44-269.9-8.42c0,0,52.31-41.56,82.7-129.62
		c32.16-93.2,14.2-162.37,14.2-162.37c147.43-69.6,369.08-78.69,383.06,83.76"/>
	<g>
		<path d="M933.46,699c5.77-2.1,12.09-2.46,17.9-1.2c5.83,1.23,11.12,3.89,15.81,7.17c4.68,3.3,8.81,7.26,12.32,11.68
			c1.75,2.21,3.34,4.54,4.7,7.01c1.34,2.46,2.51,5.06,2.98,7.82c-0.71-2.7-2.09-5.14-3.62-7.43c-1.54-2.29-3.3-4.42-5.19-6.41
			c-3.79-3.98-8.12-7.43-12.81-10.13c-4.68-2.69-9.77-4.66-14.94-5.26c-5.17-0.63-10.32,0.18-14.87,2.31
			c-1.5,0.7-3.29,0.05-3.99-1.45s-0.05-3.29,1.45-3.99c0.08-0.04,0.16-0.07,0.24-0.1L933.46,699z"/>
	</g>
	<g>
		<g>
			<path class="st13" d="M564.45,1017.84c59.42-219.09,118.84-438.18,176.34-648.67c15.35-5.22,23.25-6.66,38.6-11.88
				c0,0-40.57,113.83-100.7,324.5c-56.96,199.57-72.54,353.98-72.54,353.98L564.45,1017.84z"/>
			
				<ellipse transform="matrix(0.4623 -0.8867 0.8867 0.4623 -594.9159 1070.7467)" class="st14" cx="585.48" cy="1025.94" rx="15.1" ry="22.88"/>
		</g>
	</g>
	<rect x="933.79" y="855.05" class="st6" width="0" height="0"/>
	<g>
		<path d="M1058.17,653.09c-8.19,6.76-15.21,14.9-20.28,24.11c-5.13,9.16-8.33,19.39-8.83,29.76c-0.25,5.18,0.2,10.37,1.29,15.42
			c1.07,5.05,2.65,9.97,4.68,14.73c2,4.77,4.54,9.32,7.45,13.66c2.93,4.33,6.27,8.41,9.91,12.32c0.08,0.08,0.07,0.21-0.01,0.28
			c-0.07,0.07-0.18,0.07-0.25,0.02c-8.8-6.14-16.01-14.77-20.75-24.64c-2.37-4.94-4.04-10.23-4.92-15.64
			c-0.86-5.42-1.08-10.93-0.59-16.37c0.94-10.89,4.69-21.37,10.3-30.56c5.67-9.17,13.14-17.14,21.76-23.42
			c0.09-0.07,0.21-0.05,0.28,0.04C1058.26,652.9,1058.25,653.02,1058.17,653.09z"/>
	</g>
	<g>
		<path d="M1105.33,418.87c-7.48-6.02-15.53-11.28-23.89-15.97c-8.36-4.68-17.04-8.79-25.9-12.42
			c-17.71-7.31-36.15-12.76-54.89-16.56c-9.38-1.88-18.84-3.33-28.34-4.34c-2.38-0.24-4.75-0.53-7.13-0.74l-7.14-0.59l-7.15-0.5
			l-7.15-0.37c-19.09-0.85-38.24-0.25-57.31,2.27c-0.11,0.02-0.21-0.06-0.23-0.17c-0.01-0.1,0.05-0.2,0.15-0.22
			c9.35-2.35,18.91-3.9,28.53-4.81c9.62-0.93,19.31-1.23,28.98-1.06c19.36,0.34,38.59,3.23,57.44,7.4
			c18.85,4.22,37.33,10.11,55.01,17.85c8.82,3.9,17.44,8.28,25.72,13.22c8.27,4.94,16.22,10.45,23.55,16.7
			c0.08,0.07,0.09,0.2,0.02,0.28C1105.54,418.93,1105.41,418.94,1105.33,418.87z"/>
	</g>
	<g>
		<path d="M1152.33,607.22c-7.1,5.67-13.38,12.32-18.86,19.54c-5.48,7.23-10.26,14.97-14.46,23c-8.43,16.06-14.59,33.25-18.84,50.85
			c-4.22,17.63-6.34,35.68-6.99,53.75c-0.31,9.04-0.12,18.1,0.48,27.14l0.22,3.39c0.08,1.13,0.22,2.26,0.32,3.38
			c0.24,2.25,0.41,4.52,0.74,6.76c0.3,2.25,0.53,4.51,0.88,6.76c0.37,2.24,0.72,4.49,1.06,6.74l0,0.01
			c0.01,0.08-0.04,0.16-0.13,0.17c-0.08,0.01-0.15-0.04-0.17-0.11c-0.55-2.21-1.09-4.42-1.62-6.65c-0.52-2.22-0.92-4.47-1.38-6.71
			c-0.47-2.24-0.75-4.5-1.11-6.76c-0.17-1.13-0.36-2.26-0.5-3.39l-0.4-3.4c-1.08-9.08-1.49-18.25-1.4-27.4
			c0.27-18.33,3.09-36.56,7.66-54.26c4.58-17.7,11.08-34.94,19.84-50.98c4.41-8,9.4-15.69,15.07-22.85
			c5.68-7.15,12.14-13.69,19.39-19.23c0.07-0.05,0.16-0.04,0.21,0.03C1152.41,607.08,1152.39,607.17,1152.33,607.22z"/>
	</g>
	<g>
		<path d="M1193.36,585.62c-2.77,1.39-5.39,3.04-7.92,4.82c-2.48,1.85-4.92,3.75-7.19,5.85c-4.61,4.12-8.82,8.67-12.76,13.43
			c-7.91,9.5-14.75,19.86-20.75,30.65c-2.99,5.4-5.76,10.93-8.27,16.57c-2.56,5.62-4.92,11.32-7.2,17.05
			c-4.58,11.47-8.3,23.25-11.57,35.25c-0.02,0.08-0.1,0.13-0.18,0.11c-0.07-0.02-0.12-0.09-0.11-0.17
			c0.82-6.17,2.02-12.3,3.56-18.35c0.73-3.03,1.64-6.02,2.51-9.02c0.94-2.98,1.93-5.94,2.98-8.88c4.24-11.76,9.88-22.98,16.19-33.74
			c6.33-10.76,13.48-21.04,21.69-30.44c4.13-4.67,8.52-9.13,13.3-13.14c2.36-2.04,4.88-3.88,7.44-5.66c2.61-1.71,5.3-3.29,8.13-4.6
			c0.08-0.03,0.16,0,0.2,0.07C1193.47,585.5,1193.43,585.59,1193.36,585.62z"/>
	</g>
	<path class="st5" d="M762.98,396.62c71.84-26.75,177.35-53.26,233.77-45.99c201.48,25.96,133.7,168.65,142.22,168.09
		c7.55-0.5,10.65,57.37,81.35,57.37c-64.33,64.33-101.17,159.21-125.41,252.23c-16.89-43.85-40.92-65.54-131.58-57.59
		c-18.84,1.65-38.55-0.81-41.54-19.49c-2.99-18.68-0.15-44.08,11.21-51.49c-92.21-35.2-166.06-32.09-266.92-11.14
		C730.65,646.51,792,505.46,762.98,396.62z"/>
	
		<rect x="748.8" y="341.41" transform="matrix(0.2079 -0.9781 0.9781 0.2079 205.8992 1356.7371)" class="st6" width="383.73" height="419.65"/>
	<text transform="matrix(0.7043 0.1497 -0.1414 0.6651 823.3378 443.7239)"><tspan x="0" y="0" class="st15 st8 st16">STOP</tspan><tspan x="99.58" y="136.76" class="st15 st8 st16">the</tspan><tspan x="12.46" y="273.53" class="st15 st8 st16">WAR</tspan></text>
	<path class="st10" d="M766.72,399.28c71.84-26.75,177.35-53.26,233.77-45.99c201.48,25.96,133.7,168.65,142.22,168.09
		c7.55-0.5,31.24-127.22-185.75-152.77c-30.52-3.59-186.64,32.71-186.64,32.71s96.81,24.57,71.63,149.92
		c-17.15,85.34-54.39,96.2-172.12,140.04C734.39,649.18,795.74,508.13,766.72,399.28z"/>
	<path class="st10" d="M1138.97,523.46c2.29-7.21,10.65,57.37,81.35,57.37c-64.33,64.33-101.17,159.21-125.41,252.23
		c-16.89-43.85-40.92-65.54-131.58-57.59c-18.84,1.65-38.55-0.81-41.54-19.49c-2.99-18.68-0.15-44.08,11.21-51.49
		c19.5-9.57,45.02,9.94,56.66,31.99c9.77,18.49,31.15,6.7,26.05-7.79C996.07,672.94,1130.34,550.68,1138.97,523.46z"/>
	<path class="st17" d="M1141.52,521.11c33.79,82.5,93.36,48.32,81.35,57.37c-58.8,44.28-125.41,252.23-125.41,252.23
		s-5.74-40.53-50.92-54.95c-27.01-8.62-91.41,5.95-112.85-11.21c-23.42-18.75-11.13-47.18,1.86-62.4"/>
	<g>
		<path d="M1153.33,479.86c0.39,6.71-0.43,13.3-2.1,19.47c-1.65,6.19-3.98,12.07-6.64,17.7c-5.37,11.25-12.05,21.57-19.09,31.51
			c-7.07,9.92-14.57,19.46-22.22,28.83c-7.65,9.37-15.45,18.58-23.22,27.8c-15.49,18.45-31.08,36.83-44.51,56.76
			c-6.65,9.97-12.78,20.37-17.06,31.58c-2.12,5.59-3.76,11.41-4.38,17.37c-0.7,5.95-0.2,12.06,1.61,17.82
			c-0.96-2.85-1.73-5.79-2.06-8.8c-0.33-3-0.43-6.05-0.17-9.07c0.41-6.06,1.87-12,3.83-17.74c3.94-11.49,9.78-22.22,16.14-32.51
			c12.85-20.56,27.87-39.57,42.73-58.56c7.45-9.49,14.91-18.94,22.19-28.51c7.28-9.56,14.36-19.25,20.94-29.2
			c6.55-9.95,12.66-20.19,17.31-30.89c2.31-5.34,4.24-10.8,5.5-16.31c1.29-5.5,1.73-11.06,1.24-16.38l-0.01-0.11
			c-0.25-2.75,1.77-5.18,4.52-5.44c2.75-0.25,5.18,1.77,5.44,4.52C1153.32,479.75,1153.32,479.82,1153.33,479.86z"/>
	</g>
	<path class="st17" d="M938.53,699.42c-67.35-25.07-209.03-34.44-269.9-8.42c0,0,52.31-41.56,82.7-129.62
		c32.16-93.2,14.2-162.37,14.2-162.37c147.43-69.6,369.08-78.69,383.06,83.76"/>
	<g>
		<path d="M941.88,695.61c5.23,2.1,10.39,4.31,15.33,7.01c4.94,2.68,9.71,5.68,14.14,9.12c4.42,3.44,8.52,7.34,11.9,11.8l1.24,1.68
			c0.42,0.56,0.76,1.17,1.14,1.76c0.78,1.15,1.4,2.41,2.04,3.64c1.17,2.52,2.11,5.15,2.49,7.87c-0.71-2.65-1.94-5.1-3.37-7.38
			c-0.77-1.11-1.5-2.24-2.39-3.26c-0.43-0.51-0.82-1.06-1.29-1.54l-1.38-1.46c-3.74-3.85-8.07-7.07-12.65-9.81
			c-4.59-2.74-9.44-5.01-14.39-6.97c-4.96-1.97-10.1-3.46-15.24-4.83L941.88,695.61z"/>
	</g>
	<g>
		<g>
			<path class="st18" d="M564.45,1017.84c59.42-219.09,118.84-438.18,176.34-648.67c15.35-5.22,23.25-6.66,38.6-11.88
				c0,0-40.57,113.83-100.7,324.5c-56.96,199.57-72.54,353.98-72.54,353.98L564.45,1017.84z"/>
			
				<ellipse transform="matrix(0.4623 -0.8867 0.8867 0.4623 -594.9159 1070.7467)" class="st19" cx="585.48" cy="1025.94" rx="15.1" ry="22.88"/>
		</g>
	</g>
	<g>
		<path d="M1058.29,653.25c-3.99,3.49-7.67,7.31-10.97,11.38c-3.29,4.09-6.17,8.47-8.57,13.08c-2.42,4.59-4.36,9.4-5.72,14.34
			c-1.4,4.92-2.22,9.98-2.38,15.03c-0.18,5.05,0.46,10.09,1.64,14.94c1.17,4.86,2.7,9.6,4.55,14.27c1.85,4.67,4.12,9.21,6.76,13.63
			c2.63,4.43,5.66,8.69,8.91,13.02l-0.52,0.61c-4.8-2.63-9.11-6.16-12.9-10.22c-3.78-4.07-7.01-8.71-9.55-13.75
			c-2.55-5.03-4.26-10.5-5.05-16.1c-0.77-5.6-0.8-11.27-0.24-16.84c0.56-5.57,1.84-11.03,3.7-16.23c1.9-5.19,4.39-10.13,7.33-14.73
			c5.97-9.15,13.67-17.03,22.51-23.08L1058.29,653.25z"/>
	</g>
	<g>
		<path d="M1103.46,418.72c-15.71-10.91-32.46-19.84-49.91-26.87c-17.43-7.08-35.58-12.16-54.05-15.43
			c-18.48-3.24-37.29-4.57-56.14-4.39c-9.43,0.16-18.88,0.62-28.32,1.47c-9.46,0.78-18.88,2.11-28.37,3.34
			c9.1-2.97,18.4-5.34,27.82-7.23c9.44-1.76,18.98-3.13,28.6-3.87c19.23-1.36,38.72-0.56,57.81,2.8
			c19.07,3.38,37.75,9.2,55.19,17.57C1073.47,394.5,1089.85,405.21,1103.46,418.72z"/>
	</g>
	<g>
		<path d="M1152.48,607.42l-2.56,2.23l-1.28,1.12l-1.22,1.18l-2.43,2.36l-2.31,2.48c-1.58,1.61-2.97,3.4-4.45,5.1
			c-1.41,1.76-2.8,3.54-4.15,5.35c-5.32,7.29-9.94,15.06-13.98,23.11c-4.06,8.04-7.55,16.36-10.51,24.85
			c-3,8.48-5.49,17.14-7.49,25.89c-1.96,8.77-3.41,17.64-4.32,26.56c-0.95,8.91-1.67,17.82-2.12,26.77
			c-0.43,8.94-0.53,17.92-0.26,26.92c0.27,9,0.91,18.02,1.71,27.15l-0.78,0.17c-3.04-8.67-5.13-17.68-6.53-26.8
			c-1.4-9.12-2.11-18.37-2.13-27.63c-0.01-9.26,0.77-18.51,2.26-27.64c1.54-9.12,3.52-18.15,5.96-27.04
			c2.41-8.9,5.3-17.67,8.72-26.22c3.45-8.54,7.42-16.87,11.97-24.87c4.58-7.98,9.73-15.64,15.56-22.74
			c5.82-7.1,12.46-13.56,19.86-18.94L1152.48,607.42z"/>
	</g>
	<g>
		<path d="M1193.47,585.85c-5.41,2.96-10.24,6.82-14.7,11.03c-4.47,4.21-8.53,8.83-12.32,13.65c-3.82,4.8-7.35,9.82-10.65,14.99
			c-3.33,5.14-6.43,10.44-9.31,15.84c-2.89,5.4-5.43,10.98-7.77,16.63l-7.1,16.88c-4.83,11.24-9.04,22.71-13.66,34.41l-0.78-0.16
			c0.1-6.32,0.91-12.6,2.1-18.79c1.2-6.2,2.83-12.31,4.86-18.29c2.01-5.99,4.51-11.81,7.42-17.42c2.92-5.6,6.11-11.05,9.38-16.43
			c3.28-5.38,6.77-10.62,10.49-15.7c3.76-5.05,7.74-9.93,11.99-14.57c4.28-4.61,8.82-8.99,13.74-12.91c2.43-1.99,5.02-3.8,7.64-5.52
			c2.68-1.64,5.45-3.15,8.34-4.37L1193.47,585.85z"/>
	</g>
	<g>
		<path d="M671.74,683.87c9.01-3.05,18.06-6,27.12-8.84l27.17-8.43c9.03-2.84,18-5.79,26.84-9.14c8.84-3.34,17.54-7.1,26.04-11.29
			c-8.19,4.78-16.63,9.16-25.27,13.14c-8.63,3.99-17.45,7.59-26.28,11.07l-26.5,10.31c-8.81,3.46-17.57,7.01-26.28,10.66
			L671.74,683.87z"/>
	</g>
	<g>
		<path d="M770.84,396.56c1.51,0.75,2.62,1.63,3.67,2.53c1.04,0.9,1.93,1.85,2.79,2.81c1.68,1.94,3.12,3.95,4.44,6.01
			c1.32,2.06,2.49,4.17,3.6,6.3c1.11,2.12,2.1,4.3,3.06,6.46c-1.53-1.82-3.06-3.61-4.69-5.31c-1.62-1.7-3.28-3.34-5.01-4.86
			c-1.73-1.51-3.53-2.92-5.36-4.1c-0.92-0.57-1.85-1.12-2.76-1.53c-0.9-0.41-1.82-0.75-2.51-0.82L770.84,396.56z"/>
	</g>
	<rect x="422.99" y="442.5" class="st6" width="4.06" height="0.75"/>
</g>
<g id="Layer_7">
	<path class="st20" d="M221.31,630.22c-27.43-3.96-102.7,63.86-102.7,63.86s30.24,113.25,36.39,151.18
		c4.28,26.41-4.54,83.46,8.78,106.66c9.23,16.08,46.84,31.14,64.62,36.39c153.14,45.17,312.44-24.47,312.44-24.47l-12.55-111.05
		l29.49-5.65l57.72-180.06l-48.94-51.45c0,0-26.4,107.5-131.94,99.89C232.13,700.93,230.85,631.6,221.31,630.22z"/>
	<path class="st21" d="M221.31,630.22c-27.43-3.96-102.7,63.86-102.7,63.86s30.24,113.25,36.39,151.18
		c4.28,26.41-4.54,83.46,8.78,106.66c9.23,16.08,46.84,31.14,64.62,36.39c153.14,45.17,312.44-24.47,312.44-24.47l-4.03-35.68
		c0,0-210.61,88.6-322.77,12.84c-39.18-26.47-73.28-227.49-42.44-241.57C253.6,661.97,230.85,631.6,221.31,630.22z"/>
	<path class="st22" d="M511.95,214.54c12.8,8.07,36.9,38.58,46.37,50.89c-0.81,2.13,34.66,62.84,37.14,82.94
		c7.25,58.58-2.73,117.7-22.26,174.47c-9.87,28.69-21.73,42.56-27.99,76.58c-1.07,5.81-0.95,154.06-180.92,107.72
		c-8.8-2.27-58.34-53.42-68.45-54.98c-2.15-2.14-40.96-6.81-48.99-27.6c-8.42-21.81-24.82-85.87-36.56-94.77
		c-2.16-1.64-27.18-6.9-29.38-9.38c-1.61-2.05-33.89-68.15-28.22-84.86c1.17-0.78,8.91-24.13,8.95-24.28
		c0.49-2.07,21.74-7.49,21.41-10.57c-9.92-94.17,37.99-179.25,150.24-203.38c91.16-19.59,102.56-8.79,128.36-1.45
		C477.57,200.39,511.03,214.69,511.95,214.54z"/>
	<path class="st23" d="M218.41,402.6c5.7,12.32-34.09,0.3-34.42-2.79c-9.92-94.17,37.99-179.25,150.24-203.38
		c91.16-19.59,65.5-17,91.3-9.66c4.49,1.28-10.84,40.61-69.93,40.61c-46.47,0-40-12.14-40-12.14s-4.77,2.97-36.17,20.96
		C223.92,268,203.66,370.69,218.41,402.6z"/>
	<path class="st24" d="M226.81,472.83c1.55-33.69-25.66-44.45-35.52-37.59c-33.03,22.99-10.23,70.02-5.84,74.42
		c-28.41-4.5-30.91-41.21-27.16-62.29c3.62-20.37,20.05-39.73,40.17-39.22c10.04,0.25,27.14-0.54,31.51,8.11
		C244.8,445.63,224.75,467.22,226.81,472.83z"/>
	<path class="st25" d="M240.39,509.86c4.9,0.48,7.9,3.63,8.27,8.95c1.61,23.24,6.61,45.6,15.03,67.41
		c8.03,20.79,19.07,39.33,34.99,54.91c1.7,1.66,3.43,3.28,5.22,5.28c-7.76-1.88-15.8-3.6-23.38-6.5
		c-8.91-3.42-16.27-9.34-21.53-17.48c-15.37-23.77-25.44-49.69-31.3-77.35c-1.6-7.57-0.18-13.67,5.88-18.79
		C238.39,522.21,242.29,517.42,240.39,509.86z"/>
	<path class="st23" d="M447.12,354.63c-7.48,8.07-84.27-61.58-93.48-56.12c-15.05,8.92-51.37,65.08-51.58,67.91
		c-1.36-2.1,1.25-21.6,3.99-32.22c4.27-16.59,33.93-45.08,50.73-55.03C391.44,258.64,512.96,283.57,447.12,354.63z"/>
	<path class="st23" d="M507.12,348.37c10.38-3.49,54.87-22.47,64.08-17.24c15.05,8.55,7.6-38.49,2.11-40.83
		C560.76,284.95,500.48,280.27,507.12,348.37z"/>
	<path class="st26" d="M408.9,365.36c1.76,11.58,6.61,21.91,11.89,32.47c-5.43,1.23-10.9,2.55-16.42,2.83
		c-6.17,0.31-12.82,0.34-17.67-4.12c-7.62-7.01-6.57-17.89,2.58-23.35C395.15,369.69,402.05,367.91,408.9,365.36z"/>
	<path class="st26" d="M560.66,358.77c2.13,7.03,3.93,14.24,5.78,22.06c0.13,0.94,0.32,1.18,0.62,1.33
		c0.17,0.43,0.34,0.86,0.57,1.64c-5.71,2.2-11.42,4.28-17.27,5.87c-8,2.18-12.37-2.08-10.26-10.12
		C542.89,368.91,549.61,361.89,560.66,358.77z"/>
	<path class="st27" d="M458.48,491.91c-1.03-2.14-1.71-4.33-2.44-6.88c1.42-5,2.72-9.69,4.41-14.24c1.51-4.07,4.31-6.55,9.05-5.3
		c4.12,1.09,9.14,7.8,7.77,11.21c-0.91,2.27-3.24,4.16-5.29,5.75C467.72,485.75,463.23,488.75,458.48,491.91z"/>
	<path class="st22" d="M562.02,853.39c9.86,25.4,15.35,52.49,16.17,79.72c0.33,10.8,13.55,18.92,23.33,14.32
		c14.08,15.86,38.37,21.68,58.11,13.93c19.74-7.75,33.58-28.55,33.1-49.75c-0.49-21.8-1.2-44.5-11.41-63.76
		c-10.21-19.26-33.02-33.73-53.77-27.05c-23.54,7.58-46.03,18.4-66.64,32.06C561.79,854.35,562.66,855.83,562.02,853.39z"/>
	<path class="st21" d="M283.78,760.24c0,0-44.63-12.26-18.28,70.46c2.94,9.22-19.2-3.29-18.04,6.32
		c2.26,18.71-17.08,25.87-11.14,31.38c6.42,5.95,47.38-6.46,47.38-6.46L283.78,760.24z"/>
</g>
<g id="Layer_6">
	<path d="M235.42,630.27c-1.78-1-11.25,5.34-13.1,6.21c-35.13,16.53-94.25,58.46-92.84,61.57c10.15,22.43,43.24,182.23,40.99,239.11
		c-0.27,6.88,2.06,10.89,8.96,13.33c6.66,3.36,13.37,6.63,19.98,10.1c22.83,12.02,45.37,26.6,71.42,28.69
		c113.17,9.08,262.65-20.94,266.82-43.43l-14.28-85.8c-1.53-0.08-258.82,9.64-260.35,9.7c-7.81,0.31-15.63,0.64-23.69,0.66
		c-0.33,0.08-0.66,0.16-1.56,0.2c-0.49-0.24-0.98-0.48-1.43-1.55c-0.41-3.79,1.47-6.29,4.75-7.62c2.17-0.89,4.57-1.22,6.88-1.79
		c8.9-2.19,10.37-6.93,4.17-13.64c-2.86-3.09-7.44-9.31-2.66-11.55c2.13-1,6.25,4.73,8.31,6.35c21.74,17.07,19.58-3.97,19.58-3.97
		s-1.01-35.1-1.47-46.79c-0.25-6.33,0.69-16.9,1.66-25.3c0.22-1.92,2.59-4.85,4.22-5.07c1.59-0.22,3.95,1.67,4.83,4.25
		c2.08,6.15,0.3,14.64-0.22,19.49c-1.51,14-1.65,37.54-1.55,56.31c0.06,11.2,2.66,12.68,13.6,11.63c0.51-0.05,119.41,0.7,134.2-0.07
		c6.17-0.32,112.65-0.32,123.22-15.7c15.77-22.94,53.5-138.21,50.72-162.98c-2.4-21.44-57.78-60.21-57.78-60.21
		s-22.57,77.54-59.47,89.61C370.96,740.72,242.89,634.45,235.42,630.27z M541.9,930.75c0,30.85,25.91,32.34,33.81,14.12
		c2.22-5.13-2.69-53.56-6.87-68.01c-5.96-20.61-11.63-25.68-32.65-24.05c-0.28,0.02,0.48,6.95-0.32,7.48
		C539.34,883.49,538.47,906.43,541.9,930.75z M189.52,512.01c11.74,8.91,24.48,8.68,35.9-0.37c2.37-1.87,5.01-3.68,7.82-4.62
		c2.12-0.71,4.71,0.02,7.2,1.02c1.85,7.1-2.05,11.89-6.87,15.96c-6.06,5.13-7.49,11.23-5.88,18.79
		c5.86,27.66,15.93,53.58,31.3,77.35c5.26,8.14,38.29,20.66,53.19,28.49c76.64,40.28,127.59,70.81,161.24,60.9
		c56.08-16.51,63.83-98.82,60.22-94.4c-2.23,2.74-91.08,71.88-176.48,11.44c-14.91-10.55,2.51-9.61,25.55,2.13
		c18.94,9.65,38.71,15.39,60.2,12.7c26.14-3.27,49.57-13.65,71.17-28.26c5.87-3.97,11.57-8.86,15.76-14.5
		c17.88-24.06,33.49-49.4,43.36-78.09c19.53-56.77,19.76-114.84,12.62-173.43c-4.77-39.21-65.61-143.74-156.88-150.89
		c-102.49-8.03-170.77,20.66-208.42,78.45c-13.25,20.33-32.5,59.94-26.35,115.65c0.3,2.69,18.42,2.82,30.26,13.58
		c16.45,14.95,11.48,47.27,8.36,37.81c-0.05-0.14-0.23-0.25-0.36-1.17c-2.05-5.21-3.63-10.69-6.27-15.58
		c-4.59-8.53-11.81-13.3-21.85-13.56c-20.12-0.51-38.07,13.26-41.7,33.63c-3.75,21.09,3.48,39.55,16.14,56.08
		C178.78,501.13,187.35,510.36,189.52,512.01z M678.54,876.19c-2.72-9.68-5.22-19.43-8.22-29.02c-2.66-8.52-8.16-14.99-16.17-19
		c-5.68-2.84-11.41-3.6-17.67-0.77c-10.84,4.9-21.99,9.1-32.96,13.73c-8.28,3.5-16.47,7.21-25.39,11.04
		c-5,2.38-6.23,5.52-4.73,11.38c2.7,10.54,4.25,21.42,5.66,32.24c1.83,14.02,3.05,28.13,4.56,42.49c22.94,1.54,46.02-5.61,69.94,1.8
		c-14.25,4.68-28.39,4.31-40.84,10.86c2.27,1.1,4.53,2.09,6.79,2.07c10.37-0.1,20.79,0.07,31.09-0.89
		c17.42-1.63,27.31-12.37,32.22-28.55C687.72,907.43,682.83,892.27,678.54,876.19z M649.2,810.14c33.98-7.9,48.08,63.85,51.42,81.14
		c4.31,22.27-1.01,41.11-13.71,60.08c-4.82,7.2-11.97,10.92-20.27,12.81c-19.52,4.43-39.08,3.58-58.46-0.35
		c-3.33-0.68-5.79-5.26-8.87-7.79c-1.64-1.35-3.69-2.96-5.62-3.05c-12.9-0.62-25.55,0.87-37.77,5.36c-3.08,1.13-2.87,3.1-5.11,6.39
		c-9.85,14.51-155.98,62.51-320.76,35.96c-23.05-3.71-42.39-19.59-63.82-28.85c-10.18-4.4-13.6-12.11-13.99-22.23
		c-0.59-15.05,11.79-70.68-43.36-252.88c-6.64-21.95,122.15-79.57,122.15-79.57c0-28.37-17.66-80.09-24.31-79.2
		c-25.02,3.36-68.48-41.76-60.97-99.42c4.09-31.4,30.06-43.42,30.06-43.42s-10.43-60.8,21.25-113.89
		c59.81-100.26,158.05-101.38,189.96-102.42c39.97-1.3,91.28,7.51,116.13,23.59c49.05,31.75,85.5,73.3,94.4,133.82
		c1.97,13.36,3.26,26.81,5.18,40.18c0.32,2.24,4.63,56.72-2.56,104.3c-8.89,58.77-46.67,116.47-46.67,116.47s74.21,48.8,71.94,72.52
		c-3.98,41.56-51.17,168.43-51.17,168.43S629.72,814.66,649.2,810.14z M934.62-31.33"/>
	<path d="M458.14,491.95c2.24,15.15,8.34,17.83,25.9,14.73c11.04-1.95,21.51-7.3,32.15-11.33c4.46-1.69,8.71-3.91,13.06-5.87
		c9.36-4.23,12.68-14.33,7.35-23.24c-1.82-3.05-4.44-5.61-6.65-8.44c-11.04-14.13-22.5-27.96-32.95-42.52
		c-9.22-12.84-14.29-27.56-15.08-43.49c-0.09-1.75,1.4-3.58,2.16-5.37c1.7,1.33,4.47,2.37,4.93,4.05
		c5.77,21.11,19.12,37.66,32.55,53.99c9.85,11.98,20.73,23.14,31.51,34.32c4.12,4.27,4.02,8.86,2.88,13.74
		c-1.31,5.62-3.11,11.13-4.84,16.65c-0.27,0.86-1.17,1.66-1.98,2.18c-19.31,12.48-39.19,23.81-62.43,26.95
		c-8.07,1.09-16.34,0.75-24.53,0.79c-1.66,0.01-3.78-0.8-4.93-1.98c-8.3-8.47-9.09-22.92-1.59-32.1
		C456.78,487.59,457.46,489.77,458.14,491.95z"/>
	<path d="M183.21,446.46c-1.33,1.22-2.52,2.1-3.85,3.08c0.65-14.45,13.04-23.21,26.27-18.41c4.2,1.52,8.29,3.97,12.02,7.14
		c10.01,8.5,12.02,21.18,9.03,35.48c-2.13-2.84-3.9-4.74-5.13-6.93c-2.5-4.46-4.28-9.39-7.23-13.5c-1.53-2.12-5.09-4.17-7.46-3.9
		c-2.38,0.28-5.72,3.13-6.35,5.47c-1.66,6.19-2.31,12.69-2.9,19.11c-0.42,4.55-0.08,9.17-0.08,13.97
		c-8.14-7.07-9.5-21.48-4.34-44.42C189.1,441.36,186.15,443.42,183.21,446.46z"/>
	<path d="M609.71,860.66c9.42-4.14,18.91-5.85,28.79-5.75c-16.28,5.27-28.06,20.72-47.46,20.83
		C596,868.53,602.19,864.08,609.71,860.66z"/>
	<path d="M609.79,910.16c-3.14-0.16-5.81-0.3-8.82-0.45c7.4-8.22,40.22-7.41,53.23,0.47C640.04,910.18,625.15,910.18,609.79,910.16z
		"/>
	<path d="M620.53,880.11c9.85,0.86,19.26,1.74,28.67,2.62c-0.01,0.87-0.02,1.74-0.03,2.6c-15.71,1.01-31.42,2.01-47.13,3.02
		c-0.13-0.6-0.26-1.2-0.39-1.8C606.59,881.37,613.19,880.39,620.53,880.11z"/>
	<path class="st20" d="M528.78,852.49c0,0,32.75-10.03,38.26-2.63c9.98,13.41,11.76,93.77,11.76,93.77s-17.82,13.1-31.57,8.35
		C538.73,949.04,528.78,852.49,528.78,852.49z"/>
	<polyline class="st28" points="545.07,849.82 570.11,870.23 549.97,890.1 572.28,906.43 556.06,930.87 576.79,942.8 	"/>
	<polyline class="st29" points="527.01,852.99 552.05,873.4 531.91,893.27 554.22,909.6 539.73,935.87 563.95,953.02 	"/>
	<path class="st30" d="M526.77,851.04c0,0,32.75-10.65,38.26-2.79c9.98,14.24,11.76,99.58,11.76,99.58s-17.82,13.91-31.57,8.86
		C536.72,953.56,526.77,851.04,526.77,851.04z"/>
</g>
<g id="Layer_8">
	<path class="st20" d="M233.6,583.94c0,0,5.1,29.99-12.29,46.28c-12.62,11.82,44.41,50.14,99.24,75.15
		c45.27,20.65,117.03,20.41,117.03,20.41s38.47,58.52,13.39,127.33c-2.11,5.78,76.3-1.52,77.43-7.83
		c14.04-78.56-20.8-139.31-20.8-139.31s62.62-46.02,59.78-82.46c-0.5-6.46-18.1-55.35-15.78-47.1
		c11.99,42.75-42.81,74.22-51.74,82.01c-6.19,5.39-19.54,52.55-19.54,52.55s-47.86-52.55-61.11-52.55
		C285.93,658.41,233.6,583.94,233.6,583.94z"/>
	<path class="st28" d="M510.59,709.46l-8.16,22.07l20.87,14.82c0,0-7.64,16.82-11.25,25.36c5.79,3.98,13.57,10.48,18.57,15.31
		c-4.97,4.88-16.87,18.49-16.87,18.49l17.45,16.96c0,0-12.55,17.81-20.74,25.12"/>
	<path class="st28" d="M486.43,726.63c5.71-16.31,21.17-74.01,21.17-74.01l31.99,0.3c0,0,4.26-26.7,8.8-39.97
		c3.92-0.52,13.57-0.03,17.49-0.55"/>
	<path class="st28" d="M504.3,709.46l-12.25,23.63l16.88,16.81l-13.08,23.81l19.46,14.77c0,0-9.94,9.76-15.66,16.91
		c7.41,7.41,16.87,19.19,16.87,19.19s-15.19,15.18-20.57,25.24"/>
	<path class="st28" d="M444.78,716.09l27.42,21.17l-16.16,20.09c0,0,14.72,10.52,19.35,18.55c-5.26,4.66-14.65,10.94-19.02,16.34
		c5.53,4.24,23.37,17.33,23.37,17.33l-23.14,23.61c0,0,15.91,14.73,24.93,20.99"/>
	<path class="st28" d="M447.45,715.34l38.62,21.92l-12.82,19.26l21.69,18.86l-20.22,17.08c0,0,13.67,8.47,20.22,14.87
		c-6.45,8.26-22.23,24.76-22.23,24.76s16.93,13.22,23.5,22.54"/>
	<path class="st28" d="M219.88,636.53l41.32,3.12c0,0,16.58,25.69,26.42,43.45c21.36-7.26,57.58-14.52,57.58-14.52l36.42,42.84
		l43.18-26.94c0,0,15.01,18.02,22.65,30.86"/>
	<path class="st28" d="M227.94,621.69l43.54,3.81l25.97,38.62c0,0,29.92-4.12,49.89-13.78c10.04,12.44,35.79,43.15,35.79,43.15
		l40.23-24.91l64.4,63.11"/>
	<path class="st30" d="M480.31,707.09c0,0,27.45,72.39,14.63,145.44"/>
	<path class="st28" d="M504.3,709.46c3.04-12.23,13.98-42.37,13.98-42.37l31.35-4.42c0,0,6.95-23.31,8.41-35.97
		c5.34,0.25,5.92,1.18,11.26,1.43"/>
	<path class="st17" d="M233.6,583.94c-7.02-9.69,5.1,29.99-12.29,46.28c-12.62,11.82,42.96,45.71,99.24,66.98
		c47.49,17.95,122.42,22.38,122.42,22.38s20.07,63.29,8,133.53c-1.04,6.07,76.5,0.69,77.43-4.7c14.13-82.25-17.8-138.96-17.8-138.96
		s64.06-63.12,60.61-88.95c-1.14-8.5-14.89-36.6-17.53-28.44c-14.54,44.99-55.36,59.6-55.36,59.6l-18,59.31l-52.37-50.34
		C427.94,660.63,289,660.42,233.6,583.94z"/>
</g>
<g id="Layer_4">
	<g>
		<g>
			<path class="st32" d="M600.75,535.69c-13.78-37.67-80.16-10.3-94.08,3.03c-0.74,0.71-1.48,1.79-2.2,3.14
				c-23.37-14.26-78.92-24.69-114.57,10.96c-41.44,41.44-13,64.49-58.81,82.29c-25.12,9.76-39.72-15.8-38.46-13.36
				c-8.53,20.43,68.77,78.79,122.45,9.24c46.96-60.85,46.14,13.56,100.08-41.51c27.54,14.62,55.75-10.56,70.89,3.36
				c61.42,56.47,82.58-2.49,82.58-2.49S634.27,627.31,600.75,535.69z"/>
		</g>
	</g>
	<g>
		<path d="M513.14,581.74c-2.61,5.73-6.26,10.94-10.96,15.11c-2.35,2.08-4.96,3.87-7.8,5.24c-2.83,1.37-5.9,2.27-8.98,2.66
			c-6.19,0.72-11.97-0.48-17.57-1.41c-5.58-0.94-11.26-1.73-16.87-0.41c5.39-2.07,11.39-2.04,17.1-1.83
			c5.71,0.22,11.42,0.54,16.54-0.78c5.07-1.31,9.44-4.33,12.81-8.24c3.38-3.91,5.83-8.63,7.32-13.55L513.14,581.74z"/>
	</g>
	<g>
		<path d="M639.8,607.33c5.03-0.78,9.99-2.41,14.38-5.03c4.36-2.58,8.34-6.12,10.59-10.32c2.12-4.14,2.47-9.5,0.78-14.08
			c-0.8-2.31-2.17-4.38-3.9-6.04c-1.77-1.6-3.92-2.75-6.36-3.19c-4.8-1.01-10.36,0.57-13.4,4.46c-3.11,3.83-2.57,9.97,0.52,14.1
			c0.81,0.99,1.69,1.98,2.79,2.65l0.4,0.27l0.43,0.21c0.29,0.14,0.57,0.3,0.87,0.42c0.61,0.18,1.21,0.45,1.86,0.5
			c1.27,0.27,2.57,0.11,3.82-0.24c1.25-0.39,2.39-1.09,3.43-1.94c0.97-0.91,1.91-1.91,2.55-3.12c0.39-0.56,0.6-1.22,0.9-1.83
			c0.18-0.65,0.47-1.29,0.54-1.97c0.31-1.34,0.24-2.74-0.04-4.08c-0.29-1.36-1.05-2.56-1.94-3.63c0.96,1.01,1.81,2.18,2.18,3.56
			c0.37,1.36,0.53,2.81,0.3,4.22c-0.04,0.72-0.3,1.39-0.45,2.1c-0.28,0.66-0.46,1.36-0.83,1.98c-0.61,1.31-1.53,2.44-2.54,3.5
			c-1.07,0.99-2.29,1.85-3.69,2.38c-1.39,0.49-2.94,0.77-4.43,0.54c-0.76-0.03-1.47-0.28-2.21-0.46c-0.36-0.12-0.7-0.29-1.05-0.43
			l-0.52-0.23l-0.48-0.29c-1.34-0.72-2.43-1.78-3.44-2.89c-1.9-2.32-3.2-5.15-3.52-8.2c-0.21-1.51-0.09-3.08,0.23-4.61
			c0.21-0.76,0.4-1.52,0.76-2.24c0.29-0.75,0.72-1.4,1.14-2.07c0.91-1.27,1.97-2.46,3.24-3.37c0.6-0.51,1.29-0.87,1.96-1.28
			c0.7-0.34,1.38-0.72,2.12-0.96c1.44-0.58,2.97-0.89,4.51-1.1c1.54-0.13,3.11-0.19,4.66,0.06c3.1,0.36,6.18,1.73,8.66,3.74
			c2.43,2.05,4.38,4.68,5.59,7.58c0.66,1.44,1.06,2.96,1.42,4.49c0.27,1.54,0.5,3.11,0.47,4.69c0.04,3.16-0.6,6.34-1.9,9.34
			c-1.34,2.95-3.2,5.48-5.29,7.74c-2.1,2.25-4.45,4.21-6.97,5.91c-5.03,3.42-10.76,5.7-16.71,6.99L639.8,607.33z"/>
	</g>
	<g>
		<path d="M518.11,571.86c0.06,0.87,0.25,1.72,0.64,2.57c0.4,0.85,1.07,1.66,1.86,2.42c1.62,1.51,3.92,2.66,6.37,3.3
			c4.84,1.39,10.51,0.05,16.19-1.57c2.86-0.82,5.77-1.73,8.78-2.44c1.51-0.34,3.03-0.64,4.6-0.84c1.57-0.16,3.14-0.24,4.7-0.17
			c3.12,0.15,6.23,0.78,9.04,2.13c1.39,0.69,2.7,1.54,3.82,2.6c1.1,1.07,2.01,2.31,2.68,3.66c-0.84-1.25-1.87-2.34-3.04-3.22
			c-1.19-0.87-2.52-1.5-3.88-1.99c-2.76-0.93-5.7-1.14-8.57-0.92c-1.44,0.12-2.86,0.37-4.25,0.69c-1.37,0.35-2.76,0.81-4.13,1.31
			c-2.74,1.02-5.44,2.24-8.23,3.44c-2.79,1.2-5.69,2.36-8.82,3.19c-1.58,0.4-3.15,0.73-4.91,0.9c-1.72,0.12-3.46,0.11-5.18-0.11
			c-3.43-0.46-6.88-1.55-10-3.73c-1.54-1.11-3.02-2.46-4.19-4.18c-1.16-1.72-1.99-3.73-2.39-5.83L518.11,571.86z"/>
	</g>
	<g>
		<path d="M293.62,625.38c-1.84-3.93-2.86-8.22-2.63-12.63c0.12-2.2,0.57-4.41,1.43-6.52c0.85-2.1,2.14-4.07,3.78-5.66
			c0.43-0.38,0.84-0.78,1.28-1.13l1.38-0.98c0.9-0.55,1.8-1.06,2.79-1.5c1.94-0.89,4.16-1.52,6.46-1.52
			c2.31-0.03,4.57,0.65,6.46,1.67c0.91,0.49,1.91,1.15,2.73,1.91c0.82,0.77,1.53,1.63,2.12,2.56c0.57,0.94,1.03,1.93,1.38,2.97
			c0.32,1.04,0.51,2.12,0.56,3.22c0.04,1.1-0.09,2.2-0.38,3.27c-0.29,1.08-0.81,2.09-1.33,2.93c-1.09,1.74-2.52,3.29-4.26,4.41
			c-1.73,1.13-3.82,1.78-5.88,1.75c-2.05-0.01-4.13-0.67-5.72-2.01c-1.56-1.36-2.52-3.29-2.65-5.29c-0.16-2,0.74-4.07,2.33-5.19
			c1.52-1.17,3.64-1.6,5.38-0.86c-1.79-0.58-3.76,0.04-5.06,1.24c-1.37,1.18-1.94,3.01-1.65,4.7c0.26,1.7,1.25,3.26,2.59,4.22
			c1.35,0.95,3.07,1.34,4.72,1.19c3.36-0.24,6.13-2.67,7.6-5.64c0.38-0.77,0.65-1.47,0.78-2.2c0.12-0.74,0.14-1.5,0.05-2.26
			c-0.11-0.76-0.32-1.5-0.6-2.21c-0.31-0.71-0.7-1.37-1.15-1.98c-0.47-0.6-1-1.13-1.58-1.58c-0.59-0.44-1.19-0.76-1.94-1.09
			c-1.44-0.6-2.88-0.87-4.3-0.72c-1.41,0.13-2.82,0.65-4.19,1.44c-0.68,0.38-1.36,0.85-2,1.33l-0.83,0.72
			c-0.26,0.25-0.49,0.53-0.74,0.79c-1.86,2.18-2.66,5.12-2.54,8.15c0.11,3.04,1.14,6.12,2.7,8.78L293.62,625.38z"/>
	</g>
	<g>
		<path d="M310.39,642.26c-6.13-2.13-11.82-5.54-16.27-10.37c-2.21-2.42-4.1-5.19-5.44-8.26c-1.34-3.06-2.08-6.43-2.08-9.79
			c0.04-0.84,0.04-1.68,0.13-2.51l0.39-2.47c0.35-1.56,0.75-3.08,1.31-4.6c1.08-3.02,2.71-6.01,5.08-8.43
			c2.33-2.46,5.38-4.14,8.45-5.11c1.51-0.47,3.2-0.83,4.86-0.93c1.66-0.07,3.31,0.07,4.92,0.4c1.6,0.36,3.14,0.91,4.61,1.62
			c1.45,0.75,2.8,1.67,4.03,2.75c1.21,1.11,2.25,2.39,3.1,3.8l0.58,1.09c0.18,0.37,0.32,0.76,0.47,1.14c0.32,0.77,0.5,1.5,0.71,2.27
			c0.74,3.04,0.92,6.24,0.29,9.33c-0.61,3.08-2.1,6.04-4.33,8.25c-2.19,2.24-5.12,3.8-8.26,4.1c-3.14,0.27-6.29-0.74-8.64-2.74
			c-1.16-1.01-2.13-2.26-2.69-3.69c-0.58-1.43-0.74-2.98-0.55-4.48c0.34-2.97,2.16-5.82,4.91-6.98c-2.67,1.31-4.24,4.19-4.41,7.03
			c-0.27,2.88,1.12,5.68,3.37,7.34c2.22,1.69,5.14,2.41,7.84,2.02c2.71-0.41,5.19-1.92,6.98-3.98c1.83-2.05,2.95-4.63,3.32-7.32
			c0.39-2.7,0.09-5.49-0.71-8.1c-0.22-0.64-0.42-1.33-0.71-1.9c-0.14-0.29-0.26-0.59-0.42-0.87l-0.5-0.83
			c-0.73-1.06-1.6-2.03-2.61-2.85c-1.03-0.8-2.15-1.48-3.35-2.01c-1.21-0.5-2.47-0.86-3.75-1.08c-1.29-0.18-2.58-0.21-3.85-0.09
			c-1.27,0.15-2.45,0.48-3.72,0.94c-2.45,0.95-4.63,2.34-6.24,4.25c-1.64,1.88-2.78,4.23-3.53,6.77c-0.39,1.26-0.66,2.6-0.88,3.92
			l-0.19,1.89c-0.03,0.63,0.02,1.26,0.02,1.89c0.27,5.03,2.82,9.72,6.55,13.32c3.73,3.62,8.57,6.16,13.6,7.59L310.39,642.26z"/>
	</g>
	<g>
		<path d="M649.11,599.26c1.26-0.39,2.66-1.07,4-1.9c1.35-0.83,2.66-1.8,3.9-2.85c1.23-1.05,2.4-2.19,3.41-3.39
			c0.99-1.19,1.87-2.5,2.27-3.61c0.2-0.46,0.33-1.24,0.4-1.91c0.05-0.7,0.07-1.41-0.03-2.13c-0.15-1.43-0.61-2.85-1.31-4.11
			c-0.7-1.26-1.68-2.34-2.85-3.12c-1.16-0.76-2.5-1.2-3.98-1.23c-2.92-0.12-6.07,1.36-7.45,3.94c-1.46,2.49-0.53,6.15,1.76,8.35
			c1.16,1.07,2.65,1.85,4.24,1.81c1.59,0.06,3.1-0.79,4.19-2.07c1.04-1.31,1.76-2.99,1.78-4.73c0.06-0.87-0.13-1.74-0.45-2.56
			c-0.32-0.83-0.92-1.51-1.6-2.09c0.73,0.52,1.42,1.15,1.83,1.98c0.41,0.81,0.69,1.72,0.72,2.65c0.15,1.86-0.44,3.74-1.48,5.34
			c-0.57,0.77-1.23,1.5-2.09,2.02c-0.84,0.51-1.83,0.89-2.83,0.94c-2.03,0.23-4.05-0.58-5.62-1.8c-1.54-1.27-2.77-2.95-3.39-4.91
			c-0.35-0.97-0.46-2.02-0.47-3.08c0.05-1.06,0.26-2.17,0.69-3.14c0.82-1.98,2.34-3.62,4.11-4.74c1.78-1.11,3.82-1.8,5.96-1.93
			c2.11-0.17,4.39,0.29,6.34,1.33c1.94,1.03,3.58,2.55,4.81,4.32c1.22,1.77,2.09,3.77,2.52,5.88c0.24,1.05,0.33,2.14,0.35,3.23
			c-0.01,1.12-0.07,2.14-0.39,3.4c-0.62,2.35-1.7,4.13-2.83,5.82c-1.15,1.67-2.43,3.17-3.81,4.59c-1.38,1.41-2.85,2.73-4.46,3.94
			c-1.61,1.21-3.35,2.32-5.45,3.21L649.11,599.26z"/>
	</g>
	<g>
		<g>
			<path class="st33" d="M663.84,589.44c1.03-2-7.82,12.1-18.54,6.19c-18.19-10.03-11.58-28.75-44.34-68.75
				c-25.42-31.03-80.16-10.3-94.08,3.03c-0.75,0.71-1.49,1.79-2.19,3.14c-23.36-14.27-78.92-24.7-114.57,10.96
				c-41.44,41.44-13,64.49-58.81,82.29c-25.12,9.76-36.89-13.31-35.62-10.87c-14.67,14.67,53.36,80.04,107.04,10.48
				c47.72-61.84,55.84,3.39,110.24-46.16c30.45,19.97,45.29-39.31,92.03,15.87C639.92,636.85,674.54,600.13,663.84,589.44z"/>
		</g>
	</g>
	<g>
		<path d="M502.43,564.27c-6.56-3.96-13.94-5.87-21.11-5.55c-7.16,0.26-14.02,3-19.53,7.42c-1.38,1.09-2.68,2.29-3.86,3.61
			c-1.19,1.3-2.29,2.68-3.24,4.16c-1.11,1.63-2.35,3.39-3.83,4.79c-0.7,0.75-1.49,1.4-2.26,2.08c-0.81,0.62-1.62,1.25-2.47,1.79
			c-6.77,4.44-15.39,5.92-22.76,3.6c3.84,0.05,7.57-0.4,11.02-1.65c3.48-1.13,6.66-2.94,9.44-5.15c1.38-1.12,2.67-2.33,3.8-3.67
			c0.59-0.65,1.09-1.36,1.61-2.06c0.27-0.34,0.48-0.72,0.71-1.09l0.71-1.14c2.09-3.51,4.81-6.64,8.01-9.18
			c3.18-2.55,6.82-4.52,10.68-5.82c3.87-1.28,7.98-1.85,12-1.61C489.38,555.26,497.16,558.64,502.43,564.27z"/>
	</g>
	<g>
		<path class="st32" d="M458.49,540.64c-6.19,1.39-12.15,2.96-17.86,5.14c-5.7,2.15-11.14,4.83-16.14,8.13
			c-5,3.3-9.58,7.22-13.45,11.81c-3.9,4.58-7.02,9.85-9.36,15.75c0.27-6.36,2.63-12.65,6.2-18.09c3.59-5.45,8.42-10.07,13.86-13.64
			c5.44-3.58,11.5-6.16,17.74-7.7C445.73,540.52,452.19,539.95,458.49,540.64z"/>
	</g>
	<g>
		<path class="st32" d="M610.32,572.67c-3.11-5.53-6.32-10.79-10.04-15.63c-3.69-4.85-7.82-9.29-12.42-13.14
			c-4.6-3.84-9.66-7.1-15.17-9.5c-5.51-2.42-11.45-3.91-17.77-4.45c6.17-1.56,12.88-1.11,19.11,0.76
			c6.25,1.88,12.06,5.18,17.04,9.36c4.99,4.19,9.19,9.25,12.46,14.79C606.78,560.41,609.17,566.43,610.32,572.67z"/>
	</g>
	<g>
		<path class="st32" d="M497.87,535.9c-5.92-2.28-11.75-4.29-17.7-5.65c-5.93-1.39-11.94-2.18-17.94-2.22
			c-5.99-0.03-11.97,0.68-17.75,2.34c-5.79,1.64-11.32,4.28-16.54,7.89c3.76-5.13,9.22-9.06,15.21-11.59
			c6.02-2.53,12.6-3.69,19.1-3.64c6.52,0.05,12.98,1.27,19.03,3.46C487.33,528.71,493.01,531.82,497.87,535.9z"/>
	</g>
	<g>
		<path class="st32" d="M320.56,633.64c6.31-0.56,12.42-1.34,18.35-2.69c1.49-0.3,2.95-0.73,4.41-1.12c0.73-0.2,1.46-0.39,2.18-0.6
			l2.13-0.75c0.71-0.26,1.43-0.47,2.14-0.7l2.09-0.84l2.08-0.84l2.01-0.99l2.04-0.94l1.95-1.09l1.95-1.1
			c0.62-0.42,1.23-0.84,1.86-1.23c0.62-0.41,1.27-0.79,1.88-1.22l1.77-1.36c1.21-0.88,2.32-1.87,3.45-2.86
			c4.46-4.01,8.28-8.76,11.4-14.26l0.28,0.1c-2.11,5.92-5.61,11.32-10,15.81c-4.39,4.5-9.64,8.13-15.29,10.86
			c-5.68,2.69-11.76,4.49-17.96,5.48c-6.2,0.99-12.51,1.18-18.76,0.65L320.56,633.64z"/>
	</g>
	<g>
		<path class="st32" d="M439.37,560.15c-5.37,3.38-10.47,6.84-15.12,10.8c-4.66,3.92-8.89,8.26-12.51,13.04
			c-3.62,4.78-6.62,10-8.75,15.62c-2.15,5.62-3.34,11.63-3.58,17.97c-1.86-6.09-1.74-12.81-0.18-19.12
			c1.57-6.34,4.59-12.3,8.52-17.48c3.94-5.19,8.79-9.63,14.16-13.17C427.29,564.29,433.19,561.61,439.37,560.15z"/>
	</g>
	<g>
		<path class="st32" d="M595.47,572.12c-5.38-3.66-10.72-7.08-16.32-9.91c-5.58-2.85-11.37-5.16-17.33-6.69
			c-5.96-1.53-12.1-2.3-18.25-2c-6.15,0.28-12.28,1.71-18.24,4.33c4.82-4.4,11.21-7.13,17.8-8.24c6.62-1.1,13.47-0.61,19.93,1.06
			c6.47,1.67,12.58,4.51,18.07,8.16C586.61,562.51,591.52,566.95,595.47,572.12z"/>
	</g>
	<g>
		<path class="st32" d="M434.62,525.48c-8.14,4.05-16.03,8.33-23.37,13.36c-7.32,5.05-14.16,10.71-20.1,17.18
			c-5.94,6.46-10.97,13.73-14.5,21.75c-3.51,8.02-5.26,16.83-4.94,25.93c-2.4-8.8-1.76-18.52,1.3-27.33
			c3-8.87,8.18-16.9,14.46-23.73c6.3-6.84,13.72-12.56,21.72-17.1C417.17,530.98,425.77,527.59,434.62,525.48z"/>
	</g>
	<g>
		<path class="st32" d="M494.94,553.59c-5.25-0.44-10.3-0.51-15.29-0.04c-4.98,0.45-9.85,1.4-14.59,2.83
			c-4.73,1.43-9.32,3.32-13.72,5.69c-4.41,2.36-8.59,5.2-12.74,8.46c2.56-4.62,6.32-8.58,10.62-11.77c4.32-3.19,9.23-5.61,14.4-7.16
			c5.17-1.55,10.6-2.24,15.96-1.96C484.94,549.93,490.25,551.16,494.94,553.59z"/>
	</g>
	<g>
		<path class="st32" d="M512.05,567.41c-5.16-1.04-10.18-1.7-15.18-1.82c-5-0.13-9.95,0.25-14.82,1.11
			c-4.87,0.87-9.65,2.22-14.29,4.05c-4.66,1.83-9.14,4.17-13.63,6.92c3.08-4.29,7.27-7.79,11.92-10.46
			c4.66-2.66,9.82-4.5,15.13-5.44c5.31-0.94,10.79-0.99,16.08-0.09C502.54,562.61,507.68,564.45,512.05,567.41z"/>
	</g>
	<g>
		<path class="st32" d="M521.67,528.76c5.54-4.41,12-7.7,18.86-9.86c6.87-2.13,14.19-3.06,21.46-2.56
			c7.26,0.49,14.46,2.44,20.88,5.85c6.4,3.4,12.04,8.23,15.96,14.14c-5.47-4.48-11.34-8.09-17.63-10.57
			c-6.27-2.51-12.87-3.95-19.56-4.42c-6.69-0.47-13.46,0.04-20.14,1.37C534.81,523.99,528.25,526.16,521.67,528.76z"/>
	</g>
	<g>
		<path class="st32" d="M451.89,591.52c5.26,0.25,10.32,0.14,15.28-0.5c4.96-0.63,9.8-1.75,14.48-3.34c4.68-1.6,9.2-3.65,13.51-6.17
			c4.33-2.51,8.4-5.5,12.43-8.9c-2.4,4.71-6.01,8.8-10.2,12.14c-4.2,3.34-9.03,5.94-14.13,7.66c-5.11,1.73-10.51,2.61-15.88,2.52
			C462.02,594.83,456.66,593.79,451.89,591.52z"/>
	</g>
	<g>
		<path class="st32" d="M523.93,570.9c3.65,0.19,7.05,0.23,10.4-0.04c3.34-0.26,6.59-0.79,9.78-1.59c3.19-0.8,6.31-1.86,9.39-3.2
			c3.09-1.33,6.08-2.95,9.25-4.78c-1.66,3.28-4.28,6.02-7.3,8.19c-3.03,2.16-6.5,3.74-10.13,4.64c-3.63,0.91-7.44,1.15-11.13,0.66
			C530.52,574.27,526.92,573.05,523.93,570.9z"/>
	</g>
	<g>
		<path class="st32" d="M605.14,579.99c1.73,2.76,3.44,5.17,5.36,7.35c1.91,2.19,3.97,4.15,6.19,5.95c2.22,1.8,4.59,3.43,7.12,4.94
			c2.53,1.53,5.2,2.88,8.09,4.39c-3.22,0.55-6.53,0.17-9.67-0.79c-3.14-0.97-6.11-2.56-8.69-4.66c-2.58-2.09-4.77-4.71-6.3-7.66
			C605.73,586.56,604.85,583.25,605.14,579.99z"/>
	</g>
	<path class="st23" d="M524.14,384.73c0-21.27,14.78-38.5,33.02-38.5c18.23,0,32.16,17.75,32.16,39.02s-13.93,37.99-32.16,37.99
		C538.92,423.23,524.14,406,524.14,384.73z"/>
	<g>
		<path class="st32" d="M555.9,535.76c-3.38,0.14-6.49,0.32-9.54,0.74c-3.04,0.41-5.99,1.02-8.87,1.85
			c-2.88,0.83-5.7,1.87-8.47,3.15c-2.79,1.28-5.49,2.81-8.37,4.57c1.31-3.14,3.61-5.8,6.3-7.91c2.71-2.11,5.86-3.67,9.17-4.62
			c3.31-0.95,6.8-1.29,10.2-0.96C549.71,532.92,553.06,533.89,555.9,535.76z"/>
	</g>
	<g>
		<path class="st32" d="M390.76,616.04c0.25,4.22-0.88,8.51-2.86,12.34c-0.52,0.94-1.05,1.88-1.64,2.8l-1.92,2.62
			c-0.71,0.82-1.47,1.59-2.21,2.39l-2.41,2.19l-2.64,1.9c-0.93,0.56-1.85,1.14-2.8,1.66l-2.96,1.34c-1.01,0.38-2.05,0.71-3.07,1.02
			c-4.15,1.15-8.58,1.38-12.66,0.27l0-0.3c8.1,0.05,16.04-3.12,22.24-8.23c6.27-5.02,11-12.13,12.62-20.07L390.76,616.04z"/>
	</g>
	<g>
		<path class="st32" d="M347.38,645.07c-3.31,2.48-7.4,3.89-11.58,4.39c-1.05,0.13-2.1,0.18-3.16,0.21c-1.06,0-2.11-0.07-3.18-0.11
			c-1.06-0.09-2.1-0.31-3.15-0.47c-1.04-0.21-2.07-0.49-3.1-0.74c-1.01-0.33-2-0.73-3-1.1c-0.98-0.42-1.94-0.87-2.89-1.36
			c-0.92-0.53-1.81-1.12-2.71-1.67c-0.88-0.59-1.69-1.28-2.51-1.95c-3.2-2.76-5.78-6.29-7-10.24l0.25-0.16
			c2.12,3.34,4.92,6.21,8.13,8.49c3.21,2.29,6.81,4,10.59,5.11c7.51,2.31,15.84,2.21,23.2-0.7L347.38,645.07z"/>
	</g>
	<g>
		<path class="st32" d="M523.6,362.59c11.7,1.31,15.44-26.66,34.09-30.56c30.25-6.32,73.38,18.72,73.38,18.72
			s-8.01-27.84-25.98-39.97c-15.28-10.32-31.92-1.97-40.92-0.93c-10.69,1.24,11.25-21.65,11.25-21.65s-17.66-7.71-33.17,8.53
			c-10.1,10.57-7.79,27.59-17.52,26.31c-14.38-1.89-1.22-22.22-1.22-22.22s-20,9.14-23.46,32.06
			C498.2,345.23,508.42,360.89,523.6,362.59z"/>
		<path d="M522.69,362.4c11.34,3.17,20.58-22.14,39.24-26.04c30.25-6.32,69.98,14.82,69.98,14.82s-9.48-21.03-27.45-33.16
			c-15.28-10.32-27.04-4.88-36.05-3.84c-10.69,1.24,13.49-18.7,13.49-18.7s-9.56-4.53-30.26,4.18
			c-13.81,5.81-12.71,13.22-18.21,19.43c-10.5,11.86-4.18-13.61-4.18-13.61s-16.61,5.3-20.07,28.22
			C507.33,346.05,515.05,360.27,522.69,362.4z"/>
		<g>
			<path class="st32" d="M522.21,320.67c-0.57,3.38-0.93,6.39-0.98,9.36c-0.07,2.96,0.13,5.84,0.58,8.69
				c0.45,2.84,1.14,5.65,2.11,8.45c0.96,2.82,2.22,5.57,3.79,8.62c-3.25-1.17-5.96-3.58-7.96-6.43c-2-2.87-3.32-6.24-3.86-9.71
				c-0.54-3.48-0.32-7.08,0.72-10.42C517.64,325.9,519.49,322.78,522.21,320.67z"/>
		</g>
		<g>
			<path class="st32" d="M559.83,305.01c-2.75,3.22-5.25,6.24-7.48,9.42c-2.24,3.16-4.21,6.41-5.94,9.79
				c-1.73,3.38-3.22,6.88-4.47,10.54c-1.28,3.66-2.27,7.46-3.28,11.57c-1.49-3.98-1.79-8.33-1.32-12.58
				c0.48-4.25,1.77-8.44,3.74-12.26c1.96-3.83,4.6-7.32,7.77-10.2C552.03,308.43,555.74,306.13,559.83,305.01z"/>
		</g>
		<g>
			<path class="st32" d="M608.47,332.84c-4.39-2.69-8.78-4.7-13.31-5.99c-4.52-1.29-9.14-1.87-13.69-1.64
				c-4.55,0.23-9.09,1.25-13.46,2.99c-4.39,1.73-8.56,4.16-12.66,7.26c2.17-4.7,5.99-8.65,10.52-11.47
				c4.54-2.81,9.86-4.51,15.31-4.77c5.45-0.27,10.91,0.9,15.7,3.25C601.65,324.83,605.85,328.38,608.47,332.84z"/>
		</g>
	</g>
	<g>
		<path class="st32" d="M446.99,360.34c-15.25,4.11-25.87-32.22-51.4-33.61c-41.39-2.25-93.52,39.69-93.52,39.69
			s4.99-38.54,26.35-58.27c18.17-16.79,41.93-9.08,54.08-9.52c14.43-0.52-19.31-26.43-19.31-26.43s21.85-13.8,45.71,4.59
			c15.53,11.97,15.92,35,28.57,31.34c18.69-5.42-2.89-29.72-2.89-29.72s28.37,8.07,37.6,37.76
			C477.16,332.18,466.77,355.01,446.99,360.34z"/>
		<path d="M447.44,359.41c-14.4,6.5-31.78-25.2-57.32-26.58c-41.39-2.25-88.06,33.6-88.06,33.6s8.31-29.81,29.68-49.54
			c18.17-16.79,33.14-11.72,45.29-12.16c14.43-0.52-21.68-22.07-21.68-22.07s11.77-7.94,40.98-0.59
			c19.49,4.91,19.54,14.96,28.08,22.07c16.32,13.6,2.78-18.9,2.78-18.9s23.1,3.66,32.33,33.35
			C464.5,334.6,457.14,355.03,447.44,359.41z"/>
		<g>
			<path class="st32" d="M444.64,351.54c0.06-4.08-0.03-7.3-0.31-10.41c-0.26-3.08-0.69-5.97-1.24-8.84
				c-0.56-2.87-1.25-5.71-2.16-8.66c-0.91-2.99-2.04-6.01-3.63-9.76l-0.07-0.16c-0.06-0.14,0.01-0.3,0.15-0.36
				c0.09-0.04,0.2-0.02,0.27,0.03l2.15,1.62l1.97,1.84l1.74,2.06l1.53,2.23c1.9,3.06,3.22,6.47,3.95,10.01
				c0.66,3.55,0.71,7.21,0.1,10.76l-0.58,2.64l-0.84,2.57l-1.13,2.45l-1.38,2.31c-0.08,0.13-0.25,0.17-0.38,0.09
				c-0.09-0.05-0.13-0.14-0.13-0.24L444.64,351.54z"/>
		</g>
		<g>
			<path class="st32" d="M436.54,348.08c-3.1-4.6-5.85-8.67-8.84-12.46c-2.96-3.79-6.06-7.28-9.37-10.58
				c-3.31-3.29-6.82-6.38-10.64-9.31c-3.81-2.97-7.9-5.7-12.52-8.75l-0.1-0.07c-0.13-0.09-0.17-0.27-0.08-0.4
				c0.07-0.1,0.19-0.15,0.3-0.12l3.82,0.83l3.74,1.13l3.63,1.45l3.51,1.72c4.6,2.47,8.84,5.61,12.57,9.27
				c3.68,3.71,6.85,7.92,9.35,12.51l1.75,3.5l1.48,3.62l1.15,3.74l0.85,3.81c0.03,0.15-0.06,0.31-0.22,0.34
				c-0.12,0.03-0.24-0.02-0.3-0.12L436.54,348.08z"/>
		</g>
		<g>
			<path class="st32" d="M411.39,335.74c-5.8-3.49-11.21-6.42-16.84-8.7c-5.59-2.31-11.27-4.03-17.07-5.24
				c-5.8-1.2-11.71-1.86-17.75-1.95c-6.08-0.14-12.21,0.42-18.91,1.34l-0.11,0.01c-0.16,0.02-0.31-0.09-0.33-0.25
				c-0.02-0.13,0.05-0.25,0.17-0.3l4.45-2.02l4.61-1.62l4.75-1.17l4.83-0.76c6.49-0.75,13.09-0.45,19.49,0.84
				c6.39,1.35,12.58,3.68,18.24,6.93l4.14,2.61l3.9,2.95l3.6,3.31l3.28,3.62c0.11,0.12,0.1,0.3-0.02,0.41
				c-0.1,0.09-0.24,0.1-0.34,0.03L411.39,335.74z"/>
		</g>
		<g>
			<path class="st32" d="M370.87,329.34c-2.71,0.3-5.08,0.68-7.44,1.3c-2.35,0.57-4.64,1.2-6.91,1.89
				c-4.54,1.36-9.02,2.87-13.5,4.39c-4.47,1.55-8.93,3.15-13.39,4.87c-2.23,0.85-4.46,1.75-6.7,2.71c-2.28,0.94-4.44,2.04-6.83,3.35
				l-0.12,0.06c-0.14,0.08-0.31,0.03-0.39-0.11c-0.05-0.1-0.04-0.22,0.02-0.3c3.02-4.18,7.23-7.27,11.59-9.86
				c4.39-2.58,9.04-4.69,13.84-6.39c4.82-1.62,9.78-2.86,14.84-3.5c5.03-0.62,10.29-0.7,15.18,1.01c0.15,0.05,0.23,0.21,0.17,0.36
				c-0.04,0.11-0.13,0.18-0.24,0.19L370.87,329.34z"/>
		</g>
	</g>
	<ellipse class="st23" cx="392.24" cy="387.5" rx="44.9" ry="52.36"/>
	<g>
		<g>
			<path d="M60.64,237.64c0.34,3.73,1.83,7.91,3.84,11.85c2.01,3.96,4.57,7.77,7.4,11.33c2.85,3.55,6.02,6.87,9.46,9.67
				c0.85,0.74,1.75,1.33,2.63,1.98c0.44,0.34,0.9,0.57,1.35,0.86c0.46,0.26,0.88,0.58,1.38,0.81c1.89,1.03,3.92,1.82,5.99,2.51
				c8.33,2.56,17.77,2.05,25.74-1.72c2.02-0.9,3.86-2.12,5.63-3.41c1.75-1.34,3.35-2.88,4.84-4.54c2.89-3.38,5.22-7.32,6.65-11.58
				c0.41-1.05,0.64-2.15,0.96-3.24c0.2-1.1,0.49-2.2,0.59-3.32c0.33-2.23,0.34-4.49,0.16-6.73c-0.14-2.25-0.68-4.44-1.32-6.61
				c-0.71-2.15-1.64-4.23-2.77-6.22c-4.57-7.88-12.54-14.03-21.66-15.7c-9.02-1.62-19.04,2.32-24.55,9.97
				c-5.51,7.64-6.3,18.6-1.69,27.12c-4.97-8.31-4.79-19.52,0.66-27.83c5.47-8.3,15.87-13.06,25.96-11.73
				c10.03,1.4,19.01,7.69,24.48,16.22c1.35,2.15,2.5,4.44,3.41,6.83c0.84,2.41,1.55,4.91,1.83,7.47c0.31,2.55,0.41,5.14,0.15,7.7
				c-0.07,1.29-0.32,2.55-0.51,3.82c-0.3,1.25-0.52,2.52-0.93,3.74c-1.43,4.95-3.89,9.58-7.09,13.67c-1.64,2.01-3.45,3.9-5.46,5.58
				c-2.04,1.64-4.19,3.18-6.53,4.36c-9.3,4.89-20.36,6.01-30.59,3.36c-2.54-0.72-5.07-1.58-7.47-2.75
				c-0.61-0.25-1.19-0.63-1.79-0.94c-0.58-0.34-1.21-0.64-1.74-1.01c-1.1-0.72-2.24-1.43-3.25-2.23
				c-4.18-3.11-7.85-6.66-11.21-10.49c-3.34-3.84-6.38-7.95-8.94-12.49c-2.52-4.55-4.73-9.46-5.54-15.34L60.64,237.64z"/>
		</g>
		<g>
			<path d="M61.57,241.38c1.49,3.79,3.89,7.73,6.56,11.41c2.69,3.7,5.71,7.24,8.94,10.52c3.23,3.27,6.73,6.32,10.39,8.68
				c0.46,0.28,0.91,0.61,1.37,0.86l1.38,0.73c0.46,0.28,0.91,0.4,1.36,0.6c0.44,0.19,0.89,0.38,1.42,0.52
				c2.01,0.64,4.12,1.02,6.25,1.16c4.27,0.33,8.64-0.36,12.63-1.93c2-0.79,3.86-1.85,5.57-3.1c1.7-1.25,3.27-2.74,4.5-4.42
				c5.1-6.65,5.95-16.88,1.65-24.28c-1.09-1.83-2.48-3.48-4.11-4.79c-1.65-1.33-3.61-2.28-5.67-2.94c-2.07-0.67-4.27-0.99-6.47-0.92
				c-2.2,0.05-4.4,0.42-6.47,1.16c-2.05,0.78-3.95,1.91-5.54,3.38c-0.37,0.39-0.81,0.73-1.14,1.16l-1.01,1.28l-0.81,1.4
				c-0.15,0.23-0.26,0.47-0.35,0.73l-0.3,0.76c-0.74,2.04-1.04,4.27-0.9,6.5c0.19,2.23,0.78,4.45,1.72,6.51
				c1.85,4.13,5.4,7.56,9.76,8.77c1.11,0.18,2.22,0.47,3.33,0.38c1.11-0.05,2.23-0.28,3.29-0.67c2.12-0.78,4.03-2.22,5.32-4.11
				c2.63-3.76,2.36-9.31-0.53-13.03c-0.72-0.93-1.6-1.73-2.64-2.28c-1.02-0.55-2.23-0.84-3.36-0.55c-1.16,0.22-1.99,1.28-2.19,2.45
				c-0.1,0.58-0.07,1.2,0.16,1.75c0.23,0.55,0.7,1,1.29,1.15c-0.6-0.12-1.11-0.56-1.36-1.12c-0.27-0.56-0.33-1.19-0.25-1.8
				c0.08-0.61,0.31-1.21,0.7-1.71c0.38-0.5,0.96-0.85,1.56-1.02c1.22-0.36,2.54-0.1,3.66,0.43c1.13,0.53,2.11,1.35,2.91,2.31
				c3.21,3.8,3.85,9.72,1.09,14.11c-1.36,2.17-3.41,3.87-5.79,4.87c-1.19,0.5-2.45,0.82-3.75,0.93c-1.31,0.15-2.59-0.1-3.87-0.27
				c-5.09-1.16-9.29-4.93-11.58-9.49c-1.17-2.28-1.95-4.77-2.28-7.35c-0.28-2.58-0.07-5.25,0.74-7.79l0.33-0.95
				c0.1-0.32,0.22-0.63,0.39-0.92l0.94-1.78l1.16-1.62c0.38-0.55,0.89-0.99,1.33-1.49c1.88-1.89,4.14-3.37,6.57-4.41
				c2.45-1,5.05-1.56,7.67-1.73c2.63-0.19,5.29,0.08,7.86,0.78c2.56,0.7,5.07,1.78,7.28,3.4c2.21,1.63,4.06,3.65,5.55,5.91
				c1.5,2.26,2.51,4.8,3.19,7.38c0.66,2.59,0.99,5.28,0.88,7.95c-0.1,2.67-0.54,5.33-1.33,7.91c-0.82,2.57-2.02,5.04-3.56,7.31
				c-1.54,2.29-3.44,4.25-5.55,5.96c-2.11,1.7-4.43,3.14-6.89,4.24c-4.92,2.19-10.3,3.27-15.69,3.1c-2.69-0.06-5.4-0.42-8.03-1.14
				c-0.65-0.14-1.34-0.38-2.02-0.63c-0.67-0.25-1.4-0.47-1.99-0.78L85,279.92c-0.61-0.3-1.16-0.65-1.75-0.98
				c-4.58-2.69-8.54-5.9-12.26-9.34c-3.71-3.45-7.15-7.14-10.32-11.13c-3.15-4.02-6.09-8.23-8.38-13.36
				c-1.12-2.52,0.01-5.48,2.54-6.6c2.52-1.12,5.48,0.01,6.6,2.54c0.03,0.06,0.06,0.13,0.08,0.19L61.57,241.38z"/>
		</g>
		<g>
			<path class="st32" d="M377.84,200.57c55.71-4.36,92.09-55.43,76.63-102.9C431.28,26.5,354.23-4.4,300.35,26.04
				c-56.33,31.83-19.97,73.15-56.56,106.51c-39.85,36.33-64.59-12.35-119.9-9.1c-37.33,2.19-103.17,45.62-89.99,98.74
				c10.96,44.19,51.66,60.36,51.66,60.36S61,255.24,59.43,228.8c-1.28-21.55,15.06-49.23,37.63-53.69
				c38.43-7.59,71.21,28.64,94.55,40.73c56.2,29.13,82.63,8.79,99.47,3.03c28.86-9.88,33.87-25.15,33.87-25.15
				S344.47,203.19,377.84,200.57z"/>
			<path class="st33" d="M386.52,212.34c47.14-11.69,77.79-56.21,63.93-102.12c-21.64-71.66-89.72-90.24-138.64-74.75
				c-61.68,19.53-14.65,85.31-51.24,118.67c-39.85,36.33-75.6-16.36-130.9-13.12c-37.33,2.19-97.48,37.47-84.31,90.59
				c10.96,44.19,52.01,49.76,52.01,49.76s-24.91-16.71-26.48-43.14c-1.28-21.55,15.06-49.23,37.63-53.69
				c38.43-7.59,71.84,43.18,96.3,52.82c34.31,13.53,54.31,3.11,71.15-2.65c28.86-9.88,51.06-40.68,51.06-40.68
				S346.18,222.34,386.52,212.34z"/>
			<g>
				<path class="st32" d="M343.47,189.38c12.02,4.2,25.15,5.39,37.26,2.33c3.02-0.77,5.95-1.8,8.77-3.06c2.82-1.26,5.49-2.83,8-4.59
					c1.27-0.86,2.45-1.85,3.64-2.81c1.13-1.04,2.29-2.04,3.33-3.16c2.13-2.19,4.08-4.57,5.79-7.11c3.51-5.02,6.15-10.64,8.2-16.44
					c2.01-5.84,3.42-11.87,4.11-17.96c0.67-6.09,0.68-12.23-0.07-18.26c-0.73-6.04-2.3-11.95-4.54-17.56
					c-2.25-5.61-5.21-10.92-8.81-15.72c-3.63-4.78-7.84-9.09-12.58-12.7c-4.74-3.59-10.02-6.39-15.56-8.33
					c-5.56-1.89-11.4-2.77-17.2-2.66c-6.01,0.19-11.95,0.98-17.49,2.74c-5.53,1.77-10.61,4.54-14.92,8.28
					c-4.33,3.73-7.87,8.41-10.74,13.59c-2.87,5.19-5.1,10.86-6.92,16.73c-3.73,11.75-5.99,24.2-8.69,36.78
					c-1.36,6.29-2.82,12.65-4.82,18.99c-2.02,6.32-4.53,12.74-8.68,18.6c-1.03,1.46-2.18,2.87-3.42,4.21
					c-0.65,0.65-1.26,1.33-1.97,1.93l-1.04,0.92l-1,0.8c-2.62,2.17-5.49,4.06-8.42,5.84c-2.98,1.71-6.1,3.2-9.33,4.44
					c-3.25,1.18-6.58,2.1-9.96,2.75c-6.77,1.23-13.65,1.32-20.31,0.57c-6.67-0.75-13.12-2.26-19.39-4.1
					c-6.28-1.84-12.37-4.03-18.38-6.33c-6.01-2.3-11.94-4.69-17.83-7.1c-11.79-4.78-23.6-9.34-35.79-12.39
					c-6.08-1.52-12.26-2.68-18.49-3.15c-6.23-0.54-12.51-0.3-18.72,0.56c-12.43,1.8-24.31,7.01-34.8,14.28
					c4.91-4.08,10.3-7.64,16.04-10.57c5.74-2.93,11.92-5.04,18.27-6.44c12.76-2.74,26.08-1.98,38.78,0.53
					c12.74,2.58,25,6.77,37.04,11.05c12.05,4.27,23.91,8.89,35.97,12.03c6.02,1.57,12.09,2.77,18.13,3.27
					c6.04,0.54,12.04,0.34,17.82-0.82c2.88-0.61,5.69-1.44,8.43-2.49c2.71-1.1,5.34-2.42,7.87-3.93c2.49-1.58,4.94-3.25,7.2-5.2
					l0.86-0.7l0.74-0.68c0.51-0.43,0.94-0.96,1.42-1.44c0.9-1.02,1.77-2.1,2.55-3.26c3.15-4.66,5.44-10.23,7.23-16.06
					c1.8-5.84,3.18-11.95,4.48-18.13c2.59-12.38,4.78-25.13,8.72-37.76c2-6.29,4.48-12.56,7.83-18.53c3.33-5.95,7.62-11.6,13-16.18
					c5.36-4.6,11.74-8.01,18.38-10.07c3.32-1.03,6.7-1.75,10.09-2.25c3.39-0.51,6.77-0.67,10.15-0.73
					c6.95-0.01,13.89,1.18,20.38,3.53c6.47,2.39,12.52,5.77,17.88,9.98c5.34,4.24,10.06,9.19,13.99,14.7
					c3.89,5.53,7.01,11.56,9.32,17.87c4.65,12.61,5.89,26.36,3.82,39.47c-1.02,6.56-2.81,12.96-5.22,19.09
					c-2.46,6.11-5.53,12.06-9.6,17.32c-2,2.65-4.25,5.11-6.69,7.37c-1.2,1.15-2.51,2.18-3.79,3.23c-1.35,0.97-2.67,1.97-4.09,2.82
					c-2.81,1.75-5.76,3.27-8.84,4.46c-3.07,1.19-6.26,2.06-9.47,2.67c-6.44,1.23-13.02,1.22-19.41,0.36
					C355.51,193.83,349.3,192,343.47,189.38z"/>
			</g>
			<g>
				<path class="st32" d="M362.39,179.52l2.63-1.75c0.86-0.61,1.73-1.19,2.58-1.81c1.7-1.21,3.38-2.45,4.98-3.77
					c3.22-2.61,6.28-5.36,9.08-8.32c2.81-2.94,5.35-6.08,7.59-9.38c0.57-0.82,1.06-1.68,1.61-2.51c0.51-0.85,0.99-1.71,1.49-2.57
					c0.44-0.88,0.91-1.75,1.33-2.63c0.37-0.89,0.79-1.74,1.14-2.63c2.78-7.18,4-15.12,3.81-22.86c-0.11-3.87-0.54-7.71-1.46-11.35
					c-0.89-3.64-2.23-7.11-4.11-10.02c-1.85-2.96-4.37-5.38-7.3-7.24c-2.92-1.88-6.29-3.15-9.87-3.75
					c-3.57-0.64-7.32-0.62-11.04-0.12c-3.71,0.54-7.46,1.56-10.88,3.09c-3.44,1.53-6.57,3.65-9.3,6.29
					c-2.73,2.64-4.98,5.86-6.78,9.39c-1.82,3.53-3.25,7.36-4.26,11.35c-1.12,3.98-1.73,8.12-2.39,12.3c-0.11-1.05-0.2-2.1-0.28-3.16
					c-0.07-1.06-0.21-2.12-0.2-3.18c0.01-2.12-0.07-4.27,0.14-6.41c0.21-4.3,1.07-8.61,2.47-12.81c1.42-4.19,3.51-8.3,6.43-11.88
					c2.9-3.58,6.55-6.63,10.6-8.89c4.06-2.27,8.38-3.83,12.92-4.78c4.53-0.96,9.28-1.17,14-0.58c4.73,0.58,9.41,2.2,13.63,4.72
					c4.19,2.56,7.88,6.08,10.51,10.23c2.63,4.17,4.28,8.66,5.31,13.18c0.99,4.53,1.41,9.08,1.32,13.59
					c-0.09,4.51-0.6,8.99-1.63,13.36c-1,4.38-2.47,8.66-4.5,12.74c-0.5,1.02-1.09,2.01-1.64,3.01c-0.59,0.96-1.21,1.88-1.81,2.82
					c-0.65,0.9-1.29,1.81-1.96,2.7c-0.69,0.86-1.37,1.74-2.1,2.57c-2.88,3.35-6.09,6.36-9.5,9.03c-3.43,2.66-7.05,5.01-10.84,7
					c-1.89,1-3.82,1.92-5.76,2.77C366.37,178.09,364.4,178.86,362.39,179.52z"/>
			</g>
			<g>
				<path class="st32" d="M329.35,141.2c0.58,15.64-4.31,31.59-12.9,45.18c-8.6,13.61-21.03,25.05-35.81,32.16
					c-14.77,7.13-31.47,9.72-47.47,7.96c-15.98-1.76-31.5-7.89-43.36-18.1c14.09,6.64,29.02,10.06,43.86,10.25
					c14.82,0.2,29.53-2.82,42.64-9.12c13.1-6.31,24.64-15.93,33.72-27.64C319.14,170.16,325.77,156.35,329.35,141.2z"/>
			</g>
			<g>
				<path class="st32" d="M356.29,134.11c-1.71-0.75-3.2-2.43-3.86-4.44c-0.68-2-0.77-4.25-0.21-6.42c0.58-2.14,1.73-4.32,3.71-5.94
					c1-0.83,2.05-1.43,3.2-1.9c0.57-0.26,1.16-0.4,1.75-0.59c0.59-0.12,1.2-0.27,1.81-0.32c2.42-0.26,4.87,0.02,7.1,0.84
					c2.25,0.79,4.34,2.03,6.13,3.73c1.82,1.73,3.15,3.79,4.09,5.94c0.92,2.17,1.45,4.44,1.65,6.68c0.16,2.25,0.04,4.47-0.36,6.62
					c-0.44,2.14-1.11,4.24-1.99,6.13c-1.77,3.81-4.2,7.05-6.84,9.82c-2.66,2.78-5.51,5.14-8.38,7.35l-8.72,6.61
					c1.2-3.57,3.13-6.83,5.09-9.92c1.98-3.09,4.04-5.99,5.81-8.88c1.77-2.89,3.3-5.73,4.26-8.58c0.49-1.44,0.85-2.8,1.03-4.2
					c0.22-1.39,0.25-2.79,0.13-4.12c-0.07-1.34-0.38-2.6-0.81-3.76c-0.4-1.18-1.05-2.21-1.72-3.05c-1.46-1.75-3.84-3.1-6.16-3.37
					c-2.37-0.27-4.57,0.38-6.26,2.78C355.15,127.42,354.28,130.87,356.29,134.11z"/>
			</g>
			<g>
				<path d="M280.72,139.41c-1.49,4.36-3.71,8.57-6.91,12.15c-1.6,1.79-3.43,3.37-5.52,4.69c-2.09,1.3-4.35,2.28-6.72,2.85
					c-4.69,1.18-9.99,0.84-14.38-1.83c-2.17-1.31-3.93-3.12-5.25-5.19c-0.67-1.03-1.18-2.17-1.59-3.33
					c-0.38-1.18-0.63-2.41-0.71-3.66c-0.04-1.25,0.04-2.52,0.36-3.75c0.33-1.23,0.83-2.45,1.55-3.47c0.69-1.04,1.52-1.95,2.46-2.7
					c0.92-0.78,1.96-1.38,3.04-1.86c1.08-0.5,2.25-0.78,3.43-0.95c1.19-0.14,2.41-0.07,3.59,0.17c1.18,0.31,2.3,0.76,3.3,1.51
					c0.96,0.75,1.81,1.65,2.34,2.7c0.56,1.03,0.95,2.13,1.11,3.25c0.12,0.56,0.1,1.13,0.14,1.69c-0.04,0.56-0.04,1.13-0.17,1.68
					c-0.18,1.11-0.59,2.18-1.19,3.13c-0.58,0.97-1.44,1.77-2.4,2.33c-0.92,0.62-2.18,0.87-3.26,0.69c-1.1-0.17-2.14-0.7-2.87-1.53
					c-1.46-1.7-1.25-4.33,0.19-5.78c-1.29,1.59-1.12,4.07,0.26,5.35c1.38,1.28,3.64,1.39,5,0.22c0.73-0.54,1.34-1.23,1.72-2.05
					c0.4-0.8,0.64-1.69,0.69-2.6c0.06-0.45,0-0.91,0-1.36c-0.08-0.45-0.11-0.9-0.25-1.33c-0.21-0.87-0.61-1.68-1.09-2.38
					c-0.46-0.73-1.13-1.26-1.79-1.69c-0.67-0.41-1.5-0.63-2.3-0.76c-0.82-0.07-1.65-0.04-2.46,0.15c-0.81,0.22-1.61,0.48-2.34,0.92
					c-0.73,0.42-1.41,0.92-1.98,1.52c-0.59,0.58-1.07,1.25-1.43,1.94c-0.39,0.69-0.57,1.42-0.7,2.15c-0.12,0.76-0.07,1.54,0.03,2.3
					c0.49,3.08,2.85,5.91,5.62,7.2c2.74,1.3,6.2,1.23,9.23,0.1c6.21-2.18,10.13-8.47,11.66-15.28c0.6-2.7,3.28-4.4,5.98-3.79
					c2.7,0.6,4.4,3.28,3.79,5.98c-0.04,0.18-0.09,0.35-0.15,0.52L280.72,139.41z"/>
			</g>
		</g>
		<g>
			<path d="M194.48,231.22c-3.22-2.71-7.38-5.09-11.57-6.9c-4.2-1.77-8.69-3.12-12.56-2.82c-4.08,0.33-8.25,2.12-11.17,5.06
				c-1.48,1.45-2.57,3.22-3.26,5.13c-0.66,1.84-0.72,3.93-0.33,5.98c0.39,2.06,1.35,4.04,2.65,5.69c1.32,1.66,3.09,2.88,5.06,3.49
				c1.01,0.24,2.01,0.42,3.01,0.28c1.02-0.05,2.02-0.44,2.99-0.87c1.9-1,3.59-2.61,4.69-4.56c0.23-0.51,0.54-0.99,0.69-1.52
				l0.27-0.79l0.16-0.81l0.08-0.41l0.02-0.41l0.05-0.83l-0.09-0.82l-0.04-0.41l-0.12-0.39l-0.22-0.8l-0.37-0.75
				c-0.22-0.54-0.54-0.91-0.91-1.29c-0.78-0.71-1.84-1.18-2.96-1.3c-1.12-0.14-2.3,0.06-3.29,0.6c-0.98,0.53-1.84,1.46-2.05,2.56
				c-0.23,1.12,0.42,2.27,1.27,3.11c0.87,0.86,1.95,1.5,3.1,1.98c-1.18-0.38-2.34-0.93-3.31-1.75c-0.48-0.41-0.93-0.89-1.25-1.47
				c-0.33-0.57-0.5-1.27-0.43-1.95c0.15-1.39,1.07-2.54,2.18-3.29c1.13-0.74,2.51-1.1,3.87-1.04c1.36,0.03,2.74,0.48,3.88,1.36
				c0.54,0.45,1.07,1.03,1.38,1.62l0.53,0.89l0.37,0.97l0.18,0.49l0.1,0.51l0.2,1.03l0.04,1.04l0.01,0.52l-0.06,0.51l-0.12,1.03
				l-0.25,1c-0.14,0.68-0.45,1.29-0.69,1.94c-1.14,2.49-3.01,4.64-5.39,6.16c-1.23,0.69-2.55,1.32-4.02,1.55
				c-1.45,0.32-2.98,0.21-4.39-0.03c-2.86-0.61-5.49-2.15-7.45-4.23c-1.96-2.08-3.45-4.61-4.24-7.38c-0.78-2.76-0.99-5.82-0.22-8.77
				c0.74-2.85,2.13-5.54,4.02-7.75c3.77-4.46,9.08-7.32,14.85-8.32c0.73-0.1,1.44-0.23,2.21-0.25l1.13-0.06l1.1,0.02
				c1.47,0.02,2.86,0.19,4.24,0.4c2.75,0.43,5.37,1.12,7.92,1.97c2.55,0.85,5.03,1.85,7.46,3.02c2.43,1.18,4.81,2.5,7.18,4.18
				c2.25,1.6,2.78,4.73,1.18,6.98c-1.6,2.25-4.73,2.78-6.98,1.18c-0.11-0.08-0.21-0.16-0.31-0.24L194.48,231.22z"/>
		</g>
	</g>
	<path class="st34" d="M364.28,362.98c17.79-31.36,80.5,18.3,80.5,18.3s-6.25,53.88-42.88,53.88
		C381.12,435.17,340.78,404.41,364.28,362.98z"/>
	<path class="st34" d="M580.67,361.59c-17.65-22.51-62.38,19.97-62.38,19.97s8.62,42.16,37.58,39.66
		C572.29,419.8,600.62,387.04,580.67,361.59z"/>
	<ellipse class="st33" cx="404.17" cy="401.32" rx="22.36" ry="26.07"/>
	<g>
		<path d="M377.63,447.17c3-2.62,6.43-4.75,10.06-6.52l2.79-1.21c0.94-0.37,1.9-0.7,2.86-1.04c0.97-0.3,1.95-0.56,2.94-0.84
			c0.99-0.25,1.99-0.45,2.99-0.67l3.03-0.54c1.02-0.16,2.04-0.27,3.07-0.41c1.03-0.09,2.07-0.1,3.1-0.09
			c1.04,0.04,2.07,0.2,3.09,0.33c1.02,0.19,2.03,0.45,3.03,0.71c0.99,0.31,1.97,0.67,2.93,1.06c0.95,0.42,1.87,0.92,2.77,1.41
			c0.88,0.58,1.73,1.16,2.53,1.84c0.11,0.09,0.12,0.26,0.03,0.37c-0.05,0.06-0.12,0.09-0.19,0.09l-0.02,0
			c-1.06,0.03-2.05-0.07-3.03-0.13c-0.99-0.03-1.96-0.09-2.91-0.17c-0.97,0-1.91-0.08-2.85-0.12c-0.95,0-1.88-0.07-2.81-0.09
			c-0.93-0.01-1.86-0.05-2.79-0.1c-0.93-0.01-1.86-0.1-2.79-0.16c-0.93-0.04-1.88-0.11-2.82-0.12c-0.94,0.02-1.89,0.02-2.83,0.09
			c-0.94,0.1-1.88,0.18-2.83,0.3c-0.93,0.16-1.88,0.29-2.81,0.47c-0.93,0.2-1.87,0.38-2.8,0.6l-2.77,0.77
			c-3.7,1.08-7.26,2.66-10.68,4.6c-0.12,0.07-0.27,0.03-0.34-0.09C377.52,447.38,377.54,447.25,377.63,447.17z"/>
	</g>
	<g>
		<path d="M366.8,439.97c2.74-1.46,5.65-2.58,8.63-3.56c1.5-0.46,3.01-0.88,4.55-1.23c0.77-0.18,1.54-0.32,2.32-0.45
			c0.78-0.15,1.56-0.26,2.34-0.37c0.78-0.12,1.57-0.22,2.36-0.32c0.79-0.12,1.59-0.21,2.39-0.27l1.2-0.07
			c0.4,0.01,0.8,0.01,1.21,0.03c0.8,0.03,1.6,0.14,2.4,0.3c3.15,0.66,6.32,1.88,8.76,4.25c0.11,0.11,0.11,0.28,0.01,0.39
			c-0.05,0.05-0.11,0.08-0.17,0.08l-0.01,0c-3.31,0.26-6.18,0.24-9.11,0.25c-0.73-0.01-1.45-0.04-2.17-0.07l-2.18-0.21
			c-0.73-0.11-1.46-0.19-2.2-0.25c-0.74-0.08-1.48-0.11-2.22-0.11c-0.74-0.01-1.49-0.01-2.23,0.02c-0.74,0.02-1.49,0.04-2.23,0.1
			c-1.5,0.06-2.99,0.2-4.49,0.38c-3.01,0.3-5.99,0.89-8.98,1.58c-0.14,0.03-0.27-0.05-0.3-0.19
			C366.65,440.14,366.7,440.02,366.8,439.97z"/>
	</g>
	<g>
		<path d="M576.59,429.81c-2.63-1.17-5.32-2.07-8.05-2.63l-2.05-0.38l-2.06-0.25c-0.68-0.07-1.37-0.11-2.05-0.17
			c-0.68-0.03-1.37-0.03-2.05-0.05c-0.68,0.01-1.36,0.06-2.04,0.12c-0.68,0.07-1.34,0.19-2.01,0.28c-0.66,0.1-1.32,0.23-1.98,0.27
			c-0.66,0.07-1.32,0.15-1.99,0.16c-2.69,0.12-5.36,0.33-8.51,0.27c-0.15,0-0.28-0.13-0.28-0.28c0-0.07,0.03-0.13,0.06-0.17
			c2.05-2.49,4.93-3.94,7.91-4.75c0.75-0.17,1.51-0.33,2.28-0.41c0.77-0.06,1.54-0.07,2.31-0.04c0.77,0.08,1.54,0.14,2.3,0.23
			l2.26,0.32c0.75,0.14,1.49,0.25,2.23,0.41c0.74,0.18,1.47,0.34,2.2,0.54c0.72,0.23,1.44,0.45,2.14,0.7l2.09,0.82
			c2.73,1.2,5.3,2.71,7.55,4.58c0.11,0.09,0.12,0.25,0.03,0.36C576.82,429.83,576.69,429.86,576.59,429.81z"/>
	</g>
	<g>
		<path d="M584.28,424.14c-2.24-0.28-4.45-0.47-6.64-0.5c-1.1-0.03-2.19-0.02-3.27,0.03c-1.08,0.02-2.16,0.08-3.23,0.2
			c-0.53,0.05-1.06,0.12-1.59,0.24c-0.53,0.09-1.05,0.21-1.56,0.34c-0.52,0.1-1.03,0.21-1.54,0.28c-0.52,0.06-1.03,0.09-1.55,0.12
			c-2.11,0.03-4.17,0-6.74-0.39l-0.01,0c-0.16-0.02-0.27-0.17-0.24-0.33c0.01-0.05,0.02-0.09,0.05-0.12
			c1.53-2.18,3.82-3.37,6.11-4.08c1.16-0.35,2.36-0.48,3.56-0.4c0.6,0.03,1.19,0.09,1.78,0.17l1.76,0.19
			c1.17,0.11,2.32,0.28,3.47,0.49c1.14,0.22,2.27,0.5,3.38,0.81c2.22,0.65,4.38,1.45,6.41,2.49c0.12,0.06,0.17,0.22,0.11,0.34
			C584.48,424.1,584.38,424.16,584.28,424.14z"/>
	</g>
	<g>
		<path d="M408.59,346.25c-8.11,1.57-15.48,2.92-22.47,4.93c-6.95,2.01-13.45,4.57-19.16,7.95c-5.67,3.38-10.61,7.66-14.5,13.17
			c-3.94,5.49-6.77,12.1-8.65,20.11l-0.79,0.1c-0.54-3.91-0.52-7.9,0.09-11.82c0.64-3.91,1.88-7.73,3.65-11.28
			c3.52-7.14,9.3-13.06,16.1-17.14c6.86-4.03,14.57-6.35,22.36-7.43c3.91-0.52,7.85-0.72,11.78-0.62c3.93,0.13,7.85,0.56,11.71,1.25
			L408.59,346.25z"/>
	</g>
	<g>
		<path d="M548.4,346.99c2.5-1.59,5.56-2.11,8.54-2.22c3-0.05,5.95,0.47,8.76,1.26c5.63,1.63,10.65,4.42,15.17,7.62l1.66,1.24
			l0.83,0.63c0.32,0.27,0.65,0.53,0.96,0.81c0.65,0.53,1.22,1.14,1.79,1.74c0.59,0.58,1.09,1.25,1.59,1.9
			c1.98,2.64,3.31,5.61,4.06,8.59c1.47,5.99,0.95,11.99-1.33,17.27l-0.6-0.02c0.04-2.65-0.12-5.3-0.54-7.9
			c-0.39-2.6-1.03-5.17-2-7.6c-0.96-2.43-2.26-4.73-3.95-6.71c-1.66-2.01-3.77-3.53-5.96-5.06c-4.31-3.08-8.78-5.97-13.61-8.1
			c-2.41-1.06-4.91-1.94-7.47-2.48c-2.56-0.57-5.21-0.78-7.8-0.38L548.4,346.99z"/>
	</g>
	<path class="st20" d="M423.37,371.83c-5.19,6.47-9.2,13.89-11.77,21.77c8.8-3.88,17.59-2.33,26.39-6.21"/>
	
		<ellipse transform="matrix(0.0974 -0.9952 0.9952 0.0974 109.2459 905.3575)" class="st33" cx="553.79" cy="392.45" rx="22.48" ry="19.28"/>
	<path class="st20" d="M569.31,370.46c-5,5.12-7.64,8.82-10.5,15.37c7.87-2.59,14.94-2.24,22.82-4.83"/>
</g>
</svg>
